<svg width="448" height="448" viewBox="0 0 448 448" fill="none" xmlns="http://www.w3.org/2000/svg">
<circle opacity="0.6" cx="224.422" cy="223.52" r="61" stroke="#FA0056"/>
<circle opacity="0.4" cx="224.422" cy="223.52" r="110" stroke="#FA0056"/>
<circle opacity="0.2" cx="224.422" cy="223.52" r="168" stroke="#FA0056"/>
<circle opacity="0.05" cx="224.422" cy="223.52" r="223" stroke="#FA0056"/>
<path d="M214.758 223.048H208.674V228.988H203.13V223.048H197.01V217.792H203.13V211.852H208.674V217.792H214.758V223.048ZM228.04 207.82V233.02H220.912V213.328H216.232V207.82H228.04ZM249.973 219.736C251.125 220.408 252.013 221.236 252.637 222.22C253.261 223.204 253.573 224.332 253.573 225.604C253.573 227.188 253.117 228.58 252.205 229.78C251.293 230.98 250.009 231.904 248.353 232.552C246.697 233.2 244.789 233.524 242.629 233.524C240.469 233.524 238.561 233.2 236.905 232.552C235.249 231.904 233.965 230.98 233.053 229.78C232.141 228.58 231.685 227.188 231.685 225.604C231.685 224.332 231.997 223.204 232.621 222.22C233.245 221.236 234.133 220.408 235.285 219.736C234.421 219.136 233.749 218.404 233.269 217.54C232.813 216.676 232.585 215.716 232.585 214.66C232.585 213.196 233.005 211.912 233.845 210.808C234.685 209.68 235.861 208.816 237.373 208.216C238.909 207.616 240.661 207.316 242.629 207.316C244.597 207.316 246.337 207.616 247.849 208.216C249.385 208.816 250.573 209.68 251.413 210.808C252.253 211.912 252.673 213.196 252.673 214.66C252.673 215.716 252.433 216.676 251.953 217.54C251.497 218.404 250.837 219.136 249.973 219.736ZM242.629 212.32C241.741 212.32 241.021 212.56 240.469 213.04C239.917 213.496 239.641 214.144 239.641 214.984C239.641 215.8 239.905 216.448 240.433 216.928C240.985 217.384 241.717 217.612 242.629 217.612C243.541 217.612 244.273 217.384 244.825 216.928C245.377 216.448 245.653 215.8 245.653 214.984C245.653 214.144 245.377 213.496 244.825 213.04C244.273 212.56 243.541 212.32 242.629 212.32ZM242.629 228.52C243.781 228.52 244.693 228.244 245.365 227.692C246.061 227.116 246.409 226.348 246.409 225.388C246.409 224.428 246.061 223.672 245.365 223.12C244.693 222.544 243.781 222.256 242.629 222.256C241.477 222.256 240.553 222.544 239.857 223.12C239.185 223.672 238.849 224.428 238.849 225.388C238.849 226.348 239.185 227.116 239.857 227.692C240.553 228.244 241.477 228.52 242.629 228.52Z" fill="#FA0056"/>
</svg>
