<svg width="2789" height="956" viewBox="0 0 2789 956" fill="none" xmlns="http://www.w3.org/2000/svg">
<g filter="url(#filter0_i_562_1238)">
<rect x="66.9453" width="2734.12" height="13.6026" transform="rotate(5.51957 66.9453 0)" fill="#A50B40"/>
<path fill-rule="evenodd" clip-rule="evenodd" d="M100.421 58.2238L153.075 63.312L151.751 77.0127L112.261 73.1966L108.289 114.299L187.269 121.931L185.945 135.632L93.8014 126.727L100.421 58.2238ZM175.43 106.958L182.05 38.4546L76.7422 28.2783L67.4745 124.183L80.638 125.455L88.5817 43.2511L167.562 50.8833L163.59 91.9854L124.1 88.1693L122.776 101.87L175.43 106.958Z" fill="#A50B40"/>
<path fill-rule="evenodd" clip-rule="evenodd" d="M218.138 69.5994L269.287 74.5421L267.963 88.2429L229.601 84.5358L225.629 125.638L302.353 133.052L301.029 146.753L211.518 138.103L218.138 69.5994ZM290.89 118.116L297.51 49.6121L195.211 39.7266L185.943 135.632L198.731 136.867L206.674 54.663L283.398 62.0771L279.427 103.179L241.064 99.4722L239.741 113.173L290.89 118.116Z" fill="#A50B40"/>
<path fill-rule="evenodd" clip-rule="evenodd" d="M333.976 80.7932L386.63 85.8813L385.306 99.582L345.815 95.7659L341.843 136.868L420.824 144.5L419.5 158.201L327.356 149.297L333.976 80.7932ZM408.985 129.528L415.604 61.0239L310.297 50.8477L301.029 146.753L314.193 148.025L322.136 65.8204L401.117 73.4526L397.145 114.555L357.655 110.739L356.331 124.439L408.985 129.528Z" fill="#A50B40"/>
<path fill-rule="evenodd" clip-rule="evenodd" d="M451.951 92.1929L503.602 97.1842L502.278 110.885L463.54 107.141L459.568 148.244L537.044 155.73L535.72 169.431L445.331 160.697L451.951 92.1929ZM525.455 140.782L532.075 72.2783L428.773 62.2959L419.506 158.201L432.418 159.449L440.362 77.2444L517.838 84.7312L513.867 125.833L475.128 122.09L473.805 135.791L525.455 140.782Z" fill="#A50B40"/>
<path fill-rule="evenodd" clip-rule="evenodd" d="M568.663 103.472L621.317 108.56L619.993 122.261L580.503 118.445L576.531 159.547L655.512 167.179L654.188 180.88L562.044 171.975L568.663 103.472ZM643.672 152.206L650.292 83.7026L544.984 73.5264L535.717 169.431L548.88 170.703L556.824 88.4991L635.804 96.1313L631.833 137.233L592.342 133.417L591.018 147.118L643.672 152.206Z" fill="#A50B40"/>
<path fill-rule="evenodd" clip-rule="evenodd" d="M686.631 114.872L738.281 119.863L736.958 133.564L698.219 129.82L694.248 170.922L771.724 178.409L770.4 192.11L680.011 183.375L686.631 114.872ZM760.135 163.461L766.755 94.957L663.453 84.9746L654.185 180.88L667.098 182.127L675.042 99.9231L752.518 107.41L748.546 148.512L709.808 144.769L708.484 158.469L760.135 163.461Z" fill="#A50B40"/>
<path fill-rule="evenodd" clip-rule="evenodd" d="M803.1 126.126L855.252 131.166L853.928 144.867L814.814 141.087L810.842 182.189L889.071 189.749L887.747 203.449L796.48 194.63L803.1 126.126ZM877.357 174.788L883.976 106.284L779.672 96.2051L770.404 192.11L783.442 193.37L791.386 111.166L869.614 118.725L865.643 159.827L826.528 156.048L825.204 169.748L877.357 174.788Z" fill="#A50B40"/>
<path fill-rule="evenodd" clip-rule="evenodd" d="M920.695 137.489L973.348 142.578L972.024 156.278L932.534 152.462L928.562 193.564L1007.54 201.197L1006.22 214.897L914.075 205.993L920.695 137.489ZM995.703 186.224L1002.32 117.72L897.016 107.544L887.748 203.449L900.911 204.721L908.855 122.517L987.836 130.149L983.864 171.251L944.374 167.435L943.05 181.136L995.703 186.224Z" fill="#A50B40"/>
<path fill-rule="evenodd" clip-rule="evenodd" d="M1038.66 148.889L1090.31 153.88L1088.99 167.581L1050.25 163.838L1046.28 204.94L1123.76 212.427L1122.43 226.127L1032.04 217.393L1038.66 148.889ZM1112.17 197.478L1118.79 128.975L1015.48 118.992L1006.22 214.897L1019.13 216.145L1027.07 133.941L1104.55 141.428L1100.58 182.53L1061.84 178.786L1060.52 192.487L1112.17 197.478Z" fill="#A50B40"/>
<path fill-rule="evenodd" clip-rule="evenodd" d="M1154.87 160.12L1206.52 165.111L1205.2 178.812L1166.46 175.068L1162.49 216.17L1239.97 223.657L1238.64 237.358L1148.25 228.623L1154.87 160.12ZM1228.38 208.709L1235 140.205L1131.7 130.223L1122.43 226.128L1135.34 227.376L1143.28 145.171L1220.76 152.658L1216.79 193.76L1178.05 190.017L1176.73 203.717L1228.38 208.709Z" fill="#A50B40"/>
<path fill-rule="evenodd" clip-rule="evenodd" d="M1271.59 171.399L1324.25 176.487L1322.92 190.187L1283.43 186.371L1279.46 227.474L1358.44 235.106L1357.12 248.806L1264.97 239.902L1271.59 171.399ZM1346.6 220.133L1353.22 151.629L1247.91 141.453L1238.65 237.358L1251.81 238.63L1259.75 156.426L1338.73 164.058L1334.76 205.16L1295.27 201.344L1293.95 215.045L1346.6 220.133Z" fill="#A50B40"/>
<path fill-rule="evenodd" clip-rule="evenodd" d="M1390.06 182.847L1442.72 187.935L1441.39 201.636L1401.9 197.82L1397.93 238.922L1476.91 246.554L1475.59 260.255L1383.44 251.35L1390.06 182.847ZM1465.07 231.581L1471.69 163.078L1366.38 152.901L1357.12 248.806L1370.28 250.078L1378.22 167.874L1457.2 175.506L1453.23 216.608L1413.74 212.792L1412.42 226.493L1465.07 231.581Z" fill="#A50B40"/>
<path fill-rule="evenodd" clip-rule="evenodd" d="M1507.78 194.222L1558.93 199.165L1557.6 212.866L1519.24 209.159L1515.27 250.261L1591.99 257.675L1590.67 271.376L1501.16 262.726L1507.78 194.222ZM1580.53 242.739L1587.15 174.235L1484.85 164.35L1475.58 260.255L1488.37 261.49L1496.31 179.286L1573.04 186.7L1569.07 227.802L1530.71 224.095L1529.38 237.796L1580.53 242.739Z" fill="#A50B40"/>
<path fill-rule="evenodd" clip-rule="evenodd" d="M1623.62 205.416L1676.27 210.504L1674.95 224.205L1635.46 220.389L1631.48 261.491L1710.46 269.123L1709.14 282.824L1617 273.92L1623.62 205.416ZM1698.63 254.151L1705.24 185.647L1599.94 175.471L1590.67 271.376L1603.83 272.648L1611.78 190.443L1690.76 198.076L1686.79 239.178L1647.3 235.362L1645.97 249.062L1698.63 254.151Z" fill="#A50B40"/>
<path fill-rule="evenodd" clip-rule="evenodd" d="M1741.84 216.84L1793.99 221.88L1792.67 235.581L1753.56 231.801L1749.58 272.903L1827.81 280.463L1826.49 294.163L1735.22 285.344L1741.84 216.84ZM1816.1 265.502L1822.72 196.998L1718.41 186.919L1709.15 282.824L1722.18 284.084L1730.13 201.88L1808.36 209.439L1804.38 250.541L1765.27 246.761L1763.95 260.462L1816.1 265.502Z" fill="#A50B40"/>
<path fill-rule="evenodd" clip-rule="evenodd" d="M1859.18 228.179L1911.33 233.219L1910.01 246.919L1870.89 243.14L1866.92 284.242L1945.15 291.801L1943.82 305.502L1852.56 296.683L1859.18 228.179ZM1933.43 276.841L1940.05 208.337L1835.75 198.258L1826.48 294.163L1839.52 295.423L1847.46 213.218L1925.69 220.778L1921.72 261.88L1882.61 258.1L1881.28 271.801L1933.43 276.841Z" fill="#A50B40"/>
<path fill-rule="evenodd" clip-rule="evenodd" d="M1976.02 239.47L2027.17 244.413L2025.85 258.114L1987.48 254.407L1983.51 295.509L2060.24 302.923L2058.91 316.624L1969.4 307.974L1976.02 239.47ZM2048.77 287.987L2055.39 219.483L1953.09 209.598L1943.83 305.503L1956.61 306.738L1964.56 224.534L2041.28 231.948L2037.31 273.05L1998.95 269.343L1997.62 283.044L2048.77 287.987Z" fill="#A50B40"/>
<path fill-rule="evenodd" clip-rule="evenodd" d="M2091.86 250.664L2144.51 255.752L2143.19 269.453L2103.7 265.637L2099.73 306.739L2178.71 314.371L2177.38 328.072L2085.24 319.168L2091.86 250.664ZM2166.87 299.399L2173.49 230.895L2068.18 220.719L2058.91 316.624L2072.08 317.896L2080.02 235.692L2159 243.324L2155.03 284.426L2115.54 280.61L2114.21 294.31L2166.87 299.399Z" fill="#A50B40"/>
<path fill-rule="evenodd" clip-rule="evenodd" d="M2210.34 262.112L2262.99 267.201L2261.67 280.901L2222.17 277.085L2218.2 318.187L2297.18 325.82L2295.86 339.52L2203.72 330.616L2210.34 262.112ZM2285.34 310.847L2291.96 242.343L2186.66 232.167L2177.39 328.072L2190.55 329.344L2198.5 247.14L2277.48 254.772L2273.5 295.874L2234.01 292.058L2232.69 305.759L2285.34 310.847Z" fill="#A50B40"/>
<path fill-rule="evenodd" clip-rule="evenodd" d="M2328.3 273.512L2379.95 278.503L2378.63 292.204L2339.89 288.461L2335.92 329.563L2413.4 337.05L2412.07 350.751L2321.68 342.016L2328.3 273.512ZM2401.81 322.101L2408.43 253.598L2305.12 243.615L2295.86 339.52L2308.77 340.768L2316.71 258.564L2394.19 266.051L2390.22 307.153L2351.48 303.409L2350.16 317.11L2401.81 322.101Z" fill="#A50B40"/>
<path fill-rule="evenodd" clip-rule="evenodd" d="M2444.76 284.767L2496.92 289.807L2495.59 303.507L2456.48 299.728L2452.51 340.83L2530.73 348.389L2529.41 362.09L2438.14 353.271L2444.76 284.767ZM2519.02 333.429L2525.64 264.925L2421.34 254.846L2412.07 350.751L2425.11 352.011L2433.05 269.806L2511.28 277.366L2507.31 318.468L2468.19 314.688L2466.87 328.389L2519.02 333.429Z" fill="#A50B40"/>
<path fill-rule="evenodd" clip-rule="evenodd" d="M2562.11 296.106L2614.26 301.146L2612.94 314.846L2573.82 311.066L2569.85 352.169L2648.08 359.728L2646.75 373.429L2555.49 364.609L2562.11 296.106ZM2636.36 344.768L2642.98 276.264L2538.68 266.185L2529.41 362.09L2542.45 363.35L2550.39 281.145L2628.62 288.705L2624.65 329.807L2585.54 326.027L2584.21 339.728L2636.36 344.768Z" fill="#A50B40"/>
<path fill-rule="evenodd" clip-rule="evenodd" d="M2679.45 307.445L2731.6 312.484L2730.28 326.185L2691.17 322.405L2687.19 363.508L2765.42 371.067L2764.1 384.768L2672.83 375.948L2679.45 307.445ZM2753.71 356.106L2760.33 287.603L2656.02 277.523L2646.76 373.428L2659.79 374.688L2667.74 292.484L2745.97 300.044L2741.99 341.146L2702.88 337.366L2701.56 351.067L2753.71 356.106Z" fill="#A50B40"/>
<rect x="53.75" y="136.523" width="2734.12" height="13.6026" transform="rotate(5.51957 53.75 136.523)" fill="#A50B40"/>
<rect x="49.8281" y="177.143" width="163.231" height="13.6026" transform="rotate(5.51957 49.8281 177.143)" fill="#A50B40"/>
<rect x="71.6719" y="233.917" width="95.2182" height="13.6026" transform="rotate(5.51957 71.6719 233.917)" fill="#A50B40"/>
<rect x="120.602" y="293.31" width="40.8078" height="13.6026" transform="rotate(5.51957 120.602 293.31)" fill="#A50B40"/>
<rect x="61.2031" y="342.233" width="136.026" height="13.6026" transform="rotate(5.51957 61.2031 342.233)" fill="#A50B40"/>
<rect x="47.2109" y="204.222" width="149.629" height="13.6026" transform="rotate(5.51957 47.2109 204.222)" fill="#A50B40"/>
<rect x="96.1328" y="263.613" width="40.8078" height="13.6026" transform="rotate(5.51957 96.1328 263.613)" fill="#A50B40"/>
<rect x="90.9062" y="317.771" width="95.2182" height="13.6026" transform="rotate(5.51957 90.9062 317.771)" fill="#A50B40"/>
<rect x="21.0469" y="475.013" width="149.629" height="13.6026" transform="rotate(5.51957 21.0469 475.013)" fill="#A50B40"/>
<rect x="18.4297" y="502.092" width="163.231" height="13.6026" transform="rotate(5.51957 18.4297 502.092)" fill="#A50B40"/>
<rect x="60.75" y="205.53" width="285.655" height="13.6026" transform="rotate(95.5196 60.75 205.53)" fill="#A50B40"/>
<rect x="85.2109" y="235.226" width="231.244" height="13.6026" transform="rotate(95.5196 85.2109 235.226)" fill="#A50B40"/>
<rect x="196.148" y="218.614" width="122.423" height="13.6026" transform="rotate(95.5196 196.148 218.614)" fill="#A50B40"/>
<rect x="166.453" y="243.076" width="68.013" height="13.6026" transform="rotate(95.5196 166.453 243.076)" fill="#A50B40"/>
<rect x="109.672" y="264.922" width="68.013" height="13.6026" transform="rotate(95.5196 109.672 264.922)" fill="#A50B40"/>
<rect width="95.2182" height="13.6026" transform="matrix(0.995363 0.0961857 0.0961857 -0.995363 49.4297 464.09)" fill="#A50B40"/>
<rect width="40.8078" height="13.6026" transform="matrix(0.995363 0.0961857 0.0961857 -0.995363 108.82 415.165)" fill="#A50B40"/>
<rect width="40.8078" height="13.6026" transform="matrix(0.995363 0.0961857 0.0961857 -0.995363 79.125 439.627)" fill="#A50B40"/>
<rect width="95.2182" height="13.6026" transform="matrix(0.995363 0.0961857 0.0961857 -0.995363 84.3594 385.469)" fill="#A50B40"/>
<rect width="68.013" height="13.6026" transform="matrix(0.0961856 -0.995363 -0.995363 -0.0961856 144.211 473.248)" fill="#A50B40"/>
<rect width="68.013" height="13.6026" transform="matrix(0.0961856 -0.995363 -0.995363 -0.0961856 92.6641 440.936)" fill="#A50B40"/>
<rect x="180.445" y="381.088" width="122.423" height="13.6026" transform="rotate(95.5196 180.445 381.088)" fill="#A50B40"/>
<rect x="225.844" y="194.151" width="340.065" height="13.6026" transform="rotate(95.5196 225.844 194.151)" fill="#A50B40"/>
<rect width="163.231" height="13.6026" transform="matrix(-0.995363 -0.0961857 -0.0961857 0.995363 388.32 209.852)" fill="#A50B40"/>
<rect width="95.2182" height="13.6026" transform="matrix(-0.995363 -0.0961857 -0.0961857 0.995363 356.008 261.393)" fill="#A50B40"/>
<rect width="40.8078" height="13.6026" transform="matrix(-0.995363 -0.0961857 -0.0961857 0.995363 296.617 310.317)" fill="#A50B40"/>
<rect width="136.026" height="13.6026" transform="matrix(-0.995363 -0.0961857 -0.0961857 0.995363 345.539 369.709)" fill="#A50B40"/>
<rect width="149.629" height="13.6026" transform="matrix(-0.995363 -0.0961857 -0.0961857 0.995363 385.703 236.931)" fill="#A50B40"/>
<rect width="40.8078" height="13.6026" transform="matrix(-0.995363 -0.0961857 -0.0961857 0.995363 326.312 285.855)" fill="#A50B40"/>
<rect width="95.2182" height="13.6026" transform="matrix(-0.995363 -0.0961857 -0.0961857 0.995363 321.078 340.014)" fill="#A50B40"/>
<rect width="149.629" height="13.6026" transform="matrix(-0.995363 -0.0961857 -0.0961857 0.995363 359.539 507.722)" fill="#A50B40"/>
<rect width="163.231" height="13.6026" transform="matrix(-0.995363 -0.0961857 -0.0961857 0.995363 356.922 534.801)" fill="#A50B40"/>
<rect width="285.655" height="13.6026" transform="matrix(-0.0961856 0.995363 0.995363 0.0961856 372.164 235.622)" fill="#A50B40"/>
<rect width="231.244" height="13.6026" transform="matrix(-0.0961856 0.995363 0.995363 0.0961856 342.469 260.085)" fill="#A50B40"/>
<rect width="122.423" height="13.6026" transform="matrix(-0.0961856 0.995363 0.995363 0.0961856 236.766 222.538)" fill="#A50B40"/>
<rect width="68.013" height="13.6026" transform="matrix(-0.0961856 0.995363 0.995363 0.0961856 261.234 252.234)" fill="#A50B40"/>
<rect width="68.013" height="13.6026" transform="matrix(-0.0961856 0.995363 0.995363 0.0961856 312.773 284.547)" fill="#A50B40"/>
<rect x="333.766" y="491.565" width="95.2182" height="13.6026" transform="rotate(-174.48 333.766 491.565)" fill="#A50B40"/>
<rect x="284.844" y="432.174" width="40.8078" height="13.6026" transform="rotate(-174.48 284.844 432.174)" fill="#A50B40"/>
<rect x="309.305" y="461.869" width="40.8078" height="13.6026" transform="rotate(-174.48 309.305 461.869)" fill="#A50B40"/>
<rect x="314.539" y="407.711" width="95.2182" height="13.6026" transform="rotate(-174.48 314.539 407.711)" fill="#A50B40"/>
<rect x="238.992" y="482.406" width="68.013" height="13.6026" transform="rotate(-84.4804 238.992 482.406)" fill="#A50B40"/>
<rect x="295.766" y="460.561" width="68.013" height="13.6026" transform="rotate(-84.4804 295.766 460.561)" fill="#A50B40"/>
<rect width="122.423" height="13.6026" transform="matrix(-0.0961856 0.995363 0.995363 0.0961856 221.07 385.013)" fill="#A50B40"/>
<rect x="388.32" y="209.852" width="258.449" height="13.6026" transform="rotate(5.51957 388.32 209.852)" fill="#A50B40"/>
<rect x="408.859" y="280.166" width="204.039" height="13.6026" transform="rotate(5.51957 408.859 280.166)" fill="#A50B40"/>
<rect x="385.703" y="236.931" width="258.449" height="13.6026" transform="rotate(5.51957 385.703 236.931)" fill="#A50B40"/>
<rect x="359.539" y="507.722" width="258.449" height="13.6026" transform="rotate(5.51957 359.539 507.722)" fill="#A50B40"/>
<rect x="356.922" y="534.801" width="258.449" height="13.6026" transform="rotate(5.51957 356.922 534.801)" fill="#A50B40"/>
<rect x="422.398" y="281.475" width="204.039" height="13.6026" transform="rotate(95.5196 422.398 281.475)" fill="#A50B40"/>
<rect x="611.953" y="299.792" width="204.039" height="13.6026" transform="rotate(95.5196 611.953 299.792)" fill="#A50B40"/>
<rect width="204.039" height="13.6026" transform="matrix(0.995363 0.0961857 0.0961857 -0.995363 389.234 483.259)" fill="#A50B40"/>
<path d="M503.275 316.622L426.56 379.817L433.32 309.862L503.275 316.622Z" fill="#A50B40"/>
<path d="M488.884 465.557L425.69 388.843L418.93 458.797L488.884 465.557Z" fill="#A50B40"/>
<path d="M512.304 317.494L575.498 394.208L582.258 324.254L512.304 317.494Z" fill="#A50B40"/>
<path d="M497.905 466.429L574.619 403.234L567.859 473.188L497.905 466.429Z" fill="#A50B40"/>
<circle cx="500.588" cy="391.526" r="7.93485" transform="rotate(5.51957 500.588 391.526)" fill="#A50B40"/>
<circle cx="527.815" cy="369.102" r="7.93485" transform="rotate(5.51957 527.815 369.102)" fill="#A50B40"/>
<circle cx="523.018" cy="418.746" r="7.93485" transform="rotate(5.51957 523.018 418.746)" fill="#A50B40"/>
<circle cx="478.166" cy="364.304" r="7.93485" transform="rotate(5.51957 478.166 364.304)" fill="#A50B40"/>
<circle cx="473.369" cy="413.949" r="7.93485" transform="rotate(5.51957 473.369 413.949)" fill="#A50B40"/>
<path d="M520.901 393.488C521.301 389.35 525.318 386.544 529.374 387.454C533.886 388.466 539.553 389.596 544.012 390.027C548.47 390.458 554.249 390.433 558.871 390.304C563.027 390.188 566.433 393.711 566.033 397.849V397.849C565.633 401.987 561.616 404.794 557.559 403.884C553.047 402.871 547.38 401.741 542.922 401.31C538.463 400.879 532.684 400.904 528.062 401.033C523.906 401.15 520.501 397.626 520.901 393.488V393.488Z" fill="#A50B40"/>
<path d="M435.151 385.202C435.551 381.064 439.568 378.257 443.624 379.167C448.136 380.179 453.803 381.31 458.262 381.741C462.72 382.172 468.499 382.147 473.121 382.018C477.277 381.901 480.683 385.425 480.283 389.563V389.563C479.883 393.701 475.866 396.507 471.809 395.597C467.297 394.585 461.63 393.455 457.172 393.024C452.713 392.593 446.934 392.618 442.312 392.747C438.156 392.863 434.751 389.34 435.151 385.202V385.202Z" fill="#A50B40"/>
<path d="M498.625 411.834C502.764 412.234 505.57 416.251 504.66 420.308C503.648 424.82 502.517 430.487 502.086 434.945C501.655 439.404 501.68 445.183 501.809 449.805C501.926 453.961 498.402 457.366 494.264 456.966V456.966C490.126 456.566 487.32 452.549 488.23 448.493C489.242 443.981 490.372 438.314 490.803 433.855C491.234 429.397 491.21 423.618 491.08 418.996C490.964 414.84 494.487 411.435 498.625 411.834V411.834Z" fill="#A50B40"/>
<path d="M506.914 326.084C511.053 326.484 513.859 330.501 512.949 334.558C511.937 339.07 510.806 344.737 510.375 349.195C509.944 353.654 509.969 359.433 510.098 364.055C510.215 368.211 506.691 371.616 502.553 371.216V371.216C498.415 370.816 495.609 366.799 496.519 362.743C497.531 358.231 498.662 352.564 499.092 348.105C499.523 343.647 499.499 337.868 499.369 333.246C499.253 329.09 502.776 325.685 506.914 326.084V326.084Z" fill="#A50B40"/>
<rect x="645.57" y="234.711" width="163.231" height="13.6026" transform="rotate(5.51957 645.57 234.711)" fill="#A50B40"/>
<rect x="667.414" y="291.485" width="95.2182" height="13.6026" transform="rotate(5.51957 667.414 291.485)" fill="#A50B40"/>
<rect x="716.344" y="350.878" width="40.8078" height="13.6026" transform="rotate(5.51957 716.344 350.878)" fill="#A50B40"/>
<rect x="656.945" y="399.802" width="136.026" height="13.6026" transform="rotate(5.51957 656.945 399.802)" fill="#A50B40"/>
<rect x="642.953" y="261.79" width="149.629" height="13.6026" transform="rotate(5.51957 642.953 261.79)" fill="#A50B40"/>
<rect x="691.875" y="321.182" width="40.8078" height="13.6026" transform="rotate(5.51957 691.875 321.182)" fill="#A50B40"/>
<rect x="686.648" y="375.34" width="95.2182" height="13.6026" transform="rotate(5.51957 686.648 375.34)" fill="#A50B40"/>
<rect x="616.789" y="532.581" width="149.629" height="13.6026" transform="rotate(5.51957 616.789 532.581)" fill="#A50B40"/>
<rect x="614.172" y="559.66" width="163.231" height="13.6026" transform="rotate(5.51957 614.172 559.66)" fill="#A50B40"/>
<rect x="656.492" y="263.099" width="285.655" height="13.6026" transform="rotate(95.5196 656.492 263.099)" fill="#A50B40"/>
<rect x="680.953" y="292.794" width="231.244" height="13.6026" transform="rotate(95.5196 680.953 292.794)" fill="#A50B40"/>
<rect x="791.891" y="276.183" width="122.423" height="13.6026" transform="rotate(95.5196 791.891 276.183)" fill="#A50B40"/>
<rect x="762.195" y="300.645" width="68.013" height="13.6026" transform="rotate(95.5196 762.195 300.645)" fill="#A50B40"/>
<rect x="705.414" y="322.49" width="68.013" height="13.6026" transform="rotate(95.5196 705.414 322.49)" fill="#A50B40"/>
<rect width="95.2182" height="13.6026" transform="matrix(0.995363 0.0961857 0.0961857 -0.995363 645.172 521.658)" fill="#A50B40"/>
<rect width="40.8078" height="13.6026" transform="matrix(0.995363 0.0961857 0.0961857 -0.995363 704.562 472.733)" fill="#A50B40"/>
<rect width="40.8078" height="13.6026" transform="matrix(0.995363 0.0961857 0.0961857 -0.995363 674.867 497.195)" fill="#A50B40"/>
<rect width="95.2182" height="13.6026" transform="matrix(0.995363 0.0961857 0.0961857 -0.995363 680.102 443.037)" fill="#A50B40"/>
<rect width="68.013" height="13.6026" transform="matrix(0.0961856 -0.995363 -0.995363 -0.0961856 739.953 530.816)" fill="#A50B40"/>
<rect width="68.013" height="13.6026" transform="matrix(0.0961856 -0.995363 -0.995363 -0.0961856 688.406 498.504)" fill="#A50B40"/>
<rect x="776.188" y="438.656" width="122.423" height="13.6026" transform="rotate(95.5196 776.188 438.656)" fill="#A50B40"/>
<rect x="821.578" y="251.72" width="340.065" height="13.6026" transform="rotate(95.5196 821.578 251.72)" fill="#A50B40"/>
<rect width="163.231" height="13.6026" transform="matrix(-0.995363 -0.0961857 -0.0961857 0.995363 984.055 267.42)" fill="#A50B40"/>
<rect width="95.2182" height="13.6026" transform="matrix(-0.995363 -0.0961857 -0.0961857 0.995363 951.742 318.961)" fill="#A50B40"/>
<rect width="40.8078" height="13.6026" transform="matrix(-0.995363 -0.0961857 -0.0961857 0.995363 892.352 367.886)" fill="#A50B40"/>
<rect width="136.026" height="13.6026" transform="matrix(-0.995363 -0.0961857 -0.0961857 0.995363 941.273 427.277)" fill="#A50B40"/>
<rect width="149.629" height="13.6026" transform="matrix(-0.995363 -0.0961857 -0.0961857 0.995363 981.438 294.499)" fill="#A50B40"/>
<rect width="40.8078" height="13.6026" transform="matrix(-0.995363 -0.0961857 -0.0961857 0.995363 922.047 343.424)" fill="#A50B40"/>
<rect width="95.2182" height="13.6026" transform="matrix(-0.995363 -0.0961857 -0.0961857 0.995363 916.812 397.582)" fill="#A50B40"/>
<rect width="149.629" height="13.6026" transform="matrix(-0.995363 -0.0961857 -0.0961857 0.995363 955.273 565.29)" fill="#A50B40"/>
<rect width="163.231" height="13.6026" transform="matrix(-0.995363 -0.0961857 -0.0961857 0.995363 952.656 592.369)" fill="#A50B40"/>
<rect width="285.655" height="13.6026" transform="matrix(-0.0961856 0.995363 0.995363 0.0961856 967.898 293.19)" fill="#A50B40"/>
<rect width="231.244" height="13.6026" transform="matrix(-0.0961856 0.995363 0.995363 0.0961856 938.203 317.653)" fill="#A50B40"/>
<rect width="122.423" height="13.6026" transform="matrix(-0.0961856 0.995363 0.995363 0.0961856 832.5 280.106)" fill="#A50B40"/>
<rect width="68.013" height="13.6026" transform="matrix(-0.0961856 0.995363 0.995363 0.0961856 856.969 309.803)" fill="#A50B40"/>
<rect width="68.013" height="13.6026" transform="matrix(-0.0961856 0.995363 0.995363 0.0961856 908.508 342.115)" fill="#A50B40"/>
<rect x="929.5" y="549.134" width="95.2182" height="13.6026" transform="rotate(-174.48 929.5 549.134)" fill="#A50B40"/>
<rect x="880.578" y="489.742" width="40.8078" height="13.6026" transform="rotate(-174.48 880.578 489.742)" fill="#A50B40"/>
<rect x="905.039" y="519.438" width="40.8078" height="13.6026" transform="rotate(-174.48 905.039 519.438)" fill="#A50B40"/>
<rect x="910.273" y="465.279" width="95.2182" height="13.6026" transform="rotate(-174.48 910.273 465.279)" fill="#A50B40"/>
<rect x="834.727" y="539.975" width="68.013" height="13.6026" transform="rotate(-84.4804 834.727 539.975)" fill="#A50B40"/>
<rect x="891.5" y="518.129" width="68.013" height="13.6026" transform="rotate(-84.4804 891.5 518.129)" fill="#A50B40"/>
<rect width="122.423" height="13.6026" transform="matrix(-0.0961856 0.995363 0.995363 0.0961856 816.805 442.581)" fill="#A50B40"/>
<rect x="984.055" y="267.42" width="258.449" height="13.6026" transform="rotate(5.51957 984.055 267.42)" fill="#A50B40"/>
<rect x="1004.59" y="337.734" width="204.039" height="13.6026" transform="rotate(5.51957 1004.59 337.734)" fill="#A50B40"/>
<rect x="981.438" y="294.499" width="258.449" height="13.6026" transform="rotate(5.51957 981.438 294.499)" fill="#A50B40"/>
<rect x="955.273" y="565.29" width="258.449" height="13.6026" transform="rotate(5.51957 955.273 565.29)" fill="#A50B40"/>
<rect x="952.656" y="592.369" width="258.449" height="13.6026" transform="rotate(5.51957 952.656 592.369)" fill="#A50B40"/>
<rect x="1018.13" y="339.043" width="204.039" height="13.6026" transform="rotate(95.5196 1018.13 339.043)" fill="#A50B40"/>
<rect x="1207.69" y="357.36" width="204.039" height="13.6026" transform="rotate(95.5196 1207.69 357.36)" fill="#A50B40"/>
<rect width="204.039" height="13.6026" transform="matrix(0.995363 0.0961857 0.0961857 -0.995363 984.969 540.827)" fill="#A50B40"/>
<path d="M1099.01 374.191L1022.29 437.385L1029.05 367.431L1099.01 374.191Z" fill="#A50B40"/>
<path d="M1084.62 523.125L1021.42 446.411L1014.66 516.365L1084.62 523.125Z" fill="#A50B40"/>
<path d="M1108.04 375.062L1171.23 451.777L1177.99 381.822L1108.04 375.062Z" fill="#A50B40"/>
<path d="M1093.64 523.997L1170.35 460.803L1163.59 530.757L1093.64 523.997Z" fill="#A50B40"/>
<circle cx="1096.32" cy="449.094" r="7.93485" transform="rotate(5.51957 1096.32 449.094)" fill="#A50B40"/>
<circle cx="1123.55" cy="426.67" r="7.93485" transform="rotate(5.51957 1123.55 426.67)" fill="#A50B40"/>
<circle cx="1118.75" cy="476.315" r="7.93485" transform="rotate(5.51957 1118.75 476.315)" fill="#A50B40"/>
<circle cx="1073.9" cy="421.872" r="7.93485" transform="rotate(5.51957 1073.9 421.872)" fill="#A50B40"/>
<circle cx="1069.1" cy="471.518" r="7.93485" transform="rotate(5.51957 1069.1 471.518)" fill="#A50B40"/>
<path d="M1116.64 451.056C1117.04 446.918 1121.05 444.112 1125.11 445.022C1129.62 446.034 1135.29 447.165 1139.75 447.595C1144.2 448.026 1149.98 448.002 1154.61 447.872C1158.76 447.756 1162.17 451.279 1161.77 455.418V455.418C1161.37 459.556 1157.35 462.362 1153.29 461.452C1148.78 460.44 1143.11 459.309 1138.66 458.878C1134.2 458.448 1128.42 458.472 1123.8 458.602C1119.64 458.718 1116.24 455.194 1116.64 451.056V451.056Z" fill="#A50B40"/>
<path d="M1030.89 442.77C1031.29 438.632 1035.3 435.826 1039.36 436.736C1043.87 437.748 1049.54 438.878 1054 439.309C1058.45 439.74 1064.23 439.716 1068.86 439.586C1073.01 439.47 1076.42 442.993 1076.02 447.131V447.131C1075.62 451.27 1071.6 454.076 1067.54 453.166C1063.03 452.154 1057.36 451.023 1052.91 450.592C1048.45 450.161 1042.67 450.186 1038.05 450.315C1033.89 450.432 1030.49 446.908 1030.89 442.77V442.77Z" fill="#A50B40"/>
<path d="M1094.36 469.403C1098.5 469.803 1101.3 473.82 1100.39 477.876C1099.38 482.388 1098.25 488.055 1097.82 492.514C1097.39 496.972 1097.41 502.751 1097.54 507.373C1097.66 511.529 1094.14 514.934 1090 514.535V514.535C1085.86 514.135 1083.05 510.118 1083.96 506.061C1084.98 501.549 1086.11 495.882 1086.54 491.424C1086.97 486.965 1086.94 481.186 1086.81 476.564C1086.7 472.408 1090.22 469.003 1094.36 469.403V469.403Z" fill="#A50B40"/>
<path d="M1102.65 383.653C1106.79 384.053 1109.59 388.07 1108.68 392.126C1107.67 396.638 1106.54 402.305 1106.11 406.764C1105.68 411.222 1105.7 417.001 1105.83 421.623C1105.95 425.779 1102.43 429.184 1098.29 428.785V428.785C1094.15 428.385 1091.34 424.368 1092.25 420.311C1093.27 415.799 1094.4 410.132 1094.83 405.674C1095.26 401.215 1095.23 395.436 1095.1 390.814C1094.99 386.658 1098.51 383.253 1102.65 383.653V383.653Z" fill="#A50B40"/>
<rect x="1241.3" y="292.279" width="163.231" height="13.6026" transform="rotate(5.51957 1241.3 292.279)" fill="#A50B40"/>
<rect x="1263.15" y="349.054" width="95.2182" height="13.6026" transform="rotate(5.51957 1263.15 349.054)" fill="#A50B40"/>
<rect x="1312.08" y="408.446" width="40.8078" height="13.6026" transform="rotate(5.51957 1312.08 408.446)" fill="#A50B40"/>
<rect x="1252.68" y="457.37" width="136.026" height="13.6026" transform="rotate(5.51957 1252.68 457.37)" fill="#A50B40"/>
<rect x="1238.69" y="319.358" width="149.629" height="13.6026" transform="rotate(5.51957 1238.69 319.358)" fill="#A50B40"/>
<rect x="1287.61" y="378.75" width="40.8078" height="13.6026" transform="rotate(5.51957 1287.61 378.75)" fill="#A50B40"/>
<rect x="1282.38" y="432.908" width="95.2182" height="13.6026" transform="rotate(5.51957 1282.38 432.908)" fill="#A50B40"/>
<rect x="1212.52" y="590.149" width="149.629" height="13.6026" transform="rotate(5.51957 1212.52 590.149)" fill="#A50B40"/>
<rect x="1209.91" y="617.229" width="163.231" height="13.6026" transform="rotate(5.51957 1209.91 617.229)" fill="#A50B40"/>
<rect x="1252.23" y="320.667" width="285.655" height="13.6026" transform="rotate(95.5196 1252.23 320.667)" fill="#A50B40"/>
<rect x="1276.69" y="350.362" width="231.244" height="13.6026" transform="rotate(95.5196 1276.69 350.362)" fill="#A50B40"/>
<rect x="1387.62" y="333.751" width="122.423" height="13.6026" transform="rotate(95.5196 1387.62 333.751)" fill="#A50B40"/>
<rect x="1357.93" y="358.213" width="68.013" height="13.6026" transform="rotate(95.5196 1357.93 358.213)" fill="#A50B40"/>
<rect x="1301.15" y="380.059" width="68.013" height="13.6026" transform="rotate(95.5196 1301.15 380.059)" fill="#A50B40"/>
<rect width="95.2182" height="13.6026" transform="matrix(0.995363 0.0961857 0.0961857 -0.995363 1240.91 579.227)" fill="#A50B40"/>
<rect width="40.8078" height="13.6026" transform="matrix(0.995363 0.0961857 0.0961857 -0.995363 1300.3 530.302)" fill="#A50B40"/>
<rect width="40.8078" height="13.6026" transform="matrix(0.995363 0.0961857 0.0961857 -0.995363 1270.6 554.764)" fill="#A50B40"/>
<rect width="95.2182" height="13.6026" transform="matrix(0.995363 0.0961857 0.0961857 -0.995363 1275.84 500.605)" fill="#A50B40"/>
<rect width="68.013" height="13.6026" transform="matrix(0.0961856 -0.995363 -0.995363 -0.0961856 1335.69 588.385)" fill="#A50B40"/>
<rect width="68.013" height="13.6026" transform="matrix(0.0961856 -0.995363 -0.995363 -0.0961856 1284.14 556.072)" fill="#A50B40"/>
<rect x="1371.92" y="496.225" width="122.423" height="13.6026" transform="rotate(95.5196 1371.92 496.225)" fill="#A50B40"/>
<rect x="1417.32" y="309.288" width="340.065" height="13.6026" transform="rotate(95.5196 1417.32 309.288)" fill="#A50B40"/>
<rect width="163.231" height="13.6026" transform="matrix(-0.995363 -0.0961857 -0.0961857 0.995363 1579.8 324.989)" fill="#A50B40"/>
<rect width="95.2182" height="13.6026" transform="matrix(-0.995363 -0.0961857 -0.0961857 0.995363 1547.48 376.53)" fill="#A50B40"/>
<rect width="40.8078" height="13.6026" transform="matrix(-0.995363 -0.0961857 -0.0961857 0.995363 1488.09 425.455)" fill="#A50B40"/>
<rect width="136.026" height="13.6026" transform="matrix(-0.995363 -0.0961857 -0.0961857 0.995363 1537.02 484.847)" fill="#A50B40"/>
<rect width="149.629" height="13.6026" transform="matrix(-0.995363 -0.0961857 -0.0961857 0.995363 1577.18 352.068)" fill="#A50B40"/>
<rect width="40.8078" height="13.6026" transform="matrix(-0.995363 -0.0961857 -0.0961857 0.995363 1517.79 400.993)" fill="#A50B40"/>
<rect width="95.2182" height="13.6026" transform="matrix(-0.995363 -0.0961857 -0.0961857 0.995363 1512.55 455.151)" fill="#A50B40"/>
<rect width="149.629" height="13.6026" transform="matrix(-0.995363 -0.0961857 -0.0961857 0.995363 1551.02 622.859)" fill="#A50B40"/>
<rect width="163.231" height="13.6026" transform="matrix(-0.995363 -0.0961857 -0.0961857 0.995363 1548.4 649.938)" fill="#A50B40"/>
<rect width="285.655" height="13.6026" transform="matrix(-0.0961856 0.995363 0.995363 0.0961856 1563.64 350.76)" fill="#A50B40"/>
<rect width="231.244" height="13.6026" transform="matrix(-0.0961856 0.995363 0.995363 0.0961856 1533.95 375.223)" fill="#A50B40"/>
<rect width="122.423" height="13.6026" transform="matrix(-0.0961856 0.995363 0.995363 0.0961856 1428.24 337.676)" fill="#A50B40"/>
<rect width="68.013" height="13.6026" transform="matrix(-0.0961856 0.995363 0.995363 0.0961856 1452.71 367.372)" fill="#A50B40"/>
<rect width="68.013" height="13.6026" transform="matrix(-0.0961856 0.995363 0.995363 0.0961856 1504.25 399.685)" fill="#A50B40"/>
<rect x="1525.24" y="606.703" width="95.2182" height="13.6026" transform="rotate(-174.48 1525.24 606.703)" fill="#A50B40"/>
<rect x="1476.32" y="547.312" width="40.8078" height="13.6026" transform="rotate(-174.48 1476.32 547.312)" fill="#A50B40"/>
<rect x="1500.78" y="577.007" width="40.8078" height="13.6026" transform="rotate(-174.48 1500.78 577.007)" fill="#A50B40"/>
<rect x="1506.02" y="522.849" width="95.2182" height="13.6026" transform="rotate(-174.48 1506.02 522.849)" fill="#A50B40"/>
<rect x="1430.47" y="597.544" width="68.013" height="13.6026" transform="rotate(-84.4804 1430.47 597.544)" fill="#A50B40"/>
<rect x="1487.24" y="575.698" width="68.013" height="13.6026" transform="rotate(-84.4804 1487.24 575.698)" fill="#A50B40"/>
<rect width="122.423" height="13.6026" transform="matrix(-0.0961856 0.995363 0.995363 0.0961856 1412.55 500.15)" fill="#A50B40"/>
<rect x="1579.8" y="324.989" width="258.449" height="13.6026" transform="rotate(5.51957 1579.8 324.989)" fill="#A50B40"/>
<rect x="1600.34" y="395.304" width="204.039" height="13.6026" transform="rotate(5.51957 1600.34 395.304)" fill="#A50B40"/>
<rect x="1577.18" y="352.068" width="258.449" height="13.6026" transform="rotate(5.51957 1577.18 352.068)" fill="#A50B40"/>
<rect x="1551.02" y="622.859" width="258.449" height="13.6026" transform="rotate(5.51957 1551.02 622.859)" fill="#A50B40"/>
<rect x="1548.4" y="649.938" width="258.449" height="13.6026" transform="rotate(5.51957 1548.4 649.938)" fill="#A50B40"/>
<rect x="1613.88" y="396.612" width="204.039" height="13.6026" transform="rotate(95.5196 1613.88 396.612)" fill="#A50B40"/>
<rect x="1803.43" y="414.93" width="204.039" height="13.6026" transform="rotate(95.5196 1803.43 414.93)" fill="#A50B40"/>
<rect width="204.039" height="13.6026" transform="matrix(0.995363 0.0961857 0.0961857 -0.995363 1580.71 598.396)" fill="#A50B40"/>
<path d="M1694.75 431.76L1618.04 494.954L1624.8 425L1694.75 431.76Z" fill="#A50B40"/>
<path d="M1680.36 580.695L1617.17 503.98L1610.41 573.935L1680.36 580.695Z" fill="#A50B40"/>
<path d="M1703.78 432.632L1766.97 509.346L1773.73 439.392L1703.78 432.632Z" fill="#A50B40"/>
<path d="M1689.38 581.566L1766.1 518.372L1759.34 588.326L1689.38 581.566Z" fill="#A50B40"/>
<circle cx="1692.06" cy="506.663" r="7.93485" transform="rotate(5.51957 1692.06 506.663)" fill="#A50B40"/>
<circle cx="1719.29" cy="484.239" r="7.93485" transform="rotate(5.51957 1719.29 484.239)" fill="#A50B40"/>
<circle cx="1714.49" cy="533.884" r="7.93485" transform="rotate(5.51957 1714.49 533.884)" fill="#A50B40"/>
<circle cx="1669.64" cy="479.442" r="7.93485" transform="rotate(5.51957 1669.64 479.442)" fill="#A50B40"/>
<circle cx="1664.85" cy="529.087" r="7.93485" transform="rotate(5.51957 1664.85 529.087)" fill="#A50B40"/>
<path d="M1712.38 508.626C1712.78 504.487 1716.79 501.681 1720.85 502.591C1725.36 503.603 1731.03 504.734 1735.49 505.165C1739.95 505.596 1745.73 505.571 1750.35 505.442C1754.5 505.325 1757.91 508.849 1757.51 512.987V512.987C1757.11 517.125 1753.09 519.931 1749.04 519.021C1744.52 518.009 1738.86 516.879 1734.4 516.448C1729.94 516.017 1724.16 516.041 1719.54 516.171C1715.38 516.287 1711.98 512.764 1712.38 508.626V508.626Z" fill="#A50B40"/>
<path d="M1626.63 500.339C1627.03 496.201 1631.04 493.395 1635.1 494.305C1639.61 495.317 1645.28 496.448 1649.74 496.879C1654.2 497.309 1659.98 497.285 1664.6 497.155C1668.75 497.039 1672.16 500.563 1671.76 504.701V504.701C1671.36 508.839 1667.34 511.645 1663.29 510.735C1658.77 509.723 1653.11 508.592 1648.65 508.162C1644.19 507.731 1638.41 507.755 1633.79 507.885C1629.63 508.001 1626.23 504.478 1626.63 500.339V500.339Z" fill="#A50B40"/>
<path d="M1690.1 526.972C1694.24 527.372 1697.05 531.389 1696.14 535.446C1695.12 539.957 1693.99 545.625 1693.56 550.083C1693.13 554.542 1693.16 560.321 1693.29 564.943C1693.4 569.098 1689.88 572.504 1685.74 572.104V572.104C1681.6 571.704 1678.8 567.687 1679.71 563.63C1680.72 559.119 1681.85 553.451 1682.28 548.993C1682.71 544.534 1682.69 538.756 1682.56 534.133C1682.44 529.978 1685.96 526.572 1690.1 526.972V526.972Z" fill="#A50B40"/>
<path d="M1698.39 441.222C1702.53 441.622 1705.34 445.639 1704.43 449.696C1703.41 454.207 1702.28 459.875 1701.85 464.333C1701.42 468.792 1701.45 474.571 1701.57 479.193C1701.69 483.348 1698.17 486.754 1694.03 486.354V486.354C1689.89 485.954 1687.09 481.937 1688 477.88C1689.01 473.369 1690.14 467.701 1690.57 463.243C1691 458.784 1690.98 453.006 1690.85 448.383C1690.73 444.228 1694.25 440.822 1698.39 441.222V441.222Z" fill="#A50B40"/>
<rect x="1837.05" y="349.848" width="163.231" height="13.6026" transform="rotate(5.51957 1837.05 349.848)" fill="#A50B40"/>
<rect x="1858.89" y="406.622" width="95.2182" height="13.6026" transform="rotate(5.51957 1858.89 406.622)" fill="#A50B40"/>
<rect x="1907.82" y="466.015" width="40.8078" height="13.6026" transform="rotate(5.51957 1907.82 466.015)" fill="#A50B40"/>
<rect x="1848.42" y="514.938" width="136.026" height="13.6026" transform="rotate(5.51957 1848.42 514.938)" fill="#A50B40"/>
<rect x="1834.43" y="376.927" width="149.629" height="13.6026" transform="rotate(5.51957 1834.43 376.927)" fill="#A50B40"/>
<rect x="1883.35" y="436.318" width="40.8078" height="13.6026" transform="rotate(5.51957 1883.35 436.318)" fill="#A50B40"/>
<rect x="1878.12" y="490.477" width="95.2182" height="13.6026" transform="rotate(5.51957 1878.12 490.477)" fill="#A50B40"/>
<rect x="1808.27" y="647.718" width="149.629" height="13.6026" transform="rotate(5.51957 1808.27 647.718)" fill="#A50B40"/>
<rect x="1805.65" y="674.797" width="163.231" height="13.6026" transform="rotate(5.51957 1805.65 674.797)" fill="#A50B40"/>
<rect x="1847.97" y="378.235" width="285.655" height="13.6026" transform="rotate(95.5196 1847.97 378.235)" fill="#A50B40"/>
<rect x="1872.43" y="407.931" width="231.244" height="13.6026" transform="rotate(95.5196 1872.43 407.931)" fill="#A50B40"/>
<rect x="1983.37" y="391.319" width="122.423" height="13.6026" transform="rotate(95.5196 1983.37 391.319)" fill="#A50B40"/>
<rect x="1953.67" y="415.781" width="68.013" height="13.6026" transform="rotate(95.5196 1953.67 415.781)" fill="#A50B40"/>
<rect x="1896.89" y="437.627" width="68.013" height="13.6026" transform="rotate(95.5196 1896.89 437.627)" fill="#A50B40"/>
<rect width="95.2182" height="13.6026" transform="matrix(0.995363 0.0961857 0.0961857 -0.995363 1836.65 636.795)" fill="#A50B40"/>
<rect width="40.8078" height="13.6026" transform="matrix(0.995363 0.0961857 0.0961857 -0.995363 1896.04 587.87)" fill="#A50B40"/>
<rect width="40.8078" height="13.6026" transform="matrix(0.995363 0.0961857 0.0961857 -0.995363 1866.34 612.332)" fill="#A50B40"/>
<rect width="95.2182" height="13.6026" transform="matrix(0.995363 0.0961857 0.0961857 -0.995363 1871.58 558.174)" fill="#A50B40"/>
<rect width="68.013" height="13.6026" transform="matrix(0.0961856 -0.995363 -0.995363 -0.0961856 1931.43 645.953)" fill="#A50B40"/>
<rect width="68.013" height="13.6026" transform="matrix(0.0961856 -0.995363 -0.995363 -0.0961856 1879.88 613.641)" fill="#A50B40"/>
<rect x="1967.66" y="553.793" width="122.423" height="13.6026" transform="rotate(95.5196 1967.66 553.793)" fill="#A50B40"/>
<rect x="2013.06" y="366.857" width="340.065" height="13.6026" transform="rotate(95.5196 2013.06 366.857)" fill="#A50B40"/>
<rect width="163.231" height="13.6026" transform="matrix(-0.995363 -0.0961857 -0.0961857 0.995363 2175.53 382.558)" fill="#A50B40"/>
<rect width="95.2182" height="13.6026" transform="matrix(-0.995363 -0.0961857 -0.0961857 0.995363 2143.22 434.099)" fill="#A50B40"/>
<rect width="40.8078" height="13.6026" transform="matrix(-0.995363 -0.0961857 -0.0961857 0.995363 2083.83 483.023)" fill="#A50B40"/>
<rect width="136.026" height="13.6026" transform="matrix(-0.995363 -0.0961857 -0.0961857 0.995363 2132.75 542.415)" fill="#A50B40"/>
<rect width="149.629" height="13.6026" transform="matrix(-0.995363 -0.0961857 -0.0961857 0.995363 2172.91 409.637)" fill="#A50B40"/>
<rect width="40.8078" height="13.6026" transform="matrix(-0.995363 -0.0961857 -0.0961857 0.995363 2113.52 458.562)" fill="#A50B40"/>
<rect width="95.2182" height="13.6026" transform="matrix(-0.995363 -0.0961857 -0.0961857 0.995363 2108.29 512.72)" fill="#A50B40"/>
<rect width="149.629" height="13.6026" transform="matrix(-0.995363 -0.0961857 -0.0961857 0.995363 2146.75 680.428)" fill="#A50B40"/>
<rect width="163.231" height="13.6026" transform="matrix(-0.995363 -0.0961857 -0.0961857 0.995363 2144.13 707.507)" fill="#A50B40"/>
<rect width="285.655" height="13.6026" transform="matrix(-0.0961856 0.995363 0.995363 0.0961856 2159.38 408.328)" fill="#A50B40"/>
<rect width="231.244" height="13.6026" transform="matrix(-0.0961856 0.995363 0.995363 0.0961856 2129.68 432.791)" fill="#A50B40"/>
<rect width="122.423" height="13.6026" transform="matrix(-0.0961856 0.995363 0.995363 0.0961856 2023.98 395.244)" fill="#A50B40"/>
<rect width="68.013" height="13.6026" transform="matrix(-0.0961856 0.995363 0.995363 0.0961856 2048.45 424.94)" fill="#A50B40"/>
<rect width="68.013" height="13.6026" transform="matrix(-0.0961856 0.995363 0.995363 0.0961856 2099.98 457.253)" fill="#A50B40"/>
<rect x="2120.98" y="664.271" width="95.2182" height="13.6026" transform="rotate(-174.48 2120.98 664.271)" fill="#A50B40"/>
<rect x="2072.05" y="604.88" width="40.8078" height="13.6026" transform="rotate(-174.48 2072.05 604.88)" fill="#A50B40"/>
<rect x="2096.52" y="634.575" width="40.8078" height="13.6026" transform="rotate(-174.48 2096.52 634.575)" fill="#A50B40"/>
<rect x="2101.75" y="580.417" width="95.2182" height="13.6026" transform="rotate(-174.48 2101.75 580.417)" fill="#A50B40"/>
<rect x="2026.2" y="655.112" width="68.013" height="13.6026" transform="rotate(-84.4804 2026.2 655.112)" fill="#A50B40"/>
<rect x="2082.98" y="633.267" width="68.013" height="13.6026" transform="rotate(-84.4804 2082.98 633.267)" fill="#A50B40"/>
<rect width="122.423" height="13.6026" transform="matrix(-0.0961856 0.995363 0.995363 0.0961856 2008.28 557.719)" fill="#A50B40"/>
<rect x="2175.53" y="382.558" width="258.449" height="13.6026" transform="rotate(5.51957 2175.53 382.558)" fill="#A50B40"/>
<rect x="2196.07" y="452.872" width="204.039" height="13.6026" transform="rotate(5.51957 2196.07 452.872)" fill="#A50B40"/>
<rect x="2172.91" y="409.637" width="258.449" height="13.6026" transform="rotate(5.51957 2172.91 409.637)" fill="#A50B40"/>
<rect x="2146.75" y="680.428" width="258.449" height="13.6026" transform="rotate(5.51957 2146.75 680.428)" fill="#A50B40"/>
<rect x="2144.13" y="707.507" width="258.449" height="13.6026" transform="rotate(5.51957 2144.13 707.507)" fill="#A50B40"/>
<rect x="2209.61" y="454.181" width="204.039" height="13.6026" transform="rotate(95.5196 2209.61 454.181)" fill="#A50B40"/>
<rect x="2399.16" y="472.498" width="204.039" height="13.6026" transform="rotate(95.5196 2399.16 472.498)" fill="#A50B40"/>
<rect width="204.039" height="13.6026" transform="matrix(0.995363 0.0961857 0.0961857 -0.995363 2176.45 655.965)" fill="#A50B40"/>
<path d="M2290.49 489.328L2213.77 552.523L2220.53 482.568L2290.49 489.328Z" fill="#A50B40"/>
<path d="M2276.09 638.263L2212.9 561.549L2206.14 631.503L2276.09 638.263Z" fill="#A50B40"/>
<path d="M2299.51 490.2L2362.71 566.914L2369.47 496.96L2299.51 490.2Z" fill="#A50B40"/>
<path d="M2285.12 639.135L2361.83 575.94L2355.07 645.895L2285.12 639.135Z" fill="#A50B40"/>
<circle cx="2287.8" cy="564.232" r="7.93485" transform="rotate(5.51957 2287.8 564.232)" fill="#A50B40"/>
<circle cx="2315.03" cy="541.808" r="7.93485" transform="rotate(5.51957 2315.03 541.808)" fill="#A50B40"/>
<circle cx="2310.23" cy="591.452" r="7.93485" transform="rotate(5.51957 2310.23 591.452)" fill="#A50B40"/>
<circle cx="2265.38" cy="537.01" r="7.93485" transform="rotate(5.51957 2265.38 537.01)" fill="#A50B40"/>
<circle cx="2260.58" cy="586.655" r="7.93485" transform="rotate(5.51957 2260.58 586.655)" fill="#A50B40"/>
<path d="M2308.11 566.194C2308.51 562.056 2312.53 559.25 2316.59 560.16C2321.1 561.172 2326.76 562.302 2331.22 562.733C2335.68 563.164 2341.46 563.139 2346.08 563.01C2350.24 562.894 2353.64 566.417 2353.24 570.555V570.555C2352.84 574.693 2348.83 577.5 2344.77 576.59C2340.26 575.578 2334.59 574.447 2330.13 574.016C2325.67 573.585 2319.9 573.61 2315.27 573.739C2311.12 573.856 2307.71 570.332 2308.11 566.194V566.194Z" fill="#A50B40"/>
<path d="M2222.36 557.908C2222.76 553.77 2226.78 550.963 2230.84 551.873C2235.35 552.886 2241.01 554.016 2245.47 554.447C2249.93 554.878 2255.71 554.853 2260.33 554.724C2264.49 554.607 2267.89 558.131 2267.49 562.269V562.269C2267.09 566.407 2263.08 569.213 2259.02 568.303C2254.51 567.291 2248.84 566.161 2244.38 565.73C2239.92 565.299 2234.15 565.324 2229.52 565.453C2225.37 565.569 2221.96 562.046 2222.36 557.908V557.908Z" fill="#A50B40"/>
<path d="M2285.84 584.54C2289.97 584.94 2292.78 588.957 2291.87 593.014C2290.86 597.526 2289.73 603.193 2289.3 607.652C2288.87 612.11 2288.89 617.889 2289.02 622.511C2289.14 626.667 2285.61 630.072 2281.48 629.672V629.672C2277.34 629.272 2274.53 625.255 2275.44 621.199C2276.45 616.687 2277.58 611.02 2278.01 606.561C2278.45 602.103 2278.42 596.324 2278.29 591.702C2278.17 587.546 2281.7 584.141 2285.84 584.54V584.54Z" fill="#A50B40"/>
<path d="M2294.13 498.79C2298.26 499.19 2301.07 503.207 2300.16 507.264C2299.15 511.776 2298.02 517.443 2297.59 521.902C2297.16 526.36 2297.18 532.139 2297.31 536.761C2297.43 540.917 2293.9 544.322 2289.76 543.922V543.922C2285.63 543.522 2282.82 539.505 2283.73 535.449C2284.74 530.937 2285.87 525.27 2286.3 520.811C2286.73 516.353 2286.71 510.574 2286.58 505.952C2286.46 501.796 2289.99 498.391 2294.13 498.79V498.79Z" fill="#A50B40"/>
<rect x="2432.79" y="407.417" width="163.231" height="13.6026" transform="rotate(5.51957 2432.79 407.417)" fill="#A50B40"/>
<rect x="2454.63" y="464.191" width="95.2182" height="13.6026" transform="rotate(5.51957 2454.63 464.191)" fill="#A50B40"/>
<rect x="2503.56" y="523.584" width="40.8078" height="13.6026" transform="rotate(5.51957 2503.56 523.584)" fill="#A50B40"/>
<rect x="2444.16" y="572.508" width="136.026" height="13.6026" transform="rotate(5.51957 2444.16 572.508)" fill="#A50B40"/>
<rect x="2430.17" y="434.496" width="149.629" height="13.6026" transform="rotate(5.51957 2430.17 434.496)" fill="#A50B40"/>
<rect x="2479.09" y="493.888" width="40.8078" height="13.6026" transform="rotate(5.51957 2479.09 493.888)" fill="#A50B40"/>
<rect x="2473.87" y="548.046" width="95.2182" height="13.6026" transform="rotate(5.51957 2473.87 548.046)" fill="#A50B40"/>
<rect x="2404.01" y="705.287" width="149.629" height="13.6026" transform="rotate(5.51957 2404.01 705.287)" fill="#A50B40"/>
<rect x="2401.39" y="732.366" width="163.231" height="13.6026" transform="rotate(5.51957 2401.39 732.366)" fill="#A50B40"/>
<rect x="2443.71" y="435.805" width="285.655" height="13.6026" transform="rotate(95.5196 2443.71 435.805)" fill="#A50B40"/>
<rect x="2468.17" y="465.5" width="231.244" height="13.6026" transform="rotate(95.5196 2468.17 465.5)" fill="#A50B40"/>
<rect x="2579.11" y="448.889" width="122.423" height="13.6026" transform="rotate(95.5196 2579.11 448.889)" fill="#A50B40"/>
<rect x="2549.41" y="473.351" width="68.013" height="13.6026" transform="rotate(95.5196 2549.41 473.351)" fill="#A50B40"/>
<rect x="2492.63" y="495.196" width="68.013" height="13.6026" transform="rotate(95.5196 2492.63 495.196)" fill="#A50B40"/>
<rect width="95.2182" height="13.6026" transform="matrix(0.995363 0.0961857 0.0961857 -0.995363 2432.39 694.364)" fill="#A50B40"/>
<rect width="40.8078" height="13.6026" transform="matrix(0.995363 0.0961857 0.0961857 -0.995363 2491.78 645.439)" fill="#A50B40"/>
<rect width="40.8078" height="13.6026" transform="matrix(0.995363 0.0961857 0.0961857 -0.995363 2462.09 669.901)" fill="#A50B40"/>
<rect width="95.2182" height="13.6026" transform="matrix(0.995363 0.0961857 0.0961857 -0.995363 2467.32 615.743)" fill="#A50B40"/>
<rect width="68.013" height="13.6026" transform="matrix(0.0961856 -0.995363 -0.995363 -0.0961856 2527.17 703.522)" fill="#A50B40"/>
<rect width="68.013" height="13.6026" transform="matrix(0.0961856 -0.995363 -0.995363 -0.0961856 2475.62 671.21)" fill="#A50B40"/>
<rect x="2563.41" y="611.362" width="122.423" height="13.6026" transform="rotate(95.5196 2563.41 611.362)" fill="#A50B40"/>
<rect x="2608.8" y="424.426" width="340.065" height="13.6026" transform="rotate(95.5196 2608.8 424.426)" fill="#A50B40"/>
<rect width="163.231" height="13.6026" transform="matrix(-0.995363 -0.0961857 -0.0961857 0.995363 2771.27 440.126)" fill="#A50B40"/>
<rect width="95.2182" height="13.6026" transform="matrix(-0.995363 -0.0961857 -0.0961857 0.995363 2738.96 491.667)" fill="#A50B40"/>
<rect width="40.8078" height="13.6026" transform="matrix(-0.995363 -0.0961857 -0.0961857 0.995363 2679.57 540.592)" fill="#A50B40"/>
<rect width="136.026" height="13.6026" transform="matrix(-0.995363 -0.0961857 -0.0961857 0.995363 2728.49 599.983)" fill="#A50B40"/>
<rect width="149.629" height="13.6026" transform="matrix(-0.995363 -0.0961857 -0.0961857 0.995363 2768.66 467.205)" fill="#A50B40"/>
<rect width="40.8078" height="13.6026" transform="matrix(-0.995363 -0.0961857 -0.0961857 0.995363 2709.27 516.13)" fill="#A50B40"/>
<rect width="95.2182" height="13.6026" transform="matrix(-0.995363 -0.0961857 -0.0961857 0.995363 2704.03 570.288)" fill="#A50B40"/>
<rect width="149.629" height="13.6026" transform="matrix(-0.995363 -0.0961857 -0.0961857 0.995363 2742.49 737.996)" fill="#A50B40"/>
<rect width="163.231" height="13.6026" transform="matrix(-0.995363 -0.0961857 -0.0961857 0.995363 2739.88 765.075)" fill="#A50B40"/>
<rect width="285.655" height="13.6026" transform="matrix(-0.0961856 0.995363 0.995363 0.0961856 2755.12 465.896)" fill="#A50B40"/>
<rect width="231.244" height="13.6026" transform="matrix(-0.0961856 0.995363 0.995363 0.0961856 2725.42 490.359)" fill="#A50B40"/>
<rect width="122.423" height="13.6026" transform="matrix(-0.0961856 0.995363 0.995363 0.0961856 2619.72 452.812)" fill="#A50B40"/>
<rect width="68.013" height="13.6026" transform="matrix(-0.0961856 0.995363 0.995363 0.0961856 2644.19 482.509)" fill="#A50B40"/>
<rect width="68.013" height="13.6026" transform="matrix(-0.0961856 0.995363 0.995363 0.0961856 2695.73 514.821)" fill="#A50B40"/>
<rect x="2716.72" y="721.84" width="95.2182" height="13.6026" transform="rotate(-174.48 2716.72 721.84)" fill="#A50B40"/>
<rect x="2667.8" y="662.448" width="40.8078" height="13.6026" transform="rotate(-174.48 2667.8 662.448)" fill="#A50B40"/>
<rect x="2692.26" y="692.144" width="40.8078" height="13.6026" transform="rotate(-174.48 2692.26 692.144)" fill="#A50B40"/>
<rect x="2697.49" y="637.985" width="95.2182" height="13.6026" transform="rotate(-174.48 2697.49 637.985)" fill="#A50B40"/>
<rect x="2621.95" y="712.681" width="68.013" height="13.6026" transform="rotate(-84.4804 2621.95 712.681)" fill="#A50B40"/>
<rect x="2678.72" y="690.835" width="68.013" height="13.6026" transform="rotate(-84.4804 2678.72 690.835)" fill="#A50B40"/>
<rect width="122.423" height="13.6026" transform="matrix(-0.0961856 0.995363 0.995363 0.0961856 2604.02 615.287)" fill="#A50B40"/>
<rect x="14.5" y="542.71" width="2734.12" height="13.6026" transform="rotate(5.51957 14.5 542.71)" fill="#A50B40"/>
<path fill-rule="evenodd" clip-rule="evenodd" d="M47.9758 600.934L100.63 606.022L99.3056 619.723L59.8153 615.907L55.8435 657.009L134.824 664.641L133.5 678.342L41.3561 669.437L47.9758 600.934ZM122.985 649.668L129.604 581.165L24.2969 570.988L15.0292 666.893L28.1926 668.165L36.1364 585.961L115.117 593.593L111.145 634.695L71.6548 630.879L70.3309 644.58L122.985 649.668Z" fill="#A50B40"/>
<path fill-rule="evenodd" clip-rule="evenodd" d="M165.692 612.309L216.842 617.252L215.518 630.953L177.156 627.246L173.184 668.348L249.908 675.762L248.584 689.463L159.073 680.813L165.692 612.309ZM238.445 660.826L245.064 592.322L142.766 582.437L133.498 678.342L146.285 679.577L154.229 597.373L230.953 604.787L226.981 645.889L188.619 642.182L187.295 655.883L238.445 660.826Z" fill="#A50B40"/>
<path fill-rule="evenodd" clip-rule="evenodd" d="M281.531 623.503L334.184 628.591L332.86 642.292L293.37 638.476L289.398 679.578L368.379 687.21L367.055 700.911L274.911 692.007L281.531 623.503ZM356.539 672.237L363.159 603.734L257.852 593.558L248.584 689.463L261.747 690.735L269.691 608.53L348.672 616.163L344.7 657.265L305.21 653.449L303.886 667.149L356.539 672.237Z" fill="#A50B40"/>
<path fill-rule="evenodd" clip-rule="evenodd" d="M399.506 634.903L451.156 639.894L449.833 653.595L411.094 649.851L407.123 690.954L484.599 698.44L483.275 712.141L392.886 703.407L399.506 634.903ZM473.01 683.492L479.63 614.988L376.328 605.006L367.06 700.911L379.973 702.159L387.917 619.954L465.393 627.441L461.421 668.543L422.683 664.8L421.359 678.501L473.01 683.492Z" fill="#A50B40"/>
<path fill-rule="evenodd" clip-rule="evenodd" d="M516.218 646.182L568.872 651.27L567.548 664.971L528.058 661.155L524.086 702.257L603.066 709.889L601.742 723.59L509.598 714.685L516.218 646.182ZM591.227 694.916L597.847 626.413L492.539 616.236L483.271 712.141L496.435 713.413L504.379 631.209L583.359 638.841L579.387 679.943L539.897 676.127L538.573 689.828L591.227 694.916Z" fill="#A50B40"/>
<path fill-rule="evenodd" clip-rule="evenodd" d="M634.185 657.582L685.836 662.573L684.512 676.274L645.774 672.53L641.802 713.632L719.278 721.119L717.954 734.82L627.566 726.085L634.185 657.582ZM707.69 706.171L714.309 637.667L611.008 627.685L601.74 723.59L614.653 724.837L622.597 642.633L700.073 650.12L696.101 691.222L657.363 687.479L656.039 701.179L707.69 706.171Z" fill="#A50B40"/>
<path fill-rule="evenodd" clip-rule="evenodd" d="M750.655 668.836L802.807 673.876L801.483 687.577L762.369 683.797L758.397 724.899L836.625 732.459L835.302 746.159L744.035 737.34L750.655 668.836ZM824.911 717.498L831.531 648.994L727.227 638.915L717.959 734.82L730.997 736.08L738.941 653.876L817.169 661.435L813.197 702.537L774.083 698.758L772.759 712.458L824.911 717.498Z" fill="#A50B40"/>
<path fill-rule="evenodd" clip-rule="evenodd" d="M868.249 680.199L920.903 685.288L919.579 698.988L880.089 695.172L876.117 736.274L955.098 743.907L953.774 757.607L861.63 748.703L868.249 680.199ZM943.258 728.934L949.878 660.43L844.57 650.254L835.303 746.159L848.466 747.431L856.41 665.227L935.39 672.859L931.419 713.961L891.928 710.145L890.604 723.846L943.258 728.934Z" fill="#A50B40"/>
<path fill-rule="evenodd" clip-rule="evenodd" d="M986.217 691.599L1037.87 696.59L1036.54 710.291L997.805 706.548L993.833 747.65L1071.31 755.137L1069.99 768.837L979.597 760.103L986.217 691.599ZM1059.72 740.188L1066.34 671.685L963.039 661.702L953.771 757.607L966.684 758.855L974.628 676.651L1052.1 684.137L1048.13 725.24L1009.39 721.496L1008.07 735.197L1059.72 740.188Z" fill="#A50B40"/>
<path fill-rule="evenodd" clip-rule="evenodd" d="M1102.43 702.83L1154.08 707.821L1152.75 721.522L1114.02 717.778L1110.04 758.88L1187.52 766.367L1186.2 780.068L1095.81 771.333L1102.43 702.83ZM1175.93 751.419L1182.55 682.915L1079.25 672.933L1069.98 768.838L1082.9 770.085L1090.84 687.881L1168.31 695.368L1164.34 736.47L1125.61 732.727L1124.28 746.427L1175.93 751.419Z" fill="#A50B40"/>
<path fill-rule="evenodd" clip-rule="evenodd" d="M1219.15 714.109L1271.8 719.197L1270.48 732.897L1230.99 729.081L1227.02 770.184L1306 777.816L1304.67 791.516L1212.53 782.612L1219.15 714.109ZM1294.16 762.843L1300.78 694.339L1195.47 684.163L1186.2 780.068L1199.36 781.34L1207.31 699.136L1286.29 706.768L1282.32 747.87L1242.83 744.054L1241.5 757.755L1294.16 762.843Z" fill="#A50B40"/>
<path fill-rule="evenodd" clip-rule="evenodd" d="M1337.62 725.557L1390.27 730.645L1388.95 744.346L1349.46 740.53L1345.48 781.632L1424.46 789.264L1423.14 802.965L1331 794.06L1337.62 725.557ZM1412.63 774.291L1419.24 705.788L1313.94 695.611L1304.67 791.516L1317.83 792.788L1325.78 710.584L1404.76 718.216L1400.79 759.318L1361.3 755.502L1359.97 769.203L1412.63 774.291Z" fill="#A50B40"/>
<path fill-rule="evenodd" clip-rule="evenodd" d="M1455.33 736.932L1506.48 741.875L1505.16 755.576L1466.8 751.869L1462.82 792.971L1539.55 800.385L1538.22 814.086L1448.71 805.436L1455.33 736.932ZM1528.09 785.449L1534.7 716.945L1432.41 707.06L1423.14 802.965L1435.93 804.2L1443.87 721.996L1520.59 729.41L1516.62 770.512L1478.26 766.805L1476.94 780.506L1528.09 785.449Z" fill="#A50B40"/>
<path fill-rule="evenodd" clip-rule="evenodd" d="M1571.17 748.126L1623.82 753.214L1622.5 766.915L1583.01 763.099L1579.04 804.201L1658.02 811.833L1656.7 825.534L1564.55 816.63L1571.17 748.126ZM1646.18 796.861L1652.8 728.357L1547.49 718.181L1538.22 814.086L1551.39 815.358L1559.33 733.153L1638.31 740.786L1634.34 781.888L1594.85 778.072L1593.53 791.772L1646.18 796.861Z" fill="#A50B40"/>
<path fill-rule="evenodd" clip-rule="evenodd" d="M1689.4 759.55L1741.55 764.59L1740.23 778.291L1701.11 774.511L1697.14 815.613L1775.37 823.172L1774.04 836.873L1682.78 828.054L1689.4 759.55ZM1763.65 808.212L1770.27 739.708L1665.97 729.629L1656.7 825.534L1669.74 826.794L1677.68 744.59L1755.91 752.149L1751.94 793.251L1712.83 789.471L1711.5 803.172L1763.65 808.212Z" fill="#A50B40"/>
<path fill-rule="evenodd" clip-rule="evenodd" d="M1806.73 770.889L1858.89 775.929L1857.56 789.629L1818.45 785.85L1814.48 826.952L1892.7 834.511L1891.38 848.212L1800.11 839.393L1806.73 770.889ZM1880.99 819.551L1887.61 751.047L1783.3 740.968L1774.04 836.873L1787.08 838.133L1795.02 755.928L1873.25 763.488L1869.28 804.59L1830.16 800.81L1828.84 814.511L1880.99 819.551Z" fill="#A50B40"/>
<path fill-rule="evenodd" clip-rule="evenodd" d="M1923.58 782.18L1974.72 787.123L1973.4 800.824L1935.04 797.117L1931.07 838.219L2007.79 845.633L2006.47 859.334L1916.96 850.684L1923.58 782.18ZM1996.33 830.697L2002.95 762.193L1900.65 752.308L1891.38 848.213L1904.17 849.448L1912.11 767.244L1988.84 774.658L1984.86 815.76L1946.5 812.053L1945.18 825.754L1996.33 830.697Z" fill="#A50B40"/>
<path fill-rule="evenodd" clip-rule="evenodd" d="M2039.41 793.374L2092.07 798.462L2090.74 812.163L2051.25 808.347L2047.28 849.449L2126.26 857.081L2124.94 870.782L2032.79 861.878L2039.41 793.374ZM2114.42 842.109L2121.04 773.605L2015.73 763.429L2006.47 859.334L2019.63 860.606L2027.57 778.401L2106.55 786.034L2102.58 827.136L2063.09 823.32L2061.77 837.02L2114.42 842.109Z" fill="#A50B40"/>
<path fill-rule="evenodd" clip-rule="evenodd" d="M2157.89 804.822L2210.54 809.911L2209.22 823.611L2169.73 819.795L2165.76 860.897L2244.74 868.53L2243.41 882.23L2151.27 873.326L2157.89 804.822ZM2232.9 853.557L2239.52 785.053L2134.21 774.877L2124.94 870.782L2138.11 872.054L2146.05 789.85L2225.03 797.482L2221.06 838.584L2181.57 834.768L2180.24 848.469L2232.9 853.557Z" fill="#A50B40"/>
<path fill-rule="evenodd" clip-rule="evenodd" d="M2275.86 816.222L2327.51 821.213L2326.18 834.914L2287.45 831.171L2283.47 872.273L2360.95 879.76L2359.63 893.46L2269.24 884.726L2275.86 816.222ZM2349.36 864.811L2355.98 796.308L2252.68 786.325L2243.41 882.23L2256.32 883.478L2264.27 801.274L2341.74 808.761L2337.77 849.863L2299.03 846.119L2297.71 859.82L2349.36 864.811Z" fill="#A50B40"/>
<path fill-rule="evenodd" clip-rule="evenodd" d="M2392.32 827.477L2444.47 832.517L2443.15 846.217L2404.03 842.438L2400.06 883.54L2478.29 891.099L2476.97 904.8L2385.7 895.981L2392.32 827.477ZM2466.58 876.139L2473.2 807.635L2368.89 797.556L2359.62 893.461L2372.66 894.721L2380.6 812.516L2458.83 820.076L2454.86 861.178L2415.75 857.398L2414.42 871.099L2466.58 876.139Z" fill="#A50B40"/>
<path fill-rule="evenodd" clip-rule="evenodd" d="M2509.66 838.816L2561.81 843.855L2560.49 857.556L2521.38 853.776L2517.4 894.879L2595.63 902.438L2594.31 916.139L2503.04 907.319L2509.66 838.816ZM2583.92 887.477L2590.54 818.974L2486.23 808.895L2476.97 904.8L2490 906.059L2497.95 823.855L2576.18 831.415L2572.21 872.517L2533.09 868.737L2531.77 882.438L2583.92 887.477Z" fill="#A50B40"/>
<path fill-rule="evenodd" clip-rule="evenodd" d="M2627.01 850.156L2679.16 855.195L2677.83 868.896L2638.72 865.116L2634.75 906.218L2712.98 913.778L2711.65 927.479L2620.39 918.659L2627.01 850.156ZM2701.26 898.817L2707.88 830.314L2603.58 820.234L2594.31 916.139L2607.35 917.399L2615.29 835.195L2693.52 842.755L2689.55 883.857L2650.43 880.077L2649.11 893.778L2701.26 898.817Z" fill="#A50B40"/>
<rect x="1.30469" y="679.233" width="2734.12" height="13.6026" transform="rotate(5.51957 1.30469 679.233)" fill="#A50B40"/>
</g>
<defs>
<filter id="filter0_i_562_1238" x="0" y="0" width="2792.39" height="960.757" filterUnits="userSpaceOnUse" color-interpolation-filters="sRGB">
<feFlood flood-opacity="0" result="BackgroundImageFix"/>
<feBlend mode="normal" in="SourceGraphic" in2="BackgroundImageFix" result="shape"/>
<feColorMatrix in="SourceAlpha" type="matrix" values="0 0 0 0 0 0 0 0 0 0 0 0 0 0 0 0 0 0 127 0" result="hardAlpha"/>
<feOffset dx="4" dy="5"/>
<feGaussianBlur stdDeviation="4"/>
<feComposite in2="hardAlpha" operator="arithmetic" k2="-1" k3="1"/>
<feColorMatrix type="matrix" values="0 0 0 0 0.188704 0 0 0 0 0.00588166 0 0 0 0 0.0714219 0 0 0 1 0"/>
<feBlend mode="normal" in2="shape" result="effect1_innerShadow_562_1238"/>
</filter>
</defs>
</svg>
