<svg width="1282" height="1149" viewBox="0 0 1282 1149" fill="none" xmlns="http://www.w3.org/2000/svg">
<g filter="url(#filter0_i_562_2140)">
<rect width="1281.29" height="11.3388" fill="#A50B40"/>
<path fill-rule="evenodd" clip-rule="evenodd" d="M24.8836 45.6253H68.979V57.0991H35.9075V91.5205H102.051V102.994H24.8836V45.6253ZM91.0267 80.0467V22.6777H2.83594L2.83594 102.994H13.8598L13.8598 34.1515H80.0029V68.5729H46.9313V80.0467H91.0267Z" fill="#A50B40"/>
<path fill-rule="evenodd" clip-rule="evenodd" d="M123.465 45.6253H166.3V57.0991H134.174V91.5205H198.427V102.994H123.465V45.6253ZM187.718 80.0467V22.6777H102.047V102.994H112.756V34.1515H177.009V68.5729H144.882V80.0467H187.718Z" fill="#A50B40"/>
<path fill-rule="evenodd" clip-rule="evenodd" d="M220.477 45.6253H264.573V57.0991H231.501V91.5205H297.644V102.994H220.477V45.6253ZM286.62 80.0467V22.6777H198.43V102.994H209.454V34.1515H275.597V68.5729H242.525V80.0467H286.62Z" fill="#A50B40"/>
<path fill-rule="evenodd" clip-rule="evenodd" d="M319.276 45.6253H362.532V57.0991H330.09V91.5205H394.973V102.994H319.276V45.6253ZM384.159 80.0467V22.6777H297.648V102.994H308.462V34.1515H373.346V68.5729H340.904V80.0467H384.159Z" fill="#A50B40"/>
<path fill-rule="evenodd" clip-rule="evenodd" d="M417.016 45.6253H461.112V57.0991H428.04V91.5205H494.183V102.994H417.016V45.6253ZM483.16 80.0467V22.6777H394.969V102.994H405.993V34.1515H472.136V68.5729H439.064V80.0467H483.16Z" fill="#A50B40"/>
<path fill-rule="evenodd" clip-rule="evenodd" d="M515.815 45.6253H559.071V57.0991H526.629V91.5205H591.512V102.994H515.815V45.6253ZM580.698 80.0467V22.6777H494.188V102.994H505.001V34.1515H569.885V68.5729H537.443V80.0467H580.698Z" fill="#A50B40"/>
<path fill-rule="evenodd" clip-rule="evenodd" d="M613.346 45.6253H657.021V57.0991H624.264V91.5205H689.778V102.994H613.346V45.6253ZM678.859 80.0467V22.6777H591.508V102.994H602.427V34.1515H667.94V68.5729H635.183V80.0467H678.859Z" fill="#A50B40"/>
<path fill-rule="evenodd" clip-rule="evenodd" d="M711.829 45.6253H755.924V57.0991H722.853V91.5205H788.996V102.994H711.829V45.6253ZM777.972 80.0467V22.6777H689.781V102.994H700.805V34.1515H766.948V68.5729H733.877V80.0467H777.972Z" fill="#A50B40"/>
<path fill-rule="evenodd" clip-rule="evenodd" d="M810.62 45.6253H853.875V57.0991H821.434V91.5205H886.317V102.994H810.62V45.6253ZM875.503 80.0467V22.6777H788.992V102.994H799.806V34.1515H864.689V68.5729H832.248V80.0467H875.503Z" fill="#A50B40"/>
<path fill-rule="evenodd" clip-rule="evenodd" d="M907.948 45.6253H951.204V57.0991H918.762V91.5205H983.645V102.994H907.948V45.6253ZM972.831 80.0467V22.6777H886.32V102.994H897.134V34.1515H962.017V68.5729H929.576V80.0467H972.831Z" fill="#A50B40"/>
<path fill-rule="evenodd" clip-rule="evenodd" d="M1005.69 45.6253H1049.78V57.0991H1016.71V91.5205H1082.86V102.994H1005.69V45.6253ZM1071.83 80.0467V22.6777H983.641V102.994H994.664V34.1515H1060.81V68.5729H1027.74V80.0467H1071.83Z" fill="#A50B40"/>
<path fill-rule="evenodd" clip-rule="evenodd" d="M1104.91 45.6253H1149V57.0991H1115.93V91.5205H1182.07V102.994H1104.91V45.6253ZM1171.05 80.0467V22.6777H1082.86V102.994H1093.88V34.1515H1160.03V68.5729H1126.95V80.0467H1171.05Z" fill="#A50B40"/>
<path fill-rule="evenodd" clip-rule="evenodd" d="M1203.49 45.6253H1246.32V57.0991H1214.2V91.5205H1278.45V102.994H1203.49V45.6253ZM1267.74 80.0467V22.6777H1182.07V102.994H1192.78V34.1515H1257.03V68.5729H1224.91V80.0467H1267.74Z" fill="#A50B40"/>
<rect y="114.333" width="1281.29" height="11.3388" fill="#A50B40"/>
<rect y="148.35" width="136.066" height="11.3388" fill="#A50B40"/>
<rect x="22.6797" y="193.705" width="79.3717" height="11.3388" fill="#A50B40"/>
<rect x="68.0312" y="239.061" width="34.0164" height="11.3388" fill="#A50B40"/>
<rect x="22.6797" y="284.415" width="113.388" height="11.3388" fill="#A50B40"/>
<rect y="171.027" width="124.727" height="11.3388" fill="#A50B40"/>
<rect x="45.3516" y="216.383" width="34.0164" height="11.3388" fill="#A50B40"/>
<rect x="45.3516" y="261.738" width="79.3717" height="11.3388" fill="#A50B40"/>
<rect y="397.804" width="124.727" height="11.3388" fill="#A50B40"/>
<rect y="420.481" width="136.066" height="11.3388" fill="#A50B40"/>
<rect x="11.3359" y="171.027" width="238.115" height="11.3388" transform="rotate(90 11.3359 171.027)" fill="#A50B40"/>
<rect x="34.0156" y="193.705" width="192.76" height="11.3388" transform="rotate(90 34.0156 193.705)" fill="#A50B40"/>
<rect x="124.727" y="171.027" width="102.049" height="11.3388" transform="rotate(90 124.727 171.027)" fill="#A50B40"/>
<rect x="102.047" y="193.705" width="56.6941" height="11.3388" transform="rotate(90 102.047 193.705)" fill="#A50B40"/>
<rect x="56.6953" y="216.383" width="56.6941" height="11.3388" transform="rotate(90 56.6953 216.383)" fill="#A50B40"/>
<rect width="79.3717" height="11.3388" transform="matrix(1 0 0 -1 22.6797 386.465)" fill="#A50B40"/>
<rect width="34.0164" height="11.3388" transform="matrix(1 0 0 -1 68.0312 341.109)" fill="#A50B40"/>
<rect width="34.0164" height="11.3388" transform="matrix(1 0 0 -1 45.3516 363.787)" fill="#A50B40"/>
<rect width="79.3717" height="11.3388" transform="matrix(1 0 0 -1 45.3516 318.432)" fill="#A50B40"/>
<rect width="56.6941" height="11.3388" transform="matrix(-4.44962e-08 -1 -1 4.44962e-08 102.047 386.465)" fill="#A50B40"/>
<rect width="56.6941" height="11.3388" transform="matrix(-4.44962e-08 -1 -1 4.44962e-08 56.6953 363.787)" fill="#A50B40"/>
<rect x="124.727" y="307.093" width="102.049" height="11.3388" transform="rotate(90 124.727 307.093)" fill="#A50B40"/>
<rect x="147.406" y="148.35" width="283.47" height="11.3388" transform="rotate(90 147.406 148.35)" fill="#A50B40"/>
<rect width="136.066" height="11.3388" transform="matrix(-1 0 0 1 283.469 148.35)" fill="#A50B40"/>
<rect width="79.3717" height="11.3388" transform="matrix(-1 0 0 1 260.789 193.705)" fill="#A50B40"/>
<rect width="34.0164" height="11.3388" transform="matrix(-1 0 0 1 215.438 239.061)" fill="#A50B40"/>
<rect width="113.388" height="11.3388" transform="matrix(-1 0 0 1 260.789 284.415)" fill="#A50B40"/>
<rect width="124.727" height="11.3388" transform="matrix(-1 0 0 1 283.469 171.027)" fill="#A50B40"/>
<rect width="34.0164" height="11.3388" transform="matrix(-1 0 0 1 238.117 216.383)" fill="#A50B40"/>
<rect width="79.3717" height="11.3388" transform="matrix(-1 0 0 1 238.117 261.737)" fill="#A50B40"/>
<rect width="124.727" height="11.3388" transform="matrix(-1 0 0 1 283.469 397.804)" fill="#A50B40"/>
<rect width="136.066" height="11.3388" transform="matrix(-1 0 0 1 283.469 420.481)" fill="#A50B40"/>
<rect width="238.115" height="11.3388" transform="matrix(4.44962e-08 1 1 -4.44962e-08 272.133 171.027)" fill="#A50B40"/>
<rect width="192.76" height="11.3388" transform="matrix(4.44962e-08 1 1 -4.44962e-08 249.453 193.705)" fill="#A50B40"/>
<rect width="102.049" height="11.3388" transform="matrix(4.44962e-08 1 1 -4.44962e-08 158.742 171.027)" fill="#A50B40"/>
<rect width="56.6941" height="11.3388" transform="matrix(4.44962e-08 1 1 -4.44962e-08 181.422 193.705)" fill="#A50B40"/>
<rect width="56.6941" height="11.3388" transform="matrix(4.44962e-08 1 1 -4.44962e-08 226.773 216.383)" fill="#A50B40"/>
<rect x="260.789" y="386.465" width="79.3717" height="11.3388" transform="rotate(180 260.789 386.465)" fill="#A50B40"/>
<rect x="215.438" y="341.109" width="34.0164" height="11.3388" transform="rotate(180 215.438 341.109)" fill="#A50B40"/>
<rect x="238.117" y="363.787" width="34.0164" height="11.3388" transform="rotate(180 238.117 363.787)" fill="#A50B40"/>
<rect x="238.117" y="318.432" width="79.3717" height="11.3388" transform="rotate(180 238.117 318.432)" fill="#A50B40"/>
<rect x="181.422" y="386.465" width="56.6941" height="11.3388" transform="rotate(-90 181.422 386.465)" fill="#A50B40"/>
<rect x="226.773" y="363.787" width="56.6941" height="11.3388" transform="rotate(-90 226.773 363.787)" fill="#A50B40"/>
<rect width="102.049" height="11.3388" transform="matrix(4.44962e-08 1 1 -4.44962e-08 158.742 307.093)" fill="#A50B40"/>
<rect x="283.469" y="148.35" width="215.437" height="11.3388" fill="#A50B40"/>
<rect x="306.148" y="205.044" width="170.082" height="11.3388" fill="#A50B40"/>
<rect x="283.469" y="171.027" width="215.437" height="11.3388" fill="#A50B40"/>
<rect x="283.469" y="397.804" width="215.437" height="11.3388" fill="#A50B40"/>
<rect x="283.469" y="420.481" width="215.437" height="11.3388" fill="#A50B40"/>
<rect x="317.484" y="205.044" width="170.082" height="11.3388" transform="rotate(90 317.484 205.044)" fill="#A50B40"/>
<rect x="476.227" y="205.044" width="170.082" height="11.3388" transform="rotate(90 476.227 205.044)" fill="#A50B40"/>
<rect width="170.082" height="11.3388" transform="matrix(1 0 0 -1 306.148 375.126)" fill="#A50B40"/>
<path d="M387.404 227.722L328.82 286.306V227.722H387.404Z" fill="#A50B40"/>
<path d="M387.404 352.448L328.82 293.864V352.448H387.404Z" fill="#A50B40"/>
<path d="M394.971 227.722L453.555 286.306V227.722H394.971Z" fill="#A50B40"/>
<path d="M394.971 352.448L453.555 293.864V352.448H394.971Z" fill="#A50B40"/>
<circle cx="391.185" cy="290.085" r="6.61431" fill="#A50B40"/>
<circle cx="411.974" cy="269.297" r="6.61431" fill="#A50B40"/>
<circle cx="411.974" cy="310.873" r="6.61431" fill="#A50B40"/>
<circle cx="370.403" cy="269.297" r="6.61431" fill="#A50B40"/>
<circle cx="370.403" cy="310.873" r="6.61431" fill="#A50B40"/>
<path d="M408.195 290.085C408.195 286.619 411.303 283.969 414.742 284.399C418.567 284.877 423.36 285.361 427.093 285.361C430.827 285.361 435.62 284.877 439.445 284.399C442.883 283.969 445.991 286.619 445.991 290.085C445.991 293.551 442.883 296.201 439.445 295.771C435.62 295.293 430.827 294.81 427.093 294.81C423.36 294.81 418.567 295.293 414.742 295.771C411.303 296.201 408.195 293.551 408.195 290.085Z" fill="#A50B40"/>
<path d="M336.383 290.085C336.383 286.619 339.491 283.969 342.93 284.399C346.754 284.877 351.547 285.361 355.281 285.361C359.015 285.361 363.807 284.877 367.632 284.399C371.071 283.969 374.179 286.619 374.179 290.085C374.179 293.551 371.071 296.201 367.632 295.771C363.807 295.293 359.015 294.81 355.281 294.81C351.547 294.81 346.754 295.293 342.93 295.771C339.491 296.201 336.383 293.551 336.383 290.085Z" fill="#A50B40"/>
<path d="M391.19 307.093C394.656 307.093 397.306 310.201 396.877 313.64C396.399 317.464 395.915 322.257 395.915 325.991C395.915 329.725 396.399 334.517 396.877 338.342C397.306 341.781 394.656 344.889 391.19 344.889C387.725 344.889 385.074 341.781 385.504 338.342C385.982 334.517 386.466 329.725 386.466 325.991C386.466 322.257 385.982 317.464 385.504 313.64C385.074 310.201 387.725 307.093 391.19 307.093Z" fill="#A50B40"/>
<path d="M391.19 235.28C394.656 235.28 397.306 238.388 396.877 241.827C396.399 245.652 395.915 250.445 395.915 254.178C395.915 257.912 396.399 262.705 396.877 266.53C397.306 269.968 394.656 273.076 391.19 273.076C387.725 273.076 385.074 269.968 385.504 266.53C385.982 262.705 386.466 257.912 386.466 254.178C386.466 250.445 385.982 245.652 385.504 241.827C385.074 238.388 387.725 235.28 391.19 235.28Z" fill="#A50B40"/>
<rect x="498.906" y="148.35" width="136.066" height="11.3388" fill="#A50B40"/>
<rect x="521.586" y="193.705" width="79.3717" height="11.3388" fill="#A50B40"/>
<rect x="566.938" y="239.061" width="34.0164" height="11.3388" fill="#A50B40"/>
<rect x="521.586" y="284.415" width="113.388" height="11.3388" fill="#A50B40"/>
<rect x="498.906" y="171.027" width="124.727" height="11.3388" fill="#A50B40"/>
<rect x="544.258" y="216.383" width="34.0164" height="11.3388" fill="#A50B40"/>
<rect x="544.258" y="261.738" width="79.3717" height="11.3388" fill="#A50B40"/>
<rect x="498.906" y="397.804" width="124.727" height="11.3388" fill="#A50B40"/>
<rect x="498.906" y="420.481" width="136.066" height="11.3388" fill="#A50B40"/>
<rect x="510.242" y="171.027" width="238.115" height="11.3388" transform="rotate(90 510.242 171.027)" fill="#A50B40"/>
<rect x="532.922" y="193.705" width="192.76" height="11.3388" transform="rotate(90 532.922 193.705)" fill="#A50B40"/>
<rect x="623.633" y="171.027" width="102.049" height="11.3388" transform="rotate(90 623.633 171.027)" fill="#A50B40"/>
<rect x="600.953" y="193.705" width="56.6941" height="11.3388" transform="rotate(90 600.953 193.705)" fill="#A50B40"/>
<rect x="555.602" y="216.383" width="56.6941" height="11.3388" transform="rotate(90 555.602 216.383)" fill="#A50B40"/>
<rect width="79.3717" height="11.3388" transform="matrix(1 0 0 -1 521.586 386.465)" fill="#A50B40"/>
<rect width="34.0164" height="11.3388" transform="matrix(1 0 0 -1 566.938 341.109)" fill="#A50B40"/>
<rect width="34.0164" height="11.3388" transform="matrix(1 0 0 -1 544.258 363.787)" fill="#A50B40"/>
<rect width="79.3717" height="11.3388" transform="matrix(1 0 0 -1 544.258 318.432)" fill="#A50B40"/>
<rect width="56.6941" height="11.3388" transform="matrix(-4.44962e-08 -1 -1 4.44962e-08 600.953 386.465)" fill="#A50B40"/>
<rect width="56.6941" height="11.3388" transform="matrix(-4.44962e-08 -1 -1 4.44962e-08 555.602 363.787)" fill="#A50B40"/>
<rect x="623.633" y="307.093" width="102.049" height="11.3388" transform="rotate(90 623.633 307.093)" fill="#A50B40"/>
<rect x="646.312" y="148.35" width="283.47" height="11.3388" transform="rotate(90 646.312 148.35)" fill="#A50B40"/>
<rect width="136.066" height="11.3388" transform="matrix(-1 0 0 1 782.375 148.35)" fill="#A50B40"/>
<rect width="79.3717" height="11.3388" transform="matrix(-1 0 0 1 759.695 193.705)" fill="#A50B40"/>
<rect width="34.0164" height="11.3388" transform="matrix(-1 0 0 1 714.344 239.061)" fill="#A50B40"/>
<rect width="113.388" height="11.3388" transform="matrix(-1 0 0 1 759.695 284.415)" fill="#A50B40"/>
<rect width="124.727" height="11.3388" transform="matrix(-1 0 0 1 782.375 171.027)" fill="#A50B40"/>
<rect width="34.0164" height="11.3388" transform="matrix(-1 0 0 1 737.023 216.383)" fill="#A50B40"/>
<rect width="79.3717" height="11.3388" transform="matrix(-1 0 0 1 737.023 261.737)" fill="#A50B40"/>
<rect width="124.727" height="11.3388" transform="matrix(-1 0 0 1 782.375 397.804)" fill="#A50B40"/>
<rect width="136.066" height="11.3388" transform="matrix(-1 0 0 1 782.375 420.481)" fill="#A50B40"/>
<rect width="238.115" height="11.3388" transform="matrix(4.44962e-08 1 1 -4.44962e-08 771.039 171.027)" fill="#A50B40"/>
<rect width="192.76" height="11.3388" transform="matrix(4.44962e-08 1 1 -4.44962e-08 748.359 193.705)" fill="#A50B40"/>
<rect width="102.049" height="11.3388" transform="matrix(4.44962e-08 1 1 -4.44962e-08 657.648 171.027)" fill="#A50B40"/>
<rect width="56.6941" height="11.3388" transform="matrix(4.44962e-08 1 1 -4.44962e-08 680.328 193.705)" fill="#A50B40"/>
<rect width="56.6941" height="11.3388" transform="matrix(4.44962e-08 1 1 -4.44962e-08 725.68 216.383)" fill="#A50B40"/>
<rect x="759.695" y="386.465" width="79.3717" height="11.3388" transform="rotate(180 759.695 386.465)" fill="#A50B40"/>
<rect x="714.344" y="341.109" width="34.0164" height="11.3388" transform="rotate(180 714.344 341.109)" fill="#A50B40"/>
<rect x="737.023" y="363.787" width="34.0164" height="11.3388" transform="rotate(180 737.023 363.787)" fill="#A50B40"/>
<rect x="737.023" y="318.432" width="79.3717" height="11.3388" transform="rotate(180 737.023 318.432)" fill="#A50B40"/>
<rect x="680.328" y="386.465" width="56.6941" height="11.3388" transform="rotate(-90 680.328 386.465)" fill="#A50B40"/>
<rect x="725.68" y="363.787" width="56.6941" height="11.3388" transform="rotate(-90 725.68 363.787)" fill="#A50B40"/>
<rect width="102.049" height="11.3388" transform="matrix(4.44962e-08 1 1 -4.44962e-08 657.648 307.093)" fill="#A50B40"/>
<rect x="782.375" y="148.35" width="215.437" height="11.3388" fill="#A50B40"/>
<rect x="805.055" y="205.044" width="170.082" height="11.3388" fill="#A50B40"/>
<rect x="782.375" y="171.027" width="215.437" height="11.3388" fill="#A50B40"/>
<rect x="782.375" y="397.804" width="215.437" height="11.3388" fill="#A50B40"/>
<rect x="782.375" y="420.481" width="215.437" height="11.3388" fill="#A50B40"/>
<rect x="816.391" y="205.044" width="170.082" height="11.3388" transform="rotate(90 816.391 205.044)" fill="#A50B40"/>
<rect x="975.133" y="205.044" width="170.082" height="11.3388" transform="rotate(90 975.133 205.044)" fill="#A50B40"/>
<rect width="170.082" height="11.3388" transform="matrix(1 0 0 -1 805.055 375.126)" fill="#A50B40"/>
<path d="M886.31 227.722L827.727 286.306V227.722H886.31Z" fill="#A50B40"/>
<path d="M886.31 352.448L827.727 293.864V352.448H886.31Z" fill="#A50B40"/>
<path d="M893.877 227.722L952.461 286.306V227.722H893.877Z" fill="#A50B40"/>
<path d="M893.877 352.448L952.461 293.864V352.448H893.877Z" fill="#A50B40"/>
<circle cx="890.091" cy="290.085" r="6.61431" fill="#A50B40"/>
<circle cx="910.88" cy="269.297" r="6.61431" fill="#A50B40"/>
<circle cx="910.88" cy="310.872" r="6.61431" fill="#A50B40"/>
<circle cx="869.31" cy="269.297" r="6.61431" fill="#A50B40"/>
<circle cx="869.31" cy="310.872" r="6.61431" fill="#A50B40"/>
<path d="M907.102 290.085C907.102 286.619 910.21 283.969 913.648 284.399C917.473 284.877 922.266 285.361 926 285.361C929.733 285.361 934.526 284.877 938.351 284.399C941.79 283.969 944.898 286.619 944.898 290.085C944.898 293.551 941.79 296.201 938.351 295.771C934.526 295.293 929.733 294.81 926 294.81C922.266 294.81 917.473 295.293 913.648 295.771C910.21 296.201 907.102 293.551 907.102 290.085Z" fill="#A50B40"/>
<path d="M835.289 290.085C835.289 286.619 838.397 283.969 841.836 284.399C845.66 284.877 850.453 285.361 854.187 285.361C857.921 285.361 862.714 284.877 866.538 284.399C869.977 283.969 873.085 286.619 873.085 290.085C873.085 293.551 869.977 296.201 866.538 295.771C862.714 295.293 857.921 294.81 854.187 294.81C850.453 294.81 845.66 295.293 841.836 295.771C838.397 296.201 835.289 293.551 835.289 290.085Z" fill="#A50B40"/>
<path d="M890.097 307.093C893.562 307.093 896.213 310.201 895.783 313.64C895.305 317.464 894.821 322.257 894.821 325.991C894.821 329.725 895.305 334.517 895.783 338.342C896.213 341.781 893.562 344.889 890.097 344.889C886.631 344.889 883.981 341.781 884.41 338.342C884.888 334.517 885.372 329.725 885.372 325.991C885.372 322.257 884.888 317.464 884.41 313.64C883.981 310.201 886.631 307.093 890.097 307.093Z" fill="#A50B40"/>
<path d="M890.097 235.28C893.562 235.28 896.213 238.388 895.783 241.827C895.305 245.652 894.821 250.445 894.821 254.178C894.821 257.912 895.305 262.705 895.783 266.53C896.213 269.968 893.562 273.076 890.097 273.076C886.631 273.076 883.981 269.968 884.41 266.53C884.888 262.705 885.372 257.912 885.372 254.178C885.372 250.445 884.888 245.652 884.41 241.827C883.981 238.388 886.631 235.28 890.097 235.28Z" fill="#A50B40"/>
<rect x="997.812" y="148.35" width="136.066" height="11.3388" fill="#A50B40"/>
<rect x="1020.49" y="193.705" width="79.3717" height="11.3388" fill="#A50B40"/>
<rect x="1065.84" y="239.061" width="34.0164" height="11.3388" fill="#A50B40"/>
<rect x="1020.49" y="284.415" width="113.388" height="11.3388" fill="#A50B40"/>
<rect x="997.812" y="171.027" width="124.727" height="11.3388" fill="#A50B40"/>
<rect x="1043.16" y="216.383" width="34.0164" height="11.3388" fill="#A50B40"/>
<rect x="1043.16" y="261.738" width="79.3717" height="11.3388" fill="#A50B40"/>
<rect x="997.812" y="397.804" width="124.727" height="11.3388" fill="#A50B40"/>
<rect x="997.812" y="420.481" width="136.066" height="11.3388" fill="#A50B40"/>
<rect x="1009.15" y="171.027" width="238.115" height="11.3388" transform="rotate(90 1009.15 171.027)" fill="#A50B40"/>
<rect x="1031.83" y="193.705" width="192.76" height="11.3388" transform="rotate(90 1031.83 193.705)" fill="#A50B40"/>
<rect x="1122.54" y="171.027" width="102.049" height="11.3388" transform="rotate(90 1122.54 171.027)" fill="#A50B40"/>
<rect x="1099.86" y="193.705" width="56.6941" height="11.3388" transform="rotate(90 1099.86 193.705)" fill="#A50B40"/>
<rect x="1054.51" y="216.383" width="56.6941" height="11.3388" transform="rotate(90 1054.51 216.383)" fill="#A50B40"/>
<rect width="79.3717" height="11.3388" transform="matrix(1 0 0 -1 1020.49 386.465)" fill="#A50B40"/>
<rect width="34.0164" height="11.3388" transform="matrix(1 0 0 -1 1065.84 341.109)" fill="#A50B40"/>
<rect width="34.0164" height="11.3388" transform="matrix(1 0 0 -1 1043.16 363.787)" fill="#A50B40"/>
<rect width="79.3717" height="11.3388" transform="matrix(1 0 0 -1 1043.16 318.432)" fill="#A50B40"/>
<rect width="56.6941" height="11.3388" transform="matrix(-4.44962e-08 -1 -1 4.44962e-08 1099.86 386.465)" fill="#A50B40"/>
<rect width="56.6941" height="11.3388" transform="matrix(-4.44962e-08 -1 -1 4.44962e-08 1054.51 363.787)" fill="#A50B40"/>
<rect x="1122.54" y="307.093" width="102.049" height="11.3388" transform="rotate(90 1122.54 307.093)" fill="#A50B40"/>
<rect x="1145.22" y="148.35" width="283.47" height="11.3388" transform="rotate(90 1145.22 148.35)" fill="#A50B40"/>
<rect width="136.066" height="11.3388" transform="matrix(-1 0 0 1 1281.29 148.35)" fill="#A50B40"/>
<rect width="79.3717" height="11.3388" transform="matrix(-1 0 0 1 1258.61 193.705)" fill="#A50B40"/>
<rect width="34.0164" height="11.3388" transform="matrix(-1 0 0 1 1213.26 239.061)" fill="#A50B40"/>
<rect width="113.388" height="11.3388" transform="matrix(-1 0 0 1 1258.61 284.415)" fill="#A50B40"/>
<rect width="124.727" height="11.3388" transform="matrix(-1 0 0 1 1281.29 171.027)" fill="#A50B40"/>
<rect width="34.0164" height="11.3388" transform="matrix(-1 0 0 1 1235.94 216.383)" fill="#A50B40"/>
<rect width="79.3717" height="11.3388" transform="matrix(-1 0 0 1 1235.94 261.737)" fill="#A50B40"/>
<rect width="124.727" height="11.3388" transform="matrix(-1 0 0 1 1281.29 397.804)" fill="#A50B40"/>
<rect width="136.066" height="11.3388" transform="matrix(-1 0 0 1 1281.29 420.481)" fill="#A50B40"/>
<rect width="238.115" height="11.3388" transform="matrix(4.44962e-08 1 1 -4.44962e-08 1269.95 171.027)" fill="#A50B40"/>
<rect width="192.76" height="11.3388" transform="matrix(4.44962e-08 1 1 -4.44962e-08 1247.27 193.705)" fill="#A50B40"/>
<rect width="102.049" height="11.3388" transform="matrix(4.44962e-08 1 1 -4.44962e-08 1156.56 171.027)" fill="#A50B40"/>
<rect width="56.6941" height="11.3388" transform="matrix(4.44962e-08 1 1 -4.44962e-08 1179.24 193.705)" fill="#A50B40"/>
<rect width="56.6941" height="11.3388" transform="matrix(4.44962e-08 1 1 -4.44962e-08 1224.59 216.383)" fill="#A50B40"/>
<rect x="1258.61" y="386.465" width="79.3717" height="11.3388" transform="rotate(180 1258.61 386.465)" fill="#A50B40"/>
<rect x="1213.26" y="341.109" width="34.0164" height="11.3388" transform="rotate(180 1213.26 341.109)" fill="#A50B40"/>
<rect x="1235.94" y="363.787" width="34.0164" height="11.3388" transform="rotate(180 1235.94 363.787)" fill="#A50B40"/>
<rect x="1235.94" y="318.432" width="79.3717" height="11.3388" transform="rotate(180 1235.94 318.432)" fill="#A50B40"/>
<rect x="1179.24" y="386.465" width="56.6941" height="11.3388" transform="rotate(-90 1179.24 386.465)" fill="#A50B40"/>
<rect x="1224.59" y="363.787" width="56.6941" height="11.3388" transform="rotate(-90 1224.59 363.787)" fill="#A50B40"/>
<rect width="102.049" height="11.3388" transform="matrix(4.44962e-08 1 1 -4.44962e-08 1156.56 307.093)" fill="#A50B40"/>
<rect y="454.497" width="1281.29" height="11.3388" fill="#A50B40"/>
<path fill-rule="evenodd" clip-rule="evenodd" d="M24.8836 500.123H68.979V511.597H35.9075V546.019H102.051V557.492H24.8836V500.123ZM91.0267 534.545V477.176H2.83594L2.83594 557.492H13.8598L13.8598 488.65H80.0029V523.071H46.9313V534.545H91.0267Z" fill="#A50B40"/>
<path fill-rule="evenodd" clip-rule="evenodd" d="M123.465 500.123H166.3V511.597H134.174V546.019H198.427V557.492H123.465V500.123ZM187.718 534.545V477.176H102.047V557.492H112.756V488.65H177.009V523.071H144.882V534.545H187.718Z" fill="#A50B40"/>
<path fill-rule="evenodd" clip-rule="evenodd" d="M220.477 500.123H264.573V511.597H231.501V546.019H297.644V557.492H220.477V500.123ZM286.62 534.545V477.176H198.43V557.492H209.454V488.65H275.597V523.071H242.525V534.545H286.62Z" fill="#A50B40"/>
<path fill-rule="evenodd" clip-rule="evenodd" d="M319.276 500.123H362.532V511.597H330.09V546.019H394.973V557.492H319.276V500.123ZM384.159 534.545V477.176H297.648V557.492H308.462V488.65H373.346V523.071H340.904V534.545H384.159Z" fill="#A50B40"/>
<path fill-rule="evenodd" clip-rule="evenodd" d="M417.016 500.123H461.112V511.597H428.04V546.019H494.183V557.492H417.016V500.123ZM483.16 534.545V477.176H394.969V557.492H405.993V488.65H472.136V523.071H439.064V534.545H483.16Z" fill="#A50B40"/>
<path fill-rule="evenodd" clip-rule="evenodd" d="M515.815 500.123H559.071V511.597H526.629V546.019H591.512V557.492H515.815V500.123ZM580.698 534.545V477.176H494.188V557.492H505.001V488.65H569.885V523.071H537.443V534.545H580.698Z" fill="#A50B40"/>
<path fill-rule="evenodd" clip-rule="evenodd" d="M613.346 500.123H657.021V511.597H624.264V546.019H689.778V557.492H613.346V500.123ZM678.859 534.545V477.176H591.508V557.492H602.427V488.65H667.94V523.071H635.183V534.545H678.859Z" fill="#A50B40"/>
<path fill-rule="evenodd" clip-rule="evenodd" d="M711.829 500.123H755.924V511.597H722.853V546.019H788.996V557.492H711.829V500.123ZM777.972 534.545V477.176H689.781V557.492H700.805V488.65H766.948V523.071H733.877V534.545H777.972Z" fill="#A50B40"/>
<path fill-rule="evenodd" clip-rule="evenodd" d="M810.62 500.123H853.875V511.597H821.434V546.019H886.317V557.492H810.62V500.123ZM875.503 534.545V477.176H788.992V557.492H799.806V488.65H864.689V523.071H832.248V534.545H875.503Z" fill="#A50B40"/>
<path fill-rule="evenodd" clip-rule="evenodd" d="M907.948 500.123H951.204V511.597H918.762V546.019H983.645V557.492H907.948V500.123ZM972.831 534.545V477.176H886.32V557.492H897.134V488.65H962.017V523.071H929.576V534.545H972.831Z" fill="#A50B40"/>
<path fill-rule="evenodd" clip-rule="evenodd" d="M1005.69 500.123H1049.78V511.597H1016.71V546.019H1082.86V557.492H1005.69V500.123ZM1071.83 534.545V477.176H983.641V557.492H994.664V488.65H1060.81V523.071H1027.74V534.545H1071.83Z" fill="#A50B40"/>
<path fill-rule="evenodd" clip-rule="evenodd" d="M1104.91 500.123H1149V511.597H1115.93V546.019H1182.07V557.492H1104.91V500.123ZM1171.05 534.545V477.176H1082.86V557.492H1093.88V488.65H1160.03V523.071H1126.95V534.545H1171.05Z" fill="#A50B40"/>
<path fill-rule="evenodd" clip-rule="evenodd" d="M1203.49 500.123H1246.32V511.597H1214.2V546.019H1278.45V557.492H1203.49V500.123ZM1267.74 534.545V477.176H1182.07V557.492H1192.78V488.65H1257.03V523.071H1224.91V534.545H1267.74Z" fill="#A50B40"/>
<rect y="568.831" width="1281.29" height="11.3388" fill="#A50B40"/>
<path fill-rule="evenodd" clip-rule="evenodd" d="M24.8836 614.455H68.979V625.929H35.9075V660.351H102.051V671.824H24.8836V614.455ZM91.0267 648.877V591.508H2.83594L2.83594 671.824H13.8598L13.8598 602.982H80.0029V637.403H46.9313V648.877H91.0267Z" fill="#A50B40"/>
<path fill-rule="evenodd" clip-rule="evenodd" d="M123.465 614.455H166.3V625.929H134.174V660.351H198.427V671.824H123.465V614.455ZM187.718 648.877V591.508H102.047V671.824H112.756V602.982H177.009V637.403H144.882V648.877H187.718Z" fill="#A50B40"/>
<path fill-rule="evenodd" clip-rule="evenodd" d="M220.477 614.455H264.573V625.929H231.501V660.351H297.644V671.824H220.477V614.455ZM286.62 648.877V591.508H198.43V671.824H209.454V602.982H275.597V637.403H242.525V648.877H286.62Z" fill="#A50B40"/>
<path fill-rule="evenodd" clip-rule="evenodd" d="M319.276 614.455H362.532V625.929H330.09V660.351H394.973V671.824H319.276V614.455ZM384.159 648.877V591.508H297.648V671.824H308.462V602.982H373.346V637.403H340.904V648.877H384.159Z" fill="#A50B40"/>
<path fill-rule="evenodd" clip-rule="evenodd" d="M417.016 614.455H461.112V625.929H428.04V660.351H494.183V671.824H417.016V614.455ZM483.16 648.877V591.508H394.969V671.824H405.993V602.982H472.136V637.403H439.064V648.877H483.16Z" fill="#A50B40"/>
<path fill-rule="evenodd" clip-rule="evenodd" d="M515.815 614.455H559.071V625.929H526.629V660.351H591.512V671.824H515.815V614.455ZM580.698 648.877V591.508H494.188V671.824H505.001V602.982H569.885V637.403H537.443V648.877H580.698Z" fill="#A50B40"/>
<path fill-rule="evenodd" clip-rule="evenodd" d="M613.346 614.455H657.021V625.929H624.264V660.351H689.778V671.824H613.346V614.455ZM678.859 648.877V591.508H591.508V671.824H602.427V602.982H667.94V637.403H635.183V648.877H678.859Z" fill="#A50B40"/>
<path fill-rule="evenodd" clip-rule="evenodd" d="M711.829 614.455H755.924V625.929H722.853V660.351H788.996V671.824H711.829V614.455ZM777.972 648.877V591.508H689.781V671.824H700.805V602.982H766.948V637.403H733.877V648.877H777.972Z" fill="#A50B40"/>
<path fill-rule="evenodd" clip-rule="evenodd" d="M810.62 614.455H853.875V625.929H821.434V660.351H886.317V671.824H810.62V614.455ZM875.503 648.877V591.508H788.992V671.824H799.806V602.982H864.689V637.403H832.248V648.877H875.503Z" fill="#A50B40"/>
<path fill-rule="evenodd" clip-rule="evenodd" d="M907.948 614.455H951.204V625.929H918.762V660.351H983.645V671.824H907.948V614.455ZM972.831 648.877V591.508H886.32V671.824H897.134V602.982H962.017V637.403H929.576V648.877H972.831Z" fill="#A50B40"/>
<path fill-rule="evenodd" clip-rule="evenodd" d="M1005.69 614.455H1049.78V625.929H1016.71V660.351H1082.86V671.824H1005.69V614.455ZM1071.83 648.877V591.508H983.641V671.824H994.664V602.982H1060.81V637.403H1027.74V648.877H1071.83Z" fill="#A50B40"/>
<path fill-rule="evenodd" clip-rule="evenodd" d="M1104.91 614.455H1149V625.929H1115.93V660.351H1182.07V671.824H1104.91V614.455ZM1171.05 648.877V591.508H1082.86V671.824H1093.88V602.982H1160.03V637.403H1126.95V648.877H1171.05Z" fill="#A50B40"/>
<path fill-rule="evenodd" clip-rule="evenodd" d="M1203.49 614.455H1246.32V625.929H1214.2V660.351H1278.45V671.824H1203.49V614.455ZM1267.74 648.877V591.508H1182.07V671.824H1192.78V602.982H1257.03V637.403H1224.91V648.877H1267.74Z" fill="#A50B40"/>
<rect y="683.164" width="1281.29" height="11.3388" fill="#A50B40"/>
<rect y="717.18" width="136.066" height="11.3388" fill="#A50B40"/>
<rect x="22.6797" y="762.535" width="79.3717" height="11.3388" fill="#A50B40"/>
<rect x="68.0312" y="807.891" width="34.0164" height="11.3388" fill="#A50B40"/>
<rect x="22.6797" y="853.245" width="113.388" height="11.3388" fill="#A50B40"/>
<rect y="739.857" width="124.727" height="11.3388" fill="#A50B40"/>
<rect x="45.3516" y="785.213" width="34.0164" height="11.3388" fill="#A50B40"/>
<rect x="45.3516" y="830.567" width="79.3717" height="11.3388" fill="#A50B40"/>
<rect y="966.634" width="124.727" height="11.3388" fill="#A50B40"/>
<rect y="989.312" width="136.066" height="11.3388" fill="#A50B40"/>
<rect x="11.3359" y="739.857" width="238.115" height="11.3388" transform="rotate(90 11.3359 739.857)" fill="#A50B40"/>
<rect x="34.0156" y="762.535" width="192.76" height="11.3388" transform="rotate(90 34.0156 762.535)" fill="#A50B40"/>
<rect x="124.727" y="739.857" width="102.049" height="11.3388" transform="rotate(90 124.727 739.857)" fill="#A50B40"/>
<rect x="102.047" y="762.535" width="56.6941" height="11.3388" transform="rotate(90 102.047 762.535)" fill="#A50B40"/>
<rect x="56.6953" y="785.213" width="56.6941" height="11.3388" transform="rotate(90 56.6953 785.213)" fill="#A50B40"/>
<rect width="79.3717" height="11.3388" transform="matrix(1 0 0 -1 22.6797 955.295)" fill="#A50B40"/>
<rect width="34.0164" height="11.3388" transform="matrix(1 0 0 -1 68.0312 909.939)" fill="#A50B40"/>
<rect width="34.0164" height="11.3388" transform="matrix(1 0 0 -1 45.3516 932.617)" fill="#A50B40"/>
<rect width="79.3717" height="11.3388" transform="matrix(1 0 0 -1 45.3516 887.262)" fill="#A50B40"/>
<rect width="56.6941" height="11.3388" transform="matrix(-4.44962e-08 -1 -1 4.44962e-08 102.047 955.295)" fill="#A50B40"/>
<rect width="56.6941" height="11.3388" transform="matrix(-4.44962e-08 -1 -1 4.44962e-08 56.6953 932.617)" fill="#A50B40"/>
<rect x="124.727" y="875.923" width="102.049" height="11.3388" transform="rotate(90 124.727 875.923)" fill="#A50B40"/>
<rect x="147.406" y="717.18" width="283.47" height="11.3388" transform="rotate(90 147.406 717.18)" fill="#A50B40"/>
<rect width="136.066" height="11.3388" transform="matrix(-1 0 0 1 283.469 717.18)" fill="#A50B40"/>
<rect width="79.3717" height="11.3388" transform="matrix(-1 0 0 1 260.789 762.535)" fill="#A50B40"/>
<rect width="34.0164" height="11.3388" transform="matrix(-1 0 0 1 215.438 807.891)" fill="#A50B40"/>
<rect width="113.388" height="11.3388" transform="matrix(-1 0 0 1 260.789 853.245)" fill="#A50B40"/>
<rect width="124.727" height="11.3388" transform="matrix(-1 0 0 1 283.469 739.857)" fill="#A50B40"/>
<rect width="34.0164" height="11.3388" transform="matrix(-1 0 0 1 238.117 785.213)" fill="#A50B40"/>
<rect width="79.3717" height="11.3388" transform="matrix(-1 0 0 1 238.117 830.567)" fill="#A50B40"/>
<rect width="124.727" height="11.3388" transform="matrix(-1 0 0 1 283.469 966.634)" fill="#A50B40"/>
<rect width="136.066" height="11.3388" transform="matrix(-1 0 0 1 283.469 989.312)" fill="#A50B40"/>
<rect width="238.115" height="11.3388" transform="matrix(4.44962e-08 1 1 -4.44962e-08 272.133 739.857)" fill="#A50B40"/>
<rect width="192.76" height="11.3388" transform="matrix(4.44962e-08 1 1 -4.44962e-08 249.453 762.535)" fill="#A50B40"/>
<rect width="102.049" height="11.3388" transform="matrix(4.44962e-08 1 1 -4.44962e-08 158.742 739.857)" fill="#A50B40"/>
<rect width="56.6941" height="11.3388" transform="matrix(4.44962e-08 1 1 -4.44962e-08 181.422 762.535)" fill="#A50B40"/>
<rect width="56.6941" height="11.3388" transform="matrix(4.44962e-08 1 1 -4.44962e-08 226.773 785.213)" fill="#A50B40"/>
<rect x="260.789" y="955.295" width="79.3717" height="11.3388" transform="rotate(180 260.789 955.295)" fill="#A50B40"/>
<rect x="215.438" y="909.939" width="34.0164" height="11.3388" transform="rotate(180 215.438 909.939)" fill="#A50B40"/>
<rect x="238.117" y="932.617" width="34.0164" height="11.3388" transform="rotate(180 238.117 932.617)" fill="#A50B40"/>
<rect x="238.117" y="887.262" width="79.3717" height="11.3388" transform="rotate(180 238.117 887.262)" fill="#A50B40"/>
<rect x="181.422" y="955.295" width="56.6941" height="11.3388" transform="rotate(-90 181.422 955.295)" fill="#A50B40"/>
<rect x="226.773" y="932.617" width="56.6941" height="11.3388" transform="rotate(-90 226.773 932.617)" fill="#A50B40"/>
<rect width="102.049" height="11.3388" transform="matrix(4.44962e-08 1 1 -4.44962e-08 158.742 875.923)" fill="#A50B40"/>
<rect x="283.469" y="717.18" width="215.437" height="11.3388" fill="#A50B40"/>
<rect x="306.148" y="773.874" width="170.082" height="11.3388" fill="#A50B40"/>
<rect x="283.469" y="739.857" width="215.437" height="11.3388" fill="#A50B40"/>
<rect x="283.469" y="966.634" width="215.437" height="11.3388" fill="#A50B40"/>
<rect x="283.469" y="989.312" width="215.437" height="11.3388" fill="#A50B40"/>
<rect x="317.484" y="773.874" width="170.082" height="11.3388" transform="rotate(90 317.484 773.874)" fill="#A50B40"/>
<rect x="476.227" y="773.874" width="170.082" height="11.3388" transform="rotate(90 476.227 773.874)" fill="#A50B40"/>
<rect width="170.082" height="11.3388" transform="matrix(1 0 0 -1 306.148 943.956)" fill="#A50B40"/>
<path d="M387.404 796.552L328.82 855.136V796.552H387.404Z" fill="#A50B40"/>
<path d="M387.404 921.278L328.82 862.694V921.278H387.404Z" fill="#A50B40"/>
<path d="M394.971 796.552L453.555 855.136V796.552H394.971Z" fill="#A50B40"/>
<path d="M394.971 921.278L453.555 862.694V921.278H394.971Z" fill="#A50B40"/>
<circle cx="391.185" cy="858.915" r="6.61431" fill="#A50B40"/>
<circle cx="411.974" cy="838.127" r="6.61431" fill="#A50B40"/>
<circle cx="411.974" cy="879.702" r="6.61431" fill="#A50B40"/>
<circle cx="370.403" cy="838.127" r="6.61431" fill="#A50B40"/>
<circle cx="370.403" cy="879.702" r="6.61431" fill="#A50B40"/>
<path d="M408.195 858.915C408.195 855.45 411.303 852.799 414.742 853.229C418.567 853.707 423.36 854.191 427.093 854.191C430.827 854.191 435.62 853.707 439.445 853.229C442.883 852.799 445.991 855.45 445.991 858.915C445.991 862.381 442.883 865.031 439.445 864.601C435.62 864.123 430.827 863.64 427.093 863.64C423.36 863.64 418.567 864.123 414.742 864.601C411.303 865.031 408.195 862.381 408.195 858.915Z" fill="#A50B40"/>
<path d="M336.383 858.915C336.383 855.45 339.491 852.799 342.93 853.229C346.754 853.707 351.547 854.191 355.281 854.191C359.015 854.191 363.807 853.707 367.632 853.229C371.071 852.799 374.179 855.45 374.179 858.915C374.179 862.381 371.071 865.031 367.632 864.601C363.807 864.123 359.015 863.64 355.281 863.64C351.547 863.64 346.754 864.123 342.93 864.601C339.491 865.031 336.383 862.381 336.383 858.915Z" fill="#A50B40"/>
<path d="M391.19 875.923C394.656 875.923 397.306 879.031 396.877 882.47C396.399 886.294 395.915 891.087 395.915 894.821C395.915 898.555 396.399 903.347 396.877 907.172C397.306 910.611 394.656 913.719 391.19 913.719C387.725 913.719 385.074 910.611 385.504 907.172C385.982 903.347 386.466 898.555 386.466 894.821C386.466 891.087 385.982 886.294 385.504 882.47C385.074 879.031 387.725 875.923 391.19 875.923Z" fill="#A50B40"/>
<path d="M391.19 804.11C394.656 804.11 397.306 807.218 396.877 810.657C396.399 814.482 395.915 819.275 395.915 823.008C395.915 826.742 396.399 831.535 396.877 835.36C397.306 838.798 394.656 841.906 391.19 841.906C387.725 841.906 385.074 838.798 385.504 835.36C385.982 831.535 386.466 826.742 386.466 823.008C386.466 819.275 385.982 814.482 385.504 810.657C385.074 807.218 387.725 804.11 391.19 804.11Z" fill="#A50B40"/>
<rect x="498.906" y="717.18" width="136.066" height="11.3388" fill="#A50B40"/>
<rect x="521.586" y="762.535" width="79.3717" height="11.3388" fill="#A50B40"/>
<rect x="566.938" y="807.891" width="34.0164" height="11.3388" fill="#A50B40"/>
<rect x="521.586" y="853.245" width="113.388" height="11.3388" fill="#A50B40"/>
<rect x="498.906" y="739.857" width="124.727" height="11.3388" fill="#A50B40"/>
<rect x="544.258" y="785.213" width="34.0164" height="11.3388" fill="#A50B40"/>
<rect x="544.258" y="830.567" width="79.3717" height="11.3388" fill="#A50B40"/>
<rect x="498.906" y="966.634" width="124.727" height="11.3388" fill="#A50B40"/>
<rect x="498.906" y="989.312" width="136.066" height="11.3388" fill="#A50B40"/>
<rect x="510.242" y="739.857" width="238.115" height="11.3388" transform="rotate(90 510.242 739.857)" fill="#A50B40"/>
<rect x="532.922" y="762.535" width="192.76" height="11.3388" transform="rotate(90 532.922 762.535)" fill="#A50B40"/>
<rect x="623.633" y="739.857" width="102.049" height="11.3388" transform="rotate(90 623.633 739.857)" fill="#A50B40"/>
<rect x="600.953" y="762.535" width="56.6941" height="11.3388" transform="rotate(90 600.953 762.535)" fill="#A50B40"/>
<rect x="555.602" y="785.213" width="56.6941" height="11.3388" transform="rotate(90 555.602 785.213)" fill="#A50B40"/>
<rect width="79.3717" height="11.3388" transform="matrix(1 0 0 -1 521.586 955.295)" fill="#A50B40"/>
<rect width="34.0164" height="11.3388" transform="matrix(1 0 0 -1 566.938 909.939)" fill="#A50B40"/>
<rect width="34.0164" height="11.3388" transform="matrix(1 0 0 -1 544.258 932.617)" fill="#A50B40"/>
<rect width="79.3717" height="11.3388" transform="matrix(1 0 0 -1 544.258 887.262)" fill="#A50B40"/>
<rect width="56.6941" height="11.3388" transform="matrix(-4.44962e-08 -1 -1 4.44962e-08 600.953 955.295)" fill="#A50B40"/>
<rect width="56.6941" height="11.3388" transform="matrix(-4.44962e-08 -1 -1 4.44962e-08 555.602 932.617)" fill="#A50B40"/>
<rect x="623.633" y="875.923" width="102.049" height="11.3388" transform="rotate(90 623.633 875.923)" fill="#A50B40"/>
<rect x="646.312" y="717.18" width="283.47" height="11.3388" transform="rotate(90 646.312 717.18)" fill="#A50B40"/>
<rect width="136.066" height="11.3388" transform="matrix(-1 0 0 1 782.375 717.18)" fill="#A50B40"/>
<rect width="79.3717" height="11.3388" transform="matrix(-1 0 0 1 759.695 762.535)" fill="#A50B40"/>
<rect width="34.0164" height="11.3388" transform="matrix(-1 0 0 1 714.344 807.891)" fill="#A50B40"/>
<rect width="113.388" height="11.3388" transform="matrix(-1 0 0 1 759.695 853.245)" fill="#A50B40"/>
<rect width="124.727" height="11.3388" transform="matrix(-1 0 0 1 782.375 739.857)" fill="#A50B40"/>
<rect width="34.0164" height="11.3388" transform="matrix(-1 0 0 1 737.023 785.213)" fill="#A50B40"/>
<rect width="79.3717" height="11.3388" transform="matrix(-1 0 0 1 737.023 830.567)" fill="#A50B40"/>
<rect width="124.727" height="11.3388" transform="matrix(-1 0 0 1 782.375 966.634)" fill="#A50B40"/>
<rect width="136.066" height="11.3388" transform="matrix(-1 0 0 1 782.375 989.312)" fill="#A50B40"/>
<rect width="238.115" height="11.3388" transform="matrix(4.44962e-08 1 1 -4.44962e-08 771.039 739.857)" fill="#A50B40"/>
<rect width="192.76" height="11.3388" transform="matrix(4.44962e-08 1 1 -4.44962e-08 748.359 762.535)" fill="#A50B40"/>
<rect width="102.049" height="11.3388" transform="matrix(4.44962e-08 1 1 -4.44962e-08 657.648 739.857)" fill="#A50B40"/>
<rect width="56.6941" height="11.3388" transform="matrix(4.44962e-08 1 1 -4.44962e-08 680.328 762.535)" fill="#A50B40"/>
<rect width="56.6941" height="11.3388" transform="matrix(4.44962e-08 1 1 -4.44962e-08 725.68 785.213)" fill="#A50B40"/>
<rect x="759.695" y="955.295" width="79.3717" height="11.3388" transform="rotate(180 759.695 955.295)" fill="#A50B40"/>
<rect x="714.344" y="909.939" width="34.0164" height="11.3388" transform="rotate(180 714.344 909.939)" fill="#A50B40"/>
<rect x="737.023" y="932.617" width="34.0164" height="11.3388" transform="rotate(180 737.023 932.617)" fill="#A50B40"/>
<rect x="737.023" y="887.262" width="79.3717" height="11.3388" transform="rotate(180 737.023 887.262)" fill="#A50B40"/>
<rect x="680.328" y="955.295" width="56.6941" height="11.3388" transform="rotate(-90 680.328 955.295)" fill="#A50B40"/>
<rect x="725.68" y="932.617" width="56.6941" height="11.3388" transform="rotate(-90 725.68 932.617)" fill="#A50B40"/>
<rect width="102.049" height="11.3388" transform="matrix(4.44962e-08 1 1 -4.44962e-08 657.648 875.923)" fill="#A50B40"/>
<rect x="782.375" y="717.18" width="215.437" height="11.3388" fill="#A50B40"/>
<rect x="805.055" y="773.874" width="170.082" height="11.3388" fill="#A50B40"/>
<rect x="782.375" y="739.857" width="215.437" height="11.3388" fill="#A50B40"/>
<rect x="782.375" y="966.634" width="215.437" height="11.3388" fill="#A50B40"/>
<rect x="782.375" y="989.312" width="215.437" height="11.3388" fill="#A50B40"/>
<rect x="816.391" y="773.874" width="170.082" height="11.3388" transform="rotate(90 816.391 773.874)" fill="#A50B40"/>
<rect x="975.133" y="773.874" width="170.082" height="11.3388" transform="rotate(90 975.133 773.874)" fill="#A50B40"/>
<rect width="170.082" height="11.3388" transform="matrix(1 0 0 -1 805.055 943.956)" fill="#A50B40"/>
<path d="M886.31 796.552L827.727 855.136V796.552H886.31Z" fill="#A50B40"/>
<path d="M886.31 921.278L827.727 862.694V921.278H886.31Z" fill="#A50B40"/>
<path d="M893.877 796.552L952.461 855.136V796.552H893.877Z" fill="#A50B40"/>
<path d="M893.877 921.278L952.461 862.694V921.278H893.877Z" fill="#A50B40"/>
<circle cx="890.091" cy="858.915" r="6.61431" fill="#A50B40"/>
<circle cx="910.88" cy="838.127" r="6.61431" fill="#A50B40"/>
<circle cx="910.88" cy="879.702" r="6.61431" fill="#A50B40"/>
<circle cx="869.31" cy="838.127" r="6.61431" fill="#A50B40"/>
<circle cx="869.31" cy="879.702" r="6.61431" fill="#A50B40"/>
<path d="M907.102 858.915C907.102 855.45 910.21 852.799 913.648 853.229C917.473 853.707 922.266 854.191 926 854.191C929.733 854.191 934.526 853.707 938.351 853.229C941.79 852.799 944.898 855.45 944.898 858.915C944.898 862.381 941.79 865.031 938.351 864.601C934.526 864.123 929.733 863.64 926 863.64C922.266 863.64 917.473 864.123 913.648 864.601C910.21 865.031 907.102 862.381 907.102 858.915Z" fill="#A50B40"/>
<path d="M835.289 858.915C835.289 855.45 838.397 852.799 841.836 853.229C845.66 853.707 850.453 854.191 854.187 854.191C857.921 854.191 862.714 853.707 866.538 853.229C869.977 852.799 873.085 855.45 873.085 858.915C873.085 862.381 869.977 865.031 866.538 864.601C862.714 864.123 857.921 863.64 854.187 863.64C850.453 863.64 845.66 864.123 841.836 864.601C838.397 865.031 835.289 862.381 835.289 858.915Z" fill="#A50B40"/>
<path d="M890.097 875.923C893.562 875.923 896.213 879.031 895.783 882.47C895.305 886.294 894.821 891.087 894.821 894.821C894.821 898.555 895.305 903.347 895.783 907.172C896.213 910.611 893.562 913.719 890.097 913.719C886.631 913.719 883.981 910.611 884.41 907.172C884.888 903.347 885.372 898.555 885.372 894.821C885.372 891.087 884.888 886.294 884.41 882.47C883.981 879.031 886.631 875.923 890.097 875.923Z" fill="#A50B40"/>
<path d="M890.097 804.11C893.562 804.11 896.213 807.218 895.783 810.657C895.305 814.482 894.821 819.275 894.821 823.008C894.821 826.742 895.305 831.535 895.783 835.36C896.213 838.798 893.562 841.906 890.097 841.906C886.631 841.906 883.981 838.798 884.41 835.36C884.888 831.535 885.372 826.742 885.372 823.008C885.372 819.275 884.888 814.482 884.41 810.657C883.981 807.218 886.631 804.11 890.097 804.11Z" fill="#A50B40"/>
<rect x="997.812" y="717.18" width="136.066" height="11.3388" fill="#A50B40"/>
<rect x="1020.49" y="762.535" width="79.3717" height="11.3388" fill="#A50B40"/>
<rect x="1065.84" y="807.891" width="34.0164" height="11.3388" fill="#A50B40"/>
<rect x="1020.49" y="853.245" width="113.388" height="11.3388" fill="#A50B40"/>
<rect x="997.812" y="739.857" width="124.727" height="11.3388" fill="#A50B40"/>
<rect x="1043.16" y="785.213" width="34.0164" height="11.3388" fill="#A50B40"/>
<rect x="1043.16" y="830.567" width="79.3717" height="11.3388" fill="#A50B40"/>
<rect x="997.812" y="966.634" width="124.727" height="11.3388" fill="#A50B40"/>
<rect x="997.812" y="989.312" width="136.066" height="11.3388" fill="#A50B40"/>
<rect x="1009.15" y="739.857" width="238.115" height="11.3388" transform="rotate(90 1009.15 739.857)" fill="#A50B40"/>
<rect x="1031.83" y="762.535" width="192.76" height="11.3388" transform="rotate(90 1031.83 762.535)" fill="#A50B40"/>
<rect x="1122.54" y="739.857" width="102.049" height="11.3388" transform="rotate(90 1122.54 739.857)" fill="#A50B40"/>
<rect x="1099.86" y="762.535" width="56.6941" height="11.3388" transform="rotate(90 1099.86 762.535)" fill="#A50B40"/>
<rect x="1054.51" y="785.213" width="56.6941" height="11.3388" transform="rotate(90 1054.51 785.213)" fill="#A50B40"/>
<rect width="79.3717" height="11.3388" transform="matrix(1 0 0 -1 1020.49 955.295)" fill="#A50B40"/>
<rect width="34.0164" height="11.3388" transform="matrix(1 0 0 -1 1065.84 909.939)" fill="#A50B40"/>
<rect width="34.0164" height="11.3388" transform="matrix(1 0 0 -1 1043.16 932.617)" fill="#A50B40"/>
<rect width="79.3717" height="11.3388" transform="matrix(1 0 0 -1 1043.16 887.262)" fill="#A50B40"/>
<rect width="56.6941" height="11.3388" transform="matrix(-4.44962e-08 -1 -1 4.44962e-08 1099.86 955.295)" fill="#A50B40"/>
<rect width="56.6941" height="11.3388" transform="matrix(-4.44962e-08 -1 -1 4.44962e-08 1054.51 932.617)" fill="#A50B40"/>
<rect x="1122.54" y="875.923" width="102.049" height="11.3388" transform="rotate(90 1122.54 875.923)" fill="#A50B40"/>
<rect x="1145.22" y="717.18" width="283.47" height="11.3388" transform="rotate(90 1145.22 717.18)" fill="#A50B40"/>
<rect width="136.066" height="11.3388" transform="matrix(-1 0 0 1 1281.29 717.18)" fill="#A50B40"/>
<rect width="79.3717" height="11.3388" transform="matrix(-1 0 0 1 1258.61 762.535)" fill="#A50B40"/>
<rect width="34.0164" height="11.3388" transform="matrix(-1 0 0 1 1213.26 807.891)" fill="#A50B40"/>
<rect width="113.388" height="11.3388" transform="matrix(-1 0 0 1 1258.61 853.245)" fill="#A50B40"/>
<rect width="124.727" height="11.3388" transform="matrix(-1 0 0 1 1281.29 739.857)" fill="#A50B40"/>
<rect width="34.0164" height="11.3388" transform="matrix(-1 0 0 1 1235.94 785.213)" fill="#A50B40"/>
<rect width="79.3717" height="11.3388" transform="matrix(-1 0 0 1 1235.94 830.567)" fill="#A50B40"/>
<rect width="124.727" height="11.3388" transform="matrix(-1 0 0 1 1281.29 966.634)" fill="#A50B40"/>
<rect width="136.066" height="11.3388" transform="matrix(-1 0 0 1 1281.29 989.312)" fill="#A50B40"/>
<rect width="238.115" height="11.3388" transform="matrix(4.44962e-08 1 1 -4.44962e-08 1269.95 739.857)" fill="#A50B40"/>
<rect width="192.76" height="11.3388" transform="matrix(4.44962e-08 1 1 -4.44962e-08 1247.27 762.535)" fill="#A50B40"/>
<rect width="102.049" height="11.3388" transform="matrix(4.44962e-08 1 1 -4.44962e-08 1156.56 739.857)" fill="#A50B40"/>
<rect width="56.6941" height="11.3388" transform="matrix(4.44962e-08 1 1 -4.44962e-08 1179.24 762.535)" fill="#A50B40"/>
<rect width="56.6941" height="11.3388" transform="matrix(4.44962e-08 1 1 -4.44962e-08 1224.59 785.213)" fill="#A50B40"/>
<rect x="1258.61" y="955.295" width="79.3717" height="11.3388" transform="rotate(180 1258.61 955.295)" fill="#A50B40"/>
<rect x="1213.26" y="909.939" width="34.0164" height="11.3388" transform="rotate(180 1213.26 909.939)" fill="#A50B40"/>
<rect x="1235.94" y="932.617" width="34.0164" height="11.3388" transform="rotate(180 1235.94 932.617)" fill="#A50B40"/>
<rect x="1235.94" y="887.262" width="79.3717" height="11.3388" transform="rotate(180 1235.94 887.262)" fill="#A50B40"/>
<rect x="1179.24" y="955.295" width="56.6941" height="11.3388" transform="rotate(-90 1179.24 955.295)" fill="#A50B40"/>
<rect x="1224.59" y="932.617" width="56.6941" height="11.3388" transform="rotate(-90 1224.59 932.617)" fill="#A50B40"/>
<rect width="102.049" height="11.3388" transform="matrix(4.44962e-08 1 1 -4.44962e-08 1156.56 875.923)" fill="#A50B40"/>
<rect y="1023.33" width="1281.29" height="11.3388" fill="#A50B40"/>
<path fill-rule="evenodd" clip-rule="evenodd" d="M24.8836 1068.95H68.979V1080.43H35.9075V1114.85H102.051V1126.32H24.8836V1068.95ZM91.0267 1103.37V1046.01H2.83594L2.83594 1126.32H13.8598L13.8598 1057.48H80.0029V1091.9H46.9313V1103.37H91.0267Z" fill="#A50B40"/>
<path fill-rule="evenodd" clip-rule="evenodd" d="M123.465 1068.95H166.3V1080.43H134.174V1114.85H198.427V1126.32H123.465V1068.95ZM187.718 1103.37V1046.01H102.047V1126.32H112.756V1057.48H177.009V1091.9H144.882V1103.37H187.718Z" fill="#A50B40"/>
<path fill-rule="evenodd" clip-rule="evenodd" d="M220.477 1068.95H264.573V1080.43H231.501V1114.85H297.644V1126.32H220.477V1068.95ZM286.62 1103.37V1046.01H198.43V1126.32H209.454V1057.48H275.597V1091.9H242.525V1103.37H286.62Z" fill="#A50B40"/>
<path fill-rule="evenodd" clip-rule="evenodd" d="M319.276 1068.95H362.532V1080.43H330.09V1114.85H394.973V1126.32H319.276V1068.95ZM384.159 1103.37V1046.01H297.648V1126.32H308.462V1057.48H373.346V1091.9H340.904V1103.37H384.159Z" fill="#A50B40"/>
<path fill-rule="evenodd" clip-rule="evenodd" d="M417.016 1068.95H461.112V1080.43H428.04V1114.85H494.183V1126.32H417.016V1068.95ZM483.16 1103.37V1046.01H394.969V1126.32H405.993V1057.48H472.136V1091.9H439.064V1103.37H483.16Z" fill="#A50B40"/>
<path fill-rule="evenodd" clip-rule="evenodd" d="M515.815 1068.95H559.071V1080.43H526.629V1114.85H591.512V1126.32H515.815V1068.95ZM580.698 1103.37V1046.01H494.188V1126.32H505.001V1057.48H569.885V1091.9H537.443V1103.37H580.698Z" fill="#A50B40"/>
<path fill-rule="evenodd" clip-rule="evenodd" d="M613.346 1068.95H657.021V1080.43H624.264V1114.85H689.778V1126.32H613.346V1068.95ZM678.859 1103.37V1046.01H591.508V1126.32H602.427V1057.48H667.94V1091.9H635.183V1103.37H678.859Z" fill="#A50B40"/>
<path fill-rule="evenodd" clip-rule="evenodd" d="M711.829 1068.95H755.924V1080.43H722.853V1114.85H788.996V1126.32H711.829V1068.95ZM777.972 1103.37V1046.01H689.781V1126.32H700.805V1057.48H766.948V1091.9H733.877V1103.37H777.972Z" fill="#A50B40"/>
<path fill-rule="evenodd" clip-rule="evenodd" d="M810.62 1068.95H853.875V1080.43H821.434V1114.85H886.317V1126.32H810.62V1068.95ZM875.503 1103.37V1046.01H788.992V1126.32H799.806V1057.48H864.689V1091.9H832.248V1103.37H875.503Z" fill="#A50B40"/>
<path fill-rule="evenodd" clip-rule="evenodd" d="M907.948 1068.95H951.204V1080.43H918.762V1114.85H983.645V1126.32H907.948V1068.95ZM972.831 1103.37V1046.01H886.32V1126.32H897.134V1057.48H962.017V1091.9H929.576V1103.37H972.831Z" fill="#A50B40"/>
<path fill-rule="evenodd" clip-rule="evenodd" d="M1005.69 1068.95H1049.78V1080.43H1016.71V1114.85H1082.86V1126.32H1005.69V1068.95ZM1071.83 1103.37V1046.01H983.641V1126.32H994.664V1057.48H1060.81V1091.9H1027.74V1103.37H1071.83Z" fill="#A50B40"/>
<path fill-rule="evenodd" clip-rule="evenodd" d="M1104.91 1068.95H1149V1080.43H1115.93V1114.85H1182.07V1126.32H1104.91V1068.95ZM1171.05 1103.37V1046.01H1082.86V1126.32H1093.88V1057.48H1160.03V1091.9H1126.95V1103.37H1171.05Z" fill="#A50B40"/>
<path fill-rule="evenodd" clip-rule="evenodd" d="M1203.49 1068.95H1246.32V1080.43H1214.2V1114.85H1278.45V1126.32H1203.49V1068.95ZM1267.74 1103.37V1046.01H1182.07V1126.32H1192.78V1057.48H1257.03V1091.9H1224.91V1103.37H1267.74Z" fill="#A50B40"/>
<rect y="1137.66" width="1281.29" height="11.3388" fill="#A50B40"/>
</g>
<defs>
<filter id="filter0_i_562_2140" x="0" y="0" width="1284.62" height="1153.17" filterUnits="userSpaceOnUse" color-interpolation-filters="sRGB">
<feFlood flood-opacity="0" result="BackgroundImageFix"/>
<feBlend mode="normal" in="SourceGraphic" in2="BackgroundImageFix" result="shape"/>
<feColorMatrix in="SourceAlpha" type="matrix" values="0 0 0 0 0 0 0 0 0 0 0 0 0 0 0 0 0 0 127 0" result="hardAlpha"/>
<feOffset dx="3.33431" dy="4.16788"/>
<feGaussianBlur stdDeviation="3.33431"/>
<feComposite in2="hardAlpha" operator="arithmetic" k2="-1" k3="1"/>
<feColorMatrix type="matrix" values="0 0 0 0 0.188704 0 0 0 0 0.00588166 0 0 0 0 0.0714219 0 0 0 1 0"/>
<feBlend mode="normal" in2="shape" result="effect1_innerShadow_562_2140"/>
</filter>
</defs>
</svg>
