<svg width="25" height="25" viewBox="0 0 25 25" fill="none" xmlns="http://www.w3.org/2000/svg">
<g id="u:shopping-cart">
<path id="Vector" d="M21.5 16.625H7.5C7.23478 16.625 6.98043 16.5196 6.79289 16.3321C6.60536 16.1446 6.5 15.8902 6.5 15.625C6.5 15.3598 6.60536 15.1054 6.79289 14.9179C6.98043 14.7304 7.23478 14.625 7.5 14.625H17.94C18.6087 14.625 19.2582 14.4017 19.7854 13.9904C20.3126 13.5792 20.6873 13.0036 20.85 12.355L22.5 5.865C22.5375 5.71741 22.5407 5.56321 22.5095 5.41417C22.4783 5.26513 22.4135 5.12518 22.32 5.005C22.2227 4.88173 22.0978 4.7831 21.9554 4.71708C21.8129 4.65106 21.6569 4.61952 21.5 4.625H7.26C7.05369 4.04145 6.67193 3.536 6.16707 3.17794C5.6622 2.81988 5.05894 2.62674 4.44 2.625H3.5C3.23478 2.625 2.98043 2.73036 2.79289 2.91789C2.60536 3.10543 2.5 3.35978 2.5 3.625C2.5 3.89022 2.60536 4.14457 2.79289 4.33211C2.98043 4.51964 3.23478 4.625 3.5 4.625H4.44C4.66843 4.61834 4.89226 4.69013 5.07421 4.82841C5.25615 4.96669 5.38525 5.16312 5.44 5.385L5.5 5.865L7.23 12.625C6.43435 12.6608 5.68551 13.0112 5.14822 13.5991C4.61093 14.1871 4.3292 14.9644 4.365 15.76C4.4008 16.5556 4.75121 17.3045 5.33914 17.8418C5.92707 18.3791 6.70435 18.6608 7.5 18.625H7.68C7.51554 19.0781 7.46269 19.5642 7.52593 20.0421C7.58917 20.52 7.76665 20.9756 8.04332 21.3704C8.31999 21.7651 8.68772 22.0874 9.11535 22.3099C9.54299 22.5324 10.0179 22.6485 10.5 22.6485C10.9821 22.6485 11.457 22.5324 11.8846 22.3099C12.3123 22.0874 12.68 21.7651 12.9567 21.3704C13.2334 20.9756 13.4108 20.52 13.4741 20.0421C13.5373 19.5642 13.4845 19.0781 13.32 18.625H15.68C15.5155 19.0781 15.4627 19.5642 15.5259 20.0421C15.5892 20.52 15.7666 20.9756 16.0433 21.3704C16.32 21.7651 16.6877 22.0874 17.1154 22.3099C17.543 22.5324 18.0179 22.6485 18.5 22.6485C18.9821 22.6485 19.457 22.5324 19.8846 22.3099C20.3123 22.0874 20.68 21.7651 20.9567 21.3704C21.2334 20.9756 21.4108 20.52 21.4741 20.0421C21.5373 19.5642 21.4845 19.0781 21.32 18.625H21.5C21.7652 18.625 22.0196 18.5196 22.2071 18.3321C22.3946 18.1446 22.5 17.8902 22.5 17.625C22.5 17.3598 22.3946 17.1054 22.2071 16.9179C22.0196 16.7304 21.7652 16.625 21.5 16.625ZM20.22 6.625L18.91 11.865C18.8552 12.0869 18.7262 12.2833 18.5442 12.4216C18.3623 12.5599 18.1384 12.6317 17.91 12.625H9.28L7.78 6.625H20.22ZM10.5 20.625C10.3022 20.625 10.1089 20.5664 9.94443 20.4565C9.77998 20.3466 9.65181 20.1904 9.57612 20.0077C9.50043 19.825 9.48063 19.6239 9.51921 19.4299C9.5578 19.2359 9.65304 19.0577 9.79289 18.9179C9.93275 18.778 10.1109 18.6828 10.3049 18.6442C10.4989 18.6056 10.7 18.6254 10.8827 18.7011C11.0654 18.7768 11.2216 18.905 11.3315 19.0694C11.4414 19.2339 11.5 19.4272 11.5 19.625C11.5 19.8902 11.3946 20.1446 11.2071 20.3321C11.0196 20.5196 10.7652 20.625 10.5 20.625ZM18.5 20.625C18.3022 20.625 18.1089 20.5664 17.9444 20.4565C17.78 20.3466 17.6518 20.1904 17.5761 20.0077C17.5004 19.825 17.4806 19.6239 17.5192 19.4299C17.5578 19.2359 17.653 19.0577 17.7929 18.9179C17.9327 18.778 18.1109 18.6828 18.3049 18.6442C18.4989 18.6056 18.7 18.6254 18.8827 18.7011C19.0654 18.7768 19.2216 18.905 19.3315 19.0694C19.4414 19.2339 19.5 19.4272 19.5 19.625C19.5 19.8902 19.3946 20.1446 19.2071 20.3321C19.0196 20.5196 18.7652 20.625 18.5 20.625Z" fill="#FFFFFF"/>
</g>
</svg>
