<svg width="136" height="141" viewBox="0 0 136 141" fill="none" xmlns="http://www.w3.org/2000/svg">
<g filter="url(#filter0_dddf_556_3127)">
<path d="M79 85.5508L73.0142 89.0198C69.913 90.8171 66.087 90.8171 62.9858 89.0198L50.9858 82.0653C47.8998 80.2768 46 76.98 46 73.4132V59.4383C46 55.8715 47.8998 52.5748 50.9858 50.7863L62.9858 43.8318C66.087 42.0344 69.913 42.0345 73.0142 43.8318L85.0142 50.7863C88.1002 52.5748 90 55.8715 90 59.4383V73.4132C90 76.98 88.1002 80.2768 85.0142 82.0653L84.5 82.3633" stroke="#FA0056" stroke-width="4"/>
</g>
<g filter="url(#filter1_dddf_556_3127)">
<path d="M63 66.9258V64.0575C63 60.3766 65.5776 58.8708 68.7226 60.7113L71.1819 62.1454L73.6412 63.5794C76.7863 65.4199 76.7863 68.4317 73.6412 70.2721L71.1819 71.7062L68.7226 73.1403C65.5776 74.9807 63 73.475 63 69.7941V66.9258Z" stroke="#FA0056" stroke-width="4" shape-rendering="crispEdges"/>
</g>
<g filter="url(#filter2_f_556_3127)">
<path d="M79 85.5508L73.5157 88.7292C70.1043 90.7062 65.8957 90.7062 62.4843 88.7292L51.4843 82.3542C48.0898 80.3869 46 76.7604 46 72.837V60.0146C46 56.0911 48.0898 52.4647 51.4843 50.4974L62.4843 44.1224C65.8957 42.1453 70.1043 42.1453 73.5157 44.1224L84.5157 50.4974C87.9102 52.4647 90 56.0911 90 60.0146V72.837C90 76.7604 87.8946 80.396 84.5 82.3633V82.3633" stroke="white" stroke-width="3"/>
</g>
<g filter="url(#filter3_f_556_3127)">
<path d="M63 66.9258V64.0575C63 60.3766 65.5776 58.8708 68.7226 60.7113L71.1819 62.1454L73.6412 63.5794C76.7863 65.4199 76.7863 68.4317 73.6412 70.2721L71.1819 71.7062L68.7226 73.1403C65.5776 74.9807 63 73.475 63 69.7941V66.9258Z" stroke="white" stroke-width="3"/>
</g>
<defs>
<filter id="filter0_dddf_556_3127" x="0" y="0.483398" width="136" height="139.885" filterUnits="userSpaceOnUse" color-interpolation-filters="sRGB">
<feFlood flood-opacity="0" result="BackgroundImageFix"/>
<feColorMatrix in="SourceAlpha" type="matrix" values="0 0 0 0 0 0 0 0 0 0 0 0 0 0 0 0 0 0 127 0" result="hardAlpha"/>
<feOffset dy="4"/>
<feGaussianBlur stdDeviation="22"/>
<feComposite in2="hardAlpha" operator="out"/>
<feColorMatrix type="matrix" values="0 0 0 0 0.941176 0 0 0 0 0.188235 0 0 0 0 0.356863 0 0 0 1 0"/>
<feBlend mode="normal" in2="BackgroundImageFix" result="effect1_dropShadow_556_3127"/>
<feColorMatrix in="SourceAlpha" type="matrix" values="0 0 0 0 0 0 0 0 0 0 0 0 0 0 0 0 0 0 127 0" result="hardAlpha"/>
<feOffset dy="4"/>
<feGaussianBlur stdDeviation="22"/>
<feComposite in2="hardAlpha" operator="out"/>
<feColorMatrix type="matrix" values="0 0 0 0 0.941176 0 0 0 0 0.188235 0 0 0 0 0.356863 0 0 0 1 0"/>
<feBlend mode="normal" in2="effect1_dropShadow_556_3127" result="effect2_dropShadow_556_3127"/>
<feColorMatrix in="SourceAlpha" type="matrix" values="0 0 0 0 0 0 0 0 0 0 0 0 0 0 0 0 0 0 127 0" result="hardAlpha"/>
<feOffset dy="4"/>
<feGaussianBlur stdDeviation="22"/>
<feComposite in2="hardAlpha" operator="out"/>
<feColorMatrix type="matrix" values="0 0 0 0 0.941176 0 0 0 0 0.188235 0 0 0 0 0.356863 0 0 0 1 0"/>
<feBlend mode="normal" in2="effect2_dropShadow_556_3127" result="effect3_dropShadow_556_3127"/>
<feBlend mode="normal" in="SourceGraphic" in2="effect3_dropShadow_556_3127" result="shape"/>
<feGaussianBlur stdDeviation="2" result="effect4_foregroundBlur_556_3127"/>
</filter>
<filter id="filter1_dddf_556_3127" x="17" y="17.9238" width="105" height="106.004" filterUnits="userSpaceOnUse" color-interpolation-filters="sRGB">
<feFlood flood-opacity="0" result="BackgroundImageFix"/>
<feColorMatrix in="SourceAlpha" type="matrix" values="0 0 0 0 0 0 0 0 0 0 0 0 0 0 0 0 0 0 127 0" result="hardAlpha"/>
<feOffset dy="4"/>
<feGaussianBlur stdDeviation="22"/>
<feComposite in2="hardAlpha" operator="out"/>
<feColorMatrix type="matrix" values="0 0 0 0 0.941176 0 0 0 0 0.188235 0 0 0 0 0.356863 0 0 0 1 0"/>
<feBlend mode="normal" in2="BackgroundImageFix" result="effect1_dropShadow_556_3127"/>
<feColorMatrix in="SourceAlpha" type="matrix" values="0 0 0 0 0 0 0 0 0 0 0 0 0 0 0 0 0 0 127 0" result="hardAlpha"/>
<feOffset dy="4"/>
<feGaussianBlur stdDeviation="22"/>
<feComposite in2="hardAlpha" operator="out"/>
<feColorMatrix type="matrix" values="0 0 0 0 0.941176 0 0 0 0 0.188235 0 0 0 0 0.356863 0 0 0 1 0"/>
<feBlend mode="normal" in2="effect1_dropShadow_556_3127" result="effect2_dropShadow_556_3127"/>
<feColorMatrix in="SourceAlpha" type="matrix" values="0 0 0 0 0 0 0 0 0 0 0 0 0 0 0 0 0 0 127 0" result="hardAlpha"/>
<feOffset dy="4"/>
<feGaussianBlur stdDeviation="22"/>
<feComposite in2="hardAlpha" operator="out"/>
<feColorMatrix type="matrix" values="0 0 0 0 0.941176 0 0 0 0 0.188235 0 0 0 0 0.356863 0 0 0 1 0"/>
<feBlend mode="normal" in2="effect2_dropShadow_556_3127" result="effect3_dropShadow_556_3127"/>
<feBlend mode="normal" in="SourceGraphic" in2="effect3_dropShadow_556_3127" result="shape"/>
<feGaussianBlur stdDeviation="2" result="effect4_foregroundBlur_556_3127"/>
</filter>
<filter id="filter2_f_556_3127" x="40.5" y="37.1396" width="55" height="58.5723" filterUnits="userSpaceOnUse" color-interpolation-filters="sRGB">
<feFlood flood-opacity="0" result="BackgroundImageFix"/>
<feBlend mode="normal" in="SourceGraphic" in2="BackgroundImageFix" result="shape"/>
<feGaussianBlur stdDeviation="2" result="effect1_foregroundBlur_556_3127"/>
</filter>
<filter id="filter3_f_556_3127" x="57.5" y="54.4248" width="24" height="25.002" filterUnits="userSpaceOnUse" color-interpolation-filters="sRGB">
<feFlood flood-opacity="0" result="BackgroundImageFix"/>
<feBlend mode="normal" in="SourceGraphic" in2="BackgroundImageFix" result="shape"/>
<feGaussianBlur stdDeviation="2" result="effect1_foregroundBlur_556_3127"/>
</filter>
</defs>
</svg>
