<svg width="139" height="139" viewBox="0 0 139 139" fill="none" xmlns="http://www.w3.org/2000/svg">
<g filter="url(#filter0_ddd_620_1169)">
<path d="M56.5 53.3633C55.0413 53.3633 53.6424 52.7838 52.6109 51.7524C51.5795 50.7209 51 49.322 51 47.8633C51 46.4046 51.5795 45.0056 52.6109 43.9742C53.6424 42.9427 55.0413 42.3633 56.5 42.3633C57.9587 42.3633 59.3576 42.9427 60.3891 43.9742C61.4205 45.0056 62 46.4046 62 47.8633C62 49.322 61.4205 50.7209 60.3891 51.7524" stroke="#FA0056" stroke-width="4" stroke-linecap="round"/>
</g>
<g filter="url(#filter1_ddd_620_1169)">
<path d="M61.7143 73.8633L60.4634 86.5594C60.3626 87.583 59.5017 88.3633 58.4731 88.3633H53.5269C52.4983 88.3633 51.6374 87.583 51.5366 86.5594L50.4634 75.6672C50.3626 74.6435 49.5017 73.8633 48.4731 73.8633H48C46.8954 73.8633 46 72.9679 46 71.8633V69.5133C46 66.8213 47.0536 64.2396 48.9289 62.3361C50.8043 60.4327 53.3478 59.3633 56 59.3633C58.6522 59.3633 61.1957 60.4327 63.0711 62.3361C64.9464 64.2396 66 66.8213 66 69.5133V73.8633" stroke="#FA0056" stroke-width="4" stroke-linecap="round"/>
</g>
<g filter="url(#filter2_ddd_620_1169)">
<path d="M83.5 53.3633C82.0413 53.3633 80.6424 52.7838 79.6109 51.7524C78.5795 50.7209 78 49.322 78 47.8633C78 46.4046 78.5795 45.0056 79.6109 43.9742C80.6424 42.9427 82.0413 42.3633 83.5 42.3633C84.9587 42.3633 86.3576 42.9427 87.3891 43.9742C88.4205 45.0056 89 46.4046 89 47.8633C89 49.322 88.4205 50.7209 87.3891 51.7524" stroke="#FA0056" stroke-width="4" stroke-linecap="round"/>
</g>
<g filter="url(#filter3_ddd_620_1169)">
<path d="M88.7143 73.8633L87.4634 86.5594C87.3626 87.583 86.5017 88.3633 85.4731 88.3633H80.5269C79.4983 88.3633 78.6374 87.583 78.5366 86.5594L77.4634 75.6672C77.3626 74.6435 76.5017 73.8633 75.4731 73.8633H75C73.8954 73.8633 73 72.9679 73 71.8633V69.5133C73 66.8213 74.0536 64.2396 75.9289 62.3361C77.8043 60.4327 80.3478 59.3633 83 59.3633C85.6522 59.3633 88.1957 60.4327 90.0711 62.3361C91.9464 64.2396 93 66.8213 93 69.5133V73.8633" stroke="#FA0056" stroke-width="4" stroke-linecap="round"/>
</g>
<g opacity="0.8" filter="url(#filter4_f_620_1169)">
<path d="M56.5 53.3633C55.0413 53.3633 53.6424 52.7838 52.6109 51.7524C51.5795 50.7209 51 49.322 51 47.8633C51 46.4046 51.5795 45.0056 52.6109 43.9742C53.6424 42.9427 55.0413 42.3633 56.5 42.3633C57.9587 42.3633 59.3576 42.9427 60.3891 43.9742C61.4205 45.0056 62 46.4046 62 47.8633C62 49.322 61.4205 50.7209 60.3891 51.7524" stroke="white" stroke-width="3" stroke-linecap="round"/>
</g>
<g opacity="0.8" filter="url(#filter5_f_620_1169)">
<path d="M61.7143 73.8633L60.4634 86.5594C60.3626 87.583 59.5017 88.3633 58.4731 88.3633H53.5269C52.4983 88.3633 51.6374 87.583 51.5366 86.5594L50.4634 75.6672C50.3626 74.6435 49.5017 73.8633 48.4731 73.8633H48C46.8954 73.8633 46 72.9679 46 71.8633V69.5133C46 66.8213 47.0536 64.2396 48.9289 62.3361C50.8043 60.4327 53.3478 59.3633 56 59.3633C58.6522 59.3633 61.1957 60.4327 63.0711 62.3361C64.9464 64.2396 66 66.8213 66 69.5133V73.8633" stroke="white" stroke-width="3" stroke-linecap="round"/>
</g>
<g opacity="0.8" filter="url(#filter6_f_620_1169)">
<path d="M83.5 53.3633C82.0413 53.3633 80.6424 52.7838 79.6109 51.7524C78.5795 50.7209 78 49.322 78 47.8633C78 46.4046 78.5795 45.0056 79.6109 43.9742C80.6424 42.9427 82.0413 42.3633 83.5 42.3633C84.9587 42.3633 86.3576 42.9427 87.3891 43.9742C88.4205 45.0056 89 46.4046 89 47.8633C89 49.322 88.4205 50.7209 87.3891 51.7524" stroke="white" stroke-width="3" stroke-linecap="round"/>
</g>
<g opacity="0.8" filter="url(#filter7_f_620_1169)">
<path d="M88.7143 73.8633L87.4634 86.5594C87.3626 87.583 86.5017 88.3633 85.4731 88.3633H80.5269C79.4983 88.3633 78.6374 87.583 78.5366 86.5594L77.4634 75.6672C77.3626 74.6435 76.5017 73.8633 75.4731 73.8633H75C73.8954 73.8633 73 72.9679 73 71.8633V69.5133C73 66.8213 74.0536 64.2396 75.9289 62.3361C77.8043 60.4327 80.3478 59.3633 83 59.3633C85.6522 59.3633 88.1957 60.4327 90.0711 62.3361C91.9464 64.2396 93 66.8213 93 69.5133V73.8633" stroke="white" stroke-width="3" stroke-linecap="round"/>
</g>
<defs>
<filter id="filter0_ddd_620_1169" x="5" y="0.363281" width="103" height="103" filterUnits="userSpaceOnUse" color-interpolation-filters="sRGB">
<feFlood flood-opacity="0" result="BackgroundImageFix"/>
<feColorMatrix in="SourceAlpha" type="matrix" values="0 0 0 0 0 0 0 0 0 0 0 0 0 0 0 0 0 0 127 0" result="hardAlpha"/>
<feOffset dy="4"/>
<feGaussianBlur stdDeviation="22"/>
<feComposite in2="hardAlpha" operator="out"/>
<feColorMatrix type="matrix" values="0 0 0 0 0.941176 0 0 0 0 0.188235 0 0 0 0 0.356863 0 0 0 1 0"/>
<feBlend mode="normal" in2="BackgroundImageFix" result="effect1_dropShadow_620_1169"/>
<feColorMatrix in="SourceAlpha" type="matrix" values="0 0 0 0 0 0 0 0 0 0 0 0 0 0 0 0 0 0 127 0" result="hardAlpha"/>
<feOffset dy="4"/>
<feGaussianBlur stdDeviation="22"/>
<feComposite in2="hardAlpha" operator="out"/>
<feColorMatrix type="matrix" values="0 0 0 0 0.941176 0 0 0 0 0.188235 0 0 0 0 0.356863 0 0 0 1 0"/>
<feBlend mode="normal" in2="effect1_dropShadow_620_1169" result="effect2_dropShadow_620_1169"/>
<feColorMatrix in="SourceAlpha" type="matrix" values="0 0 0 0 0 0 0 0 0 0 0 0 0 0 0 0 0 0 127 0" result="hardAlpha"/>
<feOffset dy="4"/>
<feGaussianBlur stdDeviation="22"/>
<feComposite in2="hardAlpha" operator="out"/>
<feColorMatrix type="matrix" values="0 0 0 0 0.941176 0 0 0 0 0.188235 0 0 0 0 0.356863 0 0 0 1 0"/>
<feBlend mode="normal" in2="effect2_dropShadow_620_1169" result="effect3_dropShadow_620_1169"/>
<feBlend mode="normal" in="SourceGraphic" in2="effect3_dropShadow_620_1169" result="shape"/>
</filter>
<filter id="filter1_ddd_620_1169" x="0" y="17.3633" width="112" height="121" filterUnits="userSpaceOnUse" color-interpolation-filters="sRGB">
<feFlood flood-opacity="0" result="BackgroundImageFix"/>
<feColorMatrix in="SourceAlpha" type="matrix" values="0 0 0 0 0 0 0 0 0 0 0 0 0 0 0 0 0 0 127 0" result="hardAlpha"/>
<feOffset dy="4"/>
<feGaussianBlur stdDeviation="22"/>
<feComposite in2="hardAlpha" operator="out"/>
<feColorMatrix type="matrix" values="0 0 0 0 0.941176 0 0 0 0 0.188235 0 0 0 0 0.356863 0 0 0 1 0"/>
<feBlend mode="normal" in2="BackgroundImageFix" result="effect1_dropShadow_620_1169"/>
<feColorMatrix in="SourceAlpha" type="matrix" values="0 0 0 0 0 0 0 0 0 0 0 0 0 0 0 0 0 0 127 0" result="hardAlpha"/>
<feOffset dy="4"/>
<feGaussianBlur stdDeviation="22"/>
<feComposite in2="hardAlpha" operator="out"/>
<feColorMatrix type="matrix" values="0 0 0 0 0.941176 0 0 0 0 0.188235 0 0 0 0 0.356863 0 0 0 1 0"/>
<feBlend mode="normal" in2="effect1_dropShadow_620_1169" result="effect2_dropShadow_620_1169"/>
<feColorMatrix in="SourceAlpha" type="matrix" values="0 0 0 0 0 0 0 0 0 0 0 0 0 0 0 0 0 0 127 0" result="hardAlpha"/>
<feOffset dy="4"/>
<feGaussianBlur stdDeviation="22"/>
<feComposite in2="hardAlpha" operator="out"/>
<feColorMatrix type="matrix" values="0 0 0 0 0.941176 0 0 0 0 0.188235 0 0 0 0 0.356863 0 0 0 1 0"/>
<feBlend mode="normal" in2="effect2_dropShadow_620_1169" result="effect3_dropShadow_620_1169"/>
<feBlend mode="normal" in="SourceGraphic" in2="effect3_dropShadow_620_1169" result="shape"/>
</filter>
<filter id="filter2_ddd_620_1169" x="32" y="0.363281" width="103" height="103" filterUnits="userSpaceOnUse" color-interpolation-filters="sRGB">
<feFlood flood-opacity="0" result="BackgroundImageFix"/>
<feColorMatrix in="SourceAlpha" type="matrix" values="0 0 0 0 0 0 0 0 0 0 0 0 0 0 0 0 0 0 127 0" result="hardAlpha"/>
<feOffset dy="4"/>
<feGaussianBlur stdDeviation="22"/>
<feComposite in2="hardAlpha" operator="out"/>
<feColorMatrix type="matrix" values="0 0 0 0 0.941176 0 0 0 0 0.188235 0 0 0 0 0.356863 0 0 0 1 0"/>
<feBlend mode="normal" in2="BackgroundImageFix" result="effect1_dropShadow_620_1169"/>
<feColorMatrix in="SourceAlpha" type="matrix" values="0 0 0 0 0 0 0 0 0 0 0 0 0 0 0 0 0 0 127 0" result="hardAlpha"/>
<feOffset dy="4"/>
<feGaussianBlur stdDeviation="22"/>
<feComposite in2="hardAlpha" operator="out"/>
<feColorMatrix type="matrix" values="0 0 0 0 0.941176 0 0 0 0 0.188235 0 0 0 0 0.356863 0 0 0 1 0"/>
<feBlend mode="normal" in2="effect1_dropShadow_620_1169" result="effect2_dropShadow_620_1169"/>
<feColorMatrix in="SourceAlpha" type="matrix" values="0 0 0 0 0 0 0 0 0 0 0 0 0 0 0 0 0 0 127 0" result="hardAlpha"/>
<feOffset dy="4"/>
<feGaussianBlur stdDeviation="22"/>
<feComposite in2="hardAlpha" operator="out"/>
<feColorMatrix type="matrix" values="0 0 0 0 0.941176 0 0 0 0 0.188235 0 0 0 0 0.356863 0 0 0 1 0"/>
<feBlend mode="normal" in2="effect2_dropShadow_620_1169" result="effect3_dropShadow_620_1169"/>
<feBlend mode="normal" in="SourceGraphic" in2="effect3_dropShadow_620_1169" result="shape"/>
</filter>
<filter id="filter3_ddd_620_1169" x="27" y="17.3633" width="112" height="121" filterUnits="userSpaceOnUse" color-interpolation-filters="sRGB">
<feFlood flood-opacity="0" result="BackgroundImageFix"/>
<feColorMatrix in="SourceAlpha" type="matrix" values="0 0 0 0 0 0 0 0 0 0 0 0 0 0 0 0 0 0 127 0" result="hardAlpha"/>
<feOffset dy="4"/>
<feGaussianBlur stdDeviation="22"/>
<feComposite in2="hardAlpha" operator="out"/>
<feColorMatrix type="matrix" values="0 0 0 0 0.941176 0 0 0 0 0.188235 0 0 0 0 0.356863 0 0 0 1 0"/>
<feBlend mode="normal" in2="BackgroundImageFix" result="effect1_dropShadow_620_1169"/>
<feColorMatrix in="SourceAlpha" type="matrix" values="0 0 0 0 0 0 0 0 0 0 0 0 0 0 0 0 0 0 127 0" result="hardAlpha"/>
<feOffset dy="4"/>
<feGaussianBlur stdDeviation="22"/>
<feComposite in2="hardAlpha" operator="out"/>
<feColorMatrix type="matrix" values="0 0 0 0 0.941176 0 0 0 0 0.188235 0 0 0 0 0.356863 0 0 0 1 0"/>
<feBlend mode="normal" in2="effect1_dropShadow_620_1169" result="effect2_dropShadow_620_1169"/>
<feColorMatrix in="SourceAlpha" type="matrix" values="0 0 0 0 0 0 0 0 0 0 0 0 0 0 0 0 0 0 127 0" result="hardAlpha"/>
<feOffset dy="4"/>
<feGaussianBlur stdDeviation="22"/>
<feComposite in2="hardAlpha" operator="out"/>
<feColorMatrix type="matrix" values="0 0 0 0 0.941176 0 0 0 0 0.188235 0 0 0 0 0.356863 0 0 0 1 0"/>
<feBlend mode="normal" in2="effect2_dropShadow_620_1169" result="effect3_dropShadow_620_1169"/>
<feBlend mode="normal" in="SourceGraphic" in2="effect3_dropShadow_620_1169" result="shape"/>
</filter>
<filter id="filter4_f_620_1169" x="48.5" y="39.8633" width="16" height="16" filterUnits="userSpaceOnUse" color-interpolation-filters="sRGB">
<feFlood flood-opacity="0" result="BackgroundImageFix"/>
<feBlend mode="normal" in="SourceGraphic" in2="BackgroundImageFix" result="shape"/>
<feGaussianBlur stdDeviation="0.5" result="effect1_foregroundBlur_620_1169"/>
</filter>
<filter id="filter5_f_620_1169" x="43.5" y="56.8633" width="25" height="34" filterUnits="userSpaceOnUse" color-interpolation-filters="sRGB">
<feFlood flood-opacity="0" result="BackgroundImageFix"/>
<feBlend mode="normal" in="SourceGraphic" in2="BackgroundImageFix" result="shape"/>
<feGaussianBlur stdDeviation="0.5" result="effect1_foregroundBlur_620_1169"/>
</filter>
<filter id="filter6_f_620_1169" x="75.5" y="39.8633" width="16" height="16" filterUnits="userSpaceOnUse" color-interpolation-filters="sRGB">
<feFlood flood-opacity="0" result="BackgroundImageFix"/>
<feBlend mode="normal" in="SourceGraphic" in2="BackgroundImageFix" result="shape"/>
<feGaussianBlur stdDeviation="0.5" result="effect1_foregroundBlur_620_1169"/>
</filter>
<filter id="filter7_f_620_1169" x="70.5" y="56.8633" width="25" height="34" filterUnits="userSpaceOnUse" color-interpolation-filters="sRGB">
<feFlood flood-opacity="0" result="BackgroundImageFix"/>
<feBlend mode="normal" in="SourceGraphic" in2="BackgroundImageFix" result="shape"/>
<feGaussianBlur stdDeviation="0.5" result="effect1_foregroundBlur_620_1169"/>
</filter>
</defs>
</svg>
