<svg width="138" height="140" viewBox="0 0 138 140" fill="none" xmlns="http://www.w3.org/2000/svg">
<g filter="url(#filter0_dddf_556_1977)">
<path d="M64.4583 69.0493C64.3813 67.5264 64.3458 65.941 64.3458 64.2806V62.7181C64.3458 62.1656 64.1263 61.6357 63.7356 61.245C63.3449 60.8543 62.815 60.6348 62.2625 60.6348H52.8958C52.3433 60.6348 51.8134 60.8543 51.4227 61.245C51.032 61.6357 50.8125 62.1656 50.8125 62.7181V64.2806C50.8125 73.3626 49.7759 80.2374 46.4576 86.5965C45.7198 88.0104 46.692 89.8014 48.2868 89.8014H53.4167" stroke="#FA0056" stroke-width="4"/>
</g>
<g filter="url(#filter1_dddf_556_1977)">
<path d="M83.5 89.8008H89.4375C90.5421 89.8008 91.4375 88.9053 91.4375 87.8008V77.8216C91.4375 77.2691 91.218 76.7392 90.8273 76.3485C90.4366 75.9578 89.9067 75.7383 89.3542 75.7383H62.2708C61.7183 75.7383 61.1884 75.9578 60.7977 76.3485C60.407 76.7392 60.1875 77.2691 60.1875 77.8216V87.8008C60.1875 88.9054 61.0829 89.8008 62.1875 89.8008H76" stroke="#FA0056" stroke-width="4"/>
</g>
<g filter="url(#filter2_dddf_556_1977)">
<path d="M85.1901 67.4043H76.8568C76.3042 67.4043 75.7743 67.6238 75.3836 68.0145C74.9929 68.4052 74.7734 68.9351 74.7734 69.4876V73.7376C74.7734 74.8422 75.6689 75.7376 76.7734 75.7376H85.2734C86.378 75.7376 87.2734 74.8422 87.2734 73.7376V69.4876C87.2734 68.9351 87.0539 68.4052 86.6632 68.0145C86.2725 67.6238 85.7426 67.4043 85.1901 67.4043Z" stroke="#FA0056" stroke-width="4" shape-rendering="crispEdges"/>
</g>
<g filter="url(#filter3_dddf_556_1977)">
<path d="M67.9967 42.9258C67.0147 42.9276 66.0583 43.2391 65.2635 43.8158C65.2261 43.8429 65.1893 43.8705 65.1528 43.8986C64.0701 44.7342 62.3802 45.2798 61.0287 45.0703C60.58 45.0007 60.1215 44.9845 59.6625 45.0243C58.2675 45.1453 56.9658 45.7754 56.0055 46.7944C55.0452 47.8134 54.4934 49.1501 54.4552 50.5498C54.4171 51.9495 54.8954 53.3143 55.7988 54.3841" stroke="#FA0056" stroke-width="4" shape-rendering="crispEdges"/>
</g>
<g filter="url(#filter4_dddf_556_1977)">
<path d="M64.5938 54.3841C64.7074 54.2466 64.8143 54.1042 64.9142 53.9574C65.5827 52.975 66.9508 52.3263 68.1388 52.3005V52.3005C68.9479 52.2829 69.7384 52.0545 70.4322 51.638C71.126 51.2214 71.6992 50.6311 72.0951 49.9252C72.491 49.2194 72.6959 48.4225 72.6896 47.6133" stroke="#FA0056" stroke-width="4" shape-rendering="crispEdges"/>
</g>
<g filter="url(#filter5_f_556_1977)">
<path d="M64.4583 69.0493C64.3813 67.5264 64.3458 65.941 64.3458 64.2806V62.7181C64.3458 62.1656 64.1263 61.6357 63.7356 61.245C63.3449 60.8543 62.815 60.6348 62.2625 60.6348H52.8958C52.3433 60.6348 51.8134 60.8543 51.4227 61.245C51.032 61.6357 50.8125 62.1656 50.8125 62.7181V64.2806C50.8125 73.3626 49.7759 80.2374 46.4576 86.5965C45.7198 88.0104 46.692 89.8014 48.2868 89.8014H53.4167" stroke="white" stroke-width="3"/>
</g>
<g filter="url(#filter6_f_556_1977)">
<path d="M75.8125 89.8008H62.1875C61.0829 89.8008 60.1875 88.9054 60.1875 87.8008V77.8216C60.1875 77.2691 60.407 76.7392 60.7977 76.3485C61.1884 75.9578 61.7183 75.7383 62.2708 75.7383H89.3542C89.9067 75.7383 90.4366 75.9578 90.8273 76.3485C91.218 76.7392 91.4375 77.2691 91.4375 77.8216V87.8008C91.4375 88.9053 90.5421 89.8008 89.4375 89.8008H83.625" stroke="white" stroke-width="3"/>
</g>
<g filter="url(#filter7_f_556_1977)">
<path d="M87.2734 75.7376V69.4876C87.2734 68.9351 87.0539 68.4052 86.6632 68.0145C86.2725 67.6238 85.7426 67.4043 85.1901 67.4043H76.8568C76.3042 67.4043 75.7743 67.6238 75.3836 68.0145C74.9929 68.4052 74.7734 68.9351 74.7734 69.4876V75.7376" stroke="white" stroke-width="3"/>
</g>
<g filter="url(#filter8_f_556_1977)">
<path d="M67.9967 42.9258C67.0147 42.9276 66.0583 43.2391 65.2635 43.8158C65.2261 43.8429 65.1893 43.8705 65.1528 43.8986C64.0701 44.7342 62.3802 45.2798 61.0287 45.0703C60.58 45.0007 60.1215 44.9845 59.6625 45.0243C58.2675 45.1453 56.9658 45.7754 56.0055 46.7944C55.0452 47.8134 54.4934 49.1501 54.4552 50.5498C54.4171 51.9495 54.8954 53.3143 55.7988 54.3841" stroke="white" stroke-width="3"/>
</g>
<g filter="url(#filter9_f_556_1977)">
<path d="M64.5938 54.3841C64.7074 54.2466 64.8143 54.1042 64.9142 53.9574C65.5827 52.975 66.9508 52.3263 68.1388 52.3005V52.3005C68.9479 52.2829 69.7384 52.0545 70.4322 51.638C71.126 51.2214 71.6992 50.6311 72.0951 49.9252C72.491 49.2194 72.6959 48.4225 72.6896 47.6133" stroke="white" stroke-width="3"/>
</g>
<defs>
<filter id="filter0_dddf_556_1977" x="0.21875" y="18.6348" width="110.234" height="121.167" filterUnits="userSpaceOnUse" color-interpolation-filters="sRGB">
<feFlood flood-opacity="0" result="BackgroundImageFix"/>
<feColorMatrix in="SourceAlpha" type="matrix" values="0 0 0 0 0 0 0 0 0 0 0 0 0 0 0 0 0 0 127 0" result="hardAlpha"/>
<feOffset dy="4"/>
<feGaussianBlur stdDeviation="22"/>
<feComposite in2="hardAlpha" operator="out"/>
<feColorMatrix type="matrix" values="0 0 0 0 0.941176 0 0 0 0 0.188235 0 0 0 0 0.356863 0 0 0 1 0"/>
<feBlend mode="normal" in2="BackgroundImageFix" result="effect1_dropShadow_556_1977"/>
<feColorMatrix in="SourceAlpha" type="matrix" values="0 0 0 0 0 0 0 0 0 0 0 0 0 0 0 0 0 0 127 0" result="hardAlpha"/>
<feOffset dy="4"/>
<feGaussianBlur stdDeviation="22"/>
<feComposite in2="hardAlpha" operator="out"/>
<feColorMatrix type="matrix" values="0 0 0 0 0.941176 0 0 0 0 0.188235 0 0 0 0 0.356863 0 0 0 1 0"/>
<feBlend mode="normal" in2="effect1_dropShadow_556_1977" result="effect2_dropShadow_556_1977"/>
<feColorMatrix in="SourceAlpha" type="matrix" values="0 0 0 0 0 0 0 0 0 0 0 0 0 0 0 0 0 0 127 0" result="hardAlpha"/>
<feOffset dy="4"/>
<feGaussianBlur stdDeviation="22"/>
<feComposite in2="hardAlpha" operator="out"/>
<feColorMatrix type="matrix" values="0 0 0 0 0.941176 0 0 0 0 0.188235 0 0 0 0 0.356863 0 0 0 1 0"/>
<feBlend mode="normal" in2="effect2_dropShadow_556_1977" result="effect3_dropShadow_556_1977"/>
<feBlend mode="normal" in="SourceGraphic" in2="effect3_dropShadow_556_1977" result="shape"/>
<feGaussianBlur stdDeviation="2" result="effect4_foregroundBlur_556_1977"/>
</filter>
<filter id="filter1_dddf_556_1977" x="14.1875" y="33.7383" width="123.25" height="106.062" filterUnits="userSpaceOnUse" color-interpolation-filters="sRGB">
<feFlood flood-opacity="0" result="BackgroundImageFix"/>
<feColorMatrix in="SourceAlpha" type="matrix" values="0 0 0 0 0 0 0 0 0 0 0 0 0 0 0 0 0 0 127 0" result="hardAlpha"/>
<feOffset dy="4"/>
<feGaussianBlur stdDeviation="22"/>
<feComposite in2="hardAlpha" operator="out"/>
<feColorMatrix type="matrix" values="0 0 0 0 0.941176 0 0 0 0 0.188235 0 0 0 0 0.356863 0 0 0 1 0"/>
<feBlend mode="normal" in2="BackgroundImageFix" result="effect1_dropShadow_556_1977"/>
<feColorMatrix in="SourceAlpha" type="matrix" values="0 0 0 0 0 0 0 0 0 0 0 0 0 0 0 0 0 0 127 0" result="hardAlpha"/>
<feOffset dy="4"/>
<feGaussianBlur stdDeviation="22"/>
<feComposite in2="hardAlpha" operator="out"/>
<feColorMatrix type="matrix" values="0 0 0 0 0.941176 0 0 0 0 0.188235 0 0 0 0 0.356863 0 0 0 1 0"/>
<feBlend mode="normal" in2="effect1_dropShadow_556_1977" result="effect2_dropShadow_556_1977"/>
<feColorMatrix in="SourceAlpha" type="matrix" values="0 0 0 0 0 0 0 0 0 0 0 0 0 0 0 0 0 0 127 0" result="hardAlpha"/>
<feOffset dy="4"/>
<feGaussianBlur stdDeviation="22"/>
<feComposite in2="hardAlpha" operator="out"/>
<feColorMatrix type="matrix" values="0 0 0 0 0.941176 0 0 0 0 0.188235 0 0 0 0 0.356863 0 0 0 1 0"/>
<feBlend mode="normal" in2="effect2_dropShadow_556_1977" result="effect3_dropShadow_556_1977"/>
<feBlend mode="normal" in="SourceGraphic" in2="effect3_dropShadow_556_1977" result="shape"/>
<feGaussianBlur stdDeviation="2" result="effect4_foregroundBlur_556_1977"/>
</filter>
<filter id="filter2_dddf_556_1977" x="28.7734" y="25.4043" width="104.5" height="100.333" filterUnits="userSpaceOnUse" color-interpolation-filters="sRGB">
<feFlood flood-opacity="0" result="BackgroundImageFix"/>
<feColorMatrix in="SourceAlpha" type="matrix" values="0 0 0 0 0 0 0 0 0 0 0 0 0 0 0 0 0 0 127 0" result="hardAlpha"/>
<feOffset dy="4"/>
<feGaussianBlur stdDeviation="22"/>
<feComposite in2="hardAlpha" operator="out"/>
<feColorMatrix type="matrix" values="0 0 0 0 0.941176 0 0 0 0 0.188235 0 0 0 0 0.356863 0 0 0 1 0"/>
<feBlend mode="normal" in2="BackgroundImageFix" result="effect1_dropShadow_556_1977"/>
<feColorMatrix in="SourceAlpha" type="matrix" values="0 0 0 0 0 0 0 0 0 0 0 0 0 0 0 0 0 0 127 0" result="hardAlpha"/>
<feOffset dy="4"/>
<feGaussianBlur stdDeviation="22"/>
<feComposite in2="hardAlpha" operator="out"/>
<feColorMatrix type="matrix" values="0 0 0 0 0.941176 0 0 0 0 0.188235 0 0 0 0 0.356863 0 0 0 1 0"/>
<feBlend mode="normal" in2="effect1_dropShadow_556_1977" result="effect2_dropShadow_556_1977"/>
<feColorMatrix in="SourceAlpha" type="matrix" values="0 0 0 0 0 0 0 0 0 0 0 0 0 0 0 0 0 0 127 0" result="hardAlpha"/>
<feOffset dy="4"/>
<feGaussianBlur stdDeviation="22"/>
<feComposite in2="hardAlpha" operator="out"/>
<feColorMatrix type="matrix" values="0 0 0 0 0.941176 0 0 0 0 0.188235 0 0 0 0 0.356863 0 0 0 1 0"/>
<feBlend mode="normal" in2="effect2_dropShadow_556_1977" result="effect3_dropShadow_556_1977"/>
<feBlend mode="normal" in="SourceGraphic" in2="effect3_dropShadow_556_1977" result="shape"/>
<feGaussianBlur stdDeviation="2" result="effect4_foregroundBlur_556_1977"/>
</filter>
<filter id="filter3_dddf_556_1977" x="8.45312" y="0.925781" width="103.547" height="102.749" filterUnits="userSpaceOnUse" color-interpolation-filters="sRGB">
<feFlood flood-opacity="0" result="BackgroundImageFix"/>
<feColorMatrix in="SourceAlpha" type="matrix" values="0 0 0 0 0 0 0 0 0 0 0 0 0 0 0 0 0 0 127 0" result="hardAlpha"/>
<feOffset dy="4"/>
<feGaussianBlur stdDeviation="22"/>
<feComposite in2="hardAlpha" operator="out"/>
<feColorMatrix type="matrix" values="0 0 0 0 0.941176 0 0 0 0 0.188235 0 0 0 0 0.356863 0 0 0 1 0"/>
<feBlend mode="normal" in2="BackgroundImageFix" result="effect1_dropShadow_556_1977"/>
<feColorMatrix in="SourceAlpha" type="matrix" values="0 0 0 0 0 0 0 0 0 0 0 0 0 0 0 0 0 0 127 0" result="hardAlpha"/>
<feOffset dy="4"/>
<feGaussianBlur stdDeviation="22"/>
<feComposite in2="hardAlpha" operator="out"/>
<feColorMatrix type="matrix" values="0 0 0 0 0.941176 0 0 0 0 0.188235 0 0 0 0 0.356863 0 0 0 1 0"/>
<feBlend mode="normal" in2="effect1_dropShadow_556_1977" result="effect2_dropShadow_556_1977"/>
<feColorMatrix in="SourceAlpha" type="matrix" values="0 0 0 0 0 0 0 0 0 0 0 0 0 0 0 0 0 0 127 0" result="hardAlpha"/>
<feOffset dy="4"/>
<feGaussianBlur stdDeviation="22"/>
<feComposite in2="hardAlpha" operator="out"/>
<feColorMatrix type="matrix" values="0 0 0 0 0.941176 0 0 0 0 0.188235 0 0 0 0 0.356863 0 0 0 1 0"/>
<feBlend mode="normal" in2="effect2_dropShadow_556_1977" result="effect3_dropShadow_556_1977"/>
<feBlend mode="normal" in="SourceGraphic" in2="effect3_dropShadow_556_1977" result="shape"/>
<feGaussianBlur stdDeviation="2" result="effect4_foregroundBlur_556_1977"/>
</filter>
<filter id="filter4_dddf_556_1977" x="19.0547" y="7.59766" width="99.6328" height="96.0605" filterUnits="userSpaceOnUse" color-interpolation-filters="sRGB">
<feFlood flood-opacity="0" result="BackgroundImageFix"/>
<feColorMatrix in="SourceAlpha" type="matrix" values="0 0 0 0 0 0 0 0 0 0 0 0 0 0 0 0 0 0 127 0" result="hardAlpha"/>
<feOffset dy="4"/>
<feGaussianBlur stdDeviation="22"/>
<feComposite in2="hardAlpha" operator="out"/>
<feColorMatrix type="matrix" values="0 0 0 0 0.941176 0 0 0 0 0.188235 0 0 0 0 0.356863 0 0 0 1 0"/>
<feBlend mode="normal" in2="BackgroundImageFix" result="effect1_dropShadow_556_1977"/>
<feColorMatrix in="SourceAlpha" type="matrix" values="0 0 0 0 0 0 0 0 0 0 0 0 0 0 0 0 0 0 127 0" result="hardAlpha"/>
<feOffset dy="4"/>
<feGaussianBlur stdDeviation="22"/>
<feComposite in2="hardAlpha" operator="out"/>
<feColorMatrix type="matrix" values="0 0 0 0 0.941176 0 0 0 0 0.188235 0 0 0 0 0.356863 0 0 0 1 0"/>
<feBlend mode="normal" in2="effect1_dropShadow_556_1977" result="effect2_dropShadow_556_1977"/>
<feColorMatrix in="SourceAlpha" type="matrix" values="0 0 0 0 0 0 0 0 0 0 0 0 0 0 0 0 0 0 127 0" result="hardAlpha"/>
<feOffset dy="4"/>
<feGaussianBlur stdDeviation="22"/>
<feComposite in2="hardAlpha" operator="out"/>
<feColorMatrix type="matrix" values="0 0 0 0 0.941176 0 0 0 0 0.188235 0 0 0 0 0.356863 0 0 0 1 0"/>
<feBlend mode="normal" in2="effect2_dropShadow_556_1977" result="effect3_dropShadow_556_1977"/>
<feBlend mode="normal" in="SourceGraphic" in2="effect3_dropShadow_556_1977" result="shape"/>
<feGaussianBlur stdDeviation="2" result="effect4_foregroundBlur_556_1977"/>
</filter>
<filter id="filter5_f_556_1977" x="40.7109" y="55.1348" width="29.2422" height="40.167" filterUnits="userSpaceOnUse" color-interpolation-filters="sRGB">
<feFlood flood-opacity="0" result="BackgroundImageFix"/>
<feBlend mode="normal" in="SourceGraphic" in2="BackgroundImageFix" result="shape"/>
<feGaussianBlur stdDeviation="2" result="effect1_foregroundBlur_556_1977"/>
</filter>
<filter id="filter6_f_556_1977" x="54.6875" y="70.2383" width="42.25" height="25.0625" filterUnits="userSpaceOnUse" color-interpolation-filters="sRGB">
<feFlood flood-opacity="0" result="BackgroundImageFix"/>
<feBlend mode="normal" in="SourceGraphic" in2="BackgroundImageFix" result="shape"/>
<feGaussianBlur stdDeviation="2" result="effect1_foregroundBlur_556_1977"/>
</filter>
<filter id="filter7_f_556_1977" x="69.2734" y="61.9043" width="23.5" height="17.833" filterUnits="userSpaceOnUse" color-interpolation-filters="sRGB">
<feFlood flood-opacity="0" result="BackgroundImageFix"/>
<feBlend mode="normal" in="SourceGraphic" in2="BackgroundImageFix" result="shape"/>
<feGaussianBlur stdDeviation="2" result="effect1_foregroundBlur_556_1977"/>
</filter>
<filter id="filter8_f_556_1977" x="48.9531" y="37.4258" width="23.0469" height="21.9258" filterUnits="userSpaceOnUse" color-interpolation-filters="sRGB">
<feFlood flood-opacity="0" result="BackgroundImageFix"/>
<feBlend mode="normal" in="SourceGraphic" in2="BackgroundImageFix" result="shape"/>
<feGaussianBlur stdDeviation="2" result="effect1_foregroundBlur_556_1977"/>
</filter>
<filter id="filter9_f_556_1977" x="59.4375" y="43.6016" width="18.75" height="15.7383" filterUnits="userSpaceOnUse" color-interpolation-filters="sRGB">
<feFlood flood-opacity="0" result="BackgroundImageFix"/>
<feBlend mode="normal" in="SourceGraphic" in2="BackgroundImageFix" result="shape"/>
<feGaussianBlur stdDeviation="2" result="effect1_foregroundBlur_556_1977"/>
</filter>
</defs>
</svg>
