<svg width="138" height="140" viewBox="0 0 138 140" fill="none" xmlns="http://www.w3.org/2000/svg">
<g filter="url(#filter0_ddd_620_601)">
<path d="M64.4583 69.0493C64.3813 67.5264 64.3458 65.941 64.3458 64.2806V62.7181C64.3458 62.1656 64.1263 61.6357 63.7356 61.245C63.3449 60.8543 62.815 60.6348 62.2625 60.6348H52.8958C52.3433 60.6348 51.8134 60.8543 51.4227 61.245C51.032 61.6357 50.8125 62.1656 50.8125 62.7181V64.2806C50.8125 73.3626 49.7759 80.2374 46.4576 86.5965C45.7198 88.0104 46.692 89.8014 48.2868 89.8014H53.4167" stroke="#FA0056" stroke-width="4" stroke-linecap="round"/>
</g>
<g filter="url(#filter1_ddd_620_601)">
<path d="M83.5 89.8013H89.4375C90.5421 89.8013 91.4375 88.9058 91.4375 87.8013V77.8221C91.4375 77.2696 91.218 76.7397 90.8273 76.349C90.4366 75.9583 89.9067 75.7388 89.3542 75.7388H62.2708C61.7183 75.7388 61.1884 75.9583 60.7977 76.349C60.407 76.7397 60.1875 77.2696 60.1875 77.8221V87.8013C60.1875 88.9058 61.0829 89.8013 62.1875 89.8013H76" stroke="#FA0056" stroke-width="4" stroke-linecap="round"/>
</g>
<g filter="url(#filter2_ddd_620_601)">
<path d="M85.1877 67.4053H76.8543C76.3018 67.4053 75.7719 67.6248 75.3812 68.0155C74.9905 68.4062 74.771 68.9361 74.771 69.4886V73.7386C74.771 74.8432 75.6664 75.7386 76.771 75.7386H85.271C86.3756 75.7386 87.271 74.8432 87.271 73.7386V69.4886C87.271 68.9361 87.0515 68.4062 86.6608 68.0155C86.2701 67.6248 85.7402 67.4053 85.1877 67.4053Z" stroke="#FA0056" stroke-width="4" stroke-linecap="round" shape-rendering="crispEdges"/>
</g>
<g filter="url(#filter3_ddd_620_601)">
<path d="M68.0001 42.9263C67.0181 42.9281 66.0617 43.2396 65.2669 43.8163C65.2296 43.8434 65.1927 43.871 65.1563 43.8991C64.0736 44.7347 62.3836 45.2803 61.0321 45.0708C60.5835 45.0012 60.1249 44.985 59.6659 45.0248C58.2709 45.1458 56.9692 45.7758 56.0089 46.7949C55.0486 47.8139 54.4968 49.1506 54.4587 50.5503C54.4205 51.95 54.8988 53.3148 55.8022 54.3846" stroke="#FA0056" stroke-width="4" stroke-linecap="round" shape-rendering="crispEdges"/>
</g>
<g filter="url(#filter4_ddd_620_601)">
<path d="M64.5918 54.3846C64.7055 54.2471 64.8123 54.1046 64.9122 53.9579C65.5807 52.9755 66.9488 52.3268 68.1368 52.3009V52.3009C68.9459 52.2833 69.7364 52.055 70.4302 51.6384C71.1241 51.2219 71.6972 50.6316 72.0931 49.9257C72.489 49.2199 72.6939 48.423 72.6876 47.6138" stroke="#FA0056" stroke-width="4" stroke-linecap="round" shape-rendering="crispEdges"/>
</g>
<g opacity="0.8" filter="url(#filter5_f_620_601)">
<path d="M64.4583 69.0493C64.3813 67.5264 64.3458 65.941 64.3458 64.2806V62.7181C64.3458 62.1656 64.1263 61.6357 63.7356 61.245C63.3449 60.8543 62.815 60.6348 62.2625 60.6348H52.8958C52.3433 60.6348 51.8134 60.8543 51.4227 61.245C51.032 61.6357 50.8125 62.1656 50.8125 62.7181V64.2806C50.8125 73.3626 49.7759 80.2374 46.4576 86.5965C45.7198 88.0104 46.692 89.8014 48.2868 89.8014H53.4167" stroke="white" stroke-width="3" stroke-linecap="round"/>
</g>
<g opacity="0.8" filter="url(#filter6_f_620_601)">
<path d="M75.8125 89.8013H62.1875C61.0829 89.8013 60.1875 88.9058 60.1875 87.8013V77.8221C60.1875 77.2696 60.407 76.7397 60.7977 76.349C61.1884 75.9583 61.7183 75.7388 62.2708 75.7388H89.3542C89.9067 75.7388 90.4366 75.9583 90.8273 76.349C91.218 76.7397 91.4375 77.2696 91.4375 77.8221V87.8013C91.4375 88.9058 90.5421 89.8013 89.4375 89.8013H83.625" stroke="white" stroke-width="3" stroke-linecap="round"/>
</g>
<g opacity="0.8" filter="url(#filter7_f_620_601)">
<path d="M87.271 74.7386V69.4886C87.271 68.9361 87.0515 68.4062 86.6608 68.0155C86.2701 67.6248 85.7402 67.4053 85.1877 67.4053H76.8543C76.3018 67.4053 75.7719 67.6248 75.3812 68.0155C74.9905 68.4062 74.771 68.9361 74.771 69.4886V74.7386" stroke="white" stroke-width="3" stroke-linecap="round"/>
</g>
<g opacity="0.8" filter="url(#filter8_f_620_601)">
<path d="M68.0001 42.9263C67.0181 42.9281 66.0617 43.2396 65.2669 43.8163V43.8163C64.105 44.6594 62.3189 45.2367 60.8954 45.0512C60.4905 44.9985 60.0784 44.989 59.6659 45.0248C58.2709 45.1458 56.9692 45.7758 56.0089 46.7949C55.0486 47.8139 54.4968 49.1506 54.4587 50.5503C54.4205 51.95 54.8988 53.3148 55.8022 54.3846" stroke="white" stroke-width="3" stroke-linecap="round"/>
</g>
<g opacity="0.8" filter="url(#filter9_f_620_601)">
<path d="M64.5918 54.3846C64.7055 54.2471 64.8123 54.1046 64.9122 53.9579C65.5807 52.9755 66.9488 52.3268 68.1368 52.3009V52.3009C68.9459 52.2833 69.7364 52.055 70.4302 51.6384C71.1241 51.2219 71.6972 50.6316 72.0931 49.9257C72.489 49.2199 72.6939 48.423 72.6876 47.6138" stroke="white" stroke-width="3" stroke-linecap="round"/>
</g>
<defs>
<filter id="filter0_ddd_620_601" x="0.21582" y="18.6348" width="110.243" height="121.167" filterUnits="userSpaceOnUse" color-interpolation-filters="sRGB">
<feFlood flood-opacity="0" result="BackgroundImageFix"/>
<feColorMatrix in="SourceAlpha" type="matrix" values="0 0 0 0 0 0 0 0 0 0 0 0 0 0 0 0 0 0 127 0" result="hardAlpha"/>
<feOffset dy="4"/>
<feGaussianBlur stdDeviation="22"/>
<feComposite in2="hardAlpha" operator="out"/>
<feColorMatrix type="matrix" values="0 0 0 0 0.941176 0 0 0 0 0.188235 0 0 0 0 0.356863 0 0 0 1 0"/>
<feBlend mode="normal" in2="BackgroundImageFix" result="effect1_dropShadow_620_601"/>
<feColorMatrix in="SourceAlpha" type="matrix" values="0 0 0 0 0 0 0 0 0 0 0 0 0 0 0 0 0 0 127 0" result="hardAlpha"/>
<feOffset dy="4"/>
<feGaussianBlur stdDeviation="22"/>
<feComposite in2="hardAlpha" operator="out"/>
<feColorMatrix type="matrix" values="0 0 0 0 0.941176 0 0 0 0 0.188235 0 0 0 0 0.356863 0 0 0 1 0"/>
<feBlend mode="normal" in2="effect1_dropShadow_620_601" result="effect2_dropShadow_620_601"/>
<feColorMatrix in="SourceAlpha" type="matrix" values="0 0 0 0 0 0 0 0 0 0 0 0 0 0 0 0 0 0 127 0" result="hardAlpha"/>
<feOffset dy="4"/>
<feGaussianBlur stdDeviation="22"/>
<feComposite in2="hardAlpha" operator="out"/>
<feColorMatrix type="matrix" values="0 0 0 0 0.941176 0 0 0 0 0.188235 0 0 0 0 0.356863 0 0 0 1 0"/>
<feBlend mode="normal" in2="effect2_dropShadow_620_601" result="effect3_dropShadow_620_601"/>
<feBlend mode="normal" in="SourceGraphic" in2="effect3_dropShadow_620_601" result="shape"/>
</filter>
<filter id="filter1_ddd_620_601" x="14.1875" y="33.7388" width="123.25" height="106.062" filterUnits="userSpaceOnUse" color-interpolation-filters="sRGB">
<feFlood flood-opacity="0" result="BackgroundImageFix"/>
<feColorMatrix in="SourceAlpha" type="matrix" values="0 0 0 0 0 0 0 0 0 0 0 0 0 0 0 0 0 0 127 0" result="hardAlpha"/>
<feOffset dy="4"/>
<feGaussianBlur stdDeviation="22"/>
<feComposite in2="hardAlpha" operator="out"/>
<feColorMatrix type="matrix" values="0 0 0 0 0.941176 0 0 0 0 0.188235 0 0 0 0 0.356863 0 0 0 1 0"/>
<feBlend mode="normal" in2="BackgroundImageFix" result="effect1_dropShadow_620_601"/>
<feColorMatrix in="SourceAlpha" type="matrix" values="0 0 0 0 0 0 0 0 0 0 0 0 0 0 0 0 0 0 127 0" result="hardAlpha"/>
<feOffset dy="4"/>
<feGaussianBlur stdDeviation="22"/>
<feComposite in2="hardAlpha" operator="out"/>
<feColorMatrix type="matrix" values="0 0 0 0 0.941176 0 0 0 0 0.188235 0 0 0 0 0.356863 0 0 0 1 0"/>
<feBlend mode="normal" in2="effect1_dropShadow_620_601" result="effect2_dropShadow_620_601"/>
<feColorMatrix in="SourceAlpha" type="matrix" values="0 0 0 0 0 0 0 0 0 0 0 0 0 0 0 0 0 0 127 0" result="hardAlpha"/>
<feOffset dy="4"/>
<feGaussianBlur stdDeviation="22"/>
<feComposite in2="hardAlpha" operator="out"/>
<feColorMatrix type="matrix" values="0 0 0 0 0.941176 0 0 0 0 0.188235 0 0 0 0 0.356863 0 0 0 1 0"/>
<feBlend mode="normal" in2="effect2_dropShadow_620_601" result="effect3_dropShadow_620_601"/>
<feBlend mode="normal" in="SourceGraphic" in2="effect3_dropShadow_620_601" result="shape"/>
</filter>
<filter id="filter2_ddd_620_601" x="28.771" y="25.4053" width="104.5" height="100.333" filterUnits="userSpaceOnUse" color-interpolation-filters="sRGB">
<feFlood flood-opacity="0" result="BackgroundImageFix"/>
<feColorMatrix in="SourceAlpha" type="matrix" values="0 0 0 0 0 0 0 0 0 0 0 0 0 0 0 0 0 0 127 0" result="hardAlpha"/>
<feOffset dy="4"/>
<feGaussianBlur stdDeviation="22"/>
<feComposite in2="hardAlpha" operator="out"/>
<feColorMatrix type="matrix" values="0 0 0 0 0.941176 0 0 0 0 0.188235 0 0 0 0 0.356863 0 0 0 1 0"/>
<feBlend mode="normal" in2="BackgroundImageFix" result="effect1_dropShadow_620_601"/>
<feColorMatrix in="SourceAlpha" type="matrix" values="0 0 0 0 0 0 0 0 0 0 0 0 0 0 0 0 0 0 127 0" result="hardAlpha"/>
<feOffset dy="4"/>
<feGaussianBlur stdDeviation="22"/>
<feComposite in2="hardAlpha" operator="out"/>
<feColorMatrix type="matrix" values="0 0 0 0 0.941176 0 0 0 0 0.188235 0 0 0 0 0.356863 0 0 0 1 0"/>
<feBlend mode="normal" in2="effect1_dropShadow_620_601" result="effect2_dropShadow_620_601"/>
<feColorMatrix in="SourceAlpha" type="matrix" values="0 0 0 0 0 0 0 0 0 0 0 0 0 0 0 0 0 0 127 0" result="hardAlpha"/>
<feOffset dy="4"/>
<feGaussianBlur stdDeviation="22"/>
<feComposite in2="hardAlpha" operator="out"/>
<feColorMatrix type="matrix" values="0 0 0 0 0.941176 0 0 0 0 0.188235 0 0 0 0 0.356863 0 0 0 1 0"/>
<feBlend mode="normal" in2="effect2_dropShadow_620_601" result="effect3_dropShadow_620_601"/>
<feBlend mode="normal" in="SourceGraphic" in2="effect3_dropShadow_620_601" result="shape"/>
</filter>
<filter id="filter3_ddd_620_601" x="8.45654" y="0.92627" width="105.543" height="103.458" filterUnits="userSpaceOnUse" color-interpolation-filters="sRGB">
<feFlood flood-opacity="0" result="BackgroundImageFix"/>
<feColorMatrix in="SourceAlpha" type="matrix" values="0 0 0 0 0 0 0 0 0 0 0 0 0 0 0 0 0 0 127 0" result="hardAlpha"/>
<feOffset dy="4"/>
<feGaussianBlur stdDeviation="22"/>
<feComposite in2="hardAlpha" operator="out"/>
<feColorMatrix type="matrix" values="0 0 0 0 0.941176 0 0 0 0 0.188235 0 0 0 0 0.356863 0 0 0 1 0"/>
<feBlend mode="normal" in2="BackgroundImageFix" result="effect1_dropShadow_620_601"/>
<feColorMatrix in="SourceAlpha" type="matrix" values="0 0 0 0 0 0 0 0 0 0 0 0 0 0 0 0 0 0 127 0" result="hardAlpha"/>
<feOffset dy="4"/>
<feGaussianBlur stdDeviation="22"/>
<feComposite in2="hardAlpha" operator="out"/>
<feColorMatrix type="matrix" values="0 0 0 0 0.941176 0 0 0 0 0.188235 0 0 0 0 0.356863 0 0 0 1 0"/>
<feBlend mode="normal" in2="effect1_dropShadow_620_601" result="effect2_dropShadow_620_601"/>
<feColorMatrix in="SourceAlpha" type="matrix" values="0 0 0 0 0 0 0 0 0 0 0 0 0 0 0 0 0 0 127 0" result="hardAlpha"/>
<feOffset dy="4"/>
<feGaussianBlur stdDeviation="22"/>
<feComposite in2="hardAlpha" operator="out"/>
<feColorMatrix type="matrix" values="0 0 0 0 0.941176 0 0 0 0 0.188235 0 0 0 0 0.356863 0 0 0 1 0"/>
<feBlend mode="normal" in2="effect2_dropShadow_620_601" result="effect3_dropShadow_620_601"/>
<feBlend mode="normal" in="SourceGraphic" in2="effect3_dropShadow_620_601" result="shape"/>
</filter>
<filter id="filter4_ddd_620_601" x="18.5918" y="5.61377" width="100.096" height="98.771" filterUnits="userSpaceOnUse" color-interpolation-filters="sRGB">
<feFlood flood-opacity="0" result="BackgroundImageFix"/>
<feColorMatrix in="SourceAlpha" type="matrix" values="0 0 0 0 0 0 0 0 0 0 0 0 0 0 0 0 0 0 127 0" result="hardAlpha"/>
<feOffset dy="4"/>
<feGaussianBlur stdDeviation="22"/>
<feComposite in2="hardAlpha" operator="out"/>
<feColorMatrix type="matrix" values="0 0 0 0 0.941176 0 0 0 0 0.188235 0 0 0 0 0.356863 0 0 0 1 0"/>
<feBlend mode="normal" in2="BackgroundImageFix" result="effect1_dropShadow_620_601"/>
<feColorMatrix in="SourceAlpha" type="matrix" values="0 0 0 0 0 0 0 0 0 0 0 0 0 0 0 0 0 0 127 0" result="hardAlpha"/>
<feOffset dy="4"/>
<feGaussianBlur stdDeviation="22"/>
<feComposite in2="hardAlpha" operator="out"/>
<feColorMatrix type="matrix" values="0 0 0 0 0.941176 0 0 0 0 0.188235 0 0 0 0 0.356863 0 0 0 1 0"/>
<feBlend mode="normal" in2="effect1_dropShadow_620_601" result="effect2_dropShadow_620_601"/>
<feColorMatrix in="SourceAlpha" type="matrix" values="0 0 0 0 0 0 0 0 0 0 0 0 0 0 0 0 0 0 127 0" result="hardAlpha"/>
<feOffset dy="4"/>
<feGaussianBlur stdDeviation="22"/>
<feComposite in2="hardAlpha" operator="out"/>
<feColorMatrix type="matrix" values="0 0 0 0 0.941176 0 0 0 0 0.188235 0 0 0 0 0.356863 0 0 0 1 0"/>
<feBlend mode="normal" in2="effect2_dropShadow_620_601" result="effect3_dropShadow_620_601"/>
<feBlend mode="normal" in="SourceGraphic" in2="effect3_dropShadow_620_601" result="shape"/>
</filter>
<filter id="filter5_f_620_601" x="43.7134" y="58.1348" width="23.2451" height="34.1665" filterUnits="userSpaceOnUse" color-interpolation-filters="sRGB">
<feFlood flood-opacity="0" result="BackgroundImageFix"/>
<feBlend mode="normal" in="SourceGraphic" in2="BackgroundImageFix" result="shape"/>
<feGaussianBlur stdDeviation="0.5" result="effect1_foregroundBlur_620_601"/>
</filter>
<filter id="filter6_f_620_601" x="57.6875" y="73.2388" width="36.25" height="19.0625" filterUnits="userSpaceOnUse" color-interpolation-filters="sRGB">
<feFlood flood-opacity="0" result="BackgroundImageFix"/>
<feBlend mode="normal" in="SourceGraphic" in2="BackgroundImageFix" result="shape"/>
<feGaussianBlur stdDeviation="0.5" result="effect1_foregroundBlur_620_601"/>
</filter>
<filter id="filter7_f_620_601" x="72.271" y="64.9053" width="17.5" height="12.3335" filterUnits="userSpaceOnUse" color-interpolation-filters="sRGB">
<feFlood flood-opacity="0" result="BackgroundImageFix"/>
<feBlend mode="normal" in="SourceGraphic" in2="BackgroundImageFix" result="shape"/>
<feGaussianBlur stdDeviation="0.5" result="effect1_foregroundBlur_620_601"/>
</filter>
<filter id="filter8_f_620_601" x="51.9565" y="40.4263" width="18.5435" height="16.4585" filterUnits="userSpaceOnUse" color-interpolation-filters="sRGB">
<feFlood flood-opacity="0" result="BackgroundImageFix"/>
<feBlend mode="normal" in="SourceGraphic" in2="BackgroundImageFix" result="shape"/>
<feGaussianBlur stdDeviation="0.5" result="effect1_foregroundBlur_620_601"/>
</filter>
<filter id="filter9_f_620_601" x="62.0918" y="45.1138" width="13.0962" height="11.771" filterUnits="userSpaceOnUse" color-interpolation-filters="sRGB">
<feFlood flood-opacity="0" result="BackgroundImageFix"/>
<feBlend mode="normal" in="SourceGraphic" in2="BackgroundImageFix" result="shape"/>
<feGaussianBlur stdDeviation="0.5" result="effect1_foregroundBlur_620_601"/>
</filter>
</defs>
</svg>
