<svg width="140" height="140" viewBox="0 0 140 140" fill="none" xmlns="http://www.w3.org/2000/svg">
<g filter="url(#filter0_dddf_556_2541)">
<path d="M51.528 67.7909L52.4613 65.343L50.2821 59.6264C50.1257 59.214 50.1147 58.7606 50.2511 58.3412C50.3875 57.9218 50.6631 57.5615 51.0321 57.3201L56.153 53.9764L57.7509 48.0722C57.8663 47.6464 58.1239 47.2729 58.4809 47.0137C58.8379 46.7545 59.2728 46.6252 59.7134 46.6472L65.8217 46.9576L70.5842 43.1139C70.928 42.8367 71.3562 42.6855 71.7978 42.6855C72.2393 42.6855 72.6676 42.8367 73.0113 43.1139L77.7738 46.9576L83.8821 46.6534C84.3227 46.6314 84.7576 46.7607 85.1146 47.0199C85.4716 47.2792 85.7292 47.6527 85.8446 48.0784L87.4426 53.9826L92.5634 57.3264C92.9327 57.5675 93.2085 57.9278 93.345 58.3473C93.4814 58.7668 93.4702 59.2203 93.3134 59.6326L91.1363 65.3493L93.3134 71.0639C93.4704 71.4765 93.4816 71.9303 93.3452 72.3502C93.2088 72.7701 92.9329 73.1307 92.5634 73.3722L87.4426 76.7055L85.8363 82.6118C85.7216 83.0381 85.4643 83.4123 85.1072 83.672C84.7501 83.9317 84.3148 84.0612 83.8738 84.0389L77.7655 83.7347L73.003 87.5701" stroke="#FA0056" stroke-width="4"/>
</g>
<g filter="url(#filter1_dddf_556_2541)">
<path d="M46.5625 82.3105L50.0125 87.746" stroke="#FA0056" stroke-width="4" shape-rendering="crispEdges"/>
</g>
<g filter="url(#filter2_dddf_556_2541)">
<path d="M65.6406 58.0977L78.7531 78.756" stroke="#FA0056" stroke-width="4" shape-rendering="crispEdges"/>
</g>
<g filter="url(#filter3_dddf_556_2541)">
<path d="M76 77.2706L50.8146 85.125M49 82.2751L65.7185 61.125" stroke="#FA0056" stroke-width="4"/>
</g>
<g filter="url(#filter4_dddf_556_2541)">
<path d="M55.5312 84.7163L57.3562 87.5204C57.658 88.0151 58.0577 88.443 58.5308 88.7776C59.0039 89.1122 59.5403 89.3466 60.1073 89.4664C60.6743 89.5862 61.2597 89.5889 61.8277 89.4742C62.3958 89.3595 62.9343 89.13 63.4104 88.7996C64.3837 88.0992 65.0525 87.0532 65.2798 85.8758C65.5072 84.6985 65.2759 83.4787 64.6333 82.4663L64.2937 81.9746" stroke="#FA0056" stroke-width="4"/>
</g>
<g filter="url(#filter5_f_556_2541)">
<path d="M51.528 67.7909L52.4613 65.343L50.2821 59.6264C50.1257 59.214 50.1147 58.7606 50.2511 58.3412C50.3875 57.9218 50.6631 57.5615 51.0321 57.3201L56.153 53.9764L57.7509 48.0722C57.8663 47.6464 58.1239 47.2729 58.4809 47.0137C58.8379 46.7545 59.2728 46.6252 59.7134 46.6472L65.8217 46.9576L70.5842 43.1139C70.928 42.8367 71.3562 42.6855 71.7978 42.6855C72.2393 42.6855 72.6676 42.8367 73.0113 43.1139L77.7738 46.9576L83.8821 46.6534C84.3227 46.6314 84.7576 46.7607 85.1146 47.0199C85.4716 47.2792 85.7292 47.6527 85.8446 48.0784L87.4426 53.9826L92.5634 57.3264C92.9327 57.5675 93.2085 57.9278 93.345 58.3473C93.4814 58.7668 93.4702 59.2203 93.3134 59.6326L91.1363 65.3493L93.3134 71.0639C93.4704 71.4765 93.4816 71.9303 93.3452 72.3502C93.2088 72.7701 92.9329 73.1307 92.5634 73.3722L87.4426 76.7055L85.8363 82.6118C85.7216 83.0381 85.4643 83.4123 85.1072 83.672C84.7501 83.9317 84.3148 84.0612 83.8738 84.0389L77.7655 83.7347L73.003 87.5701" stroke="white" stroke-width="3"/>
</g>
<g filter="url(#filter6_f_556_2541)">
<path d="M46.5625 82.3105L50.0125 87.746" stroke="white" stroke-width="3"/>
</g>
<g filter="url(#filter7_f_556_2541)">
<path d="M65.6406 58.0977L78.7531 78.756" stroke="white" stroke-width="3"/>
</g>
<g filter="url(#filter8_f_556_2541)">
<path d="M76 77.2706L50.8146 85.125M49 82.2751L65.7185 61.125" stroke="white" stroke-width="3"/>
</g>
<g filter="url(#filter9_f_556_2541)">
<path d="M55.5312 84.7163L57.3562 87.5204C57.658 88.0151 58.0577 88.443 58.5308 88.7776C59.0039 89.1122 59.5403 89.3466 60.1073 89.4664C60.6743 89.5862 61.2597 89.5889 61.8277 89.4742C62.3958 89.3595 62.9343 89.13 63.4104 88.7996C64.3837 88.0992 65.0525 87.0532 65.2798 85.8758C65.5072 84.6985 65.2759 83.4787 64.6333 82.4663L64.2937 81.9746" stroke="white" stroke-width="3"/>
</g>
<defs>
<filter id="filter0_dddf_556_2541" x="4.15625" y="0.685547" width="135.281" height="136.441" filterUnits="userSpaceOnUse" color-interpolation-filters="sRGB">
<feFlood flood-opacity="0" result="BackgroundImageFix"/>
<feColorMatrix in="SourceAlpha" type="matrix" values="0 0 0 0 0 0 0 0 0 0 0 0 0 0 0 0 0 0 127 0" result="hardAlpha"/>
<feOffset dy="4"/>
<feGaussianBlur stdDeviation="22"/>
<feComposite in2="hardAlpha" operator="out"/>
<feColorMatrix type="matrix" values="0 0 0 0 0.941176 0 0 0 0 0.188235 0 0 0 0 0.356863 0 0 0 1 0"/>
<feBlend mode="normal" in2="BackgroundImageFix" result="effect1_dropShadow_556_2541"/>
<feColorMatrix in="SourceAlpha" type="matrix" values="0 0 0 0 0 0 0 0 0 0 0 0 0 0 0 0 0 0 127 0" result="hardAlpha"/>
<feOffset dy="4"/>
<feGaussianBlur stdDeviation="22"/>
<feComposite in2="hardAlpha" operator="out"/>
<feColorMatrix type="matrix" values="0 0 0 0 0.941176 0 0 0 0 0.188235 0 0 0 0 0.356863 0 0 0 1 0"/>
<feBlend mode="normal" in2="effect1_dropShadow_556_2541" result="effect2_dropShadow_556_2541"/>
<feColorMatrix in="SourceAlpha" type="matrix" values="0 0 0 0 0 0 0 0 0 0 0 0 0 0 0 0 0 0 127 0" result="hardAlpha"/>
<feOffset dy="4"/>
<feGaussianBlur stdDeviation="22"/>
<feComposite in2="hardAlpha" operator="out"/>
<feColorMatrix type="matrix" values="0 0 0 0 0.941176 0 0 0 0 0.188235 0 0 0 0 0.356863 0 0 0 1 0"/>
<feBlend mode="normal" in2="effect2_dropShadow_556_2541" result="effect3_dropShadow_556_2541"/>
<feBlend mode="normal" in="SourceGraphic" in2="effect3_dropShadow_556_2541" result="shape"/>
<feGaussianBlur stdDeviation="2" result="effect4_foregroundBlur_556_2541"/>
</filter>
<filter id="filter1_dddf_556_2541" x="0.875" y="41.2383" width="94.8281" height="95.5801" filterUnits="userSpaceOnUse" color-interpolation-filters="sRGB">
<feFlood flood-opacity="0" result="BackgroundImageFix"/>
<feColorMatrix in="SourceAlpha" type="matrix" values="0 0 0 0 0 0 0 0 0 0 0 0 0 0 0 0 0 0 127 0" result="hardAlpha"/>
<feOffset dy="4"/>
<feGaussianBlur stdDeviation="22"/>
<feComposite in2="hardAlpha" operator="out"/>
<feColorMatrix type="matrix" values="0 0 0 0 0.941176 0 0 0 0 0.188235 0 0 0 0 0.356863 0 0 0 1 0"/>
<feBlend mode="normal" in2="BackgroundImageFix" result="effect1_dropShadow_556_2541"/>
<feColorMatrix in="SourceAlpha" type="matrix" values="0 0 0 0 0 0 0 0 0 0 0 0 0 0 0 0 0 0 127 0" result="hardAlpha"/>
<feOffset dy="4"/>
<feGaussianBlur stdDeviation="22"/>
<feComposite in2="hardAlpha" operator="out"/>
<feColorMatrix type="matrix" values="0 0 0 0 0.941176 0 0 0 0 0.188235 0 0 0 0 0.356863 0 0 0 1 0"/>
<feBlend mode="normal" in2="effect1_dropShadow_556_2541" result="effect2_dropShadow_556_2541"/>
<feColorMatrix in="SourceAlpha" type="matrix" values="0 0 0 0 0 0 0 0 0 0 0 0 0 0 0 0 0 0 127 0" result="hardAlpha"/>
<feOffset dy="4"/>
<feGaussianBlur stdDeviation="22"/>
<feComposite in2="hardAlpha" operator="out"/>
<feColorMatrix type="matrix" values="0 0 0 0 0.941176 0 0 0 0 0.188235 0 0 0 0 0.356863 0 0 0 1 0"/>
<feBlend mode="normal" in2="effect2_dropShadow_556_2541" result="effect3_dropShadow_556_2541"/>
<feBlend mode="normal" in="SourceGraphic" in2="effect3_dropShadow_556_2541" result="shape"/>
<feGaussianBlur stdDeviation="2" result="effect4_foregroundBlur_556_2541"/>
</filter>
<filter id="filter2_dddf_556_2541" x="19.9531" y="17.0254" width="104.492" height="110.803" filterUnits="userSpaceOnUse" color-interpolation-filters="sRGB">
<feFlood flood-opacity="0" result="BackgroundImageFix"/>
<feColorMatrix in="SourceAlpha" type="matrix" values="0 0 0 0 0 0 0 0 0 0 0 0 0 0 0 0 0 0 127 0" result="hardAlpha"/>
<feOffset dy="4"/>
<feGaussianBlur stdDeviation="22"/>
<feComposite in2="hardAlpha" operator="out"/>
<feColorMatrix type="matrix" values="0 0 0 0 0.941176 0 0 0 0 0.188235 0 0 0 0 0.356863 0 0 0 1 0"/>
<feBlend mode="normal" in2="BackgroundImageFix" result="effect1_dropShadow_556_2541"/>
<feColorMatrix in="SourceAlpha" type="matrix" values="0 0 0 0 0 0 0 0 0 0 0 0 0 0 0 0 0 0 127 0" result="hardAlpha"/>
<feOffset dy="4"/>
<feGaussianBlur stdDeviation="22"/>
<feComposite in2="hardAlpha" operator="out"/>
<feColorMatrix type="matrix" values="0 0 0 0 0.941176 0 0 0 0 0.188235 0 0 0 0 0.356863 0 0 0 1 0"/>
<feBlend mode="normal" in2="effect1_dropShadow_556_2541" result="effect2_dropShadow_556_2541"/>
<feColorMatrix in="SourceAlpha" type="matrix" values="0 0 0 0 0 0 0 0 0 0 0 0 0 0 0 0 0 0 127 0" result="hardAlpha"/>
<feOffset dy="4"/>
<feGaussianBlur stdDeviation="22"/>
<feComposite in2="hardAlpha" operator="out"/>
<feColorMatrix type="matrix" values="0 0 0 0 0.941176 0 0 0 0 0.188235 0 0 0 0 0.356863 0 0 0 1 0"/>
<feBlend mode="normal" in2="effect2_dropShadow_556_2541" result="effect3_dropShadow_556_2541"/>
<feBlend mode="normal" in="SourceGraphic" in2="effect3_dropShadow_556_2541" result="shape"/>
<feGaussianBlur stdDeviation="2" result="effect4_foregroundBlur_556_2541"/>
</filter>
<filter id="filter3_dddf_556_2541" x="3.42969" y="19.8848" width="117.164" height="115.15" filterUnits="userSpaceOnUse" color-interpolation-filters="sRGB">
<feFlood flood-opacity="0" result="BackgroundImageFix"/>
<feColorMatrix in="SourceAlpha" type="matrix" values="0 0 0 0 0 0 0 0 0 0 0 0 0 0 0 0 0 0 127 0" result="hardAlpha"/>
<feOffset dy="4"/>
<feGaussianBlur stdDeviation="22"/>
<feComposite in2="hardAlpha" operator="out"/>
<feColorMatrix type="matrix" values="0 0 0 0 0.941176 0 0 0 0 0.188235 0 0 0 0 0.356863 0 0 0 1 0"/>
<feBlend mode="normal" in2="BackgroundImageFix" result="effect1_dropShadow_556_2541"/>
<feColorMatrix in="SourceAlpha" type="matrix" values="0 0 0 0 0 0 0 0 0 0 0 0 0 0 0 0 0 0 127 0" result="hardAlpha"/>
<feOffset dy="4"/>
<feGaussianBlur stdDeviation="22"/>
<feComposite in2="hardAlpha" operator="out"/>
<feColorMatrix type="matrix" values="0 0 0 0 0.941176 0 0 0 0 0.188235 0 0 0 0 0.356863 0 0 0 1 0"/>
<feBlend mode="normal" in2="effect1_dropShadow_556_2541" result="effect2_dropShadow_556_2541"/>
<feColorMatrix in="SourceAlpha" type="matrix" values="0 0 0 0 0 0 0 0 0 0 0 0 0 0 0 0 0 0 127 0" result="hardAlpha"/>
<feOffset dy="4"/>
<feGaussianBlur stdDeviation="22"/>
<feComposite in2="hardAlpha" operator="out"/>
<feColorMatrix type="matrix" values="0 0 0 0 0.941176 0 0 0 0 0.188235 0 0 0 0 0.356863 0 0 0 1 0"/>
<feBlend mode="normal" in2="effect2_dropShadow_556_2541" result="effect3_dropShadow_556_2541"/>
<feBlend mode="normal" in="SourceGraphic" in2="effect3_dropShadow_556_2541" result="shape"/>
<feGaussianBlur stdDeviation="2" result="effect4_foregroundBlur_556_2541"/>
</filter>
<filter id="filter4_dddf_556_2541" x="9.85156" y="40.8379" width="101.516" height="98.7207" filterUnits="userSpaceOnUse" color-interpolation-filters="sRGB">
<feFlood flood-opacity="0" result="BackgroundImageFix"/>
<feColorMatrix in="SourceAlpha" type="matrix" values="0 0 0 0 0 0 0 0 0 0 0 0 0 0 0 0 0 0 127 0" result="hardAlpha"/>
<feOffset dy="4"/>
<feGaussianBlur stdDeviation="22"/>
<feComposite in2="hardAlpha" operator="out"/>
<feColorMatrix type="matrix" values="0 0 0 0 0.941176 0 0 0 0 0.188235 0 0 0 0 0.356863 0 0 0 1 0"/>
<feBlend mode="normal" in2="BackgroundImageFix" result="effect1_dropShadow_556_2541"/>
<feColorMatrix in="SourceAlpha" type="matrix" values="0 0 0 0 0 0 0 0 0 0 0 0 0 0 0 0 0 0 127 0" result="hardAlpha"/>
<feOffset dy="4"/>
<feGaussianBlur stdDeviation="22"/>
<feComposite in2="hardAlpha" operator="out"/>
<feColorMatrix type="matrix" values="0 0 0 0 0.941176 0 0 0 0 0.188235 0 0 0 0 0.356863 0 0 0 1 0"/>
<feBlend mode="normal" in2="effect1_dropShadow_556_2541" result="effect2_dropShadow_556_2541"/>
<feColorMatrix in="SourceAlpha" type="matrix" values="0 0 0 0 0 0 0 0 0 0 0 0 0 0 0 0 0 0 127 0" result="hardAlpha"/>
<feOffset dy="4"/>
<feGaussianBlur stdDeviation="22"/>
<feComposite in2="hardAlpha" operator="out"/>
<feColorMatrix type="matrix" values="0 0 0 0 0.941176 0 0 0 0 0.188235 0 0 0 0 0.356863 0 0 0 1 0"/>
<feBlend mode="normal" in2="effect2_dropShadow_556_2541" result="effect3_dropShadow_556_2541"/>
<feBlend mode="normal" in="SourceGraphic" in2="effect3_dropShadow_556_2541" result="shape"/>
<feGaussianBlur stdDeviation="2" result="effect4_foregroundBlur_556_2541"/>
</filter>
<filter id="filter5_f_556_2541" x="44.6562" y="37.1855" width="54.2812" height="55.5527" filterUnits="userSpaceOnUse" color-interpolation-filters="sRGB">
<feFlood flood-opacity="0" result="BackgroundImageFix"/>
<feBlend mode="normal" in="SourceGraphic" in2="BackgroundImageFix" result="shape"/>
<feGaussianBlur stdDeviation="2" result="effect1_foregroundBlur_556_2541"/>
</filter>
<filter id="filter6_f_556_2541" x="41.2969" y="77.5059" width="13.9844" height="15.043" filterUnits="userSpaceOnUse" color-interpolation-filters="sRGB">
<feFlood flood-opacity="0" result="BackgroundImageFix"/>
<feBlend mode="normal" in="SourceGraphic" in2="BackgroundImageFix" result="shape"/>
<feGaussianBlur stdDeviation="2" result="effect1_foregroundBlur_556_2541"/>
</filter>
<filter id="filter7_f_556_2541" x="60.375" y="53.293" width="23.6484" height="30.2676" filterUnits="userSpaceOnUse" color-interpolation-filters="sRGB">
<feFlood flood-opacity="0" result="BackgroundImageFix"/>
<feBlend mode="normal" in="SourceGraphic" in2="BackgroundImageFix" result="shape"/>
<feGaussianBlur stdDeviation="2" result="effect1_foregroundBlur_556_2541"/>
</filter>
<filter id="filter8_f_556_2541" x="43.8203" y="56.1953" width="36.625" height="34.3613" filterUnits="userSpaceOnUse" color-interpolation-filters="sRGB">
<feFlood flood-opacity="0" result="BackgroundImageFix"/>
<feBlend mode="normal" in="SourceGraphic" in2="BackgroundImageFix" result="shape"/>
<feGaussianBlur stdDeviation="2" result="effect1_foregroundBlur_556_2541"/>
</filter>
<filter id="filter9_f_556_2541" x="50.2734" y="77.123" width="20.5938" height="17.9355" filterUnits="userSpaceOnUse" color-interpolation-filters="sRGB">
<feFlood flood-opacity="0" result="BackgroundImageFix"/>
<feBlend mode="normal" in="SourceGraphic" in2="BackgroundImageFix" result="shape"/>
<feGaussianBlur stdDeviation="2" result="effect1_foregroundBlur_556_2541"/>
</filter>
</defs>
</svg>
