<svg width="142" height="140" viewBox="0 0 142 140" fill="none" xmlns="http://www.w3.org/2000/svg">
<g filter="url(#filter0_ddd_620_1161)">
<path d="M72.5 72.6133H77.125C78.2296 72.6133 79.125 73.5087 79.125 74.6133V77.7223C79.125 79.5042 81.2793 80.3965 82.5392 79.1366L88.4767 73.1991C88.8518 72.824 89.3605 72.6133 89.8909 72.6133H92.3617C93.2438 72.6133 94.0898 72.2628 94.7134 71.6392C95.337 71.0155 95.6875 70.1695 95.6875 69.2875V45.8008C95.6875 44.9223 95.3386 44.0797 94.7174 43.4585C94.0962 42.8373 93.2535 42.4883 92.375 42.4883H65.875C64.9965 42.4883 64.1539 42.8373 63.5327 43.4585C62.9115 44.0797 62.5625 44.9223 62.5625 45.8008V52.7383" stroke="#FA0056" stroke-width="4" stroke-linecap="round"/>
</g>
<g filter="url(#filter1_ddd_620_1161)">
<path d="M66 64.9883C66 68.5782 63.0898 71.4883 59.5 71.4883C55.9102 71.4883 53 68.5782 53 64.9883C53 61.3984 55.9102 58.4883 59.5 58.4883C63.0898 58.4883 66 61.3984 66 64.9883Z" stroke="#FA0056" stroke-width="4" stroke-linecap="round" shape-rendering="crispEdges"/>
</g>
<g filter="url(#filter2_ddd_620_1161)">
<path d="M73 89.4883C72.5604 86.1658 70.9498 83.1183 68.4672 80.9114C65.9844 78.7047 62.7982 77.4883 59.5 77.4883C56.2018 77.4883 53.0156 78.7047 50.5329 80.9114C48.0502 83.1183 46.4395 86.1658 46 89.4883" stroke="#FA0056" stroke-width="4" stroke-linecap="round"/>
</g>
<g opacity="0.8" filter="url(#filter3_f_620_1161)">
<path d="M72.5 72.6133H77.125C78.2296 72.6133 79.125 73.5087 79.125 74.6133V77.7223C79.125 79.5042 81.2793 80.3965 82.5392 79.1366L88.4767 73.1991C88.8518 72.824 89.3605 72.6133 89.8909 72.6133H92.3617C93.2438 72.6133 94.0898 72.2628 94.7134 71.6392C95.337 71.0155 95.6875 70.1695 95.6875 69.2875V45.8008C95.6875 44.9223 95.3386 44.0797 94.7174 43.4585C94.0962 42.8373 93.2535 42.4883 92.375 42.4883H65.875C64.9965 42.4883 64.1539 42.8373 63.5327 43.4585C62.9115 44.0797 62.5625 44.9223 62.5625 45.8008V52.7383" stroke="white" stroke-width="3" stroke-linecap="round"/>
</g>
<g opacity="0.8" filter="url(#filter4_f_620_1161)">
<path d="M66 64.9883C66 68.5782 63.0898 71.4883 59.5 71.4883C55.9102 71.4883 53 68.5782 53 64.9883C53 61.3984 55.9102 58.4883 59.5 58.4883C63.0898 58.4883 66 61.3984 66 64.9883Z" stroke="white" stroke-width="3" stroke-linecap="round"/>
</g>
<g opacity="0.8" filter="url(#filter5_f_620_1161)">
<path d="M73 89.4883C72.5604 86.1658 70.9498 83.1183 68.4672 80.9114C65.9844 78.7047 62.7982 77.4883 59.5 77.4883C56.2018 77.4883 53.0156 78.7047 50.5329 80.9114C48.0502 83.1183 46.4395 86.1658 46 89.4883" stroke="white" stroke-width="3" stroke-linecap="round"/>
</g>
<defs>
<filter id="filter0_ddd_620_1161" x="16.5625" y="0.488281" width="125.125" height="129.242" filterUnits="userSpaceOnUse" color-interpolation-filters="sRGB">
<feFlood flood-opacity="0" result="BackgroundImageFix"/>
<feColorMatrix in="SourceAlpha" type="matrix" values="0 0 0 0 0 0 0 0 0 0 0 0 0 0 0 0 0 0 127 0" result="hardAlpha"/>
<feOffset dy="4"/>
<feGaussianBlur stdDeviation="22"/>
<feComposite in2="hardAlpha" operator="out"/>
<feColorMatrix type="matrix" values="0 0 0 0 0.941176 0 0 0 0 0.188235 0 0 0 0 0.356863 0 0 0 1 0"/>
<feBlend mode="normal" in2="BackgroundImageFix" result="effect1_dropShadow_620_1161"/>
<feColorMatrix in="SourceAlpha" type="matrix" values="0 0 0 0 0 0 0 0 0 0 0 0 0 0 0 0 0 0 127 0" result="hardAlpha"/>
<feOffset dy="4"/>
<feGaussianBlur stdDeviation="22"/>
<feComposite in2="hardAlpha" operator="out"/>
<feColorMatrix type="matrix" values="0 0 0 0 0.941176 0 0 0 0 0.188235 0 0 0 0 0.356863 0 0 0 1 0"/>
<feBlend mode="normal" in2="effect1_dropShadow_620_1161" result="effect2_dropShadow_620_1161"/>
<feColorMatrix in="SourceAlpha" type="matrix" values="0 0 0 0 0 0 0 0 0 0 0 0 0 0 0 0 0 0 127 0" result="hardAlpha"/>
<feOffset dy="4"/>
<feGaussianBlur stdDeviation="22"/>
<feComposite in2="hardAlpha" operator="out"/>
<feColorMatrix type="matrix" values="0 0 0 0 0.941176 0 0 0 0 0.188235 0 0 0 0 0.356863 0 0 0 1 0"/>
<feBlend mode="normal" in2="effect2_dropShadow_620_1161" result="effect3_dropShadow_620_1161"/>
<feBlend mode="normal" in="SourceGraphic" in2="effect3_dropShadow_620_1161" result="shape"/>
</filter>
<filter id="filter1_ddd_620_1161" x="7" y="16.4883" width="105" height="105" filterUnits="userSpaceOnUse" color-interpolation-filters="sRGB">
<feFlood flood-opacity="0" result="BackgroundImageFix"/>
<feColorMatrix in="SourceAlpha" type="matrix" values="0 0 0 0 0 0 0 0 0 0 0 0 0 0 0 0 0 0 127 0" result="hardAlpha"/>
<feOffset dy="4"/>
<feGaussianBlur stdDeviation="22"/>
<feComposite in2="hardAlpha" operator="out"/>
<feColorMatrix type="matrix" values="0 0 0 0 0.941176 0 0 0 0 0.188235 0 0 0 0 0.356863 0 0 0 1 0"/>
<feBlend mode="normal" in2="BackgroundImageFix" result="effect1_dropShadow_620_1161"/>
<feColorMatrix in="SourceAlpha" type="matrix" values="0 0 0 0 0 0 0 0 0 0 0 0 0 0 0 0 0 0 127 0" result="hardAlpha"/>
<feOffset dy="4"/>
<feGaussianBlur stdDeviation="22"/>
<feComposite in2="hardAlpha" operator="out"/>
<feColorMatrix type="matrix" values="0 0 0 0 0.941176 0 0 0 0 0.188235 0 0 0 0 0.356863 0 0 0 1 0"/>
<feBlend mode="normal" in2="effect1_dropShadow_620_1161" result="effect2_dropShadow_620_1161"/>
<feColorMatrix in="SourceAlpha" type="matrix" values="0 0 0 0 0 0 0 0 0 0 0 0 0 0 0 0 0 0 127 0" result="hardAlpha"/>
<feOffset dy="4"/>
<feGaussianBlur stdDeviation="22"/>
<feComposite in2="hardAlpha" operator="out"/>
<feColorMatrix type="matrix" values="0 0 0 0 0.941176 0 0 0 0 0.188235 0 0 0 0 0.356863 0 0 0 1 0"/>
<feBlend mode="normal" in2="effect2_dropShadow_620_1161" result="effect3_dropShadow_620_1161"/>
<feBlend mode="normal" in="SourceGraphic" in2="effect3_dropShadow_620_1161" result="shape"/>
</filter>
<filter id="filter2_ddd_620_1161" x="0" y="35.4883" width="119" height="104" filterUnits="userSpaceOnUse" color-interpolation-filters="sRGB">
<feFlood flood-opacity="0" result="BackgroundImageFix"/>
<feColorMatrix in="SourceAlpha" type="matrix" values="0 0 0 0 0 0 0 0 0 0 0 0 0 0 0 0 0 0 127 0" result="hardAlpha"/>
<feOffset dy="4"/>
<feGaussianBlur stdDeviation="22"/>
<feComposite in2="hardAlpha" operator="out"/>
<feColorMatrix type="matrix" values="0 0 0 0 0.941176 0 0 0 0 0.188235 0 0 0 0 0.356863 0 0 0 1 0"/>
<feBlend mode="normal" in2="BackgroundImageFix" result="effect1_dropShadow_620_1161"/>
<feColorMatrix in="SourceAlpha" type="matrix" values="0 0 0 0 0 0 0 0 0 0 0 0 0 0 0 0 0 0 127 0" result="hardAlpha"/>
<feOffset dy="4"/>
<feGaussianBlur stdDeviation="22"/>
<feComposite in2="hardAlpha" operator="out"/>
<feColorMatrix type="matrix" values="0 0 0 0 0.941176 0 0 0 0 0.188235 0 0 0 0 0.356863 0 0 0 1 0"/>
<feBlend mode="normal" in2="effect1_dropShadow_620_1161" result="effect2_dropShadow_620_1161"/>
<feColorMatrix in="SourceAlpha" type="matrix" values="0 0 0 0 0 0 0 0 0 0 0 0 0 0 0 0 0 0 127 0" result="hardAlpha"/>
<feOffset dy="4"/>
<feGaussianBlur stdDeviation="22"/>
<feComposite in2="hardAlpha" operator="out"/>
<feColorMatrix type="matrix" values="0 0 0 0 0.941176 0 0 0 0 0.188235 0 0 0 0 0.356863 0 0 0 1 0"/>
<feBlend mode="normal" in2="effect2_dropShadow_620_1161" result="effect3_dropShadow_620_1161"/>
<feBlend mode="normal" in="SourceGraphic" in2="effect3_dropShadow_620_1161" result="shape"/>
</filter>
<filter id="filter3_f_620_1161" x="60.0625" y="39.9883" width="38.125" height="42.2412" filterUnits="userSpaceOnUse" color-interpolation-filters="sRGB">
<feFlood flood-opacity="0" result="BackgroundImageFix"/>
<feBlend mode="normal" in="SourceGraphic" in2="BackgroundImageFix" result="shape"/>
<feGaussianBlur stdDeviation="0.5" result="effect1_foregroundBlur_620_1161"/>
</filter>
<filter id="filter4_f_620_1161" x="50.5" y="55.9883" width="18" height="18" filterUnits="userSpaceOnUse" color-interpolation-filters="sRGB">
<feFlood flood-opacity="0" result="BackgroundImageFix"/>
<feBlend mode="normal" in="SourceGraphic" in2="BackgroundImageFix" result="shape"/>
<feGaussianBlur stdDeviation="0.5" result="effect1_foregroundBlur_620_1161"/>
</filter>
<filter id="filter5_f_620_1161" x="43.5" y="74.9883" width="32" height="17" filterUnits="userSpaceOnUse" color-interpolation-filters="sRGB">
<feFlood flood-opacity="0" result="BackgroundImageFix"/>
<feBlend mode="normal" in="SourceGraphic" in2="BackgroundImageFix" result="shape"/>
<feGaussianBlur stdDeviation="0.5" result="effect1_foregroundBlur_620_1161"/>
</filter>
</defs>
</svg>
