<svg width="142" height="138" viewBox="0 0 142 138" fill="none" xmlns="http://www.w3.org/2000/svg">
<g filter="url(#filter0_dddf_562_1701)">
<path d="M72.5 72.6133H79.125V82.5508L89.0625 72.6133H92.3617C93.2438 72.6133 94.0898 72.2628 94.7134 71.6392C95.337 71.0155 95.6875 70.1695 95.6875 69.2875V45.8008C95.6875 44.9223 95.3386 44.0797 94.7174 43.4585C94.0962 42.8373 93.2535 42.4883 92.375 42.4883H65.875C64.9965 42.4883 64.1539 42.8373 63.5327 43.4585C62.9115 44.0797 62.5625 44.9223 62.5625 45.8008V52.7383" stroke="#FA0056" stroke-width="4"/>
</g>
<g filter="url(#filter1_dddf_562_1701)">
<path d="M66.7031 66.8164C66.7031 70.9327 63.3662 74.2695 59.25 74.2695C55.1338 74.2695 51.7969 70.9327 51.7969 66.8164C51.7969 62.7001 55.1338 59.3633 59.25 59.3633C63.3662 59.3633 66.7031 62.7001 66.7031 66.8164Z" stroke="#FA0056" stroke-width="4" shape-rendering="crispEdges"/>
</g>
<g filter="url(#filter2_dddf_562_1701)">
<path d="M72.5 89.1755C72.0685 85.9672 70.4878 83.0244 68.0511 80.8933C65.6143 78.7625 62.4871 77.5879 59.25 77.5879C56.0129 77.5879 52.8857 78.7625 50.449 80.8933C48.0122 83.0244 46.4314 85.9672 46 89.1755" stroke="#FA0056" stroke-width="4"/>
</g>
<g filter="url(#filter3_f_562_1701)">
<path d="M72.5 72.6133H79.125V82.5508L89.0625 72.6133H92.3617C93.2438 72.6133 94.0898 72.2628 94.7134 71.6392C95.337 71.0155 95.6875 70.1695 95.6875 69.2875V44.8008C95.6875 43.9223 95.3386 43.0797 94.7174 42.4585C94.0962 41.8373 93.2535 41.4883 92.375 41.4883H65.875C64.9965 41.4883 64.1539 41.8373 63.5327 42.4585C62.9115 43.0797 62.5625 43.9223 62.5625 44.8008V52.7383" stroke="white" stroke-width="3"/>
</g>
<g filter="url(#filter4_f_562_1701)">
<path d="M66.7031 66.8164C66.7031 70.9327 63.3662 74.2695 59.25 74.2695C55.1338 74.2695 51.7969 70.9327 51.7969 66.8164C51.7969 62.7001 55.1338 59.3633 59.25 59.3633C63.3662 59.3633 66.7031 62.7001 66.7031 66.8164Z" stroke="white" stroke-width="3"/>
</g>
<g filter="url(#filter5_f_562_1701)">
<path d="M72.5 89.1755C72.0685 85.9672 70.4878 83.0244 68.0511 80.8933C65.6143 78.7625 62.4871 77.5879 59.25 77.5879C56.0129 77.5879 52.8857 78.7625 50.449 80.8933C48.0122 83.0244 46.4314 85.9672 46 89.1755" stroke="white" stroke-width="3"/>
</g>
<defs>
<filter id="filter0_dddf_562_1701" x="16.5625" y="0.488281" width="125.125" height="134.891" filterUnits="userSpaceOnUse" color-interpolation-filters="sRGB">
<feFlood flood-opacity="0" result="BackgroundImageFix"/>
<feColorMatrix in="SourceAlpha" type="matrix" values="0 0 0 0 0 0 0 0 0 0 0 0 0 0 0 0 0 0 127 0" result="hardAlpha"/>
<feOffset dy="4"/>
<feGaussianBlur stdDeviation="22"/>
<feComposite in2="hardAlpha" operator="out"/>
<feColorMatrix type="matrix" values="0 0 0 0 0.941176 0 0 0 0 0.188235 0 0 0 0 0.356863 0 0 0 1 0"/>
<feBlend mode="normal" in2="BackgroundImageFix" result="effect1_dropShadow_562_1701"/>
<feColorMatrix in="SourceAlpha" type="matrix" values="0 0 0 0 0 0 0 0 0 0 0 0 0 0 0 0 0 0 127 0" result="hardAlpha"/>
<feOffset dy="4"/>
<feGaussianBlur stdDeviation="22"/>
<feComposite in2="hardAlpha" operator="out"/>
<feColorMatrix type="matrix" values="0 0 0 0 0.941176 0 0 0 0 0.188235 0 0 0 0 0.356863 0 0 0 1 0"/>
<feBlend mode="normal" in2="effect1_dropShadow_562_1701" result="effect2_dropShadow_562_1701"/>
<feColorMatrix in="SourceAlpha" type="matrix" values="0 0 0 0 0 0 0 0 0 0 0 0 0 0 0 0 0 0 127 0" result="hardAlpha"/>
<feOffset dy="4"/>
<feGaussianBlur stdDeviation="22"/>
<feComposite in2="hardAlpha" operator="out"/>
<feColorMatrix type="matrix" values="0 0 0 0 0.941176 0 0 0 0 0.188235 0 0 0 0 0.356863 0 0 0 1 0"/>
<feBlend mode="normal" in2="effect2_dropShadow_562_1701" result="effect3_dropShadow_562_1701"/>
<feBlend mode="normal" in="SourceGraphic" in2="effect3_dropShadow_562_1701" result="shape"/>
<feGaussianBlur stdDeviation="2" result="effect4_foregroundBlur_562_1701"/>
</filter>
<filter id="filter1_dddf_562_1701" x="5.79688" y="17.3633" width="106.906" height="106.906" filterUnits="userSpaceOnUse" color-interpolation-filters="sRGB">
<feFlood flood-opacity="0" result="BackgroundImageFix"/>
<feColorMatrix in="SourceAlpha" type="matrix" values="0 0 0 0 0 0 0 0 0 0 0 0 0 0 0 0 0 0 127 0" result="hardAlpha"/>
<feOffset dy="4"/>
<feGaussianBlur stdDeviation="22"/>
<feComposite in2="hardAlpha" operator="out"/>
<feColorMatrix type="matrix" values="0 0 0 0 0.941176 0 0 0 0 0.188235 0 0 0 0 0.356863 0 0 0 1 0"/>
<feBlend mode="normal" in2="BackgroundImageFix" result="effect1_dropShadow_562_1701"/>
<feColorMatrix in="SourceAlpha" type="matrix" values="0 0 0 0 0 0 0 0 0 0 0 0 0 0 0 0 0 0 127 0" result="hardAlpha"/>
<feOffset dy="4"/>
<feGaussianBlur stdDeviation="22"/>
<feComposite in2="hardAlpha" operator="out"/>
<feColorMatrix type="matrix" values="0 0 0 0 0.941176 0 0 0 0 0.188235 0 0 0 0 0.356863 0 0 0 1 0"/>
<feBlend mode="normal" in2="effect1_dropShadow_562_1701" result="effect2_dropShadow_562_1701"/>
<feColorMatrix in="SourceAlpha" type="matrix" values="0 0 0 0 0 0 0 0 0 0 0 0 0 0 0 0 0 0 127 0" result="hardAlpha"/>
<feOffset dy="4"/>
<feGaussianBlur stdDeviation="22"/>
<feComposite in2="hardAlpha" operator="out"/>
<feColorMatrix type="matrix" values="0 0 0 0 0.941176 0 0 0 0 0.188235 0 0 0 0 0.356863 0 0 0 1 0"/>
<feBlend mode="normal" in2="effect2_dropShadow_562_1701" result="effect3_dropShadow_562_1701"/>
<feBlend mode="normal" in="SourceGraphic" in2="effect3_dropShadow_562_1701" result="shape"/>
<feGaussianBlur stdDeviation="2" result="effect4_foregroundBlur_562_1701"/>
</filter>
<filter id="filter2_dddf_562_1701" x="0.015625" y="35.5879" width="118.469" height="101.854" filterUnits="userSpaceOnUse" color-interpolation-filters="sRGB">
<feFlood flood-opacity="0" result="BackgroundImageFix"/>
<feColorMatrix in="SourceAlpha" type="matrix" values="0 0 0 0 0 0 0 0 0 0 0 0 0 0 0 0 0 0 127 0" result="hardAlpha"/>
<feOffset dy="4"/>
<feGaussianBlur stdDeviation="22"/>
<feComposite in2="hardAlpha" operator="out"/>
<feColorMatrix type="matrix" values="0 0 0 0 0.941176 0 0 0 0 0.188235 0 0 0 0 0.356863 0 0 0 1 0"/>
<feBlend mode="normal" in2="BackgroundImageFix" result="effect1_dropShadow_562_1701"/>
<feColorMatrix in="SourceAlpha" type="matrix" values="0 0 0 0 0 0 0 0 0 0 0 0 0 0 0 0 0 0 127 0" result="hardAlpha"/>
<feOffset dy="4"/>
<feGaussianBlur stdDeviation="22"/>
<feComposite in2="hardAlpha" operator="out"/>
<feColorMatrix type="matrix" values="0 0 0 0 0.941176 0 0 0 0 0.188235 0 0 0 0 0.356863 0 0 0 1 0"/>
<feBlend mode="normal" in2="effect1_dropShadow_562_1701" result="effect2_dropShadow_562_1701"/>
<feColorMatrix in="SourceAlpha" type="matrix" values="0 0 0 0 0 0 0 0 0 0 0 0 0 0 0 0 0 0 127 0" result="hardAlpha"/>
<feOffset dy="4"/>
<feGaussianBlur stdDeviation="22"/>
<feComposite in2="hardAlpha" operator="out"/>
<feColorMatrix type="matrix" values="0 0 0 0 0.941176 0 0 0 0 0.188235 0 0 0 0 0.356863 0 0 0 1 0"/>
<feBlend mode="normal" in2="effect2_dropShadow_562_1701" result="effect3_dropShadow_562_1701"/>
<feBlend mode="normal" in="SourceGraphic" in2="effect3_dropShadow_562_1701" result="shape"/>
<feGaussianBlur stdDeviation="2" result="effect4_foregroundBlur_562_1701"/>
</filter>
<filter id="filter3_f_562_1701" x="57.0625" y="35.9883" width="44.125" height="54.1836" filterUnits="userSpaceOnUse" color-interpolation-filters="sRGB">
<feFlood flood-opacity="0" result="BackgroundImageFix"/>
<feBlend mode="normal" in="SourceGraphic" in2="BackgroundImageFix" result="shape"/>
<feGaussianBlur stdDeviation="2" result="effect1_foregroundBlur_562_1701"/>
</filter>
<filter id="filter4_f_562_1701" x="46.2969" y="53.8633" width="25.9062" height="25.9062" filterUnits="userSpaceOnUse" color-interpolation-filters="sRGB">
<feFlood flood-opacity="0" result="BackgroundImageFix"/>
<feBlend mode="normal" in="SourceGraphic" in2="BackgroundImageFix" result="shape"/>
<feGaussianBlur stdDeviation="2" result="effect1_foregroundBlur_562_1701"/>
</filter>
<filter id="filter5_f_562_1701" x="40.5156" y="72.0879" width="37.4688" height="21.2871" filterUnits="userSpaceOnUse" color-interpolation-filters="sRGB">
<feFlood flood-opacity="0" result="BackgroundImageFix"/>
<feBlend mode="normal" in="SourceGraphic" in2="BackgroundImageFix" result="shape"/>
<feGaussianBlur stdDeviation="2" result="effect1_foregroundBlur_562_1701"/>
</filter>
</defs>
</svg>
