<svg width="140" height="140" viewBox="0 0 140 140" fill="none" xmlns="http://www.w3.org/2000/svg">
<g filter="url(#filter0_ddd_620_1165)">
<path d="M51.525 67.7909L52.1867 66.0555C52.3617 65.5966 52.3617 65.0894 52.1868 64.6306L50.2792 59.6264C50.1227 59.214 50.1118 58.7606 50.2482 58.3412C50.3846 57.9218 50.6601 57.5615 51.0292 57.3201L55.512 54.393C55.923 54.1246 56.2209 53.7146 56.3491 53.2408L57.748 48.0722C57.8634 47.6464 58.121 47.2729 58.478 47.0137C58.835 46.7545 59.2698 46.6252 59.7105 46.6472L65.0557 46.9188C65.5471 46.9438 66.0305 46.7868 66.4133 46.4778L70.5813 43.1139C70.925 42.8367 71.3533 42.6855 71.7948 42.6855C72.2364 42.6855 72.6646 42.8367 73.0084 43.1139L77.1772 46.4785C77.5596 46.7871 78.0421 46.9441 78.5328 46.9197L83.8792 46.6534C84.3198 46.6314 84.7547 46.7607 85.1117 47.0199C85.4687 47.2792 85.7263 47.6527 85.8417 48.0784L87.2406 53.2471C87.3688 53.7208 87.6667 54.1309 88.0776 54.3992L92.5605 57.3264C92.9298 57.5675 93.2056 57.9278 93.342 58.3473C93.4784 58.7668 93.4673 59.2203 93.3105 59.6326L91.4045 64.6374C91.2299 65.0959 91.2299 65.6026 91.4046 66.0612L93.3105 71.0639C93.4674 71.4765 93.4787 71.9303 93.3423 72.3502C93.2058 72.7701 92.93 73.1307 92.5605 73.3722L88.0784 76.2897C87.667 76.5575 87.3684 76.9673 87.2396 77.441L85.8334 82.6118C85.7187 83.0381 85.4613 83.4123 85.1042 83.672C84.7471 83.9317 84.3118 84.0612 83.8709 84.0389L78.5233 83.7726C78.0333 83.7482 77.5514 83.9047 77.1693 84.2124L73 87.5701" stroke="#FA0056" stroke-width="4" stroke-linecap="round"/>
</g>
<g filter="url(#filter1_ddd_620_1165)">
<path d="M46.5625 82.3105L50.0125 87.746" stroke="#FA0056" stroke-width="4" stroke-linecap="round" shape-rendering="crispEdges"/>
</g>
<g filter="url(#filter2_ddd_620_1165)">
<path d="M65.6416 58.0977L78.7541 78.756" stroke="#FA0056" stroke-width="4" stroke-linecap="round" shape-rendering="crispEdges"/>
</g>
<g filter="url(#filter3_ddd_620_1165)">
<path d="M76 77.2706L50.8146 85.125M49 82.2751L65.7185 61.125" stroke="#FA0056" stroke-width="4" stroke-linecap="round"/>
</g>
<g filter="url(#filter4_ddd_620_1165)">
<path d="M55.5332 84.7163L57.3582 87.5204C57.66 88.0151 58.0596 88.443 58.5327 88.7776C59.0058 89.1122 59.5423 89.3466 60.1093 89.4664C60.6762 89.5862 61.2617 89.5889 61.8297 89.4742C62.3977 89.3595 62.9363 89.13 63.4124 88.7996C64.3857 88.0992 65.0544 87.0532 65.2818 85.8758C65.5091 84.6985 65.2778 83.4787 64.6353 82.4663L64.2957 81.9746" stroke="#FA0056" stroke-width="4" stroke-linecap="round"/>
</g>
<g opacity="0.8" filter="url(#filter5_f_620_1165)">
<path d="M51.525 67.7909L52.1867 66.0555C52.3617 65.5966 52.3617 65.0894 52.1868 64.6306L50.2792 59.6264C50.1227 59.214 50.1118 58.7606 50.2482 58.3412C50.3846 57.9218 50.6601 57.5615 51.0292 57.3201L55.512 54.393C55.923 54.1246 56.2209 53.7146 56.3491 53.2408L57.748 48.0722C57.8634 47.6464 58.121 47.2729 58.478 47.0137C58.835 46.7545 59.2698 46.6252 59.7105 46.6472L65.0557 46.9188C65.5471 46.9438 66.0305 46.7868 66.4133 46.4778L70.5813 43.1139C70.925 42.8367 71.3533 42.6855 71.7948 42.6855C72.2364 42.6855 72.6646 42.8367 73.0084 43.1139L77.1772 46.4785C77.5596 46.7871 78.0421 46.9441 78.5328 46.9197L83.8792 46.6534C84.3198 46.6314 84.7547 46.7607 85.1117 47.0199C85.4687 47.2792 85.7263 47.6527 85.8417 48.0784L87.2406 53.2471C87.3688 53.7208 87.6667 54.1309 88.0776 54.3992L92.5605 57.3264C92.9298 57.5675 93.2056 57.9278 93.342 58.3473C93.4784 58.7668 93.4673 59.2203 93.3105 59.6326L91.4045 64.6374C91.2299 65.0959 91.2299 65.6026 91.4046 66.0612L93.3105 71.0639C93.4674 71.4765 93.4787 71.9303 93.3423 72.3502C93.2058 72.7701 92.93 73.1307 92.5605 73.3722L88.0784 76.2897C87.667 76.5575 87.3684 76.9673 87.2396 77.441L85.8334 82.6118C85.7187 83.0381 85.4613 83.4123 85.1042 83.672C84.7471 83.9317 84.3118 84.0612 83.8709 84.0389L78.5233 83.7726C78.0333 83.7482 77.5514 83.9047 77.1693 84.2124L73 87.5701" stroke="white" stroke-width="3" stroke-linecap="round"/>
</g>
<g opacity="0.8" filter="url(#filter6_f_620_1165)">
<path d="M46.5625 82.3105L50.0125 87.746" stroke="white" stroke-width="3" stroke-linecap="round"/>
</g>
<g opacity="0.8" filter="url(#filter7_f_620_1165)">
<path d="M65.6416 58.0977L78.7541 78.756" stroke="white" stroke-width="3" stroke-linecap="round"/>
</g>
<g opacity="0.8" filter="url(#filter8_f_620_1165)">
<path d="M76 77.2706L50.8146 85.125M49 82.2751L65.7185 61.125" stroke="white" stroke-width="3" stroke-linecap="round"/>
</g>
<g opacity="0.8" filter="url(#filter9_f_620_1165)">
<path d="M55.5332 84.7163L57.3582 87.5204C57.66 88.0151 58.0596 88.443 58.5327 88.7776C59.0058 89.1122 59.5423 89.3466 60.1093 89.4664C60.6762 89.5862 61.2617 89.5889 61.8297 89.4742C62.3977 89.3595 62.9363 89.13 63.4124 88.7996C64.3857 88.0992 65.0544 87.0532 65.2818 85.8758C65.5091 84.6985 65.2778 83.4787 64.6353 82.4663L64.2957 81.9746" stroke="white" stroke-width="3" stroke-linecap="round"/>
</g>
<defs>
<filter id="filter0_ddd_620_1165" x="4.15332" y="0.685547" width="135.284" height="136.885" filterUnits="userSpaceOnUse" color-interpolation-filters="sRGB">
<feFlood flood-opacity="0" result="BackgroundImageFix"/>
<feColorMatrix in="SourceAlpha" type="matrix" values="0 0 0 0 0 0 0 0 0 0 0 0 0 0 0 0 0 0 127 0" result="hardAlpha"/>
<feOffset dy="4"/>
<feGaussianBlur stdDeviation="22"/>
<feComposite in2="hardAlpha" operator="out"/>
<feColorMatrix type="matrix" values="0 0 0 0 0.941176 0 0 0 0 0.188235 0 0 0 0 0.356863 0 0 0 1 0"/>
<feBlend mode="normal" in2="BackgroundImageFix" result="effect1_dropShadow_620_1165"/>
<feColorMatrix in="SourceAlpha" type="matrix" values="0 0 0 0 0 0 0 0 0 0 0 0 0 0 0 0 0 0 127 0" result="hardAlpha"/>
<feOffset dy="4"/>
<feGaussianBlur stdDeviation="22"/>
<feComposite in2="hardAlpha" operator="out"/>
<feColorMatrix type="matrix" values="0 0 0 0 0.941176 0 0 0 0 0.188235 0 0 0 0 0.356863 0 0 0 1 0"/>
<feBlend mode="normal" in2="effect1_dropShadow_620_1165" result="effect2_dropShadow_620_1165"/>
<feColorMatrix in="SourceAlpha" type="matrix" values="0 0 0 0 0 0 0 0 0 0 0 0 0 0 0 0 0 0 127 0" result="hardAlpha"/>
<feOffset dy="4"/>
<feGaussianBlur stdDeviation="22"/>
<feComposite in2="hardAlpha" operator="out"/>
<feColorMatrix type="matrix" values="0 0 0 0 0.941176 0 0 0 0 0.188235 0 0 0 0 0.356863 0 0 0 1 0"/>
<feBlend mode="normal" in2="effect2_dropShadow_620_1165" result="effect3_dropShadow_620_1165"/>
<feBlend mode="normal" in="SourceGraphic" in2="effect3_dropShadow_620_1165" result="shape"/>
</filter>
<filter id="filter1_ddd_620_1165" x="0.562012" y="40.3105" width="95.4507" height="97.4355" filterUnits="userSpaceOnUse" color-interpolation-filters="sRGB">
<feFlood flood-opacity="0" result="BackgroundImageFix"/>
<feColorMatrix in="SourceAlpha" type="matrix" values="0 0 0 0 0 0 0 0 0 0 0 0 0 0 0 0 0 0 127 0" result="hardAlpha"/>
<feOffset dy="4"/>
<feGaussianBlur stdDeviation="22"/>
<feComposite in2="hardAlpha" operator="out"/>
<feColorMatrix type="matrix" values="0 0 0 0 0.941176 0 0 0 0 0.188235 0 0 0 0 0.356863 0 0 0 1 0"/>
<feBlend mode="normal" in2="BackgroundImageFix" result="effect1_dropShadow_620_1165"/>
<feColorMatrix in="SourceAlpha" type="matrix" values="0 0 0 0 0 0 0 0 0 0 0 0 0 0 0 0 0 0 127 0" result="hardAlpha"/>
<feOffset dy="4"/>
<feGaussianBlur stdDeviation="22"/>
<feComposite in2="hardAlpha" operator="out"/>
<feColorMatrix type="matrix" values="0 0 0 0 0.941176 0 0 0 0 0.188235 0 0 0 0 0.356863 0 0 0 1 0"/>
<feBlend mode="normal" in2="effect1_dropShadow_620_1165" result="effect2_dropShadow_620_1165"/>
<feColorMatrix in="SourceAlpha" type="matrix" values="0 0 0 0 0 0 0 0 0 0 0 0 0 0 0 0 0 0 127 0" result="hardAlpha"/>
<feOffset dy="4"/>
<feGaussianBlur stdDeviation="22"/>
<feComposite in2="hardAlpha" operator="out"/>
<feColorMatrix type="matrix" values="0 0 0 0 0.941176 0 0 0 0 0.188235 0 0 0 0 0.356863 0 0 0 1 0"/>
<feBlend mode="normal" in2="effect2_dropShadow_620_1165" result="effect3_dropShadow_620_1165"/>
<feBlend mode="normal" in="SourceGraphic" in2="effect3_dropShadow_620_1165" result="shape"/>
</filter>
<filter id="filter2_ddd_620_1165" x="19.6411" y="16.0977" width="105.113" height="112.658" filterUnits="userSpaceOnUse" color-interpolation-filters="sRGB">
<feFlood flood-opacity="0" result="BackgroundImageFix"/>
<feColorMatrix in="SourceAlpha" type="matrix" values="0 0 0 0 0 0 0 0 0 0 0 0 0 0 0 0 0 0 127 0" result="hardAlpha"/>
<feOffset dy="4"/>
<feGaussianBlur stdDeviation="22"/>
<feComposite in2="hardAlpha" operator="out"/>
<feColorMatrix type="matrix" values="0 0 0 0 0.941176 0 0 0 0 0.188235 0 0 0 0 0.356863 0 0 0 1 0"/>
<feBlend mode="normal" in2="BackgroundImageFix" result="effect1_dropShadow_620_1165"/>
<feColorMatrix in="SourceAlpha" type="matrix" values="0 0 0 0 0 0 0 0 0 0 0 0 0 0 0 0 0 0 127 0" result="hardAlpha"/>
<feOffset dy="4"/>
<feGaussianBlur stdDeviation="22"/>
<feComposite in2="hardAlpha" operator="out"/>
<feColorMatrix type="matrix" values="0 0 0 0 0.941176 0 0 0 0 0.188235 0 0 0 0 0.356863 0 0 0 1 0"/>
<feBlend mode="normal" in2="effect1_dropShadow_620_1165" result="effect2_dropShadow_620_1165"/>
<feColorMatrix in="SourceAlpha" type="matrix" values="0 0 0 0 0 0 0 0 0 0 0 0 0 0 0 0 0 0 127 0" result="hardAlpha"/>
<feOffset dy="4"/>
<feGaussianBlur stdDeviation="22"/>
<feComposite in2="hardAlpha" operator="out"/>
<feColorMatrix type="matrix" values="0 0 0 0 0.941176 0 0 0 0 0.188235 0 0 0 0 0.356863 0 0 0 1 0"/>
<feBlend mode="normal" in2="effect2_dropShadow_620_1165" result="effect3_dropShadow_620_1165"/>
<feBlend mode="normal" in="SourceGraphic" in2="effect3_dropShadow_620_1165" result="shape"/>
</filter>
<filter id="filter3_ddd_620_1165" x="3" y="19.125" width="119" height="116.001" filterUnits="userSpaceOnUse" color-interpolation-filters="sRGB">
<feFlood flood-opacity="0" result="BackgroundImageFix"/>
<feColorMatrix in="SourceAlpha" type="matrix" values="0 0 0 0 0 0 0 0 0 0 0 0 0 0 0 0 0 0 127 0" result="hardAlpha"/>
<feOffset dy="4"/>
<feGaussianBlur stdDeviation="22"/>
<feComposite in2="hardAlpha" operator="out"/>
<feColorMatrix type="matrix" values="0 0 0 0 0.941176 0 0 0 0 0.188235 0 0 0 0 0.356863 0 0 0 1 0"/>
<feBlend mode="normal" in2="BackgroundImageFix" result="effect1_dropShadow_620_1165"/>
<feColorMatrix in="SourceAlpha" type="matrix" values="0 0 0 0 0 0 0 0 0 0 0 0 0 0 0 0 0 0 127 0" result="hardAlpha"/>
<feOffset dy="4"/>
<feGaussianBlur stdDeviation="22"/>
<feComposite in2="hardAlpha" operator="out"/>
<feColorMatrix type="matrix" values="0 0 0 0 0.941176 0 0 0 0 0.188235 0 0 0 0 0.356863 0 0 0 1 0"/>
<feBlend mode="normal" in2="effect1_dropShadow_620_1165" result="effect2_dropShadow_620_1165"/>
<feColorMatrix in="SourceAlpha" type="matrix" values="0 0 0 0 0 0 0 0 0 0 0 0 0 0 0 0 0 0 127 0" result="hardAlpha"/>
<feOffset dy="4"/>
<feGaussianBlur stdDeviation="22"/>
<feComposite in2="hardAlpha" operator="out"/>
<feColorMatrix type="matrix" values="0 0 0 0 0.941176 0 0 0 0 0.188235 0 0 0 0 0.356863 0 0 0 1 0"/>
<feBlend mode="normal" in2="effect2_dropShadow_620_1165" result="effect3_dropShadow_620_1165"/>
<feBlend mode="normal" in="SourceGraphic" in2="effect3_dropShadow_620_1165" result="shape"/>
</filter>
<filter id="filter4_ddd_620_1165" x="9.5332" y="39.9746" width="101.834" height="99.584" filterUnits="userSpaceOnUse" color-interpolation-filters="sRGB">
<feFlood flood-opacity="0" result="BackgroundImageFix"/>
<feColorMatrix in="SourceAlpha" type="matrix" values="0 0 0 0 0 0 0 0 0 0 0 0 0 0 0 0 0 0 127 0" result="hardAlpha"/>
<feOffset dy="4"/>
<feGaussianBlur stdDeviation="22"/>
<feComposite in2="hardAlpha" operator="out"/>
<feColorMatrix type="matrix" values="0 0 0 0 0.941176 0 0 0 0 0.188235 0 0 0 0 0.356863 0 0 0 1 0"/>
<feBlend mode="normal" in2="BackgroundImageFix" result="effect1_dropShadow_620_1165"/>
<feColorMatrix in="SourceAlpha" type="matrix" values="0 0 0 0 0 0 0 0 0 0 0 0 0 0 0 0 0 0 127 0" result="hardAlpha"/>
<feOffset dy="4"/>
<feGaussianBlur stdDeviation="22"/>
<feComposite in2="hardAlpha" operator="out"/>
<feColorMatrix type="matrix" values="0 0 0 0 0.941176 0 0 0 0 0.188235 0 0 0 0 0.356863 0 0 0 1 0"/>
<feBlend mode="normal" in2="effect1_dropShadow_620_1165" result="effect2_dropShadow_620_1165"/>
<feColorMatrix in="SourceAlpha" type="matrix" values="0 0 0 0 0 0 0 0 0 0 0 0 0 0 0 0 0 0 127 0" result="hardAlpha"/>
<feOffset dy="4"/>
<feGaussianBlur stdDeviation="22"/>
<feComposite in2="hardAlpha" operator="out"/>
<feColorMatrix type="matrix" values="0 0 0 0 0.941176 0 0 0 0 0.188235 0 0 0 0 0.356863 0 0 0 1 0"/>
<feBlend mode="normal" in2="effect2_dropShadow_620_1165" result="effect3_dropShadow_620_1165"/>
<feBlend mode="normal" in="SourceGraphic" in2="effect3_dropShadow_620_1165" result="shape"/>
</filter>
<filter id="filter5_f_620_1165" x="47.6533" y="40.1855" width="48.2837" height="49.8848" filterUnits="userSpaceOnUse" color-interpolation-filters="sRGB">
<feFlood flood-opacity="0" result="BackgroundImageFix"/>
<feBlend mode="normal" in="SourceGraphic" in2="BackgroundImageFix" result="shape"/>
<feGaussianBlur stdDeviation="0.5" result="effect1_foregroundBlur_620_1165"/>
</filter>
<filter id="filter6_f_620_1165" x="44.0625" y="79.8105" width="8.4502" height="10.4355" filterUnits="userSpaceOnUse" color-interpolation-filters="sRGB">
<feFlood flood-opacity="0" result="BackgroundImageFix"/>
<feBlend mode="normal" in="SourceGraphic" in2="BackgroundImageFix" result="shape"/>
<feGaussianBlur stdDeviation="0.5" result="effect1_foregroundBlur_620_1165"/>
</filter>
<filter id="filter7_f_620_1165" x="63.1416" y="55.5977" width="18.1128" height="25.6582" filterUnits="userSpaceOnUse" color-interpolation-filters="sRGB">
<feFlood flood-opacity="0" result="BackgroundImageFix"/>
<feBlend mode="normal" in="SourceGraphic" in2="BackgroundImageFix" result="shape"/>
<feGaussianBlur stdDeviation="0.5" result="effect1_foregroundBlur_620_1165"/>
</filter>
<filter id="filter8_f_620_1165" x="46.5" y="58.625" width="32.0005" height="29" filterUnits="userSpaceOnUse" color-interpolation-filters="sRGB">
<feFlood flood-opacity="0" result="BackgroundImageFix"/>
<feBlend mode="normal" in="SourceGraphic" in2="BackgroundImageFix" result="shape"/>
<feGaussianBlur stdDeviation="0.5" result="effect1_foregroundBlur_620_1165"/>
</filter>
<filter id="filter9_f_620_1165" x="53.0332" y="79.4746" width="14.834" height="12.584" filterUnits="userSpaceOnUse" color-interpolation-filters="sRGB">
<feFlood flood-opacity="0" result="BackgroundImageFix"/>
<feBlend mode="normal" in="SourceGraphic" in2="BackgroundImageFix" result="shape"/>
<feGaussianBlur stdDeviation="0.5" result="effect1_foregroundBlur_620_1165"/>
</filter>
</defs>
</svg>
