<svg width="170" height="186" viewBox="0 0 170 186" fill="none" xmlns="http://www.w3.org/2000/svg">
<g filter="url(#filter0_dddf_562_1693)">
<path d="M122.636 88.3325C124.703 78.3455 122.692 67.9411 117.045 59.4082C111.399 50.8753 102.579 44.9128 92.5271 42.8324C82.4748 40.752 72.0132 42.7241 63.4437 48.3149C54.8742 53.9057 48.8987 62.6572 46.8318 72.6442C40.7704 101.932 73.477 134.88 73.477 134.88C73.477 134.88 101.704 123.576 115.683 103.74M82.1361 93.0403C89.1137 94.4844 95.9332 90.0353 97.3679 83.1031C98.8026 76.1708 94.3092 69.3804 87.3316 67.9364C80.354 66.4923 73.5345 70.9414 72.0998 77.8736C71.34 81.5453 72.2431 85.1772 74.2975 87.9959" stroke="#FA0056" stroke-width="4"/>
</g>
<g filter="url(#filter1_f_562_1693)">
<path d="M122.636 88.3325C124.703 78.3455 122.692 67.9411 117.045 59.4082C111.399 50.8753 102.579 44.9128 92.5271 42.8324C82.4748 40.752 72.0132 42.7241 63.4437 48.3149C54.8742 53.9057 48.8987 62.6572 46.8318 72.6442C40.7704 101.932 73.477 134.88 73.477 134.88C73.477 134.88 101.704 123.576 115.683 103.74M82.1361 93.0403C89.1137 94.4844 95.9332 90.0353 97.3679 83.1031C98.8026 76.1708 94.3092 69.3804 87.3316 67.9364C80.354 66.4923 73.5345 70.9414 72.0998 77.8736C71.34 81.5453 72.2431 85.1772 74.2975 87.9959" stroke="white" stroke-width="3"/>
</g>
<defs>
<filter id="filter0_dddf_562_1693" x="0.0859375" y="0.0244141" width="169.344" height="185.205" filterUnits="userSpaceOnUse" color-interpolation-filters="sRGB">
<feFlood flood-opacity="0" result="BackgroundImageFix"/>
<feColorMatrix in="SourceAlpha" type="matrix" values="0 0 0 0 0 0 0 0 0 0 0 0 0 0 0 0 0 0 127 0" result="hardAlpha"/>
<feOffset dy="4"/>
<feGaussianBlur stdDeviation="22"/>
<feComposite in2="hardAlpha" operator="out"/>
<feColorMatrix type="matrix" values="0 0 0 0 0.941176 0 0 0 0 0.188235 0 0 0 0 0.356863 0 0 0 1 0"/>
<feBlend mode="normal" in2="BackgroundImageFix" result="effect1_dropShadow_562_1693"/>
<feColorMatrix in="SourceAlpha" type="matrix" values="0 0 0 0 0 0 0 0 0 0 0 0 0 0 0 0 0 0 127 0" result="hardAlpha"/>
<feOffset dy="4"/>
<feGaussianBlur stdDeviation="22"/>
<feComposite in2="hardAlpha" operator="out"/>
<feColorMatrix type="matrix" values="0 0 0 0 0.941176 0 0 0 0 0.188235 0 0 0 0 0.356863 0 0 0 1 0"/>
<feBlend mode="normal" in2="effect1_dropShadow_562_1693" result="effect2_dropShadow_562_1693"/>
<feColorMatrix in="SourceAlpha" type="matrix" values="0 0 0 0 0 0 0 0 0 0 0 0 0 0 0 0 0 0 127 0" result="hardAlpha"/>
<feOffset dy="4"/>
<feGaussianBlur stdDeviation="22"/>
<feComposite in2="hardAlpha" operator="out"/>
<feColorMatrix type="matrix" values="0 0 0 0 0.941176 0 0 0 0 0.188235 0 0 0 0 0.356863 0 0 0 1 0"/>
<feBlend mode="normal" in2="effect2_dropShadow_562_1693" result="effect3_dropShadow_562_1693"/>
<feBlend mode="normal" in="SourceGraphic" in2="effect3_dropShadow_562_1693" result="shape"/>
<feGaussianBlur stdDeviation="2" result="effect4_foregroundBlur_562_1693"/>
</filter>
<filter id="filter1_f_562_1693" x="40.5859" y="36.5244" width="88.3438" height="104.118" filterUnits="userSpaceOnUse" color-interpolation-filters="sRGB">
<feFlood flood-opacity="0" result="BackgroundImageFix"/>
<feBlend mode="normal" in="SourceGraphic" in2="BackgroundImageFix" result="shape"/>
<feGaussianBlur stdDeviation="2" result="effect1_foregroundBlur_562_1693"/>
</filter>
</defs>
</svg>
