<svg width="28" height="59" viewBox="0 0 28 59" fill="none" xmlns="http://www.w3.org/2000/svg">
<path d="M27.2349 21.7835C20.2572 18.9971 12.0701 20.4832 6.48788 26.0561C-1.04804 33.5796 -1.04804 45.7471 6.48788 53.2706C12.0701 58.8435 20.2572 60.3296 27.2349 57.5432V48.6265C25.8394 49.2766 24.3508 49.6482 22.7692 49.6482C17.187 49.6482 12.7213 45.1898 12.7213 39.6169C12.7213 34.044 17.187 29.5856 22.7692 29.5856C24.3508 29.5856 25.9324 29.9572 27.2349 30.6073V21.7835Z" fill="white"/>
<path d="M24.074 12.8482C26.8225 10.0928 26.8225 5.53216 24.074 2.68177C21.3255 -0.07361 16.7763 -0.07361 13.933 2.68177C11.0897 5.43715 11.1845 9.99777 13.933 12.8482C16.7763 15.6035 21.3255 15.6035 24.074 12.8482Z" fill="white"/>
</svg>
