<svg width="27" height="59" viewBox="0 0 27 59" fill="none" xmlns="http://www.w3.org/2000/svg">
<path d="M26.7974 21.1805C19.8197 18.394 11.6326 19.8801 6.05038 25.4531C-1.48554 32.9765 -1.48554 45.1441 6.05038 52.6675C11.6326 58.2405 19.8197 59.7266 26.7974 56.9401L26.7974 48.0234C25.4019 48.6736 23.9133 49.0451 22.3317 49.0451C16.7495 49.0451 12.2838 44.5868 12.2838 39.0139C12.2838 33.4409 16.7495 28.9826 22.3317 28.9826C23.9133 28.9826 25.4949 29.3541 26.7974 30.0043V21.1805Z" fill="black"/>
<path d="M23.6365 12.2446C26.385 9.48927 26.385 4.92864 23.6365 2.07825C20.888 -0.677126 16.3388 -0.677126 13.4955 2.07825C10.6522 4.83363 10.747 9.39426 13.4955 12.2446C16.3388 15 20.888 15 23.6365 12.2446Z" fill="black"/>
</svg>
