<svg width="95" height="60" viewBox="0 0 95 60" fill="none" xmlns="http://www.w3.org/2000/svg">
<path d="M35.9917 36.6248H33V21.9553H33.4127C33.5158 21.9553 33.619 21.9553 33.7221 21.9553C33.8253 21.9553 33.9285 21.9553 34.0316 21.9553C34.238 21.9553 34.4443 21.9553 34.6506 22.0579C34.8569 22.0579 35.0633 22.1605 35.2696 22.2631C35.4759 22.3657 35.6823 22.5708 35.7854 22.776C35.8886 22.8786 35.9917 23.1863 35.9917 23.4941V36.6248Z" fill="white"/>
<path d="M47.7549 32.1112V21.9554H48.0644C48.1675 21.9554 48.2707 21.9554 48.3739 21.9554C48.477 21.9554 48.5802 21.9554 48.6833 21.9554C48.8897 21.9554 49.096 21.9554 49.3023 22.058C49.5087 22.058 49.715 22.1605 49.9213 22.2631C50.1276 22.3657 50.2308 22.5709 50.4371 22.776C50.5403 22.9812 50.6435 23.289 50.6435 23.6993V36.8301H48.0644L41.7714 26.982V36.7275H38.8828V21.9554C38.986 21.8528 39.1923 21.8528 39.3986 21.8528C39.605 21.8528 39.9144 21.8528 40.1208 21.8528C40.6366 21.8528 40.9461 21.9554 41.2556 22.058C41.5651 22.2631 41.7714 22.4683 41.9777 22.776L47.7549 32.1112Z" fill="white"/>
<path d="M56.933 24.3148H52.2907C52.2907 24.1096 52.2907 24.007 52.1875 23.9045C52.1875 23.8019 52.1875 23.5967 52.1875 23.4941C52.1875 23.0838 52.2907 22.776 52.6002 22.3657C52.9096 22.058 53.4255 21.8528 54.0444 21.8528H64.464C64.464 22.1605 64.5671 22.4683 64.5671 22.776C64.5671 23.1864 64.464 23.4941 64.1545 23.8019C63.845 24.1096 63.4323 24.3148 62.7102 24.3148H59.9248V36.6249H56.8299V24.3148H56.933Z" fill="white"/>
<path d="M74.0576 34.368C74.7797 34.368 75.2956 34.5732 75.5019 34.881C75.8114 35.1887 75.9145 35.599 75.9145 36.0094C75.9145 36.2145 75.9145 36.3171 75.9145 36.4197C75.9145 36.5223 75.9145 36.6249 75.9145 36.8301H66.3203V21.8528H75.605C75.605 22.058 75.605 22.1605 75.7082 22.2631C75.7082 22.3657 75.7082 22.4683 75.7082 22.6735C75.7082 23.1864 75.605 23.5967 75.2956 23.8019C74.9861 24.007 74.5734 24.2122 73.8513 24.2122H69.5184V27.8027H74.2639V30.1621H69.5184V34.2655H74.0576V34.368Z" fill="white"/>
<path d="M87.9866 26.1614C87.9866 26.7769 87.8835 27.2898 87.7803 27.8027C87.574 28.213 87.3677 28.6234 87.1613 29.0337C86.8518 29.3415 86.5423 29.6492 86.2329 29.957C85.9234 30.1621 85.5107 30.3673 85.2012 30.4699L88.8119 36.5223C88.5025 36.6249 88.193 36.7275 87.8835 36.8301C87.574 36.9327 87.2645 36.9327 86.955 36.9327C86.4392 36.9327 85.9234 36.8301 85.6139 36.6249C85.2012 36.4198 84.8917 36.0094 84.5822 35.4965L82.1063 31.0854H80.8683V36.6249H77.7734V21.9554C78.4956 21.8528 79.2177 21.8528 79.9399 21.8528C80.662 21.8528 81.281 21.7502 81.7968 21.7502C83.9633 21.7502 85.5107 22.1606 86.5423 22.8787C87.4708 23.5968 87.9866 24.6226 87.9866 26.1614ZM84.7886 26.3665C84.7886 25.4433 84.5822 24.8278 84.0664 24.4174C83.5506 24.1097 82.9316 23.9045 82.1063 23.9045C81.7968 23.9045 81.5905 23.9045 81.3842 23.9045C81.1778 23.9045 81.0747 23.9045 80.8683 23.9045V29.0337H81.9C82.8285 29.0337 83.4474 28.8285 83.9633 28.4182C84.5822 28.0079 84.7886 27.2898 84.7886 26.3665Z" fill="white"/>
<path d="M44.0385 57.1138C43.9353 57.2164 43.8322 57.3189 43.6258 57.4215C43.4195 57.5241 43.11 57.7293 42.8005 57.8319C42.491 57.9344 42.0784 58.037 41.5626 58.1396C41.0468 58.2422 40.5309 58.2422 39.912 58.2422C38.674 58.2422 37.6424 58.037 36.8171 57.6267C35.9917 57.2164 35.2696 56.7034 34.6506 55.9853C34.0316 55.2673 33.619 54.4466 33.4127 53.5233C33.1032 52.6001 33 51.5742 33 50.4458C33 49.3174 33.1032 48.2915 33.4127 47.3683C33.7221 46.445 34.1348 45.6244 34.7538 44.9063C35.3728 44.1882 36.0949 43.6753 36.9202 43.2649C37.7455 42.8546 38.7772 42.6494 40.0151 42.6494C40.6341 42.6494 41.1499 42.752 41.5626 42.8546C42.0784 42.9572 42.3879 43.0598 42.8005 43.2649C43.11 43.3675 43.4195 43.5727 43.6258 43.6753C43.8322 43.8804 44.0385 43.983 44.1417 44.0856C44.2448 44.1882 44.348 44.3933 44.4512 44.4959C44.5543 44.7011 44.5543 44.8037 44.5543 45.0088C44.5543 45.3166 44.4512 45.6244 44.2448 45.9321C44.0385 46.2399 43.729 46.5476 43.5227 46.7528C43.3164 46.5476 43.11 46.445 42.9037 46.2399C42.6974 46.0347 42.3879 45.9321 42.1816 45.7269C41.8721 45.6244 41.5626 45.4192 41.2531 45.4192C40.9436 45.3166 40.5309 45.3166 40.1183 45.3166C39.3961 45.3166 38.7772 45.4192 38.2613 45.7269C37.7455 46.0347 37.3329 46.445 37.0234 46.9579C36.7139 47.4709 36.5076 47.9838 36.4044 48.5993C36.3012 49.2148 36.1981 49.8303 36.1981 50.5484C36.1981 51.2665 36.3012 51.882 36.4044 52.4975C36.5076 53.113 36.8171 53.7285 37.1265 54.1388C37.436 54.6518 37.8487 55.0621 38.3645 55.2673C38.8803 55.575 39.4993 55.6776 40.3246 55.6776C40.7373 55.6776 41.1499 55.575 41.4594 55.4724C41.7689 55.3698 42.0784 55.2673 42.3879 55.0621C42.6974 54.9595 42.9037 54.7543 43.11 54.5492C43.3164 54.344 43.5227 54.2414 43.6258 54.1388C43.729 54.2414 43.8322 54.344 43.9353 54.5492C44.0385 54.6518 44.1417 54.8569 44.2448 55.0621C44.348 55.2673 44.4512 55.3698 44.5543 55.575C44.6575 55.7802 44.6575 55.8828 44.6575 55.9853C44.6575 56.1905 44.6575 56.2931 44.5543 56.4983C44.348 56.806 44.2448 57.0112 44.0385 57.1138Z" fill="white"/>
<path d="M59.3035 50.5483C59.3035 51.5742 59.2003 52.6 58.8908 53.5233C58.6845 54.4465 58.2719 55.2672 57.6529 55.9853C57.1371 56.7034 56.4149 57.2163 55.5896 57.6266C54.7643 58.037 53.7327 58.2421 52.4947 58.2421C51.2567 58.2421 50.2251 58.037 49.3998 57.6266C48.5745 57.2163 47.8523 56.6008 47.3365 55.8827C46.8207 55.1646 46.408 54.3439 46.2017 53.4207C45.9954 52.4974 45.7891 51.4716 45.7891 50.4458C45.7891 49.4199 45.8922 48.3941 46.2017 47.4708C46.5112 46.5476 46.9239 45.7269 47.4397 45.0088C47.9555 44.2907 48.6776 43.7778 49.6061 43.3675C50.4314 42.9571 51.4631 42.752 52.701 42.752C53.8358 42.752 54.8675 42.9571 55.6928 43.3675C56.5181 43.7778 57.2402 44.2907 57.756 45.0088C58.2719 45.7269 58.6845 46.5476 58.8908 47.4708C59.2003 48.4967 59.3035 49.4199 59.3035 50.5483ZM56.2086 50.5483C56.2086 49.8303 56.1054 49.2147 56.0023 48.4967C55.8991 47.8812 55.6928 47.2657 55.3833 46.8553C55.0738 46.3424 54.7643 46.0346 54.2485 45.7269C53.8358 45.4191 53.2168 45.3166 52.5979 45.3166C51.8757 45.3166 51.3599 45.4191 50.8441 45.7269C50.3283 46.0346 50.0188 46.3424 49.7093 46.8553C49.3998 47.3682 49.1935 47.8812 49.0903 48.4967C48.9871 49.1122 48.884 49.8303 48.884 50.5483C48.884 51.2664 48.9871 51.8819 49.0903 52.6C49.1935 53.2155 49.3998 53.831 49.7093 54.344C50.0188 54.8569 50.3283 55.2672 50.8441 55.575C51.2567 55.8827 51.8757 55.9853 52.4947 55.9853C53.1137 55.9853 53.7327 55.8827 54.1453 55.575C54.558 55.2672 54.9706 54.8569 55.2801 54.344C55.5896 53.831 55.7959 53.3181 55.8991 52.6C56.1054 51.9845 56.2086 51.2664 56.2086 50.5483Z" fill="white"/>
<path d="M64.1572 43.0598C64.673 43.0598 64.9825 43.1624 65.292 43.3676C65.6015 43.5727 65.8078 43.8805 65.911 44.2908L69.3154 52.1898L72.7198 44.3934C72.9261 43.8805 73.2356 43.5727 73.5451 43.3676C73.8546 43.1624 74.1641 43.0598 74.5767 43.0598C74.8862 43.0598 75.1957 43.0598 75.5052 43.1624C75.8147 43.1624 76.021 43.265 76.1242 43.265L77.1558 57.9345H74.2672L73.5451 48.189L70.5534 54.857H67.9743L65.0857 48.3942L64.4667 57.9345H61.5781L62.7129 43.265C62.8161 43.265 63.1256 43.1624 63.3319 43.1624C63.5382 43.1624 63.8477 43.0598 64.1572 43.0598Z" fill="white"/>
<path d="M81.9994 43.0598C82.5152 43.0598 82.8247 43.1624 83.1342 43.3676C83.4437 43.5727 83.65 43.8805 83.7531 44.2908L87.1575 52.1898L90.5619 44.3934C90.7683 43.8805 91.0778 43.5727 91.3872 43.3676C91.6967 43.1624 92.0062 43.0598 92.4189 43.0598C92.7284 43.0598 93.0379 43.0598 93.3474 43.1624C93.6568 43.1624 93.8632 43.265 93.9663 43.265L94.998 57.9345H92.1094L91.3872 48.189L88.3955 54.857H85.9196L83.031 48.3942L82.412 57.9345H79.5234L80.6582 43.265C80.7614 43.265 81.0709 43.1624 81.2772 43.1624C81.3804 43.1624 81.6899 43.0598 81.9994 43.0598Z" fill="white"/>
<path d="M26.399 22.0198C19.4213 19.2334 11.2341 20.7195 5.65195 26.2924C-1.88398 33.8159 -1.88398 45.9834 5.65195 53.5069C11.2341 59.0798 19.4213 60.5659 26.399 57.7795V48.8628C25.0035 49.513 23.5149 49.8845 21.9333 49.8845C16.3511 49.8845 11.8854 45.4262 11.8854 39.8532C11.8854 34.2803 16.3511 29.8219 21.9333 29.8219C23.5149 29.8219 25.0965 30.1935 26.399 30.8437V22.0198Z" fill="white"/>
<path d="M23.2381 13.084C25.9866 10.3286 25.9866 5.768 23.2381 2.91761C20.4896 0.16223 15.9403 0.16223 13.0971 2.91761C10.2538 5.67299 10.3486 10.2336 13.0971 13.084C15.9403 15.8394 20.4896 15.8394 23.2381 13.084Z" fill="white"/>
</svg>
