<svg width="170" height="187" viewBox="0 0 170 187" fill="none" xmlns="http://www.w3.org/2000/svg">
<g filter="url(#filter0_dddf_627_2223)">
<path d="M123.41 80.4539C123.41 70.2553 119.333 60.4744 112.074 53.2629C104.815 46.0514 94.9705 42 84.7052 42C74.44 42 64.5951 46.0514 57.3365 53.2629C50.0779 60.4744 46 70.2553 46 80.4539C46 110.363 84.7052 135.998 84.7052 135.998C84.7052 135.998 110.055 119.208 119.724 96.9511M84.7052 93.2719C91.8307 93.2719 97.607 87.5331 97.607 80.4539C97.607 73.3747 91.8307 67.6359 84.7052 67.6359C77.5798 67.6359 71.8035 73.3747 71.8035 80.4539C71.8035 84.2034 73.4239 87.5769 76.007 89.9208" stroke="#FA0056" stroke-width="4"/>
</g>
<g filter="url(#filter1_f_627_2223)">
<path d="M123.41 80.4539C123.41 70.2553 119.333 60.4744 112.074 53.2629C104.815 46.0514 94.9705 42 84.7052 42C74.44 42 64.5951 46.0514 57.3365 53.2629C50.0779 60.4744 46 70.2553 46 80.4539C46 110.363 84.7052 135.998 84.7052 135.998C84.7052 135.998 110.055 119.208 119.724 96.9511M84.7052 93.2719C91.8307 93.2719 97.607 87.5331 97.607 80.4539C97.607 73.3747 91.8307 67.6359 84.7052 67.6359C77.5798 67.6359 71.8035 73.3747 71.8035 80.4539C71.8035 84.2034 73.4239 87.5769 76.007 89.9208" stroke="white" stroke-width="3"/>
</g>
<defs>
<filter id="filter0_dddf_627_2223" x="0" y="0" width="169.41" height="186.396" filterUnits="userSpaceOnUse" color-interpolation-filters="sRGB">
<feFlood flood-opacity="0" result="BackgroundImageFix"/>
<feColorMatrix in="SourceAlpha" type="matrix" values="0 0 0 0 0 0 0 0 0 0 0 0 0 0 0 0 0 0 127 0" result="hardAlpha"/>
<feOffset dy="4"/>
<feGaussianBlur stdDeviation="22"/>
<feComposite in2="hardAlpha" operator="out"/>
<feColorMatrix type="matrix" values="0 0 0 0 0.941176 0 0 0 0 0.188235 0 0 0 0 0.356863 0 0 0 1 0"/>
<feBlend mode="normal" in2="BackgroundImageFix" result="effect1_dropShadow_627_2223"/>
<feColorMatrix in="SourceAlpha" type="matrix" values="0 0 0 0 0 0 0 0 0 0 0 0 0 0 0 0 0 0 127 0" result="hardAlpha"/>
<feOffset dy="4"/>
<feGaussianBlur stdDeviation="22"/>
<feComposite in2="hardAlpha" operator="out"/>
<feColorMatrix type="matrix" values="0 0 0 0 0.941176 0 0 0 0 0.188235 0 0 0 0 0.356863 0 0 0 1 0"/>
<feBlend mode="normal" in2="effect1_dropShadow_627_2223" result="effect2_dropShadow_627_2223"/>
<feColorMatrix in="SourceAlpha" type="matrix" values="0 0 0 0 0 0 0 0 0 0 0 0 0 0 0 0 0 0 127 0" result="hardAlpha"/>
<feOffset dy="4"/>
<feGaussianBlur stdDeviation="22"/>
<feComposite in2="hardAlpha" operator="out"/>
<feColorMatrix type="matrix" values="0 0 0 0 0.941176 0 0 0 0 0.188235 0 0 0 0 0.356863 0 0 0 1 0"/>
<feBlend mode="normal" in2="effect2_dropShadow_627_2223" result="effect3_dropShadow_627_2223"/>
<feBlend mode="normal" in="SourceGraphic" in2="effect3_dropShadow_627_2223" result="shape"/>
<feGaussianBlur stdDeviation="2" result="effect4_foregroundBlur_627_2223"/>
</filter>
<filter id="filter1_f_627_2223" x="40.5" y="36.5" width="88.4102" height="105.297" filterUnits="userSpaceOnUse" color-interpolation-filters="sRGB">
<feFlood flood-opacity="0" result="BackgroundImageFix"/>
<feBlend mode="normal" in="SourceGraphic" in2="BackgroundImageFix" result="shape"/>
<feGaussianBlur stdDeviation="2" result="effect1_foregroundBlur_627_2223"/>
</filter>
</defs>
</svg>
