<svg width="1647" height="60" viewBox="0 0 1647 60" fill="none" xmlns="http://www.w3.org/2000/svg">
<rect width="1645.89" height="60.0047" transform="translate(0.234375)" fill="url(#paint0_linear_614_2559)"/>
<path d="M39.1612 35.1667H40.011L39.6415 42.0023H21.8319V41.1525C22.029 41.054 22.3246 40.8815 22.7187 40.6352C23.1374 40.3889 23.5685 40.1056 24.0119 39.7854C25.2436 38.8986 26.4013 37.8886 27.4852 36.7555C28.569 35.6224 29.5174 34.4154 30.3303 33.1345C31.1431 31.8536 31.7836 30.5727 32.2516 29.2917C32.7196 28.0108 32.9537 26.7915 32.9537 25.6338C32.9537 24.5253 32.6827 23.5892 32.1408 22.8256C31.6235 22.062 30.6751 21.6802 29.2957 21.6802C28.1379 21.6802 27.0664 22.0004 26.0811 22.6409C25.0958 23.2813 24.1228 24.2789 23.1621 25.6338L22.46 25.0426C23.47 22.4807 24.7386 20.5717 26.2658 19.3154C27.7931 18.0591 29.7021 17.431 31.993 17.431C33.3232 17.431 34.5179 17.6527 35.5771 18.0961C36.6363 18.5148 37.4738 19.1799 38.0896 20.0914C38.7301 20.9781 39.0503 22.1359 39.0503 23.5646C39.0503 26.1018 38.2374 28.4789 36.6116 30.6958C35.0105 32.9128 32.7689 34.9943 29.8869 36.9403V37.0142H35.2815C36.6855 37.0142 37.6585 36.8417 38.2005 36.4969C38.7424 36.152 39.0626 35.7086 39.1612 35.1667ZM54.8874 17.431C56.1683 17.431 57.4246 17.6773 58.6563 18.17C59.8879 18.6626 60.9964 19.4263 61.9817 20.4608C62.967 21.4954 63.743 22.801 64.3095 24.3775C64.9007 25.9294 65.1963 27.7768 65.1963 29.9199C65.1963 32.0383 64.913 33.8858 64.3465 35.4623C63.7799 37.0388 63.004 38.3567 62.0187 39.4159C61.0333 40.4751 59.9249 41.2633 58.6932 41.7806C57.4616 42.2979 56.1807 42.5566 54.8505 42.5566C53.5696 42.5566 52.3133 42.3102 51.0817 41.8176C49.85 41.3249 48.7415 40.5613 47.7562 39.5267C46.7709 38.4921 45.9826 37.1989 45.3914 35.647C44.8249 34.0705 44.5416 32.2107 44.5416 30.0677C44.5416 27.9493 44.8249 26.1018 45.3914 24.5253C45.958 22.9488 46.7339 21.6309 47.7193 20.5717C48.7046 19.5125 49.8131 18.7242 51.0447 18.2069C52.2763 17.6896 53.5573 17.431 54.8874 17.431ZM54.9983 40.9677C55.7126 40.9677 56.3654 40.6475 56.9566 40.0071C57.5478 39.3666 58.0158 38.2828 58.3607 36.7555C58.7302 35.2283 58.9149 33.1345 58.9149 30.4741C58.9149 28.1586 58.7548 26.151 58.4346 24.4514C58.139 22.7271 57.6833 21.3969 57.0674 20.4608C56.4516 19.5002 55.6757 19.0198 54.7396 19.0198C54.0499 19.0198 53.3971 19.3401 52.7813 19.9805C52.1901 20.621 51.7098 21.7048 51.3403 23.232C50.9954 24.7593 50.823 26.8531 50.823 29.5134C50.823 31.8289 50.9708 33.8488 51.2664 35.5731C51.5866 37.2728 52.0547 38.603 52.6705 39.5637C53.2863 40.4997 54.0622 40.9677 54.9983 40.9677ZM90.2757 30.8436L78.8214 31.8413L78.5627 28.8484L90.017 27.8507L90.2757 30.8436ZM118.869 35.1667H119.719L119.35 42.0023H101.54V41.1525C101.737 41.054 102.033 40.8815 102.427 40.6352C102.846 40.3889 103.277 40.1056 103.72 39.7854C104.952 38.8986 106.109 37.8886 107.193 36.7555C108.277 35.6224 109.226 34.4154 110.038 33.1345C110.851 31.8536 111.492 30.5727 111.96 29.2917C112.428 28.0108 112.662 26.7915 112.662 25.6338C112.662 24.5253 112.391 23.5892 111.849 22.8256C111.332 22.062 110.383 21.6802 109.004 21.6802C107.846 21.6802 106.775 22.0004 105.789 22.6409C104.804 23.2813 103.831 24.2789 102.87 25.6338L102.168 25.0426C103.178 22.4807 104.447 20.5717 105.974 19.3154C107.501 18.0591 109.41 17.431 111.701 17.431C113.031 17.431 114.226 17.6527 115.285 18.0961C116.344 18.5148 117.182 19.1799 117.798 20.0914C118.438 20.9781 118.758 22.1359 118.758 23.5646C118.758 26.1018 117.946 28.4789 116.32 30.6958C114.719 32.9128 112.477 34.9943 109.595 36.9403V37.0142H114.99C116.394 37.0142 117.367 36.8417 117.909 36.4969C118.451 36.152 118.771 35.7086 118.869 35.1667ZM133.967 37.9379C133.967 38.8493 134.041 39.539 134.189 40.0071C134.362 40.4505 134.706 40.746 135.224 40.8938C135.766 41.0416 136.579 41.1279 137.662 41.1525V42.0023H123.991V41.1525C125.1 41.1279 125.912 41.0416 126.43 40.8938C126.972 40.746 127.317 40.4505 127.464 40.0071C127.612 39.539 127.686 38.8493 127.686 37.9379V21.8649L124.287 23.971L123.511 22.7887L132.083 17.431H134.226C134.128 17.899 134.054 18.3671 134.004 18.8351C133.98 19.3031 133.967 19.7711 133.967 20.2392V37.9379ZM150.869 42.0023V41.1525C151.583 41.1032 152.101 40.9185 152.421 40.5982C152.741 40.278 152.901 39.5144 152.901 38.3074V21.1259C152.901 19.9189 152.716 19.1553 152.347 18.8351C152.002 18.4902 151.325 18.3055 150.315 18.2808V17.431H160.845V18.2808C160.131 18.3055 159.614 18.4902 159.293 18.8351C158.973 19.1553 158.813 19.9189 158.813 21.1259V27.666C159.01 27.5182 159.244 27.4196 159.515 27.3704C159.811 27.3211 160.155 27.2965 160.55 27.2965H167.533C168.198 27.2965 168.666 27.1856 168.937 26.9639C169.208 26.7422 169.344 26.2988 169.344 25.6338V21.1259C169.344 19.9189 169.159 19.1553 168.789 18.8351C168.444 18.4902 167.767 18.3055 166.757 18.2808V17.431H177.288V18.2808C176.573 18.3055 176.056 18.4902 175.736 18.8351C175.416 19.1553 175.255 19.9189 175.255 21.1259V38.3074C175.255 39.5144 175.44 40.278 175.81 40.5982C176.179 40.9185 176.857 41.1032 177.842 41.1525V42.0023H167.311V41.1525C168.026 41.1032 168.543 40.9185 168.863 40.5982C169.183 40.278 169.344 39.5144 169.344 38.3074V28.4789C169.146 28.6513 168.9 28.7621 168.605 28.8114C168.309 28.8607 167.976 28.8853 167.607 28.8853H160.624C159.958 28.8853 159.49 28.9961 159.219 29.2178C158.948 29.4395 158.813 29.8706 158.813 30.5111V38.3074C158.813 39.5144 158.998 40.278 159.367 40.5982C159.737 40.9185 160.414 41.1032 161.399 41.1525V42.0023H150.869ZM194.139 16.8768C195.888 16.8768 197.513 17.1724 199.016 17.7635C200.519 18.3547 201.849 19.2169 203.006 20.35C204.164 21.4585 205.063 22.801 205.704 24.3775C206.344 25.954 206.664 27.7152 206.664 29.6612C206.664 31.6072 206.344 33.3685 205.704 34.945C205.063 36.5215 204.164 37.8763 203.006 39.0094C201.873 40.1425 200.543 41.017 199.016 41.6328C197.489 42.2487 195.851 42.5566 194.102 42.5566C192.377 42.5566 190.752 42.261 189.224 41.6698C187.722 41.0786 186.392 40.2288 185.234 39.1203C184.076 37.9872 183.177 36.6323 182.536 35.0558C181.896 33.4793 181.576 31.7181 181.576 29.7721C181.576 27.8261 181.896 26.0648 182.536 24.4883C183.177 22.9118 184.064 21.557 185.197 20.4239C186.355 19.2908 187.697 18.4163 189.224 17.8005C190.752 17.1847 192.39 16.8768 194.139 16.8768ZM194.878 40.9677C196.158 40.9677 197.168 40.549 197.907 39.7115C198.646 38.8493 199.176 37.6669 199.496 36.1643C199.841 34.6617 200.014 32.9128 200.014 30.9175C200.014 26.9024 199.398 23.8232 198.166 21.6802C196.959 19.5371 195.358 18.4656 193.363 18.4656C192.106 18.4656 191.096 18.8843 190.333 19.7219C189.594 20.5594 189.052 21.7418 188.707 23.269C188.387 24.7716 188.227 26.5205 188.227 28.5158C188.227 32.531 188.83 35.6101 190.037 37.7531C191.269 39.8962 192.882 40.9677 194.878 40.9677ZM210.864 42.5566C210.248 42.5566 209.595 42.5073 208.905 42.4088C208.216 42.3102 207.624 42.1748 207.132 42.0023V41.1525C207.624 41.1525 208.179 40.9554 208.794 40.5613C209.41 40.1672 210.038 39.3789 210.679 38.1965L215.963 28.6267C214.312 28.2079 213.056 27.5305 212.194 26.5944C211.356 25.6584 210.938 24.5253 210.938 23.1951C210.938 22.1605 211.245 21.1875 211.861 20.2761C212.502 19.3647 213.536 18.638 214.965 18.0961C216.418 17.5295 218.364 17.2463 220.803 17.2463C221.591 17.2463 222.503 17.2832 223.537 17.3571C224.572 17.4064 225.717 17.431 226.974 17.431H231.703V18.2808C230.989 18.3055 230.471 18.4902 230.151 18.8351C229.831 19.1553 229.671 19.9189 229.671 21.1259V38.3074C229.671 39.5144 229.856 40.278 230.225 40.5982C230.595 40.9185 231.272 41.1032 232.257 41.1525V42.0023H221.727V41.1525C222.441 41.1032 222.958 40.9185 223.279 40.5982C223.599 40.278 223.759 39.5144 223.759 38.3074V21.1259C223.759 20.1653 223.587 19.5494 223.242 19.2785C222.921 18.9829 222.355 18.8351 221.542 18.8351C220.483 18.8351 219.522 19.2169 218.66 19.9805C217.822 20.7195 217.404 21.8403 217.404 23.3429C217.404 24.1312 217.564 24.8948 217.884 25.6338C218.204 26.3481 218.771 26.9516 219.584 27.4443C220.421 27.9369 221.567 28.2325 223.02 28.3311V29.6243C222.724 29.6243 222.466 29.6859 222.244 29.809C222.022 29.9076 221.801 30.1662 221.579 30.585L217.404 38.6399C216.837 39.7238 216.049 40.6475 215.039 41.4111C214.029 42.1748 212.637 42.5566 210.864 42.5566ZM243.934 27.2226H247.518C250.203 27.2226 252.321 27.5182 253.873 28.1094C255.425 28.7006 256.521 29.5134 257.161 30.548C257.827 31.5826 258.159 32.7773 258.159 34.1321C258.159 35.4869 257.79 36.7678 257.051 37.9748C256.336 39.1572 255.215 40.1302 253.688 40.8938C252.186 41.6328 250.264 42.0023 247.924 42.0023H235.99V41.1525C236.704 41.1032 237.221 40.9185 237.541 40.5982C237.862 40.278 238.022 39.5144 238.022 38.3074V21.1259C238.022 19.9189 237.837 19.1553 237.467 18.8351C237.123 18.4902 236.445 18.3055 235.435 18.2808V17.431H255.757V23.5276H254.908C254.834 22.6901 254.674 21.9388 254.427 21.2737C254.181 20.584 253.762 20.0421 253.171 19.648C252.58 19.2292 251.73 19.0198 250.621 19.0198H245.559C245.042 19.0198 244.636 19.1553 244.34 19.4263C244.069 19.6972 243.934 20.2638 243.934 21.1259V27.2226ZM246.114 40.4135C247.419 40.4135 248.491 40.1056 249.328 39.4898C250.19 38.8493 250.831 38.0611 251.25 37.125C251.668 36.189 251.878 35.2652 251.878 34.3538C251.878 32.999 251.619 31.9151 251.102 31.1023C250.609 30.2894 249.932 29.7105 249.07 29.3656C248.232 28.9961 247.284 28.8114 246.224 28.8114H243.934V38.3074C243.934 39.1695 244.069 39.7361 244.34 40.0071C244.611 40.278 245.202 40.4135 246.114 40.4135ZM262.078 42.0023V41.1525C262.792 41.1032 263.309 40.9185 263.63 40.5982C263.95 40.278 264.11 39.5144 264.11 38.3074V21.1259C264.11 19.9189 263.925 19.1553 263.556 18.8351C263.211 18.4902 262.533 18.3055 261.524 18.2808V17.431H264.11C265.908 17.431 267.596 17.4064 269.172 17.3571C270.749 17.2832 271.931 17.2463 272.719 17.2463C275.281 17.2463 277.301 17.5295 278.779 18.0961C280.282 18.6626 281.353 19.4139 281.993 20.35C282.659 21.2614 282.991 22.2714 282.991 23.3798C282.991 24.6608 282.572 25.8801 281.735 27.0378C280.922 28.1956 279.616 29.0947 277.818 29.7351C276.045 30.351 273.692 30.548 270.761 30.3263V29.0331C272.091 29.0824 273.187 28.8484 274.049 28.3311C274.912 27.7891 275.54 27.0748 275.934 26.188C276.353 25.3012 276.562 24.3528 276.562 23.3429C276.562 21.9881 276.18 20.9042 275.417 20.0914C274.653 19.2538 273.594 18.8351 272.239 18.8351C271.426 18.8351 270.847 18.9829 270.502 19.2785C270.182 19.5494 270.022 20.1653 270.022 21.1259V38.3074C270.022 39.0956 270.096 39.6991 270.244 40.1179C270.416 40.512 270.712 40.783 271.13 40.9308C271.574 41.054 272.19 41.1279 272.978 41.1525V42.0023H262.078ZM286.891 42.5566C286.275 42.5566 285.623 42.5073 284.933 42.4088C284.243 42.3102 283.652 42.1748 283.159 42.0023V41.1525C283.652 41.1525 284.206 40.9554 284.822 40.5613C285.438 40.1672 286.066 39.3789 286.707 38.1965L291.99 28.6267C290.34 28.2079 289.084 27.5305 288.221 26.5944C287.384 25.6584 286.965 24.5253 286.965 23.1951C286.965 22.1605 287.273 21.1875 287.889 20.2761C288.529 19.3647 289.564 18.638 290.993 18.0961C292.446 17.5295 294.392 17.2463 296.831 17.2463C297.619 17.2463 298.53 17.2832 299.565 17.3571C300.6 17.4064 301.745 17.431 303.001 17.431H307.731V18.2808C307.016 18.3055 306.499 18.4902 306.179 18.8351C305.859 19.1553 305.699 19.9189 305.699 21.1259V38.3074C305.699 39.5144 305.883 40.278 306.253 40.5982C306.622 40.9185 307.3 41.1032 308.285 41.1525V42.0023H297.754V41.1525C298.469 41.1032 298.986 40.9185 299.306 40.5982C299.627 40.278 299.787 39.5144 299.787 38.3074V21.1259C299.787 20.1653 299.614 19.5494 299.269 19.2785C298.949 18.9829 298.383 18.8351 297.57 18.8351C296.51 18.8351 295.55 19.2169 294.688 19.9805C293.85 20.7195 293.431 21.8403 293.431 23.3429C293.431 24.1312 293.591 24.8948 293.912 25.6338C294.232 26.3481 294.798 26.9516 295.611 27.4443C296.449 27.9369 297.594 28.2325 299.048 28.3311V29.6243C298.752 29.6243 298.493 29.6859 298.272 29.809C298.05 29.9076 297.828 30.1662 297.607 30.585L293.431 38.6399C292.865 39.7238 292.077 40.6475 291.067 41.4111C290.057 42.1748 288.665 42.5566 286.891 42.5566ZM337.643 35.1667H338.492L338.123 42.0023H320.313V41.1525C320.51 41.054 320.806 40.8815 321.2 40.6352C321.619 40.3889 322.05 40.1056 322.493 39.7854C323.725 38.8986 324.883 37.8886 325.967 36.7555C327.051 35.6224 327.999 34.4154 328.812 33.1345C329.625 31.8536 330.265 30.5727 330.733 29.2917C331.201 28.0108 331.435 26.7915 331.435 25.6338C331.435 24.5253 331.164 23.5892 330.622 22.8256C330.105 22.062 329.157 21.6802 327.777 21.6802C326.619 21.6802 325.548 22.0004 324.563 22.6409C323.577 23.2813 322.604 24.2789 321.644 25.6338L320.942 25.0426C321.952 22.4807 323.22 20.5717 324.747 19.3154C326.275 18.0591 328.184 17.431 330.474 17.431C331.805 17.431 332.999 17.6527 334.059 18.0961C335.118 18.5148 335.955 19.1799 336.571 20.0914C337.212 20.9781 337.532 22.1359 337.532 23.5646C337.532 26.1018 336.719 28.4789 335.093 30.6958C333.492 32.9128 331.25 34.9943 328.368 36.9403V37.0142H333.763C335.167 37.0142 336.14 36.8417 336.682 36.4969C337.224 36.152 337.544 35.7086 337.643 35.1667ZM353.369 17.431C354.65 17.431 355.906 17.6773 357.138 18.17C358.369 18.6626 359.478 19.4263 360.463 20.4608C361.449 21.4954 362.224 22.801 362.791 24.3775C363.382 25.9294 363.678 27.7768 363.678 29.9199C363.678 32.0383 363.395 33.8858 362.828 35.4623C362.261 37.0388 361.486 38.3567 360.5 39.4159C359.515 40.4751 358.406 41.2633 357.175 41.7806C355.943 42.2979 354.662 42.5566 353.332 42.5566C352.051 42.5566 350.795 42.3102 349.563 41.8176C348.332 41.3249 347.223 40.5613 346.238 39.5267C345.252 38.4921 344.464 37.1989 343.873 35.647C343.306 34.0705 343.023 32.2107 343.023 30.0677C343.023 27.9493 343.306 26.1018 343.873 24.5253C344.44 22.9488 345.215 21.6309 346.201 20.5717C347.186 19.5125 348.295 18.7242 349.526 18.2069C350.758 17.6896 352.039 17.431 353.369 17.431ZM353.48 40.9677C354.194 40.9677 354.847 40.6475 355.438 40.0071C356.029 39.3666 356.497 38.2828 356.842 36.7555C357.212 35.2283 357.396 33.1345 357.396 30.4741C357.396 28.1586 357.236 26.151 356.916 24.4514C356.621 22.7271 356.165 21.3969 355.549 20.4608C354.933 19.5002 354.157 19.0198 353.221 19.0198C352.531 19.0198 351.879 19.3401 351.263 19.9805C350.672 20.621 350.191 21.7048 349.822 23.232C349.477 24.7593 349.305 26.8531 349.305 29.5134C349.305 31.8289 349.452 33.8488 349.748 35.5731C350.068 37.2728 350.536 38.603 351.152 39.5637C351.768 40.4997 352.544 40.9677 353.48 40.9677ZM384.082 35.1667H384.932L384.562 42.0023H366.753V41.1525C366.95 41.054 367.245 40.8815 367.64 40.6352C368.058 40.3889 368.489 40.1056 368.933 39.7854C370.164 38.8986 371.322 37.8886 372.406 36.7555C373.49 35.6224 374.438 34.4154 375.251 33.1345C376.064 31.8536 376.704 30.5727 377.172 29.2917C377.64 28.0108 377.874 26.7915 377.874 25.6338C377.874 24.5253 377.604 23.5892 377.062 22.8256C376.544 22.062 375.596 21.6802 374.216 21.6802C373.059 21.6802 371.987 22.0004 371.002 22.6409C370.017 23.2813 369.044 24.2789 368.083 25.6338L367.381 25.0426C368.391 22.4807 369.659 20.5717 371.187 19.3154C372.714 18.0591 374.623 17.431 376.914 17.431C378.244 17.431 379.439 17.6527 380.498 18.0961C381.557 18.5148 382.395 19.1799 383.01 20.0914C383.651 20.9781 383.971 22.1359 383.971 23.5646C383.971 26.1018 383.158 28.4789 381.532 30.6958C379.931 32.9128 377.69 34.9943 374.808 36.9403V37.0142H380.202C381.606 37.0142 382.579 36.8417 383.121 36.4969C383.663 36.152 383.983 35.7086 384.082 35.1667ZM404.612 32.5802L407.198 32.5802V37.1989H405.646C404.957 37.1989 404.612 37.63 404.612 38.4921C404.612 39.0833 404.612 39.6622 404.612 40.2288C404.636 40.7707 404.661 41.3619 404.686 42.0023H398.848C398.897 41.1894 398.934 40.4012 398.958 39.6376C398.983 38.8493 399.008 38.0364 399.032 37.1989H387.356V36.3491C387.997 35.7332 388.576 35.0928 389.093 34.4277L401.175 19.3154C401.446 18.9706 401.693 18.638 401.914 18.3178C402.161 17.9729 402.358 17.6773 402.506 17.431H404.649L404.612 32.5802ZM398.958 24.8578L392.788 32.5802H399.069V24.8578H398.958ZM437.512 17.431V24.2666H436.662C436.539 23.1828 436.317 22.259 435.997 21.4954C435.702 20.7072 435.234 20.1037 434.593 19.6849C433.977 19.2415 433.115 19.0198 432.007 19.0198H430.27C429.753 19.0198 429.346 19.1553 429.051 19.4263C428.78 19.6972 428.644 20.2638 428.644 21.1259V38.3074C428.644 39.5144 428.829 40.278 429.199 40.5982C429.568 40.9185 430.245 41.1032 431.231 41.1525V42.0023H420.7V41.1525C421.415 41.1032 421.932 40.9185 422.252 40.5982C422.572 40.278 422.732 39.5144 422.732 38.3074V21.1259C422.732 19.9189 422.548 19.1553 422.178 18.8351C421.833 18.4902 421.156 18.3055 420.146 18.2808V17.431H437.512ZM452.315 16.8768C454.064 16.8768 455.69 17.1724 457.192 17.7635C458.695 18.3547 460.025 19.2169 461.183 20.35C462.341 21.4585 463.24 22.801 463.88 24.3775C464.521 25.954 464.841 27.7152 464.841 29.6612C464.841 31.6072 464.521 33.3685 463.88 34.945C463.24 36.5215 462.341 37.8763 461.183 39.0094C460.05 40.1425 458.72 41.017 457.192 41.6328C455.665 42.2487 454.027 42.5566 452.278 42.5566C450.554 42.5566 448.928 42.261 447.401 41.6698C445.898 41.0786 444.568 40.2288 443.41 39.1203C442.252 37.9872 441.353 36.6323 440.713 35.0558C440.072 33.4793 439.752 31.7181 439.752 29.7721C439.752 27.8261 440.072 26.0648 440.713 24.4883C441.353 22.9118 442.24 21.557 443.373 20.4239C444.531 19.2908 445.873 18.4163 447.401 17.8005C448.928 17.1847 450.566 16.8768 452.315 16.8768ZM453.054 40.9677C454.335 40.9677 455.345 40.549 456.084 39.7115C456.823 38.8493 457.352 37.6669 457.673 36.1643C458.018 34.6617 458.19 32.9128 458.19 30.9175C458.19 26.9024 457.574 23.8232 456.342 21.6802C455.135 19.5371 453.534 18.4656 451.539 18.4656C450.283 18.4656 449.273 18.8843 448.509 19.7219C447.77 20.5594 447.228 21.7418 446.883 23.269C446.563 24.7716 446.403 26.5205 446.403 28.5158C446.403 32.531 447.007 35.6101 448.214 37.7531C449.445 39.8962 451.059 40.9677 453.054 40.9677ZM480.864 20.35L486.997 38.3074C487.219 38.9478 487.539 39.539 487.958 40.081C488.402 40.5982 489.079 40.9554 489.99 41.1525L488.291 49.5769H487.441C487.392 48.0497 487.17 46.7195 486.776 45.5864C486.382 44.4533 485.889 43.5665 485.298 42.9261C484.707 42.3102 484.066 42.0023 483.376 42.0023H473.474C472.563 42.0023 471.663 42.3102 470.777 42.9261C469.915 43.5665 469.176 44.4533 468.56 45.5864C467.969 46.7195 467.587 48.0497 467.414 49.5769H466.564V41.1525C467.008 40.9554 467.439 40.6229 467.858 40.1549C468.276 39.6622 468.658 39.108 469.003 38.4921C469.373 37.8763 469.656 37.2974 469.853 36.7555L476.134 20.35C476.381 19.7095 476.615 19.0814 476.836 18.4656C477.058 17.8498 477.255 17.2216 477.428 16.5812H479.571C479.743 17.2216 479.94 17.8498 480.162 18.4656C480.408 19.0814 480.642 19.7095 480.864 20.35ZM479.312 40.4135C480.297 40.4135 480.839 40.2534 480.938 39.9332C481.036 39.6129 480.95 39.071 480.679 38.3074L476.356 25.0056H476.282L470.518 40.4135H479.312ZM512.602 38.3074C512.947 39.1449 513.23 39.7607 513.452 40.1549C513.698 40.549 513.957 40.8076 514.228 40.9308C514.499 41.0293 514.831 41.1032 515.226 41.1525V42.0023H504.917V41.1525C505.902 41.1032 506.444 40.8076 506.543 40.2657C506.666 39.7238 506.579 39.071 506.284 38.3074L504.436 33.504C504.289 33.6271 504.092 33.7134 503.845 33.7626C503.624 33.7872 503.377 33.7996 503.106 33.7996H498.931C498.414 33.7996 498.02 33.8611 497.749 33.9843C497.478 34.1075 497.244 34.4154 497.047 34.908L495.716 38.3074C495.396 39.1203 495.421 39.7854 495.79 40.3027C496.16 40.8199 496.886 41.1032 497.97 41.1525V42.0023H491.245V41.1525C491.787 41.1032 492.243 40.8323 492.613 40.3396C493.007 39.8223 493.364 39.1449 493.684 38.3074L500.778 20.35C501.049 19.7095 501.283 19.0814 501.48 18.4656C501.702 17.8498 501.899 17.2216 502.072 16.5812H504.215C504.387 17.2216 504.584 17.8498 504.806 18.4656C505.028 19.0814 505.262 19.7095 505.508 20.35L512.602 38.3074ZM502.921 32.2107C503.266 32.2107 503.488 32.1615 503.587 32.0629C503.71 31.9398 503.697 31.6935 503.55 31.324L501 25.0056H500.926L498.044 32.3585C498.167 32.2846 498.315 32.2477 498.488 32.2477C498.66 32.2231 498.857 32.2107 499.079 32.2107H502.921Z" fill="black"/>
<path d="M552.982 25.7899C549.298 24.3191 544.977 25.1035 542.03 28.0452C538.052 32.0164 538.052 38.439 542.03 42.4103C544.977 45.3519 549.298 46.1364 552.982 44.6655V39.9589C552.245 40.3021 551.459 40.4982 550.624 40.4982C547.678 40.4982 545.321 38.1449 545.321 35.2032C545.321 32.2615 547.678 29.9082 550.624 29.9082C551.459 29.9082 552.294 30.1043 552.982 30.4475V25.7899Z" fill="black"/>
<path d="M551.319 21.0732C552.77 19.6188 552.77 17.2115 551.319 15.707C549.868 14.2525 547.467 14.2525 545.966 15.707C544.465 17.1614 544.516 19.5687 545.966 21.0732C547.467 22.5276 549.868 22.5276 551.319 21.0732Z" fill="black"/>
<path d="M593.489 35.1667H594.339L593.97 42.0023H576.16V41.1525C576.357 41.054 576.653 40.8815 577.047 40.6352C577.466 40.3889 577.897 40.1056 578.34 39.7854C579.572 38.8986 580.729 37.8886 581.813 36.7555C582.897 35.6224 583.845 34.4154 584.658 33.1345C585.471 31.8536 586.112 30.5727 586.58 29.2917C587.048 28.0108 587.282 26.7915 587.282 25.6338C587.282 24.5253 587.011 23.5892 586.469 22.8256C585.952 22.062 585.003 21.6802 583.624 21.6802C582.466 21.6802 581.395 22.0004 580.409 22.6409C579.424 23.2813 578.451 24.2789 577.49 25.6338L576.788 25.0426C577.798 22.4807 579.067 20.5717 580.594 19.3154C582.121 18.0591 584.03 17.431 586.321 17.431C587.651 17.431 588.846 17.6527 589.905 18.0961C590.964 18.5148 591.802 19.1799 592.418 20.0914C593.058 20.9781 593.378 22.1359 593.378 23.5646C593.378 26.1018 592.566 28.4789 590.94 30.6958C589.339 32.9128 587.097 34.9943 584.215 36.9403V37.0142H589.61C591.014 37.0142 591.987 36.8417 592.529 36.4969C593.071 36.152 593.391 35.7086 593.489 35.1667ZM609.216 17.431C610.496 17.431 611.753 17.6773 612.984 18.17C614.216 18.6626 615.325 19.4263 616.31 20.4608C617.295 21.4954 618.071 22.801 618.638 24.3775C619.229 25.9294 619.524 27.7768 619.524 29.9199C619.524 32.0383 619.241 33.8858 618.675 35.4623C618.108 37.0388 617.332 38.3567 616.347 39.4159C615.361 40.4751 614.253 41.2633 613.021 41.7806C611.79 42.2979 610.509 42.5566 609.179 42.5566C607.898 42.5566 606.641 42.3102 605.41 41.8176C604.178 41.3249 603.07 40.5613 602.084 39.5267C601.099 38.4921 600.311 37.1989 599.72 35.647C599.153 34.0705 598.87 32.2107 598.87 30.0677C598.87 27.9493 599.153 26.1018 599.72 24.5253C600.286 22.9488 601.062 21.6309 602.047 20.5717C603.033 19.5125 604.141 18.7242 605.373 18.2069C606.604 17.6896 607.885 17.431 609.216 17.431ZM609.326 40.9677C610.041 40.9677 610.694 40.6475 611.285 40.0071C611.876 39.3666 612.344 38.2828 612.689 36.7555C613.058 35.2283 613.243 33.1345 613.243 30.4741C613.243 28.1586 613.083 26.151 612.763 24.4514C612.467 22.7271 612.011 21.3969 611.396 20.4608C610.78 19.5002 610.004 19.0198 609.068 19.0198C608.378 19.0198 607.725 19.3401 607.109 19.9805C606.518 20.621 606.038 21.7048 605.668 23.232C605.324 24.7593 605.151 26.8531 605.151 29.5134C605.151 31.8289 605.299 33.8488 605.595 35.5731C605.915 37.2728 606.383 38.603 606.999 39.5637C607.614 40.4997 608.39 40.9677 609.326 40.9677ZM644.604 30.8436L633.15 31.8413L632.891 28.8484L644.345 27.8507L644.604 30.8436ZM673.197 35.1667H674.047L673.678 42.0023H655.868V41.1525C656.065 41.054 656.361 40.8815 656.755 40.6352C657.174 40.3889 657.605 40.1056 658.048 39.7854C659.28 38.8986 660.438 37.8886 661.521 36.7555C662.605 35.6224 663.554 34.4154 664.367 33.1345C665.179 31.8536 665.82 30.5727 666.288 29.2917C666.756 28.0108 666.99 26.7915 666.99 25.6338C666.99 24.5253 666.719 23.5892 666.177 22.8256C665.66 22.062 664.711 21.6802 663.332 21.6802C662.174 21.6802 661.103 22.0004 660.117 22.6409C659.132 23.2813 658.159 24.2789 657.198 25.6338L656.496 25.0426C657.506 22.4807 658.775 20.5717 660.302 19.3154C661.829 18.0591 663.738 17.431 666.029 17.431C667.359 17.431 668.554 17.6527 669.613 18.0961C670.673 18.5148 671.51 19.1799 672.126 20.0914C672.766 20.9781 673.087 22.1359 673.087 23.5646C673.087 26.1018 672.274 28.4789 670.648 30.6958C669.047 32.9128 666.805 34.9943 663.923 36.9403V37.0142H669.318C670.722 37.0142 671.695 36.8417 672.237 36.4969C672.779 36.152 673.099 35.7086 673.197 35.1667ZM688.296 37.9379C688.296 38.8493 688.369 39.539 688.517 40.0071C688.69 40.4505 689.035 40.746 689.552 40.8938C690.094 41.0416 690.907 41.1279 691.99 41.1525V42.0023H678.319V41.1525C679.428 41.1279 680.241 41.0416 680.758 40.8938C681.3 40.746 681.645 40.4505 681.792 40.0071C681.94 39.539 682.014 38.8493 682.014 37.9379V21.8649L678.615 23.971L677.839 22.7887L686.411 17.431H688.554C688.456 17.899 688.382 18.3671 688.333 18.8351C688.308 19.3031 688.296 19.7711 688.296 20.2392V37.9379ZM705.197 42.0023V41.1525C705.911 41.1032 706.429 40.9185 706.749 40.5982C707.069 40.278 707.229 39.5144 707.229 38.3074V21.1259C707.229 19.9189 707.044 19.1553 706.675 18.8351C706.33 18.4902 705.653 18.3055 704.643 18.2808V17.431H715.173V18.2808C714.459 18.3055 713.942 18.4902 713.621 18.8351C713.301 19.1553 713.141 19.9189 713.141 21.1259V27.666C713.338 27.5182 713.572 27.4196 713.843 27.3704C714.139 27.3211 714.484 27.2965 714.878 27.2965H721.861C722.526 27.2965 722.994 27.1856 723.265 26.9639C723.536 26.7422 723.672 26.2988 723.672 25.6338V21.1259C723.672 19.9189 723.487 19.1553 723.117 18.8351C722.773 18.4902 722.095 18.3055 721.085 18.2808V17.431H731.616V18.2808C730.901 18.3055 730.384 18.4902 730.064 18.8351C729.744 19.1553 729.584 19.9189 729.584 21.1259V38.3074C729.584 39.5144 729.768 40.278 730.138 40.5982C730.507 40.9185 731.185 41.1032 732.17 41.1525V42.0023H721.639V41.1525C722.354 41.1032 722.871 40.9185 723.191 40.5982C723.512 40.278 723.672 39.5144 723.672 38.3074V28.4789C723.475 28.6513 723.228 28.7621 722.933 28.8114C722.637 28.8607 722.305 28.8853 721.935 28.8853H714.952C714.287 28.8853 713.819 28.9961 713.548 29.2178C713.277 29.4395 713.141 29.8706 713.141 30.5111V38.3074C713.141 39.5144 713.326 40.278 713.695 40.5982C714.065 40.9185 714.742 41.1032 715.728 41.1525V42.0023H705.197ZM748.467 16.8768C750.216 16.8768 751.841 17.1724 753.344 17.7635C754.847 18.3547 756.177 19.2169 757.335 20.35C758.492 21.4585 759.391 22.801 760.032 24.3775C760.672 25.954 760.993 27.7152 760.993 29.6612C760.993 31.6072 760.672 33.3685 760.032 34.945C759.391 36.5215 758.492 37.8763 757.335 39.0094C756.201 40.1425 754.871 41.017 753.344 41.6328C751.817 42.2487 750.179 42.5566 748.43 42.5566C746.705 42.5566 745.08 42.261 743.552 41.6698C742.05 41.0786 740.72 40.2288 739.562 39.1203C738.404 37.9872 737.505 36.6323 736.865 35.0558C736.224 33.4793 735.904 31.7181 735.904 29.7721C735.904 27.8261 736.224 26.0648 736.865 24.4883C737.505 22.9118 738.392 21.557 739.525 20.4239C740.683 19.2908 742.025 18.4163 743.552 17.8005C745.08 17.1847 746.718 16.8768 748.467 16.8768ZM749.206 40.9677C750.487 40.9677 751.497 40.549 752.236 39.7115C752.975 38.8493 753.504 37.6669 753.824 36.1643C754.169 34.6617 754.342 32.9128 754.342 30.9175C754.342 26.9024 753.726 23.8232 752.494 21.6802C751.287 19.5371 749.686 18.4656 747.691 18.4656C746.434 18.4656 745.425 18.8843 744.661 19.7219C743.922 20.5594 743.38 21.7418 743.035 23.269C742.715 24.7716 742.555 26.5205 742.555 28.5158C742.555 32.531 743.158 35.6101 744.365 37.7531C745.597 39.8962 747.21 40.9677 749.206 40.9677ZM765.192 42.5566C764.576 42.5566 763.923 42.5073 763.233 42.4088C762.544 42.3102 761.953 42.1748 761.46 42.0023V41.1525C761.953 41.1525 762.507 40.9554 763.123 40.5613C763.738 40.1672 764.367 39.3789 765.007 38.1965L770.291 28.6267C768.64 28.2079 767.384 27.5305 766.522 26.5944C765.684 25.6584 765.266 24.5253 765.266 23.1951C765.266 22.1605 765.574 21.1875 766.189 20.2761C766.83 19.3647 767.864 18.638 769.293 18.0961C770.747 17.5295 772.693 17.2463 775.131 17.2463C775.919 17.2463 776.831 17.2832 777.865 17.3571C778.9 17.4064 780.045 17.431 781.302 17.431H786.031V18.2808C785.317 18.3055 784.8 18.4902 784.479 18.8351C784.159 19.1553 783.999 19.9189 783.999 21.1259V38.3074C783.999 39.5144 784.184 40.278 784.553 40.5982C784.923 40.9185 785.6 41.1032 786.585 41.1525V42.0023H776.055V41.1525C776.769 41.1032 777.287 40.9185 777.607 40.5982C777.927 40.278 778.087 39.5144 778.087 38.3074V21.1259C778.087 20.1653 777.915 19.5494 777.57 19.2785C777.25 18.9829 776.683 18.8351 775.87 18.8351C774.811 18.8351 773.85 19.2169 772.988 19.9805C772.151 20.7195 771.732 21.8403 771.732 23.3429C771.732 24.1312 771.892 24.8948 772.212 25.6338C772.532 26.3481 773.099 26.9516 773.912 27.4443C774.749 27.9369 775.895 28.2325 777.348 28.3311V29.6243C777.053 29.6243 776.794 29.6859 776.572 29.809C776.35 29.9076 776.129 30.1662 775.907 30.585L771.732 38.6399C771.165 39.7238 770.377 40.6475 769.367 41.4111C768.357 42.1748 766.965 42.5566 765.192 42.5566ZM798.262 27.2226H801.846C804.531 27.2226 806.649 27.5182 808.201 28.1094C809.753 28.7006 810.849 29.5134 811.49 30.548C812.155 31.5826 812.487 32.7773 812.487 34.1321C812.487 35.4869 812.118 36.7678 811.379 37.9748C810.664 39.1572 809.544 40.1302 808.016 40.8938C806.514 41.6328 804.592 42.0023 802.252 42.0023H790.318V41.1525C791.032 41.1032 791.549 40.9185 791.87 40.5982C792.19 40.278 792.35 39.5144 792.35 38.3074V21.1259C792.35 19.9189 792.165 19.1553 791.796 18.8351C791.451 18.4902 790.773 18.3055 789.763 18.2808V17.431H810.086V23.5276H809.236C809.162 22.6901 809.002 21.9388 808.755 21.2737C808.509 20.584 808.09 20.0421 807.499 19.648C806.908 19.2292 806.058 19.0198 804.95 19.0198H799.888C799.37 19.0198 798.964 19.1553 798.668 19.4263C798.397 19.6972 798.262 20.2638 798.262 21.1259V27.2226ZM800.442 40.4135C801.747 40.4135 802.819 40.1056 803.656 39.4898C804.519 38.8493 805.159 38.0611 805.578 37.125C805.996 36.189 806.206 35.2652 806.206 34.3538C806.206 32.999 805.947 31.9151 805.43 31.1023C804.937 30.2894 804.26 29.7105 803.398 29.3656C802.56 28.9961 801.612 28.8114 800.553 28.8114H798.262V38.3074C798.262 39.1695 798.397 39.7361 798.668 40.0071C798.939 40.278 799.53 40.4135 800.442 40.4135ZM816.406 42.0023V41.1525C817.12 41.1032 817.638 40.9185 817.958 40.5982C818.278 40.278 818.438 39.5144 818.438 38.3074V21.1259C818.438 19.9189 818.253 19.1553 817.884 18.8351C817.539 18.4902 816.862 18.3055 815.852 18.2808V17.431H818.438C820.236 17.431 821.924 17.4064 823.5 17.3571C825.077 17.2832 826.259 17.2463 827.047 17.2463C829.609 17.2463 831.629 17.5295 833.107 18.0961C834.61 18.6626 835.681 19.4139 836.322 20.35C836.987 21.2614 837.319 22.2714 837.319 23.3798C837.319 24.6608 836.9 25.8801 836.063 27.0378C835.25 28.1956 833.945 29.0947 832.146 29.7351C830.373 30.351 828.02 30.548 825.089 30.3263V29.0331C826.419 29.0824 827.515 28.8484 828.378 28.3311C829.24 27.7891 829.868 27.0748 830.262 26.188C830.681 25.3012 830.89 24.3528 830.89 23.3429C830.89 21.9881 830.508 20.9042 829.745 20.0914C828.981 19.2538 827.922 18.8351 826.567 18.8351C825.754 18.8351 825.175 18.9829 824.83 19.2785C824.51 19.5494 824.35 20.1653 824.35 21.1259V38.3074C824.35 39.0956 824.424 39.6991 824.572 40.1179C824.744 40.512 825.04 40.783 825.459 40.9308C825.902 41.054 826.518 41.1279 827.306 41.1525V42.0023H816.406ZM841.219 42.5566C840.604 42.5566 839.951 42.5073 839.261 42.4088C838.571 42.3102 837.98 42.1748 837.488 42.0023V41.1525C837.98 41.1525 838.534 40.9554 839.15 40.5613C839.766 40.1672 840.394 39.3789 841.035 38.1965L846.318 28.6267C844.668 28.2079 843.412 27.5305 842.55 26.5944C841.712 25.6584 841.293 24.5253 841.293 23.1951C841.293 22.1605 841.601 21.1875 842.217 20.2761C842.858 19.3647 843.892 18.638 845.321 18.0961C846.774 17.5295 848.72 17.2463 851.159 17.2463C851.947 17.2463 852.858 17.2832 853.893 17.3571C854.928 17.4064 856.073 17.431 857.329 17.431H862.059V18.2808C861.345 18.3055 860.827 18.4902 860.507 18.8351C860.187 19.1553 860.027 19.9189 860.027 21.1259V38.3074C860.027 39.5144 860.211 40.278 860.581 40.5982C860.95 40.9185 861.628 41.1032 862.613 41.1525V42.0023H852.083V41.1525C852.797 41.1032 853.314 40.9185 853.634 40.5982C853.955 40.278 854.115 39.5144 854.115 38.3074V21.1259C854.115 20.1653 853.942 19.5494 853.597 19.2785C853.277 18.9829 852.711 18.8351 851.898 18.8351C850.839 18.8351 849.878 19.2169 849.016 19.9805C848.178 20.7195 847.759 21.8403 847.759 23.3429C847.759 24.1312 847.92 24.8948 848.24 25.6338C848.56 26.3481 849.127 26.9516 849.939 27.4443C850.777 27.9369 851.922 28.2325 853.376 28.3311V29.6243C853.08 29.6243 852.822 29.6859 852.6 29.809C852.378 29.9076 852.156 30.1662 851.935 30.585L847.759 38.6399C847.193 39.7238 846.405 40.6475 845.395 41.4111C844.385 42.1748 842.993 42.5566 841.219 42.5566ZM891.971 35.1667H892.821L892.451 42.0023H874.642V41.1525C874.839 41.054 875.134 40.8815 875.528 40.6352C875.947 40.3889 876.378 40.1056 876.822 39.7854C878.053 38.8986 879.211 37.8886 880.295 36.7555C881.379 35.6224 882.327 34.4154 883.14 33.1345C883.953 31.8536 884.593 30.5727 885.061 29.2917C885.529 28.0108 885.763 26.7915 885.763 25.6338C885.763 24.5253 885.492 23.5892 884.95 22.8256C884.433 22.062 883.485 21.6802 882.105 21.6802C880.948 21.6802 879.876 22.0004 878.891 22.6409C877.905 23.2813 876.932 24.2789 875.972 25.6338L875.27 25.0426C876.28 22.4807 877.548 20.5717 879.075 19.3154C880.603 18.0591 882.512 17.431 884.803 17.431C886.133 17.431 887.327 17.6527 888.387 18.0961C889.446 18.5148 890.283 19.1799 890.899 20.0914C891.54 20.9781 891.86 22.1359 891.86 23.5646C891.86 26.1018 891.047 28.4789 889.421 30.6958C887.82 32.9128 885.579 34.9943 882.697 36.9403V37.0142H888.091C889.495 37.0142 890.468 36.8417 891.01 36.4969C891.552 36.152 891.872 35.7086 891.971 35.1667ZM907.697 17.431C908.978 17.431 910.234 17.6773 911.466 18.17C912.698 18.6626 913.806 19.4263 914.791 20.4608C915.777 21.4954 916.553 22.801 917.119 24.3775C917.71 25.9294 918.006 27.7768 918.006 29.9199C918.006 32.0383 917.723 33.8858 917.156 35.4623C916.59 37.0388 915.814 38.3567 914.828 39.4159C913.843 40.4751 912.735 41.2633 911.503 41.7806C910.271 42.2979 908.99 42.5566 907.66 42.5566C906.379 42.5566 905.123 42.3102 903.891 41.8176C902.66 41.3249 901.551 40.5613 900.566 39.5267C899.581 38.4921 898.792 37.1989 898.201 35.647C897.635 34.0705 897.351 32.2107 897.351 30.0677C897.351 27.9493 897.635 26.1018 898.201 24.5253C898.768 22.9488 899.544 21.6309 900.529 20.5717C901.514 19.5125 902.623 18.7242 903.854 18.2069C905.086 17.6896 906.367 17.431 907.697 17.431ZM907.808 40.9677C908.522 40.9677 909.175 40.6475 909.766 40.0071C910.357 39.3666 910.825 38.2828 911.17 36.7555C911.54 35.2283 911.725 33.1345 911.725 30.4741C911.725 28.1586 911.564 26.151 911.244 24.4514C910.949 22.7271 910.493 21.3969 909.877 20.4608C909.261 19.5002 908.485 19.0198 907.549 19.0198C906.86 19.0198 906.207 19.3401 905.591 19.9805C905 20.621 904.519 21.7048 904.15 23.232C903.805 24.7593 903.633 26.8531 903.633 29.5134C903.633 31.8289 903.78 33.8488 904.076 35.5731C904.396 37.2728 904.864 38.603 905.48 39.5637C906.096 40.4997 906.872 40.9677 907.808 40.9677ZM938.41 35.1667H939.26L938.89 42.0023H921.081V41.1525C921.278 41.054 921.574 40.8815 921.968 40.6352C922.386 40.3889 922.817 40.1056 923.261 39.7854C924.493 38.8986 925.65 37.8886 926.734 36.7555C927.818 35.6224 928.766 34.4154 929.579 33.1345C930.392 31.8536 931.033 30.5727 931.501 29.2917C931.969 28.0108 932.203 26.7915 932.203 25.6338C932.203 24.5253 931.932 23.5892 931.39 22.8256C930.872 22.062 929.924 21.6802 928.545 21.6802C927.387 21.6802 926.315 22.0004 925.33 22.6409C924.345 23.2813 923.372 24.2789 922.411 25.6338L921.709 25.0426C922.719 22.4807 923.988 20.5717 925.515 19.3154C927.042 18.0591 928.951 17.431 931.242 17.431C932.572 17.431 933.767 17.6527 934.826 18.0961C935.885 18.5148 936.723 19.1799 937.339 20.0914C937.979 20.9781 938.299 22.1359 938.299 23.5646C938.299 26.1018 937.486 28.4789 935.861 30.6958C934.259 32.9128 932.018 34.9943 929.136 36.9403V37.0142H934.53C935.934 37.0142 936.907 36.8417 937.449 36.4969C937.991 36.152 938.312 35.7086 938.41 35.1667ZM958.94 32.5802L961.526 32.5802V37.1989H959.974C959.285 37.1989 958.94 37.63 958.94 38.4921C958.94 39.0833 958.94 39.6622 958.94 40.2288C958.964 40.7707 958.989 41.3619 959.014 42.0023H953.176C953.225 41.1894 953.262 40.4012 953.287 39.6376C953.311 38.8493 953.336 38.0364 953.36 37.1989H941.684V36.3491C942.325 35.7332 942.904 35.0928 943.421 34.4277L955.503 19.3154C955.774 18.9706 956.021 18.638 956.242 18.3178C956.489 17.9729 956.686 17.6773 956.834 17.431H958.977L958.94 32.5802ZM953.287 24.8578L947.116 32.5802H953.397V24.8578H953.287ZM991.84 17.431V24.2666H990.99C990.867 23.1828 990.646 22.259 990.325 21.4954C990.03 20.7072 989.562 20.1037 988.921 19.6849C988.305 19.2415 987.443 19.0198 986.335 19.0198H984.598C984.081 19.0198 983.674 19.1553 983.379 19.4263C983.108 19.6972 982.972 20.2638 982.972 21.1259V38.3074C982.972 39.5144 983.157 40.278 983.527 40.5982C983.896 40.9185 984.574 41.1032 985.559 41.1525V42.0023H975.028V41.1525C975.743 41.1032 976.26 40.9185 976.58 40.5982C976.9 40.278 977.061 39.5144 977.061 38.3074V21.1259C977.061 19.9189 976.876 19.1553 976.506 18.8351C976.161 18.4902 975.484 18.3055 974.474 18.2808V17.431H991.84ZM1006.64 16.8768C1008.39 16.8768 1010.02 17.1724 1011.52 17.7635C1013.02 18.3547 1014.35 19.2169 1015.51 20.35C1016.67 21.4585 1017.57 22.801 1018.21 24.3775C1018.85 25.954 1019.17 27.7152 1019.17 29.6612C1019.17 31.6072 1018.85 33.3685 1018.21 34.945C1017.57 36.5215 1016.67 37.8763 1015.51 39.0094C1014.38 40.1425 1013.05 41.017 1011.52 41.6328C1009.99 42.2487 1008.36 42.5566 1006.61 42.5566C1004.88 42.5566 1003.26 42.261 1001.73 41.6698C1000.23 41.0786 998.896 40.2288 997.738 39.1203C996.581 37.9872 995.681 36.6323 995.041 35.0558C994.401 33.4793 994.08 31.7181 994.08 29.7721C994.08 27.8261 994.401 26.0648 995.041 24.4883C995.681 22.9118 996.568 21.557 997.701 20.4239C998.859 19.2908 1000.2 18.4163 1001.73 17.8005C1003.26 17.1847 1004.89 16.8768 1006.64 16.8768ZM1007.38 40.9677C1008.66 40.9677 1009.67 40.549 1010.41 39.7115C1011.15 38.8493 1011.68 37.6669 1012 36.1643C1012.35 34.6617 1012.52 32.9128 1012.52 30.9175C1012.52 26.9024 1011.9 23.8232 1010.67 21.6802C1009.46 19.5371 1007.86 18.4656 1005.87 18.4656C1004.61 18.4656 1003.6 18.8843 1002.84 19.7219C1002.1 20.5594 1001.56 21.7418 1001.21 23.269C1000.89 24.7716 1000.73 26.5205 1000.73 28.5158C1000.73 32.531 1001.33 35.6101 1002.54 37.7531C1003.77 39.8962 1005.39 40.9677 1007.38 40.9677ZM1035.19 20.35L1041.33 38.3074C1041.55 38.9478 1041.87 39.539 1042.29 40.081C1042.73 40.5982 1043.41 40.9554 1044.32 41.1525L1042.62 49.5769H1041.77C1041.72 48.0497 1041.5 46.7195 1041.1 45.5864C1040.71 44.4533 1040.22 43.5665 1039.63 42.9261C1039.03 42.3102 1038.39 42.0023 1037.7 42.0023H1027.8C1026.89 42.0023 1025.99 42.3102 1025.1 42.9261C1024.24 43.5665 1023.5 44.4533 1022.89 45.5864C1022.3 46.7195 1021.91 48.0497 1021.74 49.5769H1020.89V41.1525C1021.34 40.9554 1021.77 40.6229 1022.19 40.1549C1022.6 39.6622 1022.99 39.108 1023.33 38.4921C1023.7 37.8763 1023.98 37.2974 1024.18 36.7555L1030.46 20.35C1030.71 19.7095 1030.94 19.0814 1031.16 18.4656C1031.39 17.8498 1031.58 17.2216 1031.76 16.5812H1033.9C1034.07 17.2216 1034.27 17.8498 1034.49 18.4656C1034.74 19.0814 1034.97 19.7095 1035.19 20.35ZM1033.64 40.4135C1034.63 40.4135 1035.17 40.2534 1035.27 39.9332C1035.36 39.6129 1035.28 39.071 1035.01 38.3074L1030.68 25.0056H1030.61L1024.85 40.4135H1033.64ZM1066.93 38.3074C1067.28 39.1449 1067.56 39.7607 1067.78 40.1549C1068.03 40.549 1068.29 40.8076 1068.56 40.9308C1068.83 41.0293 1069.16 41.1032 1069.55 41.1525V42.0023H1059.24V41.1525C1060.23 41.1032 1060.77 40.8076 1060.87 40.2657C1060.99 39.7238 1060.91 39.071 1060.61 38.3074L1058.76 33.504C1058.62 33.6271 1058.42 33.7134 1058.17 33.7626C1057.95 33.7872 1057.71 33.7996 1057.43 33.7996H1053.26C1052.74 33.7996 1052.35 33.8611 1052.08 33.9843C1051.81 34.1075 1051.57 34.4154 1051.37 34.908L1050.04 38.3074C1049.72 39.1203 1049.75 39.7854 1050.12 40.3027C1050.49 40.8199 1051.21 41.1032 1052.3 41.1525V42.0023H1045.57V41.1525C1046.12 41.1032 1046.57 40.8323 1046.94 40.3396C1047.33 39.8223 1047.69 39.1449 1048.01 38.3074L1055.11 20.35C1055.38 19.7095 1055.61 19.0814 1055.81 18.4656C1056.03 17.8498 1056.23 17.2216 1056.4 16.5812H1058.54C1058.72 17.2216 1058.91 17.8498 1059.13 18.4656C1059.36 19.0814 1059.59 19.7095 1059.84 20.35L1066.93 38.3074ZM1057.25 32.2107C1057.59 32.2107 1057.82 32.1615 1057.91 32.0629C1058.04 31.9398 1058.03 31.6935 1057.88 31.324L1055.33 25.0056H1055.25L1052.37 32.3585C1052.5 32.2846 1052.64 32.2477 1052.82 32.2477C1052.99 32.2231 1053.19 32.2107 1053.41 32.2107H1057.25Z" fill="black"/>
<path d="M1107.31 25.7899C1103.63 24.3191 1099.3 25.1035 1096.36 28.0452C1092.38 32.0164 1092.38 38.439 1096.36 42.4103C1099.3 45.3519 1103.63 46.1364 1107.31 44.6655V39.9589C1106.57 40.3021 1105.79 40.4982 1104.95 40.4982C1102.01 40.4982 1099.65 38.1449 1099.65 35.2032C1099.65 32.2615 1102.01 29.9082 1104.95 29.9082C1105.79 29.9082 1106.62 30.1043 1107.31 30.4475V25.7899Z" fill="black"/>
<path d="M1105.65 21.0732C1107.1 19.6188 1107.1 17.2115 1105.65 15.707C1104.2 14.2525 1101.8 14.2525 1100.29 15.707C1098.79 17.1614 1098.84 19.5687 1100.29 21.0732C1101.8 22.5276 1104.2 22.5276 1105.65 21.0732Z" fill="black"/>
<path d="M1147.82 35.1667H1148.67L1148.3 42.0023H1130.49V41.1525C1130.69 41.054 1130.98 40.8815 1131.37 40.6352C1131.79 40.3889 1132.22 40.1056 1132.67 39.7854C1133.9 38.8986 1135.06 37.8886 1136.14 36.7555C1137.23 35.6224 1138.17 34.4154 1138.99 33.1345C1139.8 31.8536 1140.44 30.5727 1140.91 29.2917C1141.38 28.0108 1141.61 26.7915 1141.61 25.6338C1141.61 24.5253 1141.34 23.5892 1140.8 22.8256C1140.28 22.062 1139.33 21.6802 1137.95 21.6802C1136.79 21.6802 1135.72 22.0004 1134.74 22.6409C1133.75 23.2813 1132.78 24.2789 1131.82 25.6338L1131.12 25.0426C1132.13 22.4807 1133.39 20.5717 1134.92 19.3154C1136.45 18.0591 1138.36 17.431 1140.65 17.431C1141.98 17.431 1143.17 17.6527 1144.23 18.0961C1145.29 18.5148 1146.13 19.1799 1146.75 20.0914C1147.39 20.9781 1147.71 22.1359 1147.71 23.5646C1147.71 26.1018 1146.89 28.4789 1145.27 30.6958C1143.67 32.9128 1141.43 34.9943 1138.54 36.9403V37.0142H1143.94C1145.34 37.0142 1146.31 36.8417 1146.86 36.4969C1147.4 36.152 1147.72 35.7086 1147.82 35.1667ZM1163.54 17.431C1164.82 17.431 1166.08 17.6773 1167.31 18.17C1168.54 18.6626 1169.65 19.4263 1170.64 20.4608C1171.62 21.4954 1172.4 22.801 1172.97 24.3775C1173.56 25.9294 1173.85 27.7768 1173.85 29.9199C1173.85 32.0383 1173.57 33.8858 1173 35.4623C1172.44 37.0388 1171.66 38.3567 1170.67 39.4159C1169.69 40.4751 1168.58 41.2633 1167.35 41.7806C1166.12 42.2979 1164.84 42.5566 1163.51 42.5566C1162.23 42.5566 1160.97 42.3102 1159.74 41.8176C1158.51 41.3249 1157.4 40.5613 1156.41 39.5267C1155.43 38.4921 1154.64 37.1989 1154.05 35.647C1153.48 34.0705 1153.2 32.2107 1153.2 30.0677C1153.2 27.9493 1153.48 26.1018 1154.05 24.5253C1154.61 22.9488 1155.39 21.6309 1156.38 20.5717C1157.36 19.5125 1158.47 18.7242 1159.7 18.2069C1160.93 17.6896 1162.21 17.431 1163.54 17.431ZM1163.65 40.9677C1164.37 40.9677 1165.02 40.6475 1165.61 40.0071C1166.2 39.3666 1166.67 38.2828 1167.02 36.7555C1167.39 35.2283 1167.57 33.1345 1167.57 30.4741C1167.57 28.1586 1167.41 26.151 1167.09 24.4514C1166.8 22.7271 1166.34 21.3969 1165.72 20.4608C1165.11 19.5002 1164.33 19.0198 1163.4 19.0198C1162.71 19.0198 1162.05 19.3401 1161.44 19.9805C1160.85 20.621 1160.37 21.7048 1160 23.232C1159.65 24.7593 1159.48 26.8531 1159.48 29.5134C1159.48 31.8289 1159.63 33.8488 1159.92 35.5731C1160.24 37.2728 1160.71 38.603 1161.33 39.5637C1161.94 40.4997 1162.72 40.9677 1163.65 40.9677ZM1198.93 30.8436L1187.48 31.8413L1187.22 28.8484L1198.67 27.8507L1198.93 30.8436ZM1227.53 35.1667H1228.38L1228.01 42.0023H1210.2V41.1525C1210.39 41.054 1210.69 40.8815 1211.08 40.6352C1211.5 40.3889 1211.93 40.1056 1212.38 39.7854C1213.61 38.8986 1214.77 37.8886 1215.85 36.7555C1216.93 35.6224 1217.88 34.4154 1218.69 33.1345C1219.51 31.8536 1220.15 30.5727 1220.62 29.2917C1221.08 28.0108 1221.32 26.7915 1221.32 25.6338C1221.32 24.5253 1221.05 23.5892 1220.51 22.8256C1219.99 22.062 1219.04 21.6802 1217.66 21.6802C1216.5 21.6802 1215.43 22.0004 1214.45 22.6409C1213.46 23.2813 1212.49 24.2789 1211.53 25.6338L1210.82 25.0426C1211.83 22.4807 1213.1 20.5717 1214.63 19.3154C1216.16 18.0591 1218.07 17.431 1220.36 17.431C1221.69 17.431 1222.88 17.6527 1223.94 18.0961C1225 18.5148 1225.84 19.1799 1226.45 20.0914C1227.09 20.9781 1227.41 22.1359 1227.41 23.5646C1227.41 26.1018 1226.6 28.4789 1224.98 30.6958C1223.37 32.9128 1221.13 34.9943 1218.25 36.9403V37.0142H1223.65C1225.05 37.0142 1226.02 36.8417 1226.56 36.4969C1227.11 36.152 1227.43 35.7086 1227.53 35.1667ZM1242.62 37.9379C1242.62 38.8493 1242.7 39.539 1242.85 40.0071C1243.02 40.4505 1243.36 40.746 1243.88 40.8938C1244.42 41.0416 1245.23 41.1279 1246.32 41.1525V42.0023H1232.65V41.1525C1233.76 41.1279 1234.57 41.0416 1235.09 40.8938C1235.63 40.746 1235.97 40.4505 1236.12 40.0071C1236.27 39.539 1236.34 38.8493 1236.34 37.9379V21.8649L1232.94 23.971L1232.17 22.7887L1240.74 17.431H1242.88C1242.78 17.899 1242.71 18.3671 1242.66 18.8351C1242.64 19.3031 1242.62 19.7711 1242.62 20.2392V37.9379ZM1259.53 42.0023V41.1525C1260.24 41.1032 1260.76 40.9185 1261.08 40.5982C1261.4 40.278 1261.56 39.5144 1261.56 38.3074V21.1259C1261.56 19.9189 1261.37 19.1553 1261 18.8351C1260.66 18.4902 1259.98 18.3055 1258.97 18.2808V17.431H1269.5V18.2808C1268.79 18.3055 1268.27 18.4902 1267.95 18.8351C1267.63 19.1553 1267.47 19.9189 1267.47 21.1259V27.666C1267.67 27.5182 1267.9 27.4196 1268.17 27.3704C1268.47 27.3211 1268.81 27.2965 1269.21 27.2965H1276.19C1276.85 27.2965 1277.32 27.1856 1277.59 26.9639C1277.86 26.7422 1278 26.2988 1278 25.6338V21.1259C1278 19.9189 1277.82 19.1553 1277.45 18.8351C1277.1 18.4902 1276.42 18.3055 1275.41 18.2808V17.431H1285.94V18.2808C1285.23 18.3055 1284.71 18.4902 1284.39 18.8351C1284.07 19.1553 1283.91 19.9189 1283.91 21.1259V38.3074C1283.91 39.5144 1284.1 40.278 1284.47 40.5982C1284.84 40.9185 1285.51 41.1032 1286.5 41.1525V42.0023H1275.97V41.1525C1276.68 41.1032 1277.2 40.9185 1277.52 40.5982C1277.84 40.278 1278 39.5144 1278 38.3074V28.4789C1277.8 28.6513 1277.56 28.7621 1277.26 28.8114C1276.97 28.8607 1276.63 28.8853 1276.26 28.8853H1269.28C1268.61 28.8853 1268.15 28.9961 1267.88 29.2178C1267.6 29.4395 1267.47 29.8706 1267.47 30.5111V38.3074C1267.47 39.5144 1267.65 40.278 1268.02 40.5982C1268.39 40.9185 1269.07 41.1032 1270.06 41.1525V42.0023H1259.53ZM1302.79 16.8768C1304.54 16.8768 1306.17 17.1724 1307.67 17.7635C1309.17 18.3547 1310.5 19.2169 1311.66 20.35C1312.82 21.4585 1313.72 22.801 1314.36 24.3775C1315 25.954 1315.32 27.7152 1315.32 29.6612C1315.32 31.6072 1315 33.3685 1314.36 34.945C1313.72 36.5215 1312.82 37.8763 1311.66 39.0094C1310.53 40.1425 1309.2 41.017 1307.67 41.6328C1306.14 42.2487 1304.51 42.5566 1302.76 42.5566C1301.03 42.5566 1299.41 42.261 1297.88 41.6698C1296.38 41.0786 1295.05 40.2288 1293.89 39.1203C1292.73 37.9872 1291.83 36.6323 1291.19 35.0558C1290.55 33.4793 1290.23 31.7181 1290.23 29.7721C1290.23 27.8261 1290.55 26.0648 1291.19 24.4883C1291.83 22.9118 1292.72 21.557 1293.85 20.4239C1295.01 19.2908 1296.35 18.4163 1297.88 17.8005C1299.41 17.1847 1301.05 16.8768 1302.79 16.8768ZM1303.53 40.9677C1304.81 40.9677 1305.82 40.549 1306.56 39.7115C1307.3 38.8493 1307.83 37.6669 1308.15 36.1643C1308.5 34.6617 1308.67 32.9128 1308.67 30.9175C1308.67 26.9024 1308.05 23.8232 1306.82 21.6802C1305.62 19.5371 1304.01 18.4656 1302.02 18.4656C1300.76 18.4656 1299.75 18.8843 1298.99 19.7219C1298.25 20.5594 1297.71 21.7418 1297.36 23.269C1297.04 24.7716 1296.88 26.5205 1296.88 28.5158C1296.88 32.531 1297.49 35.6101 1298.69 37.7531C1299.93 39.8962 1301.54 40.9677 1303.53 40.9677ZM1319.52 42.5566C1318.9 42.5566 1318.25 42.5073 1317.56 42.4088C1316.87 42.3102 1316.28 42.1748 1315.79 42.0023V41.1525C1316.28 41.1525 1316.83 40.9554 1317.45 40.5613C1318.07 40.1672 1318.69 39.3789 1319.34 38.1965L1324.62 28.6267C1322.97 28.2079 1321.71 27.5305 1320.85 26.5944C1320.01 25.6584 1319.59 24.5253 1319.59 23.1951C1319.59 22.1605 1319.9 21.1875 1320.52 20.2761C1321.16 19.3647 1322.19 18.638 1323.62 18.0961C1325.07 17.5295 1327.02 17.2463 1329.46 17.2463C1330.25 17.2463 1331.16 17.2832 1332.19 17.3571C1333.23 17.4064 1334.37 17.431 1335.63 17.431H1340.36V18.2808C1339.64 18.3055 1339.13 18.4902 1338.81 18.8351C1338.49 19.1553 1338.33 19.9189 1338.33 21.1259V38.3074C1338.33 39.5144 1338.51 40.278 1338.88 40.5982C1339.25 40.9185 1339.93 41.1032 1340.91 41.1525V42.0023H1330.38V41.1525C1331.1 41.1032 1331.61 40.9185 1331.93 40.5982C1332.26 40.278 1332.42 39.5144 1332.42 38.3074V21.1259C1332.42 20.1653 1332.24 19.5494 1331.9 19.2785C1331.58 18.9829 1331.01 18.8351 1330.2 18.8351C1329.14 18.8351 1328.18 19.2169 1327.32 19.9805C1326.48 20.7195 1326.06 21.8403 1326.06 23.3429C1326.06 24.1312 1326.22 24.8948 1326.54 25.6338C1326.86 26.3481 1327.43 26.9516 1328.24 27.4443C1329.08 27.9369 1330.22 28.2325 1331.68 28.3311V29.6243C1331.38 29.6243 1331.12 29.6859 1330.9 29.809C1330.68 29.9076 1330.46 30.1662 1330.24 30.585L1326.06 38.6399C1325.49 39.7238 1324.71 40.6475 1323.7 41.4111C1322.69 42.1748 1321.29 42.5566 1319.52 42.5566ZM1352.59 27.2226H1356.17C1358.86 27.2226 1360.98 27.5182 1362.53 28.1094C1364.08 28.7006 1365.18 29.5134 1365.82 30.548C1366.48 31.5826 1366.82 32.7773 1366.82 34.1321C1366.82 35.4869 1366.45 36.7678 1365.71 37.9748C1364.99 39.1572 1363.87 40.1302 1362.34 40.8938C1360.84 41.6328 1358.92 42.0023 1356.58 42.0023H1344.65V41.1525C1345.36 41.1032 1345.88 40.9185 1346.2 40.5982C1346.52 40.278 1346.68 39.5144 1346.68 38.3074V21.1259C1346.68 19.9189 1346.49 19.1553 1346.12 18.8351C1345.78 18.4902 1345.1 18.3055 1344.09 18.2808V17.431H1364.41V23.5276H1363.56C1363.49 22.6901 1363.33 21.9388 1363.08 21.2737C1362.84 20.584 1362.42 20.0421 1361.83 19.648C1361.24 19.2292 1360.39 19.0198 1359.28 19.0198H1354.22C1353.7 19.0198 1353.29 19.1553 1353 19.4263C1352.73 19.6972 1352.59 20.2638 1352.59 21.1259V27.2226ZM1354.77 40.4135C1356.08 40.4135 1357.15 40.1056 1357.98 39.4898C1358.85 38.8493 1359.49 38.0611 1359.91 37.125C1360.32 36.189 1360.53 35.2652 1360.53 34.3538C1360.53 32.999 1360.28 31.9151 1359.76 31.1023C1359.27 30.2894 1358.59 29.7105 1357.73 29.3656C1356.89 28.9961 1355.94 28.8114 1354.88 28.8114H1352.59V38.3074C1352.59 39.1695 1352.73 39.7361 1353 40.0071C1353.27 40.278 1353.86 40.4135 1354.77 40.4135ZM1370.73 42.0023V41.1525C1371.45 41.1032 1371.97 40.9185 1372.29 40.5982C1372.61 40.278 1372.77 39.5144 1372.77 38.3074V21.1259C1372.77 19.9189 1372.58 19.1553 1372.21 18.8351C1371.87 18.4902 1371.19 18.3055 1370.18 18.2808V17.431H1372.77C1374.56 17.431 1376.25 17.4064 1377.83 17.3571C1379.4 17.2832 1380.59 17.2463 1381.38 17.2463C1383.94 17.2463 1385.96 17.5295 1387.44 18.0961C1388.94 18.6626 1390.01 19.4139 1390.65 20.35C1391.31 21.2614 1391.65 22.2714 1391.65 23.3798C1391.65 24.6608 1391.23 25.8801 1390.39 27.0378C1389.58 28.1956 1388.27 29.0947 1386.47 29.7351C1384.7 30.351 1382.35 30.548 1379.42 30.3263V29.0331C1380.75 29.0824 1381.84 28.8484 1382.71 28.3311C1383.57 27.7891 1384.2 27.0748 1384.59 26.188C1385.01 25.3012 1385.22 24.3528 1385.22 23.3429C1385.22 21.9881 1384.84 20.9042 1384.07 20.0914C1383.31 19.2538 1382.25 18.8351 1380.9 18.8351C1380.08 18.8351 1379.5 18.9829 1379.16 19.2785C1378.84 19.5494 1378.68 20.1653 1378.68 21.1259V38.3074C1378.68 39.0956 1378.75 39.6991 1378.9 40.1179C1379.07 40.512 1379.37 40.783 1379.79 40.9308C1380.23 41.054 1380.85 41.1279 1381.63 41.1525V42.0023H1370.73ZM1395.55 42.5566C1394.93 42.5566 1394.28 42.5073 1393.59 42.4088C1392.9 42.3102 1392.31 42.1748 1391.82 42.0023V41.1525C1392.31 41.1525 1392.86 40.9554 1393.48 40.5613C1394.09 40.1672 1394.72 39.3789 1395.36 38.1965L1400.65 28.6267C1399 28.2079 1397.74 27.5305 1396.88 26.5944C1396.04 25.6584 1395.62 24.5253 1395.62 23.1951C1395.62 22.1605 1395.93 21.1875 1396.55 20.2761C1397.19 19.3647 1398.22 18.638 1399.65 18.0961C1401.1 17.5295 1403.05 17.2463 1405.49 17.2463C1406.28 17.2463 1407.19 17.2832 1408.22 17.3571C1409.26 17.4064 1410.4 17.431 1411.66 17.431H1416.39V18.2808C1415.67 18.3055 1415.16 18.4902 1414.84 18.8351C1414.51 19.1553 1414.35 19.9189 1414.35 21.1259V38.3074C1414.35 39.5144 1414.54 40.278 1414.91 40.5982C1415.28 40.9185 1415.96 41.1032 1416.94 41.1525V42.0023H1406.41V41.1525C1407.13 41.1032 1407.64 40.9185 1407.96 40.5982C1408.28 40.278 1408.44 39.5144 1408.44 38.3074V21.1259C1408.44 20.1653 1408.27 19.5494 1407.93 19.2785C1407.61 18.9829 1407.04 18.8351 1406.23 18.8351C1405.17 18.8351 1404.21 19.2169 1403.34 19.9805C1402.51 20.7195 1402.09 21.8403 1402.09 23.3429C1402.09 24.1312 1402.25 24.8948 1402.57 25.6338C1402.89 26.3481 1403.45 26.9516 1404.27 27.4443C1405.11 27.9369 1406.25 28.2325 1407.7 28.3311V29.6243C1407.41 29.6243 1407.15 29.6859 1406.93 29.809C1406.71 29.9076 1406.48 30.1662 1406.26 30.585L1402.09 38.6399C1401.52 39.7238 1400.73 40.6475 1399.72 41.4111C1398.71 42.1748 1397.32 42.5566 1395.55 42.5566ZM1446.3 35.1667H1447.15L1446.78 42.0023H1428.97V41.1525C1429.17 41.054 1429.46 40.8815 1429.86 40.6352C1430.28 40.3889 1430.71 40.1056 1431.15 39.7854C1432.38 38.8986 1433.54 37.8886 1434.62 36.7555C1435.71 35.6224 1436.66 34.4154 1437.47 33.1345C1438.28 31.8536 1438.92 30.5727 1439.39 29.2917C1439.86 28.0108 1440.09 26.7915 1440.09 25.6338C1440.09 24.5253 1439.82 23.5892 1439.28 22.8256C1438.76 22.062 1437.81 21.6802 1436.43 21.6802C1435.28 21.6802 1434.2 22.0004 1433.22 22.6409C1432.23 23.2813 1431.26 24.2789 1430.3 25.6338L1429.6 25.0426C1430.61 22.4807 1431.88 20.5717 1433.4 19.3154C1434.93 18.0591 1436.84 17.431 1439.13 17.431C1440.46 17.431 1441.66 17.6527 1442.71 18.0961C1443.77 18.5148 1444.61 19.1799 1445.23 20.0914C1445.87 20.9781 1446.19 22.1359 1446.19 23.5646C1446.19 26.1018 1445.38 28.4789 1443.75 30.6958C1442.15 32.9128 1439.91 34.9943 1437.02 36.9403V37.0142H1442.42C1443.82 37.0142 1444.8 36.8417 1445.34 36.4969C1445.88 36.152 1446.2 35.7086 1446.3 35.1667ZM1462.03 17.431C1463.31 17.431 1464.56 17.6773 1465.79 18.17C1467.03 18.6626 1468.13 19.4263 1469.12 20.4608C1470.1 21.4954 1470.88 22.801 1471.45 24.3775C1472.04 25.9294 1472.33 27.7768 1472.33 29.9199C1472.33 32.0383 1472.05 33.8858 1471.48 35.4623C1470.92 37.0388 1470.14 38.3567 1469.16 39.4159C1468.17 40.4751 1467.06 41.2633 1465.83 41.7806C1464.6 42.2979 1463.32 42.5566 1461.99 42.5566C1460.71 42.5566 1459.45 42.3102 1458.22 41.8176C1456.99 41.3249 1455.88 40.5613 1454.89 39.5267C1453.91 38.4921 1453.12 37.1989 1452.53 35.647C1451.96 34.0705 1451.68 32.2107 1451.68 30.0677C1451.68 27.9493 1451.96 26.1018 1452.53 24.5253C1453.1 22.9488 1453.87 21.6309 1454.86 20.5717C1455.84 19.5125 1456.95 18.7242 1458.18 18.2069C1459.41 17.6896 1460.7 17.431 1462.03 17.431ZM1462.14 40.9677C1462.85 40.9677 1463.5 40.6475 1464.09 40.0071C1464.69 39.3666 1465.15 38.2828 1465.5 36.7555C1465.87 35.2283 1466.05 33.1345 1466.05 30.4741C1466.05 28.1586 1465.89 26.151 1465.57 24.4514C1465.28 22.7271 1464.82 21.3969 1464.21 20.4608C1463.59 19.5002 1462.81 19.0198 1461.88 19.0198C1461.19 19.0198 1460.53 19.3401 1459.92 19.9805C1459.33 20.621 1458.85 21.7048 1458.48 23.232C1458.13 24.7593 1457.96 26.8531 1457.96 29.5134C1457.96 31.8289 1458.11 33.8488 1458.4 35.5731C1458.72 37.2728 1459.19 38.603 1459.81 39.5637C1460.42 40.4997 1461.2 40.9677 1462.14 40.9677ZM1492.74 35.1667H1493.59L1493.22 42.0023H1475.41V41.1525C1475.61 41.054 1475.9 40.8815 1476.3 40.6352C1476.71 40.3889 1477.15 40.1056 1477.59 39.7854C1478.82 38.8986 1479.98 37.8886 1481.06 36.7555C1482.15 35.6224 1483.09 34.4154 1483.91 33.1345C1484.72 31.8536 1485.36 30.5727 1485.83 29.2917C1486.3 28.0108 1486.53 26.7915 1486.53 25.6338C1486.53 24.5253 1486.26 23.5892 1485.72 22.8256C1485.2 22.062 1484.25 21.6802 1482.87 21.6802C1481.71 21.6802 1480.64 22.0004 1479.66 22.6409C1478.67 23.2813 1477.7 24.2789 1476.74 25.6338L1476.04 25.0426C1477.05 22.4807 1478.32 20.5717 1479.84 19.3154C1481.37 18.0591 1483.28 17.431 1485.57 17.431C1486.9 17.431 1488.09 17.6527 1489.15 18.0961C1490.21 18.5148 1491.05 19.1799 1491.67 20.0914C1492.31 20.9781 1492.63 22.1359 1492.63 23.5646C1492.63 26.1018 1491.81 28.4789 1490.19 30.6958C1488.59 32.9128 1486.35 34.9943 1483.46 36.9403V37.0142H1488.86C1490.26 37.0142 1491.24 36.8417 1491.78 36.4969C1492.32 36.152 1492.64 35.7086 1492.74 35.1667ZM1513.27 32.5802L1515.85 32.5802V37.1989H1514.3C1513.61 37.1989 1513.27 37.63 1513.27 38.4921C1513.27 39.0833 1513.27 39.6622 1513.27 40.2288C1513.29 40.7707 1513.32 41.3619 1513.34 42.0023H1507.5C1507.55 41.1894 1507.59 40.4012 1507.61 39.6376C1507.64 38.8493 1507.66 38.0364 1507.69 37.1989H1496.01V36.3491C1496.65 35.7332 1497.23 35.0928 1497.75 34.4277L1509.83 19.3154C1510.1 18.9706 1510.35 18.638 1510.57 18.3178C1510.82 17.9729 1511.01 17.6773 1511.16 17.431H1513.3L1513.27 32.5802ZM1507.61 24.8578L1501.44 32.5802H1507.73V24.8578H1507.61ZM1546.17 17.431V24.2666H1545.32C1545.2 23.1828 1544.97 22.259 1544.65 21.4954C1544.36 20.7072 1543.89 20.1037 1543.25 19.6849C1542.63 19.2415 1541.77 19.0198 1540.66 19.0198H1538.93C1538.41 19.0198 1538 19.1553 1537.71 19.4263C1537.44 19.6972 1537.3 20.2638 1537.3 21.1259V38.3074C1537.3 39.5144 1537.49 40.278 1537.85 40.5982C1538.22 40.9185 1538.9 41.1032 1539.89 41.1525V42.0023H1529.36V41.1525C1530.07 41.1032 1530.59 40.9185 1530.91 40.5982C1531.23 40.278 1531.39 39.5144 1531.39 38.3074V21.1259C1531.39 19.9189 1531.2 19.1553 1530.83 18.8351C1530.49 18.4902 1529.81 18.3055 1528.8 18.2808V17.431H1546.17ZM1560.97 16.8768C1562.72 16.8768 1564.35 17.1724 1565.85 17.7635C1567.35 18.3547 1568.68 19.2169 1569.84 20.35C1571 21.4585 1571.9 22.801 1572.54 24.3775C1573.18 25.954 1573.5 27.7152 1573.5 29.6612C1573.5 31.6072 1573.18 33.3685 1572.54 34.945C1571.9 36.5215 1571 37.8763 1569.84 39.0094C1568.71 40.1425 1567.38 41.017 1565.85 41.6328C1564.32 42.2487 1562.68 42.5566 1560.93 42.5566C1559.21 42.5566 1557.58 42.261 1556.06 41.6698C1554.55 41.0786 1553.22 40.2288 1552.07 39.1203C1550.91 37.9872 1550.01 36.6323 1549.37 35.0558C1548.73 33.4793 1548.41 31.7181 1548.41 29.7721C1548.41 27.8261 1548.73 26.0648 1549.37 24.4883C1550.01 22.9118 1550.9 21.557 1552.03 20.4239C1553.19 19.2908 1554.53 18.4163 1556.06 17.8005C1557.58 17.1847 1559.22 16.8768 1560.97 16.8768ZM1561.71 40.9677C1562.99 40.9677 1564 40.549 1564.74 39.7115C1565.48 38.8493 1566.01 37.6669 1566.33 36.1643C1566.67 34.6617 1566.85 32.9128 1566.85 30.9175C1566.85 26.9024 1566.23 23.8232 1565 21.6802C1563.79 19.5371 1562.19 18.4656 1560.2 18.4656C1558.94 18.4656 1557.93 18.8843 1557.17 19.7219C1556.43 20.5594 1555.88 21.7418 1555.54 23.269C1555.22 24.7716 1555.06 26.5205 1555.06 28.5158C1555.06 32.531 1555.66 35.6101 1556.87 37.7531C1558.1 39.8962 1559.71 40.9677 1561.71 40.9677ZM1589.52 20.35L1595.65 38.3074C1595.88 38.9478 1596.2 39.539 1596.61 40.081C1597.06 40.5982 1597.74 40.9554 1598.65 41.1525L1596.95 49.5769H1596.1C1596.05 48.0497 1595.83 46.7195 1595.43 45.5864C1595.04 44.4533 1594.55 43.5665 1593.95 42.9261C1593.36 42.3102 1592.72 42.0023 1592.03 42.0023H1582.13C1581.22 42.0023 1580.32 42.3102 1579.43 42.9261C1578.57 43.5665 1577.83 44.4533 1577.22 45.5864C1576.62 46.7195 1576.24 48.0497 1576.07 49.5769H1575.22V41.1525C1575.66 40.9554 1576.1 40.6229 1576.51 40.1549C1576.93 39.6622 1577.31 39.108 1577.66 38.4921C1578.03 37.8763 1578.31 37.2974 1578.51 36.7555L1584.79 20.35C1585.04 19.7095 1585.27 19.0814 1585.49 18.4656C1585.71 17.8498 1585.91 17.2216 1586.08 16.5812H1588.23C1588.4 17.2216 1588.6 17.8498 1588.82 18.4656C1589.06 19.0814 1589.3 19.7095 1589.52 20.35ZM1587.97 40.4135C1588.95 40.4135 1589.5 40.2534 1589.59 39.9332C1589.69 39.6129 1589.61 39.071 1589.34 38.3074L1585.01 25.0056H1584.94L1579.17 40.4135H1587.97ZM1621.26 38.3074C1621.6 39.1449 1621.89 39.7607 1622.11 40.1549C1622.35 40.549 1622.61 40.8076 1622.88 40.9308C1623.16 41.0293 1623.49 41.1032 1623.88 41.1525V42.0023H1613.57V41.1525C1614.56 41.1032 1615.1 40.8076 1615.2 40.2657C1615.32 39.7238 1615.24 39.071 1614.94 38.3074L1613.09 33.504C1612.94 33.6271 1612.75 33.7134 1612.5 33.7626C1612.28 33.7872 1612.03 33.7996 1611.76 33.7996H1607.59C1607.07 33.7996 1606.68 33.8611 1606.4 33.9843C1606.13 34.1075 1605.9 34.4154 1605.7 34.908L1604.37 38.3074C1604.05 39.1203 1604.08 39.7854 1604.45 40.3027C1604.82 40.8199 1605.54 41.1032 1606.63 41.1525V42.0023H1599.9V41.1525C1600.44 41.1032 1600.9 40.8323 1601.27 40.3396C1601.66 39.8223 1602.02 39.1449 1602.34 38.3074L1609.43 20.35C1609.71 19.7095 1609.94 19.0814 1610.14 18.4656C1610.36 17.8498 1610.56 17.2216 1610.73 16.5812H1612.87C1613.04 17.2216 1613.24 17.8498 1613.46 18.4656C1613.68 19.0814 1613.92 19.7095 1614.16 20.35L1621.26 38.3074ZM1611.58 32.2107C1611.92 32.2107 1612.14 32.1615 1612.24 32.0629C1612.37 31.9398 1612.35 31.6935 1612.21 31.324L1609.66 25.0056H1609.58L1606.7 32.3585C1606.82 32.2846 1606.97 32.2477 1607.14 32.2477C1607.32 32.2231 1607.51 32.2107 1607.74 32.2107H1611.58Z" fill="black"/>
<defs>
<linearGradient id="paint0_linear_614_2559" x1="0" y1="30.0023" x2="1645.89" y2="30.0023" gradientUnits="userSpaceOnUse">
<stop stop-color="#FA0056"/>
<stop offset="0.375" stop-color="#F33174"/>
<stop offset="0.67" stop-color="#FA0056"/>
<stop offset="0.975" stop-color="#F33174"/>
</linearGradient>
</defs>
</svg>
