<svg width="1894" height="60" viewBox="0 0 1894 60" fill="none" xmlns="http://www.w3.org/2000/svg">
<rect width="1893.01" height="59.9969" transform="translate(0.257812)" fill="#272729"/>
<path d="M29.0215 40.9984V40.2319C29.6659 40.1874 30.1325 40.0208 30.4213 39.7319C30.7102 39.4431 30.8546 38.7543 30.8546 37.6656V22.168C30.8546 21.0793 30.688 20.3905 30.3547 20.1017C30.0436 19.7906 29.4326 19.624 28.5216 19.6017V18.8352H38.0201V19.6017C37.3758 19.624 36.9092 19.7906 36.6204 20.1017C36.3315 20.3905 36.1871 21.0793 36.1871 22.168V37.6656C36.1871 38.7543 36.3537 39.4431 36.687 39.7319C37.0203 40.0208 37.6313 40.1874 38.5201 40.2319V40.9984H29.0215ZM61.5993 41.265C61.266 40.9095 60.9216 40.5651 60.5661 40.2319C60.2106 39.8764 59.644 39.3542 58.8664 38.6654L45.7351 26.6673H45.6684V37.6656C45.6684 38.421 45.8573 39.0321 46.235 39.4986C46.635 39.943 47.3126 40.1874 48.268 40.2319V40.9984H42.1023V40.2319C42.7467 40.1874 43.2133 39.943 43.5021 39.4986C43.791 39.0321 43.9354 38.421 43.9354 37.6656V22.168C43.9354 21.0793 43.7687 20.3905 43.4355 20.1017C43.1244 19.7906 42.5134 19.624 41.6024 19.6017V18.8352H45.6018C45.9351 19.2574 46.2906 19.6351 46.6683 19.9684C47.046 20.3016 47.4793 20.7016 47.9681 21.1682L61.2327 33.1663H61.2993V22.168C61.2993 21.4126 61.1105 20.8016 60.7328 20.335C60.355 19.8684 59.6774 19.624 58.6997 19.6017V18.8352H64.8655V19.6017C64.2211 19.624 63.7545 19.8684 63.4657 20.335C63.1768 20.8016 63.0324 21.4126 63.0324 22.168V37.6656C63.0324 38.2877 63.0324 38.8876 63.0324 39.4653C63.0546 40.0208 63.0768 40.6207 63.0991 41.265H61.5993ZM67.5012 18.8352H86.4983V24.3343H85.7317C85.5984 23.1345 85.2429 22.1569 84.6652 21.4015C84.0875 20.646 83.0988 20.2683 81.699 20.2683H79.666V37.6656C79.666 38.7543 79.8327 39.4431 80.1659 39.7319C80.4992 40.0208 81.1102 40.1874 81.999 40.2319V40.9984H72.5005V40.2319C73.1448 40.1874 73.6114 40.0208 73.9002 39.7319C74.1891 39.4431 74.3335 38.7543 74.3335 37.6656V20.2683H72.2672C70.9118 20.2683 69.9342 20.646 69.3343 21.4015C68.7566 22.1569 68.4011 23.1345 68.2678 24.3343H67.5012V18.8352ZM89.5226 40.9984V40.2319C90.1669 40.1874 90.6335 40.0208 90.9223 39.7319C91.2112 39.4431 91.3556 38.7543 91.3556 37.6656V22.168C91.3556 21.0793 91.189 20.3905 90.8557 20.1017C90.5446 19.7906 89.9336 19.624 89.0226 19.6017V18.8352H105.387V23.5011H104.62C104.576 22.5457 104.242 21.7681 103.62 21.1682C103.02 20.5683 102.087 20.2683 100.821 20.2683H98.1545C97.6879 20.2683 97.3213 20.3905 97.0547 20.6349C96.8103 20.8793 96.6881 21.3904 96.6881 22.168V28.7337C96.8659 28.6003 97.0769 28.5115 97.3213 28.467C97.588 28.4226 97.899 28.4004 98.2545 28.4004H101.487C102.154 28.4004 102.709 28.2115 103.154 27.8338C103.598 27.4561 103.831 26.9339 103.854 26.2674H104.62V31.9332H103.854C103.831 31.1111 103.598 30.5556 103.154 30.2667C102.709 29.9779 102.154 29.8335 101.487 29.8335H98.3212C97.7213 29.8335 97.2991 29.9335 97.0547 30.1334C96.8103 30.3334 96.6881 30.7222 96.6881 31.2999V37.6656C96.6881 38.4433 96.8547 38.9543 97.188 39.1987C97.5435 39.4431 98.2212 39.5653 99.221 39.5653H102.387C103.72 39.5653 104.776 39.1654 105.553 38.3655C106.331 37.5656 106.764 36.6102 106.853 35.4993H107.62L107.353 40.9984H89.5226ZM129.979 41.4983C128.979 41.4983 128.124 41.3317 127.413 40.9984C126.702 40.6874 126.102 40.2652 125.613 39.7319C125.124 39.1987 124.669 38.6099 124.247 37.9656L119.581 30.7C119.358 30.3223 119.158 30.089 118.981 30.0001C118.803 29.9112 118.592 29.8557 118.347 29.8335V28.667C119.681 28.5781 120.714 28.3115 121.447 27.8671C122.18 27.4227 122.691 26.8784 122.98 26.234C123.269 25.5675 123.413 24.8787 123.413 24.1677C123.413 22.8124 123.036 21.8014 122.28 21.1348C121.525 20.4461 120.658 20.1017 119.681 20.1017C118.947 20.1017 118.425 20.235 118.114 20.5016C117.825 20.746 117.681 21.3015 117.681 22.168V37.6656C117.681 38.7543 117.848 39.4431 118.181 39.7319C118.514 40.0208 119.125 40.1874 120.014 40.2319V40.9984H110.515V40.2319C111.16 40.1874 111.626 40.0208 111.915 39.7319C112.204 39.4431 112.348 38.7543 112.348 37.6656V22.168C112.348 21.0793 112.182 20.3905 111.849 20.1017C111.537 19.7906 110.926 19.624 110.015 19.6017V18.8352H112.348C114.015 18.8352 115.526 18.813 116.881 18.7685C118.236 18.7019 119.392 18.6686 120.347 18.6686C122.547 18.6686 124.291 18.8796 125.58 19.3018C126.891 19.7017 127.824 20.2683 128.379 21.0015C128.957 21.7347 129.246 22.5679 129.246 23.5011C129.246 24.3899 129.024 25.2009 128.579 25.9341C128.157 26.6673 127.591 27.2894 126.88 27.8005C126.191 28.2893 125.435 28.6337 124.613 28.8336V28.9003L130.146 37.5656C130.79 38.5877 131.379 39.2876 131.912 39.6653C132.445 40.043 132.923 40.2319 133.345 40.2319V40.9984C132.901 41.1539 132.368 41.2761 131.745 41.365C131.146 41.4539 130.557 41.4983 129.979 41.4983ZM145.719 41.4983C143.386 41.4983 141.319 41.0317 139.52 40.0986C137.72 39.1654 136.309 37.8545 135.287 36.1658C134.265 34.455 133.754 32.4775 133.754 30.2334C133.754 28.3893 134.087 26.7451 134.754 25.3009C135.42 23.8344 136.331 22.5791 137.487 21.5348C138.664 20.4905 140.009 19.7017 141.519 19.1685C143.053 18.613 144.686 18.3353 146.419 18.3353C147.73 18.3353 148.985 18.4575 150.185 18.7019C151.385 18.9463 152.34 19.2351 153.051 19.5684V24.8343H152.284C151.84 23.4789 151.307 22.4457 150.685 21.7347C150.063 21.0015 149.363 20.4905 148.585 20.2016C147.83 19.9128 147.03 19.7684 146.185 19.7684C141.897 19.7684 139.753 22.879 139.753 29.1003C139.753 31.1444 139.964 32.9997 140.386 34.6661C140.831 36.3325 141.508 37.6545 142.419 38.6321C143.352 39.5875 144.541 40.0652 145.985 40.0652C147.163 40.0652 148.229 39.7764 149.185 39.1987C150.14 38.5988 150.951 37.81 151.618 36.8324C152.307 35.8548 152.795 34.7994 153.084 33.6662H153.851L153.584 38.7321C152.851 39.532 151.818 40.1985 150.485 40.7318C149.152 41.2428 147.563 41.4983 145.719 41.4983ZM167.966 18.3353C169.544 18.3353 171.01 18.6019 172.365 19.1351C173.721 19.6684 174.921 20.4461 175.965 21.4681C177.009 22.468 177.82 23.6789 178.398 25.1009C178.975 26.5229 179.264 28.1115 179.264 29.8668C179.264 31.6221 178.975 33.2107 178.398 34.6327C177.82 36.0547 177.009 37.2768 175.965 38.2988C174.943 39.3209 173.743 40.1097 172.365 40.6651C170.988 41.2206 169.51 41.4983 167.933 41.4983C166.377 41.4983 164.911 41.2317 163.533 40.6985C162.178 40.1652 160.978 39.3987 159.934 38.3988C158.89 37.3768 158.079 36.1547 157.501 34.7327C156.923 33.3107 156.635 31.7221 156.635 29.9668C156.635 28.2115 156.923 26.6229 157.501 25.2009C158.079 23.7789 158.879 22.5568 159.901 21.5348C160.945 20.5127 162.156 19.7239 163.533 19.1685C164.911 18.613 166.389 18.3353 167.966 18.3353ZM168.633 40.0652C169.788 40.0652 170.699 39.6875 171.366 38.9321C172.032 38.1544 172.51 37.0879 172.799 35.7326C173.11 34.3772 173.265 32.7997 173.265 31C173.265 27.3783 172.71 24.601 171.599 22.6679C170.51 20.7349 169.066 19.7684 167.266 19.7684C166.133 19.7684 165.222 20.1461 164.533 20.9015C163.867 21.657 163.378 22.7235 163.067 24.101C162.778 25.4564 162.634 27.0339 162.634 28.8336C162.634 32.4553 163.178 35.2326 164.267 37.1657C165.378 39.0987 166.833 40.0652 168.633 40.0652ZM194.693 41.265C194.515 40.754 194.293 40.2319 194.026 39.6986C193.782 39.1431 193.448 38.421 193.026 37.5323L187.027 25.0009H186.961L186.361 37.6656C186.338 38.421 186.516 39.0321 186.894 39.4986C187.272 39.943 187.96 40.1874 188.96 40.2319V40.9984H182.794V40.2319C183.439 40.1874 183.894 39.943 184.161 39.4986C184.45 39.0321 184.605 38.421 184.628 37.6656L185.327 22.168C185.372 21.3904 185.316 20.8349 185.161 20.5016C185.027 20.1683 184.783 19.9572 184.428 19.8684C184.072 19.7573 183.594 19.6684 182.994 19.6017V18.8352H190.127C190.304 19.4129 190.504 19.9572 190.727 20.4683C190.971 20.9793 191.238 21.5459 191.526 22.168L197.259 34.1661H197.326L202.658 22.168C203.169 21.0349 203.558 19.9239 203.825 18.8352H210.89V19.6017C210.468 19.624 210.112 19.6906 209.824 19.8017C209.535 19.9128 209.324 20.1461 209.19 20.5016C209.079 20.8349 209.035 21.3904 209.057 22.168L209.757 37.6656C209.801 38.3766 209.89 38.9098 210.024 39.2653C210.179 39.6208 210.424 39.8653 210.757 39.9986C211.09 40.1097 211.534 40.1874 212.09 40.2319V40.9984H202.591V40.2319C203.302 40.1874 203.791 40.0208 204.058 39.7319C204.347 39.4431 204.469 38.7543 204.424 37.6656L203.858 24.0344H203.791L197.759 37.5323C197.337 38.4655 197.026 39.1987 196.826 39.7319C196.648 40.243 196.492 40.754 196.359 41.265H194.693ZM226.686 41.265C226.509 40.754 226.286 40.2319 226.02 39.6986C225.775 39.1431 225.442 38.421 225.02 37.5323L219.021 25.0009H218.954L218.354 37.6656C218.332 38.421 218.51 39.0321 218.888 39.4986C219.265 39.943 219.954 40.1874 220.954 40.2319V40.9984H214.788V40.2319C215.433 40.1874 215.888 39.943 216.155 39.4986C216.444 39.0321 216.599 38.421 216.621 37.6656L217.321 22.168C217.366 21.3904 217.31 20.8349 217.155 20.5016C217.021 20.1683 216.777 19.9572 216.421 19.8684C216.066 19.7573 215.588 19.6684 214.988 19.6017V18.8352H222.12C222.298 19.4129 222.498 19.9572 222.72 20.4683C222.965 20.9793 223.231 21.5459 223.52 22.168L229.253 34.1661H229.319L234.652 22.168C235.163 21.0349 235.552 19.9239 235.818 18.8352H242.884V19.6017C242.462 19.624 242.106 19.6906 241.817 19.8017C241.529 19.9128 241.317 20.1461 241.184 20.5016C241.073 20.8349 241.029 21.3904 241.051 22.168L241.751 37.6656C241.795 38.3766 241.884 38.9098 242.017 39.2653C242.173 39.6208 242.417 39.8653 242.751 39.9986C243.084 40.1097 243.528 40.1874 244.084 40.2319V40.9984H234.585V40.2319C235.296 40.1874 235.785 40.0208 236.052 39.7319C236.34 39.4431 236.463 38.7543 236.418 37.6656L235.852 24.0344H235.785L229.753 37.5323C229.33 38.4655 229.019 39.1987 228.819 39.7319C228.642 40.243 228.486 40.754 228.353 41.265H226.686ZM270.229 34.8327H270.996L270.663 40.9984H254.598V40.2319C254.776 40.143 255.043 39.9875 255.398 39.7653C255.776 39.5431 256.165 39.2876 256.565 38.9987C257.676 38.1988 258.72 37.2879 259.698 36.2658C260.675 35.2438 261.531 34.155 262.264 32.9997C262.997 31.8443 263.575 30.6889 263.997 29.5335C264.419 28.3782 264.63 27.2783 264.63 26.234C264.63 25.2342 264.386 24.3899 263.897 23.7011C263.43 23.0123 262.575 22.6679 261.331 22.6679C260.286 22.6679 259.32 22.9568 258.431 23.5345C257.542 24.1122 256.665 25.012 255.798 26.234L255.165 25.7008C256.076 23.39 257.22 21.6681 258.598 20.5349C259.975 19.4018 261.697 18.8352 263.764 18.8352C264.963 18.8352 266.041 19.0352 266.996 19.4351C267.952 19.8128 268.707 20.4127 269.263 21.2348C269.841 22.0347 270.129 23.079 270.129 24.3677C270.129 26.6562 269.396 28.8003 267.93 30.8C266.485 32.7997 264.464 34.6772 261.864 36.4325V36.4991H266.73C267.996 36.4991 268.874 36.3436 269.363 36.0325C269.852 35.7215 270.14 35.3215 270.229 34.8327ZM284.414 18.8352C285.57 18.8352 286.703 19.0574 287.814 19.5018C288.925 19.9461 289.925 20.6349 290.813 21.5681C291.702 22.5013 292.402 23.6789 292.913 25.1009C293.446 26.5007 293.713 28.1671 293.713 30.1001C293.713 32.0109 293.457 33.6773 292.946 35.0993C292.435 36.5213 291.735 37.71 290.847 38.6654C289.958 39.6208 288.958 40.3319 287.847 40.7984C286.736 41.265 285.581 41.4983 284.381 41.4983C283.226 41.4983 282.093 41.2761 280.982 40.8318C279.871 40.3874 278.871 39.6986 277.982 38.7654C277.093 37.8322 276.382 36.6658 275.849 35.266C275.338 33.844 275.082 32.1665 275.082 30.2334C275.082 28.3226 275.338 26.6562 275.849 25.2342C276.36 23.8122 277.06 22.6235 277.949 21.6681C278.837 20.7127 279.837 20.0017 280.948 19.5351C282.059 19.0685 283.215 18.8352 284.414 18.8352ZM284.514 40.0652C285.159 40.0652 285.747 39.7764 286.281 39.1987C286.814 38.621 287.236 37.6434 287.547 36.2658C287.88 34.8883 288.047 32.9997 288.047 30.6C288.047 28.5115 287.903 26.7006 287.614 25.1675C287.347 23.6122 286.936 22.4124 286.381 21.5681C285.825 20.7016 285.125 20.2683 284.281 20.2683C283.659 20.2683 283.07 20.5571 282.515 21.1348C281.981 21.7125 281.548 22.6901 281.215 24.0677C280.904 25.4453 280.748 27.3339 280.748 29.7335C280.748 31.8221 280.882 33.644 281.148 35.1993C281.437 36.7324 281.859 37.9322 282.415 38.7988C282.97 39.6431 283.67 40.0652 284.514 40.0652ZM312.117 34.8327H312.884L312.551 40.9984H296.486V40.2319C296.664 40.143 296.931 39.9875 297.286 39.7653C297.664 39.5431 298.053 39.2876 298.453 38.9987C299.564 38.1988 300.608 37.2879 301.586 36.2658C302.563 35.2438 303.419 34.155 304.152 32.9997C304.885 31.8443 305.463 30.6889 305.885 29.5335C306.307 28.3782 306.518 27.2783 306.518 26.234C306.518 25.2342 306.274 24.3899 305.785 23.7011C305.318 23.0123 304.463 22.6679 303.219 22.6679C302.174 22.6679 301.208 22.9568 300.319 23.5345C299.43 24.1122 298.553 25.012 297.686 26.234L297.053 25.7008C297.964 23.39 299.108 21.6681 300.486 20.5349C301.863 19.4018 303.585 18.8352 305.652 18.8352C306.852 18.8352 307.929 19.0352 308.885 19.4351C309.84 19.8128 310.595 20.4127 311.151 21.2348C311.729 22.0347 312.017 23.079 312.017 24.3677C312.017 26.6562 311.284 28.8003 309.818 30.8C308.373 32.7997 306.352 34.6772 303.752 36.4325V36.4991H308.618C309.884 36.4991 310.762 36.3436 311.251 36.0325C311.74 35.7215 312.028 35.3215 312.117 34.8327ZM330.635 32.4997H332.968V36.6658H331.568C330.946 36.6658 330.635 37.0546 330.635 37.8322C330.635 38.3655 330.635 38.8876 330.635 39.3987C330.657 39.8875 330.679 40.4207 330.702 40.9984H325.436C325.48 40.2652 325.514 39.5542 325.536 38.8654C325.558 38.1544 325.58 37.4212 325.603 36.6658H315.071V35.8992C315.648 35.3437 316.171 34.766 316.637 34.1661L327.536 20.5349C327.78 20.2239 328.002 19.9239 328.202 19.6351C328.424 19.324 328.602 19.0574 328.735 18.8352H330.668L330.635 32.4997ZM325.536 25.5342L319.97 32.4997H325.636V25.5342H325.536Z" fill="white"/>
<path d="M381.183 24.6792C376.531 22.8218 371.074 23.8124 367.353 27.5271C362.33 32.542 362.33 40.6524 367.353 45.6673C371.074 49.382 376.531 50.3726 381.183 48.5152V42.5717C380.252 43.0051 379.26 43.2527 378.206 43.2527C374.485 43.2527 371.508 40.281 371.508 36.5663C371.508 32.8515 374.485 29.8798 378.206 29.8798C379.26 29.8798 380.314 30.1274 381.183 30.5608V24.6792Z" fill="white"/>
<path d="M379.079 18.7229C380.911 16.8863 380.911 13.8463 379.079 11.9464C377.247 10.1098 374.215 10.1098 372.32 11.9464C370.424 13.783 370.488 16.823 372.32 18.7229C374.215 20.5596 377.247 20.5596 379.079 18.7229Z" fill="white"/>
<path d="M411.943 40.9984V40.2319C412.588 40.1874 413.054 40.0208 413.343 39.7319C413.632 39.4431 413.776 38.7543 413.776 37.6656V22.168C413.776 21.0793 413.61 20.3905 413.277 20.1017C412.965 19.7906 412.354 19.624 411.444 19.6017V18.8352H420.942V19.6017C420.298 19.624 419.831 19.7906 419.542 20.1017C419.253 20.3905 419.109 21.0793 419.109 22.168V37.6656C419.109 38.7543 419.276 39.4431 419.609 39.7319C419.942 40.0208 420.553 40.1874 421.442 40.2319V40.9984H411.943ZM444.521 41.265C444.188 40.9095 443.843 40.5651 443.488 40.2319C443.132 39.8764 442.566 39.3542 441.788 38.6654L428.657 26.6673H428.59V37.6656C428.59 38.421 428.779 39.0321 429.157 39.4986C429.557 39.943 430.235 40.1874 431.19 40.2319V40.9984H425.024V40.2319C425.669 40.1874 426.135 39.943 426.424 39.4986C426.713 39.0321 426.857 38.421 426.857 37.6656V22.168C426.857 21.0793 426.691 20.3905 426.357 20.1017C426.046 19.7906 425.435 19.624 424.524 19.6017V18.8352H428.524C428.857 19.2574 429.212 19.6351 429.59 19.9684C429.968 20.3016 430.401 20.7016 430.89 21.1682L444.155 33.1663H444.221V22.168C444.221 21.4126 444.032 20.8016 443.655 20.335C443.277 19.8684 442.599 19.624 441.622 19.6017V18.8352H447.787V19.6017C447.143 19.624 446.676 19.8684 446.388 20.335C446.099 20.8016 445.954 21.4126 445.954 22.168V37.6656C445.954 38.2877 445.954 38.8876 445.954 39.4653C445.976 40.0208 445.999 40.6207 446.021 41.265H444.521ZM450.423 18.8352H469.42V24.3343H468.654C468.52 23.1345 468.165 22.1569 467.587 21.4015C467.009 20.646 466.021 20.2683 464.621 20.2683H462.588V37.6656C462.588 38.7543 462.755 39.4431 463.088 39.7319C463.421 40.0208 464.032 40.1874 464.921 40.2319V40.9984H455.422V40.2319C456.067 40.1874 456.533 40.0208 456.822 39.7319C457.111 39.4431 457.255 38.7543 457.255 37.6656V20.2683H455.189C453.834 20.2683 452.856 20.646 452.256 21.4015C451.678 22.1569 451.323 23.1345 451.19 24.3343H450.423V18.8352ZM472.444 40.9984V40.2319C473.089 40.1874 473.555 40.0208 473.844 39.7319C474.133 39.4431 474.277 38.7543 474.277 37.6656V22.168C474.277 21.0793 474.111 20.3905 473.778 20.1017C473.466 19.7906 472.855 19.624 471.945 19.6017V18.8352H488.309V23.5011H487.542C487.498 22.5457 487.164 21.7681 486.542 21.1682C485.942 20.5683 485.009 20.2683 483.743 20.2683H481.076C480.61 20.2683 480.243 20.3905 479.977 20.6349C479.732 20.8793 479.61 21.3904 479.61 22.168V28.7337C479.788 28.6003 479.999 28.5115 480.243 28.467C480.51 28.4226 480.821 28.4004 481.176 28.4004H484.409C485.076 28.4004 485.631 28.2115 486.076 27.8338C486.52 27.4561 486.753 26.9339 486.776 26.2674H487.542V31.9332H486.776C486.753 31.1111 486.52 30.5556 486.076 30.2667C485.631 29.9779 485.076 29.8335 484.409 29.8335H481.243C480.643 29.8335 480.221 29.9335 479.977 30.1334C479.732 30.3334 479.61 30.7222 479.61 31.2999V37.6656C479.61 38.4433 479.777 38.9543 480.11 39.1987C480.465 39.4431 481.143 39.5653 482.143 39.5653H485.309C486.642 39.5653 487.698 39.1654 488.475 38.3655C489.253 37.5656 489.686 36.6102 489.775 35.4993H490.542L490.275 40.9984H472.444ZM512.901 41.4983C511.901 41.4983 511.046 41.3317 510.335 40.9984C509.624 40.6874 509.024 40.2652 508.535 39.7319C508.046 39.1987 507.591 38.6099 507.168 37.9656L502.503 30.7C502.28 30.3223 502.08 30.089 501.903 30.0001C501.725 29.9112 501.514 29.8557 501.269 29.8335V28.667C502.603 28.5781 503.636 28.3115 504.369 27.8671C505.102 27.4227 505.613 26.8784 505.902 26.234C506.191 25.5675 506.335 24.8787 506.335 24.1677C506.335 22.8124 505.958 21.8014 505.202 21.1348C504.447 20.4461 503.58 20.1017 502.603 20.1017C501.869 20.1017 501.347 20.235 501.036 20.5016C500.747 20.746 500.603 21.3015 500.603 22.168V37.6656C500.603 38.7543 500.769 39.4431 501.103 39.7319C501.436 40.0208 502.047 40.1874 502.936 40.2319V40.9984H493.437V40.2319C494.082 40.1874 494.548 40.0208 494.837 39.7319C495.126 39.4431 495.27 38.7543 495.27 37.6656V22.168C495.27 21.0793 495.104 20.3905 494.77 20.1017C494.459 19.7906 493.848 19.624 492.937 19.6017V18.8352H495.27C496.937 18.8352 498.448 18.813 499.803 18.7685C501.158 18.7019 502.314 18.6686 503.269 18.6686C505.469 18.6686 507.213 18.8796 508.502 19.3018C509.812 19.7017 510.746 20.2683 511.301 21.0015C511.879 21.7347 512.168 22.5679 512.168 23.5011C512.168 24.3899 511.945 25.2009 511.501 25.9341C511.079 26.6673 510.512 27.2894 509.801 27.8005C509.113 28.2893 508.357 28.6337 507.535 28.8336V28.9003L513.068 37.5656C513.712 38.5877 514.301 39.2876 514.834 39.6653C515.367 40.043 515.845 40.2319 516.267 40.2319V40.9984C515.823 41.1539 515.289 41.2761 514.667 41.365C514.067 41.4539 513.479 41.4983 512.901 41.4983ZM528.641 41.4983C526.308 41.4983 524.241 41.0317 522.442 40.0986C520.642 39.1654 519.231 37.8545 518.209 36.1658C517.187 34.455 516.676 32.4775 516.676 30.2334C516.676 28.3893 517.009 26.7451 517.676 25.3009C518.342 23.8344 519.253 22.5791 520.409 21.5348C521.586 20.4905 522.93 19.7017 524.441 19.1685C525.974 18.613 527.607 18.3353 529.341 18.3353C530.651 18.3353 531.907 18.4575 533.107 18.7019C534.306 18.9463 535.262 19.2351 535.973 19.5684V24.8343H535.206C534.762 23.4789 534.229 22.4457 533.607 21.7347C532.984 21.0015 532.285 20.4905 531.507 20.2016C530.751 19.9128 529.952 19.7684 529.107 19.7684C524.819 19.7684 522.675 22.879 522.675 29.1003C522.675 31.1444 522.886 32.9997 523.308 34.6661C523.753 36.3325 524.43 37.6545 525.341 38.6321C526.274 39.5875 527.463 40.0652 528.907 40.0652C530.085 40.0652 531.151 39.7764 532.107 39.1987C533.062 38.5988 533.873 37.81 534.54 36.8324C535.228 35.8548 535.717 34.7994 536.006 33.6662H536.773L536.506 38.7321C535.773 39.532 534.74 40.1985 533.407 40.7318C532.073 41.2428 530.485 41.4983 528.641 41.4983ZM550.888 18.3353C552.465 18.3353 553.932 18.6019 555.287 19.1351C556.643 19.6684 557.842 20.4461 558.887 21.4681C559.931 22.468 560.742 23.6789 561.32 25.1009C561.897 26.5229 562.186 28.1115 562.186 29.8668C562.186 31.6221 561.897 33.2107 561.32 34.6327C560.742 36.0547 559.931 37.2768 558.887 38.2988C557.865 39.3209 556.665 40.1097 555.287 40.6651C553.91 41.2206 552.432 41.4983 550.855 41.4983C549.299 41.4983 547.833 41.2317 546.455 40.6985C545.1 40.1652 543.9 39.3987 542.856 38.3988C541.812 37.3768 541.001 36.1547 540.423 34.7327C539.845 33.3107 539.556 31.7221 539.556 29.9668C539.556 28.2115 539.845 26.6229 540.423 25.2009C541.001 23.7789 541.8 22.5568 542.823 21.5348C543.867 20.5127 545.078 19.7239 546.455 19.1685C547.833 18.613 549.31 18.3353 550.888 18.3353ZM551.555 40.0652C552.71 40.0652 553.621 39.6875 554.287 38.9321C554.954 38.1544 555.432 37.0879 555.721 35.7326C556.032 34.3772 556.187 32.7997 556.187 31C556.187 27.3783 555.632 24.601 554.521 22.6679C553.432 20.7349 551.988 19.7684 550.188 19.7684C549.055 19.7684 548.144 20.1461 547.455 20.9015C546.789 21.657 546.3 22.7235 545.989 24.101C545.7 25.4564 545.555 27.0339 545.555 28.8336C545.555 32.4553 546.1 35.2326 547.189 37.1657C548.299 39.0987 549.755 40.0652 551.555 40.0652ZM577.615 41.265C577.437 40.754 577.215 40.2319 576.948 39.6986C576.704 39.1431 576.37 38.421 575.948 37.5323L569.949 25.0009H569.882L569.282 37.6656C569.26 38.421 569.438 39.0321 569.816 39.4986C570.193 39.943 570.882 40.1874 571.882 40.2319V40.9984H565.716V40.2319C566.361 40.1874 566.816 39.943 567.083 39.4986C567.372 39.0321 567.527 38.421 567.549 37.6656L568.249 22.168C568.294 21.3904 568.238 20.8349 568.083 20.5016C567.949 20.1683 567.705 19.9572 567.349 19.8684C566.994 19.7573 566.516 19.6684 565.916 19.6017V18.8352H573.049C573.226 19.4129 573.426 19.9572 573.648 20.4683C573.893 20.9793 574.16 21.5459 574.448 22.168L580.181 34.1661H580.247L585.58 22.168C586.091 21.0349 586.48 19.9239 586.746 18.8352H593.812V19.6017C593.39 19.624 593.034 19.6906 592.746 19.8017C592.457 19.9128 592.246 20.1461 592.112 20.5016C592.001 20.8349 591.957 21.3904 591.979 22.168L592.679 37.6656C592.723 38.3766 592.812 38.9098 592.945 39.2653C593.101 39.6208 593.345 39.8653 593.679 39.9986C594.012 40.1097 594.456 40.1874 595.012 40.2319V40.9984H585.513V40.2319C586.224 40.1874 586.713 40.0208 586.98 39.7319C587.269 39.4431 587.391 38.7543 587.346 37.6656L586.78 24.0344H586.713L580.681 37.5323C580.259 38.4655 579.947 39.1987 579.748 39.7319C579.57 40.243 579.414 40.754 579.281 41.265H577.615ZM609.608 41.265C609.431 40.754 609.208 40.2319 608.942 39.6986C608.697 39.1431 608.364 38.421 607.942 37.5323L601.943 25.0009H601.876L601.276 37.6656C601.254 38.421 601.432 39.0321 601.809 39.4986C602.187 39.943 602.876 40.1874 603.876 40.2319V40.9984H597.71V40.2319C598.354 40.1874 598.81 39.943 599.077 39.4986C599.365 39.0321 599.521 38.421 599.543 37.6656L600.243 22.168C600.287 21.3904 600.232 20.8349 600.076 20.5016C599.943 20.1683 599.699 19.9572 599.343 19.8684C598.988 19.7573 598.51 19.6684 597.91 19.6017V18.8352H605.042C605.22 19.4129 605.42 19.9572 605.642 20.4683C605.887 20.9793 606.153 21.5459 606.442 22.168L612.175 34.1661H612.241L617.574 22.168C618.085 21.0349 618.474 19.9239 618.74 18.8352H625.806V19.6017C625.384 19.624 625.028 19.6906 624.739 19.8017C624.45 19.9128 624.239 20.1461 624.106 20.5016C623.995 20.8349 623.95 21.3904 623.973 22.168L624.673 37.6656C624.717 38.3766 624.806 38.9098 624.939 39.2653C625.095 39.6208 625.339 39.8653 625.672 39.9986C626.006 40.1097 626.45 40.1874 627.006 40.2319V40.9984H617.507V40.2319C618.218 40.1874 618.707 40.0208 618.973 39.7319C619.262 39.4431 619.385 38.7543 619.34 37.6656L618.773 24.0344H618.707L612.674 37.5323C612.252 38.4655 611.941 39.1987 611.741 39.7319C611.564 40.243 611.408 40.754 611.275 41.265H609.608ZM653.151 34.8327H653.918L653.584 40.9984H637.52V40.2319C637.698 40.143 637.965 39.9875 638.32 39.7653C638.698 39.5431 639.087 39.2876 639.487 38.9987C640.598 38.1988 641.642 37.2879 642.62 36.2658C643.597 35.2438 644.453 34.155 645.186 32.9997C645.919 31.8443 646.497 30.6889 646.919 29.5335C647.341 28.3782 647.552 27.2783 647.552 26.234C647.552 25.2342 647.308 24.3899 646.819 23.7011C646.352 23.0123 645.497 22.6679 644.253 22.6679C643.208 22.6679 642.242 22.9568 641.353 23.5345C640.464 24.1122 639.587 25.012 638.72 26.234L638.087 25.7008C638.998 23.39 640.142 21.6681 641.52 20.5349C642.897 19.4018 644.619 18.8352 646.686 18.8352C647.885 18.8352 648.963 19.0352 649.918 19.4351C650.874 19.8128 651.629 20.4127 652.185 21.2348C652.762 22.0347 653.051 23.079 653.051 24.3677C653.051 26.6562 652.318 28.8003 650.852 30.8C649.407 32.7997 647.385 34.6772 644.786 36.4325V36.4991H649.652C650.918 36.4991 651.796 36.3436 652.285 36.0325C652.773 35.7215 653.062 35.3215 653.151 34.8327ZM667.336 18.8352C668.492 18.8352 669.625 19.0574 670.736 19.5018C671.847 19.9461 672.846 20.6349 673.735 21.5681C674.624 22.5013 675.324 23.6789 675.835 25.1009C676.368 26.5007 676.635 28.1671 676.635 30.1001C676.635 32.0109 676.379 33.6773 675.868 35.0993C675.357 36.5213 674.657 37.71 673.769 38.6654C672.88 39.6208 671.88 40.3319 670.769 40.7984C669.658 41.265 668.503 41.4983 667.303 41.4983C666.148 41.4983 665.014 41.2761 663.903 40.8318C662.793 40.3874 661.793 39.6986 660.904 38.7654C660.015 37.8322 659.304 36.6658 658.771 35.266C658.26 33.844 658.004 32.1665 658.004 30.2334C658.004 28.3226 658.26 26.6562 658.771 25.2342C659.282 23.8122 659.982 22.6235 660.871 21.6681C661.759 20.7127 662.759 20.0017 663.87 19.5351C664.981 19.0685 666.136 18.8352 667.336 18.8352ZM667.436 40.0652C668.081 40.0652 668.669 39.7764 669.203 39.1987C669.736 38.621 670.158 37.6434 670.469 36.2658C670.802 34.8883 670.969 32.9997 670.969 30.6C670.969 28.5115 670.825 26.7006 670.536 25.1675C670.269 23.6122 669.858 22.4124 669.303 21.5681C668.747 20.7016 668.047 20.2683 667.203 20.2683C666.581 20.2683 665.992 20.5571 665.437 21.1348C664.903 21.7125 664.47 22.6901 664.137 24.0677C663.826 25.4453 663.67 27.3339 663.67 29.7335C663.67 31.8221 663.803 33.644 664.07 35.1993C664.359 36.7324 664.781 37.9322 665.337 38.7988C665.892 39.6431 666.592 40.0652 667.436 40.0652ZM695.039 34.8327H695.806L695.473 40.9984H679.408V40.2319C679.586 40.143 679.853 39.9875 680.208 39.7653C680.586 39.5431 680.975 39.2876 681.375 38.9987C682.486 38.1988 683.53 37.2879 684.508 36.2658C685.485 35.2438 686.341 34.155 687.074 32.9997C687.807 31.8443 688.385 30.6889 688.807 29.5335C689.229 28.3782 689.44 27.2783 689.44 26.234C689.44 25.2342 689.196 24.3899 688.707 23.7011C688.24 23.0123 687.385 22.6679 686.141 22.6679C685.096 22.6679 684.13 22.9568 683.241 23.5345C682.352 24.1122 681.475 25.012 680.608 26.234L679.975 25.7008C680.886 23.39 682.03 21.6681 683.408 20.5349C684.785 19.4018 686.507 18.8352 688.574 18.8352C689.773 18.8352 690.851 19.0352 691.806 19.4351C692.762 19.8128 693.517 20.4127 694.073 21.2348C694.65 22.0347 694.939 23.079 694.939 24.3677C694.939 26.6562 694.206 28.8003 692.74 30.8C691.295 32.7997 689.273 34.6772 686.674 36.4325V36.4991H691.54C692.806 36.4991 693.684 36.3436 694.173 36.0325C694.662 35.7215 694.95 35.3215 695.039 34.8327ZM713.557 32.4997H715.89V36.6658H714.49C713.868 36.6658 713.557 37.0546 713.557 37.8322C713.557 38.3655 713.557 38.8876 713.557 39.3987C713.579 39.8875 713.601 40.4207 713.624 40.9984H708.358C708.402 40.2652 708.436 39.5542 708.458 38.8654C708.48 38.1544 708.502 37.4212 708.524 36.6658H697.993V35.8992C698.57 35.3437 699.093 34.766 699.559 34.1661L710.457 20.5349C710.702 20.2239 710.924 19.9239 711.124 19.6351C711.346 19.324 711.524 19.0574 711.657 18.8352H713.59L713.557 32.4997ZM708.458 25.5342L702.892 32.4997H708.558V25.5342H708.458Z" fill="white"/>
<path d="M764.097 24.6792C759.446 22.8219 753.988 23.8125 750.267 27.5272C745.244 32.542 745.244 40.6525 750.267 45.6674C753.988 49.3821 759.446 50.3727 764.097 48.5153V42.5718C763.166 43.0051 762.174 43.2528 761.12 43.2528C757.399 43.2528 754.422 40.281 754.422 36.5663C754.422 32.8516 757.399 29.8798 761.12 29.8798C762.174 29.8798 763.228 30.1275 764.097 30.5609V24.6792Z" fill="white"/>
<path d="M761.993 18.7229C763.825 16.8863 763.825 13.8463 761.993 11.9464C760.161 10.1098 757.129 10.1098 755.234 11.9464C753.339 13.783 753.402 16.823 755.234 18.7229C757.129 20.5596 760.161 20.5596 761.993 18.7229Z" fill="white"/>
<path d="M794.865 40.9984V40.2319C795.51 40.1874 795.976 40.0208 796.265 39.7319C796.554 39.4431 796.698 38.7543 796.698 37.6656V22.168C796.698 21.0793 796.532 20.3905 796.198 20.1017C795.887 19.7906 795.276 19.624 794.365 19.6017V18.8352H803.864V19.6017C803.22 19.624 802.753 19.7906 802.464 20.1017C802.175 20.3905 802.031 21.0793 802.031 22.168V37.6656C802.031 38.7543 802.197 39.4431 802.531 39.7319C802.864 40.0208 803.475 40.1874 804.364 40.2319V40.9984H794.865ZM827.443 41.265C827.11 40.9095 826.765 40.5651 826.41 40.2319C826.054 39.8764 825.488 39.3542 824.71 38.6654L811.579 26.6673H811.512V37.6656C811.512 38.421 811.701 39.0321 812.079 39.4986C812.479 39.943 813.156 40.1874 814.112 40.2319V40.9984H807.946V40.2319C808.59 40.1874 809.057 39.943 809.346 39.4986C809.635 39.0321 809.779 38.421 809.779 37.6656V22.168C809.779 21.0793 809.612 20.3905 809.279 20.1017C808.968 19.7906 808.357 19.624 807.446 19.6017V18.8352H811.446C811.779 19.2574 812.134 19.6351 812.512 19.9684C812.89 20.3016 813.323 20.7016 813.812 21.1682L827.076 33.1663H827.143V22.168C827.143 21.4126 826.954 20.8016 826.577 20.335C826.199 19.8684 825.521 19.624 824.543 19.6017V18.8352H830.709V19.6017C830.065 19.624 829.598 19.8684 829.309 20.335C829.021 20.8016 828.876 21.4126 828.876 22.168V37.6656C828.876 38.2877 828.876 38.8876 828.876 39.4653C828.898 40.0208 828.921 40.6207 828.943 41.265H827.443ZM833.345 18.8352H852.342V24.3343H851.575C851.442 23.1345 851.087 22.1569 850.509 21.4015C849.931 20.646 848.943 20.2683 847.543 20.2683H845.51V37.6656C845.51 38.7543 845.676 39.4431 846.01 39.7319C846.343 40.0208 846.954 40.1874 847.843 40.2319V40.9984H838.344V40.2319C838.989 40.1874 839.455 40.0208 839.744 39.7319C840.033 39.4431 840.177 38.7543 840.177 37.6656V20.2683H838.111C836.756 20.2683 835.778 20.646 835.178 21.4015C834.6 22.1569 834.245 23.1345 834.112 24.3343H833.345V18.8352ZM855.366 40.9984V40.2319C856.011 40.1874 856.477 40.0208 856.766 39.7319C857.055 39.4431 857.199 38.7543 857.199 37.6656V22.168C857.199 21.0793 857.033 20.3905 856.699 20.1017C856.388 19.7906 855.777 19.624 854.866 19.6017V18.8352H871.231V23.5011H870.464C870.42 22.5457 870.086 21.7681 869.464 21.1682C868.864 20.5683 867.931 20.2683 866.665 20.2683H863.998C863.532 20.2683 863.165 20.3905 862.898 20.6349C862.654 20.8793 862.532 21.3904 862.532 22.168V28.7337C862.71 28.6003 862.921 28.5115 863.165 28.467C863.432 28.4226 863.743 28.4004 864.098 28.4004H867.331C867.998 28.4004 868.553 28.2115 868.998 27.8338C869.442 27.4561 869.675 26.9339 869.697 26.2674H870.464V31.9332H869.697C869.675 31.1111 869.442 30.5556 868.998 30.2667C868.553 29.9779 867.998 29.8335 867.331 29.8335H864.165C863.565 29.8335 863.143 29.9335 862.898 30.1334C862.654 30.3334 862.532 30.7222 862.532 31.2999V37.6656C862.532 38.4433 862.698 38.9543 863.032 39.1987C863.387 39.4431 864.065 39.5653 865.065 39.5653H868.231C869.564 39.5653 870.619 39.1654 871.397 38.3655C872.175 37.5656 872.608 36.6102 872.697 35.4993H873.463L873.197 40.9984H855.366ZM895.823 41.4983C894.823 41.4983 893.968 41.3317 893.257 40.9984C892.546 40.6874 891.946 40.2652 891.457 39.7319C890.968 39.1987 890.512 38.6099 890.09 37.9656L885.424 30.7C885.202 30.3223 885.002 30.089 884.824 30.0001C884.647 29.9112 884.436 29.8557 884.191 29.8335V28.667C885.524 28.5781 886.558 28.3115 887.291 27.8671C888.024 27.4227 888.535 26.8784 888.824 26.234C889.113 25.5675 889.257 24.8787 889.257 24.1677C889.257 22.8124 888.879 21.8014 888.124 21.1348C887.369 20.4461 886.502 20.1017 885.524 20.1017C884.791 20.1017 884.269 20.235 883.958 20.5016C883.669 20.746 883.525 21.3015 883.525 22.168V37.6656C883.525 38.7543 883.691 39.4431 884.025 39.7319C884.358 40.0208 884.969 40.1874 885.858 40.2319V40.9984H876.359V40.2319C877.003 40.1874 877.47 40.0208 877.759 39.7319C878.048 39.4431 878.192 38.7543 878.192 37.6656V22.168C878.192 21.0793 878.026 20.3905 877.692 20.1017C877.381 19.7906 876.77 19.624 875.859 19.6017V18.8352H878.192C879.859 18.8352 881.369 18.813 882.725 18.7685C884.08 18.7019 885.236 18.6686 886.191 18.6686C888.391 18.6686 890.135 18.8796 891.423 19.3018C892.734 19.7017 893.668 20.2683 894.223 21.0015C894.801 21.7347 895.09 22.5679 895.09 23.5011C895.09 24.3899 894.867 25.2009 894.423 25.9341C894.001 26.6673 893.434 27.2894 892.723 27.8005C892.034 28.2893 891.279 28.6337 890.457 28.8336V28.9003L895.989 37.5656C896.634 38.5877 897.223 39.2876 897.756 39.6653C898.289 40.043 898.767 40.2319 899.189 40.2319V40.9984C898.745 41.1539 898.211 41.2761 897.589 41.365C896.989 41.4539 896.4 41.4983 895.823 41.4983ZM911.563 41.4983C909.23 41.4983 907.163 41.0317 905.363 40.0986C903.564 39.1654 902.153 37.8545 901.131 36.1658C900.109 34.455 899.598 32.4775 899.598 30.2334C899.598 28.3893 899.931 26.7451 900.598 25.3009C901.264 23.8344 902.175 22.5791 903.33 21.5348C904.508 20.4905 905.852 19.7017 907.363 19.1685C908.896 18.613 910.529 18.3353 912.262 18.3353C913.573 18.3353 914.829 18.4575 916.028 18.7019C917.228 18.9463 918.184 19.2351 918.895 19.5684V24.8343H918.128C917.684 23.4789 917.151 22.4457 916.528 21.7347C915.906 21.0015 915.206 20.4905 914.429 20.2016C913.673 19.9128 912.873 19.7684 912.029 19.7684C907.741 19.7684 905.597 22.879 905.597 29.1003C905.597 31.1444 905.808 32.9997 906.23 34.6661C906.674 36.3325 907.352 37.6545 908.263 38.6321C909.196 39.5875 910.385 40.0652 911.829 40.0652C913.007 40.0652 914.073 39.7764 915.029 39.1987C915.984 38.5988 916.795 37.81 917.462 36.8324C918.15 35.8548 918.639 34.7994 918.928 33.6662H919.695L919.428 38.7321C918.695 39.532 917.662 40.1985 916.328 40.7318C914.995 41.2428 913.407 41.4983 911.563 41.4983ZM933.81 18.3353C935.387 18.3353 936.854 18.6019 938.209 19.1351C939.564 19.6684 940.764 20.4461 941.809 21.4681C942.853 22.468 943.664 23.6789 944.242 25.1009C944.819 26.5229 945.108 28.1115 945.108 29.8668C945.108 31.6221 944.819 33.2107 944.242 34.6327C943.664 36.0547 942.853 37.2768 941.809 38.2988C940.787 39.3209 939.587 40.1097 938.209 40.6651C936.832 41.2206 935.354 41.4983 933.777 41.4983C932.221 41.4983 930.755 41.2317 929.377 40.6985C928.022 40.1652 926.822 39.3987 925.778 38.3988C924.733 37.3768 923.922 36.1547 923.345 34.7327C922.767 33.3107 922.478 31.7221 922.478 29.9668C922.478 28.2115 922.767 26.6229 923.345 25.2009C923.922 23.7789 924.722 22.5568 925.744 21.5348C926.789 20.5127 928 19.7239 929.377 19.1685C930.755 18.613 932.232 18.3353 933.81 18.3353ZM934.476 40.0652C935.632 40.0652 936.543 39.6875 937.209 38.9321C937.876 38.1544 938.354 37.0879 938.642 35.7326C938.953 34.3772 939.109 32.7997 939.109 31C939.109 27.3783 938.554 24.601 937.443 22.6679C936.354 20.7349 934.91 19.7684 933.11 19.7684C931.977 19.7684 931.066 20.1461 930.377 20.9015C929.71 21.657 929.222 22.7235 928.911 24.101C928.622 25.4564 928.477 27.0339 928.477 28.8336C928.477 32.4553 929.022 35.2326 930.11 37.1657C931.221 39.0987 932.677 40.0652 934.476 40.0652ZM960.536 41.265C960.359 40.754 960.136 40.2319 959.87 39.6986C959.625 39.1431 959.292 38.421 958.87 37.5323L952.871 25.0009H952.804L952.204 37.6656C952.182 38.421 952.36 39.0321 952.738 39.4986C953.115 39.943 953.804 40.1874 954.804 40.2319V40.9984H948.638V40.2319C949.283 40.1874 949.738 39.943 950.005 39.4986C950.294 39.0321 950.449 38.421 950.471 37.6656L951.171 22.168C951.216 21.3904 951.16 20.8349 951.005 20.5016C950.871 20.1683 950.627 19.9572 950.271 19.8684C949.916 19.7573 949.438 19.6684 948.838 19.6017V18.8352H955.97C956.148 19.4129 956.348 19.9572 956.57 20.4683C956.815 20.9793 957.081 21.5459 957.37 22.168L963.103 34.1661H963.169L968.502 22.168C969.013 21.0349 969.402 19.9239 969.668 18.8352H976.734V19.6017C976.312 19.624 975.956 19.6906 975.667 19.8017C975.379 19.9128 975.167 20.1461 975.034 20.5016C974.923 20.8349 974.879 21.3904 974.901 22.168L975.601 37.6656C975.645 38.3766 975.734 38.9098 975.867 39.2653C976.023 39.6208 976.267 39.8653 976.601 39.9986C976.934 40.1097 977.378 40.1874 977.934 40.2319V40.9984H968.435V40.2319C969.146 40.1874 969.635 40.0208 969.902 39.7319C970.19 39.4431 970.313 38.7543 970.268 37.6656L969.702 24.0344H969.635L963.603 37.5323C963.18 38.4655 962.869 39.1987 962.669 39.7319C962.492 40.243 962.336 40.754 962.203 41.265H960.536ZM992.53 41.265C992.352 40.754 992.13 40.2319 991.864 39.6986C991.619 39.1431 991.286 38.421 990.864 37.5323L984.865 25.0009H984.798L984.198 37.6656C984.176 38.421 984.354 39.0321 984.731 39.4986C985.109 39.943 985.798 40.1874 986.798 40.2319V40.9984H980.632V40.2319C981.276 40.1874 981.732 39.943 981.998 39.4986C982.287 39.0321 982.443 38.421 982.465 37.6656L983.165 22.168C983.209 21.3904 983.154 20.8349 982.998 20.5016C982.865 20.1683 982.621 19.9572 982.265 19.8684C981.91 19.7573 981.432 19.6684 980.832 19.6017V18.8352H987.964C988.142 19.4129 988.342 19.9572 988.564 20.4683C988.808 20.9793 989.075 21.5459 989.364 22.168L995.096 34.1661H995.163L1000.5 22.168C1001.01 21.0349 1001.4 19.9239 1001.66 18.8352H1008.73V19.6017C1008.31 19.624 1007.95 19.6906 1007.66 19.8017C1007.37 19.9128 1007.16 20.1461 1007.03 20.5016C1006.92 20.8349 1006.87 21.3904 1006.89 22.168L1007.59 37.6656C1007.64 38.3766 1007.73 38.9098 1007.86 39.2653C1008.02 39.6208 1008.26 39.8653 1008.59 39.9986C1008.93 40.1097 1009.37 40.1874 1009.93 40.2319V40.9984H1000.43V40.2319C1001.14 40.1874 1001.63 40.0208 1001.9 39.7319C1002.18 39.4431 1002.31 38.7543 1002.26 37.6656L1001.7 24.0344H1001.63L995.596 37.5323C995.174 38.4655 994.863 39.1987 994.663 39.7319C994.485 40.243 994.33 40.754 994.197 41.265H992.53ZM1036.07 34.8327H1036.84L1036.51 40.9984H1020.44V40.2319C1020.62 40.143 1020.89 39.9875 1021.24 39.7653C1021.62 39.5431 1022.01 39.2876 1022.41 38.9987C1023.52 38.1988 1024.56 37.2879 1025.54 36.2658C1026.52 35.2438 1027.37 34.155 1028.11 32.9997C1028.84 31.8443 1029.42 30.6889 1029.84 29.5335C1030.26 28.3782 1030.47 27.2783 1030.47 26.234C1030.47 25.2342 1030.23 24.3899 1029.74 23.7011C1029.27 23.0123 1028.42 22.6679 1027.17 22.6679C1026.13 22.6679 1025.16 22.9568 1024.27 23.5345C1023.39 24.1122 1022.51 25.012 1021.64 26.234L1021.01 25.7008C1021.92 23.39 1023.06 21.6681 1024.44 20.5349C1025.82 19.4018 1027.54 18.8352 1029.61 18.8352C1030.81 18.8352 1031.88 19.0352 1032.84 19.4351C1033.8 19.8128 1034.55 20.4127 1035.11 21.2348C1035.68 22.0347 1035.97 23.079 1035.97 24.3677C1035.97 26.6562 1035.24 28.8003 1033.77 30.8C1032.33 32.7997 1030.31 34.6772 1027.71 36.4325V36.4991H1032.57C1033.84 36.4991 1034.72 36.3436 1035.21 36.0325C1035.7 35.7215 1035.98 35.3215 1036.07 34.8327ZM1050.26 18.8352C1051.41 18.8352 1052.55 19.0574 1053.66 19.5018C1054.77 19.9461 1055.77 20.6349 1056.66 21.5681C1057.55 22.5013 1058.25 23.6789 1058.76 25.1009C1059.29 26.5007 1059.56 28.1671 1059.56 30.1001C1059.56 32.0109 1059.3 33.6773 1058.79 35.0993C1058.28 36.5213 1057.58 37.71 1056.69 38.6654C1055.8 39.6208 1054.8 40.3319 1053.69 40.7984C1052.58 41.265 1051.42 41.4983 1050.22 41.4983C1049.07 41.4983 1047.94 41.2761 1046.83 40.8318C1045.71 40.3874 1044.71 39.6986 1043.83 38.7654C1042.94 37.8322 1042.23 36.6658 1041.69 35.266C1041.18 33.844 1040.93 32.1665 1040.93 30.2334C1040.93 28.3226 1041.18 26.6562 1041.69 25.2342C1042.2 23.8122 1042.9 22.6235 1043.79 21.6681C1044.68 20.7127 1045.68 20.0017 1046.79 19.5351C1047.9 19.0685 1049.06 18.8352 1050.26 18.8352ZM1050.36 40.0652C1051 40.0652 1051.59 39.7764 1052.12 39.1987C1052.66 38.621 1053.08 37.6434 1053.39 36.2658C1053.72 34.8883 1053.89 32.9997 1053.89 30.6C1053.89 28.5115 1053.75 26.7006 1053.46 25.1675C1053.19 23.6122 1052.78 22.4124 1052.22 21.5681C1051.67 20.7016 1050.97 20.2683 1050.12 20.2683C1049.5 20.2683 1048.91 20.5571 1048.36 21.1348C1047.83 21.7125 1047.39 22.6901 1047.06 24.0677C1046.75 25.4453 1046.59 27.3339 1046.59 29.7335C1046.59 31.8221 1046.73 33.644 1046.99 35.1993C1047.28 36.7324 1047.7 37.9322 1048.26 38.7988C1048.81 39.6431 1049.51 40.0652 1050.36 40.0652ZM1077.96 34.8327H1078.73L1078.39 40.9984H1062.33V40.2319C1062.51 40.143 1062.77 39.9875 1063.13 39.7653C1063.51 39.5431 1063.9 39.2876 1064.3 38.9987C1065.41 38.1988 1066.45 37.2879 1067.43 36.2658C1068.41 35.2438 1069.26 34.155 1070 32.9997C1070.73 31.8443 1071.31 30.6889 1071.73 29.5335C1072.15 28.3782 1072.36 27.2783 1072.36 26.234C1072.36 25.2342 1072.12 24.3899 1071.63 23.7011C1071.16 23.0123 1070.31 22.6679 1069.06 22.6679C1068.02 22.6679 1067.05 22.9568 1066.16 23.5345C1065.27 24.1122 1064.4 25.012 1063.53 26.234L1062.9 25.7008C1063.81 23.39 1064.95 21.6681 1066.33 20.5349C1067.71 19.4018 1069.43 18.8352 1071.5 18.8352C1072.7 18.8352 1073.77 19.0352 1074.73 19.4351C1075.68 19.8128 1076.44 20.4127 1076.99 21.2348C1077.57 22.0347 1077.86 23.079 1077.86 24.3677C1077.86 26.6562 1077.13 28.8003 1075.66 30.8C1074.22 32.7997 1072.2 34.6772 1069.6 36.4325V36.4991H1074.46C1075.73 36.4991 1076.61 36.3436 1077.09 36.0325C1077.58 35.7215 1077.87 35.3215 1077.96 34.8327ZM1096.48 32.4997H1098.81V36.6658H1097.41C1096.79 36.6658 1096.48 37.0546 1096.48 37.8322C1096.48 38.3655 1096.48 38.8876 1096.48 39.3987C1096.5 39.8875 1096.52 40.4207 1096.55 40.9984H1091.28C1091.32 40.2652 1091.36 39.5542 1091.38 38.8654C1091.4 38.1544 1091.42 37.4212 1091.45 36.6658H1080.91V35.8992C1081.49 35.3437 1082.01 34.766 1082.48 34.1661L1093.38 20.5349C1093.62 20.2239 1093.85 19.9239 1094.05 19.6351C1094.27 19.324 1094.45 19.0574 1094.58 18.8352H1096.51L1096.48 32.4997ZM1091.38 25.5342L1085.81 32.4997H1091.48V25.5342H1091.38Z" fill="white"/>
<path d="M1147.02 24.6792C1142.37 22.8218 1136.91 23.8124 1133.19 27.5271C1128.17 32.542 1128.17 40.6524 1133.19 45.6673C1136.91 49.382 1142.37 50.3726 1147.02 48.5152V42.5717C1146.09 43.0051 1145.1 43.2527 1144.04 43.2527C1140.32 43.2527 1137.34 40.281 1137.34 36.5663C1137.34 32.8515 1140.32 29.8798 1144.04 29.8798C1145.1 29.8798 1146.15 30.1274 1147.02 30.5608V24.6792Z" fill="white"/>
<path d="M1144.92 18.7229C1146.75 16.8863 1146.75 13.8463 1144.92 11.9464C1143.08 10.1098 1140.05 10.1098 1138.16 11.9464C1136.26 13.783 1136.32 16.823 1138.16 18.7229C1140.05 20.5596 1143.08 20.5596 1144.92 18.7229Z" fill="white"/>
<path d="M1177.78 40.9984V40.2319C1178.42 40.1874 1178.89 40.0208 1179.18 39.7319C1179.47 39.4431 1179.61 38.7543 1179.61 37.6656V22.168C1179.61 21.0793 1179.45 20.3905 1179.11 20.1017C1178.8 19.7906 1178.19 19.624 1177.28 19.6017V18.8352H1186.78V19.6017C1186.13 19.624 1185.67 19.7906 1185.38 20.1017C1185.09 20.3905 1184.94 21.0793 1184.94 22.168V37.6656C1184.94 38.7543 1185.11 39.4431 1185.44 39.7319C1185.78 40.0208 1186.39 40.1874 1187.28 40.2319V40.9984H1177.78ZM1210.36 41.265C1210.02 40.9095 1209.68 40.5651 1209.32 40.2319C1208.97 39.8764 1208.4 39.3542 1207.62 38.6654L1194.49 26.6673H1194.43V37.6656C1194.43 38.421 1194.62 39.0321 1194.99 39.4986C1195.39 39.943 1196.07 40.1874 1197.03 40.2319V40.9984H1190.86V40.2319C1191.5 40.1874 1191.97 39.943 1192.26 39.4986C1192.55 39.0321 1192.69 38.421 1192.69 37.6656V22.168C1192.69 21.0793 1192.53 20.3905 1192.19 20.1017C1191.88 19.7906 1191.27 19.624 1190.36 19.6017V18.8352H1194.36C1194.69 19.2574 1195.05 19.6351 1195.43 19.9684C1195.8 20.3016 1196.24 20.7016 1196.73 21.1682L1209.99 33.1663H1210.06V22.168C1210.06 21.4126 1209.87 20.8016 1209.49 20.335C1209.11 19.8684 1208.44 19.624 1207.46 19.6017V18.8352H1213.62V19.6017C1212.98 19.624 1212.51 19.8684 1212.22 20.335C1211.93 20.8016 1211.79 21.4126 1211.79 22.168V37.6656C1211.79 38.2877 1211.79 38.8876 1211.79 39.4653C1211.81 40.0208 1211.83 40.6207 1211.86 41.265H1210.36ZM1216.26 18.8352H1235.26V24.3343H1234.49C1234.36 23.1345 1234 22.1569 1233.42 21.4015C1232.85 20.646 1231.86 20.2683 1230.46 20.2683H1228.42V37.6656C1228.42 38.7543 1228.59 39.4431 1228.92 39.7319C1229.26 40.0208 1229.87 40.1874 1230.76 40.2319V40.9984H1221.26V40.2319C1221.9 40.1874 1222.37 40.0208 1222.66 39.7319C1222.95 39.4431 1223.09 38.7543 1223.09 37.6656V20.2683H1221.02C1219.67 20.2683 1218.69 20.646 1218.09 21.4015C1217.51 22.1569 1217.16 23.1345 1217.03 24.3343H1216.26V18.8352ZM1238.28 40.9984V40.2319C1238.92 40.1874 1239.39 40.0208 1239.68 39.7319C1239.97 39.4431 1240.11 38.7543 1240.11 37.6656V22.168C1240.11 21.0793 1239.95 20.3905 1239.61 20.1017C1239.3 19.7906 1238.69 19.624 1237.78 19.6017V18.8352H1254.14V23.5011H1253.38C1253.33 22.5457 1253 21.7681 1252.38 21.1682C1251.78 20.5683 1250.85 20.2683 1249.58 20.2683H1246.91C1246.45 20.2683 1246.08 20.3905 1245.81 20.6349C1245.57 20.8793 1245.45 21.3904 1245.45 22.168V28.7337C1245.62 28.6003 1245.83 28.5115 1246.08 28.467C1246.35 28.4226 1246.66 28.4004 1247.01 28.4004H1250.25C1250.91 28.4004 1251.47 28.2115 1251.91 27.8338C1252.36 27.4561 1252.59 26.9339 1252.61 26.2674H1253.38V31.9332H1252.61C1252.59 31.1111 1252.36 30.5556 1251.91 30.2667C1251.47 29.9779 1250.91 29.8335 1250.25 29.8335H1247.08C1246.48 29.8335 1246.06 29.9335 1245.81 30.1334C1245.57 30.3334 1245.45 30.7222 1245.45 31.2999V37.6656C1245.45 38.4433 1245.61 38.9543 1245.95 39.1987C1246.3 39.4431 1246.98 39.5653 1247.98 39.5653H1251.15C1252.48 39.5653 1253.53 39.1654 1254.31 38.3655C1255.09 37.5656 1255.52 36.6102 1255.61 35.4993H1256.38L1256.11 40.9984H1238.28ZM1278.74 41.4983C1277.74 41.4983 1276.88 41.3317 1276.17 40.9984C1275.46 40.6874 1274.86 40.2652 1274.37 39.7319C1273.88 39.1987 1273.43 38.6099 1273 37.9656L1268.34 30.7C1268.12 30.3223 1267.92 30.089 1267.74 30.0001C1267.56 29.9112 1267.35 29.8557 1267.11 29.8335V28.667C1268.44 28.5781 1269.47 28.3115 1270.2 27.8671C1270.94 27.4227 1271.45 26.8784 1271.74 26.234C1272.03 25.5675 1272.17 24.8787 1272.17 24.1677C1272.17 22.8124 1271.79 21.8014 1271.04 21.1348C1270.28 20.4461 1269.42 20.1017 1268.44 20.1017C1267.71 20.1017 1267.18 20.235 1266.87 20.5016C1266.58 20.746 1266.44 21.3015 1266.44 22.168V37.6656C1266.44 38.7543 1266.61 39.4431 1266.94 39.7319C1267.27 40.0208 1267.88 40.1874 1268.77 40.2319V40.9984H1259.27V40.2319C1259.92 40.1874 1260.38 40.0208 1260.67 39.7319C1260.96 39.4431 1261.11 38.7543 1261.11 37.6656V22.168C1261.11 21.0793 1260.94 20.3905 1260.61 20.1017C1260.3 19.7906 1259.68 19.624 1258.77 19.6017V18.8352H1261.11C1262.77 18.8352 1264.28 18.813 1265.64 18.7685C1266.99 18.7019 1268.15 18.6686 1269.11 18.6686C1271.3 18.6686 1273.05 18.8796 1274.34 19.3018C1275.65 19.7017 1276.58 20.2683 1277.14 21.0015C1277.71 21.7347 1278 22.5679 1278 23.5011C1278 24.3899 1277.78 25.2009 1277.34 25.9341C1276.91 26.6673 1276.35 27.2894 1275.64 27.8005C1274.95 28.2893 1274.19 28.6337 1273.37 28.8336V28.9003L1278.9 37.5656C1279.55 38.5877 1280.14 39.2876 1280.67 39.6653C1281.2 40.043 1281.68 40.2319 1282.1 40.2319V40.9984C1281.66 41.1539 1281.13 41.2761 1280.5 41.365C1279.9 41.4539 1279.31 41.4983 1278.74 41.4983ZM1294.48 41.4983C1292.14 41.4983 1290.08 41.0317 1288.28 40.0986C1286.48 39.1654 1285.07 37.8545 1284.04 36.1658C1283.02 34.455 1282.51 32.4775 1282.51 30.2334C1282.51 28.3893 1282.85 26.7451 1283.51 25.3009C1284.18 23.8344 1285.09 22.5791 1286.24 21.5348C1287.42 20.4905 1288.77 19.7017 1290.28 19.1685C1291.81 18.613 1293.44 18.3353 1295.18 18.3353C1296.49 18.3353 1297.74 18.4575 1298.94 18.7019C1300.14 18.9463 1301.1 19.2351 1301.81 19.5684V24.8343H1301.04C1300.6 23.4789 1300.06 22.4457 1299.44 21.7347C1298.82 21.0015 1298.12 20.4905 1297.34 20.2016C1296.59 19.9128 1295.79 19.7684 1294.94 19.7684C1290.65 19.7684 1288.51 22.879 1288.51 29.1003C1288.51 31.1444 1288.72 32.9997 1289.14 34.6661C1289.59 36.3325 1290.27 37.6545 1291.18 38.6321C1292.11 39.5875 1293.3 40.0652 1294.74 40.0652C1295.92 40.0652 1296.99 39.7764 1297.94 39.1987C1298.9 38.5988 1299.71 37.81 1300.38 36.8324C1301.06 35.8548 1301.55 34.7994 1301.84 33.6662H1302.61L1302.34 38.7321C1301.61 39.532 1300.58 40.1985 1299.24 40.7318C1297.91 41.2428 1296.32 41.4983 1294.48 41.4983ZM1316.72 18.3353C1318.3 18.3353 1319.77 18.6019 1321.12 19.1351C1322.48 19.6684 1323.68 20.4461 1324.72 21.4681C1325.77 22.468 1326.58 23.6789 1327.16 25.1009C1327.73 26.5229 1328.02 28.1115 1328.02 29.8668C1328.02 31.6221 1327.73 33.2107 1327.16 34.6327C1326.58 36.0547 1325.77 37.2768 1324.72 38.2988C1323.7 39.3209 1322.5 40.1097 1321.12 40.6651C1319.75 41.2206 1318.27 41.4983 1316.69 41.4983C1315.14 41.4983 1313.67 41.2317 1312.29 40.6985C1310.94 40.1652 1309.74 39.3987 1308.69 38.3988C1307.65 37.3768 1306.84 36.1547 1306.26 34.7327C1305.68 33.3107 1305.39 31.7221 1305.39 29.9668C1305.39 28.2115 1305.68 26.6229 1306.26 25.2009C1306.84 23.7789 1307.64 22.5568 1308.66 21.5348C1309.7 20.5127 1310.91 19.7239 1312.29 19.1685C1313.67 18.613 1315.15 18.3353 1316.72 18.3353ZM1317.39 40.0652C1318.55 40.0652 1319.46 39.6875 1320.12 38.9321C1320.79 38.1544 1321.27 37.0879 1321.56 35.7326C1321.87 34.3772 1322.02 32.7997 1322.02 31C1322.02 27.3783 1321.47 24.601 1320.36 22.6679C1319.27 20.7349 1317.82 19.7684 1316.02 19.7684C1314.89 19.7684 1313.98 20.1461 1313.29 20.9015C1312.62 21.657 1312.14 22.7235 1311.82 24.101C1311.54 25.4564 1311.39 27.0339 1311.39 28.8336C1311.39 32.4553 1311.94 35.2326 1313.02 37.1657C1314.14 39.0987 1315.59 40.0652 1317.39 40.0652ZM1343.45 41.265C1343.27 40.754 1343.05 40.2319 1342.78 39.6986C1342.54 39.1431 1342.21 38.421 1341.78 37.5323L1335.78 25.0009H1335.72L1335.12 37.6656C1335.1 38.421 1335.27 39.0321 1335.65 39.4986C1336.03 39.943 1336.72 40.1874 1337.72 40.2319V40.9984H1331.55V40.2319C1332.2 40.1874 1332.65 39.943 1332.92 39.4986C1333.21 39.0321 1333.36 38.421 1333.39 37.6656L1334.09 22.168C1334.13 21.3904 1334.07 20.8349 1333.92 20.5016C1333.79 20.1683 1333.54 19.9572 1333.19 19.8684C1332.83 19.7573 1332.35 19.6684 1331.75 19.6017V18.8352H1338.88C1339.06 19.4129 1339.26 19.9572 1339.48 20.4683C1339.73 20.9793 1340 21.5459 1340.28 22.168L1346.02 34.1661H1346.08L1351.42 22.168C1351.93 21.0349 1352.32 19.9239 1352.58 18.8352H1359.65V19.6017C1359.23 19.624 1358.87 19.6906 1358.58 19.8017C1358.29 19.9128 1358.08 20.1461 1357.95 20.5016C1357.84 20.8349 1357.79 21.3904 1357.81 22.168L1358.51 37.6656C1358.56 38.3766 1358.65 38.9098 1358.78 39.2653C1358.94 39.6208 1359.18 39.8653 1359.51 39.9986C1359.85 40.1097 1360.29 40.1874 1360.85 40.2319V40.9984H1351.35V40.2319C1352.06 40.1874 1352.55 40.0208 1352.82 39.7319C1353.1 39.4431 1353.23 38.7543 1353.18 37.6656L1352.62 24.0344H1352.55L1346.52 37.5323C1346.09 38.4655 1345.78 39.1987 1345.58 39.7319C1345.41 40.243 1345.25 40.754 1345.12 41.265H1343.45ZM1375.44 41.265C1375.27 40.754 1375.04 40.2319 1374.78 39.6986C1374.53 39.1431 1374.2 38.421 1373.78 37.5323L1367.78 25.0009H1367.71L1367.11 37.6656C1367.09 38.421 1367.27 39.0321 1367.65 39.4986C1368.02 39.943 1368.71 40.1874 1369.71 40.2319V40.9984H1363.55V40.2319C1364.19 40.1874 1364.65 39.943 1364.91 39.4986C1365.2 39.0321 1365.36 38.421 1365.38 37.6656L1366.08 22.168C1366.12 21.3904 1366.07 20.8349 1365.91 20.5016C1365.78 20.1683 1365.53 19.9572 1365.18 19.8684C1364.82 19.7573 1364.35 19.6684 1363.75 19.6017V18.8352H1370.88C1371.06 19.4129 1371.26 19.9572 1371.48 20.4683C1371.72 20.9793 1371.99 21.5459 1372.28 22.168L1378.01 34.1661H1378.08L1383.41 22.168C1383.92 21.0349 1384.31 19.9239 1384.58 18.8352H1391.64V19.6017C1391.22 19.624 1390.86 19.6906 1390.58 19.8017C1390.29 19.9128 1390.08 20.1461 1389.94 20.5016C1389.83 20.8349 1389.79 21.3904 1389.81 22.168L1390.51 37.6656C1390.55 38.3766 1390.64 38.9098 1390.78 39.2653C1390.93 39.6208 1391.18 39.8653 1391.51 39.9986C1391.84 40.1097 1392.29 40.1874 1392.84 40.2319V40.9984H1383.34V40.2319C1384.05 40.1874 1384.54 40.0208 1384.81 39.7319C1385.1 39.4431 1385.22 38.7543 1385.18 37.6656L1384.61 24.0344H1384.54L1378.51 37.5323C1378.09 38.4655 1377.78 39.1987 1377.58 39.7319C1377.4 40.243 1377.24 40.754 1377.11 41.265H1375.44ZM1418.99 34.8327H1419.75L1419.42 40.9984H1403.36V40.2319C1403.53 40.143 1403.8 39.9875 1404.16 39.7653C1404.53 39.5431 1404.92 39.2876 1405.32 38.9987C1406.43 38.1988 1407.48 37.2879 1408.46 36.2658C1409.43 35.2438 1410.29 34.155 1411.02 32.9997C1411.75 31.8443 1412.33 30.6889 1412.75 29.5335C1413.18 28.3782 1413.39 27.2783 1413.39 26.234C1413.39 25.2342 1413.14 24.3899 1412.65 23.7011C1412.19 23.0123 1411.33 22.6679 1410.09 22.6679C1409.04 22.6679 1408.08 22.9568 1407.19 23.5345C1406.3 24.1122 1405.42 25.012 1404.56 26.234L1403.92 25.7008C1404.83 23.39 1405.98 21.6681 1407.36 20.5349C1408.73 19.4018 1410.46 18.8352 1412.52 18.8352C1413.72 18.8352 1414.8 19.0352 1415.75 19.4351C1416.71 19.8128 1417.47 20.4127 1418.02 21.2348C1418.6 22.0347 1418.89 23.079 1418.89 24.3677C1418.89 26.6562 1418.15 28.8003 1416.69 30.8C1415.24 32.7997 1413.22 34.6772 1410.62 36.4325V36.4991H1415.49C1416.75 36.4991 1417.63 36.3436 1418.12 36.0325C1418.61 35.7215 1418.9 35.3215 1418.99 34.8327ZM1433.17 18.8352C1434.33 18.8352 1435.46 19.0574 1436.57 19.5018C1437.68 19.9461 1438.68 20.6349 1439.57 21.5681C1440.46 22.5013 1441.16 23.6789 1441.67 25.1009C1442.2 26.5007 1442.47 28.1671 1442.47 30.1001C1442.47 32.0109 1442.22 33.6773 1441.7 35.0993C1441.19 36.5213 1440.49 37.71 1439.6 38.6654C1438.72 39.6208 1437.72 40.3319 1436.6 40.7984C1435.49 41.265 1434.34 41.4983 1433.14 41.4983C1431.98 41.4983 1430.85 41.2761 1429.74 40.8318C1428.63 40.3874 1427.63 39.6986 1426.74 38.7654C1425.85 37.8322 1425.14 36.6658 1424.61 35.266C1424.1 33.844 1423.84 32.1665 1423.84 30.2334C1423.84 28.3226 1424.1 26.6562 1424.61 25.2342C1425.12 23.8122 1425.82 22.6235 1426.71 21.6681C1427.6 20.7127 1428.6 20.0017 1429.71 19.5351C1430.82 19.0685 1431.97 18.8352 1433.17 18.8352ZM1433.27 40.0652C1433.92 40.0652 1434.51 39.7764 1435.04 39.1987C1435.57 38.621 1435.99 37.6434 1436.31 36.2658C1436.64 34.8883 1436.8 32.9997 1436.8 30.6C1436.8 28.5115 1436.66 26.7006 1436.37 25.1675C1436.11 23.6122 1435.69 22.4124 1435.14 21.5681C1434.58 20.7016 1433.88 20.2683 1433.04 20.2683C1432.42 20.2683 1431.83 20.5571 1431.27 21.1348C1430.74 21.7125 1430.31 22.6901 1429.97 24.0677C1429.66 25.4453 1429.51 27.3339 1429.51 29.7335C1429.51 31.8221 1429.64 33.644 1429.91 35.1993C1430.19 36.7324 1430.62 37.9322 1431.17 38.7988C1431.73 39.6431 1432.43 40.0652 1433.27 40.0652ZM1460.88 34.8327H1461.64L1461.31 40.9984H1445.24V40.2319C1445.42 40.143 1445.69 39.9875 1446.04 39.7653C1446.42 39.5431 1446.81 39.2876 1447.21 38.9987C1448.32 38.1988 1449.37 37.2879 1450.34 36.2658C1451.32 35.2438 1452.18 34.155 1452.91 32.9997C1453.64 31.8443 1454.22 30.6889 1454.64 29.5335C1455.06 28.3782 1455.28 27.2783 1455.28 26.234C1455.28 25.2342 1455.03 24.3899 1454.54 23.7011C1454.08 23.0123 1453.22 22.6679 1451.98 22.6679C1450.93 22.6679 1449.97 22.9568 1449.08 23.5345C1448.19 24.1122 1447.31 25.012 1446.44 26.234L1445.81 25.7008C1446.72 23.39 1447.87 21.6681 1449.24 20.5349C1450.62 19.4018 1452.34 18.8352 1454.41 18.8352C1455.61 18.8352 1456.69 19.0352 1457.64 19.4351C1458.6 19.8128 1459.35 20.4127 1459.91 21.2348C1460.49 22.0347 1460.78 23.079 1460.78 24.3677C1460.78 26.6562 1460.04 28.8003 1458.58 30.8C1457.13 32.7997 1455.11 34.6772 1452.51 36.4325V36.4991H1457.38C1458.64 36.4991 1459.52 36.3436 1460.01 36.0325C1460.5 35.7215 1460.79 35.3215 1460.88 34.8327ZM1479.39 32.4997H1481.73V36.6658H1480.33C1479.7 36.6658 1479.39 37.0546 1479.39 37.8322C1479.39 38.3655 1479.39 38.8876 1479.39 39.3987C1479.42 39.8875 1479.44 40.4207 1479.46 40.9984H1474.19C1474.24 40.2652 1474.27 39.5542 1474.29 38.8654C1474.32 38.1544 1474.34 37.4212 1474.36 36.6658H1463.83V35.8992C1464.41 35.3437 1464.93 34.766 1465.4 34.1661L1476.29 20.5349C1476.54 20.2239 1476.76 19.9239 1476.96 19.6351C1477.18 19.324 1477.36 19.0574 1477.49 18.8352H1479.43L1479.39 32.4997ZM1474.29 25.5342L1468.73 32.4997H1474.39V25.5342H1474.29Z" fill="white"/>
<path d="M1529.94 24.6792C1525.29 22.8218 1519.83 23.8124 1516.11 27.5271C1511.09 32.542 1511.09 40.6524 1516.11 45.6673C1519.83 49.382 1525.29 50.3726 1529.94 48.5152V42.5717C1529.01 43.0051 1528.02 43.2527 1526.96 43.2527C1523.24 43.2527 1520.27 40.281 1520.27 36.5663C1520.27 32.8515 1523.24 29.8798 1526.96 29.8798C1528.02 29.8798 1529.07 30.1274 1529.94 30.5608V24.6792Z" fill="white"/>
<path d="M1527.84 18.7229C1529.67 16.8863 1529.67 13.8463 1527.84 11.9464C1526.01 10.1098 1522.97 10.1098 1521.08 11.9464C1519.18 13.783 1519.25 16.823 1521.08 18.7229C1522.97 20.5596 1526.01 20.5596 1527.84 18.7229Z" fill="white"/>
<path d="M1560.7 40.9984V40.2319C1561.35 40.1874 1561.81 40.0208 1562.1 39.7319C1562.39 39.4431 1562.53 38.7543 1562.53 37.6656V22.168C1562.53 21.0793 1562.37 20.3905 1562.03 20.1017C1561.72 19.7906 1561.11 19.624 1560.2 19.6017V18.8352H1569.7V19.6017C1569.06 19.624 1568.59 19.7906 1568.3 20.1017C1568.01 20.3905 1567.87 21.0793 1567.87 22.168V37.6656C1567.87 38.7543 1568.03 39.4431 1568.37 39.7319C1568.7 40.0208 1569.31 40.1874 1570.2 40.2319V40.9984H1560.7ZM1593.28 41.265C1592.95 40.9095 1592.6 40.5651 1592.25 40.2319C1591.89 39.8764 1591.32 39.3542 1590.55 38.6654L1577.41 26.6673H1577.35V37.6656C1577.35 38.421 1577.54 39.0321 1577.91 39.4986C1578.31 39.943 1578.99 40.1874 1579.95 40.2319V40.9984H1573.78V40.2319C1574.43 40.1874 1574.89 39.943 1575.18 39.4986C1575.47 39.0321 1575.62 38.421 1575.62 37.6656V22.168C1575.62 21.0793 1575.45 20.3905 1575.12 20.1017C1574.8 19.7906 1574.19 19.624 1573.28 19.6017V18.8352H1577.28C1577.61 19.2574 1577.97 19.6351 1578.35 19.9684C1578.73 20.3016 1579.16 20.7016 1579.65 21.1682L1592.91 33.1663H1592.98V22.168C1592.98 21.4126 1592.79 20.8016 1592.41 20.335C1592.03 19.8684 1591.36 19.624 1590.38 19.6017V18.8352H1596.55V19.6017C1595.9 19.624 1595.43 19.8684 1595.15 20.335C1594.86 20.8016 1594.71 21.4126 1594.71 22.168V37.6656C1594.71 38.2877 1594.71 38.8876 1594.71 39.4653C1594.73 40.0208 1594.76 40.6207 1594.78 41.265H1593.28ZM1599.18 18.8352H1618.18V24.3343H1617.41C1617.28 23.1345 1616.92 22.1569 1616.34 21.4015C1615.77 20.646 1614.78 20.2683 1613.38 20.2683H1611.35V37.6656C1611.35 38.7543 1611.51 39.4431 1611.85 39.7319C1612.18 40.0208 1612.79 40.1874 1613.68 40.2319V40.9984H1604.18V40.2319C1604.82 40.1874 1605.29 40.0208 1605.58 39.7319C1605.87 39.4431 1606.01 38.7543 1606.01 37.6656V20.2683H1603.95C1602.59 20.2683 1601.61 20.646 1601.01 21.4015C1600.44 22.1569 1600.08 23.1345 1599.95 24.3343H1599.18V18.8352ZM1621.2 40.9984V40.2319C1621.85 40.1874 1622.31 40.0208 1622.6 39.7319C1622.89 39.4431 1623.04 38.7543 1623.04 37.6656V22.168C1623.04 21.0793 1622.87 20.3905 1622.54 20.1017C1622.22 19.7906 1621.61 19.624 1620.7 19.6017V18.8352H1637.07V23.5011H1636.3C1636.26 22.5457 1635.92 21.7681 1635.3 21.1682C1634.7 20.5683 1633.77 20.2683 1632.5 20.2683H1629.83C1629.37 20.2683 1629 20.3905 1628.73 20.6349C1628.49 20.8793 1628.37 21.3904 1628.37 22.168V28.7337C1628.55 28.6003 1628.76 28.5115 1629 28.467C1629.27 28.4226 1629.58 28.4004 1629.93 28.4004H1633.17C1633.83 28.4004 1634.39 28.2115 1634.83 27.8338C1635.28 27.4561 1635.51 26.9339 1635.53 26.2674H1636.3V31.9332H1635.53C1635.51 31.1111 1635.28 30.5556 1634.83 30.2667C1634.39 29.9779 1633.83 29.8335 1633.17 29.8335H1630C1629.4 29.8335 1628.98 29.9335 1628.73 30.1334C1628.49 30.3334 1628.37 30.7222 1628.37 31.2999V37.6656C1628.37 38.4433 1628.53 38.9543 1628.87 39.1987C1629.22 39.4431 1629.9 39.5653 1630.9 39.5653H1634.07C1635.4 39.5653 1636.46 39.1654 1637.23 38.3655C1638.01 37.5656 1638.44 36.6102 1638.53 35.4993H1639.3L1639.03 40.9984H1621.2ZM1661.66 41.4983C1660.66 41.4983 1659.8 41.3317 1659.09 40.9984C1658.38 40.6874 1657.78 40.2652 1657.29 39.7319C1656.8 39.1987 1656.35 38.6099 1655.93 37.9656L1651.26 30.7C1651.04 30.3223 1650.84 30.089 1650.66 30.0001C1650.48 29.9112 1650.27 29.8557 1650.03 29.8335V28.667C1651.36 28.5781 1652.39 28.3115 1653.13 27.8671C1653.86 27.4227 1654.37 26.8784 1654.66 26.234C1654.95 25.5675 1655.09 24.8787 1655.09 24.1677C1655.09 22.8124 1654.72 21.8014 1653.96 21.1348C1653.2 20.4461 1652.34 20.1017 1651.36 20.1017C1650.63 20.1017 1650.1 20.235 1649.79 20.5016C1649.51 20.746 1649.36 21.3015 1649.36 22.168V37.6656C1649.36 38.7543 1649.53 39.4431 1649.86 39.7319C1650.19 40.0208 1650.8 40.1874 1651.69 40.2319V40.9984H1642.2V40.2319C1642.84 40.1874 1643.31 40.0208 1643.59 39.7319C1643.88 39.4431 1644.03 38.7543 1644.03 37.6656V22.168C1644.03 21.0793 1643.86 20.3905 1643.53 20.1017C1643.22 19.7906 1642.61 19.624 1641.7 19.6017V18.8352H1644.03C1645.69 18.8352 1647.21 18.813 1648.56 18.7685C1649.92 18.7019 1651.07 18.6686 1652.03 18.6686C1654.23 18.6686 1655.97 18.8796 1657.26 19.3018C1658.57 19.7017 1659.5 20.2683 1660.06 21.0015C1660.64 21.7347 1660.93 22.5679 1660.93 23.5011C1660.93 24.3899 1660.7 25.2009 1660.26 25.9341C1659.84 26.6673 1659.27 27.2894 1658.56 27.8005C1657.87 28.2893 1657.11 28.6337 1656.29 28.8336V28.9003L1661.83 37.5656C1662.47 38.5877 1663.06 39.2876 1663.59 39.6653C1664.12 40.043 1664.6 40.2319 1665.02 40.2319V40.9984C1664.58 41.1539 1664.05 41.2761 1663.43 41.365C1662.83 41.4539 1662.24 41.4983 1661.66 41.4983ZM1677.4 41.4983C1675.07 41.4983 1673 41.0317 1671.2 40.0986C1669.4 39.1654 1667.99 37.8545 1666.97 36.1658C1665.94 34.455 1665.43 32.4775 1665.43 30.2334C1665.43 28.3893 1665.77 26.7451 1666.43 25.3009C1667.1 23.8344 1668.01 22.5791 1669.17 21.5348C1670.34 20.4905 1671.69 19.7017 1673.2 19.1685C1674.73 18.613 1676.37 18.3353 1678.1 18.3353C1679.41 18.3353 1680.66 18.4575 1681.86 18.7019C1683.06 18.9463 1684.02 19.2351 1684.73 19.5684V24.8343H1683.96C1683.52 23.4789 1682.99 22.4457 1682.36 21.7347C1681.74 21.0015 1681.04 20.4905 1680.26 20.2016C1679.51 19.9128 1678.71 19.7684 1677.87 19.7684C1673.58 19.7684 1671.43 22.879 1671.43 29.1003C1671.43 31.1444 1671.64 32.9997 1672.07 34.6661C1672.51 36.3325 1673.19 37.6545 1674.1 38.6321C1675.03 39.5875 1676.22 40.0652 1677.67 40.0652C1678.84 40.0652 1679.91 39.7764 1680.86 39.1987C1681.82 38.5988 1682.63 37.81 1683.3 36.8324C1683.99 35.8548 1684.48 34.7994 1684.76 33.6662H1685.53L1685.26 38.7321C1684.53 39.532 1683.5 40.1985 1682.16 40.7318C1680.83 41.2428 1679.24 41.4983 1677.4 41.4983ZM1699.65 18.3353C1701.22 18.3353 1702.69 18.6019 1704.05 19.1351C1705.4 19.6684 1706.6 20.4461 1707.64 21.4681C1708.69 22.468 1709.5 23.6789 1710.08 25.1009C1710.66 26.5229 1710.94 28.1115 1710.94 29.8668C1710.94 31.6221 1710.66 33.2107 1710.08 34.6327C1709.5 36.0547 1708.69 37.2768 1707.64 38.2988C1706.62 39.3209 1705.42 40.1097 1704.05 40.6651C1702.67 41.2206 1701.19 41.4983 1699.61 41.4983C1698.06 41.4983 1696.59 41.2317 1695.21 40.6985C1693.86 40.1652 1692.66 39.3987 1691.61 38.3988C1690.57 37.3768 1689.76 36.1547 1689.18 34.7327C1688.6 33.3107 1688.31 31.7221 1688.31 29.9668C1688.31 28.2115 1688.6 26.6229 1689.18 25.2009C1689.76 23.7789 1690.56 22.5568 1691.58 21.5348C1692.62 20.5127 1693.84 19.7239 1695.21 19.1685C1696.59 18.613 1698.07 18.3353 1699.65 18.3353ZM1700.31 40.0652C1701.47 40.0652 1702.38 39.6875 1703.05 38.9321C1703.71 38.1544 1704.19 37.0879 1704.48 35.7326C1704.79 34.3772 1704.94 32.7997 1704.94 31C1704.94 27.3783 1704.39 24.601 1703.28 22.6679C1702.19 20.7349 1700.75 19.7684 1698.95 19.7684C1697.81 19.7684 1696.9 20.1461 1696.21 20.9015C1695.55 21.657 1695.06 22.7235 1694.75 24.101C1694.46 25.4564 1694.31 27.0339 1694.31 28.8336C1694.31 32.4553 1694.86 35.2326 1695.95 37.1657C1697.06 39.0987 1698.51 40.0652 1700.31 40.0652ZM1726.37 41.265C1726.19 40.754 1725.97 40.2319 1725.71 39.6986C1725.46 39.1431 1725.13 38.421 1724.71 37.5323L1718.71 25.0009H1718.64L1718.04 37.6656C1718.02 38.421 1718.2 39.0321 1718.57 39.4986C1718.95 39.943 1719.64 40.1874 1720.64 40.2319V40.9984H1714.47V40.2319C1715.12 40.1874 1715.57 39.943 1715.84 39.4986C1716.13 39.0321 1716.29 38.421 1716.31 37.6656L1717.01 22.168C1717.05 21.3904 1717 20.8349 1716.84 20.5016C1716.71 20.1683 1716.46 19.9572 1716.11 19.8684C1715.75 19.7573 1715.27 19.6684 1714.67 19.6017V18.8352H1721.81C1721.98 19.4129 1722.18 19.9572 1722.41 20.4683C1722.65 20.9793 1722.92 21.5459 1723.21 22.168L1728.94 34.1661H1729.01L1734.34 22.168C1734.85 21.0349 1735.24 19.9239 1735.5 18.8352H1742.57V19.6017C1742.15 19.624 1741.79 19.6906 1741.5 19.8017C1741.21 19.9128 1741 20.1461 1740.87 20.5016C1740.76 20.8349 1740.71 21.3904 1740.74 22.168L1741.44 37.6656C1741.48 38.3766 1741.57 38.9098 1741.7 39.2653C1741.86 39.6208 1742.1 39.8653 1742.44 39.9986C1742.77 40.1097 1743.21 40.1874 1743.77 40.2319V40.9984H1734.27V40.2319C1734.98 40.1874 1735.47 40.0208 1735.74 39.7319C1736.03 39.4431 1736.15 38.7543 1736.1 37.6656L1735.54 24.0344H1735.47L1729.44 37.5323C1729.02 38.4655 1728.71 39.1987 1728.51 39.7319C1728.33 40.243 1728.17 40.754 1728.04 41.265H1726.37ZM1758.37 41.265C1758.19 40.754 1757.97 40.2319 1757.7 39.6986C1757.46 39.1431 1757.12 38.421 1756.7 37.5323L1750.7 25.0009H1750.63L1750.03 37.6656C1750.01 38.421 1750.19 39.0321 1750.57 39.4986C1750.94 39.943 1751.63 40.1874 1752.63 40.2319V40.9984H1746.47V40.2319C1747.11 40.1874 1747.57 39.943 1747.83 39.4986C1748.12 39.0321 1748.28 38.421 1748.3 37.6656L1749 22.168C1749.05 21.3904 1748.99 20.8349 1748.83 20.5016C1748.7 20.1683 1748.46 19.9572 1748.1 19.8684C1747.75 19.7573 1747.27 19.6684 1746.67 19.6017V18.8352H1753.8C1753.98 19.4129 1754.18 19.9572 1754.4 20.4683C1754.64 20.9793 1754.91 21.5459 1755.2 22.168L1760.93 34.1661H1761L1766.33 22.168C1766.84 21.0349 1767.23 19.9239 1767.5 18.8352H1774.56V19.6017C1774.14 19.624 1773.79 19.6906 1773.5 19.8017C1773.21 19.9128 1773 20.1461 1772.86 20.5016C1772.75 20.8349 1772.71 21.3904 1772.73 22.168L1773.43 37.6656C1773.47 38.3766 1773.56 38.9098 1773.7 39.2653C1773.85 39.6208 1774.1 39.8653 1774.43 39.9986C1774.76 40.1097 1775.21 40.1874 1775.76 40.2319V40.9984H1766.26V40.2319C1766.98 40.1874 1767.46 40.0208 1767.73 39.7319C1768.02 39.4431 1768.14 38.7543 1768.1 37.6656L1767.53 24.0344H1767.46L1761.43 37.5323C1761.01 38.4655 1760.7 39.1987 1760.5 39.7319C1760.32 40.243 1760.17 40.754 1760.03 41.265H1758.37ZM1801.91 34.8327H1802.68L1802.34 40.9984H1786.28V40.2319C1786.46 40.143 1786.72 39.9875 1787.08 39.7653C1787.46 39.5431 1787.84 39.2876 1788.24 38.9987C1789.36 38.1988 1790.4 37.2879 1791.38 36.2658C1792.35 35.2438 1793.21 34.155 1793.94 32.9997C1794.68 31.8443 1795.25 30.6889 1795.68 29.5335C1796.1 28.3782 1796.31 27.2783 1796.31 26.234C1796.31 25.2342 1796.07 24.3899 1795.58 23.7011C1795.11 23.0123 1794.25 22.6679 1793.01 22.6679C1791.97 22.6679 1791 22.9568 1790.11 23.5345C1789.22 24.1122 1788.34 25.012 1787.48 26.234L1786.84 25.7008C1787.76 23.39 1788.9 21.6681 1790.28 20.5349C1791.66 19.4018 1793.38 18.8352 1795.44 18.8352C1796.64 18.8352 1797.72 19.0352 1798.68 19.4351C1799.63 19.8128 1800.39 20.4127 1800.94 21.2348C1801.52 22.0347 1801.81 23.079 1801.81 24.3677C1801.81 26.6562 1801.08 28.8003 1799.61 30.8C1798.17 32.7997 1796.14 34.6772 1793.54 36.4325V36.4991H1798.41C1799.68 36.4991 1800.55 36.3436 1801.04 36.0325C1801.53 35.7215 1801.82 35.3215 1801.91 34.8327ZM1816.09 18.8352C1817.25 18.8352 1818.38 19.0574 1819.49 19.5018C1820.6 19.9461 1821.6 20.6349 1822.49 21.5681C1823.38 22.5013 1824.08 23.6789 1824.59 25.1009C1825.13 26.5007 1825.39 28.1671 1825.39 30.1001C1825.39 32.0109 1825.14 33.6773 1824.63 35.0993C1824.12 36.5213 1823.42 37.71 1822.53 38.6654C1821.64 39.6208 1820.64 40.3319 1819.53 40.7984C1818.42 41.265 1817.26 41.4983 1816.06 41.4983C1814.91 41.4983 1813.77 41.2761 1812.66 40.8318C1811.55 40.3874 1810.55 39.6986 1809.66 38.7654C1808.77 37.8322 1808.06 36.6658 1807.53 35.266C1807.02 33.844 1806.76 32.1665 1806.76 30.2334C1806.76 28.3226 1807.02 26.6562 1807.53 25.2342C1808.04 23.8122 1808.74 22.6235 1809.63 21.6681C1810.52 20.7127 1811.52 20.0017 1812.63 19.5351C1813.74 19.0685 1814.89 18.8352 1816.09 18.8352ZM1816.19 40.0652C1816.84 40.0652 1817.43 39.7764 1817.96 39.1987C1818.49 38.621 1818.92 37.6434 1819.23 36.2658C1819.56 34.8883 1819.73 32.9997 1819.73 30.6C1819.73 28.5115 1819.58 26.7006 1819.29 25.1675C1819.03 23.6122 1818.62 22.4124 1818.06 21.5681C1817.5 20.7016 1816.81 20.2683 1815.96 20.2683C1815.34 20.2683 1814.75 20.5571 1814.19 21.1348C1813.66 21.7125 1813.23 22.6901 1812.89 24.0677C1812.58 25.4453 1812.43 27.3339 1812.43 29.7335C1812.43 31.8221 1812.56 33.644 1812.83 35.1993C1813.12 36.7324 1813.54 37.9322 1814.09 38.7988C1814.65 39.6431 1815.35 40.0652 1816.19 40.0652ZM1843.8 34.8327H1844.56L1844.23 40.9984H1828.17V40.2319C1828.34 40.143 1828.61 39.9875 1828.97 39.7653C1829.34 39.5431 1829.73 39.2876 1830.13 38.9987C1831.24 38.1988 1832.29 37.2879 1833.27 36.2658C1834.24 35.2438 1835.1 34.155 1835.83 32.9997C1836.56 31.8443 1837.14 30.6889 1837.56 29.5335C1837.99 28.3782 1838.2 27.2783 1838.2 26.234C1838.2 25.2342 1837.95 24.3899 1837.46 23.7011C1837 23.0123 1836.14 22.6679 1834.9 22.6679C1833.85 22.6679 1832.89 22.9568 1832 23.5345C1831.11 24.1122 1830.23 25.012 1829.37 26.234L1828.73 25.7008C1829.64 23.39 1830.79 21.6681 1832.17 20.5349C1833.54 19.4018 1835.27 18.8352 1837.33 18.8352C1838.53 18.8352 1839.61 19.0352 1840.56 19.4351C1841.52 19.8128 1842.28 20.4127 1842.83 21.2348C1843.41 22.0347 1843.7 23.079 1843.7 24.3677C1843.7 26.6562 1842.96 28.8003 1841.5 30.8C1840.05 32.7997 1838.03 34.6772 1835.43 36.4325V36.4991H1840.3C1841.56 36.4991 1842.44 36.3436 1842.93 36.0325C1843.42 35.7215 1843.71 35.3215 1843.8 34.8327ZM1862.31 32.4997H1864.65V36.6658H1863.25C1862.63 36.6658 1862.31 37.0546 1862.31 37.8322C1862.31 38.3655 1862.31 38.8876 1862.31 39.3987C1862.34 39.8875 1862.36 40.4207 1862.38 40.9984H1857.12C1857.16 40.2652 1857.19 39.5542 1857.22 38.8654C1857.24 38.1544 1857.26 37.4212 1857.28 36.6658H1846.75V35.8992C1847.33 35.3437 1847.85 34.766 1848.32 34.1661L1859.22 20.5349C1859.46 20.2239 1859.68 19.9239 1859.88 19.6351C1860.1 19.324 1860.28 19.0574 1860.42 18.8352H1862.35L1862.31 32.4997ZM1857.22 25.5342L1851.65 32.4997H1857.32V25.5342H1857.22Z" fill="white"/>
</svg>
