<svg width="3116" height="114" viewBox="0 0 3116 114" fill="none" xmlns="http://www.w3.org/2000/svg">
<rect width="3115.8" height="114" transform="translate(0 -0.00231934)" fill="url(#paint0_linear_614_2619)"/>
<path d="M73.74 67.0477H75.35L74.65 79.9977H40.91V78.3877C41.2833 78.201 41.8433 77.8744 42.59 77.4077C43.3833 76.941 44.2 76.4044 45.04 75.7977C47.3733 74.1177 49.5667 72.2044 51.62 70.0577C53.6733 67.911 55.47 65.6244 57.01 63.1977C58.55 60.771 59.7633 58.3444 60.65 55.9177C61.5367 53.491 61.98 51.181 61.98 48.9877C61.98 46.8877 61.4667 45.1143 60.44 43.6677C59.46 42.221 57.6633 41.4977 55.05 41.4977C52.8567 41.4977 50.8267 42.1043 48.96 43.3177C47.0933 44.531 45.25 46.421 43.43 48.9877L42.1 47.8677C44.0133 43.0143 46.4167 39.3977 49.31 37.0177C52.2033 34.6377 55.82 33.4477 60.16 33.4477C62.68 33.4477 64.9433 33.8677 66.95 34.7077C68.9567 35.501 70.5433 36.761 71.71 38.4877C72.9233 40.1677 73.53 42.361 73.53 45.0677C73.53 49.8743 71.99 54.3777 68.91 58.5777C65.8767 62.7777 61.63 66.721 56.17 70.4077V70.5477H66.39C69.05 70.5477 70.8933 70.221 71.92 69.5677C72.9467 68.9144 73.5533 68.0744 73.74 67.0477ZM103.533 33.4477C105.96 33.4477 108.34 33.9143 110.673 34.8477C113.007 35.781 115.107 37.2277 116.973 39.1877C118.84 41.1477 120.31 43.621 121.383 46.6077C122.503 49.5477 123.063 53.0477 123.063 57.1077C123.063 61.121 122.527 64.621 121.453 67.6077C120.38 70.5944 118.91 73.091 117.043 75.0977C115.177 77.1044 113.077 78.5977 110.743 79.5777C108.41 80.5577 105.983 81.0477 103.463 81.0477C101.037 81.0477 98.6565 80.581 96.3232 79.6477C93.9899 78.7144 91.8899 77.2677 90.0232 75.3077C88.1565 73.3477 86.6632 70.8977 85.5432 67.9577C84.4699 64.971 83.9332 61.4477 83.9332 57.3877C83.9332 53.3744 84.4699 49.8744 85.5432 46.8877C86.6165 43.901 88.0865 41.4043 89.9532 39.3977C91.8199 37.391 93.9199 35.8977 96.2532 34.9177C98.5865 33.9377 101.013 33.4477 103.533 33.4477ZM103.743 78.0377C105.097 78.0377 106.333 77.431 107.453 76.2177C108.573 75.0044 109.46 72.951 110.113 70.0577C110.813 67.1644 111.163 63.1977 111.163 58.1577C111.163 53.771 110.86 49.9677 110.253 46.7477C109.693 43.481 108.83 40.961 107.663 39.1877C106.497 37.3677 105.027 36.4577 103.253 36.4577C101.947 36.4577 100.71 37.0643 99.5432 38.2777C98.4232 39.491 97.5132 41.5443 96.8132 44.4377C96.1599 47.331 95.8332 51.2977 95.8332 56.3377C95.8332 60.7244 96.1132 64.551 96.6732 67.8177C97.2799 71.0377 98.1665 73.5577 99.3332 75.3777C100.5 77.151 101.97 78.0377 103.743 78.0377ZM170.576 58.8577L148.876 60.7477L148.386 55.0777L170.086 53.1877L170.576 58.8577ZM224.746 67.0477H226.356L225.656 79.9977H191.916V78.3877C192.289 78.201 192.849 77.8744 193.596 77.4077C194.389 76.941 195.206 76.4044 196.046 75.7977C198.379 74.1177 200.573 72.2044 202.626 70.0577C204.679 67.911 206.476 65.6244 208.016 63.1977C209.556 60.771 210.769 58.3444 211.656 55.9177C212.543 53.491 212.986 51.181 212.986 48.9877C212.986 46.8877 212.473 45.1143 211.446 43.6677C210.466 42.221 208.669 41.4977 206.056 41.4977C203.863 41.4977 201.833 42.1043 199.966 43.3177C198.099 44.531 196.256 46.421 194.436 48.9877L193.106 47.8677C195.019 43.0143 197.423 39.3977 200.316 37.0177C203.209 34.6377 206.826 33.4477 211.166 33.4477C213.686 33.4477 215.949 33.8677 217.956 34.7077C219.963 35.501 221.549 36.761 222.716 38.4877C223.929 40.1677 224.536 42.361 224.536 45.0677C224.536 49.8743 222.996 54.3777 219.916 58.5777C216.883 62.7777 212.636 66.721 207.176 70.4077V70.5477H217.396C220.056 70.5477 221.899 70.221 222.926 69.5677C223.953 68.9144 224.559 68.0744 224.746 67.0477ZM253.349 72.2977C253.349 74.0244 253.489 75.331 253.769 76.2177C254.096 77.0577 254.749 77.6177 255.729 77.8977C256.756 78.1777 258.296 78.341 260.349 78.3877V79.9977H234.449V78.3877C236.549 78.341 238.089 78.1777 239.069 77.8977C240.096 77.6177 240.749 77.0577 241.029 76.2177C241.309 75.331 241.449 74.0244 241.449 72.2977V41.8477L235.009 45.8377L233.539 43.5977L249.779 33.4477H253.839C253.652 34.3343 253.512 35.221 253.419 36.1077C253.372 36.9943 253.349 37.881 253.349 38.7677V72.2977ZM285.369 79.9977V78.3877C286.722 78.2944 287.702 77.9444 288.309 77.3377C288.915 76.731 289.219 75.2844 289.219 72.9977V40.4477C289.219 38.161 288.869 36.7143 288.169 36.1077C287.515 35.4543 286.232 35.1043 284.319 35.0577V33.4477H304.269V35.0577C302.915 35.1043 301.935 35.4543 301.329 36.1077C300.722 36.7143 300.419 38.161 300.419 40.4477V52.8377C300.792 52.5577 301.235 52.371 301.749 52.2777C302.309 52.1843 302.962 52.1377 303.709 52.1377H316.939C318.199 52.1377 319.085 51.9277 319.599 51.5077C320.112 51.0877 320.369 50.2477 320.369 48.9877V40.4477C320.369 38.161 320.019 36.7143 319.319 36.1077C318.665 35.4543 317.382 35.1043 315.469 35.0577V33.4477H335.419V35.0577C334.065 35.1043 333.085 35.4543 332.479 36.1077C331.872 36.7143 331.569 38.161 331.569 40.4477V72.9977C331.569 75.2844 331.919 76.731 332.619 77.3377C333.319 77.9444 334.602 78.2944 336.469 78.3877V79.9977H316.519V78.3877C317.872 78.2944 318.852 77.9444 319.459 77.3377C320.065 76.731 320.369 75.2844 320.369 72.9977V54.3777C319.995 54.7044 319.529 54.9144 318.969 55.0077C318.409 55.101 317.779 55.1477 317.079 55.1477H303.849C302.589 55.1477 301.702 55.3577 301.189 55.7777C300.675 56.1977 300.419 57.0144 300.419 58.2277V72.9977C300.419 75.2844 300.769 76.731 301.469 77.3377C302.169 77.9444 303.452 78.2944 305.319 78.3877V79.9977H285.369ZM367.342 32.3977C370.656 32.3977 373.736 32.9577 376.582 34.0777C379.429 35.1977 381.949 36.831 384.142 38.9777C386.336 41.0777 388.039 43.621 389.252 46.6077C390.466 49.5943 391.072 52.931 391.072 56.6177C391.072 60.3044 390.466 63.641 389.252 66.6277C388.039 69.6144 386.336 72.181 384.142 74.3277C381.996 76.4744 379.476 78.131 376.582 79.2977C373.689 80.4644 370.586 81.0477 367.272 81.0477C364.006 81.0477 360.926 80.4877 358.032 79.3677C355.186 78.2477 352.666 76.6377 350.472 74.5377C348.279 72.391 346.576 69.8244 345.362 66.8377C344.149 63.851 343.542 60.5144 343.542 56.8277C343.542 53.141 344.149 49.8043 345.362 46.8177C346.576 43.831 348.256 41.2643 350.402 39.1177C352.596 36.971 355.139 35.3143 358.032 34.1477C360.926 32.981 364.029 32.3977 367.342 32.3977ZM368.742 78.0377C371.169 78.0377 373.082 77.2444 374.482 75.6577C375.882 74.0244 376.886 71.7844 377.492 68.9377C378.146 66.091 378.472 62.7777 378.472 58.9977C378.472 51.391 377.306 45.5577 374.972 41.4977C372.686 37.4377 369.652 35.4077 365.872 35.4077C363.492 35.4077 361.579 36.201 360.132 37.7877C358.732 39.3743 357.706 41.6143 357.052 44.5077C356.446 47.3544 356.142 50.6677 356.142 54.4477C356.142 62.0544 357.286 67.8877 359.572 71.9477C361.906 76.0077 364.962 78.0377 368.742 78.0377ZM399.028 81.0477C397.861 81.0477 396.625 80.9544 395.318 80.7677C394.011 80.581 392.891 80.3244 391.958 79.9977V78.3877C392.891 78.3877 393.941 78.0144 395.108 77.2677C396.275 76.521 397.465 75.0277 398.678 72.7877L408.688 54.6577C405.561 53.8644 403.181 52.581 401.548 50.8077C399.961 49.0344 399.168 46.8877 399.168 44.3677C399.168 42.4077 399.751 40.5644 400.918 38.8377C402.131 37.111 404.091 35.7343 406.798 34.7077C409.551 33.6343 413.238 33.0977 417.858 33.0977C419.351 33.0977 421.078 33.1677 423.038 33.3077C424.998 33.401 427.168 33.4477 429.548 33.4477H438.508V35.0577C437.155 35.1043 436.175 35.4543 435.568 36.1077C434.961 36.7143 434.658 38.161 434.658 40.4477V72.9977C434.658 75.2844 435.008 76.731 435.708 77.3377C436.408 77.9444 437.691 78.2944 439.558 78.3877V79.9977H419.608V78.3877C420.961 78.2944 421.941 77.9444 422.548 77.3377C423.155 76.731 423.458 75.2844 423.458 72.9977V40.4477C423.458 38.6277 423.131 37.461 422.478 36.9477C421.871 36.3877 420.798 36.1077 419.258 36.1077C417.251 36.1077 415.431 36.831 413.798 38.2777C412.211 39.6777 411.418 41.801 411.418 44.6477C411.418 46.141 411.721 47.5877 412.328 48.9877C412.935 50.341 414.008 51.4843 415.548 52.4177C417.135 53.351 419.305 53.911 422.058 54.0977V56.5477C421.498 56.5477 421.008 56.6644 420.588 56.8977C420.168 57.0844 419.748 57.5744 419.328 58.3677L411.418 73.6277C410.345 75.681 408.851 77.431 406.938 78.8777C405.025 80.3244 402.388 81.0477 399.028 81.0477ZM461.678 51.9977H468.468C473.555 51.9977 477.568 52.5577 480.508 53.6777C483.448 54.7977 485.525 56.3377 486.738 58.2977C487.998 60.2577 488.628 62.521 488.628 65.0877C488.628 67.6544 487.928 70.081 486.528 72.3677C485.175 74.6077 483.052 76.451 480.158 77.8977C477.312 79.2977 473.672 79.9977 469.238 79.9977H446.628V78.3877C447.982 78.2944 448.962 77.9444 449.568 77.3377C450.175 76.731 450.478 75.2844 450.478 72.9977V40.4477C450.478 38.161 450.128 36.7143 449.428 36.1077C448.775 35.4543 447.492 35.1043 445.578 35.0577V33.4477H484.078V44.9977H482.468C482.328 43.411 482.025 41.9877 481.558 40.7277C481.092 39.421 480.298 38.3943 479.178 37.6477C478.058 36.8543 476.448 36.4577 474.348 36.4577H464.758C463.778 36.4577 463.008 36.7143 462.448 37.2277C461.935 37.741 461.678 38.8143 461.678 40.4477V51.9977ZM465.808 76.9877C468.282 76.9877 470.312 76.4044 471.898 75.2377C473.532 74.0244 474.745 72.531 475.538 70.7577C476.332 68.9844 476.728 67.2344 476.728 65.5077C476.728 62.941 476.238 60.8877 475.258 59.3477C474.325 57.8077 473.042 56.711 471.408 56.0577C469.822 55.3577 468.025 55.0077 466.018 55.0077H461.678V72.9977C461.678 74.631 461.935 75.7044 462.448 76.2177C462.962 76.731 464.082 76.9877 465.808 76.9877ZM496.052 79.9977V78.3877C497.406 78.2944 498.386 77.9444 498.992 77.3377C499.599 76.731 499.902 75.2844 499.902 72.9977V40.4477C499.902 38.161 499.552 36.7143 498.852 36.1077C498.199 35.4543 496.916 35.1043 495.002 35.0577V33.4477H499.902C503.309 33.4477 506.506 33.401 509.492 33.3077C512.479 33.1677 514.719 33.0977 516.212 33.0977C521.066 33.0977 524.892 33.6343 527.692 34.7077C530.539 35.781 532.569 37.2043 533.782 38.9777C535.042 40.7043 535.672 42.6177 535.672 44.7177C535.672 47.1443 534.879 49.4543 533.292 51.6477C531.752 53.841 529.279 55.5444 525.872 56.7577C522.512 57.9244 518.056 58.2977 512.502 57.8777V55.4277C515.022 55.521 517.099 55.0777 518.732 54.0977C520.366 53.071 521.556 51.7177 522.302 50.0377C523.096 48.3577 523.492 46.561 523.492 44.6477C523.492 42.081 522.769 40.0277 521.322 38.4877C519.876 36.901 517.869 36.1077 515.302 36.1077C513.762 36.1077 512.666 36.3877 512.012 36.9477C511.406 37.461 511.102 38.6277 511.102 40.4477V72.9977C511.102 74.491 511.242 75.6344 511.522 76.4277C511.849 77.1744 512.409 77.6877 513.202 77.9677C514.042 78.201 515.209 78.341 516.702 78.3877V79.9977H496.052ZM543.061 81.0477C541.894 81.0477 540.658 80.9544 539.351 80.7677C538.044 80.581 536.924 80.3244 535.991 79.9977V78.3877C536.924 78.3877 537.974 78.0144 539.141 77.2677C540.308 76.521 541.498 75.0277 542.711 72.7877L552.721 54.6577C549.594 53.8644 547.214 52.581 545.581 50.8077C543.994 49.0344 543.201 46.8877 543.201 44.3677C543.201 42.4077 543.784 40.5644 544.951 38.8377C546.164 37.111 548.124 35.7343 550.831 34.7077C553.584 33.6343 557.271 33.0977 561.891 33.0977C563.384 33.0977 565.111 33.1677 567.071 33.3077C569.031 33.401 571.201 33.4477 573.581 33.4477H582.541V35.0577C581.188 35.1043 580.208 35.4543 579.601 36.1077C578.994 36.7143 578.691 38.161 578.691 40.4477V72.9977C578.691 75.2844 579.041 76.731 579.741 77.3377C580.441 77.9444 581.724 78.2944 583.591 78.3877V79.9977H563.641V78.3877C564.994 78.2944 565.974 77.9444 566.581 77.3377C567.188 76.731 567.491 75.2844 567.491 72.9977V40.4477C567.491 38.6277 567.164 37.461 566.511 36.9477C565.904 36.3877 564.831 36.1077 563.291 36.1077C561.284 36.1077 559.464 36.831 557.831 38.2777C556.244 39.6777 555.451 41.801 555.451 44.6477C555.451 46.141 555.754 47.5877 556.361 48.9877C556.968 50.341 558.041 51.4843 559.581 52.4177C561.168 53.351 563.338 53.911 566.091 54.0977V56.5477C565.531 56.5477 565.041 56.6644 564.621 56.8977C564.201 57.0844 563.781 57.5744 563.361 58.3677L555.451 73.6277C554.378 75.681 552.884 77.431 550.971 78.8777C549.058 80.3244 546.421 81.0477 543.061 81.0477ZM639.209 67.0477H640.819L640.119 79.9977H606.379V78.3877C606.752 78.201 607.312 77.8744 608.059 77.4077C608.852 76.941 609.669 76.4044 610.509 75.7977C612.842 74.1177 615.035 72.2044 617.089 70.0577C619.142 67.911 620.939 65.6244 622.479 63.1977C624.019 60.771 625.232 58.3444 626.119 55.9177C627.005 53.491 627.449 51.181 627.449 48.9877C627.449 46.8877 626.935 45.1143 625.909 43.6677C624.929 42.221 623.132 41.4977 620.519 41.4977C618.325 41.4977 616.295 42.1043 614.429 43.3177C612.562 44.531 610.719 46.421 608.899 48.9877L607.569 47.8677C609.482 43.0143 611.885 39.3977 614.779 37.0177C617.672 34.6377 621.289 33.4477 625.629 33.4477C628.149 33.4477 630.412 33.8677 632.419 34.7077C634.425 35.501 636.012 36.761 637.179 38.4877C638.392 40.1677 638.999 42.361 638.999 45.0677C638.999 49.8743 637.459 54.3777 634.379 58.5777C631.345 62.7777 627.099 66.721 621.639 70.4077V70.5477H631.859C634.519 70.5477 636.362 70.221 637.389 69.5677C638.415 68.9144 639.022 68.0744 639.209 67.0477ZM669.002 33.4477C671.429 33.4477 673.809 33.9143 676.142 34.8477C678.475 35.781 680.575 37.2277 682.442 39.1877C684.309 41.1477 685.779 43.621 686.852 46.6077C687.972 49.5477 688.532 53.0477 688.532 57.1077C688.532 61.121 687.995 64.621 686.922 67.6077C685.849 70.5944 684.379 73.091 682.512 75.0977C680.645 77.1044 678.545 78.5977 676.212 79.5777C673.879 80.5577 671.452 81.0477 668.932 81.0477C666.505 81.0477 664.125 80.581 661.792 79.6477C659.459 78.7144 657.359 77.2677 655.492 75.3077C653.625 73.3477 652.132 70.8977 651.012 67.9577C649.939 64.971 649.402 61.4477 649.402 57.3877C649.402 53.3744 649.939 49.8744 651.012 46.8877C652.085 43.901 653.555 41.4043 655.422 39.3977C657.289 37.391 659.389 35.8977 661.722 34.9177C664.055 33.9377 666.482 33.4477 669.002 33.4477ZM669.212 78.0377C670.565 78.0377 671.802 77.431 672.922 76.2177C674.042 75.0044 674.929 72.951 675.582 70.0577C676.282 67.1644 676.632 63.1977 676.632 58.1577C676.632 53.771 676.329 49.9677 675.722 46.7477C675.162 43.481 674.299 40.961 673.132 39.1877C671.965 37.3677 670.495 36.4577 668.722 36.4577C667.415 36.4577 666.179 37.0643 665.012 38.2777C663.892 39.491 662.982 41.5443 662.282 44.4377C661.629 47.331 661.302 51.2977 661.302 56.3377C661.302 60.7244 661.582 64.551 662.142 67.8177C662.749 71.0377 663.635 73.5577 664.802 75.3777C665.969 77.151 667.439 78.0377 669.212 78.0377ZM727.187 67.0477H728.797L728.097 79.9977H694.357V78.3877C694.731 78.201 695.291 77.8744 696.037 77.4077C696.831 76.941 697.647 76.4044 698.487 75.7977C700.821 74.1177 703.014 72.2044 705.067 70.0577C707.121 67.911 708.917 65.6244 710.457 63.1977C711.997 60.771 713.211 58.3444 714.097 55.9177C714.984 53.491 715.427 51.181 715.427 48.9877C715.427 46.8877 714.914 45.1143 713.887 43.6677C712.907 42.221 711.111 41.4977 708.497 41.4977C706.304 41.4977 704.274 42.1043 702.407 43.3177C700.541 44.531 698.697 46.421 696.877 48.9877L695.547 47.8677C697.461 43.0143 699.864 39.3977 702.757 37.0177C705.651 34.6377 709.267 33.4477 713.607 33.4477C716.127 33.4477 718.391 33.8677 720.397 34.7077C722.404 35.501 723.991 36.761 725.157 38.4877C726.371 40.1677 726.977 42.361 726.977 45.0677C726.977 49.8743 725.437 54.3777 722.357 58.5777C719.324 62.7777 715.077 66.721 709.617 70.4077V70.5477H719.837C722.497 70.5477 724.341 70.221 725.367 69.5677C726.394 68.9144 727.001 68.0744 727.187 67.0477ZM766.081 62.1477H770.981V70.8977H768.041C766.734 70.8977 766.081 71.7144 766.081 73.3477C766.081 74.4677 766.081 75.5644 766.081 76.6377C766.127 77.6644 766.174 78.7844 766.221 79.9977H755.161C755.254 78.4577 755.324 76.9644 755.371 75.5177C755.417 74.0244 755.464 72.4844 755.511 70.8977H733.391V69.2877C734.604 68.121 735.701 66.9077 736.681 65.6477L759.571 37.0177C760.084 36.3643 760.551 35.7343 760.971 35.1277C761.437 34.4743 761.811 33.9143 762.091 33.4477H766.151L766.081 62.1477ZM755.371 47.5177L743.681 62.1477H755.581V47.5177H755.371ZM828.41 33.4477V46.3977H826.8C826.567 44.3443 826.147 42.5943 825.54 41.1477C824.98 39.6543 824.093 38.511 822.88 37.7177C821.713 36.8777 820.08 36.4577 817.98 36.4577H814.69C813.71 36.4577 812.94 36.7143 812.38 37.2277C811.867 37.741 811.61 38.8143 811.61 40.4477V72.9977C811.61 75.2844 811.96 76.731 812.66 77.3377C813.36 77.9444 814.643 78.2944 816.51 78.3877V79.9977H796.56V78.3877C797.913 78.2944 798.893 77.9444 799.5 77.3377C800.107 76.731 800.41 75.2844 800.41 72.9977V40.4477C800.41 38.161 800.06 36.7143 799.36 36.1077C798.707 35.4543 797.423 35.1043 795.51 35.0577V33.4477H828.41ZM856.454 32.3977C859.767 32.3977 862.847 32.9577 865.694 34.0777C868.541 35.1977 871.061 36.831 873.254 38.9777C875.447 41.0777 877.151 43.621 878.364 46.6077C879.577 49.5943 880.184 52.931 880.184 56.6177C880.184 60.3044 879.577 63.641 878.364 66.6277C877.151 69.6144 875.447 72.181 873.254 74.3277C871.107 76.4744 868.587 78.131 865.694 79.2977C862.801 80.4644 859.697 81.0477 856.384 81.0477C853.117 81.0477 850.037 80.4877 847.144 79.3677C844.297 78.2477 841.777 76.6377 839.584 74.5377C837.391 72.391 835.687 69.8244 834.474 66.8377C833.261 63.851 832.654 60.5144 832.654 56.8277C832.654 53.141 833.261 49.8043 834.474 46.8177C835.687 43.831 837.367 41.2643 839.514 39.1177C841.707 36.971 844.251 35.3143 847.144 34.1477C850.037 32.981 853.141 32.3977 856.454 32.3977ZM857.854 78.0377C860.281 78.0377 862.194 77.2444 863.594 75.6577C864.994 74.0244 865.997 71.7844 866.604 68.9377C867.257 66.091 867.584 62.7777 867.584 58.9977C867.584 51.391 866.417 45.5577 864.084 41.4977C861.797 37.4377 858.764 35.4077 854.984 35.4077C852.604 35.4077 850.691 36.201 849.244 37.7877C847.844 39.3743 846.817 41.6143 846.164 44.5077C845.557 47.3544 845.254 50.6677 845.254 54.4477C845.254 62.0544 846.397 67.8877 848.684 71.9477C851.017 76.0077 854.074 78.0377 857.854 78.0377ZM910.539 38.9777L922.159 72.9977C922.579 74.211 923.186 75.331 923.979 76.3577C924.819 77.3377 926.103 78.0144 927.829 78.3877L924.609 94.3477H922.999C922.906 91.4544 922.486 88.9344 921.739 86.7877C920.993 84.641 920.059 82.961 918.939 81.7477C917.819 80.581 916.606 79.9977 915.299 79.9977H896.539C894.813 79.9977 893.109 80.581 891.429 81.7477C889.796 82.961 888.396 84.641 887.229 86.7877C886.109 88.9344 885.386 91.4544 885.059 94.3477H883.449V78.3877C884.289 78.0144 885.106 77.3844 885.899 76.4977C886.693 75.5644 887.416 74.5144 888.069 73.3477C888.769 72.181 889.306 71.0844 889.679 70.0577L901.579 38.9777C902.046 37.7643 902.489 36.5743 902.909 35.4077C903.329 34.241 903.703 33.051 904.029 31.8377H908.089C908.416 33.051 908.789 34.241 909.209 35.4077C909.676 36.5743 910.119 37.7643 910.539 38.9777ZM907.599 76.9877C909.466 76.9877 910.493 76.6844 910.679 76.0777C910.866 75.471 910.703 74.4444 910.189 72.9977L901.999 47.7977H901.859L890.939 76.9877H907.599ZM970.667 72.9977C971.32 74.5844 971.857 75.751 972.277 76.4977C972.744 77.2444 973.234 77.7344 973.747 77.9677C974.26 78.1544 974.89 78.2944 975.637 78.3877V79.9977H956.107V78.3877C957.974 78.2944 959 77.7344 959.187 76.7077C959.42 75.681 959.257 74.4444 958.697 72.9977L955.197 63.8977C954.917 64.131 954.544 64.2944 954.077 64.3877C953.657 64.4344 953.19 64.4577 952.677 64.4577H944.767C943.787 64.4577 943.04 64.5744 942.527 64.8077C942.014 65.041 941.57 65.6244 941.197 66.5577L938.677 72.9977C938.07 74.5377 938.117 75.7977 938.817 76.7777C939.517 77.7577 940.894 78.2944 942.947 78.3877V79.9977H930.207V78.3877C931.234 78.2944 932.097 77.781 932.797 76.8477C933.544 75.8677 934.22 74.5844 934.827 72.9977L948.267 38.9777C948.78 37.7643 949.224 36.5743 949.597 35.4077C950.017 34.241 950.39 33.051 950.717 31.8377H954.777C955.104 33.051 955.477 34.241 955.897 35.4077C956.317 36.5743 956.76 37.7643 957.227 38.9777L970.667 72.9977ZM952.327 61.4477C952.98 61.4477 953.4 61.3544 953.587 61.1677C953.82 60.9344 953.797 60.4677 953.517 59.7677L948.687 47.7977H948.547L943.087 61.7277C943.32 61.5877 943.6 61.5177 943.927 61.5177C944.254 61.471 944.627 61.4477 945.047 61.4477H952.327Z" fill="black"/>
<path d="M1046.4 49.0175C1039.42 46.231 1031.23 47.7171 1025.65 53.29C1018.12 60.8135 1018.12 72.9811 1025.65 80.5045C1031.23 86.0775 1039.42 87.5636 1046.4 84.7771V75.8604C1045 76.5106 1043.51 76.8821 1041.93 76.8821C1036.35 76.8821 1031.89 72.4238 1031.89 66.8508C1031.89 61.2779 1036.35 56.8196 1041.93 56.8196C1043.51 56.8196 1045.1 57.1911 1046.4 57.8413V49.0175Z" fill="black"/>
<path d="M1043.24 40.0817C1045.99 37.3264 1045.99 32.7657 1043.24 29.9153C1040.49 27.16 1035.94 27.16 1033.1 29.9153C1030.25 32.6707 1030.35 37.2314 1033.1 40.0817C1035.94 42.8371 1040.49 42.8371 1043.24 40.0817Z" fill="black"/>
<path d="M1123.14 67.0477H1124.75L1124.05 79.9977H1090.31V78.3877C1090.68 78.201 1091.24 77.8744 1091.99 77.4077C1092.78 76.941 1093.6 76.4044 1094.44 75.7977C1096.77 74.1177 1098.97 72.2044 1101.02 70.0577C1103.07 67.911 1104.87 65.6244 1106.41 63.1977C1107.95 60.771 1109.16 58.3444 1110.05 55.9177C1110.94 53.491 1111.38 51.181 1111.38 48.9877C1111.38 46.8877 1110.87 45.1143 1109.84 43.6677C1108.86 42.221 1107.06 41.4977 1104.45 41.4977C1102.26 41.4977 1100.23 42.1043 1098.36 43.3177C1096.49 44.531 1094.65 46.421 1092.83 48.9877L1091.5 47.8677C1093.41 43.0143 1095.82 39.3977 1098.71 37.0177C1101.6 34.6377 1105.22 33.4477 1109.56 33.4477C1112.08 33.4477 1114.34 33.8677 1116.35 34.7077C1118.36 35.501 1119.94 36.761 1121.11 38.4877C1122.32 40.1677 1122.93 42.361 1122.93 45.0677C1122.93 49.8743 1121.39 54.3777 1118.31 58.5777C1115.28 62.7777 1111.03 66.721 1105.57 70.4077V70.5477H1115.79C1118.45 70.5477 1120.29 70.221 1121.32 69.5677C1122.35 68.9144 1122.95 68.0744 1123.14 67.0477ZM1152.93 33.4477C1155.36 33.4477 1157.74 33.9143 1160.07 34.8477C1162.4 35.781 1164.5 37.2277 1166.37 39.1877C1168.24 41.1477 1169.71 43.621 1170.78 46.6077C1171.9 49.5477 1172.46 53.0477 1172.46 57.1077C1172.46 61.121 1171.92 64.621 1170.85 67.6077C1169.78 70.5944 1168.31 73.091 1166.44 75.0977C1164.57 77.1044 1162.47 78.5977 1160.14 79.5777C1157.81 80.5577 1155.38 81.0477 1152.86 81.0477C1150.43 81.0477 1148.05 80.581 1145.72 79.6477C1143.39 78.7144 1141.29 77.2677 1139.42 75.3077C1137.55 73.3477 1136.06 70.8977 1134.94 67.9577C1133.87 64.971 1133.33 61.4477 1133.33 57.3877C1133.33 53.3744 1133.87 49.8744 1134.94 46.8877C1136.01 43.901 1137.48 41.4043 1139.35 39.3977C1141.22 37.391 1143.32 35.8977 1145.65 34.9177C1147.98 33.9377 1150.41 33.4477 1152.93 33.4477ZM1153.14 78.0377C1154.49 78.0377 1155.73 77.431 1156.85 76.2177C1157.97 75.0044 1158.86 72.951 1159.51 70.0577C1160.21 67.1644 1160.56 63.1977 1160.56 58.1577C1160.56 53.771 1160.26 49.9677 1159.65 46.7477C1159.09 43.481 1158.23 40.961 1157.06 39.1877C1155.89 37.3677 1154.42 36.4577 1152.65 36.4577C1151.34 36.4577 1150.11 37.0643 1148.94 38.2777C1147.82 39.491 1146.91 41.5443 1146.21 44.4377C1145.56 47.331 1145.23 51.2977 1145.23 56.3377C1145.23 60.7244 1145.51 64.551 1146.07 67.8177C1146.68 71.0377 1147.56 73.5577 1148.73 75.3777C1149.9 77.151 1151.37 78.0377 1153.14 78.0377ZM1219.97 58.8577L1198.27 60.7477L1197.78 55.0777L1219.48 53.1877L1219.97 58.8577ZM1274.14 67.0477H1275.75L1275.05 79.9977H1241.31V78.3877C1241.69 78.201 1242.25 77.8744 1242.99 77.4077C1243.79 76.941 1244.6 76.4044 1245.44 75.7977C1247.78 74.1177 1249.97 72.2044 1252.02 70.0577C1254.08 67.911 1255.87 65.6244 1257.41 63.1977C1258.95 60.771 1260.17 58.3444 1261.05 55.9177C1261.94 53.491 1262.38 51.181 1262.38 48.9877C1262.38 46.8877 1261.87 45.1143 1260.84 43.6677C1259.86 42.221 1258.07 41.4977 1255.45 41.4977C1253.26 41.4977 1251.23 42.1043 1249.36 43.3177C1247.5 44.531 1245.65 46.421 1243.83 48.9877L1242.5 47.8677C1244.42 43.0143 1246.82 39.3977 1249.71 37.0177C1252.61 34.6377 1256.22 33.4477 1260.56 33.4477C1263.08 33.4477 1265.35 33.8677 1267.35 34.7077C1269.36 35.501 1270.95 36.761 1272.11 38.4877C1273.33 40.1677 1273.93 42.361 1273.93 45.0677C1273.93 49.8743 1272.39 54.3777 1269.31 58.5777C1266.28 62.7777 1262.03 66.721 1256.57 70.4077V70.5477H1266.79C1269.45 70.5477 1271.3 70.221 1272.32 69.5677C1273.35 68.9144 1273.96 68.0744 1274.14 67.0477ZM1302.75 72.2977C1302.75 74.0244 1302.89 75.331 1303.17 76.2177C1303.49 77.0577 1304.15 77.6177 1305.13 77.8977C1306.15 78.1777 1307.69 78.341 1309.75 78.3877V79.9977H1283.85V78.3877C1285.95 78.341 1287.49 78.1777 1288.47 77.8977C1289.49 77.6177 1290.15 77.0577 1290.43 76.2177C1290.71 75.331 1290.85 74.0244 1290.85 72.2977V41.8477L1284.41 45.8377L1282.94 43.5977L1299.18 33.4477H1303.24C1303.05 34.3343 1302.91 35.221 1302.82 36.1077C1302.77 36.9943 1302.75 37.881 1302.75 38.7677V72.2977ZM1334.77 79.9977V78.3877C1336.12 78.2944 1337.1 77.9444 1337.71 77.3377C1338.31 76.731 1338.62 75.2844 1338.62 72.9977V40.4477C1338.62 38.161 1338.27 36.7143 1337.57 36.1077C1336.91 35.4543 1335.63 35.1043 1333.72 35.0577V33.4477H1353.67V35.0577C1352.31 35.1043 1351.33 35.4543 1350.73 36.1077C1350.12 36.7143 1349.82 38.161 1349.82 40.4477V52.8377C1350.19 52.5577 1350.63 52.371 1351.15 52.2777C1351.71 52.1843 1352.36 52.1377 1353.11 52.1377H1366.34C1367.6 52.1377 1368.48 51.9277 1369 51.5077C1369.51 51.0877 1369.77 50.2477 1369.77 48.9877V40.4477C1369.77 38.161 1369.42 36.7143 1368.72 36.1077C1368.06 35.4543 1366.78 35.1043 1364.87 35.0577V33.4477H1384.82V35.0577C1383.46 35.1043 1382.48 35.4543 1381.88 36.1077C1381.27 36.7143 1380.97 38.161 1380.97 40.4477V72.9977C1380.97 75.2844 1381.32 76.731 1382.02 77.3377C1382.72 77.9444 1384 78.2944 1385.87 78.3877V79.9977H1365.92V78.3877C1367.27 78.2944 1368.25 77.9444 1368.86 77.3377C1369.46 76.731 1369.77 75.2844 1369.77 72.9977V54.3777C1369.39 54.7044 1368.93 54.9144 1368.37 55.0077C1367.81 55.101 1367.18 55.1477 1366.48 55.1477H1353.25C1351.99 55.1477 1351.1 55.3577 1350.59 55.7777C1350.07 56.1977 1349.82 57.0144 1349.82 58.2277V72.9977C1349.82 75.2844 1350.17 76.731 1350.87 77.3377C1351.57 77.9444 1352.85 78.2944 1354.72 78.3877V79.9977H1334.77ZM1416.74 32.3977C1420.05 32.3977 1423.13 32.9577 1425.98 34.0777C1428.83 35.1977 1431.35 36.831 1433.54 38.9777C1435.73 41.0777 1437.44 43.621 1438.65 46.6077C1439.86 49.5943 1440.47 52.931 1440.47 56.6177C1440.47 60.3044 1439.86 63.641 1438.65 66.6277C1437.44 69.6144 1435.73 72.181 1433.54 74.3277C1431.39 76.4744 1428.87 78.131 1425.98 79.2977C1423.09 80.4644 1419.98 81.0477 1416.67 81.0477C1413.4 81.0477 1410.32 80.4877 1407.43 79.3677C1404.58 78.2477 1402.06 76.6377 1399.87 74.5377C1397.68 72.391 1395.97 69.8244 1394.76 66.8377C1393.55 63.851 1392.94 60.5144 1392.94 56.8277C1392.94 53.141 1393.55 49.8043 1394.76 46.8177C1395.97 43.831 1397.65 41.2643 1399.8 39.1177C1401.99 36.971 1404.54 35.3143 1407.43 34.1477C1410.32 32.981 1413.43 32.3977 1416.74 32.3977ZM1418.14 78.0377C1420.57 78.0377 1422.48 77.2444 1423.88 75.6577C1425.28 74.0244 1426.28 71.7844 1426.89 68.9377C1427.54 66.091 1427.87 62.7777 1427.87 58.9977C1427.87 51.391 1426.7 45.5577 1424.37 41.4977C1422.08 37.4377 1419.05 35.4077 1415.27 35.4077C1412.89 35.4077 1410.98 36.201 1409.53 37.7877C1408.13 39.3743 1407.1 41.6143 1406.45 44.5077C1405.84 47.3544 1405.54 50.6677 1405.54 54.4477C1405.54 62.0544 1406.68 67.8877 1408.97 71.9477C1411.3 76.0077 1414.36 78.0377 1418.14 78.0377ZM1448.43 81.0477C1447.26 81.0477 1446.02 80.9544 1444.72 80.7677C1443.41 80.581 1442.29 80.3244 1441.36 79.9977V78.3877C1442.29 78.3877 1443.34 78.0144 1444.51 77.2677C1445.67 76.521 1446.86 75.0277 1448.08 72.7877L1458.09 54.6577C1454.96 53.8644 1452.58 52.581 1450.95 50.8077C1449.36 49.0344 1448.57 46.8877 1448.57 44.3677C1448.57 42.4077 1449.15 40.5644 1450.32 38.8377C1451.53 37.111 1453.49 35.7343 1456.2 34.7077C1458.95 33.6343 1462.64 33.0977 1467.26 33.0977C1468.75 33.0977 1470.48 33.1677 1472.44 33.3077C1474.4 33.401 1476.57 33.4477 1478.95 33.4477H1487.91V35.0577C1486.55 35.1043 1485.57 35.4543 1484.97 36.1077C1484.36 36.7143 1484.06 38.161 1484.06 40.4477V72.9977C1484.06 75.2844 1484.41 76.731 1485.11 77.3377C1485.81 77.9444 1487.09 78.2944 1488.96 78.3877V79.9977H1469.01V78.3877C1470.36 78.2944 1471.34 77.9444 1471.95 77.3377C1472.55 76.731 1472.86 75.2844 1472.86 72.9977V40.4477C1472.86 38.6277 1472.53 37.461 1471.88 36.9477C1471.27 36.3877 1470.2 36.1077 1468.66 36.1077C1466.65 36.1077 1464.83 36.831 1463.2 38.2777C1461.61 39.6777 1460.82 41.801 1460.82 44.6477C1460.82 46.141 1461.12 47.5877 1461.73 48.9877C1462.33 50.341 1463.41 51.4843 1464.95 52.4177C1466.53 53.351 1468.7 53.911 1471.46 54.0977V56.5477C1470.9 56.5477 1470.41 56.6644 1469.99 56.8977C1469.57 57.0844 1469.15 57.5744 1468.73 58.3677L1460.82 73.6277C1459.74 75.681 1458.25 77.431 1456.34 78.8777C1454.42 80.3244 1451.79 81.0477 1448.43 81.0477ZM1511.08 51.9977H1517.87C1522.95 51.9977 1526.97 52.5577 1529.91 53.6777C1532.85 54.7977 1534.92 56.3377 1536.14 58.2977C1537.4 60.2577 1538.03 62.521 1538.03 65.0877C1538.03 67.6544 1537.33 70.081 1535.93 72.3677C1534.57 74.6077 1532.45 76.451 1529.56 77.8977C1526.71 79.2977 1523.07 79.9977 1518.64 79.9977H1496.03V78.3877C1497.38 78.2944 1498.36 77.9444 1498.97 77.3377C1499.57 76.731 1499.88 75.2844 1499.88 72.9977V40.4477C1499.88 38.161 1499.53 36.7143 1498.83 36.1077C1498.17 35.4543 1496.89 35.1043 1494.98 35.0577V33.4477H1533.48V44.9977H1531.87C1531.73 43.411 1531.42 41.9877 1530.96 40.7277C1530.49 39.421 1529.7 38.3943 1528.58 37.6477C1527.46 36.8543 1525.85 36.4577 1523.75 36.4577H1514.16C1513.18 36.4577 1512.41 36.7143 1511.85 37.2277C1511.33 37.741 1511.08 38.8143 1511.08 40.4477V51.9977ZM1515.21 76.9877C1517.68 76.9877 1519.71 76.4044 1521.3 75.2377C1522.93 74.0244 1524.14 72.531 1524.94 70.7577C1525.73 68.9844 1526.13 67.2344 1526.13 65.5077C1526.13 62.941 1525.64 60.8877 1524.66 59.3477C1523.72 57.8077 1522.44 56.711 1520.81 56.0577C1519.22 55.3577 1517.42 55.0077 1515.42 55.0077H1511.08V72.9977C1511.08 74.631 1511.33 75.7044 1511.85 76.2177C1512.36 76.731 1513.48 76.9877 1515.21 76.9877ZM1545.45 79.9977V78.3877C1546.8 78.2944 1547.78 77.9444 1548.39 77.3377C1549 76.731 1549.3 75.2844 1549.3 72.9977V40.4477C1549.3 38.161 1548.95 36.7143 1548.25 36.1077C1547.6 35.4543 1546.31 35.1043 1544.4 35.0577V33.4477H1549.3C1552.71 33.4477 1555.9 33.401 1558.89 33.3077C1561.88 33.1677 1564.12 33.0977 1565.61 33.0977C1570.46 33.0977 1574.29 33.6343 1577.09 34.7077C1579.94 35.781 1581.97 37.2043 1583.18 38.9777C1584.44 40.7043 1585.07 42.6177 1585.07 44.7177C1585.07 47.1443 1584.28 49.4543 1582.69 51.6477C1581.15 53.841 1578.68 55.5444 1575.27 56.7577C1571.91 57.9244 1567.45 58.2977 1561.9 57.8777V55.4277C1564.42 55.521 1566.5 55.0777 1568.13 54.0977C1569.76 53.071 1570.95 51.7177 1571.7 50.0377C1572.49 48.3577 1572.89 46.561 1572.89 44.6477C1572.89 42.081 1572.17 40.0277 1570.72 38.4877C1569.27 36.901 1567.27 36.1077 1564.7 36.1077C1563.16 36.1077 1562.06 36.3877 1561.41 36.9477C1560.8 37.461 1560.5 38.6277 1560.5 40.4477V72.9977C1560.5 74.491 1560.64 75.6344 1560.92 76.4277C1561.25 77.1744 1561.81 77.6877 1562.6 77.9677C1563.44 78.201 1564.61 78.341 1566.1 78.3877V79.9977H1545.45ZM1592.46 81.0477C1591.29 81.0477 1590.06 80.9544 1588.75 80.7677C1587.44 80.581 1586.32 80.3244 1585.39 79.9977V78.3877C1586.32 78.3877 1587.37 78.0144 1588.54 77.2677C1589.71 76.521 1590.9 75.0277 1592.11 72.7877L1602.12 54.6577C1598.99 53.8644 1596.61 52.581 1594.98 50.8077C1593.39 49.0344 1592.6 46.8877 1592.6 44.3677C1592.6 42.4077 1593.18 40.5644 1594.35 38.8377C1595.56 37.111 1597.52 35.7343 1600.23 34.7077C1602.98 33.6343 1606.67 33.0977 1611.29 33.0977C1612.78 33.0977 1614.51 33.1677 1616.47 33.3077C1618.43 33.401 1620.6 33.4477 1622.98 33.4477H1631.94V35.0577C1630.59 35.1043 1629.61 35.4543 1629 36.1077C1628.39 36.7143 1628.09 38.161 1628.09 40.4477V72.9977C1628.09 75.2844 1628.44 76.731 1629.14 77.3377C1629.84 77.9444 1631.12 78.2944 1632.99 78.3877V79.9977H1613.04V78.3877C1614.39 78.2944 1615.37 77.9444 1615.98 77.3377C1616.59 76.731 1616.89 75.2844 1616.89 72.9977V40.4477C1616.89 38.6277 1616.56 37.461 1615.91 36.9477C1615.3 36.3877 1614.23 36.1077 1612.69 36.1077C1610.68 36.1077 1608.86 36.831 1607.23 38.2777C1605.64 39.6777 1604.85 41.801 1604.85 44.6477C1604.85 46.141 1605.15 47.5877 1605.76 48.9877C1606.37 50.341 1607.44 51.4843 1608.98 52.4177C1610.57 53.351 1612.74 53.911 1615.49 54.0977V56.5477C1614.93 56.5477 1614.44 56.6644 1614.02 56.8977C1613.6 57.0844 1613.18 57.5744 1612.76 58.3677L1604.85 73.6277C1603.78 75.681 1602.28 77.431 1600.37 78.8777C1598.46 80.3244 1595.82 81.0477 1592.46 81.0477ZM1688.61 67.0477H1690.22L1689.52 79.9977H1655.78V78.3877C1656.15 78.201 1656.71 77.8744 1657.46 77.4077C1658.25 76.941 1659.07 76.4044 1659.91 75.7977C1662.24 74.1177 1664.43 72.2044 1666.49 70.0577C1668.54 67.911 1670.34 65.6244 1671.88 63.1977C1673.42 60.771 1674.63 58.3444 1675.52 55.9177C1676.4 53.491 1676.85 51.181 1676.85 48.9877C1676.85 46.8877 1676.33 45.1143 1675.31 43.6677C1674.33 42.221 1672.53 41.4977 1669.92 41.4977C1667.72 41.4977 1665.69 42.1043 1663.83 43.3177C1661.96 44.531 1660.12 46.421 1658.3 48.9877L1656.97 47.8677C1658.88 43.0143 1661.28 39.3977 1664.18 37.0177C1667.07 34.6377 1670.69 33.4477 1675.03 33.4477C1677.55 33.4477 1679.81 33.8677 1681.82 34.7077C1683.82 35.501 1685.41 36.761 1686.58 38.4877C1687.79 40.1677 1688.4 42.361 1688.4 45.0677C1688.4 49.8743 1686.86 54.3777 1683.78 58.5777C1680.74 62.7777 1676.5 66.721 1671.04 70.4077V70.5477H1681.26C1683.92 70.5477 1685.76 70.221 1686.79 69.5677C1687.81 68.9144 1688.42 68.0744 1688.61 67.0477ZM1718.4 33.4477C1720.83 33.4477 1723.21 33.9143 1725.54 34.8477C1727.87 35.781 1729.97 37.2277 1731.84 39.1877C1733.71 41.1477 1735.18 43.621 1736.25 46.6077C1737.37 49.5477 1737.93 53.0477 1737.93 57.1077C1737.93 61.121 1737.39 64.621 1736.32 67.6077C1735.25 70.5944 1733.78 73.091 1731.91 75.0977C1730.04 77.1044 1727.94 78.5977 1725.61 79.5777C1723.28 80.5577 1720.85 81.0477 1718.33 81.0477C1715.9 81.0477 1713.52 80.581 1711.19 79.6477C1708.86 78.7144 1706.76 77.2677 1704.89 75.3077C1703.02 73.3477 1701.53 70.8977 1700.41 67.9577C1699.34 64.971 1698.8 61.4477 1698.8 57.3877C1698.8 53.3744 1699.34 49.8744 1700.41 46.8877C1701.48 43.901 1702.95 41.4043 1704.82 39.3977C1706.69 37.391 1708.79 35.8977 1711.12 34.9177C1713.45 33.9377 1715.88 33.4477 1718.4 33.4477ZM1718.61 78.0377C1719.96 78.0377 1721.2 77.431 1722.32 76.2177C1723.44 75.0044 1724.33 72.951 1724.98 70.0577C1725.68 67.1644 1726.03 63.1977 1726.03 58.1577C1726.03 53.771 1725.73 49.9677 1725.12 46.7477C1724.56 43.481 1723.7 40.961 1722.53 39.1877C1721.36 37.3677 1719.89 36.4577 1718.12 36.4577C1716.81 36.4577 1715.58 37.0643 1714.41 38.2777C1713.29 39.491 1712.38 41.5443 1711.68 44.4377C1711.03 47.331 1710.7 51.2977 1710.7 56.3377C1710.7 60.7244 1710.98 64.551 1711.54 67.8177C1712.15 71.0377 1713.03 73.5577 1714.2 75.3777C1715.37 77.151 1716.84 78.0377 1718.61 78.0377ZM1776.59 67.0477H1778.2L1777.5 79.9977H1743.76V78.3877C1744.13 78.201 1744.69 77.8744 1745.44 77.4077C1746.23 76.941 1747.05 76.4044 1747.89 75.7977C1750.22 74.1177 1752.41 72.2044 1754.47 70.0577C1756.52 67.911 1758.32 65.6244 1759.86 63.1977C1761.4 60.771 1762.61 58.3444 1763.5 55.9177C1764.38 53.491 1764.83 51.181 1764.83 48.9877C1764.83 46.8877 1764.31 45.1143 1763.29 43.6677C1762.31 42.221 1760.51 41.4977 1757.9 41.4977C1755.7 41.4977 1753.67 42.1043 1751.81 43.3177C1749.94 44.531 1748.1 46.421 1746.28 48.9877L1744.95 47.8677C1746.86 43.0143 1749.26 39.3977 1752.16 37.0177C1755.05 34.6377 1758.67 33.4477 1763.01 33.4477C1765.53 33.4477 1767.79 33.8677 1769.8 34.7077C1771.8 35.501 1773.39 36.761 1774.56 38.4877C1775.77 40.1677 1776.38 42.361 1776.38 45.0677C1776.38 49.8743 1774.84 54.3777 1771.76 58.5777C1768.72 62.7777 1764.48 66.721 1759.02 70.4077V70.5477H1769.24C1771.9 70.5477 1773.74 70.221 1774.77 69.5677C1775.79 68.9144 1776.4 68.0744 1776.59 67.0477ZM1815.48 62.1477H1820.38V70.8977H1817.44C1816.13 70.8977 1815.48 71.7144 1815.48 73.3477C1815.48 74.4677 1815.48 75.5644 1815.48 76.6377C1815.53 77.6644 1815.57 78.7844 1815.62 79.9977H1804.56C1804.65 78.4577 1804.72 76.9644 1804.77 75.5177C1804.82 74.0244 1804.86 72.4844 1804.91 70.8977H1782.79V69.2877C1784 68.121 1785.1 66.9077 1786.08 65.6477L1808.97 37.0177C1809.48 36.3643 1809.95 35.7343 1810.37 35.1277C1810.84 34.4743 1811.21 33.9143 1811.49 33.4477H1815.55L1815.48 62.1477ZM1804.77 47.5177L1793.08 62.1477H1804.98V47.5177H1804.77ZM1877.81 33.4477V46.3977H1876.2C1875.97 44.3443 1875.55 42.5943 1874.94 41.1477C1874.38 39.6543 1873.49 38.511 1872.28 37.7177C1871.11 36.8777 1869.48 36.4577 1867.38 36.4577H1864.09C1863.11 36.4577 1862.34 36.7143 1861.78 37.2277C1861.27 37.741 1861.01 38.8143 1861.01 40.4477V72.9977C1861.01 75.2844 1861.36 76.731 1862.06 77.3377C1862.76 77.9444 1864.04 78.2944 1865.91 78.3877V79.9977H1845.96V78.3877C1847.31 78.2944 1848.29 77.9444 1848.9 77.3377C1849.51 76.731 1849.81 75.2844 1849.81 72.9977V40.4477C1849.81 38.161 1849.46 36.7143 1848.76 36.1077C1848.11 35.4543 1846.82 35.1043 1844.91 35.0577V33.4477H1877.81ZM1905.85 32.3977C1909.17 32.3977 1912.25 32.9577 1915.09 34.0777C1917.94 35.1977 1920.46 36.831 1922.65 38.9777C1924.85 41.0777 1926.55 43.621 1927.76 46.6077C1928.98 49.5943 1929.58 52.931 1929.58 56.6177C1929.58 60.3044 1928.98 63.641 1927.76 66.6277C1926.55 69.6144 1924.85 72.181 1922.65 74.3277C1920.51 76.4744 1917.99 78.131 1915.09 79.2977C1912.2 80.4644 1909.1 81.0477 1905.78 81.0477C1902.52 81.0477 1899.44 80.4877 1896.54 79.3677C1893.7 78.2477 1891.18 76.6377 1888.98 74.5377C1886.79 72.391 1885.09 69.8244 1883.87 66.8377C1882.66 63.851 1882.05 60.5144 1882.05 56.8277C1882.05 53.141 1882.66 49.8043 1883.87 46.8177C1885.09 43.831 1886.77 41.2643 1888.91 39.1177C1891.11 36.971 1893.65 35.3143 1896.54 34.1477C1899.44 32.981 1902.54 32.3977 1905.85 32.3977ZM1907.25 78.0377C1909.68 78.0377 1911.59 77.2444 1912.99 75.6577C1914.39 74.0244 1915.4 71.7844 1916 68.9377C1916.66 66.091 1916.98 62.7777 1916.98 58.9977C1916.98 51.391 1915.82 45.5577 1913.48 41.4977C1911.2 37.4377 1908.16 35.4077 1904.38 35.4077C1902 35.4077 1900.09 36.201 1898.64 37.7877C1897.24 39.3743 1896.22 41.6143 1895.56 44.5077C1894.96 47.3544 1894.65 50.6677 1894.65 54.4477C1894.65 62.0544 1895.8 67.8877 1898.08 71.9477C1900.42 76.0077 1903.47 78.0377 1907.25 78.0377ZM1959.94 38.9777L1971.56 72.9977C1971.98 74.211 1972.58 75.331 1973.38 76.3577C1974.22 77.3377 1975.5 78.0144 1977.23 78.3877L1974.01 94.3477H1972.4C1972.3 91.4544 1971.88 88.9344 1971.14 86.7877C1970.39 84.641 1969.46 82.961 1968.34 81.7477C1967.22 80.581 1966 79.9977 1964.7 79.9977H1945.94C1944.21 79.9977 1942.51 80.581 1940.83 81.7477C1939.19 82.961 1937.79 84.641 1936.63 86.7877C1935.51 88.9344 1934.78 91.4544 1934.46 94.3477H1932.85V78.3877C1933.69 78.0144 1934.5 77.3844 1935.3 76.4977C1936.09 75.5644 1936.81 74.5144 1937.47 73.3477C1938.17 72.181 1938.7 71.0844 1939.08 70.0577L1950.98 38.9777C1951.44 37.7643 1951.89 36.5743 1952.31 35.4077C1952.73 34.241 1953.1 33.051 1953.43 31.8377H1957.49C1957.81 33.051 1958.19 34.241 1958.61 35.4077C1959.07 36.5743 1959.52 37.7643 1959.94 38.9777ZM1957 76.9877C1958.86 76.9877 1959.89 76.6844 1960.08 76.0777C1960.26 75.471 1960.1 74.4444 1959.59 72.9977L1951.4 47.7977H1951.26L1940.34 76.9877H1957ZM2020.07 72.9977C2020.72 74.5844 2021.26 75.751 2021.68 76.4977C2022.14 77.2444 2022.63 77.7344 2023.15 77.9677C2023.66 78.1544 2024.29 78.2944 2025.04 78.3877V79.9977H2005.51V78.3877C2007.37 78.2944 2008.4 77.7344 2008.59 76.7077C2008.82 75.681 2008.66 74.4444 2008.1 72.9977L2004.6 63.8977C2004.32 64.131 2003.94 64.2944 2003.48 64.3877C2003.06 64.4344 2002.59 64.4577 2002.08 64.4577H1994.17C1993.19 64.4577 1992.44 64.5744 1991.93 64.8077C1991.41 65.041 1990.97 65.6244 1990.6 66.5577L1988.08 72.9977C1987.47 74.5377 1987.52 75.7977 1988.22 76.7777C1988.92 77.7577 1990.29 78.2944 1992.35 78.3877V79.9977H1979.61V78.3877C1980.63 78.2944 1981.5 77.781 1982.2 76.8477C1982.94 75.8677 1983.62 74.5844 1984.23 72.9977L1997.67 38.9777C1998.18 37.7643 1998.62 36.5743 1999 35.4077C1999.42 34.241 1999.79 33.051 2000.12 31.8377H2004.18C2004.5 33.051 2004.88 34.241 2005.3 35.4077C2005.72 36.5743 2006.16 37.7643 2006.63 38.9777L2020.07 72.9977ZM2001.73 61.4477C2002.38 61.4477 2002.8 61.3544 2002.99 61.1677C2003.22 60.9344 2003.2 60.4677 2002.92 59.7677L1998.09 47.7977H1997.95L1992.49 61.7277C1992.72 61.5877 1993 61.5177 1993.33 61.5177C1993.65 61.471 1994.03 61.4477 1994.45 61.4477H2001.73Z" fill="black"/>
<path d="M2095.8 49.0175C2088.82 46.231 2080.63 47.7171 2075.05 53.29C2067.51 60.8135 2067.51 72.9811 2075.05 80.5045C2080.63 86.0775 2088.82 87.5636 2095.8 84.7771V75.8604C2094.4 76.5106 2092.91 76.8821 2091.33 76.8821C2085.75 76.8821 2081.28 72.4238 2081.28 66.8508C2081.28 61.2779 2085.75 56.8196 2091.33 56.8196C2092.91 56.8196 2094.49 57.1911 2095.8 57.8413V49.0175Z" fill="black"/>
<path d="M2092.64 40.0817C2095.39 37.3264 2095.39 32.7657 2092.64 29.9153C2089.89 27.16 2085.34 27.16 2082.5 29.9153C2079.65 32.6707 2079.75 37.2314 2082.5 40.0817C2085.34 42.8371 2089.89 42.8371 2092.64 40.0817Z" fill="black"/>
<path d="M2172.54 67.0477H2174.15L2173.45 79.9977H2139.71V78.3877C2140.08 78.201 2140.64 77.8744 2141.39 77.4077C2142.18 76.941 2143 76.4044 2143.84 75.7977C2146.17 74.1177 2148.36 72.2044 2150.42 70.0577C2152.47 67.911 2154.27 65.6244 2155.81 63.1977C2157.35 60.771 2158.56 58.3444 2159.45 55.9177C2160.33 53.491 2160.78 51.181 2160.78 48.9877C2160.78 46.8877 2160.26 45.1143 2159.24 43.6677C2158.26 42.221 2156.46 41.4977 2153.85 41.4977C2151.65 41.4977 2149.62 42.1043 2147.76 43.3177C2145.89 44.531 2144.05 46.421 2142.23 48.9877L2140.9 47.8677C2142.81 43.0143 2145.21 39.3977 2148.11 37.0177C2151 34.6377 2154.62 33.4477 2158.96 33.4477C2161.48 33.4477 2163.74 33.8677 2165.75 34.7077C2167.75 35.501 2169.34 36.761 2170.51 38.4877C2171.72 40.1677 2172.33 42.361 2172.33 45.0677C2172.33 49.8743 2170.79 54.3777 2167.71 58.5777C2164.67 62.7777 2160.43 66.721 2154.97 70.4077V70.5477H2165.19C2167.85 70.5477 2169.69 70.221 2170.72 69.5677C2171.74 68.9144 2172.35 68.0744 2172.54 67.0477ZM2202.33 33.4477C2204.76 33.4477 2207.14 33.9143 2209.47 34.8477C2211.8 35.781 2213.9 37.2277 2215.77 39.1877C2217.64 41.1477 2219.11 43.621 2220.18 46.6077C2221.3 49.5477 2221.86 53.0477 2221.86 57.1077C2221.86 61.121 2221.32 64.621 2220.25 67.6077C2219.18 70.5944 2217.71 73.091 2215.84 75.0977C2213.97 77.1044 2211.87 78.5977 2209.54 79.5777C2207.21 80.5577 2204.78 81.0477 2202.26 81.0477C2199.83 81.0477 2197.45 80.581 2195.12 79.6477C2192.79 78.7144 2190.69 77.2677 2188.82 75.3077C2186.95 73.3477 2185.46 70.8977 2184.34 67.9577C2183.27 64.971 2182.73 61.4477 2182.73 57.3877C2182.73 53.3744 2183.27 49.8744 2184.34 46.8877C2185.41 43.901 2186.88 41.4043 2188.75 39.3977C2190.62 37.391 2192.72 35.8977 2195.05 34.9177C2197.38 33.9377 2199.81 33.4477 2202.33 33.4477ZM2202.54 78.0377C2203.89 78.0377 2205.13 77.431 2206.25 76.2177C2207.37 75.0044 2208.26 72.951 2208.91 70.0577C2209.61 67.1644 2209.96 63.1977 2209.96 58.1577C2209.96 53.771 2209.66 49.9677 2209.05 46.7477C2208.49 43.481 2207.63 40.961 2206.46 39.1877C2205.29 37.3677 2203.82 36.4577 2202.05 36.4577C2200.74 36.4577 2199.51 37.0643 2198.34 38.2777C2197.22 39.491 2196.31 41.5443 2195.61 44.4377C2194.96 47.331 2194.63 51.2977 2194.63 56.3377C2194.63 60.7244 2194.91 64.551 2195.47 67.8177C2196.08 71.0377 2196.96 73.5577 2198.13 75.3777C2199.3 77.151 2200.77 78.0377 2202.54 78.0377ZM2269.37 58.8577L2247.67 60.7477L2247.18 55.0777L2268.88 53.1877L2269.37 58.8577ZM2323.54 67.0477H2325.15L2324.45 79.9977H2290.71V78.3877C2291.09 78.201 2291.65 77.8744 2292.39 77.4077C2293.19 76.941 2294 76.4044 2294.84 75.7977C2297.18 74.1177 2299.37 72.2044 2301.42 70.0577C2303.48 67.911 2305.27 65.6244 2306.81 63.1977C2308.35 60.771 2309.57 58.3444 2310.45 55.9177C2311.34 53.491 2311.78 51.181 2311.78 48.9877C2311.78 46.8877 2311.27 45.1143 2310.24 43.6677C2309.26 42.221 2307.47 41.4977 2304.85 41.4977C2302.66 41.4977 2300.63 42.1043 2298.76 43.3177C2296.9 44.531 2295.05 46.421 2293.23 48.9877L2291.9 47.8677C2293.82 43.0143 2296.22 39.3977 2299.11 37.0177C2302.01 34.6377 2305.62 33.4477 2309.96 33.4477C2312.48 33.4477 2314.75 33.8677 2316.75 34.7077C2318.76 35.501 2320.35 36.761 2321.51 38.4877C2322.73 40.1677 2323.33 42.361 2323.33 45.0677C2323.33 49.8743 2321.79 54.3777 2318.71 58.5777C2315.68 62.7777 2311.43 66.721 2305.97 70.4077V70.5477H2316.19C2318.85 70.5477 2320.7 70.221 2321.72 69.5677C2322.75 68.9144 2323.36 68.0744 2323.54 67.0477ZM2352.15 72.2977C2352.15 74.0244 2352.29 75.331 2352.57 76.2177C2352.89 77.0577 2353.55 77.6177 2354.53 77.8977C2355.55 78.1777 2357.09 78.341 2359.15 78.3877V79.9977H2333.25V78.3877C2335.35 78.341 2336.89 78.1777 2337.87 77.8977C2338.89 77.6177 2339.55 77.0577 2339.83 76.2177C2340.11 75.331 2340.25 74.0244 2340.25 72.2977V41.8477L2333.81 45.8377L2332.34 43.5977L2348.58 33.4477H2352.64C2352.45 34.3343 2352.31 35.221 2352.22 36.1077C2352.17 36.9943 2352.15 37.881 2352.15 38.7677V72.2977ZM2384.17 79.9977V78.3877C2385.52 78.2944 2386.5 77.9444 2387.11 77.3377C2387.71 76.731 2388.02 75.2844 2388.02 72.9977V40.4477C2388.02 38.161 2387.67 36.7143 2386.97 36.1077C2386.31 35.4543 2385.03 35.1043 2383.12 35.0577V33.4477H2403.07V35.0577C2401.71 35.1043 2400.73 35.4543 2400.13 36.1077C2399.52 36.7143 2399.22 38.161 2399.22 40.4477V52.8377C2399.59 52.5577 2400.03 52.371 2400.55 52.2777C2401.11 52.1843 2401.76 52.1377 2402.51 52.1377H2415.74C2417 52.1377 2417.88 51.9277 2418.4 51.5077C2418.91 51.0877 2419.17 50.2477 2419.17 48.9877V40.4477C2419.17 38.161 2418.82 36.7143 2418.12 36.1077C2417.46 35.4543 2416.18 35.1043 2414.27 35.0577V33.4477H2434.22V35.0577C2432.86 35.1043 2431.88 35.4543 2431.28 36.1077C2430.67 36.7143 2430.37 38.161 2430.37 40.4477V72.9977C2430.37 75.2844 2430.72 76.731 2431.42 77.3377C2432.12 77.9444 2433.4 78.2944 2435.27 78.3877V79.9977H2415.32V78.3877C2416.67 78.2944 2417.65 77.9444 2418.26 77.3377C2418.86 76.731 2419.17 75.2844 2419.17 72.9977V54.3777C2418.79 54.7044 2418.33 54.9144 2417.77 55.0077C2417.21 55.101 2416.58 55.1477 2415.88 55.1477H2402.65C2401.39 55.1477 2400.5 55.3577 2399.99 55.7777C2399.47 56.1977 2399.22 57.0144 2399.22 58.2277V72.9977C2399.22 75.2844 2399.57 76.731 2400.27 77.3377C2400.97 77.9444 2402.25 78.2944 2404.12 78.3877V79.9977H2384.17ZM2466.14 32.3977C2469.45 32.3977 2472.53 32.9577 2475.38 34.0777C2478.23 35.1977 2480.75 36.831 2482.94 38.9777C2485.13 41.0777 2486.84 43.621 2488.05 46.6077C2489.26 49.5943 2489.87 52.931 2489.87 56.6177C2489.87 60.3044 2489.26 63.641 2488.05 66.6277C2486.84 69.6144 2485.13 72.181 2482.94 74.3277C2480.79 76.4744 2478.27 78.131 2475.38 79.2977C2472.49 80.4644 2469.38 81.0477 2466.07 81.0477C2462.8 81.0477 2459.72 80.4877 2456.83 79.3677C2453.98 78.2477 2451.46 76.6377 2449.27 74.5377C2447.08 72.391 2445.37 69.8244 2444.16 66.8377C2442.95 63.851 2442.34 60.5144 2442.34 56.8277C2442.34 53.141 2442.95 49.8043 2444.16 46.8177C2445.37 43.831 2447.05 41.2643 2449.2 39.1177C2451.39 36.971 2453.94 35.3143 2456.83 34.1477C2459.72 32.981 2462.83 32.3977 2466.14 32.3977ZM2467.54 78.0377C2469.97 78.0377 2471.88 77.2444 2473.28 75.6577C2474.68 74.0244 2475.68 71.7844 2476.29 68.9377C2476.94 66.091 2477.27 62.7777 2477.27 58.9977C2477.27 51.391 2476.1 45.5577 2473.77 41.4977C2471.48 37.4377 2468.45 35.4077 2464.67 35.4077C2462.29 35.4077 2460.38 36.201 2458.93 37.7877C2457.53 39.3743 2456.5 41.6143 2455.85 44.5077C2455.24 47.3544 2454.94 50.6677 2454.94 54.4477C2454.94 62.0544 2456.08 67.8877 2458.37 71.9477C2460.7 76.0077 2463.76 78.0377 2467.54 78.0377ZM2497.82 81.0477C2496.66 81.0477 2495.42 80.9544 2494.11 80.7677C2492.81 80.581 2491.69 80.3244 2490.75 79.9977V78.3877C2491.69 78.3877 2492.74 78.0144 2493.9 77.2677C2495.07 76.521 2496.26 75.0277 2497.47 72.7877L2507.48 54.6577C2504.36 53.8644 2501.98 52.581 2500.34 50.8077C2498.76 49.0344 2497.96 46.8877 2497.96 44.3677C2497.96 42.4077 2498.55 40.5644 2499.71 38.8377C2500.93 37.111 2502.89 35.7343 2505.59 34.7077C2508.35 33.6343 2512.03 33.0977 2516.65 33.0977C2518.15 33.0977 2519.87 33.1677 2521.83 33.3077C2523.79 33.401 2525.96 33.4477 2528.34 33.4477H2537.3V35.0577C2535.95 35.1043 2534.97 35.4543 2534.36 36.1077C2533.76 36.7143 2533.45 38.161 2533.45 40.4477V72.9977C2533.45 75.2844 2533.8 76.731 2534.5 77.3377C2535.2 77.9444 2536.49 78.2944 2538.35 78.3877V79.9977H2518.4V78.3877C2519.76 78.2944 2520.74 77.9444 2521.34 77.3377C2521.95 76.731 2522.25 75.2844 2522.25 72.9977V40.4477C2522.25 38.6277 2521.93 37.461 2521.27 36.9477C2520.67 36.3877 2519.59 36.1077 2518.05 36.1077C2516.05 36.1077 2514.23 36.831 2512.59 38.2777C2511.01 39.6777 2510.21 41.801 2510.21 44.6477C2510.21 46.141 2510.52 47.5877 2511.12 48.9877C2511.73 50.341 2512.8 51.4843 2514.34 52.4177C2515.93 53.351 2518.1 53.911 2520.85 54.0977V56.5477C2520.29 56.5477 2519.8 56.6644 2519.38 56.8977C2518.96 57.0844 2518.54 57.5744 2518.12 58.3677L2510.21 73.6277C2509.14 75.681 2507.65 77.431 2505.73 78.8777C2503.82 80.3244 2501.18 81.0477 2497.82 81.0477ZM2560.48 51.9977H2567.27C2572.35 51.9977 2576.37 52.5577 2579.31 53.6777C2582.25 54.7977 2584.32 56.3377 2585.54 58.2977C2586.8 60.2577 2587.43 62.521 2587.43 65.0877C2587.43 67.6544 2586.73 70.081 2585.33 72.3677C2583.97 74.6077 2581.85 76.451 2578.96 77.8977C2576.11 79.2977 2572.47 79.9977 2568.04 79.9977H2545.43V78.3877C2546.78 78.2944 2547.76 77.9444 2548.37 77.3377C2548.97 76.731 2549.28 75.2844 2549.28 72.9977V40.4477C2549.28 38.161 2548.93 36.7143 2548.23 36.1077C2547.57 35.4543 2546.29 35.1043 2544.38 35.0577V33.4477H2582.88V44.9977H2581.27C2581.13 43.411 2580.82 41.9877 2580.36 40.7277C2579.89 39.421 2579.1 38.3943 2577.98 37.6477C2576.86 36.8543 2575.25 36.4577 2573.15 36.4577H2563.56C2562.58 36.4577 2561.81 36.7143 2561.25 37.2277C2560.73 37.741 2560.48 38.8143 2560.48 40.4477V51.9977ZM2564.61 76.9877C2567.08 76.9877 2569.11 76.4044 2570.7 75.2377C2572.33 74.0244 2573.54 72.531 2574.34 70.7577C2575.13 68.9844 2575.53 67.2344 2575.53 65.5077C2575.53 62.941 2575.04 60.8877 2574.06 59.3477C2573.12 57.8077 2571.84 56.711 2570.21 56.0577C2568.62 55.3577 2566.82 55.0077 2564.82 55.0077H2560.48V72.9977C2560.48 74.631 2560.73 75.7044 2561.25 76.2177C2561.76 76.731 2562.88 76.9877 2564.61 76.9877ZM2594.85 79.9977V78.3877C2596.2 78.2944 2597.18 77.9444 2597.79 77.3377C2598.4 76.731 2598.7 75.2844 2598.7 72.9977V40.4477C2598.7 38.161 2598.35 36.7143 2597.65 36.1077C2597 35.4543 2595.71 35.1043 2593.8 35.0577V33.4477H2598.7C2602.11 33.4477 2605.3 33.401 2608.29 33.3077C2611.28 33.1677 2613.52 33.0977 2615.01 33.0977C2619.86 33.0977 2623.69 33.6343 2626.49 34.7077C2629.34 35.781 2631.37 37.2043 2632.58 38.9777C2633.84 40.7043 2634.47 42.6177 2634.47 44.7177C2634.47 47.1443 2633.68 49.4543 2632.09 51.6477C2630.55 53.841 2628.08 55.5444 2624.67 56.7577C2621.31 57.9244 2616.85 58.2977 2611.3 57.8777V55.4277C2613.82 55.521 2615.9 55.0777 2617.53 54.0977C2619.16 53.071 2620.35 51.7177 2621.1 50.0377C2621.89 48.3577 2622.29 46.561 2622.29 44.6477C2622.29 42.081 2621.57 40.0277 2620.12 38.4877C2618.67 36.901 2616.67 36.1077 2614.1 36.1077C2612.56 36.1077 2611.46 36.3877 2610.81 36.9477C2610.2 37.461 2609.9 38.6277 2609.9 40.4477V72.9977C2609.9 74.491 2610.04 75.6344 2610.32 76.4277C2610.65 77.1744 2611.21 77.6877 2612 77.9677C2612.84 78.201 2614.01 78.341 2615.5 78.3877V79.9977H2594.85ZM2641.86 81.0477C2640.69 81.0477 2639.45 80.9544 2638.15 80.7677C2636.84 80.581 2635.72 80.3244 2634.79 79.9977V78.3877C2635.72 78.3877 2636.77 78.0144 2637.94 77.2677C2639.1 76.521 2640.29 75.0277 2641.51 72.7877L2651.52 54.6577C2648.39 53.8644 2646.01 52.581 2644.38 50.8077C2642.79 49.0344 2642 46.8877 2642 44.3677C2642 42.4077 2642.58 40.5644 2643.75 38.8377C2644.96 37.111 2646.92 35.7343 2649.63 34.7077C2652.38 33.6343 2656.07 33.0977 2660.69 33.0977C2662.18 33.0977 2663.91 33.1677 2665.87 33.3077C2667.83 33.401 2670 33.4477 2672.38 33.4477H2681.34V35.0577C2679.98 35.1043 2679 35.4543 2678.4 36.1077C2677.79 36.7143 2677.49 38.161 2677.49 40.4477V72.9977C2677.49 75.2844 2677.84 76.731 2678.54 77.3377C2679.24 77.9444 2680.52 78.2944 2682.39 78.3877V79.9977H2662.44V78.3877C2663.79 78.2944 2664.77 77.9444 2665.38 77.3377C2665.98 76.731 2666.29 75.2844 2666.29 72.9977V40.4477C2666.29 38.6277 2665.96 37.461 2665.31 36.9477C2664.7 36.3877 2663.63 36.1077 2662.09 36.1077C2660.08 36.1077 2658.26 36.831 2656.63 38.2777C2655.04 39.6777 2654.25 41.801 2654.25 44.6477C2654.25 46.141 2654.55 47.5877 2655.16 48.9877C2655.76 50.341 2656.84 51.4843 2658.38 52.4177C2659.96 53.351 2662.13 53.911 2664.89 54.0977V56.5477C2664.33 56.5477 2663.84 56.6644 2663.42 56.8977C2663 57.0844 2662.58 57.5744 2662.16 58.3677L2654.25 73.6277C2653.17 75.681 2651.68 77.431 2649.77 78.8777C2647.85 80.3244 2645.22 81.0477 2641.86 81.0477ZM2738.01 67.0477H2739.62L2738.92 79.9977H2705.18V78.3877C2705.55 78.201 2706.11 77.8744 2706.86 77.4077C2707.65 76.941 2708.47 76.4044 2709.31 75.7977C2711.64 74.1177 2713.83 72.2044 2715.89 70.0577C2717.94 67.911 2719.74 65.6244 2721.28 63.1977C2722.82 60.771 2724.03 58.3444 2724.92 55.9177C2725.8 53.491 2726.25 51.181 2726.25 48.9877C2726.25 46.8877 2725.73 45.1143 2724.71 43.6677C2723.73 42.221 2721.93 41.4977 2719.32 41.4977C2717.12 41.4977 2715.09 42.1043 2713.23 43.3177C2711.36 44.531 2709.52 46.421 2707.7 48.9877L2706.37 47.8677C2708.28 43.0143 2710.68 39.3977 2713.58 37.0177C2716.47 34.6377 2720.09 33.4477 2724.43 33.4477C2726.95 33.4477 2729.21 33.8677 2731.22 34.7077C2733.22 35.501 2734.81 36.761 2735.98 38.4877C2737.19 40.1677 2737.8 42.361 2737.8 45.0677C2737.8 49.8743 2736.26 54.3777 2733.18 58.5777C2730.14 62.7777 2725.9 66.721 2720.44 70.4077V70.5477H2730.66C2733.32 70.5477 2735.16 70.221 2736.19 69.5677C2737.21 68.9144 2737.82 68.0744 2738.01 67.0477ZM2767.8 33.4477C2770.23 33.4477 2772.61 33.9143 2774.94 34.8477C2777.27 35.781 2779.37 37.2277 2781.24 39.1877C2783.11 41.1477 2784.58 43.621 2785.65 46.6077C2786.77 49.5477 2787.33 53.0477 2787.33 57.1077C2787.33 61.121 2786.79 64.621 2785.72 67.6077C2784.65 70.5944 2783.18 73.091 2781.31 75.0977C2779.44 77.1044 2777.34 78.5977 2775.01 79.5777C2772.68 80.5577 2770.25 81.0477 2767.73 81.0477C2765.3 81.0477 2762.92 80.581 2760.59 79.6477C2758.26 78.7144 2756.16 77.2677 2754.29 75.3077C2752.42 73.3477 2750.93 70.8977 2749.81 67.9577C2748.74 64.971 2748.2 61.4477 2748.2 57.3877C2748.2 53.3744 2748.74 49.8744 2749.81 46.8877C2750.88 43.901 2752.35 41.4043 2754.22 39.3977C2756.09 37.391 2758.19 35.8977 2760.52 34.9177C2762.85 33.9377 2765.28 33.4477 2767.8 33.4477ZM2768.01 78.0377C2769.36 78.0377 2770.6 77.431 2771.72 76.2177C2772.84 75.0044 2773.73 72.951 2774.38 70.0577C2775.08 67.1644 2775.43 63.1977 2775.43 58.1577C2775.43 53.771 2775.13 49.9677 2774.52 46.7477C2773.96 43.481 2773.1 40.961 2771.93 39.1877C2770.76 37.3677 2769.29 36.4577 2767.52 36.4577C2766.21 36.4577 2764.98 37.0643 2763.81 38.2777C2762.69 39.491 2761.78 41.5443 2761.08 44.4377C2760.43 47.331 2760.1 51.2977 2760.1 56.3377C2760.1 60.7244 2760.38 64.551 2760.94 67.8177C2761.55 71.0377 2762.43 73.5577 2763.6 75.3777C2764.77 77.151 2766.24 78.0377 2768.01 78.0377ZM2825.98 67.0477H2827.59L2826.89 79.9977H2793.15V78.3877C2793.53 78.201 2794.09 77.8744 2794.83 77.4077C2795.63 76.941 2796.44 76.4044 2797.28 75.7977C2799.62 74.1177 2801.81 72.2044 2803.86 70.0577C2805.92 67.911 2807.71 65.6244 2809.25 63.1977C2810.79 60.771 2812.01 58.3444 2812.89 55.9177C2813.78 53.491 2814.22 51.181 2814.22 48.9877C2814.22 46.8877 2813.71 45.1143 2812.68 43.6677C2811.7 42.221 2809.91 41.4977 2807.29 41.4977C2805.1 41.4977 2803.07 42.1043 2801.2 43.3177C2799.34 44.531 2797.49 46.421 2795.67 48.9877L2794.34 47.8677C2796.26 43.0143 2798.66 39.3977 2801.55 37.0177C2804.45 34.6377 2808.06 33.4477 2812.4 33.4477C2814.92 33.4477 2817.19 33.8677 2819.19 34.7077C2821.2 35.501 2822.79 36.761 2823.95 38.4877C2825.17 40.1677 2825.77 42.361 2825.77 45.0677C2825.77 49.8743 2824.23 54.3777 2821.15 58.5777C2818.12 62.7777 2813.87 66.721 2808.41 70.4077V70.5477H2818.63C2821.29 70.5477 2823.14 70.221 2824.16 69.5677C2825.19 68.9144 2825.8 68.0744 2825.98 67.0477ZM2864.88 62.1477H2869.78V70.8977H2866.84C2865.53 70.8977 2864.88 71.7144 2864.88 73.3477C2864.88 74.4677 2864.88 75.5644 2864.88 76.6377C2864.92 77.6644 2864.97 78.7844 2865.02 79.9977H2853.96C2854.05 78.4577 2854.12 76.9644 2854.17 75.5177C2854.21 74.0244 2854.26 72.4844 2854.31 70.8977H2832.19V69.2877C2833.4 68.121 2834.5 66.9077 2835.48 65.6477L2858.37 37.0177C2858.88 36.3643 2859.35 35.7343 2859.77 35.1277C2860.23 34.4743 2860.61 33.9143 2860.89 33.4477H2864.95L2864.88 62.1477ZM2854.17 47.5177L2842.48 62.1477H2854.38V47.5177H2854.17ZM2927.21 33.4477V46.3977H2925.6C2925.36 44.3443 2924.94 42.5943 2924.34 41.1477C2923.78 39.6543 2922.89 38.511 2921.68 37.7177C2920.51 36.8777 2918.88 36.4577 2916.78 36.4577H2913.49C2912.51 36.4577 2911.74 36.7143 2911.18 37.2277C2910.66 37.741 2910.41 38.8143 2910.41 40.4477V72.9977C2910.41 75.2844 2910.76 76.731 2911.46 77.3377C2912.16 77.9444 2913.44 78.2944 2915.31 78.3877V79.9977H2895.36V78.3877C2896.71 78.2944 2897.69 77.9444 2898.3 77.3377C2898.9 76.731 2899.21 75.2844 2899.21 72.9977V40.4477C2899.21 38.161 2898.86 36.7143 2898.16 36.1077C2897.5 35.4543 2896.22 35.1043 2894.31 35.0577V33.4477H2927.21ZM2955.25 32.3977C2958.56 32.3977 2961.64 32.9577 2964.49 34.0777C2967.34 35.1977 2969.86 36.831 2972.05 38.9777C2974.24 41.0777 2975.95 43.621 2977.16 46.6077C2978.37 49.5943 2978.98 52.931 2978.98 56.6177C2978.98 60.3044 2978.37 63.641 2977.16 66.6277C2975.95 69.6144 2974.24 72.181 2972.05 74.3277C2969.9 76.4744 2967.38 78.131 2964.49 79.2977C2961.6 80.4644 2958.49 81.0477 2955.18 81.0477C2951.91 81.0477 2948.83 80.4877 2945.94 79.3677C2943.09 78.2477 2940.57 76.6377 2938.38 74.5377C2936.19 72.391 2934.48 69.8244 2933.27 66.8377C2932.06 63.851 2931.45 60.5144 2931.45 56.8277C2931.45 53.141 2932.06 49.8043 2933.27 46.8177C2934.48 43.831 2936.16 41.2643 2938.31 39.1177C2940.5 36.971 2943.05 35.3143 2945.94 34.1477C2948.83 32.981 2951.94 32.3977 2955.25 32.3977ZM2956.65 78.0377C2959.08 78.0377 2960.99 77.2444 2962.39 75.6577C2963.79 74.0244 2964.79 71.7844 2965.4 68.9377C2966.05 66.091 2966.38 62.7777 2966.38 58.9977C2966.38 51.391 2965.21 45.5577 2962.88 41.4977C2960.59 37.4377 2957.56 35.4077 2953.78 35.4077C2951.4 35.4077 2949.49 36.201 2948.04 37.7877C2946.64 39.3743 2945.61 41.6143 2944.96 44.5077C2944.35 47.3544 2944.05 50.6677 2944.05 54.4477C2944.05 62.0544 2945.19 67.8877 2947.48 71.9477C2949.81 76.0077 2952.87 78.0377 2956.65 78.0377ZM3009.34 38.9777L3020.96 72.9977C3021.38 74.211 3021.98 75.331 3022.78 76.3577C3023.62 77.3377 3024.9 78.0144 3026.63 78.3877L3023.41 94.3477H3021.8C3021.7 91.4544 3021.28 88.9344 3020.54 86.7877C3019.79 84.641 3018.86 82.961 3017.74 81.7477C3016.62 80.581 3015.4 79.9977 3014.1 79.9977H2995.34C2993.61 79.9977 2991.91 80.581 2990.23 81.7477C2988.59 82.961 2987.19 84.641 2986.03 86.7877C2984.91 88.9344 2984.18 91.4544 2983.86 94.3477H2982.25V78.3877C2983.09 78.0144 2983.9 77.3844 2984.7 76.4977C2985.49 75.5644 2986.21 74.5144 2986.87 73.3477C2987.57 72.181 2988.1 71.0844 2988.48 70.0577L3000.38 38.9777C3000.84 37.7643 3001.29 36.5743 3001.71 35.4077C3002.13 34.241 3002.5 33.051 3002.83 31.8377H3006.89C3007.21 33.051 3007.59 34.241 3008.01 35.4077C3008.47 36.5743 3008.92 37.7643 3009.34 38.9777ZM3006.4 76.9877C3008.26 76.9877 3009.29 76.6844 3009.48 76.0777C3009.66 75.471 3009.5 74.4444 3008.99 72.9977L3000.8 47.7977H3000.66L2989.74 76.9877H3006.4ZM3069.46 72.9977C3070.12 74.5844 3070.65 75.751 3071.07 76.4977C3071.54 77.2444 3072.03 77.7344 3072.54 77.9677C3073.06 78.1544 3073.69 78.2944 3074.43 78.3877V79.9977H3054.9V78.3877C3056.77 78.2944 3057.8 77.7344 3057.98 76.7077C3058.22 75.681 3058.05 74.4444 3057.49 72.9977L3053.99 63.8977C3053.71 64.131 3053.34 64.2944 3052.87 64.3877C3052.45 64.4344 3051.99 64.4577 3051.47 64.4577H3043.56C3042.58 64.4577 3041.84 64.5744 3041.32 64.8077C3040.81 65.041 3040.37 65.6244 3039.99 66.5577L3037.47 72.9977C3036.87 74.5377 3036.91 75.7977 3037.61 76.7777C3038.31 77.7577 3039.69 78.2944 3041.74 78.3877V79.9977H3029V78.3877C3030.03 78.2944 3030.89 77.781 3031.59 76.8477C3032.34 75.8677 3033.02 74.5844 3033.62 72.9977L3047.06 38.9777C3047.58 37.7643 3048.02 36.5743 3048.39 35.4077C3048.81 34.241 3049.19 33.051 3049.51 31.8377H3053.57C3053.9 33.051 3054.27 34.241 3054.69 35.4077C3055.11 36.5743 3055.56 37.7643 3056.02 38.9777L3069.46 72.9977ZM3051.12 61.4477C3051.78 61.4477 3052.2 61.3544 3052.38 61.1677C3052.62 60.9344 3052.59 60.4677 3052.31 59.7677L3047.48 47.7977H3047.34L3041.88 61.7277C3042.12 61.5877 3042.4 61.5177 3042.72 61.5177C3043.05 61.471 3043.42 61.4477 3043.84 61.4477H3051.12Z" fill="black"/>
<defs>
<linearGradient id="paint0_linear_614_2619" x1="0" y1="57" x2="3115.8" y2="57" gradientUnits="userSpaceOnUse">
<stop stop-color="white"/>
<stop offset="0.325" stop-color="#D4D4D4"/>
<stop offset="0.685" stop-color="white"/>
<stop offset="0.98" stop-color="#D4D4D4"/>
</linearGradient>
</defs>
</svg>
