<svg width="1647" height="60" viewBox="0 0 1647 60" fill="none" xmlns="http://www.w3.org/2000/svg">
<rect width="1645.89" height="60.0047" transform="translate(0.976562)" fill="#272729"/>
<path d="M39.9033 35.1667H40.7532L40.3837 42.0023H22.5741V41.1525C22.7712 41.054 23.0667 40.8815 23.4609 40.6352C23.8796 40.3889 24.3107 40.1056 24.7541 39.7854C25.9857 38.8986 27.1435 37.8886 28.2273 36.7555C29.3112 35.6224 30.2596 34.4154 31.0724 33.1345C31.8853 31.8536 32.5258 30.5727 32.9938 29.2917C33.4618 28.0108 33.6958 26.7915 33.6958 25.6338C33.6958 24.5253 33.4249 23.5892 32.883 22.8256C32.3657 22.062 31.4173 21.6802 30.0379 21.6802C28.8801 21.6802 27.8086 22.0004 26.8233 22.6409C25.838 23.2813 24.865 24.2789 23.9043 25.6338L23.2022 25.0426C24.2122 22.4807 25.4808 20.5717 27.008 19.3154C28.5353 18.0591 30.4443 17.431 32.7352 17.431C34.0653 17.431 35.26 17.6527 36.3193 18.0961C37.3785 18.5148 38.216 19.1799 38.8318 20.0914C39.4723 20.9781 39.7925 22.1359 39.7925 23.5646C39.7925 26.1018 38.9796 28.4789 37.3538 30.6958C35.7527 32.9128 33.5111 34.9943 30.6291 36.9403V37.0142H36.0237C37.4277 37.0142 38.4007 36.8417 38.9427 36.4969C39.4846 36.152 39.8048 35.7086 39.9033 35.1667ZM55.6296 17.431C56.9105 17.431 58.1668 17.6773 59.3985 18.17C60.6301 18.6626 61.7386 19.4263 62.7239 20.4608C63.7092 21.4954 64.4852 22.801 65.0517 24.3775C65.6429 25.9294 65.9385 27.7768 65.9385 29.9199C65.9385 32.0383 65.6552 33.8858 65.0887 35.4623C64.5221 37.0388 63.7462 38.3567 62.7608 39.4159C61.7755 40.4751 60.6671 41.2633 59.4354 41.7806C58.2038 42.2979 56.9228 42.5566 55.5927 42.5566C54.3118 42.5566 53.0555 42.3102 51.8238 41.8176C50.5922 41.3249 49.4837 40.5613 48.4984 39.5267C47.5131 38.4921 46.7248 37.1989 46.1336 35.647C45.5671 34.0705 45.2838 32.2107 45.2838 30.0677C45.2838 27.9493 45.5671 26.1018 46.1336 24.5253C46.7002 22.9488 47.4761 21.6309 48.4614 20.5717C49.4468 19.5125 50.5552 18.7242 51.7869 18.2069C53.0185 17.6896 54.2994 17.431 55.6296 17.431ZM55.7405 40.9677C56.4548 40.9677 57.1076 40.6475 57.6988 40.0071C58.29 39.3666 58.758 38.2828 59.1029 36.7555C59.4724 35.2283 59.6571 33.1345 59.6571 30.4741C59.6571 28.1586 59.497 26.151 59.1768 24.4514C58.8812 22.7271 58.4255 21.3969 57.8096 20.4608C57.1938 19.5002 56.4179 19.0198 55.4818 19.0198C54.7921 19.0198 54.1393 19.3401 53.5235 19.9805C52.9323 20.621 52.452 21.7048 52.0825 23.232C51.7376 24.7593 51.5652 26.8531 51.5652 29.5134C51.5652 31.8289 51.713 33.8488 52.0086 35.5731C52.3288 37.2728 52.7968 38.603 53.4127 39.5637C54.0285 40.4997 54.8044 40.9677 55.7405 40.9677ZM91.0179 30.8436L79.5636 31.8413L79.3049 28.8484L90.7592 27.8507L91.0179 30.8436ZM119.611 35.1667H120.461L120.092 42.0023H102.282V41.1525C102.479 41.054 102.775 40.8815 103.169 40.6352C103.588 40.3889 104.019 40.1056 104.462 39.7854C105.694 38.8986 106.852 37.8886 107.935 36.7555C109.019 35.6224 109.968 34.4154 110.781 33.1345C111.593 31.8536 112.234 30.5727 112.702 29.2917C113.17 28.0108 113.404 26.7915 113.404 25.6338C113.404 24.5253 113.133 23.5892 112.591 22.8256C112.074 22.062 111.125 21.6802 109.746 21.6802C108.588 21.6802 107.517 22.0004 106.531 22.6409C105.546 23.2813 104.573 24.2789 103.612 25.6338L102.91 25.0426C103.92 22.4807 105.189 20.5717 106.716 19.3154C108.243 18.0591 110.152 17.431 112.443 17.431C113.773 17.431 114.968 17.6527 116.027 18.0961C117.087 18.5148 117.924 19.1799 118.54 20.0914C119.18 20.9781 119.501 22.1359 119.501 23.5646C119.501 26.1018 118.688 28.4789 117.062 30.6958C115.461 32.9128 113.219 34.9943 110.337 36.9403V37.0142H115.732C117.136 37.0142 118.109 36.8417 118.651 36.4969C119.193 36.152 119.513 35.7086 119.611 35.1667ZM134.71 37.9379C134.71 38.8493 134.784 39.539 134.931 40.0071C135.104 40.4505 135.449 40.746 135.966 40.8938C136.508 41.0416 137.321 41.1279 138.405 41.1525V42.0023H124.733V41.1525C125.842 41.1279 126.655 41.0416 127.172 40.8938C127.714 40.746 128.059 40.4505 128.207 40.0071C128.354 39.539 128.428 38.8493 128.428 37.9379V21.8649L125.029 23.971L124.253 22.7887L132.825 17.431H134.968C134.87 17.899 134.796 18.3671 134.747 18.8351C134.722 19.3031 134.71 19.7711 134.71 20.2392V37.9379ZM151.611 42.0023V41.1525C152.325 41.1032 152.843 40.9185 153.163 40.5982C153.483 40.278 153.643 39.5144 153.643 38.3074V21.1259C153.643 19.9189 153.459 19.1553 153.089 18.8351C152.744 18.4902 152.067 18.3055 151.057 18.2808V17.431H161.587V18.2808C160.873 18.3055 160.356 18.4902 160.036 18.8351C159.715 19.1553 159.555 19.9189 159.555 21.1259V27.666C159.752 27.5182 159.986 27.4196 160.257 27.3704C160.553 27.3211 160.898 27.2965 161.292 27.2965H168.275C168.94 27.2965 169.408 27.1856 169.679 26.9639C169.95 26.7422 170.086 26.2988 170.086 25.6338V21.1259C170.086 19.9189 169.901 19.1553 169.531 18.8351C169.187 18.4902 168.509 18.3055 167.499 18.2808V17.431H178.03V18.2808C177.315 18.3055 176.798 18.4902 176.478 18.8351C176.158 19.1553 175.998 19.9189 175.998 21.1259V38.3074C175.998 39.5144 176.182 40.278 176.552 40.5982C176.921 40.9185 177.599 41.1032 178.584 41.1525V42.0023H168.054V41.1525C168.768 41.1032 169.285 40.9185 169.605 40.5982C169.926 40.278 170.086 39.5144 170.086 38.3074V28.4789C169.889 28.6513 169.642 28.7621 169.347 28.8114C169.051 28.8607 168.719 28.8853 168.349 28.8853H161.366C160.701 28.8853 160.233 28.9961 159.962 29.2178C159.691 29.4395 159.555 29.8706 159.555 30.5111V38.3074C159.555 39.5144 159.74 40.278 160.109 40.5982C160.479 40.9185 161.156 41.1032 162.142 41.1525V42.0023H151.611ZM194.881 16.8768C196.63 16.8768 198.255 17.1724 199.758 17.7635C201.261 18.3547 202.591 19.2169 203.749 20.35C204.906 21.4585 205.805 22.801 206.446 24.3775C207.086 25.954 207.407 27.7152 207.407 29.6612C207.407 31.6072 207.086 33.3685 206.446 34.945C205.805 36.5215 204.906 37.8763 203.749 39.0094C202.616 40.1425 201.285 41.017 199.758 41.6328C198.231 42.2487 196.593 42.5566 194.844 42.5566C193.12 42.5566 191.494 42.261 189.967 41.6698C188.464 41.0786 187.134 40.2288 185.976 39.1203C184.818 37.9872 183.919 36.6323 183.279 35.0558C182.638 33.4793 182.318 31.7181 182.318 29.7721C182.318 27.8261 182.638 26.0648 183.279 24.4883C183.919 22.9118 184.806 21.557 185.939 20.4239C187.097 19.2908 188.439 18.4163 189.967 17.8005C191.494 17.1847 193.132 16.8768 194.881 16.8768ZM195.62 40.9677C196.901 40.9677 197.911 40.549 198.65 39.7115C199.389 38.8493 199.918 37.6669 200.238 36.1643C200.583 34.6617 200.756 32.9128 200.756 30.9175C200.756 26.9024 200.14 23.8232 198.908 21.6802C197.701 19.5371 196.1 18.4656 194.105 18.4656C192.849 18.4656 191.839 18.8843 191.075 19.7219C190.336 20.5594 189.794 21.7418 189.449 23.269C189.129 24.7716 188.969 26.5205 188.969 28.5158C188.969 32.531 189.572 35.6101 190.779 37.7531C192.011 39.8962 193.624 40.9677 195.62 40.9677ZM211.606 42.5566C210.99 42.5566 210.337 42.5073 209.648 42.4088C208.958 42.3102 208.367 42.1748 207.874 42.0023V41.1525C208.367 41.1525 208.921 40.9554 209.537 40.5613C210.153 40.1672 210.781 39.3789 211.421 38.1965L216.705 28.6267C215.054 28.2079 213.798 27.5305 212.936 26.5944C212.099 25.6584 211.68 24.5253 211.68 23.1951C211.68 22.1605 211.988 21.1875 212.603 20.2761C213.244 19.3647 214.279 18.638 215.707 18.0961C217.161 17.5295 219.107 17.2463 221.545 17.2463C222.333 17.2463 223.245 17.2832 224.279 17.3571C225.314 17.4064 226.459 17.431 227.716 17.431H232.445V18.2808C231.731 18.3055 231.214 18.4902 230.893 18.8351C230.573 19.1553 230.413 19.9189 230.413 21.1259V38.3074C230.413 39.5144 230.598 40.278 230.967 40.5982C231.337 40.9185 232.014 41.1032 233 41.1525V42.0023H222.469V41.1525C223.183 41.1032 223.701 40.9185 224.021 40.5982C224.341 40.278 224.501 39.5144 224.501 38.3074V21.1259C224.501 20.1653 224.329 19.5494 223.984 19.2785C223.664 18.9829 223.097 18.8351 222.284 18.8351C221.225 18.8351 220.264 19.2169 219.402 19.9805C218.565 20.7195 218.146 21.8403 218.146 23.3429C218.146 24.1312 218.306 24.8948 218.626 25.6338C218.946 26.3481 219.513 26.9516 220.326 27.4443C221.163 27.9369 222.309 28.2325 223.762 28.3311V29.6243C223.467 29.6243 223.208 29.6859 222.986 29.809C222.765 29.9076 222.543 30.1662 222.321 30.585L218.146 38.6399C217.579 39.7238 216.791 40.6475 215.781 41.4111C214.771 42.1748 213.379 42.5566 211.606 42.5566ZM244.676 27.2226H248.26C250.945 27.2226 253.063 27.5182 254.615 28.1094C256.167 28.7006 257.263 29.5134 257.904 30.548C258.569 31.5826 258.901 32.7773 258.901 34.1321C258.901 35.4869 258.532 36.7678 257.793 37.9748C257.078 39.1572 255.958 40.1302 254.43 40.8938C252.928 41.6328 251.006 42.0023 248.666 42.0023H236.732V41.1525C237.446 41.1032 237.963 40.9185 238.284 40.5982C238.604 40.278 238.764 39.5144 238.764 38.3074V21.1259C238.764 19.9189 238.579 19.1553 238.21 18.8351C237.865 18.4902 237.187 18.3055 236.177 18.2808V17.431H256.5V23.5276H255.65C255.576 22.6901 255.416 21.9388 255.169 21.2737C254.923 20.584 254.504 20.0421 253.913 19.648C253.322 19.2292 252.472 19.0198 251.364 19.0198H246.302C245.784 19.0198 245.378 19.1553 245.082 19.4263C244.811 19.6972 244.676 20.2638 244.676 21.1259V27.2226ZM246.856 40.4135C248.161 40.4135 249.233 40.1056 250.07 39.4898C250.933 38.8493 251.573 38.0611 251.992 37.125C252.411 36.189 252.62 35.2652 252.62 34.3538C252.62 32.999 252.361 31.9151 251.844 31.1023C251.351 30.2894 250.674 29.7105 249.812 29.3656C248.974 28.9961 248.026 28.8114 246.967 28.8114H244.676V38.3074C244.676 39.1695 244.811 39.7361 245.082 40.0071C245.353 40.278 245.944 40.4135 246.856 40.4135ZM262.82 42.0023V41.1525C263.534 41.1032 264.052 40.9185 264.372 40.5982C264.692 40.278 264.852 39.5144 264.852 38.3074V21.1259C264.852 19.9189 264.667 19.1553 264.298 18.8351C263.953 18.4902 263.276 18.3055 262.266 18.2808V17.431H264.852C266.65 17.431 268.338 17.4064 269.914 17.3571C271.491 17.2832 272.673 17.2463 273.461 17.2463C276.023 17.2463 278.043 17.5295 279.521 18.0961C281.024 18.6626 282.095 19.4139 282.736 20.35C283.401 21.2614 283.733 22.2714 283.733 23.3798C283.733 24.6608 283.315 25.8801 282.477 27.0378C281.664 28.1956 280.359 29.0947 278.56 29.7351C276.787 30.351 274.434 30.548 271.503 30.3263V29.0331C272.833 29.0824 273.929 28.8484 274.792 28.3311C275.654 27.7891 276.282 27.0748 276.676 26.188C277.095 25.3012 277.304 24.3528 277.304 23.3429C277.304 21.9881 276.922 20.9042 276.159 20.0914C275.395 19.2538 274.336 18.8351 272.981 18.8351C272.168 18.8351 271.589 18.9829 271.244 19.2785C270.924 19.5494 270.764 20.1653 270.764 21.1259V38.3074C270.764 39.0956 270.838 39.6991 270.986 40.1179C271.158 40.512 271.454 40.783 271.873 40.9308C272.316 41.054 272.932 41.1279 273.72 41.1525V42.0023H262.82ZM287.633 42.5566C287.018 42.5566 286.365 42.5073 285.675 42.4088C284.985 42.3102 284.394 42.1748 283.902 42.0023V41.1525C284.394 41.1525 284.948 40.9554 285.564 40.5613C286.18 40.1672 286.808 39.3789 287.449 38.1965L292.732 28.6267C291.082 28.2079 289.826 27.5305 288.964 26.5944C288.126 25.6584 287.707 24.5253 287.707 23.1951C287.707 22.1605 288.015 21.1875 288.631 20.2761C289.272 19.3647 290.306 18.638 291.735 18.0961C293.188 17.5295 295.134 17.2463 297.573 17.2463C298.361 17.2463 299.273 17.2832 300.307 17.3571C301.342 17.4064 302.487 17.431 303.743 17.431H308.473V18.2808C307.759 18.3055 307.241 18.4902 306.921 18.8351C306.601 19.1553 306.441 19.9189 306.441 21.1259V38.3074C306.441 39.5144 306.625 40.278 306.995 40.5982C307.364 40.9185 308.042 41.1032 309.027 41.1525V42.0023H298.497V41.1525C299.211 41.1032 299.728 40.9185 300.048 40.5982C300.369 40.278 300.529 39.5144 300.529 38.3074V21.1259C300.529 20.1653 300.356 19.5494 300.012 19.2785C299.691 18.9829 299.125 18.8351 298.312 18.8351C297.253 18.8351 296.292 19.2169 295.43 19.9805C294.592 20.7195 294.174 21.8403 294.174 23.3429C294.174 24.1312 294.334 24.8948 294.654 25.6338C294.974 26.3481 295.541 26.9516 296.354 27.4443C297.191 27.9369 298.336 28.2325 299.79 28.3311V29.6243C299.494 29.6243 299.236 29.6859 299.014 29.809C298.792 29.9076 298.57 30.1662 298.349 30.585L294.174 38.6399C293.607 39.7238 292.819 40.6475 291.809 41.4111C290.799 42.1748 289.407 42.5566 287.633 42.5566ZM338.385 35.1667H339.235L338.865 42.0023H321.056V41.1525C321.253 41.054 321.548 40.8815 321.942 40.6352C322.361 40.3889 322.792 40.1056 323.236 39.7854C324.467 38.8986 325.625 37.8886 326.709 36.7555C327.793 35.6224 328.741 34.4154 329.554 33.1345C330.367 31.8536 331.007 30.5727 331.475 29.2917C331.943 28.0108 332.177 26.7915 332.177 25.6338C332.177 24.5253 331.906 23.5892 331.364 22.8256C330.847 22.062 329.899 21.6802 328.519 21.6802C327.362 21.6802 326.29 22.0004 325.305 22.6409C324.319 23.2813 323.346 24.2789 322.386 25.6338L321.684 25.0426C322.694 22.4807 323.962 20.5717 325.49 19.3154C327.017 18.0591 328.926 17.431 331.217 17.431C332.547 17.431 333.742 17.6527 334.801 18.0961C335.86 18.5148 336.697 19.1799 337.313 20.0914C337.954 20.9781 338.274 22.1359 338.274 23.5646C338.274 26.1018 337.461 28.4789 335.835 30.6958C334.234 32.9128 331.993 34.9943 329.111 36.9403V37.0142H334.505C335.909 37.0142 336.882 36.8417 337.424 36.4969C337.966 36.152 338.286 35.7086 338.385 35.1667ZM354.111 17.431C355.392 17.431 356.648 17.6773 357.88 18.17C359.112 18.6626 360.22 19.4263 361.205 20.4608C362.191 21.4954 362.967 22.801 363.533 24.3775C364.124 25.9294 364.42 27.7768 364.42 29.9199C364.42 32.0383 364.137 33.8858 363.57 35.4623C363.004 37.0388 362.228 38.3567 361.242 39.4159C360.257 40.4751 359.149 41.2633 357.917 41.7806C356.685 42.2979 355.404 42.5566 354.074 42.5566C352.793 42.5566 351.537 42.3102 350.305 41.8176C349.074 41.3249 347.965 40.5613 346.98 39.5267C345.995 38.4921 345.206 37.1989 344.615 35.647C344.049 34.0705 343.765 32.2107 343.765 30.0677C343.765 27.9493 344.049 26.1018 344.615 24.5253C345.182 22.9488 345.958 21.6309 346.943 20.5717C347.928 19.5125 349.037 18.7242 350.268 18.2069C351.5 17.6896 352.781 17.431 354.111 17.431ZM354.222 40.9677C354.936 40.9677 355.589 40.6475 356.18 40.0071C356.771 39.3666 357.24 38.2828 357.584 36.7555C357.954 35.2283 358.139 33.1345 358.139 30.4741C358.139 28.1586 357.979 26.151 357.658 24.4514C357.363 22.7271 356.907 21.3969 356.291 20.4608C355.675 19.5002 354.899 19.0198 353.963 19.0198C353.274 19.0198 352.621 19.3401 352.005 19.9805C351.414 20.621 350.934 21.7048 350.564 23.232C350.219 24.7593 350.047 26.8531 350.047 29.5134C350.047 31.8289 350.195 33.8488 350.49 35.5731C350.81 37.2728 351.278 38.603 351.894 39.5637C352.51 40.4997 353.286 40.9677 354.222 40.9677ZM384.824 35.1667H385.674L385.305 42.0023H367.495V41.1525C367.692 41.054 367.988 40.8815 368.382 40.6352C368.8 40.3889 369.232 40.1056 369.675 39.7854C370.907 38.8986 372.064 37.8886 373.148 36.7555C374.232 35.6224 375.18 34.4154 375.993 33.1345C376.806 31.8536 377.447 30.5727 377.915 29.2917C378.383 28.0108 378.617 26.7915 378.617 25.6338C378.617 24.5253 378.346 23.5892 377.804 22.8256C377.286 22.062 376.338 21.6802 374.959 21.6802C373.801 21.6802 372.729 22.0004 371.744 22.6409C370.759 23.2813 369.786 24.2789 368.825 25.6338L368.123 25.0426C369.133 22.4807 370.402 20.5717 371.929 19.3154C373.456 18.0591 375.365 17.431 377.656 17.431C378.986 17.431 380.181 17.6527 381.24 18.0961C382.299 18.5148 383.137 19.1799 383.753 20.0914C384.393 20.9781 384.713 22.1359 384.713 23.5646C384.713 26.1018 383.9 28.4789 382.275 30.6958C380.674 32.9128 378.432 34.9943 375.55 36.9403V37.0142H380.944C382.349 37.0142 383.322 36.8417 383.863 36.4969C384.405 36.152 384.726 35.7086 384.824 35.1667ZM405.354 32.5802L407.94 32.5802V37.1989H406.388C405.699 37.1989 405.354 37.63 405.354 38.4921C405.354 39.0833 405.354 39.6622 405.354 40.2288C405.378 40.7707 405.403 41.3619 405.428 42.0023H399.59C399.639 41.1894 399.676 40.4012 399.701 39.6376C399.725 38.8493 399.75 38.0364 399.774 37.1989H388.098V36.3491C388.739 35.7332 389.318 35.0928 389.835 34.4277L401.918 19.3154C402.189 18.9706 402.435 18.638 402.657 18.3178C402.903 17.9729 403.1 17.6773 403.248 17.431H405.391L405.354 32.5802ZM399.701 24.8578L393.53 32.5802H399.811V24.8578H399.701ZM438.254 17.431V24.2666H437.405C437.281 23.1828 437.06 22.259 436.739 21.4954C436.444 20.7072 435.976 20.1037 435.335 19.6849C434.72 19.2415 433.857 19.0198 432.749 19.0198H431.012C430.495 19.0198 430.089 19.1553 429.793 19.4263C429.522 19.6972 429.387 20.2638 429.387 21.1259V38.3074C429.387 39.5144 429.571 40.278 429.941 40.5982C430.31 40.9185 430.988 41.1032 431.973 41.1525V42.0023H421.442V41.1525C422.157 41.1032 422.674 40.9185 422.994 40.5982C423.314 40.278 423.475 39.5144 423.475 38.3074V21.1259C423.475 19.9189 423.29 19.1553 422.92 18.8351C422.576 18.4902 421.898 18.3055 420.888 18.2808V17.431H438.254ZM453.057 16.8768C454.806 16.8768 456.432 17.1724 457.934 17.7635C459.437 18.3547 460.767 19.2169 461.925 20.35C463.083 21.4585 463.982 22.801 464.622 24.3775C465.263 25.954 465.583 27.7152 465.583 29.6612C465.583 31.6072 465.263 33.3685 464.622 34.945C463.982 36.5215 463.083 37.8763 461.925 39.0094C460.792 40.1425 459.462 41.017 457.934 41.6328C456.407 42.2487 454.769 42.5566 453.02 42.5566C451.296 42.5566 449.67 42.261 448.143 41.6698C446.64 41.0786 445.31 40.2288 444.152 39.1203C442.995 37.9872 442.096 36.6323 441.455 35.0558C440.815 33.4793 440.494 31.7181 440.494 29.7721C440.494 27.8261 440.815 26.0648 441.455 24.4883C442.096 22.9118 442.982 21.557 444.115 20.4239C445.273 19.2908 446.616 18.4163 448.143 17.8005C449.67 17.1847 451.308 16.8768 453.057 16.8768ZM453.796 40.9677C455.077 40.9677 456.087 40.549 456.826 39.7115C457.565 38.8493 458.095 37.6669 458.415 36.1643C458.76 34.6617 458.932 32.9128 458.932 30.9175C458.932 26.9024 458.316 23.8232 457.085 21.6802C455.878 19.5371 454.277 18.4656 452.281 18.4656C451.025 18.4656 450.015 18.8843 449.251 19.7219C448.512 20.5594 447.97 21.7418 447.626 23.269C447.305 24.7716 447.145 26.5205 447.145 28.5158C447.145 32.531 447.749 35.6101 448.956 37.7531C450.187 39.8962 451.801 40.9677 453.796 40.9677ZM481.606 20.35L487.74 38.3074C487.961 38.9478 488.282 39.539 488.7 40.081C489.144 40.5982 489.821 40.9554 490.733 41.1525L489.033 49.5769H488.183C488.134 48.0497 487.912 46.7195 487.518 45.5864C487.124 44.4533 486.631 43.5665 486.04 42.9261C485.449 42.3102 484.808 42.0023 484.119 42.0023H474.216C473.305 42.0023 472.406 42.3102 471.519 42.9261C470.657 43.5665 469.918 44.4533 469.302 45.5864C468.711 46.7195 468.329 48.0497 468.156 49.5769H467.307V41.1525C467.75 40.9554 468.181 40.6229 468.6 40.1549C469.019 39.6622 469.4 39.108 469.745 38.4921C470.115 37.8763 470.398 37.2974 470.595 36.7555L476.877 20.35C477.123 19.7095 477.357 19.0814 477.579 18.4656C477.8 17.8498 477.997 17.2216 478.17 16.5812H480.313C480.485 17.2216 480.682 17.8498 480.904 18.4656C481.15 19.0814 481.384 19.7095 481.606 20.35ZM480.054 40.4135C481.039 40.4135 481.581 40.2534 481.68 39.9332C481.778 39.6129 481.692 39.071 481.421 38.3074L477.098 25.0056H477.024L471.26 40.4135H480.054ZM513.344 38.3074C513.689 39.1449 513.973 39.7607 514.194 40.1549C514.441 40.549 514.699 40.8076 514.97 40.9308C515.241 41.0293 515.574 41.1032 515.968 41.1525V42.0023H505.659V41.1525C506.644 41.1032 507.186 40.8076 507.285 40.2657C507.408 39.7238 507.322 39.071 507.026 38.3074L505.179 33.504C505.031 33.6271 504.834 33.7134 504.587 33.7626C504.366 33.7872 504.119 33.7996 503.848 33.7996H499.673C499.156 33.7996 498.762 33.8611 498.491 33.9843C498.22 34.1075 497.986 34.4154 497.789 34.908L496.459 38.3074C496.138 39.1203 496.163 39.7854 496.532 40.3027C496.902 40.8199 497.629 41.1032 498.712 41.1525V42.0023H491.988V41.1525C492.53 41.1032 492.985 40.8323 493.355 40.3396C493.749 39.8223 494.106 39.1449 494.426 38.3074L501.521 20.35C501.792 19.7095 502.026 19.0814 502.223 18.4656C502.444 17.8498 502.641 17.2216 502.814 16.5812H504.957C505.129 17.2216 505.326 17.8498 505.548 18.4656C505.77 19.0814 506.004 19.7095 506.25 20.35L513.344 38.3074ZM503.664 32.2107C504.009 32.2107 504.23 32.1615 504.329 32.0629C504.452 31.9398 504.44 31.6935 504.292 31.324L501.742 25.0056H501.668L498.786 32.3585C498.91 32.2846 499.057 32.2477 499.23 32.2477C499.402 32.2231 499.599 32.2107 499.821 32.2107H503.664Z" fill="white"/>
<path d="M553.724 25.7899C550.041 24.3191 545.719 25.1035 542.772 28.0452C538.795 32.0164 538.795 38.439 542.772 42.4103C545.719 45.3519 550.041 46.1364 553.724 44.6655V39.9589C552.987 40.3021 552.201 40.4982 551.366 40.4982C548.42 40.4982 546.063 38.1449 546.063 35.2032C546.063 32.2615 548.42 29.9082 551.366 29.9082C552.201 29.9082 553.036 30.1043 553.724 30.4475V25.7899Z" fill="white"/>
<path d="M552.061 21.0732C553.512 19.6188 553.512 17.2115 552.061 15.707C550.611 14.2525 548.209 14.2525 546.708 15.707C545.208 17.1614 545.258 19.5687 546.708 21.0732C548.209 22.5276 550.611 22.5276 552.061 21.0732Z" fill="white"/>
<path d="M594.231 35.1667H595.081L594.712 42.0023H576.902V41.1525C577.099 41.054 577.395 40.8815 577.789 40.6352C578.208 40.3889 578.639 40.1056 579.082 39.7854C580.314 38.8986 581.472 37.8886 582.555 36.7555C583.639 35.6224 584.588 34.4154 585.401 33.1345C586.213 31.8536 586.854 30.5727 587.322 29.2917C587.79 28.0108 588.024 26.7915 588.024 25.6338C588.024 24.5253 587.753 23.5892 587.211 22.8256C586.694 22.062 585.745 21.6802 584.366 21.6802C583.208 21.6802 582.137 22.0004 581.151 22.6409C580.166 23.2813 579.193 24.2789 578.232 25.6338L577.53 25.0426C578.54 22.4807 579.809 20.5717 581.336 19.3154C582.863 18.0591 584.772 17.431 587.063 17.431C588.393 17.431 589.588 17.6527 590.647 18.0961C591.707 18.5148 592.544 19.1799 593.16 20.0914C593.8 20.9781 594.121 22.1359 594.121 23.5646C594.121 26.1018 593.308 28.4789 591.682 30.6958C590.081 32.9128 587.839 34.9943 584.957 36.9403V37.0142H590.352C591.756 37.0142 592.729 36.8417 593.271 36.4969C593.813 36.152 594.133 35.7086 594.231 35.1667ZM609.958 17.431C611.239 17.431 612.495 17.6773 613.727 18.17C614.958 18.6626 616.067 19.4263 617.052 20.4608C618.037 21.4954 618.813 22.801 619.38 24.3775C619.971 25.9294 620.267 27.7768 620.267 29.9199C620.267 32.0383 619.983 33.8858 619.417 35.4623C618.85 37.0388 618.074 38.3567 617.089 39.4159C616.104 40.4751 614.995 41.2633 613.764 41.7806C612.532 42.2979 611.251 42.5566 609.921 42.5566C608.64 42.5566 607.384 42.3102 606.152 41.8176C604.92 41.3249 603.812 40.5613 602.827 39.5267C601.841 38.4921 601.053 37.1989 600.462 35.647C599.895 34.0705 599.612 32.2107 599.612 30.0677C599.612 27.9493 599.895 26.1018 600.462 24.5253C601.028 22.9488 601.804 21.6309 602.79 20.5717C603.775 19.5125 604.883 18.7242 606.115 18.2069C607.347 17.6896 608.628 17.431 609.958 17.431ZM610.069 40.9677C610.783 40.9677 611.436 40.6475 612.027 40.0071C612.618 39.3666 613.086 38.2828 613.431 36.7555C613.8 35.2283 613.985 33.1345 613.985 30.4741C613.985 28.1586 613.825 26.151 613.505 24.4514C613.209 22.7271 612.754 21.3969 612.138 20.4608C611.522 19.5002 610.746 19.0198 609.81 19.0198C609.12 19.0198 608.467 19.3401 607.852 19.9805C607.26 20.621 606.78 21.7048 606.411 23.232C606.066 24.7593 605.893 26.8531 605.893 29.5134C605.893 31.8289 606.041 33.8488 606.337 35.5731C606.657 37.2728 607.125 38.603 607.741 39.5637C608.357 40.4997 609.133 40.9677 610.069 40.9677ZM645.346 30.8436L633.892 31.8413L633.633 28.8484L645.087 27.8507L645.346 30.8436ZM673.94 35.1667H674.789L674.42 42.0023H656.61V41.1525C656.807 41.054 657.103 40.8815 657.497 40.6352C657.916 40.3889 658.347 40.1056 658.79 39.7854C660.022 38.8986 661.18 37.8886 662.264 36.7555C663.347 35.6224 664.296 34.4154 665.109 33.1345C665.922 31.8536 666.562 30.5727 667.03 29.2917C667.498 28.0108 667.732 26.7915 667.732 25.6338C667.732 24.5253 667.461 23.5892 666.919 22.8256C666.402 22.062 665.454 21.6802 664.074 21.6802C662.916 21.6802 661.845 22.0004 660.86 22.6409C659.874 23.2813 658.901 24.2789 657.941 25.6338L657.238 25.0426C658.248 22.4807 659.517 20.5717 661.044 19.3154C662.572 18.0591 664.481 17.431 666.771 17.431C668.102 17.431 669.296 17.6527 670.356 18.0961C671.415 18.5148 672.252 19.1799 672.868 20.0914C673.509 20.9781 673.829 22.1359 673.829 23.5646C673.829 26.1018 673.016 28.4789 671.39 30.6958C669.789 32.9128 667.547 34.9943 664.665 36.9403V37.0142H670.06C671.464 37.0142 672.437 36.8417 672.979 36.4969C673.521 36.152 673.841 35.7086 673.94 35.1667ZM689.038 37.9379C689.038 38.8493 689.112 39.539 689.259 40.0071C689.432 40.4505 689.777 40.746 690.294 40.8938C690.836 41.0416 691.649 41.1279 692.733 41.1525V42.0023H679.061V41.1525C680.17 41.1279 680.983 41.0416 681.5 40.8938C682.042 40.746 682.387 40.4505 682.535 40.0071C682.682 39.539 682.756 38.8493 682.756 37.9379V21.8649L679.357 23.971L678.581 22.7887L687.153 17.431H689.296C689.198 17.899 689.124 18.3671 689.075 18.8351C689.05 19.3031 689.038 19.7711 689.038 20.2392V37.9379ZM705.939 42.0023V41.1525C706.654 41.1032 707.171 40.9185 707.491 40.5982C707.811 40.278 707.971 39.5144 707.971 38.3074V21.1259C707.971 19.9189 707.787 19.1553 707.417 18.8351C707.072 18.4902 706.395 18.3055 705.385 18.2808V17.431H715.916V18.2808C715.201 18.3055 714.684 18.4902 714.364 18.8351C714.043 19.1553 713.883 19.9189 713.883 21.1259V27.666C714.08 27.5182 714.314 27.4196 714.585 27.3704C714.881 27.3211 715.226 27.2965 715.62 27.2965H722.603C723.268 27.2965 723.736 27.1856 724.007 26.9639C724.278 26.7422 724.414 26.2988 724.414 25.6338V21.1259C724.414 19.9189 724.229 19.1553 723.86 18.8351C723.515 18.4902 722.837 18.3055 721.827 18.2808V17.431H732.358V18.2808C731.644 18.3055 731.126 18.4902 730.806 18.8351C730.486 19.1553 730.326 19.9189 730.326 21.1259V38.3074C730.326 39.5144 730.511 40.278 730.88 40.5982C731.249 40.9185 731.927 41.1032 732.912 41.1525V42.0023H722.382V41.1525C723.096 41.1032 723.613 40.9185 723.934 40.5982C724.254 40.278 724.414 39.5144 724.414 38.3074V28.4789C724.217 28.6513 723.97 28.7621 723.675 28.8114C723.379 28.8607 723.047 28.8853 722.677 28.8853H715.694C715.029 28.8853 714.561 28.9961 714.29 29.2178C714.019 29.4395 713.883 29.8706 713.883 30.5111V38.3074C713.883 39.5144 714.068 40.278 714.438 40.5982C714.807 40.9185 715.484 41.1032 716.47 41.1525V42.0023H705.939ZM749.209 16.8768C750.958 16.8768 752.584 17.1724 754.086 17.7635C755.589 18.3547 756.919 19.2169 758.077 20.35C759.234 21.4585 760.134 22.801 760.774 24.3775C761.415 25.954 761.735 27.7152 761.735 29.6612C761.735 31.6072 761.415 33.3685 760.774 34.945C760.134 36.5215 759.234 37.8763 758.077 39.0094C756.944 40.1425 755.613 41.017 754.086 41.6328C752.559 42.2487 750.921 42.5566 749.172 42.5566C747.448 42.5566 745.822 42.261 744.295 41.6698C742.792 41.0786 741.462 40.2288 740.304 39.1203C739.146 37.9872 738.247 36.6323 737.607 35.0558C736.966 33.4793 736.646 31.7181 736.646 29.7721C736.646 27.8261 736.966 26.0648 737.607 24.4883C738.247 22.9118 739.134 21.557 740.267 20.4239C741.425 19.2908 742.767 18.4163 744.295 17.8005C745.822 17.1847 747.46 16.8768 749.209 16.8768ZM749.948 40.9677C751.229 40.9677 752.239 40.549 752.978 39.7115C753.717 38.8493 754.246 37.6669 754.567 36.1643C754.911 34.6617 755.084 32.9128 755.084 30.9175C755.084 26.9024 754.468 23.8232 753.236 21.6802C752.029 19.5371 750.428 18.4656 748.433 18.4656C747.177 18.4656 746.167 18.8843 745.403 19.7219C744.664 20.5594 744.122 21.7418 743.777 23.269C743.457 24.7716 743.297 26.5205 743.297 28.5158C743.297 32.531 743.901 35.6101 745.108 37.7531C746.339 39.8962 747.953 40.9677 749.948 40.9677ZM765.934 42.5566C765.318 42.5566 764.665 42.5073 763.976 42.4088C763.286 42.3102 762.695 42.1748 762.202 42.0023V41.1525C762.695 41.1525 763.249 40.9554 763.865 40.5613C764.481 40.1672 765.109 39.3789 765.749 38.1965L771.033 28.6267C769.383 28.2079 768.126 27.5305 767.264 26.5944C766.427 25.6584 766.008 24.5253 766.008 23.1951C766.008 22.1605 766.316 21.1875 766.932 20.2761C767.572 19.3647 768.607 18.638 770.035 18.0961C771.489 17.5295 773.435 17.2463 775.873 17.2463C776.662 17.2463 777.573 17.2832 778.608 17.3571C779.642 17.4064 780.788 17.431 782.044 17.431H786.773V18.2808C786.059 18.3055 785.542 18.4902 785.222 18.8351C784.901 19.1553 784.741 19.9189 784.741 21.1259V38.3074C784.741 39.5144 784.926 40.278 785.295 40.5982C785.665 40.9185 786.342 41.1032 787.328 41.1525V42.0023H776.797V41.1525C777.511 41.1032 778.029 40.9185 778.349 40.5982C778.669 40.278 778.829 39.5144 778.829 38.3074V21.1259C778.829 20.1653 778.657 19.5494 778.312 19.2785C777.992 18.9829 777.425 18.8351 776.612 18.8351C775.553 18.8351 774.592 19.2169 773.73 19.9805C772.893 20.7195 772.474 21.8403 772.474 23.3429C772.474 24.1312 772.634 24.8948 772.954 25.6338C773.275 26.3481 773.841 26.9516 774.654 27.4443C775.492 27.9369 776.637 28.2325 778.09 28.3311V29.6243C777.795 29.6243 777.536 29.6859 777.314 29.809C777.093 29.9076 776.871 30.1662 776.649 30.585L772.474 38.6399C771.907 39.7238 771.119 40.6475 770.109 41.4111C769.099 42.1748 767.708 42.5566 765.934 42.5566ZM799.004 27.2226H802.588C805.273 27.2226 807.391 27.5182 808.943 28.1094C810.495 28.7006 811.591 29.5134 812.232 30.548C812.897 31.5826 813.229 32.7773 813.229 34.1321C813.229 35.4869 812.86 36.7678 812.121 37.9748C811.407 39.1572 810.286 40.1302 808.759 40.8938C807.256 41.6328 805.335 42.0023 802.994 42.0023H791.06V41.1525C791.774 41.1032 792.291 40.9185 792.612 40.5982C792.932 40.278 793.092 39.5144 793.092 38.3074V21.1259C793.092 19.9189 792.907 19.1553 792.538 18.8351C792.193 18.4902 791.516 18.3055 790.506 18.2808V17.431H810.828V23.5276H809.978C809.904 22.6901 809.744 21.9388 809.498 21.2737C809.251 20.584 808.832 20.0421 808.241 19.648C807.65 19.2292 806.8 19.0198 805.692 19.0198H800.63C800.112 19.0198 799.706 19.1553 799.41 19.4263C799.139 19.6972 799.004 20.2638 799.004 21.1259V27.2226ZM801.184 40.4135C802.489 40.4135 803.561 40.1056 804.399 39.4898C805.261 38.8493 805.901 38.0611 806.32 37.125C806.739 36.189 806.948 35.2652 806.948 34.3538C806.948 32.999 806.689 31.9151 806.172 31.1023C805.679 30.2894 805.002 29.7105 804.14 29.3656C803.302 28.9961 802.354 28.8114 801.295 28.8114H799.004V38.3074C799.004 39.1695 799.139 39.7361 799.41 40.0071C799.681 40.278 800.273 40.4135 801.184 40.4135ZM817.148 42.0023V41.1525C817.862 41.1032 818.38 40.9185 818.7 40.5982C819.02 40.278 819.18 39.5144 819.18 38.3074V21.1259C819.18 19.9189 818.996 19.1553 818.626 18.8351C818.281 18.4902 817.604 18.3055 816.594 18.2808V17.431H819.18C820.979 17.431 822.666 17.4064 824.242 17.3571C825.819 17.2832 827.001 17.2463 827.79 17.2463C830.351 17.2463 832.371 17.5295 833.849 18.0961C835.352 18.6626 836.423 19.4139 837.064 20.35C837.729 21.2614 838.061 22.2714 838.061 23.3798C838.061 24.6608 837.643 25.8801 836.805 27.0378C835.992 28.1956 834.687 29.0947 832.889 29.7351C831.115 30.351 828.763 30.548 825.831 30.3263V29.0331C827.161 29.0824 828.258 28.8484 829.12 28.3311C829.982 27.7891 830.61 27.0748 831.004 26.188C831.423 25.3012 831.632 24.3528 831.632 23.3429C831.632 21.9881 831.25 20.9042 830.487 20.0914C829.723 19.2538 828.664 18.8351 827.309 18.8351C826.496 18.8351 825.917 18.9829 825.573 19.2785C825.252 19.5494 825.092 20.1653 825.092 21.1259V38.3074C825.092 39.0956 825.166 39.6991 825.314 40.1179C825.486 40.512 825.782 40.783 826.201 40.9308C826.644 41.054 827.26 41.1279 828.048 41.1525V42.0023H817.148ZM841.962 42.5566C841.346 42.5566 840.693 42.5073 840.003 42.4088C839.314 42.3102 838.722 42.1748 838.23 42.0023V41.1525C838.722 41.1525 839.277 40.9554 839.892 40.5613C840.508 40.1672 841.136 39.3789 841.777 38.1965L847.061 28.6267C845.41 28.2079 844.154 27.5305 843.292 26.5944C842.454 25.6584 842.036 24.5253 842.036 23.1951C842.036 22.1605 842.343 21.1875 842.959 20.2761C843.6 19.3647 844.634 18.638 846.063 18.0961C847.516 17.5295 849.462 17.2463 851.901 17.2463C852.689 17.2463 853.601 17.2832 854.635 17.3571C855.67 17.4064 856.815 17.431 858.072 17.431H862.801V18.2808C862.087 18.3055 861.569 18.4902 861.249 18.8351C860.929 19.1553 860.769 19.9189 860.769 21.1259V38.3074C860.769 39.5144 860.954 40.278 861.323 40.5982C861.693 40.9185 862.37 41.1032 863.355 41.1525V42.0023H852.825V41.1525C853.539 41.1032 854.056 40.9185 854.377 40.5982C854.697 40.278 854.857 39.5144 854.857 38.3074V21.1259C854.857 20.1653 854.685 19.5494 854.34 19.2785C854.019 18.9829 853.453 18.8351 852.64 18.8351C851.581 18.8351 850.62 19.2169 849.758 19.9805C848.92 20.7195 848.502 21.8403 848.502 23.3429C848.502 24.1312 848.662 24.8948 848.982 25.6338C849.302 26.3481 849.869 26.9516 850.682 27.4443C851.519 27.9369 852.665 28.2325 854.118 28.3311V29.6243C853.822 29.6243 853.564 29.6859 853.342 29.809C853.12 29.9076 852.899 30.1662 852.677 30.585L848.502 38.6399C847.935 39.7238 847.147 40.6475 846.137 41.4111C845.127 42.1748 843.735 42.5566 841.962 42.5566ZM892.713 35.1667H893.563L893.193 42.0023H875.384V41.1525C875.581 41.054 875.876 40.8815 876.271 40.6352C876.689 40.3889 877.12 40.1056 877.564 39.7854C878.795 38.8986 879.953 37.8886 881.037 36.7555C882.121 35.6224 883.069 34.4154 883.882 33.1345C884.695 31.8536 885.335 30.5727 885.803 29.2917C886.271 28.0108 886.505 26.7915 886.505 25.6338C886.505 24.5253 886.235 23.5892 885.693 22.8256C885.175 22.062 884.227 21.6802 882.847 21.6802C881.69 21.6802 880.618 22.0004 879.633 22.6409C878.648 23.2813 877.675 24.2789 876.714 25.6338L876.012 25.0426C877.022 22.4807 878.29 20.5717 879.818 19.3154C881.345 18.0591 883.254 17.431 885.545 17.431C886.875 17.431 888.07 17.6527 889.129 18.0961C890.188 18.5148 891.026 19.1799 891.641 20.0914C892.282 20.9781 892.602 22.1359 892.602 23.5646C892.602 26.1018 891.789 28.4789 890.163 30.6958C888.562 32.9128 886.321 34.9943 883.439 36.9403V37.0142H888.833C890.237 37.0142 891.21 36.8417 891.752 36.4969C892.294 36.152 892.614 35.7086 892.713 35.1667ZM908.439 17.431C909.72 17.431 910.976 17.6773 912.208 18.17C913.44 18.6626 914.548 19.4263 915.534 20.4608C916.519 21.4954 917.295 22.801 917.861 24.3775C918.453 25.9294 918.748 27.7768 918.748 29.9199C918.748 32.0383 918.465 33.8858 917.898 35.4623C917.332 37.0388 916.556 38.3567 915.57 39.4159C914.585 40.4751 913.477 41.2633 912.245 41.7806C911.013 42.2979 909.732 42.5566 908.402 42.5566C907.121 42.5566 905.865 42.3102 904.633 41.8176C903.402 41.3249 902.293 40.5613 901.308 39.5267C900.323 38.4921 899.534 37.1989 898.943 35.647C898.377 34.0705 898.093 32.2107 898.093 30.0677C898.093 27.9493 898.377 26.1018 898.943 24.5253C899.51 22.9488 900.286 21.6309 901.271 20.5717C902.256 19.5125 903.365 18.7242 904.597 18.2069C905.828 17.6896 907.109 17.431 908.439 17.431ZM908.55 40.9677C909.264 40.9677 909.917 40.6475 910.508 40.0071C911.1 39.3666 911.568 38.2828 911.913 36.7555C912.282 35.2283 912.467 33.1345 912.467 30.4741C912.467 28.1586 912.307 26.151 911.986 24.4514C911.691 22.7271 911.235 21.3969 910.619 20.4608C910.003 19.5002 909.228 19.0198 908.291 19.0198C907.602 19.0198 906.949 19.3401 906.333 19.9805C905.742 20.621 905.262 21.7048 904.892 23.232C904.547 24.7593 904.375 26.8531 904.375 29.5134C904.375 31.8289 904.523 33.8488 904.818 35.5731C905.138 37.2728 905.606 38.603 906.222 39.5637C906.838 40.4997 907.614 40.9677 908.55 40.9677ZM939.152 35.1667H940.002L939.633 42.0023H921.823V41.1525C922.02 41.054 922.316 40.8815 922.71 40.6352C923.129 40.3889 923.56 40.1056 924.003 39.7854C925.235 38.8986 926.392 37.8886 927.476 36.7555C928.56 35.6224 929.509 34.4154 930.321 33.1345C931.134 31.8536 931.775 30.5727 932.243 29.2917C932.711 28.0108 932.945 26.7915 932.945 25.6338C932.945 24.5253 932.674 23.5892 932.132 22.8256C931.615 22.062 930.666 21.6802 929.287 21.6802C928.129 21.6802 927.058 22.0004 926.072 22.6409C925.087 23.2813 924.114 24.2789 923.153 25.6338L922.451 25.0426C923.461 22.4807 924.73 20.5717 926.257 19.3154C927.784 18.0591 929.693 17.431 931.984 17.431C933.314 17.431 934.509 17.6527 935.568 18.0961C936.627 18.5148 937.465 19.1799 938.081 20.0914C938.721 20.9781 939.041 22.1359 939.041 23.5646C939.041 26.1018 938.229 28.4789 936.603 30.6958C935.002 32.9128 932.76 34.9943 929.878 36.9403V37.0142H935.273C936.677 37.0142 937.65 36.8417 938.192 36.4969C938.734 36.152 939.054 35.7086 939.152 35.1667ZM959.682 32.5802L962.268 32.5802V37.1989H960.717C960.027 37.1989 959.682 37.63 959.682 38.4921C959.682 39.0833 959.682 39.6622 959.682 40.2288C959.707 40.7707 959.731 41.3619 959.756 42.0023H953.918C953.967 41.1894 954.004 40.4012 954.029 39.6376C954.053 38.8493 954.078 38.0364 954.103 37.1989H942.427V36.3491C943.067 35.7332 943.646 35.0928 944.163 34.4277L956.246 19.3154C956.517 18.9706 956.763 18.638 956.985 18.3178C957.231 17.9729 957.428 17.6773 957.576 17.431H959.719L959.682 32.5802ZM954.029 24.8578L947.858 32.5802H954.14V24.8578H954.029ZM992.582 17.431V24.2666H991.733C991.609 23.1828 991.388 22.259 991.068 21.4954C990.772 20.7072 990.304 20.1037 989.663 19.6849C989.048 19.2415 988.186 19.0198 987.077 19.0198H985.34C984.823 19.0198 984.417 19.1553 984.121 19.4263C983.85 19.6972 983.715 20.2638 983.715 21.1259V38.3074C983.715 39.5144 983.899 40.278 984.269 40.5982C984.638 40.9185 985.316 41.1032 986.301 41.1525V42.0023H975.771V41.1525C976.485 41.1032 977.002 40.9185 977.322 40.5982C977.643 40.278 977.803 39.5144 977.803 38.3074V21.1259C977.803 19.9189 977.618 19.1553 977.248 18.8351C976.904 18.4902 976.226 18.3055 975.216 18.2808V17.431H992.582ZM1007.39 16.8768C1009.13 16.8768 1010.76 17.1724 1012.26 17.7635C1013.77 18.3547 1015.1 19.2169 1016.25 20.35C1017.41 21.4585 1018.31 22.801 1018.95 24.3775C1019.59 25.954 1019.91 27.7152 1019.91 29.6612C1019.91 31.6072 1019.59 33.3685 1018.95 34.945C1018.31 36.5215 1017.41 37.8763 1016.25 39.0094C1015.12 40.1425 1013.79 41.017 1012.26 41.6328C1010.74 42.2487 1009.1 42.5566 1007.35 42.5566C1005.62 42.5566 1004 42.261 1002.47 41.6698C1000.97 41.0786 999.638 40.2288 998.481 39.1203C997.323 37.9872 996.424 36.6323 995.783 35.0558C995.143 33.4793 994.823 31.7181 994.823 29.7721C994.823 27.8261 995.143 26.0648 995.783 24.4883C996.424 22.9118 997.31 21.557 998.444 20.4239C999.601 19.2908 1000.94 18.4163 1002.47 17.8005C1004 17.1847 1005.64 16.8768 1007.39 16.8768ZM1008.12 40.9677C1009.41 40.9677 1010.42 40.549 1011.15 39.7115C1011.89 38.8493 1012.42 37.6669 1012.74 36.1643C1013.09 34.6617 1013.26 32.9128 1013.26 30.9175C1013.26 26.9024 1012.64 23.8232 1011.41 21.6802C1010.21 19.5371 1008.6 18.4656 1006.61 18.4656C1005.35 18.4656 1004.34 18.8843 1003.58 19.7219C1002.84 20.5594 1002.3 21.7418 1001.95 23.269C1001.63 24.7716 1001.47 26.5205 1001.47 28.5158C1001.47 32.531 1002.08 35.6101 1003.28 37.7531C1004.52 39.8962 1006.13 40.9677 1008.12 40.9677ZM1035.93 20.35L1042.07 38.3074C1042.29 38.9478 1042.61 39.539 1043.03 40.081C1043.47 40.5982 1044.15 40.9554 1045.06 41.1525L1043.36 49.5769H1042.51C1042.46 48.0497 1042.24 46.7195 1041.85 45.5864C1041.45 44.4533 1040.96 43.5665 1040.37 42.9261C1039.78 42.3102 1039.14 42.0023 1038.45 42.0023H1028.54C1027.63 42.0023 1026.73 42.3102 1025.85 42.9261C1024.98 43.5665 1024.25 44.4533 1023.63 45.5864C1023.04 46.7195 1022.66 48.0497 1022.48 49.5769H1021.63V41.1525C1022.08 40.9554 1022.51 40.6229 1022.93 40.1549C1023.35 39.6622 1023.73 39.108 1024.07 38.4921C1024.44 37.8763 1024.73 37.2974 1024.92 36.7555L1031.2 20.35C1031.45 19.7095 1031.68 19.0814 1031.91 18.4656C1032.13 17.8498 1032.33 17.2216 1032.5 16.5812H1034.64C1034.81 17.2216 1035.01 17.8498 1035.23 18.4656C1035.48 19.0814 1035.71 19.7095 1035.93 20.35ZM1034.38 40.4135C1035.37 40.4135 1035.91 40.2534 1036.01 39.9332C1036.11 39.6129 1036.02 39.071 1035.75 38.3074L1031.43 25.0056H1031.35L1025.59 40.4135H1034.38ZM1067.67 38.3074C1068.02 39.1449 1068.3 39.7607 1068.52 40.1549C1068.77 40.549 1069.03 40.8076 1069.3 40.9308C1069.57 41.0293 1069.9 41.1032 1070.3 41.1525V42.0023H1059.99V41.1525C1060.97 41.1032 1061.51 40.8076 1061.61 40.2657C1061.74 39.7238 1061.65 39.071 1061.35 38.3074L1059.51 33.504C1059.36 33.6271 1059.16 33.7134 1058.92 33.7626C1058.69 33.7872 1058.45 33.7996 1058.18 33.7996H1054C1053.48 33.7996 1053.09 33.8611 1052.82 33.9843C1052.55 34.1075 1052.31 34.4154 1052.12 34.908L1050.79 38.3074C1050.47 39.1203 1050.49 39.7854 1050.86 40.3027C1051.23 40.8199 1051.96 41.1032 1053.04 41.1525V42.0023H1046.32V41.1525C1046.86 41.1032 1047.31 40.8323 1047.68 40.3396C1048.08 39.8223 1048.43 39.1449 1048.75 38.3074L1055.85 20.35C1056.12 19.7095 1056.35 19.0814 1056.55 18.4656C1056.77 17.8498 1056.97 17.2216 1057.14 16.5812H1059.29C1059.46 17.2216 1059.65 17.8498 1059.88 18.4656C1060.1 19.0814 1060.33 19.7095 1060.58 20.35L1067.67 38.3074ZM1057.99 32.2107C1058.34 32.2107 1058.56 32.1615 1058.66 32.0629C1058.78 31.9398 1058.77 31.6935 1058.62 31.324L1056.07 25.0056H1056L1053.11 32.3585C1053.24 32.2846 1053.39 32.2477 1053.56 32.2477C1053.73 32.2231 1053.93 32.2107 1054.15 32.2107H1057.99Z" fill="white"/>
<path d="M1108.05 25.7899C1104.37 24.3191 1100.05 25.1035 1097.1 28.0452C1093.12 32.0164 1093.12 38.439 1097.1 42.4103C1100.05 45.3519 1104.37 46.1364 1108.05 44.6655V39.9589C1107.32 40.3021 1106.53 40.4982 1105.69 40.4982C1102.75 40.4982 1100.39 38.1449 1100.39 35.2032C1100.39 32.2615 1102.75 29.9082 1105.69 29.9082C1106.53 29.9082 1107.36 30.1043 1108.05 30.4475V25.7899Z" fill="white"/>
<path d="M1106.39 21.0732C1107.84 19.6188 1107.84 17.2115 1106.39 15.707C1104.94 14.2525 1102.54 14.2525 1101.04 15.707C1099.54 17.1614 1099.59 19.5687 1101.04 21.0732C1102.54 22.5276 1104.94 22.5276 1106.39 21.0732Z" fill="white"/>
<path d="M1148.56 35.1667H1149.41L1149.04 42.0023H1131.23V41.1525C1131.43 41.054 1131.72 40.8815 1132.12 40.6352C1132.54 40.3889 1132.97 40.1056 1133.41 39.7854C1134.64 38.8986 1135.8 37.8886 1136.88 36.7555C1137.97 35.6224 1138.92 34.4154 1139.73 33.1345C1140.54 31.8536 1141.18 30.5727 1141.65 29.2917C1142.12 28.0108 1142.35 26.7915 1142.35 25.6338C1142.35 24.5253 1142.08 23.5892 1141.54 22.8256C1141.02 22.062 1140.07 21.6802 1138.69 21.6802C1137.54 21.6802 1136.46 22.0004 1135.48 22.6409C1134.49 23.2813 1133.52 24.2789 1132.56 25.6338L1131.86 25.0426C1132.87 22.4807 1134.14 20.5717 1135.66 19.3154C1137.19 18.0591 1139.1 17.431 1141.39 17.431C1142.72 17.431 1143.92 17.6527 1144.98 18.0961C1146.03 18.5148 1146.87 19.1799 1147.49 20.0914C1148.13 20.9781 1148.45 22.1359 1148.45 23.5646C1148.45 26.1018 1147.64 28.4789 1146.01 30.6958C1144.41 32.9128 1142.17 34.9943 1139.29 36.9403V37.0142H1144.68C1146.08 37.0142 1147.06 36.8417 1147.6 36.4969C1148.14 36.152 1148.46 35.7086 1148.56 35.1667ZM1164.29 17.431C1165.57 17.431 1166.82 17.6773 1168.05 18.17C1169.29 18.6626 1170.39 19.4263 1171.38 20.4608C1172.37 21.4954 1173.14 22.801 1173.71 24.3775C1174.3 25.9294 1174.59 27.7768 1174.59 29.9199C1174.59 32.0383 1174.31 33.8858 1173.74 35.4623C1173.18 37.0388 1172.4 38.3567 1171.42 39.4159C1170.43 40.4751 1169.32 41.2633 1168.09 41.7806C1166.86 42.2979 1165.58 42.5566 1164.25 42.5566C1162.97 42.5566 1161.71 42.3102 1160.48 41.8176C1159.25 41.3249 1158.14 40.5613 1157.15 39.5267C1156.17 38.4921 1155.38 37.1989 1154.79 35.647C1154.22 34.0705 1153.94 32.2107 1153.94 30.0677C1153.94 27.9493 1154.22 26.1018 1154.79 24.5253C1155.36 22.9488 1156.13 21.6309 1157.12 20.5717C1158.1 19.5125 1159.21 18.7242 1160.44 18.2069C1161.67 17.6896 1162.96 17.431 1164.29 17.431ZM1164.4 40.9677C1165.11 40.9677 1165.76 40.6475 1166.36 40.0071C1166.95 39.3666 1167.41 38.2828 1167.76 36.7555C1168.13 35.2283 1168.31 33.1345 1168.31 30.4741C1168.31 28.1586 1168.15 26.151 1167.83 24.4514C1167.54 22.7271 1167.08 21.3969 1166.47 20.4608C1165.85 19.5002 1165.07 19.0198 1164.14 19.0198C1163.45 19.0198 1162.8 19.3401 1162.18 19.9805C1161.59 20.621 1161.11 21.7048 1160.74 23.232C1160.39 24.7593 1160.22 26.8531 1160.22 29.5134C1160.22 31.8289 1160.37 33.8488 1160.66 35.5731C1160.99 37.2728 1161.45 38.603 1162.07 39.5637C1162.68 40.4997 1163.46 40.9677 1164.4 40.9677ZM1199.67 30.8436L1188.22 31.8413L1187.96 28.8484L1199.42 27.8507L1199.67 30.8436ZM1228.27 35.1667H1229.12L1228.75 42.0023H1210.94V41.1525C1211.14 41.054 1211.43 40.8815 1211.83 40.6352C1212.24 40.3889 1212.68 40.1056 1213.12 39.7854C1214.35 38.8986 1215.51 37.8886 1216.59 36.7555C1217.68 35.6224 1218.62 34.4154 1219.44 33.1345C1220.25 31.8536 1220.89 30.5727 1221.36 29.2917C1221.83 28.0108 1222.06 26.7915 1222.06 25.6338C1222.06 24.5253 1221.79 23.5892 1221.25 22.8256C1220.73 22.062 1219.78 21.6802 1218.4 21.6802C1217.24 21.6802 1216.17 22.0004 1215.19 22.6409C1214.2 23.2813 1213.23 24.2789 1212.27 25.6338L1211.57 25.0426C1212.58 22.4807 1213.85 20.5717 1215.37 19.3154C1216.9 18.0591 1218.81 17.431 1221.1 17.431C1222.43 17.431 1223.62 17.6527 1224.68 18.0961C1225.74 18.5148 1226.58 19.1799 1227.2 20.0914C1227.84 20.9781 1228.16 22.1359 1228.16 23.5646C1228.16 26.1018 1227.34 28.4789 1225.72 30.6958C1224.12 32.9128 1221.88 34.9943 1218.99 36.9403V37.0142H1224.39C1225.79 37.0142 1226.77 36.8417 1227.31 36.4969C1227.85 36.152 1228.17 35.7086 1228.27 35.1667ZM1243.37 37.9379C1243.37 38.8493 1243.44 39.539 1243.59 40.0071C1243.76 40.4505 1244.1 40.746 1244.62 40.8938C1245.16 41.0416 1245.98 41.1279 1247.06 41.1525V42.0023H1233.39V41.1525C1234.5 41.1279 1235.31 41.0416 1235.83 40.8938C1236.37 40.746 1236.71 40.4505 1236.86 40.0071C1237.01 39.539 1237.08 38.8493 1237.08 37.9379V21.8649L1233.69 23.971L1232.91 22.7887L1241.48 17.431H1243.62C1243.53 17.899 1243.45 18.3671 1243.4 18.8351C1243.38 19.3031 1243.37 19.7711 1243.37 20.2392V37.9379ZM1260.27 42.0023V41.1525C1260.98 41.1032 1261.5 40.9185 1261.82 40.5982C1262.14 40.278 1262.3 39.5144 1262.3 38.3074V21.1259C1262.3 19.9189 1262.11 19.1553 1261.75 18.8351C1261.4 18.4902 1260.72 18.3055 1259.71 18.2808V17.431H1270.24V18.2808C1269.53 18.3055 1269.01 18.4902 1268.69 18.8351C1268.37 19.1553 1268.21 19.9189 1268.21 21.1259V27.666C1268.41 27.5182 1268.64 27.4196 1268.91 27.3704C1269.21 27.3211 1269.55 27.2965 1269.95 27.2965H1276.93C1277.6 27.2965 1278.06 27.1856 1278.34 26.9639C1278.61 26.7422 1278.74 26.2988 1278.74 25.6338V21.1259C1278.74 19.9189 1278.56 19.1553 1278.19 18.8351C1277.84 18.4902 1277.17 18.3055 1276.16 18.2808V17.431H1286.69V18.2808C1285.97 18.3055 1285.45 18.4902 1285.13 18.8351C1284.81 19.1553 1284.65 19.9189 1284.65 21.1259V38.3074C1284.65 39.5144 1284.84 40.278 1285.21 40.5982C1285.58 40.9185 1286.26 41.1032 1287.24 41.1525V42.0023H1276.71V41.1525C1277.42 41.1032 1277.94 40.9185 1278.26 40.5982C1278.58 40.278 1278.74 39.5144 1278.74 38.3074V28.4789C1278.54 28.6513 1278.3 28.7621 1278 28.8114C1277.71 28.8607 1277.37 28.8853 1277.01 28.8853H1270.02C1269.36 28.8853 1268.89 28.9961 1268.62 29.2178C1268.35 29.4395 1268.21 29.8706 1268.21 30.5111V38.3074C1268.21 39.5144 1268.4 40.278 1268.77 40.5982C1269.14 40.9185 1269.81 41.1032 1270.8 41.1525V42.0023H1260.27ZM1303.54 16.8768C1305.29 16.8768 1306.91 17.1724 1308.41 17.7635C1309.92 18.3547 1311.25 19.2169 1312.4 20.35C1313.56 21.4585 1314.46 22.801 1315.1 24.3775C1315.74 25.954 1316.06 27.7152 1316.06 29.6612C1316.06 31.6072 1315.74 33.3685 1315.1 34.945C1314.46 36.5215 1313.56 37.8763 1312.4 39.0094C1311.27 40.1425 1309.94 41.017 1308.41 41.6328C1306.89 42.2487 1305.25 42.5566 1303.5 42.5566C1301.78 42.5566 1300.15 42.261 1298.62 41.6698C1297.12 41.0786 1295.79 40.2288 1294.63 39.1203C1293.47 37.9872 1292.58 36.6323 1291.93 35.0558C1291.29 33.4793 1290.97 31.7181 1290.97 29.7721C1290.97 27.8261 1291.29 26.0648 1291.93 24.4883C1292.58 22.9118 1293.46 21.557 1294.6 20.4239C1295.75 19.2908 1297.1 18.4163 1298.62 17.8005C1300.15 17.1847 1301.79 16.8768 1303.54 16.8768ZM1304.28 40.9677C1305.56 40.9677 1306.57 40.549 1307.31 39.7115C1308.04 38.8493 1308.57 37.6669 1308.89 36.1643C1309.24 34.6617 1309.41 32.9128 1309.41 30.9175C1309.41 26.9024 1308.8 23.8232 1307.56 21.6802C1306.36 19.5371 1304.76 18.4656 1302.76 18.4656C1301.5 18.4656 1300.49 18.8843 1299.73 19.7219C1298.99 20.5594 1298.45 21.7418 1298.11 23.269C1297.79 24.7716 1297.63 26.5205 1297.63 28.5158C1297.63 32.531 1298.23 35.6101 1299.44 37.7531C1300.67 39.8962 1302.28 40.9677 1304.28 40.9677ZM1320.26 42.5566C1319.65 42.5566 1318.99 42.5073 1318.3 42.4088C1317.61 42.3102 1317.02 42.1748 1316.53 42.0023V41.1525C1317.02 41.1525 1317.58 40.9554 1318.19 40.5613C1318.81 40.1672 1319.44 39.3789 1320.08 38.1965L1325.36 28.6267C1323.71 28.2079 1322.45 27.5305 1321.59 26.5944C1320.75 25.6584 1320.34 24.5253 1320.34 23.1951C1320.34 22.1605 1320.64 21.1875 1321.26 20.2761C1321.9 19.3647 1322.93 18.638 1324.36 18.0961C1325.82 17.5295 1327.76 17.2463 1330.2 17.2463C1330.99 17.2463 1331.9 17.2832 1332.94 17.3571C1333.97 17.4064 1335.12 17.431 1336.37 17.431H1341.1V18.2808C1340.39 18.3055 1339.87 18.4902 1339.55 18.8351C1339.23 19.1553 1339.07 19.9189 1339.07 21.1259V38.3074C1339.07 39.5144 1339.25 40.278 1339.62 40.5982C1339.99 40.9185 1340.67 41.1032 1341.66 41.1525V42.0023H1331.13V41.1525C1331.84 41.1032 1332.36 40.9185 1332.68 40.5982C1333 40.278 1333.16 39.5144 1333.16 38.3074V21.1259C1333.16 20.1653 1332.98 19.5494 1332.64 19.2785C1332.32 18.9829 1331.75 18.8351 1330.94 18.8351C1329.88 18.8351 1328.92 19.2169 1328.06 19.9805C1327.22 20.7195 1326.8 21.8403 1326.8 23.3429C1326.8 24.1312 1326.96 24.8948 1327.28 25.6338C1327.6 26.3481 1328.17 26.9516 1328.98 27.4443C1329.82 27.9369 1330.97 28.2325 1332.42 28.3311V29.6243C1332.12 29.6243 1331.86 29.6859 1331.64 29.809C1331.42 29.9076 1331.2 30.1662 1330.98 30.585L1326.8 38.6399C1326.24 39.7238 1325.45 40.6475 1324.44 41.4111C1323.43 42.1748 1322.04 42.5566 1320.26 42.5566ZM1353.33 27.2226H1356.92C1359.6 27.2226 1361.72 27.5182 1363.27 28.1094C1364.82 28.7006 1365.92 29.5134 1366.56 30.548C1367.23 31.5826 1367.56 32.7773 1367.56 34.1321C1367.56 35.4869 1367.19 36.7678 1366.45 37.9748C1365.73 39.1572 1364.61 40.1302 1363.09 40.8938C1361.58 41.6328 1359.66 42.0023 1357.32 42.0023H1345.39V41.1525C1346.1 41.1032 1346.62 40.9185 1346.94 40.5982C1347.26 40.278 1347.42 39.5144 1347.42 38.3074V21.1259C1347.42 19.9189 1347.24 19.1553 1346.87 18.8351C1346.52 18.4902 1345.84 18.3055 1344.83 18.2808V17.431H1365.16V23.5276H1364.31C1364.23 22.6901 1364.07 21.9388 1363.83 21.2737C1363.58 20.584 1363.16 20.0421 1362.57 19.648C1361.98 19.2292 1361.13 19.0198 1360.02 19.0198H1354.96C1354.44 19.0198 1354.03 19.1553 1353.74 19.4263C1353.47 19.6972 1353.33 20.2638 1353.33 21.1259V27.2226ZM1355.51 40.4135C1356.82 40.4135 1357.89 40.1056 1358.73 39.4898C1359.59 38.8493 1360.23 38.0611 1360.65 37.125C1361.07 36.189 1361.28 35.2652 1361.28 34.3538C1361.28 32.999 1361.02 31.9151 1360.5 31.1023C1360.01 30.2894 1359.33 29.7105 1358.47 29.3656C1357.63 28.9961 1356.68 28.8114 1355.62 28.8114H1353.33V38.3074C1353.33 39.1695 1353.47 39.7361 1353.74 40.0071C1354.01 40.278 1354.6 40.4135 1355.51 40.4135ZM1371.48 42.0023V41.1525C1372.19 41.1032 1372.71 40.9185 1373.03 40.5982C1373.35 40.278 1373.51 39.5144 1373.51 38.3074V21.1259C1373.51 19.9189 1373.32 19.1553 1372.95 18.8351C1372.61 18.4902 1371.93 18.3055 1370.92 18.2808V17.431H1373.51C1375.31 17.431 1376.99 17.4064 1378.57 17.3571C1380.15 17.2832 1381.33 17.2463 1382.12 17.2463C1384.68 17.2463 1386.7 17.5295 1388.18 18.0961C1389.68 18.6626 1390.75 19.4139 1391.39 20.35C1392.06 21.2614 1392.39 22.2714 1392.39 23.3798C1392.39 24.6608 1391.97 25.8801 1391.13 27.0378C1390.32 28.1956 1389.01 29.0947 1387.22 29.7351C1385.44 30.351 1383.09 30.548 1380.16 30.3263V29.0331C1381.49 29.0824 1382.59 28.8484 1383.45 28.3311C1384.31 27.7891 1384.94 27.0748 1385.33 26.188C1385.75 25.3012 1385.96 24.3528 1385.96 23.3429C1385.96 21.9881 1385.58 20.9042 1384.81 20.0914C1384.05 19.2538 1382.99 18.8351 1381.64 18.8351C1380.82 18.8351 1380.25 18.9829 1379.9 19.2785C1379.58 19.5494 1379.42 20.1653 1379.42 21.1259V38.3074C1379.42 39.0956 1379.49 39.6991 1379.64 40.1179C1379.81 40.512 1380.11 40.783 1380.53 40.9308C1380.97 41.054 1381.59 41.1279 1382.38 41.1525V42.0023H1371.48ZM1396.29 42.5566C1395.67 42.5566 1395.02 42.5073 1394.33 42.4088C1393.64 42.3102 1393.05 42.1748 1392.56 42.0023V41.1525C1393.05 41.1525 1393.6 40.9554 1394.22 40.5613C1394.84 40.1672 1395.46 39.3789 1396.1 38.1965L1401.39 28.6267C1399.74 28.2079 1398.48 27.5305 1397.62 26.5944C1396.78 25.6584 1396.36 24.5253 1396.36 23.1951C1396.36 22.1605 1396.67 21.1875 1397.29 20.2761C1397.93 19.3647 1398.96 18.638 1400.39 18.0961C1401.84 17.5295 1403.79 17.2463 1406.23 17.2463C1407.02 17.2463 1407.93 17.2832 1408.96 17.3571C1410 17.4064 1411.14 17.431 1412.4 17.431H1417.13V18.2808C1416.41 18.3055 1415.9 18.4902 1415.58 18.8351C1415.26 19.1553 1415.1 19.9189 1415.1 21.1259V38.3074C1415.1 39.5144 1415.28 40.278 1415.65 40.5982C1416.02 40.9185 1416.7 41.1032 1417.68 41.1525V42.0023H1407.15V41.1525C1407.87 41.1032 1408.38 40.9185 1408.7 40.5982C1409.02 40.278 1409.19 39.5144 1409.19 38.3074V21.1259C1409.19 20.1653 1409.01 19.5494 1408.67 19.2785C1408.35 18.9829 1407.78 18.8351 1406.97 18.8351C1405.91 18.8351 1404.95 19.2169 1404.09 19.9805C1403.25 20.7195 1402.83 21.8403 1402.83 23.3429C1402.83 24.1312 1402.99 24.8948 1403.31 25.6338C1403.63 26.3481 1404.2 26.9516 1405.01 27.4443C1405.85 27.9369 1406.99 28.2325 1408.45 28.3311V29.6243C1408.15 29.6243 1407.89 29.6859 1407.67 29.809C1407.45 29.9076 1407.23 30.1662 1407.01 30.585L1402.83 38.6399C1402.26 39.7238 1401.47 40.6475 1400.47 41.4111C1399.46 42.1748 1398.06 42.5566 1396.29 42.5566ZM1447.04 35.1667H1447.89L1447.52 42.0023H1429.71V41.1525C1429.91 41.054 1430.2 40.8815 1430.6 40.6352C1431.02 40.3889 1431.45 40.1056 1431.89 39.7854C1433.12 38.8986 1434.28 37.8886 1435.37 36.7555C1436.45 35.6224 1437.4 34.4154 1438.21 33.1345C1439.02 31.8536 1439.66 30.5727 1440.13 29.2917C1440.6 28.0108 1440.83 26.7915 1440.83 25.6338C1440.83 24.5253 1440.56 23.5892 1440.02 22.8256C1439.5 22.062 1438.56 21.6802 1437.18 21.6802C1436.02 21.6802 1434.95 22.0004 1433.96 22.6409C1432.98 23.2813 1432 24.2789 1431.04 25.6338L1430.34 25.0426C1431.35 22.4807 1432.62 20.5717 1434.15 19.3154C1435.67 18.0591 1437.58 17.431 1439.87 17.431C1441.2 17.431 1442.4 17.6527 1443.46 18.0961C1444.52 18.5148 1445.35 19.1799 1445.97 20.0914C1446.61 20.9781 1446.93 22.1359 1446.93 23.5646C1446.93 26.1018 1446.12 28.4789 1444.49 30.6958C1442.89 32.9128 1440.65 34.9943 1437.77 36.9403V37.0142H1443.16C1444.57 37.0142 1445.54 36.8417 1446.08 36.4969C1446.62 36.152 1446.94 35.7086 1447.04 35.1667ZM1462.77 17.431C1464.05 17.431 1465.3 17.6773 1466.54 18.17C1467.77 18.6626 1468.88 19.4263 1469.86 20.4608C1470.85 21.4954 1471.62 22.801 1472.19 24.3775C1472.78 25.9294 1473.08 27.7768 1473.08 29.9199C1473.08 32.0383 1472.79 33.8858 1472.23 35.4623C1471.66 37.0388 1470.88 38.3567 1469.9 39.4159C1468.91 40.4751 1467.8 41.2633 1466.57 41.7806C1465.34 42.2979 1464.06 42.5566 1462.73 42.5566C1461.45 42.5566 1460.19 42.3102 1458.96 41.8176C1457.73 41.3249 1456.62 40.5613 1455.64 39.5267C1454.65 38.4921 1453.86 37.1989 1453.27 35.647C1452.7 34.0705 1452.42 32.2107 1452.42 30.0677C1452.42 27.9493 1452.7 26.1018 1453.27 24.5253C1453.84 22.9488 1454.61 21.6309 1455.6 20.5717C1456.58 19.5125 1457.69 18.7242 1458.92 18.2069C1460.16 17.6896 1461.44 17.431 1462.77 17.431ZM1462.88 40.9677C1463.59 40.9677 1464.25 40.6475 1464.84 40.0071C1465.43 39.3666 1465.9 38.2828 1466.24 36.7555C1466.61 35.2283 1466.79 33.1345 1466.79 30.4741C1466.79 28.1586 1466.63 26.151 1466.31 24.4514C1466.02 22.7271 1465.56 21.3969 1464.95 20.4608C1464.33 19.5002 1463.56 19.0198 1462.62 19.0198C1461.93 19.0198 1461.28 19.3401 1460.66 19.9805C1460.07 20.621 1459.59 21.7048 1459.22 23.232C1458.88 24.7593 1458.7 26.8531 1458.7 29.5134C1458.7 31.8289 1458.85 33.8488 1459.15 35.5731C1459.47 37.2728 1459.93 38.603 1460.55 39.5637C1461.17 40.4997 1461.94 40.9677 1462.88 40.9677ZM1493.48 35.1667H1494.33L1493.96 42.0023H1476.15V41.1525C1476.35 41.054 1476.64 40.8815 1477.04 40.6352C1477.46 40.3889 1477.89 40.1056 1478.33 39.7854C1479.56 38.8986 1480.72 37.8886 1481.8 36.7555C1482.89 35.6224 1483.84 34.4154 1484.65 33.1345C1485.46 31.8536 1486.1 30.5727 1486.57 29.2917C1487.04 28.0108 1487.27 26.7915 1487.27 25.6338C1487.27 24.5253 1487 23.5892 1486.46 22.8256C1485.94 22.062 1484.99 21.6802 1483.61 21.6802C1482.46 21.6802 1481.39 22.0004 1480.4 22.6409C1479.42 23.2813 1478.44 24.2789 1477.48 25.6338L1476.78 25.0426C1477.79 22.4807 1479.06 20.5717 1480.59 19.3154C1482.11 18.0591 1484.02 17.431 1486.31 17.431C1487.64 17.431 1488.84 17.6527 1489.9 18.0961C1490.96 18.5148 1491.79 19.1799 1492.41 20.0914C1493.05 20.9781 1493.37 22.1359 1493.37 23.5646C1493.37 26.1018 1492.56 28.4789 1490.93 30.6958C1489.33 32.9128 1487.09 34.9943 1484.21 36.9403V37.0142H1489.6C1491 37.0142 1491.98 36.8417 1492.52 36.4969C1493.06 36.152 1493.38 35.7086 1493.48 35.1667ZM1514.01 32.5802L1516.6 32.5802V37.1989H1515.04C1514.35 37.1989 1514.01 37.63 1514.01 38.4921C1514.01 39.0833 1514.01 39.6622 1514.01 40.2288C1514.03 40.7707 1514.06 41.3619 1514.08 42.0023H1508.25C1508.3 41.1894 1508.33 40.4012 1508.36 39.6376C1508.38 38.8493 1508.41 38.0364 1508.43 37.1989H1496.75V36.3491C1497.4 35.7332 1497.97 35.0928 1498.49 34.4277L1510.57 19.3154C1510.84 18.9706 1511.09 18.638 1511.31 18.3178C1511.56 17.9729 1511.76 17.6773 1511.9 17.431H1514.05L1514.01 32.5802ZM1508.36 24.8578L1502.19 32.5802H1508.47V24.8578H1508.36ZM1546.91 17.431V24.2666H1546.06C1545.94 23.1828 1545.72 22.259 1545.4 21.4954C1545.1 20.7072 1544.63 20.1037 1543.99 19.6849C1543.38 19.2415 1542.51 19.0198 1541.41 19.0198H1539.67C1539.15 19.0198 1538.74 19.1553 1538.45 19.4263C1538.18 19.6972 1538.04 20.2638 1538.04 21.1259V38.3074C1538.04 39.5144 1538.23 40.278 1538.6 40.5982C1538.97 40.9185 1539.64 41.1032 1540.63 41.1525V42.0023H1530.1V41.1525C1530.81 41.1032 1531.33 40.9185 1531.65 40.5982C1531.97 40.278 1532.13 39.5144 1532.13 38.3074V21.1259C1532.13 19.9189 1531.95 19.1553 1531.58 18.8351C1531.23 18.4902 1530.55 18.3055 1529.54 18.2808V17.431H1546.91ZM1561.71 16.8768C1563.46 16.8768 1565.09 17.1724 1566.59 17.7635C1568.09 18.3547 1569.42 19.2169 1570.58 20.35C1571.74 21.4585 1572.64 22.801 1573.28 24.3775C1573.92 25.954 1574.24 27.7152 1574.24 29.6612C1574.24 31.6072 1573.92 33.3685 1573.28 34.945C1572.64 36.5215 1571.74 37.8763 1570.58 39.0094C1569.45 40.1425 1568.12 41.017 1566.59 41.6328C1565.06 42.2487 1563.43 42.5566 1561.68 42.5566C1559.95 42.5566 1558.33 42.261 1556.8 41.6698C1555.3 41.0786 1553.97 40.2288 1552.81 39.1203C1551.65 37.9872 1550.75 36.6323 1550.11 35.0558C1549.47 33.4793 1549.15 31.7181 1549.15 29.7721C1549.15 27.8261 1549.47 26.0648 1550.11 24.4883C1550.75 22.9118 1551.64 21.557 1552.77 20.4239C1553.93 19.2908 1555.27 18.4163 1556.8 17.8005C1558.33 17.1847 1559.96 16.8768 1561.71 16.8768ZM1562.45 40.9677C1563.73 40.9677 1564.74 40.549 1565.48 39.7115C1566.22 38.8493 1566.75 37.6669 1567.07 36.1643C1567.42 34.6617 1567.59 32.9128 1567.59 30.9175C1567.59 26.9024 1566.97 23.8232 1565.74 21.6802C1564.53 19.5371 1562.93 18.4656 1560.94 18.4656C1559.68 18.4656 1558.67 18.8843 1557.91 19.7219C1557.17 20.5594 1556.63 21.7418 1556.28 23.269C1555.96 24.7716 1555.8 26.5205 1555.8 28.5158C1555.8 32.531 1556.41 35.6101 1557.61 37.7531C1558.84 39.8962 1560.46 40.9677 1562.45 40.9677ZM1590.26 20.35L1596.4 38.3074C1596.62 38.9478 1596.94 39.539 1597.36 40.081C1597.8 40.5982 1598.48 40.9554 1599.39 41.1525L1597.69 49.5769H1596.84C1596.79 48.0497 1596.57 46.7195 1596.17 45.5864C1595.78 44.4533 1595.29 43.5665 1594.7 42.9261C1594.11 42.3102 1593.46 42.0023 1592.77 42.0023H1582.87C1581.96 42.0023 1581.06 42.3102 1580.18 42.9261C1579.31 43.5665 1578.57 44.4533 1577.96 45.5864C1577.37 46.7195 1576.99 48.0497 1576.81 49.5769H1575.96V41.1525C1576.41 40.9554 1576.84 40.6229 1577.26 40.1549C1577.67 39.6622 1578.06 39.108 1578.4 38.4921C1578.77 37.8763 1579.05 37.2974 1579.25 36.7555L1585.53 20.35C1585.78 19.7095 1586.01 19.0814 1586.23 18.4656C1586.46 17.8498 1586.65 17.2216 1586.83 16.5812H1588.97C1589.14 17.2216 1589.34 17.8498 1589.56 18.4656C1589.81 19.0814 1590.04 19.7095 1590.26 20.35ZM1588.71 40.4135C1589.7 40.4135 1590.24 40.2534 1590.34 39.9332C1590.43 39.6129 1590.35 39.071 1590.08 38.3074L1585.75 25.0056H1585.68L1579.92 40.4135H1588.71ZM1622 38.3074C1622.35 39.1449 1622.63 39.7607 1622.85 40.1549C1623.1 40.549 1623.36 40.8076 1623.63 40.9308C1623.9 41.0293 1624.23 41.1032 1624.62 41.1525V42.0023H1614.32V41.1525C1615.3 41.1032 1615.84 40.8076 1615.94 40.2657C1616.06 39.7238 1615.98 39.071 1615.68 38.3074L1613.83 33.504C1613.69 33.6271 1613.49 33.7134 1613.24 33.7626C1613.02 33.7872 1612.78 33.7996 1612.5 33.7996H1608.33C1607.81 33.7996 1607.42 33.8611 1607.15 33.9843C1606.88 34.1075 1606.64 34.4154 1606.44 34.908L1605.11 38.3074C1604.79 39.1203 1604.82 39.7854 1605.19 40.3027C1605.56 40.8199 1606.28 41.1032 1607.37 41.1525V42.0023H1600.64V41.1525C1601.19 41.1032 1601.64 40.8323 1602.01 40.3396C1602.41 39.8223 1602.76 39.1449 1603.08 38.3074L1610.18 20.35C1610.45 19.7095 1610.68 19.0814 1610.88 18.4656C1611.1 17.8498 1611.3 17.2216 1611.47 16.5812H1613.61C1613.79 17.2216 1613.98 17.8498 1614.2 18.4656C1614.43 19.0814 1614.66 19.7095 1614.91 20.35L1622 38.3074ZM1612.32 32.2107C1612.66 32.2107 1612.89 32.1615 1612.99 32.0629C1613.11 31.9398 1613.1 31.6935 1612.95 31.324L1610.4 25.0056H1610.32L1607.44 32.3585C1607.57 32.2846 1607.71 32.2477 1607.89 32.2477C1608.06 32.2231 1608.26 32.2107 1608.48 32.2107H1612.32Z" fill="white"/>
</svg>
