<svg width="3117" height="115" viewBox="0 0 3117 115" fill="none" xmlns="http://www.w3.org/2000/svg">
<rect x="0.757812" y="0.4375" width="3115.8" height="114" rx="4" fill="url(#paint0_linear_562_1670)"/>
<path d="M74.4978 67.4875H76.1078L75.4078 80.4375H41.6678V78.8275C42.0411 78.6408 42.6011 78.3142 43.3478 77.8475C44.1411 77.3808 44.9578 76.8442 45.7978 76.2375C48.1311 74.5575 50.3245 72.6442 52.3778 70.4975C54.4311 68.3508 56.2278 66.0642 57.7678 63.6375C59.3078 61.2108 60.5211 58.7842 61.4078 56.3575C62.2945 53.9308 62.7378 51.6208 62.7378 49.4275C62.7378 47.3275 62.2245 45.5542 61.1978 44.1075C60.2178 42.6608 58.4211 41.9375 55.8078 41.9375C53.6145 41.9375 51.5845 42.5442 49.7178 43.7575C47.8511 44.9708 46.0078 46.8608 44.1878 49.4275L42.8578 48.3075C44.7711 43.4542 47.1745 39.8375 50.0678 37.4575C52.9611 35.0775 56.5778 33.8875 60.9178 33.8875C63.4378 33.8875 65.7011 34.3075 67.7078 35.1475C69.7145 35.9408 71.3012 37.2008 72.4678 38.9275C73.6812 40.6075 74.2878 42.8008 74.2878 45.5075C74.2878 50.3142 72.7478 54.8175 69.6678 59.0175C66.6345 63.2175 62.3878 67.1608 56.9278 70.8475V70.9875H67.1478C69.8078 70.9875 71.6512 70.6608 72.6778 70.0075C73.7045 69.3542 74.3112 68.5142 74.4978 67.4875ZM104.291 33.8875C106.718 33.8875 109.098 34.3542 111.431 35.2875C113.764 36.2208 115.864 37.6675 117.731 39.6275C119.598 41.5875 121.068 44.0608 122.141 47.0475C123.261 49.9875 123.821 53.4875 123.821 57.5475C123.821 61.5608 123.284 65.0608 122.211 68.0475C121.138 71.0342 119.668 73.5308 117.801 75.5375C115.934 77.5442 113.834 79.0375 111.501 80.0175C109.168 80.9975 106.741 81.4875 104.221 81.4875C101.794 81.4875 99.4144 81.0208 97.081 80.0875C94.7477 79.1542 92.6477 77.7075 90.781 75.7475C88.9144 73.7875 87.421 71.3375 86.301 68.3975C85.2277 65.4108 84.691 61.8875 84.691 57.8275C84.691 53.8142 85.2277 50.3142 86.301 47.3275C87.3744 44.3408 88.8444 41.8442 90.711 39.8375C92.5777 37.8308 94.6777 36.3375 97.011 35.3575C99.3444 34.3775 101.771 33.8875 104.291 33.8875ZM104.501 78.4775C105.854 78.4775 107.091 77.8708 108.211 76.6575C109.331 75.4442 110.218 73.3908 110.871 70.4975C111.571 67.6042 111.921 63.6375 111.921 58.5975C111.921 54.2108 111.618 50.4075 111.011 47.1875C110.451 43.9208 109.588 41.4008 108.421 39.6275C107.254 37.8075 105.784 36.8975 104.011 36.8975C102.704 36.8975 101.468 37.5042 100.301 38.7175C99.181 39.9308 98.271 41.9842 97.571 44.8775C96.9177 47.7708 96.591 51.7375 96.591 56.7775C96.591 61.1642 96.871 64.9908 97.431 68.2575C98.0377 71.4775 98.9244 73.9975 100.091 75.8175C101.258 77.5908 102.728 78.4775 104.501 78.4775ZM171.334 59.2975L149.634 61.1875L149.144 55.5175L170.844 53.6275L171.334 59.2975ZM225.504 67.4875H227.114L226.414 80.4375H192.674V78.8275C193.047 78.6408 193.607 78.3142 194.354 77.8475C195.147 77.3808 195.964 76.8442 196.804 76.2375C199.137 74.5575 201.33 72.6442 203.384 70.4975C205.437 68.3508 207.234 66.0642 208.774 63.6375C210.314 61.2108 211.527 58.7842 212.414 56.3575C213.3 53.9308 213.744 51.6208 213.744 49.4275C213.744 47.3275 213.23 45.5542 212.204 44.1075C211.224 42.6608 209.427 41.9375 206.814 41.9375C204.62 41.9375 202.59 42.5442 200.724 43.7575C198.857 44.9708 197.014 46.8608 195.194 49.4275L193.864 48.3075C195.777 43.4542 198.18 39.8375 201.074 37.4575C203.967 35.0775 207.584 33.8875 211.924 33.8875C214.444 33.8875 216.707 34.3075 218.714 35.1475C220.72 35.9408 222.307 37.2008 223.474 38.9275C224.687 40.6075 225.294 42.8008 225.294 45.5075C225.294 50.3142 223.754 54.8175 220.674 59.0175C217.64 63.2175 213.394 67.1608 207.934 70.8475V70.9875H218.154C220.814 70.9875 222.657 70.6608 223.684 70.0075C224.71 69.3542 225.317 68.5142 225.504 67.4875ZM254.107 72.7375C254.107 74.4642 254.247 75.7708 254.527 76.6575C254.854 77.4975 255.507 78.0575 256.487 78.3375C257.514 78.6175 259.054 78.7808 261.107 78.8275V80.4375H235.207V78.8275C237.307 78.7808 238.847 78.6175 239.827 78.3375C240.854 78.0575 241.507 77.4975 241.787 76.6575C242.067 75.7708 242.207 74.4642 242.207 72.7375V42.2875L235.767 46.2775L234.297 44.0375L250.537 33.8875H254.597C254.41 34.7742 254.27 35.6608 254.177 36.5475C254.13 37.4342 254.107 38.3208 254.107 39.2075V72.7375ZM286.126 80.4375V78.8275C287.48 78.7342 288.46 78.3842 289.066 77.7775C289.673 77.1708 289.976 75.7242 289.976 73.4375V40.8875C289.976 38.6008 289.626 37.1542 288.926 36.5475C288.273 35.8942 286.99 35.5442 285.076 35.4975V33.8875H305.026V35.4975C303.673 35.5442 302.693 35.8942 302.086 36.5475C301.48 37.1542 301.176 38.6008 301.176 40.8875V53.2775C301.55 52.9975 301.993 52.8108 302.506 52.7175C303.066 52.6242 303.72 52.5775 304.466 52.5775H317.696C318.956 52.5775 319.843 52.3675 320.356 51.9475C320.87 51.5275 321.126 50.6875 321.126 49.4275V40.8875C321.126 38.6008 320.776 37.1542 320.076 36.5475C319.423 35.8942 318.14 35.5442 316.226 35.4975V33.8875H336.176V35.4975C334.823 35.5442 333.843 35.8942 333.236 36.5475C332.63 37.1542 332.326 38.6008 332.326 40.8875V73.4375C332.326 75.7242 332.676 77.1708 333.376 77.7775C334.076 78.3842 335.36 78.7342 337.226 78.8275V80.4375H317.276V78.8275C318.63 78.7342 319.61 78.3842 320.216 77.7775C320.823 77.1708 321.126 75.7242 321.126 73.4375V54.8175C320.753 55.1442 320.286 55.3542 319.726 55.4475C319.166 55.5408 318.536 55.5875 317.836 55.5875H304.606C303.346 55.5875 302.46 55.7975 301.946 56.2175C301.433 56.6375 301.176 57.4542 301.176 58.6675V73.4375C301.176 75.7242 301.526 77.1708 302.226 77.7775C302.926 78.3842 304.21 78.7342 306.076 78.8275V80.4375H286.126ZM368.1 32.8375C371.414 32.8375 374.494 33.3975 377.34 34.5175C380.187 35.6375 382.707 37.2708 384.9 39.4175C387.094 41.5175 388.797 44.0608 390.01 47.0475C391.224 50.0342 391.83 53.3708 391.83 57.0575C391.83 60.7442 391.224 64.0808 390.01 67.0675C388.797 70.0542 387.094 72.6208 384.9 74.7675C382.754 76.9142 380.234 78.5708 377.34 79.7375C374.447 80.9042 371.344 81.4875 368.03 81.4875C364.764 81.4875 361.684 80.9275 358.79 79.8075C355.944 78.6875 353.424 77.0775 351.23 74.9775C349.037 72.8308 347.334 70.2642 346.12 67.2775C344.907 64.2908 344.3 60.9542 344.3 57.2675C344.3 53.5808 344.907 50.2442 346.12 47.2575C347.334 44.2708 349.014 41.7042 351.16 39.5575C353.354 37.4108 355.897 35.7542 358.79 34.5875C361.684 33.4208 364.787 32.8375 368.1 32.8375ZM369.5 78.4775C371.927 78.4775 373.84 77.6842 375.24 76.0975C376.64 74.4642 377.644 72.2242 378.25 69.3775C378.904 66.5308 379.23 63.2175 379.23 59.4375C379.23 51.8308 378.064 45.9975 375.73 41.9375C373.444 37.8775 370.41 35.8475 366.63 35.8475C364.25 35.8475 362.337 36.6408 360.89 38.2275C359.49 39.8142 358.464 42.0542 357.81 44.9475C357.204 47.7942 356.9 51.1075 356.9 54.8875C356.9 62.4942 358.044 68.3275 360.33 72.3875C362.664 76.4475 365.72 78.4775 369.5 78.4775ZM399.786 81.4875C398.619 81.4875 397.382 81.3942 396.076 81.2075C394.769 81.0208 393.649 80.7642 392.716 80.4375V78.8275C393.649 78.8275 394.699 78.4542 395.866 77.7075C397.032 76.9608 398.222 75.4675 399.436 73.2275L409.446 55.0975C406.319 54.3042 403.939 53.0208 402.306 51.2475C400.719 49.4742 399.926 47.3275 399.926 44.8075C399.926 42.8475 400.509 41.0042 401.676 39.2775C402.889 37.5508 404.849 36.1742 407.556 35.1475C410.309 34.0742 413.996 33.5375 418.616 33.5375C420.109 33.5375 421.836 33.6075 423.796 33.7475C425.756 33.8408 427.926 33.8875 430.306 33.8875H439.266V35.4975C437.912 35.5442 436.932 35.8942 436.326 36.5475C435.719 37.1542 435.416 38.6008 435.416 40.8875V73.4375C435.416 75.7242 435.766 77.1708 436.466 77.7775C437.166 78.3842 438.449 78.7342 440.316 78.8275V80.4375H420.366V78.8275C421.719 78.7342 422.699 78.3842 423.306 77.7775C423.912 77.1708 424.216 75.7242 424.216 73.4375V40.8875C424.216 39.0675 423.889 37.9008 423.236 37.3875C422.629 36.8275 421.556 36.5475 420.016 36.5475C418.009 36.5475 416.189 37.2708 414.556 38.7175C412.969 40.1175 412.176 42.2408 412.176 45.0875C412.176 46.5808 412.479 48.0275 413.086 49.4275C413.692 50.7808 414.766 51.9242 416.306 52.8575C417.892 53.7908 420.062 54.3508 422.816 54.5375V56.9875C422.256 56.9875 421.766 57.1042 421.346 57.3375C420.926 57.5242 420.506 58.0142 420.086 58.8075L412.176 74.0675C411.102 76.1208 409.609 77.8708 407.696 79.3175C405.782 80.7642 403.146 81.4875 399.786 81.4875ZM462.436 52.4375H469.226C474.313 52.4375 478.326 52.9975 481.266 54.1175C484.206 55.2375 486.283 56.7775 487.496 58.7375C488.756 60.6975 489.386 62.9608 489.386 65.5275C489.386 68.0942 488.686 70.5208 487.286 72.8075C485.933 75.0475 483.81 76.8908 480.916 78.3375C478.07 79.7375 474.43 80.4375 469.996 80.4375H447.386V78.8275C448.74 78.7342 449.72 78.3842 450.326 77.7775C450.933 77.1708 451.236 75.7242 451.236 73.4375V40.8875C451.236 38.6008 450.886 37.1542 450.186 36.5475C449.533 35.8942 448.25 35.5442 446.336 35.4975V33.8875H484.836V45.4375H483.226C483.086 43.8508 482.783 42.4275 482.316 41.1675C481.85 39.8608 481.056 38.8342 479.936 38.0875C478.816 37.2942 477.206 36.8975 475.106 36.8975H465.516C464.536 36.8975 463.766 37.1542 463.206 37.6675C462.693 38.1808 462.436 39.2542 462.436 40.8875V52.4375ZM466.566 77.4275C469.04 77.4275 471.07 76.8442 472.656 75.6775C474.29 74.4642 475.503 72.9708 476.296 71.1975C477.09 69.4242 477.486 67.6742 477.486 65.9475C477.486 63.3808 476.996 61.3275 476.016 59.7875C475.083 58.2475 473.8 57.1508 472.166 56.4975C470.58 55.7975 468.783 55.4475 466.776 55.4475H462.436V73.4375C462.436 75.0708 462.693 76.1442 463.206 76.6575C463.72 77.1708 464.84 77.4275 466.566 77.4275ZM496.81 80.4375V78.8275C498.163 78.7342 499.143 78.3842 499.75 77.7775C500.357 77.1708 500.66 75.7242 500.66 73.4375V40.8875C500.66 38.6008 500.31 37.1542 499.61 36.5475C498.957 35.8942 497.673 35.5442 495.76 35.4975V33.8875H500.66C504.067 33.8875 507.263 33.8408 510.25 33.7475C513.237 33.6075 515.477 33.5375 516.97 33.5375C521.823 33.5375 525.65 34.0742 528.45 35.1475C531.297 36.2208 533.327 37.6442 534.54 39.4175C535.8 41.1442 536.43 43.0575 536.43 45.1575C536.43 47.5842 535.637 49.8942 534.05 52.0875C532.51 54.2808 530.037 55.9842 526.63 57.1975C523.27 58.3642 518.813 58.7375 513.26 58.3175V55.8675C515.78 55.9608 517.857 55.5175 519.49 54.5375C521.123 53.5108 522.313 52.1575 523.06 50.4775C523.853 48.7975 524.25 47.0008 524.25 45.0875C524.25 42.5208 523.527 40.4675 522.08 38.9275C520.633 37.3408 518.627 36.5475 516.06 36.5475C514.52 36.5475 513.423 36.8275 512.77 37.3875C512.163 37.9008 511.86 39.0675 511.86 40.8875V73.4375C511.86 74.9308 512 76.0742 512.28 76.8675C512.607 77.6142 513.167 78.1275 513.96 78.4075C514.8 78.6408 515.967 78.7808 517.46 78.8275V80.4375H496.81ZM543.819 81.4875C542.652 81.4875 541.416 81.3942 540.109 81.2075C538.802 81.0208 537.682 80.7642 536.749 80.4375V78.8275C537.682 78.8275 538.732 78.4542 539.899 77.7075C541.066 76.9608 542.256 75.4675 543.469 73.2275L553.479 55.0975C550.352 54.3042 547.972 53.0208 546.339 51.2475C544.752 49.4742 543.959 47.3275 543.959 44.8075C543.959 42.8475 544.542 41.0042 545.709 39.2775C546.922 37.5508 548.882 36.1742 551.589 35.1475C554.342 34.0742 558.029 33.5375 562.649 33.5375C564.142 33.5375 565.869 33.6075 567.829 33.7475C569.789 33.8408 571.959 33.8875 574.339 33.8875H583.299V35.4975C581.946 35.5442 580.966 35.8942 580.359 36.5475C579.752 37.1542 579.449 38.6008 579.449 40.8875V73.4375C579.449 75.7242 579.799 77.1708 580.499 77.7775C581.199 78.3842 582.482 78.7342 584.349 78.8275V80.4375H564.399V78.8275C565.752 78.7342 566.732 78.3842 567.339 77.7775C567.946 77.1708 568.249 75.7242 568.249 73.4375V40.8875C568.249 39.0675 567.922 37.9008 567.269 37.3875C566.662 36.8275 565.589 36.5475 564.049 36.5475C562.042 36.5475 560.222 37.2708 558.589 38.7175C557.002 40.1175 556.209 42.2408 556.209 45.0875C556.209 46.5808 556.512 48.0275 557.119 49.4275C557.726 50.7808 558.799 51.9242 560.339 52.8575C561.926 53.7908 564.096 54.3508 566.849 54.5375V56.9875C566.289 56.9875 565.799 57.1042 565.379 57.3375C564.959 57.5242 564.539 58.0142 564.119 58.8075L556.209 74.0675C555.136 76.1208 553.642 77.8708 551.729 79.3175C549.816 80.7642 547.179 81.4875 543.819 81.4875ZM639.967 67.4875H641.577L640.877 80.4375H607.137V78.8275C607.51 78.6408 608.07 78.3142 608.817 77.8475C609.61 77.3808 610.427 76.8442 611.267 76.2375C613.6 74.5575 615.793 72.6442 617.847 70.4975C619.9 68.3508 621.697 66.0642 623.237 63.6375C624.777 61.2108 625.99 58.7842 626.877 56.3575C627.763 53.9308 628.207 51.6208 628.207 49.4275C628.207 47.3275 627.693 45.5542 626.667 44.1075C625.687 42.6608 623.89 41.9375 621.277 41.9375C619.083 41.9375 617.053 42.5442 615.187 43.7575C613.32 44.9708 611.477 46.8608 609.657 49.4275L608.327 48.3075C610.24 43.4542 612.643 39.8375 615.537 37.4575C618.43 35.0775 622.047 33.8875 626.387 33.8875C628.907 33.8875 631.17 34.3075 633.177 35.1475C635.183 35.9408 636.77 37.2008 637.937 38.9275C639.15 40.6075 639.757 42.8008 639.757 45.5075C639.757 50.3142 638.217 54.8175 635.137 59.0175C632.103 63.2175 627.857 67.1608 622.397 70.8475V70.9875H632.617C635.277 70.9875 637.12 70.6608 638.147 70.0075C639.173 69.3542 639.78 68.5142 639.967 67.4875ZM669.76 33.8875C672.187 33.8875 674.567 34.3542 676.9 35.2875C679.233 36.2208 681.333 37.6675 683.2 39.6275C685.067 41.5875 686.537 44.0608 687.61 47.0475C688.73 49.9875 689.29 53.4875 689.29 57.5475C689.29 61.5608 688.753 65.0608 687.68 68.0475C686.607 71.0342 685.137 73.5308 683.27 75.5375C681.403 77.5442 679.303 79.0375 676.97 80.0175C674.637 80.9975 672.21 81.4875 669.69 81.4875C667.263 81.4875 664.883 81.0208 662.55 80.0875C660.217 79.1542 658.117 77.7075 656.25 75.7475C654.383 73.7875 652.89 71.3375 651.77 68.3975C650.697 65.4108 650.16 61.8875 650.16 57.8275C650.16 53.8142 650.697 50.3142 651.77 47.3275C652.843 44.3408 654.313 41.8442 656.18 39.8375C658.047 37.8308 660.147 36.3375 662.48 35.3575C664.813 34.3775 667.24 33.8875 669.76 33.8875ZM669.97 78.4775C671.323 78.4775 672.56 77.8708 673.68 76.6575C674.8 75.4442 675.687 73.3908 676.34 70.4975C677.04 67.6042 677.39 63.6375 677.39 58.5975C677.39 54.2108 677.087 50.4075 676.48 47.1875C675.92 43.9208 675.057 41.4008 673.89 39.6275C672.723 37.8075 671.253 36.8975 669.48 36.8975C668.173 36.8975 666.937 37.5042 665.77 38.7175C664.65 39.9308 663.74 41.9842 663.04 44.8775C662.387 47.7708 662.06 51.7375 662.06 56.7775C662.06 61.1642 662.34 64.9908 662.9 68.2575C663.507 71.4775 664.393 73.9975 665.56 75.8175C666.727 77.5908 668.197 78.4775 669.97 78.4775ZM727.945 67.4875H729.555L728.855 80.4375H695.115V78.8275C695.488 78.6408 696.048 78.3142 696.795 77.8475C697.588 77.3808 698.405 76.8442 699.245 76.2375C701.578 74.5575 703.772 72.6442 705.825 70.4975C707.878 68.3508 709.675 66.0642 711.215 63.6375C712.755 61.2108 713.968 58.7842 714.855 56.3575C715.742 53.9308 716.185 51.6208 716.185 49.4275C716.185 47.3275 715.672 45.5542 714.645 44.1075C713.665 42.6608 711.868 41.9375 709.255 41.9375C707.062 41.9375 705.032 42.5442 703.165 43.7575C701.298 44.9708 699.455 46.8608 697.635 49.4275L696.305 48.3075C698.218 43.4542 700.622 39.8375 703.515 37.4575C706.408 35.0775 710.025 33.8875 714.365 33.8875C716.885 33.8875 719.148 34.3075 721.155 35.1475C723.162 35.9408 724.748 37.2008 725.915 38.9275C727.128 40.6075 727.735 42.8008 727.735 45.5075C727.735 50.3142 726.195 54.8175 723.115 59.0175C720.082 63.2175 715.835 67.1608 710.375 70.8475V70.9875H720.595C723.255 70.9875 725.098 70.6608 726.125 70.0075C727.152 69.3542 727.758 68.5142 727.945 67.4875ZM766.838 62.5875H771.738V71.3375H768.798C767.492 71.3375 766.838 72.1542 766.838 73.7875C766.838 74.9075 766.838 76.0042 766.838 77.0775C766.885 78.1042 766.932 79.2242 766.978 80.4375H755.918C756.012 78.8975 756.082 77.4042 756.128 75.9575C756.175 74.4642 756.222 72.9242 756.268 71.3375H734.148V69.7275C735.362 68.5608 736.458 67.3475 737.438 66.0875L760.328 37.4575C760.842 36.8042 761.308 36.1742 761.728 35.5675C762.195 34.9142 762.568 34.3542 762.848 33.8875H766.908L766.838 62.5875ZM756.128 47.9575L744.438 62.5875H756.338V47.9575H756.128ZM829.168 33.8875V46.8375H827.558C827.325 44.7842 826.905 43.0342 826.298 41.5875C825.738 40.0942 824.851 38.9508 823.638 38.1575C822.471 37.3175 820.838 36.8975 818.738 36.8975H815.448C814.468 36.8975 813.698 37.1542 813.138 37.6675C812.625 38.1808 812.368 39.2542 812.368 40.8875V73.4375C812.368 75.7242 812.718 77.1708 813.418 77.7775C814.118 78.3842 815.401 78.7342 817.268 78.8275V80.4375H797.318V78.8275C798.671 78.7342 799.651 78.3842 800.258 77.7775C800.865 77.1708 801.168 75.7242 801.168 73.4375V40.8875C801.168 38.6008 800.818 37.1542 800.118 36.5475C799.465 35.8942 798.181 35.5442 796.268 35.4975V33.8875H829.168ZM857.212 32.8375C860.525 32.8375 863.605 33.3975 866.452 34.5175C869.298 35.6375 871.818 37.2708 874.012 39.4175C876.205 41.5175 877.908 44.0608 879.122 47.0475C880.335 50.0342 880.942 53.3708 880.942 57.0575C880.942 60.7442 880.335 64.0808 879.122 67.0675C877.908 70.0542 876.205 72.6208 874.012 74.7675C871.865 76.9142 869.345 78.5708 866.452 79.7375C863.558 80.9042 860.455 81.4875 857.142 81.4875C853.875 81.4875 850.795 80.9275 847.902 79.8075C845.055 78.6875 842.535 77.0775 840.342 74.9775C838.148 72.8308 836.445 70.2642 835.232 67.2775C834.018 64.2908 833.412 60.9542 833.412 57.2675C833.412 53.5808 834.018 50.2442 835.232 47.2575C836.445 44.2708 838.125 41.7042 840.272 39.5575C842.465 37.4108 845.008 35.7542 847.902 34.5875C850.795 33.4208 853.898 32.8375 857.212 32.8375ZM858.612 78.4775C861.038 78.4775 862.952 77.6842 864.352 76.0975C865.752 74.4642 866.755 72.2242 867.362 69.3775C868.015 66.5308 868.342 63.2175 868.342 59.4375C868.342 51.8308 867.175 45.9975 864.842 41.9375C862.555 37.8775 859.522 35.8475 855.742 35.8475C853.362 35.8475 851.448 36.6408 850.002 38.2275C848.602 39.8142 847.575 42.0542 846.922 44.9475C846.315 47.7942 846.012 51.1075 846.012 54.8875C846.012 62.4942 847.155 68.3275 849.442 72.3875C851.775 76.4475 854.832 78.4775 858.612 78.4775ZM911.297 39.4175L922.917 73.4375C923.337 74.6508 923.944 75.7708 924.737 76.7975C925.577 77.7775 926.86 78.4542 928.587 78.8275L925.367 94.7875H923.757C923.664 91.8942 923.244 89.3742 922.497 87.2275C921.75 85.0808 920.817 83.4008 919.697 82.1875C918.577 81.0208 917.364 80.4375 916.057 80.4375H897.297C895.57 80.4375 893.867 81.0208 892.187 82.1875C890.554 83.4008 889.154 85.0808 887.987 87.2275C886.867 89.3742 886.144 91.8942 885.817 94.7875H884.207V78.8275C885.047 78.4542 885.864 77.8242 886.657 76.9375C887.45 76.0042 888.174 74.9542 888.827 73.7875C889.527 72.6208 890.064 71.5242 890.437 70.4975L902.337 39.4175C902.804 38.2042 903.247 37.0142 903.667 35.8475C904.087 34.6808 904.46 33.4908 904.787 32.2775H908.847C909.174 33.4908 909.547 34.6808 909.967 35.8475C910.434 37.0142 910.877 38.2042 911.297 39.4175ZM908.357 77.4275C910.224 77.4275 911.25 77.1242 911.437 76.5175C911.624 75.9108 911.46 74.8842 910.947 73.4375L902.757 48.2375H902.617L891.697 77.4275H908.357ZM971.425 73.4375C972.078 75.0242 972.615 76.1908 973.035 76.9375C973.502 77.6842 973.992 78.1742 974.505 78.4075C975.018 78.5942 975.648 78.7342 976.395 78.8275V80.4375H956.865V78.8275C958.732 78.7342 959.758 78.1742 959.945 77.1475C960.178 76.1208 960.015 74.8842 959.455 73.4375L955.955 64.3375C955.675 64.5708 955.302 64.7342 954.835 64.8275C954.415 64.8742 953.948 64.8975 953.435 64.8975H945.525C944.545 64.8975 943.798 65.0142 943.285 65.2475C942.772 65.4808 942.328 66.0642 941.955 66.9975L939.435 73.4375C938.828 74.9775 938.875 76.2375 939.575 77.2175C940.275 78.1975 941.652 78.7342 943.705 78.8275V80.4375H930.965V78.8275C931.992 78.7342 932.855 78.2208 933.555 77.2875C934.302 76.3075 934.978 75.0242 935.585 73.4375L949.025 39.4175C949.538 38.2042 949.982 37.0142 950.355 35.8475C950.775 34.6808 951.148 33.4908 951.475 32.2775H955.535C955.862 33.4908 956.235 34.6808 956.655 35.8475C957.075 37.0142 957.518 38.2042 957.985 39.4175L971.425 73.4375ZM953.085 61.8875C953.738 61.8875 954.158 61.7942 954.345 61.6075C954.578 61.3742 954.555 60.9075 954.275 60.2075L949.445 48.2375H949.305L943.845 62.1675C944.078 62.0275 944.358 61.9575 944.685 61.9575C945.012 61.9108 945.385 61.8875 945.805 61.8875H953.085Z" fill="black"/>
<path d="M1047.16 49.4573C1040.18 46.6709 1031.99 48.157 1026.41 53.7299C1018.87 61.2534 1018.87 73.4209 1026.41 80.9444C1031.99 86.5173 1040.18 88.0035 1047.16 85.217V76.3003C1045.76 76.9505 1044.27 77.322 1042.69 77.322C1037.11 77.322 1032.64 72.8637 1032.64 67.2907C1032.64 61.7178 1037.11 57.2595 1042.69 57.2595C1044.27 57.2595 1045.85 57.631 1047.16 58.2812V49.4573Z" fill="black"/>
<path d="M1044 40.522C1046.74 37.7666 1046.74 33.206 1044 30.3556C1041.25 27.6002 1036.7 27.6002 1033.85 30.3556C1031.01 33.111 1031.11 37.6716 1033.85 40.522C1036.7 43.2774 1041.25 43.2774 1044 40.522Z" fill="black"/>
<path d="M1123.9 67.4875H1125.51L1124.81 80.4375H1091.07V78.8275C1091.44 78.6408 1092 78.3142 1092.75 77.8475C1093.54 77.3808 1094.36 76.8442 1095.2 76.2375C1097.53 74.5575 1099.72 72.6442 1101.78 70.4975C1103.83 68.3508 1105.63 66.0642 1107.17 63.6375C1108.71 61.2108 1109.92 58.7842 1110.81 56.3575C1111.69 53.9308 1112.14 51.6208 1112.14 49.4275C1112.14 47.3275 1111.62 45.5542 1110.6 44.1075C1109.62 42.6608 1107.82 41.9375 1105.21 41.9375C1103.01 41.9375 1100.98 42.5442 1099.12 43.7575C1097.25 44.9708 1095.41 46.8608 1093.59 49.4275L1092.26 48.3075C1094.17 43.4542 1096.57 39.8375 1099.47 37.4575C1102.36 35.0775 1105.98 33.8875 1110.32 33.8875C1112.84 33.8875 1115.1 34.3075 1117.11 35.1475C1119.11 35.9408 1120.7 37.2008 1121.87 38.9275C1123.08 40.6075 1123.69 42.8008 1123.69 45.5075C1123.69 50.3142 1122.15 54.8175 1119.07 59.0175C1116.03 63.2175 1111.79 67.1608 1106.33 70.8475V70.9875H1116.55C1119.21 70.9875 1121.05 70.6608 1122.08 70.0075C1123.1 69.3542 1123.71 68.5142 1123.9 67.4875ZM1153.69 33.8875C1156.12 33.8875 1158.5 34.3542 1160.83 35.2875C1163.16 36.2208 1165.26 37.6675 1167.13 39.6275C1169 41.5875 1170.47 44.0608 1171.54 47.0475C1172.66 49.9875 1173.22 53.4875 1173.22 57.5475C1173.22 61.5608 1172.68 65.0608 1171.61 68.0475C1170.54 71.0342 1169.07 73.5308 1167.2 75.5375C1165.33 77.5442 1163.23 79.0375 1160.9 80.0175C1158.57 80.9975 1156.14 81.4875 1153.62 81.4875C1151.19 81.4875 1148.81 81.0208 1146.48 80.0875C1144.15 79.1542 1142.05 77.7075 1140.18 75.7475C1138.31 73.7875 1136.82 71.3375 1135.7 68.3975C1134.63 65.4108 1134.09 61.8875 1134.09 57.8275C1134.09 53.8142 1134.63 50.3142 1135.7 47.3275C1136.77 44.3408 1138.24 41.8442 1140.11 39.8375C1141.98 37.8308 1144.08 36.3375 1146.41 35.3575C1148.74 34.3775 1151.17 33.8875 1153.69 33.8875ZM1153.9 78.4775C1155.25 78.4775 1156.49 77.8708 1157.61 76.6575C1158.73 75.4442 1159.62 73.3908 1160.27 70.4975C1160.97 67.6042 1161.32 63.6375 1161.32 58.5975C1161.32 54.2108 1161.02 50.4075 1160.41 47.1875C1159.85 43.9208 1158.99 41.4008 1157.82 39.6275C1156.65 37.8075 1155.18 36.8975 1153.41 36.8975C1152.1 36.8975 1150.87 37.5042 1149.7 38.7175C1148.58 39.9308 1147.67 41.9842 1146.97 44.8775C1146.32 47.7708 1145.99 51.7375 1145.99 56.7775C1145.99 61.1642 1146.27 64.9908 1146.83 68.2575C1147.44 71.4775 1148.32 73.9975 1149.49 75.8175C1150.66 77.5908 1152.13 78.4775 1153.9 78.4775ZM1220.73 59.2975L1199.03 61.1875L1198.54 55.5175L1220.24 53.6275L1220.73 59.2975ZM1274.9 67.4875H1276.51L1275.81 80.4375H1242.07V78.8275C1242.45 78.6408 1243.01 78.3142 1243.75 77.8475C1244.55 77.3808 1245.36 76.8442 1246.2 76.2375C1248.54 74.5575 1250.73 72.6442 1252.78 70.4975C1254.84 68.3508 1256.63 66.0642 1258.17 63.6375C1259.71 61.2108 1260.93 58.7842 1261.81 56.3575C1262.7 53.9308 1263.14 51.6208 1263.14 49.4275C1263.14 47.3275 1262.63 45.5542 1261.6 44.1075C1260.62 42.6608 1258.83 41.9375 1256.21 41.9375C1254.02 41.9375 1251.99 42.5442 1250.12 43.7575C1248.26 44.9708 1246.41 46.8608 1244.59 49.4275L1243.26 48.3075C1245.18 43.4542 1247.58 39.8375 1250.47 37.4575C1253.37 35.0775 1256.98 33.8875 1261.32 33.8875C1263.84 33.8875 1266.11 34.3075 1268.11 35.1475C1270.12 35.9408 1271.71 37.2008 1272.87 38.9275C1274.09 40.6075 1274.69 42.8008 1274.69 45.5075C1274.69 50.3142 1273.15 54.8175 1270.07 59.0175C1267.04 63.2175 1262.79 67.1608 1257.33 70.8475V70.9875H1267.55C1270.21 70.9875 1272.06 70.6608 1273.08 70.0075C1274.11 69.3542 1274.72 68.5142 1274.9 67.4875ZM1303.51 72.7375C1303.51 74.4642 1303.65 75.7708 1303.93 76.6575C1304.25 77.4975 1304.91 78.0575 1305.89 78.3375C1306.91 78.6175 1308.45 78.7808 1310.51 78.8275V80.4375H1284.61V78.8275C1286.71 78.7808 1288.25 78.6175 1289.23 78.3375C1290.25 78.0575 1290.91 77.4975 1291.19 76.6575C1291.47 75.7708 1291.61 74.4642 1291.61 72.7375V42.2875L1285.17 46.2775L1283.7 44.0375L1299.94 33.8875H1304C1303.81 34.7742 1303.67 35.6608 1303.58 36.5475C1303.53 37.4342 1303.51 38.3208 1303.51 39.2075V72.7375ZM1335.52 80.4375V78.8275C1336.88 78.7342 1337.86 78.3842 1338.46 77.7775C1339.07 77.1708 1339.37 75.7242 1339.37 73.4375V40.8875C1339.37 38.6008 1339.02 37.1542 1338.32 36.5475C1337.67 35.8942 1336.39 35.5442 1334.47 35.4975V33.8875H1354.42V35.4975C1353.07 35.5442 1352.09 35.8942 1351.48 36.5475C1350.88 37.1542 1350.57 38.6008 1350.57 40.8875V53.2775C1350.95 52.9975 1351.39 52.8108 1351.9 52.7175C1352.46 52.6242 1353.12 52.5775 1353.86 52.5775H1367.09C1368.35 52.5775 1369.24 52.3675 1369.75 51.9475C1370.27 51.5275 1370.52 50.6875 1370.52 49.4275V40.8875C1370.52 38.6008 1370.17 37.1542 1369.47 36.5475C1368.82 35.8942 1367.54 35.5442 1365.62 35.4975V33.8875H1385.57V35.4975C1384.22 35.5442 1383.24 35.8942 1382.63 36.5475C1382.03 37.1542 1381.72 38.6008 1381.72 40.8875V73.4375C1381.72 75.7242 1382.07 77.1708 1382.77 77.7775C1383.47 78.3842 1384.76 78.7342 1386.62 78.8275V80.4375H1366.67V78.8275C1368.03 78.7342 1369.01 78.3842 1369.61 77.7775C1370.22 77.1708 1370.52 75.7242 1370.52 73.4375V54.8175C1370.15 55.1442 1369.68 55.3542 1369.12 55.4475C1368.56 55.5408 1367.93 55.5875 1367.23 55.5875H1354C1352.74 55.5875 1351.86 55.7975 1351.34 56.2175C1350.83 56.6375 1350.57 57.4542 1350.57 58.6675V73.4375C1350.57 75.7242 1350.92 77.1708 1351.62 77.7775C1352.32 78.3842 1353.61 78.7342 1355.47 78.8275V80.4375H1335.52ZM1417.5 32.8375C1420.81 32.8375 1423.89 33.3975 1426.74 34.5175C1429.59 35.6375 1432.11 37.2708 1434.3 39.4175C1436.49 41.5175 1438.2 44.0608 1439.41 47.0475C1440.62 50.0342 1441.23 53.3708 1441.23 57.0575C1441.23 60.7442 1440.62 64.0808 1439.41 67.0675C1438.2 70.0542 1436.49 72.6208 1434.3 74.7675C1432.15 76.9142 1429.63 78.5708 1426.74 79.7375C1423.85 80.9042 1420.74 81.4875 1417.43 81.4875C1414.16 81.4875 1411.08 80.9275 1408.19 79.8075C1405.34 78.6875 1402.82 77.0775 1400.63 74.9775C1398.44 72.8308 1396.73 70.2642 1395.52 67.2775C1394.31 64.2908 1393.7 60.9542 1393.7 57.2675C1393.7 53.5808 1394.31 50.2442 1395.52 47.2575C1396.73 44.2708 1398.41 41.7042 1400.56 39.5575C1402.75 37.4108 1405.3 35.7542 1408.19 34.5875C1411.08 33.4208 1414.19 32.8375 1417.5 32.8375ZM1418.9 78.4775C1421.33 78.4775 1423.24 77.6842 1424.64 76.0975C1426.04 74.4642 1427.04 72.2242 1427.65 69.3775C1428.3 66.5308 1428.63 63.2175 1428.63 59.4375C1428.63 51.8308 1427.46 45.9975 1425.13 41.9375C1422.84 37.8775 1419.81 35.8475 1416.03 35.8475C1413.65 35.8475 1411.74 36.6408 1410.29 38.2275C1408.89 39.8142 1407.86 42.0542 1407.21 44.9475C1406.6 47.7942 1406.3 51.1075 1406.3 54.8875C1406.3 62.4942 1407.44 68.3275 1409.73 72.3875C1412.06 76.4475 1415.12 78.4775 1418.9 78.4775ZM1449.18 81.4875C1448.02 81.4875 1446.78 81.3942 1445.47 81.2075C1444.17 81.0208 1443.05 80.7642 1442.11 80.4375V78.8275C1443.05 78.8275 1444.1 78.4542 1445.26 77.7075C1446.43 76.9608 1447.62 75.4675 1448.83 73.2275L1458.84 55.0975C1455.72 54.3042 1453.34 53.0208 1451.7 51.2475C1450.12 49.4742 1449.32 47.3275 1449.32 44.8075C1449.32 42.8475 1449.91 41.0042 1451.07 39.2775C1452.29 37.5508 1454.25 36.1742 1456.95 35.1475C1459.71 34.0742 1463.39 33.5375 1468.01 33.5375C1469.51 33.5375 1471.23 33.6075 1473.19 33.7475C1475.15 33.8408 1477.32 33.8875 1479.7 33.8875H1488.66V35.4975C1487.31 35.5442 1486.33 35.8942 1485.72 36.5475C1485.12 37.1542 1484.81 38.6008 1484.81 40.8875V73.4375C1484.81 75.7242 1485.16 77.1708 1485.86 77.7775C1486.56 78.3842 1487.85 78.7342 1489.71 78.8275V80.4375H1469.76V78.8275C1471.12 78.7342 1472.1 78.3842 1472.7 77.7775C1473.31 77.1708 1473.61 75.7242 1473.61 73.4375V40.8875C1473.61 39.0675 1473.29 37.9008 1472.63 37.3875C1472.03 36.8275 1470.95 36.5475 1469.41 36.5475C1467.41 36.5475 1465.59 37.2708 1463.95 38.7175C1462.37 40.1175 1461.57 42.2408 1461.57 45.0875C1461.57 46.5808 1461.88 48.0275 1462.48 49.4275C1463.09 50.7808 1464.16 51.9242 1465.7 52.8575C1467.29 53.7908 1469.46 54.3508 1472.21 54.5375V56.9875C1471.65 56.9875 1471.16 57.1042 1470.74 57.3375C1470.32 57.5242 1469.9 58.0142 1469.48 58.8075L1461.57 74.0675C1460.5 76.1208 1459.01 77.8708 1457.09 79.3175C1455.18 80.7642 1452.54 81.4875 1449.18 81.4875ZM1511.83 52.4375H1518.62C1523.71 52.4375 1527.72 52.9975 1530.66 54.1175C1533.6 55.2375 1535.68 56.7775 1536.89 58.7375C1538.15 60.6975 1538.78 62.9608 1538.78 65.5275C1538.78 68.0942 1538.08 70.5208 1536.68 72.8075C1535.33 75.0475 1533.21 76.8908 1530.31 78.3375C1527.47 79.7375 1523.83 80.4375 1519.39 80.4375H1496.78V78.8275C1498.14 78.7342 1499.12 78.3842 1499.72 77.7775C1500.33 77.1708 1500.63 75.7242 1500.63 73.4375V40.8875C1500.63 38.6008 1500.28 37.1542 1499.58 36.5475C1498.93 35.8942 1497.65 35.5442 1495.73 35.4975V33.8875H1534.23V45.4375H1532.62C1532.48 43.8508 1532.18 42.4275 1531.71 41.1675C1531.25 39.8608 1530.45 38.8342 1529.33 38.0875C1528.21 37.2942 1526.6 36.8975 1524.5 36.8975H1514.91C1513.93 36.8975 1513.16 37.1542 1512.6 37.6675C1512.09 38.1808 1511.83 39.2542 1511.83 40.8875V52.4375ZM1515.96 77.4275C1518.44 77.4275 1520.47 76.8442 1522.05 75.6775C1523.69 74.4642 1524.9 72.9708 1525.69 71.1975C1526.49 69.4242 1526.88 67.6742 1526.88 65.9475C1526.88 63.3808 1526.39 61.3275 1525.41 59.7875C1524.48 58.2475 1523.2 57.1508 1521.56 56.4975C1519.98 55.7975 1518.18 55.4475 1516.17 55.4475H1511.83V73.4375C1511.83 75.0708 1512.09 76.1442 1512.6 76.6575C1513.12 77.1708 1514.24 77.4275 1515.96 77.4275ZM1546.21 80.4375V78.8275C1547.56 78.7342 1548.54 78.3842 1549.15 77.7775C1549.76 77.1708 1550.06 75.7242 1550.06 73.4375V40.8875C1550.06 38.6008 1549.71 37.1542 1549.01 36.5475C1548.36 35.8942 1547.07 35.5442 1545.16 35.4975V33.8875H1550.06C1553.47 33.8875 1556.66 33.8408 1559.65 33.7475C1562.64 33.6075 1564.88 33.5375 1566.37 33.5375C1571.22 33.5375 1575.05 34.0742 1577.85 35.1475C1580.7 36.2208 1582.73 37.6442 1583.94 39.4175C1585.2 41.1442 1585.83 43.0575 1585.83 45.1575C1585.83 47.5842 1585.04 49.8942 1583.45 52.0875C1581.91 54.2808 1579.44 55.9842 1576.03 57.1975C1572.67 58.3642 1568.21 58.7375 1562.66 58.3175V55.8675C1565.18 55.9608 1567.26 55.5175 1568.89 54.5375C1570.52 53.5108 1571.71 52.1575 1572.46 50.4775C1573.25 48.7975 1573.65 47.0008 1573.65 45.0875C1573.65 42.5208 1572.93 40.4675 1571.48 38.9275C1570.03 37.3408 1568.03 36.5475 1565.46 36.5475C1563.92 36.5475 1562.82 36.8275 1562.17 37.3875C1561.56 37.9008 1561.26 39.0675 1561.26 40.8875V73.4375C1561.26 74.9308 1561.4 76.0742 1561.68 76.8675C1562.01 77.6142 1562.57 78.1275 1563.36 78.4075C1564.2 78.6408 1565.37 78.7808 1566.86 78.8275V80.4375H1546.21ZM1593.22 81.4875C1592.05 81.4875 1590.81 81.3942 1589.51 81.2075C1588.2 81.0208 1587.08 80.7642 1586.15 80.4375V78.8275C1587.08 78.8275 1588.13 78.4542 1589.3 77.7075C1590.46 76.9608 1591.65 75.4675 1592.87 73.2275L1602.88 55.0975C1599.75 54.3042 1597.37 53.0208 1595.74 51.2475C1594.15 49.4742 1593.36 47.3275 1593.36 44.8075C1593.36 42.8475 1593.94 41.0042 1595.11 39.2775C1596.32 37.5508 1598.28 36.1742 1600.99 35.1475C1603.74 34.0742 1607.43 33.5375 1612.05 33.5375C1613.54 33.5375 1615.27 33.6075 1617.23 33.7475C1619.19 33.8408 1621.36 33.8875 1623.74 33.8875H1632.7V35.4975C1631.34 35.5442 1630.36 35.8942 1629.76 36.5475C1629.15 37.1542 1628.85 38.6008 1628.85 40.8875V73.4375C1628.85 75.7242 1629.2 77.1708 1629.9 77.7775C1630.6 78.3842 1631.88 78.7342 1633.75 78.8275V80.4375H1613.8V78.8275C1615.15 78.7342 1616.13 78.3842 1616.74 77.7775C1617.34 77.1708 1617.65 75.7242 1617.65 73.4375V40.8875C1617.65 39.0675 1617.32 37.9008 1616.67 37.3875C1616.06 36.8275 1614.99 36.5475 1613.45 36.5475C1611.44 36.5475 1609.62 37.2708 1607.99 38.7175C1606.4 40.1175 1605.61 42.2408 1605.61 45.0875C1605.61 46.5808 1605.91 48.0275 1606.52 49.4275C1607.12 50.7808 1608.2 51.9242 1609.74 52.8575C1611.32 53.7908 1613.49 54.3508 1616.25 54.5375V56.9875C1615.69 56.9875 1615.2 57.1042 1614.78 57.3375C1614.36 57.5242 1613.94 58.0142 1613.52 58.8075L1605.61 74.0675C1604.53 76.1208 1603.04 77.8708 1601.13 79.3175C1599.21 80.7642 1596.58 81.4875 1593.22 81.4875ZM1689.37 67.4875H1690.98L1690.28 80.4375H1656.54V78.8275C1656.91 78.6408 1657.47 78.3142 1658.22 77.8475C1659.01 77.3808 1659.83 76.8442 1660.67 76.2375C1663 74.5575 1665.19 72.6442 1667.25 70.4975C1669.3 68.3508 1671.1 66.0642 1672.64 63.6375C1674.18 61.2108 1675.39 58.7842 1676.28 56.3575C1677.16 53.9308 1677.61 51.6208 1677.61 49.4275C1677.61 47.3275 1677.09 45.5542 1676.07 44.1075C1675.09 42.6608 1673.29 41.9375 1670.68 41.9375C1668.48 41.9375 1666.45 42.5442 1664.59 43.7575C1662.72 44.9708 1660.88 46.8608 1659.06 49.4275L1657.73 48.3075C1659.64 43.4542 1662.04 39.8375 1664.94 37.4575C1667.83 35.0775 1671.45 33.8875 1675.79 33.8875C1678.31 33.8875 1680.57 34.3075 1682.58 35.1475C1684.58 35.9408 1686.17 37.2008 1687.34 38.9275C1688.55 40.6075 1689.16 42.8008 1689.16 45.5075C1689.16 50.3142 1687.62 54.8175 1684.54 59.0175C1681.5 63.2175 1677.26 67.1608 1671.8 70.8475V70.9875H1682.02C1684.68 70.9875 1686.52 70.6608 1687.55 70.0075C1688.57 69.3542 1689.18 68.5142 1689.37 67.4875ZM1719.16 33.8875C1721.58 33.8875 1723.96 34.3542 1726.3 35.2875C1728.63 36.2208 1730.73 37.6675 1732.6 39.6275C1734.46 41.5875 1735.93 44.0608 1737.01 47.0475C1738.13 49.9875 1738.69 53.4875 1738.69 57.5475C1738.69 61.5608 1738.15 65.0608 1737.08 68.0475C1736 71.0342 1734.53 73.5308 1732.67 75.5375C1730.8 77.5442 1728.7 79.0375 1726.37 80.0175C1724.03 80.9975 1721.61 81.4875 1719.09 81.4875C1716.66 81.4875 1714.28 81.0208 1711.95 80.0875C1709.61 79.1542 1707.51 77.7075 1705.65 75.7475C1703.78 73.7875 1702.29 71.3375 1701.17 68.3975C1700.09 65.4108 1699.56 61.8875 1699.56 57.8275C1699.56 53.8142 1700.09 50.3142 1701.17 47.3275C1702.24 44.3408 1703.71 41.8442 1705.58 39.8375C1707.44 37.8308 1709.54 36.3375 1711.88 35.3575C1714.21 34.3775 1716.64 33.8875 1719.16 33.8875ZM1719.37 78.4775C1720.72 78.4775 1721.96 77.8708 1723.08 76.6575C1724.2 75.4442 1725.08 73.3908 1725.74 70.4975C1726.44 67.6042 1726.79 63.6375 1726.79 58.5975C1726.79 54.2108 1726.48 50.4075 1725.88 47.1875C1725.32 43.9208 1724.45 41.4008 1723.29 39.6275C1722.12 37.8075 1720.65 36.8975 1718.88 36.8975C1717.57 36.8975 1716.33 37.5042 1715.17 38.7175C1714.05 39.9308 1713.14 41.9842 1712.44 44.8775C1711.78 47.7708 1711.46 51.7375 1711.46 56.7775C1711.46 61.1642 1711.74 64.9908 1712.3 68.2575C1712.9 71.4775 1713.79 73.9975 1714.96 75.8175C1716.12 77.5908 1717.59 78.4775 1719.37 78.4775ZM1777.34 67.4875H1778.95L1778.25 80.4375H1744.51V78.8275C1744.89 78.6408 1745.45 78.3142 1746.19 77.8475C1746.99 77.3808 1747.8 76.8442 1748.64 76.2375C1750.98 74.5575 1753.17 72.6442 1755.22 70.4975C1757.28 68.3508 1759.07 66.0642 1760.61 63.6375C1762.15 61.2108 1763.37 58.7842 1764.25 56.3575C1765.14 53.9308 1765.58 51.6208 1765.58 49.4275C1765.58 47.3275 1765.07 45.5542 1764.04 44.1075C1763.06 42.6608 1761.27 41.9375 1758.65 41.9375C1756.46 41.9375 1754.43 42.5442 1752.56 43.7575C1750.7 44.9708 1748.85 46.8608 1747.03 49.4275L1745.7 48.3075C1747.62 43.4542 1750.02 39.8375 1752.91 37.4575C1755.81 35.0775 1759.42 33.8875 1763.76 33.8875C1766.28 33.8875 1768.55 34.3075 1770.55 35.1475C1772.56 35.9408 1774.15 37.2008 1775.31 38.9275C1776.53 40.6075 1777.13 42.8008 1777.13 45.5075C1777.13 50.3142 1775.59 54.8175 1772.51 59.0175C1769.48 63.2175 1765.23 67.1608 1759.77 70.8475V70.9875H1769.99C1772.65 70.9875 1774.5 70.6608 1775.52 70.0075C1776.55 69.3542 1777.16 68.5142 1777.34 67.4875ZM1816.24 62.5875H1821.14V71.3375H1818.2C1816.89 71.3375 1816.24 72.1542 1816.24 73.7875C1816.24 74.9075 1816.24 76.0042 1816.24 77.0775C1816.28 78.1042 1816.33 79.2242 1816.38 80.4375H1805.32C1805.41 78.8975 1805.48 77.4042 1805.53 75.9575C1805.57 74.4642 1805.62 72.9242 1805.67 71.3375H1783.55V69.7275C1784.76 68.5608 1785.86 67.3475 1786.84 66.0875L1809.73 37.4575C1810.24 36.8042 1810.71 36.1742 1811.13 35.5675C1811.59 34.9142 1811.97 34.3542 1812.25 33.8875H1816.31L1816.24 62.5875ZM1805.53 47.9575L1793.84 62.5875H1805.74V47.9575H1805.53ZM1878.57 33.8875V46.8375H1876.96C1876.72 44.7842 1876.3 43.0342 1875.7 41.5875C1875.14 40.0942 1874.25 38.9508 1873.04 38.1575C1871.87 37.3175 1870.24 36.8975 1868.14 36.8975H1864.85C1863.87 36.8975 1863.1 37.1542 1862.54 37.6675C1862.02 38.1808 1861.77 39.2542 1861.77 40.8875V73.4375C1861.77 75.7242 1862.12 77.1708 1862.82 77.7775C1863.52 78.3842 1864.8 78.7342 1866.67 78.8275V80.4375H1846.72V78.8275C1848.07 78.7342 1849.05 78.3842 1849.66 77.7775C1850.26 77.1708 1850.57 75.7242 1850.57 73.4375V40.8875C1850.57 38.6008 1850.22 37.1542 1849.52 36.5475C1848.86 35.8942 1847.58 35.5442 1845.67 35.4975V33.8875H1878.57ZM1906.61 32.8375C1909.92 32.8375 1913 33.3975 1915.85 34.5175C1918.7 35.6375 1921.22 37.2708 1923.41 39.4175C1925.6 41.5175 1927.31 44.0608 1928.52 47.0475C1929.73 50.0342 1930.34 53.3708 1930.34 57.0575C1930.34 60.7442 1929.73 64.0808 1928.52 67.0675C1927.31 70.0542 1925.6 72.6208 1923.41 74.7675C1921.26 76.9142 1918.74 78.5708 1915.85 79.7375C1912.96 80.9042 1909.85 81.4875 1906.54 81.4875C1903.27 81.4875 1900.19 80.9275 1897.3 79.8075C1894.45 78.6875 1891.93 77.0775 1889.74 74.9775C1887.55 72.8308 1885.84 70.2642 1884.63 67.2775C1883.42 64.2908 1882.81 60.9542 1882.81 57.2675C1882.81 53.5808 1883.42 50.2442 1884.63 47.2575C1885.84 44.2708 1887.52 41.7042 1889.67 39.5575C1891.86 37.4108 1894.41 35.7542 1897.3 34.5875C1900.19 33.4208 1903.3 32.8375 1906.61 32.8375ZM1908.01 78.4775C1910.44 78.4775 1912.35 77.6842 1913.75 76.0975C1915.15 74.4642 1916.15 72.2242 1916.76 69.3775C1917.41 66.5308 1917.74 63.2175 1917.74 59.4375C1917.74 51.8308 1916.57 45.9975 1914.24 41.9375C1911.95 37.8775 1908.92 35.8475 1905.14 35.8475C1902.76 35.8475 1900.85 36.6408 1899.4 38.2275C1898 39.8142 1896.97 42.0542 1896.32 44.9475C1895.71 47.7942 1895.41 51.1075 1895.41 54.8875C1895.41 62.4942 1896.55 68.3275 1898.84 72.3875C1901.17 76.4475 1904.23 78.4775 1908.01 78.4775ZM1960.7 39.4175L1972.32 73.4375C1972.74 74.6508 1973.34 75.7708 1974.14 76.7975C1974.98 77.7775 1976.26 78.4542 1977.99 78.8275L1974.77 94.7875H1973.16C1973.06 91.8942 1972.64 89.3742 1971.9 87.2275C1971.15 85.0808 1970.22 83.4008 1969.1 82.1875C1967.98 81.0208 1966.76 80.4375 1965.46 80.4375H1946.7C1944.97 80.4375 1943.27 81.0208 1941.59 82.1875C1939.95 83.4008 1938.55 85.0808 1937.39 87.2275C1936.27 89.3742 1935.54 91.8942 1935.22 94.7875H1933.61V78.8275C1934.45 78.4542 1935.26 77.8242 1936.06 76.9375C1936.85 76.0042 1937.57 74.9542 1938.23 73.7875C1938.93 72.6208 1939.46 71.5242 1939.84 70.4975L1951.74 39.4175C1952.2 38.2042 1952.65 37.0142 1953.07 35.8475C1953.49 34.6808 1953.86 33.4908 1954.19 32.2775H1958.25C1958.57 33.4908 1958.95 34.6808 1959.37 35.8475C1959.83 37.0142 1960.28 38.2042 1960.7 39.4175ZM1957.76 77.4275C1959.62 77.4275 1960.65 77.1242 1960.84 76.5175C1961.02 75.9108 1960.86 74.8842 1960.35 73.4375L1952.16 48.2375H1952.02L1941.1 77.4275H1957.76ZM2020.82 73.4375C2021.48 75.0242 2022.01 76.1908 2022.43 76.9375C2022.9 77.6842 2023.39 78.1742 2023.9 78.4075C2024.42 78.5942 2025.05 78.7342 2025.79 78.8275V80.4375H2006.26V78.8275C2008.13 78.7342 2009.16 78.1742 2009.34 77.1475C2009.58 76.1208 2009.41 74.8842 2008.85 73.4375L2005.35 64.3375C2005.07 64.5708 2004.7 64.7342 2004.23 64.8275C2003.81 64.8742 2003.35 64.8975 2002.83 64.8975H1994.92C1993.94 64.8975 1993.2 65.0142 1992.68 65.2475C1992.17 65.4808 1991.73 66.0642 1991.35 66.9975L1988.83 73.4375C1988.23 74.9775 1988.27 76.2375 1988.97 77.2175C1989.67 78.1975 1991.05 78.7342 1993.1 78.8275V80.4375H1980.36V78.8275C1981.39 78.7342 1982.25 78.2208 1982.95 77.2875C1983.7 76.3075 1984.38 75.0242 1984.98 73.4375L1998.42 39.4175C1998.94 38.2042 1999.38 37.0142 1999.75 35.8475C2000.17 34.6808 2000.55 33.4908 2000.87 32.2775H2004.93C2005.26 33.4908 2005.63 34.6808 2006.05 35.8475C2006.47 37.0142 2006.92 38.2042 2007.38 39.4175L2020.82 73.4375ZM2002.48 61.8875C2003.14 61.8875 2003.56 61.7942 2003.74 61.6075C2003.98 61.3742 2003.95 60.9075 2003.67 60.2075L1998.84 48.2375H1998.7L1993.24 62.1675C1993.48 62.0275 1993.76 61.9575 1994.08 61.9575C1994.41 61.9108 1994.78 61.8875 1995.2 61.8875H2002.48Z" fill="black"/>
<path d="M2096.56 49.4573C2089.58 46.6709 2081.39 48.157 2075.81 53.7299C2068.27 61.2534 2068.27 73.4209 2075.81 80.9444C2081.39 86.5173 2089.58 88.0035 2096.56 85.217V76.3003C2095.16 76.9505 2093.67 77.322 2092.09 77.322C2086.51 77.322 2082.04 72.8637 2082.04 67.2907C2082.04 61.7178 2086.51 57.2595 2092.09 57.2595C2093.67 57.2595 2095.25 57.631 2096.56 58.2812V49.4573Z" fill="black"/>
<path d="M2093.39 40.522C2096.14 37.7666 2096.14 33.206 2093.39 30.3556C2090.65 27.6002 2086.1 27.6002 2083.25 30.3556C2080.41 33.111 2080.5 37.6716 2083.25 40.522C2086.1 43.2774 2090.65 43.2774 2093.39 40.522Z" fill="black"/>
<path d="M2173.29 67.4875H2174.9L2174.2 80.4375H2140.46V78.8275C2140.84 78.6408 2141.4 78.3142 2142.14 77.8475C2142.94 77.3808 2143.75 76.8442 2144.59 76.2375C2146.93 74.5575 2149.12 72.6442 2151.17 70.4975C2153.23 68.3508 2155.02 66.0642 2156.56 63.6375C2158.1 61.2108 2159.32 58.7842 2160.2 56.3575C2161.09 53.9308 2161.53 51.6208 2161.53 49.4275C2161.53 47.3275 2161.02 45.5542 2159.99 44.1075C2159.01 42.6608 2157.22 41.9375 2154.6 41.9375C2152.41 41.9375 2150.38 42.5442 2148.51 43.7575C2146.65 44.9708 2144.8 46.8608 2142.98 49.4275L2141.65 48.3075C2143.57 43.4542 2145.97 39.8375 2148.86 37.4575C2151.76 35.0775 2155.37 33.8875 2159.71 33.8875C2162.23 33.8875 2164.5 34.3075 2166.5 35.1475C2168.51 35.9408 2170.1 37.2008 2171.26 38.9275C2172.48 40.6075 2173.08 42.8008 2173.08 45.5075C2173.08 50.3142 2171.54 54.8175 2168.46 59.0175C2165.43 63.2175 2161.18 67.1608 2155.72 70.8475V70.9875H2165.94C2168.6 70.9875 2170.45 70.6608 2171.47 70.0075C2172.5 69.3542 2173.11 68.5142 2173.29 67.4875ZM2203.09 33.8875C2205.51 33.8875 2207.89 34.3542 2210.23 35.2875C2212.56 36.2208 2214.66 37.6675 2216.53 39.6275C2218.39 41.5875 2219.86 44.0608 2220.94 47.0475C2222.06 49.9875 2222.62 53.4875 2222.62 57.5475C2222.62 61.5608 2222.08 65.0608 2221.01 68.0475C2219.93 71.0342 2218.46 73.5308 2216.6 75.5375C2214.73 77.5442 2212.63 79.0375 2210.3 80.0175C2207.96 80.9975 2205.54 81.4875 2203.02 81.4875C2200.59 81.4875 2198.21 81.0208 2195.88 80.0875C2193.54 79.1542 2191.44 77.7075 2189.58 75.7475C2187.71 73.7875 2186.22 71.3375 2185.1 68.3975C2184.02 65.4108 2183.49 61.8875 2183.49 57.8275C2183.49 53.8142 2184.02 50.3142 2185.1 47.3275C2186.17 44.3408 2187.64 41.8442 2189.51 39.8375C2191.37 37.8308 2193.47 36.3375 2195.81 35.3575C2198.14 34.3775 2200.57 33.8875 2203.09 33.8875ZM2203.3 78.4775C2204.65 78.4775 2205.89 77.8708 2207.01 76.6575C2208.13 75.4442 2209.01 73.3908 2209.67 70.4975C2210.37 67.6042 2210.72 63.6375 2210.72 58.5975C2210.72 54.2108 2210.41 50.4075 2209.81 47.1875C2209.25 43.9208 2208.38 41.4008 2207.22 39.6275C2206.05 37.8075 2204.58 36.8975 2202.81 36.8975C2201.5 36.8975 2200.26 37.5042 2199.1 38.7175C2197.98 39.9308 2197.07 41.9842 2196.37 44.8775C2195.71 47.7708 2195.39 51.7375 2195.39 56.7775C2195.39 61.1642 2195.67 64.9908 2196.23 68.2575C2196.83 71.4775 2197.72 73.9975 2198.89 75.8175C2200.05 77.5908 2201.52 78.4775 2203.3 78.4775ZM2270.13 59.2975L2248.43 61.1875L2247.94 55.5175L2269.64 53.6275L2270.13 59.2975ZM2324.3 67.4875H2325.91L2325.21 80.4375H2291.47V78.8275C2291.84 78.6408 2292.4 78.3142 2293.15 77.8475C2293.94 77.3808 2294.76 76.8442 2295.6 76.2375C2297.93 74.5575 2300.13 72.6442 2302.18 70.4975C2304.23 68.3508 2306.03 66.0642 2307.57 63.6375C2309.11 61.2108 2310.32 58.7842 2311.21 56.3575C2312.1 53.9308 2312.54 51.6208 2312.54 49.4275C2312.54 47.3275 2312.03 45.5542 2311 44.1075C2310.02 42.6608 2308.22 41.9375 2305.61 41.9375C2303.42 41.9375 2301.39 42.5442 2299.52 43.7575C2297.65 44.9708 2295.81 46.8608 2293.99 49.4275L2292.66 48.3075C2294.57 43.4542 2296.98 39.8375 2299.87 37.4575C2302.76 35.0775 2306.38 33.8875 2310.72 33.8875C2313.24 33.8875 2315.5 34.3075 2317.51 35.1475C2319.52 35.9408 2321.1 37.2008 2322.27 38.9275C2323.48 40.6075 2324.09 42.8008 2324.09 45.5075C2324.09 50.3142 2322.55 54.8175 2319.47 59.0175C2316.44 63.2175 2312.19 67.1608 2306.73 70.8475V70.9875H2316.95C2319.61 70.9875 2321.45 70.6608 2322.48 70.0075C2323.51 69.3542 2324.11 68.5142 2324.3 67.4875ZM2352.9 72.7375C2352.9 74.4642 2353.04 75.7708 2353.32 76.6575C2353.65 77.4975 2354.3 78.0575 2355.28 78.3375C2356.31 78.6175 2357.85 78.7808 2359.9 78.8275V80.4375H2334V78.8275C2336.1 78.7808 2337.64 78.6175 2338.62 78.3375C2339.65 78.0575 2340.3 77.4975 2340.58 76.6575C2340.86 75.7708 2341 74.4642 2341 72.7375V42.2875L2334.56 46.2775L2333.09 44.0375L2349.33 33.8875H2353.39C2353.21 34.7742 2353.07 35.6608 2352.97 36.5475C2352.93 37.4342 2352.9 38.3208 2352.9 39.2075V72.7375ZM2384.92 80.4375V78.8275C2386.28 78.7342 2387.26 78.3842 2387.86 77.7775C2388.47 77.1708 2388.77 75.7242 2388.77 73.4375V40.8875C2388.77 38.6008 2388.42 37.1542 2387.72 36.5475C2387.07 35.8942 2385.79 35.5442 2383.87 35.4975V33.8875H2403.82V35.4975C2402.47 35.5442 2401.49 35.8942 2400.88 36.5475C2400.28 37.1542 2399.97 38.6008 2399.97 40.8875V53.2775C2400.35 52.9975 2400.79 52.8108 2401.3 52.7175C2401.86 52.6242 2402.52 52.5775 2403.26 52.5775H2416.49C2417.75 52.5775 2418.64 52.3675 2419.15 51.9475C2419.67 51.5275 2419.92 50.6875 2419.92 49.4275V40.8875C2419.92 38.6008 2419.57 37.1542 2418.87 36.5475C2418.22 35.8942 2416.94 35.5442 2415.02 35.4975V33.8875H2434.97V35.4975C2433.62 35.5442 2432.64 35.8942 2432.03 36.5475C2431.43 37.1542 2431.12 38.6008 2431.12 40.8875V73.4375C2431.12 75.7242 2431.47 77.1708 2432.17 77.7775C2432.87 78.3842 2434.16 78.7342 2436.02 78.8275V80.4375H2416.07V78.8275C2417.43 78.7342 2418.41 78.3842 2419.01 77.7775C2419.62 77.1708 2419.92 75.7242 2419.92 73.4375V54.8175C2419.55 55.1442 2419.08 55.3542 2418.52 55.4475C2417.96 55.5408 2417.33 55.5875 2416.63 55.5875H2403.4C2402.14 55.5875 2401.26 55.7975 2400.74 56.2175C2400.23 56.6375 2399.97 57.4542 2399.97 58.6675V73.4375C2399.97 75.7242 2400.32 77.1708 2401.02 77.7775C2401.72 78.3842 2403.01 78.7342 2404.87 78.8275V80.4375H2384.92ZM2466.9 32.8375C2470.21 32.8375 2473.29 33.3975 2476.14 34.5175C2478.98 35.6375 2481.5 37.2708 2483.7 39.4175C2485.89 41.5175 2487.59 44.0608 2488.81 47.0475C2490.02 50.0342 2490.63 53.3708 2490.63 57.0575C2490.63 60.7442 2490.02 64.0808 2488.81 67.0675C2487.59 70.0542 2485.89 72.6208 2483.7 74.7675C2481.55 76.9142 2479.03 78.5708 2476.14 79.7375C2473.24 80.9042 2470.14 81.4875 2466.83 81.4875C2463.56 81.4875 2460.48 80.9275 2457.59 79.8075C2454.74 78.6875 2452.22 77.0775 2450.03 74.9775C2447.83 72.8308 2446.13 70.2642 2444.92 67.2775C2443.7 64.2908 2443.1 60.9542 2443.1 57.2675C2443.1 53.5808 2443.7 50.2442 2444.92 47.2575C2446.13 44.2708 2447.81 41.7042 2449.96 39.5575C2452.15 37.4108 2454.69 35.7542 2457.59 34.5875C2460.48 33.4208 2463.58 32.8375 2466.9 32.8375ZM2468.3 78.4775C2470.72 78.4775 2472.64 77.6842 2474.04 76.0975C2475.44 74.4642 2476.44 72.2242 2477.05 69.3775C2477.7 66.5308 2478.03 63.2175 2478.03 59.4375C2478.03 51.8308 2476.86 45.9975 2474.53 41.9375C2472.24 37.8775 2469.21 35.8475 2465.43 35.8475C2463.05 35.8475 2461.13 36.6408 2459.69 38.2275C2458.29 39.8142 2457.26 42.0542 2456.61 44.9475C2456 47.7942 2455.7 51.1075 2455.7 54.8875C2455.7 62.4942 2456.84 68.3275 2459.13 72.3875C2461.46 76.4475 2464.52 78.4775 2468.3 78.4775ZM2498.58 81.4875C2497.42 81.4875 2496.18 81.3942 2494.87 81.2075C2493.57 81.0208 2492.45 80.7642 2491.51 80.4375V78.8275C2492.45 78.8275 2493.5 78.4542 2494.66 77.7075C2495.83 76.9608 2497.02 75.4675 2498.23 73.2275L2508.24 55.0975C2505.12 54.3042 2502.74 53.0208 2501.1 51.2475C2499.52 49.4742 2498.72 47.3275 2498.72 44.8075C2498.72 42.8475 2499.31 41.0042 2500.47 39.2775C2501.69 37.5508 2503.65 36.1742 2506.35 35.1475C2509.11 34.0742 2512.79 33.5375 2517.41 33.5375C2518.91 33.5375 2520.63 33.6075 2522.59 33.7475C2524.55 33.8408 2526.72 33.8875 2529.1 33.8875H2538.06V35.4975C2536.71 35.5442 2535.73 35.8942 2535.12 36.5475C2534.52 37.1542 2534.21 38.6008 2534.21 40.8875V73.4375C2534.21 75.7242 2534.56 77.1708 2535.26 77.7775C2535.96 78.3842 2537.25 78.7342 2539.11 78.8275V80.4375H2519.16V78.8275C2520.52 78.7342 2521.5 78.3842 2522.1 77.7775C2522.71 77.1708 2523.01 75.7242 2523.01 73.4375V40.8875C2523.01 39.0675 2522.69 37.9008 2522.03 37.3875C2521.43 36.8275 2520.35 36.5475 2518.81 36.5475C2516.81 36.5475 2514.99 37.2708 2513.35 38.7175C2511.77 40.1175 2510.97 42.2408 2510.97 45.0875C2510.97 46.5808 2511.28 48.0275 2511.88 49.4275C2512.49 50.7808 2513.56 51.9242 2515.1 52.8575C2516.69 53.7908 2518.86 54.3508 2521.61 54.5375V56.9875C2521.05 56.9875 2520.56 57.1042 2520.14 57.3375C2519.72 57.5242 2519.3 58.0142 2518.88 58.8075L2510.97 74.0675C2509.9 76.1208 2508.41 77.8708 2506.49 79.3175C2504.58 80.7642 2501.94 81.4875 2498.58 81.4875ZM2561.23 52.4375H2568.02C2573.11 52.4375 2577.12 52.9975 2580.06 54.1175C2583 55.2375 2585.08 56.7775 2586.29 58.7375C2587.55 60.6975 2588.18 62.9608 2588.18 65.5275C2588.18 68.0942 2587.48 70.5208 2586.08 72.8075C2584.73 75.0475 2582.61 76.8908 2579.71 78.3375C2576.87 79.7375 2573.23 80.4375 2568.79 80.4375H2546.18V78.8275C2547.54 78.7342 2548.52 78.3842 2549.12 77.7775C2549.73 77.1708 2550.03 75.7242 2550.03 73.4375V40.8875C2550.03 38.6008 2549.68 37.1542 2548.98 36.5475C2548.33 35.8942 2547.05 35.5442 2545.13 35.4975V33.8875H2583.63V45.4375H2582.02C2581.88 43.8508 2581.58 42.4275 2581.11 41.1675C2580.65 39.8608 2579.85 38.8342 2578.73 38.0875C2577.61 37.2942 2576 36.8975 2573.9 36.8975H2564.31C2563.33 36.8975 2562.56 37.1542 2562 37.6675C2561.49 38.1808 2561.23 39.2542 2561.23 40.8875V52.4375ZM2565.36 77.4275C2567.84 77.4275 2569.87 76.8442 2571.45 75.6775C2573.09 74.4642 2574.3 72.9708 2575.09 71.1975C2575.89 69.4242 2576.28 67.6742 2576.28 65.9475C2576.28 63.3808 2575.79 61.3275 2574.81 59.7875C2573.88 58.2475 2572.6 57.1508 2570.96 56.4975C2569.38 55.7975 2567.58 55.4475 2565.57 55.4475H2561.23V73.4375C2561.23 75.0708 2561.49 76.1442 2562 76.6575C2562.52 77.1708 2563.64 77.4275 2565.36 77.4275ZM2595.61 80.4375V78.8275C2596.96 78.7342 2597.94 78.3842 2598.55 77.7775C2599.15 77.1708 2599.46 75.7242 2599.46 73.4375V40.8875C2599.46 38.6008 2599.11 37.1542 2598.41 36.5475C2597.75 35.8942 2596.47 35.5442 2594.56 35.4975V33.8875H2599.46C2602.86 33.8875 2606.06 33.8408 2609.05 33.7475C2612.03 33.6075 2614.27 33.5375 2615.77 33.5375C2620.62 33.5375 2624.45 34.0742 2627.25 35.1475C2630.09 36.2208 2632.12 37.6442 2633.34 39.4175C2634.6 41.1442 2635.23 43.0575 2635.23 45.1575C2635.23 47.5842 2634.43 49.8942 2632.85 52.0875C2631.31 54.2808 2628.83 55.9842 2625.43 57.1975C2622.07 58.3642 2617.61 58.7375 2612.06 58.3175V55.8675C2614.58 55.9608 2616.65 55.5175 2618.29 54.5375C2619.92 53.5108 2621.11 52.1575 2621.86 50.4775C2622.65 48.7975 2623.05 47.0008 2623.05 45.0875C2623.05 42.5208 2622.32 40.4675 2620.88 38.9275C2619.43 37.3408 2617.42 36.5475 2614.86 36.5475C2613.32 36.5475 2612.22 36.8275 2611.57 37.3875C2610.96 37.9008 2610.66 39.0675 2610.66 40.8875V73.4375C2610.66 74.9308 2610.8 76.0742 2611.08 76.8675C2611.4 77.6142 2611.96 78.1275 2612.76 78.4075C2613.6 78.6408 2614.76 78.7808 2616.26 78.8275V80.4375H2595.61ZM2642.62 81.4875C2641.45 81.4875 2640.21 81.3942 2638.91 81.2075C2637.6 81.0208 2636.48 80.7642 2635.55 80.4375V78.8275C2636.48 78.8275 2637.53 78.4542 2638.7 77.7075C2639.86 76.9608 2641.05 75.4675 2642.27 73.2275L2652.28 55.0975C2649.15 54.3042 2646.77 53.0208 2645.14 51.2475C2643.55 49.4742 2642.76 47.3275 2642.76 44.8075C2642.76 42.8475 2643.34 41.0042 2644.51 39.2775C2645.72 37.5508 2647.68 36.1742 2650.39 35.1475C2653.14 34.0742 2656.83 33.5375 2661.45 33.5375C2662.94 33.5375 2664.67 33.6075 2666.63 33.7475C2668.59 33.8408 2670.76 33.8875 2673.14 33.8875H2682.1V35.4975C2680.74 35.5442 2679.76 35.8942 2679.16 36.5475C2678.55 37.1542 2678.25 38.6008 2678.25 40.8875V73.4375C2678.25 75.7242 2678.6 77.1708 2679.3 77.7775C2680 78.3842 2681.28 78.7342 2683.15 78.8275V80.4375H2663.2V78.8275C2664.55 78.7342 2665.53 78.3842 2666.14 77.7775C2666.74 77.1708 2667.05 75.7242 2667.05 73.4375V40.8875C2667.05 39.0675 2666.72 37.9008 2666.07 37.3875C2665.46 36.8275 2664.39 36.5475 2662.85 36.5475C2660.84 36.5475 2659.02 37.2708 2657.39 38.7175C2655.8 40.1175 2655.01 42.2408 2655.01 45.0875C2655.01 46.5808 2655.31 48.0275 2655.92 49.4275C2656.52 50.7808 2657.6 51.9242 2659.14 52.8575C2660.72 53.7908 2662.89 54.3508 2665.65 54.5375V56.9875C2665.09 56.9875 2664.6 57.1042 2664.18 57.3375C2663.76 57.5242 2663.34 58.0142 2662.92 58.8075L2655.01 74.0675C2653.93 76.1208 2652.44 77.8708 2650.53 79.3175C2648.61 80.7642 2645.98 81.4875 2642.62 81.4875ZM2738.76 67.4875H2740.37L2739.67 80.4375H2705.93V78.8275C2706.31 78.6408 2706.87 78.3142 2707.61 77.8475C2708.41 77.3808 2709.22 76.8442 2710.06 76.2375C2712.4 74.5575 2714.59 72.6442 2716.64 70.4975C2718.7 68.3508 2720.49 66.0642 2722.03 63.6375C2723.57 61.2108 2724.79 58.7842 2725.67 56.3575C2726.56 53.9308 2727 51.6208 2727 49.4275C2727 47.3275 2726.49 45.5542 2725.46 44.1075C2724.48 42.6608 2722.69 41.9375 2720.07 41.9375C2717.88 41.9375 2715.85 42.5442 2713.98 43.7575C2712.12 44.9708 2710.27 46.8608 2708.45 49.4275L2707.12 48.3075C2709.04 43.4542 2711.44 39.8375 2714.33 37.4575C2717.23 35.0775 2720.84 33.8875 2725.18 33.8875C2727.7 33.8875 2729.97 34.3075 2731.97 35.1475C2733.98 35.9408 2735.57 37.2008 2736.73 38.9275C2737.95 40.6075 2738.55 42.8008 2738.55 45.5075C2738.55 50.3142 2737.01 54.8175 2733.93 59.0175C2730.9 63.2175 2726.65 67.1608 2721.19 70.8475V70.9875H2731.41C2734.07 70.9875 2735.92 70.6608 2736.94 70.0075C2737.97 69.3542 2738.58 68.5142 2738.76 67.4875ZM2768.56 33.8875C2770.98 33.8875 2773.36 34.3542 2775.7 35.2875C2778.03 36.2208 2780.13 37.6675 2782 39.6275C2783.86 41.5875 2785.33 44.0608 2786.41 47.0475C2787.53 49.9875 2788.09 53.4875 2788.09 57.5475C2788.09 61.5608 2787.55 65.0608 2786.48 68.0475C2785.4 71.0342 2783.93 73.5308 2782.07 75.5375C2780.2 77.5442 2778.1 79.0375 2775.77 80.0175C2773.43 80.9975 2771.01 81.4875 2768.49 81.4875C2766.06 81.4875 2763.68 81.0208 2761.35 80.0875C2759.01 79.1542 2756.91 77.7075 2755.05 75.7475C2753.18 73.7875 2751.69 71.3375 2750.57 68.3975C2749.49 65.4108 2748.96 61.8875 2748.96 57.8275C2748.96 53.8142 2749.49 50.3142 2750.57 47.3275C2751.64 44.3408 2753.11 41.8442 2754.98 39.8375C2756.84 37.8308 2758.94 36.3375 2761.28 35.3575C2763.61 34.3775 2766.04 33.8875 2768.56 33.8875ZM2768.77 78.4775C2770.12 78.4775 2771.36 77.8708 2772.48 76.6575C2773.6 75.4442 2774.48 73.3908 2775.14 70.4975C2775.84 67.6042 2776.19 63.6375 2776.19 58.5975C2776.19 54.2108 2775.88 50.4075 2775.28 47.1875C2774.72 43.9208 2773.85 41.4008 2772.69 39.6275C2771.52 37.8075 2770.05 36.8975 2768.28 36.8975C2766.97 36.8975 2765.73 37.5042 2764.57 38.7175C2763.45 39.9308 2762.54 41.9842 2761.84 44.8775C2761.18 47.7708 2760.86 51.7375 2760.86 56.7775C2760.86 61.1642 2761.14 64.9908 2761.7 68.2575C2762.3 71.4775 2763.19 73.9975 2764.36 75.8175C2765.52 77.5908 2766.99 78.4775 2768.77 78.4775ZM2826.74 67.4875H2828.35L2827.65 80.4375H2793.91V78.8275C2794.29 78.6408 2794.85 78.3142 2795.59 77.8475C2796.39 77.3808 2797.2 76.8442 2798.04 76.2375C2800.38 74.5575 2802.57 72.6442 2804.62 70.4975C2806.68 68.3508 2808.47 66.0642 2810.01 63.6375C2811.55 61.2108 2812.77 58.7842 2813.65 56.3575C2814.54 53.9308 2814.98 51.6208 2814.98 49.4275C2814.98 47.3275 2814.47 45.5542 2813.44 44.1075C2812.46 42.6608 2810.67 41.9375 2808.05 41.9375C2805.86 41.9375 2803.83 42.5442 2801.96 43.7575C2800.1 44.9708 2798.25 46.8608 2796.43 49.4275L2795.1 48.3075C2797.02 43.4542 2799.42 39.8375 2802.31 37.4575C2805.21 35.0775 2808.82 33.8875 2813.16 33.8875C2815.68 33.8875 2817.95 34.3075 2819.95 35.1475C2821.96 35.9408 2823.55 37.2008 2824.71 38.9275C2825.93 40.6075 2826.53 42.8008 2826.53 45.5075C2826.53 50.3142 2824.99 54.8175 2821.91 59.0175C2818.88 63.2175 2814.63 67.1608 2809.17 70.8475V70.9875H2819.39C2822.05 70.9875 2823.9 70.6608 2824.92 70.0075C2825.95 69.3542 2826.56 68.5142 2826.74 67.4875ZM2865.64 62.5875H2870.54V71.3375H2867.6C2866.29 71.3375 2865.64 72.1542 2865.64 73.7875C2865.64 74.9075 2865.64 76.0042 2865.64 77.0775C2865.68 78.1042 2865.73 79.2242 2865.78 80.4375H2854.72C2854.81 78.8975 2854.88 77.4042 2854.93 75.9575C2854.97 74.4642 2855.02 72.9242 2855.07 71.3375H2832.95V69.7275C2834.16 68.5608 2835.26 67.3475 2836.24 66.0875L2859.13 37.4575C2859.64 36.8042 2860.11 36.1742 2860.53 35.5675C2860.99 34.9142 2861.37 34.3542 2861.65 33.8875H2865.71L2865.64 62.5875ZM2854.93 47.9575L2843.24 62.5875H2855.14V47.9575H2854.93ZM2927.96 33.8875V46.8375H2926.35C2926.12 44.7842 2925.7 43.0342 2925.09 41.5875C2924.53 40.0942 2923.65 38.9508 2922.43 38.1575C2921.27 37.3175 2919.63 36.8975 2917.53 36.8975H2914.24C2913.26 36.8975 2912.49 37.1542 2911.93 37.6675C2911.42 38.1808 2911.16 39.2542 2911.16 40.8875V73.4375C2911.16 75.7242 2911.51 77.1708 2912.21 77.7775C2912.91 78.3842 2914.2 78.7342 2916.06 78.8275V80.4375H2896.11V78.8275C2897.47 78.7342 2898.45 78.3842 2899.05 77.7775C2899.66 77.1708 2899.96 75.7242 2899.96 73.4375V40.8875C2899.96 38.6008 2899.61 37.1542 2898.91 36.5475C2898.26 35.8942 2896.98 35.5442 2895.06 35.4975V33.8875H2927.96ZM2956.01 32.8375C2959.32 32.8375 2962.4 33.3975 2965.25 34.5175C2968.1 35.6375 2970.62 37.2708 2972.81 39.4175C2975 41.5175 2976.71 44.0608 2977.92 47.0475C2979.13 50.0342 2979.74 53.3708 2979.74 57.0575C2979.74 60.7442 2979.13 64.0808 2977.92 67.0675C2976.71 70.0542 2975 72.6208 2972.81 74.7675C2970.66 76.9142 2968.14 78.5708 2965.25 79.7375C2962.36 80.9042 2959.25 81.4875 2955.94 81.4875C2952.67 81.4875 2949.59 80.9275 2946.7 79.8075C2943.85 78.6875 2941.33 77.0775 2939.14 74.9775C2936.95 72.8308 2935.24 70.2642 2934.03 67.2775C2932.82 64.2908 2932.21 60.9542 2932.21 57.2675C2932.21 53.5808 2932.82 50.2442 2934.03 47.2575C2935.24 44.2708 2936.92 41.7042 2939.07 39.5575C2941.26 37.4108 2943.81 35.7542 2946.7 34.5875C2949.59 33.4208 2952.7 32.8375 2956.01 32.8375ZM2957.41 78.4775C2959.84 78.4775 2961.75 77.6842 2963.15 76.0975C2964.55 74.4642 2965.55 72.2242 2966.16 69.3775C2966.81 66.5308 2967.14 63.2175 2967.14 59.4375C2967.14 51.8308 2965.97 45.9975 2963.64 41.9375C2961.35 37.8775 2958.32 35.8475 2954.54 35.8475C2952.16 35.8475 2950.25 36.6408 2948.8 38.2275C2947.4 39.8142 2946.37 42.0542 2945.72 44.9475C2945.11 47.7942 2944.81 51.1075 2944.81 54.8875C2944.81 62.4942 2945.95 68.3275 2948.24 72.3875C2950.57 76.4475 2953.63 78.4775 2957.41 78.4775ZM3010.09 39.4175L3021.71 73.4375C3022.13 74.6508 3022.74 75.7708 3023.53 76.7975C3024.37 77.7775 3025.66 78.4542 3027.38 78.8275L3024.16 94.7875H3022.55C3022.46 91.8942 3022.04 89.3742 3021.29 87.2275C3020.55 85.0808 3019.61 83.4008 3018.49 82.1875C3017.37 81.0208 3016.16 80.4375 3014.85 80.4375H2996.09C2994.37 80.4375 2992.66 81.0208 2990.98 82.1875C2989.35 83.4008 2987.95 85.0808 2986.78 87.2275C2985.66 89.3742 2984.94 91.8942 2984.61 94.7875H2983V78.8275C2983.84 78.4542 2984.66 77.8242 2985.45 76.9375C2986.25 76.0042 2986.97 74.9542 2987.62 73.7875C2988.32 72.6208 2988.86 71.5242 2989.23 70.4975L3001.13 39.4175C3001.6 38.2042 3002.04 37.0142 3002.46 35.8475C3002.88 34.6808 3003.26 33.4908 3003.58 32.2775H3007.64C3007.97 33.4908 3008.34 34.6808 3008.76 35.8475C3009.23 37.0142 3009.67 38.2042 3010.09 39.4175ZM3007.15 77.4275C3009.02 77.4275 3010.05 77.1242 3010.23 76.5175C3010.42 75.9108 3010.26 74.8842 3009.74 73.4375L3001.55 48.2375H3001.41L2990.49 77.4275H3007.15ZM3070.22 73.4375C3070.88 75.0242 3071.41 76.1908 3071.83 76.9375C3072.3 77.6842 3072.79 78.1742 3073.3 78.4075C3073.82 78.5942 3074.45 78.7342 3075.19 78.8275V80.4375H3055.66V78.8275C3057.53 78.7342 3058.56 78.1742 3058.74 77.1475C3058.98 76.1208 3058.81 74.8842 3058.25 73.4375L3054.75 64.3375C3054.47 64.5708 3054.1 64.7342 3053.63 64.8275C3053.21 64.8742 3052.75 64.8975 3052.23 64.8975H3044.32C3043.34 64.8975 3042.6 65.0142 3042.08 65.2475C3041.57 65.4808 3041.13 66.0642 3040.75 66.9975L3038.23 73.4375C3037.63 74.9775 3037.67 76.2375 3038.37 77.2175C3039.07 78.1975 3040.45 78.7342 3042.5 78.8275V80.4375H3029.76V78.8275C3030.79 78.7342 3031.65 78.2208 3032.35 77.2875C3033.1 76.3075 3033.78 75.0242 3034.38 73.4375L3047.82 39.4175C3048.34 38.2042 3048.78 37.0142 3049.15 35.8475C3049.57 34.6808 3049.95 33.4908 3050.27 32.2775H3054.33C3054.66 33.4908 3055.03 34.6808 3055.45 35.8475C3055.87 37.0142 3056.32 38.2042 3056.78 39.4175L3070.22 73.4375ZM3051.88 61.8875C3052.54 61.8875 3052.96 61.7942 3053.14 61.6075C3053.38 61.3742 3053.35 60.9075 3053.07 60.2075L3048.24 48.2375H3048.1L3042.64 62.1675C3042.88 62.0275 3043.16 61.9575 3043.48 61.9575C3043.81 61.9108 3044.18 61.8875 3044.6 61.8875H3051.88Z" fill="black"/>
<defs>
<linearGradient id="paint0_linear_562_1670" x1="0.757812" y1="57.4375" x2="3116.56" y2="57.4375" gradientUnits="userSpaceOnUse">
<stop stop-color="#FA0056"/>
<stop offset="0.375" stop-color="#F33174"/>
<stop offset="0.67" stop-color="#FA0056"/>
<stop offset="0.975" stop-color="#F33174"/>
</linearGradient>
</defs>
</svg>
