<svg width="2469" height="90" viewBox="0 0 2469 90" fill="none" xmlns="http://www.w3.org/2000/svg">
<rect width="2467.31" height="90" transform="translate(0.976562)" fill="#272729"/>
<path d="M59.3607 53.2474H60.6354L60.0812 63.5H33.3689V62.2254C33.6645 62.0776 34.1078 61.8189 34.699 61.4495C35.3271 61.08 35.9736 60.6551 36.6387 60.1748C38.486 58.8448 40.2225 57.3299 41.8481 55.6304C43.4738 53.9309 44.8962 52.1205 46.1154 50.1993C47.3347 48.2781 48.2953 46.3568 48.9972 44.4356C49.6992 42.5144 50.0502 40.6856 50.0502 38.9491C50.0502 37.2865 49.6438 35.8825 48.831 34.7372C48.0551 33.5918 46.6327 33.0192 44.5637 33.0192C42.8272 33.0192 41.22 33.4995 39.7422 34.4601C38.2643 35.4207 36.8049 36.917 35.364 38.9491L34.311 38.0624C35.8258 34.2199 37.7286 31.3566 40.0193 29.4723C42.3099 27.588 45.1733 26.6459 48.6093 26.6459C50.6044 26.6459 52.3963 26.9784 53.985 27.6435C55.5737 28.2716 56.8299 29.2691 57.7536 30.6361C58.7142 31.9662 59.1945 33.7027 59.1945 35.8456C59.1945 39.6511 57.9752 43.2164 55.5368 46.5416C53.1353 49.8668 49.7731 52.9887 45.4504 55.9075V56.0183H53.5417C55.6476 56.0183 57.107 55.7597 57.9198 55.2425C58.7326 54.7252 59.2129 54.0602 59.3607 53.2474ZM82.9483 26.6459C84.8695 26.6459 86.7538 27.0154 88.6011 27.7543C90.4484 28.4932 92.111 29.6386 93.5889 31.1903C95.0667 32.7421 96.2306 34.7002 97.0803 37.0648C97.967 39.3924 98.4104 42.1634 98.4104 45.3778C98.4104 48.5552 97.9855 51.3261 97.1357 53.6907C96.286 56.0553 95.1222 58.0319 93.6443 59.6206C92.1665 61.2093 90.5039 62.3916 88.6565 63.1675C86.8092 63.9434 84.888 64.3313 82.8929 64.3313C80.9717 64.3313 79.0874 63.9618 77.2401 63.2229C75.3928 62.484 73.7302 61.3386 72.2523 59.7869C70.7744 58.2351 69.5922 56.2954 68.7054 53.9678C67.8557 51.6032 67.4308 48.8138 67.4308 45.5994C67.4308 42.422 67.8557 39.6511 68.7054 37.2865C69.5552 34.9219 70.719 32.9453 72.1969 31.3566C73.6747 29.7679 75.3373 28.5856 77.1847 27.8097C79.032 27.0338 80.9532 26.6459 82.9483 26.6459ZM83.1146 61.9483C84.186 61.9483 85.1651 61.468 86.0518 60.5073C86.9385 59.5467 87.6405 57.9211 88.1578 55.6304C88.712 53.3397 88.9891 50.1993 88.9891 46.2091C88.9891 42.7361 88.7489 39.725 88.2686 37.1756C87.8252 34.5894 87.1417 32.5943 86.2181 31.1903C85.2944 29.7494 84.1306 29.029 82.7266 29.029C81.6921 29.029 80.713 29.5093 79.7894 30.4699C78.9027 31.4305 78.1822 33.0561 77.628 35.3468C77.1108 37.6375 76.8521 40.7779 76.8521 44.7681C76.8521 48.2411 77.0738 51.2707 77.5172 53.857C77.9975 56.4063 78.6995 58.4014 79.6231 59.8423C80.5468 61.2463 81.7106 61.9483 83.1146 61.9483ZM136.027 46.7633L118.846 48.2596L118.458 43.7706L135.639 42.2743L136.027 46.7633ZM178.914 53.2474H180.188L179.634 63.5H152.922V62.2254C153.217 62.0776 153.661 61.8189 154.252 61.4495C154.88 61.08 155.526 60.6551 156.191 60.1748C158.039 58.8448 159.775 57.3299 161.401 55.6304C163.027 53.9309 164.449 52.1205 165.668 50.1993C166.887 48.2781 167.848 46.3568 168.55 44.4356C169.252 42.5144 169.603 40.6856 169.603 38.9491C169.603 37.2865 169.197 35.8825 168.384 34.7372C167.608 33.5918 166.186 33.0192 164.117 33.0192C162.38 33.0192 160.773 33.4995 159.295 34.4601C157.817 35.4207 156.358 36.917 154.917 38.9491L153.864 38.0624C155.379 34.2199 157.281 31.3566 159.572 29.4723C161.863 27.588 164.726 26.6459 168.162 26.6459C170.157 26.6459 171.949 26.9784 173.538 27.6435C175.127 28.2716 176.383 29.2691 177.306 30.6361C178.267 31.9662 178.747 33.7027 178.747 35.8456C178.747 39.6511 177.528 43.2164 175.09 46.5416C172.688 49.8668 169.326 52.9887 165.003 55.9075V56.0183H173.095C175.2 56.0183 176.66 55.7597 177.473 55.2425C178.285 54.7252 178.766 54.0602 178.914 53.2474ZM201.559 57.4038C201.559 58.7709 201.67 59.8054 201.892 60.5073C202.15 61.1724 202.667 61.6157 203.443 61.8374C204.256 62.0591 205.475 62.1884 207.101 62.2254V63.5H186.596V62.2254C188.258 62.1884 189.478 62.0591 190.253 61.8374C191.066 61.6157 191.583 61.1724 191.805 60.5073C192.027 59.8054 192.138 58.7709 192.138 57.4038V33.2963L187.039 36.4552L185.875 34.6818L198.733 26.6459H201.947C201.799 27.3479 201.688 28.0499 201.614 28.7519C201.577 29.4538 201.559 30.1558 201.559 30.8578V57.4038ZM226.909 63.5V62.2254C227.981 62.1515 228.757 61.8744 229.237 61.3941C229.717 60.9138 229.957 59.7684 229.957 57.958V32.1879C229.957 30.3775 229.68 29.2322 229.126 28.7519C228.609 28.2346 227.593 27.9575 226.078 27.9206V26.6459H241.873V27.9206C240.801 27.9575 240.025 28.2346 239.545 28.7519C239.065 29.2322 238.824 30.3775 238.824 32.1879V41.9972C239.12 41.7755 239.471 41.6277 239.877 41.5538C240.321 41.4799 240.838 41.443 241.429 41.443H251.903C252.901 41.443 253.603 41.2767 254.009 40.9442C254.416 40.6117 254.619 39.9466 254.619 38.9491V32.1879C254.619 30.3775 254.342 29.2322 253.788 28.7519C253.27 28.2346 252.254 27.9575 250.74 27.9206V26.6459H266.534V27.9206C265.463 27.9575 264.687 28.2346 264.207 28.7519C263.726 29.2322 263.486 30.3775 263.486 32.1879V57.958C263.486 59.7684 263.763 60.9138 264.317 61.3941C264.872 61.8744 265.888 62.1515 267.366 62.2254V63.5H251.571V62.2254C252.642 62.1515 253.418 61.8744 253.899 61.3941C254.379 60.9138 254.619 59.7684 254.619 57.958V43.2164C254.323 43.475 253.954 43.6413 253.511 43.7152C253.067 43.7891 252.569 43.826 252.014 43.826H241.54C240.542 43.826 239.84 43.9923 239.434 44.3248C239.028 44.6573 238.824 45.3039 238.824 46.2645V57.958C238.824 59.7684 239.102 60.9138 239.656 61.3941C240.21 61.8744 241.226 62.1515 242.704 62.2254V63.5H226.909ZM291.809 25.8146C294.432 25.8146 296.87 26.258 299.124 27.1447C301.378 28.0314 303.373 29.3245 305.109 31.0241C306.846 32.6867 308.194 34.7002 309.155 37.0648C310.116 39.4294 310.596 42.0711 310.596 44.9898C310.596 47.9086 310.116 50.5503 309.155 52.9148C308.194 55.2794 306.846 57.3115 305.109 59.011C303.41 60.7105 301.415 62.0221 299.124 62.9458C296.833 63.8695 294.376 64.3313 291.753 64.3313C289.167 64.3313 286.729 63.8879 284.438 63.0012C282.184 62.1145 280.189 60.8399 278.453 59.1773C276.716 57.4777 275.368 55.4457 274.407 53.0811C273.446 50.7165 272.966 48.0749 272.966 45.1561C272.966 42.2373 273.446 39.5956 274.407 37.2311C275.368 34.8665 276.698 32.8344 278.397 31.1349C280.134 29.4354 282.147 28.1238 284.438 27.2001C286.729 26.2764 289.185 25.8146 291.809 25.8146ZM292.917 61.9483C294.838 61.9483 296.353 61.3202 297.461 60.064C298.57 58.7709 299.364 56.9974 299.845 54.7437C300.362 52.49 300.62 49.8668 300.62 46.8741C300.62 40.8518 299.697 36.2335 297.849 33.0192C296.039 29.8048 293.638 28.1977 290.645 28.1977C288.761 28.1977 287.246 28.8257 286.1 30.0819C284.992 31.3381 284.179 33.1115 283.662 35.4022C283.182 37.656 282.942 40.2792 282.942 43.2718C282.942 49.2941 283.847 53.9124 285.657 57.1267C287.504 60.3411 289.924 61.9483 292.917 61.9483ZM316.894 64.3313C315.971 64.3313 314.992 64.2574 313.957 64.1096C312.923 63.9618 312.036 63.7586 311.297 63.5V62.2254C312.036 62.2254 312.867 61.9298 313.791 61.3386C314.714 60.7475 315.657 59.5652 316.617 57.7918L324.542 43.4381C322.067 42.81 320.183 41.794 318.889 40.39C317.633 38.986 317.005 37.2865 317.005 35.2914C317.005 33.7396 317.467 32.2802 318.391 30.9132C319.351 29.5462 320.903 28.4563 323.046 27.6435C325.226 26.7937 328.145 26.3688 331.802 26.3688C332.985 26.3688 334.352 26.4242 335.903 26.5351C337.455 26.609 339.173 26.6459 341.057 26.6459H348.151V27.9206C347.08 27.9575 346.304 28.2346 345.823 28.7519C345.343 29.2322 345.103 30.3775 345.103 32.1879V57.958C345.103 59.7684 345.38 60.9138 345.934 61.3941C346.488 61.8744 347.504 62.1515 348.982 62.2254V63.5H333.188V62.2254C334.259 62.1515 335.035 61.8744 335.515 61.3941C335.996 60.9138 336.236 59.7684 336.236 57.958V32.1879C336.236 30.747 335.977 29.8233 335.46 29.4169C334.98 28.9735 334.13 28.7519 332.911 28.7519C331.322 28.7519 329.881 29.3245 328.588 30.4699C327.332 31.5783 326.704 33.2593 326.704 35.5131C326.704 36.6953 326.944 37.8407 327.424 38.9491C327.904 40.0205 328.754 40.9257 329.973 41.6646C331.23 42.4036 332.948 42.8469 335.127 42.9947V44.9344C334.684 44.9344 334.296 45.0268 333.964 45.2115C333.631 45.3593 333.299 45.7472 332.966 46.3753L326.704 58.4568C325.854 60.0825 324.672 61.468 323.157 62.6133C321.642 63.7586 319.554 64.3313 316.894 64.3313ZM366.495 41.3321H371.871C375.898 41.3321 379.076 41.7755 381.403 42.6622C383.731 43.5489 385.375 44.7681 386.336 46.3199C387.333 47.8717 387.832 49.6636 387.832 51.6956C387.832 53.7277 387.278 55.6489 386.169 57.4593C385.098 59.2327 383.417 60.6921 381.126 61.8374C378.872 62.9458 375.991 63.5 372.481 63.5H354.58V62.2254C355.652 62.1515 356.427 61.8744 356.908 61.3941C357.388 60.9138 357.628 59.7684 357.628 57.958V32.1879C357.628 30.3775 357.351 29.2322 356.797 28.7519C356.28 28.2346 355.264 27.9575 353.749 27.9206V26.6459H384.23V35.7902H382.955C382.844 34.534 382.604 33.4071 382.235 32.4096C381.865 31.3751 381.237 30.5622 380.35 29.9711C379.464 29.343 378.189 29.029 376.526 29.029H368.934C368.158 29.029 367.548 29.2322 367.105 29.6386C366.699 30.045 366.495 30.8948 366.495 32.1879V41.3321ZM369.765 61.117C371.723 61.117 373.33 60.6551 374.587 59.7315C375.88 58.7709 376.84 57.5886 377.468 56.1846C378.097 54.7806 378.411 53.3951 378.411 52.0281C378.411 49.9961 378.023 48.3704 377.247 47.1512C376.508 45.932 375.492 45.0637 374.199 44.5465C372.943 43.9923 371.52 43.7152 369.931 43.7152H366.495V57.958C366.495 59.2512 366.699 60.1009 367.105 60.5073C367.511 60.9138 368.398 61.117 369.765 61.117ZM393.709 63.5V62.2254C394.781 62.1515 395.557 61.8744 396.037 61.3941C396.517 60.9138 396.758 59.7684 396.758 57.958V32.1879C396.758 30.3775 396.48 29.2322 395.926 28.7519C395.409 28.2346 394.393 27.9575 392.878 27.9206V26.6459H396.758C399.455 26.6459 401.985 26.609 404.35 26.5351C406.715 26.4242 408.488 26.3688 409.67 26.3688C413.513 26.3688 416.542 26.7937 418.759 27.6435C421.013 28.4932 422.62 29.6201 423.581 31.0241C424.578 32.3911 425.077 33.9059 425.077 35.5685C425.077 37.4897 424.449 39.3185 423.193 41.055C421.974 42.7915 420.015 44.1401 417.318 45.1007C414.658 46.0243 411.13 46.3199 406.733 45.9874V44.0477C408.728 44.1216 410.372 43.7706 411.665 42.9947C412.959 42.1819 413.901 41.1104 414.492 39.7804C415.12 38.4503 415.434 37.0279 415.434 35.5131C415.434 33.481 414.861 31.8554 413.716 30.6361C412.571 29.3799 410.982 28.7519 408.95 28.7519C407.731 28.7519 406.862 28.9735 406.345 29.4169C405.865 29.8233 405.625 30.747 405.625 32.1879V57.958C405.625 59.1403 405.736 60.0455 405.957 60.6736C406.216 61.2647 406.659 61.6712 407.287 61.8928C407.952 62.0776 408.876 62.1884 410.058 62.2254V63.5H393.709ZM430.927 64.3313C430.003 64.3313 429.024 64.2574 427.99 64.1096C426.955 63.9618 426.068 63.7586 425.329 63.5V62.2254C426.068 62.2254 426.9 61.9298 427.823 61.3386C428.747 60.7475 429.689 59.5652 430.65 57.7918L438.575 43.4381C436.099 42.81 434.215 41.794 432.922 40.39C431.666 38.986 431.038 37.2865 431.038 35.2914C431.038 33.7396 431.5 32.2802 432.423 30.9132C433.384 29.5462 434.936 28.4563 437.078 27.6435C439.258 26.7937 442.177 26.3688 445.835 26.3688C447.017 26.3688 448.384 26.4242 449.936 26.5351C451.488 26.609 453.206 26.6459 455.09 26.6459H462.184V27.9206C461.112 27.9575 460.336 28.2346 459.856 28.7519C459.376 29.2322 459.135 30.3775 459.135 32.1879V57.958C459.135 59.7684 459.413 60.9138 459.967 61.3941C460.521 61.8744 461.537 62.1515 463.015 62.2254V63.5H447.22V62.2254C448.292 62.1515 449.068 61.8744 449.548 61.3941C450.028 60.9138 450.268 59.7684 450.268 57.958V32.1879C450.268 30.747 450.01 29.8233 449.492 29.4169C449.012 28.9735 448.162 28.7519 446.943 28.7519C445.354 28.7519 443.914 29.3245 442.62 30.4699C441.364 31.5783 440.736 33.2593 440.736 35.5131C440.736 36.6953 440.976 37.8407 441.457 38.9491C441.937 40.0205 442.787 40.9257 444.006 41.6646C445.262 42.4036 446.98 42.8469 449.16 42.9947V44.9344C448.717 44.9344 448.329 45.0268 447.996 45.2115C447.664 45.3593 447.331 45.7472 446.999 46.3753L440.736 58.4568C439.886 60.0825 438.704 61.468 437.189 62.6133C435.674 63.7586 433.587 64.3313 430.927 64.3313ZM507.048 53.2474H508.323L507.768 63.5H481.056V62.2254C481.352 62.0776 481.795 61.8189 482.386 61.4495C483.014 61.08 483.661 60.6551 484.326 60.1748C486.173 58.8448 487.91 57.3299 489.535 55.6304C491.161 53.9309 492.583 52.1205 493.803 50.1993C495.022 48.2781 495.982 46.3568 496.684 44.4356C497.386 42.5144 497.737 40.6856 497.737 38.9491C497.737 37.2865 497.331 35.8825 496.518 34.7372C495.742 33.5918 494.32 33.0192 492.251 33.0192C490.514 33.0192 488.907 33.4995 487.429 34.4601C485.952 35.4207 484.492 36.917 483.051 38.9491L481.998 38.0624C483.513 34.2199 485.416 31.3566 487.706 29.4723C489.997 27.588 492.861 26.6459 496.297 26.6459C498.292 26.6459 500.084 26.9784 501.672 27.6435C503.261 28.2716 504.517 29.2691 505.441 30.6361C506.401 31.9662 506.882 33.7027 506.882 35.8456C506.882 39.6511 505.662 43.2164 503.224 46.5416C500.822 49.8668 497.46 52.9887 493.138 55.9075V56.0183H501.229C503.335 56.0183 504.794 55.7597 505.607 55.2425C506.42 54.7252 506.9 54.0602 507.048 53.2474ZM530.636 26.6459C532.557 26.6459 534.441 27.0154 536.288 27.7543C538.136 28.4932 539.798 29.6386 541.276 31.1903C542.754 32.7421 543.918 34.7002 544.768 37.0648C545.654 39.3924 546.098 42.1634 546.098 45.3778C546.098 48.5552 545.673 51.3261 544.823 53.6907C543.973 56.0553 542.809 58.0319 541.332 59.6206C539.854 61.2093 538.191 62.3916 536.344 63.1675C534.496 63.9434 532.575 64.3313 530.58 64.3313C528.659 64.3313 526.775 63.9618 524.927 63.2229C523.08 62.484 521.417 61.3386 519.94 59.7869C518.462 58.2351 517.279 56.2954 516.393 53.9678C515.543 51.6032 515.118 48.8138 515.118 45.5994C515.118 42.422 515.543 39.6511 516.393 37.2865C517.242 34.9219 518.406 32.9453 519.884 31.3566C521.362 29.7679 523.025 28.5856 524.872 27.8097C526.719 27.0338 528.64 26.6459 530.636 26.6459ZM530.802 61.9483C531.873 61.9483 532.852 61.468 533.739 60.5073C534.626 59.5467 535.328 57.9211 535.845 55.6304C536.399 53.3397 536.676 50.1993 536.676 46.2091C536.676 42.7361 536.436 39.725 535.956 37.1756C535.512 34.5894 534.829 32.5943 533.905 31.1903C532.982 29.7494 531.818 29.029 530.414 29.029C529.379 29.029 528.4 29.5093 527.477 30.4699C526.59 31.4305 525.869 33.0561 525.315 35.3468C524.798 37.6375 524.539 40.7779 524.539 44.7681C524.539 48.2411 524.761 51.2707 525.204 53.857C525.685 56.4063 526.387 58.4014 527.31 59.8423C528.234 61.2463 529.398 61.9483 530.802 61.9483ZM576.701 53.2474H577.976L577.422 63.5H550.71V62.2254C551.005 62.0776 551.449 61.8189 552.04 61.4495C552.668 61.08 553.314 60.6551 553.979 60.1748C555.827 58.8448 557.563 57.3299 559.189 55.6304C560.814 53.9309 562.237 52.1205 563.456 50.1993C564.675 48.2781 565.636 46.3568 566.338 44.4356C567.04 42.5144 567.391 40.6856 567.391 38.9491C567.391 37.2865 566.985 35.8825 566.172 34.7372C565.396 33.5918 563.973 33.0192 561.904 33.0192C560.168 33.0192 558.561 33.4995 557.083 34.4601C555.605 35.4207 554.146 36.917 552.705 38.9491L551.652 38.0624C553.167 34.2199 555.069 31.3566 557.36 29.4723C559.651 27.588 562.514 26.6459 565.95 26.6459C567.945 26.6459 569.737 26.9784 571.326 27.6435C572.914 28.2716 574.171 29.2691 575.094 30.6361C576.055 31.9662 576.535 33.7027 576.535 35.8456C576.535 39.6511 575.316 43.2164 572.877 46.5416C570.476 49.8668 567.114 52.9887 562.791 55.9075V56.0183H570.882C572.988 56.0183 574.448 55.7597 575.261 55.2425C576.073 54.7252 576.554 54.0602 576.701 53.2474ZM607.494 49.368H611.373V56.2954H609.045C608.011 56.2954 607.494 56.942 607.494 58.2351C607.494 59.1219 607.494 59.9901 607.494 60.8399C607.53 61.6527 607.567 62.5394 607.604 63.5H598.848C598.922 62.2808 598.977 61.0985 599.014 59.9531C599.051 58.7709 599.088 57.5516 599.125 56.2954H581.613V55.0208C582.573 54.0971 583.441 53.1365 584.217 52.139L602.34 29.4723C602.746 28.9551 603.115 28.4563 603.448 27.976C603.817 27.4587 604.113 27.0154 604.335 26.6459H607.549L607.494 49.368ZM599.014 37.7853L589.759 49.368H599.181V37.7853H599.014ZM656.84 26.6459V36.8986H655.566C655.381 35.2729 655.049 33.8874 654.568 32.7421C654.125 31.5598 653.423 30.6546 652.462 30.0265C651.539 29.3615 650.246 29.029 648.583 29.029H645.978C645.202 29.029 644.593 29.2322 644.149 29.6386C643.743 30.045 643.54 30.8948 643.54 32.1879V57.958C643.54 59.7684 643.817 60.9138 644.371 61.3941C644.925 61.8744 645.941 62.1515 647.419 62.2254V63.5H631.625V62.2254C632.696 62.1515 633.472 61.8744 633.952 61.3941C634.432 60.9138 634.673 59.7684 634.673 57.958V32.1879C634.673 30.3775 634.395 29.2322 633.841 28.7519C633.324 28.2346 632.308 27.9575 630.793 27.9206V26.6459H656.84ZM679.043 25.8146C681.666 25.8146 684.105 26.258 686.358 27.1447C688.612 28.0314 690.607 29.3245 692.344 31.0241C694.08 32.6867 695.429 34.7002 696.389 37.0648C697.35 39.4294 697.83 42.0711 697.83 44.9898C697.83 47.9086 697.35 50.5503 696.389 52.9148C695.429 55.2794 694.08 57.3115 692.344 59.011C690.644 60.7105 688.649 62.0221 686.358 62.9458C684.068 63.8695 681.611 64.3313 678.988 64.3313C676.401 64.3313 673.963 63.8879 671.672 63.0012C669.418 62.1145 667.423 60.8399 665.687 59.1773C663.95 57.4777 662.602 55.4457 661.641 53.0811C660.681 50.7165 660.2 48.0749 660.2 45.1561C660.2 42.2373 660.681 39.5956 661.641 37.2311C662.602 34.8665 663.932 32.8344 665.631 31.1349C667.368 29.4354 669.381 28.1238 671.672 27.2001C673.963 26.2764 676.42 25.8146 679.043 25.8146ZM680.151 61.9483C682.073 61.9483 683.587 61.3202 684.696 60.064C685.804 58.7709 686.599 56.9974 687.079 54.7437C687.596 52.49 687.855 49.8668 687.855 46.8741C687.855 40.8518 686.931 36.2335 685.084 33.0192C683.273 29.8048 680.872 28.1977 677.879 28.1977C675.995 28.1977 674.48 28.8257 673.335 30.0819C672.226 31.3381 671.414 33.1115 670.896 35.4022C670.416 37.656 670.176 40.2792 670.176 43.2718C670.176 49.2941 671.081 53.9124 672.891 57.1267C674.739 60.3411 677.159 61.9483 680.151 61.9483ZM721.863 31.0241L731.063 57.958C731.395 58.9186 731.875 59.8054 732.503 60.6182C733.169 61.3941 734.185 61.9298 735.552 62.2254L733.002 74.861H731.728C731.654 72.5704 731.321 70.5753 730.73 68.8757C730.139 67.1762 729.4 65.8461 728.513 64.8855C727.627 63.9618 726.666 63.5 725.631 63.5H710.779C709.412 63.5 708.063 63.9618 706.733 64.8855C705.44 65.8461 704.332 67.1762 703.408 68.8757C702.521 70.5753 701.949 72.5704 701.69 74.861H700.415V62.2254C701.081 61.9298 701.727 61.431 702.355 60.729C702.983 59.9901 703.556 59.1588 704.073 58.2351C704.627 57.3115 705.052 56.4432 705.348 55.6304L714.769 31.0241C715.139 30.0635 715.49 29.1213 715.822 28.1977C716.155 27.274 716.45 26.3319 716.709 25.3713H719.923C720.182 26.3319 720.477 27.274 720.81 28.1977C721.179 29.1213 721.53 30.0635 721.863 31.0241ZM719.535 61.117C721.013 61.117 721.826 60.8768 721.974 60.3965C722.122 59.9162 721.992 59.1034 721.586 57.958L715.102 38.0069H714.991L706.345 61.117H719.535ZM769.467 57.958C769.984 59.2142 770.409 60.1379 770.741 60.729C771.111 61.3202 771.499 61.7081 771.905 61.8928C772.312 62.0406 772.81 62.1515 773.401 62.2254V63.5H757.939V62.2254C759.417 62.1515 760.23 61.7081 760.378 60.8953C760.563 60.0825 760.433 59.1034 759.99 57.958L757.219 50.7535C756.997 50.9382 756.702 51.0675 756.332 51.1414C756 51.1784 755.63 51.1968 755.224 51.1968H748.961C748.186 51.1968 747.594 51.2892 747.188 51.4739C746.782 51.6587 746.431 52.1205 746.135 52.8594L744.14 57.958C743.66 59.1773 743.697 60.1748 744.251 60.9507C744.805 61.7266 745.895 62.1515 747.52 62.2254V63.5H737.434V62.2254C738.247 62.1515 738.93 61.745 739.485 61.0061C740.076 60.2302 740.611 59.2142 741.092 57.958L751.732 31.0241C752.139 30.0635 752.49 29.1213 752.785 28.1977C753.118 27.274 753.413 26.3319 753.672 25.3713H756.886C757.145 26.3319 757.441 27.274 757.773 28.1977C758.106 29.1213 758.457 30.0635 758.826 31.0241L769.467 57.958ZM754.947 48.8138C755.464 48.8138 755.796 48.7399 755.944 48.5921C756.129 48.4074 756.111 48.0379 755.889 47.4837L752.065 38.0069H751.954L747.631 49.0355C747.816 48.9246 748.038 48.8692 748.296 48.8692C748.555 48.8323 748.851 48.8138 749.183 48.8138H754.947Z" fill="white"/>
<path d="M829.588 38.6819C824.064 36.4759 817.582 37.6524 813.162 42.0646C807.196 48.021 807.196 57.6541 813.162 63.6105C817.582 68.0227 824.064 69.1993 829.588 66.9932V59.9338C828.483 60.4485 827.304 60.7427 826.052 60.7427C821.633 60.7427 818.097 57.2129 818.097 52.8008C818.097 48.3886 821.633 44.8589 826.052 44.8589C827.304 44.8589 828.557 45.1531 829.588 45.6678V38.6819Z" fill="white"/>
<path d="M827.087 31.6075C829.263 29.426 829.263 25.8153 827.087 23.5586C824.911 21.3772 821.31 21.3772 819.059 23.5586C816.808 25.7401 816.883 29.3508 819.059 31.6075C821.31 33.7889 824.911 33.7889 827.087 31.6075Z" fill="white"/>
<path d="M890.345 53.2474H891.62L891.066 63.5H864.353V62.2254C864.649 62.0776 865.092 61.8189 865.683 61.4495C866.311 61.08 866.958 60.6551 867.623 60.1748C869.47 58.8448 871.207 57.3299 872.832 55.6304C874.458 53.9309 875.881 52.1205 877.1 50.1993C878.319 48.2781 879.28 46.3568 879.982 44.4356C880.684 42.5144 881.035 40.6856 881.035 38.9491C881.035 37.2865 880.628 35.8825 879.815 34.7372C879.039 33.5918 877.617 33.0192 875.548 33.0192C873.812 33.0192 872.204 33.4995 870.727 34.4601C869.249 35.4207 867.789 36.917 866.348 38.9491L865.295 38.0624C866.81 34.2199 868.713 31.3566 871.004 29.4723C873.294 27.588 876.158 26.6459 879.594 26.6459C881.589 26.6459 883.381 26.9784 884.969 27.6435C886.558 28.2716 887.814 29.2691 888.738 30.6361C889.699 31.9662 890.179 33.7027 890.179 35.8456C890.179 39.6511 888.96 43.2164 886.521 46.5416C884.12 49.8668 880.757 52.9887 876.435 55.9075V56.0183H884.526C886.632 56.0183 888.091 55.7597 888.904 55.2425C889.717 54.7252 890.197 54.0602 890.345 53.2474ZM913.933 26.6459C915.854 26.6459 917.738 27.0154 919.585 27.7543C921.433 28.4932 923.095 29.6386 924.573 31.1903C926.051 32.7421 927.215 34.7002 928.065 37.0648C928.951 39.3924 929.395 42.1634 929.395 45.3778C929.395 48.5552 928.97 51.3261 928.12 53.6907C927.27 56.0553 926.107 58.0319 924.629 59.6206C923.151 61.2093 921.488 62.3916 919.641 63.1675C917.794 63.9434 915.872 64.3313 913.877 64.3313C911.956 64.3313 910.072 63.9618 908.224 63.2229C906.377 62.484 904.715 61.3386 903.237 59.7869C901.759 58.2351 900.577 56.2954 899.69 53.9678C898.84 51.6032 898.415 48.8138 898.415 45.5994C898.415 42.422 898.84 39.6511 899.69 37.2865C900.54 34.9219 901.703 32.9453 903.181 31.3566C904.659 29.7679 906.322 28.5856 908.169 27.8097C910.016 27.0338 911.938 26.6459 913.933 26.6459ZM914.099 61.9483C915.17 61.9483 916.149 61.468 917.036 60.5073C917.923 59.5467 918.625 57.9211 919.142 55.6304C919.696 53.3397 919.973 50.1993 919.973 46.2091C919.973 42.7361 919.733 39.725 919.253 37.1756C918.81 34.5894 918.126 32.5943 917.202 31.1903C916.279 29.7494 915.115 29.029 913.711 29.029C912.677 29.029 911.697 29.5093 910.774 30.4699C909.887 31.4305 909.167 33.0561 908.612 35.3468C908.095 37.6375 907.837 40.7779 907.837 44.7681C907.837 48.2411 908.058 51.2707 908.502 53.857C908.982 56.4063 909.684 58.4014 910.608 59.8423C911.531 61.2463 912.695 61.9483 914.099 61.9483ZM967.011 46.7633L949.831 48.2596L949.443 43.7706L966.623 42.2743L967.011 46.7633ZM1009.9 53.2474H1011.17L1010.62 63.5H983.906V62.2254C984.202 62.0776 984.645 61.8189 985.236 61.4495C985.864 61.08 986.511 60.6551 987.176 60.1748C989.023 58.8448 990.76 57.3299 992.385 55.6304C994.011 53.9309 995.433 52.1205 996.653 50.1993C997.872 48.2781 998.832 46.3568 999.534 44.4356C1000.24 42.5144 1000.59 40.6856 1000.59 38.9491C1000.59 37.2865 1000.18 35.8825 999.368 34.7372C998.592 33.5918 997.17 33.0192 995.101 33.0192C993.364 33.0192 991.757 33.4995 990.279 34.4601C988.802 35.4207 987.342 36.917 985.901 38.9491L984.848 38.0624C986.363 34.2199 988.266 31.3566 990.556 29.4723C992.847 27.588 995.711 26.6459 999.147 26.6459C1001.14 26.6459 1002.93 26.9784 1004.52 27.6435C1006.11 28.2716 1007.37 29.2691 1008.29 30.6361C1009.25 31.9662 1009.73 33.7027 1009.73 35.8456C1009.73 39.6511 1008.51 43.2164 1006.07 46.5416C1003.67 49.8668 1000.31 52.9887 995.988 55.9075V56.0183H1004.08C1006.18 56.0183 1007.64 55.7597 1008.46 55.2425C1009.27 54.7252 1009.75 54.0602 1009.9 53.2474ZM1032.54 57.4038C1032.54 58.7709 1032.65 59.8054 1032.88 60.5073C1033.13 61.1724 1033.65 61.6157 1034.43 61.8374C1035.24 62.0591 1036.46 62.1884 1038.09 62.2254V63.5H1017.58V62.2254C1019.24 62.1884 1020.46 62.0591 1021.24 61.8374C1022.05 61.6157 1022.57 61.1724 1022.79 60.5073C1023.01 59.8054 1023.12 58.7709 1023.12 57.4038V33.2963L1018.02 36.4552L1016.86 34.6818L1029.72 26.6459H1032.93C1032.78 27.3479 1032.67 28.0499 1032.6 28.7519C1032.56 29.4538 1032.54 30.1558 1032.54 30.8578V57.4038ZM1057.89 63.5V62.2254C1058.97 62.1515 1059.74 61.8744 1060.22 61.3941C1060.7 60.9138 1060.94 59.7684 1060.94 57.958V32.1879C1060.94 30.3775 1060.66 29.2322 1060.11 28.7519C1059.59 28.2346 1058.58 27.9575 1057.06 27.9206V26.6459H1072.86V27.9206C1071.79 27.9575 1071.01 28.2346 1070.53 28.7519C1070.05 29.2322 1069.81 30.3775 1069.81 32.1879V41.9972C1070.1 41.7755 1070.46 41.6277 1070.86 41.5538C1071.31 41.4799 1071.82 41.443 1072.41 41.443H1082.89C1083.89 41.443 1084.59 41.2767 1084.99 40.9442C1085.4 40.6117 1085.6 39.9466 1085.6 38.9491V32.1879C1085.6 30.3775 1085.33 29.2322 1084.77 28.7519C1084.25 28.2346 1083.24 27.9575 1081.72 27.9206V26.6459H1097.52V27.9206C1096.45 27.9575 1095.67 28.2346 1095.19 28.7519C1094.71 29.2322 1094.47 30.3775 1094.47 32.1879V57.958C1094.47 59.7684 1094.75 60.9138 1095.3 61.3941C1095.86 61.8744 1096.87 62.1515 1098.35 62.2254V63.5H1082.56V62.2254C1083.63 62.1515 1084.4 61.8744 1084.88 61.3941C1085.36 60.9138 1085.6 59.7684 1085.6 57.958V43.2164C1085.31 43.475 1084.94 43.6413 1084.5 43.7152C1084.05 43.7891 1083.55 43.826 1083 43.826H1072.52C1071.53 43.826 1070.82 43.9923 1070.42 44.3248C1070.01 44.6573 1069.81 45.3039 1069.81 46.2645V57.958C1069.81 59.7684 1070.09 60.9138 1070.64 61.3941C1071.19 61.8744 1072.21 62.1515 1073.69 62.2254V63.5H1057.89ZM1122.79 25.8146C1125.42 25.8146 1127.85 26.258 1130.11 27.1447C1132.36 28.0314 1134.36 29.3245 1136.09 31.0241C1137.83 32.6867 1139.18 34.7002 1140.14 37.0648C1141.1 39.4294 1141.58 42.0711 1141.58 44.9898C1141.58 47.9086 1141.1 50.5503 1140.14 52.9148C1139.18 55.2794 1137.83 57.3115 1136.09 59.011C1134.39 60.7105 1132.4 62.0221 1130.11 62.9458C1127.82 63.8695 1125.36 64.3313 1122.74 64.3313C1120.15 64.3313 1117.71 63.8879 1115.42 63.0012C1113.17 62.1145 1111.17 60.8399 1109.44 59.1773C1107.7 57.4777 1106.35 55.4457 1105.39 53.0811C1104.43 50.7165 1103.95 48.0749 1103.95 45.1561C1103.95 42.2373 1104.43 39.5956 1105.39 37.2311C1106.35 34.8665 1107.68 32.8344 1109.38 31.1349C1111.12 29.4354 1113.13 28.1238 1115.42 27.2001C1117.71 26.2764 1120.17 25.8146 1122.79 25.8146ZM1123.9 61.9483C1125.82 61.9483 1127.34 61.3202 1128.45 60.064C1129.55 58.7709 1130.35 56.9974 1130.83 54.7437C1131.35 52.49 1131.6 49.8668 1131.6 46.8741C1131.6 40.8518 1130.68 36.2335 1128.83 33.0192C1127.02 29.8048 1124.62 28.1977 1121.63 28.1977C1119.74 28.1977 1118.23 28.8257 1117.08 30.0819C1115.98 31.3381 1115.16 33.1115 1114.65 35.4022C1114.17 37.656 1113.93 40.2792 1113.93 43.2718C1113.93 49.2941 1114.83 53.9124 1116.64 57.1267C1118.49 60.3411 1120.91 61.9483 1123.9 61.9483ZM1147.88 64.3313C1146.96 64.3313 1145.98 64.2574 1144.94 64.1096C1143.91 63.9618 1143.02 63.7586 1142.28 63.5V62.2254C1143.02 62.2254 1143.85 61.9298 1144.78 61.3386C1145.7 60.7475 1146.64 59.5652 1147.6 57.7918L1155.53 43.4381C1153.05 42.81 1151.17 41.794 1149.87 40.39C1148.62 38.986 1147.99 37.2865 1147.99 35.2914C1147.99 33.7396 1148.45 32.2802 1149.38 30.9132C1150.34 29.5462 1151.89 28.4563 1154.03 27.6435C1156.21 26.7937 1159.13 26.3688 1162.79 26.3688C1163.97 26.3688 1165.34 26.4242 1166.89 26.5351C1168.44 26.609 1170.16 26.6459 1172.04 26.6459H1179.14V27.9206C1178.06 27.9575 1177.29 28.2346 1176.81 28.7519C1176.33 29.2322 1176.09 30.3775 1176.09 32.1879V57.958C1176.09 59.7684 1176.36 60.9138 1176.92 61.3941C1177.47 61.8744 1178.49 62.1515 1179.97 62.2254V63.5H1164.17V62.2254C1165.24 62.1515 1166.02 61.8744 1166.5 61.3941C1166.98 60.9138 1167.22 59.7684 1167.22 57.958V32.1879C1167.22 30.747 1166.96 29.8233 1166.44 29.4169C1165.96 28.9735 1165.11 28.7519 1163.9 28.7519C1162.31 28.7519 1160.87 29.3245 1159.57 30.4699C1158.32 31.5783 1157.69 33.2593 1157.69 35.5131C1157.69 36.6953 1157.93 37.8407 1158.41 38.9491C1158.89 40.0205 1159.74 40.9257 1160.96 41.6646C1162.21 42.4036 1163.93 42.8469 1166.11 42.9947V44.9344C1165.67 44.9344 1165.28 45.0268 1164.95 45.2115C1164.62 45.3593 1164.28 45.7472 1163.95 46.3753L1157.69 58.4568C1156.84 60.0825 1155.66 61.468 1154.14 62.6133C1152.63 63.7586 1150.54 64.3313 1147.88 64.3313ZM1197.48 41.3321H1202.86C1206.88 41.3321 1210.06 41.7755 1212.39 42.6622C1214.72 43.5489 1216.36 44.7681 1217.32 46.3199C1218.32 47.8717 1218.82 49.6636 1218.82 51.6956C1218.82 53.7277 1218.26 55.6489 1217.15 57.4593C1216.08 59.2327 1214.4 60.6921 1212.11 61.8374C1209.86 62.9458 1206.98 63.5 1203.47 63.5H1185.56V62.2254C1186.64 62.1515 1187.41 61.8744 1187.89 61.3941C1188.37 60.9138 1188.61 59.7684 1188.61 57.958V32.1879C1188.61 30.3775 1188.34 29.2322 1187.78 28.7519C1187.26 28.2346 1186.25 27.9575 1184.73 27.9206V26.6459H1215.21V35.7902H1213.94C1213.83 34.534 1213.59 33.4071 1213.22 32.4096C1212.85 31.3751 1212.22 30.5622 1211.33 29.9711C1210.45 29.343 1209.17 29.029 1207.51 29.029H1199.92C1199.14 29.029 1198.53 29.2322 1198.09 29.6386C1197.68 30.045 1197.48 30.8948 1197.48 32.1879V41.3321ZM1200.75 61.117C1202.71 61.117 1204.31 60.6551 1205.57 59.7315C1206.86 58.7709 1207.82 57.5886 1208.45 56.1846C1209.08 54.7806 1209.4 53.3951 1209.4 52.0281C1209.4 49.9961 1209.01 48.3704 1208.23 47.1512C1207.49 45.932 1206.48 45.0637 1205.18 44.5465C1203.93 43.9923 1202.5 43.7152 1200.92 43.7152H1197.48V57.958C1197.48 59.2512 1197.68 60.1009 1198.09 60.5073C1198.5 60.9138 1199.38 61.117 1200.75 61.117ZM1224.69 63.5V62.2254C1225.77 62.1515 1226.54 61.8744 1227.02 61.3941C1227.5 60.9138 1227.74 59.7684 1227.74 57.958V32.1879C1227.74 30.3775 1227.46 29.2322 1226.91 28.7519C1226.39 28.2346 1225.38 27.9575 1223.86 27.9206V26.6459H1227.74C1230.44 26.6459 1232.97 26.609 1235.33 26.5351C1237.7 26.4242 1239.47 26.3688 1240.65 26.3688C1244.5 26.3688 1247.53 26.7937 1249.74 27.6435C1252 28.4932 1253.6 29.6201 1254.57 31.0241C1255.56 32.3911 1256.06 33.9059 1256.06 35.5685C1256.06 37.4897 1255.43 39.3185 1254.18 41.055C1252.96 42.7915 1251 44.1401 1248.3 45.1007C1245.64 46.0243 1242.11 46.3199 1237.72 45.9874V44.0477C1239.71 44.1216 1241.36 43.7706 1242.65 42.9947C1243.94 42.1819 1244.89 41.1104 1245.48 39.7804C1246.1 38.4503 1246.42 37.0279 1246.42 35.5131C1246.42 33.481 1245.85 31.8554 1244.7 30.6361C1243.56 29.3799 1241.97 28.7519 1239.93 28.7519C1238.72 28.7519 1237.85 28.9735 1237.33 29.4169C1236.85 29.8233 1236.61 30.747 1236.61 32.1879V57.958C1236.61 59.1403 1236.72 60.0455 1236.94 60.6736C1237.2 61.2647 1237.64 61.6712 1238.27 61.8928C1238.94 62.0776 1239.86 62.1884 1241.04 62.2254V63.5H1224.69ZM1261.91 64.3313C1260.99 64.3313 1260.01 64.2574 1258.97 64.1096C1257.94 63.9618 1257.05 63.7586 1256.31 63.5V62.2254C1257.05 62.2254 1257.88 61.9298 1258.81 61.3386C1259.73 60.7475 1260.67 59.5652 1261.63 57.7918L1269.56 43.4381C1267.08 42.81 1265.2 41.794 1263.91 40.39C1262.65 38.986 1262.02 37.2865 1262.02 35.2914C1262.02 33.7396 1262.48 32.2802 1263.41 30.9132C1264.37 29.5462 1265.92 28.4563 1268.06 27.6435C1270.24 26.7937 1273.16 26.3688 1276.82 26.3688C1278 26.3688 1279.37 26.4242 1280.92 26.5351C1282.47 26.609 1284.19 26.6459 1286.07 26.6459H1293.17V27.9206C1292.1 27.9575 1291.32 28.2346 1290.84 28.7519C1290.36 29.2322 1290.12 30.3775 1290.12 32.1879V57.958C1290.12 59.7684 1290.4 60.9138 1290.95 61.3941C1291.51 61.8744 1292.52 62.1515 1294 62.2254V63.5H1278.2V62.2254C1279.28 62.1515 1280.05 61.8744 1280.53 61.3941C1281.01 60.9138 1281.25 59.7684 1281.25 57.958V32.1879C1281.25 30.747 1280.99 29.8233 1280.48 29.4169C1280 28.9735 1279.15 28.7519 1277.93 28.7519C1276.34 28.7519 1274.9 29.3245 1273.6 30.4699C1272.35 31.5783 1271.72 33.2593 1271.72 35.5131C1271.72 36.6953 1271.96 37.8407 1272.44 38.9491C1272.92 40.0205 1273.77 40.9257 1274.99 41.6646C1276.25 42.4036 1277.96 42.8469 1280.14 42.9947V44.9344C1279.7 44.9344 1279.31 45.0268 1278.98 45.2115C1278.65 45.3593 1278.32 45.7472 1277.98 46.3753L1271.72 58.4568C1270.87 60.0825 1269.69 61.468 1268.17 62.6133C1266.66 63.7586 1264.57 64.3313 1261.91 64.3313ZM1338.03 53.2474H1339.31L1338.75 63.5H1312.04V62.2254C1312.34 62.0776 1312.78 61.8189 1313.37 61.4495C1314 61.08 1314.65 60.6551 1315.31 60.1748C1317.16 58.8448 1318.89 57.3299 1320.52 55.6304C1322.15 53.9309 1323.57 52.1205 1324.79 50.1993C1326.01 48.2781 1326.97 46.3568 1327.67 44.4356C1328.37 42.5144 1328.72 40.6856 1328.72 38.9491C1328.72 37.2865 1328.32 35.8825 1327.5 34.7372C1326.73 33.5918 1325.3 33.0192 1323.24 33.0192C1321.5 33.0192 1319.89 33.4995 1318.41 34.4601C1316.94 35.4207 1315.48 36.917 1314.04 38.9491L1312.98 38.0624C1314.5 34.2199 1316.4 31.3566 1318.69 29.4723C1320.98 27.588 1323.84 26.6459 1327.28 26.6459C1329.28 26.6459 1331.07 26.9784 1332.66 27.6435C1334.25 28.2716 1335.5 29.2691 1336.43 30.6361C1337.39 31.9662 1337.87 33.7027 1337.87 35.8456C1337.87 39.6511 1336.65 43.2164 1334.21 46.5416C1331.81 49.8668 1328.44 52.9887 1324.12 55.9075V56.0183H1332.21C1334.32 56.0183 1335.78 55.7597 1336.59 55.2425C1337.4 54.7252 1337.88 54.0602 1338.03 53.2474ZM1361.62 26.6459C1363.54 26.6459 1365.43 27.0154 1367.27 27.7543C1369.12 28.4932 1370.78 29.6386 1372.26 31.1903C1373.74 32.7421 1374.9 34.7002 1375.75 37.0648C1376.64 39.3924 1377.08 42.1634 1377.08 45.3778C1377.08 48.5552 1376.66 51.3261 1375.81 53.6907C1374.96 56.0553 1373.79 58.0319 1372.32 59.6206C1370.84 61.2093 1369.18 62.3916 1367.33 63.1675C1365.48 63.9434 1363.56 64.3313 1361.56 64.3313C1359.64 64.3313 1357.76 63.9618 1355.91 63.2229C1354.06 62.484 1352.4 61.3386 1350.92 59.7869C1349.45 58.2351 1348.26 56.2954 1347.38 53.9678C1346.53 51.6032 1346.1 48.8138 1346.1 45.5994C1346.1 42.422 1346.53 39.6511 1347.38 37.2865C1348.23 34.9219 1349.39 32.9453 1350.87 31.3566C1352.35 29.7679 1354.01 28.5856 1355.86 27.8097C1357.7 27.0338 1359.62 26.6459 1361.62 26.6459ZM1361.79 61.9483C1362.86 61.9483 1363.84 61.468 1364.72 60.5073C1365.61 59.5467 1366.31 57.9211 1366.83 55.6304C1367.38 53.3397 1367.66 50.1993 1367.66 46.2091C1367.66 42.7361 1367.42 39.725 1366.94 37.1756C1366.5 34.5894 1365.81 32.5943 1364.89 31.1903C1363.97 29.7494 1362.8 29.029 1361.4 29.029C1360.36 29.029 1359.38 29.5093 1358.46 30.4699C1357.57 31.4305 1356.85 33.0561 1356.3 35.3468C1355.78 37.6375 1355.52 40.7779 1355.52 44.7681C1355.52 48.2411 1355.75 51.2707 1356.19 53.857C1356.67 56.4063 1357.37 58.4014 1358.29 59.8423C1359.22 61.2463 1360.38 61.9483 1361.79 61.9483ZM1407.69 53.2474H1408.96L1408.41 63.5H1381.69V62.2254C1381.99 62.0776 1382.43 61.8189 1383.02 61.4495C1383.65 61.08 1384.3 60.6551 1384.96 60.1748C1386.81 58.8448 1388.55 57.3299 1390.17 55.6304C1391.8 53.9309 1393.22 52.1205 1394.44 50.1993C1395.66 48.2781 1396.62 46.3568 1397.32 44.4356C1398.02 42.5144 1398.38 40.6856 1398.38 38.9491C1398.38 37.2865 1397.97 35.8825 1397.16 34.7372C1396.38 33.5918 1394.96 33.0192 1392.89 33.0192C1391.15 33.0192 1389.55 33.4995 1388.07 34.4601C1386.59 35.4207 1385.13 36.917 1383.69 38.9491L1382.64 38.0624C1384.15 34.2199 1386.05 31.3566 1388.34 29.4723C1390.64 27.588 1393.5 26.6459 1396.93 26.6459C1398.93 26.6459 1400.72 26.9784 1402.31 27.6435C1403.9 28.2716 1405.15 29.2691 1406.08 30.6361C1407.04 31.9662 1407.52 33.7027 1407.52 35.8456C1407.52 39.6511 1406.3 43.2164 1403.86 46.5416C1401.46 49.8668 1398.1 52.9887 1393.78 55.9075V56.0183H1401.87C1403.97 56.0183 1405.43 55.7597 1406.24 55.2425C1407.06 54.7252 1407.54 54.0602 1407.69 53.2474ZM1438.48 49.368H1442.36V56.2954H1440.03C1439 56.2954 1438.48 56.942 1438.48 58.2351C1438.48 59.1219 1438.48 59.9901 1438.48 60.8399C1438.51 61.6527 1438.55 62.5394 1438.59 63.5H1429.83C1429.91 62.2808 1429.96 61.0985 1430 59.9531C1430.04 58.7709 1430.07 57.5516 1430.11 56.2954H1412.6V55.0208C1413.56 54.0971 1414.43 53.1365 1415.2 52.139L1433.32 29.4723C1433.73 28.9551 1434.1 28.4563 1434.43 27.976C1434.8 27.4587 1435.1 27.0154 1435.32 26.6459H1438.53L1438.48 49.368ZM1430 37.7853L1420.74 49.368H1430.16V37.7853H1430ZM1487.82 26.6459V36.8986H1486.55C1486.37 35.2729 1486.03 33.8874 1485.55 32.7421C1485.11 31.5598 1484.41 30.6546 1483.45 30.0265C1482.52 29.3615 1481.23 29.029 1479.57 29.029H1476.96C1476.19 29.029 1475.58 29.2322 1475.13 29.6386C1474.73 30.045 1474.52 30.8948 1474.52 32.1879V57.958C1474.52 59.7684 1474.8 60.9138 1475.36 61.3941C1475.91 61.8744 1476.93 62.1515 1478.4 62.2254V63.5H1462.61V62.2254C1463.68 62.1515 1464.46 61.8744 1464.94 61.3941C1465.42 60.9138 1465.66 59.7684 1465.66 57.958V32.1879C1465.66 30.3775 1465.38 29.2322 1464.83 28.7519C1464.31 28.2346 1463.29 27.9575 1461.78 27.9206V26.6459H1487.82ZM1510.03 25.8146C1512.65 25.8146 1515.09 26.258 1517.34 27.1447C1519.6 28.0314 1521.59 29.3245 1523.33 31.0241C1525.06 32.6867 1526.41 34.7002 1527.37 37.0648C1528.33 39.4294 1528.81 42.0711 1528.81 44.9898C1528.81 47.9086 1528.33 50.5503 1527.37 52.9148C1526.41 55.2794 1525.06 57.3115 1523.33 59.011C1521.63 60.7105 1519.63 62.0221 1517.34 62.9458C1515.05 63.8695 1512.6 64.3313 1509.97 64.3313C1507.39 64.3313 1504.95 63.8879 1502.66 63.0012C1500.4 62.1145 1498.41 60.8399 1496.67 59.1773C1494.93 57.4777 1493.59 55.4457 1492.63 53.0811C1491.66 50.7165 1491.18 48.0749 1491.18 45.1561C1491.18 42.2373 1491.66 39.5956 1492.63 37.2311C1493.59 34.8665 1494.92 32.8344 1496.62 31.1349C1498.35 29.4354 1500.37 28.1238 1502.66 27.2001C1504.95 26.2764 1507.4 25.8146 1510.03 25.8146ZM1511.14 61.9483C1513.06 61.9483 1514.57 61.3202 1515.68 60.064C1516.79 58.7709 1517.58 56.9974 1518.06 54.7437C1518.58 52.49 1518.84 49.8668 1518.84 46.8741C1518.84 40.8518 1517.92 36.2335 1516.07 33.0192C1514.26 29.8048 1511.86 28.1977 1508.86 28.1977C1506.98 28.1977 1505.46 28.8257 1504.32 30.0819C1503.21 31.3381 1502.4 33.1115 1501.88 35.4022C1501.4 37.656 1501.16 40.2792 1501.16 43.2718C1501.16 49.2941 1502.07 53.9124 1503.88 57.1267C1505.72 60.3411 1508.14 61.9483 1511.14 61.9483ZM1552.85 31.0241L1562.05 57.958C1562.38 58.9186 1562.86 59.8054 1563.49 60.6182C1564.15 61.3941 1565.17 61.9298 1566.54 62.2254L1563.99 74.861H1562.71C1562.64 72.5704 1562.31 70.5753 1561.71 68.8757C1561.12 67.1762 1560.38 65.8461 1559.5 64.8855C1558.61 63.9618 1557.65 63.5 1556.62 63.5H1541.76C1540.4 63.5 1539.05 63.9618 1537.72 64.8855C1536.42 65.8461 1535.32 67.1762 1534.39 68.8757C1533.51 70.5753 1532.93 72.5704 1532.67 74.861H1531.4V62.2254C1532.06 61.9298 1532.71 61.431 1533.34 60.729C1533.97 59.9901 1534.54 59.1588 1535.06 58.2351C1535.61 57.3115 1536.04 56.4432 1536.33 55.6304L1545.75 31.0241C1546.12 30.0635 1546.47 29.1213 1546.81 28.1977C1547.14 27.274 1547.43 26.3319 1547.69 25.3713H1550.91C1551.17 26.3319 1551.46 27.274 1551.79 28.1977C1552.16 29.1213 1552.51 30.0635 1552.85 31.0241ZM1550.52 61.117C1552 61.117 1552.81 60.8768 1552.96 60.3965C1553.11 59.9162 1552.98 59.1034 1552.57 57.958L1546.09 38.0069H1545.98L1537.33 61.117H1550.52ZM1600.45 57.958C1600.97 59.2142 1601.39 60.1379 1601.73 60.729C1602.1 61.3202 1602.48 61.7081 1602.89 61.8928C1603.3 62.0406 1603.79 62.1515 1604.39 62.2254V63.5H1588.92V62.2254C1590.4 62.1515 1591.21 61.7081 1591.36 60.8953C1591.55 60.0825 1591.42 59.1034 1590.97 57.958L1588.2 50.7535C1587.98 50.9382 1587.69 51.0675 1587.32 51.1414C1586.98 51.1784 1586.61 51.1968 1586.21 51.1968H1579.95C1579.17 51.1968 1578.58 51.2892 1578.17 51.4739C1577.77 51.6587 1577.41 52.1205 1577.12 52.8594L1575.12 57.958C1574.64 59.1773 1574.68 60.1748 1575.24 60.9507C1575.79 61.7266 1576.88 62.1515 1578.5 62.2254V63.5H1568.42V62.2254C1569.23 62.1515 1569.91 61.745 1570.47 61.0061C1571.06 60.2302 1571.6 59.2142 1572.08 57.958L1582.72 31.0241C1583.12 30.0635 1583.47 29.1213 1583.77 28.1977C1584.1 27.274 1584.4 26.3319 1584.66 25.3713H1587.87C1588.13 26.3319 1588.42 27.274 1588.76 28.1977C1589.09 29.1213 1589.44 30.0635 1589.81 31.0241L1600.45 57.958ZM1585.93 48.8138C1586.45 48.8138 1586.78 48.7399 1586.93 48.5921C1587.11 48.4074 1587.09 48.0379 1586.87 47.4837L1583.05 38.0069H1582.94L1578.62 49.0355C1578.8 48.9246 1579.02 48.8692 1579.28 48.8692C1579.54 48.8323 1579.83 48.8138 1580.17 48.8138H1585.93Z" fill="white"/>
<path d="M1660.58 38.6819C1655.06 36.4759 1648.57 37.6524 1644.15 42.0646C1638.19 48.021 1638.19 57.6541 1644.15 63.6105C1648.57 68.0227 1655.06 69.1993 1660.58 66.9932V59.9338C1659.48 60.4485 1658.3 60.7427 1657.04 60.7427C1652.63 60.7427 1649.09 57.2129 1649.09 52.8008C1649.09 48.3886 1652.63 44.8589 1657.04 44.8589C1658.3 44.8589 1659.55 45.1531 1660.58 45.6678V38.6819Z" fill="white"/>
<path d="M1658.08 31.6075C1660.26 29.426 1660.26 25.8153 1658.08 23.5586C1655.9 21.3772 1652.3 21.3772 1650.05 23.5586C1647.8 25.7401 1647.87 29.3508 1650.05 31.6075C1652.3 33.7889 1655.9 33.7889 1658.08 31.6075Z" fill="white"/>
<path d="M1721.33 53.2474H1722.6L1722.05 63.5H1695.34V62.2254C1695.63 62.0776 1696.08 61.8189 1696.67 61.4495C1697.3 61.08 1697.94 60.6551 1698.61 60.1748C1700.45 58.8448 1702.19 57.3299 1703.82 55.6304C1705.44 53.9309 1706.86 52.1205 1708.08 50.1993C1709.3 48.2781 1710.26 46.3568 1710.97 44.4356C1711.67 42.5144 1712.02 40.6856 1712.02 38.9491C1712.02 37.2865 1711.61 35.8825 1710.8 34.7372C1710.02 33.5918 1708.6 33.0192 1706.53 33.0192C1704.8 33.0192 1703.19 33.4995 1701.71 34.4601C1700.23 35.4207 1698.77 36.917 1697.33 38.9491L1696.28 38.0624C1697.79 34.2199 1699.7 31.3566 1701.99 29.4723C1704.28 27.588 1707.14 26.6459 1710.58 26.6459C1712.57 26.6459 1714.37 26.9784 1715.95 27.6435C1717.54 28.2716 1718.8 29.2691 1719.72 30.6361C1720.68 31.9662 1721.16 33.7027 1721.16 35.8456C1721.16 39.6511 1719.94 43.2164 1717.51 46.5416C1715.1 49.8668 1711.74 52.9887 1707.42 55.9075V56.0183H1715.51C1717.62 56.0183 1719.08 55.7597 1719.89 55.2425C1720.7 54.7252 1721.18 54.0602 1721.33 53.2474ZM1744.92 26.6459C1746.84 26.6459 1748.72 27.0154 1750.57 27.7543C1752.42 28.4932 1754.08 29.6386 1755.56 31.1903C1757.04 32.7421 1758.2 34.7002 1759.05 37.0648C1759.94 39.3924 1760.38 42.1634 1760.38 45.3778C1760.38 48.5552 1759.95 51.3261 1759.1 53.6907C1758.25 56.0553 1757.09 58.0319 1755.61 59.6206C1754.14 61.2093 1752.47 62.3916 1750.63 63.1675C1748.78 63.9434 1746.86 64.3313 1744.86 64.3313C1742.94 64.3313 1741.06 63.9618 1739.21 63.2229C1737.36 62.484 1735.7 61.3386 1734.22 59.7869C1732.74 58.2351 1731.56 56.2954 1730.67 53.9678C1729.82 51.6032 1729.4 48.8138 1729.4 45.5994C1729.4 42.422 1729.82 39.6511 1730.67 37.2865C1731.52 34.9219 1732.69 32.9453 1734.17 31.3566C1735.64 29.7679 1737.31 28.5856 1739.15 27.8097C1741 27.0338 1742.92 26.6459 1744.92 26.6459ZM1745.08 61.9483C1746.15 61.9483 1747.13 61.468 1748.02 60.5073C1748.91 59.5467 1749.61 57.9211 1750.13 55.6304C1750.68 53.3397 1750.96 50.1993 1750.96 46.2091C1750.96 42.7361 1750.72 39.725 1750.24 37.1756C1749.79 34.5894 1749.11 32.5943 1748.19 31.1903C1747.26 29.7494 1746.1 29.029 1744.7 29.029C1743.66 29.029 1742.68 29.5093 1741.76 30.4699C1740.87 31.4305 1740.15 33.0561 1739.6 35.3468C1739.08 37.6375 1738.82 40.7779 1738.82 44.7681C1738.82 48.2411 1739.04 51.2707 1739.49 53.857C1739.97 56.4063 1740.67 58.4014 1741.59 59.8423C1742.52 61.2463 1743.68 61.9483 1745.08 61.9483ZM1798 46.7633L1780.82 48.2596L1780.43 43.7706L1797.61 42.2743L1798 46.7633ZM1840.88 53.2474H1842.16L1841.6 63.5H1814.89V62.2254C1815.19 62.0776 1815.63 61.8189 1816.22 61.4495C1816.85 61.08 1817.5 60.6551 1818.16 60.1748C1820.01 58.8448 1821.74 57.3299 1823.37 55.6304C1825 53.9309 1826.42 52.1205 1827.64 50.1993C1828.86 48.2781 1829.82 46.3568 1830.52 44.4356C1831.22 42.5144 1831.57 40.6856 1831.57 38.9491C1831.57 37.2865 1831.17 35.8825 1830.35 34.7372C1829.58 33.5918 1828.15 33.0192 1826.09 33.0192C1824.35 33.0192 1822.74 33.4995 1821.26 34.4601C1819.79 35.4207 1818.33 36.917 1816.89 38.9491L1815.83 38.0624C1817.35 34.2199 1819.25 31.3566 1821.54 29.4723C1823.83 27.588 1826.69 26.6459 1830.13 26.6459C1832.13 26.6459 1833.92 26.9784 1835.51 27.6435C1837.1 28.2716 1838.35 29.2691 1839.28 30.6361C1840.24 31.9662 1840.72 33.7027 1840.72 35.8456C1840.72 39.6511 1839.5 43.2164 1837.06 46.5416C1834.66 49.8668 1831.29 52.9887 1826.97 55.9075V56.0183H1835.06C1837.17 56.0183 1838.63 55.7597 1839.44 55.2425C1840.25 54.7252 1840.73 54.0602 1840.88 53.2474ZM1863.53 57.4038C1863.53 58.7709 1863.64 59.8054 1863.86 60.5073C1864.12 61.1724 1864.64 61.6157 1865.41 61.8374C1866.22 62.0591 1867.44 62.1884 1869.07 62.2254V63.5H1848.56V62.2254C1850.23 62.1884 1851.45 62.0591 1852.22 61.8374C1853.03 61.6157 1853.55 61.1724 1853.77 60.5073C1854 59.8054 1854.11 58.7709 1854.11 57.4038V33.2963L1849.01 36.4552L1847.84 34.6818L1860.7 26.6459H1863.92C1863.77 27.3479 1863.66 28.0499 1863.58 28.7519C1863.55 29.4538 1863.53 30.1558 1863.53 30.8578V57.4038ZM1888.88 63.5V62.2254C1889.95 62.1515 1890.73 61.8744 1891.21 61.3941C1891.69 60.9138 1891.93 59.7684 1891.93 57.958V32.1879C1891.93 30.3775 1891.65 29.2322 1891.09 28.7519C1890.58 28.2346 1889.56 27.9575 1888.05 27.9206V26.6459H1903.84V27.9206C1902.77 27.9575 1901.99 28.2346 1901.51 28.7519C1901.03 29.2322 1900.79 30.3775 1900.79 32.1879V41.9972C1901.09 41.7755 1901.44 41.6277 1901.85 41.5538C1902.29 41.4799 1902.81 41.443 1903.4 41.443H1913.87C1914.87 41.443 1915.57 41.2767 1915.98 40.9442C1916.38 40.6117 1916.59 39.9466 1916.59 38.9491V32.1879C1916.59 30.3775 1916.31 29.2322 1915.76 28.7519C1915.24 28.2346 1914.22 27.9575 1912.71 27.9206V26.6459H1928.5V27.9206C1927.43 27.9575 1926.66 28.2346 1926.18 28.7519C1925.7 29.2322 1925.45 30.3775 1925.45 32.1879V57.958C1925.45 59.7684 1925.73 60.9138 1926.29 61.3941C1926.84 61.8744 1927.86 62.1515 1929.33 62.2254V63.5H1913.54V62.2254C1914.61 62.1515 1915.39 61.8744 1915.87 61.3941C1916.35 60.9138 1916.59 59.7684 1916.59 57.958V43.2164C1916.29 43.475 1915.92 43.6413 1915.48 43.7152C1915.04 43.7891 1914.54 43.826 1913.98 43.826H1903.51C1902.51 43.826 1901.81 43.9923 1901.4 44.3248C1901 44.6573 1900.79 45.3039 1900.79 46.2645V57.958C1900.79 59.7684 1901.07 60.9138 1901.62 61.3941C1902.18 61.8744 1903.19 62.1515 1904.67 62.2254V63.5H1888.88ZM1953.78 25.8146C1956.4 25.8146 1958.84 26.258 1961.09 27.1447C1963.35 28.0314 1965.34 29.3245 1967.08 31.0241C1968.81 32.6867 1970.16 34.7002 1971.12 37.0648C1972.08 39.4294 1972.56 42.0711 1972.56 44.9898C1972.56 47.9086 1972.08 50.5503 1971.12 52.9148C1970.16 55.2794 1968.81 57.3115 1967.08 59.011C1965.38 60.7105 1963.38 62.0221 1961.09 62.9458C1958.8 63.8695 1956.35 64.3313 1953.72 64.3313C1951.14 64.3313 1948.7 63.8879 1946.41 63.0012C1944.15 62.1145 1942.16 60.8399 1940.42 59.1773C1938.68 57.4777 1937.34 55.4457 1936.38 53.0811C1935.42 50.7165 1934.93 48.0749 1934.93 45.1561C1934.93 42.2373 1935.42 39.5956 1936.38 37.2311C1937.34 34.8665 1938.67 32.8344 1940.37 31.1349C1942.1 29.4354 1944.12 28.1238 1946.41 27.2001C1948.7 26.2764 1951.15 25.8146 1953.78 25.8146ZM1954.89 61.9483C1956.81 61.9483 1958.32 61.3202 1959.43 60.064C1960.54 58.7709 1961.33 56.9974 1961.81 54.7437C1962.33 52.49 1962.59 49.8668 1962.59 46.8741C1962.59 40.8518 1961.67 36.2335 1959.82 33.0192C1958.01 29.8048 1955.61 28.1977 1952.61 28.1977C1950.73 28.1977 1949.21 28.8257 1948.07 30.0819C1946.96 31.3381 1946.15 33.1115 1945.63 35.4022C1945.15 37.656 1944.91 40.2792 1944.91 43.2718C1944.91 49.2941 1945.82 53.9124 1947.63 57.1267C1949.47 60.3411 1951.89 61.9483 1954.89 61.9483ZM1978.86 64.3313C1977.94 64.3313 1976.96 64.2574 1975.93 64.1096C1974.89 63.9618 1974 63.7586 1973.27 63.5V62.2254C1974 62.2254 1974.84 61.9298 1975.76 61.3386C1976.68 60.7475 1977.63 59.5652 1978.59 57.7918L1986.51 43.4381C1984.04 42.81 1982.15 41.794 1980.86 40.39C1979.6 38.986 1978.97 37.2865 1978.97 35.2914C1978.97 33.7396 1979.44 32.2802 1980.36 30.9132C1981.32 29.5462 1982.87 28.4563 1985.01 27.6435C1987.19 26.7937 1990.11 26.3688 1993.77 26.3688C1994.95 26.3688 1996.32 26.4242 1997.87 26.5351C1999.42 26.609 2001.14 26.6459 2003.03 26.6459H2010.12V27.9206C2009.05 27.9575 2008.27 28.2346 2007.79 28.7519C2007.31 29.2322 2007.07 30.3775 2007.07 32.1879V57.958C2007.07 59.7684 2007.35 60.9138 2007.9 61.3941C2008.46 61.8744 2009.47 62.1515 2010.95 62.2254V63.5H1995.16V62.2254C1996.23 62.1515 1997 61.8744 1997.48 61.3941C1997.96 60.9138 1998.2 59.7684 1998.2 57.958V32.1879C1998.2 30.747 1997.95 29.8233 1997.43 29.4169C1996.95 28.9735 1996.1 28.7519 1994.88 28.7519C1993.29 28.7519 1991.85 29.3245 1990.56 30.4699C1989.3 31.5783 1988.67 33.2593 1988.67 35.5131C1988.67 36.6953 1988.91 37.8407 1989.39 38.9491C1989.87 40.0205 1990.72 40.9257 1991.94 41.6646C1993.2 42.4036 1994.92 42.8469 1997.1 42.9947V44.9344C1996.65 44.9344 1996.26 45.0268 1995.93 45.2115C1995.6 45.3593 1995.27 45.7472 1994.93 46.3753L1988.67 58.4568C1987.82 60.0825 1986.64 61.468 1985.13 62.6133C1983.61 63.7586 1981.52 64.3313 1978.86 64.3313ZM2028.46 41.3321H2033.84C2037.87 41.3321 2041.04 41.7755 2043.37 42.6622C2045.7 43.5489 2047.34 44.7681 2048.3 46.3199C2049.3 47.8717 2049.8 49.6636 2049.8 51.6956C2049.8 53.7277 2049.25 55.6489 2048.14 57.4593C2047.07 59.2327 2045.39 60.6921 2043.09 61.8374C2040.84 62.9458 2037.96 63.5 2034.45 63.5H2016.55V62.2254C2017.62 62.1515 2018.4 61.8744 2018.88 61.3941C2019.36 60.9138 2019.6 59.7684 2019.6 57.958V32.1879C2019.6 30.3775 2019.32 29.2322 2018.77 28.7519C2018.25 28.2346 2017.23 27.9575 2015.72 27.9206V26.6459H2046.2V35.7902H2044.92C2044.81 34.534 2044.57 33.4071 2044.2 32.4096C2043.83 31.3751 2043.21 30.5622 2042.32 29.9711C2041.43 29.343 2040.16 29.029 2038.5 29.029H2030.9C2030.13 29.029 2029.52 29.2322 2029.07 29.6386C2028.67 30.045 2028.46 30.8948 2028.46 32.1879V41.3321ZM2031.73 61.117C2033.69 61.117 2035.3 60.6551 2036.56 59.7315C2037.85 58.7709 2038.81 57.5886 2039.44 56.1846C2040.07 54.7806 2040.38 53.3951 2040.38 52.0281C2040.38 49.9961 2039.99 48.3704 2039.22 47.1512C2038.48 45.932 2037.46 45.0637 2036.17 44.5465C2034.91 43.9923 2033.49 43.7152 2031.9 43.7152H2028.46V57.958C2028.46 59.2512 2028.67 60.1009 2029.07 60.5073C2029.48 60.9138 2030.37 61.117 2031.73 61.117ZM2055.68 63.5V62.2254C2056.75 62.1515 2057.53 61.8744 2058.01 61.3941C2058.49 60.9138 2058.73 59.7684 2058.73 57.958V32.1879C2058.73 30.3775 2058.45 29.2322 2057.9 28.7519C2057.38 28.2346 2056.36 27.9575 2054.85 27.9206V26.6459H2058.73C2061.42 26.6459 2063.95 26.609 2066.32 26.5351C2068.68 26.4242 2070.46 26.3688 2071.64 26.3688C2075.48 26.3688 2078.51 26.7937 2080.73 27.6435C2082.98 28.4932 2084.59 29.6201 2085.55 31.0241C2086.55 32.3911 2087.05 33.9059 2087.05 35.5685C2087.05 37.4897 2086.42 39.3185 2085.16 41.055C2083.94 42.7915 2081.98 44.1401 2079.29 45.1007C2076.63 46.0243 2073.1 46.3199 2068.7 45.9874V44.0477C2070.7 44.1216 2072.34 43.7706 2073.63 42.9947C2074.93 42.1819 2075.87 41.1104 2076.46 39.7804C2077.09 38.4503 2077.4 37.0279 2077.4 35.5131C2077.4 33.481 2076.83 31.8554 2075.68 30.6361C2074.54 29.3799 2072.95 28.7519 2070.92 28.7519C2069.7 28.7519 2068.83 28.9735 2068.31 29.4169C2067.83 29.8233 2067.59 30.747 2067.59 32.1879V57.958C2067.59 59.1403 2067.7 60.0455 2067.93 60.6736C2068.18 61.2647 2068.63 61.6712 2069.26 61.8928C2069.92 62.0776 2070.84 62.1884 2072.03 62.2254V63.5H2055.68ZM2092.9 64.3313C2091.97 64.3313 2090.99 64.2574 2089.96 64.1096C2088.92 63.9618 2088.04 63.7586 2087.3 63.5V62.2254C2088.04 62.2254 2088.87 61.9298 2089.79 61.3386C2090.72 60.7475 2091.66 59.5652 2092.62 57.7918L2100.54 43.4381C2098.07 42.81 2096.18 41.794 2094.89 40.39C2093.63 38.986 2093.01 37.2865 2093.01 35.2914C2093.01 33.7396 2093.47 32.2802 2094.39 30.9132C2095.35 29.5462 2096.9 28.4563 2099.05 27.6435C2101.23 26.7937 2104.15 26.3688 2107.8 26.3688C2108.99 26.3688 2110.35 26.4242 2111.9 26.5351C2113.46 26.609 2115.17 26.6459 2117.06 26.6459H2124.15V27.9206C2123.08 27.9575 2122.3 28.2346 2121.82 28.7519C2121.34 29.2322 2121.1 30.3775 2121.1 32.1879V57.958C2121.1 59.7684 2121.38 60.9138 2121.94 61.3941C2122.49 61.8744 2123.51 62.1515 2124.98 62.2254V63.5H2109.19V62.2254C2110.26 62.1515 2111.04 61.8744 2111.52 61.3941C2112 60.9138 2112.24 59.7684 2112.24 57.958V32.1879C2112.24 30.747 2111.98 29.8233 2111.46 29.4169C2110.98 28.9735 2110.13 28.7519 2108.91 28.7519C2107.32 28.7519 2105.88 29.3245 2104.59 30.4699C2103.33 31.5783 2102.7 33.2593 2102.7 35.5131C2102.7 36.6953 2102.95 37.8407 2103.43 38.9491C2103.91 40.0205 2104.76 40.9257 2105.97 41.6646C2107.23 42.4036 2108.95 42.8469 2111.13 42.9947V44.9344C2110.69 44.9344 2110.3 45.0268 2109.96 45.2115C2109.63 45.3593 2109.3 45.7472 2108.97 46.3753L2102.7 58.4568C2101.86 60.0825 2100.67 61.468 2099.16 62.6133C2097.64 63.7586 2095.56 64.3313 2092.9 64.3313ZM2169.02 53.2474H2170.29L2169.74 63.5H2143.02V62.2254C2143.32 62.0776 2143.76 61.8189 2144.35 61.4495C2144.98 61.08 2145.63 60.6551 2146.29 60.1748C2148.14 58.8448 2149.88 57.3299 2151.5 55.6304C2153.13 53.9309 2154.55 52.1205 2155.77 50.1993C2156.99 48.2781 2157.95 46.3568 2158.65 44.4356C2159.36 42.5144 2159.71 40.6856 2159.71 38.9491C2159.71 37.2865 2159.3 35.8825 2158.49 34.7372C2157.71 33.5918 2156.29 33.0192 2154.22 33.0192C2152.48 33.0192 2150.88 33.4995 2149.4 34.4601C2147.92 35.4207 2146.46 36.917 2145.02 38.9491L2143.97 38.0624C2145.48 34.2199 2147.38 31.3566 2149.68 29.4723C2151.97 27.588 2154.83 26.6459 2158.27 26.6459C2160.26 26.6459 2162.05 26.9784 2163.64 27.6435C2165.23 28.2716 2166.49 29.2691 2167.41 30.6361C2168.37 31.9662 2168.85 33.7027 2168.85 35.8456C2168.85 39.6511 2167.63 43.2164 2165.19 46.5416C2162.79 49.8668 2159.43 52.9887 2155.11 55.9075V56.0183H2163.2C2165.3 56.0183 2166.76 55.7597 2167.58 55.2425C2168.39 54.7252 2168.87 54.0602 2169.02 53.2474ZM2192.6 26.6459C2194.53 26.6459 2196.41 27.0154 2198.26 27.7543C2200.1 28.4932 2201.77 29.6386 2203.24 31.1903C2204.72 32.7421 2205.89 34.7002 2206.74 37.0648C2207.62 39.3924 2208.07 42.1634 2208.07 45.3778C2208.07 48.5552 2207.64 51.3261 2206.79 53.6907C2205.94 56.0553 2204.78 58.0319 2203.3 59.6206C2201.82 61.2093 2200.16 62.3916 2198.31 63.1675C2196.47 63.9434 2194.54 64.3313 2192.55 64.3313C2190.63 64.3313 2188.74 63.9618 2186.9 63.2229C2185.05 62.484 2183.39 61.3386 2181.91 59.7869C2180.43 58.2351 2179.25 56.2954 2178.36 53.9678C2177.51 51.6032 2177.09 48.8138 2177.09 45.5994C2177.09 42.422 2177.51 39.6511 2178.36 37.2865C2179.21 34.9219 2180.38 32.9453 2181.85 31.3566C2183.33 29.7679 2184.99 28.5856 2186.84 27.8097C2188.69 27.0338 2190.61 26.6459 2192.6 26.6459ZM2192.77 61.9483C2193.84 61.9483 2194.82 61.468 2195.71 60.5073C2196.59 59.5467 2197.3 57.9211 2197.81 55.6304C2198.37 53.3397 2198.65 50.1993 2198.65 46.2091C2198.65 42.7361 2198.4 39.725 2197.92 37.1756C2197.48 34.5894 2196.8 32.5943 2195.87 31.1903C2194.95 29.7494 2193.79 29.029 2192.38 29.029C2191.35 29.029 2190.37 29.5093 2189.45 30.4699C2188.56 31.4305 2187.84 33.0561 2187.28 35.3468C2186.77 37.6375 2186.51 40.7779 2186.51 44.7681C2186.51 48.2411 2186.73 51.2707 2187.17 53.857C2187.65 56.4063 2188.36 58.4014 2189.28 59.8423C2190.2 61.2463 2191.37 61.9483 2192.77 61.9483ZM2238.67 53.2474H2239.94L2239.39 63.5H2212.68V62.2254C2212.97 62.0776 2213.42 61.8189 2214.01 61.4495C2214.64 61.08 2215.28 60.6551 2215.95 60.1748C2217.8 58.8448 2219.53 57.3299 2221.16 55.6304C2222.78 53.9309 2224.21 52.1205 2225.42 50.1993C2226.64 48.2781 2227.6 46.3568 2228.31 44.4356C2229.01 42.5144 2229.36 40.6856 2229.36 38.9491C2229.36 37.2865 2228.95 35.8825 2228.14 34.7372C2227.36 33.5918 2225.94 33.0192 2223.87 33.0192C2222.14 33.0192 2220.53 33.4995 2219.05 34.4601C2217.57 35.4207 2216.11 36.917 2214.67 38.9491L2213.62 38.0624C2215.14 34.2199 2217.04 31.3566 2219.33 29.4723C2221.62 27.588 2224.48 26.6459 2227.92 26.6459C2229.91 26.6459 2231.71 26.9784 2233.29 27.6435C2234.88 28.2716 2236.14 29.2691 2237.06 30.6361C2238.02 31.9662 2238.5 33.7027 2238.5 35.8456C2238.5 39.6511 2237.28 43.2164 2234.85 46.5416C2232.44 49.8668 2229.08 52.9887 2224.76 55.9075V56.0183H2232.85C2234.96 56.0183 2236.42 55.7597 2237.23 55.2425C2238.04 54.7252 2238.52 54.0602 2238.67 53.2474ZM2269.46 49.368H2273.34V56.2954H2271.01C2269.98 56.2954 2269.46 56.942 2269.46 58.2351C2269.46 59.1219 2269.46 59.9901 2269.46 60.8399C2269.5 61.6527 2269.54 62.5394 2269.57 63.5H2260.82C2260.89 62.2808 2260.95 61.0985 2260.98 59.9531C2261.02 58.7709 2261.06 57.5516 2261.09 56.2954H2243.58V55.0208C2244.54 54.0971 2245.41 53.1365 2246.19 52.139L2264.31 29.4723C2264.71 28.9551 2265.08 28.4563 2265.42 27.976C2265.79 27.4587 2266.08 27.0154 2266.3 26.6459H2269.52L2269.46 49.368ZM2260.98 37.7853L2251.73 49.368H2261.15V37.7853H2260.98ZM2318.81 26.6459V36.8986H2317.53C2317.35 35.2729 2317.02 33.8874 2316.54 32.7421C2316.09 31.5598 2315.39 30.6546 2314.43 30.0265C2313.51 29.3615 2312.21 29.029 2310.55 29.029H2307.95C2307.17 29.029 2306.56 29.2322 2306.12 29.6386C2305.71 30.045 2305.51 30.8948 2305.51 32.1879V57.958C2305.51 59.7684 2305.79 60.9138 2306.34 61.3941C2306.89 61.8744 2307.91 62.1515 2309.39 62.2254V63.5H2293.59V62.2254C2294.66 62.1515 2295.44 61.8744 2295.92 61.3941C2296.4 60.9138 2296.64 59.7684 2296.64 57.958V32.1879C2296.64 30.3775 2296.36 29.2322 2295.81 28.7519C2295.29 28.2346 2294.28 27.9575 2292.76 27.9206V26.6459H2318.81ZM2341.01 25.8146C2343.63 25.8146 2346.07 26.258 2348.33 27.1447C2350.58 28.0314 2352.58 29.3245 2354.31 31.0241C2356.05 32.6867 2357.4 34.7002 2358.36 37.0648C2359.32 39.4294 2359.8 42.0711 2359.8 44.9898C2359.8 47.9086 2359.32 50.5503 2358.36 52.9148C2357.4 55.2794 2356.05 57.3115 2354.31 59.011C2352.61 60.7105 2350.62 62.0221 2348.33 62.9458C2346.04 63.8695 2343.58 64.3313 2340.96 64.3313C2338.37 64.3313 2335.93 63.8879 2333.64 63.0012C2331.39 62.1145 2329.39 60.8399 2327.66 59.1773C2325.92 57.4777 2324.57 55.4457 2323.61 53.0811C2322.65 50.7165 2322.17 48.0749 2322.17 45.1561C2322.17 42.2373 2322.65 39.5956 2323.61 37.2311C2324.57 34.8665 2325.9 32.8344 2327.6 31.1349C2329.34 29.4354 2331.35 28.1238 2333.64 27.2001C2335.93 26.2764 2338.39 25.8146 2341.01 25.8146ZM2342.12 61.9483C2344.04 61.9483 2345.56 61.3202 2346.66 60.064C2347.77 58.7709 2348.57 56.9974 2349.05 54.7437C2349.56 52.49 2349.82 49.8668 2349.82 46.8741C2349.82 40.8518 2348.9 36.2335 2347.05 33.0192C2345.24 29.8048 2342.84 28.1977 2339.85 28.1977C2337.96 28.1977 2336.45 28.8257 2335.3 30.0819C2334.2 31.3381 2333.38 33.1115 2332.87 35.4022C2332.38 37.656 2332.14 40.2792 2332.14 43.2718C2332.14 49.2941 2333.05 53.9124 2334.86 57.1267C2336.71 60.3411 2339.13 61.9483 2342.12 61.9483ZM2383.83 31.0241L2393.03 57.958C2393.36 58.9186 2393.84 59.8054 2394.47 60.6182C2395.14 61.3941 2396.15 61.9298 2397.52 62.2254L2394.97 74.861H2393.7C2393.62 72.5704 2393.29 70.5753 2392.7 68.8757C2392.11 67.1762 2391.37 65.8461 2390.48 64.8855C2389.6 63.9618 2388.63 63.5 2387.6 63.5H2372.75C2371.38 63.5 2370.03 63.9618 2368.7 64.8855C2367.41 65.8461 2366.3 67.1762 2365.38 68.8757C2364.49 70.5753 2363.92 72.5704 2363.66 74.861H2362.38V62.2254C2363.05 61.9298 2363.7 61.431 2364.32 60.729C2364.95 59.9901 2365.52 59.1588 2366.04 58.2351C2366.6 57.3115 2367.02 56.4432 2367.32 55.6304L2376.74 31.0241C2377.11 30.0635 2377.46 29.1213 2377.79 28.1977C2378.12 27.274 2378.42 26.3319 2378.68 25.3713H2381.89C2382.15 26.3319 2382.45 27.274 2382.78 28.1977C2383.15 29.1213 2383.5 30.0635 2383.83 31.0241ZM2381.5 61.117C2382.98 61.117 2383.79 60.8768 2383.94 60.3965C2384.09 59.9162 2383.96 59.1034 2383.55 57.958L2377.07 38.0069H2376.96L2368.31 61.117H2381.5ZM2431.44 57.958C2431.95 59.2142 2432.38 60.1379 2432.71 60.729C2433.08 61.3202 2433.47 61.7081 2433.87 61.8928C2434.28 62.0406 2434.78 62.1515 2435.37 62.2254V63.5H2419.91V62.2254C2421.39 62.1515 2422.2 61.7081 2422.35 60.8953C2422.53 60.0825 2422.4 59.1034 2421.96 57.958L2419.19 50.7535C2418.97 50.9382 2418.67 51.0675 2418.3 51.1414C2417.97 51.1784 2417.6 51.1968 2417.19 51.1968H2410.93C2410.15 51.1968 2409.56 51.2892 2409.16 51.4739C2408.75 51.6587 2408.4 52.1205 2408.1 52.8594L2406.11 57.958C2405.63 59.1773 2405.67 60.1748 2406.22 60.9507C2406.77 61.7266 2407.86 62.1515 2409.49 62.2254V63.5H2399.4V62.2254C2400.22 62.1515 2400.9 61.745 2401.45 61.0061C2402.04 60.2302 2402.58 59.2142 2403.06 57.958L2413.7 31.0241C2414.11 30.0635 2414.46 29.1213 2414.75 28.1977C2415.09 27.274 2415.38 26.3319 2415.64 25.3713H2418.86C2419.11 26.3319 2419.41 27.274 2419.74 28.1977C2420.07 29.1213 2420.43 30.0635 2420.79 31.0241L2431.44 57.958ZM2416.92 48.8138C2417.43 48.8138 2417.77 48.7399 2417.91 48.5921C2418.1 48.4074 2418.08 48.0379 2417.86 47.4837L2414.03 38.0069H2413.92L2409.6 49.0355C2409.78 48.9246 2410.01 48.8692 2410.27 48.8692C2410.52 48.8323 2410.82 48.8138 2411.15 48.8138H2416.92Z" fill="white"/>
</svg>
