<svg width="3116" height="115" viewBox="0 0 3116 115" fill="none" xmlns="http://www.w3.org/2000/svg">
<rect x="0.015625" y="0.933594" width="3115.8" height="114" rx="4" fill="url(#paint0_linear_562_1650)"/>
<path d="M73.7556 67.9836H75.3656L74.6656 80.9336H40.9256V79.3236C41.299 79.1369 41.859 78.8103 42.6056 78.3436C43.399 77.8769 44.2156 77.3403 45.0556 76.7336C47.389 75.0536 49.5823 73.1403 51.6356 70.9936C53.689 68.8469 55.4856 66.5603 57.0256 64.1336C58.5656 61.7069 59.779 59.2803 60.6656 56.8536C61.5523 54.4269 61.9956 52.1169 61.9956 49.9236C61.9956 47.8236 61.4823 46.0503 60.4556 44.6036C59.4756 43.1569 57.679 42.4336 55.0656 42.4336C52.8723 42.4336 50.8423 43.0403 48.9756 44.2536C47.109 45.4669 45.2656 47.3569 43.4456 49.9236L42.1156 48.8036C44.029 43.9503 46.4323 40.3336 49.3256 37.9536C52.219 35.5736 55.8356 34.3836 60.1756 34.3836C62.6956 34.3836 64.959 34.8036 66.9656 35.6436C68.9723 36.4369 70.559 37.6969 71.7256 39.4236C72.939 41.1036 73.5456 43.2969 73.5456 46.0036C73.5456 50.8103 72.0056 55.3136 68.9256 59.5136C65.8923 63.7136 61.6456 67.6569 56.1856 71.3436V71.4836H66.4056C69.0656 71.4836 70.909 71.1569 71.9356 70.5036C72.9623 69.8503 73.569 69.0103 73.7556 67.9836ZM103.549 34.3836C105.976 34.3836 108.356 34.8503 110.689 35.7836C113.022 36.7169 115.122 38.1636 116.989 40.1236C118.856 42.0836 120.326 44.5569 121.399 47.5436C122.519 50.4836 123.079 53.9836 123.079 58.0436C123.079 62.0569 122.542 65.5569 121.469 68.5436C120.396 71.5303 118.926 74.0269 117.059 76.0336C115.192 78.0403 113.092 79.5336 110.759 80.5136C108.426 81.4936 105.999 81.9836 103.479 81.9836C101.052 81.9836 98.6722 81.5169 96.3388 80.5836C94.0055 79.6503 91.9055 78.2036 90.0388 76.2436C88.1722 74.2836 86.6788 71.8336 85.5588 68.8936C84.4855 65.9069 83.9488 62.3836 83.9488 58.3236C83.9488 54.3103 84.4855 50.8103 85.5588 47.8236C86.6322 44.8369 88.1022 42.3403 89.9688 40.3336C91.8355 38.3269 93.9355 36.8336 96.2688 35.8536C98.6022 34.8736 101.029 34.3836 103.549 34.3836ZM103.759 78.9736C105.112 78.9736 106.349 78.3669 107.469 77.1536C108.589 75.9403 109.476 73.8869 110.129 70.9936C110.829 68.1003 111.179 64.1336 111.179 59.0936C111.179 54.7069 110.876 50.9036 110.269 47.6836C109.709 44.4169 108.846 41.8969 107.679 40.1236C106.512 38.3036 105.042 37.3936 103.269 37.3936C101.962 37.3936 100.726 38.0003 99.5588 39.2136C98.4388 40.4269 97.5288 42.4803 96.8288 45.3736C96.1755 48.2669 95.8488 52.2336 95.8488 57.2736C95.8488 61.6603 96.1288 65.4869 96.6888 68.7536C97.2955 71.9736 98.1822 74.4936 99.3488 76.3136C100.516 78.0869 101.986 78.9736 103.759 78.9736ZM170.591 59.7936L148.891 61.6836L148.401 56.0136L170.101 54.1236L170.591 59.7936ZM224.762 67.9836H226.372L225.672 80.9336H191.932V79.3236C192.305 79.1369 192.865 78.8103 193.612 78.3436C194.405 77.8769 195.222 77.3403 196.062 76.7336C198.395 75.0536 200.588 73.1403 202.642 70.9936C204.695 68.8469 206.492 66.5603 208.032 64.1336C209.572 61.7069 210.785 59.2803 211.672 56.8536C212.558 54.4269 213.002 52.1169 213.002 49.9236C213.002 47.8236 212.488 46.0503 211.462 44.6036C210.482 43.1569 208.685 42.4336 206.072 42.4336C203.878 42.4336 201.848 43.0403 199.982 44.2536C198.115 45.4669 196.272 47.3569 194.452 49.9236L193.122 48.8036C195.035 43.9503 197.438 40.3336 200.332 37.9536C203.225 35.5736 206.842 34.3836 211.182 34.3836C213.702 34.3836 215.965 34.8036 217.972 35.6436C219.978 36.4369 221.565 37.6969 222.732 39.4236C223.945 41.1036 224.552 43.2969 224.552 46.0036C224.552 50.8103 223.012 55.3136 219.932 59.5136C216.898 63.7136 212.652 67.6569 207.192 71.3436V71.4836H217.412C220.072 71.4836 221.915 71.1569 222.942 70.5036C223.968 69.8503 224.575 69.0103 224.762 67.9836ZM253.365 73.2336C253.365 74.9603 253.505 76.2669 253.785 77.1536C254.111 77.9936 254.765 78.5536 255.745 78.8336C256.771 79.1136 258.311 79.2769 260.365 79.3236V80.9336H234.465V79.3236C236.565 79.2769 238.105 79.1136 239.085 78.8336C240.111 78.5536 240.765 77.9936 241.045 77.1536C241.325 76.2669 241.465 74.9603 241.465 73.2336V42.7836L235.025 46.7736L233.555 44.5336L249.795 34.3836H253.855C253.668 35.2703 253.528 36.1569 253.435 37.0436C253.388 37.9303 253.365 38.8169 253.365 39.7036V73.2336ZM285.384 80.9336V79.3236C286.738 79.2303 287.718 78.8803 288.324 78.2736C288.931 77.6669 289.234 76.2203 289.234 73.9336V41.3836C289.234 39.0969 288.884 37.6503 288.184 37.0436C287.531 36.3903 286.248 36.0403 284.334 35.9936V34.3836H304.284V35.9936C302.931 36.0403 301.951 36.3903 301.344 37.0436C300.738 37.6503 300.434 39.0969 300.434 41.3836V53.7736C300.808 53.4936 301.251 53.3069 301.764 53.2136C302.324 53.1203 302.978 53.0736 303.724 53.0736H316.954C318.214 53.0736 319.101 52.8636 319.614 52.4436C320.128 52.0236 320.384 51.1836 320.384 49.9236V41.3836C320.384 39.0969 320.034 37.6503 319.334 37.0436C318.681 36.3903 317.398 36.0403 315.484 35.9936V34.3836H335.434V35.9936C334.081 36.0403 333.101 36.3903 332.494 37.0436C331.888 37.6503 331.584 39.0969 331.584 41.3836V73.9336C331.584 76.2203 331.934 77.6669 332.634 78.2736C333.334 78.8803 334.618 79.2303 336.484 79.3236V80.9336H316.534V79.3236C317.888 79.2303 318.868 78.8803 319.474 78.2736C320.081 77.6669 320.384 76.2203 320.384 73.9336V55.3136C320.011 55.6403 319.544 55.8503 318.984 55.9436C318.424 56.0369 317.794 56.0836 317.094 56.0836H303.864C302.604 56.0836 301.718 56.2936 301.204 56.7136C300.691 57.1336 300.434 57.9503 300.434 59.1636V73.9336C300.434 76.2203 300.784 77.6669 301.484 78.2736C302.184 78.8803 303.468 79.2303 305.334 79.3236V80.9336H285.384ZM367.358 33.3336C370.671 33.3336 373.751 33.8936 376.598 35.0136C379.445 36.1336 381.965 37.7669 384.158 39.9136C386.351 42.0136 388.055 44.5569 389.268 47.5436C390.481 50.5303 391.088 53.8669 391.088 57.5536C391.088 61.2403 390.481 64.5769 389.268 67.5636C388.055 70.5503 386.351 73.1169 384.158 75.2636C382.011 77.4103 379.491 79.0669 376.598 80.2336C373.705 81.4003 370.601 81.9836 367.288 81.9836C364.021 81.9836 360.941 81.4236 358.048 80.3036C355.201 79.1836 352.681 77.5736 350.488 75.4736C348.295 73.3269 346.591 70.7603 345.378 67.7736C344.165 64.7869 343.558 61.4503 343.558 57.7636C343.558 54.0769 344.165 50.7403 345.378 47.7536C346.591 44.7669 348.271 42.2003 350.418 40.0536C352.611 37.9069 355.155 36.2503 358.048 35.0836C360.941 33.9169 364.045 33.3336 367.358 33.3336ZM368.758 78.9736C371.185 78.9736 373.098 78.1803 374.498 76.5936C375.898 74.9603 376.901 72.7203 377.508 69.8736C378.161 67.0269 378.488 63.7136 378.488 59.9336C378.488 52.3269 377.321 46.4936 374.988 42.4336C372.701 38.3736 369.668 36.3436 365.888 36.3436C363.508 36.3436 361.595 37.1369 360.148 38.7236C358.748 40.3103 357.721 42.5503 357.068 45.4436C356.461 48.2903 356.158 51.6036 356.158 55.3836C356.158 62.9903 357.301 68.8236 359.588 72.8836C361.921 76.9436 364.978 78.9736 368.758 78.9736ZM399.043 81.9836C397.877 81.9836 396.64 81.8903 395.333 81.7036C394.027 81.5169 392.907 81.2603 391.973 80.9336V79.3236C392.907 79.3236 393.957 78.9503 395.123 78.2036C396.29 77.4569 397.48 75.9636 398.693 73.7236L408.703 55.5936C405.577 54.8003 403.197 53.5169 401.563 51.7436C399.977 49.9703 399.183 47.8236 399.183 45.3036C399.183 43.3436 399.767 41.5003 400.933 39.7736C402.147 38.0469 404.107 36.6703 406.813 35.6436C409.567 34.5703 413.253 34.0336 417.873 34.0336C419.367 34.0336 421.093 34.1036 423.053 34.2436C425.013 34.3369 427.183 34.3836 429.563 34.3836H438.523V35.9936C437.17 36.0403 436.19 36.3903 435.583 37.0436C434.977 37.6503 434.673 39.0969 434.673 41.3836V73.9336C434.673 76.2203 435.023 77.6669 435.723 78.2736C436.423 78.8803 437.707 79.2303 439.573 79.3236V80.9336H419.623V79.3236C420.977 79.2303 421.957 78.8803 422.563 78.2736C423.17 77.6669 423.473 76.2203 423.473 73.9336V41.3836C423.473 39.5636 423.147 38.3969 422.493 37.8836C421.887 37.3236 420.813 37.0436 419.273 37.0436C417.267 37.0436 415.447 37.7669 413.813 39.2136C412.227 40.6136 411.433 42.7369 411.433 45.5836C411.433 47.0769 411.737 48.5236 412.343 49.9236C412.95 51.2769 414.023 52.4203 415.563 53.3536C417.15 54.2869 419.32 54.8469 422.073 55.0336V57.4836C421.513 57.4836 421.023 57.6003 420.603 57.8336C420.183 58.0203 419.763 58.5103 419.343 59.3036L411.433 74.5636C410.36 76.6169 408.867 78.3669 406.953 79.8136C405.04 81.2603 402.403 81.9836 399.043 81.9836ZM461.694 52.9336H468.484C473.571 52.9336 477.584 53.4936 480.524 54.6136C483.464 55.7336 485.541 57.2736 486.754 59.2336C488.014 61.1936 488.644 63.4569 488.644 66.0236C488.644 68.5903 487.944 71.0169 486.544 73.3036C485.191 75.5436 483.067 77.3869 480.174 78.8336C477.327 80.2336 473.687 80.9336 469.254 80.9336H446.644V79.3236C447.997 79.2303 448.977 78.8803 449.584 78.2736C450.191 77.6669 450.494 76.2203 450.494 73.9336V41.3836C450.494 39.0969 450.144 37.6503 449.444 37.0436C448.791 36.3903 447.507 36.0403 445.594 35.9936V34.3836H484.094V45.9336H482.484C482.344 44.3469 482.041 42.9236 481.574 41.6636C481.107 40.3569 480.314 39.3303 479.194 38.5836C478.074 37.7903 476.464 37.3936 474.364 37.3936H464.774C463.794 37.3936 463.024 37.6503 462.464 38.1636C461.951 38.6769 461.694 39.7503 461.694 41.3836V52.9336ZM465.824 77.9236C468.297 77.9236 470.327 77.3403 471.914 76.1736C473.547 74.9603 474.761 73.4669 475.554 71.6936C476.347 69.9203 476.744 68.1703 476.744 66.4436C476.744 63.8769 476.254 61.8236 475.274 60.2836C474.341 58.7436 473.057 57.6469 471.424 56.9936C469.837 56.2936 468.041 55.9436 466.034 55.9436H461.694V73.9336C461.694 75.5669 461.951 76.6403 462.464 77.1536C462.977 77.6669 464.097 77.9236 465.824 77.9236ZM496.068 80.9336V79.3236C497.421 79.2303 498.401 78.8803 499.008 78.2736C499.615 77.6669 499.918 76.2203 499.918 73.9336V41.3836C499.918 39.0969 499.568 37.6503 498.868 37.0436C498.215 36.3903 496.931 36.0403 495.018 35.9936V34.3836H499.918C503.325 34.3836 506.521 34.3369 509.508 34.2436C512.495 34.1036 514.735 34.0336 516.228 34.0336C521.081 34.0336 524.908 34.5703 527.708 35.6436C530.555 36.7169 532.585 38.1403 533.798 39.9136C535.058 41.6403 535.688 43.5536 535.688 45.6536C535.688 48.0803 534.895 50.3903 533.308 52.5836C531.768 54.7769 529.295 56.4803 525.888 57.6936C522.528 58.8603 518.071 59.2336 512.518 58.8136V56.3636C515.038 56.4569 517.115 56.0136 518.748 55.0336C520.381 54.0069 521.571 52.6536 522.318 50.9736C523.111 49.2936 523.508 47.4969 523.508 45.5836C523.508 43.0169 522.785 40.9636 521.338 39.4236C519.891 37.8369 517.885 37.0436 515.318 37.0436C513.778 37.0436 512.681 37.3236 512.028 37.8836C511.421 38.3969 511.118 39.5636 511.118 41.3836V73.9336C511.118 75.4269 511.258 76.5703 511.538 77.3636C511.865 78.1103 512.425 78.6236 513.218 78.9036C514.058 79.1369 515.225 79.2769 516.718 79.3236V80.9336H496.068ZM543.077 81.9836C541.91 81.9836 540.673 81.8903 539.367 81.7036C538.06 81.5169 536.94 81.2603 536.007 80.9336V79.3236C536.94 79.3236 537.99 78.9503 539.157 78.2036C540.323 77.4569 541.513 75.9636 542.727 73.7236L552.737 55.5936C549.61 54.8003 547.23 53.5169 545.597 51.7436C544.01 49.9703 543.217 47.8236 543.217 45.3036C543.217 43.3436 543.8 41.5003 544.967 39.7736C546.18 38.0469 548.14 36.6703 550.847 35.6436C553.6 34.5703 557.287 34.0336 561.907 34.0336C563.4 34.0336 565.127 34.1036 567.087 34.2436C569.047 34.3369 571.217 34.3836 573.597 34.3836H582.557V35.9936C581.203 36.0403 580.223 36.3903 579.617 37.0436C579.01 37.6503 578.707 39.0969 578.707 41.3836V73.9336C578.707 76.2203 579.057 77.6669 579.757 78.2736C580.457 78.8803 581.74 79.2303 583.607 79.3236V80.9336H563.657V79.3236C565.01 79.2303 565.99 78.8803 566.597 78.2736C567.203 77.6669 567.507 76.2203 567.507 73.9336V41.3836C567.507 39.5636 567.18 38.3969 566.527 37.8836C565.92 37.3236 564.847 37.0436 563.307 37.0436C561.3 37.0436 559.48 37.7669 557.847 39.2136C556.26 40.6136 555.467 42.7369 555.467 45.5836C555.467 47.0769 555.77 48.5236 556.377 49.9236C556.983 51.2769 558.057 52.4203 559.597 53.3536C561.183 54.2869 563.353 54.8469 566.107 55.0336V57.4836C565.547 57.4836 565.057 57.6003 564.637 57.8336C564.217 58.0203 563.797 58.5103 563.377 59.3036L555.467 74.5636C554.393 76.6169 552.9 78.3669 550.987 79.8136C549.073 81.2603 546.437 81.9836 543.077 81.9836ZM639.224 67.9836H640.834L640.134 80.9336H606.394V79.3236C606.768 79.1369 607.328 78.8103 608.074 78.3436C608.868 77.8769 609.684 77.3403 610.524 76.7336C612.858 75.0536 615.051 73.1403 617.104 70.9936C619.158 68.8469 620.954 66.5603 622.494 64.1336C624.034 61.7069 625.248 59.2803 626.134 56.8536C627.021 54.4269 627.464 52.1169 627.464 49.9236C627.464 47.8236 626.951 46.0503 625.924 44.6036C624.944 43.1569 623.148 42.4336 620.534 42.4336C618.341 42.4336 616.311 43.0403 614.444 44.2536C612.578 45.4669 610.734 47.3569 608.914 49.9236L607.584 48.8036C609.498 43.9503 611.901 40.3336 614.794 37.9536C617.688 35.5736 621.304 34.3836 625.644 34.3836C628.164 34.3836 630.428 34.8036 632.434 35.6436C634.441 36.4369 636.028 37.6969 637.194 39.4236C638.408 41.1036 639.014 43.2969 639.014 46.0036C639.014 50.8103 637.474 55.3136 634.394 59.5136C631.361 63.7136 627.114 67.6569 621.654 71.3436V71.4836H631.874C634.534 71.4836 636.378 71.1569 637.404 70.5036C638.431 69.8503 639.038 69.0103 639.224 67.9836ZM669.018 34.3836C671.444 34.3836 673.824 34.8503 676.158 35.7836C678.491 36.7169 680.591 38.1636 682.458 40.1236C684.324 42.0836 685.794 44.5569 686.868 47.5436C687.988 50.4836 688.548 53.9836 688.548 58.0436C688.548 62.0569 688.011 65.5569 686.938 68.5436C685.864 71.5303 684.394 74.0269 682.528 76.0336C680.661 78.0403 678.561 79.5336 676.228 80.5136C673.894 81.4936 671.468 81.9836 668.948 81.9836C666.521 81.9836 664.141 81.5169 661.808 80.5836C659.474 79.6503 657.374 78.2036 655.508 76.2436C653.641 74.2836 652.148 71.8336 651.028 68.8936C649.954 65.9069 649.418 62.3836 649.418 58.3236C649.418 54.3103 649.954 50.8103 651.028 47.8236C652.101 44.8369 653.571 42.3403 655.438 40.3336C657.304 38.3269 659.404 36.8336 661.738 35.8536C664.071 34.8736 666.498 34.3836 669.018 34.3836ZM669.228 78.9736C670.581 78.9736 671.818 78.3669 672.938 77.1536C674.058 75.9403 674.944 73.8869 675.598 70.9936C676.298 68.1003 676.648 64.1336 676.648 59.0936C676.648 54.7069 676.344 50.9036 675.738 47.6836C675.178 44.4169 674.314 41.8969 673.148 40.1236C671.981 38.3036 670.511 37.3936 668.738 37.3936C667.431 37.3936 666.194 38.0003 665.028 39.2136C663.908 40.4269 662.998 42.4803 662.298 45.3736C661.644 48.2669 661.318 52.2336 661.318 57.2736C661.318 61.6603 661.598 65.4869 662.158 68.7536C662.764 71.9736 663.651 74.4936 664.818 76.3136C665.984 78.0869 667.454 78.9736 669.228 78.9736ZM727.203 67.9836H728.813L728.113 80.9336H694.373V79.3236C694.746 79.1369 695.306 78.8103 696.053 78.3436C696.846 77.8769 697.663 77.3403 698.503 76.7336C700.836 75.0536 703.03 73.1403 705.083 70.9936C707.136 68.8469 708.933 66.5603 710.473 64.1336C712.013 61.7069 713.226 59.2803 714.113 56.8536C715 54.4269 715.443 52.1169 715.443 49.9236C715.443 47.8236 714.93 46.0503 713.903 44.6036C712.923 43.1569 711.126 42.4336 708.513 42.4336C706.32 42.4336 704.29 43.0403 702.423 44.2536C700.556 45.4669 698.713 47.3569 696.893 49.9236L695.563 48.8036C697.476 43.9503 699.88 40.3336 702.773 37.9536C705.666 35.5736 709.283 34.3836 713.623 34.3836C716.143 34.3836 718.406 34.8036 720.413 35.6436C722.42 36.4369 724.006 37.6969 725.173 39.4236C726.386 41.1036 726.993 43.2969 726.993 46.0036C726.993 50.8103 725.453 55.3136 722.373 59.5136C719.34 63.7136 715.093 67.6569 709.633 71.3436V71.4836H719.853C722.513 71.4836 724.356 71.1569 725.383 70.5036C726.41 69.8503 727.016 69.0103 727.203 67.9836ZM766.096 63.0836H770.996V71.8336H768.056C766.75 71.8336 766.096 72.6503 766.096 74.2836C766.096 75.4036 766.096 76.5003 766.096 77.5736C766.143 78.6003 766.19 79.7203 766.236 80.9336H755.176C755.27 79.3936 755.34 77.9003 755.386 76.4536C755.433 74.9603 755.48 73.4203 755.526 71.8336H733.406V70.2236C734.62 69.0569 735.716 67.8436 736.696 66.5836L759.586 37.9536C760.1 37.3003 760.566 36.6703 760.986 36.0636C761.453 35.4103 761.826 34.8503 762.106 34.3836H766.166L766.096 63.0836ZM755.386 48.4536L743.696 63.0836H755.596V48.4536H755.386ZM828.426 34.3836V47.3336H826.816C826.582 45.2803 826.162 43.5303 825.556 42.0836C824.996 40.5903 824.109 39.4469 822.896 38.6536C821.729 37.8136 820.096 37.3936 817.996 37.3936H814.706C813.726 37.3936 812.956 37.6503 812.396 38.1636C811.882 38.6769 811.626 39.7503 811.626 41.3836V73.9336C811.626 76.2203 811.976 77.6669 812.676 78.2736C813.376 78.8803 814.659 79.2303 816.526 79.3236V80.9336H796.576V79.3236C797.929 79.2303 798.909 78.8803 799.516 78.2736C800.122 77.6669 800.426 76.2203 800.426 73.9336V41.3836C800.426 39.0969 800.076 37.6503 799.376 37.0436C798.722 36.3903 797.439 36.0403 795.526 35.9936V34.3836H828.426ZM856.469 33.3336C859.783 33.3336 862.863 33.8936 865.709 35.0136C868.556 36.1336 871.076 37.7669 873.269 39.9136C875.463 42.0136 877.166 44.5569 878.379 47.5436C879.593 50.5303 880.199 53.8669 880.199 57.5536C880.199 61.2403 879.593 64.5769 878.379 67.5636C877.166 70.5503 875.463 73.1169 873.269 75.2636C871.123 77.4103 868.603 79.0669 865.709 80.2336C862.816 81.4003 859.713 81.9836 856.399 81.9836C853.133 81.9836 850.053 81.4236 847.159 80.3036C844.313 79.1836 841.793 77.5736 839.599 75.4736C837.406 73.3269 835.703 70.7603 834.489 67.7736C833.276 64.7869 832.669 61.4503 832.669 57.7636C832.669 54.0769 833.276 50.7403 834.489 47.7536C835.703 44.7669 837.383 42.2003 839.529 40.0536C841.723 37.9069 844.266 36.2503 847.159 35.0836C850.053 33.9169 853.156 33.3336 856.469 33.3336ZM857.869 78.9736C860.296 78.9736 862.209 78.1803 863.609 76.5936C865.009 74.9603 866.013 72.7203 866.619 69.8736C867.273 67.0269 867.599 63.7136 867.599 59.9336C867.599 52.3269 866.433 46.4936 864.099 42.4336C861.813 38.3736 858.779 36.3436 854.999 36.3436C852.619 36.3436 850.706 37.1369 849.259 38.7236C847.859 40.3103 846.833 42.5503 846.179 45.4436C845.573 48.2903 845.269 51.6036 845.269 55.3836C845.269 62.9903 846.413 68.8236 848.699 72.8836C851.033 76.9436 854.089 78.9736 857.869 78.9736ZM910.555 39.9136L922.175 73.9336C922.595 75.1469 923.202 76.2669 923.995 77.2936C924.835 78.2736 926.118 78.9503 927.845 79.3236L924.625 95.2836H923.015C922.922 92.3903 922.502 89.8703 921.755 87.7236C921.008 85.5769 920.075 83.8969 918.955 82.6836C917.835 81.5169 916.622 80.9336 915.315 80.9336H896.555C894.828 80.9336 893.125 81.5169 891.445 82.6836C889.812 83.8969 888.412 85.5769 887.245 87.7236C886.125 89.8703 885.402 92.3903 885.075 95.2836H883.465V79.3236C884.305 78.9503 885.122 78.3203 885.915 77.4336C886.708 76.5003 887.432 75.4503 888.085 74.2836C888.785 73.1169 889.322 72.0203 889.695 70.9936L901.595 39.9136C902.062 38.7003 902.505 37.5103 902.925 36.3436C903.345 35.1769 903.718 33.9869 904.045 32.7736H908.105C908.432 33.9869 908.805 35.1769 909.225 36.3436C909.692 37.5103 910.135 38.7003 910.555 39.9136ZM907.615 77.9236C909.482 77.9236 910.508 77.6203 910.695 77.0136C910.882 76.4069 910.718 75.3803 910.205 73.9336L902.015 48.7336H901.875L890.955 77.9236H907.615ZM970.683 73.9336C971.336 75.5203 971.873 76.6869 972.293 77.4336C972.759 78.1803 973.249 78.6703 973.763 78.9036C974.276 79.0903 974.906 79.2303 975.653 79.3236V80.9336H956.123V79.3236C957.989 79.2303 959.016 78.6703 959.203 77.6436C959.436 76.6169 959.273 75.3803 958.713 73.9336L955.213 64.8336C954.933 65.0669 954.559 65.2303 954.093 65.3236C953.673 65.3703 953.206 65.3936 952.693 65.3936H944.783C943.803 65.3936 943.056 65.5103 942.543 65.7436C942.029 65.9769 941.586 66.5603 941.213 67.4936L938.693 73.9336C938.086 75.4736 938.133 76.7336 938.833 77.7136C939.533 78.6936 940.909 79.2303 942.963 79.3236V80.9336H930.223V79.3236C931.249 79.2303 932.113 78.7169 932.813 77.7836C933.559 76.8036 934.236 75.5203 934.843 73.9336L948.283 39.9136C948.796 38.7003 949.239 37.5103 949.613 36.3436C950.033 35.1769 950.406 33.9869 950.733 32.7736H954.793C955.119 33.9869 955.493 35.1769 955.913 36.3436C956.333 37.5103 956.776 38.7003 957.243 39.9136L970.683 73.9336ZM952.343 62.3836C952.996 62.3836 953.416 62.2903 953.603 62.1036C953.836 61.8703 953.813 61.4036 953.533 60.7036L948.703 48.7336H948.563L943.103 62.6636C943.336 62.5236 943.616 62.4536 943.943 62.4536C944.269 62.4069 944.643 62.3836 945.063 62.3836H952.343Z" fill="black"/>
<path d="M1046.41 49.9534C1039.44 47.167 1031.25 48.6531 1025.67 54.226C1018.13 61.7495 1018.13 73.917 1025.67 81.4405C1031.25 87.0134 1039.44 88.4995 1046.41 85.7131V76.7964C1045.02 77.4466 1043.53 77.8181 1041.95 77.8181C1036.37 77.8181 1031.9 73.3598 1031.9 67.7868C1031.9 62.2139 1036.37 57.7555 1041.95 57.7555C1043.53 57.7555 1045.11 58.1271 1046.41 58.7772V49.9534Z" fill="black"/>
<path d="M1043.25 41.0181C1046 38.2627 1046 33.7021 1043.25 30.8517C1040.51 28.0963 1035.96 28.0963 1033.11 30.8517C1030.27 33.6071 1030.36 38.1677 1033.11 41.0181C1035.96 43.7735 1040.51 43.7735 1043.25 41.0181Z" fill="black"/>
<path d="M1123.15 67.9836H1124.76L1124.06 80.9336H1090.32V79.3236C1090.7 79.1369 1091.26 78.8103 1092 78.3436C1092.8 77.8769 1093.61 77.3403 1094.45 76.7336C1096.79 75.0536 1098.98 73.1403 1101.03 70.9936C1103.09 68.8469 1104.88 66.5603 1106.42 64.1336C1107.96 61.7069 1109.18 59.2803 1110.06 56.8536C1110.95 54.4269 1111.39 52.1169 1111.39 49.9236C1111.39 47.8236 1110.88 46.0503 1109.85 44.6036C1108.87 43.1569 1107.08 42.4336 1104.46 42.4336C1102.27 42.4336 1100.24 43.0403 1098.37 44.2536C1096.51 45.4669 1094.66 47.3569 1092.84 49.9236L1091.51 48.8036C1093.43 43.9503 1095.83 40.3336 1098.72 37.9536C1101.62 35.5736 1105.23 34.3836 1109.57 34.3836C1112.09 34.3836 1114.36 34.8036 1116.36 35.6436C1118.37 36.4369 1119.96 37.6969 1121.12 39.4236C1122.34 41.1036 1122.94 43.2969 1122.94 46.0036C1122.94 50.8103 1121.4 55.3136 1118.32 59.5136C1115.29 63.7136 1111.04 67.6569 1105.58 71.3436V71.4836H1115.8C1118.46 71.4836 1120.31 71.1569 1121.33 70.5036C1122.36 69.8503 1122.97 69.0103 1123.15 67.9836ZM1152.95 34.3836C1155.37 34.3836 1157.75 34.8503 1160.09 35.7836C1162.42 36.7169 1164.52 38.1636 1166.39 40.1236C1168.25 42.0836 1169.72 44.5569 1170.8 47.5436C1171.92 50.4836 1172.48 53.9836 1172.48 58.0436C1172.48 62.0569 1171.94 65.5569 1170.87 68.5436C1169.79 71.5303 1168.32 74.0269 1166.46 76.0336C1164.59 78.0403 1162.49 79.5336 1160.16 80.5136C1157.82 81.4936 1155.4 81.9836 1152.88 81.9836C1150.45 81.9836 1148.07 81.5169 1145.74 80.5836C1143.4 79.6503 1141.3 78.2036 1139.44 76.2436C1137.57 74.2836 1136.08 71.8336 1134.96 68.8936C1133.88 65.9069 1133.35 62.3836 1133.35 58.3236C1133.35 54.3103 1133.88 50.8103 1134.96 47.8236C1136.03 44.8369 1137.5 42.3403 1139.37 40.3336C1141.23 38.3269 1143.33 36.8336 1145.67 35.8536C1148 34.8736 1150.43 34.3836 1152.95 34.3836ZM1153.16 78.9736C1154.51 78.9736 1155.75 78.3669 1156.87 77.1536C1157.99 75.9403 1158.87 73.8869 1159.53 70.9936C1160.23 68.1003 1160.58 64.1336 1160.58 59.0936C1160.58 54.7069 1160.27 50.9036 1159.67 47.6836C1159.11 44.4169 1158.24 41.8969 1157.08 40.1236C1155.91 38.3036 1154.44 37.3936 1152.67 37.3936C1151.36 37.3936 1150.12 38.0003 1148.96 39.2136C1147.84 40.4269 1146.93 42.4803 1146.23 45.3736C1145.57 48.2669 1145.25 52.2336 1145.25 57.2736C1145.25 61.6603 1145.53 65.4869 1146.09 68.7536C1146.69 71.9736 1147.58 74.4936 1148.75 76.3136C1149.91 78.0869 1151.38 78.9736 1153.16 78.9736ZM1219.99 59.7936L1198.29 61.6836L1197.8 56.0136L1219.5 54.1236L1219.99 59.7936ZM1274.16 67.9836H1275.77L1275.07 80.9336H1241.33V79.3236C1241.7 79.1369 1242.26 78.8103 1243.01 78.3436C1243.8 77.8769 1244.62 77.3403 1245.46 76.7336C1247.79 75.0536 1249.99 73.1403 1252.04 70.9936C1254.09 68.8469 1255.89 66.5603 1257.43 64.1336C1258.97 61.7069 1260.18 59.2803 1261.07 56.8536C1261.96 54.4269 1262.4 52.1169 1262.4 49.9236C1262.4 47.8236 1261.89 46.0503 1260.86 44.6036C1259.88 43.1569 1258.08 42.4336 1255.47 42.4336C1253.28 42.4336 1251.25 43.0403 1249.38 44.2536C1247.51 45.4669 1245.67 47.3569 1243.85 49.9236L1242.52 48.8036C1244.43 43.9503 1246.84 40.3336 1249.73 37.9536C1252.62 35.5736 1256.24 34.3836 1260.58 34.3836C1263.1 34.3836 1265.36 34.8036 1267.37 35.6436C1269.38 36.4369 1270.96 37.6969 1272.13 39.4236C1273.34 41.1036 1273.95 43.2969 1273.95 46.0036C1273.95 50.8103 1272.41 55.3136 1269.33 59.5136C1266.3 63.7136 1262.05 67.6569 1256.59 71.3436V71.4836H1266.81C1269.47 71.4836 1271.31 71.1569 1272.34 70.5036C1273.37 69.8503 1273.97 69.0103 1274.16 67.9836ZM1302.76 73.2336C1302.76 74.9603 1302.9 76.2669 1303.18 77.1536C1303.51 77.9936 1304.16 78.5536 1305.14 78.8336C1306.17 79.1136 1307.71 79.2769 1309.76 79.3236V80.9336H1283.86V79.3236C1285.96 79.2769 1287.5 79.1136 1288.48 78.8336C1289.51 78.5536 1290.16 77.9936 1290.44 77.1536C1290.72 76.2669 1290.86 74.9603 1290.86 73.2336V42.7836L1284.42 46.7736L1282.95 44.5336L1299.19 34.3836H1303.25C1303.07 35.2703 1302.93 36.1569 1302.83 37.0436C1302.79 37.9303 1302.76 38.8169 1302.76 39.7036V73.2336ZM1334.78 80.9336V79.3236C1336.14 79.2303 1337.12 78.8803 1337.72 78.2736C1338.33 77.6669 1338.63 76.2203 1338.63 73.9336V41.3836C1338.63 39.0969 1338.28 37.6503 1337.58 37.0436C1336.93 36.3903 1335.65 36.0403 1333.73 35.9936V34.3836H1353.68V35.9936C1352.33 36.0403 1351.35 36.3903 1350.74 37.0436C1350.14 37.6503 1349.83 39.0969 1349.83 41.3836V53.7736C1350.21 53.4936 1350.65 53.3069 1351.16 53.2136C1351.72 53.1203 1352.38 53.0736 1353.12 53.0736H1366.35C1367.61 53.0736 1368.5 52.8636 1369.01 52.4436C1369.53 52.0236 1369.78 51.1836 1369.78 49.9236V41.3836C1369.78 39.0969 1369.43 37.6503 1368.73 37.0436C1368.08 36.3903 1366.8 36.0403 1364.88 35.9936V34.3836H1384.83V35.9936C1383.48 36.0403 1382.5 36.3903 1381.89 37.0436C1381.29 37.6503 1380.98 39.0969 1380.98 41.3836V73.9336C1380.98 76.2203 1381.33 77.6669 1382.03 78.2736C1382.73 78.8803 1384.02 79.2303 1385.88 79.3236V80.9336H1365.93V79.3236C1367.29 79.2303 1368.27 78.8803 1368.87 78.2736C1369.48 77.6669 1369.78 76.2203 1369.78 73.9336V55.3136C1369.41 55.6403 1368.94 55.8503 1368.38 55.9436C1367.82 56.0369 1367.19 56.0836 1366.49 56.0836H1353.26C1352 56.0836 1351.12 56.2936 1350.6 56.7136C1350.09 57.1336 1349.83 57.9503 1349.83 59.1636V73.9336C1349.83 76.2203 1350.18 77.6669 1350.88 78.2736C1351.58 78.8803 1352.87 79.2303 1354.73 79.3236V80.9336H1334.78ZM1416.76 33.3336C1420.07 33.3336 1423.15 33.8936 1426 35.0136C1428.84 36.1336 1431.36 37.7669 1433.56 39.9136C1435.75 42.0136 1437.45 44.5569 1438.67 47.5436C1439.88 50.5303 1440.49 53.8669 1440.49 57.5536C1440.49 61.2403 1439.88 64.5769 1438.67 67.5636C1437.45 70.5503 1435.75 73.1169 1433.56 75.2636C1431.41 77.4103 1428.89 79.0669 1426 80.2336C1423.1 81.4003 1420 81.9836 1416.69 81.9836C1413.42 81.9836 1410.34 81.4236 1407.45 80.3036C1404.6 79.1836 1402.08 77.5736 1399.89 75.4736C1397.69 73.3269 1395.99 70.7603 1394.78 67.7736C1393.56 64.7869 1392.96 61.4503 1392.96 57.7636C1392.96 54.0769 1393.56 50.7403 1394.78 47.7536C1395.99 44.7669 1397.67 42.2003 1399.82 40.0536C1402.01 37.9069 1404.55 36.2503 1407.45 35.0836C1410.34 33.9169 1413.44 33.3336 1416.76 33.3336ZM1418.16 78.9736C1420.58 78.9736 1422.5 78.1803 1423.9 76.5936C1425.3 74.9603 1426.3 72.7203 1426.91 69.8736C1427.56 67.0269 1427.89 63.7136 1427.89 59.9336C1427.89 52.3269 1426.72 46.4936 1424.39 42.4336C1422.1 38.3736 1419.07 36.3436 1415.29 36.3436C1412.91 36.3436 1410.99 37.1369 1409.55 38.7236C1408.15 40.3103 1407.12 42.5503 1406.47 45.4436C1405.86 48.2903 1405.56 51.6036 1405.56 55.3836C1405.56 62.9903 1406.7 68.8236 1408.99 72.8836C1411.32 76.9436 1414.38 78.9736 1418.16 78.9736ZM1448.44 81.9836C1447.28 81.9836 1446.04 81.8903 1444.73 81.7036C1443.43 81.5169 1442.31 81.2603 1441.37 80.9336V79.3236C1442.31 79.3236 1443.36 78.9503 1444.52 78.2036C1445.69 77.4569 1446.88 75.9636 1448.09 73.7236L1458.1 55.5936C1454.98 54.8003 1452.6 53.5169 1450.96 51.7436C1449.38 49.9703 1448.58 47.8236 1448.58 45.3036C1448.58 43.3436 1449.17 41.5003 1450.33 39.7736C1451.55 38.0469 1453.51 36.6703 1456.21 35.6436C1458.97 34.5703 1462.65 34.0336 1467.27 34.0336C1468.77 34.0336 1470.49 34.1036 1472.45 34.2436C1474.41 34.3369 1476.58 34.3836 1478.96 34.3836H1487.92V35.9936C1486.57 36.0403 1485.59 36.3903 1484.98 37.0436C1484.38 37.6503 1484.07 39.0969 1484.07 41.3836V73.9336C1484.07 76.2203 1484.42 77.6669 1485.12 78.2736C1485.82 78.8803 1487.11 79.2303 1488.97 79.3236V80.9336H1469.02V79.3236C1470.38 79.2303 1471.36 78.8803 1471.96 78.2736C1472.57 77.6669 1472.87 76.2203 1472.87 73.9336V41.3836C1472.87 39.5636 1472.55 38.3969 1471.89 37.8836C1471.29 37.3236 1470.21 37.0436 1468.67 37.0436C1466.67 37.0436 1464.85 37.7669 1463.21 39.2136C1461.63 40.6136 1460.83 42.7369 1460.83 45.5836C1460.83 47.0769 1461.14 48.5236 1461.74 49.9236C1462.35 51.2769 1463.42 52.4203 1464.96 53.3536C1466.55 54.2869 1468.72 54.8469 1471.47 55.0336V57.4836C1470.91 57.4836 1470.42 57.6003 1470 57.8336C1469.58 58.0203 1469.16 58.5103 1468.74 59.3036L1460.83 74.5636C1459.76 76.6169 1458.27 78.3669 1456.35 79.8136C1454.44 81.2603 1451.8 81.9836 1448.44 81.9836ZM1511.09 52.9336H1517.88C1522.97 52.9336 1526.98 53.4936 1529.92 54.6136C1532.86 55.7336 1534.94 57.2736 1536.15 59.2336C1537.41 61.1936 1538.04 63.4569 1538.04 66.0236C1538.04 68.5903 1537.34 71.0169 1535.94 73.3036C1534.59 75.5436 1532.47 77.3869 1529.57 78.8336C1526.73 80.2336 1523.09 80.9336 1518.65 80.9336H1496.04V79.3236C1497.4 79.2303 1498.38 78.8803 1498.98 78.2736C1499.59 77.6669 1499.89 76.2203 1499.89 73.9336V41.3836C1499.89 39.0969 1499.54 37.6503 1498.84 37.0436C1498.19 36.3903 1496.91 36.0403 1494.99 35.9936V34.3836H1533.49V45.9336H1531.88C1531.74 44.3469 1531.44 42.9236 1530.97 41.6636C1530.51 40.3569 1529.71 39.3303 1528.59 38.5836C1527.47 37.7903 1525.86 37.3936 1523.76 37.3936H1514.17C1513.19 37.3936 1512.42 37.6503 1511.86 38.1636C1511.35 38.6769 1511.09 39.7503 1511.09 41.3836V52.9336ZM1515.22 77.9236C1517.7 77.9236 1519.73 77.3403 1521.31 76.1736C1522.95 74.9603 1524.16 73.4669 1524.95 71.6936C1525.75 69.9203 1526.14 68.1703 1526.14 66.4436C1526.14 63.8769 1525.65 61.8236 1524.67 60.2836C1523.74 58.7436 1522.46 57.6469 1520.82 56.9936C1519.24 56.2936 1517.44 55.9436 1515.43 55.9436H1511.09V73.9336C1511.09 75.5669 1511.35 76.6403 1511.86 77.1536C1512.38 77.6669 1513.5 77.9236 1515.22 77.9236ZM1545.47 80.9336V79.3236C1546.82 79.2303 1547.8 78.8803 1548.41 78.2736C1549.01 77.6669 1549.32 76.2203 1549.32 73.9336V41.3836C1549.32 39.0969 1548.97 37.6503 1548.27 37.0436C1547.61 36.3903 1546.33 36.0403 1544.42 35.9936V34.3836H1549.32C1552.72 34.3836 1555.92 34.3369 1558.91 34.2436C1561.89 34.1036 1564.13 34.0336 1565.63 34.0336C1570.48 34.0336 1574.31 34.5703 1577.11 35.6436C1579.95 36.7169 1581.98 38.1403 1583.2 39.9136C1584.46 41.6403 1585.09 43.5536 1585.09 45.6536C1585.09 48.0803 1584.29 50.3903 1582.71 52.5836C1581.17 54.7769 1578.69 56.4803 1575.29 57.6936C1571.93 58.8603 1567.47 59.2336 1561.92 58.8136V56.3636C1564.44 56.4569 1566.51 56.0136 1568.15 55.0336C1569.78 54.0069 1570.97 52.6536 1571.72 50.9736C1572.51 49.2936 1572.91 47.4969 1572.91 45.5836C1572.91 43.0169 1572.18 40.9636 1570.74 39.4236C1569.29 37.8369 1567.28 37.0436 1564.72 37.0436C1563.18 37.0436 1562.08 37.3236 1561.43 37.8836C1560.82 38.3969 1560.52 39.5636 1560.52 41.3836V73.9336C1560.52 75.4269 1560.66 76.5703 1560.94 77.3636C1561.26 78.1103 1561.82 78.6236 1562.62 78.9036C1563.46 79.1369 1564.62 79.2769 1566.12 79.3236V80.9336H1545.47ZM1592.48 81.9836C1591.31 81.9836 1590.07 81.8903 1588.77 81.7036C1587.46 81.5169 1586.34 81.2603 1585.41 80.9336V79.3236C1586.34 79.3236 1587.39 78.9503 1588.56 78.2036C1589.72 77.4569 1590.91 75.9636 1592.13 73.7236L1602.14 55.5936C1599.01 54.8003 1596.63 53.5169 1595 51.7436C1593.41 49.9703 1592.62 47.8236 1592.62 45.3036C1592.62 43.3436 1593.2 41.5003 1594.37 39.7736C1595.58 38.0469 1597.54 36.6703 1600.25 35.6436C1603 34.5703 1606.69 34.0336 1611.31 34.0336C1612.8 34.0336 1614.53 34.1036 1616.49 34.2436C1618.45 34.3369 1620.62 34.3836 1623 34.3836H1631.96V35.9936C1630.6 36.0403 1629.62 36.3903 1629.02 37.0436C1628.41 37.6503 1628.11 39.0969 1628.11 41.3836V73.9336C1628.11 76.2203 1628.46 77.6669 1629.16 78.2736C1629.86 78.8803 1631.14 79.2303 1633.01 79.3236V80.9336H1613.06V79.3236C1614.41 79.2303 1615.39 78.8803 1616 78.2736C1616.6 77.6669 1616.91 76.2203 1616.91 73.9336V41.3836C1616.91 39.5636 1616.58 38.3969 1615.93 37.8836C1615.32 37.3236 1614.25 37.0436 1612.71 37.0436C1610.7 37.0436 1608.88 37.7669 1607.25 39.2136C1605.66 40.6136 1604.87 42.7369 1604.87 45.5836C1604.87 47.0769 1605.17 48.5236 1605.78 49.9236C1606.38 51.2769 1607.46 52.4203 1609 53.3536C1610.58 54.2869 1612.75 54.8469 1615.51 55.0336V57.4836C1614.95 57.4836 1614.46 57.6003 1614.04 57.8336C1613.62 58.0203 1613.2 58.5103 1612.78 59.3036L1604.87 74.5636C1603.79 76.6169 1602.3 78.3669 1600.39 79.8136C1598.47 81.2603 1595.84 81.9836 1592.48 81.9836ZM1688.62 67.9836H1690.23L1689.53 80.9336H1655.79V79.3236C1656.17 79.1369 1656.73 78.8103 1657.47 78.3436C1658.27 77.8769 1659.08 77.3403 1659.92 76.7336C1662.26 75.0536 1664.45 73.1403 1666.5 70.9936C1668.56 68.8469 1670.35 66.5603 1671.89 64.1336C1673.43 61.7069 1674.65 59.2803 1675.53 56.8536C1676.42 54.4269 1676.86 52.1169 1676.86 49.9236C1676.86 47.8236 1676.35 46.0503 1675.32 44.6036C1674.34 43.1569 1672.55 42.4336 1669.93 42.4336C1667.74 42.4336 1665.71 43.0403 1663.84 44.2536C1661.98 45.4669 1660.13 47.3569 1658.31 49.9236L1656.98 48.8036C1658.9 43.9503 1661.3 40.3336 1664.19 37.9536C1667.09 35.5736 1670.7 34.3836 1675.04 34.3836C1677.56 34.3836 1679.83 34.8036 1681.83 35.6436C1683.84 36.4369 1685.43 37.6969 1686.59 39.4236C1687.81 41.1036 1688.41 43.2969 1688.41 46.0036C1688.41 50.8103 1686.87 55.3136 1683.79 59.5136C1680.76 63.7136 1676.51 67.6569 1671.05 71.3436V71.4836H1681.27C1683.93 71.4836 1685.78 71.1569 1686.8 70.5036C1687.83 69.8503 1688.44 69.0103 1688.62 67.9836ZM1718.42 34.3836C1720.84 34.3836 1723.22 34.8503 1725.56 35.7836C1727.89 36.7169 1729.99 38.1636 1731.86 40.1236C1733.72 42.0836 1735.19 44.5569 1736.27 47.5436C1737.39 50.4836 1737.95 53.9836 1737.95 58.0436C1737.95 62.0569 1737.41 65.5569 1736.34 68.5436C1735.26 71.5303 1733.79 74.0269 1731.93 76.0336C1730.06 78.0403 1727.96 79.5336 1725.63 80.5136C1723.29 81.4936 1720.87 81.9836 1718.35 81.9836C1715.92 81.9836 1713.54 81.5169 1711.21 80.5836C1708.87 79.6503 1706.77 78.2036 1704.91 76.2436C1703.04 74.2836 1701.55 71.8336 1700.43 68.8936C1699.35 65.9069 1698.82 62.3836 1698.82 58.3236C1698.82 54.3103 1699.35 50.8103 1700.43 47.8236C1701.5 44.8369 1702.97 42.3403 1704.84 40.3336C1706.7 38.3269 1708.8 36.8336 1711.14 35.8536C1713.47 34.8736 1715.9 34.3836 1718.42 34.3836ZM1718.63 78.9736C1719.98 78.9736 1721.22 78.3669 1722.34 77.1536C1723.46 75.9403 1724.34 73.8869 1725 70.9936C1725.7 68.1003 1726.05 64.1336 1726.05 59.0936C1726.05 54.7069 1725.74 50.9036 1725.14 47.6836C1724.58 44.4169 1723.71 41.8969 1722.55 40.1236C1721.38 38.3036 1719.91 37.3936 1718.14 37.3936C1716.83 37.3936 1715.59 38.0003 1714.43 39.2136C1713.31 40.4269 1712.4 42.4803 1711.7 45.3736C1711.04 48.2669 1710.72 52.2336 1710.72 57.2736C1710.72 61.6603 1711 65.4869 1711.56 68.7536C1712.16 71.9736 1713.05 74.4936 1714.22 76.3136C1715.38 78.0869 1716.85 78.9736 1718.63 78.9736ZM1776.6 67.9836H1778.21L1777.51 80.9336H1743.77V79.3236C1744.14 79.1369 1744.7 78.8103 1745.45 78.3436C1746.24 77.8769 1747.06 77.3403 1747.9 76.7336C1750.23 75.0536 1752.43 73.1403 1754.48 70.9936C1756.53 68.8469 1758.33 66.5603 1759.87 64.1336C1761.41 61.7069 1762.62 59.2803 1763.51 56.8536C1764.4 54.4269 1764.84 52.1169 1764.84 49.9236C1764.84 47.8236 1764.33 46.0503 1763.3 44.6036C1762.32 43.1569 1760.52 42.4336 1757.91 42.4336C1755.72 42.4336 1753.69 43.0403 1751.82 44.2536C1749.95 45.4669 1748.11 47.3569 1746.29 49.9236L1744.96 48.8036C1746.87 43.9503 1749.28 40.3336 1752.17 37.9536C1755.06 35.5736 1758.68 34.3836 1763.02 34.3836C1765.54 34.3836 1767.8 34.8036 1769.81 35.6436C1771.82 36.4369 1773.4 37.6969 1774.57 39.4236C1775.78 41.1036 1776.39 43.2969 1776.39 46.0036C1776.39 50.8103 1774.85 55.3136 1771.77 59.5136C1768.74 63.7136 1764.49 67.6569 1759.03 71.3436V71.4836H1769.25C1771.91 71.4836 1773.75 71.1569 1774.78 70.5036C1775.81 69.8503 1776.41 69.0103 1776.6 67.9836ZM1815.49 63.0836H1820.39V71.8336H1817.45C1816.15 71.8336 1815.49 72.6503 1815.49 74.2836C1815.49 75.4036 1815.49 76.5003 1815.49 77.5736C1815.54 78.6003 1815.59 79.7203 1815.63 80.9336H1804.57C1804.67 79.3936 1804.74 77.9003 1804.78 76.4536C1804.83 74.9603 1804.88 73.4203 1804.92 71.8336H1782.8V70.2236C1784.02 69.0569 1785.11 67.8436 1786.09 66.5836L1808.98 37.9536C1809.5 37.3003 1809.96 36.6703 1810.38 36.0636C1810.85 35.4103 1811.22 34.8503 1811.5 34.3836H1815.56L1815.49 63.0836ZM1804.78 48.4536L1793.09 63.0836H1804.99V48.4536H1804.78ZM1877.82 34.3836V47.3336H1876.21C1875.98 45.2803 1875.56 43.5303 1874.95 42.0836C1874.39 40.5903 1873.51 39.4469 1872.29 38.6536C1871.13 37.8136 1869.49 37.3936 1867.39 37.3936H1864.1C1863.12 37.3936 1862.35 37.6503 1861.79 38.1636C1861.28 38.6769 1861.02 39.7503 1861.02 41.3836V73.9336C1861.02 76.2203 1861.37 77.6669 1862.07 78.2736C1862.77 78.8803 1864.06 79.2303 1865.92 79.3236V80.9336H1845.97V79.3236C1847.33 79.2303 1848.31 78.8803 1848.91 78.2736C1849.52 77.6669 1849.82 76.2203 1849.82 73.9336V41.3836C1849.82 39.0969 1849.47 37.6503 1848.77 37.0436C1848.12 36.3903 1846.84 36.0403 1844.92 35.9936V34.3836H1877.82ZM1905.87 33.3336C1909.18 33.3336 1912.26 33.8936 1915.11 35.0136C1917.95 36.1336 1920.47 37.7669 1922.67 39.9136C1924.86 42.0136 1926.56 44.5569 1927.78 47.5436C1928.99 50.5303 1929.6 53.8669 1929.6 57.5536C1929.6 61.2403 1928.99 64.5769 1927.78 67.5636C1926.56 70.5503 1924.86 73.1169 1922.67 75.2636C1920.52 77.4103 1918 79.0669 1915.11 80.2336C1912.21 81.4003 1909.11 81.9836 1905.8 81.9836C1902.53 81.9836 1899.45 81.4236 1896.56 80.3036C1893.71 79.1836 1891.19 77.5736 1889 75.4736C1886.8 73.3269 1885.1 70.7603 1883.89 67.7736C1882.67 64.7869 1882.07 61.4503 1882.07 57.7636C1882.07 54.0769 1882.67 50.7403 1883.89 47.7536C1885.1 44.7669 1886.78 42.2003 1888.93 40.0536C1891.12 37.9069 1893.66 36.2503 1896.56 35.0836C1899.45 33.9169 1902.55 33.3336 1905.87 33.3336ZM1907.27 78.9736C1909.69 78.9736 1911.61 78.1803 1913.01 76.5936C1914.41 74.9603 1915.41 72.7203 1916.02 69.8736C1916.67 67.0269 1917 63.7136 1917 59.9336C1917 52.3269 1915.83 46.4936 1913.5 42.4336C1911.21 38.3736 1908.18 36.3436 1904.4 36.3436C1902.02 36.3436 1900.1 37.1369 1898.66 38.7236C1897.26 40.3103 1896.23 42.5503 1895.58 45.4436C1894.97 48.2903 1894.67 51.6036 1894.67 55.3836C1894.67 62.9903 1895.81 68.8236 1898.1 72.8836C1900.43 76.9436 1903.49 78.9736 1907.27 78.9736ZM1959.95 39.9136L1971.57 73.9336C1971.99 75.1469 1972.6 76.2669 1973.39 77.2936C1974.23 78.2736 1975.52 78.9503 1977.24 79.3236L1974.02 95.2836H1972.41C1972.32 92.3903 1971.9 89.8703 1971.15 87.7236C1970.41 85.5769 1969.47 83.8969 1968.35 82.6836C1967.23 81.5169 1966.02 80.9336 1964.71 80.9336H1945.95C1944.23 80.9336 1942.52 81.5169 1940.84 82.6836C1939.21 83.8969 1937.81 85.5769 1936.64 87.7236C1935.52 89.8703 1934.8 92.3903 1934.47 95.2836H1932.86V79.3236C1933.7 78.9503 1934.52 78.3203 1935.31 77.4336C1936.11 76.5003 1936.83 75.4503 1937.48 74.2836C1938.18 73.1169 1938.72 72.0203 1939.09 70.9936L1950.99 39.9136C1951.46 38.7003 1951.9 37.5103 1952.32 36.3436C1952.74 35.1769 1953.12 33.9869 1953.44 32.7736H1957.5C1957.83 33.9869 1958.2 35.1769 1958.62 36.3436C1959.09 37.5103 1959.53 38.7003 1959.95 39.9136ZM1957.01 77.9236C1958.88 77.9236 1959.91 77.6203 1960.09 77.0136C1960.28 76.4069 1960.12 75.3803 1959.6 73.9336L1951.41 48.7336H1951.27L1940.35 77.9236H1957.01ZM2020.08 73.9336C2020.73 75.5203 2021.27 76.6869 2021.69 77.4336C2022.16 78.1803 2022.65 78.6703 2023.16 78.9036C2023.67 79.0903 2024.3 79.2303 2025.05 79.3236V80.9336H2005.52V79.3236C2007.39 79.2303 2008.41 78.6703 2008.6 77.6436C2008.83 76.6169 2008.67 75.3803 2008.11 73.9336L2004.61 64.8336C2004.33 65.0669 2003.96 65.2303 2003.49 65.3236C2003.07 65.3703 2002.6 65.3936 2002.09 65.3936H1994.18C1993.2 65.3936 1992.45 65.5103 1991.94 65.7436C1991.43 65.9769 1990.98 66.5603 1990.61 67.4936L1988.09 73.9336C1987.48 75.4736 1987.53 76.7336 1988.23 77.7136C1988.93 78.6936 1990.31 79.2303 1992.36 79.3236V80.9336H1979.62V79.3236C1980.65 79.2303 1981.51 78.7169 1982.21 77.7836C1982.96 76.8036 1983.63 75.5203 1984.24 73.9336L1997.68 39.9136C1998.19 38.7003 1998.64 37.5103 1999.01 36.3436C1999.43 35.1769 1999.8 33.9869 2000.13 32.7736H2004.19C2004.52 33.9869 2004.89 35.1769 2005.31 36.3436C2005.73 37.5103 2006.17 38.7003 2006.64 39.9136L2020.08 73.9336ZM2001.74 62.3836C2002.39 62.3836 2002.81 62.2903 2003 62.1036C2003.23 61.8703 2003.21 61.4036 2002.93 60.7036L1998.1 48.7336H1997.96L1992.5 62.6636C1992.73 62.5236 1993.01 62.4536 1993.34 62.4536C1993.67 62.4069 1994.04 62.3836 1994.46 62.3836H2001.74Z" fill="black"/>
<path d="M2095.81 49.9534C2088.84 47.167 2080.65 48.6531 2075.07 54.226C2067.53 61.7495 2067.53 73.917 2075.07 81.4405C2080.65 87.0134 2088.84 88.4995 2095.81 85.7131V76.7964C2094.42 77.4466 2092.93 77.8181 2091.35 77.8181C2085.77 77.8181 2081.3 73.3598 2081.3 67.7868C2081.3 62.2139 2085.77 57.7555 2091.35 57.7555C2092.93 57.7555 2094.51 58.1271 2095.81 58.7772V49.9534Z" fill="black"/>
<path d="M2092.65 41.0181C2095.4 38.2627 2095.4 33.7021 2092.65 30.8517C2089.9 28.0963 2085.35 28.0963 2082.51 30.8517C2079.67 33.6071 2079.76 38.1677 2082.51 41.0181C2085.35 43.7735 2089.9 43.7735 2092.65 41.0181Z" fill="black"/>
<path d="M2172.55 67.9836H2174.16L2173.46 80.9336H2139.72V79.3236C2140.1 79.1369 2140.66 78.8103 2141.4 78.3436C2142.2 77.8769 2143.01 77.3403 2143.85 76.7336C2146.19 75.0536 2148.38 73.1403 2150.43 70.9936C2152.49 68.8469 2154.28 66.5603 2155.82 64.1336C2157.36 61.7069 2158.58 59.2803 2159.46 56.8536C2160.35 54.4269 2160.79 52.1169 2160.79 49.9236C2160.79 47.8236 2160.28 46.0503 2159.25 44.6036C2158.27 43.1569 2156.48 42.4336 2153.86 42.4336C2151.67 42.4336 2149.64 43.0403 2147.77 44.2536C2145.91 45.4669 2144.06 47.3569 2142.24 49.9236L2140.91 48.8036C2142.83 43.9503 2145.23 40.3336 2148.12 37.9536C2151.02 35.5736 2154.63 34.3836 2158.97 34.3836C2161.49 34.3836 2163.76 34.8036 2165.76 35.6436C2167.77 36.4369 2169.36 37.6969 2170.52 39.4236C2171.74 41.1036 2172.34 43.2969 2172.34 46.0036C2172.34 50.8103 2170.8 55.3136 2167.72 59.5136C2164.69 63.7136 2160.44 67.6569 2154.98 71.3436V71.4836H2165.2C2167.86 71.4836 2169.71 71.1569 2170.73 70.5036C2171.76 69.8503 2172.37 69.0103 2172.55 67.9836ZM2202.35 34.3836C2204.77 34.3836 2207.15 34.8503 2209.49 35.7836C2211.82 36.7169 2213.92 38.1636 2215.79 40.1236C2217.65 42.0836 2219.12 44.5569 2220.2 47.5436C2221.32 50.4836 2221.88 53.9836 2221.88 58.0436C2221.88 62.0569 2221.34 65.5569 2220.27 68.5436C2219.19 71.5303 2217.72 74.0269 2215.86 76.0336C2213.99 78.0403 2211.89 79.5336 2209.56 80.5136C2207.22 81.4936 2204.8 81.9836 2202.28 81.9836C2199.85 81.9836 2197.47 81.5169 2195.14 80.5836C2192.8 79.6503 2190.7 78.2036 2188.84 76.2436C2186.97 74.2836 2185.48 71.8336 2184.36 68.8936C2183.28 65.9069 2182.75 62.3836 2182.75 58.3236C2182.75 54.3103 2183.28 50.8103 2184.36 47.8236C2185.43 44.8369 2186.9 42.3403 2188.77 40.3336C2190.63 38.3269 2192.73 36.8336 2195.07 35.8536C2197.4 34.8736 2199.83 34.3836 2202.35 34.3836ZM2202.56 78.9736C2203.91 78.9736 2205.15 78.3669 2206.27 77.1536C2207.39 75.9403 2208.27 73.8869 2208.93 70.9936C2209.63 68.1003 2209.98 64.1336 2209.98 59.0936C2209.98 54.7069 2209.67 50.9036 2209.07 47.6836C2208.51 44.4169 2207.64 41.8969 2206.48 40.1236C2205.31 38.3036 2203.84 37.3936 2202.07 37.3936C2200.76 37.3936 2199.52 38.0003 2198.36 39.2136C2197.24 40.4269 2196.33 42.4803 2195.63 45.3736C2194.97 48.2669 2194.65 52.2336 2194.65 57.2736C2194.65 61.6603 2194.93 65.4869 2195.49 68.7536C2196.09 71.9736 2196.98 74.4936 2198.15 76.3136C2199.31 78.0869 2200.78 78.9736 2202.56 78.9736ZM2269.39 59.7936L2247.69 61.6836L2247.2 56.0136L2268.9 54.1236L2269.39 59.7936ZM2323.56 67.9836H2325.17L2324.47 80.9336H2290.73V79.3236C2291.1 79.1369 2291.66 78.8103 2292.41 78.3436C2293.2 77.8769 2294.02 77.3403 2294.86 76.7336C2297.19 75.0536 2299.39 73.1403 2301.44 70.9936C2303.49 68.8469 2305.29 66.5603 2306.83 64.1336C2308.37 61.7069 2309.58 59.2803 2310.47 56.8536C2311.36 54.4269 2311.8 52.1169 2311.8 49.9236C2311.8 47.8236 2311.29 46.0503 2310.26 44.6036C2309.28 43.1569 2307.48 42.4336 2304.87 42.4336C2302.68 42.4336 2300.65 43.0403 2298.78 44.2536C2296.91 45.4669 2295.07 47.3569 2293.25 49.9236L2291.92 48.8036C2293.83 43.9503 2296.24 40.3336 2299.13 37.9536C2302.02 35.5736 2305.64 34.3836 2309.98 34.3836C2312.5 34.3836 2314.76 34.8036 2316.77 35.6436C2318.78 36.4369 2320.36 37.6969 2321.53 39.4236C2322.74 41.1036 2323.35 43.2969 2323.35 46.0036C2323.35 50.8103 2321.81 55.3136 2318.73 59.5136C2315.7 63.7136 2311.45 67.6569 2305.99 71.3436V71.4836H2316.21C2318.87 71.4836 2320.71 71.1569 2321.74 70.5036C2322.77 69.8503 2323.37 69.0103 2323.56 67.9836ZM2352.16 73.2336C2352.16 74.9603 2352.3 76.2669 2352.58 77.1536C2352.91 77.9936 2353.56 78.5536 2354.54 78.8336C2355.57 79.1136 2357.11 79.2769 2359.16 79.3236V80.9336H2333.26V79.3236C2335.36 79.2769 2336.9 79.1136 2337.88 78.8336C2338.91 78.5536 2339.56 77.9936 2339.84 77.1536C2340.12 76.2669 2340.26 74.9603 2340.26 73.2336V42.7836L2333.82 46.7736L2332.35 44.5336L2348.59 34.3836H2352.65C2352.46 35.2703 2352.32 36.1569 2352.23 37.0436C2352.18 37.9303 2352.16 38.8169 2352.16 39.7036V73.2336ZM2384.18 80.9336V79.3236C2385.53 79.2303 2386.51 78.8803 2387.12 78.2736C2387.73 77.6669 2388.03 76.2203 2388.03 73.9336V41.3836C2388.03 39.0969 2387.68 37.6503 2386.98 37.0436C2386.33 36.3903 2385.04 36.0403 2383.13 35.9936V34.3836H2403.08V35.9936C2401.73 36.0403 2400.75 36.3903 2400.14 37.0436C2399.53 37.6503 2399.23 39.0969 2399.23 41.3836V53.7736C2399.6 53.4936 2400.05 53.3069 2400.56 53.2136C2401.12 53.1203 2401.77 53.0736 2402.52 53.0736H2415.75C2417.01 53.0736 2417.9 52.8636 2418.41 52.4436C2418.92 52.0236 2419.18 51.1836 2419.18 49.9236V41.3836C2419.18 39.0969 2418.83 37.6503 2418.13 37.0436C2417.48 36.3903 2416.19 36.0403 2414.28 35.9936V34.3836H2434.23V35.9936C2432.88 36.0403 2431.9 36.3903 2431.29 37.0436C2430.68 37.6503 2430.38 39.0969 2430.38 41.3836V73.9336C2430.38 76.2203 2430.73 77.6669 2431.43 78.2736C2432.13 78.8803 2433.41 79.2303 2435.28 79.3236V80.9336H2415.33V79.3236C2416.68 79.2303 2417.66 78.8803 2418.27 78.2736C2418.88 77.6669 2419.18 76.2203 2419.18 73.9336V55.3136C2418.81 55.6403 2418.34 55.8503 2417.78 55.9436C2417.22 56.0369 2416.59 56.0836 2415.89 56.0836H2402.66C2401.4 56.0836 2400.51 56.2936 2400 56.7136C2399.49 57.1336 2399.23 57.9503 2399.23 59.1636V73.9336C2399.23 76.2203 2399.58 77.6669 2400.28 78.2736C2400.98 78.8803 2402.26 79.2303 2404.13 79.3236V80.9336H2384.18ZM2466.15 33.3336C2469.47 33.3336 2472.55 33.8936 2475.39 35.0136C2478.24 36.1336 2480.76 37.7669 2482.95 39.9136C2485.15 42.0136 2486.85 44.5569 2488.06 47.5436C2489.28 50.5303 2489.88 53.8669 2489.88 57.5536C2489.88 61.2403 2489.28 64.5769 2488.06 67.5636C2486.85 70.5503 2485.15 73.1169 2482.95 75.2636C2480.81 77.4103 2478.29 79.0669 2475.39 80.2336C2472.5 81.4003 2469.4 81.9836 2466.08 81.9836C2462.82 81.9836 2459.74 81.4236 2456.84 80.3036C2454 79.1836 2451.48 77.5736 2449.28 75.4736C2447.09 73.3269 2445.39 70.7603 2444.17 67.7736C2442.96 64.7869 2442.35 61.4503 2442.35 57.7636C2442.35 54.0769 2442.96 50.7403 2444.17 47.7536C2445.39 44.7669 2447.07 42.2003 2449.21 40.0536C2451.41 37.9069 2453.95 36.2503 2456.84 35.0836C2459.74 33.9169 2462.84 33.3336 2466.15 33.3336ZM2467.55 78.9736C2469.98 78.9736 2471.89 78.1803 2473.29 76.5936C2474.69 74.9603 2475.7 72.7203 2476.3 69.8736C2476.96 67.0269 2477.28 63.7136 2477.28 59.9336C2477.28 52.3269 2476.12 46.4936 2473.78 42.4336C2471.5 38.3736 2468.46 36.3436 2464.68 36.3436C2462.3 36.3436 2460.39 37.1369 2458.94 38.7236C2457.54 40.3103 2456.52 42.5503 2455.86 45.4436C2455.26 48.2903 2454.95 51.6036 2454.95 55.3836C2454.95 62.9903 2456.1 68.8236 2458.38 72.8836C2460.72 76.9436 2463.77 78.9736 2467.55 78.9736ZM2497.84 81.9836C2496.67 81.9836 2495.44 81.8903 2494.13 81.7036C2492.82 81.5169 2491.7 81.2603 2490.77 80.9336V79.3236C2491.7 79.3236 2492.75 78.9503 2493.92 78.2036C2495.09 77.4569 2496.28 75.9636 2497.49 73.7236L2507.5 55.5936C2504.37 54.8003 2501.99 53.5169 2500.36 51.7436C2498.77 49.9703 2497.98 47.8236 2497.98 45.3036C2497.98 43.3436 2498.56 41.5003 2499.73 39.7736C2500.94 38.0469 2502.9 36.6703 2505.61 35.6436C2508.36 34.5703 2512.05 34.0336 2516.67 34.0336C2518.16 34.0336 2519.89 34.1036 2521.85 34.2436C2523.81 34.3369 2525.98 34.3836 2528.36 34.3836H2537.32V35.9936C2535.97 36.0403 2534.99 36.3903 2534.38 37.0436C2533.77 37.6503 2533.47 39.0969 2533.47 41.3836V73.9336C2533.47 76.2203 2533.82 77.6669 2534.52 78.2736C2535.22 78.8803 2536.5 79.2303 2538.37 79.3236V80.9336H2518.42V79.3236C2519.77 79.2303 2520.75 78.8803 2521.36 78.2736C2521.97 77.6669 2522.27 76.2203 2522.27 73.9336V41.3836C2522.27 39.5636 2521.94 38.3969 2521.29 37.8836C2520.68 37.3236 2519.61 37.0436 2518.07 37.0436C2516.06 37.0436 2514.24 37.7669 2512.61 39.2136C2511.02 40.6136 2510.23 42.7369 2510.23 45.5836C2510.23 47.0769 2510.53 48.5236 2511.14 49.9236C2511.75 51.2769 2512.82 52.4203 2514.36 53.3536C2515.95 54.2869 2518.12 54.8469 2520.87 55.0336V57.4836C2520.31 57.4836 2519.82 57.6003 2519.4 57.8336C2518.98 58.0203 2518.56 58.5103 2518.14 59.3036L2510.23 74.5636C2509.16 76.6169 2507.66 78.3669 2505.75 79.8136C2503.84 81.2603 2501.2 81.9836 2497.84 81.9836ZM2560.49 52.9336H2567.28C2572.37 52.9336 2576.38 53.4936 2579.32 54.6136C2582.26 55.7336 2584.34 57.2736 2585.55 59.2336C2586.81 61.1936 2587.44 63.4569 2587.44 66.0236C2587.44 68.5903 2586.74 71.0169 2585.34 73.3036C2583.99 75.5436 2581.86 77.3869 2578.97 78.8336C2576.12 80.2336 2572.48 80.9336 2568.05 80.9336H2545.44V79.3236C2546.79 79.2303 2547.77 78.8803 2548.38 78.2736C2548.99 77.6669 2549.29 76.2203 2549.29 73.9336V41.3836C2549.29 39.0969 2548.94 37.6503 2548.24 37.0436C2547.59 36.3903 2546.3 36.0403 2544.39 35.9936V34.3836H2582.89V45.9336H2581.28C2581.14 44.3469 2580.84 42.9236 2580.37 41.6636C2579.9 40.3569 2579.11 39.3303 2577.99 38.5836C2576.87 37.7903 2575.26 37.3936 2573.16 37.3936H2563.57C2562.59 37.3936 2561.82 37.6503 2561.26 38.1636C2560.75 38.6769 2560.49 39.7503 2560.49 41.3836V52.9336ZM2564.62 77.9236C2567.09 77.9236 2569.12 77.3403 2570.71 76.1736C2572.34 74.9603 2573.56 73.4669 2574.35 71.6936C2575.14 69.9203 2575.54 68.1703 2575.54 66.4436C2575.54 63.8769 2575.05 61.8236 2574.07 60.2836C2573.14 58.7436 2571.85 57.6469 2570.22 56.9936C2568.63 56.2936 2566.84 55.9436 2564.83 55.9436H2560.49V73.9336C2560.49 75.5669 2560.75 76.6403 2561.26 77.1536C2561.77 77.6669 2562.89 77.9236 2564.62 77.9236ZM2594.86 80.9336V79.3236C2596.22 79.2303 2597.2 78.8803 2597.8 78.2736C2598.41 77.6669 2598.71 76.2203 2598.71 73.9336V41.3836C2598.71 39.0969 2598.36 37.6503 2597.66 37.0436C2597.01 36.3903 2595.73 36.0403 2593.81 35.9936V34.3836H2598.71C2602.12 34.3836 2605.32 34.3369 2608.3 34.2436C2611.29 34.1036 2613.53 34.0336 2615.02 34.0336C2619.88 34.0336 2623.7 34.5703 2626.5 35.6436C2629.35 36.7169 2631.38 38.1403 2632.59 39.9136C2633.85 41.6403 2634.48 43.5536 2634.48 45.6536C2634.48 48.0803 2633.69 50.3903 2632.1 52.5836C2630.56 54.7769 2628.09 56.4803 2624.68 57.6936C2621.32 58.8603 2616.87 59.2336 2611.31 58.8136V56.3636C2613.83 56.4569 2615.91 56.0136 2617.54 55.0336C2619.18 54.0069 2620.37 52.6536 2621.11 50.9736C2621.91 49.2936 2622.3 47.4969 2622.3 45.5836C2622.3 43.0169 2621.58 40.9636 2620.13 39.4236C2618.69 37.8369 2616.68 37.0436 2614.11 37.0436C2612.57 37.0436 2611.48 37.3236 2610.82 37.8836C2610.22 38.3969 2609.91 39.5636 2609.91 41.3836V73.9336C2609.91 75.4269 2610.05 76.5703 2610.33 77.3636C2610.66 78.1103 2611.22 78.6236 2612.01 78.9036C2612.85 79.1369 2614.02 79.2769 2615.51 79.3236V80.9336H2594.86ZM2641.87 81.9836C2640.71 81.9836 2639.47 81.8903 2638.16 81.7036C2636.86 81.5169 2635.74 81.2603 2634.8 80.9336V79.3236C2635.74 79.3236 2636.79 78.9503 2637.95 78.2036C2639.12 77.4569 2640.31 75.9636 2641.52 73.7236L2651.53 55.5936C2648.41 54.8003 2646.03 53.5169 2644.39 51.7436C2642.81 49.9703 2642.01 47.8236 2642.01 45.3036C2642.01 43.3436 2642.6 41.5003 2643.76 39.7736C2644.98 38.0469 2646.94 36.6703 2649.64 35.6436C2652.4 34.5703 2656.08 34.0336 2660.7 34.0336C2662.2 34.0336 2663.92 34.1036 2665.88 34.2436C2667.84 34.3369 2670.01 34.3836 2672.39 34.3836H2681.35V35.9936C2680 36.0403 2679.02 36.3903 2678.41 37.0436C2677.81 37.6503 2677.5 39.0969 2677.5 41.3836V73.9336C2677.5 76.2203 2677.85 77.6669 2678.55 78.2736C2679.25 78.8803 2680.54 79.2303 2682.4 79.3236V80.9336H2662.45V79.3236C2663.81 79.2303 2664.79 78.8803 2665.39 78.2736C2666 77.6669 2666.3 76.2203 2666.3 73.9336V41.3836C2666.3 39.5636 2665.98 38.3969 2665.32 37.8836C2664.72 37.3236 2663.64 37.0436 2662.1 37.0436C2660.1 37.0436 2658.28 37.7669 2656.64 39.2136C2655.06 40.6136 2654.26 42.7369 2654.26 45.5836C2654.26 47.0769 2654.57 48.5236 2655.17 49.9236C2655.78 51.2769 2656.85 52.4203 2658.39 53.3536C2659.98 54.2869 2662.15 54.8469 2664.9 55.0336V57.4836C2664.34 57.4836 2663.85 57.6003 2663.43 57.8336C2663.01 58.0203 2662.59 58.5103 2662.17 59.3036L2654.26 74.5636C2653.19 76.6169 2651.7 78.3669 2649.78 79.8136C2647.87 81.2603 2645.23 81.9836 2641.87 81.9836ZM2738.02 67.9836H2739.63L2738.93 80.9336H2705.19V79.3236C2705.56 79.1369 2706.12 78.8103 2706.87 78.3436C2707.66 77.8769 2708.48 77.3403 2709.32 76.7336C2711.65 75.0536 2713.85 73.1403 2715.9 70.9936C2717.95 68.8469 2719.75 66.5603 2721.29 64.1336C2722.83 61.7069 2724.04 59.2803 2724.93 56.8536C2725.82 54.4269 2726.26 52.1169 2726.26 49.9236C2726.26 47.8236 2725.75 46.0503 2724.72 44.6036C2723.74 43.1569 2721.94 42.4336 2719.33 42.4336C2717.14 42.4336 2715.11 43.0403 2713.24 44.2536C2711.37 45.4669 2709.53 47.3569 2707.71 49.9236L2706.38 48.8036C2708.29 43.9503 2710.7 40.3336 2713.59 37.9536C2716.48 35.5736 2720.1 34.3836 2724.44 34.3836C2726.96 34.3836 2729.22 34.8036 2731.23 35.6436C2733.24 36.4369 2734.82 37.6969 2735.99 39.4236C2737.2 41.1036 2737.81 43.2969 2737.81 46.0036C2737.81 50.8103 2736.27 55.3136 2733.19 59.5136C2730.16 63.7136 2725.91 67.6569 2720.45 71.3436V71.4836H2730.67C2733.33 71.4836 2735.17 71.1569 2736.2 70.5036C2737.23 69.8503 2737.83 69.0103 2738.02 67.9836ZM2767.81 34.3836C2770.24 34.3836 2772.62 34.8503 2774.95 35.7836C2777.29 36.7169 2779.39 38.1636 2781.25 40.1236C2783.12 42.0836 2784.59 44.5569 2785.66 47.5436C2786.78 50.4836 2787.34 53.9836 2787.34 58.0436C2787.34 62.0569 2786.81 65.5569 2785.73 68.5436C2784.66 71.5303 2783.19 74.0269 2781.32 76.0336C2779.46 78.0403 2777.36 79.5336 2775.02 80.5136C2772.69 81.4936 2770.26 81.9836 2767.74 81.9836C2765.32 81.9836 2762.94 81.5169 2760.6 80.5836C2758.27 79.6503 2756.17 78.2036 2754.3 76.2436C2752.44 74.2836 2750.94 71.8336 2749.82 68.8936C2748.75 65.9069 2748.21 62.3836 2748.21 58.3236C2748.21 54.3103 2748.75 50.8103 2749.82 47.8236C2750.9 44.8369 2752.37 42.3403 2754.23 40.3336C2756.1 38.3269 2758.2 36.8336 2760.53 35.8536C2762.87 34.8736 2765.29 34.3836 2767.81 34.3836ZM2768.02 78.9736C2769.38 78.9736 2770.61 78.3669 2771.73 77.1536C2772.85 75.9403 2773.74 73.8869 2774.39 70.9936C2775.09 68.1003 2775.44 64.1336 2775.44 59.0936C2775.44 54.7069 2775.14 50.9036 2774.53 47.6836C2773.97 44.4169 2773.11 41.8969 2771.94 40.1236C2770.78 38.3036 2769.31 37.3936 2767.53 37.3936C2766.23 37.3936 2764.99 38.0003 2763.82 39.2136C2762.7 40.4269 2761.79 42.4803 2761.09 45.3736C2760.44 48.2669 2760.11 52.2336 2760.11 57.2736C2760.11 61.6603 2760.39 65.4869 2760.95 68.7536C2761.56 71.9736 2762.45 74.4936 2763.61 76.3136C2764.78 78.0869 2766.25 78.9736 2768.02 78.9736ZM2826 67.9836H2827.61L2826.91 80.9336H2793.17V79.3236C2793.54 79.1369 2794.1 78.8103 2794.85 78.3436C2795.64 77.8769 2796.46 77.3403 2797.3 76.7336C2799.63 75.0536 2801.83 73.1403 2803.88 70.9936C2805.93 68.8469 2807.73 66.5603 2809.27 64.1336C2810.81 61.7069 2812.02 59.2803 2812.91 56.8536C2813.8 54.4269 2814.24 52.1169 2814.24 49.9236C2814.24 47.8236 2813.73 46.0503 2812.7 44.6036C2811.72 43.1569 2809.92 42.4336 2807.31 42.4336C2805.12 42.4336 2803.09 43.0403 2801.22 44.2536C2799.35 45.4669 2797.51 47.3569 2795.69 49.9236L2794.36 48.8036C2796.27 43.9503 2798.68 40.3336 2801.57 37.9536C2804.46 35.5736 2808.08 34.3836 2812.42 34.3836C2814.94 34.3836 2817.2 34.8036 2819.21 35.6436C2821.22 36.4369 2822.8 37.6969 2823.97 39.4236C2825.18 41.1036 2825.79 43.2969 2825.79 46.0036C2825.79 50.8103 2824.25 55.3136 2821.17 59.5136C2818.14 63.7136 2813.89 67.6569 2808.43 71.3436V71.4836H2818.65C2821.31 71.4836 2823.15 71.1569 2824.18 70.5036C2825.21 69.8503 2825.81 69.0103 2826 67.9836ZM2864.89 63.0836H2869.79V71.8336H2866.85C2865.55 71.8336 2864.89 72.6503 2864.89 74.2836C2864.89 75.4036 2864.89 76.5003 2864.89 77.5736C2864.94 78.6003 2864.99 79.7203 2865.03 80.9336H2853.97C2854.07 79.3936 2854.14 77.9003 2854.18 76.4536C2854.23 74.9603 2854.28 73.4203 2854.32 71.8336H2832.2V70.2236C2833.42 69.0569 2834.51 67.8436 2835.49 66.5836L2858.38 37.9536C2858.9 37.3003 2859.36 36.6703 2859.78 36.0636C2860.25 35.4103 2860.62 34.8503 2860.9 34.3836H2864.96L2864.89 63.0836ZM2854.18 48.4536L2842.49 63.0836H2854.39V48.4536H2854.18ZM2927.22 34.3836V47.3336H2925.61C2925.38 45.2803 2924.96 43.5303 2924.35 42.0836C2923.79 40.5903 2922.91 39.4469 2921.69 38.6536C2920.53 37.8136 2918.89 37.3936 2916.79 37.3936H2913.5C2912.52 37.3936 2911.75 37.6503 2911.19 38.1636C2910.68 38.6769 2910.42 39.7503 2910.42 41.3836V73.9336C2910.42 76.2203 2910.77 77.6669 2911.47 78.2736C2912.17 78.8803 2913.46 79.2303 2915.32 79.3236V80.9336H2895.37V79.3236C2896.73 79.2303 2897.71 78.8803 2898.31 78.2736C2898.92 77.6669 2899.22 76.2203 2899.22 73.9336V41.3836C2899.22 39.0969 2898.87 37.6503 2898.17 37.0436C2897.52 36.3903 2896.24 36.0403 2894.32 35.9936V34.3836H2927.22ZM2955.27 33.3336C2958.58 33.3336 2961.66 33.8936 2964.51 35.0136C2967.35 36.1336 2969.87 37.7669 2972.07 39.9136C2974.26 42.0136 2975.96 44.5569 2977.18 47.5436C2978.39 50.5303 2979 53.8669 2979 57.5536C2979 61.2403 2978.39 64.5769 2977.18 67.5636C2975.96 70.5503 2974.26 73.1169 2972.07 75.2636C2969.92 77.4103 2967.4 79.0669 2964.51 80.2336C2961.61 81.4003 2958.51 81.9836 2955.2 81.9836C2951.93 81.9836 2948.85 81.4236 2945.96 80.3036C2943.11 79.1836 2940.59 77.5736 2938.4 75.4736C2936.2 73.3269 2934.5 70.7603 2933.29 67.7736C2932.07 64.7869 2931.47 61.4503 2931.47 57.7636C2931.47 54.0769 2932.07 50.7403 2933.29 47.7536C2934.5 44.7669 2936.18 42.2003 2938.33 40.0536C2940.52 37.9069 2943.06 36.2503 2945.96 35.0836C2948.85 33.9169 2951.95 33.3336 2955.27 33.3336ZM2956.67 78.9736C2959.09 78.9736 2961.01 78.1803 2962.41 76.5936C2963.81 74.9603 2964.81 72.7203 2965.42 69.8736C2966.07 67.0269 2966.4 63.7136 2966.4 59.9336C2966.4 52.3269 2965.23 46.4936 2962.9 42.4336C2960.61 38.3736 2957.58 36.3436 2953.8 36.3436C2951.42 36.3436 2949.5 37.1369 2948.06 38.7236C2946.66 40.3103 2945.63 42.5503 2944.98 45.4436C2944.37 48.2903 2944.07 51.6036 2944.07 55.3836C2944.07 62.9903 2945.21 68.8236 2947.5 72.8836C2949.83 76.9436 2952.89 78.9736 2956.67 78.9736ZM3009.35 39.9136L3020.97 73.9336C3021.39 75.1469 3022 76.2669 3022.79 77.2936C3023.63 78.2736 3024.92 78.9503 3026.64 79.3236L3023.42 95.2836H3021.81C3021.72 92.3903 3021.3 89.8703 3020.55 87.7236C3019.81 85.5769 3018.87 83.8969 3017.75 82.6836C3016.63 81.5169 3015.42 80.9336 3014.11 80.9336H2995.35C2993.63 80.9336 2991.92 81.5169 2990.24 82.6836C2988.61 83.8969 2987.21 85.5769 2986.04 87.7236C2984.92 89.8703 2984.2 92.3903 2983.87 95.2836H2982.26V79.3236C2983.1 78.9503 2983.92 78.3203 2984.71 77.4336C2985.51 76.5003 2986.23 75.4503 2986.88 74.2836C2987.58 73.1169 2988.12 72.0203 2988.49 70.9936L3000.39 39.9136C3000.86 38.7003 3001.3 37.5103 3001.72 36.3436C3002.14 35.1769 3002.52 33.9869 3002.84 32.7736H3006.9C3007.23 33.9869 3007.6 35.1769 3008.02 36.3436C3008.49 37.5103 3008.93 38.7003 3009.35 39.9136ZM3006.41 77.9236C3008.28 77.9236 3009.31 77.6203 3009.49 77.0136C3009.68 76.4069 3009.52 75.3803 3009 73.9336L3000.81 48.7336H3000.67L2989.75 77.9236H3006.41ZM3069.48 73.9336C3070.13 75.5203 3070.67 76.6869 3071.09 77.4336C3071.56 78.1803 3072.05 78.6703 3072.56 78.9036C3073.07 79.0903 3073.7 79.2303 3074.45 79.3236V80.9336H3054.92V79.3236C3056.79 79.2303 3057.81 78.6703 3058 77.6436C3058.23 76.6169 3058.07 75.3803 3057.51 73.9336L3054.01 64.8336C3053.73 65.0669 3053.36 65.2303 3052.89 65.3236C3052.47 65.3703 3052 65.3936 3051.49 65.3936H3043.58C3042.6 65.3936 3041.85 65.5103 3041.34 65.7436C3040.83 65.9769 3040.38 66.5603 3040.01 67.4936L3037.49 73.9336C3036.88 75.4736 3036.93 76.7336 3037.63 77.7136C3038.33 78.6936 3039.71 79.2303 3041.76 79.3236V80.9336H3029.02V79.3236C3030.05 79.2303 3030.91 78.7169 3031.61 77.7836C3032.36 76.8036 3033.03 75.5203 3033.64 73.9336L3047.08 39.9136C3047.59 38.7003 3048.04 37.5103 3048.41 36.3436C3048.83 35.1769 3049.2 33.9869 3049.53 32.7736H3053.59C3053.92 33.9869 3054.29 35.1769 3054.71 36.3436C3055.13 37.5103 3055.57 38.7003 3056.04 39.9136L3069.48 73.9336ZM3051.14 62.3836C3051.79 62.3836 3052.21 62.2903 3052.4 62.1036C3052.63 61.8703 3052.61 61.4036 3052.33 60.7036L3047.5 48.7336H3047.36L3041.9 62.6636C3042.13 62.5236 3042.41 62.4536 3042.74 62.4536C3043.07 62.4069 3043.44 62.3836 3043.86 62.3836H3051.14Z" fill="black"/>
<defs>
<linearGradient id="paint0_linear_562_1650" x1="0.015625" y1="57.9336" x2="3115.81" y2="57.9336" gradientUnits="userSpaceOnUse">
<stop stop-color="white"/>
<stop offset="0.325" stop-color="#D4D4D4"/>
<stop offset="0.685" stop-color="white"/>
<stop offset="0.98" stop-color="#D4D4D4"/>
</linearGradient>
</defs>
</svg>
