<svg width="2468" height="90" viewBox="0 0 2468 90" fill="none" xmlns="http://www.w3.org/2000/svg">
<rect width="2467.31" height="90" transform="translate(0.234375)" fill="url(#paint0_linear_614_2549)"/>
<path d="M58.6185 53.2474H59.8932L59.339 63.5H32.6267V62.2254C32.9223 62.0776 33.3656 61.8189 33.9568 61.4495C34.5849 61.08 35.2314 60.6551 35.8965 60.1748C37.7438 58.8448 39.4803 57.3299 41.1059 55.6304C42.7316 53.9309 44.154 52.1205 45.3732 50.1993C46.5925 48.2781 47.5531 46.3568 48.2551 44.4356C48.957 42.5144 49.308 40.6856 49.308 38.9491C49.308 37.2865 48.9016 35.8825 48.0888 34.7372C47.3129 33.5918 45.8905 33.0192 43.8215 33.0192C42.085 33.0192 40.4778 33.4995 39 34.4601C37.5221 35.4207 36.0627 36.917 34.6218 38.9491L33.5688 38.0624C35.0836 34.2199 36.9864 31.3566 39.2771 29.4723C41.5678 27.588 44.4311 26.6459 47.8671 26.6459C49.8622 26.6459 51.6541 26.9784 53.2428 27.6435C54.8315 28.2716 56.0877 29.2691 57.0114 30.6361C57.972 31.9662 58.4523 33.7027 58.4523 35.8456C58.4523 39.6511 57.2331 43.2164 54.7946 46.5416C52.3931 49.8668 49.0309 52.9887 44.7082 55.9075V56.0183H52.7995C54.9054 56.0183 56.3648 55.7597 57.1776 55.2425C57.9905 54.7252 58.4708 54.0602 58.6185 53.2474ZM82.2061 26.6459C84.1273 26.6459 86.0116 27.0154 87.8589 27.7543C89.7063 28.4932 91.3688 29.6386 92.8467 31.1903C94.3246 32.7421 95.4884 34.7002 96.3381 37.0648C97.2249 39.3924 97.6682 42.1634 97.6682 45.3778C97.6682 48.5552 97.2433 51.3261 96.3936 53.6907C95.5438 56.0553 94.38 58.0319 92.9021 59.6206C91.4243 61.2093 89.7617 62.3916 87.9143 63.1675C86.067 63.9434 84.1458 64.3313 82.1507 64.3313C80.2295 64.3313 78.3452 63.9618 76.4979 63.2229C74.6506 62.484 72.988 61.3386 71.5101 59.7869C70.0323 58.2351 68.85 56.2954 67.9633 53.9678C67.1135 51.6032 66.6886 48.8138 66.6886 45.5994C66.6886 42.422 67.1135 39.6511 67.9633 37.2865C68.813 34.9219 69.9768 32.9453 71.4547 31.3566C72.9326 29.7679 74.5951 28.5856 76.4425 27.8097C78.2898 27.0338 80.211 26.6459 82.2061 26.6459ZM82.3724 61.9483C83.4438 61.9483 84.4229 61.468 85.3096 60.5073C86.1963 59.5467 86.8983 57.9211 87.4156 55.6304C87.9698 53.3397 88.2469 50.1993 88.2469 46.2091C88.2469 42.7361 88.0067 39.725 87.5264 37.1756C87.0831 34.5894 86.3995 32.5943 85.4759 31.1903C84.5522 29.7494 83.3884 29.029 81.9844 29.029C80.9499 29.029 79.9709 29.5093 79.0472 30.4699C78.1605 31.4305 77.44 33.0561 76.8858 35.3468C76.3686 37.6375 76.11 40.7779 76.11 44.7681C76.11 48.2411 76.3316 51.2707 76.775 53.857C77.2553 56.4063 77.9573 58.4014 78.8809 59.8423C79.8046 61.2463 80.9684 61.9483 82.3724 61.9483ZM135.284 46.7633L118.104 48.2596L117.716 43.7706L134.896 42.2743L135.284 46.7633ZM178.171 53.2474H179.446L178.892 63.5H152.18V62.2254C152.475 62.0776 152.918 61.8189 153.51 61.4495C154.138 61.08 154.784 60.6551 155.449 60.1748C157.297 58.8448 159.033 57.3299 160.659 55.6304C162.284 53.9309 163.707 52.1205 164.926 50.1993C166.145 48.2781 167.106 46.3568 167.808 44.4356C168.51 42.5144 168.861 40.6856 168.861 38.9491C168.861 37.2865 168.454 35.8825 167.642 34.7372C166.866 33.5918 165.443 33.0192 163.374 33.0192C161.638 33.0192 160.031 33.4995 158.553 34.4601C157.075 35.4207 155.616 36.917 154.175 38.9491L153.122 38.0624C154.636 34.2199 156.539 31.3566 158.83 29.4723C161.121 27.588 163.984 26.6459 167.42 26.6459C169.415 26.6459 171.207 26.9784 172.796 27.6435C174.384 28.2716 175.641 29.2691 176.564 30.6361C177.525 31.9662 178.005 33.7027 178.005 35.8456C178.005 39.6511 176.786 43.2164 174.347 46.5416C171.946 49.8668 168.584 52.9887 164.261 55.9075V56.0183H172.352C174.458 56.0183 175.918 55.7597 176.73 55.2425C177.543 54.7252 178.024 54.0602 178.171 53.2474ZM200.817 57.4038C200.817 58.7709 200.928 59.8054 201.149 60.5073C201.408 61.1724 201.925 61.6157 202.701 61.8374C203.514 62.0591 204.733 62.1884 206.359 62.2254V63.5H185.854V62.2254C187.516 62.1884 188.735 62.0591 189.511 61.8374C190.324 61.6157 190.841 61.1724 191.063 60.5073C191.285 59.8054 191.395 58.7709 191.395 57.4038V33.2963L186.297 36.4552L185.133 34.6818L197.99 26.6459H201.205C201.057 27.3479 200.946 28.0499 200.872 28.7519C200.835 29.4538 200.817 30.1558 200.817 30.8578V57.4038ZM226.167 63.5V62.2254C227.238 62.1515 228.014 61.8744 228.495 61.3941C228.975 60.9138 229.215 59.7684 229.215 57.958V32.1879C229.215 30.3775 228.938 29.2322 228.384 28.7519C227.867 28.2346 226.851 27.9575 225.336 27.9206V26.6459H241.13V27.9206C240.059 27.9575 239.283 28.2346 238.803 28.7519C238.322 29.2322 238.082 30.3775 238.082 32.1879V41.9972C238.378 41.7755 238.729 41.6277 239.135 41.5538C239.579 41.4799 240.096 41.443 240.687 41.443H251.161C252.159 41.443 252.861 41.2767 253.267 40.9442C253.674 40.6117 253.877 39.9466 253.877 38.9491V32.1879C253.877 30.3775 253.6 29.2322 253.046 28.7519C252.528 28.2346 251.512 27.9575 249.997 27.9206V26.6459H265.792V27.9206C264.721 27.9575 263.945 28.2346 263.464 28.7519C262.984 29.2322 262.744 30.3775 262.744 32.1879V57.958C262.744 59.7684 263.021 60.9138 263.575 61.3941C264.129 61.8744 265.146 62.1515 266.623 62.2254V63.5H250.829V62.2254C251.9 62.1515 252.676 61.8744 253.156 61.3941C253.637 60.9138 253.877 59.7684 253.877 57.958V43.2164C253.581 43.475 253.212 43.6413 252.768 43.7152C252.325 43.7891 251.826 43.826 251.272 43.826H240.798C239.8 43.826 239.098 43.9923 238.692 44.3248C238.285 44.6573 238.082 45.3039 238.082 46.2645V57.958C238.082 59.7684 238.359 60.9138 238.914 61.3941C239.468 61.8744 240.484 62.1515 241.962 62.2254V63.5H226.167ZM291.066 25.8146C293.69 25.8146 296.128 26.258 298.382 27.1447C300.636 28.0314 302.631 29.3245 304.367 31.0241C306.104 32.6867 307.452 34.7002 308.413 37.0648C309.373 39.4294 309.854 42.0711 309.854 44.9898C309.854 47.9086 309.373 50.5503 308.413 52.9148C307.452 55.2794 306.104 57.3115 304.367 59.011C302.668 60.7105 300.673 62.0221 298.382 62.9458C296.091 63.8695 293.634 64.3313 291.011 64.3313C288.425 64.3313 285.986 63.8879 283.696 63.0012C281.442 62.1145 279.447 60.8399 277.71 59.1773C275.974 57.4777 274.625 55.4457 273.665 53.0811C272.704 50.7165 272.224 48.0749 272.224 45.1561C272.224 42.2373 272.704 39.5956 273.665 37.2311C274.625 34.8665 275.955 32.8344 277.655 31.1349C279.391 29.4354 281.405 28.1238 283.696 27.2001C285.986 26.2764 288.443 25.8146 291.066 25.8146ZM292.175 61.9483C294.096 61.9483 295.611 61.3202 296.719 60.064C297.828 58.7709 298.622 56.9974 299.102 54.7437C299.62 52.49 299.878 49.8668 299.878 46.8741C299.878 40.8518 298.955 36.2335 297.107 33.0192C295.297 29.8048 292.895 28.1977 289.903 28.1977C288.018 28.1977 286.504 28.8257 285.358 30.0819C284.25 31.3381 283.437 33.1115 282.92 35.4022C282.439 37.656 282.199 40.2792 282.199 43.2718C282.199 49.2941 283.105 53.9124 284.915 57.1267C286.762 60.3411 289.182 61.9483 292.175 61.9483ZM316.152 64.3313C315.228 64.3313 314.249 64.2574 313.215 64.1096C312.18 63.9618 311.294 63.7586 310.555 63.5V62.2254C311.294 62.2254 312.125 61.9298 313.049 61.3386C313.972 60.7475 314.914 59.5652 315.875 57.7918L323.8 43.4381C321.325 42.81 319.44 41.794 318.147 40.39C316.891 38.986 316.263 37.2865 316.263 35.2914C316.263 33.7396 316.725 32.2802 317.648 30.9132C318.609 29.5462 320.161 28.4563 322.304 27.6435C324.484 26.7937 327.402 26.3688 331.06 26.3688C332.242 26.3688 333.609 26.4242 335.161 26.5351C336.713 26.609 338.431 26.6459 340.315 26.6459H347.409V27.9206C346.337 27.9575 345.562 28.2346 345.081 28.7519C344.601 29.2322 344.361 30.3775 344.361 32.1879V57.958C344.361 59.7684 344.638 60.9138 345.192 61.3941C345.746 61.8744 346.762 62.1515 348.24 62.2254V63.5H332.446V62.2254C333.517 62.1515 334.293 61.8744 334.773 61.3941C335.253 60.9138 335.494 59.7684 335.494 57.958V32.1879C335.494 30.747 335.235 29.8233 334.718 29.4169C334.237 28.9735 333.388 28.7519 332.168 28.7519C330.58 28.7519 329.139 29.3245 327.846 30.4699C326.59 31.5783 325.961 33.2593 325.961 35.5131C325.961 36.6953 326.202 37.8407 326.682 38.9491C327.162 40.0205 328.012 40.9257 329.231 41.6646C330.487 42.4036 332.205 42.8469 334.385 42.9947V44.9344C333.942 44.9344 333.554 45.0268 333.221 45.2115C332.889 45.3593 332.556 45.7472 332.224 46.3753L325.961 58.4568C325.112 60.0825 323.929 61.468 322.415 62.6133C320.9 63.7586 318.812 64.3313 316.152 64.3313ZM365.753 41.3321H371.129C375.156 41.3321 378.333 41.7755 380.661 42.6622C382.989 43.5489 384.633 44.7681 385.593 46.3199C386.591 47.8717 387.09 49.6636 387.09 51.6956C387.09 53.7277 386.536 55.6489 385.427 57.4593C384.356 59.2327 382.675 60.6921 380.384 61.8374C378.13 62.9458 375.248 63.5 371.739 63.5H353.838V62.2254C354.909 62.1515 355.685 61.8744 356.166 61.3941C356.646 60.9138 356.886 59.7684 356.886 57.958V32.1879C356.886 30.3775 356.609 29.2322 356.055 28.7519C355.538 28.2346 354.521 27.9575 353.007 27.9206V26.6459H383.488V35.7902H382.213C382.102 34.534 381.862 33.4071 381.492 32.4096C381.123 31.3751 380.495 30.5622 379.608 29.9711C378.721 29.343 377.447 29.029 375.784 29.029H368.192C367.416 29.029 366.806 29.2322 366.363 29.6386C365.956 30.045 365.753 30.8948 365.753 32.1879V41.3321ZM369.023 61.117C370.981 61.117 372.588 60.6551 373.844 59.7315C375.138 58.7709 376.098 57.5886 376.726 56.1846C377.354 54.7806 377.668 53.3951 377.668 52.0281C377.668 49.9961 377.281 48.3704 376.505 47.1512C375.766 45.932 374.75 45.0637 373.457 44.5465C372.2 43.9923 370.778 43.7152 369.189 43.7152H365.753V57.958C365.753 59.2512 365.956 60.1009 366.363 60.5073C366.769 60.9138 367.656 61.117 369.023 61.117ZM392.967 63.5V62.2254C394.039 62.1515 394.815 61.8744 395.295 61.3941C395.775 60.9138 396.015 59.7684 396.015 57.958V32.1879C396.015 30.3775 395.738 29.2322 395.184 28.7519C394.667 28.2346 393.651 27.9575 392.136 27.9206V26.6459H396.015C398.712 26.6459 401.243 26.609 403.608 26.5351C405.972 26.4242 407.746 26.3688 408.928 26.3688C412.771 26.3688 415.8 26.7937 418.017 27.6435C420.271 28.4932 421.878 29.6201 422.839 31.0241C423.836 32.3911 424.335 33.9059 424.335 35.5685C424.335 37.4897 423.707 39.3185 422.451 41.055C421.231 42.7915 419.273 44.1401 416.576 45.1007C413.916 46.0243 410.388 46.3199 405.991 45.9874V44.0477C407.986 44.1216 409.63 43.7706 410.923 42.9947C412.216 42.1819 413.159 41.1104 413.75 39.7804C414.378 38.4503 414.692 37.0279 414.692 35.5131C414.692 33.481 414.119 31.8554 412.974 30.6361C411.828 29.3799 410.24 28.7519 408.208 28.7519C406.988 28.7519 406.12 28.9735 405.603 29.4169C405.123 29.8233 404.883 30.747 404.883 32.1879V57.958C404.883 59.1403 404.993 60.0455 405.215 60.6736C405.474 61.2647 405.917 61.6712 406.545 61.8928C407.21 62.0776 408.134 62.1884 409.316 62.2254V63.5H392.967ZM430.185 64.3313C429.261 64.3313 428.282 64.2574 427.247 64.1096C426.213 63.9618 425.326 63.7586 424.587 63.5V62.2254C425.326 62.2254 426.157 61.9298 427.081 61.3386C428.005 60.7475 428.947 59.5652 429.908 57.7918L437.833 43.4381C435.357 42.81 433.473 41.794 432.18 40.39C430.924 38.986 430.295 37.2865 430.295 35.2914C430.295 33.7396 430.757 32.2802 431.681 30.9132C432.642 29.5462 434.193 28.4563 436.336 27.6435C438.516 26.7937 441.435 26.3688 445.093 26.3688C446.275 26.3688 447.642 26.4242 449.194 26.5351C450.745 26.609 452.463 26.6459 454.348 26.6459H461.441V27.9206C460.37 27.9575 459.594 28.2346 459.114 28.7519C458.633 29.2322 458.393 30.3775 458.393 32.1879V57.958C458.393 59.7684 458.67 60.9138 459.225 61.3941C459.779 61.8744 460.795 62.1515 462.273 62.2254V63.5H446.478V62.2254C447.549 62.1515 448.325 61.8744 448.806 61.3941C449.286 60.9138 449.526 59.7684 449.526 57.958V32.1879C449.526 30.747 449.268 29.8233 448.75 29.4169C448.27 28.9735 447.42 28.7519 446.201 28.7519C444.612 28.7519 443.171 29.3245 441.878 30.4699C440.622 31.5783 439.994 33.2593 439.994 35.5131C439.994 36.6953 440.234 37.8407 440.714 38.9491C441.195 40.0205 442.044 40.9257 443.264 41.6646C444.52 42.4036 446.238 42.8469 448.418 42.9947V44.9344C447.974 44.9344 447.586 45.0268 447.254 45.2115C446.921 45.3593 446.589 45.7472 446.256 46.3753L439.994 58.4568C439.144 60.0825 437.962 61.468 436.447 62.6133C434.932 63.7586 432.845 64.3313 430.185 64.3313ZM506.306 53.2474H507.58L507.026 63.5H480.314V62.2254C480.609 62.0776 481.053 61.8189 481.644 61.4495C482.272 61.08 482.919 60.6551 483.584 60.1748C485.431 58.8448 487.167 57.3299 488.793 55.6304C490.419 53.9309 491.841 52.1205 493.06 50.1993C494.28 48.2781 495.24 46.3568 495.942 44.4356C496.644 42.5144 496.995 40.6856 496.995 38.9491C496.995 37.2865 496.589 35.8825 495.776 34.7372C495 33.5918 493.578 33.0192 491.509 33.0192C489.772 33.0192 488.165 33.4995 486.687 34.4601C485.209 35.4207 483.75 36.917 482.309 38.9491L481.256 38.0624C482.771 34.2199 484.674 31.3566 486.964 29.4723C489.255 27.588 492.118 26.6459 495.554 26.6459C497.549 26.6459 499.341 26.9784 500.93 27.6435C502.519 28.2716 503.775 29.2691 504.699 30.6361C505.659 31.9662 506.14 33.7027 506.14 35.8456C506.14 39.6511 504.92 43.2164 502.482 46.5416C500.08 49.8668 496.718 52.9887 492.395 55.9075V56.0183H500.487C502.593 56.0183 504.052 55.7597 504.865 55.2425C505.678 54.7252 506.158 54.0602 506.306 53.2474ZM529.893 26.6459C531.815 26.6459 533.699 27.0154 535.546 27.7543C537.393 28.4932 539.056 29.6386 540.534 31.1903C542.012 32.7421 543.176 34.7002 544.025 37.0648C544.912 39.3924 545.355 42.1634 545.355 45.3778C545.355 48.5552 544.931 51.3261 544.081 53.6907C543.231 56.0553 542.067 58.0319 540.589 59.6206C539.111 61.2093 537.449 62.3916 535.602 63.1675C533.754 63.9434 531.833 64.3313 529.838 64.3313C527.917 64.3313 526.032 63.9618 524.185 63.2229C522.338 62.484 520.675 61.3386 519.197 59.7869C517.719 58.2351 516.537 56.2954 515.65 53.9678C514.801 51.6032 514.376 48.8138 514.376 45.5994C514.376 42.422 514.801 39.6511 515.65 37.2865C516.5 34.9219 517.664 32.9453 519.142 31.3566C520.62 29.7679 522.282 28.5856 524.13 27.8097C525.977 27.0338 527.898 26.6459 529.893 26.6459ZM530.06 61.9483C531.131 61.9483 532.11 61.468 532.997 60.5073C533.884 59.5467 534.586 57.9211 535.103 55.6304C535.657 53.3397 535.934 50.1993 535.934 46.2091C535.934 42.7361 535.694 39.725 535.214 37.1756C534.77 34.5894 534.087 32.5943 533.163 31.1903C532.239 29.7494 531.076 29.029 529.672 29.029C528.637 29.029 527.658 29.5093 526.734 30.4699C525.848 31.4305 525.127 33.0561 524.573 35.3468C524.056 37.6375 523.797 40.7779 523.797 44.7681C523.797 48.2411 524.019 51.2707 524.462 53.857C524.943 56.4063 525.645 58.4014 526.568 59.8423C527.492 61.2463 528.656 61.9483 530.06 61.9483ZM575.959 53.2474H577.234L576.68 63.5H549.967V62.2254C550.263 62.0776 550.706 61.8189 551.297 61.4495C551.926 61.08 552.572 60.6551 553.237 60.1748C555.084 58.8448 556.821 57.3299 558.447 55.6304C560.072 53.9309 561.495 52.1205 562.714 50.1993C563.933 48.2781 564.894 46.3568 565.596 44.4356C566.298 42.5144 566.649 40.6856 566.649 38.9491C566.649 37.2865 566.242 35.8825 565.43 34.7372C564.654 33.5918 563.231 33.0192 561.162 33.0192C559.426 33.0192 557.819 33.4995 556.341 34.4601C554.863 35.4207 553.403 36.917 551.963 38.9491L550.91 38.0624C552.424 34.2199 554.327 31.3566 556.618 29.4723C558.908 27.588 561.772 26.6459 565.208 26.6459C567.203 26.6459 568.995 26.9784 570.584 27.6435C572.172 28.2716 573.428 29.2691 574.352 30.6361C575.313 31.9662 575.793 33.7027 575.793 35.8456C575.793 39.6511 574.574 43.2164 572.135 46.5416C569.734 49.8668 566.372 52.9887 562.049 55.9075V56.0183H570.14C572.246 56.0183 573.706 55.7597 574.518 55.2425C575.331 54.7252 575.811 54.0602 575.959 53.2474ZM606.751 49.368H610.631V56.2954H608.303C607.269 56.2954 606.751 56.942 606.751 58.2351C606.751 59.1219 606.751 59.9901 606.751 60.8399C606.788 61.6527 606.825 62.5394 606.862 63.5H598.106C598.18 62.2808 598.235 61.0985 598.272 59.9531C598.309 58.7709 598.346 57.5516 598.383 56.2954H580.87V55.0208C581.831 54.0971 582.699 53.1365 583.475 52.139L601.597 29.4723C602.004 28.9551 602.373 28.4563 602.706 27.976C603.075 27.4587 603.371 27.0154 603.592 26.6459H606.807L606.751 49.368ZM598.272 37.7853L589.017 49.368H598.438V37.7853H598.272ZM656.098 26.6459V36.8986H654.824C654.639 35.2729 654.306 33.8874 653.826 32.7421C653.383 31.5598 652.681 30.6546 651.72 30.0265C650.796 29.3615 649.503 29.029 647.841 29.029H645.236C644.46 29.029 643.851 29.2322 643.407 29.6386C643.001 30.045 642.798 30.8948 642.798 32.1879V57.958C642.798 59.7684 643.075 60.9138 643.629 61.3941C644.183 61.8744 645.199 62.1515 646.677 62.2254V63.5H630.882V62.2254C631.954 62.1515 632.73 61.8744 633.21 61.3941C633.69 60.9138 633.93 59.7684 633.93 57.958V32.1879C633.93 30.3775 633.653 29.2322 633.099 28.7519C632.582 28.2346 631.566 27.9575 630.051 27.9206V26.6459H656.098ZM678.301 25.8146C680.924 25.8146 683.362 26.258 685.616 27.1447C687.87 28.0314 689.865 29.3245 691.601 31.0241C693.338 32.6867 694.687 34.7002 695.647 37.0648C696.608 39.4294 697.088 42.0711 697.088 44.9898C697.088 47.9086 696.608 50.5503 695.647 52.9148C694.687 55.2794 693.338 57.3115 691.601 59.011C689.902 60.7105 687.907 62.0221 685.616 62.9458C683.325 63.8695 680.869 64.3313 678.245 64.3313C675.659 64.3313 673.221 63.8879 670.93 63.0012C668.676 62.1145 666.681 60.8399 664.945 59.1773C663.208 57.4777 661.86 55.4457 660.899 53.0811C659.938 50.7165 659.458 48.0749 659.458 45.1561C659.458 42.2373 659.938 39.5956 660.899 37.2311C661.86 34.8665 663.19 32.8344 664.889 31.1349C666.626 29.4354 668.639 28.1238 670.93 27.2001C673.221 26.2764 675.678 25.8146 678.301 25.8146ZM679.409 61.9483C681.33 61.9483 682.845 61.3202 683.954 60.064C685.062 58.7709 685.856 56.9974 686.337 54.7437C686.854 52.49 687.112 49.8668 687.112 46.8741C687.112 40.8518 686.189 36.2335 684.342 33.0192C682.531 29.8048 680.13 28.1977 677.137 28.1977C675.253 28.1977 673.738 28.8257 672.593 30.0819C671.484 31.3381 670.671 33.1115 670.154 35.4022C669.674 37.656 669.434 40.2792 669.434 43.2718C669.434 49.2941 670.339 53.9124 672.149 57.1267C673.997 60.3411 676.416 61.9483 679.409 61.9483ZM721.121 31.0241L730.32 57.958C730.653 58.9186 731.133 59.8054 731.761 60.6182C732.426 61.3941 733.442 61.9298 734.809 62.2254L732.26 74.861H730.985C730.912 72.5704 730.579 70.5753 729.988 68.8757C729.397 67.1762 728.658 65.8461 727.771 64.8855C726.884 63.9618 725.924 63.5 724.889 63.5H710.037C708.67 63.5 707.321 63.9618 705.991 64.8855C704.698 65.8461 703.59 67.1762 702.666 68.8757C701.779 70.5753 701.207 72.5704 700.948 74.861H699.673V62.2254C700.338 61.9298 700.985 61.431 701.613 60.729C702.241 59.9901 702.814 59.1588 703.331 58.2351C703.885 57.3115 704.31 56.4432 704.606 55.6304L714.027 31.0241C714.396 30.0635 714.747 29.1213 715.08 28.1977C715.412 27.274 715.708 26.3319 715.967 25.3713H719.181C719.44 26.3319 719.735 27.274 720.068 28.1977C720.437 29.1213 720.788 30.0635 721.121 31.0241ZM718.793 61.117C720.271 61.117 721.084 60.8768 721.232 60.3965C721.379 59.9162 721.25 59.1034 720.844 57.958L714.36 38.0069H714.249L705.603 61.117H718.793ZM768.724 57.958C769.242 59.2142 769.667 60.1379 769.999 60.729C770.369 61.3202 770.757 61.7081 771.163 61.8928C771.569 62.0406 772.068 62.1515 772.659 62.2254V63.5H757.197V62.2254C758.675 62.1515 759.488 61.7081 759.636 60.8953C759.82 60.0825 759.691 59.1034 759.248 57.958L756.477 50.7535C756.255 50.9382 755.959 51.0675 755.59 51.1414C755.258 51.1784 754.888 51.1968 754.482 51.1968H748.219C747.443 51.1968 746.852 51.2892 746.446 51.4739C746.039 51.6587 745.688 52.1205 745.393 52.8594L743.398 57.958C742.917 59.1773 742.954 60.1748 743.509 60.9507C744.063 61.7266 745.153 62.1515 746.778 62.2254V63.5H736.692V62.2254C737.505 62.1515 738.188 61.745 738.742 61.0061C739.334 60.2302 739.869 59.2142 740.35 57.958L750.99 31.0241C751.397 30.0635 751.748 29.1213 752.043 28.1977C752.376 27.274 752.671 26.3319 752.93 25.3713H756.144C756.403 26.3319 756.698 27.274 757.031 28.1977C757.363 29.1213 757.714 30.0635 758.084 31.0241L768.724 57.958ZM754.205 48.8138C754.722 48.8138 755.054 48.7399 755.202 48.5921C755.387 48.4074 755.368 48.0379 755.147 47.4837L751.323 38.0069H751.212L746.889 49.0355C747.074 48.9246 747.296 48.8692 747.554 48.8692C747.813 48.8323 748.108 48.8138 748.441 48.8138H754.205Z" fill="black"/>
<path d="M828.846 38.6819C823.321 36.4759 816.839 37.6524 812.42 42.0646C806.454 48.021 806.454 57.6541 812.42 63.6105C816.839 68.0227 823.321 69.1993 828.846 66.9932V59.9338C827.741 60.4485 826.562 60.7427 825.31 60.7427C820.891 60.7427 817.355 57.2129 817.355 52.8008C817.355 48.3886 820.891 44.8589 825.31 44.8589C826.562 44.8589 827.814 45.1531 828.846 45.6678V38.6819Z" fill="black"/>
<path d="M826.345 31.6075C828.521 29.426 828.521 25.8153 826.345 23.5586C824.169 21.3772 820.568 21.3772 818.317 23.5586C816.065 25.7401 816.141 29.3508 818.317 31.6075C820.568 33.7889 824.169 33.7889 826.345 31.6075Z" fill="black"/>
<path d="M889.603 53.2474H890.878L890.323 63.5H863.611V62.2254C863.907 62.0776 864.35 61.8189 864.941 61.4495C865.569 61.08 866.216 60.6551 866.881 60.1748C868.728 58.8448 870.465 57.3299 872.09 55.6304C873.716 53.9309 875.138 52.1205 876.358 50.1993C877.577 48.2781 878.537 46.3568 879.239 44.4356C879.941 42.5144 880.292 40.6856 880.292 38.9491C880.292 37.2865 879.886 35.8825 879.073 34.7372C878.297 33.5918 876.875 33.0192 874.806 33.0192C873.069 33.0192 871.462 33.4995 869.984 34.4601C868.506 35.4207 867.047 36.917 865.606 38.9491L864.553 38.0624C866.068 34.2199 867.971 31.3566 870.261 29.4723C872.552 27.588 875.415 26.6459 878.851 26.6459C880.847 26.6459 882.639 26.9784 884.227 27.6435C885.816 28.2716 887.072 29.2691 887.996 30.6361C888.956 31.9662 889.437 33.7027 889.437 35.8456C889.437 39.6511 888.217 43.2164 885.779 46.5416C883.377 49.8668 880.015 52.9887 875.693 55.9075V56.0183H883.784C885.89 56.0183 887.349 55.7597 888.162 55.2425C888.975 54.7252 889.455 54.0602 889.603 53.2474ZM913.19 26.6459C915.112 26.6459 916.996 27.0154 918.843 27.7543C920.691 28.4932 922.353 29.6386 923.831 31.1903C925.309 32.7421 926.473 34.7002 927.323 37.0648C928.209 39.3924 928.653 42.1634 928.653 45.3778C928.653 48.5552 928.228 51.3261 927.378 53.6907C926.528 56.0553 925.364 58.0319 923.886 59.6206C922.409 61.2093 920.746 62.3916 918.899 63.1675C917.051 63.9434 915.13 64.3313 913.135 64.3313C911.214 64.3313 909.33 63.9618 907.482 63.2229C905.635 62.484 903.972 61.3386 902.494 59.7869C901.017 58.2351 899.834 56.2954 898.948 53.9678C898.098 51.6032 897.673 48.8138 897.673 45.5994C897.673 42.422 898.098 39.6511 898.948 37.2865C899.797 34.9219 900.961 32.9453 902.439 31.3566C903.917 29.7679 905.58 28.5856 907.427 27.8097C909.274 27.0338 911.195 26.6459 913.19 26.6459ZM913.357 61.9483C914.428 61.9483 915.407 61.468 916.294 60.5073C917.181 59.5467 917.883 57.9211 918.4 55.6304C918.954 53.3397 919.231 50.1993 919.231 46.2091C919.231 42.7361 918.991 39.725 918.511 37.1756C918.067 34.5894 917.384 32.5943 916.46 31.1903C915.537 29.7494 914.373 29.029 912.969 29.029C911.934 29.029 910.955 29.5093 910.032 30.4699C909.145 31.4305 908.424 33.0561 907.87 35.3468C907.353 37.6375 907.094 40.7779 907.094 44.7681C907.094 48.2411 907.316 51.2707 907.759 53.857C908.24 56.4063 908.942 58.4014 909.865 59.8423C910.789 61.2463 911.953 61.9483 913.357 61.9483ZM966.269 46.7633L949.089 48.2596L948.701 43.7706L965.881 42.2743L966.269 46.7633ZM1009.16 53.2474H1010.43L1009.88 63.5H983.164V62.2254C983.459 62.0776 983.903 61.8189 984.494 61.4495C985.122 61.08 985.769 60.6551 986.434 60.1748C988.281 58.8448 990.017 57.3299 991.643 55.6304C993.269 53.9309 994.691 52.1205 995.91 50.1993C997.13 48.2781 998.09 46.3568 998.792 44.4356C999.494 42.5144 999.845 40.6856 999.845 38.9491C999.845 37.2865 999.439 35.8825 998.626 34.7372C997.85 33.5918 996.428 33.0192 994.359 33.0192C992.622 33.0192 991.015 33.4995 989.537 34.4601C988.059 35.4207 986.6 36.917 985.159 38.9491L984.106 38.0624C985.621 34.2199 987.524 31.3566 989.814 29.4723C992.105 27.588 994.968 26.6459 998.404 26.6459C1000.4 26.6459 1002.19 26.9784 1003.78 27.6435C1005.37 28.2716 1006.62 29.2691 1007.55 30.6361C1008.51 31.9662 1008.99 33.7027 1008.99 35.8456C1008.99 39.6511 1007.77 43.2164 1005.33 46.5416C1002.93 49.8668 999.568 52.9887 995.245 55.9075V56.0183H1003.34C1005.44 56.0183 1006.9 55.7597 1007.71 55.2425C1008.53 54.7252 1009.01 54.0602 1009.16 53.2474ZM1031.8 57.4038C1031.8 58.7709 1031.91 59.8054 1032.13 60.5073C1032.39 61.1724 1032.91 61.6157 1033.69 61.8374C1034.5 62.0591 1035.72 62.1884 1037.34 62.2254V63.5H1016.84V62.2254C1018.5 62.1884 1019.72 62.0591 1020.5 61.8374C1021.31 61.6157 1021.83 61.1724 1022.05 60.5073C1022.27 59.8054 1022.38 58.7709 1022.38 57.4038V33.2963L1017.28 36.4552L1016.12 34.6818L1028.97 26.6459H1032.19C1032.04 27.3479 1031.93 28.0499 1031.86 28.7519C1031.82 29.4538 1031.8 30.1558 1031.8 30.8578V57.4038ZM1057.15 63.5V62.2254C1058.22 62.1515 1059 61.8744 1059.48 61.3941C1059.96 60.9138 1060.2 59.7684 1060.2 57.958V32.1879C1060.2 30.3775 1059.92 29.2322 1059.37 28.7519C1058.85 28.2346 1057.83 27.9575 1056.32 27.9206V26.6459H1072.11V27.9206C1071.04 27.9575 1070.27 28.2346 1069.79 28.7519C1069.31 29.2322 1069.07 30.3775 1069.07 32.1879V41.9972C1069.36 41.7755 1069.71 41.6277 1070.12 41.5538C1070.56 41.4799 1071.08 41.443 1071.67 41.443H1082.15C1083.14 41.443 1083.85 41.2767 1084.25 40.9442C1084.66 40.6117 1084.86 39.9466 1084.86 38.9491V32.1879C1084.86 30.3775 1084.58 29.2322 1084.03 28.7519C1083.51 28.2346 1082.5 27.9575 1080.98 27.9206V26.6459H1096.78V27.9206C1095.71 27.9575 1094.93 28.2346 1094.45 28.7519C1093.97 29.2322 1093.73 30.3775 1093.73 32.1879V57.958C1093.73 59.7684 1094.01 60.9138 1094.56 61.3941C1095.11 61.8744 1096.13 62.1515 1097.61 62.2254V63.5H1081.81V62.2254C1082.88 62.1515 1083.66 61.8744 1084.14 61.3941C1084.62 60.9138 1084.86 59.7684 1084.86 57.958V43.2164C1084.57 43.475 1084.2 43.6413 1083.75 43.7152C1083.31 43.7891 1082.81 43.826 1082.26 43.826H1071.78C1070.78 43.826 1070.08 43.9923 1069.68 44.3248C1069.27 44.6573 1069.07 45.3039 1069.07 46.2645V57.958C1069.07 59.7684 1069.34 60.9138 1069.9 61.3941C1070.45 61.8744 1071.47 62.1515 1072.95 62.2254V63.5H1057.15ZM1122.05 25.8146C1124.67 25.8146 1127.11 26.258 1129.37 27.1447C1131.62 28.0314 1133.62 29.3245 1135.35 31.0241C1137.09 32.6867 1138.44 34.7002 1139.4 37.0648C1140.36 39.4294 1140.84 42.0711 1140.84 44.9898C1140.84 47.9086 1140.36 50.5503 1139.4 52.9148C1138.44 55.2794 1137.09 57.3115 1135.35 59.011C1133.65 60.7105 1131.66 62.0221 1129.37 62.9458C1127.08 63.8695 1124.62 64.3313 1122 64.3313C1119.41 64.3313 1116.97 63.8879 1114.68 63.0012C1112.43 62.1145 1110.43 60.8399 1108.69 59.1773C1106.96 57.4777 1105.61 55.4457 1104.65 53.0811C1103.69 50.7165 1103.21 48.0749 1103.21 45.1561C1103.21 42.2373 1103.69 39.5956 1104.65 37.2311C1105.61 34.8665 1106.94 32.8344 1108.64 31.1349C1110.38 29.4354 1112.39 28.1238 1114.68 27.2001C1116.97 26.2764 1119.43 25.8146 1122.05 25.8146ZM1123.16 61.9483C1125.08 61.9483 1126.6 61.3202 1127.7 60.064C1128.81 58.7709 1129.61 56.9974 1130.09 54.7437C1130.6 52.49 1130.86 49.8668 1130.86 46.8741C1130.86 40.8518 1129.94 36.2335 1128.09 33.0192C1126.28 29.8048 1123.88 28.1977 1120.89 28.1977C1119 28.1977 1117.49 28.8257 1116.34 30.0819C1115.23 31.3381 1114.42 33.1115 1113.9 35.4022C1113.42 37.656 1113.18 40.2792 1113.18 43.2718C1113.18 49.2941 1114.09 53.9124 1115.9 57.1267C1117.75 60.3411 1120.17 61.9483 1123.16 61.9483ZM1147.14 64.3313C1146.21 64.3313 1145.23 64.2574 1144.2 64.1096C1143.16 63.9618 1142.28 63.7586 1141.54 63.5V62.2254C1142.28 62.2254 1143.11 61.9298 1144.03 61.3386C1144.96 60.7475 1145.9 59.5652 1146.86 57.7918L1154.78 43.4381C1152.31 42.81 1150.42 41.794 1149.13 40.39C1147.88 38.986 1147.25 37.2865 1147.25 35.2914C1147.25 33.7396 1147.71 32.2802 1148.63 30.9132C1149.59 29.5462 1151.15 28.4563 1153.29 27.6435C1155.47 26.7937 1158.39 26.3688 1162.04 26.3688C1163.23 26.3688 1164.59 26.4242 1166.15 26.5351C1167.7 26.609 1169.42 26.6459 1171.3 26.6459H1178.39V27.9206C1177.32 27.9575 1176.55 28.2346 1176.07 28.7519C1175.59 29.2322 1175.35 30.3775 1175.35 32.1879V57.958C1175.35 59.7684 1175.62 60.9138 1176.18 61.3941C1176.73 61.8744 1177.75 62.1515 1179.22 62.2254V63.5H1163.43V62.2254C1164.5 62.1515 1165.28 61.8744 1165.76 61.3941C1166.24 60.9138 1166.48 59.7684 1166.48 57.958V32.1879C1166.48 30.747 1166.22 29.8233 1165.7 29.4169C1165.22 28.9735 1164.37 28.7519 1163.15 28.7519C1161.56 28.7519 1160.12 29.3245 1158.83 30.4699C1157.57 31.5783 1156.95 33.2593 1156.95 35.5131C1156.95 36.6953 1157.19 37.8407 1157.67 38.9491C1158.15 40.0205 1159 40.9257 1160.22 41.6646C1161.47 42.4036 1163.19 42.8469 1165.37 42.9947V44.9344C1164.93 44.9344 1164.54 45.0268 1164.21 45.2115C1163.87 45.3593 1163.54 45.7472 1163.21 46.3753L1156.95 58.4568C1156.1 60.0825 1154.91 61.468 1153.4 62.6133C1151.88 63.7586 1149.8 64.3313 1147.14 64.3313ZM1196.74 41.3321H1202.11C1206.14 41.3321 1209.32 41.7755 1211.65 42.6622C1213.97 43.5489 1215.62 44.7681 1216.58 46.3199C1217.58 47.8717 1218.07 49.6636 1218.07 51.6956C1218.07 53.7277 1217.52 55.6489 1216.41 57.4593C1215.34 59.2327 1213.66 60.6921 1211.37 61.8374C1209.11 62.9458 1206.23 63.5 1202.72 63.5H1184.82V62.2254C1185.89 62.1515 1186.67 61.8744 1187.15 61.3941C1187.63 60.9138 1187.87 59.7684 1187.87 57.958V32.1879C1187.87 30.3775 1187.59 29.2322 1187.04 28.7519C1186.52 28.2346 1185.51 27.9575 1183.99 27.9206V26.6459H1214.47V35.7902H1213.2C1213.09 34.534 1212.85 33.4071 1212.48 32.4096C1212.11 31.3751 1211.48 30.5622 1210.59 29.9711C1209.71 29.343 1208.43 29.029 1206.77 29.029H1199.18C1198.4 29.029 1197.79 29.2322 1197.35 29.6386C1196.94 30.045 1196.74 30.8948 1196.74 32.1879V41.3321ZM1200.01 61.117C1201.97 61.117 1203.57 60.6551 1204.83 59.7315C1206.12 58.7709 1207.08 57.5886 1207.71 56.1846C1208.34 54.7806 1208.65 53.3951 1208.65 52.0281C1208.65 49.9961 1208.26 48.3704 1207.49 47.1512C1206.75 45.932 1205.73 45.0637 1204.44 44.5465C1203.18 43.9923 1201.76 43.7152 1200.17 43.7152H1196.74V57.958C1196.74 59.2512 1196.94 60.1009 1197.35 60.5073C1197.75 60.9138 1198.64 61.117 1200.01 61.117ZM1223.95 63.5V62.2254C1225.02 62.1515 1225.8 61.8744 1226.28 61.3941C1226.76 60.9138 1227 59.7684 1227 57.958V32.1879C1227 30.3775 1226.72 29.2322 1226.17 28.7519C1225.65 28.2346 1224.64 27.9575 1223.12 27.9206V26.6459H1227C1229.7 26.6459 1232.23 26.609 1234.59 26.5351C1236.96 26.4242 1238.73 26.3688 1239.91 26.3688C1243.75 26.3688 1246.78 26.7937 1249 27.6435C1251.26 28.4932 1252.86 29.6201 1253.82 31.0241C1254.82 32.3911 1255.32 33.9059 1255.32 35.5685C1255.32 37.4897 1254.69 39.3185 1253.43 41.055C1252.22 42.7915 1250.26 44.1401 1247.56 45.1007C1244.9 46.0243 1241.37 46.3199 1236.98 45.9874V44.0477C1238.97 44.1216 1240.61 43.7706 1241.91 42.9947C1243.2 42.1819 1244.14 41.1104 1244.73 39.7804C1245.36 38.4503 1245.68 37.0279 1245.68 35.5131C1245.68 33.481 1245.1 31.8554 1243.96 30.6361C1242.81 29.3799 1241.22 28.7519 1239.19 28.7519C1237.97 28.7519 1237.1 28.9735 1236.59 29.4169C1236.11 29.8233 1235.87 30.747 1235.87 32.1879V57.958C1235.87 59.1403 1235.98 60.0455 1236.2 60.6736C1236.46 61.2647 1236.9 61.6712 1237.53 61.8928C1238.19 62.0776 1239.12 62.1884 1240.3 62.2254V63.5H1223.95ZM1261.17 64.3313C1260.25 64.3313 1259.27 64.2574 1258.23 64.1096C1257.2 63.9618 1256.31 63.7586 1255.57 63.5V62.2254C1256.31 62.2254 1257.14 61.9298 1258.07 61.3386C1258.99 60.7475 1259.93 59.5652 1260.89 57.7918L1268.82 43.4381C1266.34 42.81 1264.46 41.794 1263.16 40.39C1261.91 38.986 1261.28 37.2865 1261.28 35.2914C1261.28 33.7396 1261.74 32.2802 1262.67 30.9132C1263.63 29.5462 1265.18 28.4563 1267.32 27.6435C1269.5 26.7937 1272.42 26.3688 1276.08 26.3688C1277.26 26.3688 1278.63 26.4242 1280.18 26.5351C1281.73 26.609 1283.45 26.6459 1285.33 26.6459H1292.43V27.9206C1291.35 27.9575 1290.58 28.2346 1290.1 28.7519C1289.62 29.2322 1289.38 30.3775 1289.38 32.1879V57.958C1289.38 59.7684 1289.65 60.9138 1290.21 61.3941C1290.76 61.8744 1291.78 62.1515 1293.26 62.2254V63.5H1277.46V62.2254C1278.53 62.1515 1279.31 61.8744 1279.79 61.3941C1280.27 60.9138 1280.51 59.7684 1280.51 57.958V32.1879C1280.51 30.747 1280.25 29.8233 1279.73 29.4169C1279.25 28.9735 1278.4 28.7519 1277.19 28.7519C1275.6 28.7519 1274.16 29.3245 1272.86 30.4699C1271.61 31.5783 1270.98 33.2593 1270.98 35.5131C1270.98 36.6953 1271.22 37.8407 1271.7 38.9491C1272.18 40.0205 1273.03 40.9257 1274.25 41.6646C1275.5 42.4036 1277.22 42.8469 1279.4 42.9947V44.9344C1278.96 44.9344 1278.57 45.0268 1278.24 45.2115C1277.91 45.3593 1277.57 45.7472 1277.24 46.3753L1270.98 58.4568C1270.13 60.0825 1268.95 61.468 1267.43 62.6133C1265.92 63.7586 1263.83 64.3313 1261.17 64.3313ZM1337.29 53.2474H1338.56L1338.01 63.5H1311.3V62.2254C1311.59 62.0776 1312.04 61.8189 1312.63 61.4495C1313.26 61.08 1313.9 60.6551 1314.57 60.1748C1316.42 58.8448 1318.15 57.3299 1319.78 55.6304C1321.4 53.9309 1322.83 52.1205 1324.04 50.1993C1325.26 48.2781 1326.22 46.3568 1326.93 44.4356C1327.63 42.5144 1327.98 40.6856 1327.98 38.9491C1327.98 37.2865 1327.57 35.8825 1326.76 34.7372C1325.98 33.5918 1324.56 33.0192 1322.49 33.0192C1320.76 33.0192 1319.15 33.4995 1317.67 34.4601C1316.19 35.4207 1314.73 36.917 1313.29 38.9491L1312.24 38.0624C1313.76 34.2199 1315.66 31.3566 1317.95 29.4723C1320.24 27.588 1323.1 26.6459 1326.54 26.6459C1328.53 26.6459 1330.33 26.9784 1331.91 27.6435C1333.5 28.2716 1334.76 29.2691 1335.68 30.6361C1336.64 31.9662 1337.12 33.7027 1337.12 35.8456C1337.12 39.6511 1335.9 43.2164 1333.47 46.5416C1331.06 49.8668 1327.7 52.9887 1323.38 55.9075V56.0183H1331.47C1333.58 56.0183 1335.04 55.7597 1335.85 55.2425C1336.66 54.7252 1337.14 54.0602 1337.29 53.2474ZM1360.88 26.6459C1362.8 26.6459 1364.68 27.0154 1366.53 27.7543C1368.38 28.4932 1370.04 29.6386 1371.52 31.1903C1373 32.7421 1374.16 34.7002 1375.01 37.0648C1375.9 39.3924 1376.34 42.1634 1376.34 45.3778C1376.34 48.5552 1375.91 51.3261 1375.07 53.6907C1374.22 56.0553 1373.05 58.0319 1371.57 59.6206C1370.1 61.2093 1368.43 62.3916 1366.59 63.1675C1364.74 63.9434 1362.82 64.3313 1360.82 64.3313C1358.9 64.3313 1357.02 63.9618 1355.17 63.2229C1353.32 62.484 1351.66 61.3386 1350.18 59.7869C1348.7 58.2351 1347.52 56.2954 1346.63 53.9678C1345.79 51.6032 1345.36 48.8138 1345.36 45.5994C1345.36 42.422 1345.79 39.6511 1346.63 37.2865C1347.48 34.9219 1348.65 32.9453 1350.13 31.3566C1351.6 29.7679 1353.27 28.5856 1355.11 27.8097C1356.96 27.0338 1358.88 26.6459 1360.88 26.6459ZM1361.04 61.9483C1362.12 61.9483 1363.09 61.468 1363.98 60.5073C1364.87 59.5467 1365.57 57.9211 1366.09 55.6304C1366.64 53.3397 1366.92 50.1993 1366.92 46.2091C1366.92 42.7361 1366.68 39.725 1366.2 37.1756C1365.75 34.5894 1365.07 32.5943 1364.15 31.1903C1363.22 29.7494 1362.06 29.029 1360.66 29.029C1359.62 29.029 1358.64 29.5093 1357.72 30.4699C1356.83 31.4305 1356.11 33.0561 1355.56 35.3468C1355.04 37.6375 1354.78 40.7779 1354.78 44.7681C1354.78 48.2411 1355 51.2707 1355.45 53.857C1355.93 56.4063 1356.63 58.4014 1357.55 59.8423C1358.48 61.2463 1359.64 61.9483 1361.04 61.9483ZM1406.94 53.2474H1408.22L1407.66 63.5H1380.95V62.2254C1381.25 62.0776 1381.69 61.8189 1382.28 61.4495C1382.91 61.08 1383.56 60.6551 1384.22 60.1748C1386.07 58.8448 1387.81 57.3299 1389.43 55.6304C1391.06 53.9309 1392.48 52.1205 1393.7 50.1993C1394.92 48.2781 1395.88 46.3568 1396.58 44.4356C1397.28 42.5144 1397.63 40.6856 1397.63 38.9491C1397.63 37.2865 1397.23 35.8825 1396.41 34.7372C1395.64 33.5918 1394.22 33.0192 1392.15 33.0192C1390.41 33.0192 1388.8 33.4995 1387.33 34.4601C1385.85 35.4207 1384.39 36.917 1382.95 38.9491L1381.89 38.0624C1383.41 34.2199 1385.31 31.3566 1387.6 29.4723C1389.89 27.588 1392.76 26.6459 1396.19 26.6459C1398.19 26.6459 1399.98 26.9784 1401.57 27.6435C1403.16 28.2716 1404.41 29.2691 1405.34 30.6361C1406.3 31.9662 1406.78 33.7027 1406.78 35.8456C1406.78 39.6511 1405.56 43.2164 1403.12 46.5416C1400.72 49.8668 1397.36 52.9887 1393.03 55.9075V56.0183H1401.12C1403.23 56.0183 1404.69 55.7597 1405.5 55.2425C1406.32 54.7252 1406.8 54.0602 1406.94 53.2474ZM1437.74 49.368H1441.62V56.2954H1439.29C1438.25 56.2954 1437.74 56.942 1437.74 58.2351C1437.74 59.1219 1437.74 59.9901 1437.74 60.8399C1437.77 61.6527 1437.81 62.5394 1437.85 63.5H1429.09C1429.16 62.2808 1429.22 61.0985 1429.26 59.9531C1429.29 58.7709 1429.33 57.5516 1429.37 56.2954H1411.85V55.0208C1412.82 54.0971 1413.68 53.1365 1414.46 52.139L1432.58 29.4723C1432.99 28.9551 1433.36 28.4563 1433.69 27.976C1434.06 27.4587 1434.36 27.0154 1434.58 26.6459H1437.79L1437.74 49.368ZM1429.26 37.7853L1420 49.368H1429.42V37.7853H1429.26ZM1487.08 26.6459V36.8986H1485.81C1485.62 35.2729 1485.29 33.8874 1484.81 32.7421C1484.37 31.5598 1483.67 30.6546 1482.7 30.0265C1481.78 29.3615 1480.49 29.029 1478.83 29.029H1476.22C1475.44 29.029 1474.83 29.2322 1474.39 29.6386C1473.99 30.045 1473.78 30.8948 1473.78 32.1879V57.958C1473.78 59.7684 1474.06 60.9138 1474.61 61.3941C1475.17 61.8744 1476.18 62.1515 1477.66 62.2254V63.5H1461.87V62.2254C1462.94 62.1515 1463.71 61.8744 1464.19 61.3941C1464.67 60.9138 1464.91 59.7684 1464.91 57.958V32.1879C1464.91 30.3775 1464.64 29.2322 1464.08 28.7519C1463.57 28.2346 1462.55 27.9575 1461.04 27.9206V26.6459H1487.08ZM1509.29 25.8146C1511.91 25.8146 1514.35 26.258 1516.6 27.1447C1518.85 28.0314 1520.85 29.3245 1522.59 31.0241C1524.32 32.6867 1525.67 34.7002 1526.63 37.0648C1527.59 39.4294 1528.07 42.0711 1528.07 44.9898C1528.07 47.9086 1527.59 50.5503 1526.63 52.9148C1525.67 55.2794 1524.32 57.3115 1522.59 59.011C1520.89 60.7105 1518.89 62.0221 1516.6 62.9458C1514.31 63.8695 1511.85 64.3313 1509.23 64.3313C1506.64 64.3313 1504.21 63.8879 1501.91 63.0012C1499.66 62.1145 1497.67 60.8399 1495.93 59.1773C1494.19 57.4777 1492.84 55.4457 1491.88 53.0811C1490.92 50.7165 1490.44 48.0749 1490.44 45.1561C1490.44 42.2373 1490.92 39.5956 1491.88 37.2311C1492.84 34.8665 1494.17 32.8344 1495.87 31.1349C1497.61 29.4354 1499.62 28.1238 1501.91 27.2001C1504.21 26.2764 1506.66 25.8146 1509.29 25.8146ZM1510.39 61.9483C1512.31 61.9483 1513.83 61.3202 1514.94 60.064C1516.05 58.7709 1516.84 56.9974 1517.32 54.7437C1517.84 52.49 1518.1 49.8668 1518.1 46.8741C1518.1 40.8518 1517.17 36.2335 1515.33 33.0192C1513.52 29.8048 1511.11 28.1977 1508.12 28.1977C1506.24 28.1977 1504.72 28.8257 1503.58 30.0819C1502.47 31.3381 1501.66 33.1115 1501.14 35.4022C1500.66 37.656 1500.42 40.2792 1500.42 43.2718C1500.42 49.2941 1501.32 53.9124 1503.13 57.1267C1504.98 60.3411 1507.4 61.9483 1510.39 61.9483ZM1552.11 31.0241L1561.3 57.958C1561.64 58.9186 1562.12 59.8054 1562.75 60.6182C1563.41 61.3941 1564.43 61.9298 1565.79 62.2254L1563.24 74.861H1561.97C1561.9 72.5704 1561.56 70.5753 1560.97 68.8757C1560.38 67.1762 1559.64 65.8461 1558.76 64.8855C1557.87 63.9618 1556.91 63.5 1555.87 63.5H1541.02C1539.65 63.5 1538.31 63.9618 1536.98 64.8855C1535.68 65.8461 1534.57 67.1762 1533.65 68.8757C1532.76 70.5753 1532.19 72.5704 1531.93 74.861H1530.66V62.2254C1531.32 61.9298 1531.97 61.431 1532.6 60.729C1533.23 59.9901 1533.8 59.1588 1534.32 58.2351C1534.87 57.3115 1535.29 56.4432 1535.59 55.6304L1545.01 31.0241C1545.38 30.0635 1545.73 29.1213 1546.06 28.1977C1546.4 27.274 1546.69 26.3319 1546.95 25.3713H1550.17C1550.42 26.3319 1550.72 27.274 1551.05 28.1977C1551.42 29.1213 1551.77 30.0635 1552.11 31.0241ZM1549.78 61.117C1551.26 61.117 1552.07 60.8768 1552.22 60.3965C1552.36 59.9162 1552.23 59.1034 1551.83 57.958L1545.34 38.0069H1545.23L1536.59 61.117H1549.78ZM1599.71 57.958C1600.23 59.2142 1600.65 60.1379 1600.98 60.729C1601.35 61.3202 1601.74 61.7081 1602.15 61.8928C1602.55 62.0406 1603.05 62.1515 1603.64 62.2254V63.5H1588.18V62.2254C1589.66 62.1515 1590.47 61.7081 1590.62 60.8953C1590.8 60.0825 1590.68 59.1034 1590.23 57.958L1587.46 50.7535C1587.24 50.9382 1586.94 51.0675 1586.57 51.1414C1586.24 51.1784 1585.87 51.1968 1585.47 51.1968H1579.2C1578.43 51.1968 1577.84 51.2892 1577.43 51.4739C1577.02 51.6587 1576.67 52.1205 1576.38 52.8594L1574.38 57.958C1573.9 59.1773 1573.94 60.1748 1574.49 60.9507C1575.05 61.7266 1576.14 62.1515 1577.76 62.2254V63.5H1567.68V62.2254C1568.49 62.1515 1569.17 61.745 1569.73 61.0061C1570.32 60.2302 1570.85 59.2142 1571.33 57.958L1581.97 31.0241C1582.38 30.0635 1582.73 29.1213 1583.03 28.1977C1583.36 27.274 1583.66 26.3319 1583.91 25.3713H1587.13C1587.39 26.3319 1587.68 27.274 1588.02 28.1977C1588.35 29.1213 1588.7 30.0635 1589.07 31.0241L1599.71 57.958ZM1585.19 48.8138C1585.71 48.8138 1586.04 48.7399 1586.19 48.5921C1586.37 48.4074 1586.35 48.0379 1586.13 47.4837L1582.31 38.0069H1582.2L1577.87 49.0355C1578.06 48.9246 1578.28 48.8692 1578.54 48.8692C1578.8 48.8323 1579.09 48.8138 1579.43 48.8138H1585.19Z" fill="black"/>
<path d="M1659.84 38.6819C1654.31 36.4759 1647.83 37.6524 1643.41 42.0646C1637.45 48.021 1637.45 57.6541 1643.41 63.6105C1647.83 68.0227 1654.31 69.1993 1659.84 66.9932V59.9338C1658.73 60.4485 1657.55 60.7427 1656.3 60.7427C1651.88 60.7427 1648.35 57.2129 1648.35 52.8008C1648.35 48.3886 1651.88 44.8589 1656.3 44.8589C1657.55 44.8589 1658.81 45.1531 1659.84 45.6678V38.6819Z" fill="black"/>
<path d="M1657.34 31.6075C1659.51 29.426 1659.51 25.8153 1657.34 23.5586C1655.16 21.3772 1651.56 21.3772 1649.31 23.5586C1647.06 25.7401 1647.13 29.3508 1649.31 31.6075C1651.56 33.7889 1655.16 33.7889 1657.34 31.6075Z" fill="black"/>
<path d="M1720.59 53.2474H1721.86L1721.31 63.5H1694.6V62.2254C1694.89 62.0776 1695.33 61.8189 1695.93 61.4495C1696.55 61.08 1697.2 60.6551 1697.87 60.1748C1699.71 58.8448 1701.45 57.3299 1703.07 55.6304C1704.7 53.9309 1706.12 52.1205 1707.34 50.1993C1708.56 48.2781 1709.52 46.3568 1710.22 44.4356C1710.93 42.5144 1711.28 40.6856 1711.28 38.9491C1711.28 37.2865 1710.87 35.8825 1710.06 34.7372C1709.28 33.5918 1707.86 33.0192 1705.79 33.0192C1704.05 33.0192 1702.45 33.4995 1700.97 34.4601C1699.49 35.4207 1698.03 36.917 1696.59 38.9491L1695.54 38.0624C1697.05 34.2199 1698.96 31.3566 1701.25 29.4723C1703.54 27.588 1706.4 26.6459 1709.84 26.6459C1711.83 26.6459 1713.62 26.9784 1715.21 27.6435C1716.8 28.2716 1718.06 29.2691 1718.98 30.6361C1719.94 31.9662 1720.42 33.7027 1720.42 35.8456C1720.42 39.6511 1719.2 43.2164 1716.76 46.5416C1714.36 49.8668 1711 52.9887 1706.68 55.9075V56.0183H1714.77C1716.87 56.0183 1718.33 55.7597 1719.15 55.2425C1719.96 54.7252 1720.44 54.0602 1720.59 53.2474ZM1744.17 26.6459C1746.1 26.6459 1747.98 27.0154 1749.83 27.7543C1751.68 28.4932 1753.34 29.6386 1754.82 31.1903C1756.29 32.7421 1757.46 34.7002 1758.31 37.0648C1759.19 39.3924 1759.64 42.1634 1759.64 45.3778C1759.64 48.5552 1759.21 51.3261 1758.36 53.6907C1757.51 56.0553 1756.35 58.0319 1754.87 59.6206C1753.39 61.2093 1751.73 62.3916 1749.88 63.1675C1748.04 63.9434 1746.11 64.3313 1744.12 64.3313C1742.2 64.3313 1740.31 63.9618 1738.47 63.2229C1736.62 62.484 1734.96 61.3386 1733.48 59.7869C1732 58.2351 1730.82 56.2954 1729.93 53.9678C1729.08 51.6032 1728.66 48.8138 1728.66 45.5994C1728.66 42.422 1729.08 39.6511 1729.93 37.2865C1730.78 34.9219 1731.95 32.9453 1733.42 31.3566C1734.9 29.7679 1736.56 28.5856 1738.41 27.8097C1740.26 27.0338 1742.18 26.6459 1744.17 26.6459ZM1744.34 61.9483C1745.41 61.9483 1746.39 61.468 1747.28 60.5073C1748.17 59.5467 1748.87 57.9211 1749.38 55.6304C1749.94 53.3397 1750.22 50.1993 1750.22 46.2091C1750.22 42.7361 1749.98 39.725 1749.5 37.1756C1749.05 34.5894 1748.37 32.5943 1747.44 31.1903C1746.52 29.7494 1745.36 29.029 1743.95 29.029C1742.92 29.029 1741.94 29.5093 1741.02 30.4699C1740.13 31.4305 1739.41 33.0561 1738.85 35.3468C1738.34 37.6375 1738.08 40.7779 1738.08 44.7681C1738.08 48.2411 1738.3 51.2707 1738.74 53.857C1739.22 56.4063 1739.93 58.4014 1740.85 59.8423C1741.77 61.2463 1742.94 61.9483 1744.34 61.9483ZM1797.25 46.7633L1780.07 48.2596L1779.69 43.7706L1796.87 42.2743L1797.25 46.7633ZM1840.14 53.2474H1841.41L1840.86 63.5H1814.15V62.2254C1814.44 62.0776 1814.89 61.8189 1815.48 61.4495C1816.11 61.08 1816.75 60.6551 1817.42 60.1748C1819.27 58.8448 1821 57.3299 1822.63 55.6304C1824.25 53.9309 1825.68 52.1205 1826.89 50.1993C1828.11 48.2781 1829.07 46.3568 1829.78 44.4356C1830.48 42.5144 1830.83 40.6856 1830.83 38.9491C1830.83 37.2865 1830.42 35.8825 1829.61 34.7372C1828.83 33.5918 1827.41 33.0192 1825.34 33.0192C1823.61 33.0192 1822 33.4995 1820.52 34.4601C1819.04 35.4207 1817.58 36.917 1816.14 38.9491L1815.09 38.0624C1816.61 34.2199 1818.51 31.3566 1820.8 29.4723C1823.09 27.588 1825.95 26.6459 1829.39 26.6459C1831.38 26.6459 1833.18 26.9784 1834.76 27.6435C1836.35 28.2716 1837.61 29.2691 1838.53 30.6361C1839.49 31.9662 1839.97 33.7027 1839.97 35.8456C1839.97 39.6511 1838.75 43.2164 1836.32 46.5416C1833.91 49.8668 1830.55 52.9887 1826.23 55.9075V56.0183H1834.32C1836.43 56.0183 1837.89 55.7597 1838.7 55.2425C1839.51 54.7252 1839.99 54.0602 1840.14 53.2474ZM1862.79 57.4038C1862.79 58.7709 1862.9 59.8054 1863.12 60.5073C1863.38 61.1724 1863.89 61.6157 1864.67 61.8374C1865.48 62.0591 1866.7 62.1884 1868.33 62.2254V63.5H1847.82V62.2254C1849.48 62.1884 1850.7 62.0591 1851.48 61.8374C1852.29 61.6157 1852.81 61.1724 1853.03 60.5073C1853.25 59.8054 1853.36 58.7709 1853.36 57.4038V33.2963L1848.27 36.4552L1847.1 34.6818L1859.96 26.6459H1863.17C1863.03 27.3479 1862.91 28.0499 1862.84 28.7519C1862.8 29.4538 1862.79 30.1558 1862.79 30.8578V57.4038ZM1888.14 63.5V62.2254C1889.21 62.1515 1889.98 61.8744 1890.46 61.3941C1890.94 60.9138 1891.18 59.7684 1891.18 57.958V32.1879C1891.18 30.3775 1890.91 29.2322 1890.35 28.7519C1889.84 28.2346 1888.82 27.9575 1887.3 27.9206V26.6459H1903.1V27.9206C1902.03 27.9575 1901.25 28.2346 1900.77 28.7519C1900.29 29.2322 1900.05 30.3775 1900.05 32.1879V41.9972C1900.35 41.7755 1900.7 41.6277 1901.1 41.5538C1901.55 41.4799 1902.06 41.443 1902.66 41.443H1913.13C1914.13 41.443 1914.83 41.2767 1915.24 40.9442C1915.64 40.6117 1915.85 39.9466 1915.85 38.9491V32.1879C1915.85 30.3775 1915.57 29.2322 1915.01 28.7519C1914.5 28.2346 1913.48 27.9575 1911.97 27.9206V26.6459H1927.76V27.9206C1926.69 27.9575 1925.91 28.2346 1925.43 28.7519C1924.95 29.2322 1924.71 30.3775 1924.71 32.1879V57.958C1924.71 59.7684 1924.99 60.9138 1925.54 61.3941C1926.1 61.8744 1927.11 62.1515 1928.59 62.2254V63.5H1912.8V62.2254C1913.87 62.1515 1914.64 61.8744 1915.13 61.3941C1915.61 60.9138 1915.85 59.7684 1915.85 57.958V43.2164C1915.55 43.475 1915.18 43.6413 1914.74 43.7152C1914.29 43.7891 1913.8 43.826 1913.24 43.826H1902.77C1901.77 43.826 1901.07 43.9923 1900.66 44.3248C1900.25 44.6573 1900.05 45.3039 1900.05 46.2645V57.958C1900.05 59.7684 1900.33 60.9138 1900.88 61.3941C1901.44 61.8744 1902.45 62.1515 1903.93 62.2254V63.5H1888.14ZM1953.04 25.8146C1955.66 25.8146 1958.1 26.258 1960.35 27.1447C1962.6 28.0314 1964.6 29.3245 1966.34 31.0241C1968.07 32.6867 1969.42 34.7002 1970.38 37.0648C1971.34 39.4294 1971.82 42.0711 1971.82 44.9898C1971.82 47.9086 1971.34 50.5503 1970.38 52.9148C1969.42 55.2794 1968.07 57.3115 1966.34 59.011C1964.64 60.7105 1962.64 62.0221 1960.35 62.9458C1958.06 63.8695 1955.6 64.3313 1952.98 64.3313C1950.39 64.3313 1947.96 63.8879 1945.66 63.0012C1943.41 62.1145 1941.42 60.8399 1939.68 59.1773C1937.94 57.4777 1936.59 55.4457 1935.63 53.0811C1934.67 50.7165 1934.19 48.0749 1934.19 45.1561C1934.19 42.2373 1934.67 39.5956 1935.63 37.2311C1936.59 34.8665 1937.92 32.8344 1939.62 31.1349C1941.36 29.4354 1943.37 28.1238 1945.66 27.2001C1947.96 26.2764 1950.41 25.8146 1953.04 25.8146ZM1954.14 61.9483C1956.06 61.9483 1957.58 61.3202 1958.69 60.064C1959.8 58.7709 1960.59 56.9974 1961.07 54.7437C1961.59 52.49 1961.85 49.8668 1961.85 46.8741C1961.85 40.8518 1960.92 36.2335 1959.08 33.0192C1957.27 29.8048 1954.86 28.1977 1951.87 28.1977C1949.99 28.1977 1948.47 28.8257 1947.33 30.0819C1946.22 31.3381 1945.41 33.1115 1944.89 35.4022C1944.41 37.656 1944.17 40.2792 1944.17 43.2718C1944.17 49.2941 1945.07 53.9124 1946.88 57.1267C1948.73 60.3411 1951.15 61.9483 1954.14 61.9483ZM1978.12 64.3313C1977.2 64.3313 1976.22 64.2574 1975.18 64.1096C1974.15 63.9618 1973.26 63.7586 1972.52 63.5V62.2254C1973.26 62.2254 1974.09 61.9298 1975.02 61.3386C1975.94 60.7475 1976.88 59.5652 1977.84 57.7918L1985.77 43.4381C1983.29 42.81 1981.41 41.794 1980.12 40.39C1978.86 38.986 1978.23 37.2865 1978.23 35.2914C1978.23 33.7396 1978.69 32.2802 1979.62 30.9132C1980.58 29.5462 1982.13 28.4563 1984.27 27.6435C1986.45 26.7937 1989.37 26.3688 1993.03 26.3688C1994.21 26.3688 1995.58 26.4242 1997.13 26.5351C1998.68 26.609 2000.4 26.6459 2002.28 26.6459H2009.38V27.9206C2008.31 27.9575 2007.53 28.2346 2007.05 28.7519C2006.57 29.2322 2006.33 30.3775 2006.33 32.1879V57.958C2006.33 59.7684 2006.61 60.9138 2007.16 61.3941C2007.72 61.8744 2008.73 62.1515 2010.21 62.2254V63.5H1994.41V62.2254C1995.49 62.1515 1996.26 61.8744 1996.74 61.3941C1997.22 60.9138 1997.46 59.7684 1997.46 57.958V32.1879C1997.46 30.747 1997.2 29.8233 1996.69 29.4169C1996.21 28.9735 1995.36 28.7519 1994.14 28.7519C1992.55 28.7519 1991.11 29.3245 1989.81 30.4699C1988.56 31.5783 1987.93 33.2593 1987.93 35.5131C1987.93 36.6953 1988.17 37.8407 1988.65 38.9491C1989.13 40.0205 1989.98 40.9257 1991.2 41.6646C1992.46 42.4036 1994.17 42.8469 1996.35 42.9947V44.9344C1995.91 44.9344 1995.52 45.0268 1995.19 45.2115C1994.86 45.3593 1994.53 45.7472 1994.19 46.3753L1987.93 58.4568C1987.08 60.0825 1985.9 61.468 1984.38 62.6133C1982.87 63.7586 1980.78 64.3313 1978.12 64.3313ZM2027.72 41.3321H2033.1C2037.12 41.3321 2040.3 41.7755 2042.63 42.6622C2044.96 43.5489 2046.6 44.7681 2047.56 46.3199C2048.56 47.8717 2049.06 49.6636 2049.06 51.6956C2049.06 53.7277 2048.5 55.6489 2047.4 57.4593C2046.32 59.2327 2044.64 60.6921 2042.35 61.8374C2040.1 62.9458 2037.22 63.5 2033.71 63.5H2015.81V62.2254C2016.88 62.1515 2017.65 61.8744 2018.13 61.3941C2018.61 60.9138 2018.85 59.7684 2018.85 57.958V32.1879C2018.85 30.3775 2018.58 29.2322 2018.02 28.7519C2017.51 28.2346 2016.49 27.9575 2014.98 27.9206V26.6459H2045.46V35.7902H2044.18C2044.07 34.534 2043.83 33.4071 2043.46 32.4096C2043.09 31.3751 2042.46 30.5622 2041.58 29.9711C2040.69 29.343 2039.42 29.029 2037.75 29.029H2030.16C2029.38 29.029 2028.77 29.2322 2028.33 29.6386C2027.93 30.045 2027.72 30.8948 2027.72 32.1879V41.3321ZM2030.99 61.117C2032.95 61.117 2034.56 60.6551 2035.81 59.7315C2037.11 58.7709 2038.07 57.5886 2038.7 56.1846C2039.32 54.7806 2039.64 53.3951 2039.64 52.0281C2039.64 49.9961 2039.25 48.3704 2038.47 47.1512C2037.73 45.932 2036.72 45.0637 2035.43 44.5465C2034.17 43.9923 2032.75 43.7152 2031.16 43.7152H2027.72V57.958C2027.72 59.2512 2027.93 60.1009 2028.33 60.5073C2028.74 60.9138 2029.62 61.117 2030.99 61.117ZM2054.94 63.5V62.2254C2056.01 62.1515 2056.78 61.8744 2057.26 61.3941C2057.74 60.9138 2057.98 59.7684 2057.98 57.958V32.1879C2057.98 30.3775 2057.71 29.2322 2057.15 28.7519C2056.64 28.2346 2055.62 27.9575 2054.1 27.9206V26.6459H2057.98C2060.68 26.6459 2063.21 26.609 2065.58 26.5351C2067.94 26.4242 2069.71 26.3688 2070.9 26.3688C2074.74 26.3688 2077.77 26.7937 2079.99 27.6435C2082.24 28.4932 2083.85 29.6201 2084.81 31.0241C2085.8 32.3911 2086.3 33.9059 2086.3 35.5685C2086.3 37.4897 2085.68 39.3185 2084.42 41.055C2083.2 42.7915 2081.24 44.1401 2078.54 45.1007C2075.88 46.0243 2072.36 46.3199 2067.96 45.9874V44.0477C2069.95 44.1216 2071.6 43.7706 2072.89 42.9947C2074.19 42.1819 2075.13 41.1104 2075.72 39.7804C2076.35 38.4503 2076.66 37.0279 2076.66 35.5131C2076.66 33.481 2076.09 31.8554 2074.94 30.6361C2073.8 29.3799 2072.21 28.7519 2070.18 28.7519C2068.96 28.7519 2068.09 28.9735 2067.57 29.4169C2067.09 29.8233 2066.85 30.747 2066.85 32.1879V57.958C2066.85 59.1403 2066.96 60.0455 2067.18 60.6736C2067.44 61.2647 2067.89 61.6712 2068.51 61.8928C2069.18 62.0776 2070.1 62.1884 2071.28 62.2254V63.5H2054.94ZM2092.15 64.3313C2091.23 64.3313 2090.25 64.2574 2089.22 64.1096C2088.18 63.9618 2087.29 63.7586 2086.56 63.5V62.2254C2087.29 62.2254 2088.13 61.9298 2089.05 61.3386C2089.97 60.7475 2090.92 59.5652 2091.88 57.7918L2099.8 43.4381C2097.33 42.81 2095.44 41.794 2094.15 40.39C2092.89 38.986 2092.26 37.2865 2092.26 35.2914C2092.26 33.7396 2092.73 32.2802 2093.65 30.9132C2094.61 29.5462 2096.16 28.4563 2098.3 27.6435C2100.48 26.7937 2103.4 26.3688 2107.06 26.3688C2108.24 26.3688 2109.61 26.4242 2111.16 26.5351C2112.71 26.609 2114.43 26.6459 2116.32 26.6459H2123.41V27.9206C2122.34 27.9575 2121.56 28.2346 2121.08 28.7519C2120.6 29.2322 2120.36 30.3775 2120.36 32.1879V57.958C2120.36 59.7684 2120.64 60.9138 2121.19 61.3941C2121.75 61.8744 2122.76 62.1515 2124.24 62.2254V63.5H2108.45V62.2254C2109.52 62.1515 2110.29 61.8744 2110.77 61.3941C2111.25 60.9138 2111.49 59.7684 2111.49 57.958V32.1879C2111.49 30.747 2111.24 29.8233 2110.72 29.4169C2110.24 28.9735 2109.39 28.7519 2108.17 28.7519C2106.58 28.7519 2105.14 29.3245 2103.85 30.4699C2102.59 31.5783 2101.96 33.2593 2101.96 35.5131C2101.96 36.6953 2102.2 37.8407 2102.68 38.9491C2103.16 40.0205 2104.01 40.9257 2105.23 41.6646C2106.49 42.4036 2108.21 42.8469 2110.39 42.9947V44.9344C2109.94 44.9344 2109.56 45.0268 2109.22 45.2115C2108.89 45.3593 2108.56 45.7472 2108.23 46.3753L2101.96 58.4568C2101.11 60.0825 2099.93 61.468 2098.42 62.6133C2096.9 63.7586 2094.81 64.3313 2092.15 64.3313ZM2168.27 53.2474H2169.55L2168.99 63.5H2142.28V62.2254C2142.58 62.0776 2143.02 61.8189 2143.61 61.4495C2144.24 61.08 2144.89 60.6551 2145.55 60.1748C2147.4 58.8448 2149.14 57.3299 2150.76 55.6304C2152.39 53.9309 2153.81 52.1205 2155.03 50.1993C2156.25 48.2781 2157.21 46.3568 2157.91 44.4356C2158.61 42.5144 2158.96 40.6856 2158.96 38.9491C2158.96 37.2865 2158.56 35.8825 2157.74 34.7372C2156.97 33.5918 2155.55 33.0192 2153.48 33.0192C2151.74 33.0192 2150.13 33.4995 2148.66 34.4601C2147.18 35.4207 2145.72 36.917 2144.28 38.9491L2143.22 38.0624C2144.74 34.2199 2146.64 31.3566 2148.93 29.4723C2151.22 27.588 2154.09 26.6459 2157.52 26.6459C2159.52 26.6459 2161.31 26.9784 2162.9 27.6435C2164.49 28.2716 2165.74 29.2691 2166.67 30.6361C2167.63 31.9662 2168.11 33.7027 2168.11 35.8456C2168.11 39.6511 2166.89 43.2164 2164.45 46.5416C2162.05 49.8668 2158.69 52.9887 2154.36 55.9075V56.0183H2162.46C2164.56 56.0183 2166.02 55.7597 2166.83 55.2425C2167.65 54.7252 2168.13 54.0602 2168.27 53.2474ZM2191.86 26.6459C2193.78 26.6459 2195.67 27.0154 2197.51 27.7543C2199.36 28.4932 2201.02 29.6386 2202.5 31.1903C2203.98 32.7421 2205.14 34.7002 2205.99 37.0648C2206.88 39.3924 2207.32 42.1634 2207.32 45.3778C2207.32 48.5552 2206.9 51.3261 2206.05 53.6907C2205.2 56.0553 2204.04 58.0319 2202.56 59.6206C2201.08 61.2093 2199.42 62.3916 2197.57 63.1675C2195.72 63.9434 2193.8 64.3313 2191.81 64.3313C2189.89 64.3313 2188 63.9618 2186.15 63.2229C2184.31 62.484 2182.64 61.3386 2181.17 59.7869C2179.69 58.2351 2178.51 56.2954 2177.62 53.9678C2176.77 51.6032 2176.34 48.8138 2176.34 45.5994C2176.34 42.422 2176.77 39.6511 2177.62 37.2865C2178.47 34.9219 2179.63 32.9453 2181.11 31.3566C2182.59 29.7679 2184.25 28.5856 2186.1 27.8097C2187.95 27.0338 2189.87 26.6459 2191.86 26.6459ZM2192.03 61.9483C2193.1 61.9483 2194.08 61.468 2194.97 60.5073C2195.85 59.5467 2196.55 57.9211 2197.07 55.6304C2197.63 53.3397 2197.9 50.1993 2197.9 46.2091C2197.9 42.7361 2197.66 39.725 2197.18 37.1756C2196.74 34.5894 2196.06 32.5943 2195.13 31.1903C2194.21 29.7494 2193.04 29.029 2191.64 29.029C2190.61 29.029 2189.63 29.5093 2188.7 30.4699C2187.82 31.4305 2187.1 33.0561 2186.54 35.3468C2186.02 37.6375 2185.77 40.7779 2185.77 44.7681C2185.77 48.2411 2185.99 51.2707 2186.43 53.857C2186.91 56.4063 2187.61 58.4014 2188.54 59.8423C2189.46 61.2463 2190.62 61.9483 2192.03 61.9483ZM2237.93 53.2474H2239.2L2238.65 63.5H2211.94V62.2254C2212.23 62.0776 2212.68 61.8189 2213.27 61.4495C2213.89 61.08 2214.54 60.6551 2215.21 60.1748C2217.05 58.8448 2218.79 57.3299 2220.42 55.6304C2222.04 53.9309 2223.46 52.1205 2224.68 50.1993C2225.9 48.2781 2226.86 46.3568 2227.56 44.4356C2228.27 42.5144 2228.62 40.6856 2228.62 38.9491C2228.62 37.2865 2228.21 35.8825 2227.4 34.7372C2226.62 33.5918 2225.2 33.0192 2223.13 33.0192C2221.39 33.0192 2219.79 33.4995 2218.31 34.4601C2216.83 35.4207 2215.37 36.917 2213.93 38.9491L2212.88 38.0624C2214.39 34.2199 2216.3 31.3566 2218.59 29.4723C2220.88 27.588 2223.74 26.6459 2227.18 26.6459C2229.17 26.6459 2230.96 26.9784 2232.55 27.6435C2234.14 28.2716 2235.4 29.2691 2236.32 30.6361C2237.28 31.9662 2237.76 33.7027 2237.76 35.8456C2237.76 39.6511 2236.54 43.2164 2234.1 46.5416C2231.7 49.8668 2228.34 52.9887 2224.02 55.9075V56.0183H2232.11C2234.21 56.0183 2235.67 55.7597 2236.49 55.2425C2237.3 54.7252 2237.78 54.0602 2237.93 53.2474ZM2268.72 49.368H2272.6V56.2954H2270.27C2269.24 56.2954 2268.72 56.942 2268.72 58.2351C2268.72 59.1219 2268.72 59.9901 2268.72 60.8399C2268.76 61.6527 2268.79 62.5394 2268.83 63.5H2260.07C2260.15 62.2808 2260.2 61.0985 2260.24 59.9531C2260.28 58.7709 2260.31 57.5516 2260.35 56.2954H2242.84V55.0208C2243.8 54.0971 2244.67 53.1365 2245.44 52.139L2263.57 29.4723C2263.97 28.9551 2264.34 28.4563 2264.67 27.976C2265.04 27.4587 2265.34 27.0154 2265.56 26.6459H2268.78L2268.72 49.368ZM2260.24 37.7853L2250.99 49.368H2260.41V37.7853H2260.24ZM2318.07 26.6459V36.8986H2316.79C2316.61 35.2729 2316.28 33.8874 2315.79 32.7421C2315.35 31.5598 2314.65 30.6546 2313.69 30.0265C2312.77 29.3615 2311.47 29.029 2309.81 29.029H2307.2C2306.43 29.029 2305.82 29.2322 2305.38 29.6386C2304.97 30.045 2304.77 30.8948 2304.77 32.1879V57.958C2304.77 59.7684 2305.04 60.9138 2305.6 61.3941C2306.15 61.8744 2307.17 62.1515 2308.65 62.2254V63.5H2292.85V62.2254C2293.92 62.1515 2294.7 61.8744 2295.18 61.3941C2295.66 60.9138 2295.9 59.7684 2295.9 57.958V32.1879C2295.9 30.3775 2295.62 29.2322 2295.07 28.7519C2294.55 28.2346 2293.53 27.9575 2292.02 27.9206V26.6459H2318.07ZM2340.27 25.8146C2342.89 25.8146 2345.33 26.258 2347.58 27.1447C2349.84 28.0314 2351.83 29.3245 2353.57 31.0241C2355.31 32.6867 2356.66 34.7002 2357.62 37.0648C2358.58 39.4294 2359.06 42.0711 2359.06 44.9898C2359.06 47.9086 2358.58 50.5503 2357.62 52.9148C2356.66 55.2794 2355.31 57.3115 2353.57 59.011C2351.87 60.7105 2349.88 62.0221 2347.58 62.9458C2345.29 63.8695 2342.84 64.3313 2340.21 64.3313C2337.63 64.3313 2335.19 63.8879 2332.9 63.0012C2330.64 62.1145 2328.65 60.8399 2326.91 59.1773C2325.18 57.4777 2323.83 55.4457 2322.87 53.0811C2321.91 50.7165 2321.43 48.0749 2321.43 45.1561C2321.43 42.2373 2321.91 39.5956 2322.87 37.2311C2323.83 34.8665 2325.16 32.8344 2326.86 31.1349C2328.59 29.4354 2330.61 28.1238 2332.9 27.2001C2335.19 26.2764 2337.65 25.8146 2340.27 25.8146ZM2341.38 61.9483C2343.3 61.9483 2344.81 61.3202 2345.92 60.064C2347.03 58.7709 2347.83 56.9974 2348.31 54.7437C2348.82 52.49 2349.08 49.8668 2349.08 46.8741C2349.08 40.8518 2348.16 36.2335 2346.31 33.0192C2344.5 29.8048 2342.1 28.1977 2339.11 28.1977C2337.22 28.1977 2335.71 28.8257 2334.56 30.0819C2333.45 31.3381 2332.64 33.1115 2332.12 35.4022C2331.64 37.656 2331.4 40.2792 2331.4 43.2718C2331.4 49.2941 2332.31 53.9124 2334.12 57.1267C2335.97 60.3411 2338.39 61.9483 2341.38 61.9483ZM2383.09 31.0241L2392.29 57.958C2392.62 58.9186 2393.1 59.8054 2393.73 60.6182C2394.4 61.3941 2395.41 61.9298 2396.78 62.2254L2394.23 74.861H2392.95C2392.88 72.5704 2392.55 70.5753 2391.96 68.8757C2391.37 67.1762 2390.63 65.8461 2389.74 64.8855C2388.85 63.9618 2387.89 63.5 2386.86 63.5H2372.01C2370.64 63.5 2369.29 63.9618 2367.96 64.8855C2366.67 65.8461 2365.56 67.1762 2364.63 68.8757C2363.75 70.5753 2363.18 72.5704 2362.92 74.861H2361.64V62.2254C2362.31 61.9298 2362.95 61.431 2363.58 60.729C2364.21 59.9901 2364.78 59.1588 2365.3 58.2351C2365.85 57.3115 2366.28 56.4432 2366.57 55.6304L2376 31.0241C2376.37 30.0635 2376.72 29.1213 2377.05 28.1977C2377.38 27.274 2377.68 26.3319 2377.94 25.3713H2381.15C2381.41 26.3319 2381.7 27.274 2382.04 28.1977C2382.41 29.1213 2382.76 30.0635 2383.09 31.0241ZM2380.76 61.117C2382.24 61.117 2383.05 60.8768 2383.2 60.3965C2383.35 59.9162 2383.22 59.1034 2382.81 57.958L2376.33 38.0069H2376.22L2367.57 61.117H2380.76ZM2430.69 57.958C2431.21 59.2142 2431.64 60.1379 2431.97 60.729C2432.34 61.3202 2432.73 61.7081 2433.13 61.8928C2433.54 62.0406 2434.04 62.1515 2434.63 62.2254V63.5H2419.17V62.2254C2420.64 62.1515 2421.46 61.7081 2421.6 60.8953C2421.79 60.0825 2421.66 59.1034 2421.22 57.958L2418.45 50.7535C2418.22 50.9382 2417.93 51.0675 2417.56 51.1414C2417.23 51.1784 2416.86 51.1968 2416.45 51.1968H2410.19C2409.41 51.1968 2408.82 51.2892 2408.41 51.4739C2408.01 51.6587 2407.66 52.1205 2407.36 52.8594L2405.37 57.958C2404.89 59.1773 2404.92 60.1748 2405.48 60.9507C2406.03 61.7266 2407.12 62.1515 2408.75 62.2254V63.5H2398.66V62.2254C2399.47 62.1515 2400.16 61.745 2400.71 61.0061C2401.3 60.2302 2401.84 59.2142 2402.32 57.958L2412.96 31.0241C2413.37 30.0635 2413.72 29.1213 2414.01 28.1977C2414.34 27.274 2414.64 26.3319 2414.9 25.3713H2418.11C2418.37 26.3319 2418.67 27.274 2419 28.1977C2419.33 29.1213 2419.68 30.0635 2420.05 31.0241L2430.69 57.958ZM2416.17 48.8138C2416.69 48.8138 2417.02 48.7399 2417.17 48.5921C2417.36 48.4074 2417.34 48.0379 2417.12 47.4837L2413.29 38.0069H2413.18L2408.86 49.0355C2409.04 48.9246 2409.26 48.8692 2409.52 48.8692C2409.78 48.8323 2410.08 48.8138 2410.41 48.8138H2416.17Z" fill="black"/>
<defs>
<linearGradient id="paint0_linear_614_2549" x1="0" y1="45" x2="2467.31" y2="45" gradientUnits="userSpaceOnUse">
<stop stop-color="#FA0056"/>
<stop offset="0.375" stop-color="#F33174"/>
<stop offset="0.67" stop-color="#FA0056"/>
<stop offset="0.975" stop-color="#F33174"/>
</linearGradient>
</defs>
</svg>
