<svg width="2840" height="91" viewBox="0 0 2840 91" fill="none" xmlns="http://www.w3.org/2000/svg">
<rect width="2839.6" height="90" transform="translate(0.0546875 0.0825195)" fill="url(#paint0_linear_562_1115)"/>
<path d="M43.2047 62.0825V60.9325C44.1714 60.8659 44.8714 60.6159 45.3047 60.1825C45.738 59.7492 45.9547 58.7159 45.9547 57.0825V33.8325C45.9547 32.1992 45.7047 31.1659 45.2047 30.7325C44.738 30.2659 43.8214 30.0159 42.4547 29.9825V28.8325H56.7047V29.9825C55.738 30.0159 55.038 30.2659 54.6047 30.7325C54.1714 31.1659 53.9547 32.1992 53.9547 33.8325V57.0825C53.9547 58.7159 54.2047 59.7492 54.7047 60.1825C55.2047 60.6159 56.1214 60.8659 57.4547 60.9325V62.0825H43.2047ZM92.0789 62.4825C91.5789 61.9492 91.0622 61.4325 90.5289 60.9325C89.9956 60.3992 89.1456 59.6159 87.9789 58.5825L68.2789 40.5825H68.1789V57.0825C68.1789 58.2159 68.4622 59.1325 69.0289 59.8325C69.6289 60.4992 70.6456 60.8659 72.0789 60.9325V62.0825H62.8289V60.9325C63.7956 60.8659 64.4956 60.4992 64.9289 59.8325C65.3622 59.1325 65.5789 58.2159 65.5789 57.0825V33.8325C65.5789 32.1992 65.3289 31.1659 64.8289 30.7325C64.3622 30.2659 63.4456 30.0159 62.0789 29.9825V28.8325H68.0789C68.5789 29.4659 69.1122 30.0325 69.6789 30.5325C70.2456 31.0325 70.8956 31.6325 71.6289 32.3325L91.5289 50.3325H91.6289V33.8325C91.6289 32.6992 91.3456 31.7825 90.7789 31.0825C90.2122 30.3825 89.1956 30.0159 87.7289 29.9825V28.8325L96.9789 28.8325V29.9825C96.0122 30.0159 95.3122 30.3825 94.8789 31.0825C94.4456 31.7825 94.2289 32.6992 94.2289 33.8325V57.0825C94.2289 58.0159 94.2289 58.9159 94.2289 59.7825C94.2622 60.6159 94.2956 61.5159 94.3289 62.4825H92.0789ZM100.933 28.8325L129.433 28.8325V37.0825H128.283C128.083 35.2825 127.55 33.8159 126.683 32.6825C125.817 31.5492 124.333 30.9825 122.233 30.9825L119.183 30.9825V57.0825C119.183 58.7159 119.433 59.7492 119.933 60.1825C120.433 60.6159 121.35 60.8659 122.683 60.9325V62.0825H108.433V60.9325C109.4 60.8659 110.1 60.6159 110.533 60.1825C110.967 59.7492 111.183 58.7159 111.183 57.0825V30.9825H108.083C106.05 30.9825 104.583 31.5492 103.683 32.6825C102.817 33.8159 102.283 35.2825 102.083 37.0825H100.933V28.8325ZM133.97 62.0825V60.9325C134.937 60.8659 135.637 60.6159 136.07 60.1825C136.504 59.7492 136.72 58.7159 136.72 57.0825V33.8325C136.72 32.1992 136.47 31.1659 135.97 30.7325C135.504 30.2659 134.587 30.0159 133.22 29.9825V28.8325H157.77V35.8325H156.62C156.554 34.3992 156.054 33.2325 155.12 32.3325C154.22 31.4325 152.82 30.9825 150.92 30.9825H146.92C146.22 30.9825 145.67 31.1659 145.27 31.5325C144.904 31.8992 144.72 32.6659 144.72 33.8325V43.6825C144.987 43.4825 145.304 43.3492 145.67 43.2825C146.07 43.2159 146.537 43.1825 147.07 43.1825H151.92C152.92 43.1825 153.754 42.8992 154.42 42.3325C155.087 41.7659 155.437 40.9825 155.47 39.9825H156.62V48.4825H155.47C155.437 47.2492 155.087 46.4159 154.42 45.9825C153.754 45.5492 152.92 45.3325 151.92 45.3325H147.17C146.27 45.3325 145.637 45.4825 145.27 45.7825C144.904 46.0825 144.72 46.6659 144.72 47.5325V57.0825C144.72 58.2492 144.97 59.0159 145.47 59.3825C146.004 59.7492 147.02 59.9325 148.52 59.9325H153.27C155.27 59.9325 156.854 59.3325 158.02 58.1325C159.187 56.9325 159.837 55.4992 159.97 53.8325H161.12L160.72 62.0825H133.97ZM194.664 62.8325C193.164 62.8325 191.881 62.5825 190.814 62.0825C189.748 61.6159 188.848 60.9825 188.114 60.1825C187.381 59.3825 186.698 58.4992 186.064 57.5325L179.064 46.6325C178.731 46.0659 178.431 45.7159 178.164 45.5825C177.898 45.4492 177.581 45.3659 177.214 45.3325V43.5825C179.214 43.4492 180.764 43.0492 181.864 42.3825C182.964 41.7159 183.731 40.8992 184.164 39.9325C184.598 38.9325 184.814 37.8992 184.814 36.8325C184.814 34.7992 184.248 33.2825 183.114 32.2825C181.981 31.2492 180.681 30.7325 179.214 30.7325C178.114 30.7325 177.331 30.9325 176.864 31.3325C176.431 31.6992 176.214 32.5325 176.214 33.8325V57.0825C176.214 58.7159 176.464 59.7492 176.964 60.1825C177.464 60.6159 178.381 60.8659 179.714 60.9325V62.0825H165.464V60.9325C166.431 60.8659 167.131 60.6159 167.564 60.1825C167.998 59.7492 168.214 58.7159 168.214 57.0825V33.8325C168.214 32.1992 167.964 31.1659 167.464 30.7325C166.998 30.2659 166.081 30.0159 164.714 29.9825V28.8325H168.214C170.714 28.8325 172.981 28.7992 175.014 28.7325C177.048 28.6325 178.781 28.5825 180.214 28.5825C183.514 28.5825 186.131 28.8992 188.064 29.5325C190.031 30.1325 191.431 30.9825 192.264 32.0825C193.131 33.1825 193.564 34.4325 193.564 35.8325C193.564 37.1659 193.231 38.3825 192.564 39.4825C191.931 40.5825 191.081 41.5159 190.014 42.2825C188.981 43.0159 187.848 43.5325 186.614 43.8325V43.9325L194.914 56.9325C195.881 58.4659 196.764 59.5159 197.564 60.0825C198.364 60.6492 199.081 60.9325 199.714 60.9325V62.0825C199.048 62.3159 198.248 62.4992 197.314 62.6325C196.414 62.7659 195.531 62.8325 194.664 62.8325ZM218.278 62.8325C214.778 62.8325 211.678 62.1325 208.978 60.7325C206.278 59.3325 204.161 57.3659 202.628 54.8325C201.094 52.2659 200.328 49.2992 200.328 45.9325C200.328 43.1659 200.828 40.6992 201.828 38.5325C202.828 36.3325 204.194 34.4492 205.928 32.8825C207.694 31.3159 209.711 30.1325 211.978 29.3325C214.278 28.4992 216.728 28.0825 219.328 28.0825C221.294 28.0825 223.178 28.2659 224.978 28.6325C226.778 28.9992 228.211 29.4325 229.278 29.9325V37.8325H228.128C227.461 35.7992 226.661 34.2492 225.728 33.1825C224.794 32.0825 223.744 31.3159 222.578 30.8825C221.444 30.4492 220.244 30.2325 218.978 30.2325C212.544 30.2325 209.328 34.8992 209.328 44.2325C209.328 47.2992 209.644 50.0825 210.278 52.5825C210.944 55.0825 211.961 57.0659 213.328 58.5325C214.728 59.9659 216.511 60.6825 218.678 60.6825C220.444 60.6825 222.044 60.2492 223.478 59.3825C224.911 58.4825 226.128 57.2992 227.128 55.8325C228.161 54.3659 228.894 52.7825 229.328 51.0825H230.478L230.078 58.6825C228.978 59.8825 227.428 60.8825 225.428 61.6825C223.428 62.4492 221.044 62.8325 218.278 62.8325ZM251.654 28.0825C254.021 28.0825 256.221 28.4825 258.254 29.2825C260.287 30.0825 262.087 31.2492 263.654 32.7825C265.221 34.2825 266.437 36.0992 267.304 38.2325C268.171 40.3659 268.604 42.7492 268.604 45.3825C268.604 48.0159 268.171 50.3992 267.304 52.5325C266.437 54.6659 265.221 56.4992 263.654 58.0325C262.121 59.5659 260.321 60.7492 258.254 61.5825C256.187 62.4159 253.971 62.8325 251.604 62.8325C249.271 62.8325 247.071 62.4325 245.004 61.6325C242.971 60.8325 241.171 59.6825 239.604 58.1825C238.037 56.6492 236.821 54.8159 235.954 52.6825C235.087 50.5492 234.654 48.1659 234.654 45.5325C234.654 42.8992 235.087 40.5159 235.954 38.3825C236.821 36.2492 238.021 34.4159 239.554 32.8825C241.121 31.3492 242.937 30.1659 245.004 29.3325C247.071 28.4992 249.287 28.0825 251.654 28.0825ZM252.654 60.6825C254.387 60.6825 255.754 60.1159 256.754 58.9825C257.754 57.8159 258.471 56.2159 258.904 54.1825C259.371 52.1492 259.604 49.7825 259.604 47.0825C259.604 41.6492 258.771 37.4825 257.104 34.5825C255.471 31.6825 253.304 30.2325 250.604 30.2325C248.904 30.2325 247.537 30.7992 246.504 31.9325C245.504 33.0659 244.771 34.6659 244.304 36.7325C243.871 38.7659 243.654 41.1325 243.654 43.8325C243.654 49.2659 244.471 53.4325 246.104 56.3325C247.771 59.2325 249.954 60.6825 252.654 60.6825ZM291.75 62.4825C291.483 61.7159 291.15 60.9325 290.75 60.1325C290.383 59.2992 289.883 58.2159 289.25 56.8825L280.25 38.0825H280.15L279.25 57.0825C279.217 58.2159 279.483 59.1325 280.05 59.8325C280.617 60.4992 281.65 60.8659 283.15 60.9325V62.0825H273.9V60.9325C274.867 60.8659 275.55 60.4992 275.95 59.8325C276.383 59.1325 276.617 58.2159 276.65 57.0825L277.7 33.8325C277.767 32.6659 277.683 31.8325 277.45 31.3325C277.25 30.8325 276.883 30.5159 276.35 30.3825C275.817 30.2159 275.1 30.0825 274.2 29.9825V28.8325H284.9C285.167 29.6992 285.467 30.5158 285.8 31.2825C286.167 32.0492 286.567 32.8992 287 33.8325L295.6 51.8325H295.7L303.7 33.8325C304.467 32.1325 305.05 30.4659 305.45 28.8325H316.05V29.9825C315.417 30.0159 314.883 30.1159 314.45 30.2825C314.017 30.4492 313.7 30.7992 313.5 31.3325C313.333 31.8325 313.267 32.6659 313.3 33.8325L314.35 57.0825C314.417 58.1492 314.55 58.9492 314.75 59.4825C314.983 60.0159 315.35 60.3825 315.85 60.5825C316.35 60.7492 317.017 60.8659 317.85 60.9325V62.0825H303.6V60.9325C304.667 60.8659 305.4 60.6159 305.8 60.1825C306.233 59.7492 306.417 58.7159 306.35 57.0825L305.5 36.6325H305.4L296.35 56.8825C295.717 58.2825 295.25 59.3825 294.95 60.1825C294.683 60.9492 294.45 61.7159 294.25 62.4825H291.75ZM339.748 62.4825C339.481 61.7159 339.148 60.9325 338.748 60.1325C338.381 59.2992 337.881 58.2159 337.248 56.8825L328.248 38.0825H328.148L327.248 57.0825C327.215 58.2159 327.481 59.1325 328.048 59.8325C328.615 60.4992 329.648 60.8659 331.148 60.9325V62.0825H321.898V60.9325C322.865 60.8659 323.548 60.4992 323.948 59.8325C324.381 59.1325 324.615 58.2159 324.648 57.0825L325.698 33.8325C325.765 32.6659 325.681 31.8325 325.448 31.3325C325.248 30.8325 324.881 30.5159 324.348 30.3825C323.815 30.2159 323.098 30.0825 322.198 29.9825V28.8325H332.898C333.165 29.6992 333.465 30.5158 333.798 31.2825C334.165 32.0492 334.565 32.8992 334.998 33.8325L343.598 51.8325H343.698L351.698 33.8325C352.465 32.1325 353.048 30.4659 353.448 28.8325H364.048V29.9825C363.415 30.0159 362.881 30.1159 362.448 30.2825C362.015 30.4492 361.698 30.7992 361.498 31.3325C361.331 31.8325 361.265 32.6659 361.298 33.8325L362.348 57.0825C362.415 58.1492 362.548 58.9492 362.748 59.4825C362.981 60.0159 363.348 60.3825 363.848 60.5825C364.348 60.7492 365.015 60.8659 365.848 60.9325V62.0825L351.598 62.0825V60.9325C352.665 60.8659 353.398 60.6159 353.798 60.1825C354.231 59.7492 354.415 58.7159 354.348 57.0825L353.498 36.6325H353.398L344.348 56.8825C343.715 58.2825 343.248 59.3825 342.948 60.1825C342.681 60.9492 342.448 61.7159 342.248 62.4825H339.748ZM405.073 52.8325H406.223L405.723 62.0825H381.623V60.9325C381.889 60.7992 382.289 60.5659 382.823 60.2325C383.389 59.8992 383.973 59.5159 384.573 59.0825C386.239 57.8825 387.806 56.5159 389.273 54.9825C390.739 53.4492 392.023 51.8159 393.123 50.0825C394.223 48.3492 395.089 46.6159 395.723 44.8825C396.356 43.1492 396.673 41.4992 396.673 39.9325C396.673 38.4325 396.306 37.1659 395.573 36.1325C394.873 35.0992 393.589 34.5825 391.723 34.5825C390.156 34.5825 388.706 35.0159 387.373 35.8825C386.039 36.7492 384.723 38.0992 383.423 39.9325L382.473 39.1325C383.839 35.6659 385.556 33.0825 387.623 31.3825C389.689 29.6825 392.273 28.8325 395.373 28.8325C397.173 28.8325 398.789 29.1325 400.223 29.7325C401.656 30.2992 402.789 31.1992 403.623 32.4325C404.489 33.6325 404.923 35.1992 404.923 37.1325C404.923 40.5659 403.823 43.7825 401.623 46.7825C399.456 49.7825 396.423 52.5992 392.523 55.2325V55.3325H399.823C401.723 55.3325 403.039 55.0992 403.773 54.6325C404.506 54.1659 404.939 53.5659 405.073 52.8325ZM426.354 28.8325C428.087 28.8325 429.787 29.1659 431.454 29.8325C433.12 30.4992 434.62 31.5325 435.954 32.9325C437.287 34.3325 438.337 36.0992 439.104 38.2325C439.904 40.3325 440.304 42.8325 440.304 45.7325C440.304 48.5992 439.92 51.0992 439.154 53.2325C438.387 55.3659 437.337 57.1492 436.004 58.5825C434.67 60.0159 433.17 61.0825 431.504 61.7825C429.837 62.4825 428.104 62.8325 426.304 62.8325C424.57 62.8325 422.87 62.4992 421.204 61.8325C419.537 61.1659 418.037 60.1325 416.704 58.7325C415.37 57.3325 414.304 55.5825 413.504 53.4825C412.737 51.3492 412.354 48.8325 412.354 45.9325C412.354 43.0659 412.737 40.5659 413.504 38.4325C414.27 36.2992 415.32 34.5159 416.654 33.0825C417.987 31.6492 419.487 30.5825 421.154 29.8825C422.82 29.1825 424.554 28.8325 426.354 28.8325ZM426.504 60.6825C427.47 60.6825 428.354 60.2492 429.154 59.3825C429.954 58.5159 430.587 57.0492 431.054 54.9825C431.554 52.9159 431.804 50.0825 431.804 46.4825C431.804 43.3492 431.587 40.6325 431.154 38.3325C430.754 35.9992 430.137 34.1992 429.304 32.9325C428.47 31.6325 427.42 30.9825 426.154 30.9825C425.22 30.9825 424.337 31.4159 423.504 32.2825C422.704 33.1492 422.054 34.6159 421.554 36.6825C421.087 38.7492 420.854 41.5825 420.854 45.1825C420.854 48.3159 421.054 51.0492 421.454 53.3825C421.887 55.6825 422.52 57.4825 423.354 58.7825C424.187 60.0492 425.237 60.6825 426.504 60.6825ZM467.914 52.8325H469.064L468.564 62.0825H444.464V60.9325C444.731 60.7992 445.131 60.5659 445.664 60.2325C446.231 59.8992 446.814 59.5159 447.414 59.0825C449.081 57.8825 450.648 56.5159 452.114 54.9825C453.581 53.4492 454.864 51.8159 455.964 50.0825C457.064 48.3492 457.931 46.6159 458.564 44.8825C459.198 43.1492 459.514 41.4992 459.514 39.9325C459.514 38.4325 459.148 37.1659 458.414 36.1325C457.714 35.0992 456.431 34.5825 454.564 34.5825C452.998 34.5825 451.548 35.0159 450.214 35.8825C448.881 36.7492 447.564 38.0992 446.264 39.9325L445.314 39.1325C446.681 35.6659 448.398 33.0825 450.464 31.3825C452.531 29.6825 455.114 28.8325 458.214 28.8325C460.014 28.8325 461.631 29.1325 463.064 29.7325C464.498 30.2992 465.631 31.1992 466.464 32.4325C467.331 33.6325 467.764 35.1992 467.764 37.1325C467.764 40.5659 466.664 43.7825 464.464 46.7825C462.298 49.7825 459.264 52.5992 455.364 55.2325V55.3325H462.664C464.564 55.3325 465.881 55.0992 466.614 54.6325C467.348 54.1659 467.781 53.5659 467.914 52.8325ZM495.695 49.3325H499.195V55.5825H497.095C496.162 55.5825 495.695 56.1659 495.695 57.3325C495.695 58.1325 495.695 58.9159 495.695 59.6825C495.729 60.4159 495.762 61.2159 495.795 62.0825L487.895 62.0825C487.962 60.9825 488.012 59.9159 488.045 58.8825C488.079 57.8159 488.112 56.7159 488.145 55.5825L472.345 55.5825V54.4325C473.212 53.5992 473.995 52.7325 474.695 51.8325L491.045 31.3825C491.412 30.9159 491.745 30.4659 492.045 30.0325C492.379 29.5659 492.645 29.1659 492.845 28.8325H495.745L495.695 49.3325ZM488.045 38.8825L479.695 49.3325L488.195 49.3325V38.8825H488.045Z" fill="black"/>
<path d="M571.454 37.1024C564.476 34.3159 556.289 35.802 550.707 41.3749C543.171 48.8984 543.171 61.066 550.707 68.5894C556.289 74.1623 564.476 75.6485 571.454 72.862V63.9453C570.058 64.5955 568.57 64.967 566.988 64.967C561.406 64.967 556.94 60.5087 556.94 54.9357C556.94 49.3628 561.406 44.9045 566.988 44.9045C568.57 44.9045 570.151 45.276 571.454 45.9262V37.1024Z" fill="black"/>
<path d="M568.293 28.1665C571.041 25.4111 571.041 20.8505 568.293 18.0001C565.544 15.2447 560.995 15.2447 558.152 18.0001C555.308 20.7555 555.403 25.3161 558.152 28.1665C560.995 30.9219 565.544 30.9219 568.293 28.1665Z" fill="black"/>
<path d="M617.603 62.0825V60.9325C618.57 60.8659 619.27 60.6159 619.703 60.1825C620.136 59.7492 620.353 58.7159 620.353 57.0825V33.8325C620.353 32.1992 620.103 31.1659 619.603 30.7325C619.136 30.2659 618.22 30.0159 616.853 29.9825V28.8325H631.103V29.9825C630.136 30.0159 629.436 30.2659 629.003 30.7325C628.57 31.1659 628.353 32.1992 628.353 33.8325V57.0825C628.353 58.7159 628.603 59.7492 629.103 60.1825C629.603 60.6159 630.52 60.8659 631.853 60.9325V62.0825H617.603ZM666.477 62.4825C665.977 61.9492 665.461 61.4325 664.927 60.9325C664.394 60.3992 663.544 59.6159 662.377 58.5825L642.677 40.5825H642.577V57.0825C642.577 58.2159 642.861 59.1325 643.427 59.8325C644.027 60.4992 645.044 60.8659 646.477 60.9325V62.0825H637.227V60.9325C638.194 60.8659 638.894 60.4992 639.327 59.8325C639.761 59.1325 639.977 58.2159 639.977 57.0825V33.8325C639.977 32.1992 639.727 31.1659 639.227 30.7325C638.761 30.2659 637.844 30.0159 636.477 29.9825V28.8325H642.477C642.977 29.4659 643.511 30.0325 644.077 30.5325C644.644 31.0325 645.294 31.6325 646.027 32.3325L665.927 50.3325H666.027V33.8325C666.027 32.6992 665.744 31.7825 665.177 31.0825C664.611 30.3825 663.594 30.0159 662.127 29.9825V28.8325L671.377 28.8325V29.9825C670.411 30.0159 669.711 30.3825 669.277 31.0825C668.844 31.7825 668.627 32.6992 668.627 33.8325V57.0825C668.627 58.0159 668.627 58.9159 668.627 59.7825C668.661 60.6159 668.694 61.5159 668.727 62.4825H666.477ZM675.332 28.8325L703.832 28.8325V37.0825H702.682C702.482 35.2825 701.948 33.8159 701.082 32.6825C700.215 31.5492 698.732 30.9825 696.632 30.9825L693.582 30.9825V57.0825C693.582 58.7159 693.832 59.7492 694.332 60.1825C694.832 60.6159 695.748 60.8659 697.082 60.9325V62.0825H682.832V60.9325C683.798 60.8659 684.498 60.6159 684.932 60.1825C685.365 59.7492 685.582 58.7159 685.582 57.0825V30.9825H682.482C680.448 30.9825 678.982 31.5492 678.082 32.6825C677.215 33.8159 676.682 35.2825 676.482 37.0825H675.332V28.8325ZM708.369 62.0825V60.9325C709.335 60.8659 710.035 60.6159 710.469 60.1825C710.902 59.7492 711.119 58.7159 711.119 57.0825V33.8325C711.119 32.1992 710.869 31.1659 710.369 30.7325C709.902 30.2659 708.985 30.0159 707.619 29.9825V28.8325H732.169V35.8325H731.019C730.952 34.3992 730.452 33.2325 729.519 32.3325C728.619 31.4325 727.219 30.9825 725.319 30.9825H721.319C720.619 30.9825 720.069 31.1659 719.669 31.5325C719.302 31.8992 719.119 32.6659 719.119 33.8325V43.6825C719.385 43.4825 719.702 43.3492 720.069 43.2825C720.469 43.2159 720.935 43.1825 721.469 43.1825H726.319C727.319 43.1825 728.152 42.8992 728.819 42.3325C729.485 41.7659 729.835 40.9825 729.869 39.9825H731.019V48.4825H729.869C729.835 47.2492 729.485 46.4159 728.819 45.9825C728.152 45.5492 727.319 45.3325 726.319 45.3325H721.569C720.669 45.3325 720.035 45.4825 719.669 45.7825C719.302 46.0825 719.119 46.6659 719.119 47.5325V57.0825C719.119 58.2492 719.369 59.0159 719.869 59.3825C720.402 59.7492 721.419 59.9325 722.919 59.9325H727.669C729.669 59.9325 731.252 59.3325 732.419 58.1325C733.585 56.9325 734.235 55.4992 734.369 53.8325H735.519L735.119 62.0825H708.369ZM769.063 62.8325C767.563 62.8325 766.28 62.5825 765.213 62.0825C764.146 61.6159 763.246 60.9825 762.513 60.1825C761.78 59.3825 761.096 58.4992 760.463 57.5325L753.463 46.6325C753.13 46.0659 752.83 45.7159 752.563 45.5825C752.296 45.4492 751.98 45.3659 751.613 45.3325V43.5825C753.613 43.4492 755.163 43.0492 756.263 42.3825C757.363 41.7159 758.13 40.8992 758.563 39.9325C758.996 38.9325 759.213 37.8992 759.213 36.8325C759.213 34.7992 758.646 33.2825 757.513 32.2825C756.38 31.2492 755.08 30.7325 753.613 30.7325C752.513 30.7325 751.73 30.9325 751.263 31.3325C750.83 31.6992 750.613 32.5325 750.613 33.8325V57.0825C750.613 58.7159 750.863 59.7492 751.363 60.1825C751.863 60.6159 752.78 60.8659 754.113 60.9325V62.0825H739.863V60.9325C740.83 60.8659 741.53 60.6159 741.963 60.1825C742.396 59.7492 742.613 58.7159 742.613 57.0825V33.8325C742.613 32.1992 742.363 31.1659 741.863 30.7325C741.396 30.2659 740.48 30.0159 739.113 29.9825V28.8325H742.613C745.113 28.8325 747.38 28.7992 749.413 28.7325C751.446 28.6325 753.18 28.5825 754.613 28.5825C757.913 28.5825 760.53 28.8992 762.463 29.5325C764.43 30.1325 765.83 30.9825 766.663 32.0825C767.53 33.1825 767.963 34.4325 767.963 35.8325C767.963 37.1659 767.63 38.3825 766.963 39.4825C766.33 40.5825 765.48 41.5159 764.413 42.2825C763.38 43.0159 762.246 43.5325 761.013 43.8325V43.9325L769.313 56.9325C770.28 58.4659 771.163 59.5159 771.963 60.0825C772.763 60.6492 773.48 60.9325 774.113 60.9325V62.0825C773.446 62.3159 772.646 62.4992 771.713 62.6325C770.813 62.7659 769.93 62.8325 769.063 62.8325ZM792.676 62.8325C789.176 62.8325 786.076 62.1325 783.376 60.7325C780.676 59.3325 778.56 57.3659 777.026 54.8325C775.493 52.2659 774.726 49.2992 774.726 45.9325C774.726 43.1659 775.226 40.6992 776.226 38.5325C777.226 36.3325 778.593 34.4492 780.326 32.8825C782.093 31.3159 784.11 30.1325 786.376 29.3325C788.676 28.4992 791.126 28.0825 793.726 28.0825C795.693 28.0825 797.576 28.2659 799.376 28.6325C801.176 28.9992 802.61 29.4325 803.676 29.9325V37.8325H802.526C801.86 35.7992 801.06 34.2492 800.126 33.1825C799.193 32.0825 798.143 31.3159 796.976 30.8825C795.843 30.4492 794.643 30.2325 793.376 30.2325C786.943 30.2325 783.726 34.8992 783.726 44.2325C783.726 47.2992 784.043 50.0825 784.676 52.5825C785.343 55.0825 786.36 57.0659 787.726 58.5325C789.126 59.9659 790.91 60.6825 793.076 60.6825C794.843 60.6825 796.443 60.2492 797.876 59.3825C799.31 58.4825 800.526 57.2992 801.526 55.8325C802.56 54.3659 803.293 52.7825 803.726 51.0825H804.876L804.476 58.6825C803.376 59.8825 801.826 60.8825 799.826 61.6825C797.826 62.4492 795.443 62.8325 792.676 62.8325ZM826.052 28.0825C828.419 28.0825 830.619 28.4825 832.652 29.2825C834.686 30.0825 836.486 31.2492 838.052 32.7825C839.619 34.2825 840.836 36.0992 841.702 38.2325C842.569 40.3659 843.002 42.7492 843.002 45.3825C843.002 48.0159 842.569 50.3992 841.702 52.5325C840.836 54.6659 839.619 56.4992 838.052 58.0325C836.519 59.5659 834.719 60.7492 832.652 61.5825C830.586 62.4159 828.369 62.8325 826.002 62.8325C823.669 62.8325 821.469 62.4325 819.402 61.6325C817.369 60.8325 815.569 59.6825 814.002 58.1825C812.436 56.6492 811.219 54.8159 810.352 52.6825C809.486 50.5492 809.052 48.1659 809.052 45.5325C809.052 42.8992 809.486 40.5159 810.352 38.3825C811.219 36.2492 812.419 34.4159 813.952 32.8825C815.519 31.3492 817.336 30.1659 819.402 29.3325C821.469 28.4992 823.686 28.0825 826.052 28.0825ZM827.052 60.6825C828.786 60.6825 830.152 60.1159 831.152 58.9825C832.152 57.8159 832.869 56.2159 833.302 54.1825C833.769 52.1492 834.002 49.7825 834.002 47.0825C834.002 41.6492 833.169 37.4825 831.502 34.5825C829.869 31.6825 827.702 30.2325 825.002 30.2325C823.302 30.2325 821.936 30.7992 820.902 31.9325C819.902 33.0659 819.169 34.6659 818.702 36.7325C818.269 38.7659 818.052 41.1325 818.052 43.8325C818.052 49.2659 818.869 53.4325 820.502 56.3325C822.169 59.2325 824.352 60.6825 827.052 60.6825ZM866.148 62.4825C865.882 61.7159 865.548 60.9325 865.148 60.1325C864.782 59.2992 864.282 58.2159 863.648 56.8825L854.648 38.0825H854.548L853.648 57.0825C853.615 58.2159 853.882 59.1325 854.448 59.8325C855.015 60.4992 856.048 60.8659 857.548 60.9325V62.0825H848.298V60.9325C849.265 60.8659 849.948 60.4992 850.348 59.8325C850.782 59.1325 851.015 58.2159 851.048 57.0825L852.098 33.8325C852.165 32.6659 852.082 31.8325 851.848 31.3325C851.648 30.8325 851.282 30.5159 850.748 30.3825C850.215 30.2159 849.498 30.0825 848.598 29.9825V28.8325H859.298C859.565 29.6992 859.865 30.5158 860.198 31.2825C860.565 32.0492 860.965 32.8992 861.398 33.8325L869.998 51.8325H870.098L878.098 33.8325C878.865 32.1325 879.448 30.4659 879.848 28.8325H890.448V29.9825C889.815 30.0159 889.282 30.1159 888.848 30.2825C888.415 30.4492 888.098 30.7992 887.898 31.3325C887.732 31.8325 887.665 32.6659 887.698 33.8325L888.748 57.0825C888.815 58.1492 888.948 58.9492 889.148 59.4825C889.382 60.0159 889.748 60.3825 890.248 60.5825C890.748 60.7492 891.415 60.8659 892.248 60.9325V62.0825H877.998V60.9325C879.065 60.8659 879.798 60.6159 880.198 60.1825C880.632 59.7492 880.815 58.7159 880.748 57.0825L879.898 36.6325H879.798L870.748 56.8825C870.115 58.2825 869.648 59.3825 869.348 60.1825C869.082 60.9492 868.848 61.7159 868.648 62.4825H866.148ZM914.146 62.4825C913.88 61.7159 913.546 60.9325 913.146 60.1325C912.78 59.2992 912.28 58.2159 911.646 56.8825L902.646 38.0825H902.546L901.646 57.0825C901.613 58.2159 901.88 59.1325 902.446 59.8325C903.013 60.4992 904.046 60.8659 905.546 60.9325V62.0825H896.296V60.9325C897.263 60.8659 897.946 60.4992 898.346 59.8325C898.78 59.1325 899.013 58.2159 899.046 57.0825L900.096 33.8325C900.163 32.6659 900.08 31.8325 899.846 31.3325C899.646 30.8325 899.28 30.5159 898.746 30.3825C898.213 30.2159 897.496 30.0825 896.596 29.9825V28.8325H907.296C907.563 29.6992 907.863 30.5158 908.196 31.2825C908.563 32.0492 908.963 32.8992 909.396 33.8325L917.996 51.8325H918.096L926.096 33.8325C926.863 32.1325 927.446 30.4659 927.846 28.8325H938.446V29.9825C937.813 30.0159 937.28 30.1159 936.846 30.2825C936.413 30.4492 936.096 30.7992 935.896 31.3325C935.73 31.8325 935.663 32.6659 935.696 33.8325L936.746 57.0825C936.813 58.1492 936.946 58.9492 937.146 59.4825C937.38 60.0159 937.746 60.3825 938.246 60.5825C938.746 60.7492 939.413 60.8659 940.246 60.9325V62.0825L925.996 62.0825V60.9325C927.063 60.8659 927.796 60.6159 928.196 60.1825C928.63 59.7492 928.813 58.7159 928.746 57.0825L927.896 36.6325H927.796L918.746 56.8825C918.113 58.2825 917.646 59.3825 917.346 60.1825C917.08 60.9492 916.846 61.7159 916.646 62.4825H914.146ZM979.471 52.8325H980.621L980.121 62.0825H956.021V60.9325C956.288 60.7992 956.688 60.5659 957.221 60.2325C957.788 59.8992 958.371 59.5159 958.971 59.0825C960.638 57.8825 962.204 56.5159 963.671 54.9825C965.138 53.4492 966.421 51.8159 967.521 50.0825C968.621 48.3492 969.488 46.6159 970.121 44.8825C970.754 43.1492 971.071 41.4992 971.071 39.9325C971.071 38.4325 970.704 37.1659 969.971 36.1325C969.271 35.0992 967.988 34.5825 966.121 34.5825C964.554 34.5825 963.104 35.0159 961.771 35.8825C960.438 36.7492 959.121 38.0992 957.821 39.9325L956.871 39.1325C958.238 35.6659 959.954 33.0825 962.021 31.3825C964.088 29.6825 966.671 28.8325 969.771 28.8325C971.571 28.8325 973.188 29.1325 974.621 29.7325C976.054 30.2992 977.188 31.1992 978.021 32.4325C978.888 33.6325 979.321 35.1992 979.321 37.1325C979.321 40.5659 978.221 43.7825 976.021 46.7825C973.854 49.7825 970.821 52.5992 966.921 55.2325V55.3325H974.221C976.121 55.3325 977.438 55.0992 978.171 54.6325C978.904 54.1659 979.338 53.5659 979.471 52.8325ZM1000.75 28.8325C1002.49 28.8325 1004.19 29.1659 1005.85 29.8325C1007.52 30.4992 1009.02 31.5325 1010.35 32.9325C1011.69 34.3325 1012.74 36.0992 1013.5 38.2325C1014.3 40.3325 1014.7 42.8325 1014.7 45.7325C1014.7 48.5992 1014.32 51.0992 1013.55 53.2325C1012.79 55.3659 1011.74 57.1492 1010.4 58.5825C1009.07 60.0159 1007.57 61.0825 1005.9 61.7825C1004.24 62.4825 1002.5 62.8325 1000.7 62.8325C998.969 62.8325 997.269 62.4992 995.602 61.8325C993.935 61.1659 992.435 60.1325 991.102 58.7325C989.769 57.3325 988.702 55.5825 987.902 53.4825C987.135 51.3492 986.752 48.8325 986.752 45.9325C986.752 43.0659 987.135 40.5659 987.902 38.4325C988.669 36.2992 989.719 34.5159 991.052 33.0825C992.385 31.6492 993.885 30.5825 995.552 29.8825C997.219 29.1825 998.952 28.8325 1000.75 28.8325ZM1000.9 60.6825C1001.87 60.6825 1002.75 60.2492 1003.55 59.3825C1004.35 58.5159 1004.99 57.0492 1005.45 54.9825C1005.95 52.9159 1006.2 50.0825 1006.2 46.4825C1006.2 43.3492 1005.99 40.6325 1005.55 38.3325C1005.15 35.9992 1004.54 34.1992 1003.7 32.9325C1002.87 31.6325 1001.82 30.9825 1000.55 30.9825C999.619 30.9825 998.735 31.4159 997.902 32.2825C997.102 33.1492 996.452 34.6159 995.952 36.6825C995.485 38.7492 995.252 41.5825 995.252 45.1825C995.252 48.3159 995.452 51.0492 995.852 53.3825C996.285 55.6825 996.919 57.4825 997.752 58.7825C998.585 60.0492 999.635 60.6825 1000.9 60.6825ZM1042.31 52.8325H1043.46L1042.96 62.0825H1018.86V60.9325C1019.13 60.7992 1019.53 60.5659 1020.06 60.2325C1020.63 59.8992 1021.21 59.5159 1021.81 59.0825C1023.48 57.8825 1025.05 56.5159 1026.51 54.9825C1027.98 53.4492 1029.26 51.8159 1030.36 50.0825C1031.46 48.3492 1032.33 46.6159 1032.96 44.8825C1033.6 43.1492 1033.91 41.4992 1033.91 39.9325C1033.91 38.4325 1033.55 37.1659 1032.81 36.1325C1032.11 35.0992 1030.83 34.5825 1028.96 34.5825C1027.4 34.5825 1025.95 35.0159 1024.61 35.8825C1023.28 36.7492 1021.96 38.0992 1020.66 39.9325L1019.71 39.1325C1021.08 35.6659 1022.8 33.0825 1024.86 31.3825C1026.93 29.6825 1029.51 28.8325 1032.61 28.8325C1034.41 28.8325 1036.03 29.1325 1037.46 29.7325C1038.9 30.2992 1040.03 31.1992 1040.86 32.4325C1041.73 33.6325 1042.16 35.1992 1042.16 37.1325C1042.16 40.5659 1041.06 43.7825 1038.86 46.7825C1036.7 49.7825 1033.66 52.5992 1029.76 55.2325V55.3325H1037.06C1038.96 55.3325 1040.28 55.0992 1041.01 54.6325C1041.75 54.1659 1042.18 53.5659 1042.31 52.8325ZM1070.09 49.3325H1073.59V55.5825H1071.49C1070.56 55.5825 1070.09 56.1659 1070.09 57.3325C1070.09 58.1325 1070.09 58.9159 1070.09 59.6825C1070.13 60.4159 1070.16 61.2159 1070.19 62.0825L1062.29 62.0825C1062.36 60.9825 1062.41 59.9159 1062.44 58.8825C1062.48 57.8159 1062.51 56.7159 1062.54 55.5825L1046.74 55.5825V54.4325C1047.61 53.5992 1048.39 52.7325 1049.09 51.8325L1065.44 31.3825C1065.81 30.9159 1066.14 30.4659 1066.44 30.0325C1066.78 29.5659 1067.04 29.1659 1067.24 28.8325H1070.14L1070.09 49.3325ZM1062.44 38.8825L1054.09 49.3325L1062.59 49.3325V38.8825H1062.44Z" fill="black"/>
<path d="M1145.85 37.1024C1138.87 34.3159 1130.69 35.802 1125.11 41.3749C1117.57 48.8984 1117.57 61.066 1125.11 68.5894C1130.69 74.1623 1138.87 75.6485 1145.85 72.862V63.9453C1144.46 64.5955 1142.97 64.967 1141.39 64.967C1135.8 64.967 1131.34 60.5087 1131.34 54.9357C1131.34 49.3628 1135.8 44.9045 1141.39 44.9045C1142.97 44.9045 1144.55 45.276 1145.85 45.9262V37.1024Z" fill="black"/>
<path d="M1142.69 28.1665C1145.44 25.4111 1145.44 20.8505 1142.69 18.0001C1139.94 15.2447 1135.39 15.2447 1132.55 18.0001C1129.71 20.7555 1129.8 25.3161 1132.55 28.1665C1135.39 30.9219 1139.94 30.9219 1142.69 28.1665Z" fill="black"/>
<path d="M1192 62.0825V60.9325C1192.97 60.8659 1193.67 60.6159 1194.1 60.1825C1194.53 59.7492 1194.75 58.7159 1194.75 57.0825V33.8325C1194.75 32.1992 1194.5 31.1659 1194 30.7325C1193.53 30.2659 1192.62 30.0159 1191.25 29.9825V28.8325H1205.5V29.9825C1204.53 30.0159 1203.83 30.2659 1203.4 30.7325C1202.97 31.1659 1202.75 32.1992 1202.75 33.8325V57.0825C1202.75 58.7159 1203 59.7492 1203.5 60.1825C1204 60.6159 1204.92 60.8659 1206.25 60.9325V62.0825H1192ZM1240.88 62.4825C1240.38 61.9492 1239.86 61.4325 1239.33 60.9325C1238.79 60.3992 1237.94 59.6159 1236.78 58.5825L1217.08 40.5825H1216.98V57.0825C1216.98 58.2159 1217.26 59.1325 1217.83 59.8325C1218.43 60.4992 1219.44 60.8659 1220.88 60.9325V62.0825H1211.63V60.9325C1212.59 60.8659 1213.29 60.4992 1213.73 59.8325C1214.16 59.1325 1214.38 58.2159 1214.38 57.0825V33.8325C1214.38 32.1992 1214.13 31.1659 1213.63 30.7325C1213.16 30.2659 1212.24 30.0159 1210.88 29.9825V28.8325H1216.88C1217.38 29.4659 1217.91 30.0325 1218.48 30.5325C1219.04 31.0325 1219.69 31.6325 1220.43 32.3325L1240.33 50.3325H1240.43V33.8325C1240.43 32.6992 1240.14 31.7825 1239.58 31.0825C1239.01 30.3825 1237.99 30.0159 1236.53 29.9825V28.8325L1245.78 28.8325V29.9825C1244.81 30.0159 1244.11 30.3825 1243.68 31.0825C1243.24 31.7825 1243.03 32.6992 1243.03 33.8325V57.0825C1243.03 58.0159 1243.03 58.9159 1243.03 59.7825C1243.06 60.6159 1243.09 61.5159 1243.13 62.4825H1240.88ZM1249.73 28.8325L1278.23 28.8325V37.0825H1277.08C1276.88 35.2825 1276.35 33.8159 1275.48 32.6825C1274.61 31.5492 1273.13 30.9825 1271.03 30.9825L1267.98 30.9825V57.0825C1267.98 58.7159 1268.23 59.7492 1268.73 60.1825C1269.23 60.6159 1270.15 60.8659 1271.48 60.9325V62.0825H1257.23V60.9325C1258.2 60.8659 1258.9 60.6159 1259.33 60.1825C1259.76 59.7492 1259.98 58.7159 1259.98 57.0825V30.9825H1256.88C1254.85 30.9825 1253.38 31.5492 1252.48 32.6825C1251.61 33.8159 1251.08 35.2825 1250.88 37.0825H1249.73V28.8325ZM1282.77 62.0825V60.9325C1283.73 60.8659 1284.43 60.6159 1284.87 60.1825C1285.3 59.7492 1285.52 58.7159 1285.52 57.0825V33.8325C1285.52 32.1992 1285.27 31.1659 1284.77 30.7325C1284.3 30.2659 1283.38 30.0159 1282.02 29.9825V28.8325H1306.57V35.8325H1305.42C1305.35 34.3992 1304.85 33.2325 1303.92 32.3325C1303.02 31.4325 1301.62 30.9825 1299.72 30.9825H1295.72C1295.02 30.9825 1294.47 31.1659 1294.07 31.5325C1293.7 31.8992 1293.52 32.6659 1293.52 33.8325V43.6825C1293.78 43.4825 1294.1 43.3492 1294.47 43.2825C1294.87 43.2159 1295.33 43.1825 1295.87 43.1825H1300.72C1301.72 43.1825 1302.55 42.8992 1303.22 42.3325C1303.88 41.7659 1304.23 40.9825 1304.27 39.9825H1305.42V48.4825H1304.27C1304.23 47.2492 1303.88 46.4159 1303.22 45.9825C1302.55 45.5492 1301.72 45.3325 1300.72 45.3325H1295.97C1295.07 45.3325 1294.43 45.4825 1294.07 45.7825C1293.7 46.0825 1293.52 46.6659 1293.52 47.5325V57.0825C1293.52 58.2492 1293.77 59.0159 1294.27 59.3825C1294.8 59.7492 1295.82 59.9325 1297.32 59.9325H1302.07C1304.07 59.9325 1305.65 59.3325 1306.82 58.1325C1307.98 56.9325 1308.63 55.4992 1308.77 53.8325H1309.92L1309.52 62.0825H1282.77ZM1343.46 62.8325C1341.96 62.8325 1340.68 62.5825 1339.61 62.0825C1338.54 61.6159 1337.64 60.9825 1336.91 60.1825C1336.18 59.3825 1335.49 58.4992 1334.86 57.5325L1327.86 46.6325C1327.53 46.0659 1327.23 45.7159 1326.96 45.5825C1326.69 45.4492 1326.38 45.3659 1326.01 45.3325V43.5825C1328.01 43.4492 1329.56 43.0492 1330.66 42.3825C1331.76 41.7159 1332.53 40.8992 1332.96 39.9325C1333.39 38.9325 1333.61 37.8992 1333.61 36.8325C1333.61 34.7992 1333.04 33.2825 1331.91 32.2825C1330.78 31.2492 1329.48 30.7325 1328.01 30.7325C1326.91 30.7325 1326.13 30.9325 1325.66 31.3325C1325.23 31.6992 1325.01 32.5325 1325.01 33.8325V57.0825C1325.01 58.7159 1325.26 59.7492 1325.76 60.1825C1326.26 60.6159 1327.18 60.8659 1328.51 60.9325V62.0825H1314.26V60.9325C1315.23 60.8659 1315.93 60.6159 1316.36 60.1825C1316.79 59.7492 1317.01 58.7159 1317.01 57.0825V33.8325C1317.01 32.1992 1316.76 31.1659 1316.26 30.7325C1315.79 30.2659 1314.88 30.0159 1313.51 29.9825V28.8325H1317.01C1319.51 28.8325 1321.78 28.7992 1323.81 28.7325C1325.84 28.6325 1327.58 28.5825 1329.01 28.5825C1332.31 28.5825 1334.93 28.8992 1336.86 29.5325C1338.83 30.1325 1340.23 30.9825 1341.06 32.0825C1341.93 33.1825 1342.36 34.4325 1342.36 35.8325C1342.36 37.1659 1342.03 38.3825 1341.36 39.4825C1340.73 40.5825 1339.88 41.5159 1338.81 42.2825C1337.78 43.0159 1336.64 43.5325 1335.41 43.8325V43.9325L1343.71 56.9325C1344.68 58.4659 1345.56 59.5159 1346.36 60.0825C1347.16 60.6492 1347.88 60.9325 1348.51 60.9325V62.0825C1347.84 62.3159 1347.04 62.4992 1346.11 62.6325C1345.21 62.7659 1344.33 62.8325 1343.46 62.8325ZM1367.07 62.8325C1363.57 62.8325 1360.47 62.1325 1357.77 60.7325C1355.07 59.3325 1352.96 57.3659 1351.42 54.8325C1349.89 52.2659 1349.12 49.2992 1349.12 45.9325C1349.12 43.1659 1349.62 40.6992 1350.62 38.5325C1351.62 36.3325 1352.99 34.4492 1354.72 32.8825C1356.49 31.3159 1358.51 30.1325 1360.77 29.3325C1363.07 28.4992 1365.52 28.0825 1368.12 28.0825C1370.09 28.0825 1371.97 28.2659 1373.77 28.6325C1375.57 28.9992 1377.01 29.4325 1378.07 29.9325V37.8325H1376.92C1376.26 35.7992 1375.46 34.2492 1374.52 33.1825C1373.59 32.0825 1372.54 31.3159 1371.37 30.8825C1370.24 30.4492 1369.04 30.2325 1367.77 30.2325C1361.34 30.2325 1358.12 34.8992 1358.12 44.2325C1358.12 47.2992 1358.44 50.0825 1359.07 52.5825C1359.74 55.0825 1360.76 57.0659 1362.12 58.5325C1363.52 59.9659 1365.31 60.6825 1367.47 60.6825C1369.24 60.6825 1370.84 60.2492 1372.27 59.3825C1373.71 58.4825 1374.92 57.2992 1375.92 55.8325C1376.96 54.3659 1377.69 52.7825 1378.12 51.0825H1379.27L1378.87 58.6825C1377.77 59.8825 1376.22 60.8825 1374.22 61.6825C1372.22 62.4492 1369.84 62.8325 1367.07 62.8325ZM1400.45 28.0825C1402.82 28.0825 1405.02 28.4825 1407.05 29.2825C1409.08 30.0825 1410.88 31.2492 1412.45 32.7825C1414.02 34.2825 1415.23 36.0992 1416.1 38.2325C1416.97 40.3659 1417.4 42.7492 1417.4 45.3825C1417.4 48.0159 1416.97 50.3992 1416.1 52.5325C1415.23 54.6659 1414.02 56.4992 1412.45 58.0325C1410.92 59.5659 1409.12 60.7492 1407.05 61.5825C1404.98 62.4159 1402.77 62.8325 1400.4 62.8325C1398.07 62.8325 1395.87 62.4325 1393.8 61.6325C1391.77 60.8325 1389.97 59.6825 1388.4 58.1825C1386.83 56.6492 1385.62 54.8159 1384.75 52.6825C1383.88 50.5492 1383.45 48.1659 1383.45 45.5325C1383.45 42.8992 1383.88 40.5159 1384.75 38.3825C1385.62 36.2492 1386.82 34.4159 1388.35 32.8825C1389.92 31.3492 1391.73 30.1659 1393.8 29.3325C1395.87 28.4992 1398.08 28.0825 1400.45 28.0825ZM1401.45 60.6825C1403.18 60.6825 1404.55 60.1159 1405.55 58.9825C1406.55 57.8159 1407.27 56.2159 1407.7 54.1825C1408.17 52.1492 1408.4 49.7825 1408.4 47.0825C1408.4 41.6492 1407.57 37.4825 1405.9 34.5825C1404.27 31.6825 1402.1 30.2325 1399.4 30.2325C1397.7 30.2325 1396.33 30.7992 1395.3 31.9325C1394.3 33.0659 1393.57 34.6659 1393.1 36.7325C1392.67 38.7659 1392.45 41.1325 1392.45 43.8325C1392.45 49.2659 1393.27 53.4325 1394.9 56.3325C1396.57 59.2325 1398.75 60.6825 1401.45 60.6825ZM1440.55 62.4825C1440.28 61.7159 1439.95 60.9325 1439.55 60.1325C1439.18 59.2992 1438.68 58.2159 1438.05 56.8825L1429.05 38.0825H1428.95L1428.05 57.0825C1428.01 58.2159 1428.28 59.1325 1428.85 59.8325C1429.41 60.4992 1430.45 60.8659 1431.95 60.9325V62.0825H1422.7V60.9325C1423.66 60.8659 1424.35 60.4992 1424.75 59.8325C1425.18 59.1325 1425.41 58.2159 1425.45 57.0825L1426.5 33.8325C1426.56 32.6659 1426.48 31.8325 1426.25 31.3325C1426.05 30.8325 1425.68 30.5159 1425.15 30.3825C1424.61 30.2159 1423.9 30.0825 1423 29.9825V28.8325H1433.7C1433.96 29.6992 1434.26 30.5158 1434.6 31.2825C1434.96 32.0492 1435.36 32.8992 1435.8 33.8325L1444.4 51.8325H1444.5L1452.5 33.8325C1453.26 32.1325 1453.85 30.4659 1454.25 28.8325H1464.85V29.9825C1464.21 30.0159 1463.68 30.1159 1463.25 30.2825C1462.81 30.4492 1462.5 30.7992 1462.3 31.3325C1462.13 31.8325 1462.06 32.6659 1462.1 33.8325L1463.15 57.0825C1463.21 58.1492 1463.35 58.9492 1463.55 59.4825C1463.78 60.0159 1464.15 60.3825 1464.65 60.5825C1465.15 60.7492 1465.81 60.8659 1466.65 60.9325V62.0825H1452.4V60.9325C1453.46 60.8659 1454.2 60.6159 1454.6 60.1825C1455.03 59.7492 1455.21 58.7159 1455.15 57.0825L1454.3 36.6325H1454.2L1445.15 56.8825C1444.51 58.2825 1444.05 59.3825 1443.75 60.1825C1443.48 60.9492 1443.25 61.7159 1443.05 62.4825H1440.55ZM1488.54 62.4825C1488.28 61.7159 1487.94 60.9325 1487.54 60.1325C1487.18 59.2992 1486.68 58.2159 1486.04 56.8825L1477.04 38.0825H1476.94L1476.04 57.0825C1476.01 58.2159 1476.28 59.1325 1476.84 59.8325C1477.41 60.4992 1478.44 60.8659 1479.94 60.9325V62.0825H1470.69V60.9325C1471.66 60.8659 1472.34 60.4992 1472.74 59.8325C1473.18 59.1325 1473.41 58.2159 1473.44 57.0825L1474.49 33.8325C1474.56 32.6659 1474.48 31.8325 1474.24 31.3325C1474.04 30.8325 1473.68 30.5159 1473.14 30.3825C1472.61 30.2159 1471.89 30.0825 1470.99 29.9825V28.8325H1481.69C1481.96 29.6992 1482.26 30.5158 1482.59 31.2825C1482.96 32.0492 1483.36 32.8992 1483.79 33.8325L1492.39 51.8325H1492.49L1500.49 33.8325C1501.26 32.1325 1501.84 30.4659 1502.24 28.8325H1512.84V29.9825C1512.21 30.0159 1511.68 30.1159 1511.24 30.2825C1510.81 30.4492 1510.49 30.7992 1510.29 31.3325C1510.13 31.8325 1510.06 32.6659 1510.09 33.8325L1511.14 57.0825C1511.21 58.1492 1511.34 58.9492 1511.54 59.4825C1511.78 60.0159 1512.14 60.3825 1512.64 60.5825C1513.14 60.7492 1513.81 60.8659 1514.64 60.9325V62.0825L1500.39 62.0825V60.9325C1501.46 60.8659 1502.19 60.6159 1502.59 60.1825C1503.03 59.7492 1503.21 58.7159 1503.14 57.0825L1502.29 36.6325H1502.19L1493.14 56.8825C1492.51 58.2825 1492.04 59.3825 1491.74 60.1825C1491.48 60.9492 1491.24 61.7159 1491.04 62.4825H1488.54ZM1553.87 52.8325H1555.02L1554.52 62.0825H1530.42V60.9325C1530.69 60.7992 1531.09 60.5659 1531.62 60.2325C1532.19 59.8992 1532.77 59.5159 1533.37 59.0825C1535.04 57.8825 1536.6 56.5159 1538.07 54.9825C1539.54 53.4492 1540.82 51.8159 1541.92 50.0825C1543.02 48.3492 1543.89 46.6159 1544.52 44.8825C1545.15 43.1492 1545.47 41.4992 1545.47 39.9325C1545.47 38.4325 1545.1 37.1659 1544.37 36.1325C1543.67 35.0992 1542.39 34.5825 1540.52 34.5825C1538.95 34.5825 1537.5 35.0159 1536.17 35.8825C1534.84 36.7492 1533.52 38.0992 1532.22 39.9325L1531.27 39.1325C1532.64 35.6659 1534.35 33.0825 1536.42 31.3825C1538.49 29.6825 1541.07 28.8325 1544.17 28.8325C1545.97 28.8325 1547.59 29.1325 1549.02 29.7325C1550.45 30.2992 1551.59 31.1992 1552.42 32.4325C1553.29 33.6325 1553.72 35.1992 1553.72 37.1325C1553.72 40.5659 1552.62 43.7825 1550.42 46.7825C1548.25 49.7825 1545.22 52.5992 1541.32 55.2325V55.3325H1548.62C1550.52 55.3325 1551.84 55.0992 1552.57 54.6325C1553.3 54.1659 1553.74 53.5659 1553.87 52.8325ZM1575.15 28.8325C1576.88 28.8325 1578.58 29.1659 1580.25 29.8325C1581.92 30.4992 1583.42 31.5325 1584.75 32.9325C1586.08 34.3325 1587.13 36.0992 1587.9 38.2325C1588.7 40.3325 1589.1 42.8325 1589.1 45.7325C1589.1 48.5992 1588.72 51.0992 1587.95 53.2325C1587.18 55.3659 1586.13 57.1492 1584.8 58.5825C1583.47 60.0159 1581.97 61.0825 1580.3 61.7825C1578.63 62.4825 1576.9 62.8325 1575.1 62.8325C1573.37 62.8325 1571.67 62.4992 1570 61.8325C1568.33 61.1659 1566.83 60.1325 1565.5 58.7325C1564.17 57.3325 1563.1 55.5825 1562.3 53.4825C1561.53 51.3492 1561.15 48.8325 1561.15 45.9325C1561.15 43.0659 1561.53 40.5659 1562.3 38.4325C1563.07 36.2992 1564.12 34.5159 1565.45 33.0825C1566.78 31.6492 1568.28 30.5825 1569.95 29.8825C1571.62 29.1825 1573.35 28.8325 1575.15 28.8325ZM1575.3 60.6825C1576.27 60.6825 1577.15 60.2492 1577.95 59.3825C1578.75 58.5159 1579.38 57.0492 1579.85 54.9825C1580.35 52.9159 1580.6 50.0825 1580.6 46.4825C1580.6 43.3492 1580.38 40.6325 1579.95 38.3325C1579.55 35.9992 1578.93 34.1992 1578.1 32.9325C1577.27 31.6325 1576.22 30.9825 1574.95 30.9825C1574.02 30.9825 1573.13 31.4159 1572.3 32.2825C1571.5 33.1492 1570.85 34.6159 1570.35 36.6825C1569.88 38.7492 1569.65 41.5825 1569.65 45.1825C1569.65 48.3159 1569.85 51.0492 1570.25 53.3825C1570.68 55.6825 1571.32 57.4825 1572.15 58.7825C1572.98 60.0492 1574.03 60.6825 1575.3 60.6825ZM1616.71 52.8325H1617.86L1617.36 62.0825H1593.26V60.9325C1593.53 60.7992 1593.93 60.5659 1594.46 60.2325C1595.03 59.8992 1595.61 59.5159 1596.21 59.0825C1597.88 57.8825 1599.44 56.5159 1600.91 54.9825C1602.38 53.4492 1603.66 51.8159 1604.76 50.0825C1605.86 48.3492 1606.73 46.6159 1607.36 44.8825C1607.99 43.1492 1608.31 41.4992 1608.31 39.9325C1608.31 38.4325 1607.94 37.1659 1607.21 36.1325C1606.51 35.0992 1605.23 34.5825 1603.36 34.5825C1601.79 34.5825 1600.34 35.0159 1599.01 35.8825C1597.68 36.7492 1596.36 38.0992 1595.06 39.9325L1594.11 39.1325C1595.48 35.6659 1597.19 33.0825 1599.26 31.3825C1601.33 29.6825 1603.91 28.8325 1607.01 28.8325C1608.81 28.8325 1610.43 29.1325 1611.86 29.7325C1613.29 30.2992 1614.43 31.1992 1615.26 32.4325C1616.13 33.6325 1616.56 35.1992 1616.56 37.1325C1616.56 40.5659 1615.46 43.7825 1613.26 46.7825C1611.09 49.7825 1608.06 52.5992 1604.16 55.2325V55.3325H1611.46C1613.36 55.3325 1614.68 55.0992 1615.41 54.6325C1616.14 54.1659 1616.58 53.5659 1616.71 52.8325ZM1644.49 49.3325H1647.99V55.5825H1645.89C1644.96 55.5825 1644.49 56.1659 1644.49 57.3325C1644.49 58.1325 1644.49 58.9159 1644.49 59.6825C1644.53 60.4159 1644.56 61.2159 1644.59 62.0825L1636.69 62.0825C1636.76 60.9825 1636.81 59.9159 1636.84 58.8825C1636.88 57.8159 1636.91 56.7159 1636.94 55.5825L1621.14 55.5825V54.4325C1622.01 53.5992 1622.79 52.7325 1623.49 51.8325L1639.84 31.3825C1640.21 30.9159 1640.54 30.4659 1640.84 30.0325C1641.18 29.5659 1641.44 29.1659 1641.64 28.8325H1644.54L1644.49 49.3325ZM1636.84 38.8825L1628.49 49.3325L1636.99 49.3325V38.8825H1636.84Z" fill="black"/>
<path d="M1720.25 37.1024C1713.27 34.3159 1705.09 35.802 1699.5 41.3749C1691.97 48.8984 1691.97 61.066 1699.5 68.5894C1705.09 74.1623 1713.27 75.6485 1720.25 72.862V63.9453C1718.86 64.5955 1717.37 64.967 1715.78 64.967C1710.2 64.967 1705.74 60.5087 1705.74 54.9357C1705.74 49.3628 1710.2 44.9045 1715.78 44.9045C1717.37 44.9045 1718.95 45.276 1720.25 45.9262V37.1024Z" fill="black"/>
<path d="M1717.09 28.1665C1719.84 25.4111 1719.84 20.8505 1717.09 18.0001C1714.34 15.2447 1709.79 15.2447 1706.95 18.0001C1704.11 20.7555 1704.2 25.3161 1706.95 28.1665C1709.79 30.9219 1714.34 30.9219 1717.09 28.1665Z" fill="black"/>
<path d="M1766.4 62.0825V60.9325C1767.37 60.8659 1768.07 60.6159 1768.5 60.1825C1768.93 59.7492 1769.15 58.7159 1769.15 57.0825V33.8325C1769.15 32.1992 1768.9 31.1659 1768.4 30.7325C1767.93 30.2659 1767.02 30.0159 1765.65 29.9825V28.8325H1779.9V29.9825C1778.93 30.0159 1778.23 30.2659 1777.8 30.7325C1777.37 31.1659 1777.15 32.1992 1777.15 33.8325V57.0825C1777.15 58.7159 1777.4 59.7492 1777.9 60.1825C1778.4 60.6159 1779.32 60.8659 1780.65 60.9325V62.0825H1766.4ZM1815.27 62.4825C1814.77 61.9492 1814.26 61.4325 1813.72 60.9325C1813.19 60.3992 1812.34 59.6159 1811.17 58.5825L1791.47 40.5825H1791.37V57.0825C1791.37 58.2159 1791.66 59.1325 1792.22 59.8325C1792.82 60.4992 1793.84 60.8659 1795.27 60.9325V62.0825H1786.02V60.9325C1786.99 60.8659 1787.69 60.4992 1788.12 59.8325C1788.56 59.1325 1788.77 58.2159 1788.77 57.0825V33.8325C1788.77 32.1992 1788.52 31.1659 1788.02 30.7325C1787.56 30.2659 1786.64 30.0159 1785.27 29.9825V28.8325H1791.27C1791.77 29.4659 1792.31 30.0325 1792.87 30.5325C1793.44 31.0325 1794.09 31.6325 1794.82 32.3325L1814.72 50.3325H1814.82V33.8325C1814.82 32.6992 1814.54 31.7825 1813.97 31.0825C1813.41 30.3825 1812.39 30.0159 1810.92 29.9825V28.8325L1820.17 28.8325V29.9825C1819.21 30.0159 1818.51 30.3825 1818.07 31.0825C1817.64 31.7825 1817.42 32.6992 1817.42 33.8325V57.0825C1817.42 58.0159 1817.42 58.9159 1817.42 59.7825C1817.46 60.6159 1817.49 61.5159 1817.52 62.4825H1815.27ZM1824.13 28.8325L1852.63 28.8325V37.0825H1851.48C1851.28 35.2825 1850.75 33.8159 1849.88 32.6825C1849.01 31.5492 1847.53 30.9825 1845.43 30.9825L1842.38 30.9825V57.0825C1842.38 58.7159 1842.63 59.7492 1843.13 60.1825C1843.63 60.6159 1844.55 60.8659 1845.88 60.9325V62.0825H1831.63V60.9325C1832.6 60.8659 1833.3 60.6159 1833.73 60.1825C1834.16 59.7492 1834.38 58.7159 1834.38 57.0825V30.9825H1831.28C1829.25 30.9825 1827.78 31.5492 1826.88 32.6825C1826.01 33.8159 1825.48 35.2825 1825.28 37.0825H1824.13V28.8325ZM1857.17 62.0825V60.9325C1858.13 60.8659 1858.83 60.6159 1859.27 60.1825C1859.7 59.7492 1859.92 58.7159 1859.92 57.0825V33.8325C1859.92 32.1992 1859.67 31.1659 1859.17 30.7325C1858.7 30.2659 1857.78 30.0159 1856.42 29.9825V28.8325H1880.97V35.8325H1879.82C1879.75 34.3992 1879.25 33.2325 1878.32 32.3325C1877.42 31.4325 1876.02 30.9825 1874.12 30.9825H1870.12C1869.42 30.9825 1868.87 31.1659 1868.47 31.5325C1868.1 31.8992 1867.92 32.6659 1867.92 33.8325V43.6825C1868.18 43.4825 1868.5 43.3492 1868.87 43.2825C1869.27 43.2159 1869.73 43.1825 1870.27 43.1825H1875.12C1876.12 43.1825 1876.95 42.8992 1877.62 42.3325C1878.28 41.7659 1878.63 40.9825 1878.67 39.9825H1879.82V48.4825H1878.67C1878.63 47.2492 1878.28 46.4159 1877.62 45.9825C1876.95 45.5492 1876.12 45.3325 1875.12 45.3325H1870.37C1869.47 45.3325 1868.83 45.4825 1868.47 45.7825C1868.1 46.0825 1867.92 46.6659 1867.92 47.5325V57.0825C1867.92 58.2492 1868.17 59.0159 1868.67 59.3825C1869.2 59.7492 1870.22 59.9325 1871.72 59.9325H1876.47C1878.47 59.9325 1880.05 59.3325 1881.22 58.1325C1882.38 56.9325 1883.03 55.4992 1883.17 53.8325H1884.32L1883.92 62.0825H1857.17ZM1917.86 62.8325C1916.36 62.8325 1915.08 62.5825 1914.01 62.0825C1912.94 61.6159 1912.04 60.9825 1911.31 60.1825C1910.58 59.3825 1909.89 58.4992 1909.26 57.5325L1902.26 46.6325C1901.93 46.0659 1901.63 45.7159 1901.36 45.5825C1901.09 45.4492 1900.78 45.3659 1900.41 45.3325V43.5825C1902.41 43.4492 1903.96 43.0492 1905.06 42.3825C1906.16 41.7159 1906.93 40.8992 1907.36 39.9325C1907.79 38.9325 1908.01 37.8992 1908.01 36.8325C1908.01 34.7992 1907.44 33.2825 1906.31 32.2825C1905.18 31.2492 1903.88 30.7325 1902.41 30.7325C1901.31 30.7325 1900.53 30.9325 1900.06 31.3325C1899.63 31.6992 1899.41 32.5325 1899.41 33.8325V57.0825C1899.41 58.7159 1899.66 59.7492 1900.16 60.1825C1900.66 60.6159 1901.58 60.8659 1902.91 60.9325V62.0825H1888.66V60.9325C1889.63 60.8659 1890.33 60.6159 1890.76 60.1825C1891.19 59.7492 1891.41 58.7159 1891.41 57.0825V33.8325C1891.41 32.1992 1891.16 31.1659 1890.66 30.7325C1890.19 30.2659 1889.28 30.0159 1887.91 29.9825V28.8325H1891.41C1893.91 28.8325 1896.18 28.7992 1898.21 28.7325C1900.24 28.6325 1901.98 28.5825 1903.41 28.5825C1906.71 28.5825 1909.33 28.8992 1911.26 29.5325C1913.23 30.1325 1914.63 30.9825 1915.46 32.0825C1916.33 33.1825 1916.76 34.4325 1916.76 35.8325C1916.76 37.1659 1916.43 38.3825 1915.76 39.4825C1915.13 40.5825 1914.28 41.5159 1913.21 42.2825C1912.18 43.0159 1911.04 43.5325 1909.81 43.8325V43.9325L1918.11 56.9325C1919.08 58.4659 1919.96 59.5159 1920.76 60.0825C1921.56 60.6492 1922.28 60.9325 1922.91 60.9325V62.0825C1922.24 62.3159 1921.44 62.4992 1920.51 62.6325C1919.61 62.7659 1918.73 62.8325 1917.86 62.8325ZM1941.47 62.8325C1937.97 62.8325 1934.87 62.1325 1932.17 60.7325C1929.47 59.3325 1927.36 57.3659 1925.82 54.8325C1924.29 52.2659 1923.52 49.2992 1923.52 45.9325C1923.52 43.1659 1924.02 40.6992 1925.02 38.5325C1926.02 36.3325 1927.39 34.4492 1929.12 32.8825C1930.89 31.3159 1932.91 30.1325 1935.17 29.3325C1937.47 28.4992 1939.92 28.0825 1942.52 28.0825C1944.49 28.0825 1946.37 28.2659 1948.17 28.6325C1949.97 28.9992 1951.41 29.4325 1952.47 29.9325V37.8325H1951.32C1950.66 35.7992 1949.86 34.2492 1948.92 33.1825C1947.99 32.0825 1946.94 31.3159 1945.77 30.8825C1944.64 30.4492 1943.44 30.2325 1942.17 30.2325C1935.74 30.2325 1932.52 34.8992 1932.52 44.2325C1932.52 47.2992 1932.84 50.0825 1933.47 52.5825C1934.14 55.0825 1935.16 57.0659 1936.52 58.5325C1937.92 59.9659 1939.71 60.6825 1941.87 60.6825C1943.64 60.6825 1945.24 60.2492 1946.67 59.3825C1948.11 58.4825 1949.32 57.2992 1950.32 55.8325C1951.36 54.3659 1952.09 52.7825 1952.52 51.0825H1953.67L1953.27 58.6825C1952.17 59.8825 1950.62 60.8825 1948.62 61.6825C1946.62 62.4492 1944.24 62.8325 1941.47 62.8325ZM1974.85 28.0825C1977.22 28.0825 1979.42 28.4825 1981.45 29.2825C1983.48 30.0825 1985.28 31.2492 1986.85 32.7825C1988.42 34.2825 1989.63 36.0992 1990.5 38.2325C1991.37 40.3659 1991.8 42.7492 1991.8 45.3825C1991.8 48.0159 1991.37 50.3992 1990.5 52.5325C1989.63 54.6659 1988.42 56.4992 1986.85 58.0325C1985.32 59.5659 1983.52 60.7492 1981.45 61.5825C1979.38 62.4159 1977.17 62.8325 1974.8 62.8325C1972.47 62.8325 1970.27 62.4325 1968.2 61.6325C1966.17 60.8325 1964.37 59.6825 1962.8 58.1825C1961.23 56.6492 1960.02 54.8159 1959.15 52.6825C1958.28 50.5492 1957.85 48.1659 1957.85 45.5325C1957.85 42.8992 1958.28 40.5159 1959.15 38.3825C1960.02 36.2492 1961.22 34.4159 1962.75 32.8825C1964.32 31.3492 1966.13 30.1659 1968.2 29.3325C1970.27 28.4992 1972.48 28.0825 1974.85 28.0825ZM1975.85 60.6825C1977.58 60.6825 1978.95 60.1159 1979.95 58.9825C1980.95 57.8159 1981.67 56.2159 1982.1 54.1825C1982.57 52.1492 1982.8 49.7825 1982.8 47.0825C1982.8 41.6492 1981.97 37.4825 1980.3 34.5825C1978.67 31.6825 1976.5 30.2325 1973.8 30.2325C1972.1 30.2325 1970.73 30.7992 1969.7 31.9325C1968.7 33.0659 1967.97 34.6659 1967.5 36.7325C1967.07 38.7659 1966.85 41.1325 1966.85 43.8325C1966.85 49.2659 1967.67 53.4325 1969.3 56.3325C1970.97 59.2325 1973.15 60.6825 1975.85 60.6825ZM2014.95 62.4825C2014.68 61.7159 2014.35 60.9325 2013.95 60.1325C2013.58 59.2992 2013.08 58.2159 2012.45 56.8825L2003.45 38.0825H2003.35L2002.45 57.0825C2002.41 58.2159 2002.68 59.1325 2003.25 59.8325C2003.81 60.4992 2004.85 60.8659 2006.35 60.9325V62.0825H1997.1V60.9325C1998.06 60.8659 1998.75 60.4992 1999.15 59.8325C1999.58 59.1325 1999.81 58.2159 1999.85 57.0825L2000.9 33.8325C2000.96 32.6659 2000.88 31.8325 2000.65 31.3325C2000.45 30.8325 2000.08 30.5159 1999.55 30.3825C1999.01 30.2159 1998.3 30.0825 1997.4 29.9825V28.8325H2008.1C2008.36 29.6992 2008.66 30.5158 2009 31.2825C2009.36 32.0492 2009.76 32.8992 2010.2 33.8325L2018.8 51.8325H2018.9L2026.9 33.8325C2027.66 32.1325 2028.25 30.4659 2028.65 28.8325H2039.25V29.9825C2038.61 30.0159 2038.08 30.1159 2037.65 30.2825C2037.21 30.4492 2036.9 30.7992 2036.7 31.3325C2036.53 31.8325 2036.46 32.6659 2036.5 33.8325L2037.55 57.0825C2037.61 58.1492 2037.75 58.9492 2037.95 59.4825C2038.18 60.0159 2038.55 60.3825 2039.05 60.5825C2039.55 60.7492 2040.21 60.8659 2041.05 60.9325V62.0825H2026.8V60.9325C2027.86 60.8659 2028.6 60.6159 2029 60.1825C2029.43 59.7492 2029.61 58.7159 2029.55 57.0825L2028.7 36.6325H2028.6L2019.55 56.8825C2018.91 58.2825 2018.45 59.3825 2018.15 60.1825C2017.88 60.9492 2017.65 61.7159 2017.45 62.4825H2014.95ZM2062.94 62.4825C2062.68 61.7159 2062.34 60.9325 2061.94 60.1325C2061.58 59.2992 2061.08 58.2159 2060.44 56.8825L2051.44 38.0825H2051.34L2050.44 57.0825C2050.41 58.2159 2050.68 59.1325 2051.24 59.8325C2051.81 60.4992 2052.84 60.8659 2054.34 60.9325V62.0825H2045.09V60.9325C2046.06 60.8659 2046.74 60.4992 2047.14 59.8325C2047.58 59.1325 2047.81 58.2159 2047.84 57.0825L2048.89 33.8325C2048.96 32.6659 2048.88 31.8325 2048.64 31.3325C2048.44 30.8325 2048.08 30.5159 2047.54 30.3825C2047.01 30.2159 2046.29 30.0825 2045.39 29.9825V28.8325H2056.09C2056.36 29.6992 2056.66 30.5158 2056.99 31.2825C2057.36 32.0492 2057.76 32.8992 2058.19 33.8325L2066.79 51.8325H2066.89L2074.89 33.8325C2075.66 32.1325 2076.24 30.4659 2076.64 28.8325H2087.24V29.9825C2086.61 30.0159 2086.08 30.1159 2085.64 30.2825C2085.21 30.4492 2084.89 30.7992 2084.69 31.3325C2084.53 31.8325 2084.46 32.6659 2084.49 33.8325L2085.54 57.0825C2085.61 58.1492 2085.74 58.9492 2085.94 59.4825C2086.18 60.0159 2086.54 60.3825 2087.04 60.5825C2087.54 60.7492 2088.21 60.8659 2089.04 60.9325V62.0825L2074.79 62.0825V60.9325C2075.86 60.8659 2076.59 60.6159 2076.99 60.1825C2077.43 59.7492 2077.61 58.7159 2077.54 57.0825L2076.69 36.6325H2076.59L2067.54 56.8825C2066.91 58.2825 2066.44 59.3825 2066.14 60.1825C2065.88 60.9492 2065.64 61.7159 2065.44 62.4825H2062.94ZM2128.27 52.8325H2129.42L2128.92 62.0825H2104.82V60.9325C2105.08 60.7992 2105.48 60.5659 2106.02 60.2325C2106.58 59.8992 2107.17 59.5159 2107.77 59.0825C2109.43 57.8825 2111 56.5159 2112.47 54.9825C2113.93 53.4492 2115.22 51.8159 2116.32 50.0825C2117.42 48.3492 2118.28 46.6159 2118.92 44.8825C2119.55 43.1492 2119.87 41.4992 2119.87 39.9325C2119.87 38.4325 2119.5 37.1659 2118.77 36.1325C2118.07 35.0992 2116.78 34.5825 2114.92 34.5825C2113.35 34.5825 2111.9 35.0159 2110.57 35.8825C2109.23 36.7492 2107.92 38.0992 2106.62 39.9325L2105.67 39.1325C2107.03 35.6659 2108.75 33.0825 2110.82 31.3825C2112.88 29.6825 2115.47 28.8325 2118.57 28.8325C2120.37 28.8325 2121.98 29.1325 2123.42 29.7325C2124.85 30.2992 2125.98 31.1992 2126.82 32.4325C2127.68 33.6325 2128.12 35.1992 2128.12 37.1325C2128.12 40.5659 2127.02 43.7825 2124.82 46.7825C2122.65 49.7825 2119.62 52.5992 2115.72 55.2325V55.3325H2123.02C2124.92 55.3325 2126.23 55.0992 2126.97 54.6325C2127.7 54.1659 2128.13 53.5659 2128.27 52.8325ZM2149.55 28.8325C2151.28 28.8325 2152.98 29.1659 2154.65 29.8325C2156.32 30.4992 2157.82 31.5325 2159.15 32.9325C2160.48 34.3325 2161.53 36.0992 2162.3 38.2325C2163.1 40.3325 2163.5 42.8325 2163.5 45.7325C2163.5 48.5992 2163.12 51.0992 2162.35 53.2325C2161.58 55.3659 2160.53 57.1492 2159.2 58.5825C2157.87 60.0159 2156.37 61.0825 2154.7 61.7825C2153.03 62.4825 2151.3 62.8325 2149.5 62.8325C2147.77 62.8325 2146.07 62.4992 2144.4 61.8325C2142.73 61.1659 2141.23 60.1325 2139.9 58.7325C2138.57 57.3325 2137.5 55.5825 2136.7 53.4825C2135.93 51.3492 2135.55 48.8325 2135.55 45.9325C2135.55 43.0659 2135.93 40.5659 2136.7 38.4325C2137.47 36.2992 2138.52 34.5159 2139.85 33.0825C2141.18 31.6492 2142.68 30.5825 2144.35 29.8825C2146.02 29.1825 2147.75 28.8325 2149.55 28.8325ZM2149.7 60.6825C2150.67 60.6825 2151.55 60.2492 2152.35 59.3825C2153.15 58.5159 2153.78 57.0492 2154.25 54.9825C2154.75 52.9159 2155 50.0825 2155 46.4825C2155 43.3492 2154.78 40.6325 2154.35 38.3325C2153.95 35.9992 2153.33 34.1992 2152.5 32.9325C2151.67 31.6325 2150.62 30.9825 2149.35 30.9825C2148.42 30.9825 2147.53 31.4159 2146.7 32.2825C2145.9 33.1492 2145.25 34.6159 2144.75 36.6825C2144.28 38.7492 2144.05 41.5825 2144.05 45.1825C2144.05 48.3159 2144.25 51.0492 2144.65 53.3825C2145.08 55.6825 2145.72 57.4825 2146.55 58.7825C2147.38 60.0492 2148.43 60.6825 2149.7 60.6825ZM2191.11 52.8325H2192.26L2191.76 62.0825H2167.66V60.9325C2167.93 60.7992 2168.33 60.5659 2168.86 60.2325C2169.43 59.8992 2170.01 59.5159 2170.61 59.0825C2172.28 57.8825 2173.84 56.5159 2175.31 54.9825C2176.78 53.4492 2178.06 51.8159 2179.16 50.0825C2180.26 48.3492 2181.13 46.6159 2181.76 44.8825C2182.39 43.1492 2182.71 41.4992 2182.71 39.9325C2182.71 38.4325 2182.34 37.1659 2181.61 36.1325C2180.91 35.0992 2179.63 34.5825 2177.76 34.5825C2176.19 34.5825 2174.74 35.0159 2173.41 35.8825C2172.08 36.7492 2170.76 38.0992 2169.46 39.9325L2168.51 39.1325C2169.88 35.6659 2171.59 33.0825 2173.66 31.3825C2175.73 29.6825 2178.31 28.8325 2181.41 28.8325C2183.21 28.8325 2184.83 29.1325 2186.26 29.7325C2187.69 30.2992 2188.83 31.1992 2189.66 32.4325C2190.53 33.6325 2190.96 35.1992 2190.96 37.1325C2190.96 40.5659 2189.86 43.7825 2187.66 46.7825C2185.49 49.7825 2182.46 52.5992 2178.56 55.2325V55.3325H2185.86C2187.76 55.3325 2189.08 55.0992 2189.81 54.6325C2190.54 54.1659 2190.98 53.5659 2191.11 52.8325ZM2218.89 49.3325H2222.39V55.5825H2220.29C2219.36 55.5825 2218.89 56.1659 2218.89 57.3325C2218.89 58.1325 2218.89 58.9159 2218.89 59.6825C2218.92 60.4159 2218.96 61.2159 2218.99 62.0825L2211.09 62.0825C2211.16 60.9825 2211.21 59.9159 2211.24 58.8825C2211.27 57.8159 2211.31 56.7159 2211.34 55.5825L2195.54 55.5825V54.4325C2196.41 53.5992 2197.19 52.7325 2197.89 51.8325L2214.24 31.3825C2214.61 30.9159 2214.94 30.4659 2215.24 30.0325C2215.57 29.5659 2215.84 29.1659 2216.04 28.8325H2218.94L2218.89 49.3325ZM2211.24 38.8825L2202.89 49.3325L2211.39 49.3325V38.8825H2211.24Z" fill="black"/>
<path d="M2294.65 37.1024C2287.67 34.3159 2279.48 35.802 2273.9 41.3749C2266.37 48.8984 2266.37 61.066 2273.9 68.5894C2279.48 74.1623 2287.67 75.6485 2294.65 72.862V63.9453C2293.25 64.5955 2291.76 64.967 2290.18 64.967C2284.6 64.967 2280.14 60.5087 2280.14 54.9357C2280.14 49.3628 2284.6 44.9045 2290.18 44.9045C2291.76 44.9045 2293.35 45.276 2294.65 45.9262V37.1024Z" fill="black"/>
<path d="M2291.49 28.1665C2294.24 25.4111 2294.24 20.8505 2291.49 18.0001C2288.74 15.2447 2284.19 15.2447 2281.35 18.0001C2278.5 20.7555 2278.6 25.3161 2281.35 28.1665C2284.19 30.9219 2288.74 30.9219 2291.49 28.1665Z" fill="black"/>
<path d="M2340.8 62.0825V60.9325C2341.77 60.8659 2342.47 60.6159 2342.9 60.1825C2343.33 59.7492 2343.55 58.7159 2343.55 57.0825V33.8325C2343.55 32.1992 2343.3 31.1659 2342.8 30.7325C2342.33 30.2659 2341.42 30.0159 2340.05 29.9825V28.8325H2354.3V29.9825C2353.33 30.0159 2352.63 30.2659 2352.2 30.7325C2351.77 31.1659 2351.55 32.1992 2351.55 33.8325V57.0825C2351.55 58.7159 2351.8 59.7492 2352.3 60.1825C2352.8 60.6159 2353.72 60.8659 2355.05 60.9325V62.0825H2340.8ZM2389.67 62.4825C2389.17 61.9492 2388.66 61.4325 2388.12 60.9325C2387.59 60.3992 2386.74 59.6159 2385.57 58.5825L2365.87 40.5825H2365.77V57.0825C2365.77 58.2159 2366.06 59.1325 2366.62 59.8325C2367.22 60.4992 2368.24 60.8659 2369.67 60.9325V62.0825H2360.42V60.9325C2361.39 60.8659 2362.09 60.4992 2362.52 59.8325C2362.96 59.1325 2363.17 58.2159 2363.17 57.0825V33.8325C2363.17 32.1992 2362.92 31.1659 2362.42 30.7325C2361.96 30.2659 2361.04 30.0159 2359.67 29.9825V28.8325H2365.67C2366.17 29.4659 2366.71 30.0325 2367.27 30.5325C2367.84 31.0325 2368.49 31.6325 2369.22 32.3325L2389.12 50.3325H2389.22V33.8325C2389.22 32.6992 2388.94 31.7825 2388.37 31.0825C2387.81 30.3825 2386.79 30.0159 2385.32 29.9825V28.8325L2394.57 28.8325V29.9825C2393.61 30.0159 2392.91 30.3825 2392.47 31.0825C2392.04 31.7825 2391.82 32.6992 2391.82 33.8325V57.0825C2391.82 58.0159 2391.82 58.9159 2391.82 59.7825C2391.86 60.6159 2391.89 61.5159 2391.92 62.4825H2389.67ZM2398.53 28.8325L2427.03 28.8325V37.0825H2425.88C2425.68 35.2825 2425.14 33.8159 2424.28 32.6825C2423.41 31.5492 2421.93 30.9825 2419.83 30.9825L2416.78 30.9825V57.0825C2416.78 58.7159 2417.03 59.7492 2417.53 60.1825C2418.03 60.6159 2418.94 60.8659 2420.28 60.9325V62.0825H2406.03V60.9325C2406.99 60.8659 2407.69 60.6159 2408.13 60.1825C2408.56 59.7492 2408.78 58.7159 2408.78 57.0825V30.9825H2405.68C2403.64 30.9825 2402.18 31.5492 2401.28 32.6825C2400.41 33.8159 2399.88 35.2825 2399.68 37.0825H2398.53V28.8325ZM2431.56 62.0825V60.9325C2432.53 60.8659 2433.23 60.6159 2433.66 60.1825C2434.1 59.7492 2434.31 58.7159 2434.31 57.0825V33.8325C2434.31 32.1992 2434.06 31.1659 2433.56 30.7325C2433.1 30.2659 2432.18 30.0159 2430.81 29.9825V28.8325H2455.36V35.8325H2454.21C2454.15 34.3992 2453.65 33.2325 2452.71 32.3325C2451.81 31.4325 2450.41 30.9825 2448.51 30.9825H2444.51C2443.81 30.9825 2443.26 31.1659 2442.86 31.5325C2442.5 31.8992 2442.31 32.6659 2442.31 33.8325V43.6825C2442.58 43.4825 2442.9 43.3492 2443.26 43.2825C2443.66 43.2159 2444.13 43.1825 2444.66 43.1825H2449.51C2450.51 43.1825 2451.35 42.8992 2452.01 42.3325C2452.68 41.7659 2453.03 40.9825 2453.06 39.9825H2454.21V48.4825H2453.06C2453.03 47.2492 2452.68 46.4159 2452.01 45.9825C2451.35 45.5492 2450.51 45.3325 2449.51 45.3325H2444.76C2443.86 45.3325 2443.23 45.4825 2442.86 45.7825C2442.5 46.0825 2442.31 46.6659 2442.31 47.5325V57.0825C2442.31 58.2492 2442.56 59.0159 2443.06 59.3825C2443.6 59.7492 2444.61 59.9325 2446.11 59.9325H2450.86C2452.86 59.9325 2454.45 59.3325 2455.61 58.1325C2456.78 56.9325 2457.43 55.4992 2457.56 53.8325H2458.71L2458.31 62.0825H2431.56ZM2492.26 62.8325C2490.76 62.8325 2489.47 62.5825 2488.41 62.0825C2487.34 61.6159 2486.44 60.9825 2485.71 60.1825C2484.97 59.3825 2484.29 58.4992 2483.66 57.5325L2476.66 46.6325C2476.32 46.0659 2476.02 45.7159 2475.76 45.5825C2475.49 45.4492 2475.17 45.3659 2474.81 45.3325V43.5825C2476.81 43.4492 2478.36 43.0492 2479.46 42.3825C2480.56 41.7159 2481.32 40.8992 2481.76 39.9325C2482.19 38.9325 2482.41 37.8992 2482.41 36.8325C2482.41 34.7992 2481.84 33.2825 2480.71 32.2825C2479.57 31.2492 2478.27 30.7325 2476.81 30.7325C2475.71 30.7325 2474.92 30.9325 2474.46 31.3325C2474.02 31.6992 2473.81 32.5325 2473.81 33.8325V57.0825C2473.81 58.7159 2474.06 59.7492 2474.56 60.1825C2475.06 60.6159 2475.97 60.8659 2477.31 60.9325V62.0825H2463.06V60.9325C2464.02 60.8659 2464.72 60.6159 2465.16 60.1825C2465.59 59.7492 2465.81 58.7159 2465.81 57.0825V33.8325C2465.81 32.1992 2465.56 31.1659 2465.06 30.7325C2464.59 30.2659 2463.67 30.0159 2462.31 29.9825V28.8325H2465.81C2468.31 28.8325 2470.57 28.7992 2472.61 28.7325C2474.64 28.6325 2476.37 28.5825 2477.81 28.5825C2481.11 28.5825 2483.72 28.8992 2485.66 29.5325C2487.62 30.1325 2489.02 30.9825 2489.86 32.0825C2490.72 33.1825 2491.16 34.4325 2491.16 35.8325C2491.16 37.1659 2490.82 38.3825 2490.16 39.4825C2489.52 40.5825 2488.67 41.5159 2487.61 42.2825C2486.57 43.0159 2485.44 43.5325 2484.21 43.8325V43.9325L2492.51 56.9325C2493.47 58.4659 2494.36 59.5159 2495.16 60.0825C2495.96 60.6492 2496.67 60.9325 2497.31 60.9325V62.0825C2496.64 62.3159 2495.84 62.4992 2494.91 62.6325C2494.01 62.7659 2493.12 62.8325 2492.26 62.8325ZM2515.87 62.8325C2512.37 62.8325 2509.27 62.1325 2506.57 60.7325C2503.87 59.3325 2501.75 57.3659 2500.22 54.8325C2498.69 52.2659 2497.92 49.2992 2497.92 45.9325C2497.92 43.1659 2498.42 40.6992 2499.42 38.5325C2500.42 36.3325 2501.79 34.4492 2503.52 32.8825C2505.29 31.3159 2507.3 30.1325 2509.57 29.3325C2511.87 28.4992 2514.32 28.0825 2516.92 28.0825C2518.89 28.0825 2520.77 28.2659 2522.57 28.6325C2524.37 28.9992 2525.8 29.4325 2526.87 29.9325V37.8325H2525.72C2525.05 35.7992 2524.25 34.2492 2523.32 33.1825C2522.39 32.0825 2521.34 31.3159 2520.17 30.8825C2519.04 30.4492 2517.84 30.2325 2516.57 30.2325C2510.14 30.2325 2506.92 34.8992 2506.92 44.2325C2506.92 47.2992 2507.24 50.0825 2507.87 52.5825C2508.54 55.0825 2509.55 57.0659 2510.92 58.5325C2512.32 59.9659 2514.1 60.6825 2516.27 60.6825C2518.04 60.6825 2519.64 60.2492 2521.07 59.3825C2522.5 58.4825 2523.72 57.2992 2524.72 55.8325C2525.75 54.3659 2526.49 52.7825 2526.92 51.0825H2528.07L2527.67 58.6825C2526.57 59.8825 2525.02 60.8825 2523.02 61.6825C2521.02 62.4492 2518.64 62.8325 2515.87 62.8325ZM2549.25 28.0825C2551.61 28.0825 2553.81 28.4825 2555.85 29.2825C2557.88 30.0825 2559.68 31.2492 2561.25 32.7825C2562.81 34.2825 2564.03 36.0992 2564.9 38.2325C2565.76 40.3659 2566.2 42.7492 2566.2 45.3825C2566.2 48.0159 2565.76 50.3992 2564.9 52.5325C2564.03 54.6659 2562.81 56.4992 2561.25 58.0325C2559.71 59.5659 2557.91 60.7492 2555.85 61.5825C2553.78 62.4159 2551.56 62.8325 2549.2 62.8325C2546.86 62.8325 2544.66 62.4325 2542.6 61.6325C2540.56 60.8325 2538.76 59.6825 2537.2 58.1825C2535.63 56.6492 2534.41 54.8159 2533.55 52.6825C2532.68 50.5492 2532.25 48.1659 2532.25 45.5325C2532.25 42.8992 2532.68 40.5159 2533.55 38.3825C2534.41 36.2492 2535.61 34.4159 2537.15 32.8825C2538.71 31.3492 2540.53 30.1659 2542.6 29.3325C2544.66 28.4992 2546.88 28.0825 2549.25 28.0825ZM2550.25 60.6825C2551.98 60.6825 2553.35 60.1159 2554.35 58.9825C2555.35 57.8159 2556.06 56.2159 2556.5 54.1825C2556.96 52.1492 2557.2 49.7825 2557.2 47.0825C2557.2 41.6492 2556.36 37.4825 2554.7 34.5825C2553.06 31.6825 2550.9 30.2325 2548.2 30.2325C2546.5 30.2325 2545.13 30.7992 2544.1 31.9325C2543.1 33.0659 2542.36 34.6659 2541.9 36.7325C2541.46 38.7659 2541.25 41.1325 2541.25 43.8325C2541.25 49.2659 2542.06 53.4325 2543.7 56.3325C2545.36 59.2325 2547.55 60.6825 2550.25 60.6825ZM2589.34 62.4825C2589.08 61.7159 2588.74 60.9325 2588.34 60.1325C2587.98 59.2992 2587.48 58.2159 2586.84 56.8825L2577.84 38.0825H2577.74L2576.84 57.0825C2576.81 58.2159 2577.08 59.1325 2577.64 59.8325C2578.21 60.4992 2579.24 60.8659 2580.74 60.9325V62.0825H2571.49V60.9325C2572.46 60.8659 2573.14 60.4992 2573.54 59.8325C2573.98 59.1325 2574.21 58.2159 2574.24 57.0825L2575.29 33.8325C2575.36 32.6659 2575.28 31.8325 2575.04 31.3325C2574.84 30.8325 2574.48 30.5159 2573.94 30.3825C2573.41 30.2159 2572.69 30.0825 2571.79 29.9825V28.8325H2582.49C2582.76 29.6992 2583.06 30.5158 2583.39 31.2825C2583.76 32.0492 2584.16 32.8992 2584.59 33.8325L2593.19 51.8325H2593.29L2601.29 33.8325C2602.06 32.1325 2602.64 30.4659 2603.04 28.8325H2613.64V29.9825C2613.01 30.0159 2612.48 30.1159 2612.04 30.2825C2611.61 30.4492 2611.29 30.7992 2611.09 31.3325C2610.93 31.8325 2610.86 32.6659 2610.89 33.8325L2611.94 57.0825C2612.01 58.1492 2612.14 58.9492 2612.34 59.4825C2612.58 60.0159 2612.94 60.3825 2613.44 60.5825C2613.94 60.7492 2614.61 60.8659 2615.44 60.9325V62.0825H2601.19V60.9325C2602.26 60.8659 2602.99 60.6159 2603.39 60.1825C2603.83 59.7492 2604.01 58.7159 2603.94 57.0825L2603.09 36.6325H2602.99L2593.94 56.8825C2593.31 58.2825 2592.84 59.3825 2592.54 60.1825C2592.28 60.9492 2592.04 61.7159 2591.84 62.4825H2589.34ZM2637.34 62.4825C2637.08 61.7159 2636.74 60.9325 2636.34 60.1325C2635.98 59.2992 2635.48 58.2159 2634.84 56.8825L2625.84 38.0825H2625.74L2624.84 57.0825C2624.81 58.2159 2625.08 59.1325 2625.64 59.8325C2626.21 60.4992 2627.24 60.8659 2628.74 60.9325V62.0825H2619.49V60.9325C2620.46 60.8659 2621.14 60.4992 2621.54 59.8325C2621.98 59.1325 2622.21 58.2159 2622.24 57.0825L2623.29 33.8325C2623.36 32.6659 2623.28 31.8325 2623.04 31.3325C2622.84 30.8325 2622.48 30.5159 2621.94 30.3825C2621.41 30.2159 2620.69 30.0825 2619.79 29.9825V28.8325H2630.49C2630.76 29.6992 2631.06 30.5158 2631.39 31.2825C2631.76 32.0492 2632.16 32.8992 2632.59 33.8325L2641.19 51.8325H2641.29L2649.29 33.8325C2650.06 32.1325 2650.64 30.4659 2651.04 28.8325H2661.64V29.9825C2661.01 30.0159 2660.48 30.1159 2660.04 30.2825C2659.61 30.4492 2659.29 30.7992 2659.09 31.3325C2658.93 31.8325 2658.86 32.6659 2658.89 33.8325L2659.94 57.0825C2660.01 58.1492 2660.14 58.9492 2660.34 59.4825C2660.58 60.0159 2660.94 60.3825 2661.44 60.5825C2661.94 60.7492 2662.61 60.8659 2663.44 60.9325V62.0825L2649.19 62.0825V60.9325C2650.26 60.8659 2650.99 60.6159 2651.39 60.1825C2651.83 59.7492 2652.01 58.7159 2651.94 57.0825L2651.09 36.6325H2650.99L2641.94 56.8825C2641.31 58.2825 2640.84 59.3825 2640.54 60.1825C2640.28 60.9492 2640.04 61.7159 2639.84 62.4825H2637.34ZM2702.67 52.8325H2703.82L2703.32 62.0825H2679.22V60.9325C2679.48 60.7992 2679.88 60.5659 2680.42 60.2325C2680.98 59.8992 2681.57 59.5159 2682.17 59.0825C2683.83 57.8825 2685.4 56.5159 2686.87 54.9825C2688.33 53.4492 2689.62 51.8159 2690.72 50.0825C2691.82 48.3492 2692.68 46.6159 2693.32 44.8825C2693.95 43.1492 2694.27 41.4992 2694.27 39.9325C2694.27 38.4325 2693.9 37.1659 2693.17 36.1325C2692.47 35.0992 2691.18 34.5825 2689.32 34.5825C2687.75 34.5825 2686.3 35.0159 2684.97 35.8825C2683.63 36.7492 2682.32 38.0992 2681.02 39.9325L2680.07 39.1325C2681.43 35.6659 2683.15 33.0825 2685.22 31.3825C2687.28 29.6825 2689.87 28.8325 2692.97 28.8325C2694.77 28.8325 2696.38 29.1325 2697.82 29.7325C2699.25 30.2992 2700.38 31.1992 2701.22 32.4325C2702.08 33.6325 2702.52 35.1992 2702.52 37.1325C2702.52 40.5659 2701.42 43.7825 2699.22 46.7825C2697.05 49.7825 2694.02 52.5992 2690.12 55.2325V55.3325H2697.42C2699.32 55.3325 2700.63 55.0992 2701.37 54.6325C2702.1 54.1659 2702.53 53.5659 2702.67 52.8325ZM2723.95 28.8325C2725.68 28.8325 2727.38 29.1659 2729.05 29.8325C2730.71 30.4992 2732.21 31.5325 2733.55 32.9325C2734.88 34.3325 2735.93 36.0992 2736.7 38.2325C2737.5 40.3325 2737.9 42.8325 2737.9 45.7325C2737.9 48.5992 2737.51 51.0992 2736.75 53.2325C2735.98 55.3659 2734.93 57.1492 2733.6 58.5825C2732.26 60.0159 2730.76 61.0825 2729.1 61.7825C2727.43 62.4825 2725.7 62.8325 2723.9 62.8325C2722.16 62.8325 2720.46 62.4992 2718.8 61.8325C2717.13 61.1659 2715.63 60.1325 2714.3 58.7325C2712.96 57.3325 2711.9 55.5825 2711.1 53.4825C2710.33 51.3492 2709.95 48.8325 2709.95 45.9325C2709.95 43.0659 2710.33 40.5659 2711.1 38.4325C2711.86 36.2992 2712.91 34.5159 2714.25 33.0825C2715.58 31.6492 2717.08 30.5825 2718.75 29.8825C2720.41 29.1825 2722.15 28.8325 2723.95 28.8325ZM2724.1 60.6825C2725.06 60.6825 2725.95 60.2492 2726.75 59.3825C2727.55 58.5159 2728.18 57.0492 2728.65 54.9825C2729.15 52.9159 2729.4 50.0825 2729.4 46.4825C2729.4 43.3492 2729.18 40.6325 2728.75 38.3325C2728.35 35.9992 2727.73 34.1992 2726.9 32.9325C2726.06 31.6325 2725.01 30.9825 2723.75 30.9825C2722.81 30.9825 2721.93 31.4159 2721.1 32.2825C2720.3 33.1492 2719.65 34.6159 2719.15 36.6825C2718.68 38.7492 2718.45 41.5825 2718.45 45.1825C2718.45 48.3159 2718.65 51.0492 2719.05 53.3825C2719.48 55.6825 2720.11 57.4825 2720.95 58.7825C2721.78 60.0492 2722.83 60.6825 2724.1 60.6825ZM2765.51 52.8325H2766.66L2766.16 62.0825H2742.06V60.9325C2742.32 60.7992 2742.72 60.5659 2743.26 60.2325C2743.82 59.8992 2744.41 59.5159 2745.01 59.0825C2746.67 57.8825 2748.24 56.5159 2749.71 54.9825C2751.17 53.4492 2752.46 51.8159 2753.56 50.0825C2754.66 48.3492 2755.52 46.6159 2756.16 44.8825C2756.79 43.1492 2757.11 41.4992 2757.11 39.9325C2757.11 38.4325 2756.74 37.1659 2756.01 36.1325C2755.31 35.0992 2754.02 34.5825 2752.16 34.5825C2750.59 34.5825 2749.14 35.0159 2747.81 35.8825C2746.47 36.7492 2745.16 38.0992 2743.86 39.9325L2742.91 39.1325C2744.27 35.6659 2745.99 33.0825 2748.06 31.3825C2750.12 29.6825 2752.71 28.8325 2755.81 28.8325C2757.61 28.8325 2759.22 29.1325 2760.66 29.7325C2762.09 30.2992 2763.22 31.1992 2764.06 32.4325C2764.92 33.6325 2765.36 35.1992 2765.36 37.1325C2765.36 40.5659 2764.26 43.7825 2762.06 46.7825C2759.89 49.7825 2756.86 52.5992 2752.96 55.2325V55.3325H2760.26C2762.16 55.3325 2763.47 55.0992 2764.21 54.6325C2764.94 54.1659 2765.37 53.5659 2765.51 52.8325ZM2793.29 49.3325H2796.79V55.5825H2794.69C2793.76 55.5825 2793.29 56.1659 2793.29 57.3325C2793.29 58.1325 2793.29 58.9159 2793.29 59.6825C2793.32 60.4159 2793.36 61.2159 2793.39 62.0825L2785.49 62.0825C2785.56 60.9825 2785.61 59.9159 2785.64 58.8825C2785.67 57.8159 2785.71 56.7159 2785.74 55.5825L2769.94 55.5825V54.4325C2770.81 53.5992 2771.59 52.7325 2772.29 51.8325L2788.64 31.3825C2789.01 30.9159 2789.34 30.4659 2789.64 30.0325C2789.97 29.5659 2790.24 29.1659 2790.44 28.8325H2793.34L2793.29 49.3325ZM2785.64 38.8825L2777.29 49.3325L2785.79 49.3325V38.8825H2785.64Z" fill="black"/>
<defs>
<linearGradient id="paint0_linear_562_1115" x1="0" y1="45" x2="2839.6" y2="45" gradientUnits="userSpaceOnUse">
<stop stop-color="white"/>
<stop offset="0.325" stop-color="#D4D4D4"/>
<stop offset="0.685" stop-color="white"/>
<stop offset="0.98" stop-color="#D4D4D4"/>
</linearGradient>
</defs>
</svg>
