<svg width="2840" height="91" viewBox="0 0 2840 91" fill="none" xmlns="http://www.w3.org/2000/svg">
<rect width="2839.6" height="90" transform="translate(0.109375 0.23291)" fill="#272729"/>
<path d="M43.2594 62.2329V61.0829C44.226 61.0162 44.926 60.7662 45.3594 60.3329C45.7927 59.8996 46.0094 58.8662 46.0094 57.2329V33.9829C46.0094 32.3496 45.7594 31.3162 45.2594 30.8829C44.7927 30.4162 43.876 30.1662 42.5094 30.1329V28.9829H56.7594V30.1329C55.7927 30.1662 55.0927 30.4162 54.6594 30.8829C54.226 31.3162 54.0094 32.3496 54.0094 33.9829V57.2329C54.0094 58.8662 54.2594 59.8996 54.7594 60.3329C55.2594 60.7662 56.176 61.0162 57.5094 61.0829V62.2329H43.2594ZM92.1336 62.6329C91.6336 62.0996 91.1169 61.5829 90.5836 61.0829C90.0503 60.5496 89.2003 59.7662 88.0336 58.7329L68.3336 40.7329H68.2336V57.2329C68.2336 58.3662 68.5169 59.2829 69.0836 59.9829C69.6836 60.6496 70.7003 61.0162 72.1336 61.0829V62.2329H62.8836V61.0829C63.8503 61.0162 64.5503 60.6496 64.9836 59.9829C65.4169 59.2829 65.6336 58.3662 65.6336 57.2329V33.9829C65.6336 32.3496 65.3836 31.3162 64.8836 30.8829C64.4169 30.4162 63.5003 30.1662 62.1336 30.1329V28.9829H68.1336C68.6336 29.6162 69.1669 30.1829 69.7336 30.6829C70.3003 31.1829 70.9503 31.7829 71.6836 32.4829L91.5836 50.4829H91.6836V33.9829C91.6836 32.8496 91.4003 31.9329 90.8336 31.2329C90.2669 30.5329 89.2503 30.1662 87.7836 30.1329V28.9829H97.0336V30.1329C96.0669 30.1662 95.3669 30.5329 94.9336 31.2329C94.5003 31.9329 94.2836 32.8496 94.2836 33.9829V57.2329C94.2836 58.1662 94.2836 59.0662 94.2836 59.9329C94.3169 60.7662 94.3503 61.6662 94.3836 62.6329H92.1336ZM100.988 28.9829H129.488V37.2329H128.338C128.138 35.4329 127.605 33.9662 126.738 32.8329C125.871 31.6996 124.388 31.1329 122.288 31.1329H119.238V57.2329C119.238 58.8662 119.488 59.8996 119.988 60.3329C120.488 60.7662 121.405 61.0162 122.738 61.0829V62.2329H108.488V61.0829C109.455 61.0162 110.155 60.7662 110.588 60.3329C111.021 59.8996 111.238 58.8662 111.238 57.2329V31.1329H108.138C106.105 31.1329 104.638 31.6996 103.738 32.8329C102.871 33.9662 102.338 35.4329 102.138 37.2329H100.988V28.9829ZM134.025 62.2329V61.0829C134.992 61.0162 135.692 60.7662 136.125 60.3329C136.558 59.8996 136.775 58.8662 136.775 57.2329V33.9829C136.775 32.3496 136.525 31.3162 136.025 30.8829C135.558 30.4162 134.642 30.1662 133.275 30.1329V28.9829H157.825V35.9829H156.675C156.608 34.5496 156.108 33.3829 155.175 32.4829C154.275 31.5829 152.875 31.1329 150.975 31.1329H146.975C146.275 31.1329 145.725 31.3162 145.325 31.6829C144.958 32.0496 144.775 32.8162 144.775 33.9829V43.8329C145.042 43.6329 145.358 43.4996 145.725 43.4329C146.125 43.3662 146.592 43.3329 147.125 43.3329H151.975C152.975 43.3329 153.808 43.0496 154.475 42.4829C155.142 41.9162 155.492 41.1329 155.525 40.1329H156.675V48.6329H155.525C155.492 47.3996 155.142 46.5662 154.475 46.1329C153.808 45.6996 152.975 45.4829 151.975 45.4829H147.225C146.325 45.4829 145.692 45.6329 145.325 45.9329C144.958 46.2329 144.775 46.8162 144.775 47.6829V57.2329C144.775 58.3996 145.025 59.1662 145.525 59.5329C146.058 59.8996 147.075 60.0829 148.575 60.0829H153.325C155.325 60.0829 156.908 59.4829 158.075 58.2829C159.242 57.0829 159.892 55.6496 160.025 53.9829H161.175L160.775 62.2329H134.025ZM194.719 62.9829C193.219 62.9829 191.936 62.7329 190.869 62.2329C189.802 61.7662 188.902 61.1329 188.169 60.3329C187.436 59.5329 186.752 58.6496 186.119 57.6829L179.119 46.7829C178.786 46.2162 178.486 45.8662 178.219 45.7329C177.952 45.5996 177.636 45.5162 177.269 45.4829V43.7329C179.269 43.5996 180.819 43.1996 181.919 42.5329C183.019 41.8662 183.786 41.0496 184.219 40.0829C184.652 39.0829 184.869 38.0496 184.869 36.9829C184.869 34.9496 184.302 33.4329 183.169 32.4329C182.036 31.3996 180.736 30.8829 179.269 30.8829C178.169 30.8829 177.386 31.0829 176.919 31.4829C176.486 31.8496 176.269 32.6829 176.269 33.9829V57.2329C176.269 58.8662 176.519 59.8996 177.019 60.3329C177.519 60.7662 178.436 61.0162 179.769 61.0829V62.2329H165.519V61.0829C166.486 61.0162 167.186 60.7662 167.619 60.3329C168.052 59.8996 168.269 58.8662 168.269 57.2329V33.9829C168.269 32.3496 168.019 31.3162 167.519 30.8829C167.052 30.4162 166.136 30.1662 164.769 30.1329V28.9829H168.269C170.769 28.9829 173.036 28.9496 175.069 28.8829C177.102 28.7829 178.836 28.7329 180.269 28.7329C183.569 28.7329 186.186 29.0496 188.119 29.6829C190.086 30.2829 191.486 31.1329 192.319 32.2329C193.186 33.3329 193.619 34.5829 193.619 35.9829C193.619 37.3162 193.286 38.5329 192.619 39.6329C191.986 40.7329 191.136 41.6662 190.069 42.4329C189.036 43.1662 187.902 43.6829 186.669 43.9829V44.0829L194.969 57.0829C195.936 58.6162 196.819 59.6662 197.619 60.2329C198.419 60.7996 199.136 61.0829 199.769 61.0829V62.2329C199.102 62.4662 198.302 62.6496 197.369 62.7829C196.469 62.9162 195.586 62.9829 194.719 62.9829ZM218.332 62.9829C214.832 62.9829 211.732 62.2829 209.032 60.8829C206.332 59.4829 204.216 57.5162 202.682 54.9829C201.149 52.4162 200.382 49.4496 200.382 46.0829C200.382 43.3162 200.882 40.8496 201.882 38.6829C202.882 36.4829 204.249 34.5996 205.982 33.0329C207.749 31.4662 209.766 30.2829 212.032 29.4829C214.332 28.6496 216.782 28.2329 219.382 28.2329C221.349 28.2329 223.232 28.4162 225.032 28.7829C226.832 29.1496 228.266 29.5829 229.332 30.0829V37.9829H228.182C227.516 35.9496 226.716 34.3996 225.782 33.3329C224.849 32.2329 223.799 31.4662 222.632 31.0329C221.499 30.5996 220.299 30.3829 219.032 30.3829C212.599 30.3829 209.382 35.0496 209.382 44.3829C209.382 47.4496 209.699 50.2329 210.332 52.7329C210.999 55.2329 212.016 57.2162 213.382 58.6829C214.782 60.1162 216.566 60.8329 218.732 60.8329C220.499 60.8329 222.099 60.3996 223.532 59.5329C224.966 58.6329 226.182 57.4496 227.182 55.9829C228.216 54.5162 228.949 52.9329 229.382 51.2329H230.532L230.132 58.8329C229.032 60.0329 227.482 61.0329 225.482 61.8329C223.482 62.5996 221.099 62.9829 218.332 62.9829ZM251.709 28.2329C254.075 28.2329 256.275 28.6329 258.309 29.4329C260.342 30.2329 262.142 31.3996 263.709 32.9329C265.275 34.4329 266.492 36.2496 267.359 38.3829C268.225 40.5162 268.659 42.8996 268.659 45.5329C268.659 48.1662 268.225 50.5496 267.359 52.6829C266.492 54.8162 265.275 56.6496 263.709 58.1829C262.175 59.7162 260.375 60.8996 258.309 61.7329C256.242 62.5662 254.025 62.9829 251.659 62.9829C249.325 62.9829 247.125 62.5829 245.059 61.7829C243.025 60.9829 241.225 59.8329 239.659 58.3329C238.092 56.7996 236.875 54.9662 236.009 52.8329C235.142 50.6996 234.709 48.3162 234.709 45.6829C234.709 43.0496 235.142 40.6662 236.009 38.5329C236.875 36.3996 238.075 34.5662 239.609 33.0329C241.175 31.4996 242.992 30.3162 245.059 29.4829C247.125 28.6496 249.342 28.2329 251.709 28.2329ZM252.709 60.8329C254.442 60.8329 255.809 60.2662 256.809 59.1329C257.809 57.9662 258.525 56.3662 258.959 54.3329C259.425 52.2996 259.659 49.9329 259.659 47.2329C259.659 41.7996 258.825 37.6329 257.159 34.7329C255.525 31.8329 253.359 30.3829 250.659 30.3829C248.959 30.3829 247.592 30.9496 246.559 32.0829C245.559 33.2162 244.825 34.8162 244.359 36.8829C243.925 38.9162 243.709 41.2829 243.709 43.9829C243.709 49.4162 244.525 53.5829 246.159 56.4829C247.825 59.3829 250.009 60.8329 252.709 60.8329ZM291.805 62.6329C291.538 61.8662 291.205 61.0829 290.805 60.2829C290.438 59.4496 289.938 58.3662 289.305 57.0329L280.305 38.2329H280.205L279.305 57.2329C279.271 58.3662 279.538 59.2829 280.105 59.9829C280.671 60.6496 281.705 61.0162 283.205 61.0829V62.2329H273.955V61.0829C274.921 61.0162 275.605 60.6496 276.005 59.9829C276.438 59.2829 276.671 58.3662 276.705 57.2329L277.755 33.9829C277.821 32.8162 277.738 31.9829 277.505 31.4829C277.305 30.9829 276.938 30.6662 276.405 30.5329C275.871 30.3662 275.155 30.2329 274.255 30.1329V28.9829H284.955C285.221 29.8496 285.521 30.6662 285.855 31.4329C286.221 32.1996 286.621 33.0496 287.055 33.9829L295.655 51.9829H295.755L303.755 33.9829C304.521 32.2829 305.105 30.6162 305.505 28.9829H316.105V30.1329C315.471 30.1662 314.938 30.2662 314.505 30.4329C314.071 30.5996 313.755 30.9496 313.555 31.4829C313.388 31.9829 313.321 32.8162 313.355 33.9829L314.405 57.2329C314.471 58.2996 314.605 59.0996 314.805 59.6329C315.038 60.1662 315.405 60.5329 315.905 60.7329C316.405 60.8996 317.071 61.0162 317.905 61.0829V62.2329H303.655V61.0829C304.721 61.0162 305.455 60.7662 305.855 60.3329C306.288 59.8996 306.471 58.8662 306.405 57.2329L305.555 36.7829H305.455L296.405 57.0329C295.771 58.4329 295.305 59.5329 295.005 60.3329C294.738 61.0996 294.505 61.8662 294.305 62.6329H291.805ZM339.803 62.6329C339.536 61.8662 339.203 61.0829 338.803 60.2829C338.436 59.4496 337.936 58.3662 337.303 57.0329L328.303 38.2329H328.203L327.303 57.2329C327.269 58.3662 327.536 59.2829 328.103 59.9829C328.669 60.6496 329.703 61.0162 331.203 61.0829V62.2329H321.953V61.0829C322.919 61.0162 323.603 60.6496 324.003 59.9829C324.436 59.2829 324.669 58.3662 324.703 57.2329L325.753 33.9829C325.819 32.8162 325.736 31.9829 325.503 31.4829C325.303 30.9829 324.936 30.6662 324.403 30.5329C323.869 30.3662 323.153 30.2329 322.253 30.1329V28.9829H332.953C333.219 29.8496 333.519 30.6662 333.853 31.4329C334.219 32.1996 334.619 33.0496 335.053 33.9829L343.653 51.9829H343.753L351.753 33.9829C352.519 32.2829 353.103 30.6162 353.503 28.9829H364.103V30.1329C363.469 30.1662 362.936 30.2662 362.503 30.4329C362.069 30.5996 361.753 30.9496 361.553 31.4829C361.386 31.9829 361.319 32.8162 361.353 33.9829L362.403 57.2329C362.469 58.2996 362.603 59.0996 362.803 59.6329C363.036 60.1662 363.403 60.5329 363.903 60.7329C364.403 60.8996 365.069 61.0162 365.903 61.0829V62.2329H351.653V61.0829C352.719 61.0162 353.453 60.7662 353.853 60.3329C354.286 59.8996 354.469 58.8662 354.403 57.2329L353.553 36.7829H353.453L344.403 57.0329C343.769 58.4329 343.303 59.5329 343.003 60.3329C342.736 61.0996 342.503 61.8662 342.303 62.6329H339.803ZM405.127 52.9829H406.277L405.777 62.2329H381.677V61.0829C381.944 60.9496 382.344 60.7162 382.877 60.3829C383.444 60.0496 384.027 59.6662 384.627 59.2329C386.294 58.0329 387.861 56.6662 389.327 55.1329C390.794 53.5996 392.077 51.9662 393.177 50.2329C394.277 48.4996 395.144 46.7662 395.777 45.0329C396.411 43.2996 396.727 41.6496 396.727 40.0829C396.727 38.5829 396.361 37.3162 395.627 36.2829C394.927 35.2496 393.644 34.7329 391.777 34.7329C390.211 34.7329 388.761 35.1662 387.427 36.0329C386.094 36.8996 384.777 38.2496 383.477 40.0829L382.527 39.2829C383.894 35.8162 385.611 33.2329 387.677 31.5329C389.744 29.8329 392.327 28.9829 395.427 28.9829C397.227 28.9829 398.844 29.2829 400.277 29.8829C401.711 30.4496 402.844 31.3496 403.677 32.5829C404.544 33.7829 404.977 35.3496 404.977 37.2829C404.977 40.7162 403.877 43.9329 401.677 46.9329C399.511 49.9329 396.477 52.7496 392.577 55.3829V55.4829H399.877C401.777 55.4829 403.094 55.2496 403.827 54.7829C404.561 54.3162 404.994 53.7162 405.127 52.9829ZM426.408 28.9829C428.142 28.9829 429.842 29.3162 431.508 29.9829C433.175 30.6496 434.675 31.6829 436.008 33.0829C437.342 34.4829 438.392 36.2496 439.158 38.3829C439.958 40.4829 440.358 42.9829 440.358 45.8829C440.358 48.7496 439.975 51.2496 439.208 53.3829C438.442 55.5162 437.392 57.2996 436.058 58.7329C434.725 60.1662 433.225 61.2329 431.558 61.9329C429.892 62.6329 428.158 62.9829 426.358 62.9829C424.625 62.9829 422.925 62.6496 421.258 61.9829C419.592 61.3162 418.092 60.2829 416.758 58.8829C415.425 57.4829 414.358 55.7329 413.558 53.6329C412.792 51.4996 412.408 48.9829 412.408 46.0829C412.408 43.2162 412.792 40.7162 413.558 38.5829C414.325 36.4496 415.375 34.6662 416.708 33.2329C418.042 31.7996 419.542 30.7329 421.208 30.0329C422.875 29.3329 424.608 28.9829 426.408 28.9829ZM426.558 60.8329C427.525 60.8329 428.408 60.3996 429.208 59.5329C430.008 58.6662 430.642 57.1996 431.108 55.1329C431.608 53.0662 431.858 50.2329 431.858 46.6329C431.858 43.4996 431.642 40.7829 431.208 38.4829C430.808 36.1496 430.192 34.3496 429.358 33.0829C428.525 31.7829 427.475 31.1329 426.208 31.1329C425.275 31.1329 424.392 31.5662 423.558 32.4329C422.758 33.2996 422.108 34.7662 421.608 36.8329C421.142 38.8996 420.908 41.7329 420.908 45.3329C420.908 48.4662 421.108 51.1996 421.508 53.5329C421.942 55.8329 422.575 57.6329 423.408 58.9329C424.242 60.1996 425.292 60.8329 426.558 60.8329ZM467.969 52.9829H469.119L468.619 62.2329H444.519V61.0829C444.786 60.9496 445.186 60.7162 445.719 60.3829C446.286 60.0496 446.869 59.6662 447.469 59.2329C449.136 58.0329 450.702 56.6662 452.169 55.1329C453.636 53.5996 454.919 51.9662 456.019 50.2329C457.119 48.4996 457.986 46.7662 458.619 45.0329C459.252 43.2996 459.569 41.6496 459.569 40.0829C459.569 38.5829 459.202 37.3162 458.469 36.2829C457.769 35.2496 456.486 34.7329 454.619 34.7329C453.052 34.7329 451.602 35.1662 450.269 36.0329C448.936 36.8996 447.619 38.2496 446.319 40.0829L445.369 39.2829C446.736 35.8162 448.452 33.2329 450.519 31.5329C452.586 29.8329 455.169 28.9829 458.269 28.9829C460.069 28.9829 461.686 29.2829 463.119 29.8829C464.552 30.4496 465.686 31.3496 466.519 32.5829C467.386 33.7829 467.819 35.3496 467.819 37.2829C467.819 40.7162 466.719 43.9329 464.519 46.9329C462.352 49.9329 459.319 52.7496 455.419 55.3829V55.4829H462.719C464.619 55.4829 465.936 55.2496 466.669 54.7829C467.402 54.3162 467.836 53.7162 467.969 52.9829ZM495.75 49.4829H499.25V55.7329H497.15C496.217 55.7329 495.75 56.3162 495.75 57.4829C495.75 58.2829 495.75 59.0662 495.75 59.8329C495.783 60.5662 495.817 61.3662 495.85 62.2329H487.95C488.017 61.1329 488.067 60.0662 488.1 59.0329C488.133 57.9662 488.167 56.8662 488.2 55.7329H472.4V54.5829C473.267 53.7496 474.05 52.8829 474.75 51.9829L491.1 31.5329C491.467 31.0662 491.8 30.6162 492.1 30.1829C492.433 29.7162 492.7 29.3162 492.9 28.9829H495.8L495.75 49.4829ZM488.1 39.0329L479.75 49.4829H488.25V39.0329H488.1Z" fill="white"/>
<path d="M571.508 37.2528C564.531 34.4663 556.343 35.9524 550.761 41.5253C543.225 49.0488 543.225 61.2164 550.761 68.7398C556.343 74.3127 564.531 75.7989 571.508 73.0124V64.0957C570.113 64.7459 568.624 65.1174 567.043 65.1174C561.46 65.1174 556.995 60.6591 556.995 55.0861C556.995 49.5132 561.46 45.0549 567.043 45.0549C568.624 45.0549 570.206 45.4264 571.508 46.0766V37.2528Z" fill="white"/>
<path d="M568.347 28.3169C571.096 25.5615 571.096 21.0009 568.347 18.1505C565.599 15.3951 561.05 15.3951 558.206 18.1505C555.363 20.9059 555.458 25.4665 558.206 28.3169C561.05 31.0723 565.599 31.0723 568.347 28.3169Z" fill="white"/>
<path d="M617.658 62.2329V61.0829C618.624 61.0162 619.324 60.7662 619.758 60.3329C620.191 59.8996 620.408 58.8662 620.408 57.2329V33.9829C620.408 32.3496 620.158 31.3162 619.658 30.8829C619.191 30.4162 618.274 30.1662 616.908 30.1329V28.9829H631.158V30.1329C630.191 30.1662 629.491 30.4162 629.058 30.8829C628.624 31.3162 628.408 32.3496 628.408 33.9829V57.2329C628.408 58.8662 628.658 59.8996 629.158 60.3329C629.658 60.7662 630.574 61.0162 631.908 61.0829V62.2329H617.658ZM666.532 62.6329C666.032 62.0996 665.515 61.5829 664.982 61.0829C664.449 60.5496 663.599 59.7662 662.432 58.7329L642.732 40.7329H642.632V57.2329C642.632 58.3662 642.915 59.2829 643.482 59.9829C644.082 60.6496 645.099 61.0162 646.532 61.0829V62.2329H637.282V61.0829C638.249 61.0162 638.949 60.6496 639.382 59.9829C639.815 59.2829 640.032 58.3662 640.032 57.2329V33.9829C640.032 32.3496 639.782 31.3162 639.282 30.8829C638.815 30.4162 637.899 30.1662 636.532 30.1329V28.9829H642.532C643.032 29.6162 643.565 30.1829 644.132 30.6829C644.699 31.1829 645.349 31.7829 646.082 32.4829L665.982 50.4829H666.082V33.9829C666.082 32.8496 665.799 31.9329 665.232 31.2329C664.665 30.5329 663.649 30.1662 662.182 30.1329V28.9829H671.432V30.1329C670.465 30.1662 669.765 30.5329 669.332 31.2329C668.899 31.9329 668.682 32.8496 668.682 33.9829V57.2329C668.682 58.1662 668.682 59.0662 668.682 59.9329C668.715 60.7662 668.749 61.6662 668.782 62.6329H666.532ZM675.386 28.9829H703.886V37.2329H702.736C702.536 35.4329 702.003 33.9662 701.136 32.8329C700.27 31.6996 698.786 31.1329 696.686 31.1329H693.636V57.2329C693.636 58.8662 693.886 59.8996 694.386 60.3329C694.886 60.7662 695.803 61.0162 697.136 61.0829V62.2329H682.886V61.0829C683.853 61.0162 684.553 60.7662 684.986 60.3329C685.42 59.8996 685.636 58.8662 685.636 57.2329V31.1329H682.536C680.503 31.1329 679.036 31.6996 678.136 32.8329C677.27 33.9662 676.736 35.4329 676.536 37.2329H675.386V28.9829ZM708.423 62.2329V61.0829C709.39 61.0162 710.09 60.7662 710.523 60.3329C710.957 59.8996 711.173 58.8662 711.173 57.2329V33.9829C711.173 32.3496 710.923 31.3162 710.423 30.8829C709.957 30.4162 709.04 30.1662 707.673 30.1329V28.9829H732.223V35.9829H731.073C731.007 34.5496 730.507 33.3829 729.573 32.4829C728.673 31.5829 727.273 31.1329 725.373 31.1329H721.373C720.673 31.1329 720.123 31.3162 719.723 31.6829C719.357 32.0496 719.173 32.8162 719.173 33.9829V43.8329C719.44 43.6329 719.757 43.4996 720.123 43.4329C720.523 43.3662 720.99 43.3329 721.523 43.3329H726.373C727.373 43.3329 728.207 43.0496 728.873 42.4829C729.54 41.9162 729.89 41.1329 729.923 40.1329H731.073V48.6329H729.923C729.89 47.3996 729.54 46.5662 728.873 46.1329C728.207 45.6996 727.373 45.4829 726.373 45.4829H721.623C720.723 45.4829 720.09 45.6329 719.723 45.9329C719.357 46.2329 719.173 46.8162 719.173 47.6829V57.2329C719.173 58.3996 719.423 59.1662 719.923 59.5329C720.457 59.8996 721.473 60.0829 722.973 60.0829H727.723C729.723 60.0829 731.307 59.4829 732.473 58.2829C733.64 57.0829 734.29 55.6496 734.423 53.9829H735.573L735.173 62.2329H708.423ZM769.118 62.9829C767.618 62.9829 766.334 62.7329 765.268 62.2329C764.201 61.7662 763.301 61.1329 762.568 60.3329C761.834 59.5329 761.151 58.6496 760.518 57.6829L753.518 46.7829C753.184 46.2162 752.884 45.8662 752.618 45.7329C752.351 45.5996 752.034 45.5162 751.668 45.4829V43.7329C753.668 43.5996 755.218 43.1996 756.318 42.5329C757.418 41.8662 758.184 41.0496 758.618 40.0829C759.051 39.0829 759.268 38.0496 759.268 36.9829C759.268 34.9496 758.701 33.4329 757.568 32.4329C756.434 31.3996 755.134 30.8829 753.668 30.8829C752.568 30.8829 751.784 31.0829 751.318 31.4829C750.884 31.8496 750.668 32.6829 750.668 33.9829V57.2329C750.668 58.8662 750.918 59.8996 751.418 60.3329C751.918 60.7662 752.834 61.0162 754.168 61.0829V62.2329H739.918V61.0829C740.884 61.0162 741.584 60.7662 742.018 60.3329C742.451 59.8996 742.668 58.8662 742.668 57.2329V33.9829C742.668 32.3496 742.418 31.3162 741.918 30.8829C741.451 30.4162 740.534 30.1662 739.168 30.1329V28.9829H742.668C745.168 28.9829 747.434 28.9496 749.468 28.8829C751.501 28.7829 753.234 28.7329 754.668 28.7329C757.968 28.7329 760.584 29.0496 762.518 29.6829C764.484 30.2829 765.884 31.1329 766.718 32.2329C767.584 33.3329 768.018 34.5829 768.018 35.9829C768.018 37.3162 767.684 38.5329 767.018 39.6329C766.384 40.7329 765.534 41.6662 764.468 42.4329C763.434 43.1662 762.301 43.6829 761.068 43.9829V44.0829L769.368 57.0829C770.334 58.6162 771.218 59.6662 772.018 60.2329C772.818 60.7996 773.534 61.0829 774.168 61.0829V62.2329C773.501 62.4662 772.701 62.6496 771.768 62.7829C770.868 62.9162 769.984 62.9829 769.118 62.9829ZM792.731 62.9829C789.231 62.9829 786.131 62.2829 783.431 60.8829C780.731 59.4829 778.614 57.5162 777.081 54.9829C775.548 52.4162 774.781 49.4496 774.781 46.0829C774.781 43.3162 775.281 40.8496 776.281 38.6829C777.281 36.4829 778.648 34.5996 780.381 33.0329C782.148 31.4662 784.164 30.2829 786.431 29.4829C788.731 28.6496 791.181 28.2329 793.781 28.2329C795.748 28.2329 797.631 28.4162 799.431 28.7829C801.231 29.1496 802.664 29.5829 803.731 30.0829V37.9829H802.581C801.914 35.9496 801.114 34.3996 800.181 33.3329C799.248 32.2329 798.198 31.4662 797.031 31.0329C795.898 30.5996 794.698 30.3829 793.431 30.3829C786.998 30.3829 783.781 35.0496 783.781 44.3829C783.781 47.4496 784.098 50.2329 784.731 52.7329C785.398 55.2329 786.414 57.2162 787.781 58.6829C789.181 60.1162 790.964 60.8329 793.131 60.8329C794.898 60.8329 796.498 60.3996 797.931 59.5329C799.364 58.6329 800.581 57.4496 801.581 55.9829C802.614 54.5162 803.348 52.9329 803.781 51.2329H804.931L804.531 58.8329C803.431 60.0329 801.881 61.0329 799.881 61.8329C797.881 62.5996 795.498 62.9829 792.731 62.9829ZM826.107 28.2329C828.474 28.2329 830.674 28.6329 832.707 29.4329C834.74 30.2329 836.54 31.3996 838.107 32.9329C839.674 34.4329 840.89 36.2496 841.757 38.3829C842.624 40.5162 843.057 42.8996 843.057 45.5329C843.057 48.1662 842.624 50.5496 841.757 52.6829C840.89 54.8162 839.674 56.6496 838.107 58.1829C836.574 59.7162 834.774 60.8996 832.707 61.7329C830.64 62.5662 828.424 62.9829 826.057 62.9829C823.724 62.9829 821.524 62.5829 819.457 61.7829C817.424 60.9829 815.624 59.8329 814.057 58.3329C812.49 56.7996 811.274 54.9662 810.407 52.8329C809.54 50.6996 809.107 48.3162 809.107 45.6829C809.107 43.0496 809.54 40.6662 810.407 38.5329C811.274 36.3996 812.474 34.5662 814.007 33.0329C815.574 31.4996 817.39 30.3162 819.457 29.4829C821.524 28.6496 823.74 28.2329 826.107 28.2329ZM827.107 60.8329C828.84 60.8329 830.207 60.2662 831.207 59.1329C832.207 57.9662 832.924 56.3662 833.357 54.3329C833.824 52.2996 834.057 49.9329 834.057 47.2329C834.057 41.7996 833.224 37.6329 831.557 34.7329C829.924 31.8329 827.757 30.3829 825.057 30.3829C823.357 30.3829 821.99 30.9496 820.957 32.0829C819.957 33.2162 819.224 34.8162 818.757 36.8829C818.324 38.9162 818.107 41.2829 818.107 43.9829C818.107 49.4162 818.924 53.5829 820.557 56.4829C822.224 59.3829 824.407 60.8329 827.107 60.8329ZM866.203 62.6329C865.936 61.8662 865.603 61.0829 865.203 60.2829C864.836 59.4496 864.336 58.3662 863.703 57.0329L854.703 38.2329H854.603L853.703 57.2329C853.67 58.3662 853.936 59.2829 854.503 59.9829C855.07 60.6496 856.103 61.0162 857.603 61.0829V62.2329H848.353V61.0829C849.32 61.0162 850.003 60.6496 850.403 59.9829C850.836 59.2829 851.07 58.3662 851.103 57.2329L852.153 33.9829C852.22 32.8162 852.136 31.9829 851.903 31.4829C851.703 30.9829 851.336 30.6662 850.803 30.5329C850.27 30.3662 849.553 30.2329 848.653 30.1329V28.9829H859.353C859.62 29.8496 859.92 30.6662 860.253 31.4329C860.62 32.1996 861.02 33.0496 861.453 33.9829L870.053 51.9829H870.153L878.153 33.9829C878.92 32.2829 879.503 30.6162 879.903 28.9829H890.503V30.1329C889.87 30.1662 889.336 30.2662 888.903 30.4329C888.47 30.5996 888.153 30.9496 887.953 31.4829C887.786 31.9829 887.72 32.8162 887.753 33.9829L888.803 57.2329C888.87 58.2996 889.003 59.0996 889.203 59.6329C889.436 60.1662 889.803 60.5329 890.303 60.7329C890.803 60.8996 891.47 61.0162 892.303 61.0829V62.2329H878.053V61.0829C879.12 61.0162 879.853 60.7662 880.253 60.3329C880.686 59.8996 880.87 58.8662 880.803 57.2329L879.953 36.7829H879.853L870.803 57.0329C870.17 58.4329 869.703 59.5329 869.403 60.3329C869.136 61.0996 868.903 61.8662 868.703 62.6329H866.203ZM914.201 62.6329C913.935 61.8662 913.601 61.0829 913.201 60.2829C912.835 59.4496 912.335 58.3662 911.701 57.0329L902.701 38.2329H902.601L901.701 57.2329C901.668 58.3662 901.935 59.2829 902.501 59.9829C903.068 60.6496 904.101 61.0162 905.601 61.0829V62.2329H896.351V61.0829C897.318 61.0162 898.001 60.6496 898.401 59.9829C898.835 59.2829 899.068 58.3662 899.101 57.2329L900.151 33.9829C900.218 32.8162 900.135 31.9829 899.901 31.4829C899.701 30.9829 899.335 30.6662 898.801 30.5329C898.268 30.3662 897.551 30.2329 896.651 30.1329V28.9829H907.351C907.618 29.8496 907.918 30.6662 908.251 31.4329C908.618 32.1996 909.018 33.0496 909.451 33.9829L918.051 51.9829H918.151L926.151 33.9829C926.918 32.2829 927.501 30.6162 927.901 28.9829H938.501V30.1329C937.868 30.1662 937.335 30.2662 936.901 30.4329C936.468 30.5996 936.151 30.9496 935.951 31.4829C935.785 31.9829 935.718 32.8162 935.751 33.9829L936.801 57.2329C936.868 58.2996 937.001 59.0996 937.201 59.6329C937.435 60.1662 937.801 60.5329 938.301 60.7329C938.801 60.8996 939.468 61.0162 940.301 61.0829V62.2329H926.051V61.0829C927.118 61.0162 927.851 60.7662 928.251 60.3329C928.685 59.8996 928.868 58.8662 928.801 57.2329L927.951 36.7829H927.851L918.801 57.0329C918.168 58.4329 917.701 59.5329 917.401 60.3329C917.135 61.0996 916.901 61.8662 916.701 62.6329H914.201ZM979.526 52.9829H980.676L980.176 62.2329H956.076V61.0829C956.342 60.9496 956.742 60.7162 957.276 60.3829C957.842 60.0496 958.426 59.6662 959.026 59.2329C960.692 58.0329 962.259 56.6662 963.726 55.1329C965.192 53.5996 966.476 51.9662 967.576 50.2329C968.676 48.4996 969.542 46.7662 970.176 45.0329C970.809 43.2996 971.126 41.6496 971.126 40.0829C971.126 38.5829 970.759 37.3162 970.026 36.2829C969.326 35.2496 968.042 34.7329 966.176 34.7329C964.609 34.7329 963.159 35.1662 961.826 36.0329C960.492 36.8996 959.176 38.2496 957.876 40.0829L956.926 39.2829C958.292 35.8162 960.009 33.2329 962.076 31.5329C964.142 29.8329 966.726 28.9829 969.826 28.9829C971.626 28.9829 973.242 29.2829 974.676 29.8829C976.109 30.4496 977.242 31.3496 978.076 32.5829C978.942 33.7829 979.376 35.3496 979.376 37.2829C979.376 40.7162 978.276 43.9329 976.076 46.9329C973.909 49.9329 970.876 52.7496 966.976 55.3829V55.4829H974.276C976.176 55.4829 977.492 55.2496 978.226 54.7829C978.959 54.3162 979.392 53.7162 979.526 52.9829ZM1000.81 28.9829C1002.54 28.9829 1004.24 29.3162 1005.91 29.9829C1007.57 30.6496 1009.07 31.6829 1010.41 33.0829C1011.74 34.4829 1012.79 36.2496 1013.56 38.3829C1014.36 40.4829 1014.76 42.9829 1014.76 45.8829C1014.76 48.7496 1014.37 51.2496 1013.61 53.3829C1012.84 55.5162 1011.79 57.2996 1010.46 58.7329C1009.12 60.1662 1007.62 61.2329 1005.96 61.9329C1004.29 62.6329 1002.56 62.9829 1000.76 62.9829C999.023 62.9829 997.323 62.6496 995.657 61.9829C993.99 61.3162 992.49 60.2829 991.157 58.8829C989.823 57.4829 988.757 55.7329 987.957 53.6329C987.19 51.4996 986.807 48.9829 986.807 46.0829C986.807 43.2162 987.19 40.7162 987.957 38.5829C988.723 36.4496 989.773 34.6662 991.107 33.2329C992.44 31.7996 993.94 30.7329 995.607 30.0329C997.273 29.3329 999.007 28.9829 1000.81 28.9829ZM1000.96 60.8329C1001.92 60.8329 1002.81 60.3996 1003.61 59.5329C1004.41 58.6662 1005.04 57.1996 1005.51 55.1329C1006.01 53.0662 1006.26 50.2329 1006.26 46.6329C1006.26 43.4996 1006.04 40.7829 1005.61 38.4829C1005.21 36.1496 1004.59 34.3496 1003.76 33.0829C1002.92 31.7829 1001.87 31.1329 1000.61 31.1329C999.673 31.1329 998.79 31.5662 997.957 32.4329C997.157 33.2996 996.507 34.7662 996.007 36.8329C995.54 38.8996 995.307 41.7329 995.307 45.3329C995.307 48.4662 995.507 51.1996 995.907 53.5329C996.34 55.8329 996.973 57.6329 997.807 58.9329C998.64 60.1996 999.69 60.8329 1000.96 60.8329ZM1042.37 52.9829H1043.52L1043.02 62.2329H1018.92V61.0829C1019.18 60.9496 1019.58 60.7162 1020.12 60.3829C1020.68 60.0496 1021.27 59.6662 1021.87 59.2329C1023.53 58.0329 1025.1 56.6662 1026.57 55.1329C1028.03 53.5996 1029.32 51.9662 1030.42 50.2329C1031.52 48.4996 1032.38 46.7662 1033.02 45.0329C1033.65 43.2996 1033.97 41.6496 1033.97 40.0829C1033.97 38.5829 1033.6 37.3162 1032.87 36.2829C1032.17 35.2496 1030.88 34.7329 1029.02 34.7329C1027.45 34.7329 1026 35.1662 1024.67 36.0329C1023.33 36.8996 1022.02 38.2496 1020.72 40.0829L1019.77 39.2829C1021.13 35.8162 1022.85 33.2329 1024.92 31.5329C1026.98 29.8329 1029.57 28.9829 1032.67 28.9829C1034.47 28.9829 1036.08 29.2829 1037.52 29.8829C1038.95 30.4496 1040.08 31.3496 1040.92 32.5829C1041.78 33.7829 1042.22 35.3496 1042.22 37.2829C1042.22 40.7162 1041.12 43.9329 1038.92 46.9329C1036.75 49.9329 1033.72 52.7496 1029.82 55.3829V55.4829H1037.12C1039.02 55.4829 1040.33 55.2496 1041.07 54.7829C1041.8 54.3162 1042.23 53.7162 1042.37 52.9829ZM1070.15 49.4829H1073.65V55.7329H1071.55C1070.62 55.7329 1070.15 56.3162 1070.15 57.4829C1070.15 58.2829 1070.15 59.0662 1070.15 59.8329C1070.18 60.5662 1070.22 61.3662 1070.25 62.2329H1062.35C1062.42 61.1329 1062.47 60.0662 1062.5 59.0329C1062.53 57.9662 1062.57 56.8662 1062.6 55.7329H1046.8V54.5829C1047.67 53.7496 1048.45 52.8829 1049.15 51.9829L1065.5 31.5329C1065.87 31.0662 1066.2 30.6162 1066.5 30.1829C1066.83 29.7162 1067.1 29.3162 1067.3 28.9829H1070.2L1070.15 49.4829ZM1062.5 39.0329L1054.15 49.4829H1062.65V39.0329H1062.5Z" fill="white"/>
<path d="M1145.91 37.2528C1138.93 34.4663 1130.74 35.9524 1125.16 41.5253C1117.62 49.0488 1117.62 61.2164 1125.16 68.7398C1130.74 74.3127 1138.93 75.7989 1145.91 73.0124V64.0957C1144.51 64.7459 1143.02 65.1174 1141.44 65.1174C1135.86 65.1174 1131.39 60.6591 1131.39 55.0861C1131.39 49.5132 1135.86 45.0549 1141.44 45.0549C1143.02 45.0549 1144.6 45.4264 1145.91 46.0766V37.2528Z" fill="white"/>
<path d="M1142.75 28.3169C1145.49 25.5615 1145.49 21.0009 1142.75 18.1505C1140 15.3951 1135.45 15.3951 1132.6 18.1505C1129.76 20.9059 1129.86 25.4665 1132.6 28.3169C1135.45 31.0723 1140 31.0723 1142.75 28.3169Z" fill="white"/>
<path d="M1192.06 62.2329V61.0829C1193.02 61.0162 1193.72 60.7662 1194.16 60.3329C1194.59 59.8996 1194.81 58.8662 1194.81 57.2329V33.9829C1194.81 32.3496 1194.56 31.3162 1194.06 30.8829C1193.59 30.4162 1192.67 30.1662 1191.31 30.1329V28.9829H1205.56V30.1329C1204.59 30.1662 1203.89 30.4162 1203.46 30.8829C1203.02 31.3162 1202.81 32.3496 1202.81 33.9829V57.2329C1202.81 58.8662 1203.06 59.8996 1203.56 60.3329C1204.06 60.7662 1204.97 61.0162 1206.31 61.0829V62.2329H1192.06ZM1240.93 62.6329C1240.43 62.0996 1239.91 61.5829 1239.38 61.0829C1238.85 60.5496 1238 59.7662 1236.83 58.7329L1217.13 40.7329H1217.03V57.2329C1217.03 58.3662 1217.31 59.2829 1217.88 59.9829C1218.48 60.6496 1219.5 61.0162 1220.93 61.0829V62.2329H1211.68V61.0829C1212.65 61.0162 1213.35 60.6496 1213.78 59.9829C1214.21 59.2829 1214.43 58.3662 1214.43 57.2329V33.9829C1214.43 32.3496 1214.18 31.3162 1213.68 30.8829C1213.21 30.4162 1212.3 30.1662 1210.93 30.1329V28.9829H1216.93C1217.43 29.6162 1217.96 30.1829 1218.53 30.6829C1219.1 31.1829 1219.75 31.7829 1220.48 32.4829L1240.38 50.4829H1240.48V33.9829C1240.48 32.8496 1240.2 31.9329 1239.63 31.2329C1239.06 30.5329 1238.05 30.1662 1236.58 30.1329V28.9829H1245.83V30.1329C1244.86 30.1662 1244.16 30.5329 1243.73 31.2329C1243.3 31.9329 1243.08 32.8496 1243.08 33.9829V57.2329C1243.08 58.1662 1243.08 59.0662 1243.08 59.9329C1243.11 60.7662 1243.15 61.6662 1243.18 62.6329H1240.93ZM1249.78 28.9829H1278.28V37.2329H1277.13C1276.93 35.4329 1276.4 33.9662 1275.53 32.8329C1274.67 31.6996 1273.18 31.1329 1271.08 31.1329H1268.03V57.2329C1268.03 58.8662 1268.28 59.8996 1268.78 60.3329C1269.28 60.7662 1270.2 61.0162 1271.53 61.0829V62.2329H1257.28V61.0829C1258.25 61.0162 1258.95 60.7662 1259.38 60.3329C1259.82 59.8996 1260.03 58.8662 1260.03 57.2329V31.1329H1256.93C1254.9 31.1329 1253.43 31.6996 1252.53 32.8329C1251.67 33.9662 1251.13 35.4329 1250.93 37.2329H1249.78V28.9829ZM1282.82 62.2329V61.0829C1283.79 61.0162 1284.49 60.7662 1284.92 60.3329C1285.36 59.8996 1285.57 58.8662 1285.57 57.2329V33.9829C1285.57 32.3496 1285.32 31.3162 1284.82 30.8829C1284.36 30.4162 1283.44 30.1662 1282.07 30.1329V28.9829H1306.62V35.9829H1305.47C1305.41 34.5496 1304.91 33.3829 1303.97 32.4829C1303.07 31.5829 1301.67 31.1329 1299.77 31.1329H1295.77C1295.07 31.1329 1294.52 31.3162 1294.12 31.6829C1293.76 32.0496 1293.57 32.8162 1293.57 33.9829V43.8329C1293.84 43.6329 1294.16 43.4996 1294.52 43.4329C1294.92 43.3662 1295.39 43.3329 1295.92 43.3329H1300.77C1301.77 43.3329 1302.61 43.0496 1303.27 42.4829C1303.94 41.9162 1304.29 41.1329 1304.32 40.1329H1305.47V48.6329H1304.32C1304.29 47.3996 1303.94 46.5662 1303.27 46.1329C1302.61 45.6996 1301.77 45.4829 1300.77 45.4829H1296.02C1295.12 45.4829 1294.49 45.6329 1294.12 45.9329C1293.76 46.2329 1293.57 46.8162 1293.57 47.6829V57.2329C1293.57 58.3996 1293.82 59.1662 1294.32 59.5329C1294.86 59.8996 1295.87 60.0829 1297.37 60.0829H1302.12C1304.12 60.0829 1305.71 59.4829 1306.87 58.2829C1308.04 57.0829 1308.69 55.6496 1308.82 53.9829H1309.97L1309.57 62.2329H1282.82ZM1343.52 62.9829C1342.02 62.9829 1340.73 62.7329 1339.67 62.2329C1338.6 61.7662 1337.7 61.1329 1336.97 60.3329C1336.23 59.5329 1335.55 58.6496 1334.92 57.6829L1327.92 46.7829C1327.58 46.2162 1327.28 45.8662 1327.02 45.7329C1326.75 45.5996 1326.43 45.5162 1326.07 45.4829V43.7329C1328.07 43.5996 1329.62 43.1996 1330.72 42.5329C1331.82 41.8662 1332.58 41.0496 1333.02 40.0829C1333.45 39.0829 1333.67 38.0496 1333.67 36.9829C1333.67 34.9496 1333.1 33.4329 1331.97 32.4329C1330.83 31.3996 1329.53 30.8829 1328.07 30.8829C1326.97 30.8829 1326.18 31.0829 1325.72 31.4829C1325.28 31.8496 1325.07 32.6829 1325.07 33.9829V57.2329C1325.07 58.8662 1325.32 59.8996 1325.82 60.3329C1326.32 60.7662 1327.23 61.0162 1328.57 61.0829V62.2329H1314.32V61.0829C1315.28 61.0162 1315.98 60.7662 1316.42 60.3329C1316.85 59.8996 1317.07 58.8662 1317.07 57.2329V33.9829C1317.07 32.3496 1316.82 31.3162 1316.32 30.8829C1315.85 30.4162 1314.93 30.1662 1313.57 30.1329V28.9829H1317.07C1319.57 28.9829 1321.83 28.9496 1323.87 28.8829C1325.9 28.7829 1327.63 28.7329 1329.07 28.7329C1332.37 28.7329 1334.98 29.0496 1336.92 29.6829C1338.88 30.2829 1340.28 31.1329 1341.12 32.2329C1341.98 33.3329 1342.42 34.5829 1342.42 35.9829C1342.42 37.3162 1342.08 38.5329 1341.42 39.6329C1340.78 40.7329 1339.93 41.6662 1338.87 42.4329C1337.83 43.1662 1336.7 43.6829 1335.47 43.9829V44.0829L1343.77 57.0829C1344.73 58.6162 1345.62 59.6662 1346.42 60.2329C1347.22 60.7996 1347.93 61.0829 1348.57 61.0829V62.2329C1347.9 62.4662 1347.1 62.6496 1346.17 62.7829C1345.27 62.9162 1344.38 62.9829 1343.52 62.9829ZM1367.13 62.9829C1363.63 62.9829 1360.53 62.2829 1357.83 60.8829C1355.13 59.4829 1353.01 57.5162 1351.48 54.9829C1349.95 52.4162 1349.18 49.4496 1349.18 46.0829C1349.18 43.3162 1349.68 40.8496 1350.68 38.6829C1351.68 36.4829 1353.05 34.5996 1354.78 33.0329C1356.55 31.4662 1358.56 30.2829 1360.83 29.4829C1363.13 28.6496 1365.58 28.2329 1368.18 28.2329C1370.15 28.2329 1372.03 28.4162 1373.83 28.7829C1375.63 29.1496 1377.06 29.5829 1378.13 30.0829V37.9829H1376.98C1376.31 35.9496 1375.51 34.3996 1374.58 33.3329C1373.65 32.2329 1372.6 31.4662 1371.43 31.0329C1370.3 30.5996 1369.1 30.3829 1367.83 30.3829C1361.4 30.3829 1358.18 35.0496 1358.18 44.3829C1358.18 47.4496 1358.5 50.2329 1359.13 52.7329C1359.8 55.2329 1360.81 57.2162 1362.18 58.6829C1363.58 60.1162 1365.36 60.8329 1367.53 60.8329C1369.3 60.8329 1370.9 60.3996 1372.33 59.5329C1373.76 58.6329 1374.98 57.4496 1375.98 55.9829C1377.01 54.5162 1377.75 52.9329 1378.18 51.2329H1379.33L1378.93 58.8329C1377.83 60.0329 1376.28 61.0329 1374.28 61.8329C1372.28 62.5996 1369.9 62.9829 1367.13 62.9829ZM1400.51 28.2329C1402.87 28.2329 1405.07 28.6329 1407.11 29.4329C1409.14 30.2329 1410.94 31.3996 1412.51 32.9329C1414.07 34.4329 1415.29 36.2496 1416.16 38.3829C1417.02 40.5162 1417.46 42.8996 1417.46 45.5329C1417.46 48.1662 1417.02 50.5496 1416.16 52.6829C1415.29 54.8162 1414.07 56.6496 1412.51 58.1829C1410.97 59.7162 1409.17 60.8996 1407.11 61.7329C1405.04 62.5662 1402.82 62.9829 1400.46 62.9829C1398.12 62.9829 1395.92 62.5829 1393.86 61.7829C1391.82 60.9829 1390.02 59.8329 1388.46 58.3329C1386.89 56.7996 1385.67 54.9662 1384.81 52.8329C1383.94 50.6996 1383.51 48.3162 1383.51 45.6829C1383.51 43.0496 1383.94 40.6662 1384.81 38.5329C1385.67 36.3996 1386.87 34.5662 1388.41 33.0329C1389.97 31.4996 1391.79 30.3162 1393.86 29.4829C1395.92 28.6496 1398.14 28.2329 1400.51 28.2329ZM1401.51 60.8329C1403.24 60.8329 1404.61 60.2662 1405.61 59.1329C1406.61 57.9662 1407.32 56.3662 1407.76 54.3329C1408.22 52.2996 1408.46 49.9329 1408.46 47.2329C1408.46 41.7996 1407.62 37.6329 1405.96 34.7329C1404.32 31.8329 1402.16 30.3829 1399.46 30.3829C1397.76 30.3829 1396.39 30.9496 1395.36 32.0829C1394.36 33.2162 1393.62 34.8162 1393.16 36.8829C1392.72 38.9162 1392.51 41.2829 1392.51 43.9829C1392.51 49.4162 1393.32 53.5829 1394.96 56.4829C1396.62 59.3829 1398.81 60.8329 1401.51 60.8329ZM1440.6 62.6329C1440.33 61.8662 1440 61.0829 1439.6 60.2829C1439.23 59.4496 1438.73 58.3662 1438.1 57.0329L1429.1 38.2329H1429L1428.1 57.2329C1428.07 58.3662 1428.33 59.2829 1428.9 59.9829C1429.47 60.6496 1430.5 61.0162 1432 61.0829V62.2329H1422.75V61.0829C1423.72 61.0162 1424.4 60.6496 1424.8 59.9829C1425.23 59.2829 1425.47 58.3662 1425.5 57.2329L1426.55 33.9829C1426.62 32.8162 1426.53 31.9829 1426.3 31.4829C1426.1 30.9829 1425.73 30.6662 1425.2 30.5329C1424.67 30.3662 1423.95 30.2329 1423.05 30.1329V28.9829H1433.75C1434.02 29.8496 1434.32 30.6662 1434.65 31.4329C1435.02 32.1996 1435.42 33.0496 1435.85 33.9829L1444.45 51.9829H1444.55L1452.55 33.9829C1453.32 32.2829 1453.9 30.6162 1454.3 28.9829H1464.9V30.1329C1464.27 30.1662 1463.73 30.2662 1463.3 30.4329C1462.87 30.5996 1462.55 30.9496 1462.35 31.4829C1462.18 31.9829 1462.12 32.8162 1462.15 33.9829L1463.2 57.2329C1463.27 58.2996 1463.4 59.0996 1463.6 59.6329C1463.83 60.1662 1464.2 60.5329 1464.7 60.7329C1465.2 60.8996 1465.87 61.0162 1466.7 61.0829V62.2329H1452.45V61.0829C1453.52 61.0162 1454.25 60.7662 1454.65 60.3329C1455.08 59.8996 1455.27 58.8662 1455.2 57.2329L1454.35 36.7829H1454.25L1445.2 57.0329C1444.57 58.4329 1444.1 59.5329 1443.8 60.3329C1443.53 61.0996 1443.3 61.8662 1443.1 62.6329H1440.6ZM1488.6 62.6329C1488.33 61.8662 1488 61.0829 1487.6 60.2829C1487.23 59.4496 1486.73 58.3662 1486.1 57.0329L1477.1 38.2329H1477L1476.1 57.2329C1476.07 58.3662 1476.33 59.2829 1476.9 59.9829C1477.47 60.6496 1478.5 61.0162 1480 61.0829V62.2329H1470.75V61.0829C1471.72 61.0162 1472.4 60.6496 1472.8 59.9829C1473.23 59.2829 1473.47 58.3662 1473.5 57.2329L1474.55 33.9829C1474.62 32.8162 1474.53 31.9829 1474.3 31.4829C1474.1 30.9829 1473.73 30.6662 1473.2 30.5329C1472.67 30.3662 1471.95 30.2329 1471.05 30.1329V28.9829H1481.75C1482.02 29.8496 1482.32 30.6662 1482.65 31.4329C1483.02 32.1996 1483.42 33.0496 1483.85 33.9829L1492.45 51.9829H1492.55L1500.55 33.9829C1501.32 32.2829 1501.9 30.6162 1502.3 28.9829H1512.9V30.1329C1512.27 30.1662 1511.73 30.2662 1511.3 30.4329C1510.87 30.5996 1510.55 30.9496 1510.35 31.4829C1510.18 31.9829 1510.12 32.8162 1510.15 33.9829L1511.2 57.2329C1511.27 58.2996 1511.4 59.0996 1511.6 59.6329C1511.83 60.1662 1512.2 60.5329 1512.7 60.7329C1513.2 60.8996 1513.87 61.0162 1514.7 61.0829V62.2329H1500.45V61.0829C1501.52 61.0162 1502.25 60.7662 1502.65 60.3329C1503.08 59.8996 1503.27 58.8662 1503.2 57.2329L1502.35 36.7829H1502.25L1493.2 57.0329C1492.57 58.4329 1492.1 59.5329 1491.8 60.3329C1491.53 61.0996 1491.3 61.8662 1491.1 62.6329H1488.6ZM1553.92 52.9829H1555.07L1554.57 62.2329H1530.47V61.0829C1530.74 60.9496 1531.14 60.7162 1531.67 60.3829C1532.24 60.0496 1532.82 59.6662 1533.42 59.2329C1535.09 58.0329 1536.66 56.6662 1538.12 55.1329C1539.59 53.5996 1540.87 51.9662 1541.97 50.2329C1543.07 48.4996 1543.94 46.7662 1544.57 45.0329C1545.21 43.2996 1545.52 41.6496 1545.52 40.0829C1545.52 38.5829 1545.16 37.3162 1544.42 36.2829C1543.72 35.2496 1542.44 34.7329 1540.57 34.7329C1539.01 34.7329 1537.56 35.1662 1536.22 36.0329C1534.89 36.8996 1533.57 38.2496 1532.27 40.0829L1531.32 39.2829C1532.69 35.8162 1534.41 33.2329 1536.47 31.5329C1538.54 29.8329 1541.12 28.9829 1544.22 28.9829C1546.02 28.9829 1547.64 29.2829 1549.07 29.8829C1550.51 30.4496 1551.64 31.3496 1552.47 32.5829C1553.34 33.7829 1553.77 35.3496 1553.77 37.2829C1553.77 40.7162 1552.67 43.9329 1550.47 46.9329C1548.31 49.9329 1545.27 52.7496 1541.37 55.3829V55.4829H1548.67C1550.57 55.4829 1551.89 55.2496 1552.62 54.7829C1553.36 54.3162 1553.79 53.7162 1553.92 52.9829ZM1575.21 28.9829C1576.94 28.9829 1578.64 29.3162 1580.31 29.9829C1581.97 30.6496 1583.47 31.6829 1584.81 33.0829C1586.14 34.4829 1587.19 36.2496 1587.96 38.3829C1588.76 40.4829 1589.16 42.9829 1589.16 45.8829C1589.16 48.7496 1588.77 51.2496 1588.01 53.3829C1587.24 55.5162 1586.19 57.2996 1584.86 58.7329C1583.52 60.1662 1582.02 61.2329 1580.36 61.9329C1578.69 62.6329 1576.96 62.9829 1575.16 62.9829C1573.42 62.9829 1571.72 62.6496 1570.06 61.9829C1568.39 61.3162 1566.89 60.2829 1565.56 58.8829C1564.22 57.4829 1563.16 55.7329 1562.36 53.6329C1561.59 51.4996 1561.21 48.9829 1561.21 46.0829C1561.21 43.2162 1561.59 40.7162 1562.36 38.5829C1563.12 36.4496 1564.17 34.6662 1565.51 33.2329C1566.84 31.7996 1568.34 30.7329 1570.01 30.0329C1571.67 29.3329 1573.41 28.9829 1575.21 28.9829ZM1575.36 60.8329C1576.32 60.8329 1577.21 60.3996 1578.01 59.5329C1578.81 58.6662 1579.44 57.1996 1579.91 55.1329C1580.41 53.0662 1580.66 50.2329 1580.66 46.6329C1580.66 43.4996 1580.44 40.7829 1580.01 38.4829C1579.61 36.1496 1578.99 34.3496 1578.16 33.0829C1577.32 31.7829 1576.27 31.1329 1575.01 31.1329C1574.07 31.1329 1573.19 31.5662 1572.36 32.4329C1571.56 33.2996 1570.91 34.7662 1570.41 36.8329C1569.94 38.8996 1569.71 41.7329 1569.71 45.3329C1569.71 48.4662 1569.91 51.1996 1570.31 53.5329C1570.74 55.8329 1571.37 57.6329 1572.21 58.9329C1573.04 60.1996 1574.09 60.8329 1575.36 60.8329ZM1616.77 52.9829H1617.92L1617.42 62.2329H1593.32V61.0829C1593.58 60.9496 1593.98 60.7162 1594.52 60.3829C1595.08 60.0496 1595.67 59.6662 1596.27 59.2329C1597.93 58.0329 1599.5 56.6662 1600.97 55.1329C1602.43 53.5996 1603.72 51.9662 1604.82 50.2329C1605.92 48.4996 1606.78 46.7662 1607.42 45.0329C1608.05 43.2996 1608.37 41.6496 1608.37 40.0829C1608.37 38.5829 1608 37.3162 1607.27 36.2829C1606.57 35.2496 1605.28 34.7329 1603.42 34.7329C1601.85 34.7329 1600.4 35.1662 1599.07 36.0329C1597.73 36.8996 1596.42 38.2496 1595.12 40.0829L1594.17 39.2829C1595.53 35.8162 1597.25 33.2329 1599.32 31.5329C1601.38 29.8329 1603.97 28.9829 1607.07 28.9829C1608.87 28.9829 1610.48 29.2829 1611.92 29.8829C1613.35 30.4496 1614.48 31.3496 1615.32 32.5829C1616.18 33.7829 1616.62 35.3496 1616.62 37.2829C1616.62 40.7162 1615.52 43.9329 1613.32 46.9329C1611.15 49.9329 1608.12 52.7496 1604.22 55.3829V55.4829H1611.52C1613.42 55.4829 1614.73 55.2496 1615.47 54.7829C1616.2 54.3162 1616.63 53.7162 1616.77 52.9829ZM1644.55 49.4829H1648.05V55.7329H1645.95C1645.01 55.7329 1644.55 56.3162 1644.55 57.4829C1644.55 58.2829 1644.55 59.0662 1644.55 59.8329C1644.58 60.5662 1644.61 61.3662 1644.65 62.2329H1636.75C1636.81 61.1329 1636.86 60.0662 1636.9 59.0329C1636.93 57.9662 1636.96 56.8662 1637 55.7329H1621.2V54.5829C1622.06 53.7496 1622.85 52.8829 1623.55 51.9829L1639.9 31.5329C1640.26 31.0662 1640.6 30.6162 1640.9 30.1829C1641.23 29.7162 1641.5 29.3162 1641.7 28.9829H1644.6L1644.55 49.4829ZM1636.9 39.0329L1628.55 49.4829H1637.05V39.0329H1636.9Z" fill="white"/>
<path d="M1720.31 37.2528C1713.33 34.4663 1705.14 35.9524 1699.56 41.5253C1692.02 49.0488 1692.02 61.2164 1699.56 68.7398C1705.14 74.3127 1713.33 75.7989 1720.31 73.0124V64.0957C1718.91 64.7459 1717.42 65.1174 1715.84 65.1174C1710.26 65.1174 1705.79 60.6591 1705.79 55.0861C1705.79 49.5132 1710.26 45.0549 1715.84 45.0549C1717.42 45.0549 1719 45.4264 1720.31 46.0766V37.2528Z" fill="white"/>
<path d="M1717.14 28.3169C1719.89 25.5615 1719.89 21.0009 1717.14 18.1505C1714.4 15.3951 1709.85 15.3951 1707 18.1505C1704.16 20.9059 1704.25 25.4665 1707 28.3169C1709.85 31.0723 1714.4 31.0723 1717.14 28.3169Z" fill="white"/>
<path d="M1766.45 62.2329V61.0829C1767.42 61.0162 1768.12 60.7662 1768.55 60.3329C1768.99 59.8996 1769.2 58.8662 1769.2 57.2329V33.9829C1769.2 32.3496 1768.95 31.3162 1768.45 30.8829C1767.99 30.4162 1767.07 30.1662 1765.7 30.1329V28.9829H1779.95V30.1329C1778.99 30.1662 1778.29 30.4162 1777.85 30.8829C1777.42 31.3162 1777.2 32.3496 1777.2 33.9829V57.2329C1777.2 58.8662 1777.45 59.8996 1777.95 60.3329C1778.45 60.7662 1779.37 61.0162 1780.7 61.0829V62.2329H1766.45ZM1815.33 62.6329C1814.83 62.0996 1814.31 61.5829 1813.78 61.0829C1813.25 60.5496 1812.4 59.7662 1811.23 58.7329L1791.53 40.7329H1791.43V57.2329C1791.43 58.3662 1791.71 59.2829 1792.28 59.9829C1792.88 60.6496 1793.9 61.0162 1795.33 61.0829V62.2329H1786.08V61.0829C1787.05 61.0162 1787.75 60.6496 1788.18 59.9829C1788.61 59.2829 1788.83 58.3662 1788.83 57.2329V33.9829C1788.83 32.3496 1788.58 31.3162 1788.08 30.8829C1787.61 30.4162 1786.7 30.1662 1785.33 30.1329V28.9829H1791.33C1791.83 29.6162 1792.36 30.1829 1792.93 30.6829C1793.5 31.1829 1794.15 31.7829 1794.88 32.4829L1814.78 50.4829H1814.88V33.9829C1814.88 32.8496 1814.6 31.9329 1814.03 31.2329C1813.46 30.5329 1812.45 30.1662 1810.98 30.1329V28.9829H1820.23V30.1329C1819.26 30.1662 1818.56 30.5329 1818.13 31.2329C1817.7 31.9329 1817.48 32.8496 1817.48 33.9829V57.2329C1817.48 58.1662 1817.48 59.0662 1817.48 59.9329C1817.51 60.7662 1817.55 61.6662 1817.58 62.6329H1815.33ZM1824.18 28.9829H1852.68V37.2329H1851.53C1851.33 35.4329 1850.8 33.9662 1849.93 32.8329C1849.07 31.6996 1847.58 31.1329 1845.48 31.1329H1842.43V57.2329C1842.43 58.8662 1842.68 59.8996 1843.18 60.3329C1843.68 60.7662 1844.6 61.0162 1845.93 61.0829V62.2329H1831.68V61.0829C1832.65 61.0162 1833.35 60.7662 1833.78 60.3329C1834.22 59.8996 1834.43 58.8662 1834.43 57.2329V31.1329H1831.33C1829.3 31.1329 1827.83 31.6996 1826.93 32.8329C1826.07 33.9662 1825.53 35.4329 1825.33 37.2329H1824.18V28.9829ZM1857.22 62.2329V61.0829C1858.19 61.0162 1858.89 60.7662 1859.32 60.3329C1859.75 59.8996 1859.97 58.8662 1859.97 57.2329V33.9829C1859.97 32.3496 1859.72 31.3162 1859.22 30.8829C1858.75 30.4162 1857.84 30.1662 1856.47 30.1329V28.9829H1881.02V35.9829H1879.87C1879.8 34.5496 1879.3 33.3829 1878.37 32.4829C1877.47 31.5829 1876.07 31.1329 1874.17 31.1329H1870.17C1869.47 31.1329 1868.92 31.3162 1868.52 31.6829C1868.15 32.0496 1867.97 32.8162 1867.97 33.9829V43.8329C1868.24 43.6329 1868.55 43.4996 1868.92 43.4329C1869.32 43.3662 1869.79 43.3329 1870.32 43.3329H1875.17C1876.17 43.3329 1877 43.0496 1877.67 42.4829C1878.34 41.9162 1878.69 41.1329 1878.72 40.1329H1879.87V48.6329H1878.72C1878.69 47.3996 1878.34 46.5662 1877.67 46.1329C1877 45.6996 1876.17 45.4829 1875.17 45.4829H1870.42C1869.52 45.4829 1868.89 45.6329 1868.52 45.9329C1868.15 46.2329 1867.97 46.8162 1867.97 47.6829V57.2329C1867.97 58.3996 1868.22 59.1662 1868.72 59.5329C1869.25 59.8996 1870.27 60.0829 1871.77 60.0829H1876.52C1878.52 60.0829 1880.1 59.4829 1881.27 58.2829C1882.44 57.0829 1883.09 55.6496 1883.22 53.9829H1884.37L1883.97 62.2329H1857.22ZM1917.91 62.9829C1916.41 62.9829 1915.13 62.7329 1914.06 62.2329C1913 61.7662 1912.1 61.1329 1911.36 60.3329C1910.63 59.5329 1909.95 58.6496 1909.31 57.6829L1902.31 46.7829C1901.98 46.2162 1901.68 45.8662 1901.41 45.7329C1901.15 45.5996 1900.83 45.5162 1900.46 45.4829V43.7329C1902.46 43.5996 1904.01 43.1996 1905.11 42.5329C1906.21 41.8662 1906.98 41.0496 1907.41 40.0829C1907.85 39.0829 1908.06 38.0496 1908.06 36.9829C1908.06 34.9496 1907.5 33.4329 1906.36 32.4329C1905.23 31.3996 1903.93 30.8829 1902.46 30.8829C1901.36 30.8829 1900.58 31.0829 1900.11 31.4829C1899.68 31.8496 1899.46 32.6829 1899.46 33.9829V57.2329C1899.46 58.8662 1899.71 59.8996 1900.21 60.3329C1900.71 60.7662 1901.63 61.0162 1902.96 61.0829V62.2329H1888.71V61.0829C1889.68 61.0162 1890.38 60.7662 1890.81 60.3329C1891.25 59.8996 1891.46 58.8662 1891.46 57.2329V33.9829C1891.46 32.3496 1891.21 31.3162 1890.71 30.8829C1890.25 30.4162 1889.33 30.1662 1887.96 30.1329V28.9829H1891.46C1893.96 28.9829 1896.23 28.9496 1898.26 28.8829C1900.3 28.7829 1902.03 28.7329 1903.46 28.7329C1906.76 28.7329 1909.38 29.0496 1911.31 29.6829C1913.28 30.2829 1914.68 31.1329 1915.51 32.2329C1916.38 33.3329 1916.81 34.5829 1916.81 35.9829C1916.81 37.3162 1916.48 38.5329 1915.81 39.6329C1915.18 40.7329 1914.33 41.6662 1913.26 42.4329C1912.23 43.1662 1911.1 43.6829 1909.86 43.9829V44.0829L1918.16 57.0829C1919.13 58.6162 1920.01 59.6662 1920.81 60.2329C1921.61 60.7996 1922.33 61.0829 1922.96 61.0829V62.2329C1922.3 62.4662 1921.5 62.6496 1920.56 62.7829C1919.66 62.9162 1918.78 62.9829 1917.91 62.9829ZM1941.53 62.9829C1938.03 62.9829 1934.93 62.2829 1932.23 60.8829C1929.53 59.4829 1927.41 57.5162 1925.88 54.9829C1924.34 52.4162 1923.58 49.4496 1923.58 46.0829C1923.58 43.3162 1924.08 40.8496 1925.08 38.6829C1926.08 36.4829 1927.44 34.5996 1929.18 33.0329C1930.94 31.4662 1932.96 30.2829 1935.23 29.4829C1937.53 28.6496 1939.98 28.2329 1942.58 28.2329C1944.54 28.2329 1946.43 28.4162 1948.23 28.7829C1950.03 29.1496 1951.46 29.5829 1952.53 30.0829V37.9829H1951.38C1950.71 35.9496 1949.91 34.3996 1948.98 33.3329C1948.04 32.2329 1946.99 31.4662 1945.83 31.0329C1944.69 30.5996 1943.49 30.3829 1942.23 30.3829C1935.79 30.3829 1932.58 35.0496 1932.58 44.3829C1932.58 47.4496 1932.89 50.2329 1933.53 52.7329C1934.19 55.2329 1935.21 57.2162 1936.58 58.6829C1937.98 60.1162 1939.76 60.8329 1941.93 60.8329C1943.69 60.8329 1945.29 60.3996 1946.73 59.5329C1948.16 58.6329 1949.38 57.4496 1950.38 55.9829C1951.41 54.5162 1952.14 52.9329 1952.58 51.2329H1953.73L1953.33 58.8329C1952.23 60.0329 1950.68 61.0329 1948.68 61.8329C1946.68 62.5996 1944.29 62.9829 1941.53 62.9829ZM1974.9 28.2329C1977.27 28.2329 1979.47 28.6329 1981.5 29.4329C1983.54 30.2329 1985.34 31.3996 1986.9 32.9329C1988.47 34.4329 1989.69 36.2496 1990.55 38.3829C1991.42 40.5162 1991.85 42.8996 1991.85 45.5329C1991.85 48.1662 1991.42 50.5496 1990.55 52.6829C1989.69 54.8162 1988.47 56.6496 1986.9 58.1829C1985.37 59.7162 1983.57 60.8996 1981.5 61.7329C1979.44 62.5662 1977.22 62.9829 1974.85 62.9829C1972.52 62.9829 1970.32 62.5829 1968.25 61.7829C1966.22 60.9829 1964.42 59.8329 1962.85 58.3329C1961.29 56.7996 1960.07 54.9662 1959.2 52.8329C1958.34 50.6996 1957.9 48.3162 1957.9 45.6829C1957.9 43.0496 1958.34 40.6662 1959.2 38.5329C1960.07 36.3996 1961.27 34.5662 1962.8 33.0329C1964.37 31.4996 1966.19 30.3162 1968.25 29.4829C1970.32 28.6496 1972.54 28.2329 1974.9 28.2329ZM1975.9 60.8329C1977.64 60.8329 1979 60.2662 1980 59.1329C1981 57.9662 1981.72 56.3662 1982.15 54.3329C1982.62 52.2996 1982.85 49.9329 1982.85 47.2329C1982.85 41.7996 1982.02 37.6329 1980.35 34.7329C1978.72 31.8329 1976.55 30.3829 1973.85 30.3829C1972.15 30.3829 1970.79 30.9496 1969.75 32.0829C1968.75 33.2162 1968.02 34.8162 1967.55 36.8829C1967.12 38.9162 1966.9 41.2829 1966.9 43.9829C1966.9 49.4162 1967.72 53.5829 1969.35 56.4829C1971.02 59.3829 1973.2 60.8329 1975.9 60.8329ZM2015 62.6329C2014.73 61.8662 2014.4 61.0829 2014 60.2829C2013.63 59.4496 2013.13 58.3662 2012.5 57.0329L2003.5 38.2329H2003.4L2002.5 57.2329C2002.47 58.3662 2002.73 59.2829 2003.3 59.9829C2003.87 60.6496 2004.9 61.0162 2006.4 61.0829V62.2329H1997.15V61.0829C1998.12 61.0162 1998.8 60.6496 1999.2 59.9829C1999.63 59.2829 1999.87 58.3662 1999.9 57.2329L2000.95 33.9829C2001.02 32.8162 2000.93 31.9829 2000.7 31.4829C2000.5 30.9829 2000.13 30.6662 1999.6 30.5329C1999.07 30.3662 1998.35 30.2329 1997.45 30.1329V28.9829H2008.15C2008.42 29.8496 2008.72 30.6662 2009.05 31.4329C2009.42 32.1996 2009.82 33.0496 2010.25 33.9829L2018.85 51.9829H2018.95L2026.95 33.9829C2027.72 32.2829 2028.3 30.6162 2028.7 28.9829H2039.3V30.1329C2038.67 30.1662 2038.13 30.2662 2037.7 30.4329C2037.27 30.5996 2036.95 30.9496 2036.75 31.4829C2036.58 31.9829 2036.52 32.8162 2036.55 33.9829L2037.6 57.2329C2037.67 58.2996 2037.8 59.0996 2038 59.6329C2038.23 60.1662 2038.6 60.5329 2039.1 60.7329C2039.6 60.8996 2040.27 61.0162 2041.1 61.0829V62.2329H2026.85V61.0829C2027.92 61.0162 2028.65 60.7662 2029.05 60.3329C2029.48 59.8996 2029.67 58.8662 2029.6 57.2329L2028.75 36.7829H2028.65L2019.6 57.0329C2018.97 58.4329 2018.5 59.5329 2018.2 60.3329C2017.93 61.0996 2017.7 61.8662 2017.5 62.6329H2015ZM2063 62.6329C2062.73 61.8662 2062.4 61.0829 2062 60.2829C2061.63 59.4496 2061.13 58.3662 2060.5 57.0329L2051.5 38.2329H2051.4L2050.5 57.2329C2050.46 58.3662 2050.73 59.2829 2051.3 59.9829C2051.86 60.6496 2052.9 61.0162 2054.4 61.0829V62.2329H2045.15V61.0829C2046.11 61.0162 2046.8 60.6496 2047.2 59.9829C2047.63 59.2829 2047.86 58.3662 2047.9 57.2329L2048.95 33.9829C2049.01 32.8162 2048.93 31.9829 2048.7 31.4829C2048.5 30.9829 2048.13 30.6662 2047.6 30.5329C2047.06 30.3662 2046.35 30.2329 2045.45 30.1329V28.9829H2056.15C2056.41 29.8496 2056.71 30.6662 2057.05 31.4329C2057.41 32.1996 2057.81 33.0496 2058.25 33.9829L2066.85 51.9829H2066.95L2074.95 33.9829C2075.71 32.2829 2076.3 30.6162 2076.7 28.9829H2087.3V30.1329C2086.66 30.1662 2086.13 30.2662 2085.7 30.4329C2085.26 30.5996 2084.95 30.9496 2084.75 31.4829C2084.58 31.9829 2084.51 32.8162 2084.55 33.9829L2085.6 57.2329C2085.66 58.2996 2085.8 59.0996 2086 59.6329C2086.23 60.1662 2086.6 60.5329 2087.1 60.7329C2087.6 60.8996 2088.26 61.0162 2089.1 61.0829V62.2329H2074.85V61.0829C2075.91 61.0162 2076.65 60.7662 2077.05 60.3329C2077.48 59.8996 2077.66 58.8662 2077.6 57.2329L2076.75 36.7829H2076.65L2067.6 57.0329C2066.96 58.4329 2066.5 59.5329 2066.2 60.3329C2065.93 61.0996 2065.7 61.8662 2065.5 62.6329H2063ZM2128.32 52.9829H2129.47L2128.97 62.2329H2104.87V61.0829C2105.14 60.9496 2105.54 60.7162 2106.07 60.3829C2106.64 60.0496 2107.22 59.6662 2107.82 59.2329C2109.49 58.0329 2111.06 56.6662 2112.52 55.1329C2113.99 53.5996 2115.27 51.9662 2116.37 50.2329C2117.47 48.4996 2118.34 46.7662 2118.97 45.0329C2119.61 43.2996 2119.92 41.6496 2119.92 40.0829C2119.92 38.5829 2119.56 37.3162 2118.82 36.2829C2118.12 35.2496 2116.84 34.7329 2114.97 34.7329C2113.41 34.7329 2111.96 35.1662 2110.62 36.0329C2109.29 36.8996 2107.97 38.2496 2106.67 40.0829L2105.72 39.2829C2107.09 35.8162 2108.81 33.2329 2110.87 31.5329C2112.94 29.8329 2115.52 28.9829 2118.62 28.9829C2120.42 28.9829 2122.04 29.2829 2123.47 29.8829C2124.91 30.4496 2126.04 31.3496 2126.87 32.5829C2127.74 33.7829 2128.17 35.3496 2128.17 37.2829C2128.17 40.7162 2127.07 43.9329 2124.87 46.9329C2122.71 49.9329 2119.67 52.7496 2115.77 55.3829V55.4829H2123.07C2124.97 55.4829 2126.29 55.2496 2127.02 54.7829C2127.76 54.3162 2128.19 53.7162 2128.32 52.9829ZM2149.6 28.9829C2151.34 28.9829 2153.04 29.3162 2154.7 29.9829C2156.37 30.6496 2157.87 31.6829 2159.2 33.0829C2160.54 34.4829 2161.59 36.2496 2162.35 38.3829C2163.15 40.4829 2163.55 42.9829 2163.55 45.8829C2163.55 48.7496 2163.17 51.2496 2162.4 53.3829C2161.64 55.5162 2160.59 57.2996 2159.25 58.7329C2157.92 60.1662 2156.42 61.2329 2154.75 61.9329C2153.09 62.6329 2151.35 62.9829 2149.55 62.9829C2147.82 62.9829 2146.12 62.6496 2144.45 61.9829C2142.79 61.3162 2141.29 60.2829 2139.95 58.8829C2138.62 57.4829 2137.55 55.7329 2136.75 53.6329C2135.99 51.4996 2135.6 48.9829 2135.6 46.0829C2135.6 43.2162 2135.99 40.7162 2136.75 38.5829C2137.52 36.4496 2138.57 34.6662 2139.9 33.2329C2141.24 31.7996 2142.74 30.7329 2144.4 30.0329C2146.07 29.3329 2147.8 28.9829 2149.6 28.9829ZM2149.75 60.8329C2150.72 60.8329 2151.6 60.3996 2152.4 59.5329C2153.2 58.6662 2153.84 57.1996 2154.3 55.1329C2154.8 53.0662 2155.05 50.2329 2155.05 46.6329C2155.05 43.4996 2154.84 40.7829 2154.4 38.4829C2154 36.1496 2153.39 34.3496 2152.55 33.0829C2151.72 31.7829 2150.67 31.1329 2149.4 31.1329C2148.47 31.1329 2147.59 31.5662 2146.75 32.4329C2145.95 33.2996 2145.3 34.7662 2144.8 36.8329C2144.34 38.8996 2144.1 41.7329 2144.1 45.3329C2144.1 48.4662 2144.3 51.1996 2144.7 53.5329C2145.14 55.8329 2145.77 57.6329 2146.6 58.9329C2147.44 60.1996 2148.49 60.8329 2149.75 60.8329ZM2191.16 52.9829H2192.31L2191.81 62.2329H2167.71V61.0829C2167.98 60.9496 2168.38 60.7162 2168.91 60.3829C2169.48 60.0496 2170.06 59.6662 2170.66 59.2329C2172.33 58.0329 2173.9 56.6662 2175.36 55.1329C2176.83 53.5996 2178.11 51.9662 2179.21 50.2329C2180.31 48.4996 2181.18 46.7662 2181.81 45.0329C2182.45 43.2996 2182.76 41.6496 2182.76 40.0829C2182.76 38.5829 2182.4 37.3162 2181.66 36.2829C2180.96 35.2496 2179.68 34.7329 2177.81 34.7329C2176.25 34.7329 2174.8 35.1662 2173.46 36.0329C2172.13 36.8996 2170.81 38.2496 2169.51 40.0829L2168.56 39.2829C2169.93 35.8162 2171.65 33.2329 2173.71 31.5329C2175.78 29.8329 2178.36 28.9829 2181.46 28.9829C2183.26 28.9829 2184.88 29.2829 2186.31 29.8829C2187.75 30.4496 2188.88 31.3496 2189.71 32.5829C2190.58 33.7829 2191.01 35.3496 2191.01 37.2829C2191.01 40.7162 2189.91 43.9329 2187.71 46.9329C2185.55 49.9329 2182.51 52.7496 2178.61 55.3829V55.4829H2185.91C2187.81 55.4829 2189.13 55.2496 2189.86 54.7829C2190.6 54.3162 2191.03 53.7162 2191.16 52.9829ZM2218.95 49.4829H2222.45V55.7329H2220.35C2219.41 55.7329 2218.95 56.3162 2218.95 57.4829C2218.95 58.2829 2218.95 59.0662 2218.95 59.8329C2218.98 60.5662 2219.01 61.3662 2219.05 62.2329H2211.15C2211.21 61.1329 2211.26 60.0662 2211.3 59.0329C2211.33 57.9662 2211.36 56.8662 2211.4 55.7329H2195.6V54.5829C2196.46 53.7496 2197.25 52.8829 2197.95 51.9829L2214.3 31.5329C2214.66 31.0662 2215 30.6162 2215.3 30.1829C2215.63 29.7162 2215.9 29.3162 2216.1 28.9829H2219L2218.95 49.4829ZM2211.3 39.0329L2202.95 49.4829H2211.45V39.0329H2211.3Z" fill="white"/>
<path d="M2294.7 37.2528C2287.73 34.4663 2279.54 35.9524 2273.96 41.5253C2266.42 49.0488 2266.42 61.2164 2273.96 68.7398C2279.54 74.3127 2287.73 75.7989 2294.7 73.0124V64.0957C2293.31 64.7459 2291.82 65.1174 2290.24 65.1174C2284.66 65.1174 2280.19 60.6591 2280.19 55.0861C2280.19 49.5132 2284.66 45.0549 2290.24 45.0549C2291.82 45.0549 2293.4 45.4264 2294.7 46.0766V37.2528Z" fill="white"/>
<path d="M2291.54 28.3169C2294.29 25.5615 2294.29 21.0009 2291.54 18.1505C2288.79 15.3951 2284.25 15.3951 2281.4 18.1505C2278.56 20.9059 2278.65 25.4665 2281.4 28.3169C2284.25 31.0723 2288.79 31.0723 2291.54 28.3169Z" fill="white"/>
<path d="M2340.85 62.2329V61.0829C2341.82 61.0162 2342.52 60.7662 2342.95 60.3329C2343.39 59.8996 2343.6 58.8662 2343.6 57.2329V33.9829C2343.6 32.3496 2343.35 31.3162 2342.85 30.8829C2342.39 30.4162 2341.47 30.1662 2340.1 30.1329V28.9829H2354.35V30.1329C2353.39 30.1662 2352.69 30.4162 2352.25 30.8829C2351.82 31.3162 2351.6 32.3496 2351.6 33.9829V57.2329C2351.6 58.8662 2351.85 59.8996 2352.35 60.3329C2352.85 60.7662 2353.77 61.0162 2355.1 61.0829V62.2329H2340.85ZM2389.73 62.6329C2389.23 62.0996 2388.71 61.5829 2388.18 61.0829C2387.64 60.5496 2386.79 59.7662 2385.63 58.7329L2365.93 40.7329H2365.83V57.2329C2365.83 58.3662 2366.11 59.2829 2366.68 59.9829C2367.28 60.6496 2368.29 61.0162 2369.73 61.0829V62.2329H2360.48V61.0829C2361.44 61.0162 2362.14 60.6496 2362.58 59.9829C2363.01 59.2829 2363.23 58.3662 2363.23 57.2329V33.9829C2363.23 32.3496 2362.98 31.3162 2362.48 30.8829C2362.01 30.4162 2361.09 30.1662 2359.73 30.1329V28.9829H2365.73C2366.23 29.6162 2366.76 30.1829 2367.33 30.6829C2367.89 31.1829 2368.54 31.7829 2369.28 32.4829L2389.18 50.4829H2389.28V33.9829C2389.28 32.8496 2388.99 31.9329 2388.43 31.2329C2387.86 30.5329 2386.84 30.1662 2385.38 30.1329V28.9829H2394.63V30.1329C2393.66 30.1662 2392.96 30.5329 2392.53 31.2329C2392.09 31.9329 2391.88 32.8496 2391.88 33.9829V57.2329C2391.88 58.1662 2391.88 59.0662 2391.88 59.9329C2391.91 60.7662 2391.94 61.6662 2391.98 62.6329H2389.73ZM2398.58 28.9829H2427.08V37.2329H2425.93C2425.73 35.4329 2425.2 33.9662 2424.33 32.8329C2423.46 31.6996 2421.98 31.1329 2419.88 31.1329H2416.83V57.2329C2416.83 58.8662 2417.08 59.8996 2417.58 60.3329C2418.08 60.7662 2419 61.0162 2420.33 61.0829V62.2329H2406.08V61.0829C2407.05 61.0162 2407.75 60.7662 2408.18 60.3329C2408.61 59.8996 2408.83 58.8662 2408.83 57.2329V31.1329H2405.73C2403.7 31.1329 2402.23 31.6996 2401.33 32.8329C2400.46 33.9662 2399.93 35.4329 2399.73 37.2329H2398.58V28.9829ZM2431.62 62.2329V61.0829C2432.59 61.0162 2433.29 60.7662 2433.72 60.3329C2434.15 59.8996 2434.37 58.8662 2434.37 57.2329V33.9829C2434.37 32.3496 2434.12 31.3162 2433.62 30.8829C2433.15 30.4162 2432.24 30.1662 2430.87 30.1329V28.9829H2455.42V35.9829H2454.27C2454.2 34.5496 2453.7 33.3829 2452.77 32.4829C2451.87 31.5829 2450.47 31.1329 2448.57 31.1329H2444.57C2443.87 31.1329 2443.32 31.3162 2442.92 31.6829C2442.55 32.0496 2442.37 32.8162 2442.37 33.9829V43.8329C2442.64 43.6329 2442.95 43.4996 2443.32 43.4329C2443.72 43.3662 2444.19 43.3329 2444.72 43.3329H2449.57C2450.57 43.3329 2451.4 43.0496 2452.07 42.4829C2452.74 41.9162 2453.09 41.1329 2453.12 40.1329H2454.27V48.6329H2453.12C2453.09 47.3996 2452.74 46.5662 2452.07 46.1329C2451.4 45.6996 2450.57 45.4829 2449.57 45.4829H2444.82C2443.92 45.4829 2443.29 45.6329 2442.92 45.9329C2442.55 46.2329 2442.37 46.8162 2442.37 47.6829V57.2329C2442.37 58.3996 2442.62 59.1662 2443.12 59.5329C2443.65 59.8996 2444.67 60.0829 2446.17 60.0829H2450.92C2452.92 60.0829 2454.5 59.4829 2455.67 58.2829C2456.84 57.0829 2457.49 55.6496 2457.62 53.9829H2458.77L2458.37 62.2329H2431.62ZM2492.31 62.9829C2490.81 62.9829 2489.53 62.7329 2488.46 62.2329C2487.4 61.7662 2486.5 61.1329 2485.76 60.3329C2485.03 59.5329 2484.35 58.6496 2483.71 57.6829L2476.71 46.7829C2476.38 46.2162 2476.08 45.8662 2475.81 45.7329C2475.55 45.5996 2475.23 45.5162 2474.86 45.4829V43.7329C2476.86 43.5996 2478.41 43.1996 2479.51 42.5329C2480.61 41.8662 2481.38 41.0496 2481.81 40.0829C2482.25 39.0829 2482.46 38.0496 2482.46 36.9829C2482.46 34.9496 2481.9 33.4329 2480.76 32.4329C2479.63 31.3996 2478.33 30.8829 2476.86 30.8829C2475.76 30.8829 2474.98 31.0829 2474.51 31.4829C2474.08 31.8496 2473.86 32.6829 2473.86 33.9829V57.2329C2473.86 58.8662 2474.11 59.8996 2474.61 60.3329C2475.11 60.7662 2476.03 61.0162 2477.36 61.0829V62.2329H2463.11V61.0829C2464.08 61.0162 2464.78 60.7662 2465.21 60.3329C2465.65 59.8996 2465.86 58.8662 2465.86 57.2329V33.9829C2465.86 32.3496 2465.61 31.3162 2465.11 30.8829C2464.65 30.4162 2463.73 30.1662 2462.36 30.1329V28.9829H2465.86C2468.36 28.9829 2470.63 28.9496 2472.66 28.8829C2474.7 28.7829 2476.43 28.7329 2477.86 28.7329C2481.16 28.7329 2483.78 29.0496 2485.71 29.6829C2487.68 30.2829 2489.08 31.1329 2489.91 32.2329C2490.78 33.3329 2491.21 34.5829 2491.21 35.9829C2491.21 37.3162 2490.88 38.5329 2490.21 39.6329C2489.58 40.7329 2488.73 41.6662 2487.66 42.4329C2486.63 43.1662 2485.5 43.6829 2484.26 43.9829V44.0829L2492.56 57.0829C2493.53 58.6162 2494.41 59.6662 2495.21 60.2329C2496.01 60.7996 2496.73 61.0829 2497.36 61.0829V62.2329C2496.7 62.4662 2495.9 62.6496 2494.96 62.7829C2494.06 62.9162 2493.18 62.9829 2492.31 62.9829ZM2515.93 62.9829C2512.43 62.9829 2509.33 62.2829 2506.63 60.8829C2503.93 59.4829 2501.81 57.5162 2500.28 54.9829C2498.74 52.4162 2497.98 49.4496 2497.98 46.0829C2497.98 43.3162 2498.48 40.8496 2499.48 38.6829C2500.48 36.4829 2501.84 34.5996 2503.58 33.0329C2505.34 31.4662 2507.36 30.2829 2509.63 29.4829C2511.93 28.6496 2514.38 28.2329 2516.98 28.2329C2518.94 28.2329 2520.83 28.4162 2522.63 28.7829C2524.43 29.1496 2525.86 29.5829 2526.93 30.0829V37.9829H2525.78C2525.11 35.9496 2524.31 34.3996 2523.38 33.3329C2522.44 32.2329 2521.39 31.4662 2520.23 31.0329C2519.09 30.5996 2517.89 30.3829 2516.63 30.3829C2510.19 30.3829 2506.98 35.0496 2506.98 44.3829C2506.98 47.4496 2507.29 50.2329 2507.93 52.7329C2508.59 55.2329 2509.61 57.2162 2510.98 58.6829C2512.38 60.1162 2514.16 60.8329 2516.33 60.8329C2518.09 60.8329 2519.69 60.3996 2521.13 59.5329C2522.56 58.6329 2523.78 57.4496 2524.78 55.9829C2525.81 54.5162 2526.54 52.9329 2526.98 51.2329H2528.13L2527.73 58.8329C2526.63 60.0329 2525.08 61.0329 2523.08 61.8329C2521.08 62.5996 2518.69 62.9829 2515.93 62.9829ZM2549.3 28.2329C2551.67 28.2329 2553.87 28.6329 2555.9 29.4329C2557.94 30.2329 2559.74 31.3996 2561.3 32.9329C2562.87 34.4329 2564.09 36.2496 2564.95 38.3829C2565.82 40.5162 2566.25 42.8996 2566.25 45.5329C2566.25 48.1662 2565.82 50.5496 2564.95 52.6829C2564.09 54.8162 2562.87 56.6496 2561.3 58.1829C2559.77 59.7162 2557.97 60.8996 2555.9 61.7329C2553.84 62.5662 2551.62 62.9829 2549.25 62.9829C2546.92 62.9829 2544.72 62.5829 2542.65 61.7829C2540.62 60.9829 2538.82 59.8329 2537.25 58.3329C2535.69 56.7996 2534.47 54.9662 2533.6 52.8329C2532.74 50.6996 2532.3 48.3162 2532.3 45.6829C2532.3 43.0496 2532.74 40.6662 2533.6 38.5329C2534.47 36.3996 2535.67 34.5662 2537.2 33.0329C2538.77 31.4996 2540.59 30.3162 2542.65 29.4829C2544.72 28.6496 2546.94 28.2329 2549.3 28.2329ZM2550.3 60.8329C2552.04 60.8329 2553.4 60.2662 2554.4 59.1329C2555.4 57.9662 2556.12 56.3662 2556.55 54.3329C2557.02 52.2996 2557.25 49.9329 2557.25 47.2329C2557.25 41.7996 2556.42 37.6329 2554.75 34.7329C2553.12 31.8329 2550.95 30.3829 2548.25 30.3829C2546.55 30.3829 2545.19 30.9496 2544.15 32.0829C2543.15 33.2162 2542.42 34.8162 2541.95 36.8829C2541.52 38.9162 2541.3 41.2829 2541.3 43.9829C2541.3 49.4162 2542.12 53.5829 2543.75 56.4829C2545.42 59.3829 2547.6 60.8329 2550.3 60.8329ZM2589.4 62.6329C2589.13 61.8662 2588.8 61.0829 2588.4 60.2829C2588.03 59.4496 2587.53 58.3662 2586.9 57.0329L2577.9 38.2329H2577.8L2576.9 57.2329C2576.87 58.3662 2577.13 59.2829 2577.7 59.9829C2578.27 60.6496 2579.3 61.0162 2580.8 61.0829V62.2329H2571.55V61.0829C2572.52 61.0162 2573.2 60.6496 2573.6 59.9829C2574.03 59.2829 2574.27 58.3662 2574.3 57.2329L2575.35 33.9829C2575.42 32.8162 2575.33 31.9829 2575.1 31.4829C2574.9 30.9829 2574.53 30.6662 2574 30.5329C2573.47 30.3662 2572.75 30.2329 2571.85 30.1329V28.9829H2582.55C2582.82 29.8496 2583.12 30.6662 2583.45 31.4329C2583.82 32.1996 2584.22 33.0496 2584.65 33.9829L2593.25 51.9829H2593.35L2601.35 33.9829C2602.12 32.2829 2602.7 30.6162 2603.1 28.9829H2613.7V30.1329C2613.07 30.1662 2612.53 30.2662 2612.1 30.4329C2611.67 30.5996 2611.35 30.9496 2611.15 31.4829C2610.98 31.9829 2610.92 32.8162 2610.95 33.9829L2612 57.2329C2612.07 58.2996 2612.2 59.0996 2612.4 59.6329C2612.63 60.1662 2613 60.5329 2613.5 60.7329C2614 60.8996 2614.67 61.0162 2615.5 61.0829V62.2329H2601.25V61.0829C2602.32 61.0162 2603.05 60.7662 2603.45 60.3329C2603.88 59.8996 2604.07 58.8662 2604 57.2329L2603.15 36.7829H2603.05L2594 57.0329C2593.37 58.4329 2592.9 59.5329 2592.6 60.3329C2592.33 61.0996 2592.1 61.8662 2591.9 62.6329H2589.4ZM2637.4 62.6329C2637.13 61.8662 2636.8 61.0829 2636.4 60.2829C2636.03 59.4496 2635.53 58.3662 2634.9 57.0329L2625.9 38.2329H2625.8L2624.9 57.2329C2624.86 58.3662 2625.13 59.2829 2625.7 59.9829C2626.26 60.6496 2627.3 61.0162 2628.8 61.0829V62.2329H2619.55V61.0829C2620.51 61.0162 2621.2 60.6496 2621.6 59.9829C2622.03 59.2829 2622.26 58.3662 2622.3 57.2329L2623.35 33.9829C2623.41 32.8162 2623.33 31.9829 2623.1 31.4829C2622.9 30.9829 2622.53 30.6662 2622 30.5329C2621.46 30.3662 2620.75 30.2329 2619.85 30.1329V28.9829H2630.55C2630.81 29.8496 2631.11 30.6662 2631.45 31.4329C2631.81 32.1996 2632.21 33.0496 2632.65 33.9829L2641.25 51.9829H2641.35L2649.35 33.9829C2650.11 32.2829 2650.7 30.6162 2651.1 28.9829H2661.7V30.1329C2661.06 30.1662 2660.53 30.2662 2660.1 30.4329C2659.66 30.5996 2659.35 30.9496 2659.15 31.4829C2658.98 31.9829 2658.91 32.8162 2658.95 33.9829L2660 57.2329C2660.06 58.2996 2660.2 59.0996 2660.4 59.6329C2660.63 60.1662 2661 60.5329 2661.5 60.7329C2662 60.8996 2662.66 61.0162 2663.5 61.0829V62.2329H2649.25V61.0829C2650.31 61.0162 2651.05 60.7662 2651.45 60.3329C2651.88 59.8996 2652.06 58.8662 2652 57.2329L2651.15 36.7829H2651.05L2642 57.0329C2641.36 58.4329 2640.9 59.5329 2640.6 60.3329C2640.33 61.0996 2640.1 61.8662 2639.9 62.6329H2637.4ZM2702.72 52.9829H2703.87L2703.37 62.2329H2679.27V61.0829C2679.54 60.9496 2679.94 60.7162 2680.47 60.3829C2681.04 60.0496 2681.62 59.6662 2682.22 59.2329C2683.89 58.0329 2685.45 56.6662 2686.92 55.1329C2688.39 53.5996 2689.67 51.9662 2690.77 50.2329C2691.87 48.4996 2692.74 46.7662 2693.37 45.0329C2694 43.2996 2694.32 41.6496 2694.32 40.0829C2694.32 38.5829 2693.95 37.3162 2693.22 36.2829C2692.52 35.2496 2691.24 34.7329 2689.37 34.7329C2687.8 34.7329 2686.35 35.1662 2685.02 36.0329C2683.69 36.8996 2682.37 38.2496 2681.07 40.0829L2680.12 39.2829C2681.49 35.8162 2683.2 33.2329 2685.27 31.5329C2687.34 29.8329 2689.92 28.9829 2693.02 28.9829C2694.82 28.9829 2696.44 29.2829 2697.87 29.8829C2699.3 30.4496 2700.44 31.3496 2701.27 32.5829C2702.14 33.7829 2702.57 35.3496 2702.57 37.2829C2702.57 40.7162 2701.47 43.9329 2699.27 46.9329C2697.1 49.9329 2694.07 52.7496 2690.17 55.3829V55.4829H2697.47C2699.37 55.4829 2700.69 55.2496 2701.42 54.7829C2702.15 54.3162 2702.59 53.7162 2702.72 52.9829ZM2724 28.9829C2725.74 28.9829 2727.44 29.3162 2729.1 29.9829C2730.77 30.6496 2732.27 31.6829 2733.6 33.0829C2734.94 34.4829 2735.99 36.2496 2736.75 38.3829C2737.55 40.4829 2737.95 42.9829 2737.95 45.8829C2737.95 48.7496 2737.57 51.2496 2736.8 53.3829C2736.04 55.5162 2734.99 57.2996 2733.65 58.7329C2732.32 60.1662 2730.82 61.2329 2729.15 61.9329C2727.49 62.6329 2725.75 62.9829 2723.95 62.9829C2722.22 62.9829 2720.52 62.6496 2718.85 61.9829C2717.19 61.3162 2715.69 60.2829 2714.35 58.8829C2713.02 57.4829 2711.95 55.7329 2711.15 53.6329C2710.39 51.4996 2710 48.9829 2710 46.0829C2710 43.2162 2710.39 40.7162 2711.15 38.5829C2711.92 36.4496 2712.97 34.6662 2714.3 33.2329C2715.64 31.7996 2717.14 30.7329 2718.8 30.0329C2720.47 29.3329 2722.2 28.9829 2724 28.9829ZM2724.15 60.8329C2725.12 60.8329 2726 60.3996 2726.8 59.5329C2727.6 58.6662 2728.24 57.1996 2728.7 55.1329C2729.2 53.0662 2729.45 50.2329 2729.45 46.6329C2729.45 43.4996 2729.24 40.7829 2728.8 38.4829C2728.4 36.1496 2727.79 34.3496 2726.95 33.0829C2726.12 31.7829 2725.07 31.1329 2723.8 31.1329C2722.87 31.1329 2721.99 31.5662 2721.15 32.4329C2720.35 33.2996 2719.7 34.7662 2719.2 36.8329C2718.74 38.8996 2718.5 41.7329 2718.5 45.3329C2718.5 48.4662 2718.7 51.1996 2719.1 53.5329C2719.54 55.8329 2720.17 57.6329 2721 58.9329C2721.84 60.1996 2722.89 60.8329 2724.15 60.8329ZM2765.56 52.9829H2766.71L2766.21 62.2329H2742.11V61.0829C2742.38 60.9496 2742.78 60.7162 2743.31 60.3829C2743.88 60.0496 2744.46 59.6662 2745.06 59.2329C2746.73 58.0329 2748.3 56.6662 2749.76 55.1329C2751.23 53.5996 2752.51 51.9662 2753.61 50.2329C2754.71 48.4996 2755.58 46.7662 2756.21 45.0329C2756.85 43.2996 2757.16 41.6496 2757.16 40.0829C2757.16 38.5829 2756.8 37.3162 2756.06 36.2829C2755.36 35.2496 2754.08 34.7329 2752.21 34.7329C2750.65 34.7329 2749.2 35.1662 2747.86 36.0329C2746.53 36.8996 2745.21 38.2496 2743.91 40.0829L2742.96 39.2829C2744.33 35.8162 2746.05 33.2329 2748.11 31.5329C2750.18 29.8329 2752.76 28.9829 2755.86 28.9829C2757.66 28.9829 2759.28 29.2829 2760.71 29.8829C2762.15 30.4496 2763.28 31.3496 2764.11 32.5829C2764.98 33.7829 2765.41 35.3496 2765.41 37.2829C2765.41 40.7162 2764.31 43.9329 2762.11 46.9329C2759.95 49.9329 2756.91 52.7496 2753.01 55.3829V55.4829H2760.31C2762.21 55.4829 2763.53 55.2496 2764.26 54.7829C2765 54.3162 2765.43 53.7162 2765.56 52.9829ZM2793.34 49.4829H2796.84V55.7329H2794.74C2793.81 55.7329 2793.34 56.3162 2793.34 57.4829C2793.34 58.2829 2793.34 59.0662 2793.34 59.8329C2793.38 60.5662 2793.41 61.3662 2793.44 62.2329H2785.54C2785.61 61.1329 2785.66 60.0662 2785.69 59.0329C2785.73 57.9662 2785.76 56.8662 2785.79 55.7329H2769.99V54.5829C2770.86 53.7496 2771.64 52.8829 2772.34 51.9829L2788.69 31.5329C2789.06 31.0662 2789.39 30.6162 2789.69 30.1829C2790.03 29.7162 2790.29 29.3162 2790.49 28.9829H2793.39L2793.34 49.4829ZM2785.69 39.0329L2777.34 49.4829H2785.84V39.0329H2785.69Z" fill="white"/>
</svg>
