<svg width="3117" height="114" viewBox="0 0 3117 114" fill="none" xmlns="http://www.w3.org/2000/svg">
<rect width="3115.8" height="114" transform="translate(0.257812)" fill="url(#paint0_linear_562_1670)"/>
<path d="M73.9978 67.05H75.6078L74.9078 80H41.1678V78.39C41.5411 78.2033 42.1011 77.8767 42.8478 77.41C43.6411 76.9433 44.4578 76.4067 45.2978 75.8C47.6311 74.12 49.8245 72.2067 51.8778 70.06C53.9311 67.9133 55.7278 65.6267 57.2678 63.2C58.8078 60.7733 60.0211 58.3467 60.9078 55.92C61.7945 53.4933 62.2378 51.1833 62.2378 48.99C62.2378 46.89 61.7245 45.1167 60.6978 43.67C59.7178 42.2233 57.9211 41.5 55.3078 41.5C53.1145 41.5 51.0845 42.1067 49.2178 43.32C47.3511 44.5333 45.5078 46.4233 43.6878 48.99L42.3578 47.87C44.2711 43.0167 46.6745 39.4 49.5678 37.02C52.4611 34.64 56.0778 33.45 60.4178 33.45C62.9378 33.45 65.2011 33.87 67.2078 34.71C69.2145 35.5033 70.8012 36.7633 71.9678 38.49C73.1812 40.17 73.7878 42.3633 73.7878 45.07C73.7878 49.8767 72.2478 54.38 69.1678 58.58C66.1345 62.78 61.8878 66.7233 56.4278 70.41V70.55H66.6478C69.3078 70.55 71.1512 70.2233 72.1778 69.57C73.2045 68.9167 73.8112 68.0767 73.9978 67.05ZM103.791 33.45C106.218 33.45 108.598 33.9167 110.931 34.85C113.264 35.7833 115.364 37.23 117.231 39.19C119.098 41.15 120.568 43.6233 121.641 46.61C122.761 49.55 123.321 53.05 123.321 57.11C123.321 61.1233 122.784 64.6233 121.711 67.61C120.638 70.5967 119.168 73.0933 117.301 75.1C115.434 77.1067 113.334 78.6 111.001 79.58C108.668 80.56 106.241 81.05 103.721 81.05C101.294 81.05 98.9144 80.5833 96.581 79.65C94.2477 78.7167 92.1477 77.27 90.281 75.31C88.4144 73.35 86.921 70.9 85.801 67.96C84.7277 64.9733 84.191 61.45 84.191 57.39C84.191 53.3767 84.7277 49.8767 85.801 46.89C86.8744 43.9033 88.3444 41.4067 90.211 39.4C92.0777 37.3933 94.1777 35.9 96.511 34.92C98.8444 33.94 101.271 33.45 103.791 33.45ZM104.001 78.04C105.354 78.04 106.591 77.4333 107.711 76.22C108.831 75.0067 109.718 72.9533 110.371 70.06C111.071 67.1667 111.421 63.2 111.421 58.16C111.421 53.7733 111.118 49.97 110.511 46.75C109.951 43.4833 109.088 40.9633 107.921 39.19C106.754 37.37 105.284 36.46 103.511 36.46C102.204 36.46 100.968 37.0667 99.801 38.28C98.681 39.4933 97.771 41.5467 97.071 44.44C96.4177 47.3333 96.091 51.3 96.091 56.34C96.091 60.7267 96.371 64.5533 96.931 67.82C97.5377 71.04 98.4244 73.56 99.591 75.38C100.758 77.1533 102.228 78.04 104.001 78.04ZM170.834 58.86L149.134 60.75L148.644 55.08L170.344 53.19L170.834 58.86ZM225.004 67.05H226.614L225.914 80H192.174V78.39C192.547 78.2033 193.107 77.8767 193.854 77.41C194.647 76.9433 195.464 76.4067 196.304 75.8C198.637 74.12 200.83 72.2067 202.884 70.06C204.937 67.9133 206.734 65.6267 208.274 63.2C209.814 60.7733 211.027 58.3467 211.914 55.92C212.8 53.4933 213.244 51.1833 213.244 48.99C213.244 46.89 212.73 45.1167 211.704 43.67C210.724 42.2233 208.927 41.5 206.314 41.5C204.12 41.5 202.09 42.1067 200.224 43.32C198.357 44.5333 196.514 46.4233 194.694 48.99L193.364 47.87C195.277 43.0167 197.68 39.4 200.574 37.02C203.467 34.64 207.084 33.45 211.424 33.45C213.944 33.45 216.207 33.87 218.214 34.71C220.22 35.5033 221.807 36.7633 222.974 38.49C224.187 40.17 224.794 42.3633 224.794 45.07C224.794 49.8767 223.254 54.38 220.174 58.58C217.14 62.78 212.894 66.7233 207.434 70.41V70.55H217.654C220.314 70.55 222.157 70.2233 223.184 69.57C224.21 68.9167 224.817 68.0767 225.004 67.05ZM253.607 72.3C253.607 74.0267 253.747 75.3333 254.027 76.22C254.354 77.06 255.007 77.62 255.987 77.9C257.014 78.18 258.554 78.3433 260.607 78.39V80H234.707V78.39C236.807 78.3433 238.347 78.18 239.327 77.9C240.354 77.62 241.007 77.06 241.287 76.22C241.567 75.3333 241.707 74.0267 241.707 72.3V41.85L235.267 45.84L233.797 43.6L250.037 33.45H254.097C253.91 34.3367 253.77 35.2233 253.677 36.11C253.63 36.9967 253.607 37.8833 253.607 38.77V72.3ZM285.626 80V78.39C286.98 78.2967 287.96 77.9467 288.566 77.34C289.173 76.7333 289.476 75.2867 289.476 73V40.45C289.476 38.1633 289.126 36.7167 288.426 36.11C287.773 35.4567 286.49 35.1067 284.576 35.06V33.45H304.526V35.06C303.173 35.1067 302.193 35.4567 301.586 36.11C300.98 36.7167 300.676 38.1633 300.676 40.45V52.84C301.05 52.56 301.493 52.3733 302.006 52.28C302.566 52.1867 303.22 52.14 303.966 52.14H317.196C318.456 52.14 319.343 51.93 319.856 51.51C320.37 51.09 320.626 50.25 320.626 48.99V40.45C320.626 38.1633 320.276 36.7167 319.576 36.11C318.923 35.4567 317.64 35.1067 315.726 35.06V33.45H335.676V35.06C334.323 35.1067 333.343 35.4567 332.736 36.11C332.13 36.7167 331.826 38.1633 331.826 40.45V73C331.826 75.2867 332.176 76.7333 332.876 77.34C333.576 77.9467 334.86 78.2967 336.726 78.39V80H316.776V78.39C318.13 78.2967 319.11 77.9467 319.716 77.34C320.323 76.7333 320.626 75.2867 320.626 73V54.38C320.253 54.7067 319.786 54.9167 319.226 55.01C318.666 55.1033 318.036 55.15 317.336 55.15H304.106C302.846 55.15 301.96 55.36 301.446 55.78C300.933 56.2 300.676 57.0167 300.676 58.23V73C300.676 75.2867 301.026 76.7333 301.726 77.34C302.426 77.9467 303.71 78.2967 305.576 78.39V80H285.626ZM367.6 32.4C370.914 32.4 373.994 32.96 376.84 34.08C379.687 35.2 382.207 36.8333 384.4 38.98C386.594 41.08 388.297 43.6233 389.51 46.61C390.724 49.5967 391.33 52.9333 391.33 56.62C391.33 60.3067 390.724 63.6433 389.51 66.63C388.297 69.6167 386.594 72.1833 384.4 74.33C382.254 76.4767 379.734 78.1333 376.84 79.3C373.947 80.4667 370.844 81.05 367.53 81.05C364.264 81.05 361.184 80.49 358.29 79.37C355.444 78.25 352.924 76.64 350.73 74.54C348.537 72.3933 346.834 69.8267 345.62 66.84C344.407 63.8533 343.8 60.5167 343.8 56.83C343.8 53.1433 344.407 49.8067 345.62 46.82C346.834 43.8333 348.514 41.2667 350.66 39.12C352.854 36.9733 355.397 35.3167 358.29 34.15C361.184 32.9833 364.287 32.4 367.6 32.4ZM369 78.04C371.427 78.04 373.34 77.2467 374.74 75.66C376.14 74.0267 377.144 71.7867 377.75 68.94C378.404 66.0933 378.73 62.78 378.73 59C378.73 51.3933 377.564 45.56 375.23 41.5C372.944 37.44 369.91 35.41 366.13 35.41C363.75 35.41 361.837 36.2033 360.39 37.79C358.99 39.3767 357.964 41.6167 357.31 44.51C356.704 47.3567 356.4 50.67 356.4 54.45C356.4 62.0567 357.544 67.89 359.83 71.95C362.164 76.01 365.22 78.04 369 78.04ZM399.286 81.05C398.119 81.05 396.882 80.9567 395.576 80.77C394.269 80.5833 393.149 80.3267 392.216 80V78.39C393.149 78.39 394.199 78.0167 395.366 77.27C396.532 76.5233 397.722 75.03 398.936 72.79L408.946 54.66C405.819 53.8667 403.439 52.5833 401.806 50.81C400.219 49.0367 399.426 46.89 399.426 44.37C399.426 42.41 400.009 40.5667 401.176 38.84C402.389 37.1133 404.349 35.7367 407.056 34.71C409.809 33.6367 413.496 33.1 418.116 33.1C419.609 33.1 421.336 33.17 423.296 33.31C425.256 33.4033 427.426 33.45 429.806 33.45H438.766V35.06C437.412 35.1067 436.432 35.4567 435.826 36.11C435.219 36.7167 434.916 38.1633 434.916 40.45V73C434.916 75.2867 435.266 76.7333 435.966 77.34C436.666 77.9467 437.949 78.2967 439.816 78.39V80H419.866V78.39C421.219 78.2967 422.199 77.9467 422.806 77.34C423.412 76.7333 423.716 75.2867 423.716 73V40.45C423.716 38.63 423.389 37.4633 422.736 36.95C422.129 36.39 421.056 36.11 419.516 36.11C417.509 36.11 415.689 36.8333 414.056 38.28C412.469 39.68 411.676 41.8033 411.676 44.65C411.676 46.1433 411.979 47.59 412.586 48.99C413.192 50.3433 414.266 51.4867 415.806 52.42C417.392 53.3533 419.562 53.9133 422.316 54.1V56.55C421.756 56.55 421.266 56.6667 420.846 56.9C420.426 57.0867 420.006 57.5767 419.586 58.37L411.676 73.63C410.602 75.6833 409.109 77.4333 407.196 78.88C405.282 80.3267 402.646 81.05 399.286 81.05ZM461.936 52H468.726C473.813 52 477.826 52.56 480.766 53.68C483.706 54.8 485.783 56.34 486.996 58.3C488.256 60.26 488.886 62.5233 488.886 65.09C488.886 67.6567 488.186 70.0833 486.786 72.37C485.433 74.61 483.31 76.4533 480.416 77.9C477.57 79.3 473.93 80 469.496 80H446.886V78.39C448.24 78.2967 449.22 77.9467 449.826 77.34C450.433 76.7333 450.736 75.2867 450.736 73V40.45C450.736 38.1633 450.386 36.7167 449.686 36.11C449.033 35.4567 447.75 35.1067 445.836 35.06V33.45H484.336V45H482.726C482.586 43.4133 482.283 41.99 481.816 40.73C481.35 39.4233 480.556 38.3967 479.436 37.65C478.316 36.8567 476.706 36.46 474.606 36.46H465.016C464.036 36.46 463.266 36.7167 462.706 37.23C462.193 37.7433 461.936 38.8167 461.936 40.45V52ZM466.066 76.99C468.54 76.99 470.57 76.4067 472.156 75.24C473.79 74.0267 475.003 72.5333 475.796 70.76C476.59 68.9867 476.986 67.2367 476.986 65.51C476.986 62.9433 476.496 60.89 475.516 59.35C474.583 57.81 473.3 56.7133 471.666 56.06C470.08 55.36 468.283 55.01 466.276 55.01H461.936V73C461.936 74.6333 462.193 75.7067 462.706 76.22C463.22 76.7333 464.34 76.99 466.066 76.99ZM496.31 80V78.39C497.663 78.2967 498.643 77.9467 499.25 77.34C499.857 76.7333 500.16 75.2867 500.16 73V40.45C500.16 38.1633 499.81 36.7167 499.11 36.11C498.457 35.4567 497.173 35.1067 495.26 35.06V33.45H500.16C503.567 33.45 506.763 33.4033 509.75 33.31C512.737 33.17 514.977 33.1 516.47 33.1C521.323 33.1 525.15 33.6367 527.95 34.71C530.797 35.7833 532.827 37.2067 534.04 38.98C535.3 40.7067 535.93 42.62 535.93 44.72C535.93 47.1467 535.137 49.4567 533.55 51.65C532.01 53.8433 529.537 55.5467 526.13 56.76C522.77 57.9267 518.313 58.3 512.76 57.88V55.43C515.28 55.5233 517.357 55.08 518.99 54.1C520.623 53.0733 521.813 51.72 522.56 50.04C523.353 48.36 523.75 46.5633 523.75 44.65C523.75 42.0833 523.027 40.03 521.58 38.49C520.133 36.9033 518.127 36.11 515.56 36.11C514.02 36.11 512.923 36.39 512.27 36.95C511.663 37.4633 511.36 38.63 511.36 40.45V73C511.36 74.4933 511.5 75.6367 511.78 76.43C512.107 77.1767 512.667 77.69 513.46 77.97C514.3 78.2033 515.467 78.3433 516.96 78.39V80H496.31ZM543.319 81.05C542.152 81.05 540.916 80.9567 539.609 80.77C538.302 80.5833 537.182 80.3267 536.249 80V78.39C537.182 78.39 538.232 78.0167 539.399 77.27C540.566 76.5233 541.756 75.03 542.969 72.79L552.979 54.66C549.852 53.8667 547.472 52.5833 545.839 50.81C544.252 49.0367 543.459 46.89 543.459 44.37C543.459 42.41 544.042 40.5667 545.209 38.84C546.422 37.1133 548.382 35.7367 551.089 34.71C553.842 33.6367 557.529 33.1 562.149 33.1C563.642 33.1 565.369 33.17 567.329 33.31C569.289 33.4033 571.459 33.45 573.839 33.45H582.799V35.06C581.446 35.1067 580.466 35.4567 579.859 36.11C579.252 36.7167 578.949 38.1633 578.949 40.45V73C578.949 75.2867 579.299 76.7333 579.999 77.34C580.699 77.9467 581.982 78.2967 583.849 78.39V80H563.899V78.39C565.252 78.2967 566.232 77.9467 566.839 77.34C567.446 76.7333 567.749 75.2867 567.749 73V40.45C567.749 38.63 567.422 37.4633 566.769 36.95C566.162 36.39 565.089 36.11 563.549 36.11C561.542 36.11 559.722 36.8333 558.089 38.28C556.502 39.68 555.709 41.8033 555.709 44.65C555.709 46.1433 556.012 47.59 556.619 48.99C557.226 50.3433 558.299 51.4867 559.839 52.42C561.426 53.3533 563.596 53.9133 566.349 54.1V56.55C565.789 56.55 565.299 56.6667 564.879 56.9C564.459 57.0867 564.039 57.5767 563.619 58.37L555.709 73.63C554.636 75.6833 553.142 77.4333 551.229 78.88C549.316 80.3267 546.679 81.05 543.319 81.05ZM639.467 67.05H641.077L640.377 80H606.637V78.39C607.01 78.2033 607.57 77.8767 608.317 77.41C609.11 76.9433 609.927 76.4067 610.767 75.8C613.1 74.12 615.293 72.2067 617.347 70.06C619.4 67.9133 621.197 65.6267 622.737 63.2C624.277 60.7733 625.49 58.3467 626.377 55.92C627.263 53.4933 627.707 51.1833 627.707 48.99C627.707 46.89 627.193 45.1167 626.167 43.67C625.187 42.2233 623.39 41.5 620.777 41.5C618.583 41.5 616.553 42.1067 614.687 43.32C612.82 44.5333 610.977 46.4233 609.157 48.99L607.827 47.87C609.74 43.0167 612.143 39.4 615.037 37.02C617.93 34.64 621.547 33.45 625.887 33.45C628.407 33.45 630.67 33.87 632.677 34.71C634.683 35.5033 636.27 36.7633 637.437 38.49C638.65 40.17 639.257 42.3633 639.257 45.07C639.257 49.8767 637.717 54.38 634.637 58.58C631.603 62.78 627.357 66.7233 621.897 70.41V70.55H632.117C634.777 70.55 636.62 70.2233 637.647 69.57C638.673 68.9167 639.28 68.0767 639.467 67.05ZM669.26 33.45C671.687 33.45 674.067 33.9167 676.4 34.85C678.733 35.7833 680.833 37.23 682.7 39.19C684.567 41.15 686.037 43.6233 687.11 46.61C688.23 49.55 688.79 53.05 688.79 57.11C688.79 61.1233 688.253 64.6233 687.18 67.61C686.107 70.5967 684.637 73.0933 682.77 75.1C680.903 77.1067 678.803 78.6 676.47 79.58C674.137 80.56 671.71 81.05 669.19 81.05C666.763 81.05 664.383 80.5833 662.05 79.65C659.717 78.7167 657.617 77.27 655.75 75.31C653.883 73.35 652.39 70.9 651.27 67.96C650.197 64.9733 649.66 61.45 649.66 57.39C649.66 53.3767 650.197 49.8767 651.27 46.89C652.343 43.9033 653.813 41.4067 655.68 39.4C657.547 37.3933 659.647 35.9 661.98 34.92C664.313 33.94 666.74 33.45 669.26 33.45ZM669.47 78.04C670.823 78.04 672.06 77.4333 673.18 76.22C674.3 75.0067 675.187 72.9533 675.84 70.06C676.54 67.1667 676.89 63.2 676.89 58.16C676.89 53.7733 676.587 49.97 675.98 46.75C675.42 43.4833 674.557 40.9633 673.39 39.19C672.223 37.37 670.753 36.46 668.98 36.46C667.673 36.46 666.437 37.0667 665.27 38.28C664.15 39.4933 663.24 41.5467 662.54 44.44C661.887 47.3333 661.56 51.3 661.56 56.34C661.56 60.7267 661.84 64.5533 662.4 67.82C663.007 71.04 663.893 73.56 665.06 75.38C666.227 77.1533 667.697 78.04 669.47 78.04ZM727.445 67.05H729.055L728.355 80H694.615V78.39C694.988 78.2033 695.548 77.8767 696.295 77.41C697.088 76.9433 697.905 76.4067 698.745 75.8C701.078 74.12 703.272 72.2067 705.325 70.06C707.378 67.9133 709.175 65.6267 710.715 63.2C712.255 60.7733 713.468 58.3467 714.355 55.92C715.242 53.4933 715.685 51.1833 715.685 48.99C715.685 46.89 715.172 45.1167 714.145 43.67C713.165 42.2233 711.368 41.5 708.755 41.5C706.562 41.5 704.532 42.1067 702.665 43.32C700.798 44.5333 698.955 46.4233 697.135 48.99L695.805 47.87C697.718 43.0167 700.122 39.4 703.015 37.02C705.908 34.64 709.525 33.45 713.865 33.45C716.385 33.45 718.648 33.87 720.655 34.71C722.662 35.5033 724.248 36.7633 725.415 38.49C726.628 40.17 727.235 42.3633 727.235 45.07C727.235 49.8767 725.695 54.38 722.615 58.58C719.582 62.78 715.335 66.7233 709.875 70.41V70.55H720.095C722.755 70.55 724.598 70.2233 725.625 69.57C726.652 68.9167 727.258 68.0767 727.445 67.05ZM766.338 62.15H771.238V70.9H768.298C766.992 70.9 766.338 71.7167 766.338 73.35C766.338 74.47 766.338 75.5667 766.338 76.64C766.385 77.6667 766.432 78.7867 766.478 80H755.418C755.512 78.46 755.582 76.9667 755.628 75.52C755.675 74.0267 755.722 72.4867 755.768 70.9H733.648V69.29C734.862 68.1233 735.958 66.91 736.938 65.65L759.828 37.02C760.342 36.3667 760.808 35.7367 761.228 35.13C761.695 34.4767 762.068 33.9167 762.348 33.45H766.408L766.338 62.15ZM755.628 47.52L743.938 62.15H755.838V47.52H755.628ZM828.668 33.45V46.4H827.058C826.825 44.3467 826.405 42.5967 825.798 41.15C825.238 39.6567 824.351 38.5133 823.138 37.72C821.971 36.88 820.338 36.46 818.238 36.46H814.948C813.968 36.46 813.198 36.7167 812.638 37.23C812.125 37.7433 811.868 38.8167 811.868 40.45V73C811.868 75.2867 812.218 76.7333 812.918 77.34C813.618 77.9467 814.901 78.2967 816.768 78.39V80H796.818V78.39C798.171 78.2967 799.151 77.9467 799.758 77.34C800.365 76.7333 800.668 75.2867 800.668 73V40.45C800.668 38.1633 800.318 36.7167 799.618 36.11C798.965 35.4567 797.681 35.1067 795.768 35.06V33.45H828.668ZM856.712 32.4C860.025 32.4 863.105 32.96 865.952 34.08C868.798 35.2 871.318 36.8333 873.512 38.98C875.705 41.08 877.408 43.6233 878.622 46.61C879.835 49.5967 880.442 52.9333 880.442 56.62C880.442 60.3067 879.835 63.6433 878.622 66.63C877.408 69.6167 875.705 72.1833 873.512 74.33C871.365 76.4767 868.845 78.1333 865.952 79.3C863.058 80.4667 859.955 81.05 856.642 81.05C853.375 81.05 850.295 80.49 847.402 79.37C844.555 78.25 842.035 76.64 839.842 74.54C837.648 72.3933 835.945 69.8267 834.732 66.84C833.518 63.8533 832.912 60.5167 832.912 56.83C832.912 53.1433 833.518 49.8067 834.732 46.82C835.945 43.8333 837.625 41.2667 839.772 39.12C841.965 36.9733 844.508 35.3167 847.402 34.15C850.295 32.9833 853.398 32.4 856.712 32.4ZM858.112 78.04C860.538 78.04 862.452 77.2467 863.852 75.66C865.252 74.0267 866.255 71.7867 866.862 68.94C867.515 66.0933 867.842 62.78 867.842 59C867.842 51.3933 866.675 45.56 864.342 41.5C862.055 37.44 859.022 35.41 855.242 35.41C852.862 35.41 850.948 36.2033 849.502 37.79C848.102 39.3767 847.075 41.6167 846.422 44.51C845.815 47.3567 845.512 50.67 845.512 54.45C845.512 62.0567 846.655 67.89 848.942 71.95C851.275 76.01 854.332 78.04 858.112 78.04ZM910.797 38.98L922.417 73C922.837 74.2133 923.444 75.3333 924.237 76.36C925.077 77.34 926.36 78.0167 928.087 78.39L924.867 94.35H923.257C923.164 91.4567 922.744 88.9367 921.997 86.79C921.25 84.6433 920.317 82.9633 919.197 81.75C918.077 80.5833 916.864 80 915.557 80H896.797C895.07 80 893.367 80.5833 891.687 81.75C890.054 82.9633 888.654 84.6433 887.487 86.79C886.367 88.9367 885.644 91.4567 885.317 94.35H883.707V78.39C884.547 78.0167 885.364 77.3867 886.157 76.5C886.95 75.5667 887.674 74.5167 888.327 73.35C889.027 72.1833 889.564 71.0867 889.937 70.06L901.837 38.98C902.304 37.7667 902.747 36.5767 903.167 35.41C903.587 34.2433 903.96 33.0533 904.287 31.84H908.347C908.674 33.0533 909.047 34.2433 909.467 35.41C909.934 36.5767 910.377 37.7667 910.797 38.98ZM907.857 76.99C909.724 76.99 910.75 76.6867 910.937 76.08C911.124 75.4733 910.96 74.4467 910.447 73L902.257 47.8H902.117L891.197 76.99H907.857ZM970.925 73C971.578 74.5867 972.115 75.7533 972.535 76.5C973.002 77.2467 973.492 77.7367 974.005 77.97C974.518 78.1567 975.148 78.2967 975.895 78.39V80H956.365V78.39C958.232 78.2967 959.258 77.7367 959.445 76.71C959.678 75.6833 959.515 74.4467 958.955 73L955.455 63.9C955.175 64.1333 954.802 64.2967 954.335 64.39C953.915 64.4367 953.448 64.46 952.935 64.46H945.025C944.045 64.46 943.298 64.5767 942.785 64.81C942.272 65.0433 941.828 65.6267 941.455 66.56L938.935 73C938.328 74.54 938.375 75.8 939.075 76.78C939.775 77.76 941.152 78.2967 943.205 78.39V80H930.465V78.39C931.492 78.2967 932.355 77.7833 933.055 76.85C933.802 75.87 934.478 74.5867 935.085 73L948.525 38.98C949.038 37.7667 949.482 36.5767 949.855 35.41C950.275 34.2433 950.648 33.0533 950.975 31.84H955.035C955.362 33.0533 955.735 34.2433 956.155 35.41C956.575 36.5767 957.018 37.7667 957.485 38.98L970.925 73ZM952.585 61.45C953.238 61.45 953.658 61.3567 953.845 61.17C954.078 60.9367 954.055 60.47 953.775 59.77L948.945 47.8H948.805L943.345 61.73C943.578 61.59 943.858 61.52 944.185 61.52C944.512 61.4733 944.885 61.45 945.305 61.45H952.585Z" fill="black"/>
<path d="M1046.66 49.0198C1039.68 46.2333 1031.49 47.7194 1025.91 53.2924C1018.37 60.8158 1018.37 72.9834 1025.91 80.5068C1031.49 86.0798 1039.68 87.5659 1046.66 84.7794V75.8627C1045.26 76.5129 1043.77 76.8844 1042.19 76.8844C1036.61 76.8844 1032.14 72.4261 1032.14 66.8532C1032.14 61.2802 1036.61 56.8219 1042.19 56.8219C1043.77 56.8219 1045.35 57.1934 1046.66 57.8436V49.0198Z" fill="black"/>
<path d="M1043.5 40.0841C1046.24 37.3287 1046.24 32.7681 1043.5 29.9177C1040.75 27.1623 1036.2 27.1623 1033.35 29.9177C1030.51 32.673 1030.61 37.2337 1033.35 40.0841C1036.2 42.8394 1040.75 42.8394 1043.5 40.0841Z" fill="black"/>
<path d="M1123.4 67.05H1125.01L1124.31 80H1090.57V78.39C1090.94 78.2033 1091.5 77.8767 1092.25 77.41C1093.04 76.9433 1093.86 76.4067 1094.7 75.8C1097.03 74.12 1099.22 72.2067 1101.28 70.06C1103.33 67.9133 1105.13 65.6267 1106.67 63.2C1108.21 60.7733 1109.42 58.3467 1110.31 55.92C1111.19 53.4933 1111.64 51.1833 1111.64 48.99C1111.64 46.89 1111.12 45.1167 1110.1 43.67C1109.12 42.2233 1107.32 41.5 1104.71 41.5C1102.51 41.5 1100.48 42.1067 1098.62 43.32C1096.75 44.5333 1094.91 46.4233 1093.09 48.99L1091.76 47.87C1093.67 43.0167 1096.07 39.4 1098.97 37.02C1101.86 34.64 1105.48 33.45 1109.82 33.45C1112.34 33.45 1114.6 33.87 1116.61 34.71C1118.61 35.5033 1120.2 36.7633 1121.37 38.49C1122.58 40.17 1123.19 42.3633 1123.19 45.07C1123.19 49.8767 1121.65 54.38 1118.57 58.58C1115.53 62.78 1111.29 66.7233 1105.83 70.41V70.55H1116.05C1118.71 70.55 1120.55 70.2233 1121.58 69.57C1122.6 68.9167 1123.21 68.0767 1123.4 67.05ZM1153.19 33.45C1155.62 33.45 1158 33.9167 1160.33 34.85C1162.66 35.7833 1164.76 37.23 1166.63 39.19C1168.5 41.15 1169.97 43.6233 1171.04 46.61C1172.16 49.55 1172.72 53.05 1172.72 57.11C1172.72 61.1233 1172.18 64.6233 1171.11 67.61C1170.04 70.5967 1168.57 73.0933 1166.7 75.1C1164.83 77.1067 1162.73 78.6 1160.4 79.58C1158.07 80.56 1155.64 81.05 1153.12 81.05C1150.69 81.05 1148.31 80.5833 1145.98 79.65C1143.65 78.7167 1141.55 77.27 1139.68 75.31C1137.81 73.35 1136.32 70.9 1135.2 67.96C1134.13 64.9733 1133.59 61.45 1133.59 57.39C1133.59 53.3767 1134.13 49.8767 1135.2 46.89C1136.27 43.9033 1137.74 41.4067 1139.61 39.4C1141.48 37.3933 1143.58 35.9 1145.91 34.92C1148.24 33.94 1150.67 33.45 1153.19 33.45ZM1153.4 78.04C1154.75 78.04 1155.99 77.4333 1157.11 76.22C1158.23 75.0067 1159.12 72.9533 1159.77 70.06C1160.47 67.1667 1160.82 63.2 1160.82 58.16C1160.82 53.7733 1160.52 49.97 1159.91 46.75C1159.35 43.4833 1158.49 40.9633 1157.32 39.19C1156.15 37.37 1154.68 36.46 1152.91 36.46C1151.6 36.46 1150.37 37.0667 1149.2 38.28C1148.08 39.4933 1147.17 41.5467 1146.47 44.44C1145.82 47.3333 1145.49 51.3 1145.49 56.34C1145.49 60.7267 1145.77 64.5533 1146.33 67.82C1146.94 71.04 1147.82 73.56 1148.99 75.38C1150.16 77.1533 1151.63 78.04 1153.4 78.04ZM1220.23 58.86L1198.53 60.75L1198.04 55.08L1219.74 53.19L1220.23 58.86ZM1274.4 67.05H1276.01L1275.31 80H1241.57V78.39C1241.95 78.2033 1242.51 77.8767 1243.25 77.41C1244.05 76.9433 1244.86 76.4067 1245.7 75.8C1248.04 74.12 1250.23 72.2067 1252.28 70.06C1254.34 67.9133 1256.13 65.6267 1257.67 63.2C1259.21 60.7733 1260.43 58.3467 1261.31 55.92C1262.2 53.4933 1262.64 51.1833 1262.64 48.99C1262.64 46.89 1262.13 45.1167 1261.1 43.67C1260.12 42.2233 1258.33 41.5 1255.71 41.5C1253.52 41.5 1251.49 42.1067 1249.62 43.32C1247.76 44.5333 1245.91 46.4233 1244.09 48.99L1242.76 47.87C1244.68 43.0167 1247.08 39.4 1249.97 37.02C1252.87 34.64 1256.48 33.45 1260.82 33.45C1263.34 33.45 1265.61 33.87 1267.61 34.71C1269.62 35.5033 1271.21 36.7633 1272.37 38.49C1273.59 40.17 1274.19 42.3633 1274.19 45.07C1274.19 49.8767 1272.65 54.38 1269.57 58.58C1266.54 62.78 1262.29 66.7233 1256.83 70.41V70.55H1267.05C1269.71 70.55 1271.56 70.2233 1272.58 69.57C1273.61 68.9167 1274.22 68.0767 1274.4 67.05ZM1303.01 72.3C1303.01 74.0267 1303.15 75.3333 1303.43 76.22C1303.75 77.06 1304.41 77.62 1305.39 77.9C1306.41 78.18 1307.95 78.3433 1310.01 78.39V80H1284.11V78.39C1286.21 78.3433 1287.75 78.18 1288.73 77.9C1289.75 77.62 1290.41 77.06 1290.69 76.22C1290.97 75.3333 1291.11 74.0267 1291.11 72.3V41.85L1284.67 45.84L1283.2 43.6L1299.44 33.45H1303.5C1303.31 34.3367 1303.17 35.2233 1303.08 36.11C1303.03 36.9967 1303.01 37.8833 1303.01 38.77V72.3ZM1335.02 80V78.39C1336.38 78.2967 1337.36 77.9467 1337.96 77.34C1338.57 76.7333 1338.87 75.2867 1338.87 73V40.45C1338.87 38.1633 1338.52 36.7167 1337.82 36.11C1337.17 35.4567 1335.89 35.1067 1333.97 35.06V33.45H1353.92V35.06C1352.57 35.1067 1351.59 35.4567 1350.98 36.11C1350.38 36.7167 1350.07 38.1633 1350.07 40.45V52.84C1350.45 52.56 1350.89 52.3733 1351.4 52.28C1351.96 52.1867 1352.62 52.14 1353.36 52.14H1366.59C1367.85 52.14 1368.74 51.93 1369.25 51.51C1369.77 51.09 1370.02 50.25 1370.02 48.99V40.45C1370.02 38.1633 1369.67 36.7167 1368.97 36.11C1368.32 35.4567 1367.04 35.1067 1365.12 35.06V33.45H1385.07V35.06C1383.72 35.1067 1382.74 35.4567 1382.13 36.11C1381.53 36.7167 1381.22 38.1633 1381.22 40.45V73C1381.22 75.2867 1381.57 76.7333 1382.27 77.34C1382.97 77.9467 1384.26 78.2967 1386.12 78.39V80H1366.17V78.39C1367.53 78.2967 1368.51 77.9467 1369.11 77.34C1369.72 76.7333 1370.02 75.2867 1370.02 73V54.38C1369.65 54.7067 1369.18 54.9167 1368.62 55.01C1368.06 55.1033 1367.43 55.15 1366.73 55.15H1353.5C1352.24 55.15 1351.36 55.36 1350.84 55.78C1350.33 56.2 1350.07 57.0167 1350.07 58.23V73C1350.07 75.2867 1350.42 76.7333 1351.12 77.34C1351.82 77.9467 1353.11 78.2967 1354.97 78.39V80H1335.02ZM1417 32.4C1420.31 32.4 1423.39 32.96 1426.24 34.08C1429.09 35.2 1431.61 36.8333 1433.8 38.98C1435.99 41.08 1437.7 43.6233 1438.91 46.61C1440.12 49.5967 1440.73 52.9333 1440.73 56.62C1440.73 60.3067 1440.12 63.6433 1438.91 66.63C1437.7 69.6167 1435.99 72.1833 1433.8 74.33C1431.65 76.4767 1429.13 78.1333 1426.24 79.3C1423.35 80.4667 1420.24 81.05 1416.93 81.05C1413.66 81.05 1410.58 80.49 1407.69 79.37C1404.84 78.25 1402.32 76.64 1400.13 74.54C1397.94 72.3933 1396.23 69.8267 1395.02 66.84C1393.81 63.8533 1393.2 60.5167 1393.2 56.83C1393.2 53.1433 1393.81 49.8067 1395.02 46.82C1396.23 43.8333 1397.91 41.2667 1400.06 39.12C1402.25 36.9733 1404.8 35.3167 1407.69 34.15C1410.58 32.9833 1413.69 32.4 1417 32.4ZM1418.4 78.04C1420.83 78.04 1422.74 77.2467 1424.14 75.66C1425.54 74.0267 1426.54 71.7867 1427.15 68.94C1427.8 66.0933 1428.13 62.78 1428.13 59C1428.13 51.3933 1426.96 45.56 1424.63 41.5C1422.34 37.44 1419.31 35.41 1415.53 35.41C1413.15 35.41 1411.24 36.2033 1409.79 37.79C1408.39 39.3767 1407.36 41.6167 1406.71 44.51C1406.1 47.3567 1405.8 50.67 1405.8 54.45C1405.8 62.0567 1406.94 67.89 1409.23 71.95C1411.56 76.01 1414.62 78.04 1418.4 78.04ZM1448.68 81.05C1447.52 81.05 1446.28 80.9567 1444.97 80.77C1443.67 80.5833 1442.55 80.3267 1441.61 80V78.39C1442.55 78.39 1443.6 78.0167 1444.76 77.27C1445.93 76.5233 1447.12 75.03 1448.33 72.79L1458.34 54.66C1455.22 53.8667 1452.84 52.5833 1451.2 50.81C1449.62 49.0367 1448.82 46.89 1448.82 44.37C1448.82 42.41 1449.41 40.5667 1450.57 38.84C1451.79 37.1133 1453.75 35.7367 1456.45 34.71C1459.21 33.6367 1462.89 33.1 1467.51 33.1C1469.01 33.1 1470.73 33.17 1472.69 33.31C1474.65 33.4033 1476.82 33.45 1479.2 33.45H1488.16V35.06C1486.81 35.1067 1485.83 35.4567 1485.22 36.11C1484.62 36.7167 1484.31 38.1633 1484.31 40.45V73C1484.31 75.2867 1484.66 76.7333 1485.36 77.34C1486.06 77.9467 1487.35 78.2967 1489.21 78.39V80H1469.26V78.39C1470.62 78.2967 1471.6 77.9467 1472.2 77.34C1472.81 76.7333 1473.11 75.2867 1473.11 73V40.45C1473.11 38.63 1472.79 37.4633 1472.13 36.95C1471.53 36.39 1470.45 36.11 1468.91 36.11C1466.91 36.11 1465.09 36.8333 1463.45 38.28C1461.87 39.68 1461.07 41.8033 1461.07 44.65C1461.07 46.1433 1461.38 47.59 1461.98 48.99C1462.59 50.3433 1463.66 51.4867 1465.2 52.42C1466.79 53.3533 1468.96 53.9133 1471.71 54.1V56.55C1471.15 56.55 1470.66 56.6667 1470.24 56.9C1469.82 57.0867 1469.4 57.5767 1468.98 58.37L1461.07 73.63C1460 75.6833 1458.51 77.4333 1456.59 78.88C1454.68 80.3267 1452.04 81.05 1448.68 81.05ZM1511.33 52H1518.12C1523.21 52 1527.22 52.56 1530.16 53.68C1533.1 54.8 1535.18 56.34 1536.39 58.3C1537.65 60.26 1538.28 62.5233 1538.28 65.09C1538.28 67.6567 1537.58 70.0833 1536.18 72.37C1534.83 74.61 1532.71 76.4533 1529.81 77.9C1526.97 79.3 1523.33 80 1518.89 80H1496.28V78.39C1497.64 78.2967 1498.62 77.9467 1499.22 77.34C1499.83 76.7333 1500.13 75.2867 1500.13 73V40.45C1500.13 38.1633 1499.78 36.7167 1499.08 36.11C1498.43 35.4567 1497.15 35.1067 1495.23 35.06V33.45H1533.73V45H1532.12C1531.98 43.4133 1531.68 41.99 1531.21 40.73C1530.75 39.4233 1529.95 38.3967 1528.83 37.65C1527.71 36.8567 1526.1 36.46 1524 36.46H1514.41C1513.43 36.46 1512.66 36.7167 1512.1 37.23C1511.59 37.7433 1511.33 38.8167 1511.33 40.45V52ZM1515.46 76.99C1517.94 76.99 1519.97 76.4067 1521.55 75.24C1523.19 74.0267 1524.4 72.5333 1525.19 70.76C1525.99 68.9867 1526.38 67.2367 1526.38 65.51C1526.38 62.9433 1525.89 60.89 1524.91 59.35C1523.98 57.81 1522.7 56.7133 1521.06 56.06C1519.48 55.36 1517.68 55.01 1515.67 55.01H1511.33V73C1511.33 74.6333 1511.59 75.7067 1512.1 76.22C1512.62 76.7333 1513.74 76.99 1515.46 76.99ZM1545.71 80V78.39C1547.06 78.2967 1548.04 77.9467 1548.65 77.34C1549.26 76.7333 1549.56 75.2867 1549.56 73V40.45C1549.56 38.1633 1549.21 36.7167 1548.51 36.11C1547.86 35.4567 1546.57 35.1067 1544.66 35.06V33.45H1549.56C1552.97 33.45 1556.16 33.4033 1559.15 33.31C1562.14 33.17 1564.38 33.1 1565.87 33.1C1570.72 33.1 1574.55 33.6367 1577.35 34.71C1580.2 35.7833 1582.23 37.2067 1583.44 38.98C1584.7 40.7067 1585.33 42.62 1585.33 44.72C1585.33 47.1467 1584.54 49.4567 1582.95 51.65C1581.41 53.8433 1578.94 55.5467 1575.53 56.76C1572.17 57.9267 1567.71 58.3 1562.16 57.88V55.43C1564.68 55.5233 1566.76 55.08 1568.39 54.1C1570.02 53.0733 1571.21 51.72 1571.96 50.04C1572.75 48.36 1573.15 46.5633 1573.15 44.65C1573.15 42.0833 1572.43 40.03 1570.98 38.49C1569.53 36.9033 1567.53 36.11 1564.96 36.11C1563.42 36.11 1562.32 36.39 1561.67 36.95C1561.06 37.4633 1560.76 38.63 1560.76 40.45V73C1560.76 74.4933 1560.9 75.6367 1561.18 76.43C1561.51 77.1767 1562.07 77.69 1562.86 77.97C1563.7 78.2033 1564.87 78.3433 1566.36 78.39V80H1545.71ZM1592.72 81.05C1591.55 81.05 1590.31 80.9567 1589.01 80.77C1587.7 80.5833 1586.58 80.3267 1585.65 80V78.39C1586.58 78.39 1587.63 78.0167 1588.8 77.27C1589.96 76.5233 1591.15 75.03 1592.37 72.79L1602.38 54.66C1599.25 53.8667 1596.87 52.5833 1595.24 50.81C1593.65 49.0367 1592.86 46.89 1592.86 44.37C1592.86 42.41 1593.44 40.5667 1594.61 38.84C1595.82 37.1133 1597.78 35.7367 1600.49 34.71C1603.24 33.6367 1606.93 33.1 1611.55 33.1C1613.04 33.1 1614.77 33.17 1616.73 33.31C1618.69 33.4033 1620.86 33.45 1623.24 33.45H1632.2V35.06C1630.84 35.1067 1629.86 35.4567 1629.26 36.11C1628.65 36.7167 1628.35 38.1633 1628.35 40.45V73C1628.35 75.2867 1628.7 76.7333 1629.4 77.34C1630.1 77.9467 1631.38 78.2967 1633.25 78.39V80H1613.3V78.39C1614.65 78.2967 1615.63 77.9467 1616.24 77.34C1616.84 76.7333 1617.15 75.2867 1617.15 73V40.45C1617.15 38.63 1616.82 37.4633 1616.17 36.95C1615.56 36.39 1614.49 36.11 1612.95 36.11C1610.94 36.11 1609.12 36.8333 1607.49 38.28C1605.9 39.68 1605.11 41.8033 1605.11 44.65C1605.11 46.1433 1605.41 47.59 1606.02 48.99C1606.62 50.3433 1607.7 51.4867 1609.24 52.42C1610.82 53.3533 1612.99 53.9133 1615.75 54.1V56.55C1615.19 56.55 1614.7 56.6667 1614.28 56.9C1613.86 57.0867 1613.44 57.5767 1613.02 58.37L1605.11 73.63C1604.03 75.6833 1602.54 77.4333 1600.63 78.88C1598.71 80.3267 1596.08 81.05 1592.72 81.05ZM1688.87 67.05H1690.48L1689.78 80H1656.04V78.39C1656.41 78.2033 1656.97 77.8767 1657.72 77.41C1658.51 76.9433 1659.33 76.4067 1660.17 75.8C1662.5 74.12 1664.69 72.2067 1666.75 70.06C1668.8 67.9133 1670.6 65.6267 1672.14 63.2C1673.68 60.7733 1674.89 58.3467 1675.78 55.92C1676.66 53.4933 1677.11 51.1833 1677.11 48.99C1677.11 46.89 1676.59 45.1167 1675.57 43.67C1674.59 42.2233 1672.79 41.5 1670.18 41.5C1667.98 41.5 1665.95 42.1067 1664.09 43.32C1662.22 44.5333 1660.38 46.4233 1658.56 48.99L1657.23 47.87C1659.14 43.0167 1661.54 39.4 1664.44 37.02C1667.33 34.64 1670.95 33.45 1675.29 33.45C1677.81 33.45 1680.07 33.87 1682.08 34.71C1684.08 35.5033 1685.67 36.7633 1686.84 38.49C1688.05 40.17 1688.66 42.3633 1688.66 45.07C1688.66 49.8767 1687.12 54.38 1684.04 58.58C1681 62.78 1676.76 66.7233 1671.3 70.41V70.55H1681.52C1684.18 70.55 1686.02 70.2233 1687.05 69.57C1688.07 68.9167 1688.68 68.0767 1688.87 67.05ZM1718.66 33.45C1721.08 33.45 1723.46 33.9167 1725.8 34.85C1728.13 35.7833 1730.23 37.23 1732.1 39.19C1733.96 41.15 1735.43 43.6233 1736.51 46.61C1737.63 49.55 1738.19 53.05 1738.19 57.11C1738.19 61.1233 1737.65 64.6233 1736.58 67.61C1735.5 70.5967 1734.03 73.0933 1732.17 75.1C1730.3 77.1067 1728.2 78.6 1725.87 79.58C1723.53 80.56 1721.11 81.05 1718.59 81.05C1716.16 81.05 1713.78 80.5833 1711.45 79.65C1709.11 78.7167 1707.01 77.27 1705.15 75.31C1703.28 73.35 1701.79 70.9 1700.67 67.96C1699.59 64.9733 1699.06 61.45 1699.06 57.39C1699.06 53.3767 1699.59 49.8767 1700.67 46.89C1701.74 43.9033 1703.21 41.4067 1705.08 39.4C1706.94 37.3933 1709.04 35.9 1711.38 34.92C1713.71 33.94 1716.14 33.45 1718.66 33.45ZM1718.87 78.04C1720.22 78.04 1721.46 77.4333 1722.58 76.22C1723.7 75.0067 1724.58 72.9533 1725.24 70.06C1725.94 67.1667 1726.29 63.2 1726.29 58.16C1726.29 53.7733 1725.98 49.97 1725.38 46.75C1724.82 43.4833 1723.95 40.9633 1722.79 39.19C1721.62 37.37 1720.15 36.46 1718.38 36.46C1717.07 36.46 1715.83 37.0667 1714.67 38.28C1713.55 39.4933 1712.64 41.5467 1711.94 44.44C1711.28 47.3333 1710.96 51.3 1710.96 56.34C1710.96 60.7267 1711.24 64.5533 1711.8 67.82C1712.4 71.04 1713.29 73.56 1714.46 75.38C1715.62 77.1533 1717.09 78.04 1718.87 78.04ZM1776.84 67.05H1778.45L1777.75 80H1744.01V78.39C1744.39 78.2033 1744.95 77.8767 1745.69 77.41C1746.49 76.9433 1747.3 76.4067 1748.14 75.8C1750.48 74.12 1752.67 72.2067 1754.72 70.06C1756.78 67.9133 1758.57 65.6267 1760.11 63.2C1761.65 60.7733 1762.87 58.3467 1763.75 55.92C1764.64 53.4933 1765.08 51.1833 1765.08 48.99C1765.08 46.89 1764.57 45.1167 1763.54 43.67C1762.56 42.2233 1760.77 41.5 1758.15 41.5C1755.96 41.5 1753.93 42.1067 1752.06 43.32C1750.2 44.5333 1748.35 46.4233 1746.53 48.99L1745.2 47.87C1747.12 43.0167 1749.52 39.4 1752.41 37.02C1755.31 34.64 1758.92 33.45 1763.26 33.45C1765.78 33.45 1768.05 33.87 1770.05 34.71C1772.06 35.5033 1773.65 36.7633 1774.81 38.49C1776.03 40.17 1776.63 42.3633 1776.63 45.07C1776.63 49.8767 1775.09 54.38 1772.01 58.58C1768.98 62.78 1764.73 66.7233 1759.27 70.41V70.55H1769.49C1772.15 70.55 1774 70.2233 1775.02 69.57C1776.05 68.9167 1776.66 68.0767 1776.84 67.05ZM1815.74 62.15H1820.64V70.9H1817.7C1816.39 70.9 1815.74 71.7167 1815.74 73.35C1815.74 74.47 1815.74 75.5667 1815.74 76.64C1815.78 77.6667 1815.83 78.7867 1815.88 80H1804.82C1804.91 78.46 1804.98 76.9667 1805.03 75.52C1805.07 74.0267 1805.12 72.4867 1805.17 70.9H1783.05V69.29C1784.26 68.1233 1785.36 66.91 1786.34 65.65L1809.23 37.02C1809.74 36.3667 1810.21 35.7367 1810.63 35.13C1811.09 34.4767 1811.47 33.9167 1811.75 33.45H1815.81L1815.74 62.15ZM1805.03 47.52L1793.34 62.15H1805.24V47.52H1805.03ZM1878.07 33.45V46.4H1876.46C1876.22 44.3467 1875.8 42.5967 1875.2 41.15C1874.64 39.6567 1873.75 38.5133 1872.54 37.72C1871.37 36.88 1869.74 36.46 1867.64 36.46H1864.35C1863.37 36.46 1862.6 36.7167 1862.04 37.23C1861.52 37.7433 1861.27 38.8167 1861.27 40.45V73C1861.27 75.2867 1861.62 76.7333 1862.32 77.34C1863.02 77.9467 1864.3 78.2967 1866.17 78.39V80H1846.22V78.39C1847.57 78.2967 1848.55 77.9467 1849.16 77.34C1849.76 76.7333 1850.07 75.2867 1850.07 73V40.45C1850.07 38.1633 1849.72 36.7167 1849.02 36.11C1848.36 35.4567 1847.08 35.1067 1845.17 35.06V33.45H1878.07ZM1906.11 32.4C1909.42 32.4 1912.5 32.96 1915.35 34.08C1918.2 35.2 1920.72 36.8333 1922.91 38.98C1925.1 41.08 1926.81 43.6233 1928.02 46.61C1929.23 49.5967 1929.84 52.9333 1929.84 56.62C1929.84 60.3067 1929.23 63.6433 1928.02 66.63C1926.81 69.6167 1925.1 72.1833 1922.91 74.33C1920.76 76.4767 1918.24 78.1333 1915.35 79.3C1912.46 80.4667 1909.35 81.05 1906.04 81.05C1902.77 81.05 1899.69 80.49 1896.8 79.37C1893.95 78.25 1891.43 76.64 1889.24 74.54C1887.05 72.3933 1885.34 69.8267 1884.13 66.84C1882.92 63.8533 1882.31 60.5167 1882.31 56.83C1882.31 53.1433 1882.92 49.8067 1884.13 46.82C1885.34 43.8333 1887.02 41.2667 1889.17 39.12C1891.36 36.9733 1893.91 35.3167 1896.8 34.15C1899.69 32.9833 1902.8 32.4 1906.11 32.4ZM1907.51 78.04C1909.94 78.04 1911.85 77.2467 1913.25 75.66C1914.65 74.0267 1915.65 71.7867 1916.26 68.94C1916.91 66.0933 1917.24 62.78 1917.24 59C1917.24 51.3933 1916.07 45.56 1913.74 41.5C1911.45 37.44 1908.42 35.41 1904.64 35.41C1902.26 35.41 1900.35 36.2033 1898.9 37.79C1897.5 39.3767 1896.47 41.6167 1895.82 44.51C1895.21 47.3567 1894.91 50.67 1894.91 54.45C1894.91 62.0567 1896.05 67.89 1898.34 71.95C1900.67 76.01 1903.73 78.04 1907.51 78.04ZM1960.2 38.98L1971.82 73C1972.24 74.2133 1972.84 75.3333 1973.64 76.36C1974.48 77.34 1975.76 78.0167 1977.49 78.39L1974.27 94.35H1972.66C1972.56 91.4567 1972.14 88.9367 1971.4 86.79C1970.65 84.6433 1969.72 82.9633 1968.6 81.75C1967.48 80.5833 1966.26 80 1964.96 80H1946.2C1944.47 80 1942.77 80.5833 1941.09 81.75C1939.45 82.9633 1938.05 84.6433 1936.89 86.79C1935.77 88.9367 1935.04 91.4567 1934.72 94.35H1933.11V78.39C1933.95 78.0167 1934.76 77.3867 1935.56 76.5C1936.35 75.5667 1937.07 74.5167 1937.73 73.35C1938.43 72.1833 1938.96 71.0867 1939.34 70.06L1951.24 38.98C1951.7 37.7667 1952.15 36.5767 1952.57 35.41C1952.99 34.2433 1953.36 33.0533 1953.69 31.84H1957.75C1958.07 33.0533 1958.45 34.2433 1958.87 35.41C1959.33 36.5767 1959.78 37.7667 1960.2 38.98ZM1957.26 76.99C1959.12 76.99 1960.15 76.6867 1960.34 76.08C1960.52 75.4733 1960.36 74.4467 1959.85 73L1951.66 47.8H1951.52L1940.6 76.99H1957.26ZM2020.32 73C2020.98 74.5867 2021.51 75.7533 2021.93 76.5C2022.4 77.2467 2022.89 77.7367 2023.4 77.97C2023.92 78.1567 2024.55 78.2967 2025.29 78.39V80H2005.76V78.39C2007.63 78.2967 2008.66 77.7367 2008.84 76.71C2009.08 75.6833 2008.91 74.4467 2008.35 73L2004.85 63.9C2004.57 64.1333 2004.2 64.2967 2003.73 64.39C2003.31 64.4367 2002.85 64.46 2002.33 64.46H1994.42C1993.44 64.46 1992.7 64.5767 1992.18 64.81C1991.67 65.0433 1991.23 65.6267 1990.85 66.56L1988.33 73C1987.73 74.54 1987.77 75.8 1988.47 76.78C1989.17 77.76 1990.55 78.2967 1992.6 78.39V80H1979.86V78.39C1980.89 78.2967 1981.75 77.7833 1982.45 76.85C1983.2 75.87 1983.88 74.5867 1984.48 73L1997.92 38.98C1998.44 37.7667 1998.88 36.5767 1999.25 35.41C1999.67 34.2433 2000.05 33.0533 2000.37 31.84H2004.43C2004.76 33.0533 2005.13 34.2433 2005.55 35.41C2005.97 36.5767 2006.42 37.7667 2006.88 38.98L2020.32 73ZM2001.98 61.45C2002.64 61.45 2003.06 61.3567 2003.24 61.17C2003.48 60.9367 2003.45 60.47 2003.17 59.77L1998.34 47.8H1998.2L1992.74 61.73C1992.98 61.59 1993.26 61.52 1993.58 61.52C1993.91 61.4733 1994.28 61.45 1994.7 61.45H2001.98Z" fill="black"/>
<path d="M2096.06 49.0198C2089.08 46.2333 2080.89 47.7194 2075.31 53.2924C2067.77 60.8158 2067.77 72.9834 2075.31 80.5068C2080.89 86.0798 2089.08 87.5659 2096.06 84.7794V75.8627C2094.66 76.5129 2093.17 76.8844 2091.59 76.8844C2086.01 76.8844 2081.54 72.4261 2081.54 66.8532C2081.54 61.2802 2086.01 56.8219 2091.59 56.8219C2093.17 56.8219 2094.75 57.1934 2096.06 57.8436V49.0198Z" fill="black"/>
<path d="M2092.89 40.0841C2095.64 37.3287 2095.64 32.7681 2092.89 29.9177C2090.15 27.1623 2085.6 27.1623 2082.75 29.9177C2079.91 32.673 2080 37.2337 2082.75 40.0841C2085.6 42.8394 2090.15 42.8394 2092.89 40.0841Z" fill="black"/>
<path d="M2172.79 67.05H2174.4L2173.7 80H2139.96V78.39C2140.34 78.2033 2140.9 77.8767 2141.64 77.41C2142.44 76.9433 2143.25 76.4067 2144.09 75.8C2146.43 74.12 2148.62 72.2067 2150.67 70.06C2152.73 67.9133 2154.52 65.6267 2156.06 63.2C2157.6 60.7733 2158.82 58.3467 2159.7 55.92C2160.59 53.4933 2161.03 51.1833 2161.03 48.99C2161.03 46.89 2160.52 45.1167 2159.49 43.67C2158.51 42.2233 2156.72 41.5 2154.1 41.5C2151.91 41.5 2149.88 42.1067 2148.01 43.32C2146.15 44.5333 2144.3 46.4233 2142.48 48.99L2141.15 47.87C2143.07 43.0167 2145.47 39.4 2148.36 37.02C2151.26 34.64 2154.87 33.45 2159.21 33.45C2161.73 33.45 2164 33.87 2166 34.71C2168.01 35.5033 2169.6 36.7633 2170.76 38.49C2171.98 40.17 2172.58 42.3633 2172.58 45.07C2172.58 49.8767 2171.04 54.38 2167.96 58.58C2164.93 62.78 2160.68 66.7233 2155.22 70.41V70.55H2165.44C2168.1 70.55 2169.95 70.2233 2170.97 69.57C2172 68.9167 2172.61 68.0767 2172.79 67.05ZM2202.59 33.45C2205.01 33.45 2207.39 33.9167 2209.73 34.85C2212.06 35.7833 2214.16 37.23 2216.03 39.19C2217.89 41.15 2219.36 43.6233 2220.44 46.61C2221.56 49.55 2222.12 53.05 2222.12 57.11C2222.12 61.1233 2221.58 64.6233 2220.51 67.61C2219.43 70.5967 2217.96 73.0933 2216.1 75.1C2214.23 77.1067 2212.13 78.6 2209.8 79.58C2207.46 80.56 2205.04 81.05 2202.52 81.05C2200.09 81.05 2197.71 80.5833 2195.38 79.65C2193.04 78.7167 2190.94 77.27 2189.08 75.31C2187.21 73.35 2185.72 70.9 2184.6 67.96C2183.52 64.9733 2182.99 61.45 2182.99 57.39C2182.99 53.3767 2183.52 49.8767 2184.6 46.89C2185.67 43.9033 2187.14 41.4067 2189.01 39.4C2190.87 37.3933 2192.97 35.9 2195.31 34.92C2197.64 33.94 2200.07 33.45 2202.59 33.45ZM2202.8 78.04C2204.15 78.04 2205.39 77.4333 2206.51 76.22C2207.63 75.0067 2208.51 72.9533 2209.17 70.06C2209.87 67.1667 2210.22 63.2 2210.22 58.16C2210.22 53.7733 2209.91 49.97 2209.31 46.75C2208.75 43.4833 2207.88 40.9633 2206.72 39.19C2205.55 37.37 2204.08 36.46 2202.31 36.46C2201 36.46 2199.76 37.0667 2198.6 38.28C2197.48 39.4933 2196.57 41.5467 2195.87 44.44C2195.21 47.3333 2194.89 51.3 2194.89 56.34C2194.89 60.7267 2195.17 64.5533 2195.73 67.82C2196.33 71.04 2197.22 73.56 2198.39 75.38C2199.55 77.1533 2201.02 78.04 2202.8 78.04ZM2269.63 58.86L2247.93 60.75L2247.44 55.08L2269.14 53.19L2269.63 58.86ZM2323.8 67.05H2325.41L2324.71 80H2290.97V78.39C2291.34 78.2033 2291.9 77.8767 2292.65 77.41C2293.44 76.9433 2294.26 76.4067 2295.1 75.8C2297.43 74.12 2299.63 72.2067 2301.68 70.06C2303.73 67.9133 2305.53 65.6267 2307.07 63.2C2308.61 60.7733 2309.82 58.3467 2310.71 55.92C2311.6 53.4933 2312.04 51.1833 2312.04 48.99C2312.04 46.89 2311.53 45.1167 2310.5 43.67C2309.52 42.2233 2307.72 41.5 2305.11 41.5C2302.92 41.5 2300.89 42.1067 2299.02 43.32C2297.15 44.5333 2295.31 46.4233 2293.49 48.99L2292.16 47.87C2294.07 43.0167 2296.48 39.4 2299.37 37.02C2302.26 34.64 2305.88 33.45 2310.22 33.45C2312.74 33.45 2315 33.87 2317.01 34.71C2319.02 35.5033 2320.6 36.7633 2321.77 38.49C2322.98 40.17 2323.59 42.3633 2323.59 45.07C2323.59 49.8767 2322.05 54.38 2318.97 58.58C2315.94 62.78 2311.69 66.7233 2306.23 70.41V70.55H2316.45C2319.11 70.55 2320.95 70.2233 2321.98 69.57C2323.01 68.9167 2323.61 68.0767 2323.8 67.05ZM2352.4 72.3C2352.4 74.0267 2352.54 75.3333 2352.82 76.22C2353.15 77.06 2353.8 77.62 2354.78 77.9C2355.81 78.18 2357.35 78.3433 2359.4 78.39V80H2333.5V78.39C2335.6 78.3433 2337.14 78.18 2338.12 77.9C2339.15 77.62 2339.8 77.06 2340.08 76.22C2340.36 75.3333 2340.5 74.0267 2340.5 72.3V41.85L2334.06 45.84L2332.59 43.6L2348.83 33.45H2352.89C2352.71 34.3367 2352.57 35.2233 2352.47 36.11C2352.43 36.9967 2352.4 37.8833 2352.4 38.77V72.3ZM2384.42 80V78.39C2385.78 78.2967 2386.76 77.9467 2387.36 77.34C2387.97 76.7333 2388.27 75.2867 2388.27 73V40.45C2388.27 38.1633 2387.92 36.7167 2387.22 36.11C2386.57 35.4567 2385.29 35.1067 2383.37 35.06V33.45H2403.32V35.06C2401.97 35.1067 2400.99 35.4567 2400.38 36.11C2399.78 36.7167 2399.47 38.1633 2399.47 40.45V52.84C2399.85 52.56 2400.29 52.3733 2400.8 52.28C2401.36 52.1867 2402.02 52.14 2402.76 52.14H2415.99C2417.25 52.14 2418.14 51.93 2418.65 51.51C2419.17 51.09 2419.42 50.25 2419.42 48.99V40.45C2419.42 38.1633 2419.07 36.7167 2418.37 36.11C2417.72 35.4567 2416.44 35.1067 2414.52 35.06V33.45H2434.47V35.06C2433.12 35.1067 2432.14 35.4567 2431.53 36.11C2430.93 36.7167 2430.62 38.1633 2430.62 40.45V73C2430.62 75.2867 2430.97 76.7333 2431.67 77.34C2432.37 77.9467 2433.66 78.2967 2435.52 78.39V80H2415.57V78.39C2416.93 78.2967 2417.91 77.9467 2418.51 77.34C2419.12 76.7333 2419.42 75.2867 2419.42 73V54.38C2419.05 54.7067 2418.58 54.9167 2418.02 55.01C2417.46 55.1033 2416.83 55.15 2416.13 55.15H2402.9C2401.64 55.15 2400.76 55.36 2400.24 55.78C2399.73 56.2 2399.47 57.0167 2399.47 58.23V73C2399.47 75.2867 2399.82 76.7333 2400.52 77.34C2401.22 77.9467 2402.51 78.2967 2404.37 78.39V80H2384.42ZM2466.4 32.4C2469.71 32.4 2472.79 32.96 2475.64 34.08C2478.48 35.2 2481 36.8333 2483.2 38.98C2485.39 41.08 2487.09 43.6233 2488.31 46.61C2489.52 49.5967 2490.13 52.9333 2490.13 56.62C2490.13 60.3067 2489.52 63.6433 2488.31 66.63C2487.09 69.6167 2485.39 72.1833 2483.2 74.33C2481.05 76.4767 2478.53 78.1333 2475.64 79.3C2472.74 80.4667 2469.64 81.05 2466.33 81.05C2463.06 81.05 2459.98 80.49 2457.09 79.37C2454.24 78.25 2451.72 76.64 2449.53 74.54C2447.33 72.3933 2445.63 69.8267 2444.42 66.84C2443.2 63.8533 2442.6 60.5167 2442.6 56.83C2442.6 53.1433 2443.2 49.8067 2444.42 46.82C2445.63 43.8333 2447.31 41.2667 2449.46 39.12C2451.65 36.9733 2454.19 35.3167 2457.09 34.15C2459.98 32.9833 2463.08 32.4 2466.4 32.4ZM2467.8 78.04C2470.22 78.04 2472.14 77.2467 2473.54 75.66C2474.94 74.0267 2475.94 71.7867 2476.55 68.94C2477.2 66.0933 2477.53 62.78 2477.53 59C2477.53 51.3933 2476.36 45.56 2474.03 41.5C2471.74 37.44 2468.71 35.41 2464.93 35.41C2462.55 35.41 2460.63 36.2033 2459.19 37.79C2457.79 39.3767 2456.76 41.6167 2456.11 44.51C2455.5 47.3567 2455.2 50.67 2455.2 54.45C2455.2 62.0567 2456.34 67.89 2458.63 71.95C2460.96 76.01 2464.02 78.04 2467.8 78.04ZM2498.08 81.05C2496.92 81.05 2495.68 80.9567 2494.37 80.77C2493.07 80.5833 2491.95 80.3267 2491.01 80V78.39C2491.95 78.39 2493 78.0167 2494.16 77.27C2495.33 76.5233 2496.52 75.03 2497.73 72.79L2507.74 54.66C2504.62 53.8667 2502.24 52.5833 2500.6 50.81C2499.02 49.0367 2498.22 46.89 2498.22 44.37C2498.22 42.41 2498.81 40.5667 2499.97 38.84C2501.19 37.1133 2503.15 35.7367 2505.85 34.71C2508.61 33.6367 2512.29 33.1 2516.91 33.1C2518.41 33.1 2520.13 33.17 2522.09 33.31C2524.05 33.4033 2526.22 33.45 2528.6 33.45H2537.56V35.06C2536.21 35.1067 2535.23 35.4567 2534.62 36.11C2534.02 36.7167 2533.71 38.1633 2533.71 40.45V73C2533.71 75.2867 2534.06 76.7333 2534.76 77.34C2535.46 77.9467 2536.75 78.2967 2538.61 78.39V80H2518.66V78.39C2520.02 78.2967 2521 77.9467 2521.6 77.34C2522.21 76.7333 2522.51 75.2867 2522.51 73V40.45C2522.51 38.63 2522.19 37.4633 2521.53 36.95C2520.93 36.39 2519.85 36.11 2518.31 36.11C2516.31 36.11 2514.49 36.8333 2512.85 38.28C2511.27 39.68 2510.47 41.8033 2510.47 44.65C2510.47 46.1433 2510.78 47.59 2511.38 48.99C2511.99 50.3433 2513.06 51.4867 2514.6 52.42C2516.19 53.3533 2518.36 53.9133 2521.11 54.1V56.55C2520.55 56.55 2520.06 56.6667 2519.64 56.9C2519.22 57.0867 2518.8 57.5767 2518.38 58.37L2510.47 73.63C2509.4 75.6833 2507.91 77.4333 2505.99 78.88C2504.08 80.3267 2501.44 81.05 2498.08 81.05ZM2560.73 52H2567.52C2572.61 52 2576.62 52.56 2579.56 53.68C2582.5 54.8 2584.58 56.34 2585.79 58.3C2587.05 60.26 2587.68 62.5233 2587.68 65.09C2587.68 67.6567 2586.98 70.0833 2585.58 72.37C2584.23 74.61 2582.11 76.4533 2579.21 77.9C2576.37 79.3 2572.73 80 2568.29 80H2545.68V78.39C2547.04 78.2967 2548.02 77.9467 2548.62 77.34C2549.23 76.7333 2549.53 75.2867 2549.53 73V40.45C2549.53 38.1633 2549.18 36.7167 2548.48 36.11C2547.83 35.4567 2546.55 35.1067 2544.63 35.06V33.45H2583.13V45H2581.52C2581.38 43.4133 2581.08 41.99 2580.61 40.73C2580.15 39.4233 2579.35 38.3967 2578.23 37.65C2577.11 36.8567 2575.5 36.46 2573.4 36.46H2563.81C2562.83 36.46 2562.06 36.7167 2561.5 37.23C2560.99 37.7433 2560.73 38.8167 2560.73 40.45V52ZM2564.86 76.99C2567.34 76.99 2569.37 76.4067 2570.95 75.24C2572.59 74.0267 2573.8 72.5333 2574.59 70.76C2575.39 68.9867 2575.78 67.2367 2575.78 65.51C2575.78 62.9433 2575.29 60.89 2574.31 59.35C2573.38 57.81 2572.1 56.7133 2570.46 56.06C2568.88 55.36 2567.08 55.01 2565.07 55.01H2560.73V73C2560.73 74.6333 2560.99 75.7067 2561.5 76.22C2562.02 76.7333 2563.14 76.99 2564.86 76.99ZM2595.11 80V78.39C2596.46 78.2967 2597.44 77.9467 2598.05 77.34C2598.65 76.7333 2598.96 75.2867 2598.96 73V40.45C2598.96 38.1633 2598.61 36.7167 2597.91 36.11C2597.25 35.4567 2595.97 35.1067 2594.06 35.06V33.45H2598.96C2602.36 33.45 2605.56 33.4033 2608.55 33.31C2611.53 33.17 2613.77 33.1 2615.27 33.1C2620.12 33.1 2623.95 33.6367 2626.75 34.71C2629.59 35.7833 2631.62 37.2067 2632.84 38.98C2634.1 40.7067 2634.73 42.62 2634.73 44.72C2634.73 47.1467 2633.93 49.4567 2632.35 51.65C2630.81 53.8433 2628.33 55.5467 2624.93 56.76C2621.57 57.9267 2617.11 58.3 2611.56 57.88V55.43C2614.08 55.5233 2616.15 55.08 2617.79 54.1C2619.42 53.0733 2620.61 51.72 2621.36 50.04C2622.15 48.36 2622.55 46.5633 2622.55 44.65C2622.55 42.0833 2621.82 40.03 2620.38 38.49C2618.93 36.9033 2616.92 36.11 2614.36 36.11C2612.82 36.11 2611.72 36.39 2611.07 36.95C2610.46 37.4633 2610.16 38.63 2610.16 40.45V73C2610.16 74.4933 2610.3 75.6367 2610.58 76.43C2610.9 77.1767 2611.46 77.69 2612.26 77.97C2613.1 78.2033 2614.26 78.3433 2615.76 78.39V80H2595.11ZM2642.12 81.05C2640.95 81.05 2639.71 80.9567 2638.41 80.77C2637.1 80.5833 2635.98 80.3267 2635.05 80V78.39C2635.98 78.39 2637.03 78.0167 2638.2 77.27C2639.36 76.5233 2640.55 75.03 2641.77 72.79L2651.78 54.66C2648.65 53.8667 2646.27 52.5833 2644.64 50.81C2643.05 49.0367 2642.26 46.89 2642.26 44.37C2642.26 42.41 2642.84 40.5667 2644.01 38.84C2645.22 37.1133 2647.18 35.7367 2649.89 34.71C2652.64 33.6367 2656.33 33.1 2660.95 33.1C2662.44 33.1 2664.17 33.17 2666.13 33.31C2668.09 33.4033 2670.26 33.45 2672.64 33.45H2681.6V35.06C2680.24 35.1067 2679.26 35.4567 2678.66 36.11C2678.05 36.7167 2677.75 38.1633 2677.75 40.45V73C2677.75 75.2867 2678.1 76.7333 2678.8 77.34C2679.5 77.9467 2680.78 78.2967 2682.65 78.39V80H2662.7V78.39C2664.05 78.2967 2665.03 77.9467 2665.64 77.34C2666.24 76.7333 2666.55 75.2867 2666.55 73V40.45C2666.55 38.63 2666.22 37.4633 2665.57 36.95C2664.96 36.39 2663.89 36.11 2662.35 36.11C2660.34 36.11 2658.52 36.8333 2656.89 38.28C2655.3 39.68 2654.51 41.8033 2654.51 44.65C2654.51 46.1433 2654.81 47.59 2655.42 48.99C2656.02 50.3433 2657.1 51.4867 2658.64 52.42C2660.22 53.3533 2662.39 53.9133 2665.15 54.1V56.55C2664.59 56.55 2664.1 56.6667 2663.68 56.9C2663.26 57.0867 2662.84 57.5767 2662.42 58.37L2654.51 73.63C2653.43 75.6833 2651.94 77.4333 2650.03 78.88C2648.11 80.3267 2645.48 81.05 2642.12 81.05ZM2738.26 67.05H2739.87L2739.17 80H2705.43V78.39C2705.81 78.2033 2706.37 77.8767 2707.11 77.41C2707.91 76.9433 2708.72 76.4067 2709.56 75.8C2711.9 74.12 2714.09 72.2067 2716.14 70.06C2718.2 67.9133 2719.99 65.6267 2721.53 63.2C2723.07 60.7733 2724.29 58.3467 2725.17 55.92C2726.06 53.4933 2726.5 51.1833 2726.5 48.99C2726.5 46.89 2725.99 45.1167 2724.96 43.67C2723.98 42.2233 2722.19 41.5 2719.57 41.5C2717.38 41.5 2715.35 42.1067 2713.48 43.32C2711.62 44.5333 2709.77 46.4233 2707.95 48.99L2706.62 47.87C2708.54 43.0167 2710.94 39.4 2713.83 37.02C2716.73 34.64 2720.34 33.45 2724.68 33.45C2727.2 33.45 2729.47 33.87 2731.47 34.71C2733.48 35.5033 2735.07 36.7633 2736.23 38.49C2737.45 40.17 2738.05 42.3633 2738.05 45.07C2738.05 49.8767 2736.51 54.38 2733.43 58.58C2730.4 62.78 2726.15 66.7233 2720.69 70.41V70.55H2730.91C2733.57 70.55 2735.42 70.2233 2736.44 69.57C2737.47 68.9167 2738.08 68.0767 2738.26 67.05ZM2768.06 33.45C2770.48 33.45 2772.86 33.9167 2775.2 34.85C2777.53 35.7833 2779.63 37.23 2781.5 39.19C2783.36 41.15 2784.83 43.6233 2785.91 46.61C2787.03 49.55 2787.59 53.05 2787.59 57.11C2787.59 61.1233 2787.05 64.6233 2785.98 67.61C2784.9 70.5967 2783.43 73.0933 2781.57 75.1C2779.7 77.1067 2777.6 78.6 2775.27 79.58C2772.93 80.56 2770.51 81.05 2767.99 81.05C2765.56 81.05 2763.18 80.5833 2760.85 79.65C2758.51 78.7167 2756.41 77.27 2754.55 75.31C2752.68 73.35 2751.19 70.9 2750.07 67.96C2748.99 64.9733 2748.46 61.45 2748.46 57.39C2748.46 53.3767 2748.99 49.8767 2750.07 46.89C2751.14 43.9033 2752.61 41.4067 2754.48 39.4C2756.34 37.3933 2758.44 35.9 2760.78 34.92C2763.11 33.94 2765.54 33.45 2768.06 33.45ZM2768.27 78.04C2769.62 78.04 2770.86 77.4333 2771.98 76.22C2773.1 75.0067 2773.98 72.9533 2774.64 70.06C2775.34 67.1667 2775.69 63.2 2775.69 58.16C2775.69 53.7733 2775.38 49.97 2774.78 46.75C2774.22 43.4833 2773.35 40.9633 2772.19 39.19C2771.02 37.37 2769.55 36.46 2767.78 36.46C2766.47 36.46 2765.23 37.0667 2764.07 38.28C2762.95 39.4933 2762.04 41.5467 2761.34 44.44C2760.68 47.3333 2760.36 51.3 2760.36 56.34C2760.36 60.7267 2760.64 64.5533 2761.2 67.82C2761.8 71.04 2762.69 73.56 2763.86 75.38C2765.02 77.1533 2766.49 78.04 2768.27 78.04ZM2826.24 67.05H2827.85L2827.15 80H2793.41V78.39C2793.79 78.2033 2794.35 77.8767 2795.09 77.41C2795.89 76.9433 2796.7 76.4067 2797.54 75.8C2799.88 74.12 2802.07 72.2067 2804.12 70.06C2806.18 67.9133 2807.97 65.6267 2809.51 63.2C2811.05 60.7733 2812.27 58.3467 2813.15 55.92C2814.04 53.4933 2814.48 51.1833 2814.48 48.99C2814.48 46.89 2813.97 45.1167 2812.94 43.67C2811.96 42.2233 2810.17 41.5 2807.55 41.5C2805.36 41.5 2803.33 42.1067 2801.46 43.32C2799.6 44.5333 2797.75 46.4233 2795.93 48.99L2794.6 47.87C2796.52 43.0167 2798.92 39.4 2801.81 37.02C2804.71 34.64 2808.32 33.45 2812.66 33.45C2815.18 33.45 2817.45 33.87 2819.45 34.71C2821.46 35.5033 2823.05 36.7633 2824.21 38.49C2825.43 40.17 2826.03 42.3633 2826.03 45.07C2826.03 49.8767 2824.49 54.38 2821.41 58.58C2818.38 62.78 2814.13 66.7233 2808.67 70.41V70.55H2818.89C2821.55 70.55 2823.4 70.2233 2824.42 69.57C2825.45 68.9167 2826.06 68.0767 2826.24 67.05ZM2865.14 62.15H2870.04V70.9H2867.1C2865.79 70.9 2865.14 71.7167 2865.14 73.35C2865.14 74.47 2865.14 75.5667 2865.14 76.64C2865.18 77.6667 2865.23 78.7867 2865.28 80H2854.22C2854.31 78.46 2854.38 76.9667 2854.43 75.52C2854.47 74.0267 2854.52 72.4867 2854.57 70.9H2832.45V69.29C2833.66 68.1233 2834.76 66.91 2835.74 65.65L2858.63 37.02C2859.14 36.3667 2859.61 35.7367 2860.03 35.13C2860.49 34.4767 2860.87 33.9167 2861.15 33.45H2865.21L2865.14 62.15ZM2854.43 47.52L2842.74 62.15H2854.64V47.52H2854.43ZM2927.46 33.45V46.4H2925.85C2925.62 44.3467 2925.2 42.5967 2924.59 41.15C2924.03 39.6567 2923.15 38.5133 2921.93 37.72C2920.77 36.88 2919.13 36.46 2917.03 36.46H2913.74C2912.76 36.46 2911.99 36.7167 2911.43 37.23C2910.92 37.7433 2910.66 38.8167 2910.66 40.45V73C2910.66 75.2867 2911.01 76.7333 2911.71 77.34C2912.41 77.9467 2913.7 78.2967 2915.56 78.39V80H2895.61V78.39C2896.97 78.2967 2897.95 77.9467 2898.55 77.34C2899.16 76.7333 2899.46 75.2867 2899.46 73V40.45C2899.46 38.1633 2899.11 36.7167 2898.41 36.11C2897.76 35.4567 2896.48 35.1067 2894.56 35.06V33.45H2927.46ZM2955.51 32.4C2958.82 32.4 2961.9 32.96 2964.75 34.08C2967.6 35.2 2970.12 36.8333 2972.31 38.98C2974.5 41.08 2976.21 43.6233 2977.42 46.61C2978.63 49.5967 2979.24 52.9333 2979.24 56.62C2979.24 60.3067 2978.63 63.6433 2977.42 66.63C2976.21 69.6167 2974.5 72.1833 2972.31 74.33C2970.16 76.4767 2967.64 78.1333 2964.75 79.3C2961.86 80.4667 2958.75 81.05 2955.44 81.05C2952.17 81.05 2949.09 80.49 2946.2 79.37C2943.35 78.25 2940.83 76.64 2938.64 74.54C2936.45 72.3933 2934.74 69.8267 2933.53 66.84C2932.32 63.8533 2931.71 60.5167 2931.71 56.83C2931.71 53.1433 2932.32 49.8067 2933.53 46.82C2934.74 43.8333 2936.42 41.2667 2938.57 39.12C2940.76 36.9733 2943.31 35.3167 2946.2 34.15C2949.09 32.9833 2952.2 32.4 2955.51 32.4ZM2956.91 78.04C2959.34 78.04 2961.25 77.2467 2962.65 75.66C2964.05 74.0267 2965.05 71.7867 2965.66 68.94C2966.31 66.0933 2966.64 62.78 2966.64 59C2966.64 51.3933 2965.47 45.56 2963.14 41.5C2960.85 37.44 2957.82 35.41 2954.04 35.41C2951.66 35.41 2949.75 36.2033 2948.3 37.79C2946.9 39.3767 2945.87 41.6167 2945.22 44.51C2944.61 47.3567 2944.31 50.67 2944.31 54.45C2944.31 62.0567 2945.45 67.89 2947.74 71.95C2950.07 76.01 2953.13 78.04 2956.91 78.04ZM3009.59 38.98L3021.21 73C3021.63 74.2133 3022.24 75.3333 3023.03 76.36C3023.87 77.34 3025.16 78.0167 3026.88 78.39L3023.66 94.35H3022.05C3021.96 91.4567 3021.54 88.9367 3020.79 86.79C3020.05 84.6433 3019.11 82.9633 3017.99 81.75C3016.87 80.5833 3015.66 80 3014.35 80H2995.59C2993.87 80 2992.16 80.5833 2990.48 81.75C2988.85 82.9633 2987.45 84.6433 2986.28 86.79C2985.16 88.9367 2984.44 91.4567 2984.11 94.35H2982.5V78.39C2983.34 78.0167 2984.16 77.3867 2984.95 76.5C2985.75 75.5667 2986.47 74.5167 2987.12 73.35C2987.82 72.1833 2988.36 71.0867 2988.73 70.06L3000.63 38.98C3001.1 37.7667 3001.54 36.5767 3001.96 35.41C3002.38 34.2433 3002.76 33.0533 3003.08 31.84H3007.14C3007.47 33.0533 3007.84 34.2433 3008.26 35.41C3008.73 36.5767 3009.17 37.7667 3009.59 38.98ZM3006.65 76.99C3008.52 76.99 3009.55 76.6867 3009.73 76.08C3009.92 75.4733 3009.76 74.4467 3009.24 73L3001.05 47.8H3000.91L2989.99 76.99H3006.65ZM3069.72 73C3070.38 74.5867 3070.91 75.7533 3071.33 76.5C3071.8 77.2467 3072.29 77.7367 3072.8 77.97C3073.32 78.1567 3073.95 78.2967 3074.69 78.39V80H3055.16V78.39C3057.03 78.2967 3058.06 77.7367 3058.24 76.71C3058.48 75.6833 3058.31 74.4467 3057.75 73L3054.25 63.9C3053.97 64.1333 3053.6 64.2967 3053.13 64.39C3052.71 64.4367 3052.25 64.46 3051.73 64.46H3043.82C3042.84 64.46 3042.1 64.5767 3041.58 64.81C3041.07 65.0433 3040.63 65.6267 3040.25 66.56L3037.73 73C3037.13 74.54 3037.17 75.8 3037.87 76.78C3038.57 77.76 3039.95 78.2967 3042 78.39V80H3029.26V78.39C3030.29 78.2967 3031.15 77.7833 3031.85 76.85C3032.6 75.87 3033.28 74.5867 3033.88 73L3047.32 38.98C3047.84 37.7667 3048.28 36.5767 3048.65 35.41C3049.07 34.2433 3049.45 33.0533 3049.77 31.84H3053.83C3054.16 33.0533 3054.53 34.2433 3054.95 35.41C3055.37 36.5767 3055.82 37.7667 3056.28 38.98L3069.72 73ZM3051.38 61.45C3052.04 61.45 3052.46 61.3567 3052.64 61.17C3052.88 60.9367 3052.85 60.47 3052.57 59.77L3047.74 47.8H3047.6L3042.14 61.73C3042.38 61.59 3042.66 61.52 3042.98 61.52C3043.31 61.4733 3043.68 61.45 3044.1 61.45H3051.38Z" fill="black"/>
<defs>
<linearGradient id="paint0_linear_562_1670" x1="0" y1="57" x2="3115.8" y2="57" gradientUnits="userSpaceOnUse">
<stop stop-color="#FA0056"/>
<stop offset="0.375" stop-color="#F33174"/>
<stop offset="0.67" stop-color="#FA0056"/>
<stop offset="0.975" stop-color="#F33174"/>
</linearGradient>
</defs>
</svg>
