<svg width="1895" height="61" viewBox="0 0 1895 61" fill="none" xmlns="http://www.w3.org/2000/svg">
<rect width="1893.25" height="60" transform="translate(0.78125 0.114258)" fill="url(#paint0_linear_614_2531)"/>
<path d="M29.5621 41.1143V40.3472C30.2068 40.3027 30.6738 40.136 30.9628 39.8469C31.2518 39.5579 31.3964 38.8686 31.3964 37.7792V22.2709C31.3964 21.1815 31.2296 20.4922 30.8961 20.2032C30.5848 19.8919 29.9734 19.7251 29.0618 19.7029V18.9358H38.5668V19.7029C37.922 19.7251 37.4551 19.8919 37.1661 20.2032C36.877 20.4922 36.7325 21.1815 36.7325 22.2709V37.7792C36.7325 38.8686 36.8993 39.5579 37.2328 39.8469C37.5663 40.136 38.1777 40.3027 39.0671 40.3472V41.1143H29.5621ZM62.1621 41.3811C61.8286 41.0253 61.484 40.6807 61.1283 40.3472C60.7725 39.9914 60.2055 39.4689 59.4274 38.7797L46.2871 26.7733H46.2204V37.7792C46.2204 38.5351 46.4093 39.1465 46.7873 39.6135C47.1875 40.0581 47.8657 40.3027 48.8217 40.3472V41.1143H42.6518V40.3472C43.2966 40.3027 43.7635 40.0581 44.0525 39.6135C44.3416 39.1465 44.4861 38.5351 44.4861 37.7792V22.2709C44.4861 21.1815 44.3193 20.4922 43.9858 20.2032C43.6746 19.8919 43.0631 19.7251 42.1515 19.7029V18.9358H46.1537C46.4872 19.3583 46.8429 19.7363 47.2209 20.0698C47.5989 20.4033 48.0324 20.8035 48.5216 21.2704L61.7953 33.2768H61.862V22.2709C61.862 21.515 61.673 20.9035 61.295 20.4366C60.917 19.9697 60.2389 19.7251 59.2606 19.7029V18.9358H65.4305V19.7029C64.7858 19.7251 64.3188 19.9697 64.0298 20.4366C63.7408 20.9035 63.5962 21.515 63.5962 22.2709V37.7792C63.5962 38.4017 63.5962 39.002 63.5962 39.5801C63.6185 40.136 63.6407 40.7363 63.6629 41.3811H62.1621ZM68.0681 18.9358H87.0782V24.4388H86.3111C86.1777 23.2381 85.822 22.2598 85.2439 21.5039C84.6658 20.7479 83.6764 20.3699 82.2757 20.3699H80.2412V37.7792C80.2412 38.8686 80.408 39.5579 80.7415 39.8469C81.075 40.136 81.6865 40.3027 82.5758 40.3472V41.1143H73.0708V40.3472C73.7156 40.3027 74.1825 40.136 74.4715 39.8469C74.7606 39.5579 74.9051 38.8686 74.9051 37.7792V20.3699H72.8373C71.4811 20.3699 70.5028 20.7479 69.9024 21.5039C69.3244 22.2598 68.9686 23.2381 68.8352 24.4388H68.0681V18.9358ZM90.1045 41.1143V40.3472C90.7493 40.3027 91.2162 40.136 91.5053 39.8469C91.7943 39.5579 91.9389 38.8686 91.9389 37.7792V22.2709C91.9389 21.1815 91.7721 20.4922 91.4386 20.2032C91.1273 19.8919 90.5159 19.7251 89.6043 19.7029V18.9358H105.98V23.605H105.213C105.168 22.6489 104.835 21.8707 104.212 21.2704C103.612 20.6701 102.678 20.3699 101.411 20.3699H98.7425C98.2755 20.3699 97.9087 20.4922 97.6419 20.7368C97.3973 20.9814 97.275 21.4927 97.275 22.2709V28.8411C97.4529 28.7077 97.6641 28.6187 97.9087 28.5743C98.1755 28.5298 98.4868 28.5076 98.8425 28.5076H102.078C102.745 28.5076 103.3 28.3186 103.745 27.9406C104.19 27.5626 104.423 27.0401 104.445 26.3731H105.213V32.0428H104.445C104.423 31.2201 104.19 30.6643 103.745 30.3752C103.3 30.0862 102.745 29.9417 102.078 29.9417H98.9092C98.3089 29.9417 97.8864 30.0417 97.6419 30.2418C97.3973 30.4419 97.275 30.831 97.275 31.4091V37.7792C97.275 38.5573 97.4418 39.0687 97.7753 39.3133C98.131 39.5579 98.8092 39.6802 99.8097 39.6802H102.978C104.312 39.6802 105.368 39.28 106.146 38.4795C106.925 37.6791 107.358 36.723 107.447 35.6113H108.214L107.947 41.1143H90.1045ZM130.589 41.6145C129.588 41.6145 128.732 41.4478 128.021 41.1143C127.309 40.803 126.709 40.3805 126.22 39.8469C125.731 39.3133 125.275 38.7241 124.852 38.0793L120.183 30.8088C119.961 30.4308 119.761 30.1974 119.583 30.1084C119.405 30.0195 119.194 29.9639 118.949 29.9417V28.7744C120.283 28.6854 121.317 28.4186 122.051 27.974C122.785 27.5293 123.296 26.9845 123.585 26.3398C123.874 25.6727 124.019 24.9835 124.019 24.272C124.019 22.9157 123.641 21.9041 122.885 21.2371C122.129 20.5478 121.262 20.2032 120.283 20.2032C119.55 20.2032 119.027 20.3366 118.716 20.6034C118.427 20.848 118.282 21.4038 118.282 22.2709V37.7792C118.282 38.8686 118.449 39.5579 118.783 39.8469C119.116 40.136 119.727 40.3027 120.617 40.3472V41.1143H111.112V40.3472C111.757 40.3027 112.223 40.136 112.513 39.8469C112.802 39.5579 112.946 38.8686 112.946 37.7792V22.2709C112.946 21.1815 112.779 20.4922 112.446 20.2032C112.135 19.8919 111.523 19.7251 110.612 19.7029V18.9358H112.946C114.614 18.9358 116.126 18.9136 117.482 18.8691C118.838 18.8024 119.994 18.7691 120.95 18.7691C123.151 18.7691 124.897 18.9803 126.186 19.4028C127.498 19.803 128.432 20.3699 128.988 21.1037C129.566 21.8374 129.855 22.6712 129.855 23.605C129.855 24.4943 129.633 25.3059 129.188 26.0396C128.766 26.7733 128.199 27.3959 127.487 27.9073C126.798 28.3964 126.042 28.741 125.219 28.9411V29.0078L130.756 37.6791C131.4 38.7019 131.99 39.4022 132.523 39.7802C133.057 40.1582 133.535 40.3472 133.957 40.3472V41.1143C133.513 41.2699 132.979 41.3922 132.356 41.4811C131.756 41.5701 131.167 41.6145 130.589 41.6145ZM146.339 41.6145C144.005 41.6145 141.937 41.1476 140.136 40.2138C138.335 39.28 136.923 37.9681 135.9 36.2784C134.878 34.5663 134.366 32.5875 134.366 30.3419C134.366 28.4965 134.7 26.8511 135.367 25.4059C136.034 23.9385 136.945 22.6823 138.102 21.6373C139.28 20.5923 140.625 19.803 142.137 19.2693C143.671 18.7135 145.305 18.4356 147.04 18.4356C148.351 18.4356 149.608 18.5579 150.808 18.8024C152.009 19.047 152.965 19.336 153.677 19.6696V24.939H152.909C152.465 23.5827 151.931 22.5489 151.309 21.8374C150.686 21.1037 149.986 20.5923 149.207 20.3032C148.452 20.0142 147.651 19.8697 146.806 19.8697C142.515 19.8697 140.369 22.9824 140.369 29.2079C140.369 31.2535 140.581 33.11 141.003 34.7776C141.448 36.4451 142.126 37.768 143.038 38.7463C143.971 39.7024 145.161 40.1804 146.606 40.1804C147.785 40.1804 148.852 39.8914 149.808 39.3133C150.764 38.713 151.575 37.9237 152.242 36.9454C152.932 35.9671 153.421 34.911 153.71 33.777H154.477L154.21 38.8464C153.476 39.6468 152.443 40.3138 151.108 40.8474C149.774 41.3588 148.185 41.6145 146.339 41.6145ZM168.602 18.4356C170.18 18.4356 171.648 18.7024 173.004 19.236C174.36 19.7696 175.561 20.5478 176.606 21.5706C177.651 22.5711 178.463 23.7829 179.041 25.2058C179.619 26.6288 179.908 28.2185 179.908 29.975C179.908 31.7315 179.619 33.3212 179.041 34.7442C178.463 36.1672 177.651 37.3901 176.606 38.4128C175.583 39.4356 174.383 40.2249 173.004 40.7807C171.626 41.3366 170.147 41.6145 168.569 41.6145C167.012 41.6145 165.545 41.3477 164.166 40.8141C162.81 40.2805 161.609 39.5134 160.564 38.5129C159.519 37.4901 158.708 36.2672 158.13 34.8443C157.552 33.4213 157.263 31.8316 157.263 30.0751C157.263 28.3186 157.552 26.7289 158.13 25.3059C158.708 23.8829 159.508 22.66 160.531 21.6373C161.576 20.6145 162.788 19.8252 164.166 19.2693C165.545 18.7135 167.023 18.4356 168.602 18.4356ZM169.269 40.1804C170.425 40.1804 171.337 39.8025 172.004 39.0465C172.671 38.2683 173.149 37.2011 173.438 35.8448C173.749 34.4885 173.905 32.9099 173.905 31.109C173.905 27.4848 173.349 24.7056 172.237 22.7712C171.148 20.8368 169.702 19.8697 167.902 19.8697C166.768 19.8697 165.856 20.2476 165.167 21.0036C164.5 21.7596 164.011 22.8268 163.699 24.2053C163.41 25.5616 163.266 27.1402 163.266 28.9411C163.266 32.5653 163.81 35.3445 164.9 37.2789C166.012 39.2133 167.468 40.1804 169.269 40.1804ZM195.347 41.3811C195.169 40.8697 194.947 40.3472 194.68 39.8136C194.435 39.2577 194.102 38.5351 193.679 37.6458L187.676 25.1058H187.609L187.009 37.7792C186.987 38.5351 187.165 39.1465 187.543 39.6135C187.921 40.0581 188.61 40.3027 189.61 40.3472V41.1143H183.44V40.3472C184.085 40.3027 184.541 40.0581 184.808 39.6135C185.097 39.1465 185.253 38.5351 185.275 37.7792L185.975 22.2709C186.02 21.4927 185.964 20.9369 185.808 20.6034C185.675 20.2699 185.43 20.0587 185.075 19.9697C184.719 19.8585 184.241 19.7696 183.641 19.7029V18.9358H190.778C190.956 19.5139 191.156 20.0587 191.378 20.57C191.623 21.0814 191.889 21.6484 192.178 22.2709L197.915 34.2773H197.982L203.318 22.2709C203.829 21.137 204.218 20.0253 204.485 18.9358H211.555V19.7029C211.133 19.7251 210.777 19.7918 210.488 19.903C210.199 20.0142 209.988 20.2476 209.854 20.6034C209.743 20.9369 209.699 21.4927 209.721 22.2709L210.421 37.7792C210.466 38.4906 210.555 39.0243 210.688 39.38C210.844 39.7357 211.088 39.9803 211.422 40.1137C211.755 40.2249 212.2 40.3027 212.756 40.3472V41.1143H203.251V40.3472C203.962 40.3027 204.452 40.136 204.718 39.8469C205.007 39.5579 205.13 38.8686 205.085 37.7792L204.518 24.1386H204.452L198.415 37.6458C197.993 38.5796 197.681 39.3133 197.481 39.8469C197.303 40.3583 197.148 40.8697 197.014 41.3811H195.347ZM227.362 41.3811C227.185 40.8697 226.962 40.3472 226.695 39.8136C226.451 39.2577 226.117 38.5351 225.695 37.6458L219.692 25.1058H219.625L219.025 37.7792C219.002 38.5351 219.18 39.1465 219.558 39.6135C219.936 40.0581 220.626 40.3027 221.626 40.3472V41.1143H215.456V40.3472C216.101 40.3027 216.557 40.0581 216.824 39.6135C217.113 39.1465 217.268 38.5351 217.29 37.7792L217.991 22.2709C218.035 21.4927 217.98 20.9369 217.824 20.6034C217.691 20.2699 217.446 20.0587 217.09 19.9697C216.735 19.8585 216.257 19.7696 215.656 19.7029V18.9358H222.793C222.971 19.5139 223.171 20.0587 223.394 20.57C223.638 21.0814 223.905 21.6484 224.194 22.2709L229.93 34.2773H229.997L235.333 22.2709C235.845 21.137 236.234 20.0253 236.501 18.9358H243.571V19.7029C243.149 19.7251 242.793 19.7918 242.504 19.903C242.215 20.0142 242.004 20.2476 241.87 20.6034C241.759 20.9369 241.714 21.4927 241.737 22.2709L242.437 37.7792C242.482 38.4906 242.571 39.0243 242.704 39.38C242.86 39.7357 243.104 39.9803 243.438 40.1137C243.771 40.2249 244.216 40.3027 244.772 40.3472V41.1143H235.267V40.3472C235.978 40.3027 236.467 40.136 236.734 39.8469C237.023 39.5579 237.145 38.8686 237.101 37.7792L236.534 24.1386H236.467L230.431 37.6458C230.008 38.5796 229.697 39.3133 229.497 39.8469C229.319 40.3583 229.163 40.8697 229.03 41.3811H227.362ZM270.935 34.9443H271.702L271.369 41.1143H255.294V40.3472C255.472 40.2582 255.738 40.1026 256.094 39.8803C256.472 39.6579 256.861 39.4022 257.261 39.1132C258.373 38.3128 259.418 37.4012 260.396 36.3784C261.375 35.3557 262.231 34.2662 262.964 33.11C263.698 31.9538 264.276 30.7977 264.699 29.6415C265.121 28.4853 265.332 27.3848 265.332 26.3398C265.332 25.3392 265.088 24.4943 264.599 23.8051C264.132 23.1158 263.276 22.7712 262.031 22.7712C260.986 22.7712 260.018 23.0602 259.129 23.6383C258.24 24.2164 257.361 25.1169 256.494 26.3398L255.861 25.8061C256.772 23.4938 257.917 21.7707 259.296 20.6367C260.674 19.5028 262.397 18.9358 264.465 18.9358C265.666 18.9358 266.744 19.1359 267.7 19.5362C268.656 19.9141 269.412 20.5145 269.968 21.3371C270.546 22.1375 270.835 23.1825 270.835 24.4721C270.835 26.7622 270.101 28.9078 268.634 30.9088C267.189 32.9099 265.166 34.7887 262.564 36.5452V36.6119H267.433C268.701 36.6119 269.579 36.4562 270.068 36.145C270.557 35.8337 270.846 35.4335 270.935 34.9443ZM285.13 18.9358C286.286 18.9358 287.42 19.1582 288.532 19.6029C289.644 20.0475 290.644 20.7368 291.533 21.6706C292.423 22.6044 293.123 23.7829 293.635 25.2058C294.168 26.6066 294.435 28.2741 294.435 30.2085C294.435 32.1206 294.179 33.7882 293.668 35.2111C293.156 36.6341 292.456 37.8236 291.567 38.7797C290.677 39.7357 289.677 40.4472 288.565 40.9142C287.453 41.3811 286.297 41.6145 285.097 41.6145C283.941 41.6145 282.807 41.3922 281.695 40.9475C280.583 40.5028 279.583 39.8136 278.693 38.8797C277.804 37.9459 277.092 36.7786 276.559 35.3779C276.047 33.9549 275.792 32.2762 275.792 30.3419C275.792 28.4298 276.047 26.7622 276.559 25.3392C277.07 23.9163 277.771 22.7267 278.66 21.7707C279.549 20.8146 280.55 20.1031 281.662 19.6362C282.773 19.1693 283.929 18.9358 285.13 18.9358ZM285.23 40.1804C285.875 40.1804 286.464 39.8914 286.998 39.3133C287.531 38.7352 287.954 37.7569 288.265 36.3784C288.599 34.9999 288.765 33.11 288.765 30.7087C288.765 28.6187 288.621 26.8067 288.332 25.2725C288.065 23.7161 287.654 22.5155 287.098 21.6706C286.542 20.8035 285.842 20.3699 284.997 20.3699C284.374 20.3699 283.785 20.659 283.229 21.2371C282.695 21.8151 282.262 22.7934 281.928 24.1719C281.617 25.5505 281.461 27.4403 281.461 29.8416C281.461 31.9316 281.595 33.7548 281.862 35.3112C282.151 36.8453 282.573 38.046 283.129 38.9131C283.685 39.758 284.385 40.1804 285.23 40.1804ZM312.852 34.9443H313.619L313.286 41.1143H297.21V40.3472C297.388 40.2582 297.655 40.1026 298.011 39.8803C298.389 39.6579 298.778 39.4022 299.178 39.1132C300.29 38.3128 301.335 37.4012 302.313 36.3784C303.291 35.3557 304.147 34.2662 304.881 33.11C305.615 31.9538 306.193 30.7977 306.615 29.6415C307.038 28.4853 307.249 27.3848 307.249 26.3398C307.249 25.3392 307.004 24.4943 306.515 23.8051C306.048 23.1158 305.192 22.7712 303.947 22.7712C302.902 22.7712 301.935 23.0602 301.046 23.6383C300.156 24.2164 299.278 25.1169 298.411 26.3398L297.777 25.8061C298.689 23.4938 299.834 21.7707 301.213 20.6367C302.591 19.5028 304.314 18.9358 306.382 18.9358C307.583 18.9358 308.661 19.1359 309.617 19.5362C310.573 19.9141 311.329 20.5145 311.885 21.3371C312.463 22.1375 312.752 23.1825 312.752 24.4721C312.752 26.7622 312.018 28.9078 310.551 30.9088C309.106 32.9099 307.082 34.7887 304.481 36.5452V36.6119H309.35C310.617 36.6119 311.496 36.4562 311.985 36.145C312.474 35.8337 312.763 35.4335 312.852 34.9443ZM331.382 32.6098H333.717V36.7786H332.316C331.694 36.7786 331.382 37.1677 331.382 37.9459C331.382 38.4795 331.382 39.002 331.382 39.5134C331.405 40.0026 331.427 40.5362 331.449 41.1143H326.18C326.224 40.3805 326.257 39.669 326.28 38.9798C326.302 38.2683 326.324 37.5346 326.346 36.7786H315.807V36.0116C316.386 35.4557 316.908 34.8776 317.375 34.2773L328.281 20.6367C328.525 20.3255 328.748 20.0253 328.948 19.7363C329.17 19.425 329.348 19.1582 329.481 18.9358H331.416L331.382 32.6098ZM326.28 25.6394L320.71 32.6098H326.38V25.6394H326.28Z" fill="black"/>
<path d="M381.749 24.7913C377.095 22.9326 371.634 23.9239 367.911 27.6412C362.884 32.6595 362.884 40.7755 367.911 45.7938C371.634 49.511 377.095 50.5023 381.749 48.6437V42.696C380.818 43.1297 379.826 43.3775 378.771 43.3775C375.047 43.3775 372.068 40.4037 372.068 36.6865C372.068 32.9692 375.047 29.9954 378.771 29.9954C379.826 29.9954 380.88 30.2432 381.749 30.6769V24.7913Z" fill="black"/>
<path d="M379.647 18.831C381.481 16.9931 381.481 13.9511 379.647 12.0498C377.814 10.2119 374.78 10.2119 372.883 12.0498C370.987 13.8877 371.05 16.9297 372.883 18.831C374.78 20.6689 377.814 20.6689 379.647 18.831Z" fill="black"/>
<path d="M412.539 41.1143V40.3472C413.183 40.3027 413.65 40.136 413.939 39.8469C414.228 39.5579 414.373 38.8686 414.373 37.7792V22.2709C414.373 21.1815 414.206 20.4922 413.873 20.2032C413.561 19.8919 412.95 19.7251 412.038 19.7029V18.9358H421.543V19.7029C420.899 19.7251 420.432 19.8919 420.143 20.2032C419.854 20.4922 419.709 21.1815 419.709 22.2709V37.7792C419.709 38.8686 419.876 39.5579 420.209 39.8469C420.543 40.136 421.154 40.3027 422.044 40.3472V41.1143H412.539ZM445.139 41.3811C444.805 41.0253 444.461 40.6807 444.105 40.3472C443.749 39.9914 443.182 39.4689 442.404 38.7797L429.264 26.7733H429.197V37.7792C429.197 38.5351 429.386 39.1465 429.764 39.6135C430.164 40.0581 430.842 40.3027 431.798 40.3472V41.1143H425.628V40.3472C426.273 40.3027 426.74 40.0581 427.029 39.6135C427.318 39.1465 427.463 38.5351 427.463 37.7792V22.2709C427.463 21.1815 427.296 20.4922 426.962 20.2032C426.651 19.8919 426.04 19.7251 425.128 19.7029V18.9358H429.13C429.464 19.3583 429.819 19.7363 430.197 20.0698C430.575 20.4033 431.009 20.8035 431.498 21.2704L444.772 33.2768H444.839V22.2709C444.839 21.515 444.65 20.9035 444.272 20.4366C443.894 19.9697 443.215 19.7251 442.237 19.7029V18.9358H448.407V19.7029C447.762 19.7251 447.295 19.9697 447.006 20.4366C446.717 20.9035 446.573 21.515 446.573 22.2709V37.7792C446.573 38.4017 446.573 39.002 446.573 39.5801C446.595 40.136 446.617 40.7363 446.639 41.3811H445.139ZM451.045 18.9358H470.055V24.4388H469.288C469.154 23.2381 468.799 22.2598 468.22 21.5039C467.642 20.7479 466.653 20.3699 465.252 20.3699H463.218V37.7792C463.218 38.8686 463.385 39.5579 463.718 39.8469C464.052 40.136 464.663 40.3027 465.552 40.3472V41.1143H456.047V40.3472C456.692 40.3027 457.159 40.136 457.448 39.8469C457.737 39.5579 457.882 38.8686 457.882 37.7792V20.3699H455.814C454.458 20.3699 453.479 20.7479 452.879 21.5039C452.301 22.2598 451.945 23.2381 451.812 24.4388H451.045V18.9358ZM473.081 41.1143V40.3472C473.726 40.3027 474.193 40.136 474.482 39.8469C474.771 39.5579 474.915 38.8686 474.915 37.7792V22.2709C474.915 21.1815 474.749 20.4922 474.415 20.2032C474.104 19.8919 473.492 19.7251 472.581 19.7029V18.9358H488.956V23.605H488.189C488.145 22.6489 487.811 21.8707 487.189 21.2704C486.588 20.6701 485.654 20.3699 484.387 20.3699H481.719C481.252 20.3699 480.885 20.4922 480.618 20.7368C480.374 20.9814 480.252 21.4927 480.252 22.2709V28.8411C480.429 28.7077 480.641 28.6187 480.885 28.5743C481.152 28.5298 481.463 28.5076 481.819 28.5076H485.054C485.721 28.5076 486.277 28.3186 486.722 27.9406C487.166 27.5626 487.4 27.0401 487.422 26.3731H488.189V32.0428H487.422C487.4 31.2201 487.166 30.6643 486.722 30.3752C486.277 30.0862 485.721 29.9417 485.054 29.9417H481.886C481.285 29.9417 480.863 30.0417 480.618 30.2418C480.374 30.4419 480.252 30.831 480.252 31.4091V37.7792C480.252 38.5573 480.418 39.0687 480.752 39.3133C481.108 39.5579 481.786 39.6802 482.786 39.6802H485.955C487.289 39.6802 488.345 39.28 489.123 38.4795C489.901 37.6791 490.335 36.723 490.424 35.6113H491.191L490.924 41.1143H473.081ZM513.565 41.6145C512.565 41.6145 511.709 41.4478 510.997 41.1143C510.286 40.803 509.685 40.3805 509.196 39.8469C508.707 39.3133 508.251 38.7241 507.829 38.0793L503.16 30.8088C502.937 30.4308 502.737 30.1974 502.559 30.1084C502.382 30.0195 502.17 29.9639 501.926 29.9417V28.7744C503.26 28.6854 504.294 28.4186 505.027 27.974C505.761 27.5293 506.273 26.9845 506.562 26.3398C506.851 25.6727 506.995 24.9835 506.995 24.272C506.995 22.9157 506.617 21.9041 505.861 21.2371C505.105 20.5478 504.238 20.2032 503.26 20.2032C502.526 20.2032 502.004 20.3366 501.692 20.6034C501.403 20.848 501.259 21.4038 501.259 22.2709V37.7792C501.259 38.8686 501.426 39.5579 501.759 39.8469C502.093 40.136 502.704 40.3027 503.593 40.3472V41.1143H494.088V40.3472C494.733 40.3027 495.2 40.136 495.489 39.8469C495.778 39.5579 495.923 38.8686 495.923 37.7792V22.2709C495.923 21.1815 495.756 20.4922 495.422 20.2032C495.111 19.8919 494.5 19.7251 493.588 19.7029V18.9358H495.923C497.59 18.9358 499.102 18.9136 500.458 18.8691C501.815 18.8024 502.971 18.7691 503.927 18.7691C506.128 18.7691 507.873 18.9803 509.163 19.4028C510.475 19.803 511.409 20.3699 511.964 21.1037C512.543 21.8374 512.832 22.6712 512.832 23.605C512.832 24.4943 512.609 25.3059 512.165 26.0396C511.742 26.7733 511.175 27.3959 510.464 27.9073C509.774 28.3964 509.018 28.741 508.196 28.9411V29.0078L513.732 37.6791C514.377 38.7019 514.966 39.4022 515.5 39.7802C516.033 40.1582 516.511 40.3472 516.934 40.3472V41.1143C516.489 41.2699 515.955 41.3922 515.333 41.4811C514.733 41.5701 514.143 41.6145 513.565 41.6145ZM529.316 41.6145C526.981 41.6145 524.914 41.1476 523.113 40.2138C521.312 39.28 519.9 37.9681 518.877 36.2784C517.854 34.5663 517.343 32.5875 517.343 30.3419C517.343 28.4965 517.676 26.8511 518.343 25.4059C519.01 23.9385 519.922 22.6823 521.078 21.6373C522.257 20.5923 523.602 19.803 525.114 19.2693C526.648 18.7135 528.282 18.4356 530.016 18.4356C531.328 18.4356 532.584 18.5579 533.785 18.8024C534.986 19.047 535.942 19.336 536.653 19.6696V24.939H535.886C535.441 23.5827 534.908 22.5489 534.285 21.8374C533.663 21.1037 532.962 20.5923 532.184 20.3032C531.428 20.0142 530.628 19.8697 529.783 19.8697C525.492 19.8697 523.346 22.9824 523.346 29.2079C523.346 31.2535 523.557 33.11 523.98 34.7776C524.424 36.4451 525.103 37.768 526.014 38.7463C526.948 39.7024 528.137 40.1804 529.583 40.1804C530.761 40.1804 531.828 39.8914 532.784 39.3133C533.74 38.713 534.552 37.9237 535.219 36.9454C535.908 35.9671 536.397 34.911 536.686 33.777H537.454L537.187 38.8464C536.453 39.6468 535.419 40.3138 534.085 40.8474C532.751 41.3588 531.161 41.6145 529.316 41.6145ZM551.578 18.4356C553.157 18.4356 554.624 18.7024 555.981 19.236C557.337 19.7696 558.538 20.5478 559.583 21.5706C560.628 22.5711 561.439 23.7829 562.017 25.2058C562.595 26.6288 562.884 28.2185 562.884 29.975C562.884 31.7315 562.595 33.3212 562.017 34.7442C561.439 36.1672 560.628 37.3901 559.583 38.4128C558.56 39.4356 557.359 40.2249 555.981 40.7807C554.602 41.3366 553.124 41.6145 551.545 41.6145C549.989 41.6145 548.521 41.3477 547.143 40.8141C545.786 40.2805 544.586 39.5134 543.541 38.5129C542.496 37.4901 541.684 36.2672 541.106 34.8443C540.528 33.4213 540.239 31.8316 540.239 30.0751C540.239 28.3186 540.528 26.7289 541.106 25.3059C541.684 23.8829 542.485 22.66 543.507 21.6373C544.552 20.6145 545.764 19.8252 547.143 19.2693C548.521 18.7135 550 18.4356 551.578 18.4356ZM552.245 40.1804C553.402 40.1804 554.313 39.8025 554.98 39.0465C555.647 38.2683 556.125 37.2011 556.414 35.8448C556.726 34.4885 556.881 32.9099 556.881 31.109C556.881 27.4848 556.325 24.7056 555.214 22.7712C554.124 20.8368 552.679 19.8697 550.878 19.8697C549.744 19.8697 548.833 20.2476 548.143 21.0036C547.476 21.7596 546.987 22.8268 546.676 24.2053C546.387 25.5616 546.242 27.1402 546.242 28.9411C546.242 32.5653 546.787 35.3445 547.876 37.2789C548.988 39.2133 550.444 40.1804 552.245 40.1804ZM578.323 41.3811C578.145 40.8697 577.923 40.3472 577.656 39.8136C577.412 39.2577 577.078 38.5351 576.656 37.6458L570.653 25.1058H570.586L569.986 37.7792C569.963 38.5351 570.141 39.1465 570.519 39.6135C570.897 40.0581 571.586 40.3027 572.587 40.3472V41.1143H566.417V40.3472C567.062 40.3027 567.518 40.0581 567.784 39.6135C568.073 39.1465 568.229 38.5351 568.251 37.7792L568.952 22.2709C568.996 21.4927 568.941 20.9369 568.785 20.6034C568.652 20.2699 568.407 20.0587 568.051 19.9697C567.695 19.8585 567.217 19.7696 566.617 19.7029V18.9358H573.754C573.932 19.5139 574.132 20.0587 574.355 20.57C574.599 21.0814 574.866 21.6484 575.155 22.2709L580.891 34.2773H580.958L586.294 22.2709C586.806 21.137 587.195 20.0253 587.462 18.9358H594.532V19.7029C594.109 19.7251 593.754 19.7918 593.465 19.903C593.176 20.0142 592.964 20.2476 592.831 20.6034C592.72 20.9369 592.675 21.4927 592.698 22.2709L593.398 37.7792C593.442 38.4906 593.531 39.0243 593.665 39.38C593.82 39.7357 594.065 39.9803 594.399 40.1137C594.732 40.2249 595.177 40.3027 595.733 40.3472V41.1143H586.228V40.3472C586.939 40.3027 587.428 40.136 587.695 39.8469C587.984 39.5579 588.106 38.8686 588.062 37.7792L587.495 24.1386H587.428L581.392 37.6458C580.969 38.5796 580.658 39.3133 580.458 39.8469C580.28 40.3583 580.124 40.8697 579.991 41.3811H578.323ZM610.339 41.3811C610.161 40.8697 609.939 40.3472 609.672 39.8136C609.427 39.2577 609.094 38.5351 608.671 37.6458L602.668 25.1058H602.602L602.001 37.7792C601.979 38.5351 602.157 39.1465 602.535 39.6135C602.913 40.0581 603.602 40.3027 604.603 40.3472V41.1143H598.433V40.3472C599.077 40.3027 599.533 40.0581 599.8 39.6135C600.089 39.1465 600.245 38.5351 600.267 37.7792L600.967 22.2709C601.012 21.4927 600.956 20.9369 600.801 20.6034C600.667 20.2699 600.423 20.0587 600.067 19.9697C599.711 19.8585 599.233 19.7696 598.633 19.7029V18.9358H605.77C605.948 19.5139 606.148 20.0587 606.37 20.57C606.615 21.0814 606.882 21.6484 607.171 22.2709L612.907 34.2773H612.974L618.31 22.2709C618.821 21.137 619.21 20.0253 619.477 18.9358H626.548V19.7029C626.125 19.7251 625.769 19.7918 625.48 19.903C625.191 20.0142 624.98 20.2476 624.847 20.6034C624.736 20.9369 624.691 21.4927 624.713 22.2709L625.414 37.7792C625.458 38.4906 625.547 39.0243 625.68 39.38C625.836 39.7357 626.081 39.9803 626.414 40.1137C626.748 40.2249 627.192 40.3027 627.748 40.3472V41.1143H618.243V40.3472C618.955 40.3027 619.444 40.136 619.711 39.8469C620 39.5579 620.122 38.8686 620.077 37.7792L619.511 24.1386H619.444L613.407 37.6458C612.985 38.5796 612.674 39.3133 612.473 39.8469C612.296 40.3583 612.14 40.8697 612.007 41.3811H610.339ZM653.912 34.9443H654.679L654.345 41.1143H638.27V40.3472C638.448 40.2582 638.715 40.1026 639.071 39.8803C639.449 39.6579 639.838 39.4022 640.238 39.1132C641.35 38.3128 642.395 37.4012 643.373 36.3784C644.351 35.3557 645.207 34.2662 645.941 33.11C646.675 31.9538 647.253 30.7977 647.675 29.6415C648.098 28.4853 648.309 27.3848 648.309 26.3398C648.309 25.3392 648.064 24.4943 647.575 23.8051C647.108 23.1158 646.252 22.7712 645.007 22.7712C643.962 22.7712 642.995 23.0602 642.106 23.6383C641.216 24.2164 640.338 25.1169 639.471 26.3398L638.837 25.8061C639.749 23.4938 640.894 21.7707 642.272 20.6367C643.651 19.5028 645.374 18.9358 647.442 18.9358C648.642 18.9358 649.721 19.1359 650.677 19.5362C651.633 19.9141 652.389 20.5145 652.945 21.3371C653.523 22.1375 653.812 23.1825 653.812 24.4721C653.812 26.7622 653.078 28.9078 651.611 30.9088C650.165 32.9099 648.142 34.7887 645.541 36.5452V36.6119H650.41C651.677 36.6119 652.556 36.4562 653.045 36.145C653.534 35.8337 653.823 35.4335 653.912 34.9443ZM668.107 18.9358C669.263 18.9358 670.397 19.1582 671.508 19.6029C672.62 20.0475 673.621 20.7368 674.51 21.6706C675.399 22.6044 676.1 23.7829 676.611 25.2058C677.145 26.6066 677.412 28.2741 677.412 30.2085C677.412 32.1206 677.156 33.7882 676.644 35.2111C676.133 36.6341 675.433 37.8236 674.543 38.7797C673.654 39.7357 672.653 40.4472 671.542 40.9142C670.43 41.3811 669.274 41.6145 668.073 41.6145C666.917 41.6145 665.783 41.3922 664.671 40.9475C663.56 40.5028 662.559 39.8136 661.67 38.8797C660.78 37.9459 660.069 36.7786 659.535 35.3779C659.024 33.9549 658.768 32.2762 658.768 30.3419C658.768 28.4298 659.024 26.7622 659.535 25.3392C660.047 23.9163 660.747 22.7267 661.636 21.7707C662.526 20.8146 663.526 20.1031 664.638 19.6362C665.75 19.1693 666.906 18.9358 668.107 18.9358ZM668.207 40.1804C668.851 40.1804 669.441 39.8914 669.974 39.3133C670.508 38.7352 670.93 37.7569 671.242 36.3784C671.575 34.9999 671.742 33.11 671.742 30.7087C671.742 28.6187 671.597 26.8067 671.308 25.2725C671.041 23.7161 670.63 22.5155 670.074 21.6706C669.518 20.8035 668.818 20.3699 667.973 20.3699C667.351 20.3699 666.761 20.659 666.206 21.2371C665.672 21.8151 665.238 22.7934 664.905 24.1719C664.594 25.5505 664.438 27.4403 664.438 29.8416C664.438 31.9316 664.571 33.7548 664.838 35.3112C665.127 36.8453 665.55 38.046 666.106 38.9131C666.661 39.758 667.362 40.1804 668.207 40.1804ZM695.829 34.9443H696.596L696.262 41.1143H680.187V40.3472C680.365 40.2582 680.632 40.1026 680.987 39.8803C681.365 39.6579 681.754 39.4022 682.155 39.1132C683.266 38.3128 684.311 37.4012 685.29 36.3784C686.268 35.3557 687.124 34.2662 687.858 33.11C688.591 31.9538 689.169 30.7977 689.592 29.6415C690.014 28.4853 690.226 27.3848 690.226 26.3398C690.226 25.3392 689.981 24.4943 689.492 23.8051C689.025 23.1158 688.169 22.7712 686.924 22.7712C685.879 22.7712 684.912 23.0602 684.022 23.6383C683.133 24.2164 682.255 25.1169 681.388 26.3398L680.754 25.8061C681.666 23.4938 682.811 21.7707 684.189 20.6367C685.568 19.5028 687.291 18.9358 689.358 18.9358C690.559 18.9358 691.637 19.1359 692.594 19.5362C693.55 19.9141 694.306 20.5145 694.861 21.3371C695.439 22.1375 695.729 23.1825 695.729 24.4721C695.729 26.7622 694.995 28.9078 693.527 30.9088C692.082 32.9099 690.059 34.7887 687.457 36.5452V36.6119H692.327C693.594 36.6119 694.472 36.4562 694.961 36.145C695.451 35.8337 695.74 35.4335 695.829 34.9443ZM714.359 32.6098H716.694V36.7786H715.293C714.67 36.7786 714.359 37.1677 714.359 37.9459C714.359 38.4795 714.359 39.002 714.359 39.5134C714.381 40.0026 714.403 40.5362 714.426 41.1143H709.156C709.201 40.3805 709.234 39.669 709.256 38.9798C709.278 38.2683 709.301 37.5346 709.323 36.7786H698.784V36.0116C699.362 35.4557 699.885 34.8776 700.352 34.2773L711.257 20.6367C711.502 20.3255 711.724 20.0253 711.924 19.7363C712.147 19.425 712.325 19.1582 712.458 18.9358H714.392L714.359 32.6098ZM709.256 25.6394L703.687 32.6098H709.356V25.6394H709.256Z" fill="black"/>
<path d="M764.726 24.7913C760.072 22.9326 754.611 23.9239 750.887 27.6412C745.861 32.6595 745.861 40.7755 750.887 45.7938C754.611 49.511 760.072 50.5023 764.726 48.6437V42.696C763.795 43.1297 762.802 43.3775 761.747 43.3775C758.024 43.3775 755.045 40.4037 755.045 36.6865C755.045 32.9692 758.024 29.9954 761.747 29.9954C762.802 29.9954 763.857 30.2432 764.726 30.6769V24.7913Z" fill="black"/>
<path d="M762.624 18.831C764.457 16.9931 764.457 13.9511 762.624 12.0498C760.791 10.2119 757.756 10.2119 755.86 12.0498C753.963 13.8877 754.026 16.9297 755.86 18.831C757.756 20.6689 760.791 20.6689 762.624 18.831Z" fill="black"/>
<path d="M795.507 41.1143V40.3472C796.152 40.3027 796.619 40.136 796.908 39.8469C797.197 39.5579 797.342 38.8686 797.342 37.7792V22.2709C797.342 21.1815 797.175 20.4922 796.841 20.2032C796.53 19.8919 795.919 19.7251 795.007 19.7029V18.9358H804.512V19.7029C803.867 19.7251 803.4 19.8919 803.111 20.2032C802.822 20.4922 802.678 21.1815 802.678 22.2709V37.7792C802.678 38.8686 802.845 39.5579 803.178 39.8469C803.512 40.136 804.123 40.3027 805.012 40.3472V41.1143H795.507ZM828.107 41.3811C827.774 41.0253 827.429 40.6807 827.074 40.3472C826.718 39.9914 826.151 39.4689 825.373 38.7797L812.232 26.7733H812.166V37.7792C812.166 38.5351 812.355 39.1465 812.733 39.6135C813.133 40.0581 813.811 40.3027 814.767 40.3472V41.1143H808.597V40.3472C809.242 40.3027 809.709 40.0581 809.998 39.6135C810.287 39.1465 810.431 38.5351 810.431 37.7792V22.2709C810.431 21.1815 810.265 20.4922 809.931 20.2032C809.62 19.8919 809.008 19.7251 808.097 19.7029V18.9358H812.099C812.432 19.3583 812.788 19.7363 813.166 20.0698C813.544 20.4033 813.978 20.8035 814.467 21.2704L827.741 33.2768H827.807V22.2709C827.807 21.515 827.618 20.9035 827.24 20.4366C826.862 19.9697 826.184 19.7251 825.206 19.7029V18.9358H831.376V19.7029C830.731 19.7251 830.264 19.9697 829.975 20.4366C829.686 20.9035 829.542 21.515 829.542 22.2709V37.7792C829.542 38.4017 829.542 39.002 829.542 39.5801C829.564 40.136 829.586 40.7363 829.608 41.3811H828.107ZM834.013 18.9358H853.024V24.4388H852.256C852.123 23.2381 851.767 22.2598 851.189 21.5039C850.611 20.7479 849.622 20.3699 848.221 20.3699H846.187V37.7792C846.187 38.8686 846.353 39.5579 846.687 39.8469C847.02 40.136 847.632 40.3027 848.521 40.3472V41.1143H839.016V40.3472C839.661 40.3027 840.128 40.136 840.417 39.8469C840.706 39.5579 840.85 38.8686 840.85 37.7792V20.3699H838.783C837.426 20.3699 836.448 20.7479 835.848 21.5039C835.27 22.2598 834.914 23.2381 834.781 24.4388H834.013V18.9358ZM856.05 41.1143V40.3472C856.695 40.3027 857.162 40.136 857.451 39.8469C857.74 39.5579 857.884 38.8686 857.884 37.7792V22.2709C857.884 21.1815 857.717 20.4922 857.384 20.2032C857.073 19.8919 856.461 19.7251 855.55 19.7029V18.9358H871.925V23.605H871.158C871.113 22.6489 870.78 21.8707 870.157 21.2704C869.557 20.6701 868.623 20.3699 867.356 20.3699H864.688C864.221 20.3699 863.854 20.4922 863.587 20.7368C863.343 20.9814 863.22 21.4927 863.22 22.2709V28.8411C863.398 28.7077 863.609 28.6187 863.854 28.5743C864.121 28.5298 864.432 28.5076 864.788 28.5076H868.023C868.69 28.5076 869.246 28.3186 869.69 27.9406C870.135 27.5626 870.369 27.0401 870.391 26.3731H871.158V32.0428H870.391C870.369 31.2201 870.135 30.6643 869.69 30.3752C869.246 30.0862 868.69 29.9417 868.023 29.9417H864.855C864.254 29.9417 863.832 30.0417 863.587 30.2418C863.343 30.4419 863.22 30.831 863.22 31.4091V37.7792C863.22 38.5573 863.387 39.0687 863.721 39.3133C864.076 39.5579 864.754 39.6802 865.755 39.6802H868.923C870.257 39.6802 871.314 39.28 872.092 38.4795C872.87 37.6791 873.303 36.723 873.392 35.6113H874.159L873.893 41.1143H856.05ZM896.534 41.6145C895.534 41.6145 894.678 41.4478 893.966 41.1143C893.255 40.803 892.654 40.3805 892.165 39.8469C891.676 39.3133 891.22 38.7241 890.798 38.0793L886.129 30.8088C885.906 30.4308 885.706 30.1974 885.528 30.1084C885.35 30.0195 885.139 29.9639 884.895 29.9417V28.7744C886.229 28.6854 887.262 28.4186 887.996 27.974C888.73 27.5293 889.241 26.9845 889.53 26.3398C889.819 25.6727 889.964 24.9835 889.964 24.272C889.964 22.9157 889.586 21.9041 888.83 21.2371C888.074 20.5478 887.207 20.2032 886.229 20.2032C885.495 20.2032 884.972 20.3366 884.661 20.6034C884.372 20.848 884.228 21.4038 884.228 22.2709V37.7792C884.228 38.8686 884.394 39.5579 884.728 39.8469C885.061 40.136 885.673 40.3027 886.562 40.3472V41.1143H877.057V40.3472C877.702 40.3027 878.169 40.136 878.458 39.8469C878.747 39.5579 878.891 38.8686 878.891 37.7792V22.2709C878.891 21.1815 878.725 20.4922 878.391 20.2032C878.08 19.8919 877.468 19.7251 876.557 19.7029V18.9358H878.891C880.559 18.9358 882.071 18.9136 883.427 18.8691C884.783 18.8024 885.94 18.7691 886.896 18.7691C889.097 18.7691 890.842 18.9803 892.132 19.4028C893.444 19.803 894.377 20.3699 894.933 21.1037C895.511 21.8374 895.8 22.6712 895.8 23.605C895.8 24.4943 895.578 25.3059 895.133 26.0396C894.711 26.7733 894.144 27.3959 893.432 27.9073C892.743 28.3964 891.987 28.741 891.165 28.9411V29.0078L896.701 37.6791C897.346 38.7019 897.935 39.4022 898.468 39.7802C899.002 40.1582 899.48 40.3472 899.903 40.3472V41.1143C899.458 41.2699 898.924 41.3922 898.302 41.4811C897.701 41.5701 897.112 41.6145 896.534 41.6145ZM912.285 41.6145C909.95 41.6145 907.882 41.1476 906.081 40.2138C904.28 39.28 902.869 37.9681 901.846 36.2784C900.823 34.5663 900.312 32.5875 900.312 30.3419C900.312 28.4965 900.645 26.8511 901.312 25.4059C901.979 23.9385 902.891 22.6823 904.047 21.6373C905.225 20.5923 906.57 19.803 908.082 19.2693C909.617 18.7135 911.251 18.4356 912.985 18.4356C914.297 18.4356 915.553 18.5579 916.754 18.8024C917.954 19.047 918.91 19.336 919.622 19.6696V24.939H918.855C918.41 23.5827 917.876 22.5489 917.254 21.8374C916.631 21.1037 915.931 20.5923 915.153 20.3032C914.397 20.0142 913.596 19.8697 912.752 19.8697C908.46 19.8697 906.315 22.9824 906.315 29.2079C906.315 31.2535 906.526 33.11 906.948 34.7776C907.393 36.4451 908.071 37.768 908.983 38.7463C909.917 39.7024 911.106 40.1804 912.551 40.1804C913.73 40.1804 914.797 39.8914 915.753 39.3133C916.709 38.713 917.521 37.9237 918.188 36.9454C918.877 35.9671 919.366 34.911 919.655 33.777H920.422L920.155 38.8464C919.422 39.6468 918.388 40.3138 917.054 40.8474C915.72 41.3588 914.13 41.6145 912.285 41.6145ZM934.547 18.4356C936.126 18.4356 937.593 18.7024 938.95 19.236C940.306 19.7696 941.506 20.5478 942.551 21.5706C943.596 22.5711 944.408 23.7829 944.986 25.2058C945.564 26.6288 945.853 28.2185 945.853 29.975C945.853 31.7315 945.564 33.3212 944.986 34.7442C944.408 36.1672 943.596 37.3901 942.551 38.4128C941.529 39.4356 940.328 40.2249 938.95 40.7807C937.571 41.3366 936.092 41.6145 934.514 41.6145C932.957 41.6145 931.49 41.3477 930.112 40.8141C928.755 40.2805 927.555 39.5134 926.51 38.5129C925.465 37.4901 924.653 36.2672 924.075 34.8443C923.497 33.4213 923.208 31.8316 923.208 30.0751C923.208 28.3186 923.497 26.7289 924.075 25.3059C924.653 23.8829 925.453 22.66 926.476 21.6373C927.521 20.6145 928.733 19.8252 930.112 19.2693C931.49 18.7135 932.969 18.4356 934.547 18.4356ZM935.214 40.1804C936.37 40.1804 937.282 39.8025 937.949 39.0465C938.616 38.2683 939.094 37.2011 939.383 35.8448C939.694 34.4885 939.85 32.9099 939.85 31.109C939.85 27.4848 939.294 24.7056 938.182 22.7712C937.093 20.8368 935.648 19.8697 933.847 19.8697C932.713 19.8697 931.801 20.2476 931.112 21.0036C930.445 21.7596 929.956 22.8268 929.645 24.2053C929.356 25.5616 929.211 27.1402 929.211 28.9411C929.211 32.5653 929.756 35.3445 930.845 37.2789C931.957 39.2133 933.413 40.1804 935.214 40.1804ZM961.292 41.3811C961.114 40.8697 960.892 40.3472 960.625 39.8136C960.38 39.2577 960.047 38.5351 959.625 37.6458L953.621 25.1058H953.555L952.954 37.7792C952.932 38.5351 953.11 39.1465 953.488 39.6135C953.866 40.0581 954.555 40.3027 955.556 40.3472V41.1143H949.386V40.3472C950.031 40.3027 950.486 40.0581 950.753 39.6135C951.042 39.1465 951.198 38.5351 951.22 37.7792L951.92 22.2709C951.965 21.4927 951.909 20.9369 951.754 20.6034C951.62 20.2699 951.376 20.0587 951.02 19.9697C950.664 19.8585 950.186 19.7696 949.586 19.7029V18.9358H956.723C956.901 19.5139 957.101 20.0587 957.323 20.57C957.568 21.0814 957.835 21.6484 958.124 22.2709L963.86 34.2773H963.927L969.263 22.2709C969.774 21.137 970.163 20.0253 970.43 18.9358H977.501V19.7029C977.078 19.7251 976.722 19.7918 976.433 19.903C976.144 20.0142 975.933 20.2476 975.8 20.6034C975.689 20.9369 975.644 21.4927 975.666 22.2709L976.367 37.7792C976.411 38.4906 976.5 39.0243 976.634 39.38C976.789 39.7357 977.034 39.9803 977.367 40.1137C977.701 40.2249 978.145 40.3027 978.701 40.3472V41.1143H969.196V40.3472C969.908 40.3027 970.397 40.136 970.664 39.8469C970.953 39.5579 971.075 38.8686 971.031 37.7792L970.464 24.1386H970.397L964.36 37.6458C963.938 38.5796 963.627 39.3133 963.427 39.8469C963.249 40.3583 963.093 40.8697 962.96 41.3811H961.292ZM993.308 41.3811C993.13 40.8697 992.908 40.3472 992.641 39.8136C992.396 39.2577 992.063 38.5351 991.64 37.6458L985.637 25.1058H985.57L984.97 37.7792C984.948 38.5351 985.126 39.1465 985.504 39.6135C985.882 40.0581 986.571 40.3027 987.571 40.3472V41.1143H981.401V40.3472C982.046 40.3027 982.502 40.0581 982.769 39.6135C983.058 39.1465 983.214 38.5351 983.236 37.7792L983.936 22.2709C983.981 21.4927 983.925 20.9369 983.769 20.6034C983.636 20.2699 983.391 20.0587 983.036 19.9697C982.68 19.8585 982.202 19.7696 981.602 19.7029V18.9358H988.739C988.917 19.5139 989.117 20.0587 989.339 20.57C989.584 21.0814 989.85 21.6484 990.139 22.2709L995.876 34.2773H995.942L1001.28 22.2709C1001.79 21.137 1002.18 20.0253 1002.45 18.9358H1009.52V19.7029C1009.09 19.7251 1008.74 19.7918 1008.45 19.903C1008.16 20.0142 1007.95 20.2476 1007.82 20.6034C1007.7 20.9369 1007.66 21.4927 1007.68 22.2709L1008.38 37.7792C1008.43 38.4906 1008.52 39.0243 1008.65 39.38C1008.8 39.7357 1009.05 39.9803 1009.38 40.1137C1009.72 40.2249 1010.16 40.3027 1010.72 40.3472V41.1143H1001.21V40.3472C1001.92 40.3027 1002.41 40.136 1002.68 39.8469C1002.97 39.5579 1003.09 38.8686 1003.05 37.7792L1002.48 24.1386H1002.41L996.376 37.6458C995.954 38.5796 995.642 39.3133 995.442 39.8469C995.264 40.3583 995.109 40.8697 994.975 41.3811H993.308ZM1036.88 34.9443H1037.65L1037.31 41.1143H1021.24V40.3472C1021.42 40.2582 1021.68 40.1026 1022.04 39.8803C1022.42 39.6579 1022.81 39.4022 1023.21 39.1132C1024.32 38.3128 1025.36 37.4012 1026.34 36.3784C1027.32 35.3557 1028.18 34.2662 1028.91 33.11C1029.64 31.9538 1030.22 30.7977 1030.64 29.6415C1031.07 28.4853 1031.28 27.3848 1031.28 26.3398C1031.28 25.3392 1031.03 24.4943 1030.54 23.8051C1030.08 23.1158 1029.22 22.7712 1027.98 22.7712C1026.93 22.7712 1025.96 23.0602 1025.07 23.6383C1024.18 24.2164 1023.31 25.1169 1022.44 26.3398L1021.81 25.8061C1022.72 23.4938 1023.86 21.7707 1025.24 20.6367C1026.62 19.5028 1028.34 18.9358 1030.41 18.9358C1031.61 18.9358 1032.69 19.1359 1033.65 19.5362C1034.6 19.9141 1035.36 20.5145 1035.91 21.3371C1036.49 22.1375 1036.78 23.1825 1036.78 24.4721C1036.78 26.7622 1036.05 28.9078 1034.58 30.9088C1033.13 32.9099 1031.11 34.7887 1028.51 36.5452V36.6119H1033.38C1034.65 36.6119 1035.52 36.4562 1036.01 36.145C1036.5 35.8337 1036.79 35.4335 1036.88 34.9443ZM1051.08 18.9358C1052.23 18.9358 1053.37 19.1582 1054.48 19.6029C1055.59 20.0475 1056.59 20.7368 1057.48 21.6706C1058.37 22.6044 1059.07 23.7829 1059.58 25.2058C1060.11 26.6066 1060.38 28.2741 1060.38 30.2085C1060.38 32.1206 1060.12 33.7882 1059.61 35.2111C1059.1 36.6341 1058.4 37.8236 1057.51 38.7797C1056.62 39.7357 1055.62 40.4472 1054.51 40.9142C1053.4 41.3811 1052.24 41.6145 1051.04 41.6145C1049.89 41.6145 1048.75 41.3922 1047.64 40.9475C1046.53 40.5028 1045.53 39.8136 1044.64 38.8797C1043.75 37.9459 1043.04 36.7786 1042.5 35.3779C1041.99 33.9549 1041.74 32.2762 1041.74 30.3419C1041.74 28.4298 1041.99 26.7622 1042.5 25.3392C1043.02 23.9163 1043.72 22.7267 1044.61 21.7707C1045.49 20.8146 1046.5 20.1031 1047.61 19.6362C1048.72 19.1693 1049.87 18.9358 1051.08 18.9358ZM1051.18 40.1804C1051.82 40.1804 1052.41 39.8914 1052.94 39.3133C1053.48 38.7352 1053.9 37.7569 1054.21 36.3784C1054.54 34.9999 1054.71 33.11 1054.71 30.7087C1054.71 28.6187 1054.57 26.8067 1054.28 25.2725C1054.01 23.7161 1053.6 22.5155 1053.04 21.6706C1052.49 20.8035 1051.79 20.3699 1050.94 20.3699C1050.32 20.3699 1049.73 20.659 1049.17 21.2371C1048.64 21.8151 1048.21 22.7934 1047.87 24.1719C1047.56 25.5505 1047.41 27.4403 1047.41 29.8416C1047.41 31.9316 1047.54 33.7548 1047.81 35.3112C1048.1 36.8453 1048.52 38.046 1049.07 38.9131C1049.63 39.758 1050.33 40.1804 1051.18 40.1804ZM1078.8 34.9443H1079.56L1079.23 41.1143H1063.16V40.3472C1063.33 40.2582 1063.6 40.1026 1063.96 39.8803C1064.33 39.6579 1064.72 39.4022 1065.12 39.1132C1066.24 38.3128 1067.28 37.4012 1068.26 36.3784C1069.24 35.3557 1070.09 34.2662 1070.83 33.11C1071.56 31.9538 1072.14 30.7977 1072.56 29.6415C1072.98 28.4853 1073.19 27.3848 1073.19 26.3398C1073.19 25.3392 1072.95 24.4943 1072.46 23.8051C1071.99 23.1158 1071.14 22.7712 1069.89 22.7712C1068.85 22.7712 1067.88 23.0602 1066.99 23.6383C1066.1 24.2164 1065.22 25.1169 1064.36 26.3398L1063.72 25.8061C1064.63 23.4938 1065.78 21.7707 1067.16 20.6367C1068.54 19.5028 1070.26 18.9358 1072.33 18.9358C1073.53 18.9358 1074.61 19.1359 1075.56 19.5362C1076.52 19.9141 1077.27 20.5145 1077.83 21.3371C1078.41 22.1375 1078.7 23.1825 1078.7 24.4721C1078.7 26.7622 1077.96 28.9078 1076.5 30.9088C1075.05 32.9099 1073.03 34.7887 1070.43 36.5452V36.6119H1075.3C1076.56 36.6119 1077.44 36.4562 1077.93 36.145C1078.42 35.8337 1078.71 35.4335 1078.8 34.9443ZM1097.33 32.6098H1099.66V36.7786H1098.26C1097.64 36.7786 1097.33 37.1677 1097.33 37.9459C1097.33 38.4795 1097.33 39.002 1097.33 39.5134C1097.35 40.0026 1097.37 40.5362 1097.39 41.1143H1092.12C1092.17 40.3805 1092.2 39.669 1092.22 38.9798C1092.25 38.2683 1092.27 37.5346 1092.29 36.7786H1081.75V36.0116C1082.33 35.4557 1082.85 34.8776 1083.32 34.2773L1094.23 20.6367C1094.47 20.3255 1094.69 20.0253 1094.89 19.7363C1095.12 19.425 1095.29 19.1582 1095.43 18.9358H1097.36L1097.33 32.6098ZM1092.22 25.6394L1086.66 32.6098H1092.33V25.6394H1092.22Z" fill="black"/>
<path d="M1147.69 24.7913C1143.04 22.9326 1137.58 23.9239 1133.86 27.6412C1128.83 32.6595 1128.83 40.7755 1133.86 45.7938C1137.58 49.511 1143.04 50.5023 1147.69 48.6437V42.696C1146.76 43.1297 1145.77 43.3775 1144.72 43.3775C1140.99 43.3775 1138.01 40.4037 1138.01 36.6865C1138.01 32.9692 1140.99 29.9954 1144.72 29.9954C1145.77 29.9954 1146.83 30.2432 1147.69 30.6769V24.7913Z" fill="black"/>
<path d="M1145.59 18.831C1147.43 16.9931 1147.43 13.9511 1145.59 12.0498C1143.76 10.2119 1140.72 10.2119 1138.83 12.0498C1136.93 13.8877 1137 16.9297 1138.83 18.831C1140.72 20.6689 1143.76 20.6689 1145.59 18.831Z" fill="black"/>
<path d="M1178.48 41.1143V40.3472C1179.13 40.3027 1179.6 40.136 1179.88 39.8469C1180.17 39.5579 1180.32 38.8686 1180.32 37.7792V22.2709C1180.32 21.1815 1180.15 20.4922 1179.82 20.2032C1179.51 19.8919 1178.9 19.7251 1177.98 19.7029V18.9358H1187.49V19.7029C1186.84 19.7251 1186.38 19.8919 1186.09 20.2032C1185.8 20.4922 1185.65 21.1815 1185.65 22.2709V37.7792C1185.65 38.8686 1185.82 39.5579 1186.15 39.8469C1186.49 40.136 1187.1 40.3027 1187.99 40.3472V41.1143H1178.48ZM1211.08 41.3811C1210.75 41.0253 1210.41 40.6807 1210.05 40.3472C1209.69 39.9914 1209.13 39.4689 1208.35 38.7797L1195.21 26.7733H1195.14V37.7792C1195.14 38.5351 1195.33 39.1465 1195.71 39.6135C1196.11 40.0581 1196.79 40.3027 1197.74 40.3472V41.1143H1191.57V40.3472C1192.22 40.3027 1192.69 40.0581 1192.97 39.6135C1193.26 39.1465 1193.41 38.5351 1193.41 37.7792V22.2709C1193.41 21.1815 1193.24 20.4922 1192.91 20.2032C1192.6 19.8919 1191.99 19.7251 1191.07 19.7029V18.9358H1195.08C1195.41 19.3583 1195.76 19.7363 1196.14 20.0698C1196.52 20.4033 1196.95 20.8035 1197.44 21.2704L1210.72 33.2768H1210.78V22.2709C1210.78 21.515 1210.59 20.9035 1210.22 20.4366C1209.84 19.9697 1209.16 19.7251 1208.18 19.7029V18.9358H1214.35V19.7029C1213.71 19.7251 1213.24 19.9697 1212.95 20.4366C1212.66 20.9035 1212.52 21.515 1212.52 22.2709V37.7792C1212.52 38.4017 1212.52 39.002 1212.52 39.5801C1212.54 40.136 1212.56 40.7363 1212.58 41.3811H1211.08ZM1216.99 18.9358H1236V24.4388H1235.23C1235.1 23.2381 1234.74 22.2598 1234.17 21.5039C1233.59 20.7479 1232.6 20.3699 1231.2 20.3699H1229.16V37.7792C1229.16 38.8686 1229.33 39.5579 1229.66 39.8469C1230 40.136 1230.61 40.3027 1231.5 40.3472V41.1143H1221.99V40.3472C1222.64 40.3027 1223.1 40.136 1223.39 39.8469C1223.68 39.5579 1223.83 38.8686 1223.83 37.7792V20.3699H1221.76C1220.4 20.3699 1219.42 20.7479 1218.82 21.5039C1218.25 22.2598 1217.89 23.2381 1217.76 24.4388H1216.99V18.9358ZM1239.03 41.1143V40.3472C1239.67 40.3027 1240.14 40.136 1240.43 39.8469C1240.72 39.5579 1240.86 38.8686 1240.86 37.7792V22.2709C1240.86 21.1815 1240.69 20.4922 1240.36 20.2032C1240.05 19.8919 1239.44 19.7251 1238.53 19.7029V18.9358H1254.9V23.605H1254.13C1254.09 22.6489 1253.76 21.8707 1253.13 21.2704C1252.53 20.6701 1251.6 20.3699 1250.33 20.3699H1247.66C1247.2 20.3699 1246.83 20.4922 1246.56 20.7368C1246.32 20.9814 1246.2 21.4927 1246.2 22.2709V28.8411C1246.37 28.7077 1246.59 28.6187 1246.83 28.5743C1247.1 28.5298 1247.41 28.5076 1247.76 28.5076H1251C1251.67 28.5076 1252.22 28.3186 1252.67 27.9406C1253.11 27.5626 1253.35 27.0401 1253.37 26.3731H1254.13V32.0428H1253.37C1253.35 31.2201 1253.11 30.6643 1252.67 30.3752C1252.22 30.0862 1251.67 29.9417 1251 29.9417H1247.83C1247.23 29.9417 1246.81 30.0417 1246.56 30.2418C1246.32 30.4419 1246.2 30.831 1246.2 31.4091V37.7792C1246.2 38.5573 1246.36 39.0687 1246.7 39.3133C1247.05 39.5579 1247.73 39.6802 1248.73 39.6802H1251.9C1253.23 39.6802 1254.29 39.28 1255.07 38.4795C1255.85 37.6791 1256.28 36.723 1256.37 35.6113H1257.14L1256.87 41.1143H1239.03ZM1279.51 41.6145C1278.51 41.6145 1277.65 41.4478 1276.94 41.1143C1276.23 40.803 1275.63 40.3805 1275.14 39.8469C1274.65 39.3133 1274.2 38.7241 1273.77 38.0793L1269.11 30.8088C1268.88 30.4308 1268.68 30.1974 1268.5 30.1084C1268.33 30.0195 1268.12 29.9639 1267.87 29.9417V28.7744C1269.21 28.6854 1270.24 28.4186 1270.97 27.974C1271.71 27.5293 1272.22 26.9845 1272.51 26.3398C1272.8 25.6727 1272.94 24.9835 1272.94 24.272C1272.94 22.9157 1272.56 21.9041 1271.81 21.2371C1271.05 20.5478 1270.18 20.2032 1269.21 20.2032C1268.47 20.2032 1267.95 20.3366 1267.64 20.6034C1267.35 20.848 1267.2 21.4038 1267.2 22.2709V37.7792C1267.2 38.8686 1267.37 39.5579 1267.7 39.8469C1268.04 40.136 1268.65 40.3027 1269.54 40.3472V41.1143H1260.03V40.3472C1260.68 40.3027 1261.15 40.136 1261.43 39.8469C1261.72 39.5579 1261.87 38.8686 1261.87 37.7792V22.2709C1261.87 21.1815 1261.7 20.4922 1261.37 20.2032C1261.06 19.8919 1260.44 19.7251 1259.53 19.7029V18.9358H1261.87C1263.54 18.9358 1265.05 18.9136 1266.4 18.8691C1267.76 18.8024 1268.92 18.7691 1269.87 18.7691C1272.07 18.7691 1273.82 18.9803 1275.11 19.4028C1276.42 19.803 1277.35 20.3699 1277.91 21.1037C1278.49 21.8374 1278.78 22.6712 1278.78 23.605C1278.78 24.4943 1278.55 25.3059 1278.11 26.0396C1277.69 26.7733 1277.12 27.3959 1276.41 27.9073C1275.72 28.3964 1274.96 28.741 1274.14 28.9411V29.0078L1279.68 37.6791C1280.32 38.7019 1280.91 39.4022 1281.44 39.7802C1281.98 40.1582 1282.46 40.3472 1282.88 40.3472V41.1143C1282.43 41.2699 1281.9 41.3922 1281.28 41.4811C1280.68 41.5701 1280.09 41.6145 1279.51 41.6145ZM1295.26 41.6145C1292.93 41.6145 1290.86 41.1476 1289.06 40.2138C1287.26 39.28 1285.85 37.9681 1284.82 36.2784C1283.8 34.5663 1283.29 32.5875 1283.29 30.3419C1283.29 28.4965 1283.62 26.8511 1284.29 25.4059C1284.96 23.9385 1285.87 22.6823 1287.02 21.6373C1288.2 20.5923 1289.55 19.803 1291.06 19.2693C1292.59 18.7135 1294.23 18.4356 1295.96 18.4356C1297.27 18.4356 1298.53 18.5579 1299.73 18.8024C1300.93 19.047 1301.89 19.336 1302.6 19.6696V24.939H1301.83C1301.39 23.5827 1300.85 22.5489 1300.23 21.8374C1299.61 21.1037 1298.91 20.5923 1298.13 20.3032C1297.37 20.0142 1296.57 19.8697 1295.73 19.8697C1291.44 19.8697 1289.29 22.9824 1289.29 29.2079C1289.29 31.2535 1289.5 33.11 1289.93 34.7776C1290.37 36.4451 1291.05 37.768 1291.96 38.7463C1292.89 39.7024 1294.08 40.1804 1295.53 40.1804C1296.71 40.1804 1297.77 39.8914 1298.73 39.3133C1299.69 38.713 1300.5 37.9237 1301.16 36.9454C1301.85 35.9671 1302.34 34.911 1302.63 33.777H1303.4L1303.13 38.8464C1302.4 39.6468 1301.36 40.3138 1300.03 40.8474C1298.7 41.3588 1297.11 41.6145 1295.26 41.6145ZM1317.52 18.4356C1319.1 18.4356 1320.57 18.7024 1321.93 19.236C1323.28 19.7696 1324.48 20.5478 1325.53 21.5706C1326.57 22.5711 1327.38 23.7829 1327.96 25.2058C1328.54 26.6288 1328.83 28.2185 1328.83 29.975C1328.83 31.7315 1328.54 33.3212 1327.96 34.7442C1327.38 36.1672 1326.57 37.3901 1325.53 38.4128C1324.51 39.4356 1323.3 40.2249 1321.93 40.7807C1320.55 41.3366 1319.07 41.6145 1317.49 41.6145C1315.93 41.6145 1314.47 41.3477 1313.09 40.8141C1311.73 40.2805 1310.53 39.5134 1309.49 38.5129C1308.44 37.4901 1307.63 36.2672 1307.05 34.8443C1306.47 33.4213 1306.18 31.8316 1306.18 30.0751C1306.18 28.3186 1306.47 26.7289 1307.05 25.3059C1307.63 23.8829 1308.43 22.66 1309.45 21.6373C1310.5 20.6145 1311.71 19.8252 1313.09 19.2693C1314.47 18.7135 1315.95 18.4356 1317.52 18.4356ZM1318.19 40.1804C1319.35 40.1804 1320.26 39.8025 1320.93 39.0465C1321.59 38.2683 1322.07 37.2011 1322.36 35.8448C1322.67 34.4885 1322.83 32.9099 1322.83 31.109C1322.83 27.4848 1322.27 24.7056 1321.16 22.7712C1320.07 20.8368 1318.62 19.8697 1316.82 19.8697C1315.69 19.8697 1314.78 20.2476 1314.09 21.0036C1313.42 21.7596 1312.93 22.8268 1312.62 24.2053C1312.33 25.5616 1312.19 27.1402 1312.19 28.9411C1312.19 32.5653 1312.73 35.3445 1313.82 37.2789C1314.93 39.2133 1316.39 40.1804 1318.19 40.1804ZM1344.27 41.3811C1344.09 40.8697 1343.87 40.3472 1343.6 39.8136C1343.36 39.2577 1343.02 38.5351 1342.6 37.6458L1336.6 25.1058H1336.53L1335.93 37.7792C1335.91 38.5351 1336.09 39.1465 1336.46 39.6135C1336.84 40.0581 1337.53 40.3027 1338.53 40.3472V41.1143H1332.36V40.3472C1333.01 40.3027 1333.46 40.0581 1333.73 39.6135C1334.02 39.1465 1334.17 38.5351 1334.2 37.7792L1334.9 22.2709C1334.94 21.4927 1334.89 20.9369 1334.73 20.6034C1334.6 20.2699 1334.35 20.0587 1334 19.9697C1333.64 19.8585 1333.16 19.7696 1332.56 19.7029V18.9358H1339.7C1339.88 19.5139 1340.08 20.0587 1340.3 20.57C1340.54 21.0814 1340.81 21.6484 1341.1 22.2709L1346.84 34.2773H1346.9L1352.24 22.2709C1352.75 21.137 1353.14 20.0253 1353.41 18.9358H1360.48V19.7029C1360.05 19.7251 1359.7 19.7918 1359.41 19.903C1359.12 20.0142 1358.91 20.2476 1358.78 20.6034C1358.67 20.9369 1358.62 21.4927 1358.64 22.2709L1359.34 37.7792C1359.39 38.4906 1359.48 39.0243 1359.61 39.38C1359.77 39.7357 1360.01 39.9803 1360.34 40.1137C1360.68 40.2249 1361.12 40.3027 1361.68 40.3472V41.1143H1352.17V40.3472C1352.88 40.3027 1353.37 40.136 1353.64 39.8469C1353.93 39.5579 1354.05 38.8686 1354.01 37.7792L1353.44 24.1386H1353.37L1347.34 37.6458C1346.91 38.5796 1346.6 39.3133 1346.4 39.8469C1346.23 40.3583 1346.07 40.8697 1345.94 41.3811H1344.27ZM1376.28 41.3811C1376.11 40.8697 1375.88 40.3472 1375.62 39.8136C1375.37 39.2577 1375.04 38.5351 1374.62 37.6458L1368.61 25.1058H1368.55L1367.95 37.7792C1367.92 38.5351 1368.1 39.1465 1368.48 39.6135C1368.86 40.0581 1369.55 40.3027 1370.55 40.3472V41.1143H1364.38V40.3472C1365.02 40.3027 1365.48 40.0581 1365.75 39.6135C1366.03 39.1465 1366.19 38.5351 1366.21 37.7792L1366.91 22.2709C1366.96 21.4927 1366.9 20.9369 1366.75 20.6034C1366.61 20.2699 1366.37 20.0587 1366.01 19.9697C1365.66 19.8585 1365.18 19.7696 1364.58 19.7029V18.9358H1371.72C1371.89 19.5139 1372.09 20.0587 1372.32 20.57C1372.56 21.0814 1372.83 21.6484 1373.12 22.2709L1378.85 34.2773H1378.92L1384.26 22.2709C1384.77 21.137 1385.16 20.0253 1385.42 18.9358H1392.49V19.7029C1392.07 19.7251 1391.71 19.7918 1391.43 19.903C1391.14 20.0142 1390.93 20.2476 1390.79 20.6034C1390.68 20.9369 1390.64 21.4927 1390.66 22.2709L1391.36 37.7792C1391.4 38.4906 1391.49 39.0243 1391.63 39.38C1391.78 39.7357 1392.03 39.9803 1392.36 40.1137C1392.69 40.2249 1393.14 40.3027 1393.69 40.3472V41.1143H1384.19V40.3472C1384.9 40.3027 1385.39 40.136 1385.66 39.8469C1385.94 39.5579 1386.07 38.8686 1386.02 37.7792L1385.46 24.1386H1385.39L1379.35 37.6458C1378.93 38.5796 1378.62 39.3133 1378.42 39.8469C1378.24 40.3583 1378.09 40.8697 1377.95 41.3811H1376.28ZM1419.86 34.9443H1420.62L1420.29 41.1143H1404.22V40.3472C1404.39 40.2582 1404.66 40.1026 1405.02 39.8803C1405.39 39.6579 1405.78 39.4022 1406.18 39.1132C1407.29 38.3128 1408.34 37.4012 1409.32 36.3784C1410.3 35.3557 1411.15 34.2662 1411.89 33.11C1412.62 31.9538 1413.2 30.7977 1413.62 29.6415C1414.04 28.4853 1414.25 27.3848 1414.25 26.3398C1414.25 25.3392 1414.01 24.4943 1413.52 23.8051C1413.05 23.1158 1412.2 22.7712 1410.95 22.7712C1409.91 22.7712 1408.94 23.0602 1408.05 23.6383C1407.16 24.2164 1406.28 25.1169 1405.42 26.3398L1404.78 25.8061C1405.69 23.4938 1406.84 21.7707 1408.22 20.6367C1409.6 19.5028 1411.32 18.9358 1413.39 18.9358C1414.59 18.9358 1415.67 19.1359 1416.62 19.5362C1417.58 19.9141 1418.33 20.5145 1418.89 21.3371C1419.47 22.1375 1419.76 23.1825 1419.76 24.4721C1419.76 26.7622 1419.02 28.9078 1417.56 30.9088C1416.11 32.9099 1414.09 34.7887 1411.49 36.5452V36.6119H1416.36C1417.62 36.6119 1418.5 36.4562 1418.99 36.145C1419.48 35.8337 1419.77 35.4335 1419.86 34.9443ZM1434.05 18.9358C1435.21 18.9358 1436.34 19.1582 1437.45 19.6029C1438.57 20.0475 1439.57 20.7368 1440.46 21.6706C1441.34 22.6044 1442.05 23.7829 1442.56 25.2058C1443.09 26.6066 1443.36 28.2741 1443.36 30.2085C1443.36 32.1206 1443.1 33.7882 1442.59 35.2111C1442.08 36.6341 1441.38 37.8236 1440.49 38.7797C1439.6 39.7357 1438.6 40.4472 1437.49 40.9142C1436.38 41.3811 1435.22 41.6145 1434.02 41.6145C1432.86 41.6145 1431.73 41.3922 1430.62 40.9475C1429.51 40.5028 1428.5 39.8136 1427.62 38.8797C1426.73 37.9459 1426.01 36.7786 1425.48 35.3779C1424.97 33.9549 1424.71 32.2762 1424.71 30.3419C1424.71 28.4298 1424.97 26.7622 1425.48 25.3392C1425.99 23.9163 1426.69 22.7267 1427.58 21.7707C1428.47 20.8146 1429.47 20.1031 1430.58 19.6362C1431.7 19.1693 1432.85 18.9358 1434.05 18.9358ZM1434.15 40.1804C1434.8 40.1804 1435.39 39.8914 1435.92 39.3133C1436.45 38.7352 1436.88 37.7569 1437.19 36.3784C1437.52 34.9999 1437.69 33.11 1437.69 30.7087C1437.69 28.6187 1437.54 26.8067 1437.25 25.2725C1436.99 23.7161 1436.58 22.5155 1436.02 21.6706C1435.46 20.8035 1434.76 20.3699 1433.92 20.3699C1433.3 20.3699 1432.71 20.659 1432.15 21.2371C1431.62 21.8151 1431.18 22.7934 1430.85 24.1719C1430.54 25.5505 1430.38 27.4403 1430.38 29.8416C1430.38 31.9316 1430.52 33.7548 1430.78 35.3112C1431.07 36.8453 1431.49 38.046 1432.05 38.9131C1432.61 39.758 1433.31 40.1804 1434.15 40.1804ZM1461.77 34.9443H1462.54L1462.21 41.1143H1446.13V40.3472C1446.31 40.2582 1446.58 40.1026 1446.93 39.8803C1447.31 39.6579 1447.7 39.4022 1448.1 39.1132C1449.21 38.3128 1450.26 37.4012 1451.23 36.3784C1452.21 35.3557 1453.07 34.2662 1453.8 33.11C1454.54 31.9538 1455.11 30.7977 1455.54 29.6415C1455.96 28.4853 1456.17 27.3848 1456.17 26.3398C1456.17 25.3392 1455.93 24.4943 1455.44 23.8051C1454.97 23.1158 1454.11 22.7712 1452.87 22.7712C1451.82 22.7712 1450.86 23.0602 1449.97 23.6383C1449.08 24.2164 1448.2 25.1169 1447.33 26.3398L1446.7 25.8061C1447.61 23.4938 1448.76 21.7707 1450.13 20.6367C1451.51 19.5028 1453.24 18.9358 1455.3 18.9358C1456.5 18.9358 1457.58 19.1359 1458.54 19.5362C1459.49 19.9141 1460.25 20.5145 1460.81 21.3371C1461.38 22.1375 1461.67 23.1825 1461.67 24.4721C1461.67 26.7622 1460.94 28.9078 1459.47 30.9088C1458.03 32.9099 1456 34.7887 1453.4 36.5452V36.6119H1458.27C1459.54 36.6119 1460.42 36.4562 1460.91 36.145C1461.4 35.8337 1461.68 35.4335 1461.77 34.9443ZM1480.3 32.6098H1482.64V36.7786H1481.24C1480.62 36.7786 1480.3 37.1677 1480.3 37.9459C1480.3 38.4795 1480.3 39.002 1480.3 39.5134C1480.33 40.0026 1480.35 40.5362 1480.37 41.1143H1475.1C1475.15 40.3805 1475.18 39.669 1475.2 38.9798C1475.22 38.2683 1475.25 37.5346 1475.27 36.7786H1464.73V36.0116C1465.31 35.4557 1465.83 34.8776 1466.3 34.2773L1477.2 20.6367C1477.45 20.3255 1477.67 20.0253 1477.87 19.7363C1478.09 19.425 1478.27 19.1582 1478.4 18.9358H1480.34L1480.3 32.6098ZM1475.2 25.6394L1469.63 32.6098H1475.3V25.6394H1475.2Z" fill="black"/>
<path d="M1530.67 24.7913C1526.02 22.9326 1520.56 23.9239 1516.83 27.6412C1511.81 32.6595 1511.81 40.7755 1516.83 45.7938C1520.56 49.511 1526.02 50.5023 1530.67 48.6437V42.696C1529.74 43.1297 1528.75 43.3775 1527.69 43.3775C1523.97 43.3775 1520.99 40.4037 1520.99 36.6865C1520.99 32.9692 1523.97 29.9954 1527.69 29.9954C1528.75 29.9954 1529.8 30.2432 1530.67 30.6769V24.7913Z" fill="black"/>
<path d="M1528.57 18.831C1530.4 16.9931 1530.4 13.9511 1528.57 12.0498C1526.74 10.2119 1523.7 10.2119 1521.81 12.0498C1519.91 13.8877 1519.97 16.9297 1521.81 18.831C1523.7 20.6689 1526.74 20.6689 1528.57 18.831Z" fill="black"/>
<path d="M1561.45 41.1143V40.3472C1562.1 40.3027 1562.56 40.136 1562.85 39.8469C1563.14 39.5579 1563.29 38.8686 1563.29 37.7792V22.2709C1563.29 21.1815 1563.12 20.4922 1562.79 20.2032C1562.48 19.8919 1561.86 19.7251 1560.95 19.7029V18.9358H1570.46V19.7029C1569.81 19.7251 1569.35 19.8919 1569.06 20.2032C1568.77 20.4922 1568.62 21.1815 1568.62 22.2709V37.7792C1568.62 38.8686 1568.79 39.5579 1569.12 39.8469C1569.46 40.136 1570.07 40.3027 1570.96 40.3472V41.1143H1561.45ZM1594.05 41.3811C1593.72 41.0253 1593.37 40.6807 1593.02 40.3472C1592.66 39.9914 1592.1 39.4689 1591.32 38.7797L1578.18 26.7733H1578.11V37.7792C1578.11 38.5351 1578.3 39.1465 1578.68 39.6135C1579.08 40.0581 1579.76 40.3027 1580.71 40.3472V41.1143H1574.54V40.3472C1575.19 40.3027 1575.65 40.0581 1575.94 39.6135C1576.23 39.1465 1576.38 38.5351 1576.38 37.7792V22.2709C1576.38 21.1815 1576.21 20.4922 1575.88 20.2032C1575.57 19.8919 1574.95 19.7251 1574.04 19.7029V18.9358H1578.04C1578.38 19.3583 1578.73 19.7363 1579.11 20.0698C1579.49 20.4033 1579.92 20.8035 1580.41 21.2704L1593.69 33.2768H1593.75V22.2709C1593.75 21.515 1593.56 20.9035 1593.19 20.4366C1592.81 19.9697 1592.13 19.7251 1591.15 19.7029V18.9358H1597.32V19.7029C1596.68 19.7251 1596.21 19.9697 1595.92 20.4366C1595.63 20.9035 1595.49 21.515 1595.49 22.2709V37.7792C1595.49 38.4017 1595.49 39.002 1595.49 39.5801C1595.51 40.136 1595.53 40.7363 1595.55 41.3811H1594.05ZM1599.96 18.9358H1618.97V24.4388H1618.2C1618.07 23.2381 1617.71 22.2598 1617.13 21.5039C1616.56 20.7479 1615.57 20.3699 1614.17 20.3699H1612.13V37.7792C1612.13 38.8686 1612.3 39.5579 1612.63 39.8469C1612.97 40.136 1613.58 40.3027 1614.47 40.3472V41.1143H1604.96V40.3472C1605.61 40.3027 1606.07 40.136 1606.36 39.8469C1606.65 39.5579 1606.8 38.8686 1606.8 37.7792V20.3699H1604.73C1603.37 20.3699 1602.39 20.7479 1601.79 21.5039C1601.21 22.2598 1600.86 23.2381 1600.73 24.4388H1599.96V18.9358ZM1622 41.1143V40.3472C1622.64 40.3027 1623.11 40.136 1623.4 39.8469C1623.68 39.5579 1623.83 38.8686 1623.83 37.7792V22.2709C1623.83 21.1815 1623.66 20.4922 1623.33 20.2032C1623.02 19.8919 1622.41 19.7251 1621.49 19.7029V18.9358H1637.87V23.605H1637.1C1637.06 22.6489 1636.73 21.8707 1636.1 21.2704C1635.5 20.6701 1634.57 20.3699 1633.3 20.3699H1630.63C1630.17 20.3699 1629.8 20.4922 1629.53 20.7368C1629.29 20.9814 1629.17 21.4927 1629.17 22.2709V28.8411C1629.34 28.7077 1629.55 28.6187 1629.8 28.5743C1630.07 28.5298 1630.38 28.5076 1630.73 28.5076H1633.97C1634.64 28.5076 1635.19 28.3186 1635.64 27.9406C1636.08 27.5626 1636.31 27.0401 1636.34 26.3731H1637.1V32.0428H1636.34C1636.31 31.2201 1636.08 30.6643 1635.64 30.3752C1635.19 30.0862 1634.64 29.9417 1633.97 29.9417H1630.8C1630.2 29.9417 1629.78 30.0417 1629.53 30.2418C1629.29 30.4419 1629.17 30.831 1629.17 31.4091V37.7792C1629.17 38.5573 1629.33 39.0687 1629.67 39.3133C1630.02 39.5579 1630.7 39.6802 1631.7 39.6802H1634.87C1636.2 39.6802 1637.26 39.28 1638.04 38.4795C1638.82 37.6791 1639.25 36.723 1639.34 35.6113H1640.1L1639.84 41.1143H1622ZM1662.48 41.6145C1661.48 41.6145 1660.62 41.4478 1659.91 41.1143C1659.2 40.803 1658.6 40.3805 1658.11 39.8469C1657.62 39.3133 1657.17 38.7241 1656.74 38.0793L1652.07 30.8088C1651.85 30.4308 1651.65 30.1974 1651.47 30.1084C1651.3 30.0195 1651.08 29.9639 1650.84 29.9417V28.7744C1652.17 28.6854 1653.21 28.4186 1653.94 27.974C1654.68 27.5293 1655.19 26.9845 1655.48 26.3398C1655.76 25.6727 1655.91 24.9835 1655.91 24.272C1655.91 22.9157 1655.53 21.9041 1654.78 21.2371C1654.02 20.5478 1653.15 20.2032 1652.17 20.2032C1651.44 20.2032 1650.92 20.3366 1650.61 20.6034C1650.32 20.848 1650.17 21.4038 1650.17 22.2709V37.7792C1650.17 38.8686 1650.34 39.5579 1650.67 39.8469C1651.01 40.136 1651.62 40.3027 1652.51 40.3472V41.1143H1643V40.3472C1643.65 40.3027 1644.11 40.136 1644.4 39.8469C1644.69 39.5579 1644.84 38.8686 1644.84 37.7792V22.2709C1644.84 21.1815 1644.67 20.4922 1644.34 20.2032C1644.03 19.8919 1643.41 19.7251 1642.5 19.7029V18.9358H1644.84C1646.5 18.9358 1648.02 18.9136 1649.37 18.8691C1650.73 18.8024 1651.88 18.7691 1652.84 18.7691C1655.04 18.7691 1656.79 18.9803 1658.08 19.4028C1659.39 19.803 1660.32 20.3699 1660.88 21.1037C1661.46 21.8374 1661.75 22.6712 1661.75 23.605C1661.75 24.4943 1661.52 25.3059 1661.08 26.0396C1660.66 26.7733 1660.09 27.3959 1659.38 27.9073C1658.69 28.3964 1657.93 28.741 1657.11 28.9411V29.0078L1662.65 37.6791C1663.29 38.7019 1663.88 39.4022 1664.41 39.7802C1664.95 40.1582 1665.43 40.3472 1665.85 40.3472V41.1143C1665.4 41.2699 1664.87 41.3922 1664.25 41.4811C1663.65 41.5701 1663.06 41.6145 1662.48 41.6145ZM1678.23 41.6145C1675.9 41.6145 1673.83 41.1476 1672.03 40.2138C1670.23 39.28 1668.81 37.9681 1667.79 36.2784C1666.77 34.5663 1666.26 32.5875 1666.26 30.3419C1666.26 28.4965 1666.59 26.8511 1667.26 25.4059C1667.92 23.9385 1668.84 22.6823 1669.99 21.6373C1671.17 20.5923 1672.52 19.803 1674.03 19.2693C1675.56 18.7135 1677.2 18.4356 1678.93 18.4356C1680.24 18.4356 1681.5 18.5579 1682.7 18.8024C1683.9 19.047 1684.86 19.336 1685.57 19.6696V24.939H1684.8C1684.36 23.5827 1683.82 22.5489 1683.2 21.8374C1682.58 21.1037 1681.88 20.5923 1681.1 20.3032C1680.34 20.0142 1679.54 19.8697 1678.7 19.8697C1674.41 19.8697 1672.26 22.9824 1672.26 29.2079C1672.26 31.2535 1672.47 33.11 1672.89 34.7776C1673.34 36.4451 1674.02 37.768 1674.93 38.7463C1675.86 39.7024 1677.05 40.1804 1678.5 40.1804C1679.68 40.1804 1680.74 39.8914 1681.7 39.3133C1682.65 38.713 1683.47 37.9237 1684.13 36.9454C1684.82 35.9671 1685.31 34.911 1685.6 33.777H1686.37L1686.1 38.8464C1685.37 39.6468 1684.33 40.3138 1683 40.8474C1681.67 41.3588 1680.08 41.6145 1678.23 41.6145ZM1700.49 18.4356C1702.07 18.4356 1703.54 18.7024 1704.89 19.236C1706.25 19.7696 1707.45 20.5478 1708.5 21.5706C1709.54 22.5711 1710.35 23.7829 1710.93 25.2058C1711.51 26.6288 1711.8 28.2185 1711.8 29.975C1711.8 31.7315 1711.51 33.3212 1710.93 34.7442C1710.35 36.1672 1709.54 37.3901 1708.5 38.4128C1707.47 39.4356 1706.27 40.2249 1704.89 40.7807C1703.52 41.3366 1702.04 41.6145 1700.46 41.6145C1698.9 41.6145 1697.44 41.3477 1696.06 40.8141C1694.7 40.2805 1693.5 39.5134 1692.45 38.5129C1691.41 37.4901 1690.6 36.2672 1690.02 34.8443C1689.44 33.4213 1689.15 31.8316 1689.15 30.0751C1689.15 28.3186 1689.44 26.7289 1690.02 25.3059C1690.6 23.8829 1691.4 22.66 1692.42 21.6373C1693.47 20.6145 1694.68 19.8252 1696.06 19.2693C1697.44 18.7135 1698.91 18.4356 1700.49 18.4356ZM1701.16 40.1804C1702.32 40.1804 1703.23 39.8025 1703.89 39.0465C1704.56 38.2683 1705.04 37.2011 1705.33 35.8448C1705.64 34.4885 1705.8 32.9099 1705.8 31.109C1705.8 27.4848 1705.24 24.7056 1704.13 22.7712C1703.04 20.8368 1701.59 19.8697 1699.79 19.8697C1698.66 19.8697 1697.75 20.2476 1697.06 21.0036C1696.39 21.7596 1695.9 22.8268 1695.59 24.2053C1695.3 25.5616 1695.16 27.1402 1695.16 28.9411C1695.16 32.5653 1695.7 35.3445 1696.79 37.2789C1697.9 39.2133 1699.36 40.1804 1701.16 40.1804ZM1727.24 41.3811C1727.06 40.8697 1726.84 40.3472 1726.57 39.8136C1726.33 39.2577 1725.99 38.5351 1725.57 37.6458L1719.57 25.1058H1719.5L1718.9 37.7792C1718.88 38.5351 1719.06 39.1465 1719.43 39.6135C1719.81 40.0581 1720.5 40.3027 1721.5 40.3472V41.1143H1715.33V40.3472C1715.98 40.3027 1716.43 40.0581 1716.7 39.6135C1716.99 39.1465 1717.14 38.5351 1717.17 37.7792L1717.87 22.2709C1717.91 21.4927 1717.85 20.9369 1717.7 20.6034C1717.57 20.2699 1717.32 20.0587 1716.97 19.9697C1716.61 19.8585 1716.13 19.7696 1715.53 19.7029V18.9358H1722.67C1722.85 19.5139 1723.05 20.0587 1723.27 20.57C1723.51 21.0814 1723.78 21.6484 1724.07 22.2709L1729.81 34.2773H1729.87L1735.21 22.2709C1735.72 21.137 1736.11 20.0253 1736.38 18.9358H1743.45V19.7029C1743.02 19.7251 1742.67 19.7918 1742.38 19.903C1742.09 20.0142 1741.88 20.2476 1741.75 20.6034C1741.63 20.9369 1741.59 21.4927 1741.61 22.2709L1742.31 37.7792C1742.36 38.4906 1742.45 39.0243 1742.58 39.38C1742.73 39.7357 1742.98 39.9803 1743.31 40.1137C1743.65 40.2249 1744.09 40.3027 1744.65 40.3472V41.1143H1735.14V40.3472C1735.85 40.3027 1736.34 40.136 1736.61 39.8469C1736.9 39.5579 1737.02 38.8686 1736.98 37.7792L1736.41 24.1386H1736.34L1730.31 37.6458C1729.88 38.5796 1729.57 39.3133 1729.37 39.8469C1729.19 40.3583 1729.04 40.8697 1728.9 41.3811H1727.24ZM1759.25 41.3811C1759.08 40.8697 1758.85 40.3472 1758.59 39.8136C1758.34 39.2577 1758.01 38.5351 1757.59 37.6458L1751.58 25.1058H1751.52L1750.92 37.7792C1750.89 38.5351 1751.07 39.1465 1751.45 39.6135C1751.83 40.0581 1752.52 40.3027 1753.52 40.3472V41.1143H1747.35V40.3472C1747.99 40.3027 1748.45 40.0581 1748.71 39.6135C1749 39.1465 1749.16 38.5351 1749.18 37.7792L1749.88 22.2709C1749.93 21.4927 1749.87 20.9369 1749.71 20.6034C1749.58 20.2699 1749.34 20.0587 1748.98 19.9697C1748.63 19.8585 1748.15 19.7696 1747.55 19.7029V18.9358H1754.68C1754.86 19.5139 1755.06 20.0587 1755.28 20.57C1755.53 21.0814 1755.8 21.6484 1756.08 22.2709L1761.82 34.2773H1761.89L1767.22 22.2709C1767.74 21.137 1768.12 20.0253 1768.39 18.9358H1775.46V19.7029C1775.04 19.7251 1774.68 19.7918 1774.39 19.903C1774.11 20.0142 1773.89 20.2476 1773.76 20.6034C1773.65 20.9369 1773.61 21.4927 1773.63 22.2709L1774.33 37.7792C1774.37 38.4906 1774.46 39.0243 1774.59 39.38C1774.75 39.7357 1774.99 39.9803 1775.33 40.1137C1775.66 40.2249 1776.11 40.3027 1776.66 40.3472V41.1143H1767.16V40.3472C1767.87 40.3027 1768.36 40.136 1768.62 39.8469C1768.91 39.5579 1769.04 38.8686 1768.99 37.7792L1768.42 24.1386H1768.36L1762.32 37.6458C1761.9 38.5796 1761.59 39.3133 1761.39 39.8469C1761.21 40.3583 1761.05 40.8697 1760.92 41.3811H1759.25ZM1802.83 34.9443H1803.59L1803.26 41.1143H1787.18V40.3472C1787.36 40.2582 1787.63 40.1026 1787.98 39.8803C1788.36 39.6579 1788.75 39.4022 1789.15 39.1132C1790.26 38.3128 1791.31 37.4012 1792.29 36.3784C1793.27 35.3557 1794.12 34.2662 1794.85 33.11C1795.59 31.9538 1796.17 30.7977 1796.59 29.6415C1797.01 28.4853 1797.22 27.3848 1797.22 26.3398C1797.22 25.3392 1796.98 24.4943 1796.49 23.8051C1796.02 23.1158 1795.17 22.7712 1793.92 22.7712C1792.88 22.7712 1791.91 23.0602 1791.02 23.6383C1790.13 24.2164 1789.25 25.1169 1788.38 26.3398L1787.75 25.8061C1788.66 23.4938 1789.81 21.7707 1791.19 20.6367C1792.56 19.5028 1794.29 18.9358 1796.36 18.9358C1797.56 18.9358 1798.63 19.1359 1799.59 19.5362C1800.55 19.9141 1801.3 20.5145 1801.86 21.3371C1802.44 22.1375 1802.73 23.1825 1802.73 24.4721C1802.73 26.7622 1801.99 28.9078 1800.52 30.9088C1799.08 32.9099 1797.06 34.7887 1794.45 36.5452V36.6119H1799.32C1800.59 36.6119 1801.47 36.4562 1801.96 36.145C1802.45 35.8337 1802.74 35.4335 1802.83 34.9443ZM1817.02 18.9358C1818.18 18.9358 1819.31 19.1582 1820.42 19.6029C1821.53 20.0475 1822.53 20.7368 1823.42 21.6706C1824.31 22.6044 1825.01 23.7829 1825.53 25.2058C1826.06 26.6066 1826.33 28.2741 1826.33 30.2085C1826.33 32.1206 1826.07 33.7882 1825.56 35.2111C1825.05 36.6341 1824.35 37.8236 1823.46 38.7797C1822.57 39.7357 1821.57 40.4472 1820.46 40.9142C1819.34 41.3811 1818.19 41.6145 1816.99 41.6145C1815.83 41.6145 1814.7 41.3922 1813.59 40.9475C1812.47 40.5028 1811.47 39.8136 1810.58 38.8797C1809.69 37.9459 1808.98 36.7786 1808.45 35.3779C1807.94 33.9549 1807.68 32.2762 1807.68 30.3419C1807.68 28.4298 1807.94 26.7622 1808.45 25.3392C1808.96 23.9163 1809.66 22.7267 1810.55 21.7707C1811.44 20.8146 1812.44 20.1031 1813.55 19.6362C1814.66 19.1693 1815.82 18.9358 1817.02 18.9358ZM1817.12 40.1804C1817.77 40.1804 1818.35 39.8914 1818.89 39.3133C1819.42 38.7352 1819.84 37.7569 1820.16 36.3784C1820.49 34.9999 1820.66 33.11 1820.66 30.7087C1820.66 28.6187 1820.51 26.8067 1820.22 25.2725C1819.96 23.7161 1819.54 22.5155 1818.99 21.6706C1818.43 20.8035 1817.73 20.3699 1816.89 20.3699C1816.26 20.3699 1815.68 20.659 1815.12 21.2371C1814.59 21.8151 1814.15 22.7934 1813.82 24.1719C1813.51 25.5505 1813.35 27.4403 1813.35 29.8416C1813.35 31.9316 1813.49 33.7548 1813.75 35.3112C1814.04 36.8453 1814.46 38.046 1815.02 38.9131C1815.58 39.758 1816.28 40.1804 1817.12 40.1804ZM1844.74 34.9443H1845.51L1845.18 41.1143H1829.1V40.3472C1829.28 40.2582 1829.55 40.1026 1829.9 39.8803C1830.28 39.6579 1830.67 39.4022 1831.07 39.1132C1832.18 38.3128 1833.23 37.4012 1834.2 36.3784C1835.18 35.3557 1836.04 34.2662 1836.77 33.11C1837.51 31.9538 1838.08 30.7977 1838.51 29.6415C1838.93 28.4853 1839.14 27.3848 1839.14 26.3398C1839.14 25.3392 1838.9 24.4943 1838.41 23.8051C1837.94 23.1158 1837.08 22.7712 1835.84 22.7712C1834.79 22.7712 1833.83 23.0602 1832.94 23.6383C1832.05 24.2164 1831.17 25.1169 1830.3 26.3398L1829.67 25.8061C1830.58 23.4938 1831.72 21.7707 1833.1 20.6367C1834.48 19.5028 1836.2 18.9358 1838.27 18.9358C1839.47 18.9358 1840.55 19.1359 1841.51 19.5362C1842.46 19.9141 1843.22 20.5145 1843.78 21.3371C1844.35 22.1375 1844.64 23.1825 1844.64 24.4721C1844.64 26.7622 1843.91 28.9078 1842.44 30.9088C1841 32.9099 1838.97 34.7887 1836.37 36.5452V36.6119H1841.24C1842.51 36.6119 1843.39 36.4562 1843.88 36.145C1844.36 35.8337 1844.65 35.4335 1844.74 34.9443ZM1863.27 32.6098H1865.61V36.7786H1864.21C1863.58 36.7786 1863.27 37.1677 1863.27 37.9459C1863.27 38.4795 1863.27 39.002 1863.27 39.5134C1863.3 40.0026 1863.32 40.5362 1863.34 41.1143H1858.07C1858.11 40.3805 1858.15 39.669 1858.17 38.9798C1858.19 38.2683 1858.21 37.5346 1858.24 36.7786H1847.7V36.0116C1848.28 35.4557 1848.8 34.8776 1849.27 34.2773L1860.17 20.6367C1860.42 20.3255 1860.64 20.0253 1860.84 19.7363C1861.06 19.425 1861.24 19.1582 1861.37 18.9358H1863.31L1863.27 32.6098ZM1858.17 25.6394L1852.6 32.6098H1858.27V25.6394H1858.17Z" fill="black"/>
<defs>
<linearGradient id="paint0_linear_614_2531" x1="0" y1="30" x2="1893.25" y2="30" gradientUnits="userSpaceOnUse">
<stop stop-color="#FA0056"/>
<stop offset="0.375" stop-color="#F33174"/>
<stop offset="0.67" stop-color="#FA0056"/>
<stop offset="0.975" stop-color="#F33174"/>
</linearGradient>
</defs>
</svg>
