<svg width="2467" height="90" viewBox="0 0 2467 90" fill="none" xmlns="http://www.w3.org/2000/svg">
<rect width="2467" height="90" fill="url(#paint0_linear_614_2629)"/>
<path d="M58.2248 53.2474H59.4994L58.9452 63.5H32.2329V62.2254C32.5285 62.0776 32.9719 61.8189 33.563 61.4495C34.1911 61.08 34.8377 60.6551 35.5027 60.1748C37.35 58.8448 39.0865 57.3299 40.7121 55.6304C42.3378 53.9309 43.7602 52.1205 44.9795 50.1993C46.1987 48.2781 47.1593 46.3568 47.8613 44.4356C48.5633 42.5144 48.9143 40.6856 48.9143 38.9491C48.9143 37.2865 48.5079 35.8825 47.695 34.7372C46.9192 33.5918 45.4967 33.0192 43.4277 33.0192C41.6912 33.0192 40.0841 33.4995 38.6062 34.4601C37.1283 35.4207 35.669 36.917 34.228 38.9491L33.1751 38.0624C34.6899 34.2199 36.5926 31.3566 38.8833 29.4723C41.174 27.588 44.0373 26.6459 47.4734 26.6459C49.4685 26.6459 51.2604 26.9784 52.8491 27.6435C54.4378 28.2716 55.6939 29.2691 56.6176 30.6361C57.5782 31.9662 58.0585 33.7027 58.0585 35.8456C58.0585 39.6511 56.8393 43.2164 54.4008 46.5416C51.9993 49.8668 48.6372 52.9887 44.3144 55.9075V56.0183H52.4057C54.5117 56.0183 55.971 55.7597 56.7839 55.2425C57.5967 54.7252 58.077 54.0602 58.2248 53.2474ZM81.8123 26.6459C83.7336 26.6459 85.6178 27.0154 87.4652 27.7543C89.3125 28.4932 90.9751 29.6386 92.4529 31.1903C93.9308 32.7421 95.0946 34.7002 95.9444 37.0648C96.8311 39.3924 97.2744 42.1634 97.2744 45.3778C97.2744 48.5552 96.8496 51.3261 95.9998 53.6907C95.15 56.0553 93.9862 58.0319 92.5084 59.6206C91.0305 61.2093 89.3679 62.3916 87.5206 63.1675C85.6733 63.9434 83.752 64.3313 81.7569 64.3313C79.8357 64.3313 77.9514 63.9618 76.1041 63.2229C74.2568 62.484 72.5942 61.3386 71.1163 59.7869C69.6385 58.2351 68.4562 56.2954 67.5695 53.9678C66.7197 51.6032 66.2948 48.8138 66.2948 45.5994C66.2948 42.422 66.7197 39.6511 67.5695 37.2865C68.4193 34.9219 69.5831 32.9453 71.0609 31.3566C72.5388 29.7679 74.2014 28.5856 76.0487 27.8097C77.896 27.0338 79.8172 26.6459 81.8123 26.6459ZM81.9786 61.9483C83.0501 61.9483 84.0291 61.468 84.9159 60.5073C85.8026 59.5467 86.5046 57.9211 87.0218 55.6304C87.576 53.3397 87.8531 50.1993 87.8531 46.2091C87.8531 42.7361 87.6129 39.725 87.1326 37.1756C86.6893 34.5894 86.0058 32.5943 85.0821 31.1903C84.1584 29.7494 82.9946 29.029 81.5907 29.029C80.5562 29.029 79.5771 29.5093 78.6534 30.4699C77.7667 31.4305 77.0463 33.0561 76.4921 35.3468C75.9748 37.6375 75.7162 40.7779 75.7162 44.7681C75.7162 48.2411 75.9379 51.2707 76.3812 53.857C76.8615 56.4063 77.5635 58.4014 78.4872 59.8423C79.4108 61.2463 80.5746 61.9483 81.9786 61.9483ZM134.891 46.7633L117.71 48.2596L117.323 43.7706L134.503 42.2743L134.891 46.7633ZM177.778 53.2474H179.052L178.498 63.5H151.786V62.2254C152.081 62.0776 152.525 61.8189 153.116 61.4495C153.744 61.08 154.391 60.6551 155.056 60.1748C156.903 58.8448 158.639 57.3299 160.265 55.6304C161.891 53.9309 163.313 52.1205 164.532 50.1993C165.752 48.2781 166.712 46.3568 167.414 44.4356C168.116 42.5144 168.467 40.6856 168.467 38.9491C168.467 37.2865 168.061 35.8825 167.248 34.7372C166.472 33.5918 165.05 33.0192 162.981 33.0192C161.244 33.0192 159.637 33.4995 158.159 34.4601C156.681 35.4207 155.222 36.917 153.781 38.9491L152.728 38.0624C154.243 34.2199 156.145 31.3566 158.436 29.4723C160.727 27.588 163.59 26.6459 167.026 26.6459C169.021 26.6459 170.813 26.9784 172.402 27.6435C173.991 28.2716 175.247 29.2691 176.17 30.6361C177.131 31.9662 177.611 33.7027 177.611 35.8456C177.611 39.6511 176.392 43.2164 173.954 46.5416C171.552 49.8668 168.19 52.9887 163.867 55.9075V56.0183H171.959C174.064 56.0183 175.524 55.7597 176.337 55.2425C177.15 54.7252 177.63 54.0602 177.778 53.2474ZM200.423 57.4038C200.423 58.7709 200.534 59.8054 200.756 60.5073C201.014 61.1724 201.531 61.6157 202.307 61.8374C203.12 62.0591 204.339 62.1884 205.965 62.2254V63.5H185.46V62.2254C187.122 62.1884 188.342 62.0591 189.117 61.8374C189.93 61.6157 190.448 61.1724 190.669 60.5073C190.891 59.8054 191.002 58.7709 191.002 57.4038V33.2963L185.903 36.4552L184.739 34.6818L197.597 26.6459H200.811C200.663 27.3479 200.552 28.0499 200.478 28.7519C200.442 29.4538 200.423 30.1558 200.423 30.8578V57.4038ZM225.773 63.5V62.2254C226.845 62.1515 227.621 61.8744 228.101 61.3941C228.581 60.9138 228.821 59.7684 228.821 57.958V32.1879C228.821 30.3775 228.544 29.2322 227.99 28.7519C227.473 28.2346 226.457 27.9575 224.942 27.9206V26.6459H240.737V27.9206C239.665 27.9575 238.889 28.2346 238.409 28.7519C237.929 29.2322 237.688 30.3775 237.688 32.1879V41.9972C237.984 41.7755 238.335 41.6277 238.741 41.5538C239.185 41.4799 239.702 41.443 240.293 41.443H250.768C251.765 41.443 252.467 41.2767 252.873 40.9442C253.28 40.6117 253.483 39.9466 253.483 38.9491V32.1879C253.483 30.3775 253.206 29.2322 252.652 28.7519C252.135 28.2346 251.119 27.9575 249.604 27.9206V26.6459H265.398V27.9206C264.327 27.9575 263.551 28.2346 263.071 28.7519C262.59 29.2322 262.35 30.3775 262.35 32.1879V57.958C262.35 59.7684 262.627 60.9138 263.182 61.3941C263.736 61.8744 264.752 62.1515 266.23 62.2254V63.5H250.435V62.2254C251.506 62.1515 252.282 61.8744 252.763 61.3941C253.243 60.9138 253.483 59.7684 253.483 57.958V43.2164C253.188 43.475 252.818 43.6413 252.375 43.7152C251.931 43.7891 251.433 43.826 250.878 43.826H240.404C239.406 43.826 238.704 43.9923 238.298 44.3248C237.892 44.6573 237.688 45.3039 237.688 46.2645V57.958C237.688 59.7684 237.966 60.9138 238.52 61.3941C239.074 61.8744 240.09 62.1515 241.568 62.2254V63.5H225.773ZM290.673 25.8146C293.296 25.8146 295.734 26.258 297.988 27.1447C300.242 28.0314 302.237 29.3245 303.973 31.0241C305.71 32.6867 307.058 34.7002 308.019 37.0648C308.98 39.4294 309.46 42.0711 309.46 44.9898C309.46 47.9086 308.98 50.5503 308.019 52.9148C307.058 55.2794 305.71 57.3115 303.973 59.011C302.274 60.7105 300.279 62.0221 297.988 62.9458C295.697 63.8695 293.241 64.3313 290.617 64.3313C288.031 64.3313 285.593 63.8879 283.302 63.0012C281.048 62.1145 279.053 60.8399 277.317 59.1773C275.58 57.4777 274.232 55.4457 273.271 53.0811C272.31 50.7165 271.83 48.0749 271.83 45.1561C271.83 42.2373 272.31 39.5956 273.271 37.2311C274.232 34.8665 275.562 32.8344 277.261 31.1349C278.998 29.4354 281.011 28.1238 283.302 27.2001C285.593 26.2764 288.05 25.8146 290.673 25.8146ZM291.781 61.9483C293.702 61.9483 295.217 61.3202 296.326 60.064C297.434 58.7709 298.228 56.9974 298.709 54.7437C299.226 52.49 299.484 49.8668 299.484 46.8741C299.484 40.8518 298.561 36.2335 296.713 33.0192C294.903 29.8048 292.502 28.1977 289.509 28.1977C287.625 28.1977 286.11 28.8257 284.964 30.0819C283.856 31.3381 283.043 33.1115 282.526 35.4022C282.046 37.656 281.806 40.2792 281.806 43.2718C281.806 49.2941 282.711 53.9124 284.521 57.1267C286.368 60.3411 288.788 61.9483 291.781 61.9483ZM315.758 64.3313C314.835 64.3313 313.856 64.2574 312.821 64.1096C311.787 63.9618 310.9 63.7586 310.161 63.5V62.2254C310.9 62.2254 311.731 61.9298 312.655 61.3386C313.579 60.7475 314.521 59.5652 315.481 57.7918L323.406 43.4381C320.931 42.81 319.047 41.794 317.753 40.39C316.497 38.986 315.869 37.2865 315.869 35.2914C315.869 33.7396 316.331 32.2802 317.255 30.9132C318.215 29.5462 319.767 28.4563 321.91 27.6435C324.09 26.7937 327.009 26.3688 330.666 26.3688C331.849 26.3688 333.216 26.4242 334.767 26.5351C336.319 26.609 338.037 26.6459 339.921 26.6459H347.015V27.9206C345.944 27.9575 345.168 28.2346 344.687 28.7519C344.207 29.2322 343.967 30.3775 343.967 32.1879V57.958C343.967 59.7684 344.244 60.9138 344.798 61.3941C345.352 61.8744 346.369 62.1515 347.846 62.2254V63.5H332.052V62.2254C333.123 62.1515 333.899 61.8744 334.379 61.3941C334.86 60.9138 335.1 59.7684 335.1 57.958V32.1879C335.1 30.747 334.841 29.8233 334.324 29.4169C333.844 28.9735 332.994 28.7519 331.775 28.7519C330.186 28.7519 328.745 29.3245 327.452 30.4699C326.196 31.5783 325.568 33.2593 325.568 35.5131C325.568 36.6953 325.808 37.8407 326.288 38.9491C326.768 40.0205 327.618 40.9257 328.837 41.6646C330.094 42.4036 331.812 42.8469 333.991 42.9947V44.9344C333.548 44.9344 333.16 45.0268 332.828 45.2115C332.495 45.3593 332.163 45.7472 331.83 46.3753L325.568 58.4568C324.718 60.0825 323.536 61.468 322.021 62.6133C320.506 63.7586 318.419 64.3313 315.758 64.3313ZM365.359 41.3321H370.735C374.762 41.3321 377.94 41.7755 380.267 42.6622C382.595 43.5489 384.239 44.7681 385.2 46.3199C386.197 47.8717 386.696 49.6636 386.696 51.6956C386.696 53.7277 386.142 55.6489 385.033 57.4593C383.962 59.2327 382.281 60.6921 379.99 61.8374C377.737 62.9458 374.855 63.5 371.345 63.5H353.444V62.2254C354.516 62.1515 355.292 61.8744 355.772 61.3941C356.252 60.9138 356.492 59.7684 356.492 57.958V32.1879C356.492 30.3775 356.215 29.2322 355.661 28.7519C355.144 28.2346 354.128 27.9575 352.613 27.9206V26.6459H383.094V35.7902H381.819C381.708 34.534 381.468 33.4071 381.099 32.4096C380.729 31.3751 380.101 30.5622 379.214 29.9711C378.328 29.343 377.053 29.029 375.39 29.029H367.798C367.022 29.029 366.412 29.2322 365.969 29.6386C365.563 30.045 365.359 30.8948 365.359 32.1879V41.3321ZM368.629 61.117C370.587 61.117 372.195 60.6551 373.451 59.7315C374.744 58.7709 375.704 57.5886 376.333 56.1846C376.961 54.7806 377.275 53.3951 377.275 52.0281C377.275 49.9961 376.887 48.3704 376.111 47.1512C375.372 45.932 374.356 45.0637 373.063 44.5465C371.807 43.9923 370.384 43.7152 368.795 43.7152H365.359V57.958C365.359 59.2512 365.563 60.1009 365.969 60.5073C366.375 60.9138 367.262 61.117 368.629 61.117ZM392.574 63.5V62.2254C393.645 62.1515 394.421 61.8744 394.901 61.3941C395.381 60.9138 395.622 59.7684 395.622 57.958V32.1879C395.622 30.3775 395.344 29.2322 394.79 28.7519C394.273 28.2346 393.257 27.9575 391.742 27.9206V26.6459H395.622C398.319 26.6459 400.85 26.609 403.214 26.5351C405.579 26.4242 407.352 26.3688 408.534 26.3688C412.377 26.3688 415.406 26.7937 417.623 27.6435C419.877 28.4932 421.484 29.6201 422.445 31.0241C423.442 32.3911 423.941 33.9059 423.941 35.5685C423.941 37.4897 423.313 39.3185 422.057 41.055C420.838 42.7915 418.879 44.1401 416.182 45.1007C413.522 46.0243 409.994 46.3199 405.597 45.9874V44.0477C407.592 44.1216 409.236 43.7706 410.529 42.9947C411.823 42.1819 412.765 41.1104 413.356 39.7804C413.984 38.4503 414.298 37.0279 414.298 35.5131C414.298 33.481 413.725 31.8554 412.58 30.6361C411.435 29.3799 409.846 28.7519 407.814 28.7519C406.595 28.7519 405.726 28.9735 405.209 29.4169C404.729 29.8233 404.489 30.747 404.489 32.1879V57.958C404.489 59.1403 404.6 60.0455 404.821 60.6736C405.08 61.2647 405.523 61.6712 406.151 61.8928C406.816 62.0776 407.74 62.1884 408.922 62.2254V63.5H392.574ZM429.791 64.3313C428.867 64.3313 427.888 64.2574 426.854 64.1096C425.819 63.9618 424.932 63.7586 424.193 63.5V62.2254C424.932 62.2254 425.764 61.9298 426.687 61.3386C427.611 60.7475 428.553 59.5652 429.514 57.7918L437.439 43.4381C434.963 42.81 433.079 41.794 431.786 40.39C430.53 38.986 429.902 37.2865 429.902 35.2914C429.902 33.7396 430.364 32.2802 431.287 30.9132C432.248 29.5462 433.8 28.4563 435.942 27.6435C438.122 26.7937 441.041 26.3688 444.699 26.3688C445.881 26.3688 447.248 26.4242 448.8 26.5351C450.352 26.609 452.07 26.6459 453.954 26.6459H461.048V27.9206C459.976 27.9575 459.2 28.2346 458.72 28.7519C458.24 29.2322 458 30.3775 458 32.1879V57.958C458 59.7684 458.277 60.9138 458.831 61.3941C459.385 61.8744 460.401 62.1515 461.879 62.2254V63.5H446.084V62.2254C447.156 62.1515 447.932 61.8744 448.412 61.3941C448.892 60.9138 449.132 59.7684 449.132 57.958V32.1879C449.132 30.747 448.874 29.8233 448.356 29.4169C447.876 28.9735 447.026 28.7519 445.807 28.7519C444.218 28.7519 442.778 29.3245 441.484 30.4699C440.228 31.5783 439.6 33.2593 439.6 35.5131C439.6 36.6953 439.84 37.8407 440.321 38.9491C440.801 40.0205 441.651 40.9257 442.87 41.6646C444.126 42.4036 445.844 42.8469 448.024 42.9947V44.9344C447.581 44.9344 447.193 45.0268 446.86 45.2115C446.528 45.3593 446.195 45.7472 445.863 46.3753L439.6 58.4568C438.75 60.0825 437.568 61.468 436.053 62.6133C434.539 63.7586 432.451 64.3313 429.791 64.3313ZM505.912 53.2474H507.187L506.632 63.5H479.92V62.2254C480.216 62.0776 480.659 61.8189 481.25 61.4495C481.878 61.08 482.525 60.6551 483.19 60.1748C485.037 58.8448 486.774 57.3299 488.399 55.6304C490.025 53.9309 491.447 52.1205 492.667 50.1993C493.886 48.2781 494.847 46.3568 495.549 44.4356C496.25 42.5144 496.601 40.6856 496.601 38.9491C496.601 37.2865 496.195 35.8825 495.382 34.7372C494.606 33.5918 493.184 33.0192 491.115 33.0192C489.378 33.0192 487.771 33.4995 486.293 34.4601C484.816 35.4207 483.356 36.917 481.915 38.9491L480.862 38.0624C482.377 34.2199 484.28 31.3566 486.571 29.4723C488.861 27.588 491.725 26.6459 495.161 26.6459C497.156 26.6459 498.948 26.9784 500.536 27.6435C502.125 28.2716 503.381 29.2691 504.305 30.6361C505.265 31.9662 505.746 33.7027 505.746 35.8456C505.746 39.6511 504.526 43.2164 502.088 46.5416C499.687 49.8668 496.324 52.9887 492.002 55.9075V56.0183H500.093C502.199 56.0183 503.658 55.7597 504.471 55.2425C505.284 54.7252 505.764 54.0602 505.912 53.2474ZM529.5 26.6459C531.421 26.6459 533.305 27.0154 535.152 27.7543C537 28.4932 538.662 29.6386 540.14 31.1903C541.618 32.7421 542.782 34.7002 543.632 37.0648C544.518 39.3924 544.962 42.1634 544.962 45.3778C544.962 48.5552 544.537 51.3261 543.687 53.6907C542.837 56.0553 541.673 58.0319 540.196 59.6206C538.718 61.2093 537.055 62.3916 535.208 63.1675C533.36 63.9434 531.439 64.3313 529.444 64.3313C527.523 64.3313 525.639 63.9618 523.791 63.2229C521.944 62.484 520.281 61.3386 518.804 59.7869C517.326 58.2351 516.143 56.2954 515.257 53.9678C514.407 51.6032 513.982 48.8138 513.982 45.5994C513.982 42.422 514.407 39.6511 515.257 37.2865C516.106 34.9219 517.27 32.9453 518.748 31.3566C520.226 29.7679 521.889 28.5856 523.736 27.8097C525.583 27.0338 527.504 26.6459 529.5 26.6459ZM529.666 61.9483C530.737 61.9483 531.716 61.468 532.603 60.5073C533.49 59.5467 534.192 57.9211 534.709 55.6304C535.263 53.3397 535.54 50.1993 535.54 46.2091C535.54 42.7361 535.3 39.725 534.82 37.1756C534.377 34.5894 533.693 32.5943 532.769 31.1903C531.846 29.7494 530.682 29.029 529.278 29.029C528.243 29.029 527.264 29.5093 526.341 30.4699C525.454 31.4305 524.733 33.0561 524.179 35.3468C523.662 37.6375 523.403 40.7779 523.403 44.7681C523.403 48.2411 523.625 51.2707 524.068 53.857C524.549 56.4063 525.251 58.4014 526.174 59.8423C527.098 61.2463 528.262 61.9483 529.666 61.9483ZM575.565 53.2474H576.84L576.286 63.5H549.574V62.2254C549.869 62.0776 550.313 61.8189 550.904 61.4495C551.532 61.08 552.178 60.6551 552.843 60.1748C554.691 58.8448 556.427 57.3299 558.053 55.6304C559.678 53.9309 561.101 52.1205 562.32 50.1993C563.539 48.2781 564.5 46.3568 565.202 44.4356C565.904 42.5144 566.255 40.6856 566.255 38.9491C566.255 37.2865 565.849 35.8825 565.036 34.7372C564.26 33.5918 562.837 33.0192 560.768 33.0192C559.032 33.0192 557.425 33.4995 555.947 34.4601C554.469 35.4207 553.01 36.917 551.569 38.9491L550.516 38.0624C552.031 34.2199 553.933 31.3566 556.224 29.4723C558.515 27.588 561.378 26.6459 564.814 26.6459C566.809 26.6459 568.601 26.9784 570.19 27.6435C571.778 28.2716 573.035 29.2691 573.958 30.6361C574.919 31.9662 575.399 33.7027 575.399 35.8456C575.399 39.6511 574.18 43.2164 571.742 46.5416C569.34 49.8668 565.978 52.9887 561.655 55.9075V56.0183H569.746C571.852 56.0183 573.312 55.7597 574.125 55.2425C574.937 54.7252 575.418 54.0602 575.565 53.2474ZM606.358 49.368H610.237V56.2954H607.909C606.875 56.2954 606.358 56.942 606.358 58.2351C606.358 59.1219 606.358 59.9901 606.358 60.8399C606.395 61.6527 606.431 62.5394 606.468 63.5H597.712C597.786 62.2808 597.841 61.0985 597.878 59.9531C597.915 58.7709 597.952 57.5516 597.989 56.2954H580.477V55.0208C581.437 54.0971 582.305 53.1365 583.081 52.139L601.204 29.4723C601.61 28.9551 601.979 28.4563 602.312 27.976C602.681 27.4587 602.977 27.0154 603.199 26.6459H606.413L606.358 49.368ZM597.878 37.7853L588.623 49.368H598.045V37.7853H597.878ZM655.705 26.6459V36.8986H654.43C654.245 35.2729 653.913 33.8874 653.432 32.7421C652.989 31.5598 652.287 30.6546 651.326 30.0265C650.403 29.3615 649.11 29.029 647.447 29.029H644.842C644.066 29.029 643.457 29.2322 643.013 29.6386C642.607 30.045 642.404 30.8948 642.404 32.1879V57.958C642.404 59.7684 642.681 60.9138 643.235 61.3941C643.789 61.8744 644.805 62.1515 646.283 62.2254V63.5H630.489V62.2254C631.56 62.1515 632.336 61.8744 632.816 61.3941C633.296 60.9138 633.537 59.7684 633.537 57.958V32.1879C633.537 30.3775 633.26 29.2322 632.705 28.7519C632.188 28.2346 631.172 27.9575 629.657 27.9206V26.6459H655.705ZM677.907 25.8146C680.53 25.8146 682.969 26.258 685.222 27.1447C687.476 28.0314 689.471 29.3245 691.208 31.0241C692.944 32.6867 694.293 34.7002 695.253 37.0648C696.214 39.4294 696.694 42.0711 696.694 44.9898C696.694 47.9086 696.214 50.5503 695.253 52.9148C694.293 55.2794 692.944 57.3115 691.208 59.011C689.508 60.7105 687.513 62.0221 685.222 62.9458C682.932 63.8695 680.475 64.3313 677.852 64.3313C675.265 64.3313 672.827 63.8879 670.536 63.0012C668.282 62.1145 666.287 60.8399 664.551 59.1773C662.814 57.4777 661.466 55.4457 660.505 53.0811C659.545 50.7165 659.064 48.0749 659.064 45.1561C659.064 42.2373 659.545 39.5956 660.505 37.2311C661.466 34.8665 662.796 32.8344 664.495 31.1349C666.232 29.4354 668.245 28.1238 670.536 27.2001C672.827 26.2764 675.284 25.8146 677.907 25.8146ZM679.015 61.9483C680.937 61.9483 682.451 61.3202 683.56 60.064C684.668 58.7709 685.463 56.9974 685.943 54.7437C686.46 52.49 686.719 49.8668 686.719 46.8741C686.719 40.8518 685.795 36.2335 683.948 33.0192C682.137 29.8048 679.736 28.1977 676.743 28.1977C674.859 28.1977 673.344 28.8257 672.199 30.0819C671.09 31.3381 670.278 33.1115 669.76 35.4022C669.28 37.656 669.04 40.2792 669.04 43.2718C669.04 49.2941 669.945 53.9124 671.755 57.1267C673.603 60.3411 676.023 61.9483 679.015 61.9483ZM720.727 31.0241L729.927 57.958C730.259 58.9186 730.739 59.8054 731.368 60.6182C732.033 61.3941 733.049 61.9298 734.416 62.2254L731.866 74.861H730.592C730.518 72.5704 730.185 70.5753 729.594 68.8757C729.003 67.1762 728.264 65.8461 727.377 64.8855C726.491 63.9618 725.53 63.5 724.495 63.5H709.643C708.276 63.5 706.927 63.9618 705.597 64.8855C704.304 65.8461 703.196 67.1762 702.272 68.8757C701.385 70.5753 700.813 72.5704 700.554 74.861H699.28V62.2254C699.945 61.9298 700.591 61.431 701.219 60.729C701.847 59.9901 702.42 59.1588 702.937 58.2351C703.491 57.3115 703.916 56.4432 704.212 55.6304L713.633 31.0241C714.003 30.0635 714.354 29.1213 714.686 28.1977C715.019 27.274 715.314 26.3319 715.573 25.3713H718.787C719.046 26.3319 719.341 27.274 719.674 28.1977C720.043 29.1213 720.394 30.0635 720.727 31.0241ZM718.399 61.117C719.877 61.117 720.69 60.8768 720.838 60.3965C720.986 59.9162 720.856 59.1034 720.45 57.958L713.966 38.0069H713.855L705.209 61.117H718.399ZM768.331 57.958C768.848 59.2142 769.273 60.1379 769.605 60.729C769.975 61.3202 770.363 61.7081 770.769 61.8928C771.176 62.0406 771.674 62.1515 772.266 62.2254V63.5H756.803V62.2254C758.281 62.1515 759.094 61.7081 759.242 60.8953C759.427 60.0825 759.297 59.1034 758.854 57.958L756.083 50.7535C755.861 50.9382 755.566 51.0675 755.196 51.1414C754.864 51.1784 754.494 51.1968 754.088 51.1968H747.825C747.05 51.1968 746.458 51.2892 746.052 51.4739C745.646 51.6587 745.295 52.1205 744.999 52.8594L743.004 57.958C742.524 59.1773 742.561 60.1748 743.115 60.9507C743.669 61.7266 744.759 62.1515 746.385 62.2254V63.5H736.298V62.2254C737.111 62.1515 737.794 61.745 738.349 61.0061C738.94 60.2302 739.476 59.2142 739.956 57.958L750.596 31.0241C751.003 30.0635 751.354 29.1213 751.649 28.1977C751.982 27.274 752.277 26.3319 752.536 25.3713H755.75C756.009 26.3319 756.305 27.274 756.637 28.1977C756.97 29.1213 757.321 30.0635 757.69 31.0241L768.331 57.958ZM753.811 48.8138C754.328 48.8138 754.661 48.7399 754.808 48.5921C754.993 48.4074 754.975 48.0379 754.753 47.4837L750.929 38.0069H750.818L746.495 49.0355C746.68 48.9246 746.902 48.8692 747.16 48.8692C747.419 48.8323 747.715 48.8138 748.047 48.8138H753.811Z" fill="black"/>
<path d="M828.456 38.6819C822.932 36.4759 816.45 37.6524 812.031 42.0646C806.065 48.021 806.065 57.6541 812.031 63.6105C816.45 68.0227 822.932 69.1993 828.456 66.9932V59.9338C827.352 60.4485 826.173 60.7427 824.921 60.7427C820.501 60.7427 816.966 57.2129 816.966 52.8008C816.966 48.3886 820.501 44.8589 824.921 44.8589C826.173 44.8589 827.425 45.1531 828.456 45.6678V38.6819Z" fill="black"/>
<path d="M825.957 31.6075C828.133 29.426 828.133 25.8153 825.957 23.5586C823.781 21.3772 820.179 21.3772 817.928 23.5586C815.677 25.7401 815.752 29.3508 817.928 31.6075C820.179 33.7889 823.781 33.7889 825.957 31.6075Z" fill="black"/>
<path d="M889.212 53.2474H890.487L889.933 63.5H863.22V62.2254C863.516 62.0776 863.959 61.8189 864.551 61.4495C865.179 61.08 865.825 60.6551 866.49 60.1748C868.338 58.8448 870.074 57.3299 871.7 55.6304C873.325 53.9309 874.748 52.1205 875.967 50.1993C877.186 48.2781 878.147 46.3568 878.849 44.4356C879.551 42.5144 879.902 40.6856 879.902 38.9491C879.902 37.2865 879.495 35.8825 878.683 34.7372C877.907 33.5918 876.484 33.0192 874.415 33.0192C872.679 33.0192 871.072 33.4995 869.594 34.4601C868.116 35.4207 866.656 36.917 865.216 38.9491L864.163 38.0624C865.677 34.2199 867.58 31.3566 869.871 29.4723C872.162 27.588 875.025 26.6459 878.461 26.6459C880.456 26.6459 882.248 26.9784 883.837 27.6435C885.425 28.2716 886.681 29.2691 887.605 30.6361C888.566 31.9662 889.046 33.7027 889.046 35.8456C889.046 39.6511 887.827 43.2164 885.388 46.5416C882.987 49.8668 879.625 52.9887 875.302 55.9075V56.0183H883.393C885.499 56.0183 886.959 55.7597 887.771 55.2425C888.584 54.7252 889.065 54.0602 889.212 53.2474ZM912.8 26.6459C914.721 26.6459 916.605 27.0154 918.453 27.7543C920.3 28.4932 921.963 29.6386 923.44 31.1903C924.918 32.7421 926.082 34.7002 926.932 37.0648C927.819 39.3924 928.262 42.1634 928.262 45.3778C928.262 48.5552 927.837 51.3261 926.987 53.6907C926.138 56.0553 924.974 58.0319 923.496 59.6206C922.018 61.2093 920.355 62.3916 918.508 63.1675C916.661 63.9434 914.74 64.3313 912.744 64.3313C910.823 64.3313 908.939 63.9618 907.092 63.2229C905.244 62.484 903.582 61.3386 902.104 59.7869C900.626 58.2351 899.444 56.2954 898.557 53.9678C897.707 51.6032 897.282 48.8138 897.282 45.5994C897.282 42.422 897.707 39.6511 898.557 37.2865C899.407 34.9219 900.571 32.9453 902.048 31.3566C903.526 29.7679 905.189 28.5856 907.036 27.8097C908.884 27.0338 910.805 26.6459 912.8 26.6459ZM912.966 61.9483C914.038 61.9483 915.017 61.468 915.903 60.5073C916.79 59.5467 917.492 57.9211 918.009 55.6304C918.564 53.3397 918.841 50.1993 918.841 46.2091C918.841 42.7361 918.6 39.725 918.12 37.1756C917.677 34.5894 916.993 32.5943 916.07 31.1903C915.146 29.7494 913.982 29.029 912.578 29.029C911.544 29.029 910.565 29.5093 909.641 30.4699C908.754 31.4305 908.034 33.0561 907.48 35.3468C906.962 37.6375 906.704 40.7779 906.704 44.7681C906.704 48.2411 906.925 51.2707 907.369 53.857C907.849 56.4063 908.551 58.4014 909.475 59.8423C910.398 61.2463 911.562 61.9483 912.966 61.9483ZM965.878 46.7633L948.698 48.2596L948.31 43.7706L965.49 42.2743L965.878 46.7633ZM1008.77 53.2474H1010.04L1009.49 63.5H982.773V62.2254C983.069 62.0776 983.512 61.8189 984.103 61.4495C984.731 61.08 985.378 60.6551 986.043 60.1748C987.89 58.8448 989.627 57.3299 991.253 55.6304C992.878 53.9309 994.301 52.1205 995.52 50.1993C996.739 48.2781 997.7 46.3568 998.402 44.4356C999.104 42.5144 999.455 40.6856 999.455 38.9491C999.455 37.2865 999.048 35.8825 998.235 34.7372C997.46 33.5918 996.037 33.0192 993.968 33.0192C992.232 33.0192 990.624 33.4995 989.147 34.4601C987.669 35.4207 986.209 36.917 984.768 38.9491L983.715 38.0624C985.23 34.2199 987.133 31.3566 989.424 29.4723C991.714 27.588 994.578 26.6459 998.014 26.6459C1000.01 26.6459 1001.8 26.9784 1003.39 27.6435C1004.98 28.2716 1006.23 29.2691 1007.16 30.6361C1008.12 31.9662 1008.6 33.7027 1008.6 35.8456C1008.6 39.6511 1007.38 43.2164 1004.94 46.5416C1002.54 49.8668 999.178 52.9887 994.855 55.9075V56.0183H1002.95C1005.05 56.0183 1006.51 55.7597 1007.32 55.2425C1008.14 54.7252 1008.62 54.0602 1008.77 53.2474ZM1031.41 57.4038C1031.41 58.7709 1031.52 59.8054 1031.74 60.5073C1032 61.1724 1032.52 61.6157 1033.29 61.8374C1034.11 62.0591 1035.33 62.1884 1036.95 62.2254V63.5H1016.45V62.2254C1018.11 62.1884 1019.33 62.0591 1020.1 61.8374C1020.92 61.6157 1021.44 61.1724 1021.66 60.5073C1021.88 59.8054 1021.99 58.7709 1021.99 57.4038V33.2963L1016.89 36.4552L1015.73 34.6818L1028.58 26.6459H1031.8C1031.65 27.3479 1031.54 28.0499 1031.47 28.7519C1031.43 29.4538 1031.41 30.1558 1031.41 30.8578V57.4038ZM1056.76 63.5V62.2254C1057.83 62.1515 1058.61 61.8744 1059.09 61.3941C1059.57 60.9138 1059.81 59.7684 1059.81 57.958V32.1879C1059.81 30.3775 1059.53 29.2322 1058.98 28.7519C1058.46 28.2346 1057.44 27.9575 1055.93 27.9206V26.6459H1071.72V27.9206C1070.65 27.9575 1069.88 28.2346 1069.4 28.7519C1068.92 29.2322 1068.68 30.3775 1068.68 32.1879V41.9972C1068.97 41.7755 1069.32 41.6277 1069.73 41.5538C1070.17 41.4799 1070.69 41.443 1071.28 41.443H1081.76C1082.75 41.443 1083.45 41.2767 1083.86 40.9442C1084.27 40.6117 1084.47 39.9466 1084.47 38.9491V32.1879C1084.47 30.3775 1084.19 29.2322 1083.64 28.7519C1083.12 28.2346 1082.11 27.9575 1080.59 27.9206V26.6459H1096.39V27.9206C1095.31 27.9575 1094.54 28.2346 1094.06 28.7519C1093.58 29.2322 1093.34 30.3775 1093.34 32.1879V57.958C1093.34 59.7684 1093.61 60.9138 1094.17 61.3941C1094.72 61.8744 1095.74 62.1515 1097.22 62.2254V63.5H1081.42V62.2254C1082.49 62.1515 1083.27 61.8744 1083.75 61.3941C1084.23 60.9138 1084.47 59.7684 1084.47 57.958V43.2164C1084.18 43.475 1083.81 43.6413 1083.36 43.7152C1082.92 43.7891 1082.42 43.826 1081.87 43.826H1071.39C1070.39 43.826 1069.69 43.9923 1069.29 44.3248C1068.88 44.6573 1068.68 45.3039 1068.68 46.2645V57.958C1068.68 59.7684 1068.95 60.9138 1069.51 61.3941C1070.06 61.8744 1071.08 62.1515 1072.56 62.2254V63.5H1056.76ZM1121.66 25.8146C1124.28 25.8146 1126.72 26.258 1128.98 27.1447C1131.23 28.0314 1133.22 29.3245 1134.96 31.0241C1136.7 32.6867 1138.05 34.7002 1139.01 37.0648C1139.97 39.4294 1140.45 42.0711 1140.45 44.9898C1140.45 47.9086 1139.97 50.5503 1139.01 52.9148C1138.05 55.2794 1136.7 57.3115 1134.96 59.011C1133.26 60.7105 1131.27 62.0221 1128.98 62.9458C1126.68 63.8695 1124.23 64.3313 1121.6 64.3313C1119.02 64.3313 1116.58 63.8879 1114.29 63.0012C1112.04 62.1145 1110.04 60.8399 1108.3 59.1773C1106.57 57.4777 1105.22 55.4457 1104.26 53.0811C1103.3 50.7165 1102.82 48.0749 1102.82 45.1561C1102.82 42.2373 1103.3 39.5956 1104.26 37.2311C1105.22 34.8665 1106.55 32.8344 1108.25 31.1349C1109.99 29.4354 1112 28.1238 1114.29 27.2001C1116.58 26.2764 1119.04 25.8146 1121.66 25.8146ZM1122.77 61.9483C1124.69 61.9483 1126.2 61.3202 1127.31 60.064C1128.42 58.7709 1129.22 56.9974 1129.7 54.7437C1130.21 52.49 1130.47 49.8668 1130.47 46.8741C1130.47 40.8518 1129.55 36.2335 1127.7 33.0192C1125.89 29.8048 1123.49 28.1977 1120.5 28.1977C1118.61 28.1977 1117.1 28.8257 1115.95 30.0819C1114.84 31.3381 1114.03 33.1115 1113.51 35.4022C1113.03 37.656 1112.79 40.2792 1112.79 43.2718C1112.79 49.2941 1113.7 53.9124 1115.51 57.1267C1117.36 60.3411 1119.78 61.9483 1122.77 61.9483ZM1146.75 64.3313C1145.82 64.3313 1144.84 64.2574 1143.81 64.1096C1142.77 63.9618 1141.89 63.7586 1141.15 63.5V62.2254C1141.89 62.2254 1142.72 61.9298 1143.64 61.3386C1144.57 60.7475 1145.51 59.5652 1146.47 57.7918L1154.39 43.4381C1151.92 42.81 1150.03 41.794 1148.74 40.39C1147.48 38.986 1146.86 37.2865 1146.86 35.2914C1146.86 33.7396 1147.32 32.2802 1148.24 30.9132C1149.2 29.5462 1150.75 28.4563 1152.9 27.6435C1155.08 26.7937 1158 26.3688 1161.65 26.3688C1162.84 26.3688 1164.2 26.4242 1165.75 26.5351C1167.31 26.609 1169.02 26.6459 1170.91 26.6459H1178V27.9206C1176.93 27.9575 1176.16 28.2346 1175.67 28.7519C1175.19 29.2322 1174.95 30.3775 1174.95 32.1879V57.958C1174.95 59.7684 1175.23 60.9138 1175.79 61.3941C1176.34 61.8744 1177.36 62.1515 1178.83 62.2254V63.5H1163.04V62.2254C1164.11 62.1515 1164.89 61.8744 1165.37 61.3941C1165.85 60.9138 1166.09 59.7684 1166.09 57.958V32.1879C1166.09 30.747 1165.83 29.8233 1165.31 29.4169C1164.83 28.9735 1163.98 28.7519 1162.76 28.7519C1161.17 28.7519 1159.73 29.3245 1158.44 30.4699C1157.18 31.5783 1156.56 33.2593 1156.56 35.5131C1156.56 36.6953 1156.8 37.8407 1157.28 38.9491C1157.76 40.0205 1158.61 40.9257 1159.82 41.6646C1161.08 42.4036 1162.8 42.8469 1164.98 42.9947V44.9344C1164.54 44.9344 1164.15 45.0268 1163.82 45.2115C1163.48 45.3593 1163.15 45.7472 1162.82 46.3753L1156.56 58.4568C1155.71 60.0825 1154.52 61.468 1153.01 62.6133C1151.49 63.7586 1149.41 64.3313 1146.75 64.3313ZM1196.35 41.3321H1201.72C1205.75 41.3321 1208.93 41.7755 1211.25 42.6622C1213.58 43.5489 1215.23 44.7681 1216.19 46.3199C1217.18 47.8717 1217.68 49.6636 1217.68 51.6956C1217.68 53.7277 1217.13 55.6489 1216.02 57.4593C1214.95 59.2327 1213.27 60.6921 1210.98 61.8374C1208.72 62.9458 1205.84 63.5 1202.33 63.5H1184.43V62.2254C1185.5 62.1515 1186.28 61.8744 1186.76 61.3941C1187.24 60.9138 1187.48 59.7684 1187.48 57.958V32.1879C1187.48 30.3775 1187.2 29.2322 1186.65 28.7519C1186.13 28.2346 1185.12 27.9575 1183.6 27.9206V26.6459H1214.08V35.7902H1212.81C1212.7 34.534 1212.46 33.4071 1212.09 32.4096C1211.72 31.3751 1211.09 30.5622 1210.2 29.9711C1209.32 29.343 1208.04 29.029 1206.38 29.029H1198.79C1198.01 29.029 1197.4 29.2322 1196.96 29.6386C1196.55 30.045 1196.35 30.8948 1196.35 32.1879V41.3321ZM1199.62 61.117C1201.57 61.117 1203.18 60.6551 1204.44 59.7315C1205.73 58.7709 1206.69 57.5886 1207.32 56.1846C1207.95 54.7806 1208.26 53.3951 1208.26 52.0281C1208.26 49.9961 1207.87 48.3704 1207.1 47.1512C1206.36 45.932 1205.34 45.0637 1204.05 44.5465C1202.79 43.9923 1201.37 43.7152 1199.78 43.7152H1196.35V57.958C1196.35 59.2512 1196.55 60.1009 1196.96 60.5073C1197.36 60.9138 1198.25 61.117 1199.62 61.117ZM1223.56 63.5V62.2254C1224.63 62.1515 1225.41 61.8744 1225.89 61.3941C1226.37 60.9138 1226.61 59.7684 1226.61 57.958V32.1879C1226.61 30.3775 1226.33 29.2322 1225.78 28.7519C1225.26 28.2346 1224.24 27.9575 1222.73 27.9206V26.6459H1226.61C1229.31 26.6459 1231.84 26.609 1234.2 26.5351C1236.57 26.4242 1238.34 26.3688 1239.52 26.3688C1243.36 26.3688 1246.39 26.7937 1248.61 27.6435C1250.86 28.4932 1252.47 29.6201 1253.43 31.0241C1254.43 32.3911 1254.93 33.9059 1254.93 35.5685C1254.93 37.4897 1254.3 39.3185 1253.04 41.055C1251.83 42.7915 1249.87 44.1401 1247.17 45.1007C1244.51 46.0243 1240.98 46.3199 1236.58 45.9874V44.0477C1238.58 44.1216 1240.22 43.7706 1241.52 42.9947C1242.81 42.1819 1243.75 41.1104 1244.34 39.7804C1244.97 38.4503 1245.29 37.0279 1245.29 35.5131C1245.29 33.481 1244.71 31.8554 1243.57 30.6361C1242.42 29.3799 1240.83 28.7519 1238.8 28.7519C1237.58 28.7519 1236.71 28.9735 1236.2 29.4169C1235.72 29.8233 1235.48 30.747 1235.48 32.1879V57.958C1235.48 59.1403 1235.59 60.0455 1235.81 60.6736C1236.07 61.2647 1236.51 61.6712 1237.14 61.8928C1237.8 62.0776 1238.73 62.1884 1239.91 62.2254V63.5H1223.56ZM1260.78 64.3313C1259.85 64.3313 1258.88 64.2574 1257.84 64.1096C1256.81 63.9618 1255.92 63.7586 1255.18 63.5V62.2254C1255.92 62.2254 1256.75 61.9298 1257.67 61.3386C1258.6 60.7475 1259.54 59.5652 1260.5 57.7918L1268.43 43.4381C1265.95 42.81 1264.07 41.794 1262.77 40.39C1261.52 38.986 1260.89 37.2865 1260.89 35.2914C1260.89 33.7396 1261.35 32.2802 1262.27 30.9132C1263.24 29.5462 1264.79 28.4563 1266.93 27.6435C1269.11 26.7937 1272.03 26.3688 1275.69 26.3688C1276.87 26.3688 1278.24 26.4242 1279.79 26.5351C1281.34 26.609 1283.06 26.6459 1284.94 26.6459H1292.04V27.9206C1290.96 27.9575 1290.19 28.2346 1289.71 28.7519C1289.23 29.2322 1288.99 30.3775 1288.99 32.1879V57.958C1288.99 59.7684 1289.26 60.9138 1289.82 61.3941C1290.37 61.8744 1291.39 62.1515 1292.87 62.2254V63.5H1277.07V62.2254C1278.14 62.1515 1278.92 61.8744 1279.4 61.3941C1279.88 60.9138 1280.12 59.7684 1280.12 57.958V32.1879C1280.12 30.747 1279.86 29.8233 1279.34 29.4169C1278.86 28.9735 1278.01 28.7519 1276.79 28.7519C1275.21 28.7519 1273.77 29.3245 1272.47 30.4699C1271.22 31.5783 1270.59 33.2593 1270.59 35.5131C1270.59 36.6953 1270.83 37.8407 1271.31 38.9491C1271.79 40.0205 1272.64 40.9257 1273.86 41.6646C1275.11 42.4036 1276.83 42.8469 1279.01 42.9947V44.9344C1278.57 44.9344 1278.18 45.0268 1277.85 45.2115C1277.52 45.3593 1277.18 45.7472 1276.85 46.3753L1270.59 58.4568C1269.74 60.0825 1268.56 61.468 1267.04 62.6133C1265.53 63.7586 1263.44 64.3313 1260.78 64.3313ZM1336.9 53.2474H1338.17L1337.62 63.5H1310.91V62.2254C1311.2 62.0776 1311.65 61.8189 1312.24 61.4495C1312.87 61.08 1313.51 60.6551 1314.18 60.1748C1316.02 58.8448 1317.76 57.3299 1319.39 55.6304C1321.01 53.9309 1322.43 52.1205 1323.65 50.1993C1324.87 48.2781 1325.83 46.3568 1326.54 44.4356C1327.24 42.5144 1327.59 40.6856 1327.59 38.9491C1327.59 37.2865 1327.18 35.8825 1326.37 34.7372C1325.59 33.5918 1324.17 33.0192 1322.1 33.0192C1320.37 33.0192 1318.76 33.4995 1317.28 34.4601C1315.8 35.4207 1314.34 36.917 1312.9 38.9491L1311.85 38.0624C1313.36 34.2199 1315.27 31.3566 1317.56 29.4723C1319.85 27.588 1322.71 26.6459 1326.15 26.6459C1328.14 26.6459 1329.94 26.9784 1331.52 27.6435C1333.11 28.2716 1334.37 29.2691 1335.29 30.6361C1336.25 31.9662 1336.73 33.7027 1336.73 35.8456C1336.73 39.6511 1335.51 43.2164 1333.08 46.5416C1330.67 49.8668 1327.31 52.9887 1322.99 55.9075V56.0183H1331.08C1333.19 56.0183 1334.65 55.7597 1335.46 55.2425C1336.27 54.7252 1336.75 54.0602 1336.9 53.2474ZM1360.49 26.6459C1362.41 26.6459 1364.29 27.0154 1366.14 27.7543C1367.99 28.4932 1369.65 29.6386 1371.13 31.1903C1372.61 32.7421 1373.77 34.7002 1374.62 37.0648C1375.51 39.3924 1375.95 42.1634 1375.95 45.3778C1375.95 48.5552 1375.52 51.3261 1374.67 53.6907C1373.82 56.0553 1372.66 58.0319 1371.18 59.6206C1369.71 61.2093 1368.04 62.3916 1366.2 63.1675C1364.35 63.9434 1362.43 64.3313 1360.43 64.3313C1358.51 64.3313 1356.63 63.9618 1354.78 63.2229C1352.93 62.484 1351.27 61.3386 1349.79 59.7869C1348.31 58.2351 1347.13 56.2954 1346.24 53.9678C1345.39 51.6032 1344.97 48.8138 1344.97 45.5994C1344.97 42.422 1345.39 39.6511 1346.24 37.2865C1347.09 34.9219 1348.26 32.9453 1349.74 31.3566C1351.21 29.7679 1352.88 28.5856 1354.72 27.8097C1356.57 27.0338 1358.49 26.6459 1360.49 26.6459ZM1360.65 61.9483C1361.72 61.9483 1362.7 61.468 1363.59 60.5073C1364.48 59.5467 1365.18 57.9211 1365.7 55.6304C1366.25 53.3397 1366.53 50.1993 1366.53 46.2091C1366.53 42.7361 1366.29 39.725 1365.81 37.1756C1365.36 34.5894 1364.68 32.5943 1363.76 31.1903C1362.83 29.7494 1361.67 29.029 1360.27 29.029C1359.23 29.029 1358.25 29.5093 1357.33 30.4699C1356.44 31.4305 1355.72 33.0561 1355.17 35.3468C1354.65 37.6375 1354.39 40.7779 1354.39 44.7681C1354.39 48.2411 1354.61 51.2707 1355.06 53.857C1355.54 56.4063 1356.24 58.4014 1357.16 59.8423C1358.09 61.2463 1359.25 61.9483 1360.65 61.9483ZM1406.55 53.2474H1407.83L1407.27 63.5H1380.56V62.2254C1380.86 62.0776 1381.3 61.8189 1381.89 61.4495C1382.52 61.08 1383.17 60.6551 1383.83 60.1748C1385.68 58.8448 1387.41 57.3299 1389.04 55.6304C1390.67 53.9309 1392.09 52.1205 1393.31 50.1993C1394.53 48.2781 1395.49 46.3568 1396.19 44.4356C1396.89 42.5144 1397.24 40.6856 1397.24 38.9491C1397.24 37.2865 1396.84 35.8825 1396.02 34.7372C1395.25 33.5918 1393.82 33.0192 1391.76 33.0192C1390.02 33.0192 1388.41 33.4995 1386.93 34.4601C1385.46 35.4207 1384 36.917 1382.56 38.9491L1381.5 38.0624C1383.02 34.2199 1384.92 31.3566 1387.21 29.4723C1389.5 27.588 1392.37 26.6459 1395.8 26.6459C1397.8 26.6459 1399.59 26.9784 1401.18 27.6435C1402.77 28.2716 1404.02 29.2691 1404.95 30.6361C1405.91 31.9662 1406.39 33.7027 1406.39 35.8456C1406.39 39.6511 1405.17 43.2164 1402.73 46.5416C1400.33 49.8668 1396.97 52.9887 1392.64 55.9075V56.0183H1400.73C1402.84 56.0183 1404.3 55.7597 1405.11 55.2425C1405.92 54.7252 1406.41 54.0602 1406.55 53.2474ZM1437.35 49.368H1441.22V56.2954H1438.9C1437.86 56.2954 1437.35 56.942 1437.35 58.2351C1437.35 59.1219 1437.35 59.9901 1437.35 60.8399C1437.38 61.6527 1437.42 62.5394 1437.46 63.5H1428.7C1428.77 62.2808 1428.83 61.0985 1428.87 59.9531C1428.9 58.7709 1428.94 57.5516 1428.98 56.2954H1411.46V55.0208C1412.42 54.0971 1413.29 53.1365 1414.07 52.139L1432.19 29.4723C1432.6 28.9551 1432.97 28.4563 1433.3 27.976C1433.67 27.4587 1433.96 27.0154 1434.19 26.6459H1437.4L1437.35 49.368ZM1428.87 37.7853L1419.61 49.368H1429.03V37.7853H1428.87ZM1486.69 26.6459V36.8986H1485.42C1485.23 35.2729 1484.9 33.8874 1484.42 32.7421C1483.98 31.5598 1483.27 30.6546 1482.31 30.0265C1481.39 29.3615 1480.1 29.029 1478.43 29.029H1475.83C1475.05 29.029 1474.44 29.2322 1474 29.6386C1473.59 30.045 1473.39 30.8948 1473.39 32.1879V57.958C1473.39 59.7684 1473.67 60.9138 1474.22 61.3941C1474.78 61.8744 1475.79 62.1515 1477.27 62.2254V63.5H1461.48V62.2254C1462.55 62.1515 1463.32 61.8744 1463.8 61.3941C1464.28 60.9138 1464.52 59.7684 1464.52 57.958V32.1879C1464.52 30.3775 1464.25 29.2322 1463.69 28.7519C1463.18 28.2346 1462.16 27.9575 1460.64 27.9206V26.6459H1486.69ZM1508.89 25.8146C1511.52 25.8146 1513.96 26.258 1516.21 27.1447C1518.46 28.0314 1520.46 29.3245 1522.2 31.0241C1523.93 32.6867 1525.28 34.7002 1526.24 37.0648C1527.2 39.4294 1527.68 42.0711 1527.68 44.9898C1527.68 47.9086 1527.2 50.5503 1526.24 52.9148C1525.28 55.2794 1523.93 57.3115 1522.2 59.011C1520.5 60.7105 1518.5 62.0221 1516.21 62.9458C1513.92 63.8695 1511.46 64.3313 1508.84 64.3313C1506.25 64.3313 1503.81 63.8879 1501.52 63.0012C1499.27 62.1145 1497.27 60.8399 1495.54 59.1773C1493.8 57.4777 1492.45 55.4457 1491.49 53.0811C1490.53 50.7165 1490.05 48.0749 1490.05 45.1561C1490.05 42.2373 1490.53 39.5956 1491.49 37.2311C1492.45 34.8665 1493.78 32.8344 1495.48 31.1349C1497.22 29.4354 1499.23 28.1238 1501.52 27.2001C1503.81 26.2764 1506.27 25.8146 1508.89 25.8146ZM1510 61.9483C1511.92 61.9483 1513.44 61.3202 1514.55 60.064C1515.66 58.7709 1516.45 56.9974 1516.93 54.7437C1517.45 52.49 1517.71 49.8668 1517.71 46.8741C1517.71 40.8518 1516.78 36.2335 1514.94 33.0192C1513.12 29.8048 1510.72 28.1977 1507.73 28.1977C1505.85 28.1977 1504.33 28.8257 1503.19 30.0819C1502.08 31.3381 1501.27 33.1115 1500.75 35.4022C1500.27 37.656 1500.03 40.2792 1500.03 43.2718C1500.03 49.2941 1500.93 53.9124 1502.74 57.1267C1504.59 60.3411 1507.01 61.9483 1510 61.9483ZM1551.71 31.0241L1560.91 57.958C1561.25 58.9186 1561.73 59.8054 1562.36 60.6182C1563.02 61.3941 1564.04 61.9298 1565.4 62.2254L1562.85 74.861H1561.58C1561.51 72.5704 1561.17 70.5753 1560.58 68.8757C1559.99 67.1762 1559.25 65.8461 1558.36 64.8855C1557.48 63.9618 1556.52 63.5 1555.48 63.5H1540.63C1539.26 63.5 1537.91 63.9618 1536.58 64.8855C1535.29 65.8461 1534.18 67.1762 1533.26 68.8757C1532.37 70.5753 1531.8 72.5704 1531.54 74.861H1530.27V62.2254C1530.93 61.9298 1531.58 61.431 1532.21 60.729C1532.83 59.9901 1533.41 59.1588 1533.92 58.2351C1534.48 57.3115 1534.9 56.4432 1535.2 55.6304L1544.62 31.0241C1544.99 30.0635 1545.34 29.1213 1545.67 28.1977C1546.01 27.274 1546.3 26.3319 1546.56 25.3713H1549.77C1550.03 26.3319 1550.33 27.274 1550.66 28.1977C1551.03 29.1213 1551.38 30.0635 1551.71 31.0241ZM1549.39 61.117C1550.86 61.117 1551.68 60.8768 1551.83 60.3965C1551.97 59.9162 1551.84 59.1034 1551.44 57.958L1544.95 38.0069H1544.84L1536.2 61.117H1549.39ZM1599.32 57.958C1599.84 59.2142 1600.26 60.1379 1600.59 60.729C1600.96 61.3202 1601.35 61.7081 1601.76 61.8928C1602.16 62.0406 1602.66 62.1515 1603.25 62.2254V63.5H1587.79V62.2254C1589.27 62.1515 1590.08 61.7081 1590.23 60.8953C1590.41 60.0825 1590.28 59.1034 1589.84 57.958L1587.07 50.7535C1586.85 50.9382 1586.55 51.0675 1586.18 51.1414C1585.85 51.1784 1585.48 51.1968 1585.08 51.1968H1578.81C1578.04 51.1968 1577.45 51.2892 1577.04 51.4739C1576.63 51.6587 1576.28 52.1205 1575.99 52.8594L1573.99 57.958C1573.51 59.1773 1573.55 60.1748 1574.1 60.9507C1574.66 61.7266 1575.75 62.1515 1577.37 62.2254V63.5H1567.29V62.2254C1568.1 62.1515 1568.78 61.745 1569.34 61.0061C1569.93 60.2302 1570.46 59.2142 1570.94 57.958L1581.58 31.0241C1581.99 30.0635 1582.34 29.1213 1582.64 28.1977C1582.97 27.274 1583.27 26.3319 1583.52 25.3713H1586.74C1587 26.3319 1587.29 27.274 1587.62 28.1977C1587.96 29.1213 1588.31 30.0635 1588.68 31.0241L1599.32 57.958ZM1584.8 48.8138C1585.32 48.8138 1585.65 48.7399 1585.8 48.5921C1585.98 48.4074 1585.96 48.0379 1585.74 47.4837L1581.92 38.0069H1581.81L1577.48 49.0355C1577.67 48.9246 1577.89 48.8692 1578.15 48.8692C1578.41 48.8323 1578.7 48.8138 1579.03 48.8138H1584.8Z" fill="black"/>
<path d="M1659.44 38.6819C1653.92 36.4759 1647.44 37.6524 1643.02 42.0646C1637.05 48.021 1637.05 57.6541 1643.02 63.6105C1647.44 68.0227 1653.92 69.1993 1659.44 66.9932V59.9338C1658.34 60.4485 1657.16 60.7427 1655.91 60.7427C1651.49 60.7427 1647.95 57.2129 1647.95 52.8008C1647.95 48.3886 1651.49 44.8589 1655.91 44.8589C1657.16 44.8589 1658.41 45.1531 1659.44 45.6678V38.6819Z" fill="black"/>
<path d="M1656.94 31.6075C1659.12 29.426 1659.12 25.8153 1656.94 23.5586C1654.77 21.3772 1651.17 21.3772 1648.92 23.5586C1646.66 25.7401 1646.74 29.3508 1648.92 31.6075C1651.17 33.7889 1654.77 33.7889 1656.94 31.6075Z" fill="black"/>
<path d="M1720.2 53.2474H1721.47L1720.92 63.5H1694.21V62.2254C1694.5 62.0776 1694.95 61.8189 1695.54 61.4495C1696.17 61.08 1696.81 60.6551 1697.48 60.1748C1699.33 58.8448 1701.06 57.3299 1702.69 55.6304C1704.31 53.9309 1705.74 52.1205 1706.95 50.1993C1708.17 48.2781 1709.13 46.3568 1709.84 44.4356C1710.54 42.5144 1710.89 40.6856 1710.89 38.9491C1710.89 37.2865 1710.48 35.8825 1709.67 34.7372C1708.89 33.5918 1707.47 33.0192 1705.4 33.0192C1703.67 33.0192 1702.06 33.4995 1700.58 34.4601C1699.1 35.4207 1697.64 36.917 1696.2 38.9491L1695.15 38.0624C1696.66 34.2199 1698.57 31.3566 1700.86 29.4723C1703.15 27.588 1706.01 26.6459 1709.45 26.6459C1711.44 26.6459 1713.24 26.9784 1714.82 27.6435C1716.41 28.2716 1717.67 29.2691 1718.59 30.6361C1719.55 31.9662 1720.03 33.7027 1720.03 35.8456C1720.03 39.6511 1718.81 43.2164 1716.38 46.5416C1713.97 49.8668 1710.61 52.9887 1706.29 55.9075V56.0183H1714.38C1716.49 56.0183 1717.95 55.7597 1718.76 55.2425C1719.57 54.7252 1720.05 54.0602 1720.2 53.2474ZM1743.79 26.6459C1745.71 26.6459 1747.59 27.0154 1749.44 27.7543C1751.29 28.4932 1752.95 29.6386 1754.43 31.1903C1755.91 32.7421 1757.07 34.7002 1757.92 37.0648C1758.81 39.3924 1759.25 42.1634 1759.25 45.3778C1759.25 48.5552 1758.82 51.3261 1757.97 53.6907C1757.13 56.0553 1755.96 58.0319 1754.48 59.6206C1753.01 61.2093 1751.34 62.3916 1749.5 63.1675C1747.65 63.9434 1745.73 64.3313 1743.73 64.3313C1741.81 64.3313 1739.93 63.9618 1738.08 63.2229C1736.23 62.484 1734.57 61.3386 1733.09 59.7869C1731.61 58.2351 1730.43 56.2954 1729.54 53.9678C1728.69 51.6032 1728.27 48.8138 1728.27 45.5994C1728.27 42.422 1728.69 39.6511 1729.54 37.2865C1730.39 34.9219 1731.56 32.9453 1733.04 31.3566C1734.51 29.7679 1736.18 28.5856 1738.02 27.8097C1739.87 27.0338 1741.79 26.6459 1743.79 26.6459ZM1743.95 61.9483C1745.03 61.9483 1746 61.468 1746.89 60.5073C1747.78 59.5467 1748.48 57.9211 1749 55.6304C1749.55 53.3397 1749.83 50.1993 1749.83 46.2091C1749.83 42.7361 1749.59 39.725 1749.11 37.1756C1748.66 34.5894 1747.98 32.5943 1747.06 31.1903C1746.13 29.7494 1744.97 29.029 1743.57 29.029C1742.53 29.029 1741.55 29.5093 1740.63 30.4699C1739.74 31.4305 1739.02 33.0561 1738.47 35.3468C1737.95 37.6375 1737.69 40.7779 1737.69 44.7681C1737.69 48.2411 1737.91 51.2707 1738.36 53.857C1738.84 56.4063 1739.54 58.4014 1740.46 59.8423C1741.39 61.2463 1742.55 61.9483 1743.95 61.9483ZM1796.87 46.7633L1779.69 48.2596L1779.3 43.7706L1796.48 42.2743L1796.87 46.7633ZM1839.75 53.2474H1841.03L1840.47 63.5H1813.76V62.2254C1814.06 62.0776 1814.5 61.8189 1815.09 61.4495C1815.72 61.08 1816.37 60.6551 1817.03 60.1748C1818.88 58.8448 1820.61 57.3299 1822.24 55.6304C1823.87 53.9309 1825.29 52.1205 1826.51 50.1993C1827.73 48.2781 1828.69 46.3568 1829.39 44.4356C1830.09 42.5144 1830.44 40.6856 1830.44 38.9491C1830.44 37.2865 1830.04 35.8825 1829.22 34.7372C1828.45 33.5918 1827.02 33.0192 1824.96 33.0192C1823.22 33.0192 1821.61 33.4995 1820.13 34.4601C1818.66 35.4207 1817.2 36.917 1815.76 38.9491L1814.7 38.0624C1816.22 34.2199 1818.12 31.3566 1820.41 29.4723C1822.7 27.588 1825.57 26.6459 1829 26.6459C1831 26.6459 1832.79 26.9784 1834.38 27.6435C1835.97 28.2716 1837.22 29.2691 1838.15 30.6361C1839.11 31.9662 1839.59 33.7027 1839.59 35.8456C1839.59 39.6511 1838.37 43.2164 1835.93 46.5416C1833.53 49.8668 1830.17 52.9887 1825.84 55.9075V56.0183H1833.93C1836.04 56.0183 1837.5 55.7597 1838.31 55.2425C1839.12 54.7252 1839.6 54.0602 1839.75 53.2474ZM1862.4 57.4038C1862.4 58.7709 1862.51 59.8054 1862.73 60.5073C1862.99 61.1724 1863.51 61.6157 1864.28 61.8374C1865.1 62.0591 1866.31 62.1884 1867.94 62.2254V63.5H1847.43V62.2254C1849.1 62.1884 1850.32 62.0591 1851.09 61.8374C1851.91 61.6157 1852.42 61.1724 1852.64 60.5073C1852.87 59.8054 1852.98 58.7709 1852.98 57.4038V33.2963L1847.88 36.4552L1846.71 34.6818L1859.57 26.6459H1862.79C1862.64 27.3479 1862.53 28.0499 1862.45 28.7519C1862.42 29.4538 1862.4 30.1558 1862.4 30.8578V57.4038ZM1887.75 63.5V62.2254C1888.82 62.1515 1889.6 61.8744 1890.08 61.3941C1890.56 60.9138 1890.8 59.7684 1890.8 57.958V32.1879C1890.8 30.3775 1890.52 29.2322 1889.97 28.7519C1889.45 28.2346 1888.43 27.9575 1886.92 27.9206V26.6459H1902.71V27.9206C1901.64 27.9575 1900.86 28.2346 1900.38 28.7519C1899.9 29.2322 1899.66 30.3775 1899.66 32.1879V41.9972C1899.96 41.7755 1900.31 41.6277 1900.72 41.5538C1901.16 41.4799 1901.68 41.443 1902.27 41.443H1912.74C1913.74 41.443 1914.44 41.2767 1914.85 40.9442C1915.25 40.6117 1915.46 39.9466 1915.46 38.9491V32.1879C1915.46 30.3775 1915.18 29.2322 1914.63 28.7519C1914.11 28.2346 1913.09 27.9575 1911.58 27.9206V26.6459H1927.37V27.9206C1926.3 27.9575 1925.53 28.2346 1925.05 28.7519C1924.57 29.2322 1924.33 30.3775 1924.33 32.1879V57.958C1924.33 59.7684 1924.6 60.9138 1925.16 61.3941C1925.71 61.8744 1926.73 62.1515 1928.2 62.2254V63.5H1912.41V62.2254C1913.48 62.1515 1914.26 61.8744 1914.74 61.3941C1915.22 60.9138 1915.46 59.7684 1915.46 57.958V43.2164C1915.16 43.475 1914.79 43.6413 1914.35 43.7152C1913.91 43.7891 1913.41 43.826 1912.85 43.826H1902.38C1901.38 43.826 1900.68 43.9923 1900.27 44.3248C1899.87 44.6573 1899.66 45.3039 1899.66 46.2645V57.958C1899.66 59.7684 1899.94 60.9138 1900.49 61.3941C1901.05 61.8744 1902.07 62.1515 1903.54 62.2254V63.5H1887.75ZM1952.65 25.8146C1955.27 25.8146 1957.71 26.258 1959.96 27.1447C1962.22 28.0314 1964.21 29.3245 1965.95 31.0241C1967.69 32.6867 1969.03 34.7002 1969.99 37.0648C1970.95 39.4294 1971.44 42.0711 1971.44 44.9898C1971.44 47.9086 1970.95 50.5503 1969.99 52.9148C1969.03 55.2794 1967.69 57.3115 1965.95 59.011C1964.25 60.7105 1962.25 62.0221 1959.96 62.9458C1957.67 63.8695 1955.22 64.3313 1952.59 64.3313C1950.01 64.3313 1947.57 63.8879 1945.28 63.0012C1943.02 62.1145 1941.03 60.8399 1939.29 59.1773C1937.56 57.4777 1936.21 55.4457 1935.25 53.0811C1934.29 50.7165 1933.81 48.0749 1933.81 45.1561C1933.81 42.2373 1934.29 39.5956 1935.25 37.2311C1936.21 34.8665 1937.54 32.8344 1939.24 31.1349C1940.97 29.4354 1942.99 28.1238 1945.28 27.2001C1947.57 26.2764 1950.02 25.8146 1952.65 25.8146ZM1953.76 61.9483C1955.68 61.9483 1957.19 61.3202 1958.3 60.064C1959.41 58.7709 1960.2 56.9974 1960.68 54.7437C1961.2 52.49 1961.46 49.8668 1961.46 46.8741C1961.46 40.8518 1960.54 36.2335 1958.69 33.0192C1956.88 29.8048 1954.48 28.1977 1951.48 28.1977C1949.6 28.1977 1948.08 28.8257 1946.94 30.0819C1945.83 31.3381 1945.02 33.1115 1944.5 35.4022C1944.02 37.656 1943.78 40.2792 1943.78 43.2718C1943.78 49.2941 1944.69 53.9124 1946.5 57.1267C1948.34 60.3411 1950.76 61.9483 1953.76 61.9483ZM1977.73 64.3313C1976.81 64.3313 1975.83 64.2574 1974.8 64.1096C1973.76 63.9618 1972.87 63.7586 1972.14 63.5V62.2254C1972.87 62.2254 1973.71 61.9298 1974.63 61.3386C1975.55 60.7475 1976.5 59.5652 1977.46 57.7918L1985.38 43.4381C1982.91 42.81 1981.02 41.794 1979.73 40.39C1978.47 38.986 1977.84 37.2865 1977.84 35.2914C1977.84 33.7396 1978.31 32.2802 1979.23 30.9132C1980.19 29.5462 1981.74 28.4563 1983.89 27.6435C1986.06 26.7937 1988.98 26.3688 1992.64 26.3688C1993.82 26.3688 1995.19 26.4242 1996.74 26.5351C1998.29 26.609 2000.01 26.6459 2001.9 26.6459H2008.99V27.9206C2007.92 27.9575 2007.14 28.2346 2006.66 28.7519C2006.18 29.2322 2005.94 30.3775 2005.94 32.1879V57.958C2005.94 59.7684 2006.22 60.9138 2006.77 61.3941C2007.33 61.8744 2008.34 62.1515 2009.82 62.2254V63.5H1994.03V62.2254C1995.1 62.1515 1995.87 61.8744 1996.35 61.3941C1996.83 60.9138 1997.07 59.7684 1997.07 57.958V32.1879C1997.07 30.747 1996.82 29.8233 1996.3 29.4169C1995.82 28.9735 1994.97 28.7519 1993.75 28.7519C1992.16 28.7519 1990.72 29.3245 1989.43 30.4699C1988.17 31.5783 1987.54 33.2593 1987.54 35.5131C1987.54 36.6953 1987.78 37.8407 1988.26 38.9491C1988.74 40.0205 1989.59 40.9257 1990.81 41.6646C1992.07 42.4036 1993.79 42.8469 1995.97 42.9947V44.9344C1995.52 44.9344 1995.14 45.0268 1994.8 45.2115C1994.47 45.3593 1994.14 45.7472 1993.81 46.3753L1987.54 58.4568C1986.69 60.0825 1985.51 61.468 1984 62.6133C1982.48 63.7586 1980.39 64.3313 1977.73 64.3313ZM2027.33 41.3321H2032.71C2036.74 41.3321 2039.91 41.7755 2042.24 42.6622C2044.57 43.5489 2046.21 44.7681 2047.17 46.3199C2048.17 47.8717 2048.67 49.6636 2048.67 51.6956C2048.67 53.7277 2048.12 55.6489 2047.01 57.4593C2045.94 59.2327 2044.26 60.6921 2041.97 61.8374C2039.71 62.9458 2036.83 63.5 2033.32 63.5H2015.42V62.2254C2016.49 62.1515 2017.27 61.8744 2017.75 61.3941C2018.23 60.9138 2018.47 59.7684 2018.47 57.958V32.1879C2018.47 30.3775 2018.19 29.2322 2017.64 28.7519C2017.12 28.2346 2016.1 27.9575 2014.59 27.9206V26.6459H2045.07V35.7902H2043.79C2043.68 34.534 2043.44 33.4071 2043.07 32.4096C2042.7 31.3751 2042.08 30.5622 2041.19 29.9711C2040.3 29.343 2039.03 29.029 2037.37 29.029H2029.77C2029 29.029 2028.39 29.2322 2027.94 29.6386C2027.54 30.045 2027.33 30.8948 2027.33 32.1879V41.3321ZM2030.6 61.117C2032.56 61.117 2034.17 60.6551 2035.43 59.7315C2036.72 58.7709 2037.68 57.5886 2038.31 56.1846C2038.94 54.7806 2039.25 53.3951 2039.25 52.0281C2039.25 49.9961 2038.86 48.3704 2038.09 47.1512C2037.35 45.932 2036.33 45.0637 2035.04 44.5465C2033.78 43.9923 2032.36 43.7152 2030.77 43.7152H2027.33V57.958C2027.33 59.2512 2027.54 60.1009 2027.94 60.5073C2028.35 60.9138 2029.24 61.117 2030.6 61.117ZM2054.55 63.5V62.2254C2055.62 62.1515 2056.4 61.8744 2056.88 61.3941C2057.36 60.9138 2057.6 59.7684 2057.6 57.958V32.1879C2057.6 30.3775 2057.32 29.2322 2056.77 28.7519C2056.25 28.2346 2055.23 27.9575 2053.72 27.9206V26.6459H2057.6C2060.29 26.6459 2062.82 26.609 2065.19 26.5351C2067.55 26.4242 2069.33 26.3688 2070.51 26.3688C2074.35 26.3688 2077.38 26.7937 2079.6 27.6435C2081.85 28.4932 2083.46 29.6201 2084.42 31.0241C2085.42 32.3911 2085.92 33.9059 2085.92 35.5685C2085.92 37.4897 2085.29 39.3185 2084.03 41.055C2082.81 42.7915 2080.85 44.1401 2078.16 45.1007C2075.5 46.0243 2071.97 46.3199 2067.57 45.9874V44.0477C2069.57 44.1216 2071.21 43.7706 2072.5 42.9947C2073.8 42.1819 2074.74 41.1104 2075.33 39.7804C2075.96 38.4503 2076.27 37.0279 2076.27 35.5131C2076.27 33.481 2075.7 31.8554 2074.56 30.6361C2073.41 29.3799 2071.82 28.7519 2069.79 28.7519C2068.57 28.7519 2067.7 28.9735 2067.18 29.4169C2066.7 29.8233 2066.46 30.747 2066.46 32.1879V57.958C2066.46 59.1403 2066.57 60.0455 2066.8 60.6736C2067.05 61.2647 2067.5 61.6712 2068.13 61.8928C2068.79 62.0776 2069.72 62.1884 2070.9 62.2254V63.5H2054.55ZM2091.77 64.3313C2090.84 64.3313 2089.86 64.2574 2088.83 64.1096C2087.79 63.9618 2086.91 63.7586 2086.17 63.5V62.2254C2086.91 62.2254 2087.74 61.9298 2088.66 61.3386C2089.59 60.7475 2090.53 59.5652 2091.49 57.7918L2099.41 43.4381C2096.94 42.81 2095.05 41.794 2093.76 40.39C2092.5 38.986 2091.88 37.2865 2091.88 35.2914C2091.88 33.7396 2092.34 32.2802 2093.26 30.9132C2094.22 29.5462 2095.77 28.4563 2097.92 27.6435C2100.1 26.7937 2103.02 26.3688 2106.67 26.3688C2107.86 26.3688 2109.22 26.4242 2110.77 26.5351C2112.33 26.609 2114.04 26.6459 2115.93 26.6459H2123.02V27.9206C2121.95 27.9575 2121.18 28.2346 2120.7 28.7519C2120.21 29.2322 2119.97 30.3775 2119.97 32.1879V57.958C2119.97 59.7684 2120.25 60.9138 2120.81 61.3941C2121.36 61.8744 2122.38 62.1515 2123.85 62.2254V63.5H2108.06V62.2254C2109.13 62.1515 2109.91 61.8744 2110.39 61.3941C2110.87 60.9138 2111.11 59.7684 2111.11 57.958V32.1879C2111.11 30.747 2110.85 29.8233 2110.33 29.4169C2109.85 28.9735 2109 28.7519 2107.78 28.7519C2106.19 28.7519 2104.75 29.3245 2103.46 30.4699C2102.2 31.5783 2101.58 33.2593 2101.58 35.5131C2101.58 36.6953 2101.82 37.8407 2102.3 38.9491C2102.78 40.0205 2103.63 40.9257 2104.85 41.6646C2106.1 42.4036 2107.82 42.8469 2110 42.9947V44.9344C2109.56 44.9344 2109.17 45.0268 2108.84 45.2115C2108.5 45.3593 2108.17 45.7472 2107.84 46.3753L2101.58 58.4568C2100.73 60.0825 2099.54 61.468 2098.03 62.6133C2096.51 63.7586 2094.43 64.3313 2091.77 64.3313ZM2167.89 53.2474H2169.16L2168.61 63.5H2141.9V62.2254C2142.19 62.0776 2142.63 61.8189 2143.23 61.4495C2143.85 61.08 2144.5 60.6551 2145.16 60.1748C2147.01 58.8448 2148.75 57.3299 2150.37 55.6304C2152 53.9309 2153.42 52.1205 2154.64 50.1993C2155.86 48.2781 2156.82 46.3568 2157.52 44.4356C2158.23 42.5144 2158.58 40.6856 2158.58 38.9491C2158.58 37.2865 2158.17 35.8825 2157.36 34.7372C2156.58 33.5918 2155.16 33.0192 2153.09 33.0192C2151.35 33.0192 2149.75 33.4995 2148.27 34.4601C2146.79 35.4207 2145.33 36.917 2143.89 38.9491L2142.84 38.0624C2144.35 34.2199 2146.25 31.3566 2148.55 29.4723C2150.84 27.588 2153.7 26.6459 2157.14 26.6459C2159.13 26.6459 2160.92 26.9784 2162.51 27.6435C2164.1 28.2716 2165.36 29.2691 2166.28 30.6361C2167.24 31.9662 2167.72 33.7027 2167.72 35.8456C2167.72 39.6511 2166.5 43.2164 2164.06 46.5416C2161.66 49.8668 2158.3 52.9887 2153.98 55.9075V56.0183H2162.07C2164.17 56.0183 2165.63 55.7597 2166.45 55.2425C2167.26 54.7252 2167.74 54.0602 2167.89 53.2474ZM2191.47 26.6459C2193.4 26.6459 2195.28 27.0154 2197.13 27.7543C2198.97 28.4932 2200.64 29.6386 2202.12 31.1903C2203.59 32.7421 2204.76 34.7002 2205.61 37.0648C2206.49 39.3924 2206.94 42.1634 2206.94 45.3778C2206.94 48.5552 2206.51 51.3261 2205.66 53.6907C2204.81 56.0553 2203.65 58.0319 2202.17 59.6206C2200.69 61.2093 2199.03 62.3916 2197.18 63.1675C2195.34 63.9434 2193.41 64.3313 2191.42 64.3313C2189.5 64.3313 2187.61 63.9618 2185.77 63.2229C2183.92 62.484 2182.26 61.3386 2180.78 59.7869C2179.3 58.2351 2178.12 56.2954 2177.23 53.9678C2176.38 51.6032 2175.96 48.8138 2175.96 45.5994C2175.96 42.422 2176.38 39.6511 2177.23 37.2865C2178.08 34.9219 2179.25 32.9453 2180.72 31.3566C2182.2 29.7679 2183.86 28.5856 2185.71 27.8097C2187.56 27.0338 2189.48 26.6459 2191.47 26.6459ZM2191.64 61.9483C2192.71 61.9483 2193.69 61.468 2194.58 60.5073C2195.46 59.5467 2196.17 57.9211 2196.68 55.6304C2197.24 53.3397 2197.52 50.1993 2197.52 46.2091C2197.52 42.7361 2197.28 39.725 2196.79 37.1756C2196.35 34.5894 2195.67 32.5943 2194.74 31.1903C2193.82 29.7494 2192.66 29.029 2191.25 29.029C2190.22 29.029 2189.24 29.5093 2188.32 30.4699C2187.43 31.4305 2186.71 33.0561 2186.15 35.3468C2185.64 37.6375 2185.38 40.7779 2185.38 44.7681C2185.38 48.2411 2185.6 51.2707 2186.04 53.857C2186.52 56.4063 2187.23 58.4014 2188.15 59.8423C2189.07 61.2463 2190.24 61.9483 2191.64 61.9483ZM2237.54 53.2474H2238.82L2238.26 63.5H2211.55V62.2254C2211.84 62.0776 2212.29 61.8189 2212.88 61.4495C2213.51 61.08 2214.15 60.6551 2214.82 60.1748C2216.67 58.8448 2218.4 57.3299 2220.03 55.6304C2221.65 53.9309 2223.08 52.1205 2224.3 50.1993C2225.51 48.2781 2226.48 46.3568 2227.18 44.4356C2227.88 42.5144 2228.23 40.6856 2228.23 38.9491C2228.23 37.2865 2227.82 35.8825 2227.01 34.7372C2226.23 33.5918 2224.81 33.0192 2222.74 33.0192C2221.01 33.0192 2219.4 33.4995 2217.92 34.4601C2216.44 35.4207 2214.98 36.917 2213.54 38.9491L2212.49 38.0624C2214.01 34.2199 2215.91 31.3566 2218.2 29.4723C2220.49 27.588 2223.35 26.6459 2226.79 26.6459C2228.78 26.6459 2230.58 26.9784 2232.16 27.6435C2233.75 28.2716 2235.01 29.2691 2235.93 30.6361C2236.89 31.9662 2237.37 33.7027 2237.37 35.8456C2237.37 39.6511 2236.16 43.2164 2233.72 46.5416C2231.32 49.8668 2227.95 52.9887 2223.63 55.9075V56.0183H2231.72C2233.83 56.0183 2235.29 55.7597 2236.1 55.2425C2236.91 54.7252 2237.39 54.0602 2237.54 53.2474ZM2268.33 49.368H2272.21V56.2954H2269.88C2268.85 56.2954 2268.33 56.942 2268.33 58.2351C2268.33 59.1219 2268.33 59.9901 2268.33 60.8399C2268.37 61.6527 2268.41 62.5394 2268.44 63.5H2259.69C2259.76 62.2808 2259.82 61.0985 2259.85 59.9531C2259.89 58.7709 2259.93 57.5516 2259.96 56.2954H2242.45V55.0208C2243.41 54.0971 2244.28 53.1365 2245.06 52.139L2263.18 29.4723C2263.59 28.9551 2263.95 28.4563 2264.29 27.976C2264.66 27.4587 2264.95 27.0154 2265.17 26.6459H2268.39L2268.33 49.368ZM2259.85 37.7853L2250.6 49.368H2260.02V37.7853H2259.85ZM2317.68 26.6459V36.8986H2316.4C2316.22 35.2729 2315.89 33.8874 2315.41 32.7421C2314.96 31.5598 2314.26 30.6546 2313.3 30.0265C2312.38 29.3615 2311.08 29.029 2309.42 29.029H2306.82C2306.04 29.029 2305.43 29.2322 2304.99 29.6386C2304.58 30.045 2304.38 30.8948 2304.38 32.1879V57.958C2304.38 59.7684 2304.66 60.9138 2305.21 61.3941C2305.76 61.8744 2306.78 62.1515 2308.26 62.2254V63.5H2292.46V62.2254C2293.54 62.1515 2294.31 61.8744 2294.79 61.3941C2295.27 60.9138 2295.51 59.7684 2295.51 57.958V32.1879C2295.51 30.3775 2295.23 29.2322 2294.68 28.7519C2294.16 28.2346 2293.15 27.9575 2291.63 27.9206V26.6459H2317.68ZM2339.88 25.8146C2342.51 25.8146 2344.94 26.258 2347.2 27.1447C2349.45 28.0314 2351.45 29.3245 2353.18 31.0241C2354.92 32.6867 2356.27 34.7002 2357.23 37.0648C2358.19 39.4294 2358.67 42.0711 2358.67 44.9898C2358.67 47.9086 2358.19 50.5503 2357.23 52.9148C2356.27 55.2794 2354.92 57.3115 2353.18 59.011C2351.48 60.7105 2349.49 62.0221 2347.2 62.9458C2344.91 63.8695 2342.45 64.3313 2339.83 64.3313C2337.24 64.3313 2334.8 63.8879 2332.51 63.0012C2330.26 62.1145 2328.26 60.8399 2326.53 59.1773C2324.79 57.4777 2323.44 55.4457 2322.48 53.0811C2321.52 50.7165 2321.04 48.0749 2321.04 45.1561C2321.04 42.2373 2321.52 39.5956 2322.48 37.2311C2323.44 34.8665 2324.77 32.8344 2326.47 31.1349C2328.21 29.4354 2330.22 28.1238 2332.51 27.2001C2334.8 26.2764 2337.26 25.8146 2339.88 25.8146ZM2340.99 61.9483C2342.91 61.9483 2344.43 61.3202 2345.53 60.064C2346.64 58.7709 2347.44 56.9974 2347.92 54.7437C2348.44 52.49 2348.69 49.8668 2348.69 46.8741C2348.69 40.8518 2347.77 36.2335 2345.92 33.0192C2344.11 29.8048 2341.71 28.1977 2338.72 28.1977C2336.83 28.1977 2335.32 28.8257 2334.17 30.0819C2333.07 31.3381 2332.25 33.1115 2331.74 35.4022C2331.26 37.656 2331.01 40.2792 2331.01 43.2718C2331.01 49.2941 2331.92 53.9124 2333.73 57.1267C2335.58 60.3411 2338 61.9483 2340.99 61.9483ZM2382.7 31.0241L2391.9 57.958C2392.23 58.9186 2392.71 59.8054 2393.34 60.6182C2394.01 61.3941 2395.02 61.9298 2396.39 62.2254L2393.84 74.861H2392.57C2392.49 72.5704 2392.16 70.5753 2391.57 68.8757C2390.98 67.1762 2390.24 65.8461 2389.35 64.8855C2388.47 63.9618 2387.51 63.5 2386.47 63.5H2371.62C2370.25 63.5 2368.9 63.9618 2367.57 64.8855C2366.28 65.8461 2365.17 67.1762 2364.25 68.8757C2363.36 70.5753 2362.79 72.5704 2362.53 74.861H2361.25V62.2254C2361.92 61.9298 2362.57 61.431 2363.19 60.729C2363.82 59.9901 2364.4 59.1588 2364.91 58.2351C2365.47 57.3115 2365.89 56.4432 2366.19 55.6304L2375.61 31.0241C2375.98 30.0635 2376.33 29.1213 2376.66 28.1977C2376.99 27.274 2377.29 26.3319 2377.55 25.3713H2380.76C2381.02 26.3319 2381.32 27.274 2381.65 28.1977C2382.02 29.1213 2382.37 30.0635 2382.7 31.0241ZM2380.37 61.117C2381.85 61.117 2382.67 60.8768 2382.81 60.3965C2382.96 59.9162 2382.83 59.1034 2382.42 57.958L2375.94 38.0069H2375.83L2367.18 61.117H2380.37ZM2430.31 57.958C2430.82 59.2142 2431.25 60.1379 2431.58 60.729C2431.95 61.3202 2432.34 61.7081 2432.74 61.8928C2433.15 62.0406 2433.65 62.1515 2434.24 62.2254V63.5H2418.78V62.2254C2420.26 62.1515 2421.07 61.7081 2421.22 60.8953C2421.4 60.0825 2421.27 59.1034 2420.83 57.958L2418.06 50.7535C2417.84 50.9382 2417.54 51.0675 2417.17 51.1414C2416.84 51.1784 2416.47 51.1968 2416.06 51.1968H2409.8C2409.02 51.1968 2408.43 51.2892 2408.03 51.4739C2407.62 51.6587 2407.27 52.1205 2406.97 52.8594L2404.98 57.958C2404.5 59.1773 2404.54 60.1748 2405.09 60.9507C2405.64 61.7266 2406.73 62.1515 2408.36 62.2254V63.5H2398.27V62.2254C2399.09 62.1515 2399.77 61.745 2400.32 61.0061C2400.91 60.2302 2401.45 59.2142 2401.93 57.958L2412.57 31.0241C2412.98 30.0635 2413.33 29.1213 2413.62 28.1977C2413.96 27.274 2414.25 26.3319 2414.51 25.3713H2417.73C2417.98 26.3319 2418.28 27.274 2418.61 28.1977C2418.94 29.1213 2419.3 30.0635 2419.67 31.0241L2430.31 57.958ZM2415.79 48.8138C2416.3 48.8138 2416.64 48.7399 2416.78 48.5921C2416.97 48.4074 2416.95 48.0379 2416.73 47.4837L2412.9 38.0069H2412.79L2408.47 49.0355C2408.66 48.9246 2408.88 48.8692 2409.14 48.8692C2409.39 48.8323 2409.69 48.8138 2410.02 48.8138H2415.79Z" fill="black"/>
<defs>
<linearGradient id="paint0_linear_614_2629" x1="0" y1="45" x2="2467" y2="45" gradientUnits="userSpaceOnUse">
<stop stop-color="white"/>
<stop offset="0.325" stop-color="#D4D4D4"/>
<stop offset="0.685" stop-color="white"/>
<stop offset="0.98" stop-color="#D4D4D4"/>
</linearGradient>
</defs>
</svg>
