<svg width="939" height="34" viewBox="0 0 939 34" fill="none" xmlns="http://www.w3.org/2000/svg">
<rect width="937.698" height="34" transform="translate(0.976562 0.00238037)" fill="url(#paint0_linear_614_2649)"/>
<path d="M23.1585 19.6064H23.6428L23.4322 23.5024H13.2816V23.018C13.3939 22.9619 13.5624 22.8636 13.787 22.7232C14.0257 22.5828 14.2714 22.4213 14.5241 22.2388C15.2261 21.7334 15.8859 21.1578 16.5037 20.5119C17.1214 19.8661 17.662 19.1782 18.1253 18.4481C18.5886 17.7181 18.9536 16.988 19.2204 16.2579C19.4871 15.5279 19.6205 14.8329 19.6205 14.173C19.6205 13.5413 19.466 13.0078 19.1572 12.5725C18.8623 12.1373 18.3218 11.9197 17.5356 11.9197C16.8757 11.9197 16.265 12.1022 15.7034 12.4672C15.1418 12.8323 14.5873 13.4009 14.0397 14.173L13.6396 13.8361C14.2152 12.376 14.9383 11.2879 15.8087 10.5719C16.6792 9.85586 17.7672 9.49785 19.0729 9.49785C19.8311 9.49785 20.512 9.6242 21.1157 9.87692C21.7194 10.1156 22.1968 10.4947 22.5477 11.0141C22.9128 11.5196 23.0953 12.1794 23.0953 12.9937C23.0953 14.4398 22.632 15.7946 21.7054 17.0582C20.7928 18.3218 19.5152 19.5081 17.8725 20.6172V20.6594H20.9472C21.7475 20.6594 22.3021 20.5611 22.6109 20.3645C22.9198 20.168 23.1023 19.9153 23.1585 19.6064ZM32.1217 9.49785C32.8518 9.49785 33.5678 9.63824 34.2698 9.91903C34.9718 10.1998 35.6036 10.6351 36.1652 11.2247C36.7267 11.8144 37.169 12.5585 37.4919 13.457C37.8288 14.3415 37.9973 15.3945 37.9973 16.6159C37.9973 17.8233 37.8359 18.8763 37.513 19.7749C37.19 20.6734 36.7478 21.4245 36.1862 22.0282C35.6246 22.6319 34.9928 23.0812 34.2909 23.376C33.5889 23.6709 32.8588 23.8183 32.1007 23.8183C31.3706 23.8183 30.6546 23.6779 29.9526 23.3971C29.2506 23.1163 28.6188 22.6811 28.0573 22.0914C27.4957 21.5017 27.0464 20.7647 26.7095 19.8802C26.3865 18.9816 26.2251 17.9216 26.2251 16.7002C26.2251 15.4928 26.3865 14.4398 26.7095 13.5413C27.0324 12.6427 27.4746 11.8916 28.0362 11.2879C28.5978 10.6842 29.2296 10.2349 29.9316 9.94009C30.6335 9.64526 31.3636 9.49785 32.1217 9.49785ZM32.1849 22.9127C32.5921 22.9127 32.9641 22.7302 33.3011 22.3652C33.638 22.0001 33.9048 21.3824 34.1013 20.5119C34.3119 19.6415 34.4172 18.4481 34.4172 16.9318C34.4172 15.6121 34.326 14.4679 34.1434 13.4991C33.975 12.5164 33.7152 11.7582 33.3642 11.2247C33.0133 10.6772 32.571 10.4034 32.0375 10.4034C31.6444 10.4034 31.2723 10.5859 30.9213 10.9509C30.5844 11.316 30.3106 11.9337 30.1 12.8042C29.9035 13.6746 29.8052 14.868 29.8052 16.3843C29.8052 17.704 29.8894 18.8553 30.0579 19.838C30.2404 20.8068 30.5072 21.5649 30.8582 22.1125C31.2092 22.646 31.6514 22.9127 32.1849 22.9127ZM52.2914 17.1424L45.763 17.711L45.6156 16.0052L52.144 15.4366L52.2914 17.1424ZM68.5885 19.6064H69.0728L68.8623 23.5024H58.7116V23.018C58.8239 22.9619 58.9924 22.8636 59.217 22.7232C59.4557 22.5828 59.7014 22.4213 59.9541 22.2388C60.6561 21.7334 61.3159 21.1578 61.9337 20.5119C62.5514 19.8661 63.092 19.1782 63.5553 18.4481C64.0186 17.7181 64.3836 16.988 64.6504 16.2579C64.9171 15.5279 65.0505 14.8329 65.0505 14.173C65.0505 13.5413 64.8961 13.0078 64.5872 12.5725C64.2924 12.1373 63.7518 11.9197 62.9656 11.9197C62.3057 11.9197 61.695 12.1022 61.1334 12.4672C60.5718 12.8323 60.0173 13.4009 59.4697 14.173L59.0696 13.8361C59.6452 12.376 60.3683 11.2879 61.2387 10.5719C62.1092 9.85586 63.1973 9.49785 64.5029 9.49785C65.2611 9.49785 65.942 9.6242 66.5457 9.87692C67.1494 10.1156 67.6268 10.4947 67.9778 11.0141C68.3428 11.5196 68.5253 12.1794 68.5253 12.9937C68.5253 14.4398 68.062 15.7946 67.1354 17.0582C66.2228 18.3218 64.9452 19.5081 63.3026 20.6172V20.6594H66.3772C67.1775 20.6594 67.7321 20.5611 68.0409 20.3645C68.3498 20.168 68.5323 19.9153 68.5885 19.6064ZM77.1937 21.1858C77.1937 21.7053 77.2359 22.0984 77.3201 22.3652C77.4184 22.6179 77.6149 22.7864 77.9098 22.8706C78.2186 22.9548 78.6819 23.004 79.2997 23.018V23.5024H71.5077V23.018C72.1395 23.004 72.6028 22.9548 72.8976 22.8706C73.2065 22.7864 73.403 22.6179 73.4873 22.3652C73.5715 22.0984 73.6136 21.7053 73.6136 21.1858V12.025L71.6762 13.2254L71.2339 12.5515L76.1197 9.49785H77.3412C77.285 9.7646 77.2429 10.0314 77.2148 10.2981C77.2008 10.5649 77.1937 10.8316 77.1937 11.0984V21.1858ZM86.8268 23.5024V23.018C87.2339 22.9899 87.5288 22.8846 87.7113 22.7021C87.8938 22.5196 87.9851 22.0844 87.9851 21.3964V11.6038C87.9851 10.9158 87.8798 10.4806 87.6692 10.2981C87.4726 10.1016 87.0865 9.99625 86.5109 9.98221V9.49785H92.5128V9.98221C92.1057 9.99625 91.8109 10.1016 91.6283 10.2981C91.4458 10.4806 91.3546 10.9158 91.3546 11.6038V15.3313C91.4669 15.2471 91.6003 15.1909 91.7547 15.1628C91.9232 15.1348 92.1197 15.1207 92.3444 15.1207H96.3246C96.7037 15.1207 96.9704 15.0575 97.1249 14.9312C97.2793 14.8048 97.3565 14.5521 97.3565 14.173V11.6038C97.3565 10.9158 97.2512 10.4806 97.0406 10.2981C96.8441 10.1016 96.458 9.99625 95.8824 9.98221V9.49785H101.884V9.98221C101.477 9.99625 101.182 10.1016 101 10.2981C100.817 10.4806 100.726 10.9158 100.726 11.6038V21.3964C100.726 22.0844 100.831 22.5196 101.042 22.7021C101.253 22.8846 101.639 22.9899 102.2 23.018V23.5024H96.1982V23.018C96.6054 22.9899 96.9002 22.8846 97.0827 22.7021C97.2653 22.5196 97.3565 22.0844 97.3565 21.3964V15.7946C97.2442 15.8929 97.1038 15.9561 96.9353 15.9842C96.7669 16.0122 96.5773 16.0263 96.3667 16.0263H92.3865C92.0074 16.0263 91.7407 16.0895 91.5862 16.2158C91.4318 16.3422 91.3546 16.5879 91.3546 16.9529V21.3964C91.3546 22.0844 91.4599 22.5196 91.6705 22.7021C91.8811 22.8846 92.2671 22.9899 92.8287 23.018V23.5024H86.8268ZM111.489 9.18195C112.485 9.18195 113.412 9.35043 114.268 9.68738C115.125 10.0243 115.883 10.5157 116.543 11.1615C117.203 11.7933 117.715 12.5585 118.08 13.457C118.445 14.3556 118.628 15.3594 118.628 16.4685C118.628 17.5777 118.445 18.5815 118.08 19.48C117.715 20.3786 117.203 21.1507 116.543 21.7966C115.897 22.4424 115.139 22.9408 114.268 23.2918C113.398 23.6428 112.464 23.8183 111.468 23.8183C110.485 23.8183 109.558 23.6498 108.688 23.3128C107.831 22.9759 107.073 22.4915 106.413 21.8597C105.753 21.2139 105.241 20.4417 104.876 19.5432C104.511 18.6447 104.328 17.6408 104.328 16.5317C104.328 15.4226 104.511 14.4187 104.876 13.5202C105.241 12.6217 105.746 11.8495 106.392 11.2037C107.052 10.5578 107.817 10.0594 108.688 9.70844C109.558 9.35745 110.492 9.18195 111.489 9.18195ZM111.91 22.9127C112.64 22.9127 113.215 22.674 113.637 22.1967C114.058 21.7053 114.36 21.0314 114.542 20.175C114.739 19.3186 114.837 18.3218 114.837 17.1845C114.837 14.8961 114.486 13.1411 113.784 11.9197C113.096 10.6982 112.184 10.0875 111.046 10.0875C110.33 10.0875 109.755 10.3262 109.319 10.8035C108.898 11.2809 108.589 11.9548 108.393 12.8252C108.21 13.6817 108.119 14.6785 108.119 15.8157C108.119 18.1041 108.463 19.8591 109.151 21.0805C109.853 22.302 110.773 22.9127 111.91 22.9127ZM121.021 23.8183C120.67 23.8183 120.298 23.7902 119.905 23.734C119.512 23.6779 119.175 23.6007 118.894 23.5024V23.018C119.175 23.018 119.491 22.9057 119.842 22.6811C120.193 22.4564 120.551 22.0072 120.916 21.3333L123.927 15.8789C122.987 15.6402 122.271 15.2541 121.779 14.7206C121.302 14.1871 121.063 13.5413 121.063 12.7831C121.063 12.1935 121.239 11.6389 121.59 11.1194C121.955 10.6 122.544 10.1858 123.359 9.87692C124.187 9.554 125.296 9.39255 126.686 9.39255C127.135 9.39255 127.655 9.41361 128.244 9.45573C128.834 9.48381 129.487 9.49785 130.203 9.49785H132.899V9.98221C132.491 9.99625 132.197 10.1016 132.014 10.2981C131.832 10.4806 131.74 10.9158 131.74 11.6038V21.3964C131.74 22.0844 131.846 22.5196 132.056 22.7021C132.267 22.8846 132.653 22.9899 133.215 23.018V23.5024H127.213V23.018C127.62 22.9899 127.915 22.8846 128.097 22.7021C128.28 22.5196 128.371 22.0844 128.371 21.3964V11.6038C128.371 11.0562 128.273 10.7053 128.076 10.5508C127.893 10.3823 127.571 10.2981 127.107 10.2981C126.504 10.2981 125.956 10.5157 125.465 10.9509C124.987 11.3721 124.749 12.0109 124.749 12.8674C124.749 13.3166 124.84 13.7519 125.022 14.173C125.205 14.5802 125.528 14.9242 125.991 15.205C126.468 15.4858 127.121 15.6542 127.95 15.7104V16.4475C127.781 16.4475 127.634 16.4826 127.507 16.5528C127.381 16.6089 127.255 16.7563 127.128 16.995L124.749 21.586C124.426 22.2037 123.976 22.7302 123.401 23.1654C122.825 23.6007 122.032 23.8183 121.021 23.8183ZM139.869 15.0786H141.912C143.443 15.0786 144.65 15.2471 145.534 15.584C146.419 15.921 147.044 16.3843 147.409 16.974C147.788 17.5636 147.977 18.2445 147.977 19.0167C147.977 19.7889 147.767 20.519 147.346 21.2069C146.938 21.8808 146.3 22.4354 145.429 22.8706C144.573 23.2918 143.478 23.5024 142.144 23.5024L135.342 23.5024V23.018C135.749 22.9899 136.044 22.8846 136.226 22.7021C136.409 22.5196 136.5 22.0844 136.5 21.3964V11.6038C136.5 10.9158 136.395 10.4806 136.184 10.2981C135.988 10.1016 135.601 9.99625 135.026 9.98221V9.49785H146.608V12.9727H146.124C146.082 12.4953 145.991 12.0671 145.85 11.688C145.71 11.2949 145.471 10.986 145.134 10.7614C144.797 10.5227 144.313 10.4034 143.681 10.4034H140.796C140.501 10.4034 140.27 10.4806 140.101 10.6351C139.947 10.7895 139.869 11.1124 139.869 11.6038V15.0786ZM141.112 22.5968C141.856 22.5968 142.467 22.4213 142.944 22.0703C143.436 21.7053 143.801 21.256 144.039 20.7225C144.278 20.189 144.397 19.6625 144.397 19.1431C144.397 18.3709 144.25 17.7532 143.955 17.2898C143.674 16.8265 143.288 16.4966 142.797 16.3C142.319 16.0895 141.779 15.9842 141.175 15.9842H139.869V21.3964C139.869 21.8878 139.947 22.2107 140.101 22.3652C140.256 22.5196 140.593 22.5968 141.112 22.5968ZM150.211 23.5024V23.018C150.618 22.9899 150.913 22.8846 151.095 22.7021C151.278 22.5196 151.369 22.0844 151.369 21.3964V11.6038C151.369 10.9158 151.264 10.4806 151.053 10.2981C150.857 10.1016 150.471 9.99625 149.895 9.98221V9.49785H151.369C152.394 9.49785 153.356 9.48381 154.254 9.45573C155.153 9.41361 155.827 9.39255 156.276 9.39255C157.736 9.39255 158.887 9.554 159.73 9.87692C160.586 10.1998 161.197 10.628 161.562 11.1615C161.941 11.681 162.13 12.2566 162.13 12.8884C162.13 13.6185 161.892 14.3134 161.414 14.9733C160.951 15.6332 160.207 16.1456 159.182 16.5106C158.171 16.8616 156.83 16.974 155.16 16.8476V16.1105C155.918 16.1386 156.543 16.0052 157.034 15.7104C157.525 15.4015 157.883 14.9944 158.108 14.4889C158.347 13.9835 158.466 13.443 158.466 12.8674C158.466 12.0952 158.248 11.4774 157.813 11.0141C157.378 10.5368 156.774 10.2981 156.002 10.2981C155.539 10.2981 155.209 10.3823 155.012 10.5508C154.83 10.7053 154.739 11.0562 154.739 11.6038V21.3964C154.739 21.8457 154.781 22.1897 154.865 22.4284C154.963 22.653 155.132 22.8074 155.37 22.8917C155.623 22.9619 155.974 23.004 156.423 23.018V23.5024H150.211ZM164.353 23.8183C164.002 23.8183 163.63 23.7902 163.237 23.734C162.844 23.6779 162.507 23.6007 162.226 23.5024V23.018C162.507 23.018 162.823 22.9057 163.174 22.6811C163.525 22.4564 163.883 22.0072 164.248 21.3333L167.26 15.8789C166.319 15.6402 165.603 15.2541 165.112 14.7206C164.634 14.1871 164.396 13.5413 164.396 12.7831C164.396 12.1935 164.571 11.6389 164.922 11.1194C165.287 10.6 165.877 10.1858 166.691 9.87692C167.519 9.554 168.628 9.39255 170.018 9.39255C170.468 9.39255 170.987 9.41361 171.577 9.45573C172.166 9.48381 172.819 9.49785 173.535 9.49785H176.231V9.98221C175.824 9.99625 175.529 10.1016 175.346 10.2981C175.164 10.4806 175.073 10.9158 175.073 11.6038V21.3964C175.073 22.0844 175.178 22.5196 175.389 22.7021C175.599 22.8846 175.985 22.9899 176.547 23.018V23.5024H170.545V23.018C170.952 22.9899 171.247 22.8846 171.429 22.7021C171.612 22.5196 171.703 22.0844 171.703 21.3964V11.6038C171.703 11.0562 171.605 10.7053 171.408 10.5508C171.226 10.3823 170.903 10.2981 170.44 10.2981C169.836 10.2981 169.288 10.5157 168.797 10.9509C168.32 11.3721 168.081 12.0109 168.081 12.8674C168.081 13.3166 168.172 13.7519 168.355 14.173C168.537 14.5802 168.86 14.9242 169.323 15.205C169.801 15.4858 170.454 15.6542 171.282 15.7104V16.4475C171.113 16.4475 170.966 16.4826 170.84 16.5528C170.713 16.6089 170.587 16.7563 170.461 16.995L168.081 21.586C167.758 22.2037 167.309 22.7302 166.733 23.1654C166.157 23.6007 165.364 23.8183 164.353 23.8183ZM193.279 19.6064H193.764L193.553 23.5024H183.402V23.018C183.515 22.9619 183.683 22.8636 183.908 22.7232C184.147 22.5828 184.392 22.4213 184.645 22.2388C185.347 21.7334 186.007 21.1578 186.625 20.5119C187.242 19.8661 187.783 19.1782 188.246 18.4481C188.709 17.7181 189.074 16.988 189.341 16.2579C189.608 15.5279 189.741 14.8329 189.741 14.173C189.741 13.5413 189.587 13.0078 189.278 12.5725C188.983 12.1373 188.443 11.9197 187.656 11.9197C186.997 11.9197 186.386 12.1022 185.824 12.4672C185.263 12.8323 184.708 13.4009 184.161 14.173L183.76 13.8361C184.336 12.376 185.059 11.2879 185.93 10.5719C186.8 9.85586 187.888 9.49785 189.194 9.49785C189.952 9.49785 190.633 9.6242 191.237 9.87692C191.84 10.1156 192.318 10.4947 192.669 11.0141C193.034 11.5196 193.216 12.1794 193.216 12.9937C193.216 14.4398 192.753 15.7946 191.826 17.0582C190.914 18.3218 189.636 19.5081 187.993 20.6172V20.6594H191.068C191.868 20.6594 192.423 20.5611 192.732 20.3645C193.041 20.168 193.223 19.9153 193.279 19.6064ZM202.243 9.49785C202.973 9.49785 203.689 9.63824 204.391 9.91903C205.093 10.1998 205.724 10.6351 206.286 11.2247C206.848 11.8144 207.29 12.5585 207.613 13.457C207.95 14.3415 208.118 15.3945 208.118 16.6159C208.118 17.8233 207.957 18.8763 207.634 19.7749C207.311 20.6734 206.869 21.4245 206.307 22.0282C205.746 22.6319 205.114 23.0812 204.412 23.376C203.71 23.6709 202.98 23.8183 202.222 23.8183C201.492 23.8183 200.775 23.6779 200.074 23.3971C199.372 23.1163 198.74 22.6811 198.178 22.0914C197.617 21.5017 197.167 20.7647 196.83 19.8802C196.507 18.9816 196.346 17.9216 196.346 16.7002C196.346 15.4928 196.507 14.4398 196.83 13.5413C197.153 12.6427 197.596 11.8916 198.157 11.2879C198.719 10.6842 199.35 10.2349 200.052 9.94009C200.754 9.64526 201.484 9.49785 202.243 9.49785ZM202.306 22.9127C202.713 22.9127 203.085 22.7302 203.422 22.3652C203.759 22.0001 204.026 21.3824 204.222 20.5119C204.433 19.6415 204.538 18.4481 204.538 16.9318C204.538 15.6121 204.447 14.4679 204.264 13.4991C204.096 12.5164 203.836 11.7582 203.485 11.2247C203.134 10.6772 202.692 10.4034 202.158 10.4034C201.765 10.4034 201.393 10.5859 201.042 10.9509C200.705 11.316 200.432 11.9337 200.221 12.8042C200.024 13.6746 199.926 14.868 199.926 16.3843C199.926 17.704 200.01 18.8553 200.179 19.838C200.361 20.8068 200.628 21.5649 200.979 22.1125C201.33 22.646 201.772 22.9127 202.306 22.9127ZM219.748 19.6064H220.232L220.021 23.5024H209.871V23.018C209.983 22.9619 210.152 22.8636 210.376 22.7232C210.615 22.5828 210.861 22.4213 211.113 22.2388C211.815 21.7334 212.475 21.1578 213.093 20.5119C213.711 19.8661 214.251 19.1782 214.714 18.4481C215.178 17.7181 215.543 16.988 215.81 16.2579C216.076 15.5279 216.21 14.8329 216.21 14.173C216.21 13.5413 216.055 13.0078 215.746 12.5725C215.452 12.1373 214.911 11.9197 214.125 11.9197C213.465 11.9197 212.854 12.1022 212.293 12.4672C211.731 12.8323 211.176 13.4009 210.629 14.173L210.229 13.8361C210.804 12.376 211.527 11.2879 212.398 10.5719C213.268 9.85586 214.356 9.49785 215.662 9.49785C216.42 9.49785 217.101 9.6242 217.705 9.87692C218.309 10.1156 218.786 10.4947 219.137 11.0141C219.502 11.5196 219.684 12.1794 219.684 12.9937C219.684 14.4398 219.221 15.7946 218.295 17.0582C217.382 18.3218 216.104 19.5081 214.462 20.6172V20.6594H217.536C218.337 20.6594 218.891 20.5611 219.2 20.3645C219.509 20.168 219.691 19.9153 219.748 19.6064ZM231.449 18.1322H232.923V20.7647H232.038C231.645 20.7647 231.449 21.0103 231.449 21.5017C231.449 21.8387 231.449 22.1686 231.449 22.4915C231.463 22.8004 231.477 23.1374 231.491 23.5024H228.163C228.191 23.0391 228.212 22.5898 228.227 22.1546C228.241 21.7053 228.255 21.242 228.269 20.7647H221.614V20.2803C221.979 19.9293 222.309 19.5643 222.604 19.1852L229.49 10.5719C229.645 10.3753 229.785 10.1858 229.911 10.0033C230.052 9.80672 230.164 9.63824 230.248 9.49785H231.47L231.449 18.1322ZM228.227 13.7308L224.71 18.1322H228.29V13.7308H228.227ZM250.2 9.49785V13.3938H249.716C249.646 12.7761 249.52 12.2496 249.337 11.8144C249.169 11.3651 248.902 11.0211 248.537 10.7825C248.186 10.5298 247.694 10.4034 247.063 10.4034H246.073C245.778 10.4034 245.546 10.4806 245.378 10.6351C245.223 10.7895 245.146 11.1124 245.146 11.6038V21.3964C245.146 22.0844 245.251 22.5196 245.462 22.7021C245.673 22.8846 246.059 22.9899 246.62 23.018V23.5024H240.618V23.018C241.026 22.9899 241.32 22.8846 241.503 22.7021C241.685 22.5196 241.777 22.0844 241.777 21.3964V11.6038C241.777 10.9158 241.671 10.4806 241.461 10.2981C241.264 10.1016 240.878 9.99625 240.302 9.98221V9.49785H250.2ZM258.637 9.18195C259.634 9.18195 260.561 9.35043 261.417 9.68738C262.274 10.0243 263.032 10.5157 263.692 11.1615C264.351 11.7933 264.864 12.5585 265.229 13.457C265.594 14.3556 265.777 15.3594 265.777 16.4685C265.777 17.5777 265.594 18.5815 265.229 19.48C264.864 20.3786 264.351 21.1507 263.692 21.7966C263.046 22.4424 262.288 22.9408 261.417 23.2918C260.547 23.6428 259.613 23.8183 258.616 23.8183C257.634 23.8183 256.707 23.6498 255.836 23.3128C254.98 22.9759 254.222 22.4915 253.562 21.8597C252.902 21.2139 252.39 20.4417 252.025 19.5432C251.66 18.6447 251.477 17.6408 251.477 16.5317C251.477 15.4226 251.66 14.4187 252.025 13.5202C252.39 12.6217 252.895 11.8495 253.541 11.2037C254.201 10.5578 254.966 10.0594 255.836 9.70844C256.707 9.35745 257.641 9.18195 258.637 9.18195ZM259.059 22.9127C259.789 22.9127 260.364 22.674 260.785 22.1967C261.207 21.7053 261.508 21.0314 261.691 20.175C261.888 19.3186 261.986 18.3218 261.986 17.1845C261.986 14.8961 261.635 13.1411 260.933 11.9197C260.245 10.6982 259.332 10.0875 258.195 10.0875C257.479 10.0875 256.903 10.3262 256.468 10.8035C256.047 11.2809 255.738 11.9548 255.542 12.8252C255.359 13.6817 255.268 14.6785 255.268 15.8157C255.268 18.1041 255.612 19.8591 256.3 21.0805C257.002 22.302 257.921 22.9127 259.059 22.9127ZM274.909 11.1615L278.405 21.3964C278.531 21.7615 278.714 22.0984 278.952 22.4073C279.205 22.7021 279.591 22.9057 280.111 23.018L279.142 27.8196H278.658C278.629 26.9491 278.503 26.191 278.278 25.5451C278.054 24.8993 277.773 24.3939 277.436 24.0289C277.099 23.6779 276.734 23.5024 276.341 23.5024H270.697C270.178 23.5024 269.665 23.6779 269.16 24.0289C268.668 24.3939 268.247 24.8993 267.896 25.5451C267.559 26.191 267.342 26.9491 267.243 27.8196H266.759V23.018C267.012 22.9057 267.257 22.7162 267.496 22.4494C267.735 22.1686 267.952 21.8527 268.149 21.5017C268.359 21.1507 268.521 20.8208 268.633 20.5119L272.213 11.1615C272.354 10.7965 272.487 10.4385 272.613 10.0875C272.74 9.73652 272.852 9.37851 272.95 9.01348H274.172C274.27 9.37851 274.382 9.73652 274.509 10.0875C274.649 10.4385 274.783 10.7965 274.909 11.1615ZM274.024 22.5968C274.586 22.5968 274.895 22.5056 274.951 22.3231C275.007 22.1405 274.958 21.8317 274.804 21.3964L272.34 13.815H272.298L269.012 22.5968H274.024ZM292.998 21.3964C293.195 21.8738 293.356 22.2248 293.483 22.4494C293.623 22.674 293.771 22.8215 293.925 22.8917C294.079 22.9478 294.269 22.9899 294.494 23.018V23.5024H288.618V23.018C289.18 22.9899 289.488 22.8215 289.545 22.5126C289.615 22.2037 289.566 21.8317 289.397 21.3964L288.344 18.6587C288.26 18.7289 288.148 18.778 288.007 18.8061C287.881 18.8202 287.74 18.8272 287.586 18.8272H285.206C284.912 18.8272 284.687 18.8623 284.532 18.9325C284.378 19.0027 284.245 19.1782 284.132 19.459L283.374 21.3964C283.192 21.8597 283.206 22.2388 283.416 22.5336C283.627 22.8285 284.041 22.9899 284.659 23.018V23.5024H280.826V23.018C281.135 22.9899 281.395 22.8355 281.605 22.5547C281.83 22.2599 282.033 21.8738 282.216 21.3964L286.259 11.1615C286.414 10.7965 286.547 10.4385 286.659 10.0875C286.786 9.73652 286.898 9.37851 286.996 9.01348H288.218C288.316 9.37851 288.428 9.73652 288.555 10.0875C288.681 10.4385 288.815 10.7965 288.955 11.1615L292.998 21.3964ZM287.481 17.9216C287.677 17.9216 287.804 17.8935 287.86 17.8374C287.93 17.7672 287.923 17.6268 287.839 17.4162L286.386 13.815H286.344L284.701 18.0059C284.771 17.9637 284.855 17.9427 284.954 17.9427C285.052 17.9286 285.164 17.9216 285.291 17.9216H287.481Z" fill="black"/>
<path d="M315.887 14.6015C313.788 13.7631 311.325 14.2102 309.646 15.8869C307.379 18.1503 307.379 21.8109 309.646 24.0743C311.325 25.7509 313.788 26.198 315.887 25.3597V22.6771C315.468 22.8727 315.02 22.9845 314.544 22.9845C312.865 22.9845 311.521 21.6432 311.521 19.9666C311.521 18.29 312.865 16.9487 314.544 16.9487C315.02 16.9487 315.496 17.0605 315.887 17.2561V14.6015Z" fill="black"/>
<path d="M314.947 11.9132C315.774 11.0843 315.774 9.71221 314.947 8.85468C314.121 8.02573 312.752 8.02573 311.897 8.85468C311.041 9.68363 311.07 11.0557 311.897 11.9132C312.752 12.7422 314.121 12.7422 314.947 11.9132Z" fill="black"/>
<path d="M338.979 19.6064H339.463L339.253 23.5024H329.102V23.018C329.214 22.9619 329.383 22.8636 329.607 22.7232C329.846 22.5828 330.092 22.4213 330.344 22.2388C331.046 21.7334 331.706 21.1578 332.324 20.5119C332.942 19.8661 333.482 19.1782 333.946 18.4481C334.409 17.7181 334.774 16.988 335.041 16.2579C335.307 15.5279 335.441 14.8329 335.441 14.173C335.441 13.5413 335.286 13.0078 334.977 12.5725C334.683 12.1373 334.142 11.9197 333.356 11.9197C332.696 11.9197 332.085 12.1022 331.524 12.4672C330.962 12.8323 330.408 13.4009 329.86 14.173L329.46 13.8361C330.036 12.376 330.759 11.2879 331.629 10.5719C332.499 9.85586 333.588 9.49785 334.893 9.49785C335.651 9.49785 336.332 9.6242 336.936 9.87692C337.54 10.1156 338.017 10.4947 338.368 11.0141C338.733 11.5196 338.916 12.1794 338.916 12.9937C338.916 14.4398 338.452 15.7946 337.526 17.0582C336.613 18.3218 335.335 19.5081 333.693 20.6172V20.6594H336.768C337.568 20.6594 338.122 20.5611 338.431 20.3645C338.74 20.168 338.923 19.9153 338.979 19.6064ZM347.942 9.49785C348.672 9.49785 349.388 9.63824 350.09 9.91903C350.792 10.1998 351.424 10.6351 351.985 11.2247C352.547 11.8144 352.989 12.5585 353.312 13.457C353.649 14.3415 353.818 15.3945 353.818 16.6159C353.818 17.8233 353.656 18.8763 353.333 19.7749C353.01 20.6734 352.568 21.4245 352.007 22.0282C351.445 22.6319 350.813 23.0812 350.111 23.376C349.409 23.6709 348.679 23.8183 347.921 23.8183C347.191 23.8183 346.475 23.6779 345.773 23.3971C345.071 23.1163 344.439 22.6811 343.878 22.0914C343.316 21.5017 342.867 20.7647 342.53 19.8802C342.207 18.9816 342.045 17.9216 342.045 16.7002C342.045 15.4928 342.207 14.4398 342.53 13.5413C342.853 12.6427 343.295 11.8916 343.857 11.2879C344.418 10.6842 345.05 10.2349 345.752 9.94009C346.454 9.64526 347.184 9.49785 347.942 9.49785ZM348.005 22.9127C348.412 22.9127 348.784 22.7302 349.121 22.3652C349.458 22.0001 349.725 21.3824 349.922 20.5119C350.132 19.6415 350.238 18.4481 350.238 16.9318C350.238 15.6121 350.146 14.4679 349.964 13.4991C349.795 12.5164 349.536 11.7582 349.185 11.2247C348.834 10.6772 348.391 10.4034 347.858 10.4034C347.465 10.4034 347.093 10.5859 346.742 10.9509C346.405 11.316 346.131 11.9337 345.92 12.8042C345.724 13.6746 345.626 14.868 345.626 16.3843C345.626 17.704 345.71 18.8553 345.878 19.838C346.061 20.8068 346.327 21.5649 346.678 22.1125C347.029 22.646 347.472 22.9127 348.005 22.9127ZM368.112 17.1424L361.583 17.711L361.436 16.0052L367.964 15.4366L368.112 17.1424ZM384.409 19.6064H384.893L384.683 23.5024H374.532V23.018C374.644 22.9619 374.813 22.8636 375.037 22.7232C375.276 22.5828 375.522 22.4213 375.774 22.2388C376.476 21.7334 377.136 21.1578 377.754 20.5119C378.372 19.8661 378.912 19.1782 379.376 18.4481C379.839 17.7181 380.204 16.988 380.471 16.2579C380.737 15.5279 380.871 14.8329 380.871 14.173C380.871 13.5413 380.716 13.0078 380.407 12.5725C380.113 12.1373 379.572 11.9197 378.786 11.9197C378.126 11.9197 377.515 12.1022 376.954 12.4672C376.392 12.8323 375.838 13.4009 375.29 14.173L374.89 13.8361C375.466 12.376 376.189 11.2879 377.059 10.5719C377.929 9.85586 379.018 9.49785 380.323 9.49785C381.081 9.49785 381.762 9.6242 382.366 9.87692C382.97 10.1156 383.447 10.4947 383.798 11.0141C384.163 11.5196 384.346 12.1794 384.346 12.9937C384.346 14.4398 383.882 15.7946 382.956 17.0582C382.043 18.3218 380.766 19.5081 379.123 20.6172V20.6594H382.198C382.998 20.6594 383.552 20.5611 383.861 20.3645C384.17 20.168 384.353 19.9153 384.409 19.6064ZM393.014 21.1858C393.014 21.7053 393.056 22.0984 393.14 22.3652C393.239 22.6179 393.435 22.7864 393.73 22.8706C394.039 22.9548 394.502 23.004 395.12 23.018V23.5024H387.328V23.018C387.96 23.004 388.423 22.9548 388.718 22.8706C389.027 22.7864 389.223 22.6179 389.308 22.3652C389.392 22.0984 389.434 21.7053 389.434 21.1858V12.025L387.496 13.2254L387.054 12.5515L391.94 9.49785H393.161C393.105 9.7646 393.063 10.0314 393.035 10.2981C393.021 10.5649 393.014 10.8316 393.014 11.0984V21.1858ZM402.647 23.5024V23.018C403.054 22.9899 403.349 22.8846 403.532 22.7021C403.714 22.5196 403.805 22.0844 403.805 21.3964V11.6038C403.805 10.9158 403.7 10.4806 403.489 10.2981C403.293 10.1016 402.907 9.99625 402.331 9.98221V9.49785H408.333V9.98221C407.926 9.99625 407.631 10.1016 407.449 10.2981C407.266 10.4806 407.175 10.9158 407.175 11.6038V15.3313C407.287 15.2471 407.421 15.1909 407.575 15.1628C407.743 15.1348 407.94 15.1207 408.165 15.1207H412.145C412.524 15.1207 412.791 15.0575 412.945 14.9312C413.1 14.8048 413.177 14.5521 413.177 14.173V11.6038C413.177 10.9158 413.072 10.4806 412.861 10.2981C412.664 10.1016 412.278 9.99625 411.703 9.98221V9.49785H417.705V9.98221C417.297 9.99625 417.003 10.1016 416.82 10.2981C416.638 10.4806 416.546 10.9158 416.546 11.6038V21.3964C416.546 22.0844 416.652 22.5196 416.862 22.7021C417.073 22.8846 417.459 22.9899 418.021 23.018V23.5024H412.019V23.018C412.426 22.9899 412.721 22.8846 412.903 22.7021C413.086 22.5196 413.177 22.0844 413.177 21.3964V15.7946C413.065 15.8929 412.924 15.9561 412.756 15.9842C412.587 16.0122 412.398 16.0263 412.187 16.0263H408.207C407.828 16.0263 407.561 16.0895 407.407 16.2158C407.252 16.3422 407.175 16.5879 407.175 16.9529V21.3964C407.175 22.0844 407.28 22.5196 407.491 22.7021C407.701 22.8846 408.087 22.9899 408.649 23.018V23.5024H402.647ZM427.309 9.18195C428.306 9.18195 429.232 9.35043 430.089 9.68738C430.945 10.0243 431.703 10.5157 432.363 11.1615C433.023 11.7933 433.535 12.5585 433.9 13.457C434.266 14.3556 434.448 15.3594 434.448 16.4685C434.448 17.5777 434.266 18.5815 433.9 19.48C433.535 20.3786 433.023 21.1507 432.363 21.7966C431.717 22.4424 430.959 22.9408 430.089 23.2918C429.218 23.6428 428.285 23.8183 427.288 23.8183C426.305 23.8183 425.378 23.6498 424.508 23.3128C423.652 22.9759 422.893 22.4915 422.234 21.8597C421.574 21.2139 421.061 20.4417 420.696 19.5432C420.331 18.6447 420.149 17.6408 420.149 16.5317C420.149 15.4226 420.331 14.4187 420.696 13.5202C421.061 12.6217 421.567 11.8495 422.212 11.2037C422.872 10.5578 423.638 10.0594 424.508 9.70844C425.378 9.35745 426.312 9.18195 427.309 9.18195ZM427.73 22.9127C428.46 22.9127 429.036 22.674 429.457 22.1967C429.878 21.7053 430.18 21.0314 430.362 20.175C430.559 19.3186 430.657 18.3218 430.657 17.1845C430.657 14.8961 430.306 13.1411 429.604 11.9197C428.916 10.6982 428.004 10.0875 426.867 10.0875C426.151 10.0875 425.575 10.3262 425.14 10.8035C424.719 11.2809 424.41 11.9548 424.213 12.8252C424.031 13.6817 423.939 14.6785 423.939 15.8157C423.939 18.1041 424.283 19.8591 424.971 21.0805C425.673 22.302 426.593 22.9127 427.73 22.9127ZM436.841 23.8183C436.49 23.8183 436.118 23.7902 435.725 23.734C435.332 23.6779 434.995 23.6007 434.714 23.5024V23.018C434.995 23.018 435.311 22.9057 435.662 22.6811C436.013 22.4564 436.371 22.0072 436.736 21.3333L439.748 15.8789C438.807 15.6402 438.091 15.2541 437.6 14.7206C437.122 14.1871 436.884 13.5413 436.884 12.7831C436.884 12.1935 437.059 11.6389 437.41 11.1194C437.775 10.6 438.365 10.1858 439.179 9.87692C440.007 9.554 441.116 9.39255 442.506 9.39255C442.956 9.39255 443.475 9.41361 444.065 9.45573C444.654 9.48381 445.307 9.49785 446.023 9.49785H448.719V9.98221C448.312 9.99625 448.017 10.1016 447.834 10.2981C447.652 10.4806 447.561 10.9158 447.561 11.6038V21.3964C447.561 22.0844 447.666 22.5196 447.877 22.7021C448.087 22.8846 448.473 22.9899 449.035 23.018V23.5024H443.033V23.018C443.44 22.9899 443.735 22.8846 443.917 22.7021C444.1 22.5196 444.191 22.0844 444.191 21.3964V11.6038C444.191 11.0562 444.093 10.7053 443.896 10.5508C443.714 10.3823 443.391 10.2981 442.928 10.2981C442.324 10.2981 441.776 10.5157 441.285 10.9509C440.808 11.3721 440.569 12.0109 440.569 12.8674C440.569 13.3166 440.66 13.7519 440.843 14.173C441.025 14.5802 441.348 14.9242 441.811 15.205C442.289 15.4858 442.942 15.6542 443.77 15.7104V16.4475C443.601 16.4475 443.454 16.4826 443.328 16.5528C443.201 16.6089 443.075 16.7563 442.949 16.995L440.569 21.586C440.246 22.2037 439.797 22.7302 439.221 23.1654C438.645 23.6007 437.852 23.8183 436.841 23.8183ZM455.69 15.0786H457.733C459.263 15.0786 460.47 15.2471 461.355 15.584C462.239 15.921 462.864 16.3843 463.229 16.974C463.608 17.5636 463.798 18.2445 463.798 19.0167C463.798 19.7889 463.587 20.519 463.166 21.2069C462.759 21.8808 462.12 22.4354 461.249 22.8706C460.393 23.2918 459.298 23.5024 457.964 23.5024L451.162 23.5024V23.018C451.569 22.9899 451.864 22.8846 452.046 22.7021C452.229 22.5196 452.32 22.0844 452.32 21.3964V11.6038C452.32 10.9158 452.215 10.4806 452.004 10.2981C451.808 10.1016 451.422 9.99625 450.846 9.98221V9.49785H462.429V12.9727H461.944C461.902 12.4953 461.811 12.0671 461.671 11.688C461.53 11.2949 461.292 10.986 460.955 10.7614C460.618 10.5227 460.133 10.4034 459.502 10.4034H456.616C456.322 10.4034 456.09 10.4806 455.921 10.6351C455.767 10.7895 455.69 11.1124 455.69 11.6038V15.0786ZM456.932 22.5968C457.676 22.5968 458.287 22.4213 458.764 22.0703C459.256 21.7053 459.621 21.256 459.86 20.7225C460.098 20.189 460.218 19.6625 460.218 19.1431C460.218 18.3709 460.07 17.7532 459.775 17.2898C459.495 16.8265 459.108 16.4966 458.617 16.3C458.14 16.0895 457.599 15.9842 456.995 15.9842H455.69V21.3964C455.69 21.8878 455.767 22.2107 455.921 22.3652C456.076 22.5196 456.413 22.5968 456.932 22.5968ZM466.031 23.5024V23.018C466.438 22.9899 466.733 22.8846 466.916 22.7021C467.098 22.5196 467.189 22.0844 467.189 21.3964V11.6038C467.189 10.9158 467.084 10.4806 466.873 10.2981C466.677 10.1016 466.291 9.99625 465.715 9.98221V9.49785H467.189C468.214 9.49785 469.176 9.48381 470.075 9.45573C470.973 9.41361 471.647 9.39255 472.096 9.39255C473.556 9.39255 474.708 9.554 475.55 9.87692C476.406 10.1998 477.017 10.628 477.382 11.1615C477.761 11.681 477.951 12.2566 477.951 12.8884C477.951 13.6185 477.712 14.3134 477.235 14.9733C476.771 15.6332 476.027 16.1456 475.002 16.5106C473.992 16.8616 472.651 16.974 470.98 16.8476V16.1105C471.738 16.1386 472.363 16.0052 472.854 15.7104C473.346 15.4015 473.704 14.9944 473.928 14.4889C474.167 13.9835 474.286 13.443 474.286 12.8674C474.286 12.0952 474.069 11.4774 473.634 11.0141C473.198 10.5368 472.595 10.2981 471.822 10.2981C471.359 10.2981 471.029 10.3823 470.833 10.5508C470.65 10.7053 470.559 11.0562 470.559 11.6038V21.3964C470.559 21.8457 470.601 22.1897 470.685 22.4284C470.784 22.653 470.952 22.8074 471.191 22.8917C471.443 22.9619 471.794 23.004 472.244 23.018V23.5024H466.031ZM480.174 23.8183C479.823 23.8183 479.451 23.7902 479.058 23.734C478.664 23.6779 478.327 23.6007 478.047 23.5024V23.018C478.327 23.018 478.643 22.9057 478.994 22.6811C479.345 22.4564 479.703 22.0072 480.068 21.3333L483.08 15.8789C482.139 15.6402 481.423 15.2541 480.932 14.7206C480.454 14.1871 480.216 13.5413 480.216 12.7831C480.216 12.1935 480.391 11.6389 480.742 11.1194C481.107 10.6 481.697 10.1858 482.511 9.87692C483.34 9.554 484.449 9.39255 485.839 9.39255C486.288 9.39255 486.807 9.41361 487.397 9.45573C487.987 9.48381 488.64 9.49785 489.356 9.49785H492.051V9.98221C491.644 9.99625 491.349 10.1016 491.167 10.2981C490.984 10.4806 490.893 10.9158 490.893 11.6038V21.3964C490.893 22.0844 490.998 22.5196 491.209 22.7021C491.419 22.8846 491.806 22.9899 492.367 23.018V23.5024H486.365V23.018C486.772 22.9899 487.067 22.8846 487.25 22.7021C487.432 22.5196 487.523 22.0844 487.523 21.3964V11.6038C487.523 11.0562 487.425 10.7053 487.229 10.5508C487.046 10.3823 486.723 10.2981 486.26 10.2981C485.656 10.2981 485.109 10.5157 484.617 10.9509C484.14 11.3721 483.901 12.0109 483.901 12.8674C483.901 13.3166 483.992 13.7519 484.175 14.173C484.358 14.5802 484.68 14.9242 485.144 15.205C485.621 15.4858 486.274 15.6542 487.102 15.7104V16.4475C486.934 16.4475 486.786 16.4826 486.66 16.5528C486.534 16.6089 486.407 16.7563 486.281 16.995L483.901 21.586C483.578 22.2037 483.129 22.7302 482.553 23.1654C481.978 23.6007 481.185 23.8183 480.174 23.8183ZM509.1 19.6064H509.584L509.373 23.5024H499.223V23.018C499.335 22.9619 499.504 22.8636 499.728 22.7232C499.967 22.5828 500.213 22.4213 500.465 22.2388C501.167 21.7334 501.827 21.1578 502.445 20.5119C503.063 19.8661 503.603 19.1782 504.066 18.4481C504.53 17.7181 504.895 16.988 505.162 16.2579C505.428 15.5279 505.562 14.8329 505.562 14.173C505.562 13.5413 505.407 13.0078 505.098 12.5725C504.804 12.1373 504.263 11.9197 503.477 11.9197C502.817 11.9197 502.206 12.1022 501.645 12.4672C501.083 12.8323 500.528 13.4009 499.981 14.173L499.581 13.8361C500.156 12.376 500.879 11.2879 501.75 10.5719C502.62 9.85586 503.708 9.49785 505.014 9.49785C505.772 9.49785 506.453 9.6242 507.057 9.87692C507.661 10.1156 508.138 10.4947 508.489 11.0141C508.854 11.5196 509.036 12.1794 509.036 12.9937C509.036 14.4398 508.573 15.7946 507.647 17.0582C506.734 18.3218 505.456 19.5081 503.814 20.6172V20.6594H506.888C507.689 20.6594 508.243 20.5611 508.552 20.3645C508.861 20.168 509.044 19.9153 509.1 19.6064ZM518.063 9.49785C518.793 9.49785 519.509 9.63824 520.211 9.91903C520.913 10.1998 521.545 10.6351 522.106 11.2247C522.668 11.8144 523.11 12.5585 523.433 13.457C523.77 14.3415 523.939 15.3945 523.939 16.6159C523.939 17.8233 523.777 18.8763 523.454 19.7749C523.131 20.6734 522.689 21.4245 522.127 22.0282C521.566 22.6319 520.934 23.0812 520.232 23.376C519.53 23.6709 518.8 23.8183 518.042 23.8183C517.312 23.8183 516.596 23.6779 515.894 23.3971C515.192 23.1163 514.56 22.6811 513.998 22.0914C513.437 21.5017 512.988 20.7647 512.651 19.8802C512.328 18.9816 512.166 17.9216 512.166 16.7002C512.166 15.4928 512.328 14.4398 512.651 13.5413C512.974 12.6427 513.416 11.8916 513.977 11.2879C514.539 10.6842 515.171 10.2349 515.873 9.94009C516.575 9.64526 517.305 9.49785 518.063 9.49785ZM518.126 22.9127C518.533 22.9127 518.905 22.7302 519.242 22.3652C519.579 22.0001 519.846 21.3824 520.043 20.5119C520.253 19.6415 520.358 18.4481 520.358 16.9318C520.358 15.6121 520.267 14.4679 520.085 13.4991C519.916 12.5164 519.656 11.7582 519.305 11.2247C518.954 10.6772 518.512 10.4034 517.979 10.4034C517.586 10.4034 517.214 10.5859 516.863 10.9509C516.526 11.316 516.252 11.9337 516.041 12.8042C515.845 13.6746 515.746 14.868 515.746 16.3843C515.746 17.704 515.831 18.8553 515.999 19.838C516.182 20.8068 516.448 21.5649 516.799 22.1125C517.15 22.646 517.593 22.9127 518.126 22.9127ZM535.568 19.6064H536.052L535.842 23.5024H525.691V23.018C525.803 22.9619 525.972 22.8636 526.196 22.7232C526.435 22.5828 526.681 22.4213 526.934 22.2388C527.636 21.7334 528.295 21.1578 528.913 20.5119C529.531 19.8661 530.071 19.1782 530.535 18.4481C530.998 17.7181 531.363 16.988 531.63 16.2579C531.897 15.5279 532.03 14.8329 532.03 14.173C532.03 13.5413 531.876 13.0078 531.567 12.5725C531.272 12.1373 530.731 11.9197 529.945 11.9197C529.285 11.9197 528.674 12.1022 528.113 12.4672C527.551 12.8323 526.997 13.4009 526.449 14.173L526.049 13.8361C526.625 12.376 527.348 11.2879 528.218 10.5719C529.089 9.85586 530.177 9.49785 531.482 9.49785C532.241 9.49785 532.921 9.6242 533.525 9.87692C534.129 10.1156 534.606 10.4947 534.957 11.0141C535.322 11.5196 535.505 12.1794 535.505 12.9937C535.505 14.4398 535.041 15.7946 534.115 17.0582C533.202 18.3218 531.925 19.5081 530.282 20.6172V20.6594H533.357C534.157 20.6594 534.712 20.5611 535.02 20.3645C535.329 20.168 535.512 19.9153 535.568 19.6064ZM547.269 18.1322H548.743V20.7647H547.859C547.466 20.7647 547.269 21.0103 547.269 21.5017C547.269 21.8387 547.269 22.1686 547.269 22.4915C547.283 22.8004 547.297 23.1374 547.311 23.5024H543.984C544.012 23.0391 544.033 22.5898 544.047 22.1546C544.061 21.7053 544.075 21.242 544.089 20.7647H537.434V20.2803C537.799 19.9293 538.129 19.5643 538.424 19.1852L545.31 10.5719C545.465 10.3753 545.605 10.1858 545.732 10.0033C545.872 9.80672 545.984 9.63824 546.069 9.49785H547.29L547.269 18.1322ZM544.047 13.7308L540.53 18.1322H544.11V13.7308H544.047ZM566.021 9.49785V13.3938H565.536C565.466 12.7761 565.34 12.2496 565.157 11.8144C564.989 11.3651 564.722 11.0211 564.357 10.7825C564.006 10.5298 563.515 10.4034 562.883 10.4034H561.893C561.598 10.4034 561.367 10.4806 561.198 10.6351C561.044 10.7895 560.966 11.1124 560.966 11.6038V21.3964C560.966 22.0844 561.072 22.5196 561.282 22.7021C561.493 22.8846 561.879 22.9899 562.441 23.018V23.5024H556.439V23.018C556.846 22.9899 557.141 22.8846 557.323 22.7021C557.506 22.5196 557.597 22.0844 557.597 21.3964V11.6038C557.597 10.9158 557.492 10.4806 557.281 10.2981C557.085 10.1016 556.698 9.99625 556.123 9.98221V9.49785H566.021ZM574.458 9.18195C575.454 9.18195 576.381 9.35043 577.238 9.68738C578.094 10.0243 578.852 10.5157 579.512 11.1615C580.172 11.7933 580.684 12.5585 581.049 13.457C581.414 14.3556 581.597 15.3594 581.597 16.4685C581.597 17.5777 581.414 18.5815 581.049 19.48C580.684 20.3786 580.172 21.1507 579.512 21.7966C578.866 22.4424 578.108 22.9408 577.238 23.2918C576.367 23.6428 575.433 23.8183 574.437 23.8183C573.454 23.8183 572.527 23.6498 571.657 23.3128C570.8 22.9759 570.042 22.4915 569.382 21.8597C568.722 21.2139 568.21 20.4417 567.845 19.5432C567.48 18.6447 567.297 17.6408 567.297 16.5317C567.297 15.4226 567.48 14.4187 567.845 13.5202C568.21 12.6217 568.715 11.8495 569.361 11.2037C570.021 10.5578 570.786 10.0594 571.657 9.70844C572.527 9.35745 573.461 9.18195 574.458 9.18195ZM574.879 22.9127C575.609 22.9127 576.185 22.674 576.606 22.1967C577.027 21.7053 577.329 21.0314 577.511 20.175C577.708 19.3186 577.806 18.3218 577.806 17.1845C577.806 14.8961 577.455 13.1411 576.753 11.9197C576.065 10.6982 575.153 10.0875 574.015 10.0875C573.299 10.0875 572.724 10.3262 572.289 10.8035C571.867 11.2809 571.558 11.9548 571.362 12.8252C571.179 13.6817 571.088 14.6785 571.088 15.8157C571.088 18.1041 571.432 19.8591 572.12 21.0805C572.822 22.302 573.742 22.9127 574.879 22.9127ZM590.729 11.1615L594.225 21.3964C594.351 21.7615 594.534 22.0984 594.773 22.4073C595.025 22.7021 595.411 22.9057 595.931 23.018L594.962 27.8196H594.478C594.45 26.9491 594.323 26.191 594.099 25.5451C593.874 24.8993 593.593 24.3939 593.256 24.0289C592.919 23.6779 592.554 23.5024 592.161 23.5024H586.517C585.998 23.5024 585.485 23.6779 584.98 24.0289C584.489 24.3939 584.067 24.8993 583.716 25.5451C583.379 26.191 583.162 26.9491 583.064 27.8196H582.579V23.018C582.832 22.9057 583.078 22.7162 583.316 22.4494C583.555 22.1686 583.773 21.8527 583.969 21.5017C584.18 21.1507 584.341 20.8208 584.454 20.5119L588.034 11.1615C588.174 10.7965 588.307 10.4385 588.434 10.0875C588.56 9.73652 588.672 9.37851 588.771 9.01348H589.992C590.09 9.37851 590.203 9.73652 590.329 10.0875C590.469 10.4385 590.603 10.7965 590.729 11.1615ZM589.845 22.5968C590.406 22.5968 590.715 22.5056 590.771 22.3231C590.828 22.1405 590.778 21.8317 590.624 21.3964L588.16 13.815H588.118L584.833 22.5968H589.845ZM608.819 21.3964C609.015 21.8738 609.177 22.2248 609.303 22.4494C609.443 22.674 609.591 22.8215 609.745 22.8917C609.9 22.9478 610.089 22.9899 610.314 23.018V23.5024H604.438V23.018C605 22.9899 605.309 22.8215 605.365 22.5126C605.435 22.2037 605.386 21.8317 605.217 21.3964L604.165 18.6587C604.08 18.7289 603.968 18.778 603.828 18.8061C603.701 18.8202 603.561 18.8272 603.406 18.8272H601.027C600.732 18.8272 600.507 18.8623 600.353 18.9325C600.198 19.0027 600.065 19.1782 599.953 19.459L599.194 21.3964C599.012 21.8597 599.026 22.2388 599.237 22.5336C599.447 22.8285 599.861 22.9899 600.479 23.018V23.5024H596.646V23.018C596.955 22.9899 597.215 22.8355 597.425 22.5547C597.65 22.2599 597.854 21.8738 598.036 21.3964L602.08 11.1615C602.234 10.7965 602.367 10.4385 602.48 10.0875C602.606 9.73652 602.718 9.37851 602.817 9.01348H604.038C604.136 9.37851 604.249 9.73652 604.375 10.0875C604.501 10.4385 604.635 10.7965 604.775 11.1615L608.819 21.3964ZM603.301 17.9216C603.498 17.9216 603.624 17.8935 603.68 17.8374C603.75 17.7672 603.743 17.6268 603.659 17.4162L602.206 13.815H602.164L600.521 18.0059C600.591 17.9637 600.676 17.9427 600.774 17.9427C600.872 17.9286 600.985 17.9216 601.111 17.9216H603.301Z" fill="black"/>
<path d="M631.708 14.6015C629.609 13.7631 627.145 14.2102 625.466 15.8869C623.199 18.1503 623.199 21.8109 625.466 24.0743C627.145 25.7509 629.609 26.198 631.708 25.3597V22.6771C631.288 22.8727 630.84 22.9845 630.364 22.9845C628.685 22.9845 627.341 21.6432 627.341 19.9666C627.341 18.29 628.685 16.9487 630.364 16.9487C630.84 16.9487 631.316 17.0605 631.708 17.2561V14.6015Z" fill="black"/>
<path d="M630.768 11.9132C631.595 11.0843 631.595 9.71221 630.768 8.85468C629.941 8.02573 628.572 8.02573 627.717 8.85468C626.861 9.68363 626.89 11.0557 627.717 11.9132C628.572 12.7422 629.941 12.7422 630.768 11.9132Z" fill="black"/>
<path d="M654.791 19.6064H655.276L655.065 23.5024H644.914V23.018C645.027 22.9619 645.195 22.8636 645.42 22.7232C645.658 22.5828 645.904 22.4213 646.157 22.2388C646.859 21.7334 647.519 21.1578 648.136 20.5119C648.754 19.8661 649.295 19.1782 649.758 18.4481C650.221 17.7181 650.586 16.988 650.853 16.2579C651.12 15.5279 651.253 14.8329 651.253 14.173C651.253 13.5413 651.099 13.0078 650.79 12.5725C650.495 12.1373 649.955 11.9197 649.168 11.9197C648.509 11.9197 647.898 12.1022 647.336 12.4672C646.775 12.8323 646.22 13.4009 645.673 14.173L645.272 13.8361C645.848 12.376 646.571 11.2879 647.442 10.5719C648.312 9.85586 649.4 9.49785 650.706 9.49785C651.464 9.49785 652.145 9.6242 652.749 9.87692C653.352 10.1156 653.83 10.4947 654.181 11.0141C654.546 11.5196 654.728 12.1794 654.728 12.9937C654.728 14.4398 654.265 15.7946 653.338 17.0582C652.426 18.3218 651.148 19.5081 649.505 20.6172V20.6594H652.58C653.38 20.6594 653.935 20.5611 654.244 20.3645C654.553 20.168 654.735 19.9153 654.791 19.6064ZM663.755 9.49785C664.485 9.49785 665.201 9.63824 665.903 9.91903C666.605 10.1998 667.236 10.6351 667.798 11.2247C668.36 11.8144 668.802 12.5585 669.125 13.457C669.462 14.3415 669.63 15.3945 669.63 16.6159C669.63 17.8233 669.469 18.8763 669.146 19.7749C668.823 20.6734 668.381 21.4245 667.819 22.0282C667.257 22.6319 666.626 23.0812 665.924 23.376C665.222 23.6709 664.492 23.8183 663.733 23.8183C663.003 23.8183 662.287 23.6779 661.585 23.3971C660.883 23.1163 660.252 22.6811 659.69 22.0914C659.128 21.5017 658.679 20.7647 658.342 19.8802C658.019 18.9816 657.858 17.9216 657.858 16.7002C657.858 15.4928 658.019 14.4398 658.342 13.5413C658.665 12.6427 659.107 11.8916 659.669 11.2879C660.231 10.6842 660.862 10.2349 661.564 9.94009C662.266 9.64526 662.996 9.49785 663.755 9.49785ZM663.818 22.9127C664.225 22.9127 664.597 22.7302 664.934 22.3652C665.271 22.0001 665.538 21.3824 665.734 20.5119C665.945 19.6415 666.05 18.4481 666.05 16.9318C666.05 15.6121 665.959 14.4679 665.776 13.4991C665.608 12.5164 665.348 11.7582 664.997 11.2247C664.646 10.6772 664.204 10.4034 663.67 10.4034C663.277 10.4034 662.905 10.5859 662.554 10.9509C662.217 11.316 661.943 11.9337 661.733 12.8042C661.536 13.6746 661.438 14.868 661.438 16.3843C661.438 17.704 661.522 18.8553 661.691 19.838C661.873 20.8068 662.14 21.5649 662.491 22.1125C662.842 22.646 663.284 22.9127 663.818 22.9127ZM683.924 17.1424L677.396 17.711L677.248 16.0052L683.777 15.4366L683.924 17.1424ZM700.221 19.6064H700.706L700.495 23.5024H690.344V23.018C690.457 22.9619 690.625 22.8636 690.85 22.7232C691.089 22.5828 691.334 22.4213 691.587 22.2388C692.289 21.7334 692.949 21.1578 693.567 20.5119C694.184 19.8661 694.725 19.1782 695.188 18.4481C695.651 17.7181 696.016 16.988 696.283 16.2579C696.55 15.5279 696.683 14.8329 696.683 14.173C696.683 13.5413 696.529 13.0078 696.22 12.5725C695.925 12.1373 695.385 11.9197 694.598 11.9197C693.939 11.9197 693.328 12.1022 692.766 12.4672C692.205 12.8323 691.65 13.4009 691.103 14.173L690.702 13.8361C691.278 12.376 692.001 11.2879 692.872 10.5719C693.742 9.85586 694.83 9.49785 696.136 9.49785C696.894 9.49785 697.575 9.6242 698.179 9.87692C698.782 10.1156 699.26 10.4947 699.611 11.0141C699.976 11.5196 700.158 12.1794 700.158 12.9937C700.158 14.4398 699.695 15.7946 698.768 17.0582C697.856 18.3218 696.578 19.5081 694.935 20.6172V20.6594H698.01C698.81 20.6594 699.365 20.5611 699.674 20.3645C699.983 20.168 700.165 19.9153 700.221 19.6064ZM708.827 21.1858C708.827 21.7053 708.869 22.0984 708.953 22.3652C709.051 22.6179 709.248 22.7864 709.543 22.8706C709.851 22.9548 710.315 23.004 710.932 23.018V23.5024H703.14V23.018C703.772 23.004 704.236 22.9548 704.53 22.8706C704.839 22.7864 705.036 22.6179 705.12 22.3652C705.204 22.0984 705.246 21.7053 705.246 21.1858V12.025L703.309 13.2254L702.867 12.5515L707.753 9.49785H708.974C708.918 9.7646 708.876 10.0314 708.848 10.2981C708.834 10.5649 708.827 10.8316 708.827 11.0984V21.1858ZM718.46 23.5024V23.018C718.867 22.9899 719.162 22.8846 719.344 22.7021C719.527 22.5196 719.618 22.0844 719.618 21.3964V11.6038C719.618 10.9158 719.513 10.4806 719.302 10.2981C719.105 10.1016 718.719 9.99625 718.144 9.98221V9.49785H724.146V9.98221C723.739 9.99625 723.444 10.1016 723.261 10.2981C723.079 10.4806 722.987 10.9158 722.987 11.6038V15.3313C723.1 15.2471 723.233 15.1909 723.388 15.1628C723.556 15.1348 723.753 15.1207 723.977 15.1207H727.957C728.336 15.1207 728.603 15.0575 728.758 14.9312C728.912 14.8048 728.989 14.5521 728.989 14.173V11.6038C728.989 10.9158 728.884 10.4806 728.673 10.2981C728.477 10.1016 728.091 9.99625 727.515 9.98221V9.49785H733.517V9.98221C733.11 9.99625 732.815 10.1016 732.633 10.2981C732.45 10.4806 732.359 10.9158 732.359 11.6038V21.3964C732.359 22.0844 732.464 22.5196 732.675 22.7021C732.885 22.8846 733.271 22.9899 733.833 23.018V23.5024H727.831V23.018C728.238 22.9899 728.533 22.8846 728.716 22.7021C728.898 22.5196 728.989 22.0844 728.989 21.3964V15.7946C728.877 15.8929 728.737 15.9561 728.568 15.9842C728.4 16.0122 728.21 16.0263 728 16.0263H724.019C723.64 16.0263 723.373 16.0895 723.219 16.2158C723.065 16.3422 722.987 16.5879 722.987 16.9529V21.3964C722.987 22.0844 723.093 22.5196 723.303 22.7021C723.514 22.8846 723.9 22.9899 724.462 23.018V23.5024H718.46ZM743.121 9.18195C744.118 9.18195 745.045 9.35043 745.901 9.68738C746.758 10.0243 747.516 10.5157 748.176 11.1615C748.836 11.7933 749.348 12.5585 749.713 13.457C750.078 14.3556 750.261 15.3594 750.261 16.4685C750.261 17.5777 750.078 18.5815 749.713 19.48C749.348 20.3786 748.836 21.1507 748.176 21.7966C747.53 22.4424 746.772 22.9408 745.901 23.2918C745.031 23.6428 744.097 23.8183 743.1 23.8183C742.118 23.8183 741.191 23.6498 740.32 23.3128C739.464 22.9759 738.706 22.4915 738.046 21.8597C737.386 21.2139 736.874 20.4417 736.509 19.5432C736.144 18.6447 735.961 17.6408 735.961 16.5317C735.961 15.4226 736.144 14.4187 736.509 13.5202C736.874 12.6217 737.379 11.8495 738.025 11.2037C738.685 10.5578 739.45 10.0594 740.32 9.70844C741.191 9.35745 742.125 9.18195 743.121 9.18195ZM743.543 22.9127C744.273 22.9127 744.848 22.674 745.269 22.1967C745.691 21.7053 745.992 21.0314 746.175 20.175C746.372 19.3186 746.47 18.3218 746.47 17.1845C746.47 14.8961 746.119 13.1411 745.417 11.9197C744.729 10.6982 743.816 10.0875 742.679 10.0875C741.963 10.0875 741.387 10.3262 740.952 10.8035C740.531 11.2809 740.222 11.9548 740.026 12.8252C739.843 13.6817 739.752 14.6785 739.752 15.8157C739.752 18.1041 740.096 19.8591 740.784 21.0805C741.486 22.302 742.405 22.9127 743.543 22.9127ZM752.654 23.8183C752.303 23.8183 751.931 23.7902 751.538 23.734C751.145 23.6779 750.808 23.6007 750.527 23.5024V23.018C750.808 23.018 751.124 22.9057 751.475 22.6811C751.826 22.4564 752.184 22.0072 752.549 21.3333L755.56 15.8789C754.619 15.6402 753.903 15.2541 753.412 14.7206C752.935 14.1871 752.696 13.5413 752.696 12.7831C752.696 12.1935 752.872 11.6389 753.223 11.1194C753.588 10.6 754.177 10.1858 754.991 9.87692C755.82 9.554 756.929 9.39255 758.319 9.39255C758.768 9.39255 759.288 9.41361 759.877 9.45573C760.467 9.48381 761.12 9.49785 761.836 9.49785H764.531V9.98221C764.124 9.99625 763.829 10.1016 763.647 10.2981C763.464 10.4806 763.373 10.9158 763.373 11.6038V21.3964C763.373 22.0844 763.478 22.5196 763.689 22.7021C763.9 22.8846 764.286 22.9899 764.847 23.018V23.5024H758.845V23.018C759.253 22.9899 759.547 22.8846 759.73 22.7021C759.912 22.5196 760.004 22.0844 760.004 21.3964V11.6038C760.004 11.0562 759.905 10.7053 759.709 10.5508C759.526 10.3823 759.203 10.2981 758.74 10.2981C758.136 10.2981 757.589 10.5157 757.097 10.9509C756.62 11.3721 756.381 12.0109 756.381 12.8674C756.381 13.3166 756.473 13.7519 756.655 14.173C756.838 14.5802 757.161 14.9242 757.624 15.205C758.101 15.4858 758.754 15.6542 759.582 15.7104V16.4475C759.414 16.4475 759.267 16.4826 759.14 16.5528C759.014 16.6089 758.887 16.7563 758.761 16.995L756.381 21.586C756.059 22.2037 755.609 22.7302 755.034 23.1654C754.458 23.6007 753.665 23.8183 752.654 23.8183ZM771.502 15.0786H773.545C775.075 15.0786 776.283 15.2471 777.167 15.584C778.052 15.921 778.677 16.3843 779.042 16.974C779.421 17.5636 779.61 18.2445 779.61 19.0167C779.61 19.7889 779.4 20.519 778.978 21.2069C778.571 21.8808 777.932 22.4354 777.062 22.8706C776.206 23.2918 775.11 23.5024 773.777 23.5024L766.974 23.5024V23.018C767.382 22.9899 767.676 22.8846 767.859 22.7021C768.042 22.5196 768.133 22.0844 768.133 21.3964V11.6038C768.133 10.9158 768.027 10.4806 767.817 10.2981C767.62 10.1016 767.234 9.99625 766.659 9.98221V9.49785H778.241V12.9727H777.757C777.715 12.4953 777.624 12.0671 777.483 11.688C777.343 11.2949 777.104 10.986 776.767 10.7614C776.43 10.5227 775.946 10.4034 775.314 10.4034H772.429C772.134 10.4034 771.902 10.4806 771.734 10.6351C771.579 10.7895 771.502 11.1124 771.502 11.6038V15.0786ZM772.745 22.5968C773.489 22.5968 774.1 22.4213 774.577 22.0703C775.068 21.7053 775.433 21.256 775.672 20.7225C775.911 20.189 776.03 19.6625 776.03 19.1431C776.03 18.3709 775.883 17.7532 775.588 17.2898C775.307 16.8265 774.921 16.4966 774.43 16.3C773.952 16.0895 773.412 15.9842 772.808 15.9842H771.502V21.3964C771.502 21.8878 771.579 22.2107 771.734 22.3652C771.888 22.5196 772.225 22.5968 772.745 22.5968ZM781.844 23.5024V23.018C782.251 22.9899 782.546 22.8846 782.728 22.7021C782.911 22.5196 783.002 22.0844 783.002 21.3964V11.6038C783.002 10.9158 782.897 10.4806 782.686 10.2981C782.489 10.1016 782.103 9.99625 781.528 9.98221V9.49785H783.002C784.027 9.49785 784.988 9.48381 785.887 9.45573C786.786 9.41361 787.459 9.39255 787.909 9.39255C789.369 9.39255 790.52 9.554 791.362 9.87692C792.219 10.1998 792.83 10.628 793.195 11.1615C793.574 11.681 793.763 12.2566 793.763 12.8884C793.763 13.6185 793.525 14.3134 793.047 14.9733C792.584 15.6332 791.84 16.1456 790.815 16.5106C789.804 16.8616 788.463 16.974 786.793 16.8476V16.1105C787.551 16.1386 788.175 16.0052 788.667 15.7104C789.158 15.4015 789.516 14.9944 789.741 14.4889C789.98 13.9835 790.099 13.443 790.099 12.8674C790.099 12.0952 789.881 11.4774 789.446 11.0141C789.011 10.5368 788.407 10.2981 787.635 10.2981C787.172 10.2981 786.842 10.3823 786.645 10.5508C786.463 10.7053 786.371 11.0562 786.371 11.6038V21.3964C786.371 21.8457 786.414 22.1897 786.498 22.4284C786.596 22.653 786.765 22.8074 787.003 22.8917C787.256 22.9619 787.607 23.004 788.056 23.018V23.5024H781.844ZM795.986 23.8183C795.635 23.8183 795.263 23.7902 794.87 23.734C794.477 23.6779 794.14 23.6007 793.859 23.5024V23.018C794.14 23.018 794.456 22.9057 794.807 22.6811C795.158 22.4564 795.516 22.0072 795.881 21.3333L798.892 15.8789C797.952 15.6402 797.236 15.2541 796.744 14.7206C796.267 14.1871 796.028 13.5413 796.028 12.7831C796.028 12.1935 796.204 11.6389 796.555 11.1194C796.92 10.6 797.509 10.1858 798.324 9.87692C799.152 9.554 800.261 9.39255 801.651 9.39255C802.1 9.39255 802.62 9.41361 803.21 9.45573C803.799 9.48381 804.452 9.49785 805.168 9.49785H807.864V9.98221C807.457 9.99625 807.162 10.1016 806.979 10.2981C806.797 10.4806 806.705 10.9158 806.705 11.6038V21.3964C806.705 22.0844 806.811 22.5196 807.021 22.7021C807.232 22.8846 807.618 22.9899 808.18 23.018V23.5024H802.178V23.018C802.585 22.9899 802.88 22.8846 803.062 22.7021C803.245 22.5196 803.336 22.0844 803.336 21.3964V11.6038C803.336 11.0562 803.238 10.7053 803.041 10.5508C802.859 10.3823 802.536 10.2981 802.072 10.2981C801.469 10.2981 800.921 10.5157 800.43 10.9509C799.952 11.3721 799.714 12.0109 799.714 12.8674C799.714 13.3166 799.805 13.7519 799.987 14.173C800.17 14.5802 800.493 14.9242 800.956 15.205C801.434 15.4858 802.086 15.6542 802.915 15.7104V16.4475C802.746 16.4475 802.599 16.4826 802.473 16.5528C802.346 16.6089 802.22 16.7563 802.093 16.995L799.714 21.586C799.391 22.2037 798.942 22.7302 798.366 23.1654C797.79 23.6007 796.997 23.8183 795.986 23.8183ZM824.912 19.6064H825.397L825.186 23.5024H815.035V23.018C815.148 22.9619 815.316 22.8636 815.541 22.7232C815.779 22.5828 816.025 22.4213 816.278 22.2388C816.98 21.7334 817.64 21.1578 818.257 20.5119C818.875 19.8661 819.416 19.1782 819.879 18.4481C820.342 17.7181 820.707 16.988 820.974 16.2579C821.241 15.5279 821.374 14.8329 821.374 14.173C821.374 13.5413 821.22 13.0078 820.911 12.5725C820.616 12.1373 820.076 11.9197 819.289 11.9197C818.629 11.9197 818.019 12.1022 817.457 12.4672C816.896 12.8323 816.341 13.4009 815.793 14.173L815.393 13.8361C815.969 12.376 816.692 11.2879 817.562 10.5719C818.433 9.85586 819.521 9.49785 820.827 9.49785C821.585 9.49785 822.266 9.6242 822.869 9.87692C823.473 10.1156 823.95 10.4947 824.301 11.0141C824.666 11.5196 824.849 12.1794 824.849 12.9937C824.849 14.4398 824.386 15.7946 823.459 17.0582C822.546 18.3218 821.269 19.5081 819.626 20.6172V20.6594H822.701C823.501 20.6594 824.056 20.5611 824.365 20.3645C824.673 20.168 824.856 19.9153 824.912 19.6064ZM833.875 9.49785C834.605 9.49785 835.322 9.63824 836.024 9.91903C836.725 10.1998 837.357 10.6351 837.919 11.2247C838.48 11.8144 838.923 12.5585 839.246 13.457C839.583 14.3415 839.751 15.3945 839.751 16.6159C839.751 17.8233 839.59 18.8763 839.267 19.7749C838.944 20.6734 838.501 21.4245 837.94 22.0282C837.378 22.6319 836.747 23.0812 836.045 23.376C835.343 23.6709 834.613 23.8183 833.854 23.8183C833.124 23.8183 832.408 23.6779 831.706 23.3971C831.004 23.1163 830.373 22.6811 829.811 22.0914C829.249 21.5017 828.8 20.7647 828.463 19.8802C828.14 18.9816 827.979 17.9216 827.979 16.7002C827.979 15.4928 828.14 14.4398 828.463 13.5413C828.786 12.6427 829.228 11.8916 829.79 11.2879C830.351 10.6842 830.983 10.2349 831.685 9.94009C832.387 9.64526 833.117 9.49785 833.875 9.49785ZM833.939 22.9127C834.346 22.9127 834.718 22.7302 835.055 22.3652C835.392 22.0001 835.658 21.3824 835.855 20.5119C836.066 19.6415 836.171 18.4481 836.171 16.9318C836.171 15.6121 836.08 14.4679 835.897 13.4991C835.729 12.5164 835.469 11.7582 835.118 11.2247C834.767 10.6772 834.325 10.4034 833.791 10.4034C833.398 10.4034 833.026 10.5859 832.675 10.9509C832.338 11.316 832.064 11.9337 831.854 12.8042C831.657 13.6746 831.559 14.868 831.559 16.3843C831.559 17.704 831.643 18.8553 831.812 19.838C831.994 20.8068 832.261 21.5649 832.612 22.1125C832.963 22.646 833.405 22.9127 833.939 22.9127ZM851.38 19.6064H851.865L851.654 23.5024H841.504V23.018C841.616 22.9619 841.784 22.8636 842.009 22.7232C842.248 22.5828 842.493 22.4213 842.746 22.2388C843.448 21.7334 844.108 21.1578 844.726 20.5119C845.343 19.8661 845.884 19.1782 846.347 18.4481C846.811 17.7181 847.176 16.988 847.442 16.2579C847.709 15.5279 847.842 14.8329 847.842 14.173C847.842 13.5413 847.688 13.0078 847.379 12.5725C847.084 12.1373 846.544 11.9197 845.758 11.9197C845.098 11.9197 844.487 12.1022 843.925 12.4672C843.364 12.8323 842.809 13.4009 842.262 14.173L841.862 13.8361C842.437 12.376 843.16 11.2879 844.031 10.5719C844.901 9.85586 845.989 9.49785 847.295 9.49785C848.053 9.49785 848.734 9.6242 849.338 9.87692C849.941 10.1156 850.419 10.4947 850.77 11.0141C851.135 11.5196 851.317 12.1794 851.317 12.9937C851.317 14.4398 850.854 15.7946 849.927 17.0582C849.015 18.3218 847.737 19.5081 846.095 20.6172V20.6594H849.169C849.969 20.6594 850.524 20.5611 850.833 20.3645C851.142 20.168 851.324 19.9153 851.38 19.6064ZM863.081 18.1322H864.556V20.7647H863.671C863.278 20.7647 863.081 21.0103 863.081 21.5017C863.081 21.8387 863.081 22.1686 863.081 22.4915C863.095 22.8004 863.11 23.1374 863.124 23.5024H859.796C859.824 23.0391 859.845 22.5898 859.859 22.1546C859.873 21.7053 859.887 21.242 859.901 20.7647H853.247V20.2803C853.612 19.9293 853.942 19.5643 854.236 19.1852L861.123 10.5719C861.277 10.3753 861.418 10.1858 861.544 10.0033C861.685 9.80672 861.797 9.63824 861.881 9.49785H863.103L863.081 18.1322ZM859.859 13.7308L856.342 18.1322H859.923V13.7308H859.859ZM881.833 9.49785V13.3938H881.349C881.279 12.7761 881.152 12.2496 880.97 11.8144C880.801 11.3651 880.535 11.0211 880.17 10.7825C879.819 10.5298 879.327 10.4034 878.695 10.4034H877.706C877.411 10.4034 877.179 10.4806 877.011 10.6351C876.856 10.7895 876.779 11.1124 876.779 11.6038V21.3964C876.779 22.0844 876.884 22.5196 877.095 22.7021C877.305 22.8846 877.692 22.9899 878.253 23.018V23.5024H872.251V23.018C872.658 22.9899 872.953 22.8846 873.136 22.7021C873.318 22.5196 873.409 22.0844 873.409 21.3964V11.6038C873.409 10.9158 873.304 10.4806 873.094 10.2981C872.897 10.1016 872.511 9.99625 871.935 9.98221V9.49785H881.833ZM890.27 9.18195C891.267 9.18195 892.194 9.35043 893.05 9.68738C893.906 10.0243 894.665 10.5157 895.324 11.1615C895.984 11.7933 896.497 12.5585 896.862 13.457C897.227 14.3556 897.409 15.3594 897.409 16.4685C897.409 17.5777 897.227 18.5815 896.862 19.48C896.497 20.3786 895.984 21.1507 895.324 21.7966C894.679 22.4424 893.92 22.9408 893.05 23.2918C892.18 23.6428 891.246 23.8183 890.249 23.8183C889.266 23.8183 888.34 23.6498 887.469 23.3128C886.613 22.9759 885.855 22.4915 885.195 21.8597C884.535 21.2139 884.023 20.4417 883.658 19.5432C883.292 18.6447 883.11 17.6408 883.11 16.5317C883.11 15.4226 883.292 14.4187 883.658 13.5202C884.023 12.6217 884.528 11.8495 885.174 11.2037C885.834 10.5578 886.599 10.0594 887.469 9.70844C888.34 9.35745 889.273 9.18195 890.27 9.18195ZM890.691 22.9127C891.421 22.9127 891.997 22.674 892.418 22.1967C892.839 21.7053 893.141 21.0314 893.324 20.175C893.52 19.3186 893.619 18.3218 893.619 17.1845C893.619 14.8961 893.268 13.1411 892.566 11.9197C891.878 10.6982 890.965 10.0875 889.828 10.0875C889.112 10.0875 888.536 10.3262 888.101 10.8035C887.68 11.2809 887.371 11.9548 887.174 12.8252C886.992 13.6817 886.901 14.6785 886.901 15.8157C886.901 18.1041 887.245 19.8591 887.933 21.0805C888.635 22.302 889.554 22.9127 890.691 22.9127ZM906.542 11.1615L910.038 21.3964C910.164 21.7615 910.346 22.0984 910.585 22.4073C910.838 22.7021 911.224 22.9057 911.743 23.018L910.775 27.8196H910.29C910.262 26.9491 910.136 26.191 909.911 25.5451C909.687 24.8993 909.406 24.3939 909.069 24.0289C908.732 23.6779 908.367 23.5024 907.974 23.5024H902.33C901.81 23.5024 901.298 23.6779 900.792 24.0289C900.301 24.3939 899.88 24.8993 899.529 25.5451C899.192 26.191 898.974 26.9491 898.876 27.8196H898.392V23.018C898.644 22.9057 898.89 22.7162 899.129 22.4494C899.367 22.1686 899.585 21.8527 899.782 21.5017C899.992 21.1507 900.154 20.8208 900.266 20.5119L903.846 11.1615C903.987 10.7965 904.12 10.4385 904.246 10.0875C904.373 9.73652 904.485 9.37851 904.583 9.01348H905.805C905.903 9.37851 906.015 9.73652 906.142 10.0875C906.282 10.4385 906.415 10.7965 906.542 11.1615ZM905.657 22.5968C906.219 22.5968 906.528 22.5056 906.584 22.3231C906.64 22.1405 906.591 21.8317 906.436 21.3964L903.972 13.815H903.93L900.645 22.5968H905.657ZM924.631 21.3964C924.828 21.8738 924.989 22.2248 925.116 22.4494C925.256 22.674 925.403 22.8215 925.558 22.8917C925.712 22.9478 925.902 22.9899 926.126 23.018V23.5024H920.251V23.018C920.812 22.9899 921.121 22.8215 921.177 22.5126C921.248 22.2037 921.198 21.8317 921.03 21.3964L919.977 18.6587C919.893 18.7289 919.78 18.778 919.64 18.8061C919.514 18.8202 919.373 18.8272 919.219 18.8272H916.839C916.544 18.8272 916.32 18.8623 916.165 18.9325C916.011 19.0027 915.877 19.1782 915.765 19.459L915.007 21.3964C914.824 21.8597 914.839 22.2388 915.049 22.5336C915.26 22.8285 915.674 22.9899 916.292 23.018V23.5024H912.459V23.018C912.768 22.9899 913.027 22.8355 913.238 22.5547C913.463 22.2599 913.666 21.8738 913.849 21.3964L917.892 11.1615C918.047 10.7965 918.18 10.4385 918.292 10.0875C918.419 9.73652 918.531 9.37851 918.629 9.01348H919.851C919.949 9.37851 920.061 9.73652 920.188 10.0875C920.314 10.4385 920.447 10.7965 920.588 11.1615L924.631 21.3964ZM919.114 17.9216C919.31 17.9216 919.436 17.8935 919.493 17.8374C919.563 17.7672 919.556 17.6268 919.472 17.4162L918.018 13.815H917.976L916.334 18.0059C916.404 17.9637 916.488 17.9427 916.586 17.9427C916.685 17.9286 916.797 17.9216 916.923 17.9216H919.114Z" fill="black"/>
<defs>
<linearGradient id="paint0_linear_614_2649" x1="0" y1="17" x2="937.698" y2="17" gradientUnits="userSpaceOnUse">
<stop stop-color="white"/>
<stop offset="0.325" stop-color="#D4D4D4"/>
<stop offset="0.685" stop-color="white"/>
<stop offset="0.98" stop-color="#D4D4D4"/>
</linearGradient>
</defs>
</svg>
