<svg width="2840" height="90" viewBox="0 0 2840 90" fill="none" xmlns="http://www.w3.org/2000/svg">
<rect width="2839.6" height="90" transform="translate(0.257812)" fill="url(#paint0_linear_562_1115)"/>
<path d="M43.4078 62V60.85C44.3745 60.7833 45.0745 60.5333 45.5078 60.1C45.9411 59.6667 46.1578 58.6333 46.1578 57V33.75C46.1578 32.1167 45.9078 31.0833 45.4078 30.65C44.9411 30.1833 44.0245 29.9333 42.6578 29.9V28.75H56.9078V29.9C55.9411 29.9333 55.2411 30.1833 54.8078 30.65C54.3745 31.0833 54.1578 32.1167 54.1578 33.75V57C54.1578 58.6333 54.4078 59.6667 54.9078 60.1C55.4078 60.5333 56.3245 60.7833 57.6578 60.85V62H43.4078ZM92.282 62.4C91.782 61.8667 91.2654 61.35 90.732 60.85C90.1987 60.3167 89.3487 59.5333 88.182 58.5L68.482 40.5H68.382V57C68.382 58.1333 68.6654 59.05 69.232 59.75C69.832 60.4167 70.8487 60.7833 72.282 60.85V62H63.032V60.85C63.9987 60.7833 64.6987 60.4167 65.132 59.75C65.5654 59.05 65.782 58.1333 65.782 57V33.75C65.782 32.1167 65.532 31.0833 65.032 30.65C64.5654 30.1833 63.6487 29.9333 62.282 29.9V28.75H68.282C68.782 29.3833 69.3154 29.95 69.882 30.45C70.4487 30.95 71.0987 31.55 71.832 32.25L91.732 50.25H91.832V33.75C91.832 32.6167 91.5487 31.7 90.982 31C90.4154 30.3 89.3987 29.9333 87.932 29.9V28.75L97.182 28.75V29.9C96.2154 29.9333 95.5154 30.3 95.082 31C94.6487 31.7 94.432 32.6167 94.432 33.75V57C94.432 57.9333 94.432 58.8333 94.432 59.7C94.4654 60.5333 94.4987 61.4333 94.532 62.4H92.282ZM101.136 28.75L129.636 28.75V37H128.486C128.286 35.2 127.753 33.7333 126.886 32.6C126.02 31.4667 124.536 30.9 122.436 30.9L119.386 30.9V57C119.386 58.6333 119.636 59.6667 120.136 60.1C120.636 60.5333 121.553 60.7833 122.886 60.85V62H108.636V60.85C109.603 60.7833 110.303 60.5333 110.736 60.1C111.17 59.6667 111.386 58.6333 111.386 57V30.9H108.286C106.253 30.9 104.786 31.4667 103.886 32.6C103.02 33.7333 102.486 35.2 102.286 37H101.136V28.75ZM134.173 62V60.85C135.14 60.7833 135.84 60.5333 136.273 60.1C136.707 59.6667 136.923 58.6333 136.923 57V33.75C136.923 32.1167 136.673 31.0833 136.173 30.65C135.707 30.1833 134.79 29.9333 133.423 29.9V28.75H157.973V35.75H156.823C156.757 34.3167 156.257 33.15 155.323 32.25C154.423 31.35 153.023 30.9 151.123 30.9H147.123C146.423 30.9 145.873 31.0833 145.473 31.45C145.107 31.8167 144.923 32.5833 144.923 33.75V43.6C145.19 43.4 145.507 43.2667 145.873 43.2C146.273 43.1333 146.74 43.1 147.273 43.1H152.123C153.123 43.1 153.957 42.8167 154.623 42.25C155.29 41.6833 155.64 40.9 155.673 39.9H156.823V48.4H155.673C155.64 47.1667 155.29 46.3333 154.623 45.9C153.957 45.4667 153.123 45.25 152.123 45.25H147.373C146.473 45.25 145.84 45.4 145.473 45.7C145.107 46 144.923 46.5833 144.923 47.45V57C144.923 58.1667 145.173 58.9333 145.673 59.3C146.207 59.6667 147.223 59.85 148.723 59.85H153.473C155.473 59.85 157.057 59.25 158.223 58.05C159.39 56.85 160.04 55.4167 160.173 53.75H161.323L160.923 62H134.173ZM194.868 62.75C193.368 62.75 192.084 62.5 191.018 62C189.951 61.5333 189.051 60.9 188.318 60.1C187.584 59.3 186.901 58.4167 186.268 57.45L179.268 46.55C178.934 45.9833 178.634 45.6333 178.368 45.5C178.101 45.3667 177.784 45.2833 177.418 45.25V43.5C179.418 43.3667 180.968 42.9667 182.068 42.3C183.168 41.6333 183.934 40.8167 184.368 39.85C184.801 38.85 185.018 37.8167 185.018 36.75C185.018 34.7167 184.451 33.2 183.318 32.2C182.184 31.1667 180.884 30.65 179.418 30.65C178.318 30.65 177.534 30.85 177.068 31.25C176.634 31.6167 176.418 32.45 176.418 33.75V57C176.418 58.6333 176.668 59.6667 177.168 60.1C177.668 60.5333 178.584 60.7833 179.918 60.85V62H165.668V60.85C166.634 60.7833 167.334 60.5333 167.768 60.1C168.201 59.6667 168.418 58.6333 168.418 57V33.75C168.418 32.1167 168.168 31.0833 167.668 30.65C167.201 30.1833 166.284 29.9333 164.918 29.9V28.75H168.418C170.918 28.75 173.184 28.7167 175.218 28.65C177.251 28.55 178.984 28.5 180.418 28.5C183.718 28.5 186.334 28.8167 188.268 29.45C190.234 30.05 191.634 30.9 192.468 32C193.334 33.1 193.768 34.35 193.768 35.75C193.768 37.0833 193.434 38.3 192.768 39.4C192.134 40.5 191.284 41.4333 190.218 42.2C189.184 42.9333 188.051 43.45 186.818 43.75V43.85L195.118 56.85C196.084 58.3833 196.968 59.4333 197.768 60C198.568 60.5667 199.284 60.85 199.918 60.85V62C199.251 62.2333 198.451 62.4167 197.518 62.55C196.618 62.6833 195.734 62.75 194.868 62.75ZM218.481 62.75C214.981 62.75 211.881 62.05 209.181 60.65C206.481 59.25 204.364 57.2833 202.831 54.75C201.298 52.1833 200.531 49.2167 200.531 45.85C200.531 43.0833 201.031 40.6167 202.031 38.45C203.031 36.25 204.398 34.3667 206.131 32.8C207.898 31.2333 209.914 30.05 212.181 29.25C214.481 28.4167 216.931 28 219.531 28C221.498 28 223.381 28.1833 225.181 28.55C226.981 28.9167 228.414 29.35 229.481 29.85V37.75H228.331C227.664 35.7167 226.864 34.1667 225.931 33.1C224.998 32 223.948 31.2333 222.781 30.8C221.648 30.3667 220.448 30.15 219.181 30.15C212.748 30.15 209.531 34.8167 209.531 44.15C209.531 47.2167 209.848 50 210.481 52.5C211.148 55 212.164 56.9833 213.531 58.45C214.931 59.8833 216.714 60.6 218.881 60.6C220.648 60.6 222.248 60.1667 223.681 59.3C225.114 58.4 226.331 57.2167 227.331 55.75C228.364 54.2833 229.098 52.7 229.531 51H230.681L230.281 58.6C229.181 59.8 227.631 60.8 225.631 61.6C223.631 62.3667 221.248 62.75 218.481 62.75ZM251.857 28C254.224 28 256.424 28.4 258.457 29.2C260.49 30 262.29 31.1667 263.857 32.7C265.424 34.2 266.64 36.0167 267.507 38.15C268.374 40.2833 268.807 42.6667 268.807 45.3C268.807 47.9333 268.374 50.3167 267.507 52.45C266.64 54.5833 265.424 56.4167 263.857 57.95C262.324 59.4833 260.524 60.6667 258.457 61.5C256.39 62.3333 254.174 62.75 251.807 62.75C249.474 62.75 247.274 62.35 245.207 61.55C243.174 60.75 241.374 59.6 239.807 58.1C238.24 56.5667 237.024 54.7333 236.157 52.6C235.29 50.4667 234.857 48.0833 234.857 45.45C234.857 42.8167 235.29 40.4333 236.157 38.3C237.024 36.1667 238.224 34.3333 239.757 32.8C241.324 31.2667 243.14 30.0833 245.207 29.25C247.274 28.4167 249.49 28 251.857 28ZM252.857 60.6C254.59 60.6 255.957 60.0333 256.957 58.9C257.957 57.7333 258.674 56.1333 259.107 54.1C259.574 52.0667 259.807 49.7 259.807 47C259.807 41.5667 258.974 37.4 257.307 34.5C255.674 31.6 253.507 30.15 250.807 30.15C249.107 30.15 247.74 30.7167 246.707 31.85C245.707 32.9833 244.974 34.5833 244.507 36.65C244.074 38.6833 243.857 41.05 243.857 43.75C243.857 49.1833 244.674 53.35 246.307 56.25C247.974 59.15 250.157 60.6 252.857 60.6ZM291.953 62.4C291.686 61.6333 291.353 60.85 290.953 60.05C290.586 59.2167 290.086 58.1333 289.453 56.8L280.453 38H280.353L279.453 57C279.42 58.1333 279.686 59.05 280.253 59.75C280.82 60.4167 281.853 60.7833 283.353 60.85V62H274.103V60.85C275.07 60.7833 275.753 60.4167 276.153 59.75C276.586 59.05 276.82 58.1333 276.853 57L277.903 33.75C277.97 32.5833 277.886 31.75 277.653 31.25C277.453 30.75 277.086 30.4333 276.553 30.3C276.02 30.1333 275.303 30 274.403 29.9V28.75H285.103C285.37 29.6167 285.67 30.4333 286.003 31.2C286.37 31.9667 286.77 32.8167 287.203 33.75L295.803 51.75H295.903L303.903 33.75C304.67 32.05 305.253 30.3833 305.653 28.75H316.253V29.9C315.62 29.9333 315.086 30.0333 314.653 30.2C314.22 30.3667 313.903 30.7167 313.703 31.25C313.536 31.75 313.47 32.5833 313.503 33.75L314.553 57C314.62 58.0667 314.753 58.8667 314.953 59.4C315.186 59.9333 315.553 60.3 316.053 60.5C316.553 60.6667 317.22 60.7833 318.053 60.85V62H303.803V60.85C304.87 60.7833 305.603 60.5333 306.003 60.1C306.436 59.6667 306.62 58.6333 306.553 57L305.703 36.55H305.603L296.553 56.8C295.92 58.2 295.453 59.3 295.153 60.1C294.886 60.8667 294.653 61.6333 294.453 62.4H291.953ZM339.951 62.4C339.685 61.6333 339.351 60.85 338.951 60.05C338.585 59.2167 338.085 58.1333 337.451 56.8L328.451 38H328.351L327.451 57C327.418 58.1333 327.685 59.05 328.251 59.75C328.818 60.4167 329.851 60.7833 331.351 60.85V62H322.101V60.85C323.068 60.7833 323.751 60.4167 324.151 59.75C324.585 59.05 324.818 58.1333 324.851 57L325.901 33.75C325.968 32.5833 325.885 31.75 325.651 31.25C325.451 30.75 325.085 30.4333 324.551 30.3C324.018 30.1333 323.301 30 322.401 29.9V28.75H333.101C333.368 29.6167 333.668 30.4333 334.001 31.2C334.368 31.9667 334.768 32.8167 335.201 33.75L343.801 51.75H343.901L351.901 33.75C352.668 32.05 353.251 30.3833 353.651 28.75H364.251V29.9C363.618 29.9333 363.085 30.0333 362.651 30.2C362.218 30.3667 361.901 30.7167 361.701 31.25C361.535 31.75 361.468 32.5833 361.501 33.75L362.551 57C362.618 58.0667 362.751 58.8667 362.951 59.4C363.185 59.9333 363.551 60.3 364.051 60.5C364.551 60.6667 365.218 60.7833 366.051 60.85V62L351.801 62V60.85C352.868 60.7833 353.601 60.5333 354.001 60.1C354.435 59.6667 354.618 58.6333 354.551 57L353.701 36.55H353.601L344.551 56.8C343.918 58.2 343.451 59.3 343.151 60.1C342.885 60.8667 342.651 61.6333 342.451 62.4H339.951ZM405.276 52.75H406.426L405.926 62H381.826V60.85C382.092 60.7167 382.492 60.4833 383.026 60.15C383.592 59.8167 384.176 59.4333 384.776 59C386.442 57.8 388.009 56.4333 389.476 54.9C390.942 53.3667 392.226 51.7333 393.326 50C394.426 48.2667 395.292 46.5333 395.926 44.8C396.559 43.0667 396.876 41.4167 396.876 39.85C396.876 38.35 396.509 37.0833 395.776 36.05C395.076 35.0167 393.792 34.5 391.926 34.5C390.359 34.5 388.909 34.9333 387.576 35.8C386.242 36.6667 384.926 38.0167 383.626 39.85L382.676 39.05C384.042 35.5833 385.759 33 387.826 31.3C389.892 29.6 392.476 28.75 395.576 28.75C397.376 28.75 398.992 29.05 400.426 29.65C401.859 30.2167 402.992 31.1167 403.826 32.35C404.692 33.55 405.126 35.1167 405.126 37.05C405.126 40.4833 404.026 43.7 401.826 46.7C399.659 49.7 396.626 52.5167 392.726 55.15V55.25H400.026C401.926 55.25 403.242 55.0167 403.976 54.55C404.709 54.0833 405.142 53.4833 405.276 52.75ZM426.557 28.75C428.29 28.75 429.99 29.0833 431.657 29.75C433.323 30.4167 434.823 31.45 436.157 32.85C437.49 34.25 438.54 36.0167 439.307 38.15C440.107 40.25 440.507 42.75 440.507 45.65C440.507 48.5167 440.123 51.0167 439.357 53.15C438.59 55.2833 437.54 57.0667 436.207 58.5C434.873 59.9333 433.373 61 431.707 61.7C430.04 62.4 428.307 62.75 426.507 62.75C424.773 62.75 423.073 62.4167 421.407 61.75C419.74 61.0833 418.24 60.05 416.907 58.65C415.573 57.25 414.507 55.5 413.707 53.4C412.94 51.2667 412.557 48.75 412.557 45.85C412.557 42.9833 412.94 40.4833 413.707 38.35C414.473 36.2167 415.523 34.4333 416.857 33C418.19 31.5667 419.69 30.5 421.357 29.8C423.023 29.1 424.757 28.75 426.557 28.75ZM426.707 60.6C427.673 60.6 428.557 60.1667 429.357 59.3C430.157 58.4333 430.79 56.9667 431.257 54.9C431.757 52.8333 432.007 50 432.007 46.4C432.007 43.2667 431.79 40.55 431.357 38.25C430.957 35.9167 430.34 34.1167 429.507 32.85C428.673 31.55 427.623 30.9 426.357 30.9C425.423 30.9 424.54 31.3333 423.707 32.2C422.907 33.0667 422.257 34.5333 421.757 36.6C421.29 38.6667 421.057 41.5 421.057 45.1C421.057 48.2333 421.257 50.9667 421.657 53.3C422.09 55.6 422.723 57.4 423.557 58.7C424.39 59.9667 425.44 60.6 426.707 60.6ZM468.118 52.75H469.268L468.768 62H444.668V60.85C444.934 60.7167 445.334 60.4833 445.868 60.15C446.434 59.8167 447.018 59.4333 447.618 59C449.284 57.8 450.851 56.4333 452.318 54.9C453.784 53.3667 455.068 51.7333 456.168 50C457.268 48.2667 458.134 46.5333 458.768 44.8C459.401 43.0667 459.718 41.4167 459.718 39.85C459.718 38.35 459.351 37.0833 458.618 36.05C457.918 35.0167 456.634 34.5 454.768 34.5C453.201 34.5 451.751 34.9333 450.418 35.8C449.084 36.6667 447.768 38.0167 446.468 39.85L445.518 39.05C446.884 35.5833 448.601 33 450.668 31.3C452.734 29.6 455.318 28.75 458.418 28.75C460.218 28.75 461.834 29.05 463.268 29.65C464.701 30.2167 465.834 31.1167 466.668 32.35C467.534 33.55 467.968 35.1167 467.968 37.05C467.968 40.4833 466.868 43.7 464.668 46.7C462.501 49.7 459.468 52.5167 455.568 55.15V55.25H462.868C464.768 55.25 466.084 55.0167 466.818 54.55C467.551 54.0833 467.984 53.4833 468.118 52.75ZM495.898 49.25H499.398V55.5H497.298C496.365 55.5 495.898 56.0833 495.898 57.25C495.898 58.05 495.898 58.8333 495.898 59.6C495.932 60.3333 495.965 61.1333 495.998 62L488.098 62C488.165 60.9 488.215 59.8333 488.248 58.8C488.282 57.7333 488.315 56.6333 488.348 55.5L472.548 55.5V54.35C473.415 53.5167 474.198 52.65 474.898 51.75L491.248 31.3C491.615 30.8333 491.948 30.3833 492.248 29.95C492.582 29.4833 492.848 29.0833 493.048 28.75H495.948L495.898 49.25ZM488.248 38.8L479.898 49.25L488.398 49.25V38.8H488.248Z" fill="black"/>
<path d="M571.657 37.0198C564.679 34.2333 556.492 35.7194 550.91 41.2924C543.374 48.8158 543.374 60.9834 550.91 68.5068C556.492 74.0798 564.679 75.5659 571.657 72.7794V63.8627C570.261 64.5129 568.773 64.8844 567.191 64.8844C561.609 64.8844 557.143 60.4261 557.143 54.8532C557.143 49.2802 561.609 44.8219 567.191 44.8219C568.773 44.8219 570.354 45.1934 571.657 45.8436V37.0198Z" fill="black"/>
<path d="M568.496 28.084C571.244 25.3287 571.244 20.768 568.496 17.9177C565.747 15.1623 561.198 15.1623 558.355 17.9177C555.512 20.673 555.606 25.2337 558.355 28.084C561.198 30.8394 565.747 30.8394 568.496 28.084Z" fill="black"/>
<path d="M617.806 62V60.85C618.773 60.7833 619.473 60.5333 619.906 60.1C620.34 59.6667 620.556 58.6333 620.556 57V33.75C620.556 32.1167 620.306 31.0833 619.806 30.65C619.34 30.1833 618.423 29.9333 617.056 29.9V28.75H631.306V29.9C630.34 29.9333 629.64 30.1833 629.206 30.65C628.773 31.0833 628.556 32.1167 628.556 33.75V57C628.556 58.6333 628.806 59.6667 629.306 60.1C629.806 60.5333 630.723 60.7833 632.056 60.85V62H617.806ZM666.68 62.4C666.18 61.8667 665.664 61.35 665.13 60.85C664.597 60.3167 663.747 59.5333 662.58 58.5L642.88 40.5H642.78V57C642.78 58.1333 643.064 59.05 643.63 59.75C644.23 60.4167 645.247 60.7833 646.68 60.85V62H637.43V60.85C638.397 60.7833 639.097 60.4167 639.53 59.75C639.964 59.05 640.18 58.1333 640.18 57V33.75C640.18 32.1167 639.93 31.0833 639.43 30.65C638.964 30.1833 638.047 29.9333 636.68 29.9V28.75H642.68C643.18 29.3833 643.714 29.95 644.28 30.45C644.847 30.95 645.497 31.55 646.23 32.25L666.13 50.25H666.23V33.75C666.23 32.6167 665.947 31.7 665.38 31C664.814 30.3 663.797 29.9333 662.33 29.9V28.75L671.58 28.75V29.9C670.614 29.9333 669.914 30.3 669.48 31C669.047 31.7 668.83 32.6167 668.83 33.75V57C668.83 57.9333 668.83 58.8333 668.83 59.7C668.864 60.5333 668.897 61.4333 668.93 62.4H666.68ZM675.535 28.75L704.035 28.75V37H702.885C702.685 35.2 702.151 33.7333 701.285 32.6C700.418 31.4667 698.935 30.9 696.835 30.9L693.785 30.9V57C693.785 58.6333 694.035 59.6667 694.535 60.1C695.035 60.5333 695.951 60.7833 697.285 60.85V62H683.035V60.85C684.001 60.7833 684.701 60.5333 685.135 60.1C685.568 59.6667 685.785 58.6333 685.785 57V30.9H682.685C680.651 30.9 679.185 31.4667 678.285 32.6C677.418 33.7333 676.885 35.2 676.685 37H675.535V28.75ZM708.572 62V60.85C709.539 60.7833 710.239 60.5333 710.672 60.1C711.105 59.6667 711.322 58.6333 711.322 57V33.75C711.322 32.1167 711.072 31.0833 710.572 30.65C710.105 30.1833 709.189 29.9333 707.822 29.9V28.75H732.372V35.75H731.222C731.155 34.3167 730.655 33.15 729.722 32.25C728.822 31.35 727.422 30.9 725.522 30.9H721.522C720.822 30.9 720.272 31.0833 719.872 31.45C719.505 31.8167 719.322 32.5833 719.322 33.75V43.6C719.589 43.4 719.905 43.2667 720.272 43.2C720.672 43.1333 721.139 43.1 721.672 43.1H726.522C727.522 43.1 728.355 42.8167 729.022 42.25C729.689 41.6833 730.039 40.9 730.072 39.9H731.222V48.4H730.072C730.039 47.1667 729.689 46.3333 729.022 45.9C728.355 45.4667 727.522 45.25 726.522 45.25H721.772C720.872 45.25 720.239 45.4 719.872 45.7C719.505 46 719.322 46.5833 719.322 47.45V57C719.322 58.1667 719.572 58.9333 720.072 59.3C720.605 59.6667 721.622 59.85 723.122 59.85H727.872C729.872 59.85 731.455 59.25 732.622 58.05C733.789 56.85 734.439 55.4167 734.572 53.75H735.722L735.322 62H708.572ZM769.266 62.75C767.766 62.75 766.483 62.5 765.416 62C764.349 61.5333 763.449 60.9 762.716 60.1C761.983 59.3 761.299 58.4167 760.666 57.45L753.666 46.55C753.333 45.9833 753.033 45.6333 752.766 45.5C752.499 45.3667 752.183 45.2833 751.816 45.25V43.5C753.816 43.3667 755.366 42.9667 756.466 42.3C757.566 41.6333 758.333 40.8167 758.766 39.85C759.199 38.85 759.416 37.8167 759.416 36.75C759.416 34.7167 758.849 33.2 757.716 32.2C756.583 31.1667 755.283 30.65 753.816 30.65C752.716 30.65 751.933 30.85 751.466 31.25C751.033 31.6167 750.816 32.45 750.816 33.75V57C750.816 58.6333 751.066 59.6667 751.566 60.1C752.066 60.5333 752.983 60.7833 754.316 60.85V62H740.066V60.85C741.033 60.7833 741.733 60.5333 742.166 60.1C742.599 59.6667 742.816 58.6333 742.816 57V33.75C742.816 32.1167 742.566 31.0833 742.066 30.65C741.599 30.1833 740.683 29.9333 739.316 29.9V28.75H742.816C745.316 28.75 747.583 28.7167 749.616 28.65C751.649 28.55 753.383 28.5 754.816 28.5C758.116 28.5 760.733 28.8167 762.666 29.45C764.633 30.05 766.033 30.9 766.866 32C767.733 33.1 768.166 34.35 768.166 35.75C768.166 37.0833 767.833 38.3 767.166 39.4C766.533 40.5 765.683 41.4333 764.616 42.2C763.583 42.9333 762.449 43.45 761.216 43.75V43.85L769.516 56.85C770.483 58.3833 771.366 59.4333 772.166 60C772.966 60.5667 773.683 60.85 774.316 60.85V62C773.649 62.2333 772.849 62.4167 771.916 62.55C771.016 62.6833 770.133 62.75 769.266 62.75ZM792.879 62.75C789.379 62.75 786.279 62.05 783.579 60.65C780.879 59.25 778.763 57.2833 777.229 54.75C775.696 52.1833 774.929 49.2167 774.929 45.85C774.929 43.0833 775.429 40.6167 776.429 38.45C777.429 36.25 778.796 34.3667 780.529 32.8C782.296 31.2333 784.313 30.05 786.579 29.25C788.879 28.4167 791.329 28 793.929 28C795.896 28 797.779 28.1833 799.579 28.55C801.379 28.9167 802.813 29.35 803.879 29.85V37.75H802.729C802.063 35.7167 801.263 34.1667 800.329 33.1C799.396 32 798.346 31.2333 797.179 30.8C796.046 30.3667 794.846 30.15 793.579 30.15C787.146 30.15 783.929 34.8167 783.929 44.15C783.929 47.2167 784.246 50 784.879 52.5C785.546 55 786.563 56.9833 787.929 58.45C789.329 59.8833 791.113 60.6 793.279 60.6C795.046 60.6 796.646 60.1667 798.079 59.3C799.513 58.4 800.729 57.2167 801.729 55.75C802.763 54.2833 803.496 52.7 803.929 51H805.079L804.679 58.6C803.579 59.8 802.029 60.8 800.029 61.6C798.029 62.3667 795.646 62.75 792.879 62.75ZM826.255 28C828.622 28 830.822 28.4 832.855 29.2C834.889 30 836.689 31.1667 838.255 32.7C839.822 34.2 841.039 36.0167 841.905 38.15C842.772 40.2833 843.205 42.6667 843.205 45.3C843.205 47.9333 842.772 50.3167 841.905 52.45C841.039 54.5833 839.822 56.4167 838.255 57.95C836.722 59.4833 834.922 60.6667 832.855 61.5C830.789 62.3333 828.572 62.75 826.205 62.75C823.872 62.75 821.672 62.35 819.605 61.55C817.572 60.75 815.772 59.6 814.205 58.1C812.639 56.5667 811.422 54.7333 810.555 52.6C809.689 50.4667 809.255 48.0833 809.255 45.45C809.255 42.8167 809.689 40.4333 810.555 38.3C811.422 36.1667 812.622 34.3333 814.155 32.8C815.722 31.2667 817.539 30.0833 819.605 29.25C821.672 28.4167 823.889 28 826.255 28ZM827.255 60.6C828.989 60.6 830.355 60.0333 831.355 58.9C832.355 57.7333 833.072 56.1333 833.505 54.1C833.972 52.0667 834.205 49.7 834.205 47C834.205 41.5667 833.372 37.4 831.705 34.5C830.072 31.6 827.905 30.15 825.205 30.15C823.505 30.15 822.139 30.7167 821.105 31.85C820.105 32.9833 819.372 34.5833 818.905 36.65C818.472 38.6833 818.255 41.05 818.255 43.75C818.255 49.1833 819.072 53.35 820.705 56.25C822.372 59.15 824.555 60.6 827.255 60.6ZM866.352 62.4C866.085 61.6333 865.752 60.85 865.352 60.05C864.985 59.2167 864.485 58.1333 863.852 56.8L854.852 38H854.752L853.852 57C853.818 58.1333 854.085 59.05 854.652 59.75C855.218 60.4167 856.252 60.7833 857.752 60.85V62H848.502V60.85C849.468 60.7833 850.152 60.4167 850.552 59.75C850.985 59.05 851.218 58.1333 851.252 57L852.302 33.75C852.368 32.5833 852.285 31.75 852.052 31.25C851.852 30.75 851.485 30.4333 850.952 30.3C850.418 30.1333 849.702 30 848.802 29.9V28.75H859.502C859.768 29.6167 860.068 30.4333 860.402 31.2C860.768 31.9667 861.168 32.8167 861.602 33.75L870.202 51.75H870.302L878.302 33.75C879.068 32.05 879.652 30.3833 880.052 28.75H890.652V29.9C890.018 29.9333 889.485 30.0333 889.052 30.2C888.618 30.3667 888.302 30.7167 888.102 31.25C887.935 31.75 887.868 32.5833 887.902 33.75L888.952 57C889.018 58.0667 889.152 58.8667 889.352 59.4C889.585 59.9333 889.952 60.3 890.452 60.5C890.952 60.6667 891.618 60.7833 892.452 60.85V62H878.202V60.85C879.268 60.7833 880.002 60.5333 880.402 60.1C880.835 59.6667 881.018 58.6333 880.952 57L880.102 36.55H880.002L870.952 56.8C870.318 58.2 869.852 59.3 869.552 60.1C869.285 60.8667 869.052 61.6333 868.852 62.4H866.352ZM914.35 62.4C914.083 61.6333 913.75 60.85 913.35 60.05C912.983 59.2167 912.483 58.1333 911.85 56.8L902.85 38H902.75L901.85 57C901.816 58.1333 902.083 59.05 902.65 59.75C903.216 60.4167 904.25 60.7833 905.75 60.85V62H896.5V60.85C897.466 60.7833 898.15 60.4167 898.55 59.75C898.983 59.05 899.216 58.1333 899.25 57L900.3 33.75C900.366 32.5833 900.283 31.75 900.05 31.25C899.85 30.75 899.483 30.4333 898.95 30.3C898.416 30.1333 897.7 30 896.8 29.9V28.75H907.5C907.766 29.6167 908.066 30.4333 908.4 31.2C908.766 31.9667 909.166 32.8167 909.6 33.75L918.2 51.75H918.3L926.3 33.75C927.066 32.05 927.65 30.3833 928.05 28.75H938.65V29.9C938.016 29.9333 937.483 30.0333 937.05 30.2C936.616 30.3667 936.3 30.7167 936.1 31.25C935.933 31.75 935.866 32.5833 935.9 33.75L936.95 57C937.016 58.0667 937.15 58.8667 937.35 59.4C937.583 59.9333 937.95 60.3 938.45 60.5C938.95 60.6667 939.616 60.7833 940.45 60.85V62L926.2 62V60.85C927.266 60.7833 928 60.5333 928.4 60.1C928.833 59.6667 929.016 58.6333 928.95 57L928.1 36.55H928L918.95 56.8C918.316 58.2 917.85 59.3 917.55 60.1C917.283 60.8667 917.05 61.6333 916.85 62.4H914.35ZM979.674 52.75H980.824L980.324 62H956.224V60.85C956.491 60.7167 956.891 60.4833 957.424 60.15C957.991 59.8167 958.574 59.4333 959.174 59C960.841 57.8 962.408 56.4333 963.874 54.9C965.341 53.3667 966.624 51.7333 967.724 50C968.824 48.2667 969.691 46.5333 970.324 44.8C970.958 43.0667 971.274 41.4167 971.274 39.85C971.274 38.35 970.908 37.0833 970.174 36.05C969.474 35.0167 968.191 34.5 966.324 34.5C964.758 34.5 963.308 34.9333 961.974 35.8C960.641 36.6667 959.324 38.0167 958.024 39.85L957.074 39.05C958.441 35.5833 960.158 33 962.224 31.3C964.291 29.6 966.874 28.75 969.974 28.75C971.774 28.75 973.391 29.05 974.824 29.65C976.258 30.2167 977.391 31.1167 978.224 32.35C979.091 33.55 979.524 35.1167 979.524 37.05C979.524 40.4833 978.424 43.7 976.224 46.7C974.058 49.7 971.024 52.5167 967.124 55.15V55.25H974.424C976.324 55.25 977.641 55.0167 978.374 54.55C979.108 54.0833 979.541 53.4833 979.674 52.75ZM1000.96 28.75C1002.69 28.75 1004.39 29.0833 1006.06 29.75C1007.72 30.4167 1009.22 31.45 1010.56 32.85C1011.89 34.25 1012.94 36.0167 1013.71 38.15C1014.51 40.25 1014.91 42.75 1014.91 45.65C1014.91 48.5167 1014.52 51.0167 1013.76 53.15C1012.99 55.2833 1011.94 57.0667 1010.61 58.5C1009.27 59.9333 1007.77 61 1006.11 61.7C1004.44 62.4 1002.71 62.75 1000.91 62.75C999.172 62.75 997.472 62.4167 995.805 61.75C994.138 61.0833 992.638 60.05 991.305 58.65C989.972 57.25 988.905 55.5 988.105 53.4C987.338 51.2667 986.955 48.75 986.955 45.85C986.955 42.9833 987.338 40.4833 988.105 38.35C988.872 36.2167 989.922 34.4333 991.255 33C992.588 31.5667 994.088 30.5 995.755 29.8C997.422 29.1 999.155 28.75 1000.96 28.75ZM1001.11 60.6C1002.07 60.6 1002.96 60.1667 1003.76 59.3C1004.56 58.4333 1005.19 56.9667 1005.66 54.9C1006.16 52.8333 1006.41 50 1006.41 46.4C1006.41 43.2667 1006.19 40.55 1005.76 38.25C1005.36 35.9167 1004.74 34.1167 1003.91 32.85C1003.07 31.55 1002.02 30.9 1000.76 30.9C999.822 30.9 998.938 31.3333 998.105 32.2C997.305 33.0667 996.655 34.5333 996.155 36.6C995.688 38.6667 995.455 41.5 995.455 45.1C995.455 48.2333 995.655 50.9667 996.055 53.3C996.488 55.6 997.122 57.4 997.955 58.7C998.788 59.9667 999.838 60.6 1001.11 60.6ZM1042.52 52.75H1043.67L1043.17 62H1019.07V60.85C1019.33 60.7167 1019.73 60.4833 1020.27 60.15C1020.83 59.8167 1021.42 59.4333 1022.02 59C1023.68 57.8 1025.25 56.4333 1026.72 54.9C1028.18 53.3667 1029.47 51.7333 1030.57 50C1031.67 48.2667 1032.53 46.5333 1033.17 44.8C1033.8 43.0667 1034.12 41.4167 1034.12 39.85C1034.12 38.35 1033.75 37.0833 1033.02 36.05C1032.32 35.0167 1031.03 34.5 1029.17 34.5C1027.6 34.5 1026.15 34.9333 1024.82 35.8C1023.48 36.6667 1022.17 38.0167 1020.87 39.85L1019.92 39.05C1021.28 35.5833 1023 33 1025.07 31.3C1027.13 29.6 1029.72 28.75 1032.82 28.75C1034.62 28.75 1036.23 29.05 1037.67 29.65C1039.1 30.2167 1040.23 31.1167 1041.07 32.35C1041.93 33.55 1042.37 35.1167 1042.37 37.05C1042.37 40.4833 1041.27 43.7 1039.07 46.7C1036.9 49.7 1033.87 52.5167 1029.97 55.15V55.25H1037.27C1039.17 55.25 1040.48 55.0167 1041.22 54.55C1041.95 54.0833 1042.38 53.4833 1042.52 52.75ZM1070.3 49.25H1073.8V55.5H1071.7C1070.76 55.5 1070.3 56.0833 1070.3 57.25C1070.3 58.05 1070.3 58.8333 1070.3 59.6C1070.33 60.3333 1070.36 61.1333 1070.4 62L1062.5 62C1062.56 60.9 1062.61 59.8333 1062.65 58.8C1062.68 57.7333 1062.71 56.6333 1062.75 55.5L1046.95 55.5V54.35C1047.81 53.5167 1048.6 52.65 1049.3 51.75L1065.65 31.3C1066.01 30.8333 1066.35 30.3833 1066.65 29.95C1066.98 29.4833 1067.25 29.0833 1067.45 28.75H1070.35L1070.3 49.25ZM1062.65 38.8L1054.3 49.25L1062.8 49.25V38.8H1062.65Z" fill="black"/>
<path d="M1146.06 37.0198C1139.08 34.2333 1130.89 35.7194 1125.31 41.2924C1117.77 48.8158 1117.77 60.9834 1125.31 68.5068C1130.89 74.0798 1139.08 75.5659 1146.06 72.7794V63.8627C1144.66 64.5129 1143.17 64.8844 1141.59 64.8844C1136.01 64.8844 1131.54 60.4261 1131.54 54.8532C1131.54 49.2802 1136.01 44.8219 1141.59 44.8219C1143.17 44.8219 1144.75 45.1934 1146.06 45.8436V37.0198Z" fill="black"/>
<path d="M1142.89 28.084C1145.64 25.3287 1145.64 20.768 1142.89 17.9177C1140.15 15.1623 1135.6 15.1623 1132.75 17.9177C1129.91 20.673 1130 25.2337 1132.75 28.084C1135.6 30.8394 1140.15 30.8394 1142.89 28.084Z" fill="black"/>
<path d="M1192.2 62V60.85C1193.17 60.7833 1193.87 60.5333 1194.3 60.1C1194.74 59.6667 1194.95 58.6333 1194.95 57V33.75C1194.95 32.1167 1194.7 31.0833 1194.2 30.65C1193.74 30.1833 1192.82 29.9333 1191.45 29.9V28.75H1205.7V29.9C1204.74 29.9333 1204.04 30.1833 1203.6 30.65C1203.17 31.0833 1202.95 32.1167 1202.95 33.75V57C1202.95 58.6333 1203.2 59.6667 1203.7 60.1C1204.2 60.5333 1205.12 60.7833 1206.45 60.85V62H1192.2ZM1241.08 62.4C1240.58 61.8667 1240.06 61.35 1239.53 60.85C1239 60.3167 1238.15 59.5333 1236.98 58.5L1217.28 40.5H1217.18V57C1217.18 58.1333 1217.46 59.05 1218.03 59.75C1218.63 60.4167 1219.65 60.7833 1221.08 60.85V62H1211.83V60.85C1212.8 60.7833 1213.5 60.4167 1213.93 59.75C1214.36 59.05 1214.58 58.1333 1214.58 57V33.75C1214.58 32.1167 1214.33 31.0833 1213.83 30.65C1213.36 30.1833 1212.45 29.9333 1211.08 29.9V28.75H1217.08C1217.58 29.3833 1218.11 29.95 1218.68 30.45C1219.25 30.95 1219.9 31.55 1220.63 32.25L1240.53 50.25H1240.63V33.75C1240.63 32.6167 1240.35 31.7 1239.78 31C1239.21 30.3 1238.2 29.9333 1236.73 29.9V28.75L1245.98 28.75V29.9C1245.01 29.9333 1244.31 30.3 1243.88 31C1243.45 31.7 1243.23 32.6167 1243.23 33.75V57C1243.23 57.9333 1243.23 58.8333 1243.23 59.7C1243.26 60.5333 1243.3 61.4333 1243.33 62.4H1241.08ZM1249.93 28.75L1278.43 28.75V37H1277.28C1277.08 35.2 1276.55 33.7333 1275.68 32.6C1274.82 31.4667 1273.33 30.9 1271.23 30.9L1268.18 30.9V57C1268.18 58.6333 1268.43 59.6667 1268.93 60.1C1269.43 60.5333 1270.35 60.7833 1271.68 60.85V62H1257.43V60.85C1258.4 60.7833 1259.1 60.5333 1259.53 60.1C1259.97 59.6667 1260.18 58.6333 1260.18 57V30.9H1257.08C1255.05 30.9 1253.58 31.4667 1252.68 32.6C1251.82 33.7333 1251.28 35.2 1251.08 37H1249.93V28.75ZM1282.97 62V60.85C1283.94 60.7833 1284.64 60.5333 1285.07 60.1C1285.5 59.6667 1285.72 58.6333 1285.72 57V33.75C1285.72 32.1167 1285.47 31.0833 1284.97 30.65C1284.5 30.1833 1283.59 29.9333 1282.22 29.9V28.75H1306.77V35.75H1305.62C1305.55 34.3167 1305.05 33.15 1304.12 32.25C1303.22 31.35 1301.82 30.9 1299.92 30.9H1295.92C1295.22 30.9 1294.67 31.0833 1294.27 31.45C1293.9 31.8167 1293.72 32.5833 1293.72 33.75V43.6C1293.99 43.4 1294.3 43.2667 1294.67 43.2C1295.07 43.1333 1295.54 43.1 1296.07 43.1H1300.92C1301.92 43.1 1302.75 42.8167 1303.42 42.25C1304.09 41.6833 1304.44 40.9 1304.47 39.9H1305.62V48.4H1304.47C1304.44 47.1667 1304.09 46.3333 1303.42 45.9C1302.75 45.4667 1301.92 45.25 1300.92 45.25H1296.17C1295.27 45.25 1294.64 45.4 1294.27 45.7C1293.9 46 1293.72 46.5833 1293.72 47.45V57C1293.72 58.1667 1293.97 58.9333 1294.47 59.3C1295 59.6667 1296.02 59.85 1297.52 59.85H1302.27C1304.27 59.85 1305.85 59.25 1307.02 58.05C1308.19 56.85 1308.84 55.4167 1308.97 53.75H1310.12L1309.72 62H1282.97ZM1343.66 62.75C1342.16 62.75 1340.88 62.5 1339.81 62C1338.75 61.5333 1337.85 60.9 1337.11 60.1C1336.38 59.3 1335.7 58.4167 1335.06 57.45L1328.06 46.55C1327.73 45.9833 1327.43 45.6333 1327.16 45.5C1326.9 45.3667 1326.58 45.2833 1326.21 45.25V43.5C1328.21 43.3667 1329.76 42.9667 1330.86 42.3C1331.96 41.6333 1332.73 40.8167 1333.16 39.85C1333.6 38.85 1333.81 37.8167 1333.81 36.75C1333.81 34.7167 1333.25 33.2 1332.11 32.2C1330.98 31.1667 1329.68 30.65 1328.21 30.65C1327.11 30.65 1326.33 30.85 1325.86 31.25C1325.43 31.6167 1325.21 32.45 1325.21 33.75V57C1325.21 58.6333 1325.46 59.6667 1325.96 60.1C1326.46 60.5333 1327.38 60.7833 1328.71 60.85V62H1314.46V60.85C1315.43 60.7833 1316.13 60.5333 1316.56 60.1C1317 59.6667 1317.21 58.6333 1317.21 57V33.75C1317.21 32.1167 1316.96 31.0833 1316.46 30.65C1316 30.1833 1315.08 29.9333 1313.71 29.9V28.75H1317.21C1319.71 28.75 1321.98 28.7167 1324.01 28.65C1326.05 28.55 1327.78 28.5 1329.21 28.5C1332.51 28.5 1335.13 28.8167 1337.06 29.45C1339.03 30.05 1340.43 30.9 1341.26 32C1342.13 33.1 1342.56 34.35 1342.56 35.75C1342.56 37.0833 1342.23 38.3 1341.56 39.4C1340.93 40.5 1340.08 41.4333 1339.01 42.2C1337.98 42.9333 1336.85 43.45 1335.61 43.75V43.85L1343.91 56.85C1344.88 58.3833 1345.76 59.4333 1346.56 60C1347.36 60.5667 1348.08 60.85 1348.71 60.85V62C1348.05 62.2333 1347.25 62.4167 1346.31 62.55C1345.41 62.6833 1344.53 62.75 1343.66 62.75ZM1367.28 62.75C1363.78 62.75 1360.68 62.05 1357.98 60.65C1355.28 59.25 1353.16 57.2833 1351.63 54.75C1350.09 52.1833 1349.33 49.2167 1349.33 45.85C1349.33 43.0833 1349.83 40.6167 1350.83 38.45C1351.83 36.25 1353.19 34.3667 1354.93 32.8C1356.69 31.2333 1358.71 30.05 1360.98 29.25C1363.28 28.4167 1365.73 28 1368.33 28C1370.29 28 1372.18 28.1833 1373.98 28.55C1375.78 28.9167 1377.21 29.35 1378.28 29.85V37.75H1377.13C1376.46 35.7167 1375.66 34.1667 1374.73 33.1C1373.79 32 1372.74 31.2333 1371.58 30.8C1370.44 30.3667 1369.24 30.15 1367.98 30.15C1361.54 30.15 1358.33 34.8167 1358.33 44.15C1358.33 47.2167 1358.64 50 1359.28 52.5C1359.94 55 1360.96 56.9833 1362.33 58.45C1363.73 59.8833 1365.51 60.6 1367.68 60.6C1369.44 60.6 1371.04 60.1667 1372.48 59.3C1373.91 58.4 1375.13 57.2167 1376.13 55.75C1377.16 54.2833 1377.89 52.7 1378.33 51H1379.48L1379.08 58.6C1377.98 59.8 1376.43 60.8 1374.43 61.6C1372.43 62.3667 1370.04 62.75 1367.28 62.75ZM1400.65 28C1403.02 28 1405.22 28.4 1407.25 29.2C1409.29 30 1411.09 31.1667 1412.65 32.7C1414.22 34.2 1415.44 36.0167 1416.3 38.15C1417.17 40.2833 1417.6 42.6667 1417.6 45.3C1417.6 47.9333 1417.17 50.3167 1416.3 52.45C1415.44 54.5833 1414.22 56.4167 1412.65 57.95C1411.12 59.4833 1409.32 60.6667 1407.25 61.5C1405.19 62.3333 1402.97 62.75 1400.6 62.75C1398.27 62.75 1396.07 62.35 1394 61.55C1391.97 60.75 1390.17 59.6 1388.6 58.1C1387.04 56.5667 1385.82 54.7333 1384.95 52.6C1384.09 50.4667 1383.65 48.0833 1383.65 45.45C1383.65 42.8167 1384.09 40.4333 1384.95 38.3C1385.82 36.1667 1387.02 34.3333 1388.55 32.8C1390.12 31.2667 1391.94 30.0833 1394 29.25C1396.07 28.4167 1398.29 28 1400.65 28ZM1401.65 60.6C1403.39 60.6 1404.75 60.0333 1405.75 58.9C1406.75 57.7333 1407.47 56.1333 1407.9 54.1C1408.37 52.0667 1408.6 49.7 1408.6 47C1408.6 41.5667 1407.77 37.4 1406.1 34.5C1404.47 31.6 1402.3 30.15 1399.6 30.15C1397.9 30.15 1396.54 30.7167 1395.5 31.85C1394.5 32.9833 1393.77 34.5833 1393.3 36.65C1392.87 38.6833 1392.65 41.05 1392.65 43.75C1392.65 49.1833 1393.47 53.35 1395.1 56.25C1396.77 59.15 1398.95 60.6 1401.65 60.6ZM1440.75 62.4C1440.48 61.6333 1440.15 60.85 1439.75 60.05C1439.38 59.2167 1438.88 58.1333 1438.25 56.8L1429.25 38H1429.15L1428.25 57C1428.22 58.1333 1428.48 59.05 1429.05 59.75C1429.62 60.4167 1430.65 60.7833 1432.15 60.85V62H1422.9V60.85C1423.87 60.7833 1424.55 60.4167 1424.95 59.75C1425.38 59.05 1425.62 58.1333 1425.65 57L1426.7 33.75C1426.77 32.5833 1426.68 31.75 1426.45 31.25C1426.25 30.75 1425.88 30.4333 1425.35 30.3C1424.82 30.1333 1424.1 30 1423.2 29.9V28.75H1433.9C1434.17 29.6167 1434.47 30.4333 1434.8 31.2C1435.17 31.9667 1435.57 32.8167 1436 33.75L1444.6 51.75H1444.7L1452.7 33.75C1453.47 32.05 1454.05 30.3833 1454.45 28.75H1465.05V29.9C1464.42 29.9333 1463.88 30.0333 1463.45 30.2C1463.02 30.3667 1462.7 30.7167 1462.5 31.25C1462.33 31.75 1462.27 32.5833 1462.3 33.75L1463.35 57C1463.42 58.0667 1463.55 58.8667 1463.75 59.4C1463.98 59.9333 1464.35 60.3 1464.85 60.5C1465.35 60.6667 1466.02 60.7833 1466.85 60.85V62H1452.6V60.85C1453.67 60.7833 1454.4 60.5333 1454.8 60.1C1455.23 59.6667 1455.42 58.6333 1455.35 57L1454.5 36.55H1454.4L1445.35 56.8C1444.72 58.2 1444.25 59.3 1443.95 60.1C1443.68 60.8667 1443.45 61.6333 1443.25 62.4H1440.75ZM1488.75 62.4C1488.48 61.6333 1488.15 60.85 1487.75 60.05C1487.38 59.2167 1486.88 58.1333 1486.25 56.8L1477.25 38H1477.15L1476.25 57C1476.21 58.1333 1476.48 59.05 1477.05 59.75C1477.61 60.4167 1478.65 60.7833 1480.15 60.85V62H1470.9V60.85C1471.86 60.7833 1472.55 60.4167 1472.95 59.75C1473.38 59.05 1473.61 58.1333 1473.65 57L1474.7 33.75C1474.76 32.5833 1474.68 31.75 1474.45 31.25C1474.25 30.75 1473.88 30.4333 1473.35 30.3C1472.81 30.1333 1472.1 30 1471.2 29.9V28.75H1481.9C1482.16 29.6167 1482.46 30.4333 1482.8 31.2C1483.16 31.9667 1483.56 32.8167 1484 33.75L1492.6 51.75H1492.7L1500.7 33.75C1501.46 32.05 1502.05 30.3833 1502.45 28.75H1513.05V29.9C1512.41 29.9333 1511.88 30.0333 1511.45 30.2C1511.01 30.3667 1510.7 30.7167 1510.5 31.25C1510.33 31.75 1510.26 32.5833 1510.3 33.75L1511.35 57C1511.41 58.0667 1511.55 58.8667 1511.75 59.4C1511.98 59.9333 1512.35 60.3 1512.85 60.5C1513.35 60.6667 1514.01 60.7833 1514.85 60.85V62L1500.6 62V60.85C1501.66 60.7833 1502.4 60.5333 1502.8 60.1C1503.23 59.6667 1503.41 58.6333 1503.35 57L1502.5 36.55H1502.4L1493.35 56.8C1492.71 58.2 1492.25 59.3 1491.95 60.1C1491.68 60.8667 1491.45 61.6333 1491.25 62.4H1488.75ZM1554.07 52.75H1555.22L1554.72 62H1530.62V60.85C1530.89 60.7167 1531.29 60.4833 1531.82 60.15C1532.39 59.8167 1532.97 59.4333 1533.57 59C1535.24 57.8 1536.81 56.4333 1538.27 54.9C1539.74 53.3667 1541.02 51.7333 1542.12 50C1543.22 48.2667 1544.09 46.5333 1544.72 44.8C1545.36 43.0667 1545.67 41.4167 1545.67 39.85C1545.67 38.35 1545.31 37.0833 1544.57 36.05C1543.87 35.0167 1542.59 34.5 1540.72 34.5C1539.16 34.5 1537.71 34.9333 1536.37 35.8C1535.04 36.6667 1533.72 38.0167 1532.42 39.85L1531.47 39.05C1532.84 35.5833 1534.56 33 1536.62 31.3C1538.69 29.6 1541.27 28.75 1544.37 28.75C1546.17 28.75 1547.79 29.05 1549.22 29.65C1550.66 30.2167 1551.79 31.1167 1552.62 32.35C1553.49 33.55 1553.92 35.1167 1553.92 37.05C1553.92 40.4833 1552.82 43.7 1550.62 46.7C1548.46 49.7 1545.42 52.5167 1541.52 55.15V55.25H1548.82C1550.72 55.25 1552.04 55.0167 1552.77 54.55C1553.51 54.0833 1553.94 53.4833 1554.07 52.75ZM1575.35 28.75C1577.09 28.75 1578.79 29.0833 1580.45 29.75C1582.12 30.4167 1583.62 31.45 1584.95 32.85C1586.29 34.25 1587.34 36.0167 1588.1 38.15C1588.9 40.25 1589.3 42.75 1589.3 45.65C1589.3 48.5167 1588.92 51.0167 1588.15 53.15C1587.39 55.2833 1586.34 57.0667 1585 58.5C1583.67 59.9333 1582.17 61 1580.5 61.7C1578.84 62.4 1577.1 62.75 1575.3 62.75C1573.57 62.75 1571.87 62.4167 1570.2 61.75C1568.54 61.0833 1567.04 60.05 1565.7 58.65C1564.37 57.25 1563.3 55.5 1562.5 53.4C1561.74 51.2667 1561.35 48.75 1561.35 45.85C1561.35 42.9833 1561.74 40.4833 1562.5 38.35C1563.27 36.2167 1564.32 34.4333 1565.65 33C1566.99 31.5667 1568.49 30.5 1570.15 29.8C1571.82 29.1 1573.55 28.75 1575.35 28.75ZM1575.5 60.6C1576.47 60.6 1577.35 60.1667 1578.15 59.3C1578.95 58.4333 1579.59 56.9667 1580.05 54.9C1580.55 52.8333 1580.8 50 1580.8 46.4C1580.8 43.2667 1580.59 40.55 1580.15 38.25C1579.75 35.9167 1579.14 34.1167 1578.3 32.85C1577.47 31.55 1576.42 30.9 1575.15 30.9C1574.22 30.9 1573.34 31.3333 1572.5 32.2C1571.7 33.0667 1571.05 34.5333 1570.55 36.6C1570.09 38.6667 1569.85 41.5 1569.85 45.1C1569.85 48.2333 1570.05 50.9667 1570.45 53.3C1570.89 55.6 1571.52 57.4 1572.35 58.7C1573.19 59.9667 1574.24 60.6 1575.5 60.6ZM1616.91 52.75H1618.06L1617.56 62H1593.46V60.85C1593.73 60.7167 1594.13 60.4833 1594.66 60.15C1595.23 59.8167 1595.81 59.4333 1596.41 59C1598.08 57.8 1599.65 56.4333 1601.11 54.9C1602.58 53.3667 1603.86 51.7333 1604.96 50C1606.06 48.2667 1606.93 46.5333 1607.56 44.8C1608.2 43.0667 1608.51 41.4167 1608.51 39.85C1608.51 38.35 1608.15 37.0833 1607.41 36.05C1606.71 35.0167 1605.43 34.5 1603.56 34.5C1602 34.5 1600.55 34.9333 1599.21 35.8C1597.88 36.6667 1596.56 38.0167 1595.26 39.85L1594.31 39.05C1595.68 35.5833 1597.4 33 1599.46 31.3C1601.53 29.6 1604.11 28.75 1607.21 28.75C1609.01 28.75 1610.63 29.05 1612.06 29.65C1613.5 30.2167 1614.63 31.1167 1615.46 32.35C1616.33 33.55 1616.76 35.1167 1616.76 37.05C1616.76 40.4833 1615.66 43.7 1613.46 46.7C1611.3 49.7 1608.26 52.5167 1604.36 55.15V55.25H1611.66C1613.56 55.25 1614.88 55.0167 1615.61 54.55C1616.35 54.0833 1616.78 53.4833 1616.91 52.75ZM1644.7 49.25H1648.2V55.5H1646.1C1645.16 55.5 1644.7 56.0833 1644.7 57.25C1644.7 58.05 1644.7 58.8333 1644.7 59.6C1644.73 60.3333 1644.76 61.1333 1644.8 62L1636.9 62C1636.96 60.9 1637.01 59.8333 1637.05 58.8C1637.08 57.7333 1637.11 56.6333 1637.15 55.5L1621.35 55.5V54.35C1622.21 53.5167 1623 52.65 1623.7 51.75L1640.05 31.3C1640.41 30.8333 1640.75 30.3833 1641.05 29.95C1641.38 29.4833 1641.65 29.0833 1641.85 28.75H1644.75L1644.7 49.25ZM1637.05 38.8L1628.7 49.25L1637.2 49.25V38.8H1637.05Z" fill="black"/>
<path d="M1720.45 37.0198C1713.48 34.2333 1705.29 35.7194 1699.71 41.2924C1692.17 48.8158 1692.17 60.9834 1699.71 68.5068C1705.29 74.0798 1713.48 75.5659 1720.45 72.7794V63.8627C1719.06 64.5129 1717.57 64.8844 1715.99 64.8844C1710.41 64.8844 1705.94 60.4261 1705.94 54.8532C1705.94 49.2802 1710.41 44.8219 1715.99 44.8219C1717.57 44.8219 1719.15 45.1934 1720.45 45.8436V37.0198Z" fill="black"/>
<path d="M1717.29 28.084C1720.04 25.3287 1720.04 20.768 1717.29 17.9177C1714.54 15.1623 1710 15.1623 1707.15 17.9177C1704.31 20.673 1704.4 25.2337 1707.15 28.084C1710 30.8394 1714.54 30.8394 1717.29 28.084Z" fill="black"/>
<path d="M1766.6 62V60.85C1767.57 60.7833 1768.27 60.5333 1768.7 60.1C1769.14 59.6667 1769.35 58.6333 1769.35 57V33.75C1769.35 32.1167 1769.1 31.0833 1768.6 30.65C1768.14 30.1833 1767.22 29.9333 1765.85 29.9V28.75H1780.1V29.9C1779.14 29.9333 1778.44 30.1833 1778 30.65C1777.57 31.0833 1777.35 32.1167 1777.35 33.75V57C1777.35 58.6333 1777.6 59.6667 1778.1 60.1C1778.6 60.5333 1779.52 60.7833 1780.85 60.85V62H1766.6ZM1815.48 62.4C1814.98 61.8667 1814.46 61.35 1813.93 60.85C1813.39 60.3167 1812.54 59.5333 1811.38 58.5L1791.68 40.5H1791.58V57C1791.58 58.1333 1791.86 59.05 1792.43 59.75C1793.03 60.4167 1794.04 60.7833 1795.48 60.85V62H1786.23V60.85C1787.19 60.7833 1787.89 60.4167 1788.33 59.75C1788.76 59.05 1788.98 58.1333 1788.98 57V33.75C1788.98 32.1167 1788.73 31.0833 1788.23 30.65C1787.76 30.1833 1786.84 29.9333 1785.48 29.9V28.75H1791.48C1791.98 29.3833 1792.51 29.95 1793.08 30.45C1793.64 30.95 1794.29 31.55 1795.03 32.25L1814.93 50.25H1815.03V33.75C1815.03 32.6167 1814.74 31.7 1814.18 31C1813.61 30.3 1812.59 29.9333 1811.13 29.9V28.75L1820.38 28.75V29.9C1819.41 29.9333 1818.71 30.3 1818.28 31C1817.84 31.7 1817.63 32.6167 1817.63 33.75V57C1817.63 57.9333 1817.63 58.8333 1817.63 59.7C1817.66 60.5333 1817.69 61.4333 1817.73 62.4H1815.48ZM1824.33 28.75L1852.83 28.75V37H1851.68C1851.48 35.2 1850.95 33.7333 1850.08 32.6C1849.21 31.4667 1847.73 30.9 1845.63 30.9L1842.58 30.9V57C1842.58 58.6333 1842.83 59.6667 1843.33 60.1C1843.83 60.5333 1844.75 60.7833 1846.08 60.85V62H1831.83V60.85C1832.8 60.7833 1833.5 60.5333 1833.93 60.1C1834.36 59.6667 1834.58 58.6333 1834.58 57V30.9H1831.48C1829.45 30.9 1827.98 31.4667 1827.08 32.6C1826.21 33.7333 1825.68 35.2 1825.48 37H1824.33V28.75ZM1857.37 62V60.85C1858.34 60.7833 1859.04 60.5333 1859.47 60.1C1859.9 59.6667 1860.12 58.6333 1860.12 57V33.75C1860.12 32.1167 1859.87 31.0833 1859.37 30.65C1858.9 30.1833 1857.99 29.9333 1856.62 29.9V28.75H1881.17V35.75H1880.02C1879.95 34.3167 1879.45 33.15 1878.52 32.25C1877.62 31.35 1876.22 30.9 1874.32 30.9H1870.32C1869.62 30.9 1869.07 31.0833 1868.67 31.45C1868.3 31.8167 1868.12 32.5833 1868.12 33.75V43.6C1868.39 43.4 1868.7 43.2667 1869.07 43.2C1869.47 43.1333 1869.94 43.1 1870.47 43.1H1875.32C1876.32 43.1 1877.15 42.8167 1877.82 42.25C1878.49 41.6833 1878.84 40.9 1878.87 39.9H1880.02V48.4H1878.87C1878.84 47.1667 1878.49 46.3333 1877.82 45.9C1877.15 45.4667 1876.32 45.25 1875.32 45.25H1870.57C1869.67 45.25 1869.04 45.4 1868.67 45.7C1868.3 46 1868.12 46.5833 1868.12 47.45V57C1868.12 58.1667 1868.37 58.9333 1868.87 59.3C1869.4 59.6667 1870.42 59.85 1871.92 59.85H1876.67C1878.67 59.85 1880.25 59.25 1881.42 58.05C1882.59 56.85 1883.24 55.4167 1883.37 53.75H1884.52L1884.12 62H1857.37ZM1918.06 62.75C1916.56 62.75 1915.28 62.5 1914.21 62C1913.15 61.5333 1912.25 60.9 1911.51 60.1C1910.78 59.3 1910.1 58.4167 1909.46 57.45L1902.46 46.55C1902.13 45.9833 1901.83 45.6333 1901.56 45.5C1901.3 45.3667 1900.98 45.2833 1900.61 45.25V43.5C1902.61 43.3667 1904.16 42.9667 1905.26 42.3C1906.36 41.6333 1907.13 40.8167 1907.56 39.85C1908 38.85 1908.21 37.8167 1908.21 36.75C1908.21 34.7167 1907.65 33.2 1906.51 32.2C1905.38 31.1667 1904.08 30.65 1902.61 30.65C1901.51 30.65 1900.73 30.85 1900.26 31.25C1899.83 31.6167 1899.61 32.45 1899.61 33.75V57C1899.61 58.6333 1899.86 59.6667 1900.36 60.1C1900.86 60.5333 1901.78 60.7833 1903.11 60.85V62H1888.86V60.85C1889.83 60.7833 1890.53 60.5333 1890.96 60.1C1891.4 59.6667 1891.61 58.6333 1891.61 57V33.75C1891.61 32.1167 1891.36 31.0833 1890.86 30.65C1890.4 30.1833 1889.48 29.9333 1888.11 29.9V28.75H1891.61C1894.11 28.75 1896.38 28.7167 1898.41 28.65C1900.45 28.55 1902.18 28.5 1903.61 28.5C1906.91 28.5 1909.53 28.8167 1911.46 29.45C1913.43 30.05 1914.83 30.9 1915.66 32C1916.53 33.1 1916.96 34.35 1916.96 35.75C1916.96 37.0833 1916.63 38.3 1915.96 39.4C1915.33 40.5 1914.48 41.4333 1913.41 42.2C1912.38 42.9333 1911.25 43.45 1910.01 43.75V43.85L1918.31 56.85C1919.28 58.3833 1920.16 59.4333 1920.96 60C1921.76 60.5667 1922.48 60.85 1923.11 60.85V62C1922.45 62.2333 1921.65 62.4167 1920.71 62.55C1919.81 62.6833 1918.93 62.75 1918.06 62.75ZM1941.68 62.75C1938.18 62.75 1935.08 62.05 1932.38 60.65C1929.68 59.25 1927.56 57.2833 1926.03 54.75C1924.49 52.1833 1923.73 49.2167 1923.73 45.85C1923.73 43.0833 1924.23 40.6167 1925.23 38.45C1926.23 36.25 1927.59 34.3667 1929.33 32.8C1931.09 31.2333 1933.11 30.05 1935.38 29.25C1937.68 28.4167 1940.13 28 1942.73 28C1944.69 28 1946.58 28.1833 1948.38 28.55C1950.18 28.9167 1951.61 29.35 1952.68 29.85V37.75H1951.53C1950.86 35.7167 1950.06 34.1667 1949.13 33.1C1948.19 32 1947.14 31.2333 1945.98 30.8C1944.84 30.3667 1943.64 30.15 1942.38 30.15C1935.94 30.15 1932.73 34.8167 1932.73 44.15C1932.73 47.2167 1933.04 50 1933.68 52.5C1934.34 55 1935.36 56.9833 1936.73 58.45C1938.13 59.8833 1939.91 60.6 1942.08 60.6C1943.84 60.6 1945.44 60.1667 1946.88 59.3C1948.31 58.4 1949.53 57.2167 1950.53 55.75C1951.56 54.2833 1952.29 52.7 1952.73 51H1953.88L1953.48 58.6C1952.38 59.8 1950.83 60.8 1948.83 61.6C1946.83 62.3667 1944.44 62.75 1941.68 62.75ZM1975.05 28C1977.42 28 1979.62 28.4 1981.65 29.2C1983.69 30 1985.49 31.1667 1987.05 32.7C1988.62 34.2 1989.84 36.0167 1990.7 38.15C1991.57 40.2833 1992 42.6667 1992 45.3C1992 47.9333 1991.57 50.3167 1990.7 52.45C1989.84 54.5833 1988.62 56.4167 1987.05 57.95C1985.52 59.4833 1983.72 60.6667 1981.65 61.5C1979.59 62.3333 1977.37 62.75 1975 62.75C1972.67 62.75 1970.47 62.35 1968.4 61.55C1966.37 60.75 1964.57 59.6 1963 58.1C1961.44 56.5667 1960.22 54.7333 1959.35 52.6C1958.49 50.4667 1958.05 48.0833 1958.05 45.45C1958.05 42.8167 1958.49 40.4333 1959.35 38.3C1960.22 36.1667 1961.42 34.3333 1962.95 32.8C1964.52 31.2667 1966.34 30.0833 1968.4 29.25C1970.47 28.4167 1972.69 28 1975.05 28ZM1976.05 60.6C1977.79 60.6 1979.15 60.0333 1980.15 58.9C1981.15 57.7333 1981.87 56.1333 1982.3 54.1C1982.77 52.0667 1983 49.7 1983 47C1983 41.5667 1982.17 37.4 1980.5 34.5C1978.87 31.6 1976.7 30.15 1974 30.15C1972.3 30.15 1970.94 30.7167 1969.9 31.85C1968.9 32.9833 1968.17 34.5833 1967.7 36.65C1967.27 38.6833 1967.05 41.05 1967.05 43.75C1967.05 49.1833 1967.87 53.35 1969.5 56.25C1971.17 59.15 1973.35 60.6 1976.05 60.6ZM2015.15 62.4C2014.88 61.6333 2014.55 60.85 2014.15 60.05C2013.78 59.2167 2013.28 58.1333 2012.65 56.8L2003.65 38H2003.55L2002.65 57C2002.62 58.1333 2002.88 59.05 2003.45 59.75C2004.02 60.4167 2005.05 60.7833 2006.55 60.85V62H1997.3V60.85C1998.27 60.7833 1998.95 60.4167 1999.35 59.75C1999.78 59.05 2000.02 58.1333 2000.05 57L2001.1 33.75C2001.17 32.5833 2001.08 31.75 2000.85 31.25C2000.65 30.75 2000.28 30.4333 1999.75 30.3C1999.22 30.1333 1998.5 30 1997.6 29.9V28.75H2008.3C2008.57 29.6167 2008.87 30.4333 2009.2 31.2C2009.57 31.9667 2009.97 32.8167 2010.4 33.75L2019 51.75H2019.1L2027.1 33.75C2027.87 32.05 2028.45 30.3833 2028.85 28.75H2039.45V29.9C2038.82 29.9333 2038.28 30.0333 2037.85 30.2C2037.42 30.3667 2037.1 30.7167 2036.9 31.25C2036.73 31.75 2036.67 32.5833 2036.7 33.75L2037.75 57C2037.82 58.0667 2037.95 58.8667 2038.15 59.4C2038.38 59.9333 2038.75 60.3 2039.25 60.5C2039.75 60.6667 2040.42 60.7833 2041.25 60.85V62H2027V60.85C2028.07 60.7833 2028.8 60.5333 2029.2 60.1C2029.63 59.6667 2029.82 58.6333 2029.75 57L2028.9 36.55H2028.8L2019.75 56.8C2019.12 58.2 2018.65 59.3 2018.35 60.1C2018.08 60.8667 2017.85 61.6333 2017.65 62.4H2015.15ZM2063.15 62.4C2062.88 61.6333 2062.55 60.85 2062.15 60.05C2061.78 59.2167 2061.28 58.1333 2060.65 56.8L2051.65 38H2051.55L2050.65 57C2050.61 58.1333 2050.88 59.05 2051.45 59.75C2052.01 60.4167 2053.05 60.7833 2054.55 60.85V62H2045.3V60.85C2046.26 60.7833 2046.95 60.4167 2047.35 59.75C2047.78 59.05 2048.01 58.1333 2048.05 57L2049.1 33.75C2049.16 32.5833 2049.08 31.75 2048.85 31.25C2048.65 30.75 2048.28 30.4333 2047.75 30.3C2047.21 30.1333 2046.5 30 2045.6 29.9V28.75H2056.3C2056.56 29.6167 2056.86 30.4333 2057.2 31.2C2057.56 31.9667 2057.96 32.8167 2058.4 33.75L2067 51.75H2067.1L2075.1 33.75C2075.86 32.05 2076.45 30.3833 2076.85 28.75H2087.45V29.9C2086.81 29.9333 2086.28 30.0333 2085.85 30.2C2085.41 30.3667 2085.1 30.7167 2084.9 31.25C2084.73 31.75 2084.66 32.5833 2084.7 33.75L2085.75 57C2085.81 58.0667 2085.95 58.8667 2086.15 59.4C2086.38 59.9333 2086.75 60.3 2087.25 60.5C2087.75 60.6667 2088.41 60.7833 2089.25 60.85V62L2075 62V60.85C2076.06 60.7833 2076.8 60.5333 2077.2 60.1C2077.63 59.6667 2077.81 58.6333 2077.75 57L2076.9 36.55H2076.8L2067.75 56.8C2067.11 58.2 2066.65 59.3 2066.35 60.1C2066.08 60.8667 2065.85 61.6333 2065.65 62.4H2063.15ZM2128.47 52.75H2129.62L2129.12 62H2105.02V60.85C2105.29 60.7167 2105.69 60.4833 2106.22 60.15C2106.79 59.8167 2107.37 59.4333 2107.97 59C2109.64 57.8 2111.2 56.4333 2112.67 54.9C2114.14 53.3667 2115.42 51.7333 2116.52 50C2117.62 48.2667 2118.49 46.5333 2119.12 44.8C2119.75 43.0667 2120.07 41.4167 2120.07 39.85C2120.07 38.35 2119.7 37.0833 2118.97 36.05C2118.27 35.0167 2116.99 34.5 2115.12 34.5C2113.55 34.5 2112.1 34.9333 2110.77 35.8C2109.44 36.6667 2108.12 38.0167 2106.82 39.85L2105.87 39.05C2107.24 35.5833 2108.95 33 2111.02 31.3C2113.09 29.6 2115.67 28.75 2118.77 28.75C2120.57 28.75 2122.19 29.05 2123.62 29.65C2125.05 30.2167 2126.19 31.1167 2127.02 32.35C2127.89 33.55 2128.32 35.1167 2128.32 37.05C2128.32 40.4833 2127.22 43.7 2125.02 46.7C2122.85 49.7 2119.82 52.5167 2115.92 55.15V55.25H2123.22C2125.12 55.25 2126.44 55.0167 2127.17 54.55C2127.9 54.0833 2128.34 53.4833 2128.47 52.75ZM2149.75 28.75C2151.49 28.75 2153.19 29.0833 2154.85 29.75C2156.52 30.4167 2158.02 31.45 2159.35 32.85C2160.69 34.25 2161.74 36.0167 2162.5 38.15C2163.3 40.25 2163.7 42.75 2163.7 45.65C2163.7 48.5167 2163.32 51.0167 2162.55 53.15C2161.79 55.2833 2160.74 57.0667 2159.4 58.5C2158.07 59.9333 2156.57 61 2154.9 61.7C2153.24 62.4 2151.5 62.75 2149.7 62.75C2147.97 62.75 2146.27 62.4167 2144.6 61.75C2142.94 61.0833 2141.44 60.05 2140.1 58.65C2138.77 57.25 2137.7 55.5 2136.9 53.4C2136.14 51.2667 2135.75 48.75 2135.75 45.85C2135.75 42.9833 2136.14 40.4833 2136.9 38.35C2137.67 36.2167 2138.72 34.4333 2140.05 33C2141.39 31.5667 2142.89 30.5 2144.55 29.8C2146.22 29.1 2147.95 28.75 2149.75 28.75ZM2149.9 60.6C2150.87 60.6 2151.75 60.1667 2152.55 59.3C2153.35 58.4333 2153.99 56.9667 2154.45 54.9C2154.95 52.8333 2155.2 50 2155.2 46.4C2155.2 43.2667 2154.99 40.55 2154.55 38.25C2154.15 35.9167 2153.54 34.1167 2152.7 32.85C2151.87 31.55 2150.82 30.9 2149.55 30.9C2148.62 30.9 2147.74 31.3333 2146.9 32.2C2146.1 33.0667 2145.45 34.5333 2144.95 36.6C2144.49 38.6667 2144.25 41.5 2144.25 45.1C2144.25 48.2333 2144.45 50.9667 2144.85 53.3C2145.29 55.6 2145.92 57.4 2146.75 58.7C2147.59 59.9667 2148.64 60.6 2149.9 60.6ZM2191.31 52.75H2192.46L2191.96 62H2167.86V60.85C2168.13 60.7167 2168.53 60.4833 2169.06 60.15C2169.63 59.8167 2170.21 59.4333 2170.81 59C2172.48 57.8 2174.05 56.4333 2175.51 54.9C2176.98 53.3667 2178.26 51.7333 2179.36 50C2180.46 48.2667 2181.33 46.5333 2181.96 44.8C2182.6 43.0667 2182.91 41.4167 2182.91 39.85C2182.91 38.35 2182.55 37.0833 2181.81 36.05C2181.11 35.0167 2179.83 34.5 2177.96 34.5C2176.4 34.5 2174.95 34.9333 2173.61 35.8C2172.28 36.6667 2170.96 38.0167 2169.66 39.85L2168.71 39.05C2170.08 35.5833 2171.8 33 2173.86 31.3C2175.93 29.6 2178.51 28.75 2181.61 28.75C2183.41 28.75 2185.03 29.05 2186.46 29.65C2187.9 30.2167 2189.03 31.1167 2189.86 32.35C2190.73 33.55 2191.16 35.1167 2191.16 37.05C2191.16 40.4833 2190.06 43.7 2187.86 46.7C2185.7 49.7 2182.66 52.5167 2178.76 55.15V55.25H2186.06C2187.96 55.25 2189.28 55.0167 2190.01 54.55C2190.75 54.0833 2191.18 53.4833 2191.31 52.75ZM2219.09 49.25H2222.59V55.5H2220.49C2219.56 55.5 2219.09 56.0833 2219.09 57.25C2219.09 58.05 2219.09 58.8333 2219.09 59.6C2219.13 60.3333 2219.16 61.1333 2219.19 62L2211.29 62C2211.36 60.9 2211.41 59.8333 2211.44 58.8C2211.48 57.7333 2211.51 56.6333 2211.54 55.5L2195.74 55.5V54.35C2196.61 53.5167 2197.39 52.65 2198.09 51.75L2214.44 31.3C2214.81 30.8333 2215.14 30.3833 2215.44 29.95C2215.78 29.4833 2216.04 29.0833 2216.24 28.75H2219.14L2219.09 49.25ZM2211.44 38.8L2203.09 49.25L2211.59 49.25V38.8H2211.44Z" fill="black"/>
<path d="M2294.85 37.0198C2287.87 34.2333 2279.69 35.7194 2274.11 41.2924C2266.57 48.8158 2266.57 60.9834 2274.11 68.5068C2279.69 74.0798 2287.87 75.5659 2294.85 72.7794V63.8627C2293.46 64.5129 2291.97 64.8844 2290.39 64.8844C2284.8 64.8844 2280.34 60.4261 2280.34 54.8532C2280.34 49.2802 2284.8 44.8219 2290.39 44.8219C2291.97 44.8219 2293.55 45.1934 2294.85 45.8436V37.0198Z" fill="black"/>
<path d="M2291.69 28.084C2294.44 25.3287 2294.44 20.768 2291.69 17.9177C2288.94 15.1623 2284.39 15.1623 2281.55 17.9177C2278.71 20.673 2278.8 25.2337 2281.55 28.084C2284.39 30.8394 2288.94 30.8394 2291.69 28.084Z" fill="black"/>
<path d="M2341 62V60.85C2341.97 60.7833 2342.67 60.5333 2343.1 60.1C2343.53 59.6667 2343.75 58.6333 2343.75 57V33.75C2343.75 32.1167 2343.5 31.0833 2343 30.65C2342.53 30.1833 2341.62 29.9333 2340.25 29.9V28.75H2354.5V29.9C2353.53 29.9333 2352.83 30.1833 2352.4 30.65C2351.97 31.0833 2351.75 32.1167 2351.75 33.75V57C2351.75 58.6333 2352 59.6667 2352.5 60.1C2353 60.5333 2353.92 60.7833 2355.25 60.85V62H2341ZM2389.88 62.4C2389.38 61.8667 2388.86 61.35 2388.33 60.85C2387.79 60.3167 2386.94 59.5333 2385.78 58.5L2366.08 40.5H2365.98V57C2365.98 58.1333 2366.26 59.05 2366.83 59.75C2367.43 60.4167 2368.44 60.7833 2369.88 60.85V62H2360.63V60.85C2361.59 60.7833 2362.29 60.4167 2362.73 59.75C2363.16 59.05 2363.38 58.1333 2363.38 57V33.75C2363.38 32.1167 2363.13 31.0833 2362.63 30.65C2362.16 30.1833 2361.24 29.9333 2359.88 29.9V28.75H2365.88C2366.38 29.3833 2366.91 29.95 2367.48 30.45C2368.04 30.95 2368.69 31.55 2369.43 32.25L2389.33 50.25H2389.43V33.75C2389.43 32.6167 2389.14 31.7 2388.58 31C2388.01 30.3 2386.99 29.9333 2385.53 29.9V28.75L2394.78 28.75V29.9C2393.81 29.9333 2393.11 30.3 2392.68 31C2392.24 31.7 2392.03 32.6167 2392.03 33.75V57C2392.03 57.9333 2392.03 58.8333 2392.03 59.7C2392.06 60.5333 2392.09 61.4333 2392.13 62.4H2389.88ZM2398.73 28.75L2427.23 28.75V37H2426.08C2425.88 35.2 2425.35 33.7333 2424.48 32.6C2423.61 31.4667 2422.13 30.9 2420.03 30.9L2416.98 30.9V57C2416.98 58.6333 2417.23 59.6667 2417.73 60.1C2418.23 60.5333 2419.15 60.7833 2420.48 60.85V62H2406.23V60.85C2407.2 60.7833 2407.9 60.5333 2408.33 60.1C2408.76 59.6667 2408.98 58.6333 2408.98 57V30.9H2405.88C2403.85 30.9 2402.38 31.4667 2401.48 32.6C2400.61 33.7333 2400.08 35.2 2399.88 37H2398.73V28.75ZM2431.77 62V60.85C2432.73 60.7833 2433.43 60.5333 2433.87 60.1C2434.3 59.6667 2434.52 58.6333 2434.52 57V33.75C2434.52 32.1167 2434.27 31.0833 2433.77 30.65C2433.3 30.1833 2432.38 29.9333 2431.02 29.9V28.75H2455.57V35.75H2454.42C2454.35 34.3167 2453.85 33.15 2452.92 32.25C2452.02 31.35 2450.62 30.9 2448.72 30.9H2444.72C2444.02 30.9 2443.47 31.0833 2443.07 31.45C2442.7 31.8167 2442.52 32.5833 2442.52 33.75V43.6C2442.78 43.4 2443.1 43.2667 2443.47 43.2C2443.87 43.1333 2444.33 43.1 2444.87 43.1H2449.72C2450.72 43.1 2451.55 42.8167 2452.22 42.25C2452.88 41.6833 2453.23 40.9 2453.27 39.9H2454.42V48.4H2453.27C2453.23 47.1667 2452.88 46.3333 2452.22 45.9C2451.55 45.4667 2450.72 45.25 2449.72 45.25H2444.97C2444.07 45.25 2443.43 45.4 2443.07 45.7C2442.7 46 2442.52 46.5833 2442.52 47.45V57C2442.52 58.1667 2442.77 58.9333 2443.27 59.3C2443.8 59.6667 2444.82 59.85 2446.32 59.85H2451.07C2453.07 59.85 2454.65 59.25 2455.82 58.05C2456.98 56.85 2457.63 55.4167 2457.77 53.75H2458.92L2458.52 62H2431.77ZM2492.46 62.75C2490.96 62.75 2489.68 62.5 2488.61 62C2487.54 61.5333 2486.64 60.9 2485.91 60.1C2485.18 59.3 2484.49 58.4167 2483.86 57.45L2476.86 46.55C2476.53 45.9833 2476.23 45.6333 2475.96 45.5C2475.69 45.3667 2475.38 45.2833 2475.01 45.25V43.5C2477.01 43.3667 2478.56 42.9667 2479.66 42.3C2480.76 41.6333 2481.53 40.8167 2481.96 39.85C2482.39 38.85 2482.61 37.8167 2482.61 36.75C2482.61 34.7167 2482.04 33.2 2480.91 32.2C2479.78 31.1667 2478.48 30.65 2477.01 30.65C2475.91 30.65 2475.13 30.85 2474.66 31.25C2474.23 31.6167 2474.01 32.45 2474.01 33.75V57C2474.01 58.6333 2474.26 59.6667 2474.76 60.1C2475.26 60.5333 2476.18 60.7833 2477.51 60.85V62H2463.26V60.85C2464.23 60.7833 2464.93 60.5333 2465.36 60.1C2465.79 59.6667 2466.01 58.6333 2466.01 57V33.75C2466.01 32.1167 2465.76 31.0833 2465.26 30.65C2464.79 30.1833 2463.88 29.9333 2462.51 29.9V28.75H2466.01C2468.51 28.75 2470.78 28.7167 2472.81 28.65C2474.84 28.55 2476.58 28.5 2478.01 28.5C2481.31 28.5 2483.93 28.8167 2485.86 29.45C2487.83 30.05 2489.23 30.9 2490.06 32C2490.93 33.1 2491.36 34.35 2491.36 35.75C2491.36 37.0833 2491.03 38.3 2490.36 39.4C2489.73 40.5 2488.88 41.4333 2487.81 42.2C2486.78 42.9333 2485.64 43.45 2484.41 43.75V43.85L2492.71 56.85C2493.68 58.3833 2494.56 59.4333 2495.36 60C2496.16 60.5667 2496.88 60.85 2497.51 60.85V62C2496.84 62.2333 2496.04 62.4167 2495.11 62.55C2494.21 62.6833 2493.33 62.75 2492.46 62.75ZM2516.07 62.75C2512.57 62.75 2509.47 62.05 2506.77 60.65C2504.07 59.25 2501.96 57.2833 2500.42 54.75C2498.89 52.1833 2498.12 49.2167 2498.12 45.85C2498.12 43.0833 2498.62 40.6167 2499.62 38.45C2500.62 36.25 2501.99 34.3667 2503.72 32.8C2505.49 31.2333 2507.51 30.05 2509.77 29.25C2512.07 28.4167 2514.52 28 2517.12 28C2519.09 28 2520.97 28.1833 2522.77 28.55C2524.57 28.9167 2526.01 29.35 2527.07 29.85V37.75H2525.92C2525.26 35.7167 2524.46 34.1667 2523.52 33.1C2522.59 32 2521.54 31.2333 2520.37 30.8C2519.24 30.3667 2518.04 30.15 2516.77 30.15C2510.34 30.15 2507.12 34.8167 2507.12 44.15C2507.12 47.2167 2507.44 50 2508.07 52.5C2508.74 55 2509.76 56.9833 2511.12 58.45C2512.52 59.8833 2514.31 60.6 2516.47 60.6C2518.24 60.6 2519.84 60.1667 2521.27 59.3C2522.71 58.4 2523.92 57.2167 2524.92 55.75C2525.96 54.2833 2526.69 52.7 2527.12 51H2528.27L2527.87 58.6C2526.77 59.8 2525.22 60.8 2523.22 61.6C2521.22 62.3667 2518.84 62.75 2516.07 62.75ZM2549.45 28C2551.82 28 2554.02 28.4 2556.05 29.2C2558.08 30 2559.88 31.1667 2561.45 32.7C2563.02 34.2 2564.23 36.0167 2565.1 38.15C2565.97 40.2833 2566.4 42.6667 2566.4 45.3C2566.4 47.9333 2565.97 50.3167 2565.1 52.45C2564.23 54.5833 2563.02 56.4167 2561.45 57.95C2559.92 59.4833 2558.12 60.6667 2556.05 61.5C2553.98 62.3333 2551.77 62.75 2549.4 62.75C2547.07 62.75 2544.87 62.35 2542.8 61.55C2540.77 60.75 2538.97 59.6 2537.4 58.1C2535.83 56.5667 2534.62 54.7333 2533.75 52.6C2532.88 50.4667 2532.45 48.0833 2532.45 45.45C2532.45 42.8167 2532.88 40.4333 2533.75 38.3C2534.62 36.1667 2535.82 34.3333 2537.35 32.8C2538.92 31.2667 2540.73 30.0833 2542.8 29.25C2544.87 28.4167 2547.08 28 2549.45 28ZM2550.45 60.6C2552.18 60.6 2553.55 60.0333 2554.55 58.9C2555.55 57.7333 2556.27 56.1333 2556.7 54.1C2557.17 52.0667 2557.4 49.7 2557.4 47C2557.4 41.5667 2556.57 37.4 2554.9 34.5C2553.27 31.6 2551.1 30.15 2548.4 30.15C2546.7 30.15 2545.33 30.7167 2544.3 31.85C2543.3 32.9833 2542.57 34.5833 2542.1 36.65C2541.67 38.6833 2541.45 41.05 2541.45 43.75C2541.45 49.1833 2542.27 53.35 2543.9 56.25C2545.57 59.15 2547.75 60.6 2550.45 60.6ZM2589.55 62.4C2589.28 61.6333 2588.95 60.85 2588.55 60.05C2588.18 59.2167 2587.68 58.1333 2587.05 56.8L2578.05 38H2577.95L2577.05 57C2577.01 58.1333 2577.28 59.05 2577.85 59.75C2578.41 60.4167 2579.45 60.7833 2580.95 60.85V62H2571.7V60.85C2572.66 60.7833 2573.35 60.4167 2573.75 59.75C2574.18 59.05 2574.41 58.1333 2574.45 57L2575.5 33.75C2575.56 32.5833 2575.48 31.75 2575.25 31.25C2575.05 30.75 2574.68 30.4333 2574.15 30.3C2573.61 30.1333 2572.9 30 2572 29.9V28.75H2582.7C2582.96 29.6167 2583.26 30.4333 2583.6 31.2C2583.96 31.9667 2584.36 32.8167 2584.8 33.75L2593.4 51.75H2593.5L2601.5 33.75C2602.26 32.05 2602.85 30.3833 2603.25 28.75H2613.85V29.9C2613.21 29.9333 2612.68 30.0333 2612.25 30.2C2611.81 30.3667 2611.5 30.7167 2611.3 31.25C2611.13 31.75 2611.06 32.5833 2611.1 33.75L2612.15 57C2612.21 58.0667 2612.35 58.8667 2612.55 59.4C2612.78 59.9333 2613.15 60.3 2613.65 60.5C2614.15 60.6667 2614.81 60.7833 2615.65 60.85V62H2601.4V60.85C2602.46 60.7833 2603.2 60.5333 2603.6 60.1C2604.03 59.6667 2604.21 58.6333 2604.15 57L2603.3 36.55H2603.2L2594.15 56.8C2593.51 58.2 2593.05 59.3 2592.75 60.1C2592.48 60.8667 2592.25 61.6333 2592.05 62.4H2589.55ZM2637.54 62.4C2637.28 61.6333 2636.94 60.85 2636.54 60.05C2636.18 59.2167 2635.68 58.1333 2635.04 56.8L2626.04 38H2625.94L2625.04 57C2625.01 58.1333 2625.28 59.05 2625.84 59.75C2626.41 60.4167 2627.44 60.7833 2628.94 60.85V62H2619.69V60.85C2620.66 60.7833 2621.34 60.4167 2621.74 59.75C2622.18 59.05 2622.41 58.1333 2622.44 57L2623.49 33.75C2623.56 32.5833 2623.48 31.75 2623.24 31.25C2623.04 30.75 2622.68 30.4333 2622.14 30.3C2621.61 30.1333 2620.89 30 2619.99 29.9V28.75H2630.69C2630.96 29.6167 2631.26 30.4333 2631.59 31.2C2631.96 31.9667 2632.36 32.8167 2632.79 33.75L2641.39 51.75H2641.49L2649.49 33.75C2650.26 32.05 2650.84 30.3833 2651.24 28.75H2661.84V29.9C2661.21 29.9333 2660.68 30.0333 2660.24 30.2C2659.81 30.3667 2659.49 30.7167 2659.29 31.25C2659.13 31.75 2659.06 32.5833 2659.09 33.75L2660.14 57C2660.21 58.0667 2660.34 58.8667 2660.54 59.4C2660.78 59.9333 2661.14 60.3 2661.64 60.5C2662.14 60.6667 2662.81 60.7833 2663.64 60.85V62L2649.39 62V60.85C2650.46 60.7833 2651.19 60.5333 2651.59 60.1C2652.03 59.6667 2652.21 58.6333 2652.14 57L2651.29 36.55H2651.19L2642.14 56.8C2641.51 58.2 2641.04 59.3 2640.74 60.1C2640.48 60.8667 2640.24 61.6333 2640.04 62.4H2637.54ZM2702.87 52.75H2704.02L2703.52 62H2679.42V60.85C2679.69 60.7167 2680.09 60.4833 2680.62 60.15C2681.19 59.8167 2681.77 59.4333 2682.37 59C2684.04 57.8 2685.6 56.4333 2687.07 54.9C2688.54 53.3667 2689.82 51.7333 2690.92 50C2692.02 48.2667 2692.89 46.5333 2693.52 44.8C2694.15 43.0667 2694.47 41.4167 2694.47 39.85C2694.47 38.35 2694.1 37.0833 2693.37 36.05C2692.67 35.0167 2691.39 34.5 2689.52 34.5C2687.95 34.5 2686.5 34.9333 2685.17 35.8C2683.84 36.6667 2682.52 38.0167 2681.22 39.85L2680.27 39.05C2681.64 35.5833 2683.35 33 2685.42 31.3C2687.49 29.6 2690.07 28.75 2693.17 28.75C2694.97 28.75 2696.59 29.05 2698.02 29.65C2699.45 30.2167 2700.59 31.1167 2701.42 32.35C2702.29 33.55 2702.72 35.1167 2702.72 37.05C2702.72 40.4833 2701.62 43.7 2699.42 46.7C2697.25 49.7 2694.22 52.5167 2690.32 55.15V55.25H2697.62C2699.52 55.25 2700.84 55.0167 2701.57 54.55C2702.3 54.0833 2702.74 53.4833 2702.87 52.75ZM2724.15 28.75C2725.88 28.75 2727.58 29.0833 2729.25 29.75C2730.92 30.4167 2732.42 31.45 2733.75 32.85C2735.08 34.25 2736.13 36.0167 2736.9 38.15C2737.7 40.25 2738.1 42.75 2738.1 45.65C2738.1 48.5167 2737.72 51.0167 2736.95 53.15C2736.18 55.2833 2735.13 57.0667 2733.8 58.5C2732.47 59.9333 2730.97 61 2729.3 61.7C2727.63 62.4 2725.9 62.75 2724.1 62.75C2722.37 62.75 2720.67 62.4167 2719 61.75C2717.33 61.0833 2715.83 60.05 2714.5 58.65C2713.17 57.25 2712.1 55.5 2711.3 53.4C2710.53 51.2667 2710.15 48.75 2710.15 45.85C2710.15 42.9833 2710.53 40.4833 2711.3 38.35C2712.07 36.2167 2713.12 34.4333 2714.45 33C2715.78 31.5667 2717.28 30.5 2718.95 29.8C2720.62 29.1 2722.35 28.75 2724.15 28.75ZM2724.3 60.6C2725.27 60.6 2726.15 60.1667 2726.95 59.3C2727.75 58.4333 2728.38 56.9667 2728.85 54.9C2729.35 52.8333 2729.6 50 2729.6 46.4C2729.6 43.2667 2729.38 40.55 2728.95 38.25C2728.55 35.9167 2727.93 34.1167 2727.1 32.85C2726.27 31.55 2725.22 30.9 2723.95 30.9C2723.02 30.9 2722.13 31.3333 2721.3 32.2C2720.5 33.0667 2719.85 34.5333 2719.35 36.6C2718.88 38.6667 2718.65 41.5 2718.65 45.1C2718.65 48.2333 2718.85 50.9667 2719.25 53.3C2719.68 55.6 2720.32 57.4 2721.15 58.7C2721.98 59.9667 2723.03 60.6 2724.3 60.6ZM2765.71 52.75H2766.86L2766.36 62H2742.26V60.85C2742.53 60.7167 2742.93 60.4833 2743.46 60.15C2744.03 59.8167 2744.61 59.4333 2745.21 59C2746.88 57.8 2748.44 56.4333 2749.91 54.9C2751.38 53.3667 2752.66 51.7333 2753.76 50C2754.86 48.2667 2755.73 46.5333 2756.36 44.8C2756.99 43.0667 2757.31 41.4167 2757.31 39.85C2757.31 38.35 2756.94 37.0833 2756.21 36.05C2755.51 35.0167 2754.23 34.5 2752.36 34.5C2750.79 34.5 2749.34 34.9333 2748.01 35.8C2746.68 36.6667 2745.36 38.0167 2744.06 39.85L2743.11 39.05C2744.48 35.5833 2746.19 33 2748.26 31.3C2750.33 29.6 2752.91 28.75 2756.01 28.75C2757.81 28.75 2759.43 29.05 2760.86 29.65C2762.29 30.2167 2763.43 31.1167 2764.26 32.35C2765.13 33.55 2765.56 35.1167 2765.56 37.05C2765.56 40.4833 2764.46 43.7 2762.26 46.7C2760.09 49.7 2757.06 52.5167 2753.16 55.15V55.25H2760.46C2762.36 55.25 2763.68 55.0167 2764.41 54.55C2765.14 54.0833 2765.58 53.4833 2765.71 52.75ZM2793.49 49.25H2796.99V55.5H2794.89C2793.96 55.5 2793.49 56.0833 2793.49 57.25C2793.49 58.05 2793.49 58.8333 2793.49 59.6C2793.53 60.3333 2793.56 61.1333 2793.59 62L2785.69 62C2785.76 60.9 2785.81 59.8333 2785.84 58.8C2785.88 57.7333 2785.91 56.6333 2785.94 55.5L2770.14 55.5V54.35C2771.01 53.5167 2771.79 52.65 2772.49 51.75L2788.84 31.3C2789.21 30.8333 2789.54 30.3833 2789.84 29.95C2790.18 29.4833 2790.44 29.0833 2790.64 28.75H2793.54L2793.49 49.25ZM2785.84 38.8L2777.49 49.25L2785.99 49.25V38.8H2785.84Z" fill="black"/>
<defs>
<linearGradient id="paint0_linear_562_1115" x1="0" y1="45" x2="2839.6" y2="45" gradientUnits="userSpaceOnUse">
<stop stop-color="white"/>
<stop offset="0.325" stop-color="#D4D4D4"/>
<stop offset="0.685" stop-color="white"/>
<stop offset="0.98" stop-color="#D4D4D4"/>
</linearGradient>
</defs>
</svg>
