<svg width="3117" height="115" viewBox="0 0 3117 115" fill="none" xmlns="http://www.w3.org/2000/svg">
<rect x="0.46875" y="0.869141" width="3115.8" height="114" rx="4" fill="#272729"/>
<path d="M74.2088 67.9191H75.8187L75.1188 80.8691H41.3788V79.2591C41.7521 79.0725 42.3121 78.7458 43.0588 78.2791C43.8521 77.8125 44.6688 77.2758 45.5088 76.6691C47.8421 74.9891 50.0354 73.0758 52.0888 70.9291C54.1421 68.7825 55.9388 66.4958 57.4788 64.0691C59.0188 61.6425 60.2321 59.2158 61.1188 56.7891C62.0054 54.3625 62.4488 52.0525 62.4488 49.8591C62.4488 47.7591 61.9354 45.9858 60.9088 44.5391C59.9288 43.0925 58.1321 42.3691 55.5188 42.3691C53.3254 42.3691 51.2954 42.9758 49.4288 44.1891C47.5621 45.4025 45.7188 47.2925 43.8988 49.8591L42.5688 48.7391C44.4821 43.8858 46.8854 40.2691 49.7788 37.8891C52.6721 35.5091 56.2888 34.3191 60.6288 34.3191C63.1488 34.3191 65.4121 34.7391 67.4188 35.5791C69.4254 36.3725 71.0121 37.6325 72.1788 39.3591C73.3921 41.0391 73.9988 43.2325 73.9988 45.9391C73.9988 50.7458 72.4588 55.2491 69.3788 59.4491C66.3454 63.6491 62.0988 67.5925 56.6388 71.2791V71.4191H66.8588C69.5188 71.4191 71.3621 71.0925 72.3888 70.4391C73.4154 69.7858 74.0221 68.9458 74.2088 67.9191ZM104.002 34.3191C106.429 34.3191 108.809 34.7858 111.142 35.7191C113.475 36.6525 115.575 38.0991 117.442 40.0591C119.309 42.0191 120.779 44.4925 121.852 47.4791C122.972 50.4191 123.532 53.9191 123.532 57.9791C123.532 61.9925 122.995 65.4925 121.922 68.4791C120.849 71.4658 119.379 73.9625 117.512 75.9691C115.645 77.9758 113.545 79.4691 111.212 80.4491C108.879 81.4291 106.452 81.9191 103.932 81.9191C101.505 81.9191 99.1253 81.4525 96.792 80.5191C94.4586 79.5858 92.3586 78.1391 90.492 76.1791C88.6253 74.2191 87.132 71.7691 86.012 68.8291C84.9386 65.8425 84.402 62.3191 84.402 58.2591C84.402 54.2458 84.9386 50.7458 86.012 47.7591C87.0853 44.7725 88.5553 42.2758 90.422 40.2691C92.2886 38.2625 94.3886 36.7691 96.722 35.7891C99.0553 34.8091 101.482 34.3191 104.002 34.3191ZM104.212 78.9091C105.565 78.9091 106.802 78.3025 107.922 77.0891C109.042 75.8758 109.929 73.8225 110.582 70.9291C111.282 68.0358 111.632 64.0691 111.632 59.0291C111.632 54.6425 111.329 50.8391 110.722 47.6191C110.162 44.3525 109.299 41.8325 108.132 40.0591C106.965 38.2391 105.495 37.3291 103.722 37.3291C102.415 37.3291 101.179 37.9358 100.012 39.1491C98.892 40.3625 97.982 42.4158 97.282 45.3091C96.6286 48.2025 96.302 52.1691 96.302 57.2091C96.302 61.5958 96.582 65.4225 97.142 68.6891C97.7486 71.9091 98.6353 74.4291 99.802 76.2491C100.969 78.0225 102.439 78.9091 104.212 78.9091ZM171.044 59.7291L149.344 61.6191L148.854 55.9491L170.554 54.0591L171.044 59.7291ZM225.215 67.9191H226.825L226.125 80.8691H192.385V79.2591C192.758 79.0725 193.318 78.7458 194.065 78.2791C194.858 77.8125 195.675 77.2758 196.515 76.6691C198.848 74.9891 201.041 73.0758 203.095 70.9291C205.148 68.7825 206.945 66.4958 208.485 64.0691C210.025 61.6425 211.238 59.2158 212.125 56.7891C213.011 54.3625 213.455 52.0525 213.455 49.8591C213.455 47.7591 212.941 45.9858 211.915 44.5391C210.935 43.0925 209.138 42.3691 206.525 42.3691C204.331 42.3691 202.301 42.9758 200.435 44.1891C198.568 45.4025 196.725 47.2925 194.905 49.8591L193.575 48.7391C195.488 43.8858 197.891 40.2691 200.785 37.8891C203.678 35.5091 207.295 34.3191 211.635 34.3191C214.155 34.3191 216.418 34.7391 218.425 35.5791C220.431 36.3725 222.018 37.6325 223.185 39.3591C224.398 41.0391 225.005 43.2325 225.005 45.9391C225.005 50.7458 223.465 55.2491 220.385 59.4491C217.351 63.6491 213.105 67.5925 207.645 71.2791V71.4191H217.865C220.525 71.4191 222.368 71.0925 223.395 70.4391C224.421 69.7858 225.028 68.9458 225.215 67.9191ZM253.818 73.1691C253.818 74.8958 253.958 76.2025 254.238 77.0891C254.564 77.9291 255.218 78.4891 256.198 78.7691C257.224 79.0491 258.764 79.2125 260.818 79.2591V80.8691H234.918V79.2591C237.018 79.2125 238.558 79.0491 239.538 78.7691C240.564 78.4891 241.218 77.9291 241.498 77.0891C241.778 76.2025 241.918 74.8958 241.918 73.1691V42.7191L235.478 46.7091L234.008 44.4691L250.248 34.3191H254.308C254.121 35.2058 253.981 36.0925 253.888 36.9791C253.841 37.8658 253.818 38.7525 253.818 39.6391V73.1691ZM285.837 80.8691V79.2591C287.191 79.1658 288.171 78.8158 288.777 78.2091C289.384 77.6025 289.687 76.1558 289.687 73.8691V41.3191C289.687 39.0325 289.337 37.5858 288.637 36.9791C287.984 36.3258 286.701 35.9758 284.787 35.9291V34.3191H304.737V35.9291C303.384 35.9758 302.404 36.3258 301.797 36.9791C301.191 37.5858 300.887 39.0325 300.887 41.3191V53.7091C301.261 53.4291 301.704 53.2425 302.217 53.1491C302.777 53.0558 303.431 53.0091 304.177 53.0091H317.407C318.667 53.0091 319.554 52.7991 320.067 52.3791C320.581 51.9591 320.837 51.1191 320.837 49.8591V41.3191C320.837 39.0325 320.487 37.5858 319.787 36.9791C319.134 36.3258 317.851 35.9758 315.937 35.9291V34.3191H335.887V35.9291C334.534 35.9758 333.554 36.3258 332.947 36.9791C332.341 37.5858 332.037 39.0325 332.037 41.3191V73.8691C332.037 76.1558 332.387 77.6025 333.087 78.2091C333.787 78.8158 335.071 79.1658 336.937 79.2591V80.8691H316.987V79.2591C318.341 79.1658 319.321 78.8158 319.927 78.2091C320.534 77.6025 320.837 76.1558 320.837 73.8691V55.2491C320.464 55.5758 319.997 55.7858 319.437 55.8791C318.877 55.9725 318.247 56.0191 317.547 56.0191H304.317C303.057 56.0191 302.171 56.2291 301.657 56.6491C301.144 57.0691 300.887 57.8858 300.887 59.0991V73.8691C300.887 76.1558 301.237 77.6025 301.937 78.2091C302.637 78.8158 303.921 79.1658 305.787 79.2591V80.8691H285.837ZM367.811 33.2691C371.125 33.2691 374.205 33.8291 377.051 34.9491C379.898 36.0691 382.418 37.7025 384.611 39.8491C386.805 41.9491 388.508 44.4925 389.721 47.4791C390.935 50.4658 391.541 53.8025 391.541 57.4891C391.541 61.1758 390.935 64.5125 389.721 67.4991C388.508 70.4858 386.805 73.0525 384.611 75.1991C382.465 77.3458 379.945 79.0025 377.051 80.1691C374.158 81.3358 371.055 81.9191 367.741 81.9191C364.475 81.9191 361.395 81.3591 358.501 80.2391C355.655 79.1191 353.135 77.5091 350.941 75.4091C348.748 73.2625 347.045 70.6958 345.831 67.7091C344.618 64.7225 344.011 61.3858 344.011 57.6991C344.011 54.0125 344.618 50.6758 345.831 47.6891C347.045 44.7025 348.725 42.1358 350.871 39.9891C353.065 37.8425 355.608 36.1858 358.501 35.0191C361.395 33.8525 364.498 33.2691 367.811 33.2691ZM369.211 78.9091C371.638 78.9091 373.551 78.1158 374.951 76.5291C376.351 74.8958 377.355 72.6558 377.961 69.8091C378.615 66.9625 378.941 63.6491 378.941 59.8691C378.941 52.2625 377.775 46.4291 375.441 42.3691C373.155 38.3091 370.121 36.2791 366.341 36.2791C363.961 36.2791 362.048 37.0725 360.601 38.6591C359.201 40.2458 358.175 42.4858 357.521 45.3791C356.915 48.2258 356.611 51.5391 356.611 55.3191C356.611 62.9258 357.755 68.7591 360.041 72.8191C362.375 76.8791 365.431 78.9091 369.211 78.9091ZM399.497 81.9191C398.33 81.9191 397.093 81.8258 395.787 81.6391C394.48 81.4525 393.36 81.1958 392.427 80.8691V79.2591C393.36 79.2591 394.41 78.8858 395.577 78.1391C396.743 77.3925 397.933 75.8991 399.147 73.6591L409.157 55.5291C406.03 54.7358 403.65 53.4525 402.017 51.6791C400.43 49.9058 399.637 47.7591 399.637 45.2391C399.637 43.2791 400.22 41.4358 401.387 39.7091C402.6 37.9825 404.56 36.6058 407.267 35.5791C410.02 34.5058 413.707 33.9691 418.327 33.9691C419.82 33.9691 421.547 34.0391 423.507 34.1791C425.467 34.2725 427.637 34.3191 430.017 34.3191H438.977V35.9291C437.623 35.9758 436.643 36.3258 436.037 36.9791C435.43 37.5858 435.127 39.0325 435.127 41.3191V73.8691C435.127 76.1558 435.477 77.6025 436.177 78.2091C436.877 78.8158 438.16 79.1658 440.027 79.2591V80.8691H420.077V79.2591C421.43 79.1658 422.41 78.8158 423.017 78.2091C423.623 77.6025 423.927 76.1558 423.927 73.8691V41.3191C423.927 39.4991 423.6 38.3325 422.947 37.8191C422.34 37.2591 421.267 36.9791 419.727 36.9791C417.72 36.9791 415.9 37.7025 414.267 39.1491C412.68 40.5491 411.887 42.6725 411.887 45.5191C411.887 47.0125 412.19 48.4591 412.797 49.8591C413.403 51.2125 414.477 52.3558 416.017 53.2891C417.603 54.2225 419.773 54.7825 422.527 54.9691V57.4191C421.967 57.4191 421.477 57.5358 421.057 57.7691C420.637 57.9558 420.217 58.4458 419.797 59.2391L411.887 74.4991C410.813 76.5525 409.32 78.3025 407.407 79.7491C405.493 81.1958 402.857 81.9191 399.497 81.9191ZM462.147 52.8691H468.937C474.024 52.8691 478.037 53.4291 480.977 54.5491C483.917 55.6691 485.994 57.2091 487.207 59.1691C488.467 61.1291 489.097 63.3925 489.097 65.9591C489.097 68.5258 488.397 70.9525 486.997 73.2391C485.644 75.4791 483.52 77.3225 480.627 78.7691C477.78 80.1691 474.14 80.8691 469.707 80.8691H447.097V79.2591C448.45 79.1658 449.43 78.8158 450.037 78.2091C450.644 77.6025 450.947 76.1558 450.947 73.8691V41.3191C450.947 39.0325 450.597 37.5858 449.897 36.9791C449.244 36.3258 447.96 35.9758 446.047 35.9291V34.3191H484.547V45.8691H482.937C482.797 44.2825 482.494 42.8591 482.027 41.5991C481.56 40.2925 480.767 39.2658 479.647 38.5191C478.527 37.7258 476.917 37.3291 474.817 37.3291H465.227C464.247 37.3291 463.477 37.5858 462.917 38.0991C462.404 38.6125 462.147 39.6858 462.147 41.3191V52.8691ZM466.277 77.8591C468.75 77.8591 470.78 77.2758 472.367 76.1091C474 74.8958 475.214 73.4025 476.007 71.6291C476.8 69.8558 477.197 68.1058 477.197 66.3791C477.197 63.8125 476.707 61.7591 475.727 60.2191C474.794 58.6791 473.51 57.5825 471.877 56.9291C470.29 56.2291 468.494 55.8791 466.487 55.8791H462.147V73.8691C462.147 75.5025 462.404 76.5758 462.917 77.0891C463.43 77.6025 464.55 77.8591 466.277 77.8591ZM496.521 80.8691V79.2591C497.874 79.1658 498.854 78.8158 499.461 78.2091C500.068 77.6025 500.371 76.1558 500.371 73.8691V41.3191C500.371 39.0325 500.021 37.5858 499.321 36.9791C498.668 36.3258 497.384 35.9758 495.471 35.9291V34.3191H500.371C503.778 34.3191 506.974 34.2725 509.961 34.1791C512.948 34.0391 515.188 33.9691 516.681 33.9691C521.534 33.9691 525.361 34.5058 528.161 35.5791C531.008 36.6525 533.038 38.0758 534.251 39.8491C535.511 41.5758 536.141 43.4891 536.141 45.5891C536.141 48.0158 535.348 50.3258 533.761 52.5191C532.221 54.7125 529.748 56.4158 526.341 57.6291C522.981 58.7958 518.524 59.1691 512.971 58.7491V56.2991C515.491 56.3925 517.568 55.9491 519.201 54.9691C520.834 53.9425 522.024 52.5891 522.771 50.9091C523.564 49.2291 523.961 47.4325 523.961 45.5191C523.961 42.9525 523.238 40.8991 521.791 39.3591C520.344 37.7725 518.338 36.9791 515.771 36.9791C514.231 36.9791 513.134 37.2591 512.481 37.8191C511.874 38.3325 511.571 39.4991 511.571 41.3191V73.8691C511.571 75.3625 511.711 76.5058 511.991 77.2991C512.318 78.0458 512.878 78.5591 513.671 78.8391C514.511 79.0725 515.678 79.2125 517.171 79.2591V80.8691H496.521ZM543.53 81.9191C542.363 81.9191 541.126 81.8258 539.82 81.6391C538.513 81.4525 537.393 81.1958 536.46 80.8691V79.2591C537.393 79.2591 538.443 78.8858 539.61 78.1391C540.776 77.3925 541.966 75.8991 543.18 73.6591L553.19 55.5291C550.063 54.7358 547.683 53.4525 546.05 51.6791C544.463 49.9058 543.67 47.7591 543.67 45.2391C543.67 43.2791 544.253 41.4358 545.42 39.7091C546.633 37.9825 548.593 36.6058 551.3 35.5791C554.053 34.5058 557.74 33.9691 562.36 33.9691C563.853 33.9691 565.58 34.0391 567.54 34.1791C569.5 34.2725 571.67 34.3191 574.05 34.3191H583.01V35.9291C581.656 35.9758 580.676 36.3258 580.07 36.9791C579.463 37.5858 579.16 39.0325 579.16 41.3191V73.8691C579.16 76.1558 579.51 77.6025 580.21 78.2091C580.91 78.8158 582.193 79.1658 584.06 79.2591V80.8691H564.11V79.2591C565.463 79.1658 566.443 78.8158 567.05 78.2091C567.656 77.6025 567.96 76.1558 567.96 73.8691V41.3191C567.96 39.4991 567.633 38.3325 566.98 37.8191C566.373 37.2591 565.3 36.9791 563.76 36.9791C561.753 36.9791 559.933 37.7025 558.3 39.1491C556.713 40.5491 555.92 42.6725 555.92 45.5191C555.92 47.0125 556.223 48.4591 556.83 49.8591C557.436 51.2125 558.51 52.3558 560.05 53.2891C561.636 54.2225 563.806 54.7825 566.56 54.9691V57.4191C566 57.4191 565.51 57.5358 565.09 57.7691C564.67 57.9558 564.25 58.4458 563.83 59.2391L555.92 74.4991C554.846 76.5525 553.353 78.3025 551.44 79.7491C549.526 81.1958 546.89 81.9191 543.53 81.9191ZM639.678 67.9191H641.287L640.588 80.8691H606.848V79.2591C607.221 79.0725 607.781 78.7458 608.528 78.2791C609.321 77.8125 610.138 77.2758 610.978 76.6691C613.311 74.9891 615.504 73.0758 617.558 70.9291C619.611 68.7825 621.408 66.4958 622.948 64.0691C624.488 61.6425 625.701 59.2158 626.588 56.7891C627.474 54.3625 627.918 52.0525 627.918 49.8591C627.918 47.7591 627.404 45.9858 626.378 44.5391C625.398 43.0925 623.601 42.3691 620.988 42.3691C618.794 42.3691 616.764 42.9758 614.898 44.1891C613.031 45.4025 611.188 47.2925 609.368 49.8591L608.038 48.7391C609.951 43.8858 612.354 40.2691 615.248 37.8891C618.141 35.5091 621.758 34.3191 626.098 34.3191C628.618 34.3191 630.881 34.7391 632.888 35.5791C634.894 36.3725 636.481 37.6325 637.648 39.3591C638.861 41.0391 639.468 43.2325 639.468 45.9391C639.468 50.7458 637.928 55.2491 634.848 59.4491C631.814 63.6491 627.568 67.5925 622.108 71.2791V71.4191H632.328C634.988 71.4191 636.831 71.0925 637.858 70.4391C638.884 69.7858 639.491 68.9458 639.678 67.9191ZM669.471 34.3191C671.897 34.3191 674.277 34.7858 676.611 35.7191C678.944 36.6525 681.044 38.0991 682.911 40.0591C684.777 42.0191 686.247 44.4925 687.321 47.4791C688.441 50.4191 689.001 53.9191 689.001 57.9791C689.001 61.9925 688.464 65.4925 687.391 68.4791C686.317 71.4658 684.847 73.9625 682.981 75.9691C681.114 77.9758 679.014 79.4691 676.681 80.4491C674.347 81.4291 671.921 81.9191 669.401 81.9191C666.974 81.9191 664.594 81.4525 662.261 80.5191C659.927 79.5858 657.827 78.1391 655.961 76.1791C654.094 74.2191 652.601 71.7691 651.481 68.8291C650.407 65.8425 649.871 62.3191 649.871 58.2591C649.871 54.2458 650.407 50.7458 651.481 47.7591C652.554 44.7725 654.024 42.2758 655.891 40.2691C657.757 38.2625 659.857 36.7691 662.191 35.7891C664.524 34.8091 666.951 34.3191 669.471 34.3191ZM669.681 78.9091C671.034 78.9091 672.271 78.3025 673.391 77.0891C674.511 75.8758 675.397 73.8225 676.051 70.9291C676.751 68.0358 677.101 64.0691 677.101 59.0291C677.101 54.6425 676.797 50.8391 676.191 47.6191C675.631 44.3525 674.767 41.8325 673.601 40.0591C672.434 38.2391 670.964 37.3291 669.191 37.3291C667.884 37.3291 666.647 37.9358 665.481 39.1491C664.361 40.3625 663.451 42.4158 662.751 45.3091C662.097 48.2025 661.771 52.1691 661.771 57.2091C661.771 61.5958 662.051 65.4225 662.611 68.6891C663.217 71.9091 664.104 74.4291 665.271 76.2491C666.437 78.0225 667.907 78.9091 669.681 78.9091ZM727.656 67.9191H729.266L728.566 80.8691H694.826V79.2591C695.199 79.0725 695.759 78.7458 696.506 78.2791C697.299 77.8125 698.116 77.2758 698.956 76.6691C701.289 74.9891 703.483 73.0758 705.536 70.9291C707.589 68.7825 709.386 66.4958 710.926 64.0691C712.466 61.6425 713.679 59.2158 714.566 56.7891C715.453 54.3625 715.896 52.0525 715.896 49.8591C715.896 47.7591 715.383 45.9858 714.356 44.5391C713.376 43.0925 711.579 42.3691 708.966 42.3691C706.773 42.3691 704.743 42.9758 702.876 44.1891C701.009 45.4025 699.166 47.2925 697.346 49.8591L696.016 48.7391C697.929 43.8858 700.333 40.2691 703.226 37.8891C706.119 35.5091 709.736 34.3191 714.076 34.3191C716.596 34.3191 718.859 34.7391 720.866 35.5791C722.873 36.3725 724.459 37.6325 725.626 39.3591C726.839 41.0391 727.446 43.2325 727.446 45.9391C727.446 50.7458 725.906 55.2491 722.826 59.4491C719.793 63.6491 715.546 67.5925 710.086 71.2791V71.4191H720.306C722.966 71.4191 724.809 71.0925 725.836 70.4391C726.863 69.7858 727.469 68.9458 727.656 67.9191ZM766.549 63.0191H771.449V71.7691H768.509C767.203 71.7691 766.549 72.5858 766.549 74.2191C766.549 75.3391 766.549 76.4358 766.549 77.5091C766.596 78.5358 766.643 79.6558 766.689 80.8691H755.629C755.723 79.3291 755.793 77.8358 755.839 76.3891C755.886 74.8958 755.933 73.3558 755.979 71.7691H733.859V70.1591C735.073 68.9925 736.169 67.7791 737.149 66.5191L760.039 37.8891C760.553 37.2358 761.019 36.6058 761.439 35.9991C761.906 35.3458 762.279 34.7858 762.559 34.3191H766.619L766.549 63.0191ZM755.839 48.3891L744.149 63.0191H756.049V48.3891H755.839ZM828.879 34.3191V47.2691H827.269C827.035 45.2158 826.615 43.4658 826.009 42.0191C825.449 40.5258 824.562 39.3825 823.349 38.5891C822.182 37.7491 820.549 37.3291 818.449 37.3291H815.159C814.179 37.3291 813.409 37.5858 812.849 38.0991C812.335 38.6125 812.079 39.6858 812.079 41.3191V73.8691C812.079 76.1558 812.429 77.6025 813.129 78.2091C813.829 78.8158 815.112 79.1658 816.979 79.2591V80.8691H797.029V79.2591C798.382 79.1658 799.362 78.8158 799.969 78.2091C800.575 77.6025 800.879 76.1558 800.879 73.8691V41.3191C800.879 39.0325 800.529 37.5858 799.829 36.9791C799.175 36.3258 797.892 35.9758 795.979 35.9291V34.3191L828.879 34.3191ZM856.923 33.2691C860.236 33.2691 863.316 33.8291 866.163 34.9491C869.009 36.0691 871.529 37.7025 873.723 39.8491C875.916 41.9491 877.619 44.4925 878.833 47.4791C880.046 50.4658 880.653 53.8025 880.653 57.4891C880.653 61.1758 880.046 64.5125 878.833 67.4991C877.619 70.4858 875.916 73.0525 873.723 75.1991C871.576 77.3458 869.056 79.0025 866.163 80.1691C863.269 81.3358 860.166 81.9191 856.853 81.9191C853.586 81.9191 850.506 81.3591 847.613 80.2391C844.766 79.1191 842.246 77.5091 840.053 75.4091C837.859 73.2625 836.156 70.6958 834.943 67.7091C833.729 64.7225 833.123 61.3858 833.123 57.6991C833.123 54.0125 833.729 50.6758 834.943 47.6891C836.156 44.7025 837.836 42.1358 839.983 39.9891C842.176 37.8425 844.719 36.1858 847.613 35.0191C850.506 33.8525 853.609 33.2691 856.923 33.2691ZM858.323 78.9091C860.749 78.9091 862.663 78.1158 864.062 76.5291C865.463 74.8958 866.466 72.6558 867.073 69.8091C867.726 66.9625 868.053 63.6491 868.053 59.8691C868.053 52.2625 866.886 46.4291 864.553 42.3691C862.266 38.3091 859.233 36.2791 855.453 36.2791C853.073 36.2791 851.159 37.0725 849.713 38.6591C848.313 40.2458 847.286 42.4858 846.633 45.3791C846.026 48.2258 845.723 51.5391 845.723 55.3191C845.723 62.9258 846.866 68.7591 849.153 72.8191C851.486 76.8791 854.543 78.9091 858.323 78.9091ZM911.008 39.8491L922.628 73.8691C923.048 75.0825 923.655 76.2025 924.448 77.2291C925.288 78.2091 926.571 78.8858 928.298 79.2591L925.078 95.2191H923.468C923.375 92.3258 922.955 89.8058 922.208 87.6591C921.461 85.5125 920.528 83.8325 919.408 82.6191C918.288 81.4525 917.075 80.8691 915.768 80.8691H897.008C895.281 80.8691 893.578 81.4525 891.898 82.6191C890.265 83.8325 888.865 85.5125 887.698 87.6591C886.578 89.8058 885.855 92.3258 885.528 95.2191H883.918V79.2591C884.758 78.8858 885.575 78.2558 886.368 77.3691C887.161 76.4358 887.885 75.3858 888.538 74.2191C889.238 73.0525 889.775 71.9558 890.148 70.9291L902.048 39.8491C902.515 38.6358 902.958 37.4458 903.378 36.2791C903.798 35.1125 904.171 33.9225 904.498 32.7091H908.558C908.885 33.9225 909.258 35.1125 909.678 36.2791C910.145 37.4458 910.588 38.6358 911.008 39.8491ZM908.068 77.8591C909.935 77.8591 910.961 77.5558 911.148 76.9491C911.335 76.3425 911.171 75.3158 910.658 73.8691L902.468 48.6691H902.328L891.408 77.8591H908.068ZM971.136 73.8691C971.789 75.4558 972.326 76.6225 972.746 77.3691C973.212 78.1158 973.702 78.6058 974.216 78.8391C974.729 79.0258 975.359 79.1658 976.106 79.2591V80.8691H956.576V79.2591C958.442 79.1658 959.469 78.6058 959.656 77.5791C959.889 76.5525 959.726 75.3158 959.166 73.8691L955.666 64.7691C955.386 65.0025 955.012 65.1658 954.546 65.2591C954.126 65.3058 953.659 65.3291 953.146 65.3291H945.236C944.256 65.3291 943.509 65.4458 942.996 65.6791C942.482 65.9125 942.039 66.4958 941.666 67.4291L939.146 73.8691C938.539 75.4091 938.586 76.6691 939.286 77.6491C939.986 78.6291 941.362 79.1658 943.416 79.2591V80.8691H930.676V79.2591C931.702 79.1658 932.566 78.6525 933.266 77.7191C934.012 76.7391 934.689 75.4558 935.296 73.8691L948.736 39.8491C949.249 38.6358 949.692 37.4458 950.066 36.2791C950.486 35.1125 950.859 33.9225 951.186 32.7091H955.246C955.572 33.9225 955.946 35.1125 956.366 36.2791C956.786 37.4458 957.229 38.6358 957.696 39.8491L971.136 73.8691ZM952.796 62.3191C953.449 62.3191 953.869 62.2258 954.056 62.0391C954.289 61.8058 954.266 61.3391 953.986 60.6391L949.156 48.6691H949.016L943.556 62.5991C943.789 62.4591 944.069 62.3891 944.396 62.3891C944.722 62.3425 945.096 62.3191 945.516 62.3191H952.796Z" fill="white"/>
<path d="M1046.87 49.889C1039.89 47.1025 1031.7 48.5886 1026.12 54.1616C1018.58 61.685 1018.58 73.8526 1026.12 81.376C1031.7 86.949 1039.89 88.4351 1046.87 85.6486V76.7319C1045.47 77.3821 1043.98 77.7536 1042.4 77.7536C1036.82 77.7536 1032.35 73.2953 1032.35 67.7224C1032.35 62.1494 1036.82 57.6911 1042.4 57.6911C1043.98 57.6911 1045.57 58.0626 1046.87 58.7128V49.889Z" fill="white"/>
<path d="M1043.71 40.9536C1046.46 38.1983 1046.46 33.6376 1043.71 30.7872C1040.96 28.0319 1036.41 28.0319 1033.57 30.7872C1030.72 33.5426 1030.82 38.1032 1033.57 40.9536C1036.41 43.709 1040.96 43.709 1043.71 40.9536Z" fill="white"/>
<path d="M1123.61 67.9191H1125.22L1124.52 80.8691H1090.78V79.2591C1091.15 79.0725 1091.71 78.7458 1092.46 78.2791C1093.25 77.8125 1094.07 77.2758 1094.91 76.6691C1097.24 74.9891 1099.43 73.0758 1101.49 70.9291C1103.54 68.7825 1105.34 66.4958 1106.88 64.0691C1108.42 61.6425 1109.63 59.2158 1110.52 56.7891C1111.4 54.3625 1111.85 52.0525 1111.85 49.8591C1111.85 47.7591 1111.33 45.9858 1110.31 44.5391C1109.33 43.0925 1107.53 42.3691 1104.92 42.3691C1102.72 42.3691 1100.69 42.9758 1098.83 44.1891C1096.96 45.4025 1095.12 47.2925 1093.3 49.8591L1091.97 48.7391C1093.88 43.8858 1096.28 40.2691 1099.18 37.8891C1102.07 35.5091 1105.69 34.3191 1110.03 34.3191C1112.55 34.3191 1114.81 34.7391 1116.82 35.5791C1118.82 36.3725 1120.41 37.6325 1121.58 39.3591C1122.79 41.0391 1123.4 43.2325 1123.4 45.9391C1123.4 50.7458 1121.86 55.2491 1118.78 59.4491C1115.74 63.6491 1111.5 67.5925 1106.04 71.2791V71.4191H1116.26C1118.92 71.4191 1120.76 71.0925 1121.79 70.4391C1122.81 69.7858 1123.42 68.9458 1123.61 67.9191ZM1153.4 34.3191C1155.83 34.3191 1158.21 34.7858 1160.54 35.7191C1162.87 36.6525 1164.97 38.0991 1166.84 40.0591C1168.71 42.0191 1170.18 44.4925 1171.25 47.4791C1172.37 50.4191 1172.93 53.9191 1172.93 57.9791C1172.93 61.9925 1172.39 65.4925 1171.32 68.4791C1170.25 71.4658 1168.78 73.9625 1166.91 75.9691C1165.04 77.9758 1162.94 79.4691 1160.61 80.4491C1158.28 81.4291 1155.85 81.9191 1153.33 81.9191C1150.9 81.9191 1148.52 81.4525 1146.19 80.5191C1143.86 79.5858 1141.76 78.1391 1139.89 76.1791C1138.02 74.2191 1136.53 71.7691 1135.41 68.8291C1134.34 65.8425 1133.8 62.3191 1133.8 58.2591C1133.8 54.2458 1134.34 50.7458 1135.41 47.7591C1136.48 44.7725 1137.95 42.2758 1139.82 40.2691C1141.69 38.2625 1143.79 36.7691 1146.12 35.7891C1148.45 34.8091 1150.88 34.3191 1153.4 34.3191ZM1153.61 78.9091C1154.96 78.9091 1156.2 78.3025 1157.32 77.0891C1158.44 75.8758 1159.33 73.8225 1159.98 70.9291C1160.68 68.0358 1161.03 64.0691 1161.03 59.0291C1161.03 54.6425 1160.73 50.8391 1160.12 47.6191C1159.56 44.3525 1158.7 41.8325 1157.53 40.0591C1156.36 38.2391 1154.89 37.3291 1153.12 37.3291C1151.81 37.3291 1150.58 37.9358 1149.41 39.1491C1148.29 40.3625 1147.38 42.4158 1146.68 45.3091C1146.03 48.2025 1145.7 52.1691 1145.7 57.2091C1145.7 61.5958 1145.98 65.4225 1146.54 68.6891C1147.15 71.9091 1148.03 74.4291 1149.2 76.2491C1150.37 78.0225 1151.84 78.9091 1153.61 78.9091ZM1220.44 59.7291L1198.74 61.6191L1198.25 55.9491L1219.95 54.0591L1220.44 59.7291ZM1274.61 67.9191H1276.22L1275.52 80.8691H1241.78V79.2591C1242.16 79.0725 1242.72 78.7458 1243.46 78.2791C1244.26 77.8125 1245.07 77.2758 1245.91 76.6691C1248.25 74.9891 1250.44 73.0758 1252.49 70.9291C1254.55 68.7825 1256.34 66.4958 1257.88 64.0691C1259.42 61.6425 1260.64 59.2158 1261.52 56.7891C1262.41 54.3625 1262.85 52.0525 1262.85 49.8591C1262.85 47.7591 1262.34 45.9858 1261.31 44.5391C1260.33 43.0925 1258.54 42.3691 1255.92 42.3691C1253.73 42.3691 1251.7 42.9758 1249.83 44.1891C1247.97 45.4025 1246.12 47.2925 1244.3 49.8591L1242.97 48.7391C1244.89 43.8858 1247.29 40.2691 1250.18 37.8891C1253.08 35.5091 1256.69 34.3191 1261.03 34.3191C1263.55 34.3191 1265.82 34.7391 1267.82 35.5791C1269.83 36.3725 1271.42 37.6325 1272.58 39.3591C1273.8 41.0391 1274.4 43.2325 1274.4 45.9391C1274.4 50.7458 1272.86 55.2491 1269.78 59.4491C1266.75 63.6491 1262.5 67.5925 1257.04 71.2791V71.4191H1267.26C1269.92 71.4191 1271.77 71.0925 1272.79 70.4391C1273.82 69.7858 1274.43 68.9458 1274.61 67.9191ZM1303.22 73.1691C1303.22 74.8958 1303.36 76.2025 1303.64 77.0891C1303.96 77.9291 1304.62 78.4891 1305.6 78.7691C1306.62 79.0491 1308.16 79.2125 1310.22 79.2591V80.8691H1284.32V79.2591C1286.42 79.2125 1287.96 79.0491 1288.94 78.7691C1289.96 78.4891 1290.62 77.9291 1290.9 77.0891C1291.18 76.2025 1291.32 74.8958 1291.32 73.1691V42.7191L1284.88 46.7091L1283.41 44.4691L1299.65 34.3191H1303.71C1303.52 35.2058 1303.38 36.0925 1303.29 36.9791C1303.24 37.8658 1303.22 38.7525 1303.22 39.6391V73.1691ZM1335.24 80.8691V79.2591C1336.59 79.1658 1337.57 78.8158 1338.18 78.2091C1338.78 77.6025 1339.09 76.1558 1339.09 73.8691V41.3191C1339.09 39.0325 1338.74 37.5858 1338.04 36.9791C1337.38 36.3258 1336.1 35.9758 1334.19 35.9291V34.3191H1354.14V35.9291C1352.78 35.9758 1351.8 36.3258 1351.2 36.9791C1350.59 37.5858 1350.29 39.0325 1350.29 41.3191V53.7091C1350.66 53.4291 1351.1 53.2425 1351.62 53.1491C1352.18 53.0558 1352.83 53.0091 1353.58 53.0091H1366.81C1368.07 53.0091 1368.95 52.7991 1369.47 52.3791C1369.98 51.9591 1370.24 51.1191 1370.24 49.8591V41.3191C1370.24 39.0325 1369.89 37.5858 1369.19 36.9791C1368.53 36.3258 1367.25 35.9758 1365.34 35.9291V34.3191H1385.29V35.9291C1383.93 35.9758 1382.95 36.3258 1382.35 36.9791C1381.74 37.5858 1381.44 39.0325 1381.44 41.3191V73.8691C1381.44 76.1558 1381.79 77.6025 1382.49 78.2091C1383.19 78.8158 1384.47 79.1658 1386.34 79.2591V80.8691H1366.39V79.2591C1367.74 79.1658 1368.72 78.8158 1369.33 78.2091C1369.93 77.6025 1370.24 76.1558 1370.24 73.8691V55.2491C1369.86 55.5758 1369.4 55.7858 1368.84 55.8791C1368.28 55.9725 1367.65 56.0191 1366.95 56.0191H1353.72C1352.46 56.0191 1351.57 56.2291 1351.06 56.6491C1350.54 57.0691 1350.29 57.8858 1350.29 59.0991V73.8691C1350.29 76.1558 1350.64 77.6025 1351.34 78.2091C1352.04 78.8158 1353.32 79.1658 1355.19 79.2591V80.8691H1335.24ZM1417.21 33.2691C1420.52 33.2691 1423.6 33.8291 1426.45 34.9491C1429.3 36.0691 1431.82 37.7025 1434.01 39.8491C1436.2 41.9491 1437.91 44.4925 1439.12 47.4791C1440.33 50.4658 1440.94 53.8025 1440.94 57.4891C1440.94 61.1758 1440.33 64.5125 1439.12 67.4991C1437.91 70.4858 1436.2 73.0525 1434.01 75.1991C1431.86 77.3458 1429.34 79.0025 1426.45 80.1691C1423.56 81.3358 1420.45 81.9191 1417.14 81.9191C1413.87 81.9191 1410.79 81.3591 1407.9 80.2391C1405.05 79.1191 1402.53 77.5091 1400.34 75.4091C1398.15 73.2625 1396.44 70.6958 1395.23 67.7091C1394.02 64.7225 1393.41 61.3858 1393.41 57.6991C1393.41 54.0125 1394.02 50.6758 1395.23 47.6891C1396.44 44.7025 1398.12 42.1358 1400.27 39.9891C1402.46 37.8425 1405.01 36.1858 1407.9 35.0191C1410.79 33.8525 1413.9 33.2691 1417.21 33.2691ZM1418.61 78.9091C1421.04 78.9091 1422.95 78.1158 1424.35 76.5291C1425.75 74.8958 1426.75 72.6558 1427.36 69.8091C1428.01 66.9625 1428.34 63.6491 1428.34 59.8691C1428.34 52.2625 1427.17 46.4291 1424.84 42.3691C1422.55 38.3091 1419.52 36.2791 1415.74 36.2791C1413.36 36.2791 1411.45 37.0725 1410 38.6591C1408.6 40.2458 1407.57 42.4858 1406.92 45.3791C1406.31 48.2258 1406.01 51.5391 1406.01 55.3191C1406.01 62.9258 1407.15 68.7591 1409.44 72.8191C1411.77 76.8791 1414.83 78.9091 1418.61 78.9091ZM1448.9 81.9191C1447.73 81.9191 1446.49 81.8258 1445.18 81.6391C1443.88 81.4525 1442.76 81.1958 1441.82 80.8691V79.2591C1442.76 79.2591 1443.81 78.8858 1444.98 78.1391C1446.14 77.3925 1447.33 75.8991 1448.55 73.6591L1458.56 55.5291C1455.43 54.7358 1453.05 53.4525 1451.42 51.6791C1449.83 49.9058 1449.04 47.7591 1449.04 45.2391C1449.04 43.2791 1449.62 41.4358 1450.79 39.7091C1452 37.9825 1453.96 36.6058 1456.67 35.5791C1459.42 34.5058 1463.11 33.9691 1467.73 33.9691C1469.22 33.9691 1470.95 34.0391 1472.91 34.1791C1474.87 34.2725 1477.04 34.3191 1479.42 34.3191H1488.38V35.9291C1487.02 35.9758 1486.04 36.3258 1485.44 36.9791C1484.83 37.5858 1484.53 39.0325 1484.53 41.3191V73.8691C1484.53 76.1558 1484.88 77.6025 1485.58 78.2091C1486.28 78.8158 1487.56 79.1658 1489.43 79.2591V80.8691H1469.48V79.2591C1470.83 79.1658 1471.81 78.8158 1472.42 78.2091C1473.02 77.6025 1473.33 76.1558 1473.33 73.8691V41.3191C1473.33 39.4991 1473 38.3325 1472.35 37.8191C1471.74 37.2591 1470.67 36.9791 1469.13 36.9791C1467.12 36.9791 1465.3 37.7025 1463.67 39.1491C1462.08 40.5491 1461.29 42.6725 1461.29 45.5191C1461.29 47.0125 1461.59 48.4591 1462.2 49.8591C1462.8 51.2125 1463.88 52.3558 1465.42 53.2891C1467 54.2225 1469.17 54.7825 1471.93 54.9691V57.4191C1471.37 57.4191 1470.88 57.5358 1470.46 57.7691C1470.04 57.9558 1469.62 58.4458 1469.2 59.2391L1461.29 74.4991C1460.21 76.5525 1458.72 78.3025 1456.81 79.7491C1454.89 81.1958 1452.26 81.9191 1448.9 81.9191ZM1511.55 52.8691H1518.34C1523.42 52.8691 1527.44 53.4291 1530.38 54.5491C1533.32 55.6691 1535.39 57.2091 1536.61 59.1691C1537.87 61.1291 1538.5 63.3925 1538.5 65.9591C1538.5 68.5258 1537.8 70.9525 1536.4 73.2391C1535.04 75.4791 1532.92 77.3225 1530.03 78.7691C1527.18 80.1691 1523.54 80.8691 1519.11 80.8691H1496.5V79.2591C1497.85 79.1658 1498.83 78.8158 1499.44 78.2091C1500.04 77.6025 1500.35 76.1558 1500.35 73.8691V41.3191C1500.35 39.0325 1500 37.5858 1499.3 36.9791C1498.64 36.3258 1497.36 35.9758 1495.45 35.9291V34.3191H1533.95V45.8691H1532.34C1532.2 44.2825 1531.89 42.8591 1531.43 41.5991C1530.96 40.2925 1530.17 39.2658 1529.05 38.5191C1527.93 37.7258 1526.32 37.3291 1524.22 37.3291H1514.63C1513.65 37.3291 1512.88 37.5858 1512.32 38.0991C1511.8 38.6125 1511.55 39.6858 1511.55 41.3191V52.8691ZM1515.68 77.8591C1518.15 77.8591 1520.18 77.2758 1521.77 76.1091C1523.4 74.8958 1524.61 73.4025 1525.41 71.6291C1526.2 69.8558 1526.6 68.1058 1526.6 66.3791C1526.6 63.8125 1526.11 61.7591 1525.13 60.2191C1524.19 58.6791 1522.91 57.5825 1521.28 56.9291C1519.69 56.2291 1517.89 55.8791 1515.89 55.8791H1511.55V73.8691C1511.55 75.5025 1511.8 76.5758 1512.32 77.0891C1512.83 77.6025 1513.95 77.8591 1515.68 77.8591ZM1545.92 80.8691V79.2591C1547.27 79.1658 1548.25 78.8158 1548.86 78.2091C1549.47 77.6025 1549.77 76.1558 1549.77 73.8691V41.3191C1549.77 39.0325 1549.42 37.5858 1548.72 36.9791C1548.07 36.3258 1546.78 35.9758 1544.87 35.9291V34.3191H1549.77C1553.18 34.3191 1556.37 34.2725 1559.36 34.1791C1562.35 34.0391 1564.59 33.9691 1566.08 33.9691C1570.93 33.9691 1574.76 34.5058 1577.56 35.5791C1580.41 36.6525 1582.44 38.0758 1583.65 39.8491C1584.91 41.5758 1585.54 43.4891 1585.54 45.5891C1585.54 48.0158 1584.75 50.3258 1583.16 52.5191C1581.62 54.7125 1579.15 56.4158 1575.74 57.6291C1572.38 58.7958 1567.92 59.1691 1562.37 58.7491V56.2991C1564.89 56.3925 1566.97 55.9491 1568.6 54.9691C1570.23 53.9425 1571.42 52.5891 1572.17 50.9091C1572.96 49.2291 1573.36 47.4325 1573.36 45.5191C1573.36 42.9525 1572.64 40.8991 1571.19 39.3591C1569.74 37.7725 1567.74 36.9791 1565.17 36.9791C1563.63 36.9791 1562.53 37.2591 1561.88 37.8191C1561.27 38.3325 1560.97 39.4991 1560.97 41.3191V73.8691C1560.97 75.3625 1561.11 76.5058 1561.39 77.2991C1561.72 78.0458 1562.28 78.5591 1563.07 78.8391C1563.91 79.0725 1565.08 79.2125 1566.57 79.2591V80.8691H1545.92ZM1592.93 81.9191C1591.76 81.9191 1590.52 81.8258 1589.22 81.6391C1587.91 81.4525 1586.79 81.1958 1585.86 80.8691V79.2591C1586.79 79.2591 1587.84 78.8858 1589.01 78.1391C1590.17 77.3925 1591.36 75.8991 1592.58 73.6591L1602.59 55.5291C1599.46 54.7358 1597.08 53.4525 1595.45 51.6791C1593.86 49.9058 1593.07 47.7591 1593.07 45.2391C1593.07 43.2791 1593.65 41.4358 1594.82 39.7091C1596.03 37.9825 1597.99 36.6058 1600.7 35.5791C1603.45 34.5058 1607.14 33.9691 1611.76 33.9691C1613.25 33.9691 1614.98 34.0391 1616.94 34.1791C1618.9 34.2725 1621.07 34.3191 1623.45 34.3191H1632.41V35.9291C1631.05 35.9758 1630.07 36.3258 1629.47 36.9791C1628.86 37.5858 1628.56 39.0325 1628.56 41.3191V73.8691C1628.56 76.1558 1628.91 77.6025 1629.61 78.2091C1630.31 78.8158 1631.59 79.1658 1633.46 79.2591V80.8691H1613.51V79.2591C1614.86 79.1658 1615.84 78.8158 1616.45 78.2091C1617.05 77.6025 1617.36 76.1558 1617.36 73.8691V41.3191C1617.36 39.4991 1617.03 38.3325 1616.38 37.8191C1615.77 37.2591 1614.7 36.9791 1613.16 36.9791C1611.15 36.9791 1609.33 37.7025 1607.7 39.1491C1606.11 40.5491 1605.32 42.6725 1605.32 45.5191C1605.32 47.0125 1605.62 48.4591 1606.23 49.8591C1606.83 51.2125 1607.91 52.3558 1609.45 53.2891C1611.03 54.2225 1613.2 54.7825 1615.96 54.9691V57.4191C1615.4 57.4191 1614.91 57.5358 1614.49 57.7691C1614.07 57.9558 1613.65 58.4458 1613.23 59.2391L1605.32 74.4991C1604.24 76.5525 1602.75 78.3025 1600.84 79.7491C1598.92 81.1958 1596.29 81.9191 1592.93 81.9191ZM1689.08 67.9191H1690.69L1689.99 80.8691H1656.25V79.2591C1656.62 79.0725 1657.18 78.7458 1657.93 78.2791C1658.72 77.8125 1659.54 77.2758 1660.38 76.6691C1662.71 74.9891 1664.9 73.0758 1666.96 70.9291C1669.01 68.7825 1670.81 66.4958 1672.35 64.0691C1673.89 61.6425 1675.1 59.2158 1675.99 56.7891C1676.87 54.3625 1677.32 52.0525 1677.32 49.8591C1677.32 47.7591 1676.8 45.9858 1675.78 44.5391C1674.8 43.0925 1673 42.3691 1670.39 42.3691C1668.19 42.3691 1666.16 42.9758 1664.3 44.1891C1662.43 45.4025 1660.59 47.2925 1658.77 49.8591L1657.44 48.7391C1659.35 43.8858 1661.75 40.2691 1664.65 37.8891C1667.54 35.5091 1671.16 34.3191 1675.5 34.3191C1678.02 34.3191 1680.28 34.7391 1682.29 35.5791C1684.29 36.3725 1685.88 37.6325 1687.05 39.3591C1688.26 41.0391 1688.87 43.2325 1688.87 45.9391C1688.87 50.7458 1687.33 55.2491 1684.25 59.4491C1681.21 63.6491 1676.97 67.5925 1671.51 71.2791V71.4191H1681.73C1684.39 71.4191 1686.23 71.0925 1687.26 70.4391C1688.28 69.7858 1688.89 68.9458 1689.08 67.9191ZM1718.87 34.3191C1721.3 34.3191 1723.68 34.7858 1726.01 35.7191C1728.34 36.6525 1730.44 38.0991 1732.31 40.0591C1734.18 42.0191 1735.65 44.4925 1736.72 47.4791C1737.84 50.4191 1738.4 53.9191 1738.4 57.9791C1738.4 61.9925 1737.86 65.4925 1736.79 68.4791C1735.72 71.4658 1734.25 73.9625 1732.38 75.9691C1730.51 77.9758 1728.41 79.4691 1726.08 80.4491C1723.75 81.4291 1721.32 81.9191 1718.8 81.9191C1716.37 81.9191 1713.99 81.4525 1711.66 80.5191C1709.33 79.5858 1707.23 78.1391 1705.36 76.1791C1703.49 74.2191 1702 71.7691 1700.88 68.8291C1699.81 65.8425 1699.27 62.3191 1699.27 58.2591C1699.27 54.2458 1699.81 50.7458 1700.88 47.7591C1701.95 44.7725 1703.42 42.2758 1705.29 40.2691C1707.16 38.2625 1709.26 36.7691 1711.59 35.7891C1713.92 34.8091 1716.35 34.3191 1718.87 34.3191ZM1719.08 78.9091C1720.43 78.9091 1721.67 78.3025 1722.79 77.0891C1723.91 75.8758 1724.8 73.8225 1725.45 70.9291C1726.15 68.0358 1726.5 64.0691 1726.5 59.0291C1726.5 54.6425 1726.2 50.8391 1725.59 47.6191C1725.03 44.3525 1724.17 41.8325 1723 40.0591C1721.83 38.2391 1720.36 37.3291 1718.59 37.3291C1717.28 37.3291 1716.05 37.9358 1714.88 39.1491C1713.76 40.3625 1712.85 42.4158 1712.15 45.3091C1711.5 48.2025 1711.17 52.1691 1711.17 57.2091C1711.17 61.5958 1711.45 65.4225 1712.01 68.6891C1712.62 71.9091 1713.5 74.4291 1714.67 76.2491C1715.84 78.0225 1717.31 78.9091 1719.08 78.9091ZM1777.05 67.9191H1778.66L1777.96 80.8691H1744.22V79.2591C1744.6 79.0725 1745.16 78.7458 1745.9 78.2791C1746.7 77.8125 1747.51 77.2758 1748.35 76.6691C1750.69 74.9891 1752.88 73.0758 1754.93 70.9291C1756.99 68.7825 1758.78 66.4958 1760.32 64.0691C1761.86 61.6425 1763.08 59.2158 1763.96 56.7891C1764.85 54.3625 1765.29 52.0525 1765.29 49.8591C1765.29 47.7591 1764.78 45.9858 1763.75 44.5391C1762.77 43.0925 1760.98 42.3691 1758.36 42.3691C1756.17 42.3691 1754.14 42.9758 1752.27 44.1891C1750.41 45.4025 1748.56 47.2925 1746.74 49.8591L1745.41 48.7391C1747.33 43.8858 1749.73 40.2691 1752.62 37.8891C1755.52 35.5091 1759.13 34.3191 1763.47 34.3191C1765.99 34.3191 1768.26 34.7391 1770.26 35.5791C1772.27 36.3725 1773.86 37.6325 1775.02 39.3591C1776.24 41.0391 1776.84 43.2325 1776.84 45.9391C1776.84 50.7458 1775.3 55.2491 1772.22 59.4491C1769.19 63.6491 1764.94 67.5925 1759.48 71.2791V71.4191H1769.7C1772.36 71.4191 1774.21 71.0925 1775.23 70.4391C1776.26 69.7858 1776.87 68.9458 1777.05 67.9191ZM1815.95 63.0191H1820.85V71.7691H1817.91C1816.6 71.7691 1815.95 72.5858 1815.95 74.2191C1815.95 75.3391 1815.95 76.4358 1815.95 77.5091C1815.99 78.5358 1816.04 79.6558 1816.09 80.8691H1805.03C1805.12 79.3291 1805.19 77.8358 1805.24 76.3891C1805.28 74.8958 1805.33 73.3558 1805.38 71.7691H1783.26V70.1591C1784.47 68.9925 1785.57 67.7791 1786.55 66.5191L1809.44 37.8891C1809.95 37.2358 1810.42 36.6058 1810.84 35.9991C1811.3 35.3458 1811.68 34.7858 1811.96 34.3191H1816.02L1815.95 63.0191ZM1805.24 48.3891L1793.55 63.0191H1805.45V48.3891H1805.24ZM1878.28 34.3191V47.2691H1876.67C1876.43 45.2158 1876.01 43.4658 1875.41 42.0191C1874.85 40.5258 1873.96 39.3825 1872.75 38.5891C1871.58 37.7491 1869.95 37.3291 1867.85 37.3291H1864.56C1863.58 37.3291 1862.81 37.5858 1862.25 38.0991C1861.73 38.6125 1861.48 39.6858 1861.48 41.3191V73.8691C1861.48 76.1558 1861.83 77.6025 1862.53 78.2091C1863.23 78.8158 1864.51 79.1658 1866.38 79.2591V80.8691H1846.43V79.2591C1847.78 79.1658 1848.76 78.8158 1849.37 78.2091C1849.97 77.6025 1850.28 76.1558 1850.28 73.8691V41.3191C1850.28 39.0325 1849.93 37.5858 1849.23 36.9791C1848.57 36.3258 1847.29 35.9758 1845.38 35.9291V34.3191L1878.28 34.3191ZM1906.32 33.2691C1909.63 33.2691 1912.71 33.8291 1915.56 34.9491C1918.41 36.0691 1920.93 37.7025 1923.12 39.8491C1925.31 41.9491 1927.02 44.4925 1928.23 47.4791C1929.44 50.4658 1930.05 53.8025 1930.05 57.4891C1930.05 61.1758 1929.44 64.5125 1928.23 67.4991C1927.02 70.4858 1925.31 73.0525 1923.12 75.1991C1920.97 77.3458 1918.45 79.0025 1915.56 80.1691C1912.67 81.3358 1909.56 81.9191 1906.25 81.9191C1902.98 81.9191 1899.9 81.3591 1897.01 80.2391C1894.16 79.1191 1891.64 77.5091 1889.45 75.4091C1887.26 73.2625 1885.55 70.6958 1884.34 67.7091C1883.13 64.7225 1882.52 61.3858 1882.52 57.6991C1882.52 54.0125 1883.13 50.6758 1884.34 47.6891C1885.55 44.7025 1887.23 42.1358 1889.38 39.9891C1891.57 37.8425 1894.12 36.1858 1897.01 35.0191C1899.9 33.8525 1903.01 33.2691 1906.32 33.2691ZM1907.72 78.9091C1910.15 78.9091 1912.06 78.1158 1913.46 76.5291C1914.86 74.8958 1915.86 72.6558 1916.47 69.8091C1917.12 66.9625 1917.45 63.6491 1917.45 59.8691C1917.45 52.2625 1916.28 46.4291 1913.95 42.3691C1911.66 38.3091 1908.63 36.2791 1904.85 36.2791C1902.47 36.2791 1900.56 37.0725 1899.11 38.6591C1897.71 40.2458 1896.68 42.4858 1896.03 45.3791C1895.42 48.2258 1895.12 51.5391 1895.12 55.3191C1895.12 62.9258 1896.26 68.7591 1898.55 72.8191C1900.88 76.8791 1903.94 78.9091 1907.72 78.9091ZM1960.41 39.8491L1972.03 73.8691C1972.45 75.0825 1973.05 76.2025 1973.85 77.2291C1974.69 78.2091 1975.97 78.8858 1977.7 79.2591L1974.48 95.2191H1972.87C1972.77 92.3258 1972.35 89.8058 1971.61 87.6591C1970.86 85.5125 1969.93 83.8325 1968.81 82.6191C1967.69 81.4525 1966.47 80.8691 1965.17 80.8691H1946.41C1944.68 80.8691 1942.98 81.4525 1941.3 82.6191C1939.66 83.8325 1938.26 85.5125 1937.1 87.6591C1935.98 89.8058 1935.25 92.3258 1934.93 95.2191H1933.32V79.2591C1934.16 78.8858 1934.97 78.2558 1935.77 77.3691C1936.56 76.4358 1937.28 75.3858 1937.94 74.2191C1938.64 73.0525 1939.17 71.9558 1939.55 70.9291L1951.45 39.8491C1951.91 38.6358 1952.36 37.4458 1952.78 36.2791C1953.2 35.1125 1953.57 33.9225 1953.9 32.7091H1957.96C1958.28 33.9225 1958.66 35.1125 1959.08 36.2791C1959.54 37.4458 1959.99 38.6358 1960.41 39.8491ZM1957.47 77.8591C1959.33 77.8591 1960.36 77.5558 1960.55 76.9491C1960.73 76.3425 1960.57 75.3158 1960.06 73.8691L1951.87 48.6691H1951.73L1940.81 77.8591H1957.47ZM2020.53 73.8691C2021.19 75.4558 2021.72 76.6225 2022.14 77.3691C2022.61 78.1158 2023.1 78.6058 2023.61 78.8391C2024.13 79.0258 2024.76 79.1658 2025.5 79.2591V80.8691H2005.97V79.2591C2007.84 79.1658 2008.87 78.6058 2009.05 77.5791C2009.29 76.5525 2009.12 75.3158 2008.56 73.8691L2005.06 64.7691C2004.78 65.0025 2004.41 65.1658 2003.94 65.2591C2003.52 65.3058 2003.06 65.3291 2002.54 65.3291H1994.63C1993.65 65.3291 1992.91 65.4458 1992.39 65.6791C1991.88 65.9125 1991.44 66.4958 1991.06 67.4291L1988.54 73.8691C1987.94 75.4091 1987.98 76.6691 1988.68 77.6491C1989.38 78.6291 1990.76 79.1658 1992.81 79.2591V80.8691H1980.07V79.2591C1981.1 79.1658 1981.96 78.6525 1982.66 77.7191C1983.41 76.7391 1984.09 75.4558 1984.69 73.8691L1998.13 39.8491C1998.65 38.6358 1999.09 37.4458 1999.46 36.2791C1999.88 35.1125 2000.26 33.9225 2000.58 32.7091H2004.64C2004.97 33.9225 2005.34 35.1125 2005.76 36.2791C2006.18 37.4458 2006.63 38.6358 2007.09 39.8491L2020.53 73.8691ZM2002.19 62.3191C2002.85 62.3191 2003.27 62.2258 2003.45 62.0391C2003.69 61.8058 2003.66 61.3391 2003.38 60.6391L1998.55 48.6691H1998.41L1992.95 62.5991C1993.19 62.4591 1993.47 62.3891 1993.79 62.3891C1994.12 62.3425 1994.49 62.3191 1994.91 62.3191H2002.19Z" fill="white"/>
<path d="M2096.27 49.889C2089.29 47.1025 2081.1 48.5886 2075.52 54.1616C2067.98 61.685 2067.98 73.8526 2075.52 81.376C2081.1 86.949 2089.29 88.4351 2096.27 85.6486V76.7319C2094.87 77.3821 2093.38 77.7536 2091.8 77.7536C2086.22 77.7536 2081.75 73.2953 2081.75 67.7224C2081.75 62.1494 2086.22 57.6911 2091.8 57.6911C2093.38 57.6911 2094.96 58.0626 2096.27 58.7128V49.889Z" fill="white"/>
<path d="M2093.11 40.9536C2095.85 38.1983 2095.85 33.6376 2093.11 30.7872C2090.36 28.0319 2085.81 28.0319 2082.96 30.7872C2080.12 33.5426 2080.22 38.1032 2082.96 40.9536C2085.81 43.709 2090.36 43.709 2093.11 40.9536Z" fill="white"/>
<path d="M2173.01 67.9191H2174.62L2173.92 80.8691H2140.18V79.2591C2140.55 79.0725 2141.11 78.7458 2141.86 78.2791C2142.65 77.8125 2143.47 77.2758 2144.31 76.6691C2146.64 74.9891 2148.83 73.0758 2150.89 70.9291C2152.94 68.7825 2154.74 66.4958 2156.28 64.0691C2157.82 61.6425 2159.03 59.2158 2159.92 56.7891C2160.8 54.3625 2161.25 52.0525 2161.25 49.8591C2161.25 47.7591 2160.73 45.9858 2159.71 44.5391C2158.73 43.0925 2156.93 42.3691 2154.32 42.3691C2152.12 42.3691 2150.09 42.9758 2148.23 44.1891C2146.36 45.4025 2144.52 47.2925 2142.7 49.8591L2141.37 48.7391C2143.28 43.8858 2145.68 40.2691 2148.58 37.8891C2151.47 35.5091 2155.09 34.3191 2159.43 34.3191C2161.95 34.3191 2164.21 34.7391 2166.22 35.5791C2168.22 36.3725 2169.81 37.6325 2170.98 39.3591C2172.19 41.0391 2172.8 43.2325 2172.8 45.9391C2172.8 50.7458 2171.26 55.2491 2168.18 59.4491C2165.14 63.6491 2160.9 67.5925 2155.44 71.2791V71.4191H2165.66C2168.32 71.4191 2170.16 71.0925 2171.19 70.4391C2172.21 69.7858 2172.82 68.9458 2173.01 67.9191ZM2202.8 34.3191C2205.23 34.3191 2207.61 34.7858 2209.94 35.7191C2212.27 36.6525 2214.37 38.0991 2216.24 40.0591C2218.11 42.0191 2219.58 44.4925 2220.65 47.4791C2221.77 50.4191 2222.33 53.9191 2222.33 57.9791C2222.33 61.9925 2221.79 65.4925 2220.72 68.4791C2219.65 71.4658 2218.18 73.9625 2216.31 75.9691C2214.44 77.9758 2212.34 79.4691 2210.01 80.4491C2207.68 81.4291 2205.25 81.9191 2202.73 81.9191C2200.3 81.9191 2197.92 81.4525 2195.59 80.5191C2193.26 79.5858 2191.16 78.1391 2189.29 76.1791C2187.42 74.2191 2185.93 71.7691 2184.81 68.8291C2183.74 65.8425 2183.2 62.3191 2183.2 58.2591C2183.2 54.2458 2183.74 50.7458 2184.81 47.7591C2185.88 44.7725 2187.35 42.2758 2189.22 40.2691C2191.09 38.2625 2193.19 36.7691 2195.52 35.7891C2197.85 34.8091 2200.28 34.3191 2202.8 34.3191ZM2203.01 78.9091C2204.36 78.9091 2205.6 78.3025 2206.72 77.0891C2207.84 75.8758 2208.73 73.8225 2209.38 70.9291C2210.08 68.0358 2210.43 64.0691 2210.43 59.0291C2210.43 54.6425 2210.13 50.8391 2209.52 47.6191C2208.96 44.3525 2208.1 41.8325 2206.93 40.0591C2205.76 38.2391 2204.29 37.3291 2202.52 37.3291C2201.21 37.3291 2199.98 37.9358 2198.81 39.1491C2197.69 40.3625 2196.78 42.4158 2196.08 45.3091C2195.43 48.2025 2195.1 52.1691 2195.1 57.2091C2195.1 61.5958 2195.38 65.4225 2195.94 68.6891C2196.55 71.9091 2197.43 74.4291 2198.6 76.2491C2199.77 78.0225 2201.24 78.9091 2203.01 78.9091ZM2269.84 59.7291L2248.14 61.6191L2247.65 55.9491L2269.35 54.0591L2269.84 59.7291ZM2324.01 67.9191H2325.62L2324.92 80.8691H2291.18V79.2591C2291.55 79.0725 2292.11 78.7458 2292.86 78.2791C2293.65 77.8125 2294.47 77.2758 2295.31 76.6691C2297.64 74.9891 2299.84 73.0758 2301.89 70.9291C2303.94 68.7825 2305.74 66.4958 2307.28 64.0691C2308.82 61.6425 2310.03 59.2158 2310.92 56.7891C2311.81 54.3625 2312.25 52.0525 2312.25 49.8591C2312.25 47.7591 2311.74 45.9858 2310.71 44.5391C2309.73 43.0925 2307.93 42.3691 2305.32 42.3691C2303.13 42.3691 2301.1 42.9758 2299.23 44.1891C2297.36 45.4025 2295.52 47.2925 2293.7 49.8591L2292.37 48.7391C2294.28 43.8858 2296.69 40.2691 2299.58 37.8891C2302.47 35.5091 2306.09 34.3191 2310.43 34.3191C2312.95 34.3191 2315.21 34.7391 2317.22 35.5791C2319.23 36.3725 2320.81 37.6325 2321.98 39.3591C2323.19 41.0391 2323.8 43.2325 2323.8 45.9391C2323.8 50.7458 2322.26 55.2491 2319.18 59.4491C2316.15 63.6491 2311.9 67.5925 2306.44 71.2791V71.4191H2316.66C2319.32 71.4191 2321.16 71.0925 2322.19 70.4391C2323.22 69.7858 2323.82 68.9458 2324.01 67.9191ZM2352.61 73.1691C2352.61 74.8958 2352.75 76.2025 2353.03 77.0891C2353.36 77.9291 2354.01 78.4891 2354.99 78.7691C2356.02 79.0491 2357.56 79.2125 2359.61 79.2591V80.8691H2333.71V79.2591C2335.81 79.2125 2337.35 79.0491 2338.33 78.7691C2339.36 78.4891 2340.01 77.9291 2340.29 77.0891C2340.57 76.2025 2340.71 74.8958 2340.71 73.1691V42.7191L2334.27 46.7091L2332.8 44.4691L2349.04 34.3191H2353.1C2352.92 35.2058 2352.78 36.0925 2352.68 36.9791C2352.64 37.8658 2352.61 38.7525 2352.61 39.6391V73.1691ZM2384.63 80.8691V79.2591C2385.99 79.1658 2386.97 78.8158 2387.57 78.2091C2388.18 77.6025 2388.48 76.1558 2388.48 73.8691V41.3191C2388.48 39.0325 2388.13 37.5858 2387.43 36.9791C2386.78 36.3258 2385.5 35.9758 2383.58 35.9291V34.3191H2403.53V35.9291C2402.18 35.9758 2401.2 36.3258 2400.59 36.9791C2399.99 37.5858 2399.68 39.0325 2399.68 41.3191V53.7091C2400.06 53.4291 2400.5 53.2425 2401.01 53.1491C2401.57 53.0558 2402.23 53.0091 2402.97 53.0091H2416.2C2417.46 53.0091 2418.35 52.7991 2418.86 52.3791C2419.38 51.9591 2419.63 51.1191 2419.63 49.8591V41.3191C2419.63 39.0325 2419.28 37.5858 2418.58 36.9791C2417.93 36.3258 2416.65 35.9758 2414.73 35.9291V34.3191H2434.68V35.9291C2433.33 35.9758 2432.35 36.3258 2431.74 36.9791C2431.14 37.5858 2430.83 39.0325 2430.83 41.3191V73.8691C2430.83 76.1558 2431.18 77.6025 2431.88 78.2091C2432.58 78.8158 2433.87 79.1658 2435.73 79.2591V80.8691H2415.78V79.2591C2417.14 79.1658 2418.12 78.8158 2418.72 78.2091C2419.33 77.6025 2419.63 76.1558 2419.63 73.8691V55.2491C2419.26 55.5758 2418.79 55.7858 2418.23 55.8791C2417.67 55.9725 2417.04 56.0191 2416.34 56.0191H2403.11C2401.85 56.0191 2400.97 56.2291 2400.45 56.6491C2399.94 57.0691 2399.68 57.8858 2399.68 59.0991V73.8691C2399.68 76.1558 2400.03 77.6025 2400.73 78.2091C2401.43 78.8158 2402.72 79.1658 2404.58 79.2591V80.8691H2384.63ZM2466.61 33.2691C2469.92 33.2691 2473 33.8291 2475.85 34.9491C2478.69 36.0691 2481.21 37.7025 2483.41 39.8491C2485.6 41.9491 2487.3 44.4925 2488.52 47.4791C2489.73 50.4658 2490.34 53.8025 2490.34 57.4891C2490.34 61.1758 2489.73 64.5125 2488.52 67.4991C2487.3 70.4858 2485.6 73.0525 2483.41 75.1991C2481.26 77.3458 2478.74 79.0025 2475.85 80.1691C2472.95 81.3358 2469.85 81.9191 2466.54 81.9191C2463.27 81.9191 2460.19 81.3591 2457.3 80.2391C2454.45 79.1191 2451.93 77.5091 2449.74 75.4091C2447.54 73.2625 2445.84 70.6958 2444.63 67.7091C2443.41 64.7225 2442.81 61.3858 2442.81 57.6991C2442.81 54.0125 2443.41 50.6758 2444.63 47.6891C2445.84 44.7025 2447.52 42.1358 2449.67 39.9891C2451.86 37.8425 2454.4 36.1858 2457.3 35.0191C2460.19 33.8525 2463.29 33.2691 2466.61 33.2691ZM2468.01 78.9091C2470.43 78.9091 2472.35 78.1158 2473.75 76.5291C2475.15 74.8958 2476.15 72.6558 2476.76 69.8091C2477.41 66.9625 2477.74 63.6491 2477.74 59.8691C2477.74 52.2625 2476.57 46.4291 2474.24 42.3691C2471.95 38.3091 2468.92 36.2791 2465.14 36.2791C2462.76 36.2791 2460.84 37.0725 2459.4 38.6591C2458 40.2458 2456.97 42.4858 2456.32 45.3791C2455.71 48.2258 2455.41 51.5391 2455.41 55.3191C2455.41 62.9258 2456.55 68.7591 2458.84 72.8191C2461.17 76.8791 2464.23 78.9091 2468.01 78.9091ZM2498.29 81.9191C2497.13 81.9191 2495.89 81.8258 2494.58 81.6391C2493.28 81.4525 2492.16 81.1958 2491.22 80.8691V79.2591C2492.16 79.2591 2493.21 78.8858 2494.37 78.1391C2495.54 77.3925 2496.73 75.8991 2497.94 73.6591L2507.95 55.5291C2504.83 54.7358 2502.45 53.4525 2500.81 51.6791C2499.23 49.9058 2498.43 47.7591 2498.43 45.2391C2498.43 43.2791 2499.02 41.4358 2500.18 39.7091C2501.4 37.9825 2503.36 36.6058 2506.06 35.5791C2508.82 34.5058 2512.5 33.9691 2517.12 33.9691C2518.62 33.9691 2520.34 34.0391 2522.3 34.1791C2524.26 34.2725 2526.43 34.3191 2528.81 34.3191H2537.77V35.9291C2536.42 35.9758 2535.44 36.3258 2534.83 36.9791C2534.23 37.5858 2533.92 39.0325 2533.92 41.3191V73.8691C2533.92 76.1558 2534.27 77.6025 2534.97 78.2091C2535.67 78.8158 2536.96 79.1658 2538.82 79.2591V80.8691H2518.87V79.2591C2520.23 79.1658 2521.21 78.8158 2521.81 78.2091C2522.42 77.6025 2522.72 76.1558 2522.72 73.8691V41.3191C2522.72 39.4991 2522.4 38.3325 2521.74 37.8191C2521.14 37.2591 2520.06 36.9791 2518.52 36.9791C2516.52 36.9791 2514.7 37.7025 2513.06 39.1491C2511.48 40.5491 2510.68 42.6725 2510.68 45.5191C2510.68 47.0125 2510.99 48.4591 2511.59 49.8591C2512.2 51.2125 2513.27 52.3558 2514.81 53.2891C2516.4 54.2225 2518.57 54.7825 2521.32 54.9691V57.4191C2520.76 57.4191 2520.27 57.5358 2519.85 57.7691C2519.43 57.9558 2519.01 58.4458 2518.59 59.2391L2510.68 74.4991C2509.61 76.5525 2508.12 78.3025 2506.2 79.7491C2504.29 81.1958 2501.65 81.9191 2498.29 81.9191ZM2560.94 52.8691H2567.73C2572.82 52.8691 2576.83 53.4291 2579.77 54.5491C2582.71 55.6691 2584.79 57.2091 2586 59.1691C2587.26 61.1291 2587.89 63.3925 2587.89 65.9591C2587.89 68.5258 2587.19 70.9525 2585.79 73.2391C2584.44 75.4791 2582.32 77.3225 2579.42 78.7691C2576.58 80.1691 2572.94 80.8691 2568.5 80.8691H2545.89V79.2591C2547.25 79.1658 2548.23 78.8158 2548.83 78.2091C2549.44 77.6025 2549.74 76.1558 2549.74 73.8691V41.3191C2549.74 39.0325 2549.39 37.5858 2548.69 36.9791C2548.04 36.3258 2546.76 35.9758 2544.84 35.9291V34.3191H2583.34V45.8691H2581.73C2581.59 44.2825 2581.29 42.8591 2580.82 41.5991C2580.36 40.2925 2579.56 39.2658 2578.44 38.5191C2577.32 37.7258 2575.71 37.3291 2573.61 37.3291H2564.02C2563.04 37.3291 2562.27 37.5858 2561.71 38.0991C2561.2 38.6125 2560.94 39.6858 2560.94 41.3191V52.8691ZM2565.07 77.8591C2567.55 77.8591 2569.58 77.2758 2571.16 76.1091C2572.8 74.8958 2574.01 73.4025 2574.8 71.6291C2575.6 69.8558 2575.99 68.1058 2575.99 66.3791C2575.99 63.8125 2575.5 61.7591 2574.52 60.2191C2573.59 58.6791 2572.31 57.5825 2570.67 56.9291C2569.09 56.2291 2567.29 55.8791 2565.28 55.8791H2560.94V73.8691C2560.94 75.5025 2561.2 76.5758 2561.71 77.0891C2562.23 77.6025 2563.35 77.8591 2565.07 77.8591ZM2595.32 80.8691V79.2591C2596.67 79.1658 2597.65 78.8158 2598.26 78.2091C2598.86 77.6025 2599.17 76.1558 2599.17 73.8691V41.3191C2599.17 39.0325 2598.82 37.5858 2598.12 36.9791C2597.46 36.3258 2596.18 35.9758 2594.27 35.9291V34.3191H2599.17C2602.57 34.3191 2605.77 34.2725 2608.76 34.1791C2611.74 34.0391 2613.98 33.9691 2615.48 33.9691C2620.33 33.9691 2624.16 34.5058 2626.96 35.5791C2629.8 36.6525 2631.83 38.0758 2633.05 39.8491C2634.31 41.5758 2634.94 43.4891 2634.94 45.5891C2634.94 48.0158 2634.14 50.3258 2632.56 52.5191C2631.02 54.7125 2628.54 56.4158 2625.14 57.6291C2621.78 58.7958 2617.32 59.1691 2611.77 58.7491V56.2991C2614.29 56.3925 2616.36 55.9491 2618 54.9691C2619.63 53.9425 2620.82 52.5891 2621.57 50.9091C2622.36 49.2291 2622.76 47.4325 2622.76 45.5191C2622.76 42.9525 2622.03 40.8991 2620.59 39.3591C2619.14 37.7725 2617.13 36.9791 2614.57 36.9791C2613.03 36.9791 2611.93 37.2591 2611.28 37.8191C2610.67 38.3325 2610.37 39.4991 2610.37 41.3191V73.8691C2610.37 75.3625 2610.51 76.5058 2610.79 77.2991C2611.11 78.0458 2611.67 78.5591 2612.47 78.8391C2613.31 79.0725 2614.47 79.2125 2615.97 79.2591V80.8691H2595.32ZM2642.33 81.9191C2641.16 81.9191 2639.92 81.8258 2638.62 81.6391C2637.31 81.4525 2636.19 81.1958 2635.26 80.8691V79.2591C2636.19 79.2591 2637.24 78.8858 2638.41 78.1391C2639.57 77.3925 2640.76 75.8991 2641.98 73.6591L2651.99 55.5291C2648.86 54.7358 2646.48 53.4525 2644.85 51.6791C2643.26 49.9058 2642.47 47.7591 2642.47 45.2391C2642.47 43.2791 2643.05 41.4358 2644.22 39.7091C2645.43 37.9825 2647.39 36.6058 2650.1 35.5791C2652.85 34.5058 2656.54 33.9691 2661.16 33.9691C2662.65 33.9691 2664.38 34.0391 2666.34 34.1791C2668.3 34.2725 2670.47 34.3191 2672.85 34.3191H2681.81V35.9291C2680.45 35.9758 2679.47 36.3258 2678.87 36.9791C2678.26 37.5858 2677.96 39.0325 2677.96 41.3191V73.8691C2677.96 76.1558 2678.31 77.6025 2679.01 78.2091C2679.71 78.8158 2680.99 79.1658 2682.86 79.2591V80.8691H2662.91V79.2591C2664.26 79.1658 2665.24 78.8158 2665.85 78.2091C2666.45 77.6025 2666.76 76.1558 2666.76 73.8691V41.3191C2666.76 39.4991 2666.43 38.3325 2665.78 37.8191C2665.17 37.2591 2664.1 36.9791 2662.56 36.9791C2660.55 36.9791 2658.73 37.7025 2657.1 39.1491C2655.51 40.5491 2654.72 42.6725 2654.72 45.5191C2654.72 47.0125 2655.02 48.4591 2655.63 49.8591C2656.23 51.2125 2657.31 52.3558 2658.85 53.2891C2660.43 54.2225 2662.6 54.7825 2665.36 54.9691V57.4191C2664.8 57.4191 2664.31 57.5358 2663.89 57.7691C2663.47 57.9558 2663.05 58.4458 2662.63 59.2391L2654.72 74.4991C2653.64 76.5525 2652.15 78.3025 2650.24 79.7491C2648.32 81.1958 2645.69 81.9191 2642.33 81.9191ZM2738.47 67.9191H2740.08L2739.38 80.8691H2705.64V79.2591C2706.02 79.0725 2706.58 78.7458 2707.32 78.2791C2708.12 77.8125 2708.93 77.2758 2709.77 76.6691C2712.11 74.9891 2714.3 73.0758 2716.35 70.9291C2718.41 68.7825 2720.2 66.4958 2721.74 64.0691C2723.28 61.6425 2724.5 59.2158 2725.38 56.7891C2726.27 54.3625 2726.71 52.0525 2726.71 49.8591C2726.71 47.7591 2726.2 45.9858 2725.17 44.5391C2724.19 43.0925 2722.4 42.3691 2719.78 42.3691C2717.59 42.3691 2715.56 42.9758 2713.69 44.1891C2711.83 45.4025 2709.98 47.2925 2708.16 49.8591L2706.83 48.7391C2708.75 43.8858 2711.15 40.2691 2714.04 37.8891C2716.94 35.5091 2720.55 34.3191 2724.89 34.3191C2727.41 34.3191 2729.68 34.7391 2731.68 35.5791C2733.69 36.3725 2735.28 37.6325 2736.44 39.3591C2737.66 41.0391 2738.26 43.2325 2738.26 45.9391C2738.26 50.7458 2736.72 55.2491 2733.64 59.4491C2730.61 63.6491 2726.36 67.5925 2720.9 71.2791V71.4191H2731.12C2733.78 71.4191 2735.63 71.0925 2736.65 70.4391C2737.68 69.7858 2738.29 68.9458 2738.47 67.9191ZM2768.27 34.3191C2770.69 34.3191 2773.07 34.7858 2775.41 35.7191C2777.74 36.6525 2779.84 38.0991 2781.71 40.0591C2783.57 42.0191 2785.04 44.4925 2786.12 47.4791C2787.24 50.4191 2787.8 53.9191 2787.8 57.9791C2787.8 61.9925 2787.26 65.4925 2786.19 68.4791C2785.11 71.4658 2783.64 73.9625 2781.78 75.9691C2779.91 77.9758 2777.81 79.4691 2775.48 80.4491C2773.14 81.4291 2770.72 81.9191 2768.2 81.9191C2765.77 81.9191 2763.39 81.4525 2761.06 80.5191C2758.72 79.5858 2756.62 78.1391 2754.76 76.1791C2752.89 74.2191 2751.4 71.7691 2750.28 68.8291C2749.2 65.8425 2748.67 62.3191 2748.67 58.2591C2748.67 54.2458 2749.2 50.7458 2750.28 47.7591C2751.35 44.7725 2752.82 42.2758 2754.69 40.2691C2756.55 38.2625 2758.65 36.7691 2760.99 35.7891C2763.32 34.8091 2765.75 34.3191 2768.27 34.3191ZM2768.48 78.9091C2769.83 78.9091 2771.07 78.3025 2772.19 77.0891C2773.31 75.8758 2774.19 73.8225 2774.85 70.9291C2775.55 68.0358 2775.9 64.0691 2775.9 59.0291C2775.9 54.6425 2775.59 50.8391 2774.99 47.6191C2774.43 44.3525 2773.56 41.8325 2772.4 40.0591C2771.23 38.2391 2769.76 37.3291 2767.99 37.3291C2766.68 37.3291 2765.44 37.9358 2764.28 39.1491C2763.16 40.3625 2762.25 42.4158 2761.55 45.3091C2760.89 48.2025 2760.57 52.1691 2760.57 57.2091C2760.57 61.5958 2760.85 65.4225 2761.41 68.6891C2762.01 71.9091 2762.9 74.4291 2764.07 76.2491C2765.23 78.0225 2766.7 78.9091 2768.48 78.9091ZM2826.45 67.9191H2828.06L2827.36 80.8691H2793.62V79.2591C2794 79.0725 2794.56 78.7458 2795.3 78.2791C2796.1 77.8125 2796.91 77.2758 2797.75 76.6691C2800.09 74.9891 2802.28 73.0758 2804.33 70.9291C2806.39 68.7825 2808.18 66.4958 2809.72 64.0691C2811.26 61.6425 2812.48 59.2158 2813.36 56.7891C2814.25 54.3625 2814.69 52.0525 2814.69 49.8591C2814.69 47.7591 2814.18 45.9858 2813.15 44.5391C2812.17 43.0925 2810.38 42.3691 2807.76 42.3691C2805.57 42.3691 2803.54 42.9758 2801.67 44.1891C2799.81 45.4025 2797.96 47.2925 2796.14 49.8591L2794.81 48.7391C2796.73 43.8858 2799.13 40.2691 2802.02 37.8891C2804.92 35.5091 2808.53 34.3191 2812.87 34.3191C2815.39 34.3191 2817.66 34.7391 2819.66 35.5791C2821.67 36.3725 2823.26 37.6325 2824.42 39.3591C2825.64 41.0391 2826.24 43.2325 2826.24 45.9391C2826.24 50.7458 2824.7 55.2491 2821.62 59.4491C2818.59 63.6491 2814.34 67.5925 2808.88 71.2791V71.4191H2819.1C2821.76 71.4191 2823.61 71.0925 2824.63 70.4391C2825.66 69.7858 2826.27 68.9458 2826.45 67.9191ZM2865.35 63.0191H2870.25V71.7691H2867.31C2866 71.7691 2865.35 72.5858 2865.35 74.2191C2865.35 75.3391 2865.35 76.4358 2865.35 77.5091C2865.39 78.5358 2865.44 79.6558 2865.49 80.8691H2854.43C2854.52 79.3291 2854.59 77.8358 2854.64 76.3891C2854.68 74.8958 2854.73 73.3558 2854.78 71.7691H2832.66V70.1591C2833.87 68.9925 2834.97 67.7791 2835.95 66.5191L2858.84 37.8891C2859.35 37.2358 2859.82 36.6058 2860.24 35.9991C2860.7 35.3458 2861.08 34.7858 2861.36 34.3191H2865.42L2865.35 63.0191ZM2854.64 48.3891L2842.95 63.0191H2854.85V48.3891H2854.64ZM2927.68 34.3191V47.2691H2926.07C2925.83 45.2158 2925.41 43.4658 2924.81 42.0191C2924.25 40.5258 2923.36 39.3825 2922.15 38.5891C2920.98 37.7491 2919.35 37.3291 2917.25 37.3291H2913.96C2912.98 37.3291 2912.21 37.5858 2911.65 38.0991C2911.13 38.6125 2910.88 39.6858 2910.88 41.3191V73.8691C2910.88 76.1558 2911.23 77.6025 2911.93 78.2091C2912.63 78.8158 2913.91 79.1658 2915.78 79.2591V80.8691H2895.83V79.2591C2897.18 79.1658 2898.16 78.8158 2898.77 78.2091C2899.37 77.6025 2899.68 76.1558 2899.68 73.8691V41.3191C2899.68 39.0325 2899.33 37.5858 2898.63 36.9791C2897.97 36.3258 2896.69 35.9758 2894.78 35.9291V34.3191L2927.68 34.3191ZM2955.72 33.2691C2959.03 33.2691 2962.11 33.8291 2964.96 34.9491C2967.81 36.0691 2970.33 37.7025 2972.52 39.8491C2974.71 41.9491 2976.42 44.4925 2977.63 47.4791C2978.84 50.4658 2979.45 53.8025 2979.45 57.4891C2979.45 61.1758 2978.84 64.5125 2977.63 67.4991C2976.42 70.4858 2974.71 73.0525 2972.52 75.1991C2970.37 77.3458 2967.85 79.0025 2964.96 80.1691C2962.07 81.3358 2958.96 81.9191 2955.65 81.9191C2952.38 81.9191 2949.3 81.3591 2946.41 80.2391C2943.56 79.1191 2941.04 77.5091 2938.85 75.4091C2936.66 73.2625 2934.95 70.6958 2933.74 67.7091C2932.53 64.7225 2931.92 61.3858 2931.92 57.6991C2931.92 54.0125 2932.53 50.6758 2933.74 47.6891C2934.95 44.7025 2936.63 42.1358 2938.78 39.9891C2940.97 37.8425 2943.52 36.1858 2946.41 35.0191C2949.3 33.8525 2952.41 33.2691 2955.72 33.2691ZM2957.12 78.9091C2959.55 78.9091 2961.46 78.1158 2962.86 76.5291C2964.26 74.8958 2965.26 72.6558 2965.87 69.8091C2966.52 66.9625 2966.85 63.6491 2966.85 59.8691C2966.85 52.2625 2965.68 46.4291 2963.35 42.3691C2961.06 38.3091 2958.03 36.2791 2954.25 36.2791C2951.87 36.2791 2949.96 37.0725 2948.51 38.6591C2947.11 40.2458 2946.08 42.4858 2945.43 45.3791C2944.82 48.2258 2944.52 51.5391 2944.52 55.3191C2944.52 62.9258 2945.66 68.7591 2947.95 72.8191C2950.28 76.8791 2953.34 78.9091 2957.12 78.9091ZM3009.8 39.8491L3021.42 73.8691C3021.84 75.0825 3022.45 76.2025 3023.24 77.2291C3024.08 78.2091 3025.37 78.8858 3027.09 79.2591L3023.87 95.2191H3022.26C3022.17 92.3258 3021.75 89.8058 3021 87.6591C3020.26 85.5125 3019.32 83.8325 3018.2 82.6191C3017.08 81.4525 3015.87 80.8691 3014.56 80.8691H2995.8C2994.08 80.8691 2992.37 81.4525 2990.69 82.6191C2989.06 83.8325 2987.66 85.5125 2986.49 87.6591C2985.37 89.8058 2984.65 92.3258 2984.32 95.2191H2982.71V79.2591C2983.55 78.8858 2984.37 78.2558 2985.16 77.3691C2985.96 76.4358 2986.68 75.3858 2987.33 74.2191C2988.03 73.0525 2988.57 71.9558 2988.94 70.9291L3000.84 39.8491C3001.31 38.6358 3001.75 37.4458 3002.17 36.2791C3002.59 35.1125 3002.97 33.9225 3003.29 32.7091H3007.35C3007.68 33.9225 3008.05 35.1125 3008.47 36.2791C3008.94 37.4458 3009.38 38.6358 3009.8 39.8491ZM3006.86 77.8591C3008.73 77.8591 3009.76 77.5558 3009.94 76.9491C3010.13 76.3425 3009.97 75.3158 3009.45 73.8691L3001.26 48.6691H3001.12L2990.2 77.8591H3006.86ZM3069.93 73.8691C3070.59 75.4558 3071.12 76.6225 3071.54 77.3691C3072.01 78.1158 3072.5 78.6058 3073.01 78.8391C3073.53 79.0258 3074.16 79.1658 3074.9 79.2591V80.8691H3055.37V79.2591C3057.24 79.1658 3058.27 78.6058 3058.45 77.5791C3058.69 76.5525 3058.52 75.3158 3057.96 73.8691L3054.46 64.7691C3054.18 65.0025 3053.81 65.1658 3053.34 65.2591C3052.92 65.3058 3052.46 65.3291 3051.94 65.3291H3044.03C3043.05 65.3291 3042.31 65.4458 3041.79 65.6791C3041.28 65.9125 3040.84 66.4958 3040.46 67.4291L3037.94 73.8691C3037.34 75.4091 3037.38 76.6691 3038.08 77.6491C3038.78 78.6291 3040.16 79.1658 3042.21 79.2591V80.8691H3029.47V79.2591C3030.5 79.1658 3031.36 78.6525 3032.06 77.7191C3032.81 76.7391 3033.49 75.4558 3034.09 73.8691L3047.53 39.8491C3048.05 38.6358 3048.49 37.4458 3048.86 36.2791C3049.28 35.1125 3049.66 33.9225 3049.98 32.7091H3054.04C3054.37 33.9225 3054.74 35.1125 3055.16 36.2791C3055.58 37.4458 3056.03 38.6358 3056.49 39.8491L3069.93 73.8691ZM3051.59 62.3191C3052.25 62.3191 3052.67 62.2258 3052.85 62.0391C3053.09 61.8058 3053.06 61.3391 3052.78 60.6391L3047.95 48.6691H3047.81L3042.35 62.5991C3042.59 62.4591 3042.87 62.3891 3043.19 62.3891C3043.52 62.3425 3043.89 62.3191 3044.31 62.3191H3051.59Z" fill="white"/>
</svg>
