<svg width="1163" height="37" viewBox="0 0 1163 37" fill="none" xmlns="http://www.w3.org/2000/svg">
<rect width="1162.03" height="37" transform="translate(0.257812)" fill="url(#paint0_linear_599_2551)"/>
<path d="M17.9393 25V24.5287C18.3354 24.5014 18.6223 24.399 18.7999 24.2214C18.9775 24.0438 19.0663 23.6203 19.0663 22.951V13.4232C19.0663 12.7538 18.9638 12.3304 18.7589 12.1528C18.5677 11.9615 18.192 11.8591 17.632 11.8454V11.3742H23.4716V11.8454C23.0755 11.8591 22.7886 11.9615 22.611 12.1528C22.4334 12.3304 22.3447 12.7538 22.3447 13.4232V22.951C22.3447 23.6203 22.4471 24.0438 22.652 24.2214C22.8569 24.399 23.2326 24.5014 23.779 24.5287V25H17.9393ZM37.9679 25.1639C37.763 24.9454 37.5513 24.7336 37.3328 24.5287C37.1142 24.3102 36.7659 23.9892 36.2878 23.5657L28.2147 16.1893H28.1737V22.951C28.1737 23.4154 28.2898 23.7911 28.5221 24.078C28.7679 24.3512 29.1846 24.5014 29.772 24.5287V25H25.9813V24.5287C26.3774 24.5014 26.6643 24.3512 26.8419 24.078C27.0195 23.7911 27.1083 23.4154 27.1083 22.951V13.4232C27.1083 12.7538 27.0058 12.3304 26.8009 12.1528C26.6097 11.9615 26.234 11.8591 25.674 11.8454V11.3742H28.1328C28.3377 11.6337 28.5562 11.8659 28.7884 12.0708C29.0207 12.2757 29.287 12.5216 29.5875 12.8085L37.7426 20.1849H37.7835V13.4232C37.7835 12.9587 37.6674 12.5831 37.4352 12.2962C37.203 12.0093 36.7864 11.8591 36.1853 11.8454V11.3742H39.976V11.8454C39.5798 11.8591 39.293 12.0093 39.1154 12.2962C38.9378 12.5831 38.849 12.9587 38.849 13.4232V22.951C38.849 23.3335 38.849 23.7023 38.849 24.0575C38.8627 24.399 38.8763 24.7678 38.89 25.1639H37.9679ZM41.5964 11.3742H53.2757V14.755H52.8045C52.7225 14.0174 52.5039 13.4163 52.1488 12.9519C51.7936 12.4874 51.1857 12.2552 50.3252 12.2552H49.0753V22.951C49.0753 23.6203 49.1777 24.0438 49.3826 24.2214C49.5875 24.399 49.9632 24.5014 50.5096 24.5287V25L44.6699 25V24.5287C45.0661 24.5014 45.3529 24.399 45.5305 24.2214C45.7081 24.0438 45.7969 23.6203 45.7969 22.951V12.2552H44.5265C43.6932 12.2552 43.0922 12.4874 42.7234 12.9519C42.3682 13.4163 42.1497 14.0174 42.0677 14.755H41.5964V11.3742ZM55.135 25V24.5287C55.5312 24.5014 55.818 24.399 55.9956 24.2214C56.1732 24.0438 56.262 23.6203 56.262 22.951V13.4232C56.262 12.7538 56.1595 12.3304 55.9546 12.1528C55.7634 11.9615 55.3877 11.8591 54.8277 11.8454V11.3742L64.8883 11.3742V14.2428L64.417 14.2428C64.3897 13.6554 64.1848 13.1773 63.8023 12.8085C63.4335 12.4396 62.8598 12.2552 62.0811 12.2552H60.4419C60.1551 12.2552 59.9297 12.3304 59.7658 12.4806C59.6155 12.6309 59.5404 12.9451 59.5404 13.4232V17.4597C59.6497 17.3777 59.7794 17.3231 59.9297 17.2958C60.0936 17.2684 60.2848 17.2548 60.5034 17.2548H62.4909C62.9007 17.2548 63.2422 17.1387 63.5154 16.9065C63.7886 16.6742 63.9321 16.3532 63.9457 15.9434H64.417V19.4267H63.9457C63.9321 18.9213 63.7886 18.5798 63.5154 18.4022C63.2422 18.2246 62.9007 18.1359 62.4909 18.1359H60.5444C60.1756 18.1359 59.916 18.1973 59.7658 18.3203C59.6155 18.4432 59.5404 18.6823 59.5404 19.0374V22.951C59.5404 23.4291 59.6428 23.7433 59.8477 23.8935C60.0663 24.0438 60.4829 24.1189 61.0976 24.1189H63.0442C63.8638 24.1189 64.5126 23.8731 64.9907 23.3813C65.4688 22.8895 65.7352 22.3022 65.7898 21.6192H66.2611L66.0972 25H55.135ZM80.0075 25.3073C79.3928 25.3073 78.8669 25.2049 78.4297 25C77.9926 24.8088 77.6238 24.5492 77.3233 24.2214C77.0228 23.8935 76.7427 23.5316 76.4832 23.1354L73.6146 18.6686C73.478 18.4364 73.3551 18.2929 73.2458 18.2383C73.1365 18.1837 73.0067 18.1495 72.8565 18.1359V17.4187C73.6761 17.3641 74.3113 17.2001 74.762 16.9269C75.2128 16.6537 75.527 16.3191 75.7046 15.9229C75.8822 15.5131 75.9709 15.0897 75.9709 14.6526C75.9709 13.8193 75.7387 13.1978 75.2743 12.788C74.8098 12.3645 74.2771 12.1528 73.6761 12.1528C73.2253 12.1528 72.9043 12.2347 72.713 12.3987C72.5355 12.5489 72.4467 12.8904 72.4467 13.4232V22.951C72.4467 23.6203 72.5491 24.0438 72.754 24.2214C72.9589 24.399 73.3346 24.5014 73.881 24.5287V25H68.0413V24.5287C68.4375 24.5014 68.7243 24.399 68.9019 24.2214C69.0795 24.0438 69.1683 23.6203 69.1683 22.951V13.4232C69.1683 12.7538 69.0658 12.3304 68.8609 12.1528C68.6697 11.9615 68.294 11.8591 67.734 11.8454V11.3742H69.1683C70.1928 11.3742 71.1216 11.3605 71.9549 11.3332C72.7882 11.2922 73.4985 11.2717 74.0859 11.2717C75.4382 11.2717 76.5105 11.4015 77.3028 11.661C78.1087 11.9069 78.6825 12.2552 79.024 12.706C79.3791 13.1568 79.5567 13.669 79.5567 14.2428C79.5567 14.7892 79.4201 15.2877 79.1469 15.7385C78.8874 16.1893 78.539 16.5718 78.1019 16.886C77.6784 17.1865 77.214 17.3982 76.7086 17.5212V17.5621L80.1099 22.8895C80.5061 23.5179 80.8681 23.9482 81.1959 24.1804C81.5237 24.4126 81.8174 24.5287 82.077 24.5287V25C81.8038 25.0956 81.4759 25.1707 81.0934 25.2254C80.7246 25.28 80.3626 25.3073 80.0075 25.3073ZM89.6842 25.3073C88.2499 25.3073 86.9795 25.0205 85.873 24.4468C84.7666 23.8731 83.8992 23.0671 83.2708 22.029C82.6425 20.9771 82.3283 19.7614 82.3283 18.3817C82.3283 17.248 82.5332 16.2371 82.943 15.3492C83.3528 14.4477 83.9128 13.6759 84.6232 13.0338C85.3471 12.3918 86.1736 11.9069 87.1024 11.5791C88.045 11.2376 89.049 11.0668 90.1145 11.0668C90.9204 11.0668 91.6922 11.1419 92.4298 11.2922C93.1675 11.4425 93.7549 11.62 94.192 11.8249V15.0624H93.7207C93.4475 14.2291 93.1197 13.5939 92.7372 13.1568C92.3547 12.706 91.9244 12.3918 91.4463 12.2142C90.9819 12.0367 90.4901 11.9479 89.971 11.9479C87.3347 11.9479 86.0165 13.8603 86.0165 17.6851C86.0165 18.9418 86.1462 20.0824 86.4058 21.1069C86.679 22.1314 87.0956 22.9442 87.6557 23.5452C88.2294 24.1326 88.9602 24.4263 89.8481 24.4263C90.5721 24.4263 91.2278 24.2487 91.8151 23.8935C92.4025 23.5247 92.9011 23.0398 93.3109 22.4388C93.7344 21.8377 94.0349 21.1889 94.2125 20.4922H94.6837L94.5198 23.6067C94.069 24.0984 93.4339 24.5082 92.6143 24.8361C91.7947 25.1503 90.818 25.3073 89.6842 25.3073ZM103.362 11.0668C104.332 11.0668 105.233 11.2307 106.066 11.5586C106.9 11.8864 107.637 12.3645 108.279 12.9929C108.921 13.6076 109.42 14.352 109.775 15.2263C110.13 16.1005 110.308 17.0772 110.308 18.1563C110.308 19.2355 110.13 20.2122 109.775 21.0864C109.42 21.9607 108.921 22.712 108.279 23.3403C107.651 23.9687 106.913 24.4536 106.066 24.7951C105.219 25.1366 104.311 25.3073 103.341 25.3073C102.385 25.3073 101.483 25.1434 100.637 24.8156C99.8033 24.4878 99.0657 24.0165 98.4236 23.4018C97.7816 22.7734 97.283 22.0221 96.9279 21.1479C96.5727 20.2736 96.3951 19.297 96.3951 18.2178C96.3951 17.1387 96.5727 16.162 96.9279 15.2877C97.283 14.4135 97.7748 13.6622 98.4032 13.0338C99.0452 12.4055 99.7896 11.9206 100.637 11.5791C101.483 11.2376 102.392 11.0668 103.362 11.0668ZM103.772 24.4263C104.482 24.4263 105.042 24.1941 105.452 23.7296C105.862 23.2515 106.155 22.5958 106.333 21.7626C106.524 20.9293 106.62 19.9595 106.62 18.853C106.62 16.6264 106.278 14.9189 105.595 13.7305C104.926 12.5421 104.038 11.9479 102.931 11.9479C102.235 11.9479 101.675 12.1801 101.251 12.6445C100.841 13.109 100.541 13.7647 100.35 14.6116C100.172 15.4448 100.083 16.4147 100.083 17.5212C100.083 19.7477 100.418 21.4552 101.087 22.6437C101.77 23.8321 102.665 24.4263 103.772 24.4263ZM119.793 25.1639C119.684 24.8497 119.547 24.5287 119.383 24.2009C119.233 23.8594 119.028 23.4154 118.769 22.869L115.08 15.1648H115.039L114.671 22.951C114.657 23.4154 114.766 23.7911 114.998 24.078C115.231 24.3512 115.654 24.5014 116.269 24.5287V25L112.478 25V24.5287C112.874 24.5014 113.154 24.3512 113.318 24.078C113.496 23.7911 113.591 23.4154 113.605 22.951L114.035 13.4232C114.063 12.9451 114.029 12.6036 113.933 12.3987C113.851 12.1938 113.701 12.064 113.482 12.0093C113.264 11.941 112.97 11.8864 112.601 11.8454V11.3742H116.986C117.095 11.7293 117.218 12.064 117.355 12.3782C117.505 12.6923 117.669 13.0407 117.847 13.4232L121.371 20.7996H121.412L124.69 13.4232C125.004 12.7265 125.243 12.0435 125.407 11.3742H129.751V11.8454C129.492 11.8591 129.273 11.9001 129.096 11.9684C128.918 12.0367 128.788 12.1801 128.706 12.3987C128.638 12.6036 128.611 12.9451 128.624 13.4232L129.055 22.951C129.082 23.3881 129.137 23.716 129.218 23.9345C129.314 24.1531 129.464 24.3033 129.669 24.3853C129.874 24.4536 130.147 24.5014 130.489 24.5287V25H124.649V24.5287C125.086 24.5014 125.387 24.399 125.551 24.2214C125.728 24.0438 125.803 23.6203 125.776 22.951L125.428 14.5706H125.387L121.678 22.869C121.419 23.4428 121.227 23.8935 121.104 24.2214C120.995 24.5356 120.9 24.8497 120.818 25.1639H119.793ZM139.463 25.1639C139.353 24.8497 139.217 24.5287 139.053 24.2009C138.903 23.8594 138.698 23.4154 138.438 22.869L134.75 15.1648H134.709L134.34 22.951C134.327 23.4154 134.436 23.7911 134.668 24.078C134.9 24.3512 135.324 24.5014 135.938 24.5287V25H132.148V24.5287C132.544 24.5014 132.824 24.3512 132.988 24.078C133.165 23.7911 133.261 23.4154 133.275 22.951L133.705 13.4232C133.732 12.9451 133.698 12.6036 133.603 12.3987C133.521 12.1938 133.37 12.064 133.152 12.0093C132.933 11.941 132.64 11.8864 132.271 11.8454V11.3742H136.656C136.765 11.7293 136.888 12.064 137.024 12.3782C137.175 12.6923 137.339 13.0407 137.516 13.4232L141.04 20.7996H141.081L144.36 13.4232C144.674 12.7265 144.913 12.0435 145.077 11.3742H149.421V11.8454C149.161 11.8591 148.943 11.9001 148.765 11.9684C148.588 12.0367 148.458 12.1801 148.376 12.3987C148.308 12.6036 148.28 12.9451 148.294 13.4232L148.724 22.951C148.751 23.3881 148.806 23.716 148.888 23.9345C148.984 24.1531 149.134 24.3033 149.339 24.3853C149.544 24.4536 149.817 24.5014 150.158 24.5287V25H144.319V24.5287C144.756 24.5014 145.056 24.399 145.22 24.2214C145.398 24.0438 145.473 23.6203 145.446 22.951L145.097 14.5706H145.056L141.348 22.869C141.088 23.4428 140.897 23.8935 140.774 24.2214C140.665 24.5356 140.569 24.8497 140.487 25.1639H139.463ZM166.233 21.2094H166.704L166.499 25H156.623V24.5287C156.732 24.4741 156.896 24.3785 157.115 24.2419C157.347 24.1053 157.586 23.9482 157.832 23.7706C158.515 23.2788 159.157 22.7188 159.758 22.0904C160.359 21.4621 160.885 20.7927 161.336 20.0824C161.786 19.3721 162.142 18.6618 162.401 17.9514C162.661 17.2411 162.79 16.565 162.79 15.9229C162.79 15.3082 162.64 14.7892 162.34 14.3657C162.053 13.9422 161.527 13.7305 160.762 13.7305C160.12 13.7305 159.526 13.9081 158.979 14.2632C158.433 14.6184 157.893 15.1716 157.361 15.9229L156.971 15.5951C157.531 14.1745 158.235 13.1158 159.082 12.4191C159.929 11.7225 160.987 11.3742 162.258 11.3742C162.995 11.3742 163.658 11.4971 164.245 11.743C164.833 11.9752 165.297 12.344 165.638 12.8494C165.994 13.3412 166.171 13.9832 166.171 14.7755C166.171 16.1825 165.72 17.5007 164.819 18.7301C163.931 19.9595 162.688 21.1137 161.09 22.1929V22.2339H164.081C164.86 22.2339 165.399 22.1382 165.7 21.947C166 21.7558 166.178 21.5099 166.233 21.2094ZM174.954 11.3742C175.664 11.3742 176.361 11.5108 177.044 11.784C177.727 12.0572 178.341 12.4806 178.888 13.0543C179.434 13.6281 179.864 14.352 180.179 15.2263C180.506 16.0869 180.67 17.1114 180.67 18.2998C180.67 19.4745 180.513 20.499 180.199 21.3733C179.885 22.2475 179.455 22.9783 178.908 23.5657C178.362 24.1531 177.747 24.5902 177.064 24.8771C176.381 25.1639 175.671 25.3073 174.933 25.3073C174.223 25.3073 173.526 25.1707 172.843 24.8976C172.16 24.6244 171.545 24.2009 170.999 23.6272C170.453 23.0535 170.015 22.3363 169.688 21.4757C169.373 20.6015 169.216 19.5702 169.216 18.3817C169.216 17.207 169.373 16.1825 169.688 15.3082C170.002 14.434 170.432 13.7032 170.979 13.1158C171.525 12.5284 172.14 12.0913 172.823 11.8044C173.506 11.5176 174.216 11.3742 174.954 11.3742ZM175.015 24.4263C175.411 24.4263 175.773 24.2487 176.101 23.8935C176.429 23.5384 176.688 22.9373 176.88 22.0904C177.085 21.2435 177.187 20.0824 177.187 18.6071C177.187 17.3231 177.098 16.2098 176.921 15.2673C176.757 14.3111 176.504 13.5734 176.162 13.0543C175.821 12.5216 175.391 12.2552 174.872 12.2552C174.489 12.2552 174.127 12.4328 173.786 12.788C173.458 13.1431 173.191 13.7442 172.987 14.5911C172.795 15.438 172.7 16.5991 172.7 18.0744C172.7 19.3584 172.782 20.4785 172.946 21.4347C173.123 22.3773 173.383 23.1149 173.724 23.6477C174.066 24.1667 174.496 24.4263 175.015 24.4263ZM191.985 21.2094H192.457L192.252 25H182.375V24.5287C182.485 24.4741 182.649 24.3785 182.867 24.2419C183.099 24.1053 183.338 23.9482 183.584 23.7706C184.267 23.2788 184.909 22.7188 185.51 22.0904C186.111 21.4621 186.637 20.7927 187.088 20.0824C187.539 19.3721 187.894 18.6618 188.154 17.9514C188.413 17.2411 188.543 16.565 188.543 15.9229C188.543 15.3082 188.393 14.7892 188.092 14.3657C187.805 13.9422 187.279 13.7305 186.514 13.7305C185.872 13.7305 185.278 13.9081 184.732 14.2632C184.185 14.6184 183.646 15.1716 183.113 15.9229L182.724 15.5951C183.284 14.1745 183.987 13.1158 184.834 12.4191C185.681 11.7225 186.74 11.3742 188.01 11.3742C188.748 11.3742 189.41 11.4971 189.998 11.743C190.585 11.9752 191.05 12.344 191.391 12.8494C191.746 13.3412 191.924 13.9832 191.924 14.7755C191.924 16.1825 191.473 17.5007 190.571 18.7301C189.684 19.9595 188.44 21.1137 186.842 22.1929V22.2339H189.834C190.612 22.2339 191.152 22.1382 191.453 21.947C191.753 21.7558 191.931 21.5099 191.985 21.2094ZM203.37 19.7751H204.804V22.3363H203.944C203.561 22.3363 203.37 22.5754 203.37 23.0535C203.37 23.3813 203.37 23.7023 203.37 24.0165C203.383 24.317 203.397 24.6448 203.411 25H200.173C200.201 24.5492 200.221 24.1121 200.235 23.6886C200.249 23.2515 200.262 22.8007 200.276 22.3363H193.801V21.865C194.156 21.5235 194.477 21.1684 194.764 20.7996L201.464 12.4191C201.615 12.2279 201.751 12.0435 201.874 11.8659C202.011 11.6747 202.12 11.5108 202.202 11.3742H203.39L203.37 19.7751ZM200.235 15.4926L196.813 19.7751H200.296V15.4926H200.235Z" fill="black"/>
<path d="M234.092 15.2297C231.232 14.0878 227.877 14.6968 225.59 16.9806C222.501 20.0637 222.501 25.05 225.59 28.1331C227.877 30.4169 231.232 31.0259 234.092 29.884V26.2299C233.52 26.4964 232.91 26.6486 232.262 26.6486C229.974 26.6486 228.144 24.8216 228.144 22.5378C228.144 20.254 229.974 18.427 232.262 18.427C232.91 18.427 233.558 18.5793 234.092 18.8457V15.2297Z" fill="black"/>
<path d="M232.796 11.5678C233.923 10.4387 233.923 8.56975 232.796 7.40166C231.67 6.27251 229.806 6.27251 228.641 7.40166C227.475 8.53081 227.514 10.3998 228.641 11.5678C229.806 12.697 231.67 12.697 232.796 11.5678Z" fill="black"/>
<path d="M253.002 25V24.5287C253.398 24.5014 253.685 24.399 253.862 24.2214C254.04 24.0438 254.129 23.6203 254.129 22.951V13.4232C254.129 12.7538 254.026 12.3304 253.821 12.1528C253.63 11.9615 253.255 11.8591 252.694 11.8454V11.3742H258.534V11.8454C258.138 11.8591 257.851 11.9615 257.674 12.1528C257.496 12.3304 257.407 12.7538 257.407 13.4232V22.951C257.407 23.6203 257.51 24.0438 257.715 24.2214C257.919 24.399 258.295 24.5014 258.841 24.5287V25H253.002ZM273.03 25.1639C272.826 24.9454 272.614 24.7336 272.395 24.5287C272.177 24.3102 271.828 23.9892 271.35 23.5657L263.277 16.1893H263.236V22.951C263.236 23.4154 263.352 23.7911 263.585 24.078C263.83 24.3512 264.247 24.5014 264.834 24.5287V25H261.044V24.5287C261.44 24.5014 261.727 24.3512 261.904 24.078C262.082 23.7911 262.171 23.4154 262.171 22.951L262.171 13.4232C262.171 12.7538 262.068 12.3304 261.863 12.1528C261.672 11.9615 261.297 11.8591 260.736 11.8454V11.3742H263.195C263.4 11.6337 263.619 11.8659 263.851 12.0708C264.083 12.2757 264.35 12.5216 264.65 12.8085L272.805 20.1849H272.846V13.4232C272.846 12.9587 272.73 12.5831 272.498 12.2962C272.265 12.0093 271.849 11.8591 271.248 11.8454V11.3742H275.038V11.8454C274.642 11.8591 274.355 12.0093 274.178 12.2962C274 12.5831 273.912 12.9587 273.912 13.4232V22.951C273.912 23.3335 273.912 23.7023 273.912 24.0575C273.925 24.399 273.939 24.7678 273.952 25.1639H273.03ZM276.659 11.3742H288.338V14.755H287.867C287.785 14.0174 287.566 13.4163 287.211 12.9519C286.856 12.4874 286.248 12.2552 285.388 12.2552H284.138V22.951C284.138 23.6203 284.24 24.0438 284.445 24.2214C284.65 24.399 285.026 24.5014 285.572 24.5287V25L279.732 25V24.5287C280.129 24.5014 280.415 24.399 280.593 24.2214C280.771 24.0438 280.859 23.6203 280.859 22.951V12.2552H279.589C278.756 12.2552 278.155 12.4874 277.786 12.9519C277.431 13.4163 277.212 14.0174 277.13 14.755H276.659V11.3742ZM290.198 25V24.5287C290.594 24.5014 290.881 24.399 291.058 24.2214C291.236 24.0438 291.324 23.6203 291.324 22.951V13.4232C291.324 12.7538 291.222 12.3304 291.017 12.1528C290.826 11.9615 290.45 11.8591 289.89 11.8454V11.3742L299.951 11.3742V14.2428L299.479 14.2428C299.452 13.6554 299.247 13.1773 298.865 12.8085C298.496 12.4396 297.922 12.2552 297.144 12.2552H295.504C295.218 12.2552 294.992 12.3304 294.828 12.4806C294.678 12.6309 294.603 12.9451 294.603 13.4232V17.4597C294.712 17.3777 294.842 17.3231 294.992 17.2958C295.156 17.2684 295.347 17.2548 295.566 17.2548H297.553C297.963 17.2548 298.305 17.1387 298.578 16.9065C298.851 16.6742 298.995 16.3532 299.008 15.9434H299.479V19.4267H299.008C298.995 18.9213 298.851 18.5798 298.578 18.4022C298.305 18.2246 297.963 18.1359 297.553 18.1359H295.607C295.238 18.1359 294.979 18.1973 294.828 18.3203C294.678 18.4432 294.603 18.6823 294.603 19.0374V22.951C294.603 23.4291 294.705 23.7433 294.91 23.8935C295.129 24.0438 295.545 24.1189 296.16 24.1189H298.107C298.926 24.1189 299.575 23.8731 300.053 23.3813C300.531 22.8895 300.798 22.3022 300.852 21.6192H301.324L301.16 25H290.198ZM315.07 25.3073C314.455 25.3073 313.929 25.2049 313.492 25C313.055 24.8088 312.686 24.5492 312.386 24.2214C312.085 23.8935 311.805 23.5316 311.546 23.1354L308.677 18.6686C308.54 18.4364 308.418 18.2929 308.308 18.2383C308.199 18.1837 308.069 18.1495 307.919 18.1359V17.4187C308.739 17.3641 309.374 17.2001 309.825 16.9269C310.275 16.6537 310.589 16.3191 310.767 15.9229C310.945 15.5131 311.033 15.0897 311.033 14.6526C311.033 13.8193 310.801 13.1978 310.337 12.788C309.872 12.3645 309.34 12.1528 308.739 12.1528C308.288 12.1528 307.967 12.2347 307.776 12.3987C307.598 12.5489 307.509 12.8904 307.509 13.4232V22.951C307.509 23.6203 307.612 24.0438 307.817 24.2214C308.021 24.399 308.397 24.5014 308.943 24.5287V25H303.104V24.5287C303.5 24.5014 303.787 24.399 303.964 24.2214C304.142 24.0438 304.231 23.6203 304.231 22.951V13.4232C304.231 12.7538 304.128 12.3304 303.923 12.1528C303.732 11.9615 303.357 11.8591 302.796 11.8454V11.3742H304.231C305.255 11.3742 306.184 11.3605 307.017 11.3332C307.851 11.2922 308.561 11.2717 309.148 11.2717C310.501 11.2717 311.573 11.4015 312.365 11.661C313.171 11.9069 313.745 12.2552 314.086 12.706C314.442 13.1568 314.619 13.669 314.619 14.2428C314.619 14.7892 314.483 15.2877 314.209 15.7385C313.95 16.1893 313.602 16.5718 313.164 16.886C312.741 17.1865 312.277 17.3982 311.771 17.5212V17.5621L315.172 22.8895C315.569 23.5179 315.931 23.9482 316.258 24.1804C316.586 24.4126 316.88 24.5287 317.139 24.5287V25C316.866 25.0956 316.538 25.1707 316.156 25.2254C315.787 25.28 315.425 25.3073 315.07 25.3073ZM324.747 25.3073C323.312 25.3073 322.042 25.0205 320.936 24.4468C319.829 23.8731 318.962 23.0671 318.333 22.029C317.705 20.9771 317.391 19.7614 317.391 18.3817C317.391 17.248 317.596 16.2371 318.005 15.3492C318.415 14.4477 318.975 13.6759 319.686 13.0338C320.41 12.3918 321.236 11.9069 322.165 11.5791C323.107 11.2376 324.111 11.0668 325.177 11.0668C325.983 11.0668 326.755 11.1419 327.492 11.2922C328.23 11.4425 328.817 11.62 329.254 11.8249V15.0624H328.783C328.51 14.2291 328.182 13.5939 327.8 13.1568C327.417 12.706 326.987 12.3918 326.509 12.2142C326.044 12.0367 325.553 11.9479 325.034 11.9479C322.397 11.9479 321.079 13.8603 321.079 17.6851C321.079 18.9418 321.209 20.0824 321.468 21.1069C321.741 22.1314 322.158 22.9442 322.718 23.5452C323.292 24.1326 324.023 24.4263 324.911 24.4263C325.635 24.4263 326.29 24.2487 326.878 23.8935C327.465 23.5247 327.964 23.0398 328.373 22.4388C328.797 21.8377 329.097 21.1889 329.275 20.4922H329.746L329.582 23.6067C329.132 24.0984 328.496 24.5082 327.677 24.8361C326.857 25.1503 325.88 25.3073 324.747 25.3073ZM338.424 11.0668C339.394 11.0668 340.296 11.2307 341.129 11.5586C341.962 11.8864 342.7 12.3645 343.342 12.9929C343.984 13.6076 344.482 14.352 344.838 15.2263C345.193 16.1005 345.37 17.0772 345.37 18.1563C345.37 19.2355 345.193 20.2122 344.838 21.0864C344.482 21.9607 343.984 22.712 343.342 23.3403C342.713 23.9687 341.976 24.4536 341.129 24.7951C340.282 25.1366 339.374 25.3073 338.404 25.3073C337.448 25.3073 336.546 25.1434 335.699 24.8156C334.866 24.4878 334.128 24.0165 333.486 23.4018C332.844 22.7734 332.346 22.0221 331.99 21.1479C331.635 20.2736 331.458 19.297 331.458 18.2178C331.458 17.1387 331.635 16.162 331.99 15.2877C332.346 14.4135 332.837 13.6622 333.466 13.0338C334.108 12.4055 334.852 11.9206 335.699 11.5791C336.546 11.2376 337.454 11.0668 338.424 11.0668ZM338.834 24.4263C339.544 24.4263 340.104 24.1941 340.514 23.7296C340.924 23.2515 341.218 22.5958 341.395 21.7626C341.587 20.9293 341.682 19.9595 341.682 18.853C341.682 16.6264 341.341 14.9189 340.658 13.7305C339.988 12.5421 339.1 11.9479 337.994 11.9479C337.297 11.9479 336.737 12.1801 336.314 12.6445C335.904 13.109 335.603 13.7647 335.412 14.6116C335.235 15.4448 335.146 16.4147 335.146 17.5212C335.146 19.7477 335.481 21.4552 336.15 22.6437C336.833 23.8321 337.728 24.4263 338.834 24.4263ZM354.856 25.1639C354.746 24.8497 354.61 24.5287 354.446 24.2009C354.296 23.8594 354.091 23.4154 353.831 22.869L350.143 15.1648H350.102L349.733 22.951C349.719 23.4154 349.829 23.7911 350.061 24.078C350.293 24.3512 350.717 24.5014 351.331 24.5287V25L347.541 25V24.5287C347.937 24.5014 348.217 24.3512 348.381 24.078C348.558 23.7911 348.654 23.4154 348.668 22.951L349.098 13.4232C349.125 12.9451 349.091 12.6036 348.995 12.3987C348.914 12.1938 348.763 12.064 348.545 12.0093C348.326 11.941 348.032 11.8864 347.664 11.8454V11.3742H352.048C352.158 11.7293 352.281 12.064 352.417 12.3782C352.568 12.6923 352.731 13.0407 352.909 13.4232L356.433 20.7996H356.474L359.753 13.4232C360.067 12.7265 360.306 12.0435 360.47 11.3742H364.814V11.8454C364.554 11.8591 364.336 11.9001 364.158 11.9684C363.98 12.0367 363.851 12.1801 363.769 12.3987C363.7 12.6036 363.673 12.9451 363.687 13.4232L364.117 22.951C364.144 23.3881 364.199 23.716 364.281 23.9345C364.377 24.1531 364.527 24.3033 364.732 24.3853C364.937 24.4536 365.21 24.5014 365.551 24.5287V25H359.712V24.5287C360.149 24.5014 360.449 24.399 360.613 24.2214C360.791 24.0438 360.866 23.6203 360.839 22.951L360.49 14.5706H360.449L356.741 22.869C356.481 23.4428 356.29 23.8935 356.167 24.2214C356.058 24.5356 355.962 24.8497 355.88 25.1639H354.856ZM374.525 25.1639C374.416 24.8497 374.279 24.5287 374.115 24.2009C373.965 23.8594 373.76 23.4154 373.501 22.869L369.812 15.1648H369.772L369.403 22.951C369.389 23.4154 369.498 23.7911 369.731 24.078C369.963 24.3512 370.386 24.5014 371.001 24.5287V25H367.21V24.5287C367.606 24.5014 367.886 24.3512 368.05 24.078C368.228 23.7911 368.324 23.4154 368.337 22.951L368.767 13.4232C368.795 12.9451 368.761 12.6036 368.665 12.3987C368.583 12.1938 368.433 12.064 368.214 12.0093C367.996 11.941 367.702 11.8864 367.333 11.8454V11.3742H371.718C371.827 11.7293 371.95 12.064 372.087 12.3782C372.237 12.6923 372.401 13.0407 372.579 13.4232L376.103 20.7996H376.144L379.422 13.4232C379.736 12.7265 379.976 12.0435 380.139 11.3742H384.483V11.8454C384.224 11.8591 384.005 11.9001 383.828 11.9684C383.65 12.0367 383.52 12.1801 383.438 12.3987C383.37 12.6036 383.343 12.9451 383.356 13.4232L383.787 22.951C383.814 23.3881 383.869 23.716 383.951 23.9345C384.046 24.1531 384.196 24.3033 384.401 24.3853C384.606 24.4536 384.879 24.5014 385.221 24.5287V25H379.381V24.5287C379.818 24.5014 380.119 24.399 380.283 24.2214C380.46 24.0438 380.536 23.6203 380.508 22.951L380.16 14.5706H380.119L376.41 22.869C376.151 23.4428 375.959 23.8935 375.837 24.2214C375.727 24.5356 375.632 24.8497 375.55 25.1639H374.525ZM401.295 21.2094H401.766L401.562 25H391.685V24.5287C391.795 24.4741 391.959 24.3785 392.177 24.2419C392.409 24.1053 392.648 23.9482 392.894 23.7706C393.577 23.2788 394.219 22.7188 394.82 22.0904C395.421 21.4621 395.947 20.7927 396.398 20.0824C396.849 19.3721 397.204 18.6618 397.464 17.9514C397.723 17.2411 397.853 16.565 397.853 15.9229C397.853 15.3082 397.703 14.7892 397.402 14.3657C397.115 13.9422 396.589 13.7305 395.824 13.7305C395.182 13.7305 394.588 13.9081 394.042 14.2632C393.495 14.6184 392.956 15.1716 392.423 15.9229L392.034 15.5951C392.594 14.1745 393.297 13.1158 394.144 12.4191C394.991 11.7225 396.05 11.3742 397.32 11.3742C398.058 11.3742 398.72 11.4971 399.308 11.743C399.895 11.9752 400.359 12.344 400.701 12.8494C401.056 13.3412 401.234 13.9832 401.234 14.7755C401.234 16.1825 400.783 17.5007 399.881 18.7301C398.993 19.9595 397.75 21.1137 396.152 22.1929V22.2339H399.144C399.922 22.2339 400.462 22.1382 400.762 21.947C401.063 21.7558 401.241 21.5099 401.295 21.2094ZM410.016 11.3742C410.726 11.3742 411.423 11.5108 412.106 11.784C412.789 12.0572 413.404 12.4806 413.95 13.0543C414.497 13.6281 414.927 14.352 415.241 15.2263C415.569 16.0869 415.733 17.1114 415.733 18.2998C415.733 19.4745 415.576 20.499 415.262 21.3733C414.947 22.2475 414.517 22.9783 413.971 23.5657C413.424 24.1531 412.81 24.5902 412.127 24.8771C411.444 25.1639 410.733 25.3073 409.996 25.3073C409.285 25.3073 408.589 25.1707 407.906 24.8976C407.223 24.6244 406.608 24.2009 406.062 23.6272C405.515 23.0535 405.078 22.3363 404.75 21.4757C404.436 20.6015 404.279 19.5702 404.279 18.3817C404.279 17.207 404.436 16.1825 404.75 15.3082C405.064 14.434 405.495 13.7032 406.041 13.1158C406.587 12.5284 407.202 12.0913 407.885 11.8044C408.568 11.5176 409.278 11.3742 410.016 11.3742ZM410.078 24.4263C410.474 24.4263 410.836 24.2487 411.164 23.8935C411.491 23.5384 411.751 22.9373 411.942 22.0904C412.147 21.2435 412.249 20.0824 412.249 18.6071C412.249 17.3231 412.161 16.2098 411.983 15.2673C411.819 14.3111 411.566 13.5734 411.225 13.0543C410.883 12.5216 410.453 12.2552 409.934 12.2552C409.552 12.2552 409.19 12.4328 408.848 12.788C408.52 13.1431 408.254 13.7442 408.049 14.5911C407.858 15.438 407.762 16.5991 407.762 18.0744C407.762 19.3584 407.844 20.4785 408.008 21.4347C408.186 22.3773 408.445 23.1149 408.787 23.6477C409.128 24.1667 409.558 24.4263 410.078 24.4263ZM427.048 21.2094H427.519L427.314 25H417.438V24.5287C417.547 24.4741 417.711 24.3785 417.93 24.2419C418.162 24.1053 418.401 23.9482 418.647 23.7706C419.33 23.2788 419.972 22.7188 420.573 22.0904C421.174 21.4621 421.7 20.7927 422.151 20.0824C422.601 19.3721 422.957 18.6618 423.216 17.9514C423.476 17.2411 423.605 16.565 423.605 15.9229C423.605 15.3082 423.455 14.7892 423.155 14.3657C422.868 13.9422 422.342 13.7305 421.577 13.7305C420.935 13.7305 420.341 13.9081 419.794 14.2632C419.248 14.6184 418.708 15.1716 418.176 15.9229L417.786 15.5951C418.346 14.1745 419.05 13.1158 419.897 12.4191C420.744 11.7225 421.802 11.3742 423.073 11.3742C423.81 11.3742 424.473 11.4971 425.06 11.743C425.648 11.9752 426.112 12.344 426.454 12.8494C426.809 13.3412 426.986 13.9832 426.986 14.7755C426.986 16.1825 426.535 17.5007 425.634 18.7301C424.746 19.9595 423.503 21.1137 421.905 22.1929V22.2339H424.896C425.675 22.2339 426.214 22.1382 426.515 21.947C426.816 21.7558 426.993 21.5099 427.048 21.2094ZM438.432 19.7751H439.867V22.3363H439.006C438.624 22.3363 438.432 22.5754 438.432 23.0535C438.432 23.3813 438.432 23.7023 438.432 24.0165C438.446 24.317 438.46 24.6448 438.473 25H435.236C435.263 24.5492 435.284 24.1121 435.297 23.6886C435.311 23.2515 435.325 22.8007 435.338 22.3363H428.864V21.865C429.219 21.5235 429.54 21.1684 429.827 20.7996L436.527 12.4191C436.677 12.2279 436.814 12.0435 436.937 11.8659C437.073 11.6747 437.182 11.5108 437.264 11.3742H438.453L438.432 19.7751ZM435.297 15.4926L431.876 19.7751H435.359V15.4926H435.297Z" fill="black"/>
<path d="M469.154 15.2297C466.295 14.0878 462.94 14.6968 460.652 16.9806C457.564 20.0637 457.564 25.05 460.652 28.1331C462.94 30.4169 466.295 31.0259 469.154 29.884V26.2299C468.582 26.4964 467.972 26.6486 467.324 26.6486C465.037 26.6486 463.207 24.8216 463.207 22.5378C463.207 20.254 465.037 18.427 467.324 18.427C467.972 18.427 468.62 18.5793 469.154 18.8457V15.2297Z" fill="black"/>
<path d="M467.859 11.5678C468.985 10.4387 468.985 8.56975 467.859 7.40166C466.733 6.27251 464.868 6.27251 463.703 7.40166C462.538 8.53081 462.577 10.3998 463.703 11.5678C464.868 12.697 466.733 12.697 467.859 11.5678Z" fill="black"/>
<path d="M488.064 25V24.5287C488.46 24.5014 488.747 24.399 488.925 24.2214C489.102 24.0438 489.191 23.6203 489.191 22.951V13.4232C489.191 12.7538 489.089 12.3304 488.884 12.1528C488.693 11.9615 488.317 11.8591 487.757 11.8454V11.3742H493.597V11.8454C493.2 11.8591 492.914 11.9615 492.736 12.1528C492.558 12.3304 492.47 12.7538 492.47 13.4232V22.951C492.47 23.6203 492.572 24.0438 492.777 24.2214C492.982 24.399 493.358 24.5014 493.904 24.5287V25H488.064ZM508.093 25.1639C507.888 24.9454 507.676 24.7336 507.458 24.5287C507.239 24.3102 506.891 23.9892 506.413 23.5657L498.34 16.1893H498.299V22.951C498.299 23.4154 498.415 23.7911 498.647 24.078C498.893 24.3512 499.31 24.5014 499.897 24.5287V25H496.106V24.5287C496.502 24.5014 496.789 24.3512 496.967 24.078C497.144 23.7911 497.233 23.4154 497.233 22.951L497.233 13.4232C497.233 12.7538 497.131 12.3304 496.926 12.1528C496.735 11.9615 496.359 11.8591 495.799 11.8454V11.3742H498.258C498.463 11.6337 498.681 11.8659 498.913 12.0708C499.146 12.2757 499.412 12.5216 499.713 12.8085L507.868 20.1849H507.909V13.4232C507.909 12.9587 507.792 12.5831 507.56 12.2962C507.328 12.0093 506.911 11.8591 506.31 11.8454V11.3742H510.101V11.8454C509.705 11.8591 509.418 12.0093 509.24 12.2962C509.063 12.5831 508.974 12.9587 508.974 13.4232V22.951C508.974 23.3335 508.974 23.7023 508.974 24.0575C508.988 24.399 509.001 24.7678 509.015 25.1639H508.093ZM511.721 11.3742H523.401V14.755H522.929C522.847 14.0174 522.629 13.4163 522.274 12.9519C521.919 12.4874 521.311 12.2552 520.45 12.2552H519.2V22.951C519.2 23.6203 519.303 24.0438 519.508 24.2214C519.713 24.399 520.088 24.5014 520.635 24.5287V25L514.795 25V24.5287C515.191 24.5014 515.478 24.399 515.656 24.2214C515.833 24.0438 515.922 23.6203 515.922 22.951V12.2552H514.652C513.818 12.2552 513.217 12.4874 512.848 12.9519C512.493 13.4163 512.275 14.0174 512.193 14.755H511.721V11.3742ZM525.26 25V24.5287C525.656 24.5014 525.943 24.399 526.121 24.2214C526.298 24.0438 526.387 23.6203 526.387 22.951V13.4232C526.387 12.7538 526.285 12.3304 526.08 12.1528C525.888 11.9615 525.513 11.8591 524.953 11.8454V11.3742L535.013 11.3742V14.2428L534.542 14.2428C534.515 13.6554 534.31 13.1773 533.927 12.8085C533.558 12.4396 532.985 12.2552 532.206 12.2552H530.567C530.28 12.2552 530.055 12.3304 529.891 12.4806C529.741 12.6309 529.665 12.9451 529.665 13.4232V17.4597C529.775 17.3777 529.904 17.3231 530.055 17.2958C530.219 17.2684 530.41 17.2548 530.628 17.2548H532.616C533.026 17.2548 533.367 17.1387 533.64 16.9065C533.914 16.6742 534.057 16.3532 534.071 15.9434H534.542V19.4267H534.071C534.057 18.9213 533.914 18.5798 533.64 18.4022C533.367 18.2246 533.026 18.1359 532.616 18.1359H530.669C530.301 18.1359 530.041 18.1973 529.891 18.3203C529.741 18.4432 529.665 18.6823 529.665 19.0374V22.951C529.665 23.4291 529.768 23.7433 529.973 23.8935C530.191 24.0438 530.608 24.1189 531.223 24.1189H533.169C533.989 24.1189 534.638 23.8731 535.116 23.3813C535.594 22.8895 535.86 22.3022 535.915 21.6192H536.386L536.222 25H525.26ZM550.132 25.3073C549.518 25.3073 548.992 25.2049 548.555 25C548.118 24.8088 547.749 24.5492 547.448 24.2214C547.148 23.8935 546.868 23.5316 546.608 23.1354L543.74 18.6686C543.603 18.4364 543.48 18.2929 543.371 18.2383C543.261 18.1837 543.132 18.1495 542.981 18.1359V17.4187C543.801 17.3641 544.436 17.2001 544.887 16.9269C545.338 16.6537 545.652 16.3191 545.83 15.9229C546.007 15.5131 546.096 15.0897 546.096 14.6526C546.096 13.8193 545.864 13.1978 545.399 12.788C544.935 12.3645 544.402 12.1528 543.801 12.1528C543.35 12.1528 543.029 12.2347 542.838 12.3987C542.66 12.5489 542.572 12.8904 542.572 13.4232V22.951C542.572 23.6203 542.674 24.0438 542.879 24.2214C543.084 24.399 543.46 24.5014 544.006 24.5287V25H538.166V24.5287C538.562 24.5014 538.849 24.399 539.027 24.2214C539.204 24.0438 539.293 23.6203 539.293 22.951V13.4232C539.293 12.7538 539.191 12.3304 538.986 12.1528C538.795 11.9615 538.419 11.8591 537.859 11.8454V11.3742H539.293C540.318 11.3742 541.247 11.3605 542.08 11.3332C542.913 11.2922 543.623 11.2717 544.211 11.2717C545.563 11.2717 546.636 11.4015 547.428 11.661C548.234 11.9069 548.807 12.2552 549.149 12.706C549.504 13.1568 549.682 13.669 549.682 14.2428C549.682 14.7892 549.545 15.2877 549.272 15.7385C549.012 16.1893 548.664 16.5718 548.227 16.886C547.803 17.1865 547.339 17.3982 546.834 17.5212V17.5621L550.235 22.8895C550.631 23.5179 550.993 23.9482 551.321 24.1804C551.649 24.4126 551.942 24.5287 552.202 24.5287V25C551.929 25.0956 551.601 25.1707 551.218 25.2254C550.85 25.28 550.488 25.3073 550.132 25.3073ZM559.809 25.3073C558.375 25.3073 557.105 25.0205 555.998 24.4468C554.892 23.8731 554.024 23.0671 553.396 22.029C552.767 20.9771 552.453 19.7614 552.453 18.3817C552.453 17.248 552.658 16.2371 553.068 15.3492C553.478 14.4477 554.038 13.6759 554.748 13.0338C555.472 12.3918 556.299 11.9069 557.227 11.5791C558.17 11.2376 559.174 11.0668 560.239 11.0668C561.045 11.0668 561.817 11.1419 562.555 11.2922C563.292 11.4425 563.88 11.62 564.317 11.8249V15.0624H563.846C563.573 14.2291 563.245 13.5939 562.862 13.1568C562.48 12.706 562.049 12.3918 561.571 12.2142C561.107 12.0367 560.615 11.9479 560.096 11.9479C557.46 11.9479 556.141 13.8603 556.141 17.6851C556.141 18.9418 556.271 20.0824 556.531 21.1069C556.804 22.1314 557.221 22.9442 557.781 23.5452C558.354 24.1326 559.085 24.4263 559.973 24.4263C560.697 24.4263 561.353 24.2487 561.94 23.8935C562.528 23.5247 563.026 23.0398 563.436 22.4388C563.859 21.8377 564.16 21.1889 564.337 20.4922H564.809L564.645 23.6067C564.194 24.0984 563.559 24.5082 562.739 24.8361C561.92 25.1503 560.943 25.3073 559.809 25.3073ZM573.487 11.0668C574.457 11.0668 575.358 11.2307 576.191 11.5586C577.025 11.8864 577.762 12.3645 578.404 12.9929C579.046 13.6076 579.545 14.352 579.9 15.2263C580.255 16.1005 580.433 17.0772 580.433 18.1563C580.433 19.2355 580.255 20.2122 579.9 21.0864C579.545 21.9607 579.046 22.712 578.404 23.3403C577.776 23.9687 577.038 24.4536 576.191 24.7951C575.344 25.1366 574.436 25.3073 573.466 25.3073C572.51 25.3073 571.608 25.1434 570.762 24.8156C569.928 24.4878 569.191 24.0165 568.549 23.4018C567.907 22.7734 567.408 22.0221 567.053 21.1479C566.698 20.2736 566.52 19.297 566.52 18.2178C566.52 17.1387 566.698 16.162 567.053 15.2877C567.408 14.4135 567.9 13.6622 568.528 13.0338C569.17 12.4055 569.915 11.9206 570.762 11.5791C571.608 11.2376 572.517 11.0668 573.487 11.0668ZM573.897 24.4263C574.607 24.4263 575.167 24.1941 575.577 23.7296C575.987 23.2515 576.28 22.5958 576.458 21.7626C576.649 20.9293 576.745 19.9595 576.745 18.853C576.745 16.6264 576.403 14.9189 575.72 13.7305C575.051 12.5421 574.163 11.9479 573.056 11.9479C572.36 11.9479 571.8 12.1801 571.376 12.6445C570.966 13.109 570.666 13.7647 570.475 14.6116C570.297 15.4448 570.208 16.4147 570.208 17.5212C570.208 19.7477 570.543 21.4552 571.212 22.6437C571.895 23.8321 572.79 24.4263 573.897 24.4263ZM589.918 25.1639C589.809 24.8497 589.672 24.5287 589.508 24.2009C589.358 23.8594 589.153 23.4154 588.894 22.869L585.205 15.1648H585.164L584.796 22.951C584.782 23.4154 584.891 23.7911 585.123 24.078C585.356 24.3512 585.779 24.5014 586.394 24.5287V25L582.603 25V24.5287C582.999 24.5014 583.279 24.3512 583.443 24.078C583.621 23.7911 583.716 23.4154 583.73 22.951L584.16 13.4232C584.188 12.9451 584.154 12.6036 584.058 12.3987C583.976 12.1938 583.826 12.064 583.607 12.0093C583.389 11.941 583.095 11.8864 582.726 11.8454V11.3742H587.111C587.22 11.7293 587.343 12.064 587.48 12.3782C587.63 12.6923 587.794 13.0407 587.972 13.4232L591.496 20.7996H591.537L594.815 13.4232C595.129 12.7265 595.368 12.0435 595.532 11.3742H599.876V11.8454C599.617 11.8591 599.398 11.9001 599.221 11.9684C599.043 12.0367 598.913 12.1801 598.831 12.3987C598.763 12.6036 598.736 12.9451 598.749 13.4232L599.18 22.951C599.207 23.3881 599.262 23.716 599.343 23.9345C599.439 24.1531 599.589 24.3033 599.794 24.3853C599.999 24.4536 600.272 24.5014 600.614 24.5287V25H594.774V24.5287C595.211 24.5014 595.512 24.399 595.676 24.2214C595.853 24.0438 595.928 23.6203 595.901 22.951L595.553 14.5706H595.512L591.803 22.869C591.544 23.4428 591.352 23.8935 591.229 24.2214C591.12 24.5356 591.025 24.8497 590.943 25.1639H589.918ZM609.588 25.1639C609.478 24.8497 609.342 24.5287 609.178 24.2009C609.028 23.8594 608.823 23.4154 608.563 22.869L604.875 15.1648H604.834L604.465 22.951C604.452 23.4154 604.561 23.7911 604.793 24.078C605.025 24.3512 605.449 24.5014 606.063 24.5287V25H602.273V24.5287C602.669 24.5014 602.949 24.3512 603.113 24.078C603.29 23.7911 603.386 23.4154 603.4 22.951L603.83 13.4232C603.857 12.9451 603.823 12.6036 603.728 12.3987C603.646 12.1938 603.495 12.064 603.277 12.0093C603.058 11.941 602.765 11.8864 602.396 11.8454V11.3742H606.781C606.89 11.7293 607.013 12.064 607.149 12.3782C607.3 12.6923 607.464 13.0407 607.641 13.4232L611.165 20.7996H611.206L614.485 13.4232C614.799 12.7265 615.038 12.0435 615.202 11.3742H619.546V11.8454C619.286 11.8591 619.068 11.9001 618.89 11.9684C618.713 12.0367 618.583 12.1801 618.501 12.3987C618.433 12.6036 618.405 12.9451 618.419 13.4232L618.849 22.951C618.876 23.3881 618.931 23.716 619.013 23.9345C619.109 24.1531 619.259 24.3033 619.464 24.3853C619.669 24.4536 619.942 24.5014 620.283 24.5287V25H614.444V24.5287C614.881 24.5014 615.181 24.399 615.345 24.2214C615.523 24.0438 615.598 23.6203 615.571 22.951L615.222 14.5706H615.181L611.473 22.869C611.213 23.4428 611.022 23.8935 610.899 24.2214C610.79 24.5356 610.694 24.8497 610.612 25.1639H609.588ZM636.358 21.2094H636.829L636.624 25H626.748V24.5287C626.857 24.4741 627.021 24.3785 627.24 24.2419C627.472 24.1053 627.711 23.9482 627.957 23.7706C628.64 23.2788 629.282 22.7188 629.883 22.0904C630.484 21.4621 631.01 20.7927 631.461 20.0824C631.911 19.3721 632.267 18.6618 632.526 17.9514C632.786 17.2411 632.915 16.565 632.915 15.9229C632.915 15.3082 632.765 14.7892 632.465 14.3657C632.178 13.9422 631.652 13.7305 630.887 13.7305C630.245 13.7305 629.651 13.9081 629.104 14.2632C628.558 14.6184 628.018 15.1716 627.486 15.9229L627.096 15.5951C627.656 14.1745 628.36 13.1158 629.207 12.4191C630.054 11.7225 631.112 11.3742 632.383 11.3742C633.12 11.3742 633.783 11.4971 634.37 11.743C634.958 11.9752 635.422 12.344 635.763 12.8494C636.119 13.3412 636.296 13.9832 636.296 14.7755C636.296 16.1825 635.845 17.5007 634.944 18.7301C634.056 19.9595 632.813 21.1137 631.215 22.1929V22.2339H634.206C634.985 22.2339 635.524 22.1382 635.825 21.947C636.125 21.7558 636.303 21.5099 636.358 21.2094ZM645.079 11.3742C645.789 11.3742 646.486 11.5108 647.169 11.784C647.852 12.0572 648.466 12.4806 649.013 13.0543C649.559 13.6281 649.989 14.352 650.304 15.2263C650.631 16.0869 650.795 17.1114 650.795 18.2998C650.795 19.4745 650.638 20.499 650.324 21.3733C650.01 22.2475 649.58 22.9783 649.033 23.5657C648.487 24.1531 647.872 24.5902 647.189 24.8771C646.506 25.1639 645.796 25.3073 645.058 25.3073C644.348 25.3073 643.651 25.1707 642.968 24.8976C642.285 24.6244 641.67 24.2009 641.124 23.6272C640.578 23.0535 640.14 22.3363 639.813 21.4757C639.498 20.6015 639.341 19.5702 639.341 18.3817C639.341 17.207 639.498 16.1825 639.813 15.3082C640.127 14.434 640.557 13.7032 641.104 13.1158C641.65 12.5284 642.265 12.0913 642.948 11.8044C643.631 11.5176 644.341 11.3742 645.079 11.3742ZM645.14 24.4263C645.536 24.4263 645.898 24.2487 646.226 23.8935C646.554 23.5384 646.813 22.9373 647.005 22.0904C647.21 21.2435 647.312 20.0824 647.312 18.6071C647.312 17.3231 647.223 16.2098 647.046 15.2673C646.882 14.3111 646.629 13.5734 646.287 13.0543C645.946 12.5216 645.516 12.2552 644.997 12.2552C644.614 12.2552 644.252 12.4328 643.911 12.788C643.583 13.1431 643.316 13.7442 643.112 14.5911C642.92 15.438 642.825 16.5991 642.825 18.0744C642.825 19.3584 642.907 20.4785 643.071 21.4347C643.248 22.3773 643.508 23.1149 643.849 23.6477C644.191 24.1667 644.621 24.4263 645.14 24.4263ZM662.11 21.2094H662.582L662.377 25H652.5V24.5287C652.61 24.4741 652.774 24.3785 652.992 24.2419C653.224 24.1053 653.463 23.9482 653.709 23.7706C654.392 23.2788 655.034 22.7188 655.635 22.0904C656.236 21.4621 656.762 20.7927 657.213 20.0824C657.664 19.3721 658.019 18.6618 658.279 17.9514C658.538 17.2411 658.668 16.565 658.668 15.9229C658.668 15.3082 658.518 14.7892 658.217 14.3657C657.93 13.9422 657.404 13.7305 656.639 13.7305C655.997 13.7305 655.403 13.9081 654.857 14.2632C654.31 14.6184 653.771 15.1716 653.238 15.9229L652.849 15.5951C653.409 14.1745 654.112 13.1158 654.959 12.4191C655.806 11.7225 656.865 11.3742 658.135 11.3742C658.873 11.3742 659.535 11.4971 660.123 11.743C660.71 11.9752 661.175 12.344 661.516 12.8494C661.871 13.3412 662.049 13.9832 662.049 14.7755C662.049 16.1825 661.598 17.5007 660.696 18.7301C659.809 19.9595 658.565 21.1137 656.967 22.1929V22.2339H659.959C660.737 22.2339 661.277 22.1382 661.578 21.947C661.878 21.7558 662.056 21.5099 662.11 21.2094ZM673.495 19.7751H674.929V22.3363H674.069C673.686 22.3363 673.495 22.5754 673.495 23.0535C673.495 23.3813 673.495 23.7023 673.495 24.0165C673.508 24.317 673.522 24.6448 673.536 25H670.298C670.326 24.5492 670.346 24.1121 670.36 23.6886C670.374 23.2515 670.387 22.8007 670.401 22.3363H663.926V21.865C664.281 21.5235 664.602 21.1684 664.889 20.7996L671.589 12.4191C671.74 12.2279 671.876 12.0435 671.999 11.8659C672.136 11.6747 672.245 11.5108 672.327 11.3742H673.515L673.495 19.7751ZM670.36 15.4926L666.938 19.7751H670.421V15.4926H670.36Z" fill="black"/>
<path d="M704.209 15.2297C701.349 14.0878 697.994 14.6968 695.707 16.9806C692.619 20.0637 692.619 25.05 695.707 28.1331C697.994 30.4169 701.349 31.0259 704.209 29.884V26.2299C703.637 26.4964 703.027 26.6486 702.379 26.6486C700.091 26.6486 698.261 24.8216 698.261 22.5378C698.261 20.254 700.091 18.427 702.379 18.427C703.027 18.427 703.675 18.5793 704.209 18.8457V15.2297Z" fill="black"/>
<path d="M702.914 11.5678C704.04 10.4387 704.04 8.56975 702.914 7.40166C701.787 6.27251 699.923 6.27251 698.758 7.40166C697.593 8.53081 697.631 10.3998 698.758 11.5678C699.923 12.697 701.787 12.697 702.914 11.5678Z" fill="black"/>
<path d="M723.127 25V24.5287C723.523 24.5014 723.81 24.399 723.987 24.2214C724.165 24.0438 724.254 23.6203 724.254 22.951V13.4232C724.254 12.7538 724.151 12.3304 723.946 12.1528C723.755 11.9615 723.38 11.8591 722.819 11.8454V11.3742H728.659V11.8454C728.263 11.8591 727.976 11.9615 727.799 12.1528C727.621 12.3304 727.532 12.7538 727.532 13.4232V22.951C727.532 23.6203 727.635 24.0438 727.84 24.2214C728.044 24.399 728.42 24.5014 728.966 24.5287V25H723.127ZM743.155 25.1639C742.951 24.9454 742.739 24.7336 742.52 24.5287C742.302 24.3102 741.953 23.9892 741.475 23.5657L733.402 16.1893H733.361V22.951C733.361 23.4154 733.477 23.7911 733.71 24.078C733.955 24.3512 734.372 24.5014 734.959 24.5287V25H731.169V24.5287C731.565 24.5014 731.852 24.3512 732.029 24.078C732.207 23.7911 732.296 23.4154 732.296 22.951V13.4232C732.296 12.7538 732.193 12.3304 731.988 12.1528C731.797 11.9615 731.422 11.8591 730.861 11.8454V11.3742H733.32C733.525 11.6337 733.744 11.8659 733.976 12.0708C734.208 12.2757 734.475 12.5216 734.775 12.8085L742.93 20.1849H742.971V13.4232C742.971 12.9587 742.855 12.5831 742.623 12.2962C742.39 12.0093 741.974 11.8591 741.373 11.8454V11.3742H745.163V11.8454C744.767 11.8591 744.48 12.0093 744.303 12.2962C744.125 12.5831 744.037 12.9587 744.037 13.4232V22.951C744.037 23.3335 744.037 23.7023 744.037 24.0575C744.05 24.399 744.064 24.7678 744.077 25.1639H743.155ZM746.784 11.3742H758.463V14.755H757.992C757.91 14.0174 757.691 13.4163 757.336 12.9519C756.981 12.4874 756.373 12.2552 755.513 12.2552H754.263V22.951C754.263 23.6203 754.365 24.0438 754.57 24.2214C754.775 24.399 755.151 24.5014 755.697 24.5287V25L749.857 25V24.5287C750.254 24.5014 750.54 24.399 750.718 24.2214C750.896 24.0438 750.984 23.6203 750.984 22.951V12.2552H749.714C748.881 12.2552 748.28 12.4874 747.911 12.9519C747.556 13.4163 747.337 14.0174 747.255 14.755H746.784V11.3742ZM760.323 25V24.5287C760.719 24.5014 761.006 24.399 761.183 24.2214C761.361 24.0438 761.449 23.6203 761.449 22.951V13.4232C761.449 12.7538 761.347 12.3304 761.142 12.1528C760.951 11.9615 760.575 11.8591 760.015 11.8454V11.3742L770.076 11.3742V14.2428L769.604 14.2428C769.577 13.6554 769.372 13.1773 768.99 12.8085C768.621 12.4396 768.047 12.2552 767.269 12.2552H765.629C765.343 12.2552 765.117 12.3304 764.953 12.4806C764.803 12.6309 764.728 12.9451 764.728 13.4232V17.4597C764.837 17.3777 764.967 17.3231 765.117 17.2958C765.281 17.2684 765.472 17.2548 765.691 17.2548H767.678C768.088 17.2548 768.43 17.1387 768.703 16.9065C768.976 16.6742 769.12 16.3532 769.133 15.9434H769.604V19.4267H769.133C769.12 18.9213 768.976 18.5798 768.703 18.4022C768.43 18.2246 768.088 18.1359 767.678 18.1359H765.732C765.363 18.1359 765.104 18.1973 764.953 18.3203C764.803 18.4432 764.728 18.6823 764.728 19.0374V22.951C764.728 23.4291 764.83 23.7433 765.035 23.8935C765.254 24.0438 765.67 24.1189 766.285 24.1189H768.232C769.051 24.1189 769.7 23.8731 770.178 23.3813C770.656 22.8895 770.923 22.3022 770.977 21.6192H771.449L771.285 25H760.323ZM785.195 25.3073C784.58 25.3073 784.054 25.2049 783.617 25C783.18 24.8088 782.811 24.5492 782.511 24.2214C782.21 23.8935 781.93 23.5316 781.671 23.1354L778.802 18.6686C778.665 18.4364 778.543 18.2929 778.433 18.2383C778.324 18.1837 778.194 18.1495 778.044 18.1359V17.4187C778.864 17.3641 779.499 17.2001 779.95 16.9269C780.4 16.6537 780.714 16.3191 780.892 15.9229C781.07 15.5131 781.158 15.0897 781.158 14.6526C781.158 13.8193 780.926 13.1978 780.462 12.788C779.997 12.3645 779.465 12.1528 778.864 12.1528C778.413 12.1528 778.092 12.2347 777.901 12.3987C777.723 12.5489 777.634 12.8904 777.634 13.4232V22.951C777.634 23.6203 777.737 24.0438 777.942 24.2214C778.146 24.399 778.522 24.5014 779.068 24.5287V25H773.229V24.5287C773.625 24.5014 773.912 24.399 774.089 24.2214C774.267 24.0438 774.356 23.6203 774.356 22.951V13.4232C774.356 12.7538 774.253 12.3304 774.048 12.1528C773.857 11.9615 773.482 11.8591 772.921 11.8454V11.3742H774.356C775.38 11.3742 776.309 11.3605 777.142 11.3332C777.976 11.2922 778.686 11.2717 779.273 11.2717C780.626 11.2717 781.698 11.4015 782.49 11.661C783.296 11.9069 783.87 12.2552 784.211 12.706C784.567 13.1568 784.744 13.669 784.744 14.2428C784.744 14.7892 784.608 15.2877 784.334 15.7385C784.075 16.1893 783.727 16.5718 783.289 16.886C782.866 17.1865 782.402 17.3982 781.896 17.5212V17.5621L785.297 22.8895C785.694 23.5179 786.056 23.9482 786.383 24.1804C786.711 24.4126 787.005 24.5287 787.264 24.5287V25C786.991 25.0956 786.663 25.1707 786.281 25.2254C785.912 25.28 785.55 25.3073 785.195 25.3073ZM794.872 25.3073C793.437 25.3073 792.167 25.0205 791.061 24.4468C789.954 23.8731 789.087 23.0671 788.458 22.029C787.83 20.9771 787.516 19.7614 787.516 18.3817C787.516 17.248 787.721 16.2371 788.13 15.3492C788.54 14.4477 789.1 13.6759 789.811 13.0338C790.535 12.3918 791.361 11.9069 792.29 11.5791C793.232 11.2376 794.236 11.0668 795.302 11.0668C796.108 11.0668 796.88 11.1419 797.617 11.2922C798.355 11.4425 798.942 11.62 799.379 11.8249V15.0624H798.908C798.635 14.2291 798.307 13.5939 797.925 13.1568C797.542 12.706 797.112 12.3918 796.634 12.2142C796.169 12.0367 795.678 11.9479 795.159 11.9479C792.522 11.9479 791.204 13.8603 791.204 17.6851C791.204 18.9418 791.334 20.0824 791.593 21.1069C791.866 22.1314 792.283 22.9442 792.843 23.5452C793.417 24.1326 794.148 24.4263 795.036 24.4263C795.76 24.4263 796.415 24.2487 797.003 23.8935C797.59 23.5247 798.089 23.0398 798.498 22.4388C798.922 21.8377 799.222 21.1889 799.4 20.4922H799.871L799.707 23.6067C799.257 24.0984 798.621 24.5082 797.802 24.8361C796.982 25.1503 796.005 25.3073 794.872 25.3073ZM808.549 11.0668C809.519 11.0668 810.421 11.2307 811.254 11.5586C812.087 11.8864 812.825 12.3645 813.467 12.9929C814.109 13.6076 814.607 14.352 814.963 15.2263C815.318 16.1005 815.495 17.0772 815.495 18.1563C815.495 19.2355 815.318 20.2122 814.963 21.0864C814.607 21.9607 814.109 22.712 813.467 23.3403C812.838 23.9687 812.101 24.4536 811.254 24.7951C810.407 25.1366 809.499 25.3073 808.529 25.3073C807.573 25.3073 806.671 25.1434 805.824 24.8156C804.991 24.4878 804.253 24.0165 803.611 23.4018C802.969 22.7734 802.471 22.0221 802.115 21.1479C801.76 20.2736 801.583 19.297 801.583 18.2178C801.583 17.1387 801.76 16.162 802.115 15.2877C802.471 14.4135 802.962 13.6622 803.591 13.0338C804.233 12.4055 804.977 11.9206 805.824 11.5791C806.671 11.2376 807.579 11.0668 808.549 11.0668ZM808.959 24.4263C809.669 24.4263 810.229 24.1941 810.639 23.7296C811.049 23.2515 811.343 22.5958 811.52 21.7626C811.712 20.9293 811.807 19.9595 811.807 18.853C811.807 16.6264 811.466 14.9189 810.783 13.7305C810.113 12.5421 809.225 11.9479 808.119 11.9479C807.422 11.9479 806.862 12.1801 806.439 12.6445C806.029 13.109 805.728 13.7647 805.537 14.6116C805.36 15.4448 805.271 16.4147 805.271 17.5212C805.271 19.7477 805.606 21.4552 806.275 22.6437C806.958 23.8321 807.853 24.4263 808.959 24.4263ZM824.981 25.1639C824.871 24.8497 824.735 24.5287 824.571 24.2009C824.421 23.8594 824.216 23.4154 823.956 22.869L820.268 15.1648H820.227L819.858 22.951C819.844 23.4154 819.954 23.7911 820.186 24.078C820.418 24.3512 820.842 24.5014 821.456 24.5287V25L817.666 25V24.5287C818.062 24.5014 818.342 24.3512 818.506 24.078C818.683 23.7911 818.779 23.4154 818.793 22.951L819.223 13.4232C819.25 12.9451 819.216 12.6036 819.12 12.3987C819.039 12.1938 818.888 12.064 818.67 12.0093C818.451 11.941 818.157 11.8864 817.789 11.8454V11.3742H822.173C822.283 11.7293 822.406 12.064 822.542 12.3782C822.693 12.6923 822.856 13.0407 823.034 13.4232L826.558 20.7996H826.599L829.878 13.4232C830.192 12.7265 830.431 12.0435 830.595 11.3742H834.939V11.8454C834.679 11.8591 834.461 11.9001 834.283 11.9684C834.105 12.0367 833.976 12.1801 833.894 12.3987C833.825 12.6036 833.798 12.9451 833.812 13.4232L834.242 22.951C834.269 23.3881 834.324 23.716 834.406 23.9345C834.502 24.1531 834.652 24.3033 834.857 24.3853C835.062 24.4536 835.335 24.5014 835.676 24.5287V25H829.837V24.5287C830.274 24.5014 830.574 24.399 830.738 24.2214C830.916 24.0438 830.991 23.6203 830.964 22.951L830.615 14.5706H830.574L826.866 22.869C826.606 23.4428 826.415 23.8935 826.292 24.2214C826.183 24.5356 826.087 24.8497 826.005 25.1639H824.981ZM844.65 25.1639C844.541 24.8497 844.404 24.5287 844.24 24.2009C844.09 23.8594 843.885 23.4154 843.626 22.869L839.937 15.1648H839.897L839.528 22.951C839.514 23.4154 839.623 23.7911 839.856 24.078C840.088 24.3512 840.511 24.5014 841.126 24.5287V25H837.335V24.5287C837.731 24.5014 838.011 24.3512 838.175 24.078C838.353 23.7911 838.449 23.4154 838.462 22.951L838.892 13.4232C838.92 12.9451 838.886 12.6036 838.79 12.3987C838.708 12.1938 838.558 12.064 838.339 12.0093C838.121 11.941 837.827 11.8864 837.458 11.8454V11.3742H841.843C841.952 11.7293 842.075 12.064 842.212 12.3782C842.362 12.6923 842.526 13.0407 842.704 13.4232L846.228 20.7996H846.269L849.547 13.4232C849.861 12.7265 850.101 12.0435 850.264 11.3742H854.608V11.8454C854.349 11.8591 854.13 11.9001 853.953 11.9684C853.775 12.0367 853.645 12.1801 853.563 12.3987C853.495 12.6036 853.468 12.9451 853.481 13.4232L853.912 22.951C853.939 23.3881 853.994 23.716 854.076 23.9345C854.171 24.1531 854.321 24.3033 854.526 24.3853C854.731 24.4536 855.004 24.5014 855.346 24.5287V25H849.506V24.5287C849.943 24.5014 850.244 24.399 850.408 24.2214C850.585 24.0438 850.661 23.6203 850.633 22.951L850.285 14.5706H850.244L846.535 22.869C846.276 23.4428 846.084 23.8935 845.962 24.2214C845.852 24.5356 845.757 24.8497 845.675 25.1639H844.65ZM871.42 21.2094H871.891L871.687 25H861.81V24.5287C861.92 24.4741 862.084 24.3785 862.302 24.2419C862.534 24.1053 862.773 23.9482 863.019 23.7706C863.702 23.2788 864.344 22.7188 864.945 22.0904C865.546 21.4621 866.072 20.7927 866.523 20.0824C866.974 19.3721 867.329 18.6618 867.589 17.9514C867.848 17.2411 867.978 16.565 867.978 15.9229C867.978 15.3082 867.828 14.7892 867.527 14.3657C867.24 13.9422 866.714 13.7305 865.949 13.7305C865.307 13.7305 864.713 13.9081 864.167 14.2632C863.62 14.6184 863.081 15.1716 862.548 15.9229L862.159 15.5951C862.719 14.1745 863.422 13.1158 864.269 12.4191C865.116 11.7225 866.175 11.3742 867.445 11.3742C868.183 11.3742 868.845 11.4971 869.433 11.743C870.02 11.9752 870.484 12.344 870.826 12.8494C871.181 13.3412 871.359 13.9832 871.359 14.7755C871.359 16.1825 870.908 17.5007 870.006 18.7301C869.118 19.9595 867.875 21.1137 866.277 22.1929V22.2339H869.269C870.047 22.2339 870.587 22.1382 870.887 21.947C871.188 21.7558 871.366 21.5099 871.42 21.2094ZM880.141 11.3742C880.851 11.3742 881.548 11.5108 882.231 11.784C882.914 12.0572 883.529 12.4806 884.075 13.0543C884.622 13.6281 885.052 14.352 885.366 15.2263C885.694 16.0869 885.858 17.1114 885.858 18.2998C885.858 19.4745 885.701 20.499 885.387 21.3733C885.072 22.2475 884.642 22.9783 884.096 23.5657C883.549 24.1531 882.935 24.5902 882.252 24.8771C881.569 25.1639 880.858 25.3073 880.121 25.3073C879.41 25.3073 878.714 25.1707 878.031 24.8976C877.348 24.6244 876.733 24.2009 876.187 23.6272C875.64 23.0535 875.203 22.3363 874.875 21.4757C874.561 20.6015 874.404 19.5702 874.404 18.3817C874.404 17.207 874.561 16.1825 874.875 15.3082C875.189 14.434 875.62 13.7032 876.166 13.1158C876.712 12.5284 877.327 12.0913 878.01 11.8044C878.693 11.5176 879.403 11.3742 880.141 11.3742ZM880.203 24.4263C880.599 24.4263 880.961 24.2487 881.289 23.8935C881.616 23.5384 881.876 22.9373 882.067 22.0904C882.272 21.2435 882.374 20.0824 882.374 18.6071C882.374 17.3231 882.286 16.2098 882.108 15.2673C881.944 14.3111 881.691 13.5734 881.35 13.0543C881.008 12.5216 880.578 12.2552 880.059 12.2552C879.677 12.2552 879.315 12.4328 878.973 12.788C878.645 13.1431 878.379 13.7442 878.174 14.5911C877.983 15.438 877.887 16.5991 877.887 18.0744C877.887 19.3584 877.969 20.4785 878.133 21.4347C878.311 22.3773 878.57 23.1149 878.912 23.6477C879.253 24.1667 879.683 24.4263 880.203 24.4263ZM897.173 21.2094H897.644L897.439 25H887.563V24.5287C887.672 24.4741 887.836 24.3785 888.055 24.2419C888.287 24.1053 888.526 23.9482 888.772 23.7706C889.455 23.2788 890.097 22.7188 890.698 22.0904C891.299 21.4621 891.825 20.7927 892.276 20.0824C892.726 19.3721 893.082 18.6618 893.341 17.9514C893.601 17.2411 893.73 16.565 893.73 15.9229C893.73 15.3082 893.58 14.7892 893.28 14.3657C892.993 13.9422 892.467 13.7305 891.702 13.7305C891.06 13.7305 890.466 13.9081 889.919 14.2632C889.373 14.6184 888.833 15.1716 888.301 15.9229L887.911 15.5951C888.471 14.1745 889.175 13.1158 890.022 12.4191C890.869 11.7225 891.927 11.3742 893.198 11.3742C893.935 11.3742 894.598 11.4971 895.185 11.743C895.773 11.9752 896.237 12.344 896.579 12.8494C896.934 13.3412 897.111 13.9832 897.111 14.7755C897.111 16.1825 896.66 17.5007 895.759 18.7301C894.871 19.9595 893.628 21.1137 892.03 22.1929V22.2339H895.021C895.8 22.2339 896.339 22.1382 896.64 21.947C896.941 21.7558 897.118 21.5099 897.173 21.2094ZM908.557 19.7751H909.992V22.3363H909.131C908.749 22.3363 908.557 22.5754 908.557 23.0535C908.557 23.3813 908.557 23.7023 908.557 24.0165C908.571 24.317 908.585 24.6448 908.598 25H905.361C905.388 24.5492 905.409 24.1121 905.422 23.6886C905.436 23.2515 905.45 22.8007 905.463 22.3363H898.989V21.865C899.344 21.5235 899.665 21.1684 899.952 20.7996L906.652 12.4191C906.802 12.2279 906.939 12.0435 907.062 11.8659C907.198 11.6747 907.307 11.5108 907.389 11.3742H908.578L908.557 19.7751ZM905.422 15.4926L902.001 19.7751H905.484V15.4926H905.422Z" fill="black"/>
<path d="M939.271 15.2297C936.412 14.0878 933.057 14.6968 930.769 16.9806C927.681 20.0637 927.681 25.05 930.769 28.1331C933.057 30.4169 936.412 31.0259 939.271 29.884V26.2299C938.7 26.4964 938.09 26.6486 937.441 26.6486C935.154 26.6486 933.324 24.8216 933.324 22.5378C933.324 20.254 935.154 18.427 937.441 18.427C938.09 18.427 938.738 18.5793 939.271 18.8457V15.2297Z" fill="black"/>
<path d="M937.976 11.5678C939.102 10.4387 939.102 8.56975 937.976 7.40166C936.85 6.27251 934.985 6.27251 933.82 7.40166C932.655 8.53081 932.694 10.3998 933.82 11.5678C934.985 12.697 936.85 12.697 937.976 11.5678Z" fill="black"/>
<path d="M958.181 25V24.5287C958.578 24.5014 958.864 24.399 959.042 24.2214C959.22 24.0438 959.308 23.6203 959.308 22.951V13.4232C959.308 12.7538 959.206 12.3304 959.001 12.1528C958.81 11.9615 958.434 11.8591 957.874 11.8454V11.3742H963.714V11.8454C963.318 11.8591 963.031 11.9615 962.853 12.1528C962.676 12.3304 962.587 12.7538 962.587 13.4232V22.951C962.587 23.6203 962.689 24.0438 962.894 24.2214C963.099 24.399 963.475 24.5014 964.021 24.5287V25H958.181ZM978.21 25.1639C978.005 24.9454 977.794 24.7336 977.575 24.5287C977.356 24.3102 977.008 23.9892 976.53 23.5657L968.457 16.1893H968.416V22.951C968.416 23.4154 968.532 23.7911 968.764 24.078C969.01 24.3512 969.427 24.5014 970.014 24.5287V25H966.223V24.5287C966.62 24.5014 966.906 24.3512 967.084 24.078C967.262 23.7911 967.35 23.4154 967.35 22.951V13.4232C967.35 12.7538 967.248 12.3304 967.043 12.1528C966.852 11.9615 966.476 11.8591 965.916 11.8454V11.3742H968.375C968.58 11.6337 968.798 11.8659 969.031 12.0708C969.263 12.2757 969.529 12.5216 969.83 12.8085L977.985 20.1849H978.026V13.4232C978.026 12.9587 977.91 12.5831 977.677 12.2962C977.445 12.0093 977.029 11.8591 976.428 11.8454V11.3742H980.218V11.8454C979.822 11.8591 979.535 12.0093 979.358 12.2962C979.18 12.5831 979.091 12.9587 979.091 13.4232V22.951C979.091 23.3335 979.091 23.7023 979.091 24.0575C979.105 24.399 979.119 24.7678 979.132 25.1639H978.21ZM981.839 11.3742H993.518V14.755H993.047C992.965 14.0174 992.746 13.4163 992.391 12.9519C992.036 12.4874 991.428 12.2552 990.567 12.2552H989.317V22.951C989.317 23.6203 989.42 24.0438 989.625 24.2214C989.83 24.399 990.205 24.5014 990.752 24.5287V25L984.912 25V24.5287C985.308 24.5014 985.595 24.399 985.773 24.2214C985.95 24.0438 986.039 23.6203 986.039 22.951V12.2552H984.769C983.935 12.2552 983.334 12.4874 982.966 12.9519C982.61 13.4163 982.392 14.0174 982.31 14.755H981.839V11.3742ZM995.377 25V24.5287C995.773 24.5014 996.06 24.399 996.238 24.2214C996.415 24.0438 996.504 23.6203 996.504 22.951V13.4232C996.504 12.7538 996.402 12.3304 996.197 12.1528C996.006 11.9615 995.63 11.8591 995.07 11.8454V11.3742L1005.13 11.3742V14.2428L1004.66 14.2428C1004.63 13.6554 1004.43 13.1773 1004.04 12.8085C1003.68 12.4396 1003.1 12.2552 1002.32 12.2552H1000.68C1000.4 12.2552 1000.17 12.3304 1000.01 12.4806C999.858 12.6309 999.783 12.9451 999.783 13.4232V17.4597C999.892 17.3777 1000.02 17.3231 1000.17 17.2958C1000.34 17.2684 1000.53 17.2548 1000.75 17.2548H1002.73C1003.14 17.2548 1003.48 17.1387 1003.76 16.9065C1004.03 16.6742 1004.17 16.3532 1004.19 15.9434H1004.66V19.4267H1004.19C1004.17 18.9213 1004.03 18.5798 1003.76 18.4022C1003.48 18.2246 1003.14 18.1359 1002.73 18.1359H1000.79C1000.42 18.1359 1000.16 18.1973 1000.01 18.3203C999.858 18.4432 999.783 18.6823 999.783 19.0374V22.951C999.783 23.4291 999.885 23.7433 1000.09 23.8935C1000.31 24.0438 1000.73 24.1189 1001.34 24.1189H1003.29C1004.11 24.1189 1004.75 23.8731 1005.23 23.3813C1005.71 22.8895 1005.98 22.3022 1006.03 21.6192H1006.5L1006.34 25H995.377ZM1020.25 25.3073C1019.63 25.3073 1019.11 25.2049 1018.67 25C1018.23 24.8088 1017.87 24.5492 1017.57 24.2214C1017.26 23.8935 1016.98 23.5316 1016.73 23.1354L1013.86 18.6686C1013.72 18.4364 1013.6 18.2929 1013.49 18.2383C1013.38 18.1837 1013.25 18.1495 1013.1 18.1359V17.4187C1013.92 17.3641 1014.55 17.2001 1015 16.9269C1015.46 16.6537 1015.77 16.3191 1015.95 15.9229C1016.12 15.5131 1016.21 15.0897 1016.21 14.6526C1016.21 13.8193 1015.98 13.1978 1015.52 12.788C1015.05 12.3645 1014.52 12.1528 1013.92 12.1528C1013.47 12.1528 1013.15 12.2347 1012.96 12.3987C1012.78 12.5489 1012.69 12.8904 1012.69 13.4232V22.951C1012.69 23.6203 1012.79 24.0438 1013 24.2214C1013.2 24.399 1013.58 24.5014 1014.12 24.5287V25H1008.28V24.5287C1008.68 24.5014 1008.97 24.399 1009.14 24.2214C1009.32 24.0438 1009.41 23.6203 1009.41 22.951V13.4232C1009.41 12.7538 1009.31 12.3304 1009.1 12.1528C1008.91 11.9615 1008.54 11.8591 1007.98 11.8454V11.3742H1009.41C1010.43 11.3742 1011.36 11.3605 1012.2 11.3332C1013.03 11.2922 1013.74 11.2717 1014.33 11.2717C1015.68 11.2717 1016.75 11.4015 1017.54 11.661C1018.35 11.9069 1018.92 12.2552 1019.27 12.706C1019.62 13.1568 1019.8 13.669 1019.8 14.2428C1019.8 14.7892 1019.66 15.2877 1019.39 15.7385C1019.13 16.1893 1018.78 16.5718 1018.34 16.886C1017.92 17.1865 1017.46 17.3982 1016.95 17.5212V17.5621L1020.35 22.8895C1020.75 23.5179 1021.11 23.9482 1021.44 24.1804C1021.77 24.4126 1022.06 24.5287 1022.32 24.5287V25C1022.05 25.0956 1021.72 25.1707 1021.34 25.2254C1020.97 25.28 1020.6 25.3073 1020.25 25.3073ZM1029.93 25.3073C1028.49 25.3073 1027.22 25.0205 1026.12 24.4468C1025.01 23.8731 1024.14 23.0671 1023.51 22.029C1022.88 20.9771 1022.57 19.7614 1022.57 18.3817C1022.57 17.248 1022.78 16.2371 1023.19 15.3492C1023.59 14.4477 1024.16 13.6759 1024.87 13.0338C1025.59 12.3918 1026.42 11.9069 1027.34 11.5791C1028.29 11.2376 1029.29 11.0668 1030.36 11.0668C1031.16 11.0668 1031.93 11.1419 1032.67 11.2922C1033.41 11.4425 1034 11.62 1034.43 11.8249V15.0624H1033.96C1033.69 14.2291 1033.36 13.5939 1032.98 13.1568C1032.6 12.706 1032.17 12.3918 1031.69 12.2142C1031.22 12.0367 1030.73 11.9479 1030.21 11.9479C1027.58 11.9479 1026.26 13.8603 1026.26 17.6851C1026.26 18.9418 1026.39 20.0824 1026.65 21.1069C1026.92 22.1314 1027.34 22.9442 1027.9 23.5452C1028.47 24.1326 1029.2 24.4263 1030.09 24.4263C1030.81 24.4263 1031.47 24.2487 1032.06 23.8935C1032.64 23.5247 1033.14 23.0398 1033.55 22.4388C1033.98 21.8377 1034.28 21.1889 1034.45 20.4922H1034.93L1034.76 23.6067C1034.31 24.0984 1033.68 24.5082 1032.86 24.8361C1032.04 25.1503 1031.06 25.3073 1029.93 25.3073ZM1043.6 11.0668C1044.57 11.0668 1045.48 11.2307 1046.31 11.5586C1047.14 11.8864 1047.88 12.3645 1048.52 12.9929C1049.16 13.6076 1049.66 14.352 1050.02 15.2263C1050.37 16.1005 1050.55 17.0772 1050.55 18.1563C1050.55 19.2355 1050.37 20.2122 1050.02 21.0864C1049.66 21.9607 1049.16 22.712 1048.52 23.3403C1047.89 23.9687 1047.16 24.4536 1046.31 24.7951C1045.46 25.1366 1044.55 25.3073 1043.58 25.3073C1042.63 25.3073 1041.73 25.1434 1040.88 24.8156C1040.05 24.4878 1039.31 24.0165 1038.67 23.4018C1038.02 22.7734 1037.53 22.0221 1037.17 21.1479C1036.81 20.2736 1036.64 19.297 1036.64 18.2178C1036.64 17.1387 1036.81 16.162 1037.17 15.2877C1037.53 14.4135 1038.02 13.6622 1038.65 13.0338C1039.29 12.4055 1040.03 11.9206 1040.88 11.5791C1041.73 11.2376 1042.63 11.0668 1043.6 11.0668ZM1044.01 24.4263C1044.72 24.4263 1045.28 24.1941 1045.69 23.7296C1046.1 23.2515 1046.4 22.5958 1046.57 21.7626C1046.77 20.9293 1046.86 19.9595 1046.86 18.853C1046.86 16.6264 1046.52 14.9189 1045.84 13.7305C1045.17 12.5421 1044.28 11.9479 1043.17 11.9479C1042.48 11.9479 1041.92 12.1801 1041.49 12.6445C1041.08 13.109 1040.78 13.7647 1040.59 14.6116C1040.41 15.4448 1040.33 16.4147 1040.33 17.5212C1040.33 19.7477 1040.66 21.4552 1041.33 22.6437C1042.01 23.8321 1042.91 24.4263 1044.01 24.4263ZM1060.04 25.1639C1059.93 24.8497 1059.79 24.5287 1059.63 24.2009C1059.48 23.8594 1059.27 23.4154 1059.01 22.869L1055.32 15.1648H1055.28L1054.91 22.951C1054.9 23.4154 1055.01 23.7911 1055.24 24.078C1055.47 24.3512 1055.9 24.5014 1056.51 24.5287V25L1052.72 25V24.5287C1053.12 24.5014 1053.4 24.3512 1053.56 24.078C1053.74 23.7911 1053.83 23.4154 1053.85 22.951L1054.28 13.4232C1054.3 12.9451 1054.27 12.6036 1054.18 12.3987C1054.09 12.1938 1053.94 12.064 1053.72 12.0093C1053.51 11.941 1053.21 11.8864 1052.84 11.8454V11.3742H1057.23C1057.34 11.7293 1057.46 12.064 1057.6 12.3782C1057.75 12.6923 1057.91 13.0407 1058.09 13.4232L1061.61 20.7996H1061.65L1064.93 13.4232C1065.25 12.7265 1065.49 12.0435 1065.65 11.3742H1069.99V11.8454C1069.73 11.8591 1069.52 11.9001 1069.34 11.9684C1069.16 12.0367 1069.03 12.1801 1068.95 12.3987C1068.88 12.6036 1068.85 12.9451 1068.87 13.4232L1069.3 22.951C1069.32 23.3881 1069.38 23.716 1069.46 23.9345C1069.56 24.1531 1069.71 24.3033 1069.91 24.3853C1070.12 24.4536 1070.39 24.5014 1070.73 24.5287V25H1064.89V24.5287C1065.33 24.5014 1065.63 24.399 1065.79 24.2214C1065.97 24.0438 1066.05 23.6203 1066.02 22.951L1065.67 14.5706H1065.63L1061.92 22.869C1061.66 23.4428 1061.47 23.8935 1061.35 24.2214C1061.24 24.5356 1061.14 24.8497 1061.06 25.1639H1060.04ZM1079.7 25.1639C1079.6 24.8497 1079.46 24.5287 1079.3 24.2009C1079.14 23.8594 1078.94 23.4154 1078.68 22.869L1074.99 15.1648H1074.95L1074.58 22.951C1074.57 23.4154 1074.68 23.7911 1074.91 24.078C1075.14 24.3512 1075.57 24.5014 1076.18 24.5287V25H1072.39V24.5287C1072.79 24.5014 1073.07 24.3512 1073.23 24.078C1073.41 23.7911 1073.5 23.4154 1073.52 22.951L1073.95 13.4232C1073.97 12.9451 1073.94 12.6036 1073.84 12.3987C1073.76 12.1938 1073.61 12.064 1073.39 12.0093C1073.18 11.941 1072.88 11.8864 1072.51 11.8454V11.3742H1076.9C1077.01 11.7293 1077.13 12.064 1077.27 12.3782C1077.42 12.6923 1077.58 13.0407 1077.76 13.4232L1081.28 20.7996H1081.32L1084.6 13.4232C1084.92 12.7265 1085.16 12.0435 1085.32 11.3742H1089.66V11.8454C1089.4 11.8591 1089.18 11.9001 1089.01 11.9684C1088.83 12.0367 1088.7 12.1801 1088.62 12.3987C1088.55 12.6036 1088.52 12.9451 1088.54 13.4232L1088.97 22.951C1088.99 23.3881 1089.05 23.716 1089.13 23.9345C1089.23 24.1531 1089.38 24.3033 1089.58 24.3853C1089.79 24.4536 1090.06 24.5014 1090.4 24.5287V25H1084.56V24.5287C1085 24.5014 1085.3 24.399 1085.46 24.2214C1085.64 24.0438 1085.72 23.6203 1085.69 22.951L1085.34 14.5706H1085.3L1081.59 22.869C1081.33 23.4428 1081.14 23.8935 1081.02 24.2214C1080.91 24.5356 1080.81 24.8497 1080.73 25.1639H1079.7ZM1106.47 21.2094H1106.95L1106.74 25H1096.87V24.5287C1096.97 24.4741 1097.14 24.3785 1097.36 24.2419C1097.59 24.1053 1097.83 23.9482 1098.07 23.7706C1098.76 23.2788 1099.4 22.7188 1100 22.0904C1100.6 21.4621 1101.13 20.7927 1101.58 20.0824C1102.03 19.3721 1102.38 18.6618 1102.64 17.9514C1102.9 17.2411 1103.03 16.565 1103.03 15.9229C1103.03 15.3082 1102.88 14.7892 1102.58 14.3657C1102.29 13.9422 1101.77 13.7305 1101 13.7305C1100.36 13.7305 1099.77 13.9081 1099.22 14.2632C1098.68 14.6184 1098.14 15.1716 1097.6 15.9229L1097.21 15.5951C1097.77 14.1745 1098.48 13.1158 1099.32 12.4191C1100.17 11.7225 1101.23 11.3742 1102.5 11.3742C1103.24 11.3742 1103.9 11.4971 1104.49 11.743C1105.07 11.9752 1105.54 12.344 1105.88 12.8494C1106.24 13.3412 1106.41 13.9832 1106.41 14.7755C1106.41 16.1825 1105.96 17.5007 1105.06 18.7301C1104.17 19.9595 1102.93 21.1137 1101.33 22.1929V22.2339H1104.32C1105.1 22.2339 1105.64 22.1382 1105.94 21.947C1106.24 21.7558 1106.42 21.5099 1106.47 21.2094ZM1115.2 11.3742C1115.91 11.3742 1116.6 11.5108 1117.29 11.784C1117.97 12.0572 1118.58 12.4806 1119.13 13.0543C1119.68 13.6281 1120.11 14.352 1120.42 15.2263C1120.75 16.0869 1120.91 17.1114 1120.91 18.2998C1120.91 19.4745 1120.76 20.499 1120.44 21.3733C1120.13 22.2475 1119.7 22.9783 1119.15 23.5657C1118.6 24.1531 1117.99 24.5902 1117.31 24.8771C1116.62 25.1639 1115.91 25.3073 1115.18 25.3073C1114.46 25.3073 1113.77 25.1707 1113.09 24.8976C1112.4 24.6244 1111.79 24.2009 1111.24 23.6272C1110.69 23.0535 1110.26 22.3363 1109.93 21.4757C1109.62 20.6015 1109.46 19.5702 1109.46 18.3817C1109.46 17.207 1109.62 16.1825 1109.93 15.3082C1110.24 14.434 1110.67 13.7032 1111.22 13.1158C1111.77 12.5284 1112.38 12.0913 1113.06 11.8044C1113.75 11.5176 1114.46 11.3742 1115.2 11.3742ZM1115.26 24.4263C1115.65 24.4263 1116.02 24.2487 1116.34 23.8935C1116.67 23.5384 1116.93 22.9373 1117.12 22.0904C1117.33 21.2435 1117.43 20.0824 1117.43 18.6071C1117.43 17.3231 1117.34 16.2098 1117.16 15.2673C1117 14.3111 1116.75 13.5734 1116.4 13.0543C1116.06 12.5216 1115.63 12.2552 1115.11 12.2552C1114.73 12.2552 1114.37 12.4328 1114.03 12.788C1113.7 13.1431 1113.43 13.7442 1113.23 14.5911C1113.04 15.438 1112.94 16.5991 1112.94 18.0744C1112.94 19.3584 1113.02 20.4785 1113.19 21.4347C1113.37 22.3773 1113.62 23.1149 1113.97 23.6477C1114.31 24.1667 1114.74 24.4263 1115.26 24.4263ZM1132.23 21.2094H1132.7L1132.49 25H1122.62V24.5287C1122.73 24.4741 1122.89 24.3785 1123.11 24.2419C1123.34 24.1053 1123.58 23.9482 1123.83 23.7706C1124.51 23.2788 1125.15 22.7188 1125.75 22.0904C1126.35 21.4621 1126.88 20.7927 1127.33 20.0824C1127.78 19.3721 1128.14 18.6618 1128.4 17.9514C1128.66 17.2411 1128.79 16.565 1128.79 15.9229C1128.79 15.3082 1128.63 14.7892 1128.33 14.3657C1128.05 13.9422 1127.52 13.7305 1126.76 13.7305C1126.11 13.7305 1125.52 13.9081 1124.97 14.2632C1124.43 14.6184 1123.89 15.1716 1123.36 15.9229L1122.97 15.5951C1123.53 14.1745 1124.23 13.1158 1125.08 12.4191C1125.92 11.7225 1126.98 11.3742 1128.25 11.3742C1128.99 11.3742 1129.65 11.4971 1130.24 11.743C1130.83 11.9752 1131.29 12.344 1131.63 12.8494C1131.99 13.3412 1132.17 13.9832 1132.17 14.7755C1132.17 16.1825 1131.72 17.5007 1130.81 18.7301C1129.93 19.9595 1128.68 21.1137 1127.08 22.1929V22.2339H1130.08C1130.85 22.2339 1131.39 22.1382 1131.69 21.947C1132 21.7558 1132.17 21.5099 1132.23 21.2094ZM1143.61 19.7751H1145.05V22.3363H1144.19C1143.8 22.3363 1143.61 22.5754 1143.61 23.0535C1143.61 23.3813 1143.61 23.7023 1143.61 24.0165C1143.63 24.317 1143.64 24.6448 1143.65 25H1140.42C1140.44 24.5492 1140.46 24.1121 1140.48 23.6886C1140.49 23.2515 1140.5 22.8007 1140.52 22.3363H1134.04V21.865C1134.4 21.5235 1134.72 21.1684 1135.01 20.7996L1141.71 12.4191C1141.86 12.2279 1141.99 12.0435 1142.12 11.8659C1142.25 11.6747 1142.36 11.5108 1142.44 11.3742H1143.63L1143.61 19.7751ZM1140.48 15.4926L1137.06 19.7751H1140.54V15.4926H1140.48Z" fill="black"/>
<defs>
<linearGradient id="paint0_linear_599_2551" x1="0" y1="18.5" x2="1162.03" y2="18.5" gradientUnits="userSpaceOnUse">
<stop stop-color="white"/>
<stop offset="0.325" stop-color="#D4D4D4"/>
<stop offset="0.685" stop-color="white"/>
<stop offset="0.98" stop-color="#D4D4D4"/>
</linearGradient>
</defs>
</svg>
