<svg width="3115" height="114" viewBox="0 0 3115 114" fill="none" xmlns="http://www.w3.org/2000/svg">
<rect width="3115" height="114" fill="url(#paint0_linear_562_1670)"/>
<path d="M73.3408 67.05H74.9508L74.2508 80H40.5108V78.39C40.8841 78.2033 41.4441 77.8767 42.1908 77.41C42.9841 76.9433 43.8008 76.4067 44.6408 75.8C46.9741 74.12 49.1674 72.2067 51.2208 70.06C53.2741 67.9133 55.0708 65.6267 56.6108 63.2C58.1508 60.7733 59.3641 58.3467 60.2508 55.92C61.1374 53.4933 61.5808 51.1833 61.5808 48.99C61.5808 46.89 61.0674 45.1167 60.0408 43.67C59.0608 42.2233 57.2641 41.5 54.6508 41.5C52.4574 41.5 50.4274 42.1067 48.5608 43.32C46.6941 44.5333 44.8508 46.4233 43.0308 48.99L41.7008 47.87C43.6141 43.0167 46.0174 39.4 48.9108 37.02C51.8041 34.64 55.4208 33.45 59.7608 33.45C62.2808 33.45 64.5441 33.87 66.5508 34.71C68.5574 35.5033 70.1441 36.7633 71.3108 38.49C72.5241 40.17 73.1308 42.3633 73.1308 45.07C73.1308 49.8767 71.5908 54.38 68.5108 58.58C65.4774 62.78 61.2308 66.7233 55.7708 70.41V70.55H65.9908C68.6508 70.55 70.4941 70.2233 71.5208 69.57C72.5474 68.9167 73.1541 68.0767 73.3408 67.05ZM103.134 33.45C105.561 33.45 107.941 33.9167 110.274 34.85C112.607 35.7833 114.707 37.23 116.574 39.19C118.441 41.15 119.911 43.6233 120.984 46.61C122.104 49.55 122.664 53.05 122.664 57.11C122.664 61.1233 122.127 64.6233 121.054 67.61C119.981 70.5967 118.511 73.0933 116.644 75.1C114.777 77.1067 112.677 78.6 110.344 79.58C108.011 80.56 105.584 81.05 103.064 81.05C100.637 81.05 98.2573 80.5833 95.924 79.65C93.5906 78.7167 91.4906 77.27 89.624 75.31C87.7573 73.35 86.264 70.9 85.144 67.96C84.0706 64.9733 83.534 61.45 83.534 57.39C83.534 53.3767 84.0706 49.8767 85.144 46.89C86.2173 43.9033 87.6873 41.4067 89.554 39.4C91.4206 37.3933 93.5206 35.9 95.854 34.92C98.1873 33.94 100.614 33.45 103.134 33.45ZM103.344 78.04C104.697 78.04 105.934 77.4333 107.054 76.22C108.174 75.0067 109.061 72.9533 109.714 70.06C110.414 67.1667 110.764 63.2 110.764 58.16C110.764 53.7733 110.461 49.97 109.854 46.75C109.294 43.4833 108.431 40.9633 107.264 39.19C106.097 37.37 104.627 36.46 102.854 36.46C101.547 36.46 100.311 37.0667 99.144 38.28C98.024 39.4933 97.114 41.5467 96.414 44.44C95.7606 47.3333 95.434 51.3 95.434 56.34C95.434 60.7267 95.714 64.5533 96.274 67.82C96.8806 71.04 97.7673 73.56 98.934 75.38C100.101 77.1533 101.571 78.04 103.344 78.04ZM170.176 58.86L148.476 60.75L147.986 55.08L169.686 53.19L170.176 58.86ZM224.347 67.05H225.957L225.257 80H191.517V78.39C191.89 78.2033 192.45 77.8767 193.197 77.41C193.99 76.9433 194.807 76.4067 195.647 75.8C197.98 74.12 200.173 72.2067 202.227 70.06C204.28 67.9133 206.077 65.6267 207.617 63.2C209.157 60.7733 210.37 58.3467 211.257 55.92C212.143 53.4933 212.587 51.1833 212.587 48.99C212.587 46.89 212.073 45.1167 211.047 43.67C210.067 42.2233 208.27 41.5 205.657 41.5C203.463 41.5 201.433 42.1067 199.567 43.32C197.7 44.5333 195.857 46.4233 194.037 48.99L192.707 47.87C194.62 43.0167 197.023 39.4 199.917 37.02C202.81 34.64 206.427 33.45 210.767 33.45C213.287 33.45 215.55 33.87 217.557 34.71C219.563 35.5033 221.15 36.7633 222.317 38.49C223.53 40.17 224.137 42.3633 224.137 45.07C224.137 49.8767 222.597 54.38 219.517 58.58C216.483 62.78 212.237 66.7233 206.777 70.41V70.55H216.997C219.657 70.55 221.5 70.2233 222.527 69.57C223.553 68.9167 224.16 68.0767 224.347 67.05ZM252.95 72.3C252.95 74.0267 253.09 75.3333 253.37 76.22C253.697 77.06 254.35 77.62 255.33 77.9C256.357 78.18 257.897 78.3433 259.95 78.39V80H234.05V78.39C236.15 78.3433 237.69 78.18 238.67 77.9C239.697 77.62 240.35 77.06 240.63 76.22C240.91 75.3333 241.05 74.0267 241.05 72.3V41.85L234.61 45.84L233.14 43.6L249.38 33.45H253.44C253.253 34.3367 253.113 35.2233 253.02 36.11C252.973 36.9967 252.95 37.8833 252.95 38.77V72.3ZM284.969 80V78.39C286.323 78.2967 287.303 77.9467 287.909 77.34C288.516 76.7333 288.819 75.2867 288.819 73V40.45C288.819 38.1633 288.469 36.7167 287.769 36.11C287.116 35.4567 285.833 35.1067 283.919 35.06V33.45H303.869V35.06C302.516 35.1067 301.536 35.4567 300.929 36.11C300.323 36.7167 300.019 38.1633 300.019 40.45V52.84C300.393 52.56 300.836 52.3733 301.349 52.28C301.909 52.1867 302.563 52.14 303.309 52.14H316.539C317.799 52.14 318.686 51.93 319.199 51.51C319.713 51.09 319.969 50.25 319.969 48.99V40.45C319.969 38.1633 319.619 36.7167 318.919 36.11C318.266 35.4567 316.983 35.1067 315.069 35.06V33.45H335.019V35.06C333.666 35.1067 332.686 35.4567 332.079 36.11C331.473 36.7167 331.169 38.1633 331.169 40.45V73C331.169 75.2867 331.519 76.7333 332.219 77.34C332.919 77.9467 334.203 78.2967 336.069 78.39V80H316.119V78.39C317.473 78.2967 318.453 77.9467 319.059 77.34C319.666 76.7333 319.969 75.2867 319.969 73V54.38C319.596 54.7067 319.129 54.9167 318.569 55.01C318.009 55.1033 317.379 55.15 316.679 55.15H303.449C302.189 55.15 301.303 55.36 300.789 55.78C300.276 56.2 300.019 57.0167 300.019 58.23V73C300.019 75.2867 300.369 76.7333 301.069 77.34C301.769 77.9467 303.053 78.2967 304.919 78.39V80H284.969ZM366.943 32.4C370.257 32.4 373.337 32.96 376.183 34.08C379.03 35.2 381.55 36.8333 383.743 38.98C385.937 41.08 387.64 43.6233 388.853 46.61C390.067 49.5967 390.673 52.9333 390.673 56.62C390.673 60.3067 390.067 63.6433 388.853 66.63C387.64 69.6167 385.937 72.1833 383.743 74.33C381.597 76.4767 379.077 78.1333 376.183 79.3C373.29 80.4667 370.187 81.05 366.873 81.05C363.607 81.05 360.527 80.49 357.633 79.37C354.787 78.25 352.267 76.64 350.073 74.54C347.88 72.3933 346.177 69.8267 344.963 66.84C343.75 63.8533 343.143 60.5167 343.143 56.83C343.143 53.1433 343.75 49.8067 344.963 46.82C346.177 43.8333 347.857 41.2667 350.003 39.12C352.197 36.9733 354.74 35.3167 357.633 34.15C360.527 32.9833 363.63 32.4 366.943 32.4ZM368.343 78.04C370.77 78.04 372.683 77.2467 374.083 75.66C375.483 74.0267 376.487 71.7867 377.093 68.94C377.747 66.0933 378.073 62.78 378.073 59C378.073 51.3933 376.907 45.56 374.573 41.5C372.287 37.44 369.253 35.41 365.473 35.41C363.093 35.41 361.18 36.2033 359.733 37.79C358.333 39.3767 357.307 41.6167 356.653 44.51C356.047 47.3567 355.743 50.67 355.743 54.45C355.743 62.0567 356.887 67.89 359.173 71.95C361.507 76.01 364.563 78.04 368.343 78.04ZM398.629 81.05C397.462 81.05 396.225 80.9567 394.919 80.77C393.612 80.5833 392.492 80.3267 391.559 80V78.39C392.492 78.39 393.542 78.0167 394.709 77.27C395.875 76.5233 397.065 75.03 398.279 72.79L408.289 54.66C405.162 53.8667 402.782 52.5833 401.149 50.81C399.562 49.0367 398.769 46.89 398.769 44.37C398.769 42.41 399.352 40.5667 400.519 38.84C401.732 37.1133 403.692 35.7367 406.399 34.71C409.152 33.6367 412.839 33.1 417.459 33.1C418.952 33.1 420.679 33.17 422.639 33.31C424.599 33.4033 426.769 33.45 429.149 33.45H438.109V35.06C436.755 35.1067 435.775 35.4567 435.169 36.11C434.562 36.7167 434.259 38.1633 434.259 40.45V73C434.259 75.2867 434.609 76.7333 435.309 77.34C436.009 77.9467 437.292 78.2967 439.159 78.39V80H419.209V78.39C420.562 78.2967 421.542 77.9467 422.149 77.34C422.755 76.7333 423.059 75.2867 423.059 73V40.45C423.059 38.63 422.732 37.4633 422.079 36.95C421.472 36.39 420.399 36.11 418.859 36.11C416.852 36.11 415.032 36.8333 413.399 38.28C411.812 39.68 411.019 41.8033 411.019 44.65C411.019 46.1433 411.322 47.59 411.929 48.99C412.535 50.3433 413.609 51.4867 415.149 52.42C416.735 53.3533 418.905 53.9133 421.659 54.1V56.55C421.099 56.55 420.609 56.6667 420.189 56.9C419.769 57.0867 419.349 57.5767 418.929 58.37L411.019 73.63C409.945 75.6833 408.452 77.4333 406.539 78.88C404.625 80.3267 401.989 81.05 398.629 81.05ZM461.279 52H468.069C473.156 52 477.169 52.56 480.109 53.68C483.049 54.8 485.126 56.34 486.339 58.3C487.599 60.26 488.229 62.5233 488.229 65.09C488.229 67.6567 487.529 70.0833 486.129 72.37C484.776 74.61 482.653 76.4533 479.759 77.9C476.913 79.3 473.273 80 468.839 80H446.229V78.39C447.582 78.2967 448.562 77.9467 449.169 77.34C449.776 76.7333 450.079 75.2867 450.079 73V40.45C450.079 38.1633 449.729 36.7167 449.029 36.11C448.376 35.4567 447.092 35.1067 445.179 35.06V33.45H483.679V45H482.069C481.929 43.4133 481.626 41.99 481.159 40.73C480.693 39.4233 479.899 38.3967 478.779 37.65C477.659 36.8567 476.049 36.46 473.949 36.46H464.359C463.379 36.46 462.609 36.7167 462.049 37.23C461.536 37.7433 461.279 38.8167 461.279 40.45V52ZM465.409 76.99C467.883 76.99 469.913 76.4067 471.499 75.24C473.133 74.0267 474.346 72.5333 475.139 70.76C475.933 68.9867 476.329 67.2367 476.329 65.51C476.329 62.9433 475.839 60.89 474.859 59.35C473.926 57.81 472.643 56.7133 471.009 56.06C469.423 55.36 467.626 55.01 465.619 55.01H461.279V73C461.279 74.6333 461.536 75.7067 462.049 76.22C462.563 76.7333 463.683 76.99 465.409 76.99ZM495.653 80V78.39C497.006 78.2967 497.986 77.9467 498.593 77.34C499.2 76.7333 499.503 75.2867 499.503 73V40.45C499.503 38.1633 499.153 36.7167 498.453 36.11C497.8 35.4567 496.516 35.1067 494.603 35.06V33.45H499.503C502.91 33.45 506.106 33.4033 509.093 33.31C512.08 33.17 514.32 33.1 515.813 33.1C520.666 33.1 524.493 33.6367 527.293 34.71C530.14 35.7833 532.17 37.2067 533.383 38.98C534.643 40.7067 535.273 42.62 535.273 44.72C535.273 47.1467 534.48 49.4567 532.893 51.65C531.353 53.8433 528.88 55.5467 525.473 56.76C522.113 57.9267 517.656 58.3 512.103 57.88V55.43C514.623 55.5233 516.7 55.08 518.333 54.1C519.966 53.0733 521.156 51.72 521.903 50.04C522.696 48.36 523.093 46.5633 523.093 44.65C523.093 42.0833 522.37 40.03 520.923 38.49C519.476 36.9033 517.47 36.11 514.903 36.11C513.363 36.11 512.266 36.39 511.613 36.95C511.006 37.4633 510.703 38.63 510.703 40.45V73C510.703 74.4933 510.843 75.6367 511.123 76.43C511.45 77.1767 512.01 77.69 512.803 77.97C513.643 78.2033 514.81 78.3433 516.303 78.39V80H495.653ZM542.662 81.05C541.495 81.05 540.258 80.9567 538.952 80.77C537.645 80.5833 536.525 80.3267 535.592 80V78.39C536.525 78.39 537.575 78.0167 538.742 77.27C539.908 76.5233 541.098 75.03 542.312 72.79L552.322 54.66C549.195 53.8667 546.815 52.5833 545.182 50.81C543.595 49.0367 542.802 46.89 542.802 44.37C542.802 42.41 543.385 40.5667 544.552 38.84C545.765 37.1133 547.725 35.7367 550.432 34.71C553.185 33.6367 556.872 33.1 561.492 33.1C562.985 33.1 564.712 33.17 566.672 33.31C568.632 33.4033 570.802 33.45 573.182 33.45H582.142V35.06C580.789 35.1067 579.809 35.4567 579.202 36.11C578.595 36.7167 578.292 38.1633 578.292 40.45V73C578.292 75.2867 578.642 76.7333 579.342 77.34C580.042 77.9467 581.325 78.2967 583.192 78.39V80H563.242V78.39C564.595 78.2967 565.575 77.9467 566.182 77.34C566.789 76.7333 567.092 75.2867 567.092 73V40.45C567.092 38.63 566.765 37.4633 566.112 36.95C565.505 36.39 564.432 36.11 562.892 36.11C560.885 36.11 559.065 36.8333 557.432 38.28C555.845 39.68 555.052 41.8033 555.052 44.65C555.052 46.1433 555.355 47.59 555.962 48.99C556.569 50.3433 557.642 51.4867 559.182 52.42C560.769 53.3533 562.939 53.9133 565.692 54.1V56.55C565.132 56.55 564.642 56.6667 564.222 56.9C563.802 57.0867 563.382 57.5767 562.962 58.37L555.052 73.63C553.979 75.6833 552.485 77.4333 550.572 78.88C548.659 80.3267 546.022 81.05 542.662 81.05ZM638.81 67.05H640.42L639.72 80H605.98V78.39C606.353 78.2033 606.913 77.8767 607.66 77.41C608.453 76.9433 609.27 76.4067 610.11 75.8C612.443 74.12 614.636 72.2067 616.69 70.06C618.743 67.9133 620.54 65.6267 622.08 63.2C623.62 60.7733 624.833 58.3467 625.72 55.92C626.606 53.4933 627.05 51.1833 627.05 48.99C627.05 46.89 626.536 45.1167 625.51 43.67C624.53 42.2233 622.733 41.5 620.12 41.5C617.926 41.5 615.896 42.1067 614.03 43.32C612.163 44.5333 610.32 46.4233 608.5 48.99L607.17 47.87C609.083 43.0167 611.486 39.4 614.38 37.02C617.273 34.64 620.89 33.45 625.23 33.45C627.75 33.45 630.013 33.87 632.02 34.71C634.026 35.5033 635.613 36.7633 636.78 38.49C637.993 40.17 638.6 42.3633 638.6 45.07C638.6 49.8767 637.06 54.38 633.98 58.58C630.946 62.78 626.7 66.7233 621.24 70.41V70.55H631.46C634.12 70.55 635.963 70.2233 636.99 69.57C638.016 68.9167 638.623 68.0767 638.81 67.05ZM668.603 33.45C671.029 33.45 673.409 33.9167 675.743 34.85C678.076 35.7833 680.176 37.23 682.043 39.19C683.909 41.15 685.379 43.6233 686.453 46.61C687.573 49.55 688.133 53.05 688.133 57.11C688.133 61.1233 687.596 64.6233 686.523 67.61C685.449 70.5967 683.979 73.0933 682.113 75.1C680.246 77.1067 678.146 78.6 675.813 79.58C673.479 80.56 671.053 81.05 668.533 81.05C666.106 81.05 663.726 80.5833 661.393 79.65C659.059 78.7167 656.959 77.27 655.093 75.31C653.226 73.35 651.733 70.9 650.613 67.96C649.539 64.9733 649.003 61.45 649.003 57.39C649.003 53.3767 649.539 49.8767 650.613 46.89C651.686 43.9033 653.156 41.4067 655.023 39.4C656.889 37.3933 658.989 35.9 661.323 34.92C663.656 33.94 666.083 33.45 668.603 33.45ZM668.813 78.04C670.166 78.04 671.403 77.4333 672.523 76.22C673.643 75.0067 674.529 72.9533 675.183 70.06C675.883 67.1667 676.233 63.2 676.233 58.16C676.233 53.7733 675.929 49.97 675.323 46.75C674.763 43.4833 673.899 40.9633 672.733 39.19C671.566 37.37 670.096 36.46 668.323 36.46C667.016 36.46 665.779 37.0667 664.613 38.28C663.493 39.4933 662.583 41.5467 661.883 44.44C661.229 47.3333 660.903 51.3 660.903 56.34C660.903 60.7267 661.183 64.5533 661.743 67.82C662.349 71.04 663.236 73.56 664.403 75.38C665.569 77.1533 667.039 78.04 668.813 78.04ZM726.788 67.05H728.398L727.698 80H693.958V78.39C694.331 78.2033 694.891 77.8767 695.638 77.41C696.431 76.9433 697.248 76.4067 698.088 75.8C700.421 74.12 702.615 72.2067 704.668 70.06C706.721 67.9133 708.518 65.6267 710.058 63.2C711.598 60.7733 712.811 58.3467 713.698 55.92C714.585 53.4933 715.028 51.1833 715.028 48.99C715.028 46.89 714.515 45.1167 713.488 43.67C712.508 42.2233 710.711 41.5 708.098 41.5C705.905 41.5 703.875 42.1067 702.008 43.32C700.141 44.5333 698.298 46.4233 696.478 48.99L695.148 47.87C697.061 43.0167 699.465 39.4 702.358 37.02C705.251 34.64 708.868 33.45 713.208 33.45C715.728 33.45 717.991 33.87 719.998 34.71C722.005 35.5033 723.591 36.7633 724.758 38.49C725.971 40.17 726.578 42.3633 726.578 45.07C726.578 49.8767 725.038 54.38 721.958 58.58C718.925 62.78 714.678 66.7233 709.218 70.41V70.55H719.438C722.098 70.55 723.941 70.2233 724.968 69.57C725.995 68.9167 726.601 68.0767 726.788 67.05ZM765.681 62.15H770.581V70.9H767.641C766.335 70.9 765.681 71.7167 765.681 73.35C765.681 74.47 765.681 75.5667 765.681 76.64C765.728 77.6667 765.775 78.7867 765.821 80H754.761C754.855 78.46 754.925 76.9667 754.971 75.52C755.018 74.0267 755.065 72.4867 755.111 70.9H732.991V69.29C734.205 68.1233 735.301 66.91 736.281 65.65L759.171 37.02C759.685 36.3667 760.151 35.7367 760.571 35.13C761.038 34.4767 761.411 33.9167 761.691 33.45H765.751L765.681 62.15ZM754.971 47.52L743.281 62.15H755.181V47.52H754.971ZM828.011 33.45V46.4H826.401C826.168 44.3467 825.748 42.5967 825.141 41.15C824.581 39.6567 823.694 38.5133 822.481 37.72C821.314 36.88 819.681 36.46 817.581 36.46H814.291C813.311 36.46 812.541 36.7167 811.981 37.23C811.468 37.7433 811.211 38.8167 811.211 40.45V73C811.211 75.2867 811.561 76.7333 812.261 77.34C812.961 77.9467 814.244 78.2967 816.111 78.39V80H796.161V78.39C797.514 78.2967 798.494 77.9467 799.101 77.34C799.708 76.7333 800.011 75.2867 800.011 73V40.45C800.011 38.1633 799.661 36.7167 798.961 36.11C798.308 35.4567 797.024 35.1067 795.111 35.06V33.45H828.011ZM856.055 32.4C859.368 32.4 862.448 32.96 865.295 34.08C868.141 35.2 870.661 36.8333 872.855 38.98C875.048 41.08 876.751 43.6233 877.965 46.61C879.178 49.5967 879.785 52.9333 879.785 56.62C879.785 60.3067 879.178 63.6433 877.965 66.63C876.751 69.6167 875.048 72.1833 872.855 74.33C870.708 76.4767 868.188 78.1333 865.295 79.3C862.401 80.4667 859.298 81.05 855.985 81.05C852.718 81.05 849.638 80.49 846.745 79.37C843.898 78.25 841.378 76.64 839.185 74.54C836.991 72.3933 835.288 69.8267 834.075 66.84C832.861 63.8533 832.255 60.5167 832.255 56.83C832.255 53.1433 832.861 49.8067 834.075 46.82C835.288 43.8333 836.968 41.2667 839.115 39.12C841.308 36.9733 843.851 35.3167 846.745 34.15C849.638 32.9833 852.741 32.4 856.055 32.4ZM857.455 78.04C859.881 78.04 861.795 77.2467 863.195 75.66C864.595 74.0267 865.598 71.7867 866.205 68.94C866.858 66.0933 867.185 62.78 867.185 59C867.185 51.3933 866.018 45.56 863.685 41.5C861.398 37.44 858.365 35.41 854.585 35.41C852.205 35.41 850.291 36.2033 848.845 37.79C847.445 39.3767 846.418 41.6167 845.765 44.51C845.158 47.3567 844.855 50.67 844.855 54.45C844.855 62.0567 845.998 67.89 848.285 71.95C850.618 76.01 853.675 78.04 857.455 78.04ZM910.14 38.98L921.76 73C922.18 74.2133 922.787 75.3333 923.58 76.36C924.42 77.34 925.703 78.0167 927.43 78.39L924.21 94.35H922.6C922.507 91.4567 922.087 88.9367 921.34 86.79C920.593 84.6433 919.66 82.9633 918.54 81.75C917.42 80.5833 916.207 80 914.9 80H896.14C894.413 80 892.71 80.5833 891.03 81.75C889.397 82.9633 887.997 84.6433 886.83 86.79C885.71 88.9367 884.987 91.4567 884.66 94.35H883.05V78.39C883.89 78.0167 884.707 77.3867 885.5 76.5C886.293 75.5667 887.017 74.5167 887.67 73.35C888.37 72.1833 888.907 71.0867 889.28 70.06L901.18 38.98C901.647 37.7667 902.09 36.5767 902.51 35.41C902.93 34.2433 903.303 33.0533 903.63 31.84H907.69C908.017 33.0533 908.39 34.2433 908.81 35.41C909.277 36.5767 909.72 37.7667 910.14 38.98ZM907.2 76.99C909.067 76.99 910.093 76.6867 910.28 76.08C910.467 75.4733 910.303 74.4467 909.79 73L901.6 47.8H901.46L890.54 76.99H907.2ZM970.268 73C970.921 74.5867 971.458 75.7533 971.878 76.5C972.344 77.2467 972.834 77.7367 973.348 77.97C973.861 78.1567 974.491 78.2967 975.238 78.39V80H955.708V78.39C957.574 78.2967 958.601 77.7367 958.788 76.71C959.021 75.6833 958.858 74.4467 958.298 73L954.798 63.9C954.518 64.1333 954.144 64.2967 953.678 64.39C953.258 64.4367 952.791 64.46 952.278 64.46H944.368C943.388 64.46 942.641 64.5767 942.128 64.81C941.614 65.0433 941.171 65.6267 940.798 66.56L938.278 73C937.671 74.54 937.718 75.8 938.418 76.78C939.118 77.76 940.494 78.2967 942.548 78.39V80H929.808V78.39C930.834 78.2967 931.698 77.7833 932.398 76.85C933.144 75.87 933.821 74.5867 934.428 73L947.868 38.98C948.381 37.7667 948.824 36.5767 949.198 35.41C949.618 34.2433 949.991 33.0533 950.318 31.84H954.378C954.704 33.0533 955.078 34.2433 955.498 35.41C955.918 36.5767 956.361 37.7667 956.828 38.98L970.268 73ZM951.928 61.45C952.581 61.45 953.001 61.3567 953.188 61.17C953.421 60.9367 953.398 60.47 953.118 59.77L948.288 47.8H948.148L942.688 61.73C942.921 61.59 943.201 61.52 943.528 61.52C943.854 61.4733 944.228 61.45 944.648 61.45H951.928Z" fill="black"/>
<path d="M1046 49.0198C1039.02 46.2333 1030.84 47.7194 1025.25 53.2924C1017.72 60.8158 1017.72 72.9834 1025.25 80.5068C1030.84 86.0798 1039.02 87.5659 1046 84.7794V75.8627C1044.6 76.5129 1043.12 76.8844 1041.53 76.8844C1035.95 76.8844 1031.49 72.4261 1031.49 66.8532C1031.49 61.2802 1035.95 56.8219 1041.53 56.8219C1043.12 56.8219 1044.7 57.1934 1046 57.8436V49.0198Z" fill="black"/>
<path d="M1042.84 40.084C1045.59 37.3287 1045.59 32.768 1042.84 29.9177C1040.09 27.1623 1035.54 27.1623 1032.7 29.9177C1029.85 32.673 1029.95 37.2337 1032.7 40.084C1035.54 42.8394 1040.09 42.8394 1042.84 40.084Z" fill="black"/>
<path d="M1122.74 67.05H1124.35L1123.65 80H1089.91V78.39C1090.28 78.2033 1090.84 77.8767 1091.59 77.41C1092.38 76.9433 1093.2 76.4067 1094.04 75.8C1096.37 74.12 1098.57 72.2067 1100.62 70.06C1102.67 67.9133 1104.47 65.6267 1106.01 63.2C1107.55 60.7733 1108.76 58.3467 1109.65 55.92C1110.54 53.4933 1110.98 51.1833 1110.98 48.99C1110.98 46.89 1110.47 45.1167 1109.44 43.67C1108.46 42.2233 1106.66 41.5 1104.05 41.5C1101.86 41.5 1099.83 42.1067 1097.96 43.32C1096.09 44.5333 1094.25 46.4233 1092.43 48.99L1091.1 47.87C1093.01 43.0167 1095.42 39.4 1098.31 37.02C1101.2 34.64 1104.82 33.45 1109.16 33.45C1111.68 33.45 1113.94 33.87 1115.95 34.71C1117.96 35.5033 1119.54 36.7633 1120.71 38.49C1121.92 40.17 1122.53 42.3633 1122.53 45.07C1122.53 49.8767 1120.99 54.38 1117.91 58.58C1114.88 62.78 1110.63 66.7233 1105.17 70.41V70.55H1115.39C1118.05 70.55 1119.89 70.2233 1120.92 69.57C1121.95 68.9167 1122.55 68.0767 1122.74 67.05ZM1152.53 33.45C1154.96 33.45 1157.34 33.9167 1159.67 34.85C1162.01 35.7833 1164.11 37.23 1165.97 39.19C1167.84 41.15 1169.31 43.6233 1170.38 46.61C1171.5 49.55 1172.06 53.05 1172.06 57.11C1172.06 61.1233 1171.53 64.6233 1170.45 67.61C1169.38 70.5967 1167.91 73.0933 1166.04 75.1C1164.18 77.1067 1162.08 78.6 1159.74 79.58C1157.41 80.56 1154.98 81.05 1152.46 81.05C1150.04 81.05 1147.66 80.5833 1145.32 79.65C1142.99 78.7167 1140.89 77.27 1139.02 75.31C1137.16 73.35 1135.66 70.9 1134.54 67.96C1133.47 64.9733 1132.93 61.45 1132.93 57.39C1132.93 53.3767 1133.47 49.8767 1134.54 46.89C1135.62 43.9033 1137.09 41.4067 1138.95 39.4C1140.82 37.3933 1142.92 35.9 1145.25 34.92C1147.59 33.94 1150.01 33.45 1152.53 33.45ZM1152.74 78.04C1154.1 78.04 1155.33 77.4333 1156.45 76.22C1157.57 75.0067 1158.46 72.9533 1159.11 70.06C1159.81 67.1667 1160.16 63.2 1160.16 58.16C1160.16 53.7733 1159.86 49.97 1159.25 46.75C1158.69 43.4833 1157.83 40.9633 1156.66 39.19C1155.5 37.37 1154.03 36.46 1152.25 36.46C1150.95 36.46 1149.71 37.0667 1148.54 38.28C1147.42 39.4933 1146.51 41.5467 1145.81 44.44C1145.16 47.3333 1144.83 51.3 1144.83 56.34C1144.83 60.7267 1145.11 64.5533 1145.67 67.82C1146.28 71.04 1147.17 73.56 1148.33 75.38C1149.5 77.1533 1150.97 78.04 1152.74 78.04ZM1219.58 58.86L1197.88 60.75L1197.39 55.08L1219.09 53.19L1219.58 58.86ZM1273.75 67.05H1275.36L1274.66 80H1240.92V78.39C1241.29 78.2033 1241.85 77.8767 1242.6 77.41C1243.39 76.9433 1244.21 76.4067 1245.05 75.8C1247.38 74.12 1249.57 72.2067 1251.63 70.06C1253.68 67.9133 1255.48 65.6267 1257.02 63.2C1258.56 60.7733 1259.77 58.3467 1260.66 55.92C1261.54 53.4933 1261.99 51.1833 1261.99 48.99C1261.99 46.89 1261.47 45.1167 1260.45 43.67C1259.47 42.2233 1257.67 41.5 1255.06 41.5C1252.86 41.5 1250.83 42.1067 1248.97 43.32C1247.1 44.5333 1245.26 46.4233 1243.44 48.99L1242.11 47.87C1244.02 43.0167 1246.42 39.4 1249.32 37.02C1252.21 34.64 1255.83 33.45 1260.17 33.45C1262.69 33.45 1264.95 33.87 1266.96 34.71C1268.96 35.5033 1270.55 36.7633 1271.72 38.49C1272.93 40.17 1273.54 42.3633 1273.54 45.07C1273.54 49.8767 1272 54.38 1268.92 58.58C1265.88 62.78 1261.64 66.7233 1256.18 70.41V70.55H1266.4C1269.06 70.55 1270.9 70.2233 1271.93 69.57C1272.95 68.9167 1273.56 68.0767 1273.75 67.05ZM1302.35 72.3C1302.35 74.0267 1302.49 75.3333 1302.77 76.22C1303.1 77.06 1303.75 77.62 1304.73 77.9C1305.76 78.18 1307.3 78.3433 1309.35 78.39V80H1283.45V78.39C1285.55 78.3433 1287.09 78.18 1288.07 77.9C1289.1 77.62 1289.75 77.06 1290.03 76.22C1290.31 75.3333 1290.45 74.0267 1290.45 72.3V41.85L1284.01 45.84L1282.54 43.6L1298.78 33.45H1302.84C1302.65 34.3367 1302.51 35.2233 1302.42 36.11C1302.37 36.9967 1302.35 37.8833 1302.35 38.77V72.3ZM1334.37 80V78.39C1335.72 78.2967 1336.7 77.9467 1337.31 77.34C1337.92 76.7333 1338.22 75.2867 1338.22 73V40.45C1338.22 38.1633 1337.87 36.7167 1337.17 36.11C1336.52 35.4567 1335.23 35.1067 1333.32 35.06V33.45H1353.27V35.06C1351.92 35.1067 1350.94 35.4567 1350.33 36.11C1349.72 36.7167 1349.42 38.1633 1349.42 40.45V52.84C1349.79 52.56 1350.24 52.3733 1350.75 52.28C1351.31 52.1867 1351.96 52.14 1352.71 52.14H1365.94C1367.2 52.14 1368.09 51.93 1368.6 51.51C1369.11 51.09 1369.37 50.25 1369.37 48.99V40.45C1369.37 38.1633 1369.02 36.7167 1368.32 36.11C1367.67 35.4567 1366.38 35.1067 1364.47 35.06V33.45H1384.42V35.06C1383.07 35.1067 1382.09 35.4567 1381.48 36.11C1380.87 36.7167 1380.57 38.1633 1380.57 40.45V73C1380.57 75.2867 1380.92 76.7333 1381.62 77.34C1382.32 77.9467 1383.6 78.2967 1385.47 78.39V80H1365.52V78.39C1366.87 78.2967 1367.85 77.9467 1368.46 77.34C1369.07 76.7333 1369.37 75.2867 1369.37 73V54.38C1369 54.7067 1368.53 54.9167 1367.97 55.01C1367.41 55.1033 1366.78 55.15 1366.08 55.15H1352.85C1351.59 55.15 1350.7 55.36 1350.19 55.78C1349.68 56.2 1349.42 57.0167 1349.42 58.23V73C1349.42 75.2867 1349.77 76.7333 1350.47 77.34C1351.17 77.9467 1352.45 78.2967 1354.32 78.39V80H1334.37ZM1416.34 32.4C1419.66 32.4 1422.74 32.96 1425.58 34.08C1428.43 35.2 1430.95 36.8333 1433.14 38.98C1435.34 41.08 1437.04 43.6233 1438.25 46.61C1439.47 49.5967 1440.07 52.9333 1440.07 56.62C1440.07 60.3067 1439.47 63.6433 1438.25 66.63C1437.04 69.6167 1435.34 72.1833 1433.14 74.33C1431 76.4767 1428.48 78.1333 1425.58 79.3C1422.69 80.4667 1419.59 81.05 1416.27 81.05C1413.01 81.05 1409.93 80.49 1407.03 79.37C1404.19 78.25 1401.67 76.64 1399.47 74.54C1397.28 72.3933 1395.58 69.8267 1394.36 66.84C1393.15 63.8533 1392.54 60.5167 1392.54 56.83C1392.54 53.1433 1393.15 49.8067 1394.36 46.82C1395.58 43.8333 1397.26 41.2667 1399.4 39.12C1401.6 36.9733 1404.14 35.3167 1407.03 34.15C1409.93 32.9833 1413.03 32.4 1416.34 32.4ZM1417.74 78.04C1420.17 78.04 1422.08 77.2467 1423.48 75.66C1424.88 74.0267 1425.89 71.7867 1426.49 68.94C1427.15 66.0933 1427.47 62.78 1427.47 59C1427.47 51.3933 1426.31 45.56 1423.97 41.5C1421.69 37.44 1418.65 35.41 1414.87 35.41C1412.49 35.41 1410.58 36.2033 1409.13 37.79C1407.73 39.3767 1406.71 41.6167 1406.05 44.51C1405.45 47.3567 1405.14 50.67 1405.14 54.45C1405.14 62.0567 1406.29 67.89 1408.57 71.95C1410.91 76.01 1413.96 78.04 1417.74 78.04ZM1448.03 81.05C1446.86 81.05 1445.62 80.9567 1444.32 80.77C1443.01 80.5833 1441.89 80.3267 1440.96 80V78.39C1441.89 78.39 1442.94 78.0167 1444.11 77.27C1445.27 76.5233 1446.46 75.03 1447.68 72.79L1457.69 54.66C1454.56 53.8667 1452.18 52.5833 1450.55 50.81C1448.96 49.0367 1448.17 46.89 1448.17 44.37C1448.17 42.41 1448.75 40.5667 1449.92 38.84C1451.13 37.1133 1453.09 35.7367 1455.8 34.71C1458.55 33.6367 1462.24 33.1 1466.86 33.1C1468.35 33.1 1470.08 33.17 1472.04 33.31C1474 33.4033 1476.17 33.45 1478.55 33.45H1487.51V35.06C1486.15 35.1067 1485.17 35.4567 1484.57 36.11C1483.96 36.7167 1483.66 38.1633 1483.66 40.45V73C1483.66 75.2867 1484.01 76.7333 1484.71 77.34C1485.41 77.9467 1486.69 78.2967 1488.56 78.39V80H1468.61V78.39C1469.96 78.2967 1470.94 77.9467 1471.55 77.34C1472.15 76.7333 1472.46 75.2867 1472.46 73V40.45C1472.46 38.63 1472.13 37.4633 1471.48 36.95C1470.87 36.39 1469.8 36.11 1468.26 36.11C1466.25 36.11 1464.43 36.8333 1462.8 38.28C1461.21 39.68 1460.42 41.8033 1460.42 44.65C1460.42 46.1433 1460.72 47.59 1461.33 48.99C1461.93 50.3433 1463.01 51.4867 1464.55 52.42C1466.13 53.3533 1468.3 53.9133 1471.06 54.1V56.55C1470.5 56.55 1470.01 56.6667 1469.59 56.9C1469.17 57.0867 1468.75 57.5767 1468.33 58.37L1460.42 73.63C1459.34 75.6833 1457.85 77.4333 1455.94 78.88C1454.02 80.3267 1451.39 81.05 1448.03 81.05ZM1510.68 52H1517.47C1522.55 52 1526.57 52.56 1529.51 53.68C1532.45 54.8 1534.52 56.34 1535.74 58.3C1537 60.26 1537.63 62.5233 1537.63 65.09C1537.63 67.6567 1536.93 70.0833 1535.53 72.37C1534.17 74.61 1532.05 76.4533 1529.16 77.9C1526.31 79.3 1522.67 80 1518.24 80H1495.63V78.39C1496.98 78.2967 1497.96 77.9467 1498.57 77.34C1499.17 76.7333 1499.48 75.2867 1499.48 73V40.45C1499.48 38.1633 1499.13 36.7167 1498.43 36.11C1497.77 35.4567 1496.49 35.1067 1494.58 35.06V33.45H1533.08V45H1531.47C1531.33 43.4133 1531.02 41.99 1530.56 40.73C1530.09 39.4233 1529.3 38.3967 1528.18 37.65C1527.06 36.8567 1525.45 36.46 1523.35 36.46H1513.76C1512.78 36.46 1512.01 36.7167 1511.45 37.23C1510.93 37.7433 1510.68 38.8167 1510.68 40.45V52ZM1514.81 76.99C1517.28 76.99 1519.31 76.4067 1520.9 75.24C1522.53 74.0267 1523.74 72.5333 1524.54 70.76C1525.33 68.9867 1525.73 67.2367 1525.73 65.51C1525.73 62.9433 1525.24 60.89 1524.26 59.35C1523.32 57.81 1522.04 56.7133 1520.41 56.06C1518.82 55.36 1517.02 55.01 1515.02 55.01H1510.68V73C1510.68 74.6333 1510.93 75.7067 1511.45 76.22C1511.96 76.7333 1513.08 76.99 1514.81 76.99ZM1545.05 80V78.39C1546.41 78.2967 1547.39 77.9467 1547.99 77.34C1548.6 76.7333 1548.9 75.2867 1548.9 73V40.45C1548.9 38.1633 1548.55 36.7167 1547.85 36.11C1547.2 35.4567 1545.92 35.1067 1544 35.06V33.45H1548.9C1552.31 33.45 1555.51 33.4033 1558.49 33.31C1561.48 33.17 1563.72 33.1 1565.21 33.1C1570.07 33.1 1573.89 33.6367 1576.69 34.71C1579.54 35.7833 1581.57 37.2067 1582.78 38.98C1584.04 40.7067 1584.67 42.62 1584.67 44.72C1584.67 47.1467 1583.88 49.4567 1582.29 51.65C1580.75 53.8433 1578.28 55.5467 1574.87 56.76C1571.51 57.9267 1567.06 58.3 1561.5 57.88V55.43C1564.02 55.5233 1566.1 55.08 1567.73 54.1C1569.37 53.0733 1570.56 51.72 1571.3 50.04C1572.1 48.36 1572.49 46.5633 1572.49 44.65C1572.49 42.0833 1571.77 40.03 1570.32 38.49C1568.88 36.9033 1566.87 36.11 1564.3 36.11C1562.76 36.11 1561.67 36.39 1561.01 36.95C1560.41 37.4633 1560.1 38.63 1560.1 40.45V73C1560.1 74.4933 1560.24 75.6367 1560.52 76.43C1560.85 77.1767 1561.41 77.69 1562.2 77.97C1563.04 78.2033 1564.21 78.3433 1565.7 78.39V80H1545.05ZM1592.06 81.05C1590.89 81.05 1589.66 80.9567 1588.35 80.77C1587.04 80.5833 1585.92 80.3267 1584.99 80V78.39C1585.92 78.39 1586.97 78.0167 1588.14 77.27C1589.31 76.5233 1590.5 75.03 1591.71 72.79L1601.72 54.66C1598.59 53.8667 1596.21 52.5833 1594.58 50.81C1592.99 49.0367 1592.2 46.89 1592.2 44.37C1592.2 42.41 1592.78 40.5667 1593.95 38.84C1595.16 37.1133 1597.12 35.7367 1599.83 34.71C1602.58 33.6367 1606.27 33.1 1610.89 33.1C1612.38 33.1 1614.11 33.17 1616.07 33.31C1618.03 33.4033 1620.2 33.45 1622.58 33.45H1631.54V35.06C1630.19 35.1067 1629.21 35.4567 1628.6 36.11C1627.99 36.7167 1627.69 38.1633 1627.69 40.45V73C1627.69 75.2867 1628.04 76.7333 1628.74 77.34C1629.44 77.9467 1630.72 78.2967 1632.59 78.39V80H1612.64V78.39C1613.99 78.2967 1614.97 77.9467 1615.58 77.34C1616.19 76.7333 1616.49 75.2867 1616.49 73V40.45C1616.49 38.63 1616.16 37.4633 1615.51 36.95C1614.9 36.39 1613.83 36.11 1612.29 36.11C1610.28 36.11 1608.46 36.8333 1606.83 38.28C1605.24 39.68 1604.45 41.8033 1604.45 44.65C1604.45 46.1433 1604.75 47.59 1605.36 48.99C1605.97 50.3433 1607.04 51.4867 1608.58 52.42C1610.17 53.3533 1612.34 53.9133 1615.09 54.1V56.55C1614.53 56.55 1614.04 56.6667 1613.62 56.9C1613.2 57.0867 1612.78 57.5767 1612.36 58.37L1604.45 73.63C1603.38 75.6833 1601.88 77.4333 1599.97 78.88C1598.06 80.3267 1595.42 81.05 1592.06 81.05ZM1688.21 67.05H1689.82L1689.12 80H1655.38V78.39C1655.75 78.2033 1656.31 77.8767 1657.06 77.41C1657.85 76.9433 1658.67 76.4067 1659.51 75.8C1661.84 74.12 1664.04 72.2067 1666.09 70.06C1668.14 67.9133 1669.94 65.6267 1671.48 63.2C1673.02 60.7733 1674.23 58.3467 1675.12 55.92C1676.01 53.4933 1676.45 51.1833 1676.45 48.99C1676.45 46.89 1675.94 45.1167 1674.91 43.67C1673.93 42.2233 1672.13 41.5 1669.52 41.5C1667.33 41.5 1665.3 42.1067 1663.43 43.32C1661.56 44.5333 1659.72 46.4233 1657.9 48.99L1656.57 47.87C1658.48 43.0167 1660.89 39.4 1663.78 37.02C1666.67 34.64 1670.29 33.45 1674.63 33.45C1677.15 33.45 1679.41 33.87 1681.42 34.71C1683.43 35.5033 1685.01 36.7633 1686.18 38.49C1687.39 40.17 1688 42.3633 1688 45.07C1688 49.8767 1686.46 54.38 1683.38 58.58C1680.35 62.78 1676.1 66.7233 1670.64 70.41V70.55H1680.86C1683.52 70.55 1685.36 70.2233 1686.39 69.57C1687.42 68.9167 1688.02 68.0767 1688.21 67.05ZM1718 33.45C1720.43 33.45 1722.81 33.9167 1725.14 34.85C1727.48 35.7833 1729.58 37.23 1731.44 39.19C1733.31 41.15 1734.78 43.6233 1735.85 46.61C1736.97 49.55 1737.53 53.05 1737.53 57.11C1737.53 61.1233 1737 64.6233 1735.92 67.61C1734.85 70.5967 1733.38 73.0933 1731.51 75.1C1729.65 77.1067 1727.55 78.6 1725.21 79.58C1722.88 80.56 1720.45 81.05 1717.93 81.05C1715.51 81.05 1713.13 80.5833 1710.79 79.65C1708.46 78.7167 1706.36 77.27 1704.49 75.31C1702.63 73.35 1701.13 70.9 1700.01 67.96C1698.94 64.9733 1698.4 61.45 1698.4 57.39C1698.4 53.3767 1698.94 49.8767 1700.01 46.89C1701.09 43.9033 1702.56 41.4067 1704.42 39.4C1706.29 37.3933 1708.39 35.9 1710.72 34.92C1713.06 33.94 1715.48 33.45 1718 33.45ZM1718.21 78.04C1719.57 78.04 1720.8 77.4333 1721.92 76.22C1723.04 75.0067 1723.93 72.9533 1724.58 70.06C1725.28 67.1667 1725.63 63.2 1725.63 58.16C1725.63 53.7733 1725.33 49.97 1724.72 46.75C1724.16 43.4833 1723.3 40.9633 1722.13 39.19C1720.97 37.37 1719.5 36.46 1717.72 36.46C1716.42 36.46 1715.18 37.0667 1714.01 38.28C1712.89 39.4933 1711.98 41.5467 1711.28 44.44C1710.63 47.3333 1710.3 51.3 1710.3 56.34C1710.3 60.7267 1710.58 64.5533 1711.14 67.82C1711.75 71.04 1712.64 73.56 1713.8 75.38C1714.97 77.1533 1716.44 78.04 1718.21 78.04ZM1776.19 67.05H1777.8L1777.1 80H1743.36V78.39C1743.73 78.2033 1744.29 77.8767 1745.04 77.41C1745.83 76.9433 1746.65 76.4067 1747.49 75.8C1749.82 74.12 1752.01 72.2067 1754.07 70.06C1756.12 67.9133 1757.92 65.6267 1759.46 63.2C1761 60.7733 1762.21 58.3467 1763.1 55.92C1763.98 53.4933 1764.43 51.1833 1764.43 48.99C1764.43 46.89 1763.91 45.1167 1762.89 43.67C1761.91 42.2233 1760.11 41.5 1757.5 41.5C1755.3 41.5 1753.27 42.1067 1751.41 43.32C1749.54 44.5333 1747.7 46.4233 1745.88 48.99L1744.55 47.87C1746.46 43.0167 1748.86 39.4 1751.76 37.02C1754.65 34.64 1758.27 33.45 1762.61 33.45C1765.13 33.45 1767.39 33.87 1769.4 34.71C1771.4 35.5033 1772.99 36.7633 1774.16 38.49C1775.37 40.17 1775.98 42.3633 1775.98 45.07C1775.98 49.8767 1774.44 54.38 1771.36 58.58C1768.32 62.78 1764.08 66.7233 1758.62 70.41V70.55H1768.84C1771.5 70.55 1773.34 70.2233 1774.37 69.57C1775.39 68.9167 1776 68.0767 1776.19 67.05ZM1815.08 62.15H1819.98V70.9H1817.04C1815.73 70.9 1815.08 71.7167 1815.08 73.35C1815.08 74.47 1815.08 75.5667 1815.08 76.64C1815.13 77.6667 1815.17 78.7867 1815.22 80H1804.16C1804.25 78.46 1804.32 76.9667 1804.37 75.52C1804.42 74.0267 1804.46 72.4867 1804.51 70.9H1782.39V69.29C1783.6 68.1233 1784.7 66.91 1785.68 65.65L1808.57 37.02C1809.08 36.3667 1809.55 35.7367 1809.97 35.13C1810.44 34.4767 1810.81 33.9167 1811.09 33.45H1815.15L1815.08 62.15ZM1804.37 47.52L1792.68 62.15H1804.58V47.52H1804.37ZM1877.41 33.45V46.4H1875.8C1875.57 44.3467 1875.15 42.5967 1874.54 41.15C1873.98 39.6567 1873.09 38.5133 1871.88 37.72C1870.71 36.88 1869.08 36.46 1866.98 36.46H1863.69C1862.71 36.46 1861.94 36.7167 1861.38 37.23C1860.87 37.7433 1860.61 38.8167 1860.61 40.45V73C1860.61 75.2867 1860.96 76.7333 1861.66 77.34C1862.36 77.9467 1863.64 78.2967 1865.51 78.39V80H1845.56V78.39C1846.91 78.2967 1847.89 77.9467 1848.5 77.34C1849.11 76.7333 1849.41 75.2867 1849.41 73V40.45C1849.41 38.1633 1849.06 36.7167 1848.36 36.11C1847.71 35.4567 1846.42 35.1067 1844.51 35.06V33.45H1877.41ZM1905.45 32.4C1908.77 32.4 1911.85 32.96 1914.69 34.08C1917.54 35.2 1920.06 36.8333 1922.25 38.98C1924.45 41.08 1926.15 43.6233 1927.36 46.61C1928.58 49.5967 1929.18 52.9333 1929.18 56.62C1929.18 60.3067 1928.58 63.6433 1927.36 66.63C1926.15 69.6167 1924.45 72.1833 1922.25 74.33C1920.11 76.4767 1917.59 78.1333 1914.69 79.3C1911.8 80.4667 1908.7 81.05 1905.38 81.05C1902.12 81.05 1899.04 80.49 1896.14 79.37C1893.3 78.25 1890.78 76.64 1888.58 74.54C1886.39 72.3933 1884.69 69.8267 1883.47 66.84C1882.26 63.8533 1881.65 60.5167 1881.65 56.83C1881.65 53.1433 1882.26 49.8067 1883.47 46.82C1884.69 43.8333 1886.37 41.2667 1888.51 39.12C1890.71 36.9733 1893.25 35.3167 1896.14 34.15C1899.04 32.9833 1902.14 32.4 1905.45 32.4ZM1906.85 78.04C1909.28 78.04 1911.19 77.2467 1912.59 75.66C1913.99 74.0267 1915 71.7867 1915.6 68.94C1916.26 66.0933 1916.58 62.78 1916.58 59C1916.58 51.3933 1915.42 45.56 1913.08 41.5C1910.8 37.44 1907.76 35.41 1903.98 35.41C1901.6 35.41 1899.69 36.2033 1898.24 37.79C1896.84 39.3767 1895.82 41.6167 1895.16 44.51C1894.56 47.3567 1894.25 50.67 1894.25 54.45C1894.25 62.0567 1895.4 67.89 1897.68 71.95C1900.02 76.01 1903.07 78.04 1906.85 78.04ZM1959.54 38.98L1971.16 73C1971.58 74.2133 1972.19 75.3333 1972.98 76.36C1973.82 77.34 1975.1 78.0167 1976.83 78.39L1973.61 94.35H1972C1971.91 91.4567 1971.49 88.9367 1970.74 86.79C1969.99 84.6433 1969.06 82.9633 1967.94 81.75C1966.82 80.5833 1965.61 80 1964.3 80H1945.54C1943.81 80 1942.11 80.5833 1940.43 81.75C1938.8 82.9633 1937.4 84.6433 1936.23 86.79C1935.11 88.9367 1934.39 91.4567 1934.06 94.35H1932.45V78.39C1933.29 78.0167 1934.11 77.3867 1934.9 76.5C1935.69 75.5667 1936.42 74.5167 1937.07 73.35C1937.77 72.1833 1938.31 71.0867 1938.68 70.06L1950.58 38.98C1951.05 37.7667 1951.49 36.5767 1951.91 35.41C1952.33 34.2433 1952.7 33.0533 1953.03 31.84H1957.09C1957.42 33.0533 1957.79 34.2433 1958.21 35.41C1958.68 36.5767 1959.12 37.7667 1959.54 38.98ZM1956.6 76.99C1958.47 76.99 1959.49 76.6867 1959.68 76.08C1959.87 75.4733 1959.7 74.4467 1959.19 73L1951 47.8H1950.86L1939.94 76.99H1956.6ZM2019.67 73C2020.32 74.5867 2020.86 75.7533 2021.28 76.5C2021.74 77.2467 2022.23 77.7367 2022.75 77.97C2023.26 78.1567 2023.89 78.2967 2024.64 78.39V80H2005.11V78.39C2006.97 78.2967 2008 77.7367 2008.19 76.71C2008.42 75.6833 2008.26 74.4467 2007.7 73L2004.2 63.9C2003.92 64.1333 2003.54 64.2967 2003.08 64.39C2002.66 64.4367 2002.19 64.46 2001.68 64.46H1993.77C1992.79 64.46 1992.04 64.5767 1991.53 64.81C1991.01 65.0433 1990.57 65.6267 1990.2 66.56L1987.68 73C1987.07 74.54 1987.12 75.8 1987.82 76.78C1988.52 77.76 1989.89 78.2967 1991.95 78.39V80H1979.21V78.39C1980.23 78.2967 1981.1 77.7833 1981.8 76.85C1982.54 75.87 1983.22 74.5867 1983.83 73L1997.27 38.98C1997.78 37.7667 1998.22 36.5767 1998.6 35.41C1999.02 34.2433 1999.39 33.0533 1999.72 31.84H2003.78C2004.1 33.0533 2004.48 34.2433 2004.9 35.41C2005.32 36.5767 2005.76 37.7667 2006.23 38.98L2019.67 73ZM2001.33 61.45C2001.98 61.45 2002.4 61.3567 2002.59 61.17C2002.82 60.9367 2002.8 60.47 2002.52 59.77L1997.69 47.8H1997.55L1992.09 61.73C1992.32 61.59 1992.6 61.52 1992.93 61.52C1993.25 61.4733 1993.63 61.45 1994.05 61.45H2001.33Z" fill="black"/>
<path d="M2095.4 49.0198C2088.42 46.2333 2080.23 47.7194 2074.65 53.2924C2067.12 60.8158 2067.12 72.9834 2074.65 80.5068C2080.23 86.0798 2088.42 87.5659 2095.4 84.7794V75.8627C2094 76.5129 2092.51 76.8844 2090.93 76.8844C2085.35 76.8844 2080.89 72.4261 2080.89 66.8532C2080.89 61.2802 2085.35 56.8219 2090.93 56.8219C2092.51 56.8219 2094.1 57.1934 2095.4 57.8436V49.0198Z" fill="black"/>
<path d="M2092.24 40.084C2094.99 37.3287 2094.99 32.768 2092.24 29.9177C2089.49 27.1623 2084.94 27.1623 2082.1 29.9177C2079.25 32.673 2079.35 37.2337 2082.1 40.084C2084.94 42.8394 2089.49 42.8394 2092.24 40.084Z" fill="black"/>
<path d="M2172.14 67.05H2173.75L2173.05 80H2139.31V78.39C2139.68 78.2033 2140.24 77.8767 2140.99 77.41C2141.78 76.9433 2142.6 76.4067 2143.44 75.8C2145.77 74.12 2147.97 72.2067 2150.02 70.06C2152.07 67.9133 2153.87 65.6267 2155.41 63.2C2156.95 60.7733 2158.16 58.3467 2159.05 55.92C2159.94 53.4933 2160.38 51.1833 2160.38 48.99C2160.38 46.89 2159.87 45.1167 2158.84 43.67C2157.86 42.2233 2156.06 41.5 2153.45 41.5C2151.26 41.5 2149.23 42.1067 2147.36 43.32C2145.49 44.5333 2143.65 46.4233 2141.83 48.99L2140.5 47.87C2142.41 43.0167 2144.82 39.4 2147.71 37.02C2150.6 34.64 2154.22 33.45 2158.56 33.45C2161.08 33.45 2163.34 33.87 2165.35 34.71C2167.36 35.5033 2168.94 36.7633 2170.11 38.49C2171.32 40.17 2171.93 42.3633 2171.93 45.07C2171.93 49.8767 2170.39 54.38 2167.31 58.58C2164.28 62.78 2160.03 66.7233 2154.57 70.41V70.55H2164.79C2167.45 70.55 2169.29 70.2233 2170.32 69.57C2171.35 68.9167 2171.95 68.0767 2172.14 67.05ZM2201.93 33.45C2204.36 33.45 2206.74 33.9167 2209.07 34.85C2211.41 35.7833 2213.51 37.23 2215.37 39.19C2217.24 41.15 2218.71 43.6233 2219.78 46.61C2220.9 49.55 2221.46 53.05 2221.46 57.11C2221.46 61.1233 2220.93 64.6233 2219.85 67.61C2218.78 70.5967 2217.31 73.0933 2215.44 75.1C2213.58 77.1067 2211.48 78.6 2209.14 79.58C2206.81 80.56 2204.38 81.05 2201.86 81.05C2199.44 81.05 2197.06 80.5833 2194.72 79.65C2192.39 78.7167 2190.29 77.27 2188.42 75.31C2186.56 73.35 2185.06 70.9 2183.94 67.96C2182.87 64.9733 2182.33 61.45 2182.33 57.39C2182.33 53.3767 2182.87 49.8767 2183.94 46.89C2185.02 43.9033 2186.49 41.4067 2188.35 39.4C2190.22 37.3933 2192.32 35.9 2194.65 34.92C2196.99 33.94 2199.41 33.45 2201.93 33.45ZM2202.14 78.04C2203.5 78.04 2204.73 77.4333 2205.85 76.22C2206.97 75.0067 2207.86 72.9533 2208.51 70.06C2209.21 67.1667 2209.56 63.2 2209.56 58.16C2209.56 53.7733 2209.26 49.97 2208.65 46.75C2208.09 43.4833 2207.23 40.9633 2206.06 39.19C2204.9 37.37 2203.43 36.46 2201.65 36.46C2200.35 36.46 2199.11 37.0667 2197.94 38.28C2196.82 39.4933 2195.91 41.5467 2195.21 44.44C2194.56 47.3333 2194.23 51.3 2194.23 56.34C2194.23 60.7267 2194.51 64.5533 2195.07 67.82C2195.68 71.04 2196.57 73.56 2197.73 75.38C2198.9 77.1533 2200.37 78.04 2202.14 78.04ZM2268.97 58.86L2247.27 60.75L2246.78 55.08L2268.48 53.19L2268.97 58.86ZM2323.14 67.05H2324.75L2324.05 80H2290.31V78.39C2290.69 78.2033 2291.25 77.8767 2291.99 77.41C2292.79 76.9433 2293.6 76.4067 2294.44 75.8C2296.78 74.12 2298.97 72.2067 2301.02 70.06C2303.08 67.9133 2304.87 65.6267 2306.41 63.2C2307.95 60.7733 2309.17 58.3467 2310.05 55.92C2310.94 53.4933 2311.38 51.1833 2311.38 48.99C2311.38 46.89 2310.87 45.1167 2309.84 43.67C2308.86 42.2233 2307.07 41.5 2304.45 41.5C2302.26 41.5 2300.23 42.1067 2298.36 43.32C2296.5 44.5333 2294.65 46.4233 2292.83 48.99L2291.5 47.87C2293.42 43.0167 2295.82 39.4 2298.71 37.02C2301.61 34.64 2305.22 33.45 2309.56 33.45C2312.08 33.45 2314.35 33.87 2316.35 34.71C2318.36 35.5033 2319.95 36.7633 2321.11 38.49C2322.33 40.17 2322.93 42.3633 2322.93 45.07C2322.93 49.8767 2321.39 54.38 2318.31 58.58C2315.28 62.78 2311.03 66.7233 2305.57 70.41V70.55H2315.79C2318.45 70.55 2320.3 70.2233 2321.32 69.57C2322.35 68.9167 2322.96 68.0767 2323.14 67.05ZM2351.75 72.3C2351.75 74.0267 2351.89 75.3333 2352.17 76.22C2352.49 77.06 2353.15 77.62 2354.13 77.9C2355.15 78.18 2356.69 78.3433 2358.75 78.39V80H2332.85V78.39C2334.95 78.3433 2336.49 78.18 2337.47 77.9C2338.49 77.62 2339.15 77.06 2339.43 76.22C2339.71 75.3333 2339.85 74.0267 2339.85 72.3V41.85L2333.41 45.84L2331.94 43.6L2348.18 33.45H2352.24C2352.05 34.3367 2351.91 35.2233 2351.82 36.11C2351.77 36.9967 2351.75 37.8833 2351.75 38.77V72.3ZM2383.77 80V78.39C2385.12 78.2967 2386.1 77.9467 2386.71 77.34C2387.31 76.7333 2387.62 75.2867 2387.62 73V40.45C2387.62 38.1633 2387.27 36.7167 2386.57 36.11C2385.91 35.4567 2384.63 35.1067 2382.72 35.06V33.45H2402.67V35.06C2401.31 35.1067 2400.33 35.4567 2399.73 36.11C2399.12 36.7167 2398.82 38.1633 2398.82 40.45V52.84C2399.19 52.56 2399.63 52.3733 2400.15 52.28C2400.71 52.1867 2401.36 52.14 2402.11 52.14H2415.34C2416.6 52.14 2417.48 51.93 2418 51.51C2418.51 51.09 2418.77 50.25 2418.77 48.99V40.45C2418.77 38.1633 2418.42 36.7167 2417.72 36.11C2417.06 35.4567 2415.78 35.1067 2413.87 35.06V33.45H2433.82V35.06C2432.46 35.1067 2431.48 35.4567 2430.88 36.11C2430.27 36.7167 2429.97 38.1633 2429.97 40.45V73C2429.97 75.2867 2430.32 76.7333 2431.02 77.34C2431.72 77.9467 2433 78.2967 2434.87 78.39V80H2414.92V78.39C2416.27 78.2967 2417.25 77.9467 2417.86 77.34C2418.46 76.7333 2418.77 75.2867 2418.77 73V54.38C2418.39 54.7067 2417.93 54.9167 2417.37 55.01C2416.81 55.1033 2416.18 55.15 2415.48 55.15H2402.25C2400.99 55.15 2400.1 55.36 2399.59 55.78C2399.07 56.2 2398.82 57.0167 2398.82 58.23V73C2398.82 75.2867 2399.17 76.7333 2399.87 77.34C2400.57 77.9467 2401.85 78.2967 2403.72 78.39V80H2383.77ZM2465.74 32.4C2469.05 32.4 2472.13 32.96 2474.98 34.08C2477.83 35.2 2480.35 36.8333 2482.54 38.98C2484.73 41.08 2486.44 43.6233 2487.65 46.61C2488.86 49.5967 2489.47 52.9333 2489.47 56.62C2489.47 60.3067 2488.86 63.6433 2487.65 66.63C2486.44 69.6167 2484.73 72.1833 2482.54 74.33C2480.39 76.4767 2477.87 78.1333 2474.98 79.3C2472.09 80.4667 2468.98 81.05 2465.67 81.05C2462.4 81.05 2459.32 80.49 2456.43 79.37C2453.58 78.25 2451.06 76.64 2448.87 74.54C2446.68 72.3933 2444.97 69.8267 2443.76 66.84C2442.55 63.8533 2441.94 60.5167 2441.94 56.83C2441.94 53.1433 2442.55 49.8067 2443.76 46.82C2444.97 43.8333 2446.65 41.2667 2448.8 39.12C2450.99 36.9733 2453.54 35.3167 2456.43 34.15C2459.32 32.9833 2462.43 32.4 2465.74 32.4ZM2467.14 78.04C2469.57 78.04 2471.48 77.2467 2472.88 75.66C2474.28 74.0267 2475.28 71.7867 2475.89 68.94C2476.54 66.0933 2476.87 62.78 2476.87 59C2476.87 51.3933 2475.7 45.56 2473.37 41.5C2471.08 37.44 2468.05 35.41 2464.27 35.41C2461.89 35.41 2459.98 36.2033 2458.53 37.79C2457.13 39.3767 2456.1 41.6167 2455.45 44.51C2454.84 47.3567 2454.54 50.67 2454.54 54.45C2454.54 62.0567 2455.68 67.89 2457.97 71.95C2460.3 76.01 2463.36 78.04 2467.14 78.04ZM2497.43 81.05C2496.26 81.05 2495.02 80.9567 2493.72 80.77C2492.41 80.5833 2491.29 80.3267 2490.36 80V78.39C2491.29 78.39 2492.34 78.0167 2493.51 77.27C2494.67 76.5233 2495.86 75.03 2497.08 72.79L2507.09 54.66C2503.96 53.8667 2501.58 52.5833 2499.95 50.81C2498.36 49.0367 2497.57 46.89 2497.57 44.37C2497.57 42.41 2498.15 40.5667 2499.32 38.84C2500.53 37.1133 2502.49 35.7367 2505.2 34.71C2507.95 33.6367 2511.64 33.1 2516.26 33.1C2517.75 33.1 2519.48 33.17 2521.44 33.31C2523.4 33.4033 2525.57 33.45 2527.95 33.45H2536.91V35.06C2535.55 35.1067 2534.57 35.4567 2533.97 36.11C2533.36 36.7167 2533.06 38.1633 2533.06 40.45V73C2533.06 75.2867 2533.41 76.7333 2534.11 77.34C2534.81 77.9467 2536.09 78.2967 2537.96 78.39V80H2518.01V78.39C2519.36 78.2967 2520.34 77.9467 2520.95 77.34C2521.55 76.7333 2521.86 75.2867 2521.86 73V40.45C2521.86 38.63 2521.53 37.4633 2520.88 36.95C2520.27 36.39 2519.2 36.11 2517.66 36.11C2515.65 36.11 2513.83 36.8333 2512.2 38.28C2510.61 39.68 2509.82 41.8033 2509.82 44.65C2509.82 46.1433 2510.12 47.59 2510.73 48.99C2511.33 50.3433 2512.41 51.4867 2513.95 52.42C2515.53 53.3533 2517.7 53.9133 2520.46 54.1V56.55C2519.9 56.55 2519.41 56.6667 2518.99 56.9C2518.57 57.0867 2518.15 57.5767 2517.73 58.37L2509.82 73.63C2508.74 75.6833 2507.25 77.4333 2505.34 78.88C2503.42 80.3267 2500.79 81.05 2497.43 81.05ZM2560.08 52H2566.87C2571.95 52 2575.97 52.56 2578.91 53.68C2581.85 54.8 2583.92 56.34 2585.14 58.3C2586.4 60.26 2587.03 62.5233 2587.03 65.09C2587.03 67.6567 2586.33 70.0833 2584.93 72.37C2583.57 74.61 2581.45 76.4533 2578.56 77.9C2575.71 79.3 2572.07 80 2567.64 80H2545.03V78.39C2546.38 78.2967 2547.36 77.9467 2547.97 77.34C2548.57 76.7333 2548.88 75.2867 2548.88 73V40.45C2548.88 38.1633 2548.53 36.7167 2547.83 36.11C2547.17 35.4567 2545.89 35.1067 2543.98 35.06V33.45H2582.48V45H2580.87C2580.73 43.4133 2580.42 41.99 2579.96 40.73C2579.49 39.4233 2578.7 38.3967 2577.58 37.65C2576.46 36.8567 2574.85 36.46 2572.75 36.46H2563.16C2562.18 36.46 2561.41 36.7167 2560.85 37.23C2560.33 37.7433 2560.08 38.8167 2560.08 40.45V52ZM2564.21 76.99C2566.68 76.99 2568.71 76.4067 2570.3 75.24C2571.93 74.0267 2573.14 72.5333 2573.94 70.76C2574.73 68.9867 2575.13 67.2367 2575.13 65.51C2575.13 62.9433 2574.64 60.89 2573.66 59.35C2572.72 57.81 2571.44 56.7133 2569.81 56.06C2568.22 55.36 2566.42 55.01 2564.42 55.01H2560.08V73C2560.08 74.6333 2560.33 75.7067 2560.85 76.22C2561.36 76.7333 2562.48 76.99 2564.21 76.99ZM2594.45 80V78.39C2595.8 78.2967 2596.78 77.9467 2597.39 77.34C2598 76.7333 2598.3 75.2867 2598.3 73V40.45C2598.3 38.1633 2597.95 36.7167 2597.25 36.11C2596.6 35.4567 2595.31 35.1067 2593.4 35.06V33.45H2598.3C2601.71 33.45 2604.9 33.4033 2607.89 33.31C2610.88 33.17 2613.12 33.1 2614.61 33.1C2619.46 33.1 2623.29 33.6367 2626.09 34.71C2628.94 35.7833 2630.97 37.2067 2632.18 38.98C2633.44 40.7067 2634.07 42.62 2634.07 44.72C2634.07 47.1467 2633.28 49.4567 2631.69 51.65C2630.15 53.8433 2627.68 55.5467 2624.27 56.76C2620.91 57.9267 2616.45 58.3 2610.9 57.88V55.43C2613.42 55.5233 2615.5 55.08 2617.13 54.1C2618.76 53.0733 2619.95 51.72 2620.7 50.04C2621.49 48.36 2621.89 46.5633 2621.89 44.65C2621.89 42.0833 2621.17 40.03 2619.72 38.49C2618.27 36.9033 2616.27 36.11 2613.7 36.11C2612.16 36.11 2611.06 36.39 2610.41 36.95C2609.8 37.4633 2609.5 38.63 2609.5 40.45V73C2609.5 74.4933 2609.64 75.6367 2609.92 76.43C2610.25 77.1767 2610.81 77.69 2611.6 77.97C2612.44 78.2033 2613.61 78.3433 2615.1 78.39V80H2594.45ZM2641.46 81.05C2640.29 81.05 2639.06 80.9567 2637.75 80.77C2636.44 80.5833 2635.32 80.3267 2634.39 80V78.39C2635.32 78.39 2636.37 78.0167 2637.54 77.27C2638.71 76.5233 2639.9 75.03 2641.11 72.79L2651.12 54.66C2647.99 53.8667 2645.61 52.5833 2643.98 50.81C2642.39 49.0367 2641.6 46.89 2641.6 44.37C2641.6 42.41 2642.18 40.5667 2643.35 38.84C2644.56 37.1133 2646.52 35.7367 2649.23 34.71C2651.98 33.6367 2655.67 33.1 2660.29 33.1C2661.78 33.1 2663.51 33.17 2665.47 33.31C2667.43 33.4033 2669.6 33.45 2671.98 33.45H2680.94V35.06C2679.59 35.1067 2678.61 35.4567 2678 36.11C2677.39 36.7167 2677.09 38.1633 2677.09 40.45V73C2677.09 75.2867 2677.44 76.7333 2678.14 77.34C2678.84 77.9467 2680.12 78.2967 2681.99 78.39V80H2662.04V78.39C2663.39 78.2967 2664.37 77.9467 2664.98 77.34C2665.59 76.7333 2665.89 75.2867 2665.89 73V40.45C2665.89 38.63 2665.56 37.4633 2664.91 36.95C2664.3 36.39 2663.23 36.11 2661.69 36.11C2659.68 36.11 2657.86 36.8333 2656.23 38.28C2654.64 39.68 2653.85 41.8033 2653.85 44.65C2653.85 46.1433 2654.15 47.59 2654.76 48.99C2655.37 50.3433 2656.44 51.4867 2657.98 52.42C2659.57 53.3533 2661.74 53.9133 2664.49 54.1V56.55C2663.93 56.55 2663.44 56.6667 2663.02 56.9C2662.6 57.0867 2662.18 57.5767 2661.76 58.37L2653.85 73.63C2652.78 75.6833 2651.28 77.4333 2649.37 78.88C2647.46 80.3267 2644.82 81.05 2641.46 81.05ZM2737.61 67.05H2739.22L2738.52 80H2704.78V78.39C2705.15 78.2033 2705.71 77.8767 2706.46 77.41C2707.25 76.9433 2708.07 76.4067 2708.91 75.8C2711.24 74.12 2713.43 72.2067 2715.49 70.06C2717.54 67.9133 2719.34 65.6267 2720.88 63.2C2722.42 60.7733 2723.63 58.3467 2724.52 55.92C2725.4 53.4933 2725.85 51.1833 2725.85 48.99C2725.85 46.89 2725.33 45.1167 2724.31 43.67C2723.33 42.2233 2721.53 41.5 2718.92 41.5C2716.72 41.5 2714.69 42.1067 2712.83 43.32C2710.96 44.5333 2709.12 46.4233 2707.3 48.99L2705.97 47.87C2707.88 43.0167 2710.28 39.4 2713.18 37.02C2716.07 34.64 2719.69 33.45 2724.03 33.45C2726.55 33.45 2728.81 33.87 2730.82 34.71C2732.82 35.5033 2734.41 36.7633 2735.58 38.49C2736.79 40.17 2737.4 42.3633 2737.4 45.07C2737.4 49.8767 2735.86 54.38 2732.78 58.58C2729.74 62.78 2725.5 66.7233 2720.04 70.41V70.55H2730.26C2732.92 70.55 2734.76 70.2233 2735.79 69.57C2736.81 68.9167 2737.42 68.0767 2737.61 67.05ZM2767.4 33.45C2769.83 33.45 2772.21 33.9167 2774.54 34.85C2776.87 35.7833 2778.97 37.23 2780.84 39.19C2782.71 41.15 2784.18 43.6233 2785.25 46.61C2786.37 49.55 2786.93 53.05 2786.93 57.11C2786.93 61.1233 2786.39 64.6233 2785.32 67.61C2784.25 70.5967 2782.78 73.0933 2780.91 75.1C2779.04 77.1067 2776.94 78.6 2774.61 79.58C2772.28 80.56 2769.85 81.05 2767.33 81.05C2764.9 81.05 2762.52 80.5833 2760.19 79.65C2757.86 78.7167 2755.76 77.27 2753.89 75.31C2752.02 73.35 2750.53 70.9 2749.41 67.96C2748.34 64.9733 2747.8 61.45 2747.8 57.39C2747.8 53.3767 2748.34 49.8767 2749.41 46.89C2750.48 43.9033 2751.95 41.4067 2753.82 39.4C2755.69 37.3933 2757.79 35.9 2760.12 34.92C2762.45 33.94 2764.88 33.45 2767.4 33.45ZM2767.61 78.04C2768.96 78.04 2770.2 77.4333 2771.32 76.22C2772.44 75.0067 2773.33 72.9533 2773.98 70.06C2774.68 67.1667 2775.03 63.2 2775.03 58.16C2775.03 53.7733 2774.73 49.97 2774.12 46.75C2773.56 43.4833 2772.7 40.9633 2771.53 39.19C2770.36 37.37 2768.89 36.46 2767.12 36.46C2765.81 36.46 2764.58 37.0667 2763.41 38.28C2762.29 39.4933 2761.38 41.5467 2760.68 44.44C2760.03 47.3333 2759.7 51.3 2759.7 56.34C2759.7 60.7267 2759.98 64.5533 2760.54 67.82C2761.15 71.04 2762.03 73.56 2763.2 75.38C2764.37 77.1533 2765.84 78.04 2767.61 78.04ZM2825.59 67.05H2827.2L2826.5 80H2792.76V78.39C2793.13 78.2033 2793.69 77.8767 2794.44 77.41C2795.23 76.9433 2796.05 76.4067 2796.89 75.8C2799.22 74.12 2801.41 72.2067 2803.47 70.06C2805.52 67.9133 2807.32 65.6267 2808.86 63.2C2810.4 60.7733 2811.61 58.3467 2812.5 55.92C2813.38 53.4933 2813.83 51.1833 2813.83 48.99C2813.83 46.89 2813.31 45.1167 2812.29 43.67C2811.31 42.2233 2809.51 41.5 2806.9 41.5C2804.7 41.5 2802.67 42.1067 2800.81 43.32C2798.94 44.5333 2797.1 46.4233 2795.28 48.99L2793.95 47.87C2795.86 43.0167 2798.26 39.4 2801.16 37.02C2804.05 34.64 2807.67 33.45 2812.01 33.45C2814.53 33.45 2816.79 33.87 2818.8 34.71C2820.8 35.5033 2822.39 36.7633 2823.56 38.49C2824.77 40.17 2825.38 42.3633 2825.38 45.07C2825.38 49.8767 2823.84 54.38 2820.76 58.58C2817.72 62.78 2813.48 66.7233 2808.02 70.41V70.55H2818.24C2820.9 70.55 2822.74 70.2233 2823.77 69.57C2824.79 68.9167 2825.4 68.0767 2825.59 67.05ZM2864.48 62.15H2869.38V70.9H2866.44C2865.13 70.9 2864.48 71.7167 2864.48 73.35C2864.48 74.47 2864.48 75.5667 2864.48 76.64C2864.53 77.6667 2864.57 78.7867 2864.62 80H2853.56C2853.65 78.46 2853.72 76.9667 2853.77 75.52C2853.82 74.0267 2853.86 72.4867 2853.91 70.9H2831.79V69.29C2833 68.1233 2834.1 66.91 2835.08 65.65L2857.97 37.02C2858.48 36.3667 2858.95 35.7367 2859.37 35.13C2859.84 34.4767 2860.21 33.9167 2860.49 33.45H2864.55L2864.48 62.15ZM2853.77 47.52L2842.08 62.15H2853.98V47.52H2853.77ZM2926.81 33.45V46.4H2925.2C2924.97 44.3467 2924.55 42.5967 2923.94 41.15C2923.38 39.6567 2922.49 38.5133 2921.28 37.72C2920.11 36.88 2918.48 36.46 2916.38 36.46H2913.09C2912.11 36.46 2911.34 36.7167 2910.78 37.23C2910.27 37.7433 2910.01 38.8167 2910.01 40.45V73C2910.01 75.2867 2910.36 76.7333 2911.06 77.34C2911.76 77.9467 2913.04 78.2967 2914.91 78.39V80H2894.96V78.39C2896.31 78.2967 2897.29 77.9467 2897.9 77.34C2898.51 76.7333 2898.81 75.2867 2898.81 73V40.45C2898.81 38.1633 2898.46 36.7167 2897.76 36.11C2897.11 35.4567 2895.82 35.1067 2893.91 35.06V33.45H2926.81ZM2954.85 32.4C2958.17 32.4 2961.25 32.96 2964.09 34.08C2966.94 35.2 2969.46 36.8333 2971.65 38.98C2973.85 41.08 2975.55 43.6233 2976.76 46.61C2977.98 49.5967 2978.58 52.9333 2978.58 56.62C2978.58 60.3067 2977.98 63.6433 2976.76 66.63C2975.55 69.6167 2973.85 72.1833 2971.65 74.33C2969.51 76.4767 2966.99 78.1333 2964.09 79.3C2961.2 80.4667 2958.1 81.05 2954.78 81.05C2951.52 81.05 2948.44 80.49 2945.54 79.37C2942.7 78.25 2940.18 76.64 2937.98 74.54C2935.79 72.3933 2934.09 69.8267 2932.87 66.84C2931.66 63.8533 2931.05 60.5167 2931.05 56.83C2931.05 53.1433 2931.66 49.8067 2932.87 46.82C2934.09 43.8333 2935.77 41.2667 2937.91 39.12C2940.11 36.9733 2942.65 35.3167 2945.54 34.15C2948.44 32.9833 2951.54 32.4 2954.85 32.4ZM2956.25 78.04C2958.68 78.04 2960.59 77.2467 2961.99 75.66C2963.39 74.0267 2964.4 71.7867 2965 68.94C2965.66 66.0933 2965.98 62.78 2965.98 59C2965.98 51.3933 2964.82 45.56 2962.48 41.5C2960.2 37.44 2957.16 35.41 2953.38 35.41C2951 35.41 2949.09 36.2033 2947.64 37.79C2946.24 39.3767 2945.22 41.6167 2944.56 44.51C2943.96 47.3567 2943.65 50.67 2943.65 54.45C2943.65 62.0567 2944.8 67.89 2947.08 71.95C2949.42 76.01 2952.47 78.04 2956.25 78.04ZM3008.94 38.98L3020.56 73C3020.98 74.2133 3021.58 75.3333 3022.38 76.36C3023.22 77.34 3024.5 78.0167 3026.23 78.39L3023.01 94.35H3021.4C3021.3 91.4567 3020.88 88.9367 3020.14 86.79C3019.39 84.6433 3018.46 82.9633 3017.34 81.75C3016.22 80.5833 3015 80 3013.7 80H2994.94C2993.21 80 2991.51 80.5833 2989.83 81.75C2988.19 82.9633 2986.79 84.6433 2985.63 86.79C2984.51 88.9367 2983.78 91.4567 2983.46 94.35H2981.85V78.39C2982.69 78.0167 2983.5 77.3867 2984.3 76.5C2985.09 75.5667 2985.81 74.5167 2986.47 73.35C2987.17 72.1833 2987.7 71.0867 2988.08 70.06L2999.98 38.98C3000.44 37.7667 3000.89 36.5767 3001.31 35.41C3001.73 34.2433 3002.1 33.0533 3002.43 31.84H3006.49C3006.81 33.0533 3007.19 34.2433 3007.61 35.41C3008.07 36.5767 3008.52 37.7667 3008.94 38.98ZM3006 76.99C3007.86 76.99 3008.89 76.6867 3009.08 76.08C3009.26 75.4733 3009.1 74.4467 3008.59 73L3000.4 47.8H3000.26L2989.34 76.99H3006ZM3069.07 73C3069.72 74.5867 3070.26 75.7533 3070.68 76.5C3071.14 77.2467 3071.63 77.7367 3072.15 77.97C3072.66 78.1567 3073.29 78.2967 3074.04 78.39V80H3054.51V78.39C3056.37 78.2967 3057.4 77.7367 3057.59 76.71C3057.82 75.6833 3057.66 74.4467 3057.1 73L3053.6 63.9C3053.32 64.1333 3052.94 64.2967 3052.48 64.39C3052.06 64.4367 3051.59 64.46 3051.08 64.46H3043.17C3042.19 64.46 3041.44 64.5767 3040.93 64.81C3040.41 65.0433 3039.97 65.6267 3039.6 66.56L3037.08 73C3036.47 74.54 3036.52 75.8 3037.22 76.78C3037.92 77.76 3039.29 78.2967 3041.35 78.39V80H3028.61V78.39C3029.63 78.2967 3030.5 77.7833 3031.2 76.85C3031.94 75.87 3032.62 74.5867 3033.23 73L3046.67 38.98C3047.18 37.7667 3047.62 36.5767 3048 35.41C3048.42 34.2433 3048.79 33.0533 3049.12 31.84H3053.18C3053.5 33.0533 3053.88 34.2433 3054.3 35.41C3054.72 36.5767 3055.16 37.7667 3055.63 38.98L3069.07 73ZM3050.73 61.45C3051.38 61.45 3051.8 61.3567 3051.99 61.17C3052.22 60.9367 3052.2 60.47 3051.92 59.77L3047.09 47.8H3046.95L3041.49 61.73C3041.72 61.59 3042 61.52 3042.33 61.52C3042.65 61.4733 3043.03 61.45 3043.45 61.45H3050.73Z" fill="black"/>
<defs>
<linearGradient id="paint0_linear_562_1670" x1="0" y1="57" x2="3115" y2="57" gradientUnits="userSpaceOnUse">
<stop stop-color="#FA0056"/>
<stop offset="0.375" stop-color="#F33174"/>
<stop offset="0.67" stop-color="#FA0056"/>
<stop offset="0.975" stop-color="#F33174"/>
</linearGradient>
</defs>
</svg>
