<svg width="1162" height="37" viewBox="0 0 1162 37" fill="none" xmlns="http://www.w3.org/2000/svg">
<rect width="1162" height="37" fill="#272729"/>
<path d="M17.6687 25V24.5287C18.0649 24.5014 18.3517 24.399 18.5293 24.2214C18.7069 24.0438 18.7957 23.6203 18.7957 22.951V13.4232C18.7957 12.7538 18.6932 12.3304 18.4883 12.1528C18.2971 11.9615 17.9214 11.8591 17.3614 11.8454V11.3742H23.201V11.8454C22.8049 11.8591 22.518 11.9615 22.3404 12.1528C22.1629 12.3304 22.0741 12.7538 22.0741 13.4232V22.951C22.0741 23.6203 22.1765 24.0438 22.3814 24.2214C22.5863 24.399 22.962 24.5014 23.5084 24.5287V25H17.6687ZM37.6974 25.1639C37.4925 24.9454 37.2807 24.7336 37.0622 24.5287C36.8436 24.3102 36.4953 23.9892 36.0172 23.5657L27.9441 16.1893H27.9032V22.951C27.9032 23.4154 28.0193 23.7911 28.2515 24.078C28.4974 24.3512 28.914 24.5014 29.5014 24.5287V25H25.7107V24.5287C26.1069 24.5014 26.3937 24.3512 26.5713 24.078C26.7489 23.7911 26.8377 23.4154 26.8377 22.951V13.4232C26.8377 12.7538 26.7352 12.3304 26.5303 12.1528C26.3391 11.9615 25.9634 11.8591 25.4034 11.8454V11.3742H27.8622C28.0671 11.6337 28.2856 11.8659 28.5179 12.0708C28.7501 12.2757 29.0164 12.5216 29.317 12.8085L37.472 20.1849H37.513V13.4232C37.513 12.9587 37.3968 12.5831 37.1646 12.2962C36.9324 12.0093 36.5158 11.8591 35.9147 11.8454V11.3742H39.7054V11.8454C39.3092 11.8591 39.0224 12.0093 38.8448 12.2962C38.6672 12.5831 38.5784 12.9587 38.5784 13.4232V22.951C38.5784 23.3335 38.5784 23.7023 38.5784 24.0575C38.5921 24.399 38.6058 24.7678 38.6194 25.1639H37.6974ZM41.3259 11.3742H53.0051V14.755H52.5339C52.4519 14.0174 52.2334 13.4163 51.8782 12.9519C51.523 12.4874 50.9152 12.2552 50.0546 12.2552H48.8047V22.951C48.8047 23.6203 48.9071 24.0438 49.112 24.2214C49.3169 24.399 49.6926 24.5014 50.239 24.5287V25L44.3994 25V24.5287C44.7955 24.5014 45.0823 24.399 45.2599 24.2214C45.4375 24.0438 45.5263 23.6203 45.5263 22.951V12.2552H44.2559C43.4227 12.2552 42.8216 12.4874 42.4528 12.9519C42.0976 13.4163 41.8791 14.0174 41.7971 14.755H41.3259V11.3742ZM54.8645 25V24.5287C55.2606 24.5014 55.5474 24.399 55.725 24.2214C55.9026 24.0438 55.9914 23.6203 55.9914 22.951V13.4232C55.9914 12.7538 55.8889 12.3304 55.684 12.1528C55.4928 11.9615 55.1172 11.8591 54.5571 11.8454V11.3742L64.6177 11.3742V14.2428L64.1464 14.2428C64.1191 13.6554 63.9142 13.1773 63.5317 12.8085C63.1629 12.4396 62.5892 12.2552 61.8106 12.2552H60.1714C59.8845 12.2552 59.6591 12.3304 59.4952 12.4806C59.3449 12.6309 59.2698 12.9451 59.2698 13.4232V17.4597C59.3791 17.3777 59.5088 17.3231 59.6591 17.2958C59.823 17.2684 60.0143 17.2548 60.2328 17.2548H62.2204C62.6302 17.2548 62.9717 17.1387 63.2449 16.9065C63.5181 16.6742 63.6615 16.3532 63.6751 15.9434H64.1464V19.4267H63.6751C63.6615 18.9213 63.5181 18.5798 63.2449 18.4022C62.9717 18.2246 62.6302 18.1359 62.2204 18.1359H60.2738C59.905 18.1359 59.6454 18.1973 59.4952 18.3203C59.3449 18.4432 59.2698 18.6823 59.2698 19.0374V22.951C59.2698 23.4291 59.3722 23.7433 59.5771 23.8935C59.7957 24.0438 60.2123 24.1189 60.827 24.1189H62.7736C63.5932 24.1189 64.242 23.8731 64.7201 23.3813C65.1982 22.8895 65.4646 22.3022 65.5192 21.6192H65.9905L65.8266 25H54.8645ZM79.7369 25.3073C79.1222 25.3073 78.5963 25.2049 78.1592 25C77.722 24.8088 77.3532 24.5492 77.0527 24.2214C76.7522 23.8935 76.4722 23.5316 76.2126 23.1354L73.344 18.6686C73.2074 18.4364 73.0845 18.2929 72.9752 18.2383C72.8659 18.1837 72.7361 18.1495 72.5859 18.1359V17.4187C73.4055 17.3641 74.0407 17.2001 74.4915 16.9269C74.9422 16.6537 75.2564 16.3191 75.434 15.9229C75.6116 15.5131 75.7004 15.0897 75.7004 14.6526C75.7004 13.8193 75.4681 13.1978 75.0037 12.788C74.5393 12.3645 74.0065 12.1528 73.4055 12.1528C72.9547 12.1528 72.6337 12.2347 72.4425 12.3987C72.2649 12.5489 72.1761 12.8904 72.1761 13.4232V22.951C72.1761 23.6203 72.2785 24.0438 72.4834 24.2214C72.6883 24.399 73.064 24.5014 73.6104 24.5287V25H67.7707V24.5287C68.1669 24.5014 68.4537 24.399 68.6313 24.2214C68.8089 24.0438 68.8977 23.6203 68.8977 22.951V13.4232C68.8977 12.7538 68.7952 12.3304 68.5903 12.1528C68.3991 11.9615 68.0234 11.8591 67.4634 11.8454V11.3742H68.8977C69.9222 11.3742 70.8511 11.3605 71.6843 11.3332C72.5176 11.2922 73.2279 11.2717 73.8153 11.2717C75.1676 11.2717 76.2399 11.4015 77.0322 11.661C77.8382 11.9069 78.4119 12.2552 78.7534 12.706C79.1085 13.1568 79.2861 13.669 79.2861 14.2428C79.2861 14.7892 79.1495 15.2877 78.8763 15.7385C78.6168 16.1893 78.2684 16.5718 77.8313 16.886C77.4079 17.1865 76.9434 17.3982 76.438 17.5212V17.5621L79.8393 22.8895C80.2355 23.5179 80.5975 23.9482 80.9253 24.1804C81.2531 24.4126 81.5468 24.5287 81.8064 24.5287V25C81.5332 25.0956 81.2053 25.1707 80.8229 25.2254C80.454 25.28 80.092 25.3073 79.7369 25.3073ZM89.4136 25.3073C87.9793 25.3073 86.7089 25.0205 85.6025 24.4468C84.496 23.8731 83.6286 23.0671 83.0002 22.029C82.3719 20.9771 82.0577 19.7614 82.0577 18.3817C82.0577 17.248 82.2626 16.2371 82.6724 15.3492C83.0822 14.4477 83.6423 13.6759 84.3526 13.0338C85.0766 12.3918 85.903 11.9069 86.8319 11.5791C87.7744 11.2376 88.7784 11.0668 89.8439 11.0668C90.6498 11.0668 91.4216 11.1419 92.1593 11.2922C92.8969 11.4425 93.4843 11.62 93.9214 11.8249V15.0624H93.4501C93.1769 14.2291 92.8491 13.5939 92.4666 13.1568C92.0841 12.706 91.6538 12.3918 91.1757 12.2142C90.7113 12.0367 90.2195 11.9479 89.7005 11.9479C87.0641 11.9479 85.7459 13.8603 85.7459 17.6851C85.7459 18.9418 85.8757 20.0824 86.1352 21.1069C86.4084 22.1314 86.825 22.9442 87.3851 23.5452C87.9588 24.1326 88.6896 24.4263 89.5775 24.4263C90.3015 24.4263 90.9572 24.2487 91.5446 23.8935C92.1319 23.5247 92.6305 23.0398 93.0403 22.4388C93.4638 21.8377 93.7643 21.1889 93.9419 20.4922H94.4132L94.2492 23.6067C93.7985 24.0984 93.1633 24.5082 92.3437 24.8361C91.5241 25.1503 90.5474 25.3073 89.4136 25.3073ZM103.091 11.0668C104.061 11.0668 104.963 11.2307 105.796 11.5586C106.629 11.8864 107.367 12.3645 108.009 12.9929C108.651 13.6076 109.149 14.352 109.505 15.2263C109.86 16.1005 110.037 17.0772 110.037 18.1563C110.037 19.2355 109.86 20.2122 109.505 21.0864C109.149 21.9607 108.651 22.712 108.009 23.3403C107.38 23.9687 106.643 24.4536 105.796 24.7951C104.949 25.1366 104.041 25.3073 103.071 25.3073C102.114 25.3073 101.213 25.1434 100.366 24.8156C99.5327 24.4878 98.7951 24.0165 98.1531 23.4018C97.511 22.7734 97.0125 22.0221 96.6573 21.1479C96.3021 20.2736 96.1246 19.297 96.1246 18.2178C96.1246 17.1387 96.3021 16.162 96.6573 15.2877C97.0125 14.4135 97.5042 13.6622 98.1326 13.0338C98.7746 12.4055 99.5191 11.9206 100.366 11.5791C101.213 11.2376 102.121 11.0668 103.091 11.0668ZM103.501 24.4263C104.211 24.4263 104.771 24.1941 105.181 23.7296C105.591 23.2515 105.885 22.5958 106.062 21.7626C106.253 20.9293 106.349 19.9595 106.349 18.853C106.349 16.6264 106.008 14.9189 105.325 13.7305C104.655 12.5421 103.767 11.9479 102.661 11.9479C101.964 11.9479 101.404 12.1801 100.981 12.6445C100.571 13.109 100.27 13.7647 100.079 14.6116C99.9015 15.4448 99.8128 16.4147 99.8128 17.5212C99.8128 19.7477 100.147 21.4552 100.817 22.6437C101.5 23.8321 102.394 24.4263 103.501 24.4263ZM119.523 25.1639C119.413 24.8497 119.277 24.5287 119.113 24.2009C118.962 23.8594 118.758 23.4154 118.498 22.869L114.81 15.1648H114.769L114.4 22.951C114.386 23.4154 114.496 23.7911 114.728 24.078C114.96 24.3512 115.384 24.5014 115.998 24.5287V25L112.208 25V24.5287C112.604 24.5014 112.884 24.3512 113.048 24.078C113.225 23.7911 113.321 23.4154 113.335 22.951L113.765 13.4232C113.792 12.9451 113.758 12.6036 113.662 12.3987C113.58 12.1938 113.43 12.064 113.212 12.0093C112.993 11.941 112.699 11.8864 112.331 11.8454V11.3742H116.715C116.825 11.7293 116.948 12.064 117.084 12.3782C117.234 12.6923 117.398 13.0407 117.576 13.4232L121.1 20.7996H121.141L124.42 13.4232C124.734 12.7265 124.973 12.0435 125.137 11.3742H129.481V11.8454C129.221 11.8591 129.003 11.9001 128.825 11.9684C128.647 12.0367 128.518 12.1801 128.436 12.3987C128.367 12.6036 128.34 12.9451 128.354 13.4232L128.784 22.951C128.811 23.3881 128.866 23.716 128.948 23.9345C129.044 24.1531 129.194 24.3033 129.399 24.3853C129.604 24.4536 129.877 24.5014 130.218 24.5287V25H124.379V24.5287C124.816 24.5014 125.116 24.399 125.28 24.2214C125.458 24.0438 125.533 23.6203 125.506 22.951L125.157 14.5706H125.116L121.408 22.869C121.148 23.4428 120.957 23.8935 120.834 24.2214C120.725 24.5356 120.629 24.8497 120.547 25.1639H119.523ZM139.192 25.1639C139.083 24.8497 138.946 24.5287 138.782 24.2009C138.632 23.8594 138.427 23.4154 138.168 22.869L134.479 15.1648H134.438L134.07 22.951C134.056 23.4154 134.165 23.7911 134.397 24.078C134.63 24.3512 135.053 24.5014 135.668 24.5287V25H131.877V24.5287C132.273 24.5014 132.553 24.3512 132.717 24.078C132.895 23.7911 132.99 23.4154 133.004 22.951L133.434 13.4232C133.462 12.9451 133.428 12.6036 133.332 12.3987C133.25 12.1938 133.1 12.064 132.881 12.0093C132.663 11.941 132.369 11.8864 132 11.8454V11.3742H136.385C136.494 11.7293 136.617 12.064 136.754 12.3782C136.904 12.6923 137.068 13.0407 137.246 13.4232L140.77 20.7996H140.811L144.089 13.4232C144.403 12.7265 144.642 12.0435 144.806 11.3742H149.15V11.8454C148.891 11.8591 148.672 11.9001 148.495 11.9684C148.317 12.0367 148.187 12.1801 148.105 12.3987C148.037 12.6036 148.01 12.9451 148.023 13.4232L148.454 22.951C148.481 23.3881 148.536 23.716 148.617 23.9345C148.713 24.1531 148.863 24.3033 149.068 24.3853C149.273 24.4536 149.546 24.5014 149.888 24.5287V25H144.048V24.5287C144.485 24.5014 144.786 24.399 144.95 24.2214C145.127 24.0438 145.202 23.6203 145.175 22.951L144.827 14.5706H144.786L141.077 22.869C140.818 23.4428 140.626 23.8935 140.503 24.2214C140.394 24.5356 140.299 24.8497 140.217 25.1639H139.192ZM165.962 21.2094H166.433L166.228 25H156.352V24.5287C156.462 24.4741 156.626 24.3785 156.844 24.2419C157.076 24.1053 157.315 23.9482 157.561 23.7706C158.244 23.2788 158.886 22.7188 159.487 22.0904C160.088 21.4621 160.614 20.7927 161.065 20.0824C161.516 19.3721 161.871 18.6618 162.13 17.9514C162.39 17.2411 162.52 16.565 162.52 15.9229C162.52 15.3082 162.37 14.7892 162.069 14.3657C161.782 13.9422 161.256 13.7305 160.491 13.7305C159.849 13.7305 159.255 13.9081 158.709 14.2632C158.162 14.6184 157.623 15.1716 157.09 15.9229L156.701 15.5951C157.261 14.1745 157.964 13.1158 158.811 12.4191C159.658 11.7225 160.717 11.3742 161.987 11.3742C162.725 11.3742 163.387 11.4971 163.975 11.743C164.562 11.9752 165.026 12.344 165.368 12.8494C165.723 13.3412 165.901 13.9832 165.901 14.7755C165.901 16.1825 165.45 17.5007 164.548 18.7301C163.66 19.9595 162.417 21.1137 160.819 22.1929V22.2339H163.811C164.589 22.2339 165.129 22.1382 165.429 21.947C165.73 21.7558 165.907 21.5099 165.962 21.2094ZM174.683 11.3742C175.393 11.3742 176.09 11.5108 176.773 11.784C177.456 12.0572 178.071 12.4806 178.617 13.0543C179.163 13.6281 179.594 14.352 179.908 15.2263C180.236 16.0869 180.4 17.1114 180.4 18.2998C180.4 19.4745 180.243 20.499 179.928 21.3733C179.614 22.2475 179.184 22.9783 178.638 23.5657C178.091 24.1531 177.476 24.5902 176.793 24.8771C176.11 25.1639 175.4 25.3073 174.663 25.3073C173.952 25.3073 173.256 25.1707 172.573 24.8976C171.89 24.6244 171.275 24.2009 170.728 23.6272C170.182 23.0535 169.745 22.3363 169.417 21.4757C169.103 20.6015 168.946 19.5702 168.946 18.3817C168.946 17.207 169.103 16.1825 169.417 15.3082C169.731 14.434 170.162 13.7032 170.708 13.1158C171.254 12.5284 171.869 12.0913 172.552 11.8044C173.235 11.5176 173.945 11.3742 174.683 11.3742ZM174.744 24.4263C175.141 24.4263 175.503 24.2487 175.83 23.8935C176.158 23.5384 176.418 22.9373 176.609 22.0904C176.814 21.2435 176.916 20.0824 176.916 18.6071C176.916 17.3231 176.828 16.2098 176.65 15.2673C176.486 14.3111 176.233 13.5734 175.892 13.0543C175.55 12.5216 175.12 12.2552 174.601 12.2552C174.219 12.2552 173.857 12.4328 173.515 12.788C173.187 13.1431 172.921 13.7442 172.716 14.5911C172.525 15.438 172.429 16.5991 172.429 18.0744C172.429 19.3584 172.511 20.4785 172.675 21.4347C172.853 22.3773 173.112 23.1149 173.454 23.6477C173.795 24.1667 174.225 24.4263 174.744 24.4263ZM191.715 21.2094H192.186L191.981 25H182.105V24.5287C182.214 24.4741 182.378 24.3785 182.597 24.2419C182.829 24.1053 183.068 23.9482 183.314 23.7706C183.997 23.2788 184.639 22.7188 185.24 22.0904C185.841 21.4621 186.367 20.7927 186.818 20.0824C187.268 19.3721 187.623 18.6618 187.883 17.9514C188.143 17.2411 188.272 16.565 188.272 15.9229C188.272 15.3082 188.122 14.7892 187.822 14.3657C187.535 13.9422 187.009 13.7305 186.244 13.7305C185.602 13.7305 185.008 13.9081 184.461 14.2632C183.915 14.6184 183.375 15.1716 182.842 15.9229L182.453 15.5951C183.013 14.1745 183.717 13.1158 184.564 12.4191C185.411 11.7225 186.469 11.3742 187.74 11.3742C188.477 11.3742 189.14 11.4971 189.727 11.743C190.315 11.9752 190.779 12.344 191.12 12.8494C191.476 13.3412 191.653 13.9832 191.653 14.7755C191.653 16.1825 191.202 17.5007 190.301 18.7301C189.413 19.9595 188.17 21.1137 186.572 22.1929V22.2339H189.563C190.342 22.2339 190.881 22.1382 191.182 21.947C191.482 21.7558 191.66 21.5099 191.715 21.2094ZM203.099 19.7751H204.534V22.3363H203.673C203.29 22.3363 203.099 22.5754 203.099 23.0535C203.099 23.3813 203.099 23.7023 203.099 24.0165C203.113 24.317 203.127 24.6448 203.14 25H199.903C199.93 24.5492 199.951 24.1121 199.964 23.6886C199.978 23.2515 199.992 22.8007 200.005 22.3363H193.53V21.865C193.886 21.5235 194.207 21.1684 194.493 20.7996L201.194 12.4191C201.344 12.2279 201.481 12.0435 201.603 11.8659C201.74 11.6747 201.849 11.5108 201.931 11.3742H203.12L203.099 19.7751ZM199.964 15.4926L196.542 19.7751H200.026V15.4926H199.964Z" fill="white"/>
<path d="M233.818 15.2297C230.958 14.0878 227.603 14.6968 225.315 16.9806C222.227 20.0637 222.227 25.0499 225.315 28.133C227.603 30.4168 230.958 31.0258 233.818 29.8839V26.2299C233.246 26.4963 232.636 26.6486 231.987 26.6486C229.7 26.6486 227.87 24.8216 227.87 22.5378C227.87 20.254 229.7 18.427 231.987 18.427C232.636 18.427 233.284 18.5792 233.818 18.8457V15.2297Z" fill="white"/>
<path d="M232.522 11.5677C233.648 10.4386 233.648 8.56964 232.522 7.40155C231.396 6.2724 229.531 6.2724 228.366 7.40155C227.201 8.5307 227.24 10.3996 228.366 11.5677C229.531 12.6969 231.396 12.6969 232.522 11.5677Z" fill="white"/>
<path d="M252.73 25V24.5287C253.126 24.5014 253.413 24.399 253.59 24.2214C253.768 24.0438 253.857 23.6203 253.857 22.951V13.4232C253.857 12.7538 253.754 12.3304 253.549 12.1528C253.358 11.9615 252.982 11.8591 252.422 11.8454V11.3742H258.262V11.8454C257.866 11.8591 257.579 11.9615 257.402 12.1528C257.224 12.3304 257.135 12.7538 257.135 13.4232V22.951C257.135 23.6203 257.238 24.0438 257.442 24.2214C257.647 24.399 258.023 24.5014 258.569 24.5287V25H252.73ZM272.758 25.1639C272.554 24.9454 272.342 24.7336 272.123 24.5287C271.905 24.3102 271.556 23.9892 271.078 23.5657L263.005 16.1893H262.964V22.951C262.964 23.4154 263.08 23.7911 263.313 24.078C263.558 24.3512 263.975 24.5014 264.562 24.5287V25H260.772V24.5287C261.168 24.5014 261.455 24.3512 261.632 24.078C261.81 23.7911 261.899 23.4154 261.899 22.951L261.899 13.4232C261.899 12.7538 261.796 12.3304 261.591 12.1528C261.4 11.9615 261.024 11.8591 260.464 11.8454V11.3742H262.923C263.128 11.6337 263.347 11.8659 263.579 12.0708C263.811 12.2757 264.078 12.5216 264.378 12.8085L272.533 20.1849H272.574V13.4232C272.574 12.9587 272.458 12.5831 272.226 12.2962C271.993 12.0093 271.577 11.8591 270.976 11.8454V11.3742H274.766V11.8454C274.37 11.8591 274.083 12.0093 273.906 12.2962C273.728 12.5831 273.639 12.9587 273.639 13.4232V22.951C273.639 23.3335 273.639 23.7023 273.639 24.0575C273.653 24.399 273.667 24.7678 273.68 25.1639H272.758ZM276.387 11.3742H288.066V14.755H287.595C287.513 14.0174 287.294 13.4163 286.939 12.9519C286.584 12.4874 285.976 12.2552 285.116 12.2552H283.866V22.951C283.866 23.6203 283.968 24.0438 284.173 24.2214C284.378 24.399 284.754 24.5014 285.3 24.5287V25L279.46 25V24.5287C279.857 24.5014 280.143 24.399 280.321 24.2214C280.499 24.0438 280.587 23.6203 280.587 22.951V12.2552H279.317C278.484 12.2552 277.883 12.4874 277.514 12.9519C277.159 13.4163 276.94 14.0174 276.858 14.755H276.387V11.3742ZM289.926 25V24.5287C290.322 24.5014 290.609 24.399 290.786 24.2214C290.964 24.0438 291.052 23.6203 291.052 22.951V13.4232C291.052 12.7538 290.95 12.3304 290.745 12.1528C290.554 11.9615 290.178 11.8591 289.618 11.8454V11.3742L299.679 11.3742V14.2428L299.207 14.2428C299.18 13.6554 298.975 13.1773 298.593 12.8085C298.224 12.4396 297.65 12.2552 296.872 12.2552H295.232C294.946 12.2552 294.72 12.3304 294.556 12.4806C294.406 12.6309 294.331 12.9451 294.331 13.4232V17.4597C294.44 17.3777 294.57 17.3231 294.72 17.2958C294.884 17.2684 295.075 17.2548 295.294 17.2548H297.281C297.691 17.2548 298.033 17.1387 298.306 16.9065C298.579 16.6742 298.723 16.3532 298.736 15.9434H299.207V19.4267H298.736C298.723 18.9213 298.579 18.5798 298.306 18.4022C298.033 18.2246 297.691 18.1359 297.281 18.1359H295.335C294.966 18.1359 294.707 18.1973 294.556 18.3203C294.406 18.4432 294.331 18.6823 294.331 19.0374V22.951C294.331 23.4291 294.433 23.7433 294.638 23.8935C294.857 24.0438 295.273 24.1189 295.888 24.1189H297.835C298.654 24.1189 299.303 23.8731 299.781 23.3813C300.259 22.8895 300.526 22.3022 300.58 21.6192H301.052L300.888 25H289.926ZM314.798 25.3073C314.183 25.3073 313.657 25.2049 313.22 25C312.783 24.8088 312.414 24.5492 312.114 24.2214C311.813 23.8935 311.533 23.5316 311.274 23.1354L308.405 18.6686C308.268 18.4364 308.146 18.2929 308.036 18.2383C307.927 18.1837 307.797 18.1495 307.647 18.1359V17.4187C308.467 17.3641 309.102 17.2001 309.553 16.9269C310.003 16.6537 310.317 16.3191 310.495 15.9229C310.673 15.5131 310.761 15.0897 310.761 14.6526C310.761 13.8193 310.529 13.1978 310.065 12.788C309.6 12.3645 309.068 12.1528 308.467 12.1528C308.016 12.1528 307.695 12.2347 307.504 12.3987C307.326 12.5489 307.237 12.8904 307.237 13.4232V22.951C307.237 23.6203 307.34 24.0438 307.544 24.2214C307.749 24.399 308.125 24.5014 308.671 24.5287V25H302.832V24.5287C303.228 24.5014 303.515 24.399 303.692 24.2214C303.87 24.0438 303.959 23.6203 303.959 22.951V13.4232C303.959 12.7538 303.856 12.3304 303.651 12.1528C303.46 11.9615 303.085 11.8591 302.524 11.8454V11.3742H303.959C304.983 11.3742 305.912 11.3605 306.745 11.3332C307.579 11.2922 308.289 11.2717 308.876 11.2717C310.229 11.2717 311.301 11.4015 312.093 11.661C312.899 11.9069 313.473 12.2552 313.814 12.706C314.17 13.1568 314.347 13.669 314.347 14.2428C314.347 14.7892 314.211 15.2877 313.937 15.7385C313.678 16.1893 313.33 16.5718 312.892 16.886C312.469 17.1865 312.004 17.3982 311.499 17.5212V17.5621L314.9 22.8895C315.297 23.5179 315.659 23.9482 315.986 24.1804C316.314 24.4126 316.608 24.5287 316.867 24.5287V25C316.594 25.0956 316.266 25.1707 315.884 25.2254C315.515 25.28 315.153 25.3073 314.798 25.3073ZM324.475 25.3073C323.04 25.3073 321.77 25.0205 320.664 24.4468C319.557 23.8731 318.69 23.0671 318.061 22.029C317.433 20.9771 317.119 19.7614 317.119 18.3817C317.119 17.248 317.324 16.2371 317.733 15.3492C318.143 14.4477 318.703 13.6759 319.414 13.0338C320.138 12.3918 320.964 11.9069 321.893 11.5791C322.835 11.2376 323.839 11.0668 324.905 11.0668C325.711 11.0668 326.483 11.1419 327.22 11.2922C327.958 11.4425 328.545 11.62 328.982 11.8249V15.0624H328.511C328.238 14.2291 327.91 13.5939 327.528 13.1568C327.145 12.706 326.715 12.3918 326.237 12.2142C325.772 12.0367 325.281 11.9479 324.762 11.9479C322.125 11.9479 320.807 13.8603 320.807 17.6851C320.807 18.9418 320.937 20.0824 321.196 21.1069C321.469 22.1314 321.886 22.9442 322.446 23.5452C323.02 24.1326 323.751 24.4263 324.639 24.4263C325.363 24.4263 326.018 24.2487 326.606 23.8935C327.193 23.5247 327.692 23.0398 328.101 22.4388C328.525 21.8377 328.825 21.1889 329.003 20.4922H329.474L329.31 23.6067C328.86 24.0984 328.224 24.5082 327.405 24.8361C326.585 25.1503 325.608 25.3073 324.475 25.3073ZM338.152 11.0668C339.122 11.0668 340.024 11.2307 340.857 11.5586C341.69 11.8864 342.428 12.3645 343.07 12.9929C343.712 13.6076 344.21 14.352 344.566 15.2263C344.921 16.1005 345.098 17.0772 345.098 18.1563C345.098 19.2355 344.921 20.2122 344.566 21.0864C344.21 21.9607 343.712 22.712 343.07 23.3403C342.441 23.9687 341.704 24.4536 340.857 24.7951C340.01 25.1366 339.102 25.3073 338.132 25.3073C337.176 25.3073 336.274 25.1434 335.427 24.8156C334.594 24.4878 333.856 24.0165 333.214 23.4018C332.572 22.7734 332.074 22.0221 331.718 21.1479C331.363 20.2736 331.186 19.297 331.186 18.2178C331.186 17.1387 331.363 16.162 331.718 15.2877C332.074 14.4135 332.565 13.6622 333.194 13.0338C333.836 12.4055 334.58 11.9206 335.427 11.5791C336.274 11.2376 337.182 11.0668 338.152 11.0668ZM338.562 24.4263C339.272 24.4263 339.832 24.1941 340.242 23.7296C340.652 23.2515 340.946 22.5958 341.123 21.7626C341.315 20.9293 341.41 19.9595 341.41 18.853C341.41 16.6264 341.069 14.9189 340.386 13.7305C339.716 12.5421 338.828 11.9479 337.722 11.9479C337.025 11.9479 336.465 12.1801 336.042 12.6445C335.632 13.109 335.331 13.7647 335.14 14.6116C334.963 15.4448 334.874 16.4147 334.874 17.5212C334.874 19.7477 335.208 21.4552 335.878 22.6437C336.561 23.8321 337.456 24.4263 338.562 24.4263ZM354.584 25.1639C354.474 24.8497 354.338 24.5287 354.174 24.2009C354.024 23.8594 353.819 23.4154 353.559 22.869L349.871 15.1648H349.83L349.461 22.951C349.447 23.4154 349.557 23.7911 349.789 24.078C350.021 24.3512 350.445 24.5014 351.059 24.5287V25L347.269 25V24.5287C347.665 24.5014 347.945 24.3512 348.109 24.078C348.286 23.7911 348.382 23.4154 348.396 22.951L348.826 13.4232C348.853 12.9451 348.819 12.6036 348.723 12.3987C348.641 12.1938 348.491 12.064 348.273 12.0093C348.054 11.941 347.76 11.8864 347.392 11.8454V11.3742H351.776C351.886 11.7293 352.009 12.064 352.145 12.3782C352.296 12.6923 352.459 13.0407 352.637 13.4232L356.161 20.7996H356.202L359.481 13.4232C359.795 12.7265 360.034 12.0435 360.198 11.3742H364.542V11.8454C364.282 11.8591 364.064 11.9001 363.886 11.9684C363.708 12.0367 363.579 12.1801 363.497 12.3987C363.428 12.6036 363.401 12.9451 363.415 13.4232L363.845 22.951C363.872 23.3881 363.927 23.716 364.009 23.9345C364.105 24.1531 364.255 24.3033 364.46 24.3853C364.665 24.4536 364.938 24.5014 365.279 24.5287V25H359.44V24.5287C359.877 24.5014 360.177 24.399 360.341 24.2214C360.519 24.0438 360.594 23.6203 360.567 22.951L360.218 14.5706H360.177L356.469 22.869C356.209 23.4428 356.018 23.8935 355.895 24.2214C355.786 24.5356 355.69 24.8497 355.608 25.1639H354.584ZM374.253 25.1639C374.144 24.8497 374.007 24.5287 373.843 24.2009C373.693 23.8594 373.488 23.4154 373.229 22.869L369.54 15.1648H369.499L369.131 22.951C369.117 23.4154 369.226 23.7911 369.459 24.078C369.691 24.3512 370.114 24.5014 370.729 24.5287V25H366.938V24.5287C367.334 24.5014 367.614 24.3512 367.778 24.078C367.956 23.7911 368.052 23.4154 368.065 22.951L368.495 13.4232C368.523 12.9451 368.489 12.6036 368.393 12.3987C368.311 12.1938 368.161 12.064 367.942 12.0093C367.724 11.941 367.43 11.8864 367.061 11.8454V11.3742H371.446C371.555 11.7293 371.678 12.064 371.815 12.3782C371.965 12.6923 372.129 13.0407 372.307 13.4232L375.831 20.7996H375.872L379.15 13.4232C379.464 12.7265 379.704 12.0435 379.867 11.3742H384.211V11.8454C383.952 11.8591 383.733 11.9001 383.556 11.9684C383.378 12.0367 383.248 12.1801 383.166 12.3987C383.098 12.6036 383.071 12.9451 383.084 13.4232L383.515 22.951C383.542 23.3881 383.597 23.716 383.679 23.9345C383.774 24.1531 383.924 24.3033 384.129 24.3853C384.334 24.4536 384.607 24.5014 384.949 24.5287V25H379.109V24.5287C379.546 24.5014 379.847 24.399 380.011 24.2214C380.188 24.0438 380.264 23.6203 380.236 22.951L379.888 14.5706H379.847L376.138 22.869C375.879 23.4428 375.687 23.8935 375.565 24.2214C375.455 24.5356 375.36 24.8497 375.278 25.1639H374.253ZM401.023 21.2094H401.494L401.29 25H391.413V24.5287C391.523 24.4741 391.687 24.3785 391.905 24.2419C392.137 24.1053 392.376 23.9482 392.622 23.7706C393.305 23.2788 393.947 22.7188 394.548 22.0904C395.149 21.4621 395.675 20.7927 396.126 20.0824C396.577 19.3721 396.932 18.6618 397.192 17.9514C397.451 17.2411 397.581 16.565 397.581 15.9229C397.581 15.3082 397.431 14.7892 397.13 14.3657C396.843 13.9422 396.317 13.7305 395.552 13.7305C394.91 13.7305 394.316 13.9081 393.77 14.2632C393.223 14.6184 392.684 15.1716 392.151 15.9229L391.762 15.5951C392.322 14.1745 393.025 13.1158 393.872 12.4191C394.719 11.7225 395.778 11.3742 397.048 11.3742C397.786 11.3742 398.448 11.4971 399.036 11.743C399.623 11.9752 400.087 12.344 400.429 12.8494C400.784 13.3412 400.962 13.9832 400.962 14.7755C400.962 16.1825 400.511 17.5007 399.609 18.7301C398.721 19.9595 397.478 21.1137 395.88 22.1929V22.2339H398.872C399.65 22.2339 400.19 22.1382 400.49 21.947C400.791 21.7558 400.969 21.5099 401.023 21.2094ZM409.744 11.3742C410.454 11.3742 411.151 11.5108 411.834 11.784C412.517 12.0572 413.132 12.4806 413.678 13.0543C414.225 13.6281 414.655 14.352 414.969 15.2263C415.297 16.0869 415.461 17.1114 415.461 18.2998C415.461 19.4745 415.304 20.499 414.99 21.3733C414.675 22.2475 414.245 22.9783 413.699 23.5657C413.152 24.1531 412.538 24.5902 411.855 24.8771C411.172 25.1639 410.461 25.3073 409.724 25.3073C409.013 25.3073 408.317 25.1707 407.634 24.8976C406.951 24.6244 406.336 24.2009 405.789 23.6272C405.243 23.0535 404.806 22.3363 404.478 21.4757C404.164 20.6015 404.007 19.5702 404.007 18.3817C404.007 17.207 404.164 16.1825 404.478 15.3082C404.792 14.434 405.223 13.7032 405.769 13.1158C406.315 12.5284 406.93 12.0913 407.613 11.8044C408.296 11.5176 409.006 11.3742 409.744 11.3742ZM409.806 24.4263C410.202 24.4263 410.564 24.2487 410.892 23.8935C411.219 23.5384 411.479 22.9373 411.67 22.0904C411.875 21.2435 411.977 20.0824 411.977 18.6071C411.977 17.3231 411.889 16.2098 411.711 15.2673C411.547 14.3111 411.294 13.5734 410.953 13.0543C410.611 12.5216 410.181 12.2552 409.662 12.2552C409.28 12.2552 408.918 12.4328 408.576 12.788C408.248 13.1431 407.982 13.7442 407.777 14.5911C407.586 15.438 407.49 16.5991 407.49 18.0744C407.49 19.3584 407.572 20.4785 407.736 21.4347C407.914 22.3773 408.173 23.1149 408.515 23.6477C408.856 24.1667 409.286 24.4263 409.806 24.4263ZM426.776 21.2094H427.247L427.042 25H417.166V24.5287C417.275 24.4741 417.439 24.3785 417.658 24.2419C417.89 24.1053 418.129 23.9482 418.375 23.7706C419.058 23.2788 419.7 22.7188 420.301 22.0904C420.902 21.4621 421.428 20.7927 421.879 20.0824C422.329 19.3721 422.685 18.6618 422.944 17.9514C423.204 17.2411 423.333 16.565 423.333 15.9229C423.333 15.3082 423.183 14.7892 422.883 14.3657C422.596 13.9422 422.07 13.7305 421.305 13.7305C420.663 13.7305 420.069 13.9081 419.522 14.2632C418.976 14.6184 418.436 15.1716 417.904 15.9229L417.514 15.5951C418.074 14.1745 418.778 13.1158 419.625 12.4191C420.472 11.7225 421.53 11.3742 422.801 11.3742C423.538 11.3742 424.201 11.4971 424.788 11.743C425.376 11.9752 425.84 12.344 426.182 12.8494C426.537 13.3412 426.714 13.9832 426.714 14.7755C426.714 16.1825 426.263 17.5007 425.362 18.7301C424.474 19.9595 423.231 21.1137 421.633 22.1929V22.2339H424.624C425.403 22.2339 425.942 22.1382 426.243 21.947C426.544 21.7558 426.721 21.5099 426.776 21.2094ZM438.16 19.7751H439.595V22.3363H438.734C438.352 22.3363 438.16 22.5754 438.16 23.0535C438.16 23.3813 438.16 23.7023 438.16 24.0165C438.174 24.317 438.188 24.6448 438.201 25H434.964C434.991 24.5492 435.012 24.1121 435.025 23.6886C435.039 23.2515 435.053 22.8007 435.066 22.3363H428.591V21.865C428.947 21.5235 429.268 21.1684 429.555 20.7996L436.255 12.4191C436.405 12.2279 436.542 12.0435 436.665 11.8659C436.801 11.6747 436.91 11.5108 436.992 11.3742H438.181L438.16 19.7751ZM435.025 15.4926L431.604 19.7751H435.087V15.4926H435.025Z" fill="white"/>
<path d="M468.879 15.2297C466.019 14.0878 462.664 14.6968 460.376 16.9806C457.288 20.0637 457.288 25.0499 460.376 28.133C462.664 30.4168 466.019 31.0258 468.879 29.8839V26.2299C468.307 26.4963 467.697 26.6486 467.049 26.6486C464.761 26.6486 462.931 24.8216 462.931 22.5378C462.931 20.254 464.761 18.427 467.049 18.427C467.697 18.427 468.345 18.5792 468.879 18.8457V15.2297Z" fill="white"/>
<path d="M467.583 11.5677C468.709 10.4386 468.709 8.56964 467.583 7.40155C466.457 6.2724 464.592 6.2724 463.427 7.40155C462.262 8.5307 462.301 10.3996 463.427 11.5677C464.592 12.6969 466.457 12.6969 467.583 11.5677Z" fill="white"/>
<path d="M487.791 25V24.5287C488.187 24.5014 488.474 24.399 488.651 24.2214C488.829 24.0438 488.918 23.6203 488.918 22.951V13.4232C488.918 12.7538 488.815 12.3304 488.61 12.1528C488.419 11.9615 488.044 11.8591 487.484 11.8454V11.3742H493.323V11.8454C492.927 11.8591 492.64 11.9615 492.463 12.1528C492.285 12.3304 492.196 12.7538 492.196 13.4232V22.951C492.196 23.6203 492.299 24.0438 492.504 24.2214C492.708 24.399 493.084 24.5014 493.631 24.5287V25H487.791ZM507.82 25.1639C507.615 24.9454 507.403 24.7336 507.184 24.5287C506.966 24.3102 506.617 23.9892 506.139 23.5657L498.066 16.1893H498.025V22.951C498.025 23.4154 498.141 23.7911 498.374 24.078C498.62 24.3512 499.036 24.5014 499.624 24.5287V25H495.833V24.5287C496.229 24.5014 496.516 24.3512 496.693 24.078C496.871 23.7911 496.96 23.4154 496.96 22.951L496.96 13.4232C496.96 12.7538 496.857 12.3304 496.652 12.1528C496.461 11.9615 496.086 11.8591 495.526 11.8454V11.3742H497.984C498.189 11.6337 498.408 11.8659 498.64 12.0708C498.872 12.2757 499.139 12.5216 499.439 12.8085L507.594 20.1849H507.635V13.4232C507.635 12.9587 507.519 12.5831 507.287 12.2962C507.055 12.0093 506.638 11.8591 506.037 11.8454V11.3742H509.828V11.8454C509.431 11.8591 509.145 12.0093 508.967 12.2962C508.789 12.5831 508.701 12.9587 508.701 13.4232V22.951C508.701 23.3335 508.701 23.7023 508.701 24.0575C508.714 24.399 508.728 24.7678 508.742 25.1639H507.82ZM511.448 11.3742H523.127V14.755H522.656C522.574 14.0174 522.355 13.4163 522 12.9519C521.645 12.4874 521.037 12.2552 520.177 12.2552H518.927V22.951C518.927 23.6203 519.029 24.0438 519.234 24.2214C519.439 24.399 519.815 24.5014 520.361 24.5287V25L514.521 25V24.5287C514.918 24.5014 515.204 24.399 515.382 24.2214C515.56 24.0438 515.648 23.6203 515.648 22.951V12.2552H514.378C513.545 12.2552 512.944 12.4874 512.575 12.9519C512.22 13.4163 512.001 14.0174 511.919 14.755H511.448V11.3742ZM524.987 25V24.5287C525.383 24.5014 525.67 24.399 525.847 24.2214C526.025 24.0438 526.114 23.6203 526.114 22.951V13.4232C526.114 12.7538 526.011 12.3304 525.806 12.1528C525.615 11.9615 525.239 11.8591 524.679 11.8454V11.3742L534.74 11.3742V14.2428L534.269 14.2428C534.241 13.6554 534.036 13.1773 533.654 12.8085C533.285 12.4396 532.711 12.2552 531.933 12.2552H530.294C530.007 12.2552 529.781 12.3304 529.617 12.4806C529.467 12.6309 529.392 12.9451 529.392 13.4232V17.4597C529.501 17.3777 529.631 17.3231 529.781 17.2958C529.945 17.2684 530.136 17.2548 530.355 17.2548H532.342C532.752 17.2548 533.094 17.1387 533.367 16.9065C533.64 16.6742 533.784 16.3532 533.797 15.9434H534.269V19.4267H533.797C533.784 18.9213 533.64 18.5798 533.367 18.4022C533.094 18.2246 532.752 18.1359 532.342 18.1359H530.396C530.027 18.1359 529.768 18.1973 529.617 18.3203C529.467 18.4432 529.392 18.6823 529.392 19.0374V22.951C529.392 23.4291 529.494 23.7433 529.699 23.8935C529.918 24.0438 530.334 24.1189 530.949 24.1189H532.896C533.715 24.1189 534.364 23.8731 534.842 23.3813C535.32 22.8895 535.587 22.3022 535.641 21.6192H536.113L535.949 25H524.987ZM549.859 25.3073C549.244 25.3073 548.718 25.2049 548.281 25C547.844 24.8088 547.475 24.5492 547.175 24.2214C546.874 23.8935 546.594 23.5316 546.335 23.1354L543.466 18.6686C543.33 18.4364 543.207 18.2929 543.097 18.2383C542.988 18.1837 542.858 18.1495 542.708 18.1359V17.4187C543.528 17.3641 544.163 17.2001 544.614 16.9269C545.064 16.6537 545.379 16.3191 545.556 15.9229C545.734 15.5131 545.823 15.0897 545.823 14.6526C545.823 13.8193 545.59 13.1978 545.126 12.788C544.661 12.3645 544.129 12.1528 543.528 12.1528C543.077 12.1528 542.756 12.2347 542.565 12.3987C542.387 12.5489 542.298 12.8904 542.298 13.4232V22.951C542.298 23.6203 542.401 24.0438 542.606 24.2214C542.81 24.399 543.186 24.5014 543.733 24.5287V25H537.893V24.5287C538.289 24.5014 538.576 24.399 538.753 24.2214C538.931 24.0438 539.02 23.6203 539.02 22.951V13.4232C539.02 12.7538 538.917 12.3304 538.712 12.1528C538.521 11.9615 538.146 11.8591 537.586 11.8454V11.3742H539.02C540.044 11.3742 540.973 11.3605 541.806 11.3332C542.64 11.2922 543.35 11.2717 543.937 11.2717C545.29 11.2717 546.362 11.4015 547.154 11.661C547.96 11.9069 548.534 12.2552 548.876 12.706C549.231 13.1568 549.408 13.669 549.408 14.2428C549.408 14.7892 549.272 15.2877 548.998 15.7385C548.739 16.1893 548.391 16.5718 547.953 16.886C547.53 17.1865 547.066 17.3982 546.56 17.5212V17.5621L549.961 22.8895C550.358 23.5179 550.72 23.9482 551.047 24.1804C551.375 24.4126 551.669 24.5287 551.929 24.5287V25C551.655 25.0956 551.327 25.1707 550.945 25.2254C550.576 25.28 550.214 25.3073 549.859 25.3073ZM559.536 25.3073C558.101 25.3073 556.831 25.0205 555.725 24.4468C554.618 23.8731 553.751 23.0671 553.122 22.029C552.494 20.9771 552.18 19.7614 552.18 18.3817C552.18 17.248 552.385 16.2371 552.795 15.3492C553.204 14.4477 553.764 13.6759 554.475 13.0338C555.199 12.3918 556.025 11.9069 556.954 11.5791C557.897 11.2376 558.901 11.0668 559.966 11.0668C560.772 11.0668 561.544 11.1419 562.281 11.2922C563.019 11.4425 563.606 11.62 564.044 11.8249V15.0624H563.572C563.299 14.2291 562.971 13.5939 562.589 13.1568C562.206 12.706 561.776 12.3918 561.298 12.2142C560.833 12.0367 560.342 11.9479 559.823 11.9479C557.186 11.9479 555.868 13.8603 555.868 17.6851C555.868 18.9418 555.998 20.0824 556.257 21.1069C556.531 22.1314 556.947 22.9442 557.507 23.5452C558.081 24.1326 558.812 24.4263 559.7 24.4263C560.424 24.4263 561.079 24.2487 561.667 23.8935C562.254 23.5247 562.753 23.0398 563.162 22.4388C563.586 21.8377 563.886 21.1889 564.064 20.4922H564.535L564.371 23.6067C563.921 24.0984 563.285 24.5082 562.466 24.8361C561.646 25.1503 560.67 25.3073 559.536 25.3073ZM573.213 11.0668C574.183 11.0668 575.085 11.2307 575.918 11.5586C576.751 11.8864 577.489 12.3645 578.131 12.9929C578.773 13.6076 579.272 14.352 579.627 15.2263C579.982 16.1005 580.159 17.0772 580.159 18.1563C580.159 19.2355 579.982 20.2122 579.627 21.0864C579.272 21.9607 578.773 22.712 578.131 23.3403C577.503 23.9687 576.765 24.4536 575.918 24.7951C575.071 25.1366 574.163 25.3073 573.193 25.3073C572.237 25.3073 571.335 25.1434 570.488 24.8156C569.655 24.4878 568.917 24.0165 568.275 23.4018C567.633 22.7734 567.135 22.0221 566.779 21.1479C566.424 20.2736 566.247 19.297 566.247 18.2178C566.247 17.1387 566.424 16.162 566.779 15.2877C567.135 14.4135 567.626 13.6622 568.255 13.0338C568.897 12.4055 569.641 11.9206 570.488 11.5791C571.335 11.2376 572.243 11.0668 573.213 11.0668ZM573.623 24.4263C574.333 24.4263 574.893 24.1941 575.303 23.7296C575.713 23.2515 576.007 22.5958 576.184 21.7626C576.376 20.9293 576.471 19.9595 576.471 18.853C576.471 16.6264 576.13 14.9189 575.447 13.7305C574.777 12.5421 573.889 11.9479 572.783 11.9479C572.086 11.9479 571.526 12.1801 571.103 12.6445C570.693 13.109 570.393 13.7647 570.201 14.6116C570.024 15.4448 569.935 16.4147 569.935 17.5212C569.935 19.7477 570.27 21.4552 570.939 22.6437C571.622 23.8321 572.517 24.4263 573.623 24.4263ZM589.645 25.1639C589.535 24.8497 589.399 24.5287 589.235 24.2009C589.085 23.8594 588.88 23.4154 588.62 22.869L584.932 15.1648H584.891L584.522 22.951C584.509 23.4154 584.618 23.7911 584.85 24.078C585.082 24.3512 585.506 24.5014 586.12 24.5287V25L582.33 25V24.5287C582.726 24.5014 583.006 24.3512 583.17 24.078C583.347 23.7911 583.443 23.4154 583.457 22.951L583.887 13.4232C583.914 12.9451 583.88 12.6036 583.785 12.3987C583.703 12.1938 583.552 12.064 583.334 12.0093C583.115 11.941 582.821 11.8864 582.453 11.8454V11.3742H586.838C586.947 11.7293 587.07 12.064 587.206 12.3782C587.357 12.6923 587.521 13.0407 587.698 13.4232L591.222 20.7996H591.263L594.542 13.4232C594.856 12.7265 595.095 12.0435 595.259 11.3742H599.603V11.8454C599.343 11.8591 599.125 11.9001 598.947 11.9684C598.77 12.0367 598.64 12.1801 598.558 12.3987C598.49 12.6036 598.462 12.9451 598.476 13.4232L598.906 22.951C598.933 23.3881 598.988 23.716 599.07 23.9345C599.166 24.1531 599.316 24.3033 599.521 24.3853C599.726 24.4536 599.999 24.5014 600.34 24.5287V25H594.501V24.5287C594.938 24.5014 595.238 24.399 595.402 24.2214C595.58 24.0438 595.655 23.6203 595.628 22.951L595.279 14.5706H595.238L591.53 22.869C591.27 23.4428 591.079 23.8935 590.956 24.2214C590.847 24.5356 590.751 24.8497 590.669 25.1639H589.645ZM609.314 25.1639C609.205 24.8497 609.068 24.5287 608.904 24.2009C608.754 23.8594 608.549 23.4154 608.29 22.869L604.602 15.1648H604.561L604.192 22.951C604.178 23.4154 604.287 23.7911 604.52 24.078C604.752 24.3512 605.175 24.5014 605.79 24.5287V25H601.999V24.5287C602.395 24.5014 602.675 24.3512 602.839 24.078C603.017 23.7911 603.113 23.4154 603.126 22.951L603.557 13.4232C603.584 12.9451 603.55 12.6036 603.454 12.3987C603.372 12.1938 603.222 12.064 603.003 12.0093C602.785 11.941 602.491 11.8864 602.122 11.8454V11.3742H606.507C606.616 11.7293 606.739 12.064 606.876 12.3782C607.026 12.6923 607.19 13.0407 607.368 13.4232L610.892 20.7996H610.933L614.211 13.4232C614.526 12.7265 614.765 12.0435 614.929 11.3742H619.272V11.8454C619.013 11.8591 618.794 11.9001 618.617 11.9684C618.439 12.0367 618.309 12.1801 618.227 12.3987C618.159 12.6036 618.132 12.9451 618.145 13.4232L618.576 22.951C618.603 23.3881 618.658 23.716 618.74 23.9345C618.835 24.1531 618.986 24.3033 619.19 24.3853C619.395 24.4536 619.669 24.5014 620.01 24.5287V25H614.17V24.5287C614.607 24.5014 614.908 24.399 615.072 24.2214C615.25 24.0438 615.325 23.6203 615.297 22.951L614.949 14.5706H614.908L611.199 22.869C610.94 23.4428 610.749 23.8935 610.626 24.2214C610.516 24.5356 610.421 24.8497 610.339 25.1639H609.314ZM636.084 21.2094H636.556L636.351 25H626.474V24.5287C626.584 24.4741 626.748 24.3785 626.966 24.2419C627.198 24.1053 627.437 23.9482 627.683 23.7706C628.366 23.2788 629.008 22.7188 629.609 22.0904C630.21 21.4621 630.736 20.7927 631.187 20.0824C631.638 19.3721 631.993 18.6618 632.253 17.9514C632.512 17.2411 632.642 16.565 632.642 15.9229C632.642 15.3082 632.492 14.7892 632.191 14.3657C631.904 13.9422 631.378 13.7305 630.613 13.7305C629.971 13.7305 629.377 13.9081 628.831 14.2632C628.284 14.6184 627.745 15.1716 627.212 15.9229L626.823 15.5951C627.383 14.1745 628.086 13.1158 628.933 12.4191C629.78 11.7225 630.839 11.3742 632.109 11.3742C632.847 11.3742 633.509 11.4971 634.097 11.743C634.684 11.9752 635.149 12.344 635.49 12.8494C635.845 13.3412 636.023 13.9832 636.023 14.7755C636.023 16.1825 635.572 17.5007 634.67 18.7301C633.783 19.9595 632.539 21.1137 630.941 22.1929V22.2339H633.933C634.711 22.2339 635.251 22.1382 635.552 21.947C635.852 21.7558 636.03 21.5099 636.084 21.2094ZM644.805 11.3742C645.515 11.3742 646.212 11.5108 646.895 11.784C647.578 12.0572 648.193 12.4806 648.739 13.0543C649.286 13.6281 649.716 14.352 650.03 15.2263C650.358 16.0869 650.522 17.1114 650.522 18.2998C650.522 19.4745 650.365 20.499 650.051 21.3733C649.736 22.2475 649.306 22.9783 648.76 23.5657C648.213 24.1531 647.599 24.5902 646.916 24.8771C646.233 25.1639 645.522 25.3073 644.785 25.3073C644.074 25.3073 643.378 25.1707 642.695 24.8976C642.012 24.6244 641.397 24.2009 640.851 23.6272C640.304 23.0535 639.867 22.3363 639.539 21.4757C639.225 20.6015 639.068 19.5702 639.068 18.3817C639.068 17.207 639.225 16.1825 639.539 15.3082C639.853 14.434 640.284 13.7032 640.83 13.1158C641.376 12.5284 641.991 12.0913 642.674 11.8044C643.357 11.5176 644.068 11.3742 644.805 11.3742ZM644.867 24.4263C645.263 24.4263 645.625 24.2487 645.953 23.8935C646.28 23.5384 646.54 22.9373 646.731 22.0904C646.936 21.2435 647.039 20.0824 647.039 18.6071C647.039 17.3231 646.95 16.2098 646.772 15.2673C646.608 14.3111 646.356 13.5734 646.014 13.0543C645.673 12.5216 645.242 12.2552 644.723 12.2552C644.341 12.2552 643.979 12.4328 643.637 12.788C643.309 13.1431 643.043 13.7442 642.838 14.5911C642.647 15.438 642.551 16.5991 642.551 18.0744C642.551 19.3584 642.633 20.4785 642.797 21.4347C642.975 22.3773 643.234 23.1149 643.576 23.6477C643.917 24.1667 644.348 24.4263 644.867 24.4263ZM661.837 21.2094H662.308L662.103 25H652.227V24.5287C652.336 24.4741 652.5 24.3785 652.719 24.2419C652.951 24.1053 653.19 23.9482 653.436 23.7706C654.119 23.2788 654.761 22.7188 655.362 22.0904C655.963 21.4621 656.489 20.7927 656.94 20.0824C657.39 19.3721 657.746 18.6618 658.005 17.9514C658.265 17.2411 658.394 16.565 658.394 15.9229C658.394 15.3082 658.244 14.7892 657.944 14.3657C657.657 13.9422 657.131 13.7305 656.366 13.7305C655.724 13.7305 655.13 13.9081 654.583 14.2632C654.037 14.6184 653.497 15.1716 652.965 15.9229L652.575 15.5951C653.135 14.1745 653.839 13.1158 654.686 12.4191C655.533 11.7225 656.591 11.3742 657.862 11.3742C658.599 11.3742 659.262 11.4971 659.849 11.743C660.437 11.9752 660.901 12.344 661.243 12.8494C661.598 13.3412 661.775 13.9832 661.775 14.7755C661.775 16.1825 661.325 17.5007 660.423 18.7301C659.535 19.9595 658.292 21.1137 656.694 22.1929V22.2339H659.685C660.464 22.2339 661.004 22.1382 661.304 21.947C661.605 21.7558 661.782 21.5099 661.837 21.2094ZM673.221 19.7751H674.656V22.3363H673.795C673.413 22.3363 673.221 22.5754 673.221 23.0535C673.221 23.3813 673.221 23.7023 673.221 24.0165C673.235 24.317 673.249 24.6448 673.262 25H670.025C670.052 24.5492 670.073 24.1121 670.086 23.6886C670.1 23.2515 670.114 22.8007 670.127 22.3363H663.653V21.865C664.008 21.5235 664.329 21.1684 664.616 20.7996L671.316 12.4191C671.466 12.2279 671.603 12.0435 671.726 11.8659C671.862 11.6747 671.972 11.5108 672.053 11.3742H673.242L673.221 19.7751ZM670.086 15.4926L666.665 19.7751H670.148V15.4926H670.086Z" fill="white"/>
<path d="M703.94 15.2297C701.08 14.0878 697.725 14.6968 695.438 16.9806C692.349 20.0637 692.349 25.0499 695.438 28.133C697.725 30.4168 701.08 31.0258 703.94 29.8839V26.2299C703.368 26.4963 702.758 26.6486 702.11 26.6486C699.822 26.6486 697.992 24.8216 697.992 22.5378C697.992 20.254 699.822 18.427 702.11 18.427C702.758 18.427 703.406 18.5792 703.94 18.8457V15.2297Z" fill="white"/>
<path d="M702.644 11.5677C703.77 10.4386 703.77 8.56964 702.644 7.40155C701.518 6.2724 699.653 6.2724 698.488 7.40155C697.323 8.5307 697.362 10.3996 698.488 11.5677C699.653 12.6969 701.518 12.6969 702.644 11.5677Z" fill="white"/>
<path d="M722.852 25V24.5287C723.248 24.5014 723.535 24.399 723.713 24.2214C723.89 24.0438 723.979 23.6203 723.979 22.951V13.4232C723.979 12.7538 723.876 12.3304 723.672 12.1528C723.48 11.9615 723.105 11.8591 722.545 11.8454V11.3742H728.384V11.8454C727.988 11.8591 727.701 11.9615 727.524 12.1528C727.346 12.3304 727.257 12.7538 727.257 13.4232V22.951C727.257 23.6203 727.36 24.0438 727.565 24.2214C727.77 24.399 728.145 24.5014 728.692 24.5287V25H722.852ZM742.881 25.1639C742.676 24.9454 742.464 24.7336 742.245 24.5287C742.027 24.3102 741.679 23.9892 741.2 23.5657L733.127 16.1893H733.086V22.951C733.086 23.4154 733.203 23.7911 733.435 24.078C733.681 24.3512 734.097 24.5014 734.685 24.5287V25H730.894V24.5287C731.29 24.5014 731.577 24.3512 731.755 24.078C731.932 23.7911 732.021 23.4154 732.021 22.951V13.4232C732.021 12.7538 731.918 12.3304 731.714 12.1528C731.522 11.9615 731.147 11.8591 730.587 11.8454V11.3742H733.045C733.25 11.6337 733.469 11.8659 733.701 12.0708C733.933 12.2757 734.2 12.5216 734.5 12.8085L742.655 20.1849H742.696V13.4232C742.696 12.9587 742.58 12.5831 742.348 12.2962C742.116 12.0093 741.699 11.8591 741.098 11.8454V11.3742H744.889V11.8454C744.492 11.8591 744.206 12.0093 744.028 12.2962C743.85 12.5831 743.762 12.9587 743.762 13.4232V22.951C743.762 23.3335 743.762 23.7023 743.762 24.0575C743.775 24.399 743.789 24.7678 743.803 25.1639H742.881ZM746.509 11.3742H758.188V14.755H757.717C757.635 14.0174 757.417 13.4163 757.061 12.9519C756.706 12.4874 756.098 12.2552 755.238 12.2552H753.988V22.951C753.988 23.6203 754.09 24.0438 754.295 24.2214C754.5 24.399 754.876 24.5014 755.422 24.5287V25L749.583 25V24.5287C749.979 24.5014 750.266 24.399 750.443 24.2214C750.621 24.0438 750.71 23.6203 750.71 22.951V12.2552H749.439C748.606 12.2552 748.005 12.4874 747.636 12.9519C747.281 13.4163 747.062 14.0174 746.98 14.755H746.509V11.3742ZM760.048 25V24.5287C760.444 24.5014 760.731 24.399 760.908 24.2214C761.086 24.0438 761.175 23.6203 761.175 22.951V13.4232C761.175 12.7538 761.072 12.3304 760.867 12.1528C760.676 11.9615 760.3 11.8591 759.74 11.8454V11.3742L769.801 11.3742V14.2428L769.33 14.2428C769.302 13.6554 769.097 13.1773 768.715 12.8085C768.346 12.4396 767.772 12.2552 766.994 12.2552H765.355C765.068 12.2552 764.842 12.3304 764.678 12.4806C764.528 12.6309 764.453 12.9451 764.453 13.4232V17.4597C764.562 17.3777 764.692 17.3231 764.842 17.2958C765.006 17.2684 765.198 17.2548 765.416 17.2548H767.404C767.813 17.2548 768.155 17.1387 768.428 16.9065C768.701 16.6742 768.845 16.3532 768.858 15.9434H769.33V19.4267H768.858C768.845 18.9213 768.701 18.5798 768.428 18.4022C768.155 18.2246 767.813 18.1359 767.404 18.1359H765.457C765.088 18.1359 764.829 18.1973 764.678 18.3203C764.528 18.4432 764.453 18.6823 764.453 19.0374V22.951C764.453 23.4291 764.555 23.7433 764.76 23.8935C764.979 24.0438 765.396 24.1189 766.01 24.1189H767.957C768.776 24.1189 769.425 23.8731 769.903 23.3813C770.381 22.8895 770.648 22.3022 770.702 21.6192H771.174L771.01 25H760.048ZM784.92 25.3073C784.305 25.3073 783.78 25.2049 783.342 25C782.905 24.8088 782.536 24.5492 782.236 24.2214C781.935 23.8935 781.655 23.5316 781.396 23.1354L778.527 18.6686C778.391 18.4364 778.268 18.2929 778.158 18.2383C778.049 18.1837 777.919 18.1495 777.769 18.1359V17.4187C778.589 17.3641 779.224 17.2001 779.675 16.9269C780.125 16.6537 780.44 16.3191 780.617 15.9229C780.795 15.5131 780.884 15.0897 780.884 14.6526C780.884 13.8193 780.651 13.1978 780.187 12.788C779.723 12.3645 779.19 12.1528 778.589 12.1528C778.138 12.1528 777.817 12.2347 777.626 12.3987C777.448 12.5489 777.359 12.8904 777.359 13.4232V22.951C777.359 23.6203 777.462 24.0438 777.667 24.2214C777.872 24.399 778.247 24.5014 778.794 24.5287V25H772.954V24.5287C773.35 24.5014 773.637 24.399 773.815 24.2214C773.992 24.0438 774.081 23.6203 774.081 22.951V13.4232C774.081 12.7538 773.978 12.3304 773.774 12.1528C773.582 11.9615 773.207 11.8591 772.647 11.8454V11.3742H774.081C775.105 11.3742 776.034 11.3605 776.868 11.3332C777.701 11.2922 778.411 11.2717 778.999 11.2717C780.351 11.2717 781.423 11.4015 782.215 11.661C783.021 11.9069 783.595 12.2552 783.937 12.706C784.292 13.1568 784.469 13.669 784.469 14.2428C784.469 14.7892 784.333 15.2877 784.06 15.7385C783.8 16.1893 783.452 16.5718 783.015 16.886C782.591 17.1865 782.127 17.3982 781.621 17.5212V17.5621L785.023 22.8895C785.419 23.5179 785.781 23.9482 786.109 24.1804C786.436 24.4126 786.73 24.5287 786.99 24.5287V25C786.716 25.0956 786.389 25.1707 786.006 25.2254C785.637 25.28 785.275 25.3073 784.92 25.3073ZM794.597 25.3073C793.163 25.3073 791.892 25.0205 790.786 24.4468C789.679 23.8731 788.812 23.0671 788.183 22.029C787.555 20.9771 787.241 19.7614 787.241 18.3817C787.241 17.248 787.446 16.2371 787.856 15.3492C788.265 14.4477 788.825 13.6759 789.536 13.0338C790.26 12.3918 791.086 11.9069 792.015 11.5791C792.958 11.2376 793.962 11.0668 795.027 11.0668C795.833 11.0668 796.605 11.1419 797.343 11.2922C798.08 11.4425 798.668 11.62 799.105 11.8249V15.0624H798.633C798.36 14.2291 798.032 13.5939 797.65 13.1568C797.267 12.706 796.837 12.3918 796.359 12.2142C795.895 12.0367 795.403 11.9479 794.884 11.9479C792.247 11.9479 790.929 13.8603 790.929 17.6851C790.929 18.9418 791.059 20.0824 791.318 21.1069C791.592 22.1314 792.008 22.9442 792.568 23.5452C793.142 24.1326 793.873 24.4263 794.761 24.4263C795.485 24.4263 796.14 24.2487 796.728 23.8935C797.315 23.5247 797.814 23.0398 798.224 22.4388C798.647 21.8377 798.948 21.1889 799.125 20.4922H799.596L799.432 23.6067C798.982 24.0984 798.347 24.5082 797.527 24.8361C796.707 25.1503 795.731 25.3073 794.597 25.3073ZM808.274 11.0668C809.244 11.0668 810.146 11.2307 810.979 11.5586C811.812 11.8864 812.55 12.3645 813.192 12.9929C813.834 13.6076 814.333 14.352 814.688 15.2263C815.043 16.1005 815.22 17.0772 815.22 18.1563C815.22 19.2355 815.043 20.2122 814.688 21.0864C814.333 21.9607 813.834 22.712 813.192 23.3403C812.564 23.9687 811.826 24.4536 810.979 24.7951C810.132 25.1366 809.224 25.3073 808.254 25.3073C807.298 25.3073 806.396 25.1434 805.549 24.8156C804.716 24.4878 803.978 24.0165 803.336 23.4018C802.694 22.7734 802.196 22.0221 801.841 21.1479C801.485 20.2736 801.308 19.297 801.308 18.2178C801.308 17.1387 801.485 16.162 801.841 15.2877C802.196 14.4135 802.687 13.6622 803.316 13.0338C803.958 12.4055 804.702 11.9206 805.549 11.5791C806.396 11.2376 807.305 11.0668 808.274 11.0668ZM808.684 24.4263C809.395 24.4263 809.955 24.1941 810.364 23.7296C810.774 23.2515 811.068 22.5958 811.245 21.7626C811.437 20.9293 811.532 19.9595 811.532 18.853C811.532 16.6264 811.191 14.9189 810.508 13.7305C809.838 12.5421 808.951 11.9479 807.844 11.9479C807.147 11.9479 806.587 12.1801 806.164 12.6445C805.754 13.109 805.454 13.7647 805.262 14.6116C805.085 15.4448 804.996 16.4147 804.996 17.5212C804.996 19.7477 805.331 21.4552 806 22.6437C806.683 23.8321 807.578 24.4263 808.684 24.4263ZM824.706 25.1639C824.596 24.8497 824.46 24.5287 824.296 24.2009C824.146 23.8594 823.941 23.4154 823.681 22.869L819.993 15.1648H819.952L819.583 22.951C819.57 23.4154 819.679 23.7911 819.911 24.078C820.143 24.3512 820.567 24.5014 821.181 24.5287V25L817.391 25V24.5287C817.787 24.5014 818.067 24.3512 818.231 24.078C818.408 23.7911 818.504 23.4154 818.518 22.951L818.948 13.4232C818.975 12.9451 818.941 12.6036 818.846 12.3987C818.764 12.1938 818.613 12.064 818.395 12.0093C818.176 11.941 817.883 11.8864 817.514 11.8454V11.3742H821.899C822.008 11.7293 822.131 12.064 822.267 12.3782C822.418 12.6923 822.582 13.0407 822.759 13.4232L826.283 20.7996H826.324L829.603 13.4232C829.917 12.7265 830.156 12.0435 830.32 11.3742H834.664V11.8454C834.404 11.8591 834.186 11.9001 834.008 11.9684C833.831 12.0367 833.701 12.1801 833.619 12.3987C833.551 12.6036 833.523 12.9451 833.537 13.4232L833.967 22.951C833.995 23.3881 834.049 23.716 834.131 23.9345C834.227 24.1531 834.377 24.3033 834.582 24.3853C834.787 24.4536 835.06 24.5014 835.402 24.5287V25H829.562V24.5287C829.999 24.5014 830.3 24.399 830.463 24.2214C830.641 24.0438 830.716 23.6203 830.689 22.951L830.341 14.5706H830.3L826.591 22.869C826.331 23.4428 826.14 23.8935 826.017 24.2214C825.908 24.5356 825.812 24.8497 825.73 25.1639H824.706ZM844.375 25.1639C844.266 24.8497 844.129 24.5287 843.966 24.2009C843.815 23.8594 843.61 23.4154 843.351 22.869L839.663 15.1648H839.622L839.253 22.951C839.239 23.4154 839.348 23.7911 839.581 24.078C839.813 24.3512 840.236 24.5014 840.851 24.5287V25H837.06V24.5287C837.457 24.5014 837.737 24.3512 837.901 24.078C838.078 23.7911 838.174 23.4154 838.187 22.951L838.618 13.4232C838.645 12.9451 838.611 12.6036 838.515 12.3987C838.433 12.1938 838.283 12.064 838.064 12.0093C837.846 11.941 837.552 11.8864 837.183 11.8454V11.3742H841.568C841.677 11.7293 841.8 12.064 841.937 12.3782C842.087 12.6923 842.251 13.0407 842.429 13.4232L845.953 20.7996H845.994L849.272 13.4232C849.587 12.7265 849.826 12.0435 849.99 11.3742H854.333V11.8454C854.074 11.8591 853.855 11.9001 853.678 11.9684C853.5 12.0367 853.37 12.1801 853.288 12.3987C853.22 12.6036 853.193 12.9451 853.207 13.4232L853.637 22.951C853.664 23.3881 853.719 23.716 853.801 23.9345C853.896 24.1531 854.047 24.3033 854.252 24.3853C854.456 24.4536 854.73 24.5014 855.071 24.5287V25H849.231V24.5287C849.669 24.5014 849.969 24.399 850.133 24.2214C850.311 24.0438 850.386 23.6203 850.358 22.951L850.01 14.5706H849.969L846.26 22.869C846.001 23.4428 845.81 23.8935 845.687 24.2214C845.577 24.5356 845.482 24.8497 845.4 25.1639H844.375ZM871.145 21.2094H871.617L871.412 25H861.536V24.5287C861.645 24.4741 861.809 24.3785 862.027 24.2419C862.26 24.1053 862.499 23.9482 862.744 23.7706C863.427 23.2788 864.069 22.7188 864.671 22.0904C865.272 21.4621 865.797 20.7927 866.248 20.0824C866.699 19.3721 867.054 18.6618 867.314 17.9514C867.573 17.2411 867.703 16.565 867.703 15.9229C867.703 15.3082 867.553 14.7892 867.252 14.3657C866.965 13.9422 866.439 13.7305 865.675 13.7305C865.033 13.7305 864.438 13.9081 863.892 14.2632C863.345 14.6184 862.806 15.1716 862.273 15.9229L861.884 15.5951C862.444 14.1745 863.147 13.1158 863.994 12.4191C864.841 11.7225 865.9 11.3742 867.17 11.3742C867.908 11.3742 868.57 11.4971 869.158 11.743C869.745 11.9752 870.21 12.344 870.551 12.8494C870.906 13.3412 871.084 13.9832 871.084 14.7755C871.084 16.1825 870.633 17.5007 869.732 18.7301C868.844 19.9595 867.601 21.1137 866.002 22.1929V22.2339H868.994C869.773 22.2339 870.312 22.1382 870.613 21.947C870.913 21.7558 871.091 21.5099 871.145 21.2094ZM879.866 11.3742C880.577 11.3742 881.273 11.5108 881.956 11.784C882.639 12.0572 883.254 12.4806 883.8 13.0543C884.347 13.6281 884.777 14.352 885.091 15.2263C885.419 16.0869 885.583 17.1114 885.583 18.2998C885.583 19.4745 885.426 20.499 885.112 21.3733C884.797 22.2475 884.367 22.9783 883.821 23.5657C883.274 24.1531 882.66 24.5902 881.977 24.8771C881.294 25.1639 880.583 25.3073 879.846 25.3073C879.135 25.3073 878.439 25.1707 877.756 24.8976C877.073 24.6244 876.458 24.2009 875.912 23.6272C875.365 23.0535 874.928 22.3363 874.6 21.4757C874.286 20.6015 874.129 19.5702 874.129 18.3817C874.129 17.207 874.286 16.1825 874.6 15.3082C874.914 14.434 875.345 13.7032 875.891 13.1158C876.438 12.5284 877.052 12.0913 877.735 11.8044C878.418 11.5176 879.129 11.3742 879.866 11.3742ZM879.928 24.4263C880.324 24.4263 880.686 24.2487 881.014 23.8935C881.342 23.5384 881.601 22.9373 881.792 22.0904C881.997 21.2435 882.1 20.0824 882.1 18.6071C882.1 17.3231 882.011 16.2098 881.833 15.2673C881.669 14.3111 881.417 13.5734 881.075 13.0543C880.734 12.5216 880.303 12.2552 879.784 12.2552C879.402 12.2552 879.04 12.4328 878.698 12.788C878.37 13.1431 878.104 13.7442 877.899 14.5911C877.708 15.438 877.612 16.5991 877.612 18.0744C877.612 19.3584 877.694 20.4785 877.858 21.4347C878.036 22.3773 878.295 23.1149 878.637 23.6477C878.978 24.1667 879.409 24.4263 879.928 24.4263ZM896.898 21.2094H897.369L897.164 25H887.288V24.5287C887.397 24.4741 887.561 24.3785 887.78 24.2419C888.012 24.1053 888.251 23.9482 888.497 23.7706C889.18 23.2788 889.822 22.7188 890.423 22.0904C891.024 21.4621 891.55 20.7927 892.001 20.0824C892.452 19.3721 892.807 18.6618 893.066 17.9514C893.326 17.2411 893.456 16.565 893.456 15.9229C893.456 15.3082 893.305 14.7892 893.005 14.3657C892.718 13.9422 892.192 13.7305 891.427 13.7305C890.785 13.7305 890.191 13.9081 889.644 14.2632C889.098 14.6184 888.558 15.1716 888.026 15.9229L887.636 15.5951C888.196 14.1745 888.9 13.1158 889.747 12.4191C890.594 11.7225 891.652 11.3742 892.923 11.3742C893.66 11.3742 894.323 11.4971 894.91 11.743C895.498 11.9752 895.962 12.344 896.304 12.8494C896.659 13.3412 896.836 13.9832 896.836 14.7755C896.836 16.1825 896.386 17.5007 895.484 18.7301C894.596 19.9595 893.353 21.1137 891.755 22.1929V22.2339H894.746C895.525 22.2339 896.065 22.1382 896.365 21.947C896.666 21.7558 896.843 21.5099 896.898 21.2094ZM908.282 19.7751H909.717V22.3363H908.856C908.474 22.3363 908.282 22.5754 908.282 23.0535C908.282 23.3813 908.282 23.7023 908.282 24.0165C908.296 24.317 908.31 24.6448 908.323 25H905.086C905.113 24.5492 905.134 24.1121 905.148 23.6886C905.161 23.2515 905.175 22.8007 905.189 22.3363H898.714V21.865C899.069 21.5235 899.39 21.1684 899.677 20.7996L906.377 12.4191C906.527 12.2279 906.664 12.0435 906.787 11.8659C906.923 11.6747 907.033 11.5108 907.115 11.3742H908.303L908.282 19.7751ZM905.148 15.4926L901.726 19.7751H905.209V15.4926H905.148Z" fill="white"/>
<path d="M939.001 15.2297C936.141 14.0878 932.786 14.6968 930.499 16.9806C927.41 20.0637 927.41 25.0499 930.499 28.133C932.786 30.4168 936.141 31.0258 939.001 29.8839V26.2299C938.429 26.4963 937.819 26.6486 937.171 26.6486C934.883 26.6486 933.053 24.8216 933.053 22.5378C933.053 20.254 934.883 18.427 937.171 18.427C937.819 18.427 938.467 18.5792 939.001 18.8457V15.2297Z" fill="white"/>
<path d="M937.705 11.5677C938.831 10.4386 938.831 8.56964 937.705 7.40155C936.579 6.2724 934.714 6.2724 933.549 7.40155C932.384 8.5307 932.423 10.3996 933.549 11.5677C934.714 12.6969 936.579 12.6969 937.705 11.5677Z" fill="white"/>
<path d="M957.913 25V24.5287C958.309 24.5014 958.596 24.399 958.774 24.2214C958.951 24.0438 959.04 23.6203 959.04 22.951V13.4232C959.04 12.7538 958.938 12.3304 958.733 12.1528C958.541 11.9615 958.166 11.8591 957.606 11.8454V11.3742H963.445V11.8454C963.049 11.8591 962.762 11.9615 962.585 12.1528C962.407 12.3304 962.318 12.7538 962.318 13.4232V22.951C962.318 23.6203 962.421 24.0438 962.626 24.2214C962.831 24.399 963.206 24.5014 963.753 24.5287V25H957.913ZM977.942 25.1639C977.737 24.9454 977.525 24.7336 977.307 24.5287C977.088 24.3102 976.74 23.9892 976.262 23.5657L968.188 16.1893H968.147V22.951C968.147 23.4154 968.264 23.7911 968.496 24.078C968.742 24.3512 969.158 24.5014 969.746 24.5287V25H965.955V24.5287C966.351 24.5014 966.638 24.3512 966.816 24.078C966.993 23.7911 967.082 23.4154 967.082 22.951V13.4232C967.082 12.7538 966.98 12.3304 966.775 12.1528C966.583 11.9615 966.208 11.8591 965.648 11.8454V11.3742H968.107C968.311 11.6337 968.53 11.8659 968.762 12.0708C968.994 12.2757 969.261 12.5216 969.561 12.8085L977.716 20.1849H977.757V13.4232C977.757 12.9587 977.641 12.5831 977.409 12.2962C977.177 12.0093 976.76 11.8591 976.159 11.8454V11.3742H979.95V11.8454C979.554 11.8591 979.267 12.0093 979.089 12.2962C978.912 12.5831 978.823 12.9587 978.823 13.4232V22.951C978.823 23.3335 978.823 23.7023 978.823 24.0575C978.836 24.399 978.85 24.7678 978.864 25.1639H977.942ZM981.57 11.3742H993.249V14.755H992.778C992.696 14.0174 992.478 13.4163 992.123 12.9519C991.767 12.4874 991.16 12.2552 990.299 12.2552H989.049V22.951C989.049 23.6203 989.151 24.0438 989.356 24.2214C989.561 24.399 989.937 24.5014 990.483 24.5287V25L984.644 25V24.5287C985.04 24.5014 985.327 24.399 985.504 24.2214C985.682 24.0438 985.771 23.6203 985.771 22.951V12.2552H984.5C983.667 12.2552 983.066 12.4874 982.697 12.9519C982.342 13.4163 982.123 14.0174 982.041 14.755H981.57V11.3742ZM995.109 25V24.5287C995.505 24.5014 995.792 24.399 995.969 24.2214C996.147 24.0438 996.236 23.6203 996.236 22.951V13.4232C996.236 12.7538 996.133 12.3304 995.928 12.1528C995.737 11.9615 995.361 11.8591 994.801 11.8454V11.3742L1004.86 11.3742V14.2428L1004.39 14.2428C1004.36 13.6554 1004.16 13.1773 1003.78 12.8085C1003.41 12.4396 1002.83 12.2552 1002.05 12.2552H1000.42C1000.13 12.2552 999.903 12.3304 999.74 12.4806C999.589 12.6309 999.514 12.9451 999.514 13.4232V17.4597C999.623 17.3777 999.753 17.3231 999.903 17.2958C1000.07 17.2684 1000.26 17.2548 1000.48 17.2548H1002.46C1002.87 17.2548 1003.22 17.1387 1003.49 16.9065C1003.76 16.6742 1003.91 16.3532 1003.92 15.9434H1004.39V19.4267H1003.92C1003.91 18.9213 1003.76 18.5798 1003.49 18.4022C1003.22 18.2246 1002.87 18.1359 1002.46 18.1359H1000.52C1000.15 18.1359 999.89 18.1973 999.74 18.3203C999.589 18.4432 999.514 18.6823 999.514 19.0374V22.951C999.514 23.4291 999.617 23.7433 999.821 23.8935C1000.04 24.0438 1000.46 24.1189 1001.07 24.1189H1003.02C1003.84 24.1189 1004.49 23.8731 1004.96 23.3813C1005.44 22.8895 1005.71 22.3022 1005.76 21.6192H1006.23L1006.07 25H995.109ZM1019.98 25.3073C1019.37 25.3073 1018.84 25.2049 1018.4 25C1017.97 24.8088 1017.6 24.5492 1017.3 24.2214C1017 23.8935 1016.72 23.5316 1016.46 23.1354L1013.59 18.6686C1013.45 18.4364 1013.33 18.2929 1013.22 18.2383C1013.11 18.1837 1012.98 18.1495 1012.83 18.1359V17.4187C1013.65 17.3641 1014.29 17.2001 1014.74 16.9269C1015.19 16.6537 1015.5 16.3191 1015.68 15.9229C1015.86 15.5131 1015.94 15.0897 1015.94 14.6526C1015.94 13.8193 1015.71 13.1978 1015.25 12.788C1014.78 12.3645 1014.25 12.1528 1013.65 12.1528C1013.2 12.1528 1012.88 12.2347 1012.69 12.3987C1012.51 12.5489 1012.42 12.8904 1012.42 13.4232V22.951C1012.42 23.6203 1012.52 24.0438 1012.73 24.2214C1012.93 24.399 1013.31 24.5014 1013.85 24.5287V25H1008.02V24.5287C1008.41 24.5014 1008.7 24.399 1008.88 24.2214C1009.05 24.0438 1009.14 23.6203 1009.14 22.951V13.4232C1009.14 12.7538 1009.04 12.3304 1008.83 12.1528C1008.64 11.9615 1008.27 11.8591 1007.71 11.8454V11.3742H1009.14C1010.17 11.3742 1011.1 11.3605 1011.93 11.3332C1012.76 11.2922 1013.47 11.2717 1014.06 11.2717C1015.41 11.2717 1016.48 11.4015 1017.28 11.661C1018.08 11.9069 1018.66 12.2552 1019 12.706C1019.35 13.1568 1019.53 13.669 1019.53 14.2428C1019.53 14.7892 1019.39 15.2877 1019.12 15.7385C1018.86 16.1893 1018.51 16.5718 1018.08 16.886C1017.65 17.1865 1017.19 17.3982 1016.68 17.5212V17.5621L1020.08 22.8895C1020.48 23.5179 1020.84 23.9482 1021.17 24.1804C1021.5 24.4126 1021.79 24.5287 1022.05 24.5287V25C1021.78 25.0956 1021.45 25.1707 1021.07 25.2254C1020.7 25.28 1020.34 25.3073 1019.98 25.3073ZM1029.66 25.3073C1028.22 25.3073 1026.95 25.0205 1025.85 24.4468C1024.74 23.8731 1023.87 23.0671 1023.24 22.029C1022.62 20.9771 1022.3 19.7614 1022.3 18.3817C1022.3 17.248 1022.51 16.2371 1022.92 15.3492C1023.33 14.4477 1023.89 13.6759 1024.6 13.0338C1025.32 12.3918 1026.15 11.9069 1027.08 11.5791C1028.02 11.2376 1029.02 11.0668 1030.09 11.0668C1030.89 11.0668 1031.67 11.1419 1032.4 11.2922C1033.14 11.4425 1033.73 11.62 1034.17 11.8249V15.0624H1033.69C1033.42 14.2291 1033.09 13.5939 1032.71 13.1568C1032.33 12.706 1031.9 12.3918 1031.42 12.2142C1030.96 12.0367 1030.46 11.9479 1029.94 11.9479C1027.31 11.9479 1025.99 13.8603 1025.99 17.6851C1025.99 18.9418 1026.12 20.0824 1026.38 21.1069C1026.65 22.1314 1027.07 22.9442 1027.63 23.5452C1028.2 24.1326 1028.93 24.4263 1029.82 24.4263C1030.55 24.4263 1031.2 24.2487 1031.79 23.8935C1032.38 23.5247 1032.87 23.0398 1033.28 22.4388C1033.71 21.8377 1034.01 21.1889 1034.19 20.4922H1034.66L1034.49 23.6067C1034.04 24.0984 1033.41 24.5082 1032.59 24.8361C1031.77 25.1503 1030.79 25.3073 1029.66 25.3073ZM1043.34 11.0668C1044.31 11.0668 1045.21 11.2307 1046.04 11.5586C1046.87 11.8864 1047.61 12.3645 1048.25 12.9929C1048.9 13.6076 1049.39 14.352 1049.75 15.2263C1050.1 16.1005 1050.28 17.0772 1050.28 18.1563C1050.28 19.2355 1050.1 20.2122 1049.75 21.0864C1049.39 21.9607 1048.9 22.712 1048.25 23.3403C1047.62 23.9687 1046.89 24.4536 1046.04 24.7951C1045.19 25.1366 1044.28 25.3073 1043.31 25.3073C1042.36 25.3073 1041.46 25.1434 1040.61 24.8156C1039.78 24.4878 1039.04 24.0165 1038.4 23.4018C1037.76 22.7734 1037.26 22.0221 1036.9 21.1479C1036.55 20.2736 1036.37 19.297 1036.37 18.2178C1036.37 17.1387 1036.55 16.162 1036.9 15.2877C1037.26 14.4135 1037.75 13.6622 1038.38 13.0338C1039.02 12.4055 1039.76 11.9206 1040.61 11.5791C1041.46 11.2376 1042.37 11.0668 1043.34 11.0668ZM1043.75 24.4263C1044.46 24.4263 1045.02 24.1941 1045.43 23.7296C1045.84 23.2515 1046.13 22.5958 1046.31 21.7626C1046.5 20.9293 1046.59 19.9595 1046.59 18.853C1046.59 16.6264 1046.25 14.9189 1045.57 13.7305C1044.9 12.5421 1044.01 11.9479 1042.91 11.9479C1042.21 11.9479 1041.65 12.1801 1041.23 12.6445C1040.82 13.109 1040.51 13.7647 1040.32 14.6116C1040.15 15.4448 1040.06 16.4147 1040.06 17.5212C1040.06 19.7477 1040.39 21.4552 1041.06 22.6437C1041.74 23.8321 1042.64 24.4263 1043.75 24.4263ZM1059.77 25.1639C1059.66 24.8497 1059.52 24.5287 1059.36 24.2009C1059.21 23.8594 1059 23.4154 1058.74 22.869L1055.05 15.1648H1055.01L1054.64 22.951C1054.63 23.4154 1054.74 23.7911 1054.97 24.078C1055.2 24.3512 1055.63 24.5014 1056.24 24.5287V25L1052.45 25V24.5287C1052.85 24.5014 1053.13 24.3512 1053.29 24.078C1053.47 23.7911 1053.57 23.4154 1053.58 22.951L1054.01 13.4232C1054.04 12.9451 1054 12.6036 1053.91 12.3987C1053.82 12.1938 1053.67 12.064 1053.46 12.0093C1053.24 11.941 1052.94 11.8864 1052.57 11.8454V11.3742H1056.96C1057.07 11.7293 1057.19 12.064 1057.33 12.3782C1057.48 12.6923 1057.64 13.0407 1057.82 13.4232L1061.34 20.7996H1061.39L1064.66 13.4232C1064.98 12.7265 1065.22 12.0435 1065.38 11.3742H1069.72V11.8454C1069.47 11.8591 1069.25 11.9001 1069.07 11.9684C1068.89 12.0367 1068.76 12.1801 1068.68 12.3987C1068.61 12.6036 1068.58 12.9451 1068.6 13.4232L1069.03 22.951C1069.06 23.3881 1069.11 23.716 1069.19 23.9345C1069.29 24.1531 1069.44 24.3033 1069.64 24.3853C1069.85 24.4536 1070.12 24.5014 1070.46 24.5287V25H1064.62V24.5287C1065.06 24.5014 1065.36 24.399 1065.52 24.2214C1065.7 24.0438 1065.78 23.6203 1065.75 22.951L1065.4 14.5706H1065.36L1061.65 22.869C1061.39 23.4428 1061.2 23.8935 1061.08 24.2214C1060.97 24.5356 1060.87 24.8497 1060.79 25.1639H1059.77ZM1079.44 25.1639C1079.33 24.8497 1079.19 24.5287 1079.03 24.2009C1078.88 23.8594 1078.67 23.4154 1078.41 22.869L1074.72 15.1648H1074.68L1074.31 22.951C1074.3 23.4154 1074.41 23.7911 1074.64 24.078C1074.87 24.3512 1075.3 24.5014 1075.91 24.5287V25H1072.12V24.5287C1072.52 24.5014 1072.8 24.3512 1072.96 24.078C1073.14 23.7911 1073.23 23.4154 1073.25 22.951L1073.68 13.4232C1073.71 12.9451 1073.67 12.6036 1073.58 12.3987C1073.49 12.1938 1073.34 12.064 1073.13 12.0093C1072.91 11.941 1072.61 11.8864 1072.24 11.8454V11.3742H1076.63C1076.74 11.7293 1076.86 12.064 1077 12.3782C1077.15 12.6923 1077.31 13.0407 1077.49 13.4232L1081.01 20.7996H1081.06L1084.33 13.4232C1084.65 12.7265 1084.89 12.0435 1085.05 11.3742H1089.39V11.8454C1089.14 11.8591 1088.92 11.9001 1088.74 11.9684C1088.56 12.0367 1088.43 12.1801 1088.35 12.3987C1088.28 12.6036 1088.25 12.9451 1088.27 13.4232L1088.7 22.951C1088.73 23.3881 1088.78 23.716 1088.86 23.9345C1088.96 24.1531 1089.11 24.3033 1089.31 24.3853C1089.52 24.4536 1089.79 24.5014 1090.13 24.5287V25H1084.29V24.5287C1084.73 24.5014 1085.03 24.399 1085.19 24.2214C1085.37 24.0438 1085.45 23.6203 1085.42 22.951L1085.07 14.5706H1085.03L1081.32 22.869C1081.06 23.4428 1080.87 23.8935 1080.75 24.2214C1080.64 24.5356 1080.54 24.8497 1080.46 25.1639H1079.44ZM1106.21 21.2094H1106.68L1106.47 25H1096.6V24.5287C1096.71 24.4741 1096.87 24.3785 1097.09 24.2419C1097.32 24.1053 1097.56 23.9482 1097.81 23.7706C1098.49 23.2788 1099.13 22.7188 1099.73 22.0904C1100.33 21.4621 1100.86 20.7927 1101.31 20.0824C1101.76 19.3721 1102.12 18.6618 1102.37 17.9514C1102.63 17.2411 1102.76 16.565 1102.76 15.9229C1102.76 15.3082 1102.61 14.7892 1102.31 14.3657C1102.03 13.9422 1101.5 13.7305 1100.74 13.7305C1100.09 13.7305 1099.5 13.9081 1098.95 14.2632C1098.41 14.6184 1097.87 15.1716 1097.33 15.9229L1096.94 15.5951C1097.51 14.1745 1098.21 13.1158 1099.06 12.4191C1099.9 11.7225 1100.96 11.3742 1102.23 11.3742C1102.97 11.3742 1103.63 11.4971 1104.22 11.743C1104.81 11.9752 1105.27 12.344 1105.61 12.8494C1105.97 13.3412 1106.14 13.9832 1106.14 14.7755C1106.14 16.1825 1105.69 17.5007 1104.79 18.7301C1103.9 19.9595 1102.66 21.1137 1101.06 22.1929V22.2339H1104.06C1104.83 22.2339 1105.37 22.1382 1105.67 21.947C1105.97 21.7558 1106.15 21.5099 1106.21 21.2094ZM1114.93 11.3742C1115.64 11.3742 1116.33 11.5108 1117.02 11.784C1117.7 12.0572 1118.32 12.4806 1118.86 13.0543C1119.41 13.6281 1119.84 14.352 1120.15 15.2263C1120.48 16.0869 1120.64 17.1114 1120.64 18.2998C1120.64 19.4745 1120.49 20.499 1120.17 21.3733C1119.86 22.2475 1119.43 22.9783 1118.88 23.5657C1118.34 24.1531 1117.72 24.5902 1117.04 24.8771C1116.35 25.1639 1115.64 25.3073 1114.91 25.3073C1114.2 25.3073 1113.5 25.1707 1112.82 24.8976C1112.13 24.6244 1111.52 24.2009 1110.97 23.6272C1110.43 23.0535 1109.99 22.3363 1109.66 21.4757C1109.35 20.6015 1109.19 19.5702 1109.19 18.3817C1109.19 17.207 1109.35 16.1825 1109.66 15.3082C1109.98 14.434 1110.41 13.7032 1110.95 13.1158C1111.5 12.5284 1112.11 12.0913 1112.8 11.8044C1113.48 11.5176 1114.19 11.3742 1114.93 11.3742ZM1114.99 24.4263C1115.38 24.4263 1115.75 24.2487 1116.07 23.8935C1116.4 23.5384 1116.66 22.9373 1116.85 22.0904C1117.06 21.2435 1117.16 20.0824 1117.16 18.6071C1117.16 17.3231 1117.07 16.2098 1116.89 15.2673C1116.73 14.3111 1116.48 13.5734 1116.14 13.0543C1115.79 12.5216 1115.36 12.2552 1114.85 12.2552C1114.46 12.2552 1114.1 12.4328 1113.76 12.788C1113.43 13.1431 1113.17 13.7442 1112.96 14.5911C1112.77 15.438 1112.67 16.5991 1112.67 18.0744C1112.67 19.3584 1112.76 20.4785 1112.92 21.4347C1113.1 22.3773 1113.36 23.1149 1113.7 23.6477C1114.04 24.1667 1114.47 24.4263 1114.99 24.4263ZM1131.96 21.2094H1132.43L1132.23 25H1122.35V24.5287C1122.46 24.4741 1122.62 24.3785 1122.84 24.2419C1123.07 24.1053 1123.31 23.9482 1123.56 23.7706C1124.24 23.2788 1124.88 22.7188 1125.48 22.0904C1126.09 21.4621 1126.61 20.7927 1127.06 20.0824C1127.51 19.3721 1127.87 18.6618 1128.13 17.9514C1128.39 17.2411 1128.52 16.565 1128.52 15.9229C1128.52 15.3082 1128.37 14.7892 1128.07 14.3657C1127.78 13.9422 1127.25 13.7305 1126.49 13.7305C1125.85 13.7305 1125.25 13.9081 1124.71 14.2632C1124.16 14.6184 1123.62 15.1716 1123.09 15.9229L1122.7 15.5951C1123.26 14.1745 1123.96 13.1158 1124.81 12.4191C1125.65 11.7225 1126.71 11.3742 1127.98 11.3742C1128.72 11.3742 1129.38 11.4971 1129.97 11.743C1130.56 11.9752 1131.02 12.344 1131.36 12.8494C1131.72 13.3412 1131.9 13.9832 1131.9 14.7755C1131.9 16.1825 1131.45 17.5007 1130.55 18.7301C1129.66 19.9595 1128.41 21.1137 1126.82 22.1929V22.2339H1129.81C1130.59 22.2339 1131.13 22.1382 1131.43 21.947C1131.73 21.7558 1131.9 21.5099 1131.96 21.2094ZM1143.34 19.7751H1144.78V22.3363H1143.92C1143.53 22.3363 1143.34 22.5754 1143.34 23.0535C1143.34 23.3813 1143.34 23.7023 1143.34 24.0165C1143.36 24.317 1143.37 24.6448 1143.38 25H1140.15C1140.17 24.5492 1140.19 24.1121 1140.21 23.6886C1140.22 23.2515 1140.24 22.8007 1140.25 22.3363H1133.77V21.865C1134.13 21.5235 1134.45 21.1684 1134.74 20.7996L1141.44 12.4191C1141.59 12.2279 1141.72 12.0435 1141.85 11.8659C1141.98 11.6747 1142.09 11.5108 1142.18 11.3742H1143.36L1143.34 19.7751ZM1140.21 15.4926L1136.79 19.7751H1140.27V15.4926H1140.21Z" fill="white"/>
</svg>
