<svg width="1647" height="60" viewBox="0 0 1647 60" fill="none" xmlns="http://www.w3.org/2000/svg">
<rect width="1645.89" height="60.0047" transform="translate(0.976562 -0.00231934)" fill="url(#paint0_linear_614_2639)"/>
<path d="M39.9033 35.1644H40.7532L40.3837 42H22.5741V41.1502C22.7712 41.0516 23.0667 40.8792 23.4609 40.6329C23.8796 40.3865 24.3107 40.1033 24.7541 39.783C25.9857 38.8963 27.1435 37.8863 28.2273 36.7532C29.3112 35.6201 30.2596 34.4131 31.0724 33.1322C31.8853 31.8512 32.5258 30.5703 32.9938 29.2894C33.4618 28.0085 33.6958 26.7892 33.6958 25.6314C33.6958 24.523 33.4249 23.5869 32.883 22.8233C32.3657 22.0597 31.4173 21.6779 30.0379 21.6779C28.8801 21.6779 27.8086 21.9981 26.8233 22.6385C25.838 23.279 24.865 24.2766 23.9043 25.6314L23.2022 25.0402C24.2122 22.4784 25.4808 20.5694 27.008 19.3131C28.5353 18.0568 30.4443 17.4287 32.7352 17.4287C34.0653 17.4287 35.26 17.6504 36.3193 18.0938C37.3785 18.5125 38.216 19.1776 38.8318 20.089C39.4723 20.9758 39.7925 22.1336 39.7925 23.5623C39.7925 26.0995 38.9796 28.4765 37.3538 30.6935C35.7527 32.9105 33.5111 34.9919 30.6291 36.9379V37.0118H36.0237C37.4277 37.0118 38.4007 36.8394 38.9427 36.4945C39.4846 36.1497 39.8048 35.7063 39.9033 35.1644ZM55.6296 17.4287C56.9105 17.4287 58.1668 17.675 59.3985 18.1677C60.6301 18.6603 61.7386 19.4239 62.7239 20.4585C63.7092 21.4931 64.4852 22.7987 65.0517 24.3752C65.6429 25.927 65.9385 27.7745 65.9385 29.9176C65.9385 32.036 65.6552 33.8835 65.0887 35.46C64.5221 37.0365 63.7462 38.3543 62.7608 39.4135C61.7755 40.4728 60.6671 41.261 59.4354 41.7783C58.2038 42.2956 56.9228 42.5542 55.5927 42.5542C54.3118 42.5542 53.0555 42.3079 51.8238 41.8153C50.5922 41.3226 49.4837 40.559 48.4984 39.5244C47.5131 38.4898 46.7248 37.1966 46.1336 35.6447C45.5671 34.0682 45.2838 32.2084 45.2838 30.0654C45.2838 27.9469 45.5671 26.0995 46.1336 24.523C46.7002 22.9465 47.4761 21.6286 48.4614 20.5694C49.4468 19.5102 50.5552 18.7219 51.7869 18.2046C53.0185 17.6873 54.2994 17.4287 55.6296 17.4287ZM55.7405 40.9654C56.4548 40.9654 57.1076 40.6452 57.6988 40.0047C58.29 39.3643 58.758 38.2804 59.1029 36.7532C59.4724 35.226 59.6571 33.1322 59.6571 30.4718C59.6571 28.1563 59.497 26.1487 59.1768 24.4491C58.8812 22.7248 58.4255 21.3946 57.8096 20.4585C57.1938 19.4978 56.4179 19.0175 55.4818 19.0175C54.7921 19.0175 54.1393 19.3377 53.5235 19.9782C52.9323 20.6186 52.452 21.7025 52.0825 23.2297C51.7376 24.757 51.5652 26.8508 51.5652 29.5111C51.5652 31.8266 51.713 33.8465 52.0086 35.5708C52.3288 37.2705 52.7968 38.6007 53.4127 39.5613C54.0285 40.4974 54.8044 40.9654 55.7405 40.9654ZM91.0179 30.8413L79.5636 31.8389L79.3049 28.846L90.7592 27.8484L91.0179 30.8413ZM119.611 35.1644H120.461L120.092 42H102.282V41.1502C102.479 41.0516 102.775 40.8792 103.169 40.6329C103.588 40.3865 104.019 40.1033 104.462 39.783C105.694 38.8963 106.852 37.8863 107.935 36.7532C109.019 35.6201 109.968 34.4131 110.781 33.1322C111.593 31.8512 112.234 30.5703 112.702 29.2894C113.17 28.0085 113.404 26.7892 113.404 25.6314C113.404 24.523 113.133 23.5869 112.591 22.8233C112.074 22.0597 111.125 21.6779 109.746 21.6779C108.588 21.6779 107.517 21.9981 106.531 22.6385C105.546 23.279 104.573 24.2766 103.612 25.6314L102.91 25.0402C103.92 22.4784 105.189 20.5694 106.716 19.3131C108.243 18.0568 110.152 17.4287 112.443 17.4287C113.773 17.4287 114.968 17.6504 116.027 18.0938C117.087 18.5125 117.924 19.1776 118.54 20.089C119.18 20.9758 119.501 22.1336 119.501 23.5623C119.501 26.0995 118.688 28.4765 117.062 30.6935C115.461 32.9105 113.219 34.9919 110.337 36.9379V37.0118H115.732C117.136 37.0118 118.109 36.8394 118.651 36.4945C119.193 36.1497 119.513 35.7063 119.611 35.1644ZM134.71 37.9356C134.71 38.847 134.784 39.5367 134.931 40.0047C135.104 40.4481 135.449 40.7437 135.966 40.8915C136.508 41.0393 137.321 41.1255 138.405 41.1502V42H124.733V41.1502C125.842 41.1255 126.655 41.0393 127.172 40.8915C127.714 40.7437 128.059 40.4481 128.207 40.0047C128.354 39.5367 128.428 38.847 128.428 37.9356V21.8626L125.029 23.9687L124.253 22.7863L132.825 17.4287H134.968C134.87 17.8967 134.796 18.3647 134.747 18.8328C134.722 19.3008 134.71 19.7688 134.71 20.2368V37.9356ZM151.611 42V41.1502C152.325 41.1009 152.843 40.9162 153.163 40.5959C153.483 40.2757 153.643 39.5121 153.643 38.3051V21.1236C153.643 19.9166 153.459 19.153 153.089 18.8328C152.744 18.4879 152.067 18.3031 151.057 18.2785V17.4287H161.587V18.2785C160.873 18.3031 160.356 18.4879 160.036 18.8328C159.715 19.153 159.555 19.9166 159.555 21.1236V27.6637C159.752 27.5159 159.986 27.4173 160.257 27.3681C160.553 27.3188 160.898 27.2942 161.292 27.2942H168.275C168.94 27.2942 169.408 27.1833 169.679 26.9616C169.95 26.7399 170.086 26.2965 170.086 25.6314V21.1236C170.086 19.9166 169.901 19.153 169.531 18.8328C169.187 18.4879 168.509 18.3031 167.499 18.2785V17.4287H178.03V18.2785C177.315 18.3031 176.798 18.4879 176.478 18.8328C176.158 19.153 175.998 19.9166 175.998 21.1236V38.3051C175.998 39.5121 176.182 40.2757 176.552 40.5959C176.921 40.9162 177.599 41.1009 178.584 41.1502V42H168.054V41.1502C168.768 41.1009 169.285 40.9162 169.605 40.5959C169.926 40.2757 170.086 39.5121 170.086 38.3051V28.4765C169.889 28.649 169.642 28.7598 169.347 28.8091C169.051 28.8583 168.719 28.883 168.349 28.883H161.366C160.701 28.883 160.233 28.9938 159.962 29.2155C159.691 29.4372 159.555 29.8683 159.555 30.5088V38.3051C159.555 39.5121 159.74 40.2757 160.109 40.5959C160.479 40.9162 161.156 41.1009 162.142 41.1502V42H151.611ZM194.881 16.8744C196.63 16.8744 198.255 17.17 199.758 17.7612C201.261 18.3524 202.591 19.2146 203.749 20.3477C204.906 21.4562 205.805 22.7987 206.446 24.3752C207.086 25.9517 207.407 27.7129 207.407 29.6589C207.407 31.6049 207.086 33.3662 206.446 34.9427C205.805 36.5192 204.906 37.874 203.749 39.0071C202.616 40.1402 201.285 41.0147 199.758 41.6305C198.231 42.2463 196.593 42.5542 194.844 42.5542C193.12 42.5542 191.494 42.2586 189.967 41.6675C188.464 41.0763 187.134 40.2264 185.976 39.118C184.818 37.9848 183.919 36.63 183.279 35.0535C182.638 33.477 182.318 31.7158 182.318 29.7698C182.318 27.8238 182.638 26.0625 183.279 24.486C183.919 22.9095 184.806 21.5547 185.939 20.4216C187.097 19.2885 188.439 18.414 189.967 17.7982C191.494 17.1824 193.132 16.8744 194.881 16.8744ZM195.62 40.9654C196.901 40.9654 197.911 40.5467 198.65 39.7091C199.389 38.847 199.918 37.6646 200.238 36.162C200.583 34.6594 200.756 32.9105 200.756 30.9152C200.756 26.9 200.14 23.8209 198.908 21.6779C197.701 19.5348 196.1 18.4633 194.105 18.4633C192.849 18.4633 191.839 18.882 191.075 19.7195C190.336 20.5571 189.794 21.7394 189.449 23.2667C189.129 24.7693 188.969 26.5182 188.969 28.5135C188.969 32.5287 189.572 35.6078 190.779 37.7508C192.011 39.8939 193.624 40.9654 195.62 40.9654ZM211.606 42.5542C210.99 42.5542 210.337 42.505 209.648 42.4064C208.958 42.3079 208.367 42.1724 207.874 42V41.1502C208.367 41.1502 208.921 40.9531 209.537 40.559C210.153 40.1649 210.781 39.3766 211.421 38.1942L216.705 28.6243C215.054 28.2056 213.798 27.5282 212.936 26.5921C212.099 25.6561 211.68 24.523 211.68 23.1928C211.68 22.1582 211.988 21.1852 212.603 20.2738C213.244 19.3624 214.279 18.6357 215.707 18.0938C217.161 17.5272 219.107 17.2439 221.545 17.2439C222.333 17.2439 223.245 17.2809 224.279 17.3548C225.314 17.404 226.459 17.4287 227.716 17.4287H232.445V18.2785C231.731 18.3031 231.214 18.4879 230.893 18.8328C230.573 19.153 230.413 19.9166 230.413 21.1236V38.3051C230.413 39.5121 230.598 40.2757 230.967 40.5959C231.337 40.9162 232.014 41.1009 233 41.1502V42H222.469V41.1502C223.183 41.1009 223.701 40.9162 224.021 40.5959C224.341 40.2757 224.501 39.5121 224.501 38.3051V21.1236C224.501 20.1629 224.329 19.5471 223.984 19.2761C223.664 18.9806 223.097 18.8328 222.284 18.8328C221.225 18.8328 220.264 19.2146 219.402 19.9782C218.565 20.7172 218.146 21.838 218.146 23.3406C218.146 24.1288 218.306 24.8925 218.626 25.6314C218.946 26.3458 219.513 26.9493 220.326 27.442C221.163 27.9346 222.309 28.2302 223.762 28.3287V29.622C223.467 29.622 223.208 29.6836 222.986 29.8067C222.765 29.9052 222.543 30.1639 222.321 30.5827L218.146 38.6376C217.579 39.7215 216.791 40.6452 215.781 41.4088C214.771 42.1724 213.379 42.5542 211.606 42.5542ZM244.676 27.2203H248.26C250.945 27.2203 253.063 27.5159 254.615 28.107C256.167 28.6982 257.263 29.5111 257.904 30.5457C258.569 31.5803 258.901 32.775 258.901 34.1298C258.901 35.4846 258.532 36.7655 257.793 37.9725C257.078 39.1549 255.958 40.1279 254.43 40.8915C252.928 41.6305 251.006 42 248.666 42H236.732V41.1502C237.446 41.1009 237.963 40.9162 238.284 40.5959C238.604 40.2757 238.764 39.5121 238.764 38.3051V21.1236C238.764 19.9166 238.579 19.153 238.21 18.8328C237.865 18.4879 237.187 18.3031 236.177 18.2785V17.4287H256.5V23.5253H255.65C255.576 22.6878 255.416 21.9365 255.169 21.2714C254.923 20.5817 254.504 20.0398 253.913 19.6456C253.322 19.2269 252.472 19.0175 251.364 19.0175H246.302C245.784 19.0175 245.378 19.153 245.082 19.4239C244.811 19.6949 244.676 20.2615 244.676 21.1236V27.2203ZM246.856 40.4112C248.161 40.4112 249.233 40.1033 250.07 39.4874C250.933 38.847 251.573 38.0587 251.992 37.1227C252.411 36.1866 252.62 35.2629 252.62 34.3515C252.62 32.9967 252.361 31.9128 251.844 31.0999C251.351 30.2871 250.674 29.7082 249.812 29.3633C248.974 28.9938 248.026 28.8091 246.967 28.8091H244.676V38.3051C244.676 39.1672 244.811 39.7338 245.082 40.0047C245.353 40.2757 245.944 40.4112 246.856 40.4112ZM262.82 42V41.1502C263.534 41.1009 264.052 40.9162 264.372 40.5959C264.692 40.2757 264.852 39.5121 264.852 38.3051V21.1236C264.852 19.9166 264.667 19.153 264.298 18.8328C263.953 18.4879 263.276 18.3031 262.266 18.2785V17.4287H264.852C266.65 17.4287 268.338 17.404 269.914 17.3548C271.491 17.2809 272.673 17.2439 273.461 17.2439C276.023 17.2439 278.043 17.5272 279.521 18.0938C281.024 18.6603 282.095 19.4116 282.736 20.3477C283.401 21.2591 283.733 22.269 283.733 23.3775C283.733 24.6584 283.315 25.8778 282.477 27.0355C281.664 28.1933 280.359 29.0924 278.56 29.7328C276.787 30.3486 274.434 30.5457 271.503 30.324V29.0308C272.833 29.08 273.929 28.846 274.792 28.3287C275.654 27.7868 276.282 27.0725 276.676 26.1857C277.095 25.2989 277.304 24.3505 277.304 23.3406C277.304 21.9858 276.922 20.9019 276.159 20.089C275.395 19.2515 274.336 18.8328 272.981 18.8328C272.168 18.8328 271.589 18.9806 271.244 19.2761C270.924 19.5471 270.764 20.1629 270.764 21.1236V38.3051C270.764 39.0933 270.838 39.6968 270.986 40.1156C271.158 40.5097 271.454 40.7807 271.873 40.9285C272.316 41.0516 272.932 41.1255 273.72 41.1502V42H262.82ZM287.633 42.5542C287.018 42.5542 286.365 42.505 285.675 42.4064C284.985 42.3079 284.394 42.1724 283.902 42V41.1502C284.394 41.1502 284.948 40.9531 285.564 40.559C286.18 40.1649 286.808 39.3766 287.449 38.1942L292.732 28.6243C291.082 28.2056 289.826 27.5282 288.964 26.5921C288.126 25.6561 287.707 24.523 287.707 23.1928C287.707 22.1582 288.015 21.1852 288.631 20.2738C289.272 19.3624 290.306 18.6357 291.735 18.0938C293.188 17.5272 295.134 17.2439 297.573 17.2439C298.361 17.2439 299.273 17.2809 300.307 17.3548C301.342 17.404 302.487 17.4287 303.743 17.4287H308.473V18.2785C307.759 18.3031 307.241 18.4879 306.921 18.8328C306.601 19.153 306.441 19.9166 306.441 21.1236V38.3051C306.441 39.5121 306.625 40.2757 306.995 40.5959C307.364 40.9162 308.042 41.1009 309.027 41.1502V42H298.497V41.1502C299.211 41.1009 299.728 40.9162 300.048 40.5959C300.369 40.2757 300.529 39.5121 300.529 38.3051V21.1236C300.529 20.1629 300.356 19.5471 300.012 19.2761C299.691 18.9806 299.125 18.8328 298.312 18.8328C297.253 18.8328 296.292 19.2146 295.43 19.9782C294.592 20.7172 294.174 21.838 294.174 23.3406C294.174 24.1288 294.334 24.8925 294.654 25.6314C294.974 26.3458 295.541 26.9493 296.354 27.442C297.191 27.9346 298.336 28.2302 299.79 28.3287V29.622C299.494 29.622 299.236 29.6836 299.014 29.8067C298.792 29.9052 298.57 30.1639 298.349 30.5827L294.174 38.6376C293.607 39.7215 292.819 40.6452 291.809 41.4088C290.799 42.1724 289.407 42.5542 287.633 42.5542ZM338.385 35.1644H339.235L338.865 42H321.056V41.1502C321.253 41.0516 321.548 40.8792 321.942 40.6329C322.361 40.3865 322.792 40.1033 323.236 39.783C324.467 38.8963 325.625 37.8863 326.709 36.7532C327.793 35.6201 328.741 34.4131 329.554 33.1322C330.367 31.8512 331.007 30.5703 331.475 29.2894C331.943 28.0085 332.177 26.7892 332.177 25.6314C332.177 24.523 331.906 23.5869 331.364 22.8233C330.847 22.0597 329.899 21.6779 328.519 21.6779C327.362 21.6779 326.29 21.9981 325.305 22.6385C324.319 23.279 323.346 24.2766 322.386 25.6314L321.684 25.0402C322.694 22.4784 323.962 20.5694 325.49 19.3131C327.017 18.0568 328.926 17.4287 331.217 17.4287C332.547 17.4287 333.742 17.6504 334.801 18.0938C335.86 18.5125 336.697 19.1776 337.313 20.089C337.954 20.9758 338.274 22.1336 338.274 23.5623C338.274 26.0995 337.461 28.4765 335.835 30.6935C334.234 32.9105 331.993 34.9919 329.111 36.9379V37.0118H334.505C335.909 37.0118 336.882 36.8394 337.424 36.4945C337.966 36.1497 338.286 35.7063 338.385 35.1644ZM354.111 17.4287C355.392 17.4287 356.648 17.675 357.88 18.1677C359.112 18.6603 360.22 19.4239 361.205 20.4585C362.191 21.4931 362.967 22.7987 363.533 24.3752C364.124 25.927 364.42 27.7745 364.42 29.9176C364.42 32.036 364.137 33.8835 363.57 35.46C363.004 37.0365 362.228 38.3543 361.242 39.4135C360.257 40.4728 359.149 41.261 357.917 41.7783C356.685 42.2956 355.404 42.5542 354.074 42.5542C352.793 42.5542 351.537 42.3079 350.305 41.8153C349.074 41.3226 347.965 40.559 346.98 39.5244C345.995 38.4898 345.206 37.1966 344.615 35.6447C344.049 34.0682 343.765 32.2084 343.765 30.0654C343.765 27.9469 344.049 26.0995 344.615 24.523C345.182 22.9465 345.958 21.6286 346.943 20.5694C347.928 19.5102 349.037 18.7219 350.268 18.2046C351.5 17.6873 352.781 17.4287 354.111 17.4287ZM354.222 40.9654C354.936 40.9654 355.589 40.6452 356.18 40.0047C356.771 39.3643 357.24 38.2804 357.584 36.7532C357.954 35.226 358.139 33.1322 358.139 30.4718C358.139 28.1563 357.979 26.1487 357.658 24.4491C357.363 22.7248 356.907 21.3946 356.291 20.4585C355.675 19.4978 354.899 19.0175 353.963 19.0175C353.274 19.0175 352.621 19.3377 352.005 19.9782C351.414 20.6186 350.934 21.7025 350.564 23.2297C350.219 24.757 350.047 26.8508 350.047 29.5111C350.047 31.8266 350.195 33.8465 350.49 35.5708C350.81 37.2705 351.278 38.6007 351.894 39.5613C352.51 40.4974 353.286 40.9654 354.222 40.9654ZM384.824 35.1644H385.674L385.305 42H367.495V41.1502C367.692 41.0516 367.988 40.8792 368.382 40.6329C368.8 40.3865 369.232 40.1033 369.675 39.783C370.907 38.8963 372.064 37.8863 373.148 36.7532C374.232 35.6201 375.18 34.4131 375.993 33.1322C376.806 31.8512 377.447 30.5703 377.915 29.2894C378.383 28.0085 378.617 26.7892 378.617 25.6314C378.617 24.523 378.346 23.5869 377.804 22.8233C377.286 22.0597 376.338 21.6779 374.959 21.6779C373.801 21.6779 372.729 21.9981 371.744 22.6385C370.759 23.279 369.786 24.2766 368.825 25.6314L368.123 25.0402C369.133 22.4784 370.402 20.5694 371.929 19.3131C373.456 18.0568 375.365 17.4287 377.656 17.4287C378.986 17.4287 380.181 17.6504 381.24 18.0938C382.299 18.5125 383.137 19.1776 383.753 20.089C384.393 20.9758 384.713 22.1336 384.713 23.5623C384.713 26.0995 383.9 28.4765 382.275 30.6935C380.674 32.9105 378.432 34.9919 375.55 36.9379V37.0118H380.944C382.349 37.0118 383.322 36.8394 383.863 36.4945C384.405 36.1497 384.726 35.7063 384.824 35.1644ZM405.354 32.5779L407.94 32.5779V37.1966H406.388C405.699 37.1966 405.354 37.6277 405.354 38.4898C405.354 39.081 405.354 39.6599 405.354 40.2264C405.378 40.7684 405.403 41.3595 405.428 42H399.59C399.639 41.1871 399.676 40.3989 399.701 39.6352C399.725 38.847 399.75 38.0341 399.774 37.1966H388.098V36.3468C388.739 35.7309 389.318 35.0905 389.835 34.4254L401.918 19.3131C402.189 18.9682 402.435 18.6357 402.657 18.3155C402.903 17.9706 403.1 17.675 403.248 17.4287H405.391L405.354 32.5779ZM399.701 24.8555L393.53 32.5779H399.811V24.8555H399.701ZM438.254 17.4287V24.2643H437.405C437.281 23.1805 437.06 22.2567 436.739 21.4931C436.444 20.7049 435.976 20.1014 435.335 19.6826C434.72 19.2392 433.857 19.0175 432.749 19.0175H431.012C430.495 19.0175 430.089 19.153 429.793 19.4239C429.522 19.6949 429.387 20.2615 429.387 21.1236V38.3051C429.387 39.5121 429.571 40.2757 429.941 40.5959C430.31 40.9162 430.988 41.1009 431.973 41.1502V42H421.442V41.1502C422.157 41.1009 422.674 40.9162 422.994 40.5959C423.314 40.2757 423.475 39.5121 423.475 38.3051V21.1236C423.475 19.9166 423.29 19.153 422.92 18.8328C422.576 18.4879 421.898 18.3031 420.888 18.2785V17.4287H438.254ZM453.057 16.8744C454.806 16.8744 456.432 17.17 457.934 17.7612C459.437 18.3524 460.767 19.2146 461.925 20.3477C463.083 21.4562 463.982 22.7987 464.622 24.3752C465.263 25.9517 465.583 27.7129 465.583 29.6589C465.583 31.6049 465.263 33.3662 464.622 34.9427C463.982 36.5192 463.083 37.874 461.925 39.0071C460.792 40.1402 459.462 41.0147 457.934 41.6305C456.407 42.2463 454.769 42.5542 453.02 42.5542C451.296 42.5542 449.67 42.2586 448.143 41.6675C446.64 41.0763 445.31 40.2264 444.152 39.118C442.995 37.9848 442.096 36.63 441.455 35.0535C440.815 33.477 440.494 31.7158 440.494 29.7698C440.494 27.8238 440.815 26.0625 441.455 24.486C442.096 22.9095 442.982 21.5547 444.115 20.4216C445.273 19.2885 446.616 18.414 448.143 17.7982C449.67 17.1824 451.308 16.8744 453.057 16.8744ZM453.796 40.9654C455.077 40.9654 456.087 40.5467 456.826 39.7091C457.565 38.847 458.095 37.6646 458.415 36.162C458.76 34.6594 458.932 32.9105 458.932 30.9152C458.932 26.9 458.316 23.8209 457.085 21.6779C455.878 19.5348 454.277 18.4633 452.281 18.4633C451.025 18.4633 450.015 18.882 449.251 19.7195C448.512 20.5571 447.97 21.7394 447.626 23.2667C447.305 24.7693 447.145 26.5182 447.145 28.5135C447.145 32.5287 447.749 35.6078 448.956 37.7508C450.187 39.8939 451.801 40.9654 453.796 40.9654ZM481.606 20.3477L487.74 38.3051C487.961 38.9455 488.282 39.5367 488.7 40.0786C489.144 40.5959 489.821 40.9531 490.733 41.1502L489.033 49.5746H488.183C488.134 48.0474 487.912 46.7172 487.518 45.5841C487.124 44.451 486.631 43.5642 486.04 42.9237C485.449 42.3079 484.808 42 484.119 42H474.216C473.305 42 472.406 42.3079 471.519 42.9237C470.657 43.5642 469.918 44.451 469.302 45.5841C468.711 46.7172 468.329 48.0474 468.156 49.5746H467.307V41.1502C467.75 40.9531 468.181 40.6206 468.6 40.1525C469.019 39.6599 469.4 39.1056 469.745 38.4898C470.115 37.874 470.398 37.2951 470.595 36.7532L476.877 20.3477C477.123 19.7072 477.357 19.0791 477.579 18.4633C477.8 17.8474 477.997 17.2193 478.17 16.5788H480.313C480.485 17.2193 480.682 17.8474 480.904 18.4633C481.15 19.0791 481.384 19.7072 481.606 20.3477ZM480.054 40.4112C481.039 40.4112 481.581 40.2511 481.68 39.9308C481.778 39.6106 481.692 39.0687 481.421 38.3051L477.098 25.0033H477.024L471.26 40.4112H480.054ZM513.344 38.3051C513.689 39.1426 513.973 39.7584 514.194 40.1525C514.441 40.5467 514.699 40.8053 514.97 40.9285C515.241 41.027 515.574 41.1009 515.968 41.1502V42H505.659V41.1502C506.644 41.1009 507.186 40.8053 507.285 40.2634C507.408 39.7215 507.322 39.0687 507.026 38.3051L505.179 33.5017C505.031 33.6248 504.834 33.711 504.587 33.7603C504.366 33.7849 504.119 33.7972 503.848 33.7972H499.673C499.156 33.7972 498.762 33.8588 498.491 33.982C498.22 34.1052 497.986 34.4131 497.789 34.9057L496.459 38.3051C496.138 39.118 496.163 39.783 496.532 40.3003C496.902 40.8176 497.629 41.1009 498.712 41.1502V42H491.988V41.1502C492.53 41.1009 492.985 40.8299 493.355 40.3373C493.749 39.82 494.106 39.1426 494.426 38.3051L501.521 20.3477C501.792 19.7072 502.026 19.0791 502.223 18.4633C502.444 17.8474 502.641 17.2193 502.814 16.5788H504.957C505.129 17.2193 505.326 17.8474 505.548 18.4633C505.77 19.0791 506.004 19.7072 506.25 20.3477L513.344 38.3051ZM503.664 32.2084C504.009 32.2084 504.23 32.1592 504.329 32.0606C504.452 31.9375 504.44 31.6911 504.292 31.3216L501.742 25.0033H501.668L498.786 32.3562C498.91 32.2823 499.057 32.2454 499.23 32.2454C499.402 32.2207 499.599 32.2084 499.821 32.2084H503.664Z" fill="black"/>
<path d="M553.724 25.7876C550.041 24.3167 545.719 25.1012 542.772 28.0428C538.795 32.0141 538.795 38.4367 542.772 42.4079C545.719 45.3496 550.041 46.134 553.724 44.6632V39.9566C552.987 40.2997 552.201 40.4959 551.366 40.4959C548.42 40.4959 546.063 38.1425 546.063 35.2009C546.063 32.2592 548.42 29.9059 551.366 29.9059C552.201 29.9059 553.036 30.102 553.724 30.4452V25.7876Z" fill="black"/>
<path d="M552.061 21.0709C553.512 19.6165 553.512 17.2092 552.061 15.7046C550.611 14.2502 548.209 14.2502 546.708 15.7046C545.208 17.159 545.258 19.5663 546.708 21.0709C548.209 22.5253 550.611 22.5253 552.061 21.0709Z" fill="black"/>
<path d="M594.231 35.1644H595.081L594.712 42H576.902V41.1502C577.099 41.0516 577.395 40.8792 577.789 40.6329C578.208 40.3865 578.639 40.1033 579.082 39.783C580.314 38.8963 581.472 37.8863 582.555 36.7532C583.639 35.6201 584.588 34.4131 585.401 33.1322C586.213 31.8512 586.854 30.5703 587.322 29.2894C587.79 28.0085 588.024 26.7892 588.024 25.6314C588.024 24.523 587.753 23.5869 587.211 22.8233C586.694 22.0597 585.745 21.6779 584.366 21.6779C583.208 21.6779 582.137 21.9981 581.151 22.6385C580.166 23.279 579.193 24.2766 578.232 25.6314L577.53 25.0402C578.54 22.4784 579.809 20.5694 581.336 19.3131C582.863 18.0568 584.772 17.4287 587.063 17.4287C588.393 17.4287 589.588 17.6504 590.647 18.0938C591.707 18.5125 592.544 19.1776 593.16 20.089C593.8 20.9758 594.121 22.1336 594.121 23.5623C594.121 26.0995 593.308 28.4765 591.682 30.6935C590.081 32.9105 587.839 34.9919 584.957 36.9379V37.0118H590.352C591.756 37.0118 592.729 36.8394 593.271 36.4945C593.813 36.1497 594.133 35.7063 594.231 35.1644ZM609.958 17.4287C611.239 17.4287 612.495 17.675 613.727 18.1677C614.958 18.6603 616.067 19.4239 617.052 20.4585C618.037 21.4931 618.813 22.7987 619.38 24.3752C619.971 25.927 620.267 27.7745 620.267 29.9176C620.267 32.036 619.983 33.8835 619.417 35.46C618.85 37.0365 618.074 38.3543 617.089 39.4135C616.104 40.4728 614.995 41.261 613.764 41.7783C612.532 42.2956 611.251 42.5542 609.921 42.5542C608.64 42.5542 607.384 42.3079 606.152 41.8153C604.92 41.3226 603.812 40.559 602.827 39.5244C601.841 38.4898 601.053 37.1966 600.462 35.6447C599.895 34.0682 599.612 32.2084 599.612 30.0654C599.612 27.9469 599.895 26.0995 600.462 24.523C601.028 22.9465 601.804 21.6286 602.79 20.5694C603.775 19.5102 604.883 18.7219 606.115 18.2046C607.347 17.6873 608.628 17.4287 609.958 17.4287ZM610.069 40.9654C610.783 40.9654 611.436 40.6452 612.027 40.0047C612.618 39.3643 613.086 38.2804 613.431 36.7532C613.8 35.226 613.985 33.1322 613.985 30.4718C613.985 28.1563 613.825 26.1487 613.505 24.4491C613.209 22.7248 612.754 21.3946 612.138 20.4585C611.522 19.4978 610.746 19.0175 609.81 19.0175C609.12 19.0175 608.467 19.3377 607.852 19.9782C607.26 20.6186 606.78 21.7025 606.411 23.2297C606.066 24.757 605.893 26.8508 605.893 29.5111C605.893 31.8266 606.041 33.8465 606.337 35.5708C606.657 37.2705 607.125 38.6007 607.741 39.5613C608.357 40.4974 609.133 40.9654 610.069 40.9654ZM645.346 30.8413L633.892 31.8389L633.633 28.846L645.087 27.8484L645.346 30.8413ZM673.94 35.1644H674.789L674.42 42H656.61V41.1502C656.807 41.0516 657.103 40.8792 657.497 40.6329C657.916 40.3865 658.347 40.1033 658.79 39.783C660.022 38.8963 661.18 37.8863 662.264 36.7532C663.347 35.6201 664.296 34.4131 665.109 33.1322C665.922 31.8512 666.562 30.5703 667.03 29.2894C667.498 28.0085 667.732 26.7892 667.732 25.6314C667.732 24.523 667.461 23.5869 666.919 22.8233C666.402 22.0597 665.454 21.6779 664.074 21.6779C662.916 21.6779 661.845 21.9981 660.86 22.6385C659.874 23.279 658.901 24.2766 657.941 25.6314L657.238 25.0402C658.248 22.4784 659.517 20.5694 661.044 19.3131C662.572 18.0568 664.481 17.4287 666.771 17.4287C668.102 17.4287 669.296 17.6504 670.356 18.0938C671.415 18.5125 672.252 19.1776 672.868 20.089C673.509 20.9758 673.829 22.1336 673.829 23.5623C673.829 26.0995 673.016 28.4765 671.39 30.6935C669.789 32.9105 667.547 34.9919 664.665 36.9379V37.0118H670.06C671.464 37.0118 672.437 36.8394 672.979 36.4945C673.521 36.1497 673.841 35.7063 673.94 35.1644ZM689.038 37.9356C689.038 38.847 689.112 39.5367 689.259 40.0047C689.432 40.4481 689.777 40.7437 690.294 40.8915C690.836 41.0393 691.649 41.1255 692.733 41.1502V42H679.061V41.1502C680.17 41.1255 680.983 41.0393 681.5 40.8915C682.042 40.7437 682.387 40.4481 682.535 40.0047C682.682 39.5367 682.756 38.847 682.756 37.9356V21.8626L679.357 23.9687L678.581 22.7863L687.153 17.4287H689.296C689.198 17.8967 689.124 18.3647 689.075 18.8328C689.05 19.3008 689.038 19.7688 689.038 20.2368V37.9356ZM705.939 42V41.1502C706.654 41.1009 707.171 40.9162 707.491 40.5959C707.811 40.2757 707.971 39.5121 707.971 38.3051V21.1236C707.971 19.9166 707.787 19.153 707.417 18.8328C707.072 18.4879 706.395 18.3031 705.385 18.2785V17.4287H715.916V18.2785C715.201 18.3031 714.684 18.4879 714.364 18.8328C714.043 19.153 713.883 19.9166 713.883 21.1236V27.6637C714.08 27.5159 714.314 27.4173 714.585 27.3681C714.881 27.3188 715.226 27.2942 715.62 27.2942H722.603C723.268 27.2942 723.736 27.1833 724.007 26.9616C724.278 26.7399 724.414 26.2965 724.414 25.6314V21.1236C724.414 19.9166 724.229 19.153 723.86 18.8328C723.515 18.4879 722.837 18.3031 721.827 18.2785V17.4287H732.358V18.2785C731.644 18.3031 731.126 18.4879 730.806 18.8328C730.486 19.153 730.326 19.9166 730.326 21.1236V38.3051C730.326 39.5121 730.511 40.2757 730.88 40.5959C731.249 40.9162 731.927 41.1009 732.912 41.1502V42H722.382V41.1502C723.096 41.1009 723.613 40.9162 723.934 40.5959C724.254 40.2757 724.414 39.5121 724.414 38.3051V28.4765C724.217 28.649 723.97 28.7598 723.675 28.8091C723.379 28.8583 723.047 28.883 722.677 28.883H715.694C715.029 28.883 714.561 28.9938 714.29 29.2155C714.019 29.4372 713.883 29.8683 713.883 30.5088V38.3051C713.883 39.5121 714.068 40.2757 714.438 40.5959C714.807 40.9162 715.484 41.1009 716.47 41.1502V42H705.939ZM749.209 16.8744C750.958 16.8744 752.584 17.17 754.086 17.7612C755.589 18.3524 756.919 19.2146 758.077 20.3477C759.234 21.4562 760.134 22.7987 760.774 24.3752C761.415 25.9517 761.735 27.7129 761.735 29.6589C761.735 31.6049 761.415 33.3662 760.774 34.9427C760.134 36.5192 759.234 37.874 758.077 39.0071C756.944 40.1402 755.613 41.0147 754.086 41.6305C752.559 42.2463 750.921 42.5542 749.172 42.5542C747.448 42.5542 745.822 42.2586 744.295 41.6675C742.792 41.0763 741.462 40.2264 740.304 39.118C739.146 37.9848 738.247 36.63 737.607 35.0535C736.966 33.477 736.646 31.7158 736.646 29.7698C736.646 27.8238 736.966 26.0625 737.607 24.486C738.247 22.9095 739.134 21.5547 740.267 20.4216C741.425 19.2885 742.767 18.414 744.295 17.7982C745.822 17.1824 747.46 16.8744 749.209 16.8744ZM749.948 40.9654C751.229 40.9654 752.239 40.5467 752.978 39.7091C753.717 38.847 754.246 37.6646 754.567 36.162C754.911 34.6594 755.084 32.9105 755.084 30.9152C755.084 26.9 754.468 23.8209 753.236 21.6779C752.029 19.5348 750.428 18.4633 748.433 18.4633C747.177 18.4633 746.167 18.882 745.403 19.7195C744.664 20.5571 744.122 21.7394 743.777 23.2667C743.457 24.7693 743.297 26.5182 743.297 28.5135C743.297 32.5287 743.901 35.6078 745.108 37.7508C746.339 39.8939 747.953 40.9654 749.948 40.9654ZM765.934 42.5542C765.318 42.5542 764.665 42.505 763.976 42.4064C763.286 42.3079 762.695 42.1724 762.202 42V41.1502C762.695 41.1502 763.249 40.9531 763.865 40.559C764.481 40.1649 765.109 39.3766 765.749 38.1942L771.033 28.6243C769.383 28.2056 768.126 27.5282 767.264 26.5921C766.427 25.6561 766.008 24.523 766.008 23.1928C766.008 22.1582 766.316 21.1852 766.932 20.2738C767.572 19.3624 768.607 18.6357 770.035 18.0938C771.489 17.5272 773.435 17.2439 775.873 17.2439C776.662 17.2439 777.573 17.2809 778.608 17.3548C779.642 17.404 780.788 17.4287 782.044 17.4287H786.773V18.2785C786.059 18.3031 785.542 18.4879 785.222 18.8328C784.901 19.153 784.741 19.9166 784.741 21.1236V38.3051C784.741 39.5121 784.926 40.2757 785.295 40.5959C785.665 40.9162 786.342 41.1009 787.328 41.1502V42H776.797V41.1502C777.511 41.1009 778.029 40.9162 778.349 40.5959C778.669 40.2757 778.829 39.5121 778.829 38.3051V21.1236C778.829 20.1629 778.657 19.5471 778.312 19.2761C777.992 18.9806 777.425 18.8328 776.612 18.8328C775.553 18.8328 774.592 19.2146 773.73 19.9782C772.893 20.7172 772.474 21.838 772.474 23.3406C772.474 24.1288 772.634 24.8925 772.954 25.6314C773.275 26.3458 773.841 26.9493 774.654 27.442C775.492 27.9346 776.637 28.2302 778.09 28.3287V29.622C777.795 29.622 777.536 29.6836 777.314 29.8067C777.093 29.9052 776.871 30.1639 776.649 30.5827L772.474 38.6376C771.907 39.7215 771.119 40.6452 770.109 41.4088C769.099 42.1724 767.708 42.5542 765.934 42.5542ZM799.004 27.2203H802.588C805.273 27.2203 807.391 27.5159 808.943 28.107C810.495 28.6982 811.591 29.5111 812.232 30.5457C812.897 31.5803 813.229 32.775 813.229 34.1298C813.229 35.4846 812.86 36.7655 812.121 37.9725C811.407 39.1549 810.286 40.1279 808.759 40.8915C807.256 41.6305 805.335 42 802.994 42H791.06V41.1502C791.774 41.1009 792.291 40.9162 792.612 40.5959C792.932 40.2757 793.092 39.5121 793.092 38.3051V21.1236C793.092 19.9166 792.907 19.153 792.538 18.8328C792.193 18.4879 791.516 18.3031 790.506 18.2785V17.4287H810.828V23.5253H809.978C809.904 22.6878 809.744 21.9365 809.498 21.2714C809.251 20.5817 808.832 20.0398 808.241 19.6456C807.65 19.2269 806.8 19.0175 805.692 19.0175H800.63C800.112 19.0175 799.706 19.153 799.41 19.4239C799.139 19.6949 799.004 20.2615 799.004 21.1236V27.2203ZM801.184 40.4112C802.489 40.4112 803.561 40.1033 804.399 39.4874C805.261 38.847 805.901 38.0587 806.32 37.1227C806.739 36.1866 806.948 35.2629 806.948 34.3515C806.948 32.9967 806.689 31.9128 806.172 31.0999C805.679 30.2871 805.002 29.7082 804.14 29.3633C803.302 28.9938 802.354 28.8091 801.295 28.8091H799.004V38.3051C799.004 39.1672 799.139 39.7338 799.41 40.0047C799.681 40.2757 800.273 40.4112 801.184 40.4112ZM817.148 42V41.1502C817.862 41.1009 818.38 40.9162 818.7 40.5959C819.02 40.2757 819.18 39.5121 819.18 38.3051V21.1236C819.18 19.9166 818.996 19.153 818.626 18.8328C818.281 18.4879 817.604 18.3031 816.594 18.2785V17.4287H819.18C820.979 17.4287 822.666 17.404 824.242 17.3548C825.819 17.2809 827.001 17.2439 827.79 17.2439C830.351 17.2439 832.371 17.5272 833.849 18.0938C835.352 18.6603 836.423 19.4116 837.064 20.3477C837.729 21.2591 838.061 22.269 838.061 23.3775C838.061 24.6584 837.643 25.8778 836.805 27.0355C835.992 28.1933 834.687 29.0924 832.889 29.7328C831.115 30.3486 828.763 30.5457 825.831 30.324V29.0308C827.161 29.08 828.258 28.846 829.12 28.3287C829.982 27.7868 830.61 27.0725 831.004 26.1857C831.423 25.2989 831.632 24.3505 831.632 23.3406C831.632 21.9858 831.25 20.9019 830.487 20.089C829.723 19.2515 828.664 18.8328 827.309 18.8328C826.496 18.8328 825.917 18.9806 825.573 19.2761C825.252 19.5471 825.092 20.1629 825.092 21.1236V38.3051C825.092 39.0933 825.166 39.6968 825.314 40.1156C825.486 40.5097 825.782 40.7807 826.201 40.9285C826.644 41.0516 827.26 41.1255 828.048 41.1502V42H817.148ZM841.962 42.5542C841.346 42.5542 840.693 42.505 840.003 42.4064C839.314 42.3079 838.722 42.1724 838.23 42V41.1502C838.722 41.1502 839.277 40.9531 839.892 40.559C840.508 40.1649 841.136 39.3766 841.777 38.1942L847.061 28.6243C845.41 28.2056 844.154 27.5282 843.292 26.5921C842.454 25.6561 842.036 24.523 842.036 23.1928C842.036 22.1582 842.343 21.1852 842.959 20.2738C843.6 19.3624 844.634 18.6357 846.063 18.0938C847.516 17.5272 849.462 17.2439 851.901 17.2439C852.689 17.2439 853.601 17.2809 854.635 17.3548C855.67 17.404 856.815 17.4287 858.072 17.4287H862.801V18.2785C862.087 18.3031 861.569 18.4879 861.249 18.8328C860.929 19.153 860.769 19.9166 860.769 21.1236V38.3051C860.769 39.5121 860.954 40.2757 861.323 40.5959C861.693 40.9162 862.37 41.1009 863.355 41.1502V42H852.825V41.1502C853.539 41.1009 854.056 40.9162 854.377 40.5959C854.697 40.2757 854.857 39.5121 854.857 38.3051V21.1236C854.857 20.1629 854.685 19.5471 854.34 19.2761C854.019 18.9806 853.453 18.8328 852.64 18.8328C851.581 18.8328 850.62 19.2146 849.758 19.9782C848.92 20.7172 848.502 21.838 848.502 23.3406C848.502 24.1288 848.662 24.8925 848.982 25.6314C849.302 26.3458 849.869 26.9493 850.682 27.442C851.519 27.9346 852.665 28.2302 854.118 28.3287V29.622C853.822 29.622 853.564 29.6836 853.342 29.8067C853.12 29.9052 852.899 30.1639 852.677 30.5827L848.502 38.6376C847.935 39.7215 847.147 40.6452 846.137 41.4088C845.127 42.1724 843.735 42.5542 841.962 42.5542ZM892.713 35.1644H893.563L893.193 42H875.384V41.1502C875.581 41.0516 875.876 40.8792 876.271 40.6329C876.689 40.3865 877.12 40.1033 877.564 39.783C878.795 38.8963 879.953 37.8863 881.037 36.7532C882.121 35.6201 883.069 34.4131 883.882 33.1322C884.695 31.8512 885.335 30.5703 885.803 29.2894C886.271 28.0085 886.505 26.7892 886.505 25.6314C886.505 24.523 886.235 23.5869 885.693 22.8233C885.175 22.0597 884.227 21.6779 882.847 21.6779C881.69 21.6779 880.618 21.9981 879.633 22.6385C878.648 23.279 877.675 24.2766 876.714 25.6314L876.012 25.0402C877.022 22.4784 878.29 20.5694 879.818 19.3131C881.345 18.0568 883.254 17.4287 885.545 17.4287C886.875 17.4287 888.07 17.6504 889.129 18.0938C890.188 18.5125 891.026 19.1776 891.641 20.089C892.282 20.9758 892.602 22.1336 892.602 23.5623C892.602 26.0995 891.789 28.4765 890.163 30.6935C888.562 32.9105 886.321 34.9919 883.439 36.9379V37.0118H888.833C890.237 37.0118 891.21 36.8394 891.752 36.4945C892.294 36.1497 892.614 35.7063 892.713 35.1644ZM908.439 17.4287C909.72 17.4287 910.976 17.675 912.208 18.1677C913.44 18.6603 914.548 19.4239 915.534 20.4585C916.519 21.4931 917.295 22.7987 917.861 24.3752C918.453 25.927 918.748 27.7745 918.748 29.9176C918.748 32.036 918.465 33.8835 917.898 35.46C917.332 37.0365 916.556 38.3543 915.57 39.4135C914.585 40.4728 913.477 41.261 912.245 41.7783C911.013 42.2956 909.732 42.5542 908.402 42.5542C907.121 42.5542 905.865 42.3079 904.633 41.8153C903.402 41.3226 902.293 40.559 901.308 39.5244C900.323 38.4898 899.534 37.1966 898.943 35.6447C898.377 34.0682 898.093 32.2084 898.093 30.0654C898.093 27.9469 898.377 26.0995 898.943 24.523C899.51 22.9465 900.286 21.6286 901.271 20.5694C902.256 19.5102 903.365 18.7219 904.597 18.2046C905.828 17.6873 907.109 17.4287 908.439 17.4287ZM908.55 40.9654C909.264 40.9654 909.917 40.6452 910.508 40.0047C911.1 39.3643 911.568 38.2804 911.913 36.7532C912.282 35.226 912.467 33.1322 912.467 30.4718C912.467 28.1563 912.307 26.1487 911.986 24.4491C911.691 22.7248 911.235 21.3946 910.619 20.4585C910.003 19.4978 909.228 19.0175 908.291 19.0175C907.602 19.0175 906.949 19.3377 906.333 19.9782C905.742 20.6186 905.262 21.7025 904.892 23.2297C904.547 24.757 904.375 26.8508 904.375 29.5111C904.375 31.8266 904.523 33.8465 904.818 35.5708C905.138 37.2705 905.606 38.6007 906.222 39.5613C906.838 40.4974 907.614 40.9654 908.55 40.9654ZM939.152 35.1644H940.002L939.633 42H921.823V41.1502C922.02 41.0516 922.316 40.8792 922.71 40.6329C923.129 40.3865 923.56 40.1033 924.003 39.783C925.235 38.8963 926.392 37.8863 927.476 36.7532C928.56 35.6201 929.509 34.4131 930.321 33.1322C931.134 31.8512 931.775 30.5703 932.243 29.2894C932.711 28.0085 932.945 26.7892 932.945 25.6314C932.945 24.523 932.674 23.5869 932.132 22.8233C931.615 22.0597 930.666 21.6779 929.287 21.6779C928.129 21.6779 927.058 21.9981 926.072 22.6385C925.087 23.279 924.114 24.2766 923.153 25.6314L922.451 25.0402C923.461 22.4784 924.73 20.5694 926.257 19.3131C927.784 18.0568 929.693 17.4287 931.984 17.4287C933.314 17.4287 934.509 17.6504 935.568 18.0938C936.627 18.5125 937.465 19.1776 938.081 20.089C938.721 20.9758 939.041 22.1336 939.041 23.5623C939.041 26.0995 938.229 28.4765 936.603 30.6935C935.002 32.9105 932.76 34.9919 929.878 36.9379V37.0118H935.273C936.677 37.0118 937.65 36.8394 938.192 36.4945C938.734 36.1497 939.054 35.7063 939.152 35.1644ZM959.682 32.5779L962.268 32.5779V37.1966H960.717C960.027 37.1966 959.682 37.6277 959.682 38.4898C959.682 39.081 959.682 39.6599 959.682 40.2264C959.707 40.7684 959.731 41.3595 959.756 42H953.918C953.967 41.1871 954.004 40.3989 954.029 39.6352C954.053 38.847 954.078 38.0341 954.103 37.1966H942.427V36.3468C943.067 35.7309 943.646 35.0905 944.163 34.4254L956.246 19.3131C956.517 18.9682 956.763 18.6357 956.985 18.3155C957.231 17.9706 957.428 17.675 957.576 17.4287H959.719L959.682 32.5779ZM954.029 24.8555L947.858 32.5779H954.14V24.8555H954.029ZM992.582 17.4287V24.2643H991.733C991.609 23.1805 991.388 22.2567 991.068 21.4931C990.772 20.7049 990.304 20.1014 989.663 19.6826C989.048 19.2392 988.186 19.0175 987.077 19.0175H985.34C984.823 19.0175 984.417 19.153 984.121 19.4239C983.85 19.6949 983.715 20.2615 983.715 21.1236V38.3051C983.715 39.5121 983.899 40.2757 984.269 40.5959C984.638 40.9162 985.316 41.1009 986.301 41.1502V42H975.771V41.1502C976.485 41.1009 977.002 40.9162 977.322 40.5959C977.643 40.2757 977.803 39.5121 977.803 38.3051V21.1236C977.803 19.9166 977.618 19.153 977.248 18.8328C976.904 18.4879 976.226 18.3031 975.216 18.2785V17.4287H992.582ZM1007.39 16.8744C1009.13 16.8744 1010.76 17.17 1012.26 17.7612C1013.77 18.3524 1015.1 19.2146 1016.25 20.3477C1017.41 21.4562 1018.31 22.7987 1018.95 24.3752C1019.59 25.9517 1019.91 27.7129 1019.91 29.6589C1019.91 31.6049 1019.59 33.3662 1018.95 34.9427C1018.31 36.5192 1017.41 37.874 1016.25 39.0071C1015.12 40.1402 1013.79 41.0147 1012.26 41.6305C1010.74 42.2463 1009.1 42.5542 1007.35 42.5542C1005.62 42.5542 1004 42.2586 1002.47 41.6675C1000.97 41.0763 999.638 40.2264 998.481 39.118C997.323 37.9848 996.424 36.63 995.783 35.0535C995.143 33.477 994.823 31.7158 994.823 29.7698C994.823 27.8238 995.143 26.0625 995.783 24.486C996.424 22.9095 997.31 21.5547 998.444 20.4216C999.601 19.2885 1000.94 18.414 1002.47 17.7982C1004 17.1824 1005.64 16.8744 1007.39 16.8744ZM1008.12 40.9654C1009.41 40.9654 1010.42 40.5467 1011.15 39.7091C1011.89 38.847 1012.42 37.6646 1012.74 36.162C1013.09 34.6594 1013.26 32.9105 1013.26 30.9152C1013.26 26.9 1012.64 23.8209 1011.41 21.6779C1010.21 19.5348 1008.6 18.4633 1006.61 18.4633C1005.35 18.4633 1004.34 18.882 1003.58 19.7195C1002.84 20.5571 1002.3 21.7394 1001.95 23.2667C1001.63 24.7693 1001.47 26.5182 1001.47 28.5135C1001.47 32.5287 1002.08 35.6078 1003.28 37.7508C1004.52 39.8939 1006.13 40.9654 1008.12 40.9654ZM1035.93 20.3477L1042.07 38.3051C1042.29 38.9455 1042.61 39.5367 1043.03 40.0786C1043.47 40.5959 1044.15 40.9531 1045.06 41.1502L1043.36 49.5746H1042.51C1042.46 48.0474 1042.24 46.7172 1041.85 45.5841C1041.45 44.451 1040.96 43.5642 1040.37 42.9237C1039.78 42.3079 1039.14 42 1038.45 42H1028.54C1027.63 42 1026.73 42.3079 1025.85 42.9237C1024.98 43.5642 1024.25 44.451 1023.63 45.5841C1023.04 46.7172 1022.66 48.0474 1022.48 49.5746H1021.63V41.1502C1022.08 40.9531 1022.51 40.6206 1022.93 40.1525C1023.35 39.6599 1023.73 39.1056 1024.07 38.4898C1024.44 37.874 1024.73 37.2951 1024.92 36.7532L1031.2 20.3477C1031.45 19.7072 1031.68 19.0791 1031.91 18.4633C1032.13 17.8474 1032.33 17.2193 1032.5 16.5788H1034.64C1034.81 17.2193 1035.01 17.8474 1035.23 18.4633C1035.48 19.0791 1035.71 19.7072 1035.93 20.3477ZM1034.38 40.4112C1035.37 40.4112 1035.91 40.2511 1036.01 39.9308C1036.11 39.6106 1036.02 39.0687 1035.75 38.3051L1031.43 25.0033H1031.35L1025.59 40.4112H1034.38ZM1067.67 38.3051C1068.02 39.1426 1068.3 39.7584 1068.52 40.1525C1068.77 40.5467 1069.03 40.8053 1069.3 40.9285C1069.57 41.027 1069.9 41.1009 1070.3 41.1502V42H1059.99V41.1502C1060.97 41.1009 1061.51 40.8053 1061.61 40.2634C1061.74 39.7215 1061.65 39.0687 1061.35 38.3051L1059.51 33.5017C1059.36 33.6248 1059.16 33.711 1058.92 33.7603C1058.69 33.7849 1058.45 33.7972 1058.18 33.7972H1054C1053.48 33.7972 1053.09 33.8588 1052.82 33.982C1052.55 34.1052 1052.31 34.4131 1052.12 34.9057L1050.79 38.3051C1050.47 39.118 1050.49 39.783 1050.86 40.3003C1051.23 40.8176 1051.96 41.1009 1053.04 41.1502V42H1046.32V41.1502C1046.86 41.1009 1047.31 40.8299 1047.68 40.3373C1048.08 39.82 1048.43 39.1426 1048.75 38.3051L1055.85 20.3477C1056.12 19.7072 1056.35 19.0791 1056.55 18.4633C1056.77 17.8474 1056.97 17.2193 1057.14 16.5788H1059.29C1059.46 17.2193 1059.65 17.8474 1059.88 18.4633C1060.1 19.0791 1060.33 19.7072 1060.58 20.3477L1067.67 38.3051ZM1057.99 32.2084C1058.34 32.2084 1058.56 32.1592 1058.66 32.0606C1058.78 31.9375 1058.77 31.6911 1058.62 31.3216L1056.07 25.0033H1056L1053.11 32.3562C1053.24 32.2823 1053.39 32.2454 1053.56 32.2454C1053.73 32.2207 1053.93 32.2084 1054.15 32.2084H1057.99Z" fill="black"/>
<path d="M1108.05 25.7876C1104.37 24.3167 1100.05 25.1012 1097.1 28.0428C1093.12 32.0141 1093.12 38.4367 1097.1 42.4079C1100.05 45.3496 1104.37 46.134 1108.05 44.6632V39.9566C1107.32 40.2997 1106.53 40.4959 1105.69 40.4959C1102.75 40.4959 1100.39 38.1425 1100.39 35.2009C1100.39 32.2592 1102.75 29.9059 1105.69 29.9059C1106.53 29.9059 1107.36 30.102 1108.05 30.4452V25.7876Z" fill="black"/>
<path d="M1106.39 21.0709C1107.84 19.6165 1107.84 17.2092 1106.39 15.7046C1104.94 14.2502 1102.54 14.2502 1101.04 15.7046C1099.54 17.159 1099.59 19.5663 1101.04 21.0709C1102.54 22.5253 1104.94 22.5253 1106.39 21.0709Z" fill="black"/>
<path d="M1148.56 35.1644H1149.41L1149.04 42H1131.23V41.1502C1131.43 41.0516 1131.72 40.8792 1132.12 40.6329C1132.54 40.3865 1132.97 40.1033 1133.41 39.783C1134.64 38.8963 1135.8 37.8863 1136.88 36.7532C1137.97 35.6201 1138.92 34.4131 1139.73 33.1322C1140.54 31.8512 1141.18 30.5703 1141.65 29.2894C1142.12 28.0085 1142.35 26.7892 1142.35 25.6314C1142.35 24.523 1142.08 23.5869 1141.54 22.8233C1141.02 22.0597 1140.07 21.6779 1138.69 21.6779C1137.54 21.6779 1136.46 21.9981 1135.48 22.6385C1134.49 23.279 1133.52 24.2766 1132.56 25.6314L1131.86 25.0402C1132.87 22.4784 1134.14 20.5694 1135.66 19.3131C1137.19 18.0568 1139.1 17.4287 1141.39 17.4287C1142.72 17.4287 1143.92 17.6504 1144.98 18.0938C1146.03 18.5125 1146.87 19.1776 1147.49 20.089C1148.13 20.9758 1148.45 22.1336 1148.45 23.5623C1148.45 26.0995 1147.64 28.4765 1146.01 30.6935C1144.41 32.9105 1142.17 34.9919 1139.29 36.9379V37.0118H1144.68C1146.08 37.0118 1147.06 36.8394 1147.6 36.4945C1148.14 36.1497 1148.46 35.7063 1148.56 35.1644ZM1164.29 17.4287C1165.57 17.4287 1166.82 17.675 1168.05 18.1677C1169.29 18.6603 1170.39 19.4239 1171.38 20.4585C1172.37 21.4931 1173.14 22.7987 1173.71 24.3752C1174.3 25.927 1174.59 27.7745 1174.59 29.9176C1174.59 32.036 1174.31 33.8835 1173.74 35.46C1173.18 37.0365 1172.4 38.3543 1171.42 39.4135C1170.43 40.4728 1169.32 41.261 1168.09 41.7783C1166.86 42.2956 1165.58 42.5542 1164.25 42.5542C1162.97 42.5542 1161.71 42.3079 1160.48 41.8153C1159.25 41.3226 1158.14 40.559 1157.15 39.5244C1156.17 38.4898 1155.38 37.1966 1154.79 35.6447C1154.22 34.0682 1153.94 32.2084 1153.94 30.0654C1153.94 27.9469 1154.22 26.0995 1154.79 24.523C1155.36 22.9465 1156.13 21.6286 1157.12 20.5694C1158.1 19.5102 1159.21 18.7219 1160.44 18.2046C1161.67 17.6873 1162.96 17.4287 1164.29 17.4287ZM1164.4 40.9654C1165.11 40.9654 1165.76 40.6452 1166.36 40.0047C1166.95 39.3643 1167.41 38.2804 1167.76 36.7532C1168.13 35.226 1168.31 33.1322 1168.31 30.4718C1168.31 28.1563 1168.15 26.1487 1167.83 24.4491C1167.54 22.7248 1167.08 21.3946 1166.47 20.4585C1165.85 19.4978 1165.07 19.0175 1164.14 19.0175C1163.45 19.0175 1162.8 19.3377 1162.18 19.9782C1161.59 20.6186 1161.11 21.7025 1160.74 23.2297C1160.39 24.757 1160.22 26.8508 1160.22 29.5111C1160.22 31.8266 1160.37 33.8465 1160.66 35.5708C1160.99 37.2705 1161.45 38.6007 1162.07 39.5613C1162.68 40.4974 1163.46 40.9654 1164.4 40.9654ZM1199.67 30.8413L1188.22 31.8389L1187.96 28.846L1199.42 27.8484L1199.67 30.8413ZM1228.27 35.1644H1229.12L1228.75 42H1210.94V41.1502C1211.14 41.0516 1211.43 40.8792 1211.83 40.6329C1212.24 40.3865 1212.68 40.1033 1213.12 39.783C1214.35 38.8963 1215.51 37.8863 1216.59 36.7532C1217.68 35.6201 1218.62 34.4131 1219.44 33.1322C1220.25 31.8512 1220.89 30.5703 1221.36 29.2894C1221.83 28.0085 1222.06 26.7892 1222.06 25.6314C1222.06 24.523 1221.79 23.5869 1221.25 22.8233C1220.73 22.0597 1219.78 21.6779 1218.4 21.6779C1217.24 21.6779 1216.17 21.9981 1215.19 22.6385C1214.2 23.279 1213.23 24.2766 1212.27 25.6314L1211.57 25.0402C1212.58 22.4784 1213.85 20.5694 1215.37 19.3131C1216.9 18.0568 1218.81 17.4287 1221.1 17.4287C1222.43 17.4287 1223.62 17.6504 1224.68 18.0938C1225.74 18.5125 1226.58 19.1776 1227.2 20.089C1227.84 20.9758 1228.16 22.1336 1228.16 23.5623C1228.16 26.0995 1227.34 28.4765 1225.72 30.6935C1224.12 32.9105 1221.88 34.9919 1218.99 36.9379V37.0118H1224.39C1225.79 37.0118 1226.77 36.8394 1227.31 36.4945C1227.85 36.1497 1228.17 35.7063 1228.27 35.1644ZM1243.37 37.9356C1243.37 38.847 1243.44 39.5367 1243.59 40.0047C1243.76 40.4481 1244.1 40.7437 1244.62 40.8915C1245.16 41.0393 1245.98 41.1255 1247.06 41.1502V42H1233.39V41.1502C1234.5 41.1255 1235.31 41.0393 1235.83 40.8915C1236.37 40.7437 1236.71 40.4481 1236.86 40.0047C1237.01 39.5367 1237.08 38.847 1237.08 37.9356V21.8626L1233.69 23.9687L1232.91 22.7863L1241.48 17.4287H1243.62C1243.53 17.8967 1243.45 18.3647 1243.4 18.8328C1243.38 19.3008 1243.37 19.7688 1243.37 20.2368V37.9356ZM1260.27 42V41.1502C1260.98 41.1009 1261.5 40.9162 1261.82 40.5959C1262.14 40.2757 1262.3 39.5121 1262.3 38.3051V21.1236C1262.3 19.9166 1262.11 19.153 1261.75 18.8328C1261.4 18.4879 1260.72 18.3031 1259.71 18.2785V17.4287H1270.24V18.2785C1269.53 18.3031 1269.01 18.4879 1268.69 18.8328C1268.37 19.153 1268.21 19.9166 1268.21 21.1236V27.6637C1268.41 27.5159 1268.64 27.4173 1268.91 27.3681C1269.21 27.3188 1269.55 27.2942 1269.95 27.2942H1276.93C1277.6 27.2942 1278.06 27.1833 1278.34 26.9616C1278.61 26.7399 1278.74 26.2965 1278.74 25.6314V21.1236C1278.74 19.9166 1278.56 19.153 1278.19 18.8328C1277.84 18.4879 1277.17 18.3031 1276.16 18.2785V17.4287H1286.69V18.2785C1285.97 18.3031 1285.45 18.4879 1285.13 18.8328C1284.81 19.153 1284.65 19.9166 1284.65 21.1236V38.3051C1284.65 39.5121 1284.84 40.2757 1285.21 40.5959C1285.58 40.9162 1286.26 41.1009 1287.24 41.1502V42H1276.71V41.1502C1277.42 41.1009 1277.94 40.9162 1278.26 40.5959C1278.58 40.2757 1278.74 39.5121 1278.74 38.3051V28.4765C1278.54 28.649 1278.3 28.7598 1278 28.8091C1277.71 28.8583 1277.37 28.883 1277.01 28.883H1270.02C1269.36 28.883 1268.89 28.9938 1268.62 29.2155C1268.35 29.4372 1268.21 29.8683 1268.21 30.5088V38.3051C1268.21 39.5121 1268.4 40.2757 1268.77 40.5959C1269.14 40.9162 1269.81 41.1009 1270.8 41.1502V42H1260.27ZM1303.54 16.8744C1305.29 16.8744 1306.91 17.17 1308.41 17.7612C1309.92 18.3524 1311.25 19.2146 1312.4 20.3477C1313.56 21.4562 1314.46 22.7987 1315.1 24.3752C1315.74 25.9517 1316.06 27.7129 1316.06 29.6589C1316.06 31.6049 1315.74 33.3662 1315.1 34.9427C1314.46 36.5192 1313.56 37.874 1312.4 39.0071C1311.27 40.1402 1309.94 41.0147 1308.41 41.6305C1306.89 42.2463 1305.25 42.5542 1303.5 42.5542C1301.78 42.5542 1300.15 42.2586 1298.62 41.6675C1297.12 41.0763 1295.79 40.2264 1294.63 39.118C1293.47 37.9848 1292.58 36.63 1291.93 35.0535C1291.29 33.477 1290.97 31.7158 1290.97 29.7698C1290.97 27.8238 1291.29 26.0625 1291.93 24.486C1292.58 22.9095 1293.46 21.5547 1294.6 20.4216C1295.75 19.2885 1297.1 18.414 1298.62 17.7982C1300.15 17.1824 1301.79 16.8744 1303.54 16.8744ZM1304.28 40.9654C1305.56 40.9654 1306.57 40.5467 1307.31 39.7091C1308.04 38.847 1308.57 37.6646 1308.89 36.162C1309.24 34.6594 1309.41 32.9105 1309.41 30.9152C1309.41 26.9 1308.8 23.8209 1307.56 21.6779C1306.36 19.5348 1304.76 18.4633 1302.76 18.4633C1301.5 18.4633 1300.49 18.882 1299.73 19.7195C1298.99 20.5571 1298.45 21.7394 1298.11 23.2667C1297.79 24.7693 1297.63 26.5182 1297.63 28.5135C1297.63 32.5287 1298.23 35.6078 1299.44 37.7508C1300.67 39.8939 1302.28 40.9654 1304.28 40.9654ZM1320.26 42.5542C1319.65 42.5542 1318.99 42.505 1318.3 42.4064C1317.61 42.3079 1317.02 42.1724 1316.53 42V41.1502C1317.02 41.1502 1317.58 40.9531 1318.19 40.559C1318.81 40.1649 1319.44 39.3766 1320.08 38.1942L1325.36 28.6243C1323.71 28.2056 1322.45 27.5282 1321.59 26.5921C1320.75 25.6561 1320.34 24.523 1320.34 23.1928C1320.34 22.1582 1320.64 21.1852 1321.26 20.2738C1321.9 19.3624 1322.93 18.6357 1324.36 18.0938C1325.82 17.5272 1327.76 17.2439 1330.2 17.2439C1330.99 17.2439 1331.9 17.2809 1332.94 17.3548C1333.97 17.404 1335.12 17.4287 1336.37 17.4287H1341.1V18.2785C1340.39 18.3031 1339.87 18.4879 1339.55 18.8328C1339.23 19.153 1339.07 19.9166 1339.07 21.1236V38.3051C1339.07 39.5121 1339.25 40.2757 1339.62 40.5959C1339.99 40.9162 1340.67 41.1009 1341.66 41.1502V42H1331.13V41.1502C1331.84 41.1009 1332.36 40.9162 1332.68 40.5959C1333 40.2757 1333.16 39.5121 1333.16 38.3051V21.1236C1333.16 20.1629 1332.98 19.5471 1332.64 19.2761C1332.32 18.9806 1331.75 18.8328 1330.94 18.8328C1329.88 18.8328 1328.92 19.2146 1328.06 19.9782C1327.22 20.7172 1326.8 21.838 1326.8 23.3406C1326.8 24.1288 1326.96 24.8925 1327.28 25.6314C1327.6 26.3458 1328.17 26.9493 1328.98 27.442C1329.82 27.9346 1330.97 28.2302 1332.42 28.3287V29.622C1332.12 29.622 1331.86 29.6836 1331.64 29.8067C1331.42 29.9052 1331.2 30.1639 1330.98 30.5827L1326.8 38.6376C1326.24 39.7215 1325.45 40.6452 1324.44 41.4088C1323.43 42.1724 1322.04 42.5542 1320.26 42.5542ZM1353.33 27.2203H1356.92C1359.6 27.2203 1361.72 27.5159 1363.27 28.107C1364.82 28.6982 1365.92 29.5111 1366.56 30.5457C1367.23 31.5803 1367.56 32.775 1367.56 34.1298C1367.56 35.4846 1367.19 36.7655 1366.45 37.9725C1365.73 39.1549 1364.61 40.1279 1363.09 40.8915C1361.58 41.6305 1359.66 42 1357.32 42H1345.39V41.1502C1346.1 41.1009 1346.62 40.9162 1346.94 40.5959C1347.26 40.2757 1347.42 39.5121 1347.42 38.3051V21.1236C1347.42 19.9166 1347.24 19.153 1346.87 18.8328C1346.52 18.4879 1345.84 18.3031 1344.83 18.2785V17.4287H1365.16V23.5253H1364.31C1364.23 22.6878 1364.07 21.9365 1363.83 21.2714C1363.58 20.5817 1363.16 20.0398 1362.57 19.6456C1361.98 19.2269 1361.13 19.0175 1360.02 19.0175H1354.96C1354.44 19.0175 1354.03 19.153 1353.74 19.4239C1353.47 19.6949 1353.33 20.2615 1353.33 21.1236V27.2203ZM1355.51 40.4112C1356.82 40.4112 1357.89 40.1033 1358.73 39.4874C1359.59 38.847 1360.23 38.0587 1360.65 37.1227C1361.07 36.1866 1361.28 35.2629 1361.28 34.3515C1361.28 32.9967 1361.02 31.9128 1360.5 31.0999C1360.01 30.2871 1359.33 29.7082 1358.47 29.3633C1357.63 28.9938 1356.68 28.8091 1355.62 28.8091H1353.33V38.3051C1353.33 39.1672 1353.47 39.7338 1353.74 40.0047C1354.01 40.2757 1354.6 40.4112 1355.51 40.4112ZM1371.48 42V41.1502C1372.19 41.1009 1372.71 40.9162 1373.03 40.5959C1373.35 40.2757 1373.51 39.5121 1373.51 38.3051V21.1236C1373.51 19.9166 1373.32 19.153 1372.95 18.8328C1372.61 18.4879 1371.93 18.3031 1370.92 18.2785V17.4287H1373.51C1375.31 17.4287 1376.99 17.404 1378.57 17.3548C1380.15 17.2809 1381.33 17.2439 1382.12 17.2439C1384.68 17.2439 1386.7 17.5272 1388.18 18.0938C1389.68 18.6603 1390.75 19.4116 1391.39 20.3477C1392.06 21.2591 1392.39 22.269 1392.39 23.3775C1392.39 24.6584 1391.97 25.8778 1391.13 27.0355C1390.32 28.1933 1389.01 29.0924 1387.22 29.7328C1385.44 30.3486 1383.09 30.5457 1380.16 30.324V29.0308C1381.49 29.08 1382.59 28.846 1383.45 28.3287C1384.31 27.7868 1384.94 27.0725 1385.33 26.1857C1385.75 25.2989 1385.96 24.3505 1385.96 23.3406C1385.96 21.9858 1385.58 20.9019 1384.81 20.089C1384.05 19.2515 1382.99 18.8328 1381.64 18.8328C1380.82 18.8328 1380.25 18.9806 1379.9 19.2761C1379.58 19.5471 1379.42 20.1629 1379.42 21.1236V38.3051C1379.42 39.0933 1379.49 39.6968 1379.64 40.1156C1379.81 40.5097 1380.11 40.7807 1380.53 40.9285C1380.97 41.0516 1381.59 41.1255 1382.38 41.1502V42H1371.48ZM1396.29 42.5542C1395.67 42.5542 1395.02 42.505 1394.33 42.4064C1393.64 42.3079 1393.05 42.1724 1392.56 42V41.1502C1393.05 41.1502 1393.6 40.9531 1394.22 40.559C1394.84 40.1649 1395.46 39.3766 1396.1 38.1942L1401.39 28.6243C1399.74 28.2056 1398.48 27.5282 1397.62 26.5921C1396.78 25.6561 1396.36 24.523 1396.36 23.1928C1396.36 22.1582 1396.67 21.1852 1397.29 20.2738C1397.93 19.3624 1398.96 18.6357 1400.39 18.0938C1401.84 17.5272 1403.79 17.2439 1406.23 17.2439C1407.02 17.2439 1407.93 17.2809 1408.96 17.3548C1410 17.404 1411.14 17.4287 1412.4 17.4287H1417.13V18.2785C1416.41 18.3031 1415.9 18.4879 1415.58 18.8328C1415.26 19.153 1415.1 19.9166 1415.1 21.1236V38.3051C1415.1 39.5121 1415.28 40.2757 1415.65 40.5959C1416.02 40.9162 1416.7 41.1009 1417.68 41.1502V42H1407.15V41.1502C1407.87 41.1009 1408.38 40.9162 1408.7 40.5959C1409.02 40.2757 1409.19 39.5121 1409.19 38.3051V21.1236C1409.19 20.1629 1409.01 19.5471 1408.67 19.2761C1408.35 18.9806 1407.78 18.8328 1406.97 18.8328C1405.91 18.8328 1404.95 19.2146 1404.09 19.9782C1403.25 20.7172 1402.83 21.838 1402.83 23.3406C1402.83 24.1288 1402.99 24.8925 1403.31 25.6314C1403.63 26.3458 1404.2 26.9493 1405.01 27.442C1405.85 27.9346 1406.99 28.2302 1408.45 28.3287V29.622C1408.15 29.622 1407.89 29.6836 1407.67 29.8067C1407.45 29.9052 1407.23 30.1639 1407.01 30.5827L1402.83 38.6376C1402.26 39.7215 1401.47 40.6452 1400.47 41.4088C1399.46 42.1724 1398.06 42.5542 1396.29 42.5542ZM1447.04 35.1644H1447.89L1447.52 42H1429.71V41.1502C1429.91 41.0516 1430.2 40.8792 1430.6 40.6329C1431.02 40.3865 1431.45 40.1033 1431.89 39.783C1433.12 38.8963 1434.28 37.8863 1435.37 36.7532C1436.45 35.6201 1437.4 34.4131 1438.21 33.1322C1439.02 31.8512 1439.66 30.5703 1440.13 29.2894C1440.6 28.0085 1440.83 26.7892 1440.83 25.6314C1440.83 24.523 1440.56 23.5869 1440.02 22.8233C1439.5 22.0597 1438.56 21.6779 1437.18 21.6779C1436.02 21.6779 1434.95 21.9981 1433.96 22.6385C1432.98 23.279 1432 24.2766 1431.04 25.6314L1430.34 25.0402C1431.35 22.4784 1432.62 20.5694 1434.15 19.3131C1435.67 18.0568 1437.58 17.4287 1439.87 17.4287C1441.2 17.4287 1442.4 17.6504 1443.46 18.0938C1444.52 18.5125 1445.35 19.1776 1445.97 20.089C1446.61 20.9758 1446.93 22.1336 1446.93 23.5623C1446.93 26.0995 1446.12 28.4765 1444.49 30.6935C1442.89 32.9105 1440.65 34.9919 1437.77 36.9379V37.0118H1443.16C1444.57 37.0118 1445.54 36.8394 1446.08 36.4945C1446.62 36.1497 1446.94 35.7063 1447.04 35.1644ZM1462.77 17.4287C1464.05 17.4287 1465.3 17.675 1466.54 18.1677C1467.77 18.6603 1468.88 19.4239 1469.86 20.4585C1470.85 21.4931 1471.62 22.7987 1472.19 24.3752C1472.78 25.927 1473.08 27.7745 1473.08 29.9176C1473.08 32.036 1472.79 33.8835 1472.23 35.46C1471.66 37.0365 1470.88 38.3543 1469.9 39.4135C1468.91 40.4728 1467.8 41.261 1466.57 41.7783C1465.34 42.2956 1464.06 42.5542 1462.73 42.5542C1461.45 42.5542 1460.19 42.3079 1458.96 41.8153C1457.73 41.3226 1456.62 40.559 1455.64 39.5244C1454.65 38.4898 1453.86 37.1966 1453.27 35.6447C1452.7 34.0682 1452.42 32.2084 1452.42 30.0654C1452.42 27.9469 1452.7 26.0995 1453.27 24.523C1453.84 22.9465 1454.61 21.6286 1455.6 20.5694C1456.58 19.5102 1457.69 18.7219 1458.92 18.2046C1460.16 17.6873 1461.44 17.4287 1462.77 17.4287ZM1462.88 40.9654C1463.59 40.9654 1464.25 40.6452 1464.84 40.0047C1465.43 39.3643 1465.9 38.2804 1466.24 36.7532C1466.61 35.226 1466.79 33.1322 1466.79 30.4718C1466.79 28.1563 1466.63 26.1487 1466.31 24.4491C1466.02 22.7248 1465.56 21.3946 1464.95 20.4585C1464.33 19.4978 1463.56 19.0175 1462.62 19.0175C1461.93 19.0175 1461.28 19.3377 1460.66 19.9782C1460.07 20.6186 1459.59 21.7025 1459.22 23.2297C1458.88 24.757 1458.7 26.8508 1458.7 29.5111C1458.7 31.8266 1458.85 33.8465 1459.15 35.5708C1459.47 37.2705 1459.93 38.6007 1460.55 39.5613C1461.17 40.4974 1461.94 40.9654 1462.88 40.9654ZM1493.48 35.1644H1494.33L1493.96 42H1476.15V41.1502C1476.35 41.0516 1476.64 40.8792 1477.04 40.6329C1477.46 40.3865 1477.89 40.1033 1478.33 39.783C1479.56 38.8963 1480.72 37.8863 1481.8 36.7532C1482.89 35.6201 1483.84 34.4131 1484.65 33.1322C1485.46 31.8512 1486.1 30.5703 1486.57 29.2894C1487.04 28.0085 1487.27 26.7892 1487.27 25.6314C1487.27 24.523 1487 23.5869 1486.46 22.8233C1485.94 22.0597 1484.99 21.6779 1483.61 21.6779C1482.46 21.6779 1481.39 21.9981 1480.4 22.6385C1479.42 23.279 1478.44 24.2766 1477.48 25.6314L1476.78 25.0402C1477.79 22.4784 1479.06 20.5694 1480.59 19.3131C1482.11 18.0568 1484.02 17.4287 1486.31 17.4287C1487.64 17.4287 1488.84 17.6504 1489.9 18.0938C1490.96 18.5125 1491.79 19.1776 1492.41 20.089C1493.05 20.9758 1493.37 22.1336 1493.37 23.5623C1493.37 26.0995 1492.56 28.4765 1490.93 30.6935C1489.33 32.9105 1487.09 34.9919 1484.21 36.9379V37.0118H1489.6C1491 37.0118 1491.98 36.8394 1492.52 36.4945C1493.06 36.1497 1493.38 35.7063 1493.48 35.1644ZM1514.01 32.5779L1516.6 32.5779V37.1966H1515.04C1514.35 37.1966 1514.01 37.6277 1514.01 38.4898C1514.01 39.081 1514.01 39.6599 1514.01 40.2264C1514.03 40.7684 1514.06 41.3595 1514.08 42H1508.25C1508.3 41.1871 1508.33 40.3989 1508.36 39.6352C1508.38 38.847 1508.41 38.0341 1508.43 37.1966H1496.75V36.3468C1497.4 35.7309 1497.97 35.0905 1498.49 34.4254L1510.57 19.3131C1510.84 18.9682 1511.09 18.6357 1511.31 18.3155C1511.56 17.9706 1511.76 17.675 1511.9 17.4287H1514.05L1514.01 32.5779ZM1508.36 24.8555L1502.19 32.5779H1508.47V24.8555H1508.36ZM1546.91 17.4287V24.2643H1546.06C1545.94 23.1805 1545.72 22.2567 1545.4 21.4931C1545.1 20.7049 1544.63 20.1014 1543.99 19.6826C1543.38 19.2392 1542.51 19.0175 1541.41 19.0175H1539.67C1539.15 19.0175 1538.74 19.153 1538.45 19.4239C1538.18 19.6949 1538.04 20.2615 1538.04 21.1236V38.3051C1538.04 39.5121 1538.23 40.2757 1538.6 40.5959C1538.97 40.9162 1539.64 41.1009 1540.63 41.1502V42H1530.1V41.1502C1530.81 41.1009 1531.33 40.9162 1531.65 40.5959C1531.97 40.2757 1532.13 39.5121 1532.13 38.3051V21.1236C1532.13 19.9166 1531.95 19.153 1531.58 18.8328C1531.23 18.4879 1530.55 18.3031 1529.54 18.2785V17.4287H1546.91ZM1561.71 16.8744C1563.46 16.8744 1565.09 17.17 1566.59 17.7612C1568.09 18.3524 1569.42 19.2146 1570.58 20.3477C1571.74 21.4562 1572.64 22.7987 1573.28 24.3752C1573.92 25.9517 1574.24 27.7129 1574.24 29.6589C1574.24 31.6049 1573.92 33.3662 1573.28 34.9427C1572.64 36.5192 1571.74 37.874 1570.58 39.0071C1569.45 40.1402 1568.12 41.0147 1566.59 41.6305C1565.06 42.2463 1563.43 42.5542 1561.68 42.5542C1559.95 42.5542 1558.33 42.2586 1556.8 41.6675C1555.3 41.0763 1553.97 40.2264 1552.81 39.118C1551.65 37.9848 1550.75 36.63 1550.11 35.0535C1549.47 33.477 1549.15 31.7158 1549.15 29.7698C1549.15 27.8238 1549.47 26.0625 1550.11 24.486C1550.75 22.9095 1551.64 21.5547 1552.77 20.4216C1553.93 19.2885 1555.27 18.414 1556.8 17.7982C1558.33 17.1824 1559.96 16.8744 1561.71 16.8744ZM1562.45 40.9654C1563.73 40.9654 1564.74 40.5467 1565.48 39.7091C1566.22 38.847 1566.75 37.6646 1567.07 36.162C1567.42 34.6594 1567.59 32.9105 1567.59 30.9152C1567.59 26.9 1566.97 23.8209 1565.74 21.6779C1564.53 19.5348 1562.93 18.4633 1560.94 18.4633C1559.68 18.4633 1558.67 18.882 1557.91 19.7195C1557.17 20.5571 1556.63 21.7394 1556.28 23.2667C1555.96 24.7693 1555.8 26.5182 1555.8 28.5135C1555.8 32.5287 1556.41 35.6078 1557.61 37.7508C1558.84 39.8939 1560.46 40.9654 1562.45 40.9654ZM1590.26 20.3477L1596.4 38.3051C1596.62 38.9455 1596.94 39.5367 1597.36 40.0786C1597.8 40.5959 1598.48 40.9531 1599.39 41.1502L1597.69 49.5746H1596.84C1596.79 48.0474 1596.57 46.7172 1596.17 45.5841C1595.78 44.451 1595.29 43.5642 1594.7 42.9237C1594.11 42.3079 1593.46 42 1592.77 42H1582.87C1581.96 42 1581.06 42.3079 1580.18 42.9237C1579.31 43.5642 1578.57 44.451 1577.96 45.5841C1577.37 46.7172 1576.99 48.0474 1576.81 49.5746H1575.96V41.1502C1576.41 40.9531 1576.84 40.6206 1577.26 40.1525C1577.67 39.6599 1578.06 39.1056 1578.4 38.4898C1578.77 37.874 1579.05 37.2951 1579.25 36.7532L1585.53 20.3477C1585.78 19.7072 1586.01 19.0791 1586.23 18.4633C1586.46 17.8474 1586.65 17.2193 1586.83 16.5788H1588.97C1589.14 17.2193 1589.34 17.8474 1589.56 18.4633C1589.81 19.0791 1590.04 19.7072 1590.26 20.3477ZM1588.71 40.4112C1589.7 40.4112 1590.24 40.2511 1590.34 39.9308C1590.43 39.6106 1590.35 39.0687 1590.08 38.3051L1585.75 25.0033H1585.68L1579.92 40.4112H1588.71ZM1622 38.3051C1622.35 39.1426 1622.63 39.7584 1622.85 40.1525C1623.1 40.5467 1623.36 40.8053 1623.63 40.9285C1623.9 41.027 1624.23 41.1009 1624.62 41.1502V42H1614.32V41.1502C1615.3 41.1009 1615.84 40.8053 1615.94 40.2634C1616.06 39.7215 1615.98 39.0687 1615.68 38.3051L1613.83 33.5017C1613.69 33.6248 1613.49 33.711 1613.24 33.7603C1613.02 33.7849 1612.78 33.7972 1612.5 33.7972H1608.33C1607.81 33.7972 1607.42 33.8588 1607.15 33.982C1606.88 34.1052 1606.64 34.4131 1606.44 34.9057L1605.11 38.3051C1604.79 39.118 1604.82 39.783 1605.19 40.3003C1605.56 40.8176 1606.28 41.1009 1607.37 41.1502V42H1600.64V41.1502C1601.19 41.1009 1601.64 40.8299 1602.01 40.3373C1602.41 39.82 1602.76 39.1426 1603.08 38.3051L1610.18 20.3477C1610.45 19.7072 1610.68 19.0791 1610.88 18.4633C1611.1 17.8474 1611.3 17.2193 1611.47 16.5788H1613.61C1613.79 17.2193 1613.98 17.8474 1614.2 18.4633C1614.43 19.0791 1614.66 19.7072 1614.91 20.3477L1622 38.3051ZM1612.32 32.2084C1612.66 32.2084 1612.89 32.1592 1612.99 32.0606C1613.11 31.9375 1613.1 31.6911 1612.95 31.3216L1610.4 25.0033H1610.32L1607.44 32.3562C1607.57 32.2823 1607.71 32.2454 1607.89 32.2454C1608.06 32.2207 1608.26 32.2084 1608.48 32.2084H1612.32Z" fill="black"/>
<defs>
<linearGradient id="paint0_linear_614_2639" x1="0" y1="30.0023" x2="1645.89" y2="30.0023" gradientUnits="userSpaceOnUse">
<stop stop-color="white"/>
<stop offset="0.325" stop-color="#D4D4D4"/>
<stop offset="0.685" stop-color="white"/>
<stop offset="0.98" stop-color="#D4D4D4"/>
</linearGradient>
</defs>
</svg>
