<svg width="3116" height="114" viewBox="0 0 3116 114" fill="none" xmlns="http://www.w3.org/2000/svg">
<rect width="3115.8" height="114" fill="#272729"/>
<path d="M73.74 67.05H75.35L74.65 80H40.91V78.39C41.2833 78.2033 41.8433 77.8767 42.59 77.41C43.3833 76.9433 44.2 76.4067 45.04 75.8C47.3733 74.12 49.5667 72.2067 51.62 70.06C53.6733 67.9133 55.47 65.6267 57.01 63.2C58.55 60.7733 59.7633 58.3467 60.65 55.92C61.5367 53.4933 61.98 51.1833 61.98 48.99C61.98 46.89 61.4667 45.1167 60.44 43.67C59.46 42.2233 57.6633 41.5 55.05 41.5C52.8567 41.5 50.8267 42.1067 48.96 43.32C47.0933 44.5333 45.25 46.4233 43.43 48.99L42.1 47.87C44.0133 43.0167 46.4167 39.4 49.31 37.02C52.2033 34.64 55.82 33.45 60.16 33.45C62.68 33.45 64.9433 33.87 66.95 34.71C68.9567 35.5033 70.5433 36.7633 71.71 38.49C72.9233 40.17 73.53 42.3633 73.53 45.07C73.53 49.8767 71.99 54.38 68.91 58.58C65.8767 62.78 61.63 66.7233 56.17 70.41V70.55H66.39C69.05 70.55 70.8933 70.2233 71.92 69.57C72.9467 68.9167 73.5533 68.0767 73.74 67.05ZM103.533 33.45C105.96 33.45 108.34 33.9167 110.673 34.85C113.007 35.7833 115.107 37.23 116.973 39.19C118.84 41.15 120.31 43.6233 121.383 46.61C122.503 49.55 123.063 53.05 123.063 57.11C123.063 61.1233 122.527 64.6233 121.453 67.61C120.38 70.5967 118.91 73.0933 117.043 75.1C115.177 77.1067 113.077 78.6 110.743 79.58C108.41 80.56 105.983 81.05 103.463 81.05C101.037 81.05 98.6565 80.5833 96.3232 79.65C93.9899 78.7167 91.8899 77.27 90.0232 75.31C88.1565 73.35 86.6632 70.9 85.5432 67.96C84.4699 64.9733 83.9332 61.45 83.9332 57.39C83.9332 53.3767 84.4699 49.8767 85.5432 46.89C86.6165 43.9033 88.0865 41.4067 89.9532 39.4C91.8199 37.3933 93.9199 35.9 96.2532 34.92C98.5865 33.94 101.013 33.45 103.533 33.45ZM103.743 78.04C105.097 78.04 106.333 77.4333 107.453 76.22C108.573 75.0067 109.46 72.9533 110.113 70.06C110.813 67.1667 111.163 63.2 111.163 58.16C111.163 53.7733 110.86 49.97 110.253 46.75C109.693 43.4833 108.83 40.9633 107.663 39.19C106.497 37.37 105.027 36.46 103.253 36.46C101.947 36.46 100.71 37.0667 99.5432 38.28C98.4232 39.4933 97.5132 41.5467 96.8132 44.44C96.1599 47.3333 95.8332 51.3 95.8332 56.34C95.8332 60.7267 96.1132 64.5533 96.6732 67.82C97.2799 71.04 98.1665 73.56 99.3332 75.38C100.5 77.1533 101.97 78.04 103.743 78.04ZM170.576 58.86L148.876 60.75L148.386 55.08L170.086 53.19L170.576 58.86ZM224.746 67.05H226.356L225.656 80H191.916V78.39C192.289 78.2033 192.849 77.8767 193.596 77.41C194.389 76.9433 195.206 76.4067 196.046 75.8C198.379 74.12 200.573 72.2067 202.626 70.06C204.679 67.9133 206.476 65.6267 208.016 63.2C209.556 60.7733 210.769 58.3467 211.656 55.92C212.543 53.4933 212.986 51.1833 212.986 48.99C212.986 46.89 212.473 45.1167 211.446 43.67C210.466 42.2233 208.669 41.5 206.056 41.5C203.863 41.5 201.833 42.1067 199.966 43.32C198.099 44.5333 196.256 46.4233 194.436 48.99L193.106 47.87C195.019 43.0167 197.423 39.4 200.316 37.02C203.209 34.64 206.826 33.45 211.166 33.45C213.686 33.45 215.949 33.87 217.956 34.71C219.963 35.5033 221.549 36.7633 222.716 38.49C223.929 40.17 224.536 42.3633 224.536 45.07C224.536 49.8767 222.996 54.38 219.916 58.58C216.883 62.78 212.636 66.7233 207.176 70.41V70.55H217.396C220.056 70.55 221.899 70.2233 222.926 69.57C223.953 68.9167 224.559 68.0767 224.746 67.05ZM253.349 72.3C253.349 74.0267 253.489 75.3333 253.769 76.22C254.096 77.06 254.749 77.62 255.729 77.9C256.756 78.18 258.296 78.3433 260.349 78.39V80H234.449V78.39C236.549 78.3433 238.089 78.18 239.069 77.9C240.096 77.62 240.749 77.06 241.029 76.22C241.309 75.3333 241.449 74.0267 241.449 72.3V41.85L235.009 45.84L233.539 43.6L249.779 33.45H253.839C253.652 34.3367 253.512 35.2233 253.419 36.11C253.372 36.9967 253.349 37.8833 253.349 38.77V72.3ZM285.369 80V78.39C286.722 78.2967 287.702 77.9467 288.309 77.34C288.915 76.7333 289.219 75.2867 289.219 73V40.45C289.219 38.1633 288.869 36.7167 288.169 36.11C287.515 35.4567 286.232 35.1067 284.319 35.06V33.45H304.269V35.06C302.915 35.1067 301.935 35.4567 301.329 36.11C300.722 36.7167 300.419 38.1633 300.419 40.45V52.84C300.792 52.56 301.235 52.3733 301.749 52.28C302.309 52.1867 302.962 52.14 303.709 52.14H316.939C318.199 52.14 319.085 51.93 319.599 51.51C320.112 51.09 320.369 50.25 320.369 48.99V40.45C320.369 38.1633 320.019 36.7167 319.319 36.11C318.665 35.4567 317.382 35.1067 315.469 35.06V33.45H335.419V35.06C334.065 35.1067 333.085 35.4567 332.479 36.11C331.872 36.7167 331.569 38.1633 331.569 40.45V73C331.569 75.2867 331.919 76.7333 332.619 77.34C333.319 77.9467 334.602 78.2967 336.469 78.39V80H316.519V78.39C317.872 78.2967 318.852 77.9467 319.459 77.34C320.065 76.7333 320.369 75.2867 320.369 73V54.38C319.995 54.7067 319.529 54.9167 318.969 55.01C318.409 55.1033 317.779 55.15 317.079 55.15H303.849C302.589 55.15 301.702 55.36 301.189 55.78C300.675 56.2 300.419 57.0167 300.419 58.23V73C300.419 75.2867 300.769 76.7333 301.469 77.34C302.169 77.9467 303.452 78.2967 305.319 78.39V80H285.369ZM367.342 32.4C370.656 32.4 373.736 32.96 376.582 34.08C379.429 35.2 381.949 36.8333 384.142 38.98C386.336 41.08 388.039 43.6233 389.252 46.61C390.466 49.5967 391.072 52.9333 391.072 56.62C391.072 60.3067 390.466 63.6433 389.252 66.63C388.039 69.6167 386.336 72.1833 384.142 74.33C381.996 76.4767 379.476 78.1333 376.582 79.3C373.689 80.4667 370.586 81.05 367.272 81.05C364.006 81.05 360.926 80.49 358.032 79.37C355.186 78.25 352.666 76.64 350.472 74.54C348.279 72.3933 346.576 69.8267 345.362 66.84C344.149 63.8533 343.542 60.5167 343.542 56.83C343.542 53.1433 344.149 49.8067 345.362 46.82C346.576 43.8333 348.256 41.2667 350.402 39.12C352.596 36.9733 355.139 35.3167 358.032 34.15C360.926 32.9833 364.029 32.4 367.342 32.4ZM368.742 78.04C371.169 78.04 373.082 77.2467 374.482 75.66C375.882 74.0267 376.886 71.7867 377.492 68.94C378.146 66.0933 378.472 62.78 378.472 59C378.472 51.3933 377.306 45.56 374.972 41.5C372.686 37.44 369.652 35.41 365.872 35.41C363.492 35.41 361.579 36.2033 360.132 37.79C358.732 39.3767 357.706 41.6167 357.052 44.51C356.446 47.3567 356.142 50.67 356.142 54.45C356.142 62.0567 357.286 67.89 359.572 71.95C361.906 76.01 364.962 78.04 368.742 78.04ZM399.028 81.05C397.861 81.05 396.625 80.9567 395.318 80.77C394.011 80.5833 392.891 80.3267 391.958 80V78.39C392.891 78.39 393.941 78.0167 395.108 77.27C396.275 76.5233 397.465 75.03 398.678 72.79L408.688 54.66C405.561 53.8667 403.181 52.5833 401.548 50.81C399.961 49.0367 399.168 46.89 399.168 44.37C399.168 42.41 399.751 40.5667 400.918 38.84C402.131 37.1133 404.091 35.7367 406.798 34.71C409.551 33.6367 413.238 33.1 417.858 33.1C419.351 33.1 421.078 33.17 423.038 33.31C424.998 33.4033 427.168 33.45 429.548 33.45H438.508V35.06C437.155 35.1067 436.175 35.4567 435.568 36.11C434.961 36.7167 434.658 38.1633 434.658 40.45V73C434.658 75.2867 435.008 76.7333 435.708 77.34C436.408 77.9467 437.691 78.2967 439.558 78.39V80H419.608V78.39C420.961 78.2967 421.941 77.9467 422.548 77.34C423.155 76.7333 423.458 75.2867 423.458 73V40.45C423.458 38.63 423.131 37.4633 422.478 36.95C421.871 36.39 420.798 36.11 419.258 36.11C417.251 36.11 415.431 36.8333 413.798 38.28C412.211 39.68 411.418 41.8033 411.418 44.65C411.418 46.1433 411.721 47.59 412.328 48.99C412.935 50.3433 414.008 51.4867 415.548 52.42C417.135 53.3533 419.305 53.9133 422.058 54.1V56.55C421.498 56.55 421.008 56.6667 420.588 56.9C420.168 57.0867 419.748 57.5767 419.328 58.37L411.418 73.63C410.345 75.6833 408.851 77.4333 406.938 78.88C405.025 80.3267 402.388 81.05 399.028 81.05ZM461.678 52H468.468C473.555 52 477.568 52.56 480.508 53.68C483.448 54.8 485.525 56.34 486.738 58.3C487.998 60.26 488.628 62.5233 488.628 65.09C488.628 67.6567 487.928 70.0833 486.528 72.37C485.175 74.61 483.052 76.4533 480.158 77.9C477.312 79.3 473.672 80 469.238 80H446.628V78.39C447.982 78.2967 448.962 77.9467 449.568 77.34C450.175 76.7333 450.478 75.2867 450.478 73V40.45C450.478 38.1633 450.128 36.7167 449.428 36.11C448.775 35.4567 447.492 35.1067 445.578 35.06V33.45H484.078V45H482.468C482.328 43.4133 482.025 41.99 481.558 40.73C481.092 39.4233 480.298 38.3967 479.178 37.65C478.058 36.8567 476.448 36.46 474.348 36.46H464.758C463.778 36.46 463.008 36.7167 462.448 37.23C461.935 37.7433 461.678 38.8167 461.678 40.45V52ZM465.808 76.99C468.282 76.99 470.312 76.4067 471.898 75.24C473.532 74.0267 474.745 72.5333 475.538 70.76C476.332 68.9867 476.728 67.2367 476.728 65.51C476.728 62.9433 476.238 60.89 475.258 59.35C474.325 57.81 473.042 56.7133 471.408 56.06C469.822 55.36 468.025 55.01 466.018 55.01H461.678V73C461.678 74.6333 461.935 75.7067 462.448 76.22C462.962 76.7333 464.082 76.99 465.808 76.99ZM496.052 80V78.39C497.406 78.2967 498.386 77.9467 498.992 77.34C499.599 76.7333 499.902 75.2867 499.902 73V40.45C499.902 38.1633 499.552 36.7167 498.852 36.11C498.199 35.4567 496.916 35.1067 495.002 35.06V33.45H499.902C503.309 33.45 506.506 33.4033 509.492 33.31C512.479 33.17 514.719 33.1 516.212 33.1C521.066 33.1 524.892 33.6367 527.692 34.71C530.539 35.7833 532.569 37.2067 533.782 38.98C535.042 40.7067 535.672 42.62 535.672 44.72C535.672 47.1467 534.879 49.4567 533.292 51.65C531.752 53.8433 529.279 55.5467 525.872 56.76C522.512 57.9267 518.056 58.3 512.502 57.88V55.43C515.022 55.5233 517.099 55.08 518.732 54.1C520.366 53.0733 521.556 51.72 522.302 50.04C523.096 48.36 523.492 46.5633 523.492 44.65C523.492 42.0833 522.769 40.03 521.322 38.49C519.876 36.9033 517.869 36.11 515.302 36.11C513.762 36.11 512.666 36.39 512.012 36.95C511.406 37.4633 511.102 38.63 511.102 40.45V73C511.102 74.4933 511.242 75.6367 511.522 76.43C511.849 77.1767 512.409 77.69 513.202 77.97C514.042 78.2033 515.209 78.3433 516.702 78.39V80H496.052ZM543.061 81.05C541.894 81.05 540.658 80.9567 539.351 80.77C538.044 80.5833 536.924 80.3267 535.991 80V78.39C536.924 78.39 537.974 78.0167 539.141 77.27C540.308 76.5233 541.498 75.03 542.711 72.79L552.721 54.66C549.594 53.8667 547.214 52.5833 545.581 50.81C543.994 49.0367 543.201 46.89 543.201 44.37C543.201 42.41 543.784 40.5667 544.951 38.84C546.164 37.1133 548.124 35.7367 550.831 34.71C553.584 33.6367 557.271 33.1 561.891 33.1C563.384 33.1 565.111 33.17 567.071 33.31C569.031 33.4033 571.201 33.45 573.581 33.45H582.541V35.06C581.188 35.1067 580.208 35.4567 579.601 36.11C578.994 36.7167 578.691 38.1633 578.691 40.45V73C578.691 75.2867 579.041 76.7333 579.741 77.34C580.441 77.9467 581.724 78.2967 583.591 78.39V80H563.641V78.39C564.994 78.2967 565.974 77.9467 566.581 77.34C567.188 76.7333 567.491 75.2867 567.491 73V40.45C567.491 38.63 567.164 37.4633 566.511 36.95C565.904 36.39 564.831 36.11 563.291 36.11C561.284 36.11 559.464 36.8333 557.831 38.28C556.244 39.68 555.451 41.8033 555.451 44.65C555.451 46.1433 555.754 47.59 556.361 48.99C556.968 50.3433 558.041 51.4867 559.581 52.42C561.168 53.3533 563.338 53.9133 566.091 54.1V56.55C565.531 56.55 565.041 56.6667 564.621 56.9C564.201 57.0867 563.781 57.5767 563.361 58.37L555.451 73.63C554.378 75.6833 552.884 77.4333 550.971 78.88C549.058 80.3267 546.421 81.05 543.061 81.05ZM639.209 67.05H640.819L640.119 80H606.379V78.39C606.752 78.2033 607.312 77.8767 608.059 77.41C608.852 76.9433 609.669 76.4067 610.509 75.8C612.842 74.12 615.035 72.2067 617.089 70.06C619.142 67.9133 620.939 65.6267 622.479 63.2C624.019 60.7733 625.232 58.3467 626.119 55.92C627.005 53.4933 627.449 51.1833 627.449 48.99C627.449 46.89 626.935 45.1167 625.909 43.67C624.929 42.2233 623.132 41.5 620.519 41.5C618.325 41.5 616.295 42.1067 614.429 43.32C612.562 44.5333 610.719 46.4233 608.899 48.99L607.569 47.87C609.482 43.0167 611.885 39.4 614.779 37.02C617.672 34.64 621.289 33.45 625.629 33.45C628.149 33.45 630.412 33.87 632.419 34.71C634.425 35.5033 636.012 36.7633 637.179 38.49C638.392 40.17 638.999 42.3633 638.999 45.07C638.999 49.8767 637.459 54.38 634.379 58.58C631.345 62.78 627.099 66.7233 621.639 70.41V70.55H631.859C634.519 70.55 636.362 70.2233 637.389 69.57C638.415 68.9167 639.022 68.0767 639.209 67.05ZM669.002 33.45C671.429 33.45 673.809 33.9167 676.142 34.85C678.475 35.7833 680.575 37.23 682.442 39.19C684.309 41.15 685.779 43.6233 686.852 46.61C687.972 49.55 688.532 53.05 688.532 57.11C688.532 61.1233 687.995 64.6233 686.922 67.61C685.849 70.5967 684.379 73.0933 682.512 75.1C680.645 77.1067 678.545 78.6 676.212 79.58C673.879 80.56 671.452 81.05 668.932 81.05C666.505 81.05 664.125 80.5833 661.792 79.65C659.459 78.7167 657.359 77.27 655.492 75.31C653.625 73.35 652.132 70.9 651.012 67.96C649.939 64.9733 649.402 61.45 649.402 57.39C649.402 53.3767 649.939 49.8767 651.012 46.89C652.085 43.9033 653.555 41.4067 655.422 39.4C657.289 37.3933 659.389 35.9 661.722 34.92C664.055 33.94 666.482 33.45 669.002 33.45ZM669.212 78.04C670.565 78.04 671.802 77.4333 672.922 76.22C674.042 75.0067 674.929 72.9533 675.582 70.06C676.282 67.1667 676.632 63.2 676.632 58.16C676.632 53.7733 676.329 49.97 675.722 46.75C675.162 43.4833 674.299 40.9633 673.132 39.19C671.965 37.37 670.495 36.46 668.722 36.46C667.415 36.46 666.179 37.0667 665.012 38.28C663.892 39.4933 662.982 41.5467 662.282 44.44C661.629 47.3333 661.302 51.3 661.302 56.34C661.302 60.7267 661.582 64.5533 662.142 67.82C662.749 71.04 663.635 73.56 664.802 75.38C665.969 77.1533 667.439 78.04 669.212 78.04ZM727.187 67.05H728.797L728.097 80H694.357V78.39C694.731 78.2033 695.291 77.8767 696.037 77.41C696.831 76.9433 697.647 76.4067 698.487 75.8C700.821 74.12 703.014 72.2067 705.067 70.06C707.121 67.9133 708.917 65.6267 710.457 63.2C711.997 60.7733 713.211 58.3467 714.097 55.92C714.984 53.4933 715.427 51.1833 715.427 48.99C715.427 46.89 714.914 45.1167 713.887 43.67C712.907 42.2233 711.111 41.5 708.497 41.5C706.304 41.5 704.274 42.1067 702.407 43.32C700.541 44.5333 698.697 46.4233 696.877 48.99L695.547 47.87C697.461 43.0167 699.864 39.4 702.757 37.02C705.651 34.64 709.267 33.45 713.607 33.45C716.127 33.45 718.391 33.87 720.397 34.71C722.404 35.5033 723.991 36.7633 725.157 38.49C726.371 40.17 726.977 42.3633 726.977 45.07C726.977 49.8767 725.437 54.38 722.357 58.58C719.324 62.78 715.077 66.7233 709.617 70.41V70.55H719.837C722.497 70.55 724.341 70.2233 725.367 69.57C726.394 68.9167 727.001 68.0767 727.187 67.05ZM766.081 62.15H770.981V70.9H768.041C766.734 70.9 766.081 71.7167 766.081 73.35C766.081 74.47 766.081 75.5667 766.081 76.64C766.127 77.6667 766.174 78.7867 766.221 80H755.161C755.254 78.46 755.324 76.9667 755.371 75.52C755.417 74.0267 755.464 72.4867 755.511 70.9H733.391V69.29C734.604 68.1233 735.701 66.91 736.681 65.65L759.571 37.02C760.084 36.3667 760.551 35.7367 760.971 35.13C761.437 34.4767 761.811 33.9167 762.091 33.45H766.151L766.081 62.15ZM755.371 47.52L743.681 62.15H755.581V47.52H755.371ZM828.41 33.45V46.4H826.8C826.567 44.3467 826.147 42.5967 825.54 41.15C824.98 39.6567 824.093 38.5133 822.88 37.72C821.713 36.88 820.08 36.46 817.98 36.46H814.69C813.71 36.46 812.94 36.7167 812.38 37.23C811.867 37.7433 811.61 38.8167 811.61 40.45V73C811.61 75.2867 811.96 76.7333 812.66 77.34C813.36 77.9467 814.643 78.2967 816.51 78.39V80H796.56V78.39C797.913 78.2967 798.893 77.9467 799.5 77.34C800.107 76.7333 800.41 75.2867 800.41 73V40.45C800.41 38.1633 800.06 36.7167 799.36 36.11C798.707 35.4567 797.423 35.1067 795.51 35.06V33.45H828.41ZM856.454 32.4C859.767 32.4 862.847 32.96 865.694 34.08C868.541 35.2 871.061 36.8333 873.254 38.98C875.447 41.08 877.151 43.6233 878.364 46.61C879.577 49.5967 880.184 52.9333 880.184 56.62C880.184 60.3067 879.577 63.6433 878.364 66.63C877.151 69.6167 875.447 72.1833 873.254 74.33C871.107 76.4767 868.587 78.1333 865.694 79.3C862.801 80.4667 859.697 81.05 856.384 81.05C853.117 81.05 850.037 80.49 847.144 79.37C844.297 78.25 841.777 76.64 839.584 74.54C837.391 72.3933 835.687 69.8267 834.474 66.84C833.261 63.8533 832.654 60.5167 832.654 56.83C832.654 53.1433 833.261 49.8067 834.474 46.82C835.687 43.8333 837.367 41.2667 839.514 39.12C841.707 36.9733 844.251 35.3167 847.144 34.15C850.037 32.9833 853.141 32.4 856.454 32.4ZM857.854 78.04C860.281 78.04 862.194 77.2467 863.594 75.66C864.994 74.0267 865.997 71.7867 866.604 68.94C867.257 66.0933 867.584 62.78 867.584 59C867.584 51.3933 866.417 45.56 864.084 41.5C861.797 37.44 858.764 35.41 854.984 35.41C852.604 35.41 850.691 36.2033 849.244 37.79C847.844 39.3767 846.817 41.6167 846.164 44.51C845.557 47.3567 845.254 50.67 845.254 54.45C845.254 62.0567 846.397 67.89 848.684 71.95C851.017 76.01 854.074 78.04 857.854 78.04ZM910.539 38.98L922.159 73C922.579 74.2133 923.186 75.3333 923.979 76.36C924.819 77.34 926.103 78.0167 927.829 78.39L924.609 94.35H922.999C922.906 91.4567 922.486 88.9367 921.739 86.79C920.993 84.6433 920.059 82.9633 918.939 81.75C917.819 80.5833 916.606 80 915.299 80H896.539C894.813 80 893.109 80.5833 891.429 81.75C889.796 82.9633 888.396 84.6433 887.229 86.79C886.109 88.9367 885.386 91.4567 885.059 94.35H883.449V78.39C884.289 78.0167 885.106 77.3867 885.899 76.5C886.693 75.5667 887.416 74.5167 888.069 73.35C888.769 72.1833 889.306 71.0867 889.679 70.06L901.579 38.98C902.046 37.7667 902.489 36.5767 902.909 35.41C903.329 34.2433 903.703 33.0533 904.029 31.84H908.089C908.416 33.0533 908.789 34.2433 909.209 35.41C909.676 36.5767 910.119 37.7667 910.539 38.98ZM907.599 76.99C909.466 76.99 910.493 76.6867 910.679 76.08C910.866 75.4733 910.703 74.4467 910.189 73L901.999 47.8H901.859L890.939 76.99H907.599ZM970.667 73C971.32 74.5867 971.857 75.7533 972.277 76.5C972.744 77.2467 973.234 77.7367 973.747 77.97C974.26 78.1567 974.89 78.2967 975.637 78.39V80H956.107V78.39C957.974 78.2967 959 77.7367 959.187 76.71C959.42 75.6833 959.257 74.4467 958.697 73L955.197 63.9C954.917 64.1333 954.544 64.2967 954.077 64.39C953.657 64.4367 953.19 64.46 952.677 64.46H944.767C943.787 64.46 943.04 64.5767 942.527 64.81C942.014 65.0433 941.57 65.6267 941.197 66.56L938.677 73C938.07 74.54 938.117 75.8 938.817 76.78C939.517 77.76 940.894 78.2967 942.947 78.39V80H930.207V78.39C931.234 78.2967 932.097 77.7833 932.797 76.85C933.544 75.87 934.22 74.5867 934.827 73L948.267 38.98C948.78 37.7667 949.224 36.5767 949.597 35.41C950.017 34.2433 950.39 33.0533 950.717 31.84H954.777C955.104 33.0533 955.477 34.2433 955.897 35.41C956.317 36.5767 956.76 37.7667 957.227 38.98L970.667 73ZM952.327 61.45C952.98 61.45 953.4 61.3567 953.587 61.17C953.82 60.9367 953.797 60.47 953.517 59.77L948.687 47.8H948.547L943.087 61.73C943.32 61.59 943.6 61.52 943.927 61.52C944.254 61.4733 944.627 61.45 945.047 61.45H952.327Z" fill="white"/>
<path d="M1046.4 49.0198C1039.42 46.2333 1031.23 47.7194 1025.65 53.2924C1018.12 60.8158 1018.12 72.9834 1025.65 80.5068C1031.23 86.0798 1039.42 87.5659 1046.4 84.7794V75.8627C1045 76.5129 1043.51 76.8844 1041.93 76.8844C1036.35 76.8844 1031.89 72.4261 1031.89 66.8532C1031.89 61.2802 1036.35 56.8219 1041.93 56.8219C1043.51 56.8219 1045.1 57.1934 1046.4 57.8436V49.0198Z" fill="white"/>
<path d="M1043.24 40.0841C1045.99 37.3287 1045.99 32.7681 1043.24 29.9177C1040.49 27.1623 1035.94 27.1623 1033.1 29.9177C1030.25 32.673 1030.35 37.2337 1033.1 40.0841C1035.94 42.8394 1040.49 42.8394 1043.24 40.0841Z" fill="white"/>
<path d="M1123.14 67.05H1124.75L1124.05 80H1090.31V78.39C1090.68 78.2033 1091.24 77.8767 1091.99 77.41C1092.78 76.9433 1093.6 76.4067 1094.44 75.8C1096.77 74.12 1098.97 72.2067 1101.02 70.06C1103.07 67.9133 1104.87 65.6267 1106.41 63.2C1107.95 60.7733 1109.16 58.3467 1110.05 55.92C1110.94 53.4933 1111.38 51.1833 1111.38 48.99C1111.38 46.89 1110.87 45.1167 1109.84 43.67C1108.86 42.2233 1107.06 41.5 1104.45 41.5C1102.26 41.5 1100.23 42.1067 1098.36 43.32C1096.49 44.5333 1094.65 46.4233 1092.83 48.99L1091.5 47.87C1093.41 43.0167 1095.82 39.4 1098.71 37.02C1101.6 34.64 1105.22 33.45 1109.56 33.45C1112.08 33.45 1114.34 33.87 1116.35 34.71C1118.36 35.5033 1119.94 36.7633 1121.11 38.49C1122.32 40.17 1122.93 42.3633 1122.93 45.07C1122.93 49.8767 1121.39 54.38 1118.31 58.58C1115.28 62.78 1111.03 66.7233 1105.57 70.41V70.55H1115.79C1118.45 70.55 1120.29 70.2233 1121.32 69.57C1122.35 68.9167 1122.95 68.0767 1123.14 67.05ZM1152.93 33.45C1155.36 33.45 1157.74 33.9167 1160.07 34.85C1162.4 35.7833 1164.5 37.23 1166.37 39.19C1168.24 41.15 1169.71 43.6233 1170.78 46.61C1171.9 49.55 1172.46 53.05 1172.46 57.11C1172.46 61.1233 1171.92 64.6233 1170.85 67.61C1169.78 70.5967 1168.31 73.0933 1166.44 75.1C1164.57 77.1067 1162.47 78.6 1160.14 79.58C1157.81 80.56 1155.38 81.05 1152.86 81.05C1150.43 81.05 1148.05 80.5833 1145.72 79.65C1143.39 78.7167 1141.29 77.27 1139.42 75.31C1137.55 73.35 1136.06 70.9 1134.94 67.96C1133.87 64.9733 1133.33 61.45 1133.33 57.39C1133.33 53.3767 1133.87 49.8767 1134.94 46.89C1136.01 43.9033 1137.48 41.4067 1139.35 39.4C1141.22 37.3933 1143.32 35.9 1145.65 34.92C1147.98 33.94 1150.41 33.45 1152.93 33.45ZM1153.14 78.04C1154.49 78.04 1155.73 77.4333 1156.85 76.22C1157.97 75.0067 1158.86 72.9533 1159.51 70.06C1160.21 67.1667 1160.56 63.2 1160.56 58.16C1160.56 53.7733 1160.26 49.97 1159.65 46.75C1159.09 43.4833 1158.23 40.9633 1157.06 39.19C1155.89 37.37 1154.42 36.46 1152.65 36.46C1151.34 36.46 1150.11 37.0667 1148.94 38.28C1147.82 39.4933 1146.91 41.5467 1146.21 44.44C1145.56 47.3333 1145.23 51.3 1145.23 56.34C1145.23 60.7267 1145.51 64.5533 1146.07 67.82C1146.68 71.04 1147.56 73.56 1148.73 75.38C1149.9 77.1533 1151.37 78.04 1153.14 78.04ZM1219.97 58.86L1198.27 60.75L1197.78 55.08L1219.48 53.19L1219.97 58.86ZM1274.14 67.05H1275.75L1275.05 80H1241.31V78.39C1241.69 78.2033 1242.25 77.8767 1242.99 77.41C1243.79 76.9433 1244.6 76.4067 1245.44 75.8C1247.78 74.12 1249.97 72.2067 1252.02 70.06C1254.08 67.9133 1255.87 65.6267 1257.41 63.2C1258.95 60.7733 1260.17 58.3467 1261.05 55.92C1261.94 53.4933 1262.38 51.1833 1262.38 48.99C1262.38 46.89 1261.87 45.1167 1260.84 43.67C1259.86 42.2233 1258.07 41.5 1255.45 41.5C1253.26 41.5 1251.23 42.1067 1249.36 43.32C1247.5 44.5333 1245.65 46.4233 1243.83 48.99L1242.5 47.87C1244.42 43.0167 1246.82 39.4 1249.71 37.02C1252.61 34.64 1256.22 33.45 1260.56 33.45C1263.08 33.45 1265.35 33.87 1267.35 34.71C1269.36 35.5033 1270.95 36.7633 1272.11 38.49C1273.33 40.17 1273.93 42.3633 1273.93 45.07C1273.93 49.8767 1272.39 54.38 1269.31 58.58C1266.28 62.78 1262.03 66.7233 1256.57 70.41V70.55H1266.79C1269.45 70.55 1271.3 70.2233 1272.32 69.57C1273.35 68.9167 1273.96 68.0767 1274.14 67.05ZM1302.75 72.3C1302.75 74.0267 1302.89 75.3333 1303.17 76.22C1303.49 77.06 1304.15 77.62 1305.13 77.9C1306.15 78.18 1307.69 78.3433 1309.75 78.39V80H1283.85V78.39C1285.95 78.3433 1287.49 78.18 1288.47 77.9C1289.49 77.62 1290.15 77.06 1290.43 76.22C1290.71 75.3333 1290.85 74.0267 1290.85 72.3V41.85L1284.41 45.84L1282.94 43.6L1299.18 33.45H1303.24C1303.05 34.3367 1302.91 35.2233 1302.82 36.11C1302.77 36.9967 1302.75 37.8833 1302.75 38.77V72.3ZM1334.77 80V78.39C1336.12 78.2967 1337.1 77.9467 1337.71 77.34C1338.31 76.7333 1338.62 75.2867 1338.62 73V40.45C1338.62 38.1633 1338.27 36.7167 1337.57 36.11C1336.91 35.4567 1335.63 35.1067 1333.72 35.06V33.45H1353.67V35.06C1352.31 35.1067 1351.33 35.4567 1350.73 36.11C1350.12 36.7167 1349.82 38.1633 1349.82 40.45V52.84C1350.19 52.56 1350.63 52.3733 1351.15 52.28C1351.71 52.1867 1352.36 52.14 1353.11 52.14H1366.34C1367.6 52.14 1368.48 51.93 1369 51.51C1369.51 51.09 1369.77 50.25 1369.77 48.99V40.45C1369.77 38.1633 1369.42 36.7167 1368.72 36.11C1368.06 35.4567 1366.78 35.1067 1364.87 35.06V33.45H1384.82V35.06C1383.46 35.1067 1382.48 35.4567 1381.88 36.11C1381.27 36.7167 1380.97 38.1633 1380.97 40.45V73C1380.97 75.2867 1381.32 76.7333 1382.02 77.34C1382.72 77.9467 1384 78.2967 1385.87 78.39V80H1365.92V78.39C1367.27 78.2967 1368.25 77.9467 1368.86 77.34C1369.46 76.7333 1369.77 75.2867 1369.77 73V54.38C1369.39 54.7067 1368.93 54.9167 1368.37 55.01C1367.81 55.1033 1367.18 55.15 1366.48 55.15H1353.25C1351.99 55.15 1351.1 55.36 1350.59 55.78C1350.07 56.2 1349.82 57.0167 1349.82 58.23V73C1349.82 75.2867 1350.17 76.7333 1350.87 77.34C1351.57 77.9467 1352.85 78.2967 1354.72 78.39V80H1334.77ZM1416.74 32.4C1420.05 32.4 1423.13 32.96 1425.98 34.08C1428.83 35.2 1431.35 36.8333 1433.54 38.98C1435.73 41.08 1437.44 43.6233 1438.65 46.61C1439.86 49.5967 1440.47 52.9333 1440.47 56.62C1440.47 60.3067 1439.86 63.6433 1438.65 66.63C1437.44 69.6167 1435.73 72.1833 1433.54 74.33C1431.39 76.4767 1428.87 78.1333 1425.98 79.3C1423.09 80.4667 1419.98 81.05 1416.67 81.05C1413.4 81.05 1410.32 80.49 1407.43 79.37C1404.58 78.25 1402.06 76.64 1399.87 74.54C1397.68 72.3933 1395.97 69.8267 1394.76 66.84C1393.55 63.8533 1392.94 60.5167 1392.94 56.83C1392.94 53.1433 1393.55 49.8067 1394.76 46.82C1395.97 43.8333 1397.65 41.2667 1399.8 39.12C1401.99 36.9733 1404.54 35.3167 1407.43 34.15C1410.32 32.9833 1413.43 32.4 1416.74 32.4ZM1418.14 78.04C1420.57 78.04 1422.48 77.2467 1423.88 75.66C1425.28 74.0267 1426.28 71.7867 1426.89 68.94C1427.54 66.0933 1427.87 62.78 1427.87 59C1427.87 51.3933 1426.7 45.56 1424.37 41.5C1422.08 37.44 1419.05 35.41 1415.27 35.41C1412.89 35.41 1410.98 36.2033 1409.53 37.79C1408.13 39.3767 1407.1 41.6167 1406.45 44.51C1405.84 47.3567 1405.54 50.67 1405.54 54.45C1405.54 62.0567 1406.68 67.89 1408.97 71.95C1411.3 76.01 1414.36 78.04 1418.14 78.04ZM1448.43 81.05C1447.26 81.05 1446.02 80.9567 1444.72 80.77C1443.41 80.5833 1442.29 80.3267 1441.36 80V78.39C1442.29 78.39 1443.34 78.0167 1444.51 77.27C1445.67 76.5233 1446.86 75.03 1448.08 72.79L1458.09 54.66C1454.96 53.8667 1452.58 52.5833 1450.95 50.81C1449.36 49.0367 1448.57 46.89 1448.57 44.37C1448.57 42.41 1449.15 40.5667 1450.32 38.84C1451.53 37.1133 1453.49 35.7367 1456.2 34.71C1458.95 33.6367 1462.64 33.1 1467.26 33.1C1468.75 33.1 1470.48 33.17 1472.44 33.31C1474.4 33.4033 1476.57 33.45 1478.95 33.45H1487.91V35.06C1486.55 35.1067 1485.57 35.4567 1484.97 36.11C1484.36 36.7167 1484.06 38.1633 1484.06 40.45V73C1484.06 75.2867 1484.41 76.7333 1485.11 77.34C1485.81 77.9467 1487.09 78.2967 1488.96 78.39V80H1469.01V78.39C1470.36 78.2967 1471.34 77.9467 1471.95 77.34C1472.55 76.7333 1472.86 75.2867 1472.86 73V40.45C1472.86 38.63 1472.53 37.4633 1471.88 36.95C1471.27 36.39 1470.2 36.11 1468.66 36.11C1466.65 36.11 1464.83 36.8333 1463.2 38.28C1461.61 39.68 1460.82 41.8033 1460.82 44.65C1460.82 46.1433 1461.12 47.59 1461.73 48.99C1462.33 50.3433 1463.41 51.4867 1464.95 52.42C1466.53 53.3533 1468.7 53.9133 1471.46 54.1V56.55C1470.9 56.55 1470.41 56.6667 1469.99 56.9C1469.57 57.0867 1469.15 57.5767 1468.73 58.37L1460.82 73.63C1459.74 75.6833 1458.25 77.4333 1456.34 78.88C1454.42 80.3267 1451.79 81.05 1448.43 81.05ZM1511.08 52H1517.87C1522.95 52 1526.97 52.56 1529.91 53.68C1532.85 54.8 1534.92 56.34 1536.14 58.3C1537.4 60.26 1538.03 62.5233 1538.03 65.09C1538.03 67.6567 1537.33 70.0833 1535.93 72.37C1534.57 74.61 1532.45 76.4533 1529.56 77.9C1526.71 79.3 1523.07 80 1518.64 80H1496.03V78.39C1497.38 78.2967 1498.36 77.9467 1498.97 77.34C1499.57 76.7333 1499.88 75.2867 1499.88 73V40.45C1499.88 38.1633 1499.53 36.7167 1498.83 36.11C1498.17 35.4567 1496.89 35.1067 1494.98 35.06V33.45H1533.48V45H1531.87C1531.73 43.4133 1531.42 41.99 1530.96 40.73C1530.49 39.4233 1529.7 38.3967 1528.58 37.65C1527.46 36.8567 1525.85 36.46 1523.75 36.46H1514.16C1513.18 36.46 1512.41 36.7167 1511.85 37.23C1511.33 37.7433 1511.08 38.8167 1511.08 40.45V52ZM1515.21 76.99C1517.68 76.99 1519.71 76.4067 1521.3 75.24C1522.93 74.0267 1524.14 72.5333 1524.94 70.76C1525.73 68.9867 1526.13 67.2367 1526.13 65.51C1526.13 62.9433 1525.64 60.89 1524.66 59.35C1523.72 57.81 1522.44 56.7133 1520.81 56.06C1519.22 55.36 1517.42 55.01 1515.42 55.01H1511.08V73C1511.08 74.6333 1511.33 75.7067 1511.85 76.22C1512.36 76.7333 1513.48 76.99 1515.21 76.99ZM1545.45 80V78.39C1546.8 78.2967 1547.78 77.9467 1548.39 77.34C1549 76.7333 1549.3 75.2867 1549.3 73V40.45C1549.3 38.1633 1548.95 36.7167 1548.25 36.11C1547.6 35.4567 1546.31 35.1067 1544.4 35.06V33.45H1549.3C1552.71 33.45 1555.9 33.4033 1558.89 33.31C1561.88 33.17 1564.12 33.1 1565.61 33.1C1570.46 33.1 1574.29 33.6367 1577.09 34.71C1579.94 35.7833 1581.97 37.2067 1583.18 38.98C1584.44 40.7067 1585.07 42.62 1585.07 44.72C1585.07 47.1467 1584.28 49.4567 1582.69 51.65C1581.15 53.8433 1578.68 55.5467 1575.27 56.76C1571.91 57.9267 1567.45 58.3 1561.9 57.88V55.43C1564.42 55.5233 1566.5 55.08 1568.13 54.1C1569.76 53.0733 1570.95 51.72 1571.7 50.04C1572.49 48.36 1572.89 46.5633 1572.89 44.65C1572.89 42.0833 1572.17 40.03 1570.72 38.49C1569.27 36.9033 1567.27 36.11 1564.7 36.11C1563.16 36.11 1562.06 36.39 1561.41 36.95C1560.8 37.4633 1560.5 38.63 1560.5 40.45V73C1560.5 74.4933 1560.64 75.6367 1560.92 76.43C1561.25 77.1767 1561.81 77.69 1562.6 77.97C1563.44 78.2033 1564.61 78.3433 1566.1 78.39V80H1545.45ZM1592.46 81.05C1591.29 81.05 1590.06 80.9567 1588.75 80.77C1587.44 80.5833 1586.32 80.3267 1585.39 80V78.39C1586.32 78.39 1587.37 78.0167 1588.54 77.27C1589.71 76.5233 1590.9 75.03 1592.11 72.79L1602.12 54.66C1598.99 53.8667 1596.61 52.5833 1594.98 50.81C1593.39 49.0367 1592.6 46.89 1592.6 44.37C1592.6 42.41 1593.18 40.5667 1594.35 38.84C1595.56 37.1133 1597.52 35.7367 1600.23 34.71C1602.98 33.6367 1606.67 33.1 1611.29 33.1C1612.78 33.1 1614.51 33.17 1616.47 33.31C1618.43 33.4033 1620.6 33.45 1622.98 33.45H1631.94V35.06C1630.59 35.1067 1629.61 35.4567 1629 36.11C1628.39 36.7167 1628.09 38.1633 1628.09 40.45V73C1628.09 75.2867 1628.44 76.7333 1629.14 77.34C1629.84 77.9467 1631.12 78.2967 1632.99 78.39V80H1613.04V78.39C1614.39 78.2967 1615.37 77.9467 1615.98 77.34C1616.59 76.7333 1616.89 75.2867 1616.89 73V40.45C1616.89 38.63 1616.56 37.4633 1615.91 36.95C1615.3 36.39 1614.23 36.11 1612.69 36.11C1610.68 36.11 1608.86 36.8333 1607.23 38.28C1605.64 39.68 1604.85 41.8033 1604.85 44.65C1604.85 46.1433 1605.15 47.59 1605.76 48.99C1606.37 50.3433 1607.44 51.4867 1608.98 52.42C1610.57 53.3533 1612.74 53.9133 1615.49 54.1V56.55C1614.93 56.55 1614.44 56.6667 1614.02 56.9C1613.6 57.0867 1613.18 57.5767 1612.76 58.37L1604.85 73.63C1603.78 75.6833 1602.28 77.4333 1600.37 78.88C1598.46 80.3267 1595.82 81.05 1592.46 81.05ZM1688.61 67.05H1690.22L1689.52 80H1655.78V78.39C1656.15 78.2033 1656.71 77.8767 1657.46 77.41C1658.25 76.9433 1659.07 76.4067 1659.91 75.8C1662.24 74.12 1664.43 72.2067 1666.49 70.06C1668.54 67.9133 1670.34 65.6267 1671.88 63.2C1673.42 60.7733 1674.63 58.3467 1675.52 55.92C1676.4 53.4933 1676.85 51.1833 1676.85 48.99C1676.85 46.89 1676.33 45.1167 1675.31 43.67C1674.33 42.2233 1672.53 41.5 1669.92 41.5C1667.72 41.5 1665.69 42.1067 1663.83 43.32C1661.96 44.5333 1660.12 46.4233 1658.3 48.99L1656.97 47.87C1658.88 43.0167 1661.28 39.4 1664.18 37.02C1667.07 34.64 1670.69 33.45 1675.03 33.45C1677.55 33.45 1679.81 33.87 1681.82 34.71C1683.82 35.5033 1685.41 36.7633 1686.58 38.49C1687.79 40.17 1688.4 42.3633 1688.4 45.07C1688.4 49.8767 1686.86 54.38 1683.78 58.58C1680.74 62.78 1676.5 66.7233 1671.04 70.41V70.55H1681.26C1683.92 70.55 1685.76 70.2233 1686.79 69.57C1687.81 68.9167 1688.42 68.0767 1688.61 67.05ZM1718.4 33.45C1720.83 33.45 1723.21 33.9167 1725.54 34.85C1727.87 35.7833 1729.97 37.23 1731.84 39.19C1733.71 41.15 1735.18 43.6233 1736.25 46.61C1737.37 49.55 1737.93 53.05 1737.93 57.11C1737.93 61.1233 1737.39 64.6233 1736.32 67.61C1735.25 70.5967 1733.78 73.0933 1731.91 75.1C1730.04 77.1067 1727.94 78.6 1725.61 79.58C1723.28 80.56 1720.85 81.05 1718.33 81.05C1715.9 81.05 1713.52 80.5833 1711.19 79.65C1708.86 78.7167 1706.76 77.27 1704.89 75.31C1703.02 73.35 1701.53 70.9 1700.41 67.96C1699.34 64.9733 1698.8 61.45 1698.8 57.39C1698.8 53.3767 1699.34 49.8767 1700.41 46.89C1701.48 43.9033 1702.95 41.4067 1704.82 39.4C1706.69 37.3933 1708.79 35.9 1711.12 34.92C1713.45 33.94 1715.88 33.45 1718.4 33.45ZM1718.61 78.04C1719.96 78.04 1721.2 77.4333 1722.32 76.22C1723.44 75.0067 1724.33 72.9533 1724.98 70.06C1725.68 67.1667 1726.03 63.2 1726.03 58.16C1726.03 53.7733 1725.73 49.97 1725.12 46.75C1724.56 43.4833 1723.7 40.9633 1722.53 39.19C1721.36 37.37 1719.89 36.46 1718.12 36.46C1716.81 36.46 1715.58 37.0667 1714.41 38.28C1713.29 39.4933 1712.38 41.5467 1711.68 44.44C1711.03 47.3333 1710.7 51.3 1710.7 56.34C1710.7 60.7267 1710.98 64.5533 1711.54 67.82C1712.15 71.04 1713.03 73.56 1714.2 75.38C1715.37 77.1533 1716.84 78.04 1718.61 78.04ZM1776.59 67.05H1778.2L1777.5 80H1743.76V78.39C1744.13 78.2033 1744.69 77.8767 1745.44 77.41C1746.23 76.9433 1747.05 76.4067 1747.89 75.8C1750.22 74.12 1752.41 72.2067 1754.47 70.06C1756.52 67.9133 1758.32 65.6267 1759.86 63.2C1761.4 60.7733 1762.61 58.3467 1763.5 55.92C1764.38 53.4933 1764.83 51.1833 1764.83 48.99C1764.83 46.89 1764.31 45.1167 1763.29 43.67C1762.31 42.2233 1760.51 41.5 1757.9 41.5C1755.7 41.5 1753.67 42.1067 1751.81 43.32C1749.94 44.5333 1748.1 46.4233 1746.28 48.99L1744.95 47.87C1746.86 43.0167 1749.26 39.4 1752.16 37.02C1755.05 34.64 1758.67 33.45 1763.01 33.45C1765.53 33.45 1767.79 33.87 1769.8 34.71C1771.8 35.5033 1773.39 36.7633 1774.56 38.49C1775.77 40.17 1776.38 42.3633 1776.38 45.07C1776.38 49.8767 1774.84 54.38 1771.76 58.58C1768.72 62.78 1764.48 66.7233 1759.02 70.41V70.55H1769.24C1771.9 70.55 1773.74 70.2233 1774.77 69.57C1775.79 68.9167 1776.4 68.0767 1776.59 67.05ZM1815.48 62.15H1820.38V70.9H1817.44C1816.13 70.9 1815.48 71.7167 1815.48 73.35C1815.48 74.47 1815.48 75.5667 1815.48 76.64C1815.53 77.6667 1815.57 78.7867 1815.62 80H1804.56C1804.65 78.46 1804.72 76.9667 1804.77 75.52C1804.82 74.0267 1804.86 72.4867 1804.91 70.9H1782.79V69.29C1784 68.1233 1785.1 66.91 1786.08 65.65L1808.97 37.02C1809.48 36.3667 1809.95 35.7367 1810.37 35.13C1810.84 34.4767 1811.21 33.9167 1811.49 33.45H1815.55L1815.48 62.15ZM1804.77 47.52L1793.08 62.15H1804.98V47.52H1804.77ZM1877.81 33.45V46.4H1876.2C1875.97 44.3467 1875.55 42.5967 1874.94 41.15C1874.38 39.6567 1873.49 38.5133 1872.28 37.72C1871.11 36.88 1869.48 36.46 1867.38 36.46H1864.09C1863.11 36.46 1862.34 36.7167 1861.78 37.23C1861.27 37.7433 1861.01 38.8167 1861.01 40.45V73C1861.01 75.2867 1861.36 76.7333 1862.06 77.34C1862.76 77.9467 1864.04 78.2967 1865.91 78.39V80H1845.96V78.39C1847.31 78.2967 1848.29 77.9467 1848.9 77.34C1849.51 76.7333 1849.81 75.2867 1849.81 73V40.45C1849.81 38.1633 1849.46 36.7167 1848.76 36.11C1848.11 35.4567 1846.82 35.1067 1844.91 35.06V33.45H1877.81ZM1905.85 32.4C1909.17 32.4 1912.25 32.96 1915.09 34.08C1917.94 35.2 1920.46 36.8333 1922.65 38.98C1924.85 41.08 1926.55 43.6233 1927.76 46.61C1928.98 49.5967 1929.58 52.9333 1929.58 56.62C1929.58 60.3067 1928.98 63.6433 1927.76 66.63C1926.55 69.6167 1924.85 72.1833 1922.65 74.33C1920.51 76.4767 1917.99 78.1333 1915.09 79.3C1912.2 80.4667 1909.1 81.05 1905.78 81.05C1902.52 81.05 1899.44 80.49 1896.54 79.37C1893.7 78.25 1891.18 76.64 1888.98 74.54C1886.79 72.3933 1885.09 69.8267 1883.87 66.84C1882.66 63.8533 1882.05 60.5167 1882.05 56.83C1882.05 53.1433 1882.66 49.8067 1883.87 46.82C1885.09 43.8333 1886.77 41.2667 1888.91 39.12C1891.11 36.9733 1893.65 35.3167 1896.54 34.15C1899.44 32.9833 1902.54 32.4 1905.85 32.4ZM1907.25 78.04C1909.68 78.04 1911.59 77.2467 1912.99 75.66C1914.39 74.0267 1915.4 71.7867 1916 68.94C1916.66 66.0933 1916.98 62.78 1916.98 59C1916.98 51.3933 1915.82 45.56 1913.48 41.5C1911.2 37.44 1908.16 35.41 1904.38 35.41C1902 35.41 1900.09 36.2033 1898.64 37.79C1897.24 39.3767 1896.22 41.6167 1895.56 44.51C1894.96 47.3567 1894.65 50.67 1894.65 54.45C1894.65 62.0567 1895.8 67.89 1898.08 71.95C1900.42 76.01 1903.47 78.04 1907.25 78.04ZM1959.94 38.98L1971.56 73C1971.98 74.2133 1972.58 75.3333 1973.38 76.36C1974.22 77.34 1975.5 78.0167 1977.23 78.39L1974.01 94.35H1972.4C1972.3 91.4567 1971.88 88.9367 1971.14 86.79C1970.39 84.6433 1969.46 82.9633 1968.34 81.75C1967.22 80.5833 1966 80 1964.7 80H1945.94C1944.21 80 1942.51 80.5833 1940.83 81.75C1939.19 82.9633 1937.79 84.6433 1936.63 86.79C1935.51 88.9367 1934.78 91.4567 1934.46 94.35H1932.85V78.39C1933.69 78.0167 1934.5 77.3867 1935.3 76.5C1936.09 75.5667 1936.81 74.5167 1937.47 73.35C1938.17 72.1833 1938.7 71.0867 1939.08 70.06L1950.98 38.98C1951.44 37.7667 1951.89 36.5767 1952.31 35.41C1952.73 34.2433 1953.1 33.0533 1953.43 31.84H1957.49C1957.81 33.0533 1958.19 34.2433 1958.61 35.41C1959.07 36.5767 1959.52 37.7667 1959.94 38.98ZM1957 76.99C1958.86 76.99 1959.89 76.6867 1960.08 76.08C1960.26 75.4733 1960.1 74.4467 1959.59 73L1951.4 47.8H1951.26L1940.34 76.99H1957ZM2020.07 73C2020.72 74.5867 2021.26 75.7533 2021.68 76.5C2022.14 77.2467 2022.63 77.7367 2023.15 77.97C2023.66 78.1567 2024.29 78.2967 2025.04 78.39V80H2005.51V78.39C2007.37 78.2967 2008.4 77.7367 2008.59 76.71C2008.82 75.6833 2008.66 74.4467 2008.1 73L2004.6 63.9C2004.32 64.1333 2003.94 64.2967 2003.48 64.39C2003.06 64.4367 2002.59 64.46 2002.08 64.46H1994.17C1993.19 64.46 1992.44 64.5767 1991.93 64.81C1991.41 65.0433 1990.97 65.6267 1990.6 66.56L1988.08 73C1987.47 74.54 1987.52 75.8 1988.22 76.78C1988.92 77.76 1990.29 78.2967 1992.35 78.39V80H1979.61V78.39C1980.63 78.2967 1981.5 77.7833 1982.2 76.85C1982.94 75.87 1983.62 74.5867 1984.23 73L1997.67 38.98C1998.18 37.7667 1998.62 36.5767 1999 35.41C1999.42 34.2433 1999.79 33.0533 2000.12 31.84H2004.18C2004.5 33.0533 2004.88 34.2433 2005.3 35.41C2005.72 36.5767 2006.16 37.7667 2006.63 38.98L2020.07 73ZM2001.73 61.45C2002.38 61.45 2002.8 61.3567 2002.99 61.17C2003.22 60.9367 2003.2 60.47 2002.92 59.77L1998.09 47.8H1997.95L1992.49 61.73C1992.72 61.59 1993 61.52 1993.33 61.52C1993.65 61.4733 1994.03 61.45 1994.45 61.45H2001.73Z" fill="white"/>
<path d="M2095.8 49.0198C2088.82 46.2333 2080.63 47.7194 2075.05 53.2924C2067.51 60.8158 2067.51 72.9834 2075.05 80.5068C2080.63 86.0798 2088.82 87.5659 2095.8 84.7794V75.8627C2094.4 76.5129 2092.91 76.8844 2091.33 76.8844C2085.75 76.8844 2081.28 72.4261 2081.28 66.8532C2081.28 61.2802 2085.75 56.8219 2091.33 56.8219C2092.91 56.8219 2094.49 57.1934 2095.8 57.8436V49.0198Z" fill="white"/>
<path d="M2092.64 40.0841C2095.39 37.3287 2095.39 32.7681 2092.64 29.9177C2089.89 27.1623 2085.34 27.1623 2082.5 29.9177C2079.65 32.673 2079.75 37.2337 2082.5 40.0841C2085.34 42.8394 2089.89 42.8394 2092.64 40.0841Z" fill="white"/>
<path d="M2172.54 67.05H2174.15L2173.45 80H2139.71V78.39C2140.08 78.2033 2140.64 77.8767 2141.39 77.41C2142.18 76.9433 2143 76.4067 2143.84 75.8C2146.17 74.12 2148.36 72.2067 2150.42 70.06C2152.47 67.9133 2154.27 65.6267 2155.81 63.2C2157.35 60.7733 2158.56 58.3467 2159.45 55.92C2160.33 53.4933 2160.78 51.1833 2160.78 48.99C2160.78 46.89 2160.26 45.1167 2159.24 43.67C2158.26 42.2233 2156.46 41.5 2153.85 41.5C2151.65 41.5 2149.62 42.1067 2147.76 43.32C2145.89 44.5333 2144.05 46.4233 2142.23 48.99L2140.9 47.87C2142.81 43.0167 2145.21 39.4 2148.11 37.02C2151 34.64 2154.62 33.45 2158.96 33.45C2161.48 33.45 2163.74 33.87 2165.75 34.71C2167.75 35.5033 2169.34 36.7633 2170.51 38.49C2171.72 40.17 2172.33 42.3633 2172.33 45.07C2172.33 49.8767 2170.79 54.38 2167.71 58.58C2164.67 62.78 2160.43 66.7233 2154.97 70.41V70.55H2165.19C2167.85 70.55 2169.69 70.2233 2170.72 69.57C2171.74 68.9167 2172.35 68.0767 2172.54 67.05ZM2202.33 33.45C2204.76 33.45 2207.14 33.9167 2209.47 34.85C2211.8 35.7833 2213.9 37.23 2215.77 39.19C2217.64 41.15 2219.11 43.6233 2220.18 46.61C2221.3 49.55 2221.86 53.05 2221.86 57.11C2221.86 61.1233 2221.32 64.6233 2220.25 67.61C2219.18 70.5967 2217.71 73.0933 2215.84 75.1C2213.97 77.1067 2211.87 78.6 2209.54 79.58C2207.21 80.56 2204.78 81.05 2202.26 81.05C2199.83 81.05 2197.45 80.5833 2195.12 79.65C2192.79 78.7167 2190.69 77.27 2188.82 75.31C2186.95 73.35 2185.46 70.9 2184.34 67.96C2183.27 64.9733 2182.73 61.45 2182.73 57.39C2182.73 53.3767 2183.27 49.8767 2184.34 46.89C2185.41 43.9033 2186.88 41.4067 2188.75 39.4C2190.62 37.3933 2192.72 35.9 2195.05 34.92C2197.38 33.94 2199.81 33.45 2202.33 33.45ZM2202.54 78.04C2203.89 78.04 2205.13 77.4333 2206.25 76.22C2207.37 75.0067 2208.26 72.9533 2208.91 70.06C2209.61 67.1667 2209.96 63.2 2209.96 58.16C2209.96 53.7733 2209.66 49.97 2209.05 46.75C2208.49 43.4833 2207.63 40.9633 2206.46 39.19C2205.29 37.37 2203.82 36.46 2202.05 36.46C2200.74 36.46 2199.51 37.0667 2198.34 38.28C2197.22 39.4933 2196.31 41.5467 2195.61 44.44C2194.96 47.3333 2194.63 51.3 2194.63 56.34C2194.63 60.7267 2194.91 64.5533 2195.47 67.82C2196.08 71.04 2196.96 73.56 2198.13 75.38C2199.3 77.1533 2200.77 78.04 2202.54 78.04ZM2269.37 58.86L2247.67 60.75L2247.18 55.08L2268.88 53.19L2269.37 58.86ZM2323.54 67.05H2325.15L2324.45 80H2290.71V78.39C2291.09 78.2033 2291.65 77.8767 2292.39 77.41C2293.19 76.9433 2294 76.4067 2294.84 75.8C2297.18 74.12 2299.37 72.2067 2301.42 70.06C2303.48 67.9133 2305.27 65.6267 2306.81 63.2C2308.35 60.7733 2309.57 58.3467 2310.45 55.92C2311.34 53.4933 2311.78 51.1833 2311.78 48.99C2311.78 46.89 2311.27 45.1167 2310.24 43.67C2309.26 42.2233 2307.47 41.5 2304.85 41.5C2302.66 41.5 2300.63 42.1067 2298.76 43.32C2296.9 44.5333 2295.05 46.4233 2293.23 48.99L2291.9 47.87C2293.82 43.0167 2296.22 39.4 2299.11 37.02C2302.01 34.64 2305.62 33.45 2309.96 33.45C2312.48 33.45 2314.75 33.87 2316.75 34.71C2318.76 35.5033 2320.35 36.7633 2321.51 38.49C2322.73 40.17 2323.33 42.3633 2323.33 45.07C2323.33 49.8767 2321.79 54.38 2318.71 58.58C2315.68 62.78 2311.43 66.7233 2305.97 70.41V70.55H2316.19C2318.85 70.55 2320.7 70.2233 2321.72 69.57C2322.75 68.9167 2323.36 68.0767 2323.54 67.05ZM2352.15 72.3C2352.15 74.0267 2352.29 75.3333 2352.57 76.22C2352.89 77.06 2353.55 77.62 2354.53 77.9C2355.55 78.18 2357.09 78.3433 2359.15 78.39V80H2333.25V78.39C2335.35 78.3433 2336.89 78.18 2337.87 77.9C2338.89 77.62 2339.55 77.06 2339.83 76.22C2340.11 75.3333 2340.25 74.0267 2340.25 72.3V41.85L2333.81 45.84L2332.34 43.6L2348.58 33.45H2352.64C2352.45 34.3367 2352.31 35.2233 2352.22 36.11C2352.17 36.9967 2352.15 37.8833 2352.15 38.77V72.3ZM2384.17 80V78.39C2385.52 78.2967 2386.5 77.9467 2387.11 77.34C2387.71 76.7333 2388.02 75.2867 2388.02 73V40.45C2388.02 38.1633 2387.67 36.7167 2386.97 36.11C2386.31 35.4567 2385.03 35.1067 2383.12 35.06V33.45H2403.07V35.06C2401.71 35.1067 2400.73 35.4567 2400.13 36.11C2399.52 36.7167 2399.22 38.1633 2399.22 40.45V52.84C2399.59 52.56 2400.03 52.3733 2400.55 52.28C2401.11 52.1867 2401.76 52.14 2402.51 52.14H2415.74C2417 52.14 2417.88 51.93 2418.4 51.51C2418.91 51.09 2419.17 50.25 2419.17 48.99V40.45C2419.17 38.1633 2418.82 36.7167 2418.12 36.11C2417.46 35.4567 2416.18 35.1067 2414.27 35.06V33.45H2434.22V35.06C2432.86 35.1067 2431.88 35.4567 2431.28 36.11C2430.67 36.7167 2430.37 38.1633 2430.37 40.45V73C2430.37 75.2867 2430.72 76.7333 2431.42 77.34C2432.12 77.9467 2433.4 78.2967 2435.27 78.39V80H2415.32V78.39C2416.67 78.2967 2417.65 77.9467 2418.26 77.34C2418.86 76.7333 2419.17 75.2867 2419.17 73V54.38C2418.79 54.7067 2418.33 54.9167 2417.77 55.01C2417.21 55.1033 2416.58 55.15 2415.88 55.15H2402.65C2401.39 55.15 2400.5 55.36 2399.99 55.78C2399.47 56.2 2399.22 57.0167 2399.22 58.23V73C2399.22 75.2867 2399.57 76.7333 2400.27 77.34C2400.97 77.9467 2402.25 78.2967 2404.12 78.39V80H2384.17ZM2466.14 32.4C2469.45 32.4 2472.53 32.96 2475.38 34.08C2478.23 35.2 2480.75 36.8333 2482.94 38.98C2485.13 41.08 2486.84 43.6233 2488.05 46.61C2489.26 49.5967 2489.87 52.9333 2489.87 56.62C2489.87 60.3067 2489.26 63.6433 2488.05 66.63C2486.84 69.6167 2485.13 72.1833 2482.94 74.33C2480.79 76.4767 2478.27 78.1333 2475.38 79.3C2472.49 80.4667 2469.38 81.05 2466.07 81.05C2462.8 81.05 2459.72 80.49 2456.83 79.37C2453.98 78.25 2451.46 76.64 2449.27 74.54C2447.08 72.3933 2445.37 69.8267 2444.16 66.84C2442.95 63.8533 2442.34 60.5167 2442.34 56.83C2442.34 53.1433 2442.95 49.8067 2444.16 46.82C2445.37 43.8333 2447.05 41.2667 2449.2 39.12C2451.39 36.9733 2453.94 35.3167 2456.83 34.15C2459.72 32.9833 2462.83 32.4 2466.14 32.4ZM2467.54 78.04C2469.97 78.04 2471.88 77.2467 2473.28 75.66C2474.68 74.0267 2475.68 71.7867 2476.29 68.94C2476.94 66.0933 2477.27 62.78 2477.27 59C2477.27 51.3933 2476.1 45.56 2473.77 41.5C2471.48 37.44 2468.45 35.41 2464.67 35.41C2462.29 35.41 2460.38 36.2033 2458.93 37.79C2457.53 39.3767 2456.5 41.6167 2455.85 44.51C2455.24 47.3567 2454.94 50.67 2454.94 54.45C2454.94 62.0567 2456.08 67.89 2458.37 71.95C2460.7 76.01 2463.76 78.04 2467.54 78.04ZM2497.82 81.05C2496.66 81.05 2495.42 80.9567 2494.11 80.77C2492.81 80.5833 2491.69 80.3267 2490.75 80V78.39C2491.69 78.39 2492.74 78.0167 2493.9 77.27C2495.07 76.5233 2496.26 75.03 2497.47 72.79L2507.48 54.66C2504.36 53.8667 2501.98 52.5833 2500.34 50.81C2498.76 49.0367 2497.96 46.89 2497.96 44.37C2497.96 42.41 2498.55 40.5667 2499.71 38.84C2500.93 37.1133 2502.89 35.7367 2505.59 34.71C2508.35 33.6367 2512.03 33.1 2516.65 33.1C2518.15 33.1 2519.87 33.17 2521.83 33.31C2523.79 33.4033 2525.96 33.45 2528.34 33.45H2537.3V35.06C2535.95 35.1067 2534.97 35.4567 2534.36 36.11C2533.76 36.7167 2533.45 38.1633 2533.45 40.45V73C2533.45 75.2867 2533.8 76.7333 2534.5 77.34C2535.2 77.9467 2536.49 78.2967 2538.35 78.39V80H2518.4V78.39C2519.76 78.2967 2520.74 77.9467 2521.34 77.34C2521.95 76.7333 2522.25 75.2867 2522.25 73V40.45C2522.25 38.63 2521.93 37.4633 2521.27 36.95C2520.67 36.39 2519.59 36.11 2518.05 36.11C2516.05 36.11 2514.23 36.8333 2512.59 38.28C2511.01 39.68 2510.21 41.8033 2510.21 44.65C2510.21 46.1433 2510.52 47.59 2511.12 48.99C2511.73 50.3433 2512.8 51.4867 2514.34 52.42C2515.93 53.3533 2518.1 53.9133 2520.85 54.1V56.55C2520.29 56.55 2519.8 56.6667 2519.38 56.9C2518.96 57.0867 2518.54 57.5767 2518.12 58.37L2510.21 73.63C2509.14 75.6833 2507.65 77.4333 2505.73 78.88C2503.82 80.3267 2501.18 81.05 2497.82 81.05ZM2560.48 52H2567.27C2572.35 52 2576.37 52.56 2579.31 53.68C2582.25 54.8 2584.32 56.34 2585.54 58.3C2586.8 60.26 2587.43 62.5233 2587.43 65.09C2587.43 67.6567 2586.73 70.0833 2585.33 72.37C2583.97 74.61 2581.85 76.4533 2578.96 77.9C2576.11 79.3 2572.47 80 2568.04 80H2545.43V78.39C2546.78 78.2967 2547.76 77.9467 2548.37 77.34C2548.97 76.7333 2549.28 75.2867 2549.28 73V40.45C2549.28 38.1633 2548.93 36.7167 2548.23 36.11C2547.57 35.4567 2546.29 35.1067 2544.38 35.06V33.45H2582.88V45H2581.27C2581.13 43.4133 2580.82 41.99 2580.36 40.73C2579.89 39.4233 2579.1 38.3967 2577.98 37.65C2576.86 36.8567 2575.25 36.46 2573.15 36.46H2563.56C2562.58 36.46 2561.81 36.7167 2561.25 37.23C2560.73 37.7433 2560.48 38.8167 2560.48 40.45V52ZM2564.61 76.99C2567.08 76.99 2569.11 76.4067 2570.7 75.24C2572.33 74.0267 2573.54 72.5333 2574.34 70.76C2575.13 68.9867 2575.53 67.2367 2575.53 65.51C2575.53 62.9433 2575.04 60.89 2574.06 59.35C2573.12 57.81 2571.84 56.7133 2570.21 56.06C2568.62 55.36 2566.82 55.01 2564.82 55.01H2560.48V73C2560.48 74.6333 2560.73 75.7067 2561.25 76.22C2561.76 76.7333 2562.88 76.99 2564.61 76.99ZM2594.85 80V78.39C2596.2 78.2967 2597.18 77.9467 2597.79 77.34C2598.4 76.7333 2598.7 75.2867 2598.7 73V40.45C2598.7 38.1633 2598.35 36.7167 2597.65 36.11C2597 35.4567 2595.71 35.1067 2593.8 35.06V33.45H2598.7C2602.11 33.45 2605.3 33.4033 2608.29 33.31C2611.28 33.17 2613.52 33.1 2615.01 33.1C2619.86 33.1 2623.69 33.6367 2626.49 34.71C2629.34 35.7833 2631.37 37.2067 2632.58 38.98C2633.84 40.7067 2634.47 42.62 2634.47 44.72C2634.47 47.1467 2633.68 49.4567 2632.09 51.65C2630.55 53.8433 2628.08 55.5467 2624.67 56.76C2621.31 57.9267 2616.85 58.3 2611.3 57.88V55.43C2613.82 55.5233 2615.9 55.08 2617.53 54.1C2619.16 53.0733 2620.35 51.72 2621.1 50.04C2621.89 48.36 2622.29 46.5633 2622.29 44.65C2622.29 42.0833 2621.57 40.03 2620.12 38.49C2618.67 36.9033 2616.67 36.11 2614.1 36.11C2612.56 36.11 2611.46 36.39 2610.81 36.95C2610.2 37.4633 2609.9 38.63 2609.9 40.45V73C2609.9 74.4933 2610.04 75.6367 2610.32 76.43C2610.65 77.1767 2611.21 77.69 2612 77.97C2612.84 78.2033 2614.01 78.3433 2615.5 78.39V80H2594.85ZM2641.86 81.05C2640.69 81.05 2639.45 80.9567 2638.15 80.77C2636.84 80.5833 2635.72 80.3267 2634.79 80V78.39C2635.72 78.39 2636.77 78.0167 2637.94 77.27C2639.1 76.5233 2640.29 75.03 2641.51 72.79L2651.52 54.66C2648.39 53.8667 2646.01 52.5833 2644.38 50.81C2642.79 49.0367 2642 46.89 2642 44.37C2642 42.41 2642.58 40.5667 2643.75 38.84C2644.96 37.1133 2646.92 35.7367 2649.63 34.71C2652.38 33.6367 2656.07 33.1 2660.69 33.1C2662.18 33.1 2663.91 33.17 2665.87 33.31C2667.83 33.4033 2670 33.45 2672.38 33.45H2681.34V35.06C2679.98 35.1067 2679 35.4567 2678.4 36.11C2677.79 36.7167 2677.49 38.1633 2677.49 40.45V73C2677.49 75.2867 2677.84 76.7333 2678.54 77.34C2679.24 77.9467 2680.52 78.2967 2682.39 78.39V80H2662.44V78.39C2663.79 78.2967 2664.77 77.9467 2665.38 77.34C2665.98 76.7333 2666.29 75.2867 2666.29 73V40.45C2666.29 38.63 2665.96 37.4633 2665.31 36.95C2664.7 36.39 2663.63 36.11 2662.09 36.11C2660.08 36.11 2658.26 36.8333 2656.63 38.28C2655.04 39.68 2654.25 41.8033 2654.25 44.65C2654.25 46.1433 2654.55 47.59 2655.16 48.99C2655.76 50.3433 2656.84 51.4867 2658.38 52.42C2659.96 53.3533 2662.13 53.9133 2664.89 54.1V56.55C2664.33 56.55 2663.84 56.6667 2663.42 56.9C2663 57.0867 2662.58 57.5767 2662.16 58.37L2654.25 73.63C2653.17 75.6833 2651.68 77.4333 2649.77 78.88C2647.85 80.3267 2645.22 81.05 2641.86 81.05ZM2738.01 67.05H2739.62L2738.92 80H2705.18V78.39C2705.55 78.2033 2706.11 77.8767 2706.86 77.41C2707.65 76.9433 2708.47 76.4067 2709.31 75.8C2711.64 74.12 2713.83 72.2067 2715.89 70.06C2717.94 67.9133 2719.74 65.6267 2721.28 63.2C2722.82 60.7733 2724.03 58.3467 2724.92 55.92C2725.8 53.4933 2726.25 51.1833 2726.25 48.99C2726.25 46.89 2725.73 45.1167 2724.71 43.67C2723.73 42.2233 2721.93 41.5 2719.32 41.5C2717.12 41.5 2715.09 42.1067 2713.23 43.32C2711.36 44.5333 2709.52 46.4233 2707.7 48.99L2706.37 47.87C2708.28 43.0167 2710.68 39.4 2713.58 37.02C2716.47 34.64 2720.09 33.45 2724.43 33.45C2726.95 33.45 2729.21 33.87 2731.22 34.71C2733.22 35.5033 2734.81 36.7633 2735.98 38.49C2737.19 40.17 2737.8 42.3633 2737.8 45.07C2737.8 49.8767 2736.26 54.38 2733.18 58.58C2730.14 62.78 2725.9 66.7233 2720.44 70.41V70.55H2730.66C2733.32 70.55 2735.16 70.2233 2736.19 69.57C2737.21 68.9167 2737.82 68.0767 2738.01 67.05ZM2767.8 33.45C2770.23 33.45 2772.61 33.9167 2774.94 34.85C2777.27 35.7833 2779.37 37.23 2781.24 39.19C2783.11 41.15 2784.58 43.6233 2785.65 46.61C2786.77 49.55 2787.33 53.05 2787.33 57.11C2787.33 61.1233 2786.79 64.6233 2785.72 67.61C2784.65 70.5967 2783.18 73.0933 2781.31 75.1C2779.44 77.1067 2777.34 78.6 2775.01 79.58C2772.68 80.56 2770.25 81.05 2767.73 81.05C2765.3 81.05 2762.92 80.5833 2760.59 79.65C2758.26 78.7167 2756.16 77.27 2754.29 75.31C2752.42 73.35 2750.93 70.9 2749.81 67.96C2748.74 64.9733 2748.2 61.45 2748.2 57.39C2748.2 53.3767 2748.74 49.8767 2749.81 46.89C2750.88 43.9033 2752.35 41.4067 2754.22 39.4C2756.09 37.3933 2758.19 35.9 2760.52 34.92C2762.85 33.94 2765.28 33.45 2767.8 33.45ZM2768.01 78.04C2769.36 78.04 2770.6 77.4333 2771.72 76.22C2772.84 75.0067 2773.73 72.9533 2774.38 70.06C2775.08 67.1667 2775.43 63.2 2775.43 58.16C2775.43 53.7733 2775.13 49.97 2774.52 46.75C2773.96 43.4833 2773.1 40.9633 2771.93 39.19C2770.76 37.37 2769.29 36.46 2767.52 36.46C2766.21 36.46 2764.98 37.0667 2763.81 38.28C2762.69 39.4933 2761.78 41.5467 2761.08 44.44C2760.43 47.3333 2760.1 51.3 2760.1 56.34C2760.1 60.7267 2760.38 64.5533 2760.94 67.82C2761.55 71.04 2762.43 73.56 2763.6 75.38C2764.77 77.1533 2766.24 78.04 2768.01 78.04ZM2825.98 67.05H2827.59L2826.89 80H2793.15V78.39C2793.53 78.2033 2794.09 77.8767 2794.83 77.41C2795.63 76.9433 2796.44 76.4067 2797.28 75.8C2799.62 74.12 2801.81 72.2067 2803.86 70.06C2805.92 67.9133 2807.71 65.6267 2809.25 63.2C2810.79 60.7733 2812.01 58.3467 2812.89 55.92C2813.78 53.4933 2814.22 51.1833 2814.22 48.99C2814.22 46.89 2813.71 45.1167 2812.68 43.67C2811.7 42.2233 2809.91 41.5 2807.29 41.5C2805.1 41.5 2803.07 42.1067 2801.2 43.32C2799.34 44.5333 2797.49 46.4233 2795.67 48.99L2794.34 47.87C2796.26 43.0167 2798.66 39.4 2801.55 37.02C2804.45 34.64 2808.06 33.45 2812.4 33.45C2814.92 33.45 2817.19 33.87 2819.19 34.71C2821.2 35.5033 2822.79 36.7633 2823.95 38.49C2825.17 40.17 2825.77 42.3633 2825.77 45.07C2825.77 49.8767 2824.23 54.38 2821.15 58.58C2818.12 62.78 2813.87 66.7233 2808.41 70.41V70.55H2818.63C2821.29 70.55 2823.14 70.2233 2824.16 69.57C2825.19 68.9167 2825.8 68.0767 2825.98 67.05ZM2864.88 62.15H2869.78V70.9H2866.84C2865.53 70.9 2864.88 71.7167 2864.88 73.35C2864.88 74.47 2864.88 75.5667 2864.88 76.64C2864.92 77.6667 2864.97 78.7867 2865.02 80H2853.96C2854.05 78.46 2854.12 76.9667 2854.17 75.52C2854.21 74.0267 2854.26 72.4867 2854.31 70.9H2832.19V69.29C2833.4 68.1233 2834.5 66.91 2835.48 65.65L2858.37 37.02C2858.88 36.3667 2859.35 35.7367 2859.77 35.13C2860.23 34.4767 2860.61 33.9167 2860.89 33.45H2864.95L2864.88 62.15ZM2854.17 47.52L2842.48 62.15H2854.38V47.52H2854.17ZM2927.21 33.45V46.4H2925.6C2925.36 44.3467 2924.94 42.5967 2924.34 41.15C2923.78 39.6567 2922.89 38.5133 2921.68 37.72C2920.51 36.88 2918.88 36.46 2916.78 36.46H2913.49C2912.51 36.46 2911.74 36.7167 2911.18 37.23C2910.66 37.7433 2910.41 38.8167 2910.41 40.45V73C2910.41 75.2867 2910.76 76.7333 2911.46 77.34C2912.16 77.9467 2913.44 78.2967 2915.31 78.39V80H2895.36V78.39C2896.71 78.2967 2897.69 77.9467 2898.3 77.34C2898.9 76.7333 2899.21 75.2867 2899.21 73V40.45C2899.21 38.1633 2898.86 36.7167 2898.16 36.11C2897.5 35.4567 2896.22 35.1067 2894.31 35.06V33.45H2927.21ZM2955.25 32.4C2958.56 32.4 2961.64 32.96 2964.49 34.08C2967.34 35.2 2969.86 36.8333 2972.05 38.98C2974.24 41.08 2975.95 43.6233 2977.16 46.61C2978.37 49.5967 2978.98 52.9333 2978.98 56.62C2978.98 60.3067 2978.37 63.6433 2977.16 66.63C2975.95 69.6167 2974.24 72.1833 2972.05 74.33C2969.9 76.4767 2967.38 78.1333 2964.49 79.3C2961.6 80.4667 2958.49 81.05 2955.18 81.05C2951.91 81.05 2948.83 80.49 2945.94 79.37C2943.09 78.25 2940.57 76.64 2938.38 74.54C2936.19 72.3933 2934.48 69.8267 2933.27 66.84C2932.06 63.8533 2931.45 60.5167 2931.45 56.83C2931.45 53.1433 2932.06 49.8067 2933.27 46.82C2934.48 43.8333 2936.16 41.2667 2938.31 39.12C2940.5 36.9733 2943.05 35.3167 2945.94 34.15C2948.83 32.9833 2951.94 32.4 2955.25 32.4ZM2956.65 78.04C2959.08 78.04 2960.99 77.2467 2962.39 75.66C2963.79 74.0267 2964.79 71.7867 2965.4 68.94C2966.05 66.0933 2966.38 62.78 2966.38 59C2966.38 51.3933 2965.21 45.56 2962.88 41.5C2960.59 37.44 2957.56 35.41 2953.78 35.41C2951.4 35.41 2949.49 36.2033 2948.04 37.79C2946.64 39.3767 2945.61 41.6167 2944.96 44.51C2944.35 47.3567 2944.05 50.67 2944.05 54.45C2944.05 62.0567 2945.19 67.89 2947.48 71.95C2949.81 76.01 2952.87 78.04 2956.65 78.04ZM3009.34 38.98L3020.96 73C3021.38 74.2133 3021.98 75.3333 3022.78 76.36C3023.62 77.34 3024.9 78.0167 3026.63 78.39L3023.41 94.35H3021.8C3021.7 91.4567 3021.28 88.9367 3020.54 86.79C3019.79 84.6433 3018.86 82.9633 3017.74 81.75C3016.62 80.5833 3015.4 80 3014.1 80H2995.34C2993.61 80 2991.91 80.5833 2990.23 81.75C2988.59 82.9633 2987.19 84.6433 2986.03 86.79C2984.91 88.9367 2984.18 91.4567 2983.86 94.35H2982.25V78.39C2983.09 78.0167 2983.9 77.3867 2984.7 76.5C2985.49 75.5667 2986.21 74.5167 2986.87 73.35C2987.57 72.1833 2988.1 71.0867 2988.48 70.06L3000.38 38.98C3000.84 37.7667 3001.29 36.5767 3001.71 35.41C3002.13 34.2433 3002.5 33.0533 3002.83 31.84H3006.89C3007.21 33.0533 3007.59 34.2433 3008.01 35.41C3008.47 36.5767 3008.92 37.7667 3009.34 38.98ZM3006.4 76.99C3008.26 76.99 3009.29 76.6867 3009.48 76.08C3009.66 75.4733 3009.5 74.4467 3008.99 73L3000.8 47.8H3000.66L2989.74 76.99H3006.4ZM3069.46 73C3070.12 74.5867 3070.65 75.7533 3071.07 76.5C3071.54 77.2467 3072.03 77.7367 3072.54 77.97C3073.06 78.1567 3073.69 78.2967 3074.43 78.39V80H3054.9V78.39C3056.77 78.2967 3057.8 77.7367 3057.98 76.71C3058.22 75.6833 3058.05 74.4467 3057.49 73L3053.99 63.9C3053.71 64.1333 3053.34 64.2967 3052.87 64.39C3052.45 64.4367 3051.99 64.46 3051.47 64.46H3043.56C3042.58 64.46 3041.84 64.5767 3041.32 64.81C3040.81 65.0433 3040.37 65.6267 3039.99 66.56L3037.47 73C3036.87 74.54 3036.91 75.8 3037.61 76.78C3038.31 77.76 3039.69 78.2967 3041.74 78.39V80H3029V78.39C3030.03 78.2967 3030.89 77.7833 3031.59 76.85C3032.34 75.87 3033.02 74.5867 3033.62 73L3047.06 38.98C3047.58 37.7667 3048.02 36.5767 3048.39 35.41C3048.81 34.2433 3049.19 33.0533 3049.51 31.84H3053.57C3053.9 33.0533 3054.27 34.2433 3054.69 35.41C3055.11 36.5767 3055.56 37.7667 3056.02 38.98L3069.46 73ZM3051.12 61.45C3051.78 61.45 3052.2 61.3567 3052.38 61.17C3052.62 60.9367 3052.59 60.47 3052.31 59.77L3047.48 47.8H3047.34L3041.88 61.73C3042.12 61.59 3042.4 61.52 3042.72 61.52C3043.05 61.4733 3043.42 61.45 3043.84 61.45H3051.12Z" fill="white"/>
</svg>
