<svg width="1163" height="38" viewBox="0 0 1163 38" fill="none" xmlns="http://www.w3.org/2000/svg">
<rect width="1161.4" height="37" transform="translate(0.632812 0.114258)" fill="url(#paint0_linear_614_2513)"/>
<path d="M18.2637 25.1143V24.6443C18.6587 24.6171 18.9447 24.515 19.1218 24.3379C19.2989 24.1608 19.3874 23.7386 19.3874 23.0712V13.5708C19.3874 12.9034 19.2853 12.4812 19.0809 12.3041C18.8903 12.1134 18.5157 12.0113 17.9572 11.9976V11.5277H23.78V11.9976C23.385 12.0113 23.099 12.1134 22.9219 12.3041C22.7449 12.4812 22.6563 12.9034 22.6563 13.5708V23.0712C22.6563 23.7386 22.7585 24.1608 22.9628 24.3379C23.1671 24.515 23.5417 24.6171 24.0865 24.6443V25.1143H18.2637ZM38.2346 25.2777C38.0302 25.0598 37.8191 24.8487 37.6012 24.6443C37.3833 24.4264 37.0359 24.1063 36.5592 23.6841L28.5095 16.329H28.4686V23.0712C28.4686 23.5343 28.5844 23.9088 28.8159 24.1949C29.0611 24.4673 29.4765 24.6171 30.0622 24.6443V25.1143H26.2825V24.6443C26.6775 24.6171 26.9635 24.4673 27.1406 24.1949C27.3177 23.9088 27.4062 23.5343 27.4062 23.0712V13.5708C27.4062 12.9034 27.304 12.4812 27.0997 12.3041C26.909 12.1134 26.5345 12.0113 25.976 11.9976V11.5277H28.4277C28.6321 11.7865 28.85 12.0181 29.0815 12.2224C29.3131 12.4267 29.5787 12.6719 29.8783 12.9579L38.0098 20.313H38.0507V13.5708C38.0507 13.1077 37.9349 12.7332 37.7034 12.4471C37.4718 12.1611 37.0564 12.0113 36.4571 11.9976V11.5277H40.2368V11.9976C39.8418 12.0113 39.5558 12.1611 39.3787 12.4471C39.2016 12.7332 39.1131 13.1077 39.1131 13.5708V23.0712C39.1131 23.4525 39.1131 23.8203 39.1131 24.1744C39.1267 24.515 39.1403 24.8827 39.1539 25.2777H38.2346ZM41.8526 11.5277H53.4982V14.8988H53.0283C52.9465 14.1633 52.7286 13.564 52.3745 13.1009C52.0203 12.6378 51.4142 12.4063 50.5561 12.4063H49.3098V23.0712C49.3098 23.7386 49.412 24.1608 49.6163 24.3379C49.8206 24.515 50.1952 24.6171 50.74 24.6443V25.1143H44.9172V24.6443C45.3122 24.6171 45.5982 24.515 45.7753 24.3379C45.9524 24.1608 46.0409 23.7386 46.0409 23.0712V12.4063H44.7742C43.9433 12.4063 43.344 12.6378 42.9763 13.1009C42.6221 13.564 42.4042 14.1633 42.3225 14.8988H41.8526V11.5277ZM55.3521 25.1143V24.6443C55.7471 24.6171 56.0331 24.515 56.2102 24.3379C56.3873 24.1608 56.4758 23.7386 56.4758 23.0712V13.5708C56.4758 12.9034 56.3737 12.4812 56.1693 12.3041C55.9787 12.1134 55.6041 12.0113 55.0456 11.9976V11.5277H65.0772V14.3881H64.6073C64.5801 13.8024 64.3757 13.3256 63.9944 12.9579C63.6266 12.5901 63.0545 12.4063 62.2782 12.4063H60.6437C60.3577 12.4063 60.1329 12.4812 59.9695 12.631C59.8197 12.7808 59.7447 13.0941 59.7447 13.5708V17.5957C59.8537 17.514 59.9831 17.4595 60.1329 17.4323C60.2964 17.405 60.4871 17.3914 60.705 17.3914H62.6868C63.0954 17.3914 63.4359 17.2756 63.7083 17.0441C63.9807 16.8125 64.1238 16.4924 64.1374 16.0838H64.6073V19.5571H64.1374C64.1238 19.0531 63.9807 18.7126 63.7083 18.5355C63.4359 18.3585 63.0954 18.2699 62.6868 18.2699H60.7459C60.3781 18.2699 60.1193 18.3312 59.9695 18.4538C59.8197 18.5764 59.7447 18.8147 59.7447 19.1689V23.0712C59.7447 23.5479 59.8469 23.8612 60.0512 24.011C60.2691 24.1608 60.6846 24.2357 61.2975 24.2357H63.2384C64.0557 24.2357 64.7026 23.9906 65.1794 23.5002C65.6561 23.0099 65.9217 22.4242 65.9762 21.7432H66.4461L66.2826 25.1143H55.3521ZM80.1528 25.4207C79.5399 25.4207 79.0155 25.3186 78.5796 25.1143C78.1438 24.9236 77.776 24.6648 77.4763 24.3379C77.1767 24.011 76.8975 23.65 76.6387 23.255L73.7784 18.8011C73.6422 18.5696 73.5196 18.4266 73.4106 18.3721C73.3016 18.3176 73.1722 18.2835 73.0224 18.2699V17.5548C73.8396 17.5004 74.473 17.3369 74.9225 17.0645C75.372 16.7921 75.6852 16.4584 75.8623 16.0634C76.0394 15.6548 76.1279 15.2325 76.1279 14.7967C76.1279 13.9658 75.8964 13.3461 75.4333 12.9375C74.9702 12.5152 74.439 12.3041 73.8396 12.3041C73.3902 12.3041 73.0701 12.3858 72.8794 12.5493C72.7023 12.6991 72.6138 13.0396 72.6138 13.5708V23.0712C72.6138 23.7386 72.716 24.1608 72.9203 24.3379C73.1246 24.515 73.4991 24.6171 74.044 24.6443V25.1143H68.2212V24.6443C68.6162 24.6171 68.9022 24.515 69.0793 24.3379C69.2563 24.1608 69.3449 23.7386 69.3449 23.0712V13.5708C69.3449 12.9034 69.2427 12.4812 69.0384 12.3041C68.8477 12.1134 68.4731 12.0113 67.9147 11.9976V11.5277H69.3449C70.3664 11.5277 71.2926 11.5141 72.1235 11.4869C72.9543 11.446 73.6626 11.4256 74.2483 11.4256C75.5967 11.4256 76.6659 11.555 77.4559 11.8138C78.2595 12.0589 78.8316 12.4063 79.1721 12.8557C79.5262 13.3052 79.7033 13.816 79.7033 14.3881C79.7033 14.9329 79.5671 15.43 79.2947 15.8795C79.0359 16.329 78.6886 16.7104 78.2527 17.0236C77.8305 17.3233 77.3674 17.5344 76.8634 17.657V17.6979L80.2549 23.0099C80.6499 23.6364 81.0109 24.0655 81.3378 24.297C81.6647 24.5286 81.9575 24.6443 82.2163 24.6443V25.1143C81.9439 25.2096 81.617 25.2845 81.2356 25.339C80.8679 25.3935 80.5069 25.4207 80.1528 25.4207ZM89.8016 25.4207C88.3714 25.4207 87.1047 25.1347 86.0014 24.5626C84.8982 23.9906 84.0333 23.1869 83.4067 22.1518C82.7802 21.103 82.4669 19.8908 82.4669 18.5151C82.4669 17.3846 82.6712 16.3767 83.0798 15.4913C83.4884 14.5924 84.0469 13.8228 84.7552 13.1826C85.477 12.5425 86.3011 12.0589 87.2273 11.732C88.1671 11.3915 89.1682 11.2213 90.2306 11.2213C91.0342 11.2213 91.8038 11.2962 92.5393 11.446C93.2748 11.5958 93.8605 11.7729 94.2964 11.9772V15.2053H93.8265C93.554 14.3744 93.2272 13.7411 92.8458 13.3052C92.4644 12.8557 92.0354 12.5425 91.5586 12.3654C91.0955 12.1883 90.6052 12.0998 90.0876 12.0998C87.4588 12.0998 86.1445 14.0067 86.1445 17.8204C86.1445 19.0735 86.2738 20.2109 86.5326 21.2324C86.805 22.2539 87.2205 23.0644 87.7789 23.6637C88.351 24.2494 89.0797 24.5422 89.965 24.5422C90.6869 24.5422 91.3407 24.3651 91.9264 24.011C92.5121 23.6432 93.0092 23.1597 93.4178 22.5604C93.8401 21.9611 94.1397 21.3141 94.3168 20.6195H94.7867L94.6233 23.725C94.1738 24.2153 93.5404 24.6239 92.7232 24.9508C91.906 25.2641 90.9321 25.4207 89.8016 25.4207ZM103.44 11.2213C104.407 11.2213 105.306 11.3847 106.137 11.7116C106.967 12.0385 107.703 12.5152 108.343 13.1418C108.983 13.7547 109.48 14.497 109.835 15.3687C110.189 16.2405 110.366 17.2143 110.366 18.2903C110.366 19.3664 110.189 20.3402 109.835 21.212C109.48 22.0837 108.983 22.8328 108.343 23.4594C107.717 24.0859 106.981 24.5694 106.137 24.9099C105.292 25.2505 104.386 25.4207 103.419 25.4207C102.466 25.4207 101.567 25.2573 100.722 24.9304C99.8915 24.6035 99.156 24.1336 98.5158 23.5207C97.8757 22.8941 97.3785 22.145 97.0244 21.2733C96.6702 20.4015 96.4932 19.4277 96.4932 18.3516C96.4932 17.2756 96.6702 16.3017 97.0244 15.43C97.3785 14.5583 97.8688 13.8092 98.4954 13.1826C99.1356 12.5561 99.8779 12.0726 100.722 11.732C101.567 11.3915 102.473 11.2213 103.44 11.2213ZM103.848 24.5422C104.557 24.5422 105.115 24.3106 105.524 23.8475C105.932 23.3708 106.225 22.717 106.402 21.8862C106.593 21.0553 106.688 20.0883 106.688 18.985C106.688 16.7648 106.348 15.0623 105.667 13.8773C104.999 12.6923 104.114 12.0998 103.011 12.0998C102.316 12.0998 101.758 12.3313 101.335 12.7944C100.927 13.2575 100.627 13.9113 100.436 14.7558C100.259 15.5867 100.171 16.5537 100.171 17.657C100.171 19.8771 100.504 21.5797 101.172 22.7647C101.853 23.9497 102.745 24.5422 103.848 24.5422ZM119.824 25.2777C119.715 24.9644 119.578 24.6443 119.415 24.3175C119.265 23.9769 119.061 23.5343 118.802 22.9894L115.125 15.3074H115.084L114.716 23.0712C114.702 23.5343 114.811 23.9088 115.043 24.1949C115.274 24.4673 115.697 24.6171 116.31 24.6443V25.1143H112.53V24.6443C112.925 24.6171 113.204 24.4673 113.367 24.1949C113.545 23.9088 113.64 23.5343 113.653 23.0712L114.083 13.5708C114.11 13.0941 114.076 12.7536 113.98 12.5493C113.899 12.345 113.749 12.2156 113.531 12.1611C113.313 12.093 113.02 12.0385 112.652 11.9976V11.5277H117.025C117.134 11.8819 117.256 12.2156 117.392 12.5288C117.542 12.8421 117.706 13.1894 117.883 13.5708L121.397 20.9259H121.438L124.707 13.5708C125.02 12.8762 125.258 12.1951 125.422 11.5277H129.753V11.9976C129.494 12.0113 129.276 12.0521 129.099 12.1202C128.922 12.1883 128.793 12.3313 128.711 12.5493C128.643 12.7536 128.616 13.0941 128.629 13.5708L129.058 23.0712C129.086 23.507 129.14 23.8339 129.222 24.0519C129.317 24.2698 129.467 24.4196 129.671 24.5013C129.876 24.5694 130.148 24.6171 130.489 24.6443V25.1143H124.666V24.6443C125.102 24.6171 125.401 24.515 125.565 24.3379C125.742 24.1608 125.817 23.7386 125.789 23.0712L125.442 14.7149H125.401L121.703 22.9894C121.444 23.5615 121.254 24.011 121.131 24.3379C121.022 24.6512 120.927 24.9644 120.845 25.2777H119.824ZM139.436 25.2777C139.327 24.9644 139.191 24.6443 139.028 24.3175C138.878 23.9769 138.674 23.5343 138.415 22.9894L134.737 15.3074H134.696L134.329 23.0712C134.315 23.5343 134.424 23.9088 134.656 24.1949C134.887 24.4673 135.309 24.6171 135.922 24.6443V25.1143H132.143V24.6443C132.538 24.6171 132.817 24.4673 132.98 24.1949C133.157 23.9088 133.253 23.5343 133.266 23.0712L133.695 13.5708C133.723 13.0941 133.689 12.7536 133.593 12.5493C133.511 12.345 133.362 12.2156 133.144 12.1611C132.926 12.093 132.633 12.0385 132.265 11.9976V11.5277H136.637C136.746 11.8819 136.869 12.2156 137.005 12.5288C137.155 12.8421 137.318 13.1894 137.496 13.5708L141.01 20.9259H141.05L144.319 13.5708C144.633 12.8762 144.871 12.1951 145.035 11.5277H149.366V11.9976C149.107 12.0113 148.889 12.0521 148.712 12.1202C148.535 12.1883 148.406 12.3313 148.324 12.5493C148.256 12.7536 148.229 13.0941 148.242 13.5708L148.671 23.0712C148.698 23.507 148.753 23.8339 148.835 24.0519C148.93 24.2698 149.08 24.4196 149.284 24.5013C149.488 24.5694 149.761 24.6171 150.101 24.6443V25.1143H144.279V24.6443C144.714 24.6171 145.014 24.515 145.178 24.3379C145.355 24.1608 145.43 23.7386 145.402 23.0712L145.055 14.7149H145.014L141.316 22.9894C141.057 23.5615 140.867 24.011 140.744 24.3379C140.635 24.6512 140.54 24.9644 140.458 25.2777H139.436ZM166.129 21.3345H166.599L166.395 25.1143H156.547V24.6443C156.656 24.5899 156.82 24.4945 157.037 24.3583C157.269 24.2221 157.507 24.0655 157.753 23.8884C158.434 23.3981 159.074 22.8396 159.673 22.2131C160.272 21.5865 160.797 20.9191 161.246 20.2109C161.696 19.5026 162.05 18.7943 162.309 18.086C162.567 17.3778 162.697 16.7036 162.697 16.0634C162.697 15.4505 162.547 14.9329 162.247 14.5106C161.961 14.0884 161.437 13.8773 160.674 13.8773C160.034 13.8773 159.442 14.0543 158.897 14.4085C158.352 14.7626 157.814 15.3143 157.283 16.0634L156.894 15.7365C157.453 14.32 158.154 13.2644 158.999 12.5697C159.843 11.8751 160.899 11.5277 162.166 11.5277C162.901 11.5277 163.562 11.6503 164.147 11.8955C164.733 12.127 165.196 12.4948 165.537 12.9988C165.891 13.4891 166.068 14.1293 166.068 14.9193C166.068 16.3222 165.618 17.6366 164.719 18.8624C163.834 20.0883 162.595 21.2392 161.001 22.3152V22.3561H163.984C164.76 22.3561 165.298 22.2607 165.598 22.0701C165.898 21.8794 166.075 21.6342 166.129 21.3345ZM174.825 11.5277C175.533 11.5277 176.228 11.6639 176.909 11.9363C177.59 12.2088 178.203 12.631 178.748 13.2031C179.292 13.7751 179.722 14.497 180.035 15.3687C180.362 16.2268 180.525 17.2484 180.525 18.4334C180.525 19.6047 180.369 20.6263 180.055 21.498C179.742 22.3697 179.313 23.0984 178.768 23.6841C178.223 24.2698 177.61 24.7056 176.929 24.9917C176.248 25.2777 175.54 25.4207 174.805 25.4207C174.096 25.4207 173.402 25.2845 172.721 25.0121C172.04 24.7397 171.427 24.3175 170.882 23.7454C170.337 23.1733 169.901 22.4582 169.574 21.6001C169.261 20.7284 169.104 19.7001 169.104 18.5151C169.104 17.3437 169.261 16.3222 169.574 15.4505C169.887 14.5787 170.317 13.85 170.861 13.2644C171.406 12.6787 172.019 12.2428 172.7 11.9568C173.381 11.6707 174.089 11.5277 174.825 11.5277ZM174.886 24.5422C175.281 24.5422 175.642 24.3651 175.969 24.011C176.296 23.6569 176.555 23.0576 176.745 22.2131C176.95 21.3686 177.052 20.2109 177.052 18.7398C177.052 17.4595 176.963 16.3494 176.786 15.4096C176.623 14.4562 176.371 13.7206 176.03 13.2031C175.69 12.6719 175.261 12.4063 174.743 12.4063C174.362 12.4063 174.001 12.5833 173.66 12.9375C173.333 13.2916 173.068 13.8909 172.864 14.7354C172.673 15.5799 172.578 16.7376 172.578 18.2086C172.578 19.489 172.659 20.6058 172.823 21.5593C173 22.4991 173.259 23.2346 173.599 23.7658C173.94 24.2834 174.369 24.5422 174.886 24.5422ZM191.807 21.3345H192.277L192.073 25.1143H182.225V24.6443C182.334 24.5899 182.498 24.4945 182.716 24.3583C182.947 24.2221 183.186 24.0655 183.431 23.8884C184.112 23.3981 184.752 22.8396 185.351 22.2131C185.951 21.5865 186.475 20.9191 186.924 20.2109C187.374 19.5026 187.728 18.7943 187.987 18.086C188.246 17.3778 188.375 16.7036 188.375 16.0634C188.375 15.4505 188.225 14.9329 187.926 14.5106C187.64 14.0884 187.115 13.8773 186.352 13.8773C185.712 13.8773 185.12 14.0543 184.575 14.4085C184.03 14.7626 183.492 15.3143 182.961 16.0634L182.573 15.7365C183.131 14.32 183.833 13.2644 184.677 12.5697C185.522 11.8751 186.577 11.5277 187.844 11.5277C188.579 11.5277 189.24 11.6503 189.826 11.8955C190.411 12.127 190.874 12.4948 191.215 12.9988C191.569 13.4891 191.746 14.1293 191.746 14.9193C191.746 16.3222 191.297 17.6366 190.398 18.8624C189.512 20.0883 188.273 21.2392 186.679 22.3152V22.3561H189.662C190.439 22.3561 190.977 22.2607 191.276 22.0701C191.576 21.8794 191.753 21.6342 191.807 21.3345ZM203.159 19.9044H204.589V22.4582H203.731C203.35 22.4582 203.159 22.6966 203.159 23.1733C203.159 23.5002 203.159 23.8203 203.159 24.1336C203.173 24.4332 203.186 24.7601 203.2 25.1143H199.972C199.999 24.6648 200.02 24.2289 200.033 23.8067C200.047 23.3708 200.061 22.9213 200.074 22.4582H193.618V21.9883C193.972 21.6478 194.292 21.2937 194.578 20.9259L201.259 12.5697C201.409 12.379 201.545 12.1951 201.668 12.0181C201.804 11.8274 201.913 11.6639 201.995 11.5277H203.18L203.159 19.9044ZM200.033 15.6343L196.621 19.9044H200.095V15.6343H200.033Z" fill="black"/>
<path d="M234.334 15.3534C231.483 14.2148 228.137 14.8221 225.856 17.0993C222.777 20.1735 222.777 25.1453 225.856 28.2196C228.137 30.4968 231.483 31.104 234.334 29.9654V26.3219C233.764 26.5876 233.155 26.7394 232.509 26.7394C230.228 26.7394 228.403 24.9176 228.403 22.6404C228.403 20.3632 230.228 18.5415 232.509 18.5415C233.155 18.5415 233.802 18.6933 234.334 18.959V15.3534Z" fill="black"/>
<path d="M233.04 11.7021C234.163 10.5762 234.163 8.71263 233.04 7.54791C231.917 6.42202 230.058 6.42202 228.896 7.54791C227.734 8.67381 227.773 10.5374 228.896 11.7021C230.058 12.828 231.917 12.828 233.04 11.7021Z" fill="black"/>
<path d="M253.193 25.1143V24.6443C253.588 24.6171 253.874 24.515 254.051 24.3379C254.229 24.1608 254.317 23.7386 254.317 23.0712V13.5708C254.317 12.9034 254.215 12.4812 254.011 12.3041C253.82 12.1134 253.445 12.0113 252.887 11.9976V11.5277H258.71V11.9976C258.315 12.0113 258.029 12.1134 257.852 12.3041C257.675 12.4812 257.586 12.9034 257.586 13.5708V23.0712C257.586 23.7386 257.688 24.1608 257.892 24.3379C258.097 24.515 258.471 24.6171 259.016 24.6443V25.1143H253.193ZM273.164 25.2777C272.96 25.0598 272.749 24.8487 272.531 24.6443C272.313 24.4264 271.966 24.1063 271.489 23.6841L263.439 16.329H263.398V23.0712C263.398 23.5343 263.514 23.9088 263.746 24.1949C263.991 24.4673 264.406 24.6171 264.992 24.6443V25.1143H261.212V24.6443C261.607 24.6171 261.893 24.4673 262.07 24.1949C262.247 23.9088 262.336 23.5343 262.336 23.0712V13.5708C262.336 12.9034 262.234 12.4812 262.029 12.3041C261.839 12.1134 261.464 12.0113 260.906 11.9976V11.5277H263.357C263.562 11.7865 263.78 12.0181 264.011 12.2224C264.243 12.4267 264.508 12.6719 264.808 12.9579L272.94 20.313H272.98V13.5708C272.98 13.1077 272.865 12.7332 272.633 12.4471C272.401 12.1611 271.986 12.0113 271.387 11.9976V11.5277H275.166V11.9976C274.771 12.0113 274.485 12.1611 274.308 12.4471C274.131 12.7332 274.043 13.1077 274.043 13.5708V23.0712C274.043 23.4525 274.043 23.8203 274.043 24.1744C274.056 24.515 274.07 24.8827 274.084 25.2777H273.164ZM276.782 11.5277H288.428V14.8988H287.958C287.876 14.1633 287.658 13.564 287.304 13.1009C286.95 12.6378 286.344 12.4063 285.486 12.4063H284.24V23.0712C284.24 23.7386 284.342 24.1608 284.546 24.3379C284.75 24.515 285.125 24.6171 285.67 24.6443V25.1143H279.847V24.6443C280.242 24.6171 280.528 24.515 280.705 24.3379C280.882 24.1608 280.971 23.7386 280.971 23.0712V12.4063H279.704C278.873 12.4063 278.274 12.6378 277.906 13.1009C277.552 13.564 277.334 14.1633 277.252 14.8988H276.782V11.5277ZM290.282 25.1143V24.6443C290.677 24.6171 290.963 24.515 291.14 24.3379C291.317 24.1608 291.405 23.7386 291.405 23.0712V13.5708C291.405 12.9034 291.303 12.4812 291.099 12.3041C290.908 12.1134 290.534 12.0113 289.975 11.9976V11.5277H300.007V14.3881H299.537C299.51 13.8024 299.305 13.3256 298.924 12.9579C298.556 12.5901 297.984 12.4063 297.208 12.4063H295.573C295.287 12.4063 295.063 12.4812 294.899 12.631C294.749 12.7808 294.674 13.0941 294.674 13.5708V17.5957C294.783 17.514 294.913 17.4595 295.063 17.4323C295.226 17.405 295.417 17.3914 295.635 17.3914H297.616C298.025 17.3914 298.366 17.2756 298.638 17.0441C298.91 16.8125 299.053 16.4924 299.067 16.0838H299.537V19.5571H299.067C299.053 19.0531 298.91 18.7126 298.638 18.5355C298.366 18.3585 298.025 18.2699 297.616 18.2699H295.676C295.308 18.2699 295.049 18.3312 294.899 18.4538C294.749 18.5764 294.674 18.8147 294.674 19.1689V23.0712C294.674 23.5479 294.777 23.8612 294.981 24.011C295.199 24.1608 295.614 24.2357 296.227 24.2357H298.168C298.985 24.2357 299.632 23.9906 300.109 23.5002C300.586 23.0099 300.851 22.4242 300.906 21.7432H301.376L301.212 25.1143H290.282ZM315.082 25.4207C314.47 25.4207 313.945 25.3186 313.509 25.1143C313.073 24.9236 312.706 24.6648 312.406 24.3379C312.106 24.011 311.827 23.65 311.568 23.255L308.708 18.8011C308.572 18.5696 308.449 18.4266 308.34 18.3721C308.231 18.3176 308.102 18.2835 307.952 18.2699V17.5548C308.769 17.5004 309.403 17.3369 309.852 17.0645C310.302 16.7921 310.615 16.4584 310.792 16.0634C310.969 15.6548 311.058 15.2325 311.058 14.7967C311.058 13.9658 310.826 13.3461 310.363 12.9375C309.9 12.5152 309.369 12.3041 308.769 12.3041C308.32 12.3041 308 12.3858 307.809 12.5493C307.632 12.6991 307.543 13.0396 307.543 13.5708V23.0712C307.543 23.7386 307.646 24.1608 307.85 24.3379C308.054 24.515 308.429 24.6171 308.974 24.6443V25.1143H303.151V24.6443C303.546 24.6171 303.832 24.515 304.009 24.3379C304.186 24.1608 304.275 23.7386 304.275 23.0712V13.5708C304.275 12.9034 304.172 12.4812 303.968 12.3041C303.777 12.1134 303.403 12.0113 302.844 11.9976V11.5277H304.275C305.296 11.5277 306.222 11.5141 307.053 11.4869C307.884 11.446 308.592 11.4256 309.178 11.4256C310.526 11.4256 311.596 11.555 312.386 11.8138C313.189 12.0589 313.761 12.4063 314.102 12.8557C314.456 13.3052 314.633 13.816 314.633 14.3881C314.633 14.9329 314.497 15.43 314.224 15.8795C313.966 16.329 313.618 16.7104 313.182 17.0236C312.76 17.3233 312.297 17.5344 311.793 17.657V17.6979L315.185 23.0099C315.58 23.6364 315.941 24.0655 316.267 24.297C316.594 24.5286 316.887 24.6443 317.146 24.6443V25.1143C316.874 25.2096 316.547 25.2845 316.165 25.339C315.798 25.3935 315.437 25.4207 315.082 25.4207ZM324.731 25.4207C323.301 25.4207 322.034 25.1347 320.931 24.5626C319.828 23.9906 318.963 23.1869 318.336 22.1518C317.71 21.103 317.397 19.8908 317.397 18.5151C317.397 17.3846 317.601 16.3767 318.01 15.4913C318.418 14.5924 318.977 13.8228 319.685 13.1826C320.407 12.5425 321.231 12.0589 322.157 11.732C323.097 11.3915 324.098 11.2213 325.16 11.2213C325.964 11.2213 326.733 11.2962 327.469 11.446C328.205 11.5958 328.79 11.7729 329.226 11.9772V15.2053H328.756C328.484 14.3744 328.157 13.7411 327.775 13.3052C327.394 12.8557 326.965 12.5425 326.488 12.3654C326.025 12.1883 325.535 12.0998 325.017 12.0998C322.389 12.0998 321.074 14.0067 321.074 17.8204C321.074 19.0735 321.204 20.2109 321.462 21.2324C321.735 22.2539 322.15 23.0644 322.709 23.6637C323.281 24.2494 324.009 24.5422 324.895 24.5422C325.617 24.5422 326.27 24.3651 326.856 24.011C327.442 23.6432 327.939 23.1597 328.348 22.5604C328.77 21.9611 329.069 21.3141 329.246 20.6195H329.716L329.553 23.725C329.103 24.2153 328.47 24.6239 327.653 24.9508C326.836 25.2641 325.862 25.4207 324.731 25.4207ZM338.369 11.2213C339.336 11.2213 340.235 11.3847 341.066 11.7116C341.897 12.0385 342.633 12.5152 343.273 13.1418C343.913 13.7547 344.41 14.497 344.764 15.3687C345.118 16.2405 345.295 17.2143 345.295 18.2903C345.295 19.3664 345.118 20.3402 344.764 21.212C344.41 22.0837 343.913 22.8328 343.273 23.4594C342.646 24.0859 341.911 24.5694 341.066 24.9099C340.222 25.2505 339.316 25.4207 338.349 25.4207C337.395 25.4207 336.497 25.2573 335.652 24.9304C334.821 24.6035 334.086 24.1336 333.446 23.5207C332.805 22.8941 332.308 22.145 331.954 21.2733C331.6 20.4015 331.423 19.4277 331.423 18.3516C331.423 17.2756 331.6 16.3017 331.954 15.43C332.308 14.5583 332.799 13.8092 333.425 13.1826C334.065 12.5561 334.808 12.0726 335.652 11.732C336.497 11.3915 337.402 11.2213 338.369 11.2213ZM338.778 24.5422C339.486 24.5422 340.045 24.3106 340.453 23.8475C340.862 23.3708 341.155 22.717 341.332 21.8862C341.523 21.0553 341.618 20.0883 341.618 18.985C341.618 16.7648 341.277 15.0623 340.596 13.8773C339.929 12.6923 339.044 12.0998 337.94 12.0998C337.246 12.0998 336.687 12.3313 336.265 12.7944C335.856 13.2575 335.557 13.9113 335.366 14.7558C335.189 15.5867 335.1 16.5537 335.1 17.657C335.1 19.8771 335.434 21.5797 336.102 22.7647C336.783 23.9497 337.675 24.5422 338.778 24.5422ZM354.753 25.2777C354.644 24.9644 354.508 24.6443 354.345 24.3175C354.195 23.9769 353.991 23.5343 353.732 22.9894L350.054 15.3074H350.013L349.646 23.0712C349.632 23.5343 349.741 23.9088 349.972 24.1949C350.204 24.4673 350.626 24.6171 351.239 24.6443V25.1143H347.459V24.6443C347.854 24.6171 348.134 24.4673 348.297 24.1949C348.474 23.9088 348.57 23.5343 348.583 23.0712L349.012 13.5708C349.039 13.0941 349.005 12.7536 348.91 12.5493C348.828 12.345 348.679 12.2156 348.461 12.1611C348.243 12.093 347.95 12.0385 347.582 11.9976V11.5277H351.954C352.063 11.8819 352.186 12.2156 352.322 12.5288C352.472 12.8421 352.635 13.1894 352.812 13.5708L356.326 20.9259H356.367L359.636 13.5708C359.95 12.8762 360.188 12.1951 360.351 11.5277H364.683V11.9976C364.424 12.0113 364.206 12.0521 364.029 12.1202C363.852 12.1883 363.722 12.3313 363.641 12.5493C363.573 12.7536 363.545 13.0941 363.559 13.5708L363.988 23.0712C364.015 23.507 364.07 23.8339 364.152 24.0519C364.247 24.2698 364.397 24.4196 364.601 24.5013C364.805 24.5694 365.078 24.6171 365.418 24.6443V25.1143H359.595V24.6443C360.031 24.6171 360.331 24.515 360.494 24.3379C360.671 24.1608 360.746 23.7386 360.719 23.0712L360.372 14.7149H360.331L356.633 22.9894C356.374 23.5615 356.183 24.011 356.061 24.3379C355.952 24.6512 355.857 24.9644 355.775 25.2777H354.753ZM374.366 25.2777C374.257 24.9644 374.121 24.6443 373.958 24.3175C373.808 23.9769 373.603 23.5343 373.345 22.9894L369.667 15.3074H369.626L369.258 23.0712C369.245 23.5343 369.354 23.9088 369.585 24.1949C369.817 24.4673 370.239 24.6171 370.852 24.6443V25.1143H367.072V24.6443C367.467 24.6171 367.747 24.4673 367.91 24.1949C368.087 23.9088 368.182 23.5343 368.196 23.0712L368.625 13.5708C368.652 13.0941 368.618 12.7536 368.523 12.5493C368.441 12.345 368.291 12.2156 368.073 12.1611C367.856 12.093 367.563 12.0385 367.195 11.9976V11.5277H371.567C371.676 11.8819 371.799 12.2156 371.935 12.5288C372.085 12.8421 372.248 13.1894 372.425 13.5708L375.939 20.9259H375.98L379.249 13.5708C379.562 12.8762 379.801 12.1951 379.964 11.5277H384.296V11.9976C384.037 12.0113 383.819 12.0521 383.642 12.1202C383.465 12.1883 383.335 12.3313 383.254 12.5493C383.185 12.7536 383.158 13.0941 383.172 13.5708L383.601 23.0712C383.628 23.507 383.683 23.8339 383.764 24.0519C383.86 24.2698 384.01 24.4196 384.214 24.5013C384.418 24.5694 384.691 24.6171 385.031 24.6443V25.1143H379.208V24.6443C379.644 24.6171 379.944 24.515 380.107 24.3379C380.284 24.1608 380.359 23.7386 380.332 23.0712L379.985 14.7149H379.944L376.246 22.9894C375.987 23.5615 375.796 24.011 375.674 24.3379C375.565 24.6512 375.469 24.9644 375.388 25.2777H374.366ZM401.059 21.3345H401.529L401.325 25.1143H391.477V24.6443C391.586 24.5899 391.749 24.4945 391.967 24.3583C392.199 24.2221 392.437 24.0655 392.682 23.8884C393.363 23.3981 394.003 22.8396 394.603 22.2131C395.202 21.5865 395.726 20.9191 396.176 20.2109C396.625 19.5026 396.98 18.7943 397.238 18.086C397.497 17.3778 397.627 16.7036 397.627 16.0634C397.627 15.4505 397.477 14.9329 397.177 14.5106C396.891 14.0884 396.367 13.8773 395.604 13.8773C394.964 13.8773 394.371 14.0543 393.826 14.4085C393.282 14.7626 392.744 15.3143 392.212 16.0634L391.824 15.7365C392.383 14.32 393.084 13.2644 393.929 12.5697C394.773 11.8751 395.829 11.5277 397.095 11.5277C397.831 11.5277 398.491 11.6503 399.077 11.8955C399.663 12.127 400.126 12.4948 400.466 12.9988C400.821 13.4891 400.998 14.1293 400.998 14.9193C400.998 16.3222 400.548 17.6366 399.649 18.8624C398.764 20.0883 397.524 21.2392 395.931 22.3152V22.3561H398.914C399.69 22.3561 400.228 22.2607 400.528 22.0701C400.827 21.8794 401.004 21.6342 401.059 21.3345ZM409.755 11.5277C410.463 11.5277 411.158 11.6639 411.839 11.9363C412.52 12.2088 413.133 12.631 413.677 13.2031C414.222 13.7751 414.651 14.497 414.964 15.3687C415.291 16.2268 415.455 17.2484 415.455 18.4334C415.455 19.6047 415.298 20.6263 414.985 21.498C414.672 22.3697 414.243 23.0984 413.698 23.6841C413.153 24.2698 412.54 24.7056 411.859 24.9917C411.178 25.2777 410.47 25.4207 409.734 25.4207C409.026 25.4207 408.331 25.2845 407.65 25.0121C406.969 24.7397 406.356 24.3175 405.811 23.7454C405.267 23.1733 404.831 22.4582 404.504 21.6001C404.191 20.7284 404.034 19.7001 404.034 18.5151C404.034 17.3437 404.191 16.3222 404.504 15.4505C404.817 14.5787 405.246 13.85 405.791 13.2644C406.336 12.6787 406.949 12.2428 407.63 11.9568C408.311 11.6707 409.019 11.5277 409.755 11.5277ZM409.816 24.5422C410.211 24.5422 410.572 24.3651 410.899 24.011C411.226 23.6569 411.484 23.0576 411.675 22.2131C411.879 21.3686 411.982 20.2109 411.982 18.7398C411.982 17.4595 411.893 16.3494 411.716 15.4096C411.553 14.4562 411.301 13.7206 410.96 13.2031C410.62 12.6719 410.19 12.4063 409.673 12.4063C409.292 12.4063 408.931 12.5833 408.59 12.9375C408.263 13.2916 407.998 13.8909 407.793 14.7354C407.603 15.5799 407.507 16.7376 407.507 18.2086C407.507 19.489 407.589 20.6058 407.752 21.5593C407.929 22.4991 408.188 23.2346 408.529 23.7658C408.869 24.2834 409.298 24.5422 409.816 24.5422ZM426.737 21.3345H427.207L427.003 25.1143H417.155V24.6443C417.264 24.5899 417.427 24.4945 417.645 24.3583C417.877 24.2221 418.115 24.0655 418.36 23.8884C419.042 23.3981 419.682 22.8396 420.281 22.2131C420.88 21.5865 421.405 20.9191 421.854 20.2109C422.304 19.5026 422.658 18.7943 422.917 18.086C423.175 17.3778 423.305 16.7036 423.305 16.0634C423.305 15.4505 423.155 14.9329 422.855 14.5106C422.569 14.0884 422.045 13.8773 421.282 13.8773C420.642 13.8773 420.049 14.0543 419.505 14.4085C418.96 14.7626 418.422 15.3143 417.891 16.0634L417.502 15.7365C418.061 14.32 418.762 13.2644 419.607 12.5697C420.451 11.8751 421.507 11.5277 422.774 11.5277C423.509 11.5277 424.17 11.6503 424.755 11.8955C425.341 12.127 425.804 12.4948 426.145 12.9988C426.499 13.4891 426.676 14.1293 426.676 14.9193C426.676 16.3222 426.226 17.6366 425.327 18.8624C424.442 20.0883 423.203 21.2392 421.609 22.3152V22.3561H424.592C425.368 22.3561 425.906 22.2607 426.206 22.0701C426.506 21.8794 426.683 21.6342 426.737 21.3345ZM438.089 19.9044H439.519V22.4582H438.661C438.28 22.4582 438.089 22.6966 438.089 23.1733C438.089 23.5002 438.089 23.8203 438.089 24.1336C438.103 24.4332 438.116 24.7601 438.13 25.1143H434.902C434.929 24.6648 434.949 24.2289 434.963 23.8067C434.977 23.3708 434.99 22.9213 435.004 22.4582H428.548V21.9883C428.902 21.6478 429.222 21.2937 429.508 20.9259L436.189 12.5697C436.339 12.379 436.475 12.1951 436.597 12.0181C436.734 11.8274 436.843 11.6639 436.924 11.5277H438.109L438.089 19.9044ZM434.963 15.6343L431.551 19.9044H435.024V15.6343H434.963Z" fill="black"/>
<path d="M469.264 15.3534C466.412 14.2148 463.067 14.8221 460.786 17.0993C457.707 20.1735 457.707 25.1453 460.786 28.2196C463.067 30.4968 466.412 31.104 469.264 29.9654V26.3219C468.693 26.5876 468.085 26.7394 467.439 26.7394C465.158 26.7394 463.333 24.9176 463.333 22.6404C463.333 20.3632 465.158 18.5415 467.439 18.5415C468.085 18.5415 468.731 18.6933 469.264 18.959V15.3534Z" fill="black"/>
<path d="M467.969 11.7021C469.093 10.5762 469.093 8.71263 467.969 7.54791C466.846 6.42202 464.987 6.42202 463.826 7.54791C462.664 8.67381 462.703 10.5374 463.826 11.7021C464.987 12.828 466.846 12.828 467.969 11.7021Z" fill="black"/>
<path d="M488.123 25.1143V24.6443C488.518 24.6171 488.804 24.515 488.981 24.3379C489.158 24.1608 489.247 23.7386 489.247 23.0712V13.5708C489.247 12.9034 489.145 12.4812 488.94 12.3041C488.75 12.1134 488.375 12.0113 487.817 11.9976V11.5277H493.639V11.9976C493.244 12.0113 492.958 12.1134 492.781 12.3041C492.604 12.4812 492.516 12.9034 492.516 13.5708V23.0712C492.516 23.7386 492.618 24.1608 492.822 24.3379C493.026 24.515 493.401 24.6171 493.946 24.6443V25.1143H488.123ZM508.094 25.2777C507.89 25.0598 507.679 24.8487 507.461 24.6443C507.243 24.4264 506.895 24.1063 506.419 23.6841L498.369 16.329H498.328V23.0712C498.328 23.5343 498.444 23.9088 498.675 24.1949C498.92 24.4673 499.336 24.6171 499.922 24.6443V25.1143H496.142V24.6443C496.537 24.6171 496.823 24.4673 497 24.1949C497.177 23.9088 497.266 23.5343 497.266 23.0712V13.5708C497.266 12.9034 497.163 12.4812 496.959 12.3041C496.768 12.1134 496.394 12.0113 495.835 11.9976V11.5277H498.287C498.491 11.7865 498.709 12.0181 498.941 12.2224C499.172 12.4267 499.438 12.6719 499.738 12.9579L507.869 20.313H507.91V13.5708C507.91 13.1077 507.794 12.7332 507.563 12.4471C507.331 12.1611 506.916 12.0113 506.316 11.9976V11.5277H510.096V11.9976C509.701 12.0113 509.415 12.1611 509.238 12.4471C509.061 12.7332 508.972 13.1077 508.972 13.5708V23.0712C508.972 23.4525 508.972 23.8203 508.972 24.1744C508.986 24.515 509 24.8827 509.013 25.2777H508.094ZM511.712 11.5277H523.358V14.8988H522.888C522.806 14.1633 522.588 13.564 522.234 13.1009C521.88 12.6378 521.274 12.4063 520.415 12.4063H519.169V23.0712C519.169 23.7386 519.271 24.1608 519.476 24.3379C519.68 24.515 520.055 24.6171 520.599 24.6443V25.1143H514.777V24.6443C515.172 24.6171 515.458 24.515 515.635 24.3379C515.812 24.1608 515.9 23.7386 515.9 23.0712V12.4063H514.634C513.803 12.4063 513.203 12.6378 512.836 13.1009C512.482 13.564 512.264 14.1633 512.182 14.8988H511.712V11.5277ZM525.211 25.1143V24.6443C525.606 24.6171 525.893 24.515 526.07 24.3379C526.247 24.1608 526.335 23.7386 526.335 23.0712V13.5708C526.335 12.9034 526.233 12.4812 526.029 12.3041C525.838 12.1134 525.463 12.0113 524.905 11.9976V11.5277H534.937V14.3881H534.467C534.439 13.8024 534.235 13.3256 533.854 12.9579C533.486 12.5901 532.914 12.4063 532.138 12.4063H530.503C530.217 12.4063 529.992 12.4812 529.829 12.631C529.679 12.7808 529.604 13.0941 529.604 13.5708V17.5957C529.713 17.514 529.842 17.4595 529.992 17.4323C530.156 17.405 530.346 17.3914 530.564 17.3914H532.546C532.955 17.3914 533.295 17.2756 533.568 17.0441C533.84 16.8125 533.983 16.4924 533.997 16.0838H534.467V19.5571H533.997C533.983 19.0531 533.84 18.7126 533.568 18.5355C533.295 18.3585 532.955 18.2699 532.546 18.2699H530.605C530.237 18.2699 529.979 18.3312 529.829 18.4538C529.679 18.5764 529.604 18.8147 529.604 19.1689V23.0712C529.604 23.5479 529.706 23.8612 529.911 24.011C530.129 24.1608 530.544 24.2357 531.157 24.2357H533.098C533.915 24.2357 534.562 23.9906 535.039 23.5002C535.515 23.0099 535.781 22.4242 535.836 21.7432H536.305L536.142 25.1143H525.211ZM550.012 25.4207C549.399 25.4207 548.875 25.3186 548.439 25.1143C548.003 24.9236 547.635 24.6648 547.336 24.3379C547.036 24.011 546.757 23.65 546.498 23.255L543.638 18.8011C543.502 18.5696 543.379 18.4266 543.27 18.3721C543.161 18.3176 543.032 18.2835 542.882 18.2699V17.5548C543.699 17.5004 544.332 17.3369 544.782 17.0645C545.231 16.7921 545.545 16.4584 545.722 16.0634C545.899 15.6548 545.987 15.2325 545.987 14.7967C545.987 13.9658 545.756 13.3461 545.293 12.9375C544.83 12.5152 544.298 12.3041 543.699 12.3041C543.25 12.3041 542.929 12.3858 542.739 12.5493C542.562 12.6991 542.473 13.0396 542.473 13.5708V23.0712C542.473 23.7386 542.575 24.1608 542.78 24.3379C542.984 24.515 543.359 24.6171 543.903 24.6443V25.1143H538.081V24.6443C538.476 24.6171 538.762 24.515 538.939 24.3379C539.116 24.1608 539.204 23.7386 539.204 23.0712V13.5708C539.204 12.9034 539.102 12.4812 538.898 12.3041C538.707 12.1134 538.333 12.0113 537.774 11.9976V11.5277H539.204C540.226 11.5277 541.152 11.5141 541.983 11.4869C542.814 11.446 543.522 11.4256 544.108 11.4256C545.456 11.4256 546.525 11.555 547.315 11.8138C548.119 12.0589 548.691 12.4063 549.031 12.8557C549.386 13.3052 549.563 13.816 549.563 14.3881C549.563 14.9329 549.426 15.43 549.154 15.8795C548.895 16.329 548.548 16.7104 548.112 17.0236C547.69 17.3233 547.227 17.5344 546.723 17.657V17.6979L550.114 23.0099C550.509 23.6364 550.87 24.0655 551.197 24.297C551.524 24.5286 551.817 24.6443 552.076 24.6443V25.1143C551.803 25.2096 551.476 25.2845 551.095 25.339C550.727 25.3935 550.366 25.4207 550.012 25.4207ZM559.661 25.4207C558.231 25.4207 556.964 25.1347 555.861 24.5626C554.758 23.9906 553.893 23.1869 553.266 22.1518C552.64 21.103 552.326 19.8908 552.326 18.5151C552.326 17.3846 552.531 16.3767 552.939 15.4913C553.348 14.5924 553.906 13.8228 554.615 13.1826C555.336 12.5425 556.16 12.0589 557.087 11.732C558.026 11.3915 559.028 11.2213 560.09 11.2213C560.894 11.2213 561.663 11.2962 562.399 11.446C563.134 11.5958 563.72 11.7729 564.156 11.9772V15.2053H563.686C563.413 14.3744 563.087 13.7411 562.705 13.3052C562.324 12.8557 561.895 12.5425 561.418 12.3654C560.955 12.1883 560.465 12.0998 559.947 12.0998C557.318 12.0998 556.004 14.0067 556.004 17.8204C556.004 19.0735 556.133 20.2109 556.392 21.2324C556.664 22.2539 557.08 23.0644 557.638 23.6637C558.21 24.2494 558.939 24.5422 559.824 24.5422C560.546 24.5422 561.2 24.3651 561.786 24.011C562.371 23.6432 562.869 23.1597 563.277 22.5604C563.699 21.9611 563.999 21.3141 564.176 20.6195H564.646L564.483 23.725C564.033 24.2153 563.4 24.6239 562.583 24.9508C561.765 25.2641 560.791 25.4207 559.661 25.4207ZM573.299 11.2213C574.266 11.2213 575.165 11.3847 575.996 11.7116C576.827 12.0385 577.562 12.5152 578.202 13.1418C578.843 13.7547 579.34 14.497 579.694 15.3687C580.048 16.2405 580.225 17.2143 580.225 18.2903C580.225 19.3664 580.048 20.3402 579.694 21.212C579.34 22.0837 578.843 22.8328 578.202 23.4594C577.576 24.0859 576.84 24.5694 575.996 24.9099C575.151 25.2505 574.246 25.4207 573.279 25.4207C572.325 25.4207 571.426 25.2573 570.582 24.9304C569.751 24.6035 569.015 24.1336 568.375 23.5207C567.735 22.8941 567.238 22.145 566.884 21.2733C566.53 20.4015 566.353 19.4277 566.353 18.3516C566.353 17.2756 566.53 16.3017 566.884 15.43C567.238 14.5583 567.728 13.8092 568.355 13.1826C568.995 12.5561 569.737 12.0726 570.582 11.732C571.426 11.3915 572.332 11.2213 573.299 11.2213ZM573.708 24.5422C574.416 24.5422 574.974 24.3106 575.383 23.8475C575.792 23.3708 576.084 22.717 576.262 21.8862C576.452 21.0553 576.548 20.0883 576.548 18.985C576.548 16.7648 576.207 15.0623 575.526 13.8773C574.859 12.6923 573.973 12.0998 572.87 12.0998C572.175 12.0998 571.617 12.3313 571.195 12.7944C570.786 13.2575 570.486 13.9113 570.296 14.7558C570.119 15.5867 570.03 16.5537 570.03 17.657C570.03 19.8771 570.364 21.5797 571.031 22.7647C571.712 23.9497 572.604 24.5422 573.708 24.5422ZM589.683 25.2777C589.574 24.9644 589.438 24.6443 589.274 24.3175C589.125 23.9769 588.92 23.5343 588.661 22.9894L584.984 15.3074H584.943L584.575 23.0712C584.562 23.5343 584.671 23.9088 584.902 24.1949C585.134 24.4673 585.556 24.6171 586.169 24.6443V25.1143H582.389V24.6443C582.784 24.6171 583.063 24.4673 583.227 24.1949C583.404 23.9088 583.499 23.5343 583.513 23.0712L583.942 13.5708C583.969 13.0941 583.935 12.7536 583.84 12.5493C583.758 12.345 583.608 12.2156 583.39 12.1611C583.172 12.093 582.88 12.0385 582.512 11.9976V11.5277H586.884C586.993 11.8819 587.116 12.2156 587.252 12.5288C587.402 12.8421 587.565 13.1894 587.742 13.5708L591.256 20.9259H591.297L594.566 13.5708C594.879 12.8762 595.118 12.1951 595.281 11.5277H599.612V11.9976C599.354 12.0113 599.136 12.0521 598.959 12.1202C598.782 12.1883 598.652 12.3313 598.57 12.5493C598.502 12.7536 598.475 13.0941 598.489 13.5708L598.918 23.0712C598.945 23.507 598.999 23.8339 599.081 24.0519C599.177 24.2698 599.326 24.4196 599.531 24.5013C599.735 24.5694 600.007 24.6171 600.348 24.6443V25.1143H594.525V24.6443C594.961 24.6171 595.261 24.515 595.424 24.3379C595.601 24.1608 595.676 23.7386 595.649 23.0712L595.301 14.7149H595.261L591.563 22.9894C591.304 23.5615 591.113 24.011 590.991 24.3379C590.882 24.6512 590.786 24.9644 590.705 25.2777H589.683ZM609.296 25.2777C609.187 24.9644 609.051 24.6443 608.887 24.3175C608.737 23.9769 608.533 23.5343 608.274 22.9894L604.597 15.3074H604.556L604.188 23.0712C604.174 23.5343 604.283 23.9088 604.515 24.1949C604.747 24.4673 605.169 24.6171 605.782 24.6443V25.1143H602.002V24.6443C602.397 24.6171 602.676 24.4673 602.84 24.1949C603.017 23.9088 603.112 23.5343 603.126 23.0712L603.555 13.5708C603.582 13.0941 603.548 12.7536 603.453 12.5493C603.371 12.345 603.221 12.2156 603.003 12.1611C602.785 12.093 602.492 12.0385 602.125 11.9976V11.5277H606.497C606.606 11.8819 606.728 12.2156 606.865 12.5288C607.014 12.8421 607.178 13.1894 607.355 13.5708L610.869 20.9259H610.91L614.179 13.5708C614.492 12.8762 614.73 12.1951 614.894 11.5277H619.225V11.9976C618.966 12.0113 618.749 12.0521 618.571 12.1202C618.394 12.1883 618.265 12.3313 618.183 12.5493C618.115 12.7536 618.088 13.0941 618.102 13.5708L618.531 23.0712C618.558 23.507 618.612 23.8339 618.694 24.0519C618.789 24.2698 618.939 24.4196 619.144 24.5013C619.348 24.5694 619.62 24.6171 619.961 24.6443V25.1143H614.138V24.6443C614.574 24.6171 614.873 24.515 615.037 24.3379C615.214 24.1608 615.289 23.7386 615.262 23.0712L614.914 14.7149H614.873L611.175 22.9894C610.917 23.5615 610.726 24.011 610.603 24.3379C610.494 24.6512 610.399 24.9644 610.317 25.2777H609.296ZM635.989 21.3345H636.459L636.254 25.1143H626.407V24.6443C626.515 24.5899 626.679 24.4945 626.897 24.3583C627.128 24.2221 627.367 24.0655 627.612 23.8884C628.293 23.3981 628.933 22.8396 629.532 22.2131C630.132 21.5865 630.656 20.9191 631.106 20.2109C631.555 19.5026 631.909 18.7943 632.168 18.086C632.427 17.3778 632.556 16.7036 632.556 16.0634C632.556 15.4505 632.406 14.9329 632.107 14.5106C631.821 14.0884 631.296 13.8773 630.534 13.8773C629.893 13.8773 629.301 14.0543 628.756 14.4085C628.211 14.7626 627.673 15.3143 627.142 16.0634L626.754 15.7365C627.312 14.32 628.014 13.2644 628.858 12.5697C629.703 11.8751 630.758 11.5277 632.025 11.5277C632.761 11.5277 633.421 11.6503 634.007 11.8955C634.592 12.127 635.056 12.4948 635.396 12.9988C635.75 13.4891 635.927 14.1293 635.927 14.9193C635.927 16.3222 635.478 17.6366 634.579 18.8624C633.694 20.0883 632.454 21.2392 630.86 22.3152V22.3561H633.843C634.62 22.3561 635.158 22.2607 635.457 22.0701C635.757 21.8794 635.934 21.6342 635.989 21.3345ZM644.684 11.5277C645.393 11.5277 646.087 11.6639 646.768 11.9363C647.449 12.2088 648.062 12.631 648.607 13.2031C649.152 13.7751 649.581 14.497 649.894 15.3687C650.221 16.2268 650.385 17.2484 650.385 18.4334C650.385 19.6047 650.228 20.6263 649.915 21.498C649.601 22.3697 649.172 23.0984 648.627 23.6841C648.083 24.2698 647.47 24.7056 646.789 24.9917C646.108 25.2777 645.399 25.4207 644.664 25.4207C643.956 25.4207 643.261 25.2845 642.58 25.0121C641.899 24.7397 641.286 24.3175 640.741 23.7454C640.196 23.1733 639.76 22.4582 639.434 21.6001C639.12 20.7284 638.964 19.7001 638.964 18.5151C638.964 17.3437 639.12 16.3222 639.434 15.4505C639.747 14.5787 640.176 13.85 640.721 13.2644C641.266 12.6787 641.878 12.2428 642.56 11.9568C643.241 11.6707 643.949 11.5277 644.684 11.5277ZM644.746 24.5422C645.141 24.5422 645.502 24.3651 645.828 24.011C646.155 23.6569 646.414 23.0576 646.605 22.2131C646.809 21.3686 646.911 20.2109 646.911 18.7398C646.911 17.4595 646.823 16.3494 646.646 15.4096C646.482 14.4562 646.23 13.7206 645.89 13.2031C645.549 12.6719 645.12 12.4063 644.603 12.4063C644.221 12.4063 643.86 12.5833 643.52 12.9375C643.193 13.2916 642.927 13.8909 642.723 14.7354C642.532 15.5799 642.437 16.7376 642.437 18.2086C642.437 19.489 642.519 20.6058 642.682 21.5593C642.859 22.4991 643.118 23.2346 643.458 23.7658C643.799 24.2834 644.228 24.5422 644.746 24.5422ZM661.667 21.3345H662.137L661.932 25.1143H652.085V24.6443C652.194 24.5899 652.357 24.4945 652.575 24.3583C652.807 24.2221 653.045 24.0655 653.29 23.8884C653.971 23.3981 654.611 22.8396 655.211 22.2131C655.81 21.5865 656.334 20.9191 656.784 20.2109C657.233 19.5026 657.587 18.7943 657.846 18.086C658.105 17.3778 658.234 16.7036 658.234 16.0634C658.234 15.4505 658.085 14.9329 657.785 14.5106C657.499 14.0884 656.975 13.8773 656.212 13.8773C655.572 13.8773 654.979 14.0543 654.434 14.4085C653.889 14.7626 653.351 15.3143 652.82 16.0634L652.432 15.7365C652.991 14.32 653.692 13.2644 654.536 12.5697C655.381 11.8751 656.437 11.5277 657.703 11.5277C658.439 11.5277 659.099 11.6503 659.685 11.8955C660.271 12.127 660.734 12.4948 661.074 12.9988C661.428 13.4891 661.606 14.1293 661.606 14.9193C661.606 16.3222 661.156 17.6366 660.257 18.8624C659.372 20.0883 658.132 21.2392 656.539 22.3152V22.3561H659.522C660.298 22.3561 660.836 22.2607 661.136 22.0701C661.435 21.8794 661.612 21.6342 661.667 21.3345ZM673.019 19.9044H674.449V22.4582H673.591C673.209 22.4582 673.019 22.6966 673.019 23.1733C673.019 23.5002 673.019 23.8203 673.019 24.1336C673.032 24.4332 673.046 24.7601 673.059 25.1143H669.831C669.859 24.6648 669.879 24.2289 669.893 23.8067C669.906 23.3708 669.92 22.9213 669.934 22.4582H663.477V21.9883C663.831 21.6478 664.152 21.2937 664.438 20.9259L671.119 12.5697C671.268 12.379 671.405 12.1951 671.527 12.0181C671.663 11.8274 671.772 11.6639 671.854 11.5277H673.039L673.019 19.9044ZM669.893 15.6343L666.481 19.9044H669.954V15.6343H669.893Z" fill="black"/>
<path d="M704.193 15.3534C701.342 14.2148 697.997 14.8221 695.716 17.0993C692.636 20.1735 692.636 25.1453 695.716 28.2196C697.997 30.4968 701.342 31.104 704.193 29.9654V26.3219C703.623 26.5876 703.015 26.7394 702.369 26.7394C700.088 26.7394 698.263 24.9176 698.263 22.6404C698.263 20.3632 700.088 18.5415 702.369 18.5415C703.015 18.5415 703.661 18.6933 704.193 18.959V15.3534Z" fill="black"/>
<path d="M702.899 11.7021C704.022 10.5762 704.022 8.71263 702.899 7.54791C701.776 6.42202 699.917 6.42202 698.755 7.54791C697.594 8.67381 697.632 10.5374 698.755 11.7021C699.917 12.828 701.776 12.828 702.899 11.7021Z" fill="black"/>
<path d="M723.053 25.1143V24.6443C723.448 24.6171 723.734 24.515 723.911 24.3379C724.088 24.1608 724.176 23.7386 724.176 23.0712V13.5708C724.176 12.9034 724.074 12.4812 723.87 12.3041C723.679 12.1134 723.305 12.0113 722.746 11.9976V11.5277H728.569V11.9976C728.174 12.0113 727.888 12.1134 727.711 12.3041C727.534 12.4812 727.445 12.9034 727.445 13.5708V23.0712C727.445 23.7386 727.548 24.1608 727.752 24.3379C727.956 24.515 728.331 24.6171 728.876 24.6443V25.1143H723.053ZM743.024 25.2777C742.819 25.0598 742.608 24.8487 742.39 24.6443C742.172 24.4264 741.825 24.1063 741.348 23.6841L733.299 16.329H733.258V23.0712C733.258 23.5343 733.373 23.9088 733.605 24.1949C733.85 24.4673 734.266 24.6171 734.851 24.6443V25.1143H731.072V24.6443C731.467 24.6171 731.753 24.4673 731.93 24.1949C732.107 23.9088 732.195 23.5343 732.195 23.0712V13.5708C732.195 12.9034 732.093 12.4812 731.889 12.3041C731.698 12.1134 731.324 12.0113 730.765 11.9976V11.5277H733.217C733.421 11.7865 733.639 12.0181 733.871 12.2224C734.102 12.4267 734.368 12.6719 734.667 12.9579L742.799 20.313H742.84V13.5708C742.84 13.1077 742.724 12.7332 742.492 12.4471C742.261 12.1611 741.845 12.0113 741.246 11.9976V11.5277H745.026V11.9976C744.631 12.0113 744.345 12.1611 744.168 12.4471C743.991 12.7332 743.902 13.1077 743.902 13.5708V23.0712C743.902 23.4525 743.902 23.8203 743.902 24.1744C743.916 24.515 743.929 24.8827 743.943 25.2777H743.024ZM746.642 11.5277H758.287V14.8988H757.817C757.736 14.1633 757.518 13.564 757.164 13.1009C756.809 12.6378 756.203 12.4063 755.345 12.4063H754.099V23.0712C754.099 23.7386 754.201 24.1608 754.405 24.3379C754.61 24.515 754.984 24.6171 755.529 24.6443V25.1143H749.706V24.6443C750.101 24.6171 750.387 24.515 750.564 24.3379C750.741 24.1608 750.83 23.7386 750.83 23.0712V12.4063H749.563C748.732 12.4063 748.133 12.6378 747.765 13.1009C747.411 13.564 747.193 14.1633 747.112 14.8988H746.642V11.5277ZM760.141 25.1143V24.6443C760.536 24.6171 760.822 24.515 760.999 24.3379C761.176 24.1608 761.265 23.7386 761.265 23.0712V13.5708C761.265 12.9034 761.163 12.4812 760.958 12.3041C760.768 12.1134 760.393 12.0113 759.835 11.9976V11.5277H769.866V14.3881H769.396C769.369 13.8024 769.165 13.3256 768.783 12.9579C768.416 12.5901 767.844 12.4063 767.067 12.4063H765.433C765.147 12.4063 764.922 12.4812 764.759 12.631C764.609 12.7808 764.534 13.0941 764.534 13.5708V17.5957C764.643 17.514 764.772 17.4595 764.922 17.4323C765.085 17.405 765.276 17.3914 765.494 17.3914H767.476C767.884 17.3914 768.225 17.2756 768.497 17.0441C768.77 16.8125 768.913 16.4924 768.926 16.0838H769.396V19.5571H768.926C768.913 19.0531 768.77 18.7126 768.497 18.5355C768.225 18.3585 767.884 18.2699 767.476 18.2699H765.535C765.167 18.2699 764.908 18.3312 764.759 18.4538C764.609 18.5764 764.534 18.8147 764.534 19.1689V23.0712C764.534 23.5479 764.636 23.8612 764.84 24.011C765.058 24.1608 765.474 24.2357 766.087 24.2357H768.027C768.845 24.2357 769.492 23.9906 769.968 23.5002C770.445 23.0099 770.711 22.4242 770.765 21.7432H771.235L771.072 25.1143H760.141ZM784.942 25.4207C784.329 25.4207 783.805 25.3186 783.369 25.1143C782.933 24.9236 782.565 24.6648 782.265 24.3379C781.966 24.011 781.687 23.65 781.428 23.255L778.567 18.8011C778.431 18.5696 778.309 18.4266 778.2 18.3721C778.091 18.3176 777.961 18.2835 777.811 18.2699V17.5548C778.629 17.5004 779.262 17.3369 779.712 17.0645C780.161 16.7921 780.474 16.4584 780.651 16.0634C780.828 15.6548 780.917 15.2325 780.917 14.7967C780.917 13.9658 780.685 13.3461 780.222 12.9375C779.759 12.5152 779.228 12.3041 778.629 12.3041C778.179 12.3041 777.859 12.3858 777.668 12.5493C777.491 12.6991 777.403 13.0396 777.403 13.5708V23.0712C777.403 23.7386 777.505 24.1608 777.709 24.3379C777.914 24.515 778.288 24.6171 778.833 24.6443V25.1143H773.01V24.6443C773.405 24.6171 773.691 24.515 773.868 24.3379C774.045 24.1608 774.134 23.7386 774.134 23.0712V13.5708C774.134 12.9034 774.032 12.4812 773.827 12.3041C773.637 12.1134 773.262 12.0113 772.704 11.9976V11.5277H774.134C775.155 11.5277 776.082 11.5141 776.913 11.4869C777.743 11.446 778.452 11.4256 779.037 11.4256C780.386 11.4256 781.455 11.555 782.245 11.8138C783.049 12.0589 783.621 12.4063 783.961 12.8557C784.315 13.3052 784.492 13.816 784.492 14.3881C784.492 14.9329 784.356 15.43 784.084 15.8795C783.825 16.329 783.478 16.7104 783.042 17.0236C782.62 17.3233 782.156 17.5344 781.652 17.657V17.6979L785.044 23.0099C785.439 23.6364 785.8 24.0655 786.127 24.297C786.454 24.5286 786.747 24.6443 787.005 24.6443V25.1143C786.733 25.2096 786.406 25.2845 786.025 25.339C785.657 25.3935 785.296 25.4207 784.942 25.4207ZM794.591 25.4207C793.16 25.4207 791.894 25.1347 790.79 24.5626C789.687 23.9906 788.822 23.1869 788.196 22.1518C787.569 21.103 787.256 19.8908 787.256 18.5151C787.256 17.3846 787.46 16.3767 787.869 15.4913C788.278 14.5924 788.836 13.8228 789.544 13.1826C790.266 12.5425 791.09 12.0589 792.016 11.732C792.956 11.3915 793.957 11.2213 795.02 11.2213C795.823 11.2213 796.593 11.2962 797.328 11.446C798.064 11.5958 798.65 11.7729 799.085 11.9772V15.2053H798.616C798.343 14.3744 798.016 13.7411 797.635 13.3052C797.253 12.8557 796.824 12.5425 796.348 12.3654C795.885 12.1883 795.394 12.0998 794.877 12.0998C792.248 12.0998 790.934 14.0067 790.934 17.8204C790.934 19.0735 791.063 20.2109 791.322 21.2324C791.594 22.2539 792.01 23.0644 792.568 23.6637C793.14 24.2494 793.869 24.5422 794.754 24.5422C795.476 24.5422 796.13 24.3651 796.715 24.011C797.301 23.6432 797.798 23.1597 798.207 22.5604C798.629 21.9611 798.929 21.3141 799.106 20.6195H799.576L799.412 23.725C798.963 24.2153 798.329 24.6239 797.512 24.9508C796.695 25.2641 795.721 25.4207 794.591 25.4207ZM808.229 11.2213C809.196 11.2213 810.095 11.3847 810.926 11.7116C811.756 12.0385 812.492 12.5152 813.132 13.1418C813.772 13.7547 814.269 14.497 814.624 15.3687C814.978 16.2405 815.155 17.2143 815.155 18.2903C815.155 19.3664 814.978 20.3402 814.624 21.212C814.269 22.0837 813.772 22.8328 813.132 23.4594C812.506 24.0859 811.77 24.5694 810.926 24.9099C810.081 25.2505 809.175 25.4207 808.208 25.4207C807.255 25.4207 806.356 25.2573 805.511 24.9304C804.681 24.6035 803.945 24.1336 803.305 23.5207C802.665 22.8941 802.168 22.145 801.813 21.2733C801.459 20.4015 801.282 19.4277 801.282 18.3516C801.282 17.2756 801.459 16.3017 801.813 15.43C802.168 14.5583 802.658 13.8092 803.284 13.1826C803.925 12.5561 804.667 12.0726 805.511 11.732C806.356 11.3915 807.262 11.2213 808.229 11.2213ZM808.637 24.5422C809.346 24.5422 809.904 24.3106 810.313 23.8475C810.721 23.3708 811.014 22.717 811.191 21.8862C811.382 21.0553 811.477 20.0883 811.477 18.985C811.477 16.7648 811.137 15.0623 810.456 13.8773C809.788 12.6923 808.903 12.0998 807.8 12.0998C807.105 12.0998 806.547 12.3313 806.124 12.7944C805.716 13.2575 805.416 13.9113 805.225 14.7558C805.048 15.5867 804.96 16.5537 804.96 17.657C804.96 19.8771 805.293 21.5797 805.961 22.7647C806.642 23.9497 807.534 24.5422 808.637 24.5422ZM824.613 25.2777C824.504 24.9644 824.368 24.6443 824.204 24.3175C824.054 23.9769 823.85 23.5343 823.591 22.9894L819.914 15.3074H819.873L819.505 23.0712C819.491 23.5343 819.6 23.9088 819.832 24.1949C820.063 24.4673 820.486 24.6171 821.099 24.6443V25.1143H817.319V24.6443C817.714 24.6171 817.993 24.4673 818.157 24.1949C818.334 23.9088 818.429 23.5343 818.443 23.0712L818.872 13.5708C818.899 13.0941 818.865 12.7536 818.769 12.5493C818.688 12.345 818.538 12.2156 818.32 12.1611C818.102 12.093 817.809 12.0385 817.441 11.9976V11.5277H821.814C821.923 11.8819 822.045 12.2156 822.181 12.5288C822.331 12.8421 822.495 13.1894 822.672 13.5708L826.186 20.9259H826.227L829.496 13.5708C829.809 12.8762 830.047 12.1951 830.211 11.5277H834.542V11.9976C834.283 12.0113 834.065 12.0521 833.888 12.1202C833.711 12.1883 833.582 12.3313 833.5 12.5493C833.432 12.7536 833.405 13.0941 833.418 13.5708L833.847 23.0712C833.875 23.507 833.929 23.8339 834.011 24.0519C834.106 24.2698 834.256 24.4196 834.46 24.5013C834.665 24.5694 834.937 24.6171 835.278 24.6443V25.1143H829.455V24.6443C829.891 24.6171 830.19 24.515 830.354 24.3379C830.531 24.1608 830.606 23.7386 830.578 23.0712L830.231 14.7149H830.19L826.492 22.9894C826.234 23.5615 826.043 24.011 825.92 24.3379C825.811 24.6512 825.716 24.9644 825.634 25.2777H824.613ZM844.226 25.2777C844.117 24.9644 843.98 24.6443 843.817 24.3175C843.667 23.9769 843.463 23.5343 843.204 22.9894L839.526 15.3074H839.486L839.118 23.0712C839.104 23.5343 839.213 23.9088 839.445 24.1949C839.676 24.4673 840.098 24.6171 840.711 24.6443V25.1143H836.932V24.6443C837.327 24.6171 837.606 24.4673 837.769 24.1949C837.946 23.9088 838.042 23.5343 838.055 23.0712L838.484 13.5708C838.512 13.0941 838.478 12.7536 838.382 12.5493C838.301 12.345 838.151 12.2156 837.933 12.1611C837.715 12.093 837.422 12.0385 837.054 11.9976V11.5277H841.426C841.535 11.8819 841.658 12.2156 841.794 12.5288C841.944 12.8421 842.108 13.1894 842.285 13.5708L845.799 20.9259H845.84L849.108 13.5708C849.422 12.8762 849.66 12.1951 849.824 11.5277H854.155V11.9976C853.896 12.0113 853.678 12.0521 853.501 12.1202C853.324 12.1883 853.195 12.3313 853.113 12.5493C853.045 12.7536 853.018 13.0941 853.031 13.5708L853.46 23.0712C853.488 23.507 853.542 23.8339 853.624 24.0519C853.719 24.2698 853.869 24.4196 854.073 24.5013C854.277 24.5694 854.55 24.6171 854.89 24.6443V25.1143H849.068V24.6443C849.503 24.6171 849.803 24.515 849.967 24.3379C850.144 24.1608 850.219 23.7386 850.191 23.0712L849.844 14.7149H849.803L846.105 22.9894C845.846 23.5615 845.656 24.011 845.533 24.3379C845.424 24.6512 845.329 24.9644 845.247 25.2777H844.226ZM870.918 21.3345H871.388L871.184 25.1143H861.336V24.6443C861.445 24.5899 861.609 24.4945 861.827 24.3583C862.058 24.2221 862.296 24.0655 862.542 23.8884C863.223 23.3981 863.863 22.8396 864.462 22.2131C865.061 21.5865 865.586 20.9191 866.035 20.2109C866.485 19.5026 866.839 18.7943 867.098 18.086C867.356 17.3778 867.486 16.7036 867.486 16.0634C867.486 15.4505 867.336 14.9329 867.036 14.5106C866.75 14.0884 866.226 13.8773 865.463 13.8773C864.823 13.8773 864.231 14.0543 863.686 14.4085C863.141 14.7626 862.603 15.3143 862.072 16.0634L861.684 15.7365C862.242 14.32 862.943 13.2644 863.788 12.5697C864.632 11.8751 865.688 11.5277 866.955 11.5277C867.69 11.5277 868.351 11.6503 868.936 11.8955C869.522 12.127 869.985 12.4948 870.326 12.9988C870.68 13.4891 870.857 14.1293 870.857 14.9193C870.857 16.3222 870.408 17.6366 869.509 18.8624C868.623 20.0883 867.384 21.2392 865.79 22.3152V22.3561H868.773C869.549 22.3561 870.087 22.2607 870.387 22.0701C870.687 21.8794 870.864 21.6342 870.918 21.3345ZM879.614 11.5277C880.322 11.5277 881.017 11.6639 881.698 11.9363C882.379 12.2088 882.992 12.631 883.537 13.2031C884.082 13.7751 884.511 14.497 884.824 15.3687C885.151 16.2268 885.314 17.2484 885.314 18.4334C885.314 19.6047 885.158 20.6263 884.844 21.498C884.531 22.3697 884.102 23.0984 883.557 23.6841C883.012 24.2698 882.399 24.7056 881.718 24.9917C881.037 25.2777 880.329 25.4207 879.594 25.4207C878.885 25.4207 878.191 25.2845 877.51 25.0121C876.829 24.7397 876.216 24.3175 875.671 23.7454C875.126 23.1733 874.69 22.4582 874.363 21.6001C874.05 20.7284 873.893 19.7001 873.893 18.5151C873.893 17.3437 874.05 16.3222 874.363 15.4505C874.677 14.5787 875.106 13.85 875.65 13.2644C876.195 12.6787 876.808 12.2428 877.489 11.9568C878.17 11.6707 878.878 11.5277 879.614 11.5277ZM879.675 24.5422C880.07 24.5422 880.431 24.3651 880.758 24.011C881.085 23.6569 881.344 23.0576 881.535 22.2131C881.739 21.3686 881.841 20.2109 881.841 18.7398C881.841 17.4595 881.752 16.3494 881.575 15.4096C881.412 14.4562 881.16 13.7206 880.819 13.2031C880.479 12.6719 880.05 12.4063 879.532 12.4063C879.151 12.4063 878.79 12.5833 878.449 12.9375C878.123 13.2916 877.857 13.8909 877.653 14.7354C877.462 15.5799 877.367 16.7376 877.367 18.2086C877.367 19.489 877.448 20.6058 877.612 21.5593C877.789 22.4991 878.048 23.2346 878.388 23.7658C878.729 24.2834 879.158 24.5422 879.675 24.5422ZM896.597 21.3345H897.066L896.862 25.1143H887.014V24.6443C887.123 24.5899 887.287 24.4945 887.505 24.3583C887.736 24.2221 887.975 24.0655 888.22 23.8884C888.901 23.3981 889.541 22.8396 890.14 22.2131C890.74 21.5865 891.264 20.9191 891.714 20.2109C892.163 19.5026 892.517 18.7943 892.776 18.086C893.035 17.3778 893.164 16.7036 893.164 16.0634C893.164 15.4505 893.014 14.9329 892.715 14.5106C892.429 14.0884 891.904 13.8773 891.141 13.8773C890.501 13.8773 889.909 14.0543 889.364 14.4085C888.819 14.7626 888.281 15.3143 887.75 16.0634L887.362 15.7365C887.92 14.32 888.622 13.2644 889.466 12.5697C890.311 11.8751 891.366 11.5277 892.633 11.5277C893.368 11.5277 894.029 11.6503 894.615 11.8955C895.2 12.127 895.664 12.4948 896.004 12.9988C896.358 13.4891 896.535 14.1293 896.535 14.9193C896.535 16.3222 896.086 17.6366 895.187 18.8624C894.301 20.0883 893.062 21.2392 891.468 22.3152V22.3561H894.451C895.228 22.3561 895.766 22.2607 896.065 22.0701C896.365 21.8794 896.542 21.6342 896.597 21.3345ZM907.948 19.9044H909.378V22.4582H908.52C908.139 22.4582 907.948 22.6966 907.948 23.1733C907.948 23.5002 907.948 23.8203 907.948 24.1336C907.962 24.4332 907.976 24.7601 907.989 25.1143H904.761C904.788 24.6648 904.809 24.2289 904.822 23.8067C904.836 23.3708 904.85 22.9213 904.863 22.4582H898.407V21.9883C898.761 21.6478 899.081 21.2937 899.367 20.9259L906.048 12.5697C906.198 12.379 906.334 12.1951 906.457 12.0181C906.593 11.8274 906.702 11.6639 906.784 11.5277H907.969L907.948 19.9044ZM904.822 15.6343L901.41 19.9044H904.884V15.6343H904.822Z" fill="black"/>
<path d="M939.123 15.3534C936.272 14.2148 932.926 14.8221 930.645 17.0993C927.566 20.1735 927.566 25.1453 930.645 28.2196C932.926 30.4968 936.272 31.104 939.123 29.9654V26.3219C938.553 26.5876 937.945 26.7394 937.298 26.7394C935.017 26.7394 933.193 24.9176 933.193 22.6404C933.193 20.3632 935.017 18.5415 937.298 18.5415C937.945 18.5415 938.591 18.6933 939.123 18.959V15.3534Z" fill="black"/>
<path d="M937.829 11.7021C938.952 10.5762 938.952 8.71263 937.829 7.54791C936.706 6.42202 934.847 6.42202 933.685 7.54791C932.523 8.67381 932.562 10.5374 933.685 11.7021C934.847 12.828 936.706 12.828 937.829 11.7021Z" fill="black"/>
<path d="M957.975 25.1143V24.6443C958.37 24.6171 958.656 24.515 958.833 24.3379C959.01 24.1608 959.098 23.7386 959.098 23.0712V13.5708C959.098 12.9034 958.996 12.4812 958.792 12.3041C958.601 12.1134 958.227 12.0113 957.668 11.9976V11.5277H963.491V11.9976C963.096 12.0113 962.81 12.1134 962.633 12.3041C962.456 12.4812 962.367 12.9034 962.367 13.5708V23.0712C962.367 23.7386 962.469 24.1608 962.674 24.3379C962.878 24.515 963.253 24.6171 963.797 24.6443V25.1143H957.975ZM977.945 25.2777C977.741 25.0598 977.53 24.8487 977.312 24.6443C977.094 24.4264 976.747 24.1063 976.27 23.6841L968.22 16.329H968.18V23.0712C968.18 23.5343 968.295 23.9088 968.527 24.1949C968.772 24.4673 969.187 24.6171 969.773 24.6443V25.1143H965.993V24.6443C966.388 24.6171 966.674 24.4673 966.852 24.1949C967.029 23.9088 967.117 23.5343 967.117 23.0712V13.5708C967.117 12.9034 967.015 12.4812 966.811 12.3041C966.62 12.1134 966.245 12.0113 965.687 11.9976V11.5277H968.139C968.343 11.7865 968.561 12.0181 968.792 12.2224C969.024 12.4267 969.29 12.6719 969.589 12.9579L977.721 20.313H977.762V13.5708C977.762 13.1077 977.646 12.7332 977.414 12.4471C977.183 12.1611 976.767 12.0113 976.168 11.9976V11.5277H979.948V11.9976C979.553 12.0113 979.267 12.1611 979.09 12.4471C978.913 12.7332 978.824 13.1077 978.824 13.5708V23.0712C978.824 23.4525 978.824 23.8203 978.824 24.1744C978.838 24.515 978.851 24.8827 978.865 25.2777H977.945ZM981.564 11.5277H993.209V14.8988H992.739C992.657 14.1633 992.44 13.564 992.085 13.1009C991.731 12.6378 991.125 12.4063 990.267 12.4063H989.021V23.0712C989.021 23.7386 989.123 24.1608 989.327 24.3379C989.532 24.515 989.906 24.6171 990.451 24.6443V25.1143H984.628V24.6443C985.023 24.6171 985.309 24.515 985.486 24.3379C985.663 24.1608 985.752 23.7386 985.752 23.0712V12.4063H984.485C983.654 12.4063 983.055 12.6378 982.687 13.1009C982.333 13.564 982.115 14.1633 982.033 14.8988H981.564V11.5277ZM995.063 25.1143V24.6443C995.458 24.6171 995.744 24.515 995.921 24.3379C996.098 24.1608 996.187 23.7386 996.187 23.0712V13.5708C996.187 12.9034 996.085 12.4812 995.88 12.3041C995.69 12.1134 995.315 12.0113 994.757 11.9976V11.5277H1004.79V14.3881H1004.32C1004.29 13.8024 1004.09 13.3256 1003.71 12.9579C1003.34 12.5901 1002.77 12.4063 1001.99 12.4063H1000.35C1000.07 12.4063 999.844 12.4812 999.68 12.631C999.531 12.7808 999.456 13.0941 999.456 13.5708V17.5957C999.565 17.514 999.694 17.4595 999.844 17.4323C1000.01 17.405 1000.2 17.3914 1000.42 17.3914H1002.4C1002.81 17.3914 1003.15 17.2756 1003.42 17.0441C1003.69 16.8125 1003.83 16.4924 1003.85 16.0838H1004.32V19.5571H1003.85C1003.83 19.0531 1003.69 18.7126 1003.42 18.5355C1003.15 18.3585 1002.81 18.2699 1002.4 18.2699H1000.46C1000.09 18.2699 999.83 18.3312 999.68 18.4538C999.531 18.5764 999.456 18.8147 999.456 19.1689V23.0712C999.456 23.5479 999.558 23.8612 999.762 24.011C999.98 24.1608 1000.4 24.2357 1001.01 24.2357H1002.95C1003.77 24.2357 1004.41 23.9906 1004.89 23.5002C1005.37 23.0099 1005.63 22.4242 1005.69 21.7432H1006.16L1005.99 25.1143H995.063ZM1019.86 25.4207C1019.25 25.4207 1018.73 25.3186 1018.29 25.1143C1017.85 24.9236 1017.49 24.6648 1017.19 24.3379C1016.89 24.011 1016.61 23.65 1016.35 23.255L1013.49 18.8011C1013.35 18.5696 1013.23 18.4266 1013.12 18.3721C1013.01 18.3176 1012.88 18.2835 1012.73 18.2699V17.5548C1013.55 17.5004 1014.18 17.3369 1014.63 17.0645C1015.08 16.7921 1015.4 16.4584 1015.57 16.0634C1015.75 15.6548 1015.84 15.2325 1015.84 14.7967C1015.84 13.9658 1015.61 13.3461 1015.14 12.9375C1014.68 12.5152 1014.15 12.3041 1013.55 12.3041C1013.1 12.3041 1012.78 12.3858 1012.59 12.5493C1012.41 12.6991 1012.32 13.0396 1012.32 13.5708V23.0712C1012.32 23.7386 1012.43 24.1608 1012.63 24.3379C1012.84 24.515 1013.21 24.6171 1013.75 24.6443V25.1143H1007.93V24.6443C1008.33 24.6171 1008.61 24.515 1008.79 24.3379C1008.97 24.1608 1009.06 23.7386 1009.06 23.0712V13.5708C1009.06 12.9034 1008.95 12.4812 1008.75 12.3041C1008.56 12.1134 1008.18 12.0113 1007.63 11.9976V11.5277H1009.06C1010.08 11.5277 1011 11.5141 1011.83 11.4869C1012.67 11.446 1013.37 11.4256 1013.96 11.4256C1015.31 11.4256 1016.38 11.555 1017.17 11.8138C1017.97 12.0589 1018.54 12.4063 1018.88 12.8557C1019.24 13.3052 1019.41 13.816 1019.41 14.3881C1019.41 14.9329 1019.28 15.43 1019.01 15.8795C1018.75 16.329 1018.4 16.7104 1017.96 17.0236C1017.54 17.3233 1017.08 17.5344 1016.57 17.657V17.6979L1019.97 23.0099C1020.36 23.6364 1020.72 24.0655 1021.05 24.297C1021.38 24.5286 1021.67 24.6443 1021.93 24.6443V25.1143C1021.65 25.2096 1021.33 25.2845 1020.95 25.339C1020.58 25.3935 1020.22 25.4207 1019.86 25.4207ZM1029.51 25.4207C1028.08 25.4207 1026.82 25.1347 1025.71 24.5626C1024.61 23.9906 1023.74 23.1869 1023.12 22.1518C1022.49 21.103 1022.18 19.8908 1022.18 18.5151C1022.18 17.3846 1022.38 16.3767 1022.79 15.4913C1023.2 14.5924 1023.76 13.8228 1024.47 13.1826C1025.19 12.5425 1026.01 12.0589 1026.94 11.732C1027.88 11.3915 1028.88 11.2213 1029.94 11.2213C1030.75 11.2213 1031.51 11.2962 1032.25 11.446C1032.99 11.5958 1033.57 11.7729 1034.01 11.9772V15.2053H1033.54C1033.26 14.3744 1032.94 13.7411 1032.56 13.3052C1032.18 12.8557 1031.75 12.5425 1031.27 12.3654C1030.81 12.1883 1030.32 12.0998 1029.8 12.0998C1027.17 12.0998 1025.86 14.0067 1025.86 17.8204C1025.86 19.0735 1025.98 20.2109 1026.24 21.2324C1026.52 22.2539 1026.93 23.0644 1027.49 23.6637C1028.06 24.2494 1028.79 24.5422 1029.68 24.5422C1030.4 24.5422 1031.05 24.3651 1031.64 24.011C1032.22 23.6432 1032.72 23.1597 1033.13 22.5604C1033.55 21.9611 1033.85 21.3141 1034.03 20.6195H1034.5L1034.33 23.725C1033.88 24.2153 1033.25 24.6239 1032.43 24.9508C1031.62 25.2641 1030.64 25.4207 1029.51 25.4207ZM1043.15 11.2213C1044.12 11.2213 1045.02 11.3847 1045.85 11.7116C1046.68 12.0385 1047.41 12.5152 1048.05 13.1418C1048.69 13.7547 1049.19 14.497 1049.55 15.3687C1049.9 16.2405 1050.08 17.2143 1050.08 18.2903C1050.08 19.3664 1049.9 20.3402 1049.55 21.212C1049.19 22.0837 1048.69 22.8328 1048.05 23.4594C1047.43 24.0859 1046.69 24.5694 1045.85 24.9099C1045 25.2505 1044.1 25.4207 1043.13 25.4207C1042.18 25.4207 1041.28 25.2573 1040.43 24.9304C1039.6 24.6035 1038.87 24.1336 1038.23 23.5207C1037.59 22.8941 1037.09 22.145 1036.74 21.2733C1036.38 20.4015 1036.2 19.4277 1036.2 18.3516C1036.2 17.2756 1036.38 16.3017 1036.74 15.43C1037.09 14.5583 1037.58 13.8092 1038.21 13.1826C1038.85 12.5561 1039.59 12.0726 1040.43 11.732C1041.28 11.3915 1042.18 11.2213 1043.15 11.2213ZM1043.56 24.5422C1044.27 24.5422 1044.83 24.3106 1045.23 23.8475C1045.64 23.3708 1045.94 22.717 1046.11 21.8862C1046.3 21.0553 1046.4 20.0883 1046.4 18.985C1046.4 16.7648 1046.06 15.0623 1045.38 13.8773C1044.71 12.6923 1043.82 12.0998 1042.72 12.0998C1042.03 12.0998 1041.47 12.3313 1041.05 12.7944C1040.64 13.2575 1040.34 13.9113 1040.15 14.7558C1039.97 15.5867 1039.88 16.5537 1039.88 17.657C1039.88 19.8771 1040.22 21.5797 1040.88 22.7647C1041.56 23.9497 1042.46 24.5422 1043.56 24.5422ZM1059.53 25.2777C1059.43 24.9644 1059.29 24.6443 1059.13 24.3175C1058.98 23.9769 1058.77 23.5343 1058.51 22.9894L1054.84 15.3074H1054.79L1054.43 23.0712C1054.41 23.5343 1054.52 23.9088 1054.75 24.1949C1054.99 24.4673 1055.41 24.6171 1056.02 24.6443V25.1143H1052.24V24.6443C1052.64 24.6171 1052.91 24.4673 1053.08 24.1949C1053.26 23.9088 1053.35 23.5343 1053.36 23.0712L1053.79 13.5708C1053.82 13.0941 1053.79 12.7536 1053.69 12.5493C1053.61 12.345 1053.46 12.2156 1053.24 12.1611C1053.02 12.093 1052.73 12.0385 1052.36 11.9976V11.5277H1056.74C1056.84 11.8819 1056.97 12.2156 1057.1 12.5288C1057.25 12.8421 1057.42 13.1894 1057.59 13.5708L1061.11 20.9259H1061.15L1064.42 13.5708C1064.73 12.8762 1064.97 12.1951 1065.13 11.5277H1069.46V11.9976C1069.21 12.0113 1068.99 12.0521 1068.81 12.1202C1068.63 12.1883 1068.5 12.3313 1068.42 12.5493C1068.35 12.7536 1068.33 13.0941 1068.34 13.5708L1068.77 23.0712C1068.8 23.507 1068.85 23.8339 1068.93 24.0519C1069.03 24.2698 1069.18 24.4196 1069.38 24.5013C1069.59 24.5694 1069.86 24.6171 1070.2 24.6443V25.1143H1064.38V24.6443C1064.81 24.6171 1065.11 24.515 1065.28 24.3379C1065.45 24.1608 1065.53 23.7386 1065.5 23.0712L1065.15 14.7149H1065.11L1061.41 22.9894C1061.16 23.5615 1060.96 24.011 1060.84 24.3379C1060.73 24.6512 1060.64 24.9644 1060.56 25.2777H1059.53ZM1079.15 25.2777C1079.04 24.9644 1078.9 24.6443 1078.74 24.3175C1078.59 23.9769 1078.38 23.5343 1078.13 22.9894L1074.45 15.3074H1074.41L1074.04 23.0712C1074.03 23.5343 1074.14 23.9088 1074.37 24.1949C1074.6 24.4673 1075.02 24.6171 1075.63 24.6443V25.1143H1071.85V24.6443C1072.25 24.6171 1072.53 24.4673 1072.69 24.1949C1072.87 23.9088 1072.96 23.5343 1072.98 23.0712L1073.41 13.5708C1073.43 13.0941 1073.4 12.7536 1073.3 12.5493C1073.22 12.345 1073.07 12.2156 1072.85 12.1611C1072.64 12.093 1072.34 12.0385 1071.98 11.9976V11.5277H1076.35C1076.46 11.8819 1076.58 12.2156 1076.72 12.5288C1076.87 12.8421 1077.03 13.1894 1077.21 13.5708L1080.72 20.9259H1080.76L1084.03 13.5708C1084.34 12.8762 1084.58 12.1951 1084.75 11.5277H1089.08V11.9976C1088.82 12.0113 1088.6 12.0521 1088.42 12.1202C1088.25 12.1883 1088.12 12.3313 1088.03 12.5493C1087.97 12.7536 1087.94 13.0941 1087.95 13.5708L1088.38 23.0712C1088.41 23.507 1088.46 23.8339 1088.55 24.0519C1088.64 24.2698 1088.79 24.4196 1089 24.5013C1089.2 24.5694 1089.47 24.6171 1089.81 24.6443V25.1143H1083.99V24.6443C1084.43 24.6171 1084.73 24.515 1084.89 24.3379C1085.07 24.1608 1085.14 23.7386 1085.11 23.0712L1084.77 14.7149H1084.73L1081.03 22.9894C1080.77 23.5615 1080.58 24.011 1080.45 24.3379C1080.35 24.6512 1080.25 24.9644 1080.17 25.2777H1079.15ZM1105.84 21.3345H1106.31L1106.11 25.1143H1096.26V24.6443C1096.37 24.5899 1096.53 24.4945 1096.75 24.3583C1096.98 24.2221 1097.22 24.0655 1097.46 23.8884C1098.14 23.3981 1098.78 22.8396 1099.38 22.2131C1099.98 21.5865 1100.51 20.9191 1100.96 20.2109C1101.41 19.5026 1101.76 18.7943 1102.02 18.086C1102.28 17.3778 1102.41 16.7036 1102.41 16.0634C1102.41 15.4505 1102.26 14.9329 1101.96 14.5106C1101.67 14.0884 1101.15 13.8773 1100.39 13.8773C1099.74 13.8773 1099.15 14.0543 1098.61 14.4085C1098.06 14.7626 1097.52 15.3143 1096.99 16.0634L1096.61 15.7365C1097.16 14.32 1097.87 13.2644 1098.71 12.5697C1099.55 11.8751 1100.61 11.5277 1101.88 11.5277C1102.61 11.5277 1103.27 11.6503 1103.86 11.8955C1104.44 12.127 1104.91 12.4948 1105.25 12.9988C1105.6 13.4891 1105.78 14.1293 1105.78 14.9193C1105.78 16.3222 1105.33 17.6366 1104.43 18.8624C1103.55 20.0883 1102.31 21.2392 1100.71 22.3152V22.3561H1103.69C1104.47 22.3561 1105.01 22.2607 1105.31 22.0701C1105.61 21.8794 1105.79 21.6342 1105.84 21.3345ZM1114.54 11.5277C1115.24 11.5277 1115.94 11.6639 1116.62 11.9363C1117.3 12.2088 1117.91 12.631 1118.46 13.2031C1119 13.7751 1119.43 14.497 1119.75 15.3687C1120.07 16.2268 1120.24 17.2484 1120.24 18.4334C1120.24 19.6047 1120.08 20.6263 1119.77 21.498C1119.45 22.3697 1119.02 23.0984 1118.48 23.6841C1117.93 24.2698 1117.32 24.7056 1116.64 24.9917C1115.96 25.2777 1115.25 25.4207 1114.52 25.4207C1113.81 25.4207 1113.11 25.2845 1112.43 25.0121C1111.75 24.7397 1111.14 24.3175 1110.59 23.7454C1110.05 23.1733 1109.61 22.4582 1109.29 21.6001C1108.97 20.7284 1108.82 19.7001 1108.82 18.5151C1108.82 17.3437 1108.97 16.3222 1109.29 15.4505C1109.6 14.5787 1110.03 13.85 1110.57 13.2644C1111.12 12.6787 1111.73 12.2428 1112.41 11.9568C1113.09 11.6707 1113.8 11.5277 1114.54 11.5277ZM1114.6 24.5422C1114.99 24.5422 1115.35 24.3651 1115.68 24.011C1116.01 23.6569 1116.27 23.0576 1116.46 22.2131C1116.66 21.3686 1116.76 20.2109 1116.76 18.7398C1116.76 17.4595 1116.67 16.3494 1116.5 15.4096C1116.33 14.4562 1116.08 13.7206 1115.74 13.2031C1115.4 12.6719 1114.97 12.4063 1114.45 12.4063C1114.07 12.4063 1113.71 12.5833 1113.37 12.9375C1113.04 13.2916 1112.78 13.8909 1112.57 14.7354C1112.38 15.5799 1112.29 16.7376 1112.29 18.2086C1112.29 19.489 1112.37 20.6058 1112.53 21.5593C1112.71 22.4991 1112.97 23.2346 1113.31 23.7658C1113.65 24.2834 1114.08 24.5422 1114.6 24.5422ZM1131.52 21.3345H1131.99L1131.78 25.1143H1121.94V24.6443C1122.05 24.5899 1122.21 24.4945 1122.43 24.3583C1122.66 24.2221 1122.9 24.0655 1123.14 23.8884C1123.82 23.3981 1124.46 22.8396 1125.06 22.2131C1125.66 21.5865 1126.19 20.9191 1126.64 20.2109C1127.08 19.5026 1127.44 18.7943 1127.7 18.086C1127.96 17.3778 1128.09 16.7036 1128.09 16.0634C1128.09 15.4505 1127.94 14.9329 1127.64 14.5106C1127.35 14.0884 1126.83 13.8773 1126.06 13.8773C1125.42 13.8773 1124.83 14.0543 1124.29 14.4085C1123.74 14.7626 1123.2 15.3143 1122.67 16.0634L1122.28 15.7365C1122.84 14.32 1123.54 13.2644 1124.39 12.5697C1125.23 11.8751 1126.29 11.5277 1127.55 11.5277C1128.29 11.5277 1128.95 11.6503 1129.54 11.8955C1130.12 12.127 1130.59 12.4948 1130.93 12.9988C1131.28 13.4891 1131.46 14.1293 1131.46 14.9193C1131.46 16.3222 1131.01 17.6366 1130.11 18.8624C1129.22 20.0883 1127.98 21.2392 1126.39 22.3152V22.3561H1129.37C1130.15 22.3561 1130.69 22.2607 1130.99 22.0701C1131.29 21.8794 1131.46 21.6342 1131.52 21.3345ZM1142.87 19.9044H1144.3V22.4582H1143.44C1143.06 22.4582 1142.87 22.6966 1142.87 23.1733C1142.87 23.5002 1142.87 23.8203 1142.87 24.1336C1142.88 24.4332 1142.9 24.7601 1142.91 25.1143H1139.68C1139.71 24.6648 1139.73 24.2289 1139.74 23.8067C1139.76 23.3708 1139.77 22.9213 1139.79 22.4582H1133.33V21.9883C1133.68 21.6478 1134 21.2937 1134.29 20.9259L1140.97 12.5697C1141.12 12.379 1141.26 12.1951 1141.38 12.0181C1141.51 11.8274 1141.62 11.6639 1141.71 11.5277H1142.89L1142.87 19.9044ZM1139.74 15.6343L1136.33 19.9044H1139.81V15.6343H1139.74Z" fill="black"/>
<defs>
<linearGradient id="paint0_linear_614_2513" x1="0" y1="18.5" x2="1161.4" y2="18.5" gradientUnits="userSpaceOnUse">
<stop stop-color="#FA0056"/>
<stop offset="0.375" stop-color="#F33174"/>
<stop offset="0.67" stop-color="#FA0056"/>
<stop offset="0.975" stop-color="#F33174"/>
</linearGradient>
</defs>
</svg>
