<svg width="2841" height="91" viewBox="0 0 2841 91" fill="none" xmlns="http://www.w3.org/2000/svg">
<rect width="2839.6" height="90" transform="translate(0.75 0.0224609)" fill="url(#paint0_linear_562_1061)"/>
<path d="M43.9 62.0225V60.8725C44.8667 60.8058 45.5667 60.5558 46 60.1225C46.4333 59.6891 46.65 58.6558 46.65 57.0225V33.7725C46.65 32.1391 46.4 31.1058 45.9 30.6725C45.4333 30.2058 44.5167 29.9558 43.15 29.9225V28.7725H57.4V29.9225C56.4333 29.9558 55.7333 30.2058 55.3 30.6725C54.8667 31.1058 54.65 32.1391 54.65 33.7725V57.0225C54.65 58.6558 54.9 59.6891 55.4 60.1225C55.9 60.5558 56.8167 60.8058 58.15 60.8725V62.0225H43.9ZM92.7742 62.4225C92.2742 61.8891 91.7576 61.3725 91.2242 60.8725C90.6909 60.3391 89.8409 59.5558 88.6742 58.5225L68.9742 40.5225H68.8742V57.0225C68.8742 58.1558 69.1576 59.0725 69.7242 59.7725C70.3242 60.4391 71.3409 60.8058 72.7742 60.8725V62.0225H63.5242V60.8725C64.4909 60.8058 65.1909 60.4391 65.6242 59.7725C66.0576 59.0725 66.2742 58.1558 66.2742 57.0225V33.7725C66.2742 32.1391 66.0242 31.1058 65.5242 30.6725C65.0576 30.2058 64.1409 29.9558 62.7742 29.9225V28.7725H68.7742C69.2742 29.4058 69.8076 29.9725 70.3742 30.4725C70.9409 30.9725 71.5909 31.5725 72.3242 32.2725L92.2242 50.2725H92.3242V33.7725C92.3242 32.6391 92.0409 31.7225 91.4742 31.0225C90.9076 30.3225 89.8909 29.9558 88.4242 29.9225V28.7725H97.6742V29.9225C96.7076 29.9558 96.0076 30.3225 95.5742 31.0225C95.1409 31.7225 94.9242 32.6391 94.9242 33.7725V57.0225C94.9242 57.9558 94.9242 58.8558 94.9242 59.7225C94.9576 60.5558 94.9909 61.4558 95.0242 62.4225H92.7742ZM101.629 28.7725H130.129V37.0225H128.979C128.779 35.2225 128.245 33.7558 127.379 32.6225C126.512 31.4891 125.029 30.9225 122.929 30.9225H119.879V57.0225C119.879 58.6558 120.129 59.6891 120.629 60.1225C121.129 60.5558 122.045 60.8058 123.379 60.8725V62.0225H109.129V60.8725C110.095 60.8058 110.795 60.5558 111.229 60.1225C111.662 59.6891 111.879 58.6558 111.879 57.0225V30.9225H108.779C106.745 30.9225 105.279 31.4891 104.379 32.6225C103.512 33.7558 102.979 35.2225 102.779 37.0225H101.629V28.7725ZM134.666 62.0225V60.8725C135.632 60.8058 136.332 60.5558 136.766 60.1225C137.199 59.6891 137.416 58.6558 137.416 57.0225V33.7725C137.416 32.1391 137.166 31.1058 136.666 30.6725C136.199 30.2058 135.282 29.9558 133.916 29.9225V28.7725H158.466V35.7725H157.316C157.249 34.3391 156.749 33.1725 155.816 32.2725C154.916 31.3725 153.516 30.9225 151.616 30.9225H147.616C146.916 30.9225 146.366 31.1058 145.966 31.4725C145.599 31.8391 145.416 32.6058 145.416 33.7725V43.6225C145.682 43.4225 145.999 43.2891 146.366 43.2225C146.766 43.1558 147.232 43.1225 147.766 43.1225H152.616C153.616 43.1225 154.449 42.8391 155.116 42.2725C155.782 41.7058 156.132 40.9225 156.166 39.9225H157.316V48.4225H156.166C156.132 47.1891 155.782 46.3558 155.116 45.9225C154.449 45.4891 153.616 45.2725 152.616 45.2725H147.866C146.966 45.2725 146.332 45.4225 145.966 45.7225C145.599 46.0225 145.416 46.6058 145.416 47.4725V57.0225C145.416 58.1891 145.666 58.9558 146.166 59.3225C146.699 59.6891 147.716 59.8725 149.216 59.8725H153.966C155.966 59.8725 157.549 59.2725 158.716 58.0725C159.882 56.8725 160.532 55.4391 160.666 53.7725H161.816L161.416 62.0225H134.666ZM195.36 62.7725C193.86 62.7725 192.576 62.5225 191.51 62.0225C190.443 61.5558 189.543 60.9225 188.81 60.1225C188.076 59.3225 187.393 58.4391 186.76 57.4725L179.76 46.5725C179.426 46.0058 179.126 45.6558 178.86 45.5225C178.593 45.3891 178.276 45.3058 177.91 45.2725V43.5225C179.91 43.3891 181.46 42.9891 182.56 42.3225C183.66 41.6558 184.426 40.8391 184.86 39.8725C185.293 38.8725 185.51 37.8391 185.51 36.7725C185.51 34.7391 184.943 33.2225 183.81 32.2225C182.676 31.1891 181.376 30.6725 179.91 30.6725C178.81 30.6725 178.026 30.8725 177.56 31.2725C177.126 31.6391 176.91 32.4725 176.91 33.7725V57.0225C176.91 58.6558 177.16 59.6891 177.66 60.1225C178.16 60.5558 179.076 60.8058 180.41 60.8725V62.0225H166.16V60.8725C167.126 60.8058 167.826 60.5558 168.26 60.1225C168.693 59.6891 168.91 58.6558 168.91 57.0225V33.7725C168.91 32.1391 168.66 31.1058 168.16 30.6725C167.693 30.2058 166.776 29.9558 165.41 29.9225V28.7725H168.91C171.41 28.7725 173.676 28.7391 175.71 28.6725C177.743 28.5725 179.476 28.5225 180.91 28.5225C184.21 28.5225 186.826 28.8391 188.76 29.4725C190.726 30.0725 192.126 30.9225 192.96 32.0225C193.826 33.1225 194.26 34.3725 194.26 35.7725C194.26 37.1058 193.926 38.3225 193.26 39.4225C192.626 40.5225 191.776 41.4558 190.71 42.2225C189.676 42.9558 188.543 43.4725 187.31 43.7725V43.8725L195.61 56.8725C196.576 58.4058 197.46 59.4558 198.26 60.0225C199.06 60.5891 199.776 60.8725 200.41 60.8725V62.0225C199.743 62.2558 198.943 62.4391 198.01 62.5725C197.11 62.7058 196.226 62.7725 195.36 62.7725ZM218.973 62.7725C215.473 62.7725 212.373 62.0725 209.673 60.6725C206.973 59.2725 204.856 57.3058 203.323 54.7725C201.79 52.2058 201.023 49.2391 201.023 45.8725C201.023 43.1058 201.523 40.6391 202.523 38.4725C203.523 36.2725 204.89 34.3891 206.623 32.8225C208.39 31.2558 210.406 30.0725 212.673 29.2725C214.973 28.4391 217.423 28.0225 220.023 28.0225C221.99 28.0225 223.873 28.2058 225.673 28.5725C227.473 28.9391 228.906 29.3725 229.973 29.8725V37.7725H228.823C228.156 35.7391 227.356 34.1891 226.423 33.1225C225.49 32.0225 224.44 31.2558 223.273 30.8225C222.14 30.3891 220.94 30.1725 219.673 30.1725C213.24 30.1725 210.023 34.8391 210.023 44.1725C210.023 47.2391 210.34 50.0225 210.973 52.5225C211.64 55.0225 212.656 57.0058 214.023 58.4725C215.423 59.9058 217.206 60.6225 219.373 60.6225C221.14 60.6225 222.74 60.1891 224.173 59.3225C225.606 58.4225 226.823 57.2391 227.823 55.7725C228.856 54.3058 229.59 52.7225 230.023 51.0225H231.173L230.773 58.6225C229.673 59.8225 228.123 60.8225 226.123 61.6225C224.123 62.3891 221.74 62.7725 218.973 62.7725ZM252.349 28.0225C254.716 28.0225 256.916 28.4225 258.949 29.2225C260.983 30.0225 262.783 31.1891 264.349 32.7225C265.916 34.2225 267.133 36.0391 267.999 38.1725C268.866 40.3058 269.299 42.6891 269.299 45.3225C269.299 47.9558 268.866 50.3391 267.999 52.4725C267.133 54.6058 265.916 56.4391 264.349 57.9725C262.816 59.5058 261.016 60.6891 258.949 61.5225C256.883 62.3558 254.666 62.7725 252.299 62.7725C249.966 62.7725 247.766 62.3725 245.699 61.5725C243.666 60.7725 241.866 59.6225 240.299 58.1225C238.733 56.5891 237.516 54.7558 236.649 52.6225C235.783 50.4891 235.349 48.1058 235.349 45.4725C235.349 42.8391 235.783 40.4558 236.649 38.3225C237.516 36.1891 238.716 34.3558 240.249 32.8225C241.816 31.2891 243.633 30.1058 245.699 29.2725C247.766 28.4391 249.983 28.0225 252.349 28.0225ZM253.349 60.6225C255.083 60.6225 256.449 60.0558 257.449 58.9225C258.449 57.7558 259.166 56.1558 259.599 54.1225C260.066 52.0891 260.299 49.7225 260.299 47.0225C260.299 41.5891 259.466 37.4225 257.799 34.5225C256.166 31.6225 253.999 30.1725 251.299 30.1725C249.599 30.1725 248.233 30.7391 247.199 31.8725C246.199 33.0058 245.466 34.6058 244.999 36.6725C244.566 38.7058 244.349 41.0725 244.349 43.7725C244.349 49.2058 245.166 53.3725 246.799 56.2725C248.466 59.1725 250.649 60.6225 253.349 60.6225ZM292.445 62.4225C292.179 61.6558 291.845 60.8725 291.445 60.0725C291.079 59.2391 290.579 58.1558 289.945 56.8225L280.945 38.0225H280.845L279.945 57.0225C279.912 58.1558 280.179 59.0725 280.745 59.7725C281.312 60.4391 282.345 60.8058 283.845 60.8725V62.0225H274.595V60.8725C275.562 60.8058 276.245 60.4391 276.645 59.7725C277.079 59.0725 277.312 58.1558 277.345 57.0225L278.395 33.7725C278.462 32.6058 278.379 31.7725 278.145 31.2725C277.945 30.7725 277.579 30.4558 277.045 30.3225C276.512 30.1558 275.795 30.0225 274.895 29.9225V28.7725H285.595C285.862 29.6391 286.162 30.4558 286.495 31.2225C286.862 31.9891 287.262 32.8391 287.695 33.7725L296.295 51.7725H296.395L304.395 33.7725C305.162 32.0725 305.745 30.4058 306.145 28.7725H316.745V29.9225C316.112 29.9558 315.579 30.0558 315.145 30.2225C314.712 30.3891 314.395 30.7391 314.195 31.2725C314.029 31.7725 313.962 32.6058 313.995 33.7725L315.045 57.0225C315.112 58.0891 315.245 58.8891 315.445 59.4225C315.679 59.9558 316.045 60.3225 316.545 60.5225C317.045 60.6891 317.712 60.8058 318.545 60.8725V62.0225H304.295V60.8725C305.362 60.8058 306.095 60.5558 306.495 60.1225C306.929 59.6891 307.112 58.6558 307.045 57.0225L306.195 36.5725H306.095L297.045 56.8225C296.412 58.2225 295.945 59.3225 295.645 60.1225C295.379 60.8891 295.145 61.6558 294.945 62.4225H292.445ZM340.443 62.4225C340.177 61.6558 339.843 60.8725 339.443 60.0725C339.077 59.2391 338.577 58.1558 337.943 56.8225L328.943 38.0225H328.843L327.943 57.0225C327.91 58.1558 328.177 59.0725 328.743 59.7725C329.31 60.4391 330.343 60.8058 331.843 60.8725V62.0225H322.593V60.8725C323.56 60.8058 324.243 60.4391 324.643 59.7725C325.077 59.0725 325.31 58.1558 325.343 57.0225L326.393 33.7725C326.46 32.6058 326.377 31.7725 326.143 31.2725C325.943 30.7725 325.577 30.4558 325.043 30.3225C324.51 30.1558 323.793 30.0225 322.893 29.9225V28.7725H333.593C333.86 29.6391 334.16 30.4558 334.493 31.2225C334.86 31.9891 335.26 32.8391 335.693 33.7725L344.293 51.7725H344.393L352.393 33.7725C353.16 32.0725 353.743 30.4058 354.143 28.7725H364.743V29.9225C364.11 29.9558 363.577 30.0558 363.143 30.2225C362.71 30.3891 362.393 30.7391 362.193 31.2725C362.027 31.7725 361.96 32.6058 361.993 33.7725L363.043 57.0225C363.11 58.0891 363.243 58.8891 363.443 59.4225C363.677 59.9558 364.043 60.3225 364.543 60.5225C365.043 60.6891 365.71 60.8058 366.543 60.8725V62.0225H352.293V60.8725C353.36 60.8058 354.093 60.5558 354.493 60.1225C354.927 59.6891 355.11 58.6558 355.043 57.0225L354.193 36.5725H354.093L345.043 56.8225C344.41 58.2225 343.943 59.3225 343.643 60.1225C343.377 60.8891 343.143 61.6558 342.943 62.4225H340.443ZM405.768 52.7725H406.918L406.418 62.0225H382.318V60.8725C382.585 60.7391 382.985 60.5058 383.518 60.1725C384.085 59.8391 384.668 59.4558 385.268 59.0225C386.935 57.8225 388.501 56.4558 389.968 54.9225C391.435 53.3891 392.718 51.7558 393.818 50.0225C394.918 48.2891 395.785 46.5558 396.418 44.8225C397.051 43.0891 397.368 41.4391 397.368 39.8725C397.368 38.3725 397.001 37.1058 396.268 36.0725C395.568 35.0391 394.285 34.5225 392.418 34.5225C390.851 34.5225 389.401 34.9558 388.068 35.8225C386.735 36.6891 385.418 38.0391 384.118 39.8725L383.168 39.0725C384.535 35.6058 386.251 33.0225 388.318 31.3225C390.385 29.6225 392.968 28.7725 396.068 28.7725C397.868 28.7725 399.485 29.0725 400.918 29.6725C402.351 30.2391 403.485 31.1391 404.318 32.3725C405.185 33.5725 405.618 35.1391 405.618 37.0725C405.618 40.5058 404.518 43.7225 402.318 46.7225C400.151 49.7225 397.118 52.5391 393.218 55.1725V55.2725H400.518C402.418 55.2725 403.735 55.0391 404.468 54.5725C405.201 54.1058 405.635 53.5058 405.768 52.7725ZM427.049 28.7725C428.782 28.7725 430.482 29.1058 432.149 29.7725C433.815 30.4391 435.315 31.4725 436.649 32.8725C437.982 34.2725 439.032 36.0391 439.799 38.1725C440.599 40.2725 440.999 42.7725 440.999 45.6725C440.999 48.5391 440.615 51.0391 439.849 53.1725C439.082 55.3058 438.032 57.0891 436.699 58.5225C435.365 59.9558 433.865 61.0225 432.199 61.7225C430.532 62.4225 428.799 62.7725 426.999 62.7725C425.265 62.7725 423.565 62.4391 421.899 61.7725C420.232 61.1058 418.732 60.0725 417.399 58.6725C416.065 57.2725 414.999 55.5225 414.199 53.4225C413.432 51.2891 413.049 48.7725 413.049 45.8725C413.049 43.0058 413.432 40.5058 414.199 38.3725C414.965 36.2391 416.015 34.4558 417.349 33.0225C418.682 31.5891 420.182 30.5225 421.849 29.8225C423.515 29.1225 425.249 28.7725 427.049 28.7725ZM427.199 60.6225C428.165 60.6225 429.049 60.1891 429.849 59.3225C430.649 58.4558 431.282 56.9891 431.749 54.9225C432.249 52.8558 432.499 50.0225 432.499 46.4225C432.499 43.2891 432.282 40.5725 431.849 38.2725C431.449 35.9391 430.832 34.1391 429.999 32.8725C429.165 31.5725 428.115 30.9225 426.849 30.9225C425.915 30.9225 425.032 31.3558 424.199 32.2225C423.399 33.0891 422.749 34.5558 422.249 36.6225C421.782 38.6891 421.549 41.5225 421.549 45.1225C421.549 48.2558 421.749 50.9891 422.149 53.3225C422.582 55.6225 423.215 57.4225 424.049 58.7225C424.882 59.9891 425.932 60.6225 427.199 60.6225ZM468.61 52.7725H469.76L469.26 62.0225H445.16V60.8725C445.426 60.7391 445.826 60.5058 446.36 60.1725C446.926 59.8391 447.51 59.4558 448.11 59.0225C449.776 57.8225 451.343 56.4558 452.81 54.9225C454.276 53.3891 455.56 51.7558 456.66 50.0225C457.76 48.2891 458.626 46.5558 459.26 44.8225C459.893 43.0891 460.21 41.4391 460.21 39.8725C460.21 38.3725 459.843 37.1058 459.11 36.0725C458.41 35.0391 457.126 34.5225 455.26 34.5225C453.693 34.5225 452.243 34.9558 450.91 35.8225C449.576 36.6891 448.26 38.0391 446.96 39.8725L446.01 39.0725C447.376 35.6058 449.093 33.0225 451.16 31.3225C453.226 29.6225 455.81 28.7725 458.91 28.7725C460.71 28.7725 462.326 29.0725 463.76 29.6725C465.193 30.2391 466.326 31.1391 467.16 32.3725C468.026 33.5725 468.46 35.1391 468.46 37.0725C468.46 40.5058 467.36 43.7225 465.16 46.7225C462.993 49.7225 459.96 52.5391 456.06 55.1725V55.2725H463.36C465.26 55.2725 466.576 55.0391 467.31 54.5725C468.043 54.1058 468.476 53.5058 468.61 52.7725ZM496.391 49.2725H499.891V55.5225H497.791C496.857 55.5225 496.391 56.1058 496.391 57.2725C496.391 58.0725 496.391 58.8558 496.391 59.6225C496.424 60.3558 496.457 61.1558 496.491 62.0225H488.591C488.657 60.9225 488.707 59.8558 488.741 58.8225C488.774 57.7558 488.807 56.6558 488.841 55.5225H473.041V54.3725C473.907 53.5391 474.691 52.6725 475.391 51.7725L491.741 31.3225C492.107 30.8558 492.441 30.4058 492.741 29.9725C493.074 29.5058 493.341 29.1058 493.541 28.7725H496.441L496.391 49.2725ZM488.741 38.8225L480.391 49.2725H488.891V38.8225H488.741Z" fill="black"/>
<path d="M572.149 37.0423C565.171 34.2558 556.984 35.742 551.402 41.3149C543.866 48.8383 543.866 61.0059 551.402 68.5294C556.984 74.1023 565.171 75.5884 572.149 72.8019V63.8853C570.753 64.5354 569.265 64.907 567.683 64.907C562.101 64.907 557.635 60.4486 557.635 54.8757C557.635 49.3028 562.101 44.8444 567.683 44.8444C569.265 44.8444 570.846 45.2159 572.149 45.8661V37.0423Z" fill="black"/>
<path d="M568.988 28.107C571.737 25.3516 571.737 20.7909 568.988 17.9406C566.24 15.1852 561.69 15.1852 558.847 17.9406C556.004 20.6959 556.099 25.2566 558.847 28.107C561.69 30.8623 566.24 30.8623 568.988 28.107Z" fill="black"/>
<path d="M618.298 62.0225V60.8725C619.265 60.8058 619.965 60.5558 620.398 60.1225C620.832 59.6891 621.048 58.6558 621.048 57.0225V33.7725C621.048 32.1391 620.798 31.1058 620.298 30.6725C619.832 30.2058 618.915 29.9558 617.548 29.9225V28.7725H631.798V29.9225C630.832 29.9558 630.132 30.2058 629.698 30.6725C629.265 31.1058 629.048 32.1391 629.048 33.7725V57.0225C629.048 58.6558 629.298 59.6891 629.798 60.1225C630.298 60.5558 631.215 60.8058 632.548 60.8725V62.0225H618.298ZM667.173 62.4225C666.673 61.8891 666.156 61.3725 665.623 60.8725C665.089 60.3391 664.239 59.5558 663.073 58.5225L643.373 40.5225H643.273V57.0225C643.273 58.1558 643.556 59.0725 644.123 59.7725C644.723 60.4391 645.739 60.8058 647.173 60.8725V62.0225H637.923V60.8725C638.889 60.8058 639.589 60.4391 640.023 59.7725C640.456 59.0725 640.673 58.1558 640.673 57.0225V33.7725C640.673 32.1391 640.423 31.1058 639.923 30.6725C639.456 30.2058 638.539 29.9558 637.173 29.9225V28.7725H643.173C643.673 29.4058 644.206 29.9725 644.773 30.4725C645.339 30.9725 645.989 31.5725 646.723 32.2725L666.623 50.2725H666.723V33.7725C666.723 32.6391 666.439 31.7225 665.873 31.0225C665.306 30.3225 664.289 29.9558 662.823 29.9225V28.7725H672.073V29.9225C671.106 29.9558 670.406 30.3225 669.973 31.0225C669.539 31.7225 669.323 32.6391 669.323 33.7725V57.0225C669.323 57.9558 669.323 58.8558 669.323 59.7225C669.356 60.5558 669.389 61.4558 669.423 62.4225H667.173ZM676.027 28.7725H704.527V37.0225H703.377C703.177 35.2225 702.644 33.7558 701.777 32.6225C700.91 31.4891 699.427 30.9225 697.327 30.9225H694.277V57.0225C694.277 58.6558 694.527 59.6891 695.027 60.1225C695.527 60.5558 696.444 60.8058 697.777 60.8725V62.0225H683.527V60.8725C684.494 60.8058 685.194 60.5558 685.627 60.1225C686.06 59.6891 686.277 58.6558 686.277 57.0225V30.9225H683.177C681.144 30.9225 679.677 31.4891 678.777 32.6225C677.91 33.7558 677.377 35.2225 677.177 37.0225H676.027V28.7725ZM709.064 62.0225V60.8725C710.031 60.8058 710.731 60.5558 711.164 60.1225C711.597 59.6891 711.814 58.6558 711.814 57.0225V33.7725C711.814 32.1391 711.564 31.1058 711.064 30.6725C710.597 30.2058 709.681 29.9558 708.314 29.9225V28.7725H732.864V35.7725H731.714C731.647 34.3391 731.147 33.1725 730.214 32.2725C729.314 31.3725 727.914 30.9225 726.014 30.9225H722.014C721.314 30.9225 720.764 31.1058 720.364 31.4725C719.997 31.8391 719.814 32.6058 719.814 33.7725V43.6225C720.081 43.4225 720.397 43.2891 720.764 43.2225C721.164 43.1558 721.631 43.1225 722.164 43.1225H727.014C728.014 43.1225 728.847 42.8391 729.514 42.2725C730.181 41.7058 730.531 40.9225 730.564 39.9225H731.714V48.4225H730.564C730.531 47.1891 730.181 46.3558 729.514 45.9225C728.847 45.4891 728.014 45.2725 727.014 45.2725H722.264C721.364 45.2725 720.731 45.4225 720.364 45.7225C719.997 46.0225 719.814 46.6058 719.814 47.4725V57.0225C719.814 58.1891 720.064 58.9558 720.564 59.3225C721.097 59.6891 722.114 59.8725 723.614 59.8725H728.364C730.364 59.8725 731.947 59.2725 733.114 58.0725C734.281 56.8725 734.931 55.4391 735.064 53.7725H736.214L735.814 62.0225H709.064ZM769.758 62.7725C768.258 62.7725 766.975 62.5225 765.908 62.0225C764.842 61.5558 763.942 60.9225 763.208 60.1225C762.475 59.3225 761.792 58.4391 761.158 57.4725L754.158 46.5725C753.825 46.0058 753.525 45.6558 753.258 45.5225C752.992 45.3891 752.675 45.3058 752.308 45.2725V43.5225C754.308 43.3891 755.858 42.9891 756.958 42.3225C758.058 41.6558 758.825 40.8391 759.258 39.8725C759.692 38.8725 759.908 37.8391 759.908 36.7725C759.908 34.7391 759.342 33.2225 758.208 32.2225C757.075 31.1891 755.775 30.6725 754.308 30.6725C753.208 30.6725 752.425 30.8725 751.958 31.2725C751.525 31.6391 751.308 32.4725 751.308 33.7725V57.0225C751.308 58.6558 751.558 59.6891 752.058 60.1225C752.558 60.5558 753.475 60.8058 754.808 60.8725V62.0225H740.558V60.8725C741.525 60.8058 742.225 60.5558 742.658 60.1225C743.092 59.6891 743.308 58.6558 743.308 57.0225V33.7725C743.308 32.1391 743.058 31.1058 742.558 30.6725C742.092 30.2058 741.175 29.9558 739.808 29.9225V28.7725H743.308C745.808 28.7725 748.075 28.7391 750.108 28.6725C752.142 28.5725 753.875 28.5225 755.308 28.5225C758.608 28.5225 761.225 28.8391 763.158 29.4725C765.125 30.0725 766.525 30.9225 767.358 32.0225C768.225 33.1225 768.658 34.3725 768.658 35.7725C768.658 37.1058 768.325 38.3225 767.658 39.4225C767.025 40.5225 766.175 41.4558 765.108 42.2225C764.075 42.9558 762.942 43.4725 761.708 43.7725V43.8725L770.008 56.8725C770.975 58.4058 771.858 59.4558 772.658 60.0225C773.458 60.5891 774.175 60.8725 774.808 60.8725V62.0225C774.142 62.2558 773.342 62.4391 772.408 62.5725C771.508 62.7058 770.625 62.7725 769.758 62.7725ZM793.371 62.7725C789.871 62.7725 786.771 62.0725 784.071 60.6725C781.371 59.2725 779.255 57.3058 777.721 54.7725C776.188 52.2058 775.421 49.2391 775.421 45.8725C775.421 43.1058 775.921 40.6391 776.921 38.4725C777.921 36.2725 779.288 34.3891 781.021 32.8225C782.788 31.2558 784.805 30.0725 787.071 29.2725C789.371 28.4391 791.821 28.0225 794.421 28.0225C796.388 28.0225 798.271 28.2058 800.071 28.5725C801.871 28.9391 803.305 29.3725 804.371 29.8725V37.7725H803.221C802.555 35.7391 801.755 34.1891 800.821 33.1225C799.888 32.0225 798.838 31.2558 797.671 30.8225C796.538 30.3891 795.338 30.1725 794.071 30.1725C787.638 30.1725 784.421 34.8391 784.421 44.1725C784.421 47.2391 784.738 50.0225 785.371 52.5225C786.038 55.0225 787.055 57.0058 788.421 58.4725C789.821 59.9058 791.605 60.6225 793.771 60.6225C795.538 60.6225 797.138 60.1891 798.571 59.3225C800.005 58.4225 801.221 57.2391 802.221 55.7725C803.255 54.3058 803.988 52.7225 804.421 51.0225H805.571L805.171 58.6225C804.071 59.8225 802.521 60.8225 800.521 61.6225C798.521 62.3891 796.138 62.7725 793.371 62.7725ZM826.748 28.0225C829.114 28.0225 831.314 28.4225 833.348 29.2225C835.381 30.0225 837.181 31.1891 838.748 32.7225C840.314 34.2225 841.531 36.0391 842.398 38.1725C843.264 40.3058 843.698 42.6891 843.698 45.3225C843.698 47.9558 843.264 50.3391 842.398 52.4725C841.531 54.6058 840.314 56.4391 838.748 57.9725C837.214 59.5058 835.414 60.6891 833.348 61.5225C831.281 62.3558 829.064 62.7725 826.698 62.7725C824.364 62.7725 822.164 62.3725 820.098 61.5725C818.064 60.7725 816.264 59.6225 814.698 58.1225C813.131 56.5891 811.914 54.7558 811.048 52.6225C810.181 50.4891 809.748 48.1058 809.748 45.4725C809.748 42.8391 810.181 40.4558 811.048 38.3225C811.914 36.1891 813.114 34.3558 814.648 32.8225C816.214 31.2891 818.031 30.1058 820.098 29.2725C822.164 28.4391 824.381 28.0225 826.748 28.0225ZM827.748 60.6225C829.481 60.6225 830.848 60.0558 831.848 58.9225C832.848 57.7558 833.564 56.1558 833.998 54.1225C834.464 52.0891 834.698 49.7225 834.698 47.0225C834.698 41.5891 833.864 37.4225 832.198 34.5225C830.564 31.6225 828.398 30.1725 825.698 30.1725C823.998 30.1725 822.631 30.7391 821.598 31.8725C820.598 33.0058 819.864 34.6058 819.398 36.6725C818.964 38.7058 818.748 41.0725 818.748 43.7725C818.748 49.2058 819.564 53.3725 821.198 56.2725C822.864 59.1725 825.048 60.6225 827.748 60.6225ZM866.844 62.4225C866.577 61.6558 866.244 60.8725 865.844 60.0725C865.477 59.2391 864.977 58.1558 864.344 56.8225L855.344 38.0225H855.244L854.344 57.0225C854.31 58.1558 854.577 59.0725 855.144 59.7725C855.71 60.4391 856.744 60.8058 858.244 60.8725V62.0225H848.994V60.8725C849.96 60.8058 850.644 60.4391 851.044 59.7725C851.477 59.0725 851.71 58.1558 851.744 57.0225L852.794 33.7725C852.86 32.6058 852.777 31.7725 852.544 31.2725C852.344 30.7725 851.977 30.4558 851.444 30.3225C850.91 30.1558 850.194 30.0225 849.294 29.9225V28.7725H859.994C860.26 29.6391 860.56 30.4558 860.894 31.2225C861.26 31.9891 861.66 32.8391 862.094 33.7725L870.694 51.7725H870.794L878.794 33.7725C879.56 32.0725 880.144 30.4058 880.544 28.7725H891.144V29.9225C890.51 29.9558 889.977 30.0558 889.544 30.2225C889.11 30.3891 888.794 30.7391 888.594 31.2725C888.427 31.7725 888.36 32.6058 888.394 33.7725L889.444 57.0225C889.51 58.0891 889.644 58.8891 889.844 59.4225C890.077 59.9558 890.444 60.3225 890.944 60.5225C891.444 60.6891 892.11 60.8058 892.944 60.8725V62.0225H878.694V60.8725C879.76 60.8058 880.494 60.5558 880.894 60.1225C881.327 59.6891 881.51 58.6558 881.444 57.0225L880.594 36.5725H880.494L871.444 56.8225C870.81 58.2225 870.344 59.3225 870.044 60.1225C869.777 60.8891 869.544 61.6558 869.344 62.4225H866.844ZM914.842 62.4225C914.575 61.6558 914.242 60.8725 913.842 60.0725C913.475 59.2391 912.975 58.1558 912.342 56.8225L903.342 38.0225H903.242L902.342 57.0225C902.308 58.1558 902.575 59.0725 903.142 59.7725C903.708 60.4391 904.742 60.8058 906.242 60.8725V62.0225H896.992V60.8725C897.958 60.8058 898.642 60.4391 899.042 59.7725C899.475 59.0725 899.708 58.1558 899.742 57.0225L900.792 33.7725C900.858 32.6058 900.775 31.7725 900.542 31.2725C900.342 30.7725 899.975 30.4558 899.442 30.3225C898.908 30.1558 898.192 30.0225 897.292 29.9225V28.7725H907.992C908.258 29.6391 908.558 30.4558 908.892 31.2225C909.258 31.9891 909.658 32.8391 910.092 33.7725L918.692 51.7725H918.792L926.792 33.7725C927.558 32.0725 928.142 30.4058 928.542 28.7725H939.142V29.9225C938.508 29.9558 937.975 30.0558 937.542 30.2225C937.108 30.3891 936.792 30.7391 936.592 31.2725C936.425 31.7725 936.358 32.6058 936.392 33.7725L937.442 57.0225C937.508 58.0891 937.642 58.8891 937.842 59.4225C938.075 59.9558 938.442 60.3225 938.942 60.5225C939.442 60.6891 940.108 60.8058 940.942 60.8725V62.0225H926.692V60.8725C927.758 60.8058 928.492 60.5558 928.892 60.1225C929.325 59.6891 929.508 58.6558 929.442 57.0225L928.592 36.5725H928.492L919.442 56.8225C918.808 58.2225 918.342 59.3225 918.042 60.1225C917.775 60.8891 917.542 61.6558 917.342 62.4225H914.842ZM980.166 52.7725H981.316L980.816 62.0225H956.716V60.8725C956.983 60.7391 957.383 60.5058 957.916 60.1725C958.483 59.8391 959.066 59.4558 959.666 59.0225C961.333 57.8225 962.9 56.4558 964.366 54.9225C965.833 53.3891 967.116 51.7558 968.216 50.0225C969.316 48.2891 970.183 46.5558 970.816 44.8225C971.45 43.0891 971.766 41.4391 971.766 39.8725C971.766 38.3725 971.4 37.1058 970.666 36.0725C969.966 35.0391 968.683 34.5225 966.816 34.5225C965.25 34.5225 963.8 34.9558 962.466 35.8225C961.133 36.6891 959.816 38.0391 958.516 39.8725L957.566 39.0725C958.933 35.6058 960.65 33.0225 962.716 31.3225C964.783 29.6225 967.366 28.7725 970.466 28.7725C972.266 28.7725 973.883 29.0725 975.316 29.6725C976.75 30.2391 977.883 31.1391 978.716 32.3725C979.583 33.5725 980.016 35.1391 980.016 37.0725C980.016 40.5058 978.916 43.7225 976.716 46.7225C974.55 49.7225 971.516 52.5391 967.616 55.1725V55.2725H974.916C976.816 55.2725 978.133 55.0391 978.866 54.5725C979.6 54.1058 980.033 53.5058 980.166 52.7725ZM1001.45 28.7725C1003.18 28.7725 1004.88 29.1058 1006.55 29.7725C1008.21 30.4391 1009.71 31.4725 1011.05 32.8725C1012.38 34.2725 1013.43 36.0391 1014.2 38.1725C1015 40.2725 1015.4 42.7725 1015.4 45.6725C1015.4 48.5391 1015.01 51.0391 1014.25 53.1725C1013.48 55.3058 1012.43 57.0891 1011.1 58.5225C1009.76 59.9558 1008.26 61.0225 1006.6 61.7225C1004.93 62.4225 1003.2 62.7725 1001.4 62.7725C999.664 62.7725 997.964 62.4391 996.297 61.7725C994.631 61.1058 993.131 60.0725 991.797 58.6725C990.464 57.2725 989.397 55.5225 988.597 53.4225C987.831 51.2891 987.447 48.7725 987.447 45.8725C987.447 43.0058 987.831 40.5058 988.597 38.3725C989.364 36.2391 990.414 34.4558 991.747 33.0225C993.081 31.5891 994.581 30.5225 996.247 29.8225C997.914 29.1225 999.647 28.7725 1001.45 28.7725ZM1001.6 60.6225C1002.56 60.6225 1003.45 60.1891 1004.25 59.3225C1005.05 58.4558 1005.68 56.9891 1006.15 54.9225C1006.65 52.8558 1006.9 50.0225 1006.9 46.4225C1006.9 43.2891 1006.68 40.5725 1006.25 38.2725C1005.85 35.9391 1005.23 34.1391 1004.4 32.8725C1003.56 31.5725 1002.51 30.9225 1001.25 30.9225C1000.31 30.9225 999.431 31.3558 998.597 32.2225C997.797 33.0891 997.147 34.5558 996.647 36.6225C996.181 38.6891 995.947 41.5225 995.947 45.1225C995.947 48.2558 996.147 50.9891 996.547 53.3225C996.981 55.6225 997.614 57.4225 998.447 58.7225C999.281 59.9891 1000.33 60.6225 1001.6 60.6225ZM1043.01 52.7725H1044.16L1043.66 62.0225H1019.56V60.8725C1019.82 60.7391 1020.22 60.5058 1020.76 60.1725C1021.32 59.8391 1021.91 59.4558 1022.51 59.0225C1024.17 57.8225 1025.74 56.4558 1027.21 54.9225C1028.67 53.3891 1029.96 51.7558 1031.06 50.0225C1032.16 48.2891 1033.02 46.5558 1033.66 44.8225C1034.29 43.0891 1034.61 41.4391 1034.61 39.8725C1034.61 38.3725 1034.24 37.1058 1033.51 36.0725C1032.81 35.0391 1031.52 34.5225 1029.66 34.5225C1028.09 34.5225 1026.64 34.9558 1025.31 35.8225C1023.97 36.6891 1022.66 38.0391 1021.36 39.8725L1020.41 39.0725C1021.77 35.6058 1023.49 33.0225 1025.56 31.3225C1027.62 29.6225 1030.21 28.7725 1033.31 28.7725C1035.11 28.7725 1036.72 29.0725 1038.16 29.6725C1039.59 30.2391 1040.72 31.1391 1041.56 32.3725C1042.42 33.5725 1042.86 35.1391 1042.86 37.0725C1042.86 40.5058 1041.76 43.7225 1039.56 46.7225C1037.39 49.7225 1034.36 52.5391 1030.46 55.1725V55.2725H1037.76C1039.66 55.2725 1040.97 55.0391 1041.71 54.5725C1042.44 54.1058 1042.87 53.5058 1043.01 52.7725ZM1070.79 49.2725H1074.29V55.5225H1072.19C1071.26 55.5225 1070.79 56.1058 1070.79 57.2725C1070.79 58.0725 1070.79 58.8558 1070.79 59.6225C1070.82 60.3558 1070.86 61.1558 1070.89 62.0225H1062.99C1063.06 60.9225 1063.11 59.8558 1063.14 58.8225C1063.17 57.7558 1063.21 56.6558 1063.24 55.5225H1047.44V54.3725C1048.31 53.5391 1049.09 52.6725 1049.79 51.7725L1066.14 31.3225C1066.51 30.8558 1066.84 30.4058 1067.14 29.9725C1067.47 29.5058 1067.74 29.1058 1067.94 28.7725H1070.84L1070.79 49.2725ZM1063.14 38.8225L1054.79 49.2725H1063.29V38.8225H1063.14Z" fill="black"/>
<path d="M1146.55 37.0423C1139.57 34.2558 1131.38 35.742 1125.8 41.3149C1118.26 48.8383 1118.26 61.0059 1125.8 68.5294C1131.38 74.1023 1139.57 75.5884 1146.55 72.8019V63.8853C1145.15 64.5354 1143.66 64.907 1142.08 64.907C1136.5 64.907 1132.03 60.4486 1132.03 54.8757C1132.03 49.3028 1136.5 44.8444 1142.08 44.8444C1143.66 44.8444 1145.24 45.2159 1146.55 45.8661V37.0423Z" fill="black"/>
<path d="M1143.39 28.107C1146.14 25.3516 1146.14 20.7909 1143.39 17.9406C1140.64 15.1852 1136.09 15.1852 1133.25 17.9406C1130.4 20.6959 1130.5 25.2566 1133.25 28.107C1136.09 30.8623 1140.64 30.8623 1143.39 28.107Z" fill="black"/>
<path d="M1192.7 62.0225V60.8725C1193.66 60.8058 1194.36 60.5558 1194.8 60.1225C1195.23 59.6891 1195.45 58.6558 1195.45 57.0225V33.7725C1195.45 32.1391 1195.2 31.1058 1194.7 30.6725C1194.23 30.2058 1193.31 29.9558 1191.95 29.9225V28.7725H1206.2V29.9225C1205.23 29.9558 1204.53 30.2058 1204.1 30.6725C1203.66 31.1058 1203.45 32.1391 1203.45 33.7725V57.0225C1203.45 58.6558 1203.7 59.6891 1204.2 60.1225C1204.7 60.5558 1205.61 60.8058 1206.95 60.8725V62.0225H1192.7ZM1241.57 62.4225C1241.07 61.8891 1240.55 61.3725 1240.02 60.8725C1239.49 60.3391 1238.64 59.5558 1237.47 58.5225L1217.77 40.5225H1217.67V57.0225C1217.67 58.1558 1217.95 59.0725 1218.52 59.7725C1219.12 60.4391 1220.14 60.8058 1221.57 60.8725V62.0225H1212.32V60.8725C1213.29 60.8058 1213.99 60.4391 1214.42 59.7725C1214.85 59.0725 1215.07 58.1558 1215.07 57.0225V33.7725C1215.07 32.1391 1214.82 31.1058 1214.32 30.6725C1213.85 30.2058 1212.94 29.9558 1211.57 29.9225V28.7725H1217.57C1218.07 29.4058 1218.6 29.9725 1219.17 30.4725C1219.74 30.9725 1220.39 31.5725 1221.12 32.2725L1241.02 50.2725H1241.12V33.7725C1241.12 32.6391 1240.84 31.7225 1240.27 31.0225C1239.7 30.3225 1238.69 29.9558 1237.22 29.9225V28.7725H1246.47V29.9225C1245.5 29.9558 1244.8 30.3225 1244.37 31.0225C1243.94 31.7225 1243.72 32.6391 1243.72 33.7725V57.0225C1243.72 57.9558 1243.72 58.8558 1243.72 59.7225C1243.75 60.5558 1243.79 61.4558 1243.82 62.4225H1241.57ZM1250.43 28.7725H1278.93V37.0225H1277.78C1277.58 35.2225 1277.04 33.7558 1276.18 32.6225C1275.31 31.4891 1273.83 30.9225 1271.73 30.9225H1268.68V57.0225C1268.68 58.6558 1268.93 59.6891 1269.43 60.1225C1269.93 60.5558 1270.84 60.8058 1272.18 60.8725V62.0225H1257.93V60.8725C1258.89 60.8058 1259.59 60.5558 1260.03 60.1225C1260.46 59.6891 1260.68 58.6558 1260.68 57.0225V30.9225H1257.58C1255.54 30.9225 1254.08 31.4891 1253.18 32.6225C1252.31 33.7558 1251.78 35.2225 1251.58 37.0225H1250.43V28.7725ZM1283.46 62.0225V60.8725C1284.43 60.8058 1285.13 60.5558 1285.56 60.1225C1286 59.6891 1286.21 58.6558 1286.21 57.0225V33.7725C1286.21 32.1391 1285.96 31.1058 1285.46 30.6725C1285 30.2058 1284.08 29.9558 1282.71 29.9225V28.7725H1307.26V35.7725H1306.11C1306.05 34.3391 1305.55 33.1725 1304.61 32.2725C1303.71 31.3725 1302.31 30.9225 1300.41 30.9225H1296.41C1295.71 30.9225 1295.16 31.1058 1294.76 31.4725C1294.4 31.8391 1294.21 32.6058 1294.21 33.7725V43.6225C1294.48 43.4225 1294.8 43.2891 1295.16 43.2225C1295.56 43.1558 1296.03 43.1225 1296.56 43.1225H1301.41C1302.41 43.1225 1303.25 42.8391 1303.91 42.2725C1304.58 41.7058 1304.93 40.9225 1304.96 39.9225H1306.11V48.4225H1304.96C1304.93 47.1891 1304.58 46.3558 1303.91 45.9225C1303.25 45.4891 1302.41 45.2725 1301.41 45.2725H1296.66C1295.76 45.2725 1295.13 45.4225 1294.76 45.7225C1294.4 46.0225 1294.21 46.6058 1294.21 47.4725V57.0225C1294.21 58.1891 1294.46 58.9558 1294.96 59.3225C1295.5 59.6891 1296.51 59.8725 1298.01 59.8725H1302.76C1304.76 59.8725 1306.35 59.2725 1307.51 58.0725C1308.68 56.8725 1309.33 55.4391 1309.46 53.7725H1310.61L1310.21 62.0225H1283.46ZM1344.16 62.7725C1342.66 62.7725 1341.37 62.5225 1340.31 62.0225C1339.24 61.5558 1338.34 60.9225 1337.61 60.1225C1336.87 59.3225 1336.19 58.4391 1335.56 57.4725L1328.56 46.5725C1328.22 46.0058 1327.92 45.6558 1327.66 45.5225C1327.39 45.3891 1327.07 45.3058 1326.71 45.2725V43.5225C1328.71 43.3891 1330.26 42.9891 1331.36 42.3225C1332.46 41.6558 1333.22 40.8391 1333.66 39.8725C1334.09 38.8725 1334.31 37.8391 1334.31 36.7725C1334.31 34.7391 1333.74 33.2225 1332.61 32.2225C1331.47 31.1891 1330.17 30.6725 1328.71 30.6725C1327.61 30.6725 1326.82 30.8725 1326.36 31.2725C1325.92 31.6391 1325.71 32.4725 1325.71 33.7725V57.0225C1325.71 58.6558 1325.96 59.6891 1326.46 60.1225C1326.96 60.5558 1327.87 60.8058 1329.21 60.8725V62.0225H1314.96V60.8725C1315.92 60.8058 1316.62 60.5558 1317.06 60.1225C1317.49 59.6891 1317.71 58.6558 1317.71 57.0225V33.7725C1317.71 32.1391 1317.46 31.1058 1316.96 30.6725C1316.49 30.2058 1315.57 29.9558 1314.21 29.9225V28.7725H1317.71C1320.21 28.7725 1322.47 28.7391 1324.51 28.6725C1326.54 28.5725 1328.27 28.5225 1329.71 28.5225C1333.01 28.5225 1335.62 28.8391 1337.56 29.4725C1339.52 30.0725 1340.92 30.9225 1341.76 32.0225C1342.62 33.1225 1343.06 34.3725 1343.06 35.7725C1343.06 37.1058 1342.72 38.3225 1342.06 39.4225C1341.42 40.5225 1340.57 41.4558 1339.51 42.2225C1338.47 42.9558 1337.34 43.4725 1336.11 43.7725V43.8725L1344.41 56.8725C1345.37 58.4058 1346.26 59.4558 1347.06 60.0225C1347.86 60.5891 1348.57 60.8725 1349.21 60.8725V62.0225C1348.54 62.2558 1347.74 62.4391 1346.81 62.5725C1345.91 62.7058 1345.02 62.7725 1344.16 62.7725ZM1367.77 62.7725C1364.27 62.7725 1361.17 62.0725 1358.47 60.6725C1355.77 59.2725 1353.65 57.3058 1352.12 54.7725C1350.59 52.2058 1349.82 49.2391 1349.82 45.8725C1349.82 43.1058 1350.32 40.6391 1351.32 38.4725C1352.32 36.2725 1353.69 34.3891 1355.42 32.8225C1357.19 31.2558 1359.2 30.0725 1361.47 29.2725C1363.77 28.4391 1366.22 28.0225 1368.82 28.0225C1370.79 28.0225 1372.67 28.2058 1374.47 28.5725C1376.27 28.9391 1377.7 29.3725 1378.77 29.8725V37.7725H1377.62C1376.95 35.7391 1376.15 34.1891 1375.22 33.1225C1374.29 32.0225 1373.24 31.2558 1372.07 30.8225C1370.94 30.3891 1369.74 30.1725 1368.47 30.1725C1362.04 30.1725 1358.82 34.8391 1358.82 44.1725C1358.82 47.2391 1359.14 50.0225 1359.77 52.5225C1360.44 55.0225 1361.45 57.0058 1362.82 58.4725C1364.22 59.9058 1366 60.6225 1368.17 60.6225C1369.94 60.6225 1371.54 60.1891 1372.97 59.3225C1374.4 58.4225 1375.62 57.2391 1376.62 55.7725C1377.65 54.3058 1378.39 52.7225 1378.82 51.0225H1379.97L1379.57 58.6225C1378.47 59.8225 1376.92 60.8225 1374.92 61.6225C1372.92 62.3891 1370.54 62.7725 1367.77 62.7725ZM1401.15 28.0225C1403.51 28.0225 1405.71 28.4225 1407.75 29.2225C1409.78 30.0225 1411.58 31.1891 1413.15 32.7225C1414.71 34.2225 1415.93 36.0391 1416.8 38.1725C1417.66 40.3058 1418.1 42.6891 1418.1 45.3225C1418.1 47.9558 1417.66 50.3391 1416.8 52.4725C1415.93 54.6058 1414.71 56.4391 1413.15 57.9725C1411.61 59.5058 1409.81 60.6891 1407.75 61.5225C1405.68 62.3558 1403.46 62.7725 1401.1 62.7725C1398.76 62.7725 1396.56 62.3725 1394.5 61.5725C1392.46 60.7725 1390.66 59.6225 1389.1 58.1225C1387.53 56.5891 1386.31 54.7558 1385.45 52.6225C1384.58 50.4891 1384.15 48.1058 1384.15 45.4725C1384.15 42.8391 1384.58 40.4558 1385.45 38.3225C1386.31 36.1891 1387.51 34.3558 1389.05 32.8225C1390.61 31.2891 1392.43 30.1058 1394.5 29.2725C1396.56 28.4391 1398.78 28.0225 1401.15 28.0225ZM1402.15 60.6225C1403.88 60.6225 1405.25 60.0558 1406.25 58.9225C1407.25 57.7558 1407.96 56.1558 1408.4 54.1225C1408.86 52.0891 1409.1 49.7225 1409.1 47.0225C1409.1 41.5891 1408.26 37.4225 1406.6 34.5225C1404.96 31.6225 1402.8 30.1725 1400.1 30.1725C1398.4 30.1725 1397.03 30.7391 1396 31.8725C1395 33.0058 1394.26 34.6058 1393.8 36.6725C1393.36 38.7058 1393.15 41.0725 1393.15 43.7725C1393.15 49.2058 1393.96 53.3725 1395.6 56.2725C1397.26 59.1725 1399.45 60.6225 1402.15 60.6225ZM1441.24 62.4225C1440.98 61.6558 1440.64 60.8725 1440.24 60.0725C1439.88 59.2391 1439.38 58.1558 1438.74 56.8225L1429.74 38.0225H1429.64L1428.74 57.0225C1428.71 58.1558 1428.98 59.0725 1429.54 59.7725C1430.11 60.4391 1431.14 60.8058 1432.64 60.8725V62.0225H1423.39V60.8725C1424.36 60.8058 1425.04 60.4391 1425.44 59.7725C1425.88 59.0725 1426.11 58.1558 1426.14 57.0225L1427.19 33.7725C1427.26 32.6058 1427.18 31.7725 1426.94 31.2725C1426.74 30.7725 1426.38 30.4558 1425.84 30.3225C1425.31 30.1558 1424.59 30.0225 1423.69 29.9225V28.7725H1434.39C1434.66 29.6391 1434.96 30.4558 1435.29 31.2225C1435.66 31.9891 1436.06 32.8391 1436.49 33.7725L1445.09 51.7725H1445.19L1453.19 33.7725C1453.96 32.0725 1454.54 30.4058 1454.94 28.7725H1465.54V29.9225C1464.91 29.9558 1464.38 30.0558 1463.94 30.2225C1463.51 30.3891 1463.19 30.7391 1462.99 31.2725C1462.83 31.7725 1462.76 32.6058 1462.79 33.7725L1463.84 57.0225C1463.91 58.0891 1464.04 58.8891 1464.24 59.4225C1464.48 59.9558 1464.84 60.3225 1465.34 60.5225C1465.84 60.6891 1466.51 60.8058 1467.34 60.8725V62.0225H1453.09V60.8725C1454.16 60.8058 1454.89 60.5558 1455.29 60.1225C1455.73 59.6891 1455.91 58.6558 1455.84 57.0225L1454.99 36.5725H1454.89L1445.84 56.8225C1445.21 58.2225 1444.74 59.3225 1444.44 60.1225C1444.18 60.8891 1443.94 61.6558 1443.74 62.4225H1441.24ZM1489.24 62.4225C1488.97 61.6558 1488.64 60.8725 1488.24 60.0725C1487.87 59.2391 1487.37 58.1558 1486.74 56.8225L1477.74 38.0225H1477.64L1476.74 57.0225C1476.71 58.1558 1476.97 59.0725 1477.54 59.7725C1478.11 60.4391 1479.14 60.8058 1480.64 60.8725V62.0225H1471.39V60.8725C1472.36 60.8058 1473.04 60.4391 1473.44 59.7725C1473.87 59.0725 1474.11 58.1558 1474.14 57.0225L1475.19 33.7725C1475.26 32.6058 1475.17 31.7725 1474.94 31.2725C1474.74 30.7725 1474.37 30.4558 1473.84 30.3225C1473.31 30.1558 1472.59 30.0225 1471.69 29.9225V28.7725H1482.39C1482.66 29.6391 1482.96 30.4558 1483.29 31.2225C1483.66 31.9891 1484.06 32.8391 1484.49 33.7725L1493.09 51.7725H1493.19L1501.19 33.7725C1501.96 32.0725 1502.54 30.4058 1502.94 28.7725H1513.54V29.9225C1512.91 29.9558 1512.37 30.0558 1511.94 30.2225C1511.51 30.3891 1511.19 30.7391 1510.99 31.2725C1510.82 31.7725 1510.76 32.6058 1510.79 33.7725L1511.84 57.0225C1511.91 58.0891 1512.04 58.8891 1512.24 59.4225C1512.47 59.9558 1512.84 60.3225 1513.34 60.5225C1513.84 60.6891 1514.51 60.8058 1515.34 60.8725V62.0225H1501.09V60.8725C1502.16 60.8058 1502.89 60.5558 1503.29 60.1225C1503.72 59.6891 1503.91 58.6558 1503.84 57.0225L1502.99 36.5725H1502.89L1493.84 56.8225C1493.21 58.2225 1492.74 59.3225 1492.44 60.1225C1492.17 60.8891 1491.94 61.6558 1491.74 62.4225H1489.24ZM1554.56 52.7725H1555.71L1555.21 62.0225H1531.11V60.8725C1531.38 60.7391 1531.78 60.5058 1532.31 60.1725C1532.88 59.8391 1533.46 59.4558 1534.06 59.0225C1535.73 57.8225 1537.3 56.4558 1538.76 54.9225C1540.23 53.3891 1541.51 51.7558 1542.61 50.0225C1543.71 48.2891 1544.58 46.5558 1545.21 44.8225C1545.85 43.0891 1546.16 41.4391 1546.16 39.8725C1546.16 38.3725 1545.8 37.1058 1545.06 36.0725C1544.36 35.0391 1543.08 34.5225 1541.21 34.5225C1539.65 34.5225 1538.2 34.9558 1536.86 35.8225C1535.53 36.6891 1534.21 38.0391 1532.91 39.8725L1531.96 39.0725C1533.33 35.6058 1535.05 33.0225 1537.11 31.3225C1539.18 29.6225 1541.76 28.7725 1544.86 28.7725C1546.66 28.7725 1548.28 29.0725 1549.71 29.6725C1551.15 30.2391 1552.28 31.1391 1553.11 32.3725C1553.98 33.5725 1554.41 35.1391 1554.41 37.0725C1554.41 40.5058 1553.31 43.7225 1551.11 46.7225C1548.95 49.7225 1545.91 52.5391 1542.01 55.1725V55.2725H1549.31C1551.21 55.2725 1552.53 55.0391 1553.26 54.5725C1554 54.1058 1554.43 53.5058 1554.56 52.7725ZM1575.85 28.7725C1577.58 28.7725 1579.28 29.1058 1580.95 29.7725C1582.61 30.4391 1584.11 31.4725 1585.45 32.8725C1586.78 34.2725 1587.83 36.0391 1588.6 38.1725C1589.4 40.2725 1589.8 42.7725 1589.8 45.6725C1589.8 48.5391 1589.41 51.0391 1588.65 53.1725C1587.88 55.3058 1586.83 57.0891 1585.5 58.5225C1584.16 59.9558 1582.66 61.0225 1581 61.7225C1579.33 62.4225 1577.6 62.7725 1575.8 62.7725C1574.06 62.7725 1572.36 62.4391 1570.7 61.7725C1569.03 61.1058 1567.53 60.0725 1566.2 58.6725C1564.86 57.2725 1563.8 55.5225 1563 53.4225C1562.23 51.2891 1561.85 48.7725 1561.85 45.8725C1561.85 43.0058 1562.23 40.5058 1563 38.3725C1563.76 36.2391 1564.81 34.4558 1566.15 33.0225C1567.48 31.5891 1568.98 30.5225 1570.65 29.8225C1572.31 29.1225 1574.05 28.7725 1575.85 28.7725ZM1576 60.6225C1576.96 60.6225 1577.85 60.1891 1578.65 59.3225C1579.45 58.4558 1580.08 56.9891 1580.55 54.9225C1581.05 52.8558 1581.3 50.0225 1581.3 46.4225C1581.3 43.2891 1581.08 40.5725 1580.65 38.2725C1580.25 35.9391 1579.63 34.1391 1578.8 32.8725C1577.96 31.5725 1576.91 30.9225 1575.65 30.9225C1574.71 30.9225 1573.83 31.3558 1573 32.2225C1572.2 33.0891 1571.55 34.5558 1571.05 36.6225C1570.58 38.6891 1570.35 41.5225 1570.35 45.1225C1570.35 48.2558 1570.55 50.9891 1570.95 53.3225C1571.38 55.6225 1572.01 57.4225 1572.85 58.7225C1573.68 59.9891 1574.73 60.6225 1576 60.6225ZM1617.41 52.7725H1618.56L1618.06 62.0225H1593.96V60.8725C1594.22 60.7391 1594.62 60.5058 1595.16 60.1725C1595.72 59.8391 1596.31 59.4558 1596.91 59.0225C1598.57 57.8225 1600.14 56.4558 1601.61 54.9225C1603.07 53.3891 1604.36 51.7558 1605.46 50.0225C1606.56 48.2891 1607.42 46.5558 1608.06 44.8225C1608.69 43.0891 1609.01 41.4391 1609.01 39.8725C1609.01 38.3725 1608.64 37.1058 1607.91 36.0725C1607.21 35.0391 1605.92 34.5225 1604.06 34.5225C1602.49 34.5225 1601.04 34.9558 1599.71 35.8225C1598.37 36.6891 1597.06 38.0391 1595.76 39.8725L1594.81 39.0725C1596.17 35.6058 1597.89 33.0225 1599.96 31.3225C1602.02 29.6225 1604.61 28.7725 1607.71 28.7725C1609.51 28.7725 1611.12 29.0725 1612.56 29.6725C1613.99 30.2391 1615.12 31.1391 1615.96 32.3725C1616.82 33.5725 1617.26 35.1391 1617.26 37.0725C1617.26 40.5058 1616.16 43.7225 1613.96 46.7225C1611.79 49.7225 1608.76 52.5391 1604.86 55.1725V55.2725H1612.16C1614.06 55.2725 1615.37 55.0391 1616.11 54.5725C1616.84 54.1058 1617.27 53.5058 1617.41 52.7725ZM1645.19 49.2725H1648.69V55.5225H1646.59C1645.65 55.5225 1645.19 56.1058 1645.19 57.2725C1645.19 58.0725 1645.19 58.8558 1645.19 59.6225C1645.22 60.3558 1645.25 61.1558 1645.29 62.0225H1637.39C1637.45 60.9225 1637.5 59.8558 1637.54 58.8225C1637.57 57.7558 1637.6 56.6558 1637.64 55.5225H1621.84V54.3725C1622.7 53.5391 1623.49 52.6725 1624.19 51.7725L1640.54 31.3225C1640.9 30.8558 1641.24 30.4058 1641.54 29.9725C1641.87 29.5058 1642.14 29.1058 1642.34 28.7725H1645.24L1645.19 49.2725ZM1637.54 38.8225L1629.19 49.2725H1637.69V38.8225H1637.54Z" fill="black"/>
<path d="M1720.95 37.0423C1713.97 34.2558 1705.78 35.742 1700.2 41.3149C1692.66 48.8383 1692.66 61.0059 1700.2 68.5294C1705.78 74.1023 1713.97 75.5884 1720.95 72.8019V63.8853C1719.55 64.5354 1718.06 64.907 1716.48 64.907C1710.9 64.907 1706.43 60.4486 1706.43 54.8757C1706.43 49.3028 1710.9 44.8444 1716.48 44.8444C1718.06 44.8444 1719.64 45.2159 1720.95 45.8661V37.0423Z" fill="black"/>
<path d="M1717.78 28.107C1720.53 25.3516 1720.53 20.7909 1717.78 17.9406C1715.04 15.1852 1710.49 15.1852 1707.64 17.9406C1704.8 20.6959 1704.9 25.2566 1707.64 28.107C1710.49 30.8623 1715.04 30.8623 1717.78 28.107Z" fill="black"/>
<path d="M1767.1 62.0225V60.8725C1768.06 60.8058 1768.76 60.5558 1769.2 60.1225C1769.63 59.6891 1769.85 58.6558 1769.85 57.0225V33.7725C1769.85 32.1391 1769.6 31.1058 1769.1 30.6725C1768.63 30.2058 1767.71 29.9558 1766.35 29.9225V28.7725H1780.6V29.9225C1779.63 29.9558 1778.93 30.2058 1778.5 30.6725C1778.06 31.1058 1777.85 32.1391 1777.85 33.7725V57.0225C1777.85 58.6558 1778.1 59.6891 1778.6 60.1225C1779.1 60.5558 1780.01 60.8058 1781.35 60.8725V62.0225H1767.1ZM1815.97 62.4225C1815.47 61.8891 1814.95 61.3725 1814.42 60.8725C1813.89 60.3391 1813.04 59.5558 1811.87 58.5225L1792.17 40.5225H1792.07V57.0225C1792.07 58.1558 1792.35 59.0725 1792.92 59.7725C1793.52 60.4391 1794.54 60.8058 1795.97 60.8725V62.0225H1786.72V60.8725C1787.69 60.8058 1788.39 60.4391 1788.82 59.7725C1789.25 59.0725 1789.47 58.1558 1789.47 57.0225V33.7725C1789.47 32.1391 1789.22 31.1058 1788.72 30.6725C1788.25 30.2058 1787.34 29.9558 1785.97 29.9225V28.7725H1791.97C1792.47 29.4058 1793 29.9725 1793.57 30.4725C1794.14 30.9725 1794.79 31.5725 1795.52 32.2725L1815.42 50.2725H1815.52V33.7725C1815.52 32.6391 1815.24 31.7225 1814.67 31.0225C1814.1 30.3225 1813.09 29.9558 1811.62 29.9225V28.7725H1820.87V29.9225C1819.9 29.9558 1819.2 30.3225 1818.77 31.0225C1818.34 31.7225 1818.12 32.6391 1818.12 33.7725V57.0225C1818.12 57.9558 1818.12 58.8558 1818.12 59.7225C1818.15 60.5558 1818.19 61.4558 1818.22 62.4225H1815.97ZM1824.82 28.7725H1853.32V37.0225H1852.17C1851.97 35.2225 1851.44 33.7558 1850.57 32.6225C1849.71 31.4891 1848.22 30.9225 1846.12 30.9225H1843.07V57.0225C1843.07 58.6558 1843.32 59.6891 1843.82 60.1225C1844.32 60.5558 1845.24 60.8058 1846.57 60.8725V62.0225H1832.32V60.8725C1833.29 60.8058 1833.99 60.5558 1834.42 60.1225C1834.86 59.6891 1835.07 58.6558 1835.07 57.0225V30.9225H1831.97C1829.94 30.9225 1828.47 31.4891 1827.57 32.6225C1826.71 33.7558 1826.17 35.2225 1825.97 37.0225H1824.82V28.7725ZM1857.86 62.0225V60.8725C1858.83 60.8058 1859.53 60.5558 1859.96 60.1225C1860.39 59.6891 1860.61 58.6558 1860.61 57.0225V33.7725C1860.61 32.1391 1860.36 31.1058 1859.86 30.6725C1859.39 30.2058 1858.48 29.9558 1857.11 29.9225V28.7725H1881.66V35.7725H1880.51C1880.44 34.3391 1879.94 33.1725 1879.01 32.2725C1878.11 31.3725 1876.71 30.9225 1874.81 30.9225H1870.81C1870.11 30.9225 1869.56 31.1058 1869.16 31.4725C1868.79 31.8391 1868.61 32.6058 1868.61 33.7725V43.6225C1868.88 43.4225 1869.19 43.2891 1869.56 43.2225C1869.96 43.1558 1870.43 43.1225 1870.96 43.1225H1875.81C1876.81 43.1225 1877.64 42.8391 1878.31 42.2725C1878.98 41.7058 1879.33 40.9225 1879.36 39.9225H1880.51V48.4225H1879.36C1879.33 47.1891 1878.98 46.3558 1878.31 45.9225C1877.64 45.4891 1876.81 45.2725 1875.81 45.2725H1871.06C1870.16 45.2725 1869.53 45.4225 1869.16 45.7225C1868.79 46.0225 1868.61 46.6058 1868.61 47.4725V57.0225C1868.61 58.1891 1868.86 58.9558 1869.36 59.3225C1869.89 59.6891 1870.91 59.8725 1872.41 59.8725H1877.16C1879.16 59.8725 1880.74 59.2725 1881.91 58.0725C1883.08 56.8725 1883.73 55.4391 1883.86 53.7725H1885.01L1884.61 62.0225H1857.86ZM1918.56 62.7725C1917.06 62.7725 1915.77 62.5225 1914.71 62.0225C1913.64 61.5558 1912.74 60.9225 1912.01 60.1225C1911.27 59.3225 1910.59 58.4391 1909.96 57.4725L1902.96 46.5725C1902.62 46.0058 1902.32 45.6558 1902.06 45.5225C1901.79 45.3891 1901.47 45.3058 1901.11 45.2725V43.5225C1903.11 43.3891 1904.66 42.9891 1905.76 42.3225C1906.86 41.6558 1907.62 40.8391 1908.06 39.8725C1908.49 38.8725 1908.71 37.8391 1908.71 36.7725C1908.71 34.7391 1908.14 33.2225 1907.01 32.2225C1905.87 31.1891 1904.57 30.6725 1903.11 30.6725C1902.01 30.6725 1901.22 30.8725 1900.76 31.2725C1900.32 31.6391 1900.11 32.4725 1900.11 33.7725V57.0225C1900.11 58.6558 1900.36 59.6891 1900.86 60.1225C1901.36 60.5558 1902.27 60.8058 1903.61 60.8725V62.0225H1889.36V60.8725C1890.32 60.8058 1891.02 60.5558 1891.46 60.1225C1891.89 59.6891 1892.11 58.6558 1892.11 57.0225V33.7725C1892.11 32.1391 1891.86 31.1058 1891.36 30.6725C1890.89 30.2058 1889.97 29.9558 1888.61 29.9225V28.7725H1892.11C1894.61 28.7725 1896.87 28.7391 1898.91 28.6725C1900.94 28.5725 1902.67 28.5225 1904.11 28.5225C1907.41 28.5225 1910.02 28.8391 1911.96 29.4725C1913.92 30.0725 1915.32 30.9225 1916.16 32.0225C1917.02 33.1225 1917.46 34.3725 1917.46 35.7725C1917.46 37.1058 1917.12 38.3225 1916.46 39.4225C1915.82 40.5225 1914.97 41.4558 1913.91 42.2225C1912.87 42.9558 1911.74 43.4725 1910.51 43.7725V43.8725L1918.81 56.8725C1919.77 58.4058 1920.66 59.4558 1921.46 60.0225C1922.26 60.5891 1922.97 60.8725 1923.61 60.8725V62.0225C1922.94 62.2558 1922.14 62.4391 1921.21 62.5725C1920.31 62.7058 1919.42 62.7725 1918.56 62.7725ZM1942.17 62.7725C1938.67 62.7725 1935.57 62.0725 1932.87 60.6725C1930.17 59.2725 1928.05 57.3058 1926.52 54.7725C1924.99 52.2058 1924.22 49.2391 1924.22 45.8725C1924.22 43.1058 1924.72 40.6391 1925.72 38.4725C1926.72 36.2725 1928.09 34.3891 1929.82 32.8225C1931.59 31.2558 1933.6 30.0725 1935.87 29.2725C1938.17 28.4391 1940.62 28.0225 1943.22 28.0225C1945.19 28.0225 1947.07 28.2058 1948.87 28.5725C1950.67 28.9391 1952.1 29.3725 1953.17 29.8725V37.7725H1952.02C1951.35 35.7391 1950.55 34.1891 1949.62 33.1225C1948.69 32.0225 1947.64 31.2558 1946.47 30.8225C1945.34 30.3891 1944.14 30.1725 1942.87 30.1725C1936.44 30.1725 1933.22 34.8391 1933.22 44.1725C1933.22 47.2391 1933.54 50.0225 1934.17 52.5225C1934.84 55.0225 1935.85 57.0058 1937.22 58.4725C1938.62 59.9058 1940.4 60.6225 1942.57 60.6225C1944.34 60.6225 1945.94 60.1891 1947.37 59.3225C1948.8 58.4225 1950.02 57.2391 1951.02 55.7725C1952.05 54.3058 1952.79 52.7225 1953.22 51.0225H1954.37L1953.97 58.6225C1952.87 59.8225 1951.32 60.8225 1949.32 61.6225C1947.32 62.3891 1944.94 62.7725 1942.17 62.7725ZM1975.54 28.0225C1977.91 28.0225 1980.11 28.4225 1982.14 29.2225C1984.18 30.0225 1985.98 31.1891 1987.54 32.7225C1989.11 34.2225 1990.33 36.0391 1991.19 38.1725C1992.06 40.3058 1992.49 42.6891 1992.49 45.3225C1992.49 47.9558 1992.06 50.3391 1991.19 52.4725C1990.33 54.6058 1989.11 56.4391 1987.54 57.9725C1986.01 59.5058 1984.21 60.6891 1982.14 61.5225C1980.08 62.3558 1977.86 62.7725 1975.49 62.7725C1973.16 62.7725 1970.96 62.3725 1968.89 61.5725C1966.86 60.7725 1965.06 59.6225 1963.49 58.1225C1961.93 56.5891 1960.71 54.7558 1959.84 52.6225C1958.98 50.4891 1958.54 48.1058 1958.54 45.4725C1958.54 42.8391 1958.98 40.4558 1959.84 38.3225C1960.71 36.1891 1961.91 34.3558 1963.44 32.8225C1965.01 31.2891 1966.83 30.1058 1968.89 29.2725C1970.96 28.4391 1973.18 28.0225 1975.54 28.0225ZM1976.54 60.6225C1978.28 60.6225 1979.64 60.0558 1980.64 58.9225C1981.64 57.7558 1982.36 56.1558 1982.79 54.1225C1983.26 52.0891 1983.49 49.7225 1983.49 47.0225C1983.49 41.5891 1982.66 37.4225 1980.99 34.5225C1979.36 31.6225 1977.19 30.1725 1974.49 30.1725C1972.79 30.1725 1971.43 30.7391 1970.39 31.8725C1969.39 33.0058 1968.66 34.6058 1968.19 36.6725C1967.76 38.7058 1967.54 41.0725 1967.54 43.7725C1967.54 49.2058 1968.36 53.3725 1969.99 56.2725C1971.66 59.1725 1973.84 60.6225 1976.54 60.6225ZM2015.64 62.4225C2015.37 61.6558 2015.04 60.8725 2014.64 60.0725C2014.27 59.2391 2013.77 58.1558 2013.14 56.8225L2004.14 38.0225H2004.04L2003.14 57.0225C2003.11 58.1558 2003.37 59.0725 2003.94 59.7725C2004.51 60.4391 2005.54 60.8058 2007.04 60.8725V62.0225H1997.79V60.8725C1998.76 60.8058 1999.44 60.4391 1999.84 59.7725C2000.27 59.0725 2000.51 58.1558 2000.54 57.0225L2001.59 33.7725C2001.66 32.6058 2001.57 31.7725 2001.34 31.2725C2001.14 30.7725 2000.77 30.4558 2000.24 30.3225C1999.71 30.1558 1998.99 30.0225 1998.09 29.9225V28.7725H2008.79C2009.06 29.6391 2009.36 30.4558 2009.69 31.2225C2010.06 31.9891 2010.46 32.8391 2010.89 33.7725L2019.49 51.7725H2019.59L2027.59 33.7725C2028.36 32.0725 2028.94 30.4058 2029.34 28.7725H2039.94V29.9225C2039.31 29.9558 2038.77 30.0558 2038.34 30.2225C2037.91 30.3891 2037.59 30.7391 2037.39 31.2725C2037.22 31.7725 2037.16 32.6058 2037.19 33.7725L2038.24 57.0225C2038.31 58.0891 2038.44 58.8891 2038.64 59.4225C2038.87 59.9558 2039.24 60.3225 2039.74 60.5225C2040.24 60.6891 2040.91 60.8058 2041.74 60.8725V62.0225H2027.49V60.8725C2028.56 60.8058 2029.29 60.5558 2029.69 60.1225C2030.12 59.6891 2030.31 58.6558 2030.24 57.0225L2029.39 36.5725H2029.29L2020.24 56.8225C2019.61 58.2225 2019.14 59.3225 2018.84 60.1225C2018.57 60.8891 2018.34 61.6558 2018.14 62.4225H2015.64ZM2063.64 62.4225C2063.37 61.6558 2063.04 60.8725 2062.64 60.0725C2062.27 59.2391 2061.77 58.1558 2061.14 56.8225L2052.14 38.0225H2052.04L2051.14 57.0225C2051.11 58.1558 2051.37 59.0725 2051.94 59.7725C2052.51 60.4391 2053.54 60.8058 2055.04 60.8725V62.0225H2045.79V60.8725C2046.76 60.8058 2047.44 60.4391 2047.84 59.7725C2048.27 59.0725 2048.51 58.1558 2048.54 57.0225L2049.59 33.7725C2049.66 32.6058 2049.57 31.7725 2049.34 31.2725C2049.14 30.7725 2048.77 30.4558 2048.24 30.3225C2047.71 30.1558 2046.99 30.0225 2046.09 29.9225V28.7725H2056.79C2057.06 29.6391 2057.36 30.4558 2057.69 31.2225C2058.06 31.9891 2058.46 32.8391 2058.89 33.7725L2067.49 51.7725H2067.59L2075.59 33.7725C2076.36 32.0725 2076.94 30.4058 2077.34 28.7725H2087.94V29.9225C2087.31 29.9558 2086.77 30.0558 2086.34 30.2225C2085.91 30.3891 2085.59 30.7391 2085.39 31.2725C2085.22 31.7725 2085.16 32.6058 2085.19 33.7725L2086.24 57.0225C2086.31 58.0891 2086.44 58.8891 2086.64 59.4225C2086.87 59.9558 2087.24 60.3225 2087.74 60.5225C2088.24 60.6891 2088.91 60.8058 2089.74 60.8725V62.0225H2075.49V60.8725C2076.56 60.8058 2077.29 60.5558 2077.69 60.1225C2078.12 59.6891 2078.31 58.6558 2078.24 57.0225L2077.39 36.5725H2077.29L2068.24 56.8225C2067.61 58.2225 2067.14 59.3225 2066.84 60.1225C2066.57 60.8891 2066.34 61.6558 2066.14 62.4225H2063.64ZM2128.96 52.7725H2130.11L2129.61 62.0225H2105.51V60.8725C2105.78 60.7391 2106.18 60.5058 2106.71 60.1725C2107.28 59.8391 2107.86 59.4558 2108.46 59.0225C2110.13 57.8225 2111.7 56.4558 2113.16 54.9225C2114.63 53.3891 2115.91 51.7558 2117.01 50.0225C2118.11 48.2891 2118.98 46.5558 2119.61 44.8225C2120.25 43.0891 2120.56 41.4391 2120.56 39.8725C2120.56 38.3725 2120.2 37.1058 2119.46 36.0725C2118.76 35.0391 2117.48 34.5225 2115.61 34.5225C2114.05 34.5225 2112.6 34.9558 2111.26 35.8225C2109.93 36.6891 2108.61 38.0391 2107.31 39.8725L2106.36 39.0725C2107.73 35.6058 2109.45 33.0225 2111.51 31.3225C2113.58 29.6225 2116.16 28.7725 2119.26 28.7725C2121.06 28.7725 2122.68 29.0725 2124.11 29.6725C2125.55 30.2391 2126.68 31.1391 2127.51 32.3725C2128.38 33.5725 2128.81 35.1391 2128.81 37.0725C2128.81 40.5058 2127.71 43.7225 2125.51 46.7225C2123.35 49.7225 2120.31 52.5391 2116.41 55.1725V55.2725H2123.71C2125.61 55.2725 2126.93 55.0391 2127.66 54.5725C2128.4 54.1058 2128.83 53.5058 2128.96 52.7725ZM2150.24 28.7725C2151.98 28.7725 2153.68 29.1058 2155.34 29.7725C2157.01 30.4391 2158.51 31.4725 2159.84 32.8725C2161.18 34.2725 2162.23 36.0391 2162.99 38.1725C2163.79 40.2725 2164.19 42.7725 2164.19 45.6725C2164.19 48.5391 2163.81 51.0391 2163.04 53.1725C2162.28 55.3058 2161.23 57.0891 2159.89 58.5225C2158.56 59.9558 2157.06 61.0225 2155.39 61.7225C2153.73 62.4225 2151.99 62.7725 2150.19 62.7725C2148.46 62.7725 2146.76 62.4391 2145.09 61.7725C2143.43 61.1058 2141.93 60.0725 2140.59 58.6725C2139.26 57.2725 2138.19 55.5225 2137.39 53.4225C2136.63 51.2891 2136.24 48.7725 2136.24 45.8725C2136.24 43.0058 2136.63 40.5058 2137.39 38.3725C2138.16 36.2391 2139.21 34.4558 2140.54 33.0225C2141.88 31.5891 2143.38 30.5225 2145.04 29.8225C2146.71 29.1225 2148.44 28.7725 2150.24 28.7725ZM2150.39 60.6225C2151.36 60.6225 2152.24 60.1891 2153.04 59.3225C2153.84 58.4558 2154.48 56.9891 2154.94 54.9225C2155.44 52.8558 2155.69 50.0225 2155.69 46.4225C2155.69 43.2891 2155.48 40.5725 2155.04 38.2725C2154.64 35.9391 2154.03 34.1391 2153.19 32.8725C2152.36 31.5725 2151.31 30.9225 2150.04 30.9225C2149.11 30.9225 2148.23 31.3558 2147.39 32.2225C2146.59 33.0891 2145.94 34.5558 2145.44 36.6225C2144.98 38.6891 2144.74 41.5225 2144.74 45.1225C2144.74 48.2558 2144.94 50.9891 2145.34 53.3225C2145.78 55.6225 2146.41 57.4225 2147.24 58.7225C2148.08 59.9891 2149.13 60.6225 2150.39 60.6225ZM2191.81 52.7725H2192.96L2192.46 62.0225H2168.36V60.8725C2168.62 60.7391 2169.02 60.5058 2169.56 60.1725C2170.12 59.8391 2170.71 59.4558 2171.31 59.0225C2172.97 57.8225 2174.54 56.4558 2176.01 54.9225C2177.47 53.3891 2178.76 51.7558 2179.86 50.0225C2180.96 48.2891 2181.82 46.5558 2182.46 44.8225C2183.09 43.0891 2183.41 41.4391 2183.41 39.8725C2183.41 38.3725 2183.04 37.1058 2182.31 36.0725C2181.61 35.0391 2180.32 34.5225 2178.46 34.5225C2176.89 34.5225 2175.44 34.9558 2174.11 35.8225C2172.77 36.6891 2171.46 38.0391 2170.16 39.8725L2169.21 39.0725C2170.57 35.6058 2172.29 33.0225 2174.36 31.3225C2176.42 29.6225 2179.01 28.7725 2182.11 28.7725C2183.91 28.7725 2185.52 29.0725 2186.96 29.6725C2188.39 30.2391 2189.52 31.1391 2190.36 32.3725C2191.22 33.5725 2191.66 35.1391 2191.66 37.0725C2191.66 40.5058 2190.56 43.7225 2188.36 46.7225C2186.19 49.7225 2183.16 52.5391 2179.26 55.1725V55.2725H2186.56C2188.46 55.2725 2189.77 55.0391 2190.51 54.5725C2191.24 54.1058 2191.67 53.5058 2191.81 52.7725ZM2219.59 49.2725H2223.09V55.5225H2220.99C2220.05 55.5225 2219.59 56.1058 2219.59 57.2725C2219.59 58.0725 2219.59 58.8558 2219.59 59.6225C2219.62 60.3558 2219.65 61.1558 2219.69 62.0225H2211.79C2211.85 60.9225 2211.9 59.8558 2211.94 58.8225C2211.97 57.7558 2212 56.6558 2212.04 55.5225H2196.24V54.3725C2197.1 53.5391 2197.89 52.6725 2198.59 51.7725L2214.94 31.3225C2215.3 30.8558 2215.64 30.4058 2215.94 29.9725C2216.27 29.5058 2216.54 29.1058 2216.74 28.7725H2219.64L2219.59 49.2725ZM2211.94 38.8225L2203.59 49.2725H2212.09V38.8225H2211.94Z" fill="black"/>
<path d="M2295.34 37.0423C2288.37 34.2558 2280.18 35.742 2274.6 41.3149C2267.06 48.8383 2267.06 61.0059 2274.6 68.5294C2280.18 74.1023 2288.37 75.5884 2295.34 72.8019V63.8853C2293.95 64.5354 2292.46 64.907 2290.88 64.907C2285.3 64.907 2280.83 60.4486 2280.83 54.8757C2280.83 49.3028 2285.3 44.8444 2290.88 44.8444C2292.46 44.8444 2294.04 45.2159 2295.34 45.8661V37.0423Z" fill="black"/>
<path d="M2292.18 28.107C2294.93 25.3516 2294.93 20.7909 2292.18 17.9406C2289.43 15.1852 2284.89 15.1852 2282.04 17.9406C2279.2 20.6959 2279.29 25.2566 2282.04 28.107C2284.89 30.8623 2289.43 30.8623 2292.18 28.107Z" fill="black"/>
<path d="M2341.49 62.0225V60.8725C2342.46 60.8058 2343.16 60.5558 2343.59 60.1225C2344.03 59.6891 2344.24 58.6558 2344.24 57.0225V33.7725C2344.24 32.1391 2343.99 31.1058 2343.49 30.6725C2343.03 30.2058 2342.11 29.9558 2340.74 29.9225V28.7725H2354.99V29.9225C2354.03 29.9558 2353.33 30.2058 2352.89 30.6725C2352.46 31.1058 2352.24 32.1391 2352.24 33.7725V57.0225C2352.24 58.6558 2352.49 59.6891 2352.99 60.1225C2353.49 60.5558 2354.41 60.8058 2355.74 60.8725V62.0225H2341.49ZM2390.37 62.4225C2389.87 61.8891 2389.35 61.3725 2388.82 60.8725C2388.28 60.3391 2387.43 59.5558 2386.27 58.5225L2366.57 40.5225H2366.47V57.0225C2366.47 58.1558 2366.75 59.0725 2367.32 59.7725C2367.92 60.4391 2368.93 60.8058 2370.37 60.8725V62.0225H2361.12V60.8725C2362.08 60.8058 2362.78 60.4391 2363.22 59.7725C2363.65 59.0725 2363.87 58.1558 2363.87 57.0225V33.7725C2363.87 32.1391 2363.62 31.1058 2363.12 30.6725C2362.65 30.2058 2361.73 29.9558 2360.37 29.9225V28.7725H2366.37C2366.87 29.4058 2367.4 29.9725 2367.97 30.4725C2368.53 30.9725 2369.18 31.5725 2369.92 32.2725L2389.82 50.2725H2389.92V33.7725C2389.92 32.6391 2389.63 31.7225 2389.07 31.0225C2388.5 30.3225 2387.48 29.9558 2386.02 29.9225V28.7725H2395.27V29.9225C2394.3 29.9558 2393.6 30.3225 2393.17 31.0225C2392.73 31.7225 2392.52 32.6391 2392.52 33.7725V57.0225C2392.52 57.9558 2392.52 58.8558 2392.52 59.7225C2392.55 60.5558 2392.58 61.4558 2392.62 62.4225H2390.37ZM2399.22 28.7725H2427.72V37.0225H2426.57C2426.37 35.2225 2425.84 33.7558 2424.97 32.6225C2424.11 31.4891 2422.62 30.9225 2420.52 30.9225H2417.47V57.0225C2417.47 58.6558 2417.72 59.6891 2418.22 60.1225C2418.72 60.5558 2419.64 60.8058 2420.97 60.8725V62.0225H2406.72V60.8725C2407.69 60.8058 2408.39 60.5558 2408.82 60.1225C2409.26 59.6891 2409.47 58.6558 2409.47 57.0225V30.9225H2406.37C2404.34 30.9225 2402.87 31.4891 2401.97 32.6225C2401.11 33.7558 2400.57 35.2225 2400.37 37.0225H2399.22V28.7725ZM2432.26 62.0225V60.8725C2433.23 60.8058 2433.93 60.5558 2434.36 60.1225C2434.79 59.6891 2435.01 58.6558 2435.01 57.0225V33.7725C2435.01 32.1391 2434.76 31.1058 2434.26 30.6725C2433.79 30.2058 2432.88 29.9558 2431.51 29.9225V28.7725H2456.06V35.7725H2454.91C2454.84 34.3391 2454.34 33.1725 2453.41 32.2725C2452.51 31.3725 2451.11 30.9225 2449.21 30.9225H2445.21C2444.51 30.9225 2443.96 31.1058 2443.56 31.4725C2443.19 31.8391 2443.01 32.6058 2443.01 33.7725V43.6225C2443.28 43.4225 2443.59 43.2891 2443.96 43.2225C2444.36 43.1558 2444.83 43.1225 2445.36 43.1225H2450.21C2451.21 43.1225 2452.04 42.8391 2452.71 42.2725C2453.38 41.7058 2453.73 40.9225 2453.76 39.9225H2454.91V48.4225H2453.76C2453.73 47.1891 2453.38 46.3558 2452.71 45.9225C2452.04 45.4891 2451.21 45.2725 2450.21 45.2725H2445.46C2444.56 45.2725 2443.93 45.4225 2443.56 45.7225C2443.19 46.0225 2443.01 46.6058 2443.01 47.4725V57.0225C2443.01 58.1891 2443.26 58.9558 2443.76 59.3225C2444.29 59.6891 2445.31 59.8725 2446.81 59.8725H2451.56C2453.56 59.8725 2455.14 59.2725 2456.31 58.0725C2457.48 56.8725 2458.13 55.4391 2458.26 53.7725H2459.41L2459.01 62.0225H2432.26ZM2492.95 62.7725C2491.45 62.7725 2490.17 62.5225 2489.1 62.0225C2488.04 61.5558 2487.14 60.9225 2486.4 60.1225C2485.67 59.3225 2484.99 58.4391 2484.35 57.4725L2477.35 46.5725C2477.02 46.0058 2476.72 45.6558 2476.45 45.5225C2476.19 45.3891 2475.87 45.3058 2475.5 45.2725V43.5225C2477.5 43.3891 2479.05 42.9891 2480.15 42.3225C2481.25 41.6558 2482.02 40.8391 2482.45 39.8725C2482.89 38.8725 2483.1 37.8391 2483.1 36.7725C2483.1 34.7391 2482.54 33.2225 2481.4 32.2225C2480.27 31.1891 2478.97 30.6725 2477.5 30.6725C2476.4 30.6725 2475.62 30.8725 2475.15 31.2725C2474.72 31.6391 2474.5 32.4725 2474.5 33.7725V57.0225C2474.5 58.6558 2474.75 59.6891 2475.25 60.1225C2475.75 60.5558 2476.67 60.8058 2478 60.8725V62.0225H2463.75V60.8725C2464.72 60.8058 2465.42 60.5558 2465.85 60.1225C2466.29 59.6891 2466.5 58.6558 2466.5 57.0225V33.7725C2466.5 32.1391 2466.25 31.1058 2465.75 30.6725C2465.29 30.2058 2464.37 29.9558 2463 29.9225V28.7725H2466.5C2469 28.7725 2471.27 28.7391 2473.3 28.6725C2475.34 28.5725 2477.07 28.5225 2478.5 28.5225C2481.8 28.5225 2484.42 28.8391 2486.35 29.4725C2488.32 30.0725 2489.72 30.9225 2490.55 32.0225C2491.42 33.1225 2491.85 34.3725 2491.85 35.7725C2491.85 37.1058 2491.52 38.3225 2490.85 39.4225C2490.22 40.5225 2489.37 41.4558 2488.3 42.2225C2487.27 42.9558 2486.14 43.4725 2484.9 43.7725V43.8725L2493.2 56.8725C2494.17 58.4058 2495.05 59.4558 2495.85 60.0225C2496.65 60.5891 2497.37 60.8725 2498 60.8725V62.0225C2497.34 62.2558 2496.54 62.4391 2495.6 62.5725C2494.7 62.7058 2493.82 62.7725 2492.95 62.7725ZM2516.57 62.7725C2513.07 62.7725 2509.97 62.0725 2507.27 60.6725C2504.57 59.2725 2502.45 57.3058 2500.92 54.7725C2499.38 52.2058 2498.62 49.2391 2498.62 45.8725C2498.62 43.1058 2499.12 40.6391 2500.12 38.4725C2501.12 36.2725 2502.48 34.3891 2504.22 32.8225C2505.98 31.2558 2508 30.0725 2510.27 29.2725C2512.57 28.4391 2515.02 28.0225 2517.62 28.0225C2519.58 28.0225 2521.47 28.2058 2523.27 28.5725C2525.07 28.9391 2526.5 29.3725 2527.57 29.8725V37.7725H2526.42C2525.75 35.7391 2524.95 34.1891 2524.02 33.1225C2523.08 32.0225 2522.03 31.2558 2520.87 30.8225C2519.73 30.3891 2518.53 30.1725 2517.27 30.1725C2510.83 30.1725 2507.62 34.8391 2507.62 44.1725C2507.62 47.2391 2507.93 50.0225 2508.57 52.5225C2509.23 55.0225 2510.25 57.0058 2511.62 58.4725C2513.02 59.9058 2514.8 60.6225 2516.97 60.6225C2518.73 60.6225 2520.33 60.1891 2521.77 59.3225C2523.2 58.4225 2524.42 57.2391 2525.42 55.7725C2526.45 54.3058 2527.18 52.7225 2527.62 51.0225H2528.77L2528.37 58.6225C2527.27 59.8225 2525.72 60.8225 2523.72 61.6225C2521.72 62.3891 2519.33 62.7725 2516.57 62.7725ZM2549.94 28.0225C2552.31 28.0225 2554.51 28.4225 2556.54 29.2225C2558.58 30.0225 2560.38 31.1891 2561.94 32.7225C2563.51 34.2225 2564.73 36.0391 2565.59 38.1725C2566.46 40.3058 2566.89 42.6891 2566.89 45.3225C2566.89 47.9558 2566.46 50.3391 2565.59 52.4725C2564.73 54.6058 2563.51 56.4391 2561.94 57.9725C2560.41 59.5058 2558.61 60.6891 2556.54 61.5225C2554.48 62.3558 2552.26 62.7725 2549.89 62.7725C2547.56 62.7725 2545.36 62.3725 2543.29 61.5725C2541.26 60.7725 2539.46 59.6225 2537.89 58.1225C2536.33 56.5891 2535.11 54.7558 2534.24 52.6225C2533.38 50.4891 2532.94 48.1058 2532.94 45.4725C2532.94 42.8391 2533.38 40.4558 2534.24 38.3225C2535.11 36.1891 2536.31 34.3558 2537.84 32.8225C2539.41 31.2891 2541.23 30.1058 2543.29 29.2725C2545.36 28.4391 2547.58 28.0225 2549.94 28.0225ZM2550.94 60.6225C2552.68 60.6225 2554.04 60.0558 2555.04 58.9225C2556.04 57.7558 2556.76 56.1558 2557.19 54.1225C2557.66 52.0891 2557.89 49.7225 2557.89 47.0225C2557.89 41.5891 2557.06 37.4225 2555.39 34.5225C2553.76 31.6225 2551.59 30.1725 2548.89 30.1725C2547.19 30.1725 2545.83 30.7391 2544.79 31.8725C2543.79 33.0058 2543.06 34.6058 2542.59 36.6725C2542.16 38.7058 2541.94 41.0725 2541.94 43.7725C2541.94 49.2058 2542.76 53.3725 2544.39 56.2725C2546.06 59.1725 2548.24 60.6225 2550.94 60.6225ZM2590.04 62.4225C2589.77 61.6558 2589.44 60.8725 2589.04 60.0725C2588.67 59.2391 2588.17 58.1558 2587.54 56.8225L2578.54 38.0225H2578.44L2577.54 57.0225C2577.51 58.1558 2577.77 59.0725 2578.34 59.7725C2578.91 60.4391 2579.94 60.8058 2581.44 60.8725V62.0225H2572.19V60.8725C2573.16 60.8058 2573.84 60.4391 2574.24 59.7725C2574.67 59.0725 2574.91 58.1558 2574.94 57.0225L2575.99 33.7725C2576.06 32.6058 2575.97 31.7725 2575.74 31.2725C2575.54 30.7725 2575.17 30.4558 2574.64 30.3225C2574.11 30.1558 2573.39 30.0225 2572.49 29.9225V28.7725H2583.19C2583.46 29.6391 2583.76 30.4558 2584.09 31.2225C2584.46 31.9891 2584.86 32.8391 2585.29 33.7725L2593.89 51.7725H2593.99L2601.99 33.7725C2602.76 32.0725 2603.34 30.4058 2603.74 28.7725H2614.34V29.9225C2613.71 29.9558 2613.17 30.0558 2612.74 30.2225C2612.31 30.3891 2611.99 30.7391 2611.79 31.2725C2611.62 31.7725 2611.56 32.6058 2611.59 33.7725L2612.64 57.0225C2612.71 58.0891 2612.84 58.8891 2613.04 59.4225C2613.27 59.9558 2613.64 60.3225 2614.14 60.5225C2614.64 60.6891 2615.31 60.8058 2616.14 60.8725V62.0225H2601.89V60.8725C2602.96 60.8058 2603.69 60.5558 2604.09 60.1225C2604.52 59.6891 2604.71 58.6558 2604.64 57.0225L2603.79 36.5725H2603.69L2594.64 56.8225C2594.01 58.2225 2593.54 59.3225 2593.24 60.1225C2592.97 60.8891 2592.74 61.6558 2592.54 62.4225H2590.04ZM2638.04 62.4225C2637.77 61.6558 2637.44 60.8725 2637.04 60.0725C2636.67 59.2391 2636.17 58.1558 2635.54 56.8225L2626.54 38.0225H2626.44L2625.54 57.0225C2625.5 58.1558 2625.77 59.0725 2626.34 59.7725C2626.9 60.4391 2627.94 60.8058 2629.44 60.8725V62.0225H2620.19V60.8725C2621.15 60.8058 2621.84 60.4391 2622.24 59.7725C2622.67 59.0725 2622.9 58.1558 2622.94 57.0225L2623.99 33.7725C2624.05 32.6058 2623.97 31.7725 2623.74 31.2725C2623.54 30.7725 2623.17 30.4558 2622.64 30.3225C2622.1 30.1558 2621.39 30.0225 2620.49 29.9225V28.7725H2631.19C2631.45 29.6391 2631.75 30.4558 2632.09 31.2225C2632.45 31.9891 2632.85 32.8391 2633.29 33.7725L2641.89 51.7725H2641.99L2649.99 33.7725C2650.75 32.0725 2651.34 30.4058 2651.74 28.7725H2662.34V29.9225C2661.7 29.9558 2661.17 30.0558 2660.74 30.2225C2660.3 30.3891 2659.99 30.7391 2659.79 31.2725C2659.62 31.7725 2659.55 32.6058 2659.59 33.7725L2660.64 57.0225C2660.7 58.0891 2660.84 58.8891 2661.04 59.4225C2661.27 59.9558 2661.64 60.3225 2662.14 60.5225C2662.64 60.6891 2663.3 60.8058 2664.14 60.8725V62.0225H2649.89V60.8725C2650.95 60.8058 2651.69 60.5558 2652.09 60.1225C2652.52 59.6891 2652.7 58.6558 2652.64 57.0225L2651.79 36.5725H2651.69L2642.64 56.8225C2642 58.2225 2641.54 59.3225 2641.24 60.1225C2640.97 60.8891 2640.74 61.6558 2640.54 62.4225H2638.04ZM2703.36 52.7725H2704.51L2704.01 62.0225H2679.91V60.8725C2680.18 60.7391 2680.58 60.5058 2681.11 60.1725C2681.68 59.8391 2682.26 59.4558 2682.86 59.0225C2684.53 57.8225 2686.1 56.4558 2687.56 54.9225C2689.03 53.3891 2690.31 51.7558 2691.41 50.0225C2692.51 48.2891 2693.38 46.5558 2694.01 44.8225C2694.65 43.0891 2694.96 41.4391 2694.96 39.8725C2694.96 38.3725 2694.6 37.1058 2693.86 36.0725C2693.16 35.0391 2691.88 34.5225 2690.01 34.5225C2688.45 34.5225 2687 34.9558 2685.66 35.8225C2684.33 36.6891 2683.01 38.0391 2681.71 39.8725L2680.76 39.0725C2682.13 35.6058 2683.85 33.0225 2685.91 31.3225C2687.98 29.6225 2690.56 28.7725 2693.66 28.7725C2695.46 28.7725 2697.08 29.0725 2698.51 29.6725C2699.95 30.2391 2701.08 31.1391 2701.91 32.3725C2702.78 33.5725 2703.21 35.1391 2703.21 37.0725C2703.21 40.5058 2702.11 43.7225 2699.91 46.7225C2697.75 49.7225 2694.71 52.5391 2690.81 55.1725V55.2725H2698.11C2700.01 55.2725 2701.33 55.0391 2702.06 54.5725C2702.8 54.1058 2703.23 53.5058 2703.36 52.7725ZM2724.64 28.7725C2726.38 28.7725 2728.08 29.1058 2729.74 29.7725C2731.41 30.4391 2732.91 31.4725 2734.24 32.8725C2735.58 34.2725 2736.63 36.0391 2737.39 38.1725C2738.19 40.2725 2738.59 42.7725 2738.59 45.6725C2738.59 48.5391 2738.21 51.0391 2737.44 53.1725C2736.68 55.3058 2735.63 57.0891 2734.29 58.5225C2732.96 59.9558 2731.46 61.0225 2729.79 61.7225C2728.13 62.4225 2726.39 62.7725 2724.59 62.7725C2722.86 62.7725 2721.16 62.4391 2719.49 61.7725C2717.83 61.1058 2716.33 60.0725 2714.99 58.6725C2713.66 57.2725 2712.59 55.5225 2711.79 53.4225C2711.03 51.2891 2710.64 48.7725 2710.64 45.8725C2710.64 43.0058 2711.03 40.5058 2711.79 38.3725C2712.56 36.2391 2713.61 34.4558 2714.94 33.0225C2716.28 31.5891 2717.78 30.5225 2719.44 29.8225C2721.11 29.1225 2722.84 28.7725 2724.64 28.7725ZM2724.79 60.6225C2725.76 60.6225 2726.64 60.1891 2727.44 59.3225C2728.24 58.4558 2728.88 56.9891 2729.34 54.9225C2729.84 52.8558 2730.09 50.0225 2730.09 46.4225C2730.09 43.2891 2729.88 40.5725 2729.44 38.2725C2729.04 35.9391 2728.43 34.1391 2727.59 32.8725C2726.76 31.5725 2725.71 30.9225 2724.44 30.9225C2723.51 30.9225 2722.63 31.3558 2721.79 32.2225C2720.99 33.0891 2720.34 34.5558 2719.84 36.6225C2719.38 38.6891 2719.14 41.5225 2719.14 45.1225C2719.14 48.2558 2719.34 50.9891 2719.74 53.3225C2720.18 55.6225 2720.81 57.4225 2721.64 58.7225C2722.48 59.9891 2723.53 60.6225 2724.79 60.6225ZM2766.2 52.7725H2767.35L2766.85 62.0225H2742.75V60.8725C2743.02 60.7391 2743.42 60.5058 2743.95 60.1725C2744.52 59.8391 2745.1 59.4558 2745.7 59.0225C2747.37 57.8225 2748.94 56.4558 2750.4 54.9225C2751.87 53.3891 2753.15 51.7558 2754.25 50.0225C2755.35 48.2891 2756.22 46.5558 2756.85 44.8225C2757.49 43.0891 2757.8 41.4391 2757.8 39.8725C2757.8 38.3725 2757.44 37.1058 2756.7 36.0725C2756 35.0391 2754.72 34.5225 2752.85 34.5225C2751.29 34.5225 2749.84 34.9558 2748.5 35.8225C2747.17 36.6891 2745.85 38.0391 2744.55 39.8725L2743.6 39.0725C2744.97 35.6058 2746.69 33.0225 2748.75 31.3225C2750.82 29.6225 2753.4 28.7725 2756.5 28.7725C2758.3 28.7725 2759.92 29.0725 2761.35 29.6725C2762.79 30.2391 2763.92 31.1391 2764.75 32.3725C2765.62 33.5725 2766.05 35.1391 2766.05 37.0725C2766.05 40.5058 2764.95 43.7225 2762.75 46.7225C2760.59 49.7225 2757.55 52.5391 2753.65 55.1725V55.2725H2760.95C2762.85 55.2725 2764.17 55.0391 2764.9 54.5725C2765.64 54.1058 2766.07 53.5058 2766.2 52.7725ZM2793.98 49.2725H2797.48V55.5225H2795.38C2794.45 55.5225 2793.98 56.1058 2793.98 57.2725C2793.98 58.0725 2793.98 58.8558 2793.98 59.6225C2794.02 60.3558 2794.05 61.1558 2794.08 62.0225H2786.18C2786.25 60.9225 2786.3 59.8558 2786.33 58.8225C2786.37 57.7558 2786.4 56.6558 2786.43 55.5225H2770.63V54.3725C2771.5 53.5391 2772.28 52.6725 2772.98 51.7725L2789.33 31.3225C2789.7 30.8558 2790.03 30.4058 2790.33 29.9725C2790.67 29.5058 2790.93 29.1058 2791.13 28.7725H2794.03L2793.98 49.2725ZM2786.33 38.8225L2777.98 49.2725H2786.48V38.8225H2786.33Z" fill="black"/>
<defs>
<linearGradient id="paint0_linear_562_1061" x1="0" y1="45" x2="2839.6" y2="45" gradientUnits="userSpaceOnUse">
<stop stop-color="#FA0056"/>
<stop offset="0.375" stop-color="#F33174"/>
<stop offset="0.67" stop-color="#FA0056"/>
<stop offset="0.975" stop-color="#F33174"/>
</linearGradient>
</defs>
</svg>
