<svg width="2469" height="90" viewBox="0 0 2469 90" fill="none" xmlns="http://www.w3.org/2000/svg">
<rect width="2467.31" height="90" transform="translate(0.976562 -0.00231934)" fill="url(#paint0_linear_614_2629)"/>
<path d="M59.3607 53.245H60.6354L60.0812 63.4977H33.3689V62.223C33.6645 62.0752 34.1078 61.8166 34.699 61.4472C35.3271 61.0777 35.9736 60.6528 36.6387 60.1725C38.486 58.8424 40.2225 57.3276 41.8481 55.6281C43.4738 53.9286 44.8962 52.1182 46.1154 50.197C47.3347 48.2757 48.2953 46.3545 48.9972 44.4333C49.6992 42.5121 50.0502 40.6832 50.0502 38.9468C50.0502 37.2842 49.6438 35.8802 48.831 34.7349C48.0551 33.5895 46.6327 33.0169 44.5637 33.0169C42.8272 33.0169 41.22 33.4972 39.7422 34.4578C38.2643 35.4184 36.8049 36.9147 35.364 38.9468L34.311 38.06C35.8258 34.2176 37.7286 31.3543 40.0193 29.47C42.3099 27.5857 45.1733 26.6436 48.6093 26.6436C50.6044 26.6436 52.3963 26.9761 53.985 27.6411C55.5737 28.2692 56.8299 29.2668 57.7536 30.6338C58.7142 31.9639 59.1945 33.7004 59.1945 35.8433C59.1945 39.6487 57.9752 43.2141 55.5368 46.5393C53.1353 49.8644 49.7731 52.9864 45.4504 55.9052V56.016H53.5417C55.6476 56.016 57.107 55.7574 57.9198 55.2402C58.7326 54.7229 59.2129 54.0579 59.3607 53.245ZM82.9483 26.6436C84.8695 26.6436 86.7538 27.0131 88.6011 27.752C90.4484 28.4909 92.111 29.6363 93.5889 31.188C95.0667 32.7398 96.2306 34.6979 97.0803 37.0625C97.967 39.3901 98.4104 42.1611 98.4104 45.3754C98.4104 48.5528 97.9855 51.3238 97.1357 53.6884C96.286 56.053 95.1222 58.0296 93.6443 59.6183C92.1665 61.207 90.5039 62.3893 88.6565 63.1652C86.8092 63.941 84.888 64.329 82.8929 64.329C80.9717 64.329 79.0874 63.9595 77.2401 63.2206C75.3928 62.4817 73.7302 61.3363 72.2523 59.7846C70.7744 58.2328 69.5922 56.2931 68.7054 53.9655C67.8557 51.6009 67.4308 48.8115 67.4308 45.5971C67.4308 42.4197 67.8557 39.6487 68.7054 37.2842C69.5552 34.9196 70.719 32.943 72.1969 31.3543C73.6747 29.7656 75.3373 28.5833 77.1847 27.8074C79.032 27.0315 80.9532 26.6436 82.9483 26.6436ZM83.1146 61.9459C84.186 61.9459 85.1651 61.4656 86.0518 60.505C86.9385 59.5444 87.6405 57.9188 88.1578 55.6281C88.712 53.3374 88.9891 50.197 88.9891 46.2067C88.9891 42.7338 88.7489 39.7226 88.2686 37.1733C87.8252 34.5871 87.1417 32.592 86.2181 31.188C85.2944 29.7471 84.1306 29.0266 82.7266 29.0266C81.6921 29.0266 80.713 29.5069 79.7894 30.4675C78.9027 31.4282 78.1822 33.0538 77.628 35.3445C77.1108 37.6352 76.8521 40.7756 76.8521 44.7658C76.8521 48.2388 77.0738 51.2684 77.5172 53.8547C77.9975 56.404 78.6995 58.3991 79.6231 59.84C80.5468 61.244 81.7106 61.9459 83.1146 61.9459ZM136.027 46.7609L118.846 48.2573L118.458 43.7683L135.639 42.2719L136.027 46.7609ZM178.914 53.245H180.188L179.634 63.4977H152.922V62.223C153.217 62.0752 153.661 61.8166 154.252 61.4472C154.88 61.0777 155.526 60.6528 156.191 60.1725C158.039 58.8424 159.775 57.3276 161.401 55.6281C163.027 53.9286 164.449 52.1182 165.668 50.197C166.887 48.2757 167.848 46.3545 168.55 44.4333C169.252 42.5121 169.603 40.6832 169.603 38.9468C169.603 37.2842 169.197 35.8802 168.384 34.7349C167.608 33.5895 166.186 33.0169 164.117 33.0169C162.38 33.0169 160.773 33.4972 159.295 34.4578C157.817 35.4184 156.358 36.9147 154.917 38.9468L153.864 38.06C155.379 34.2176 157.281 31.3543 159.572 29.47C161.863 27.5857 164.726 26.6436 168.162 26.6436C170.157 26.6436 171.949 26.9761 173.538 27.6411C175.127 28.2692 176.383 29.2668 177.306 30.6338C178.267 31.9639 178.747 33.7004 178.747 35.8433C178.747 39.6487 177.528 43.2141 175.09 46.5393C172.688 49.8644 169.326 52.9864 165.003 55.9052V56.016H173.095C175.2 56.016 176.66 55.7574 177.473 55.2402C178.285 54.7229 178.766 54.0579 178.914 53.245ZM201.559 57.4015C201.559 58.7685 201.67 59.803 201.892 60.505C202.15 61.1701 202.667 61.6134 203.443 61.8351C204.256 62.0568 205.475 62.1861 207.101 62.223V63.4977H186.596V62.223C188.258 62.1861 189.478 62.0568 190.253 61.8351C191.066 61.6134 191.583 61.1701 191.805 60.505C192.027 59.803 192.138 58.7685 192.138 57.4015V33.294L187.039 36.4529L185.875 34.6794L198.733 26.6436H201.947C201.799 27.3456 201.688 28.0476 201.614 28.7495C201.577 29.4515 201.559 30.1535 201.559 30.8555V57.4015ZM226.909 63.4977V62.223C227.981 62.1491 228.757 61.872 229.237 61.3917C229.717 60.9114 229.957 59.7661 229.957 57.9557V32.1856C229.957 30.3752 229.68 29.2298 229.126 28.7495C228.609 28.2323 227.593 27.9552 226.078 27.9182V26.6436H241.873V27.9182C240.801 27.9552 240.025 28.2323 239.545 28.7495C239.065 29.2298 238.824 30.3752 238.824 32.1856V41.9948C239.12 41.7732 239.471 41.6254 239.877 41.5515C240.321 41.4776 240.838 41.4406 241.429 41.4406H251.903C252.901 41.4406 253.603 41.2744 254.009 40.9419C254.416 40.6094 254.619 39.9443 254.619 38.9468V32.1856C254.619 30.3752 254.342 29.2298 253.788 28.7495C253.27 28.2323 252.254 27.9552 250.74 27.9182V26.6436H266.534V27.9182C265.463 27.9552 264.687 28.2323 264.207 28.7495C263.726 29.2298 263.486 30.3752 263.486 32.1856V57.9557C263.486 59.7661 263.763 60.9114 264.317 61.3917C264.872 61.872 265.888 62.1491 267.366 62.223V63.4977H251.571V62.223C252.642 62.1491 253.418 61.872 253.899 61.3917C254.379 60.9114 254.619 59.7661 254.619 57.9557V43.2141C254.323 43.4727 253.954 43.639 253.511 43.7129C253.067 43.7867 252.569 43.8237 252.014 43.8237H241.54C240.542 43.8237 239.84 43.99 239.434 44.3225C239.028 44.655 238.824 45.3016 238.824 46.2622V57.9557C238.824 59.7661 239.102 60.9114 239.656 61.3917C240.21 61.872 241.226 62.1491 242.704 62.223V63.4977H226.909ZM291.809 25.8123C294.432 25.8123 296.87 26.2557 299.124 27.1424C301.378 28.0291 303.373 29.3222 305.109 31.0217C306.846 32.6843 308.194 34.6979 309.155 37.0625C310.116 39.4271 310.596 42.0687 310.596 44.9875C310.596 47.9063 310.116 50.548 309.155 52.9125C308.194 55.2771 306.846 57.3092 305.109 59.0087C303.41 60.7082 301.415 62.0198 299.124 62.9435C296.833 63.8672 294.376 64.329 291.753 64.329C289.167 64.329 286.729 63.8856 284.438 62.9989C282.184 62.1122 280.189 60.8375 278.453 59.175C276.716 57.4754 275.368 55.4434 274.407 53.0788C273.446 50.7142 272.966 48.0725 272.966 45.1538C272.966 42.235 273.446 39.5933 274.407 37.2287C275.368 34.8642 276.698 32.8321 278.397 31.1326C280.134 29.433 282.147 28.1214 284.438 27.1978C286.729 26.2741 289.185 25.8123 291.809 25.8123ZM292.917 61.9459C294.838 61.9459 296.353 61.3178 297.461 60.0617C298.57 58.7685 299.364 56.9951 299.845 54.7414C300.362 52.4876 300.62 49.8644 300.62 46.8718C300.62 40.8495 299.697 36.2312 297.849 33.0169C296.039 29.8025 293.638 28.1953 290.645 28.1953C288.761 28.1953 287.246 28.8234 286.1 30.0796C284.992 31.3358 284.179 33.1092 283.662 35.3999C283.182 37.6536 282.942 40.2768 282.942 43.2695C282.942 49.2918 283.847 53.9101 285.657 57.1244C287.504 60.3388 289.924 61.9459 292.917 61.9459ZM316.894 64.329C315.971 64.329 314.992 64.2551 313.957 64.1073C312.923 63.9595 312.036 63.7563 311.297 63.4977V62.223C312.036 62.223 312.867 61.9275 313.791 61.3363C314.714 60.7452 315.657 59.5629 316.617 57.7895L324.542 43.4358C322.067 42.8077 320.183 41.7916 318.889 40.3877C317.633 38.9837 317.005 37.2842 317.005 35.2891C317.005 33.7373 317.467 32.2779 318.391 30.9109C319.351 29.5439 320.903 28.454 323.046 27.6411C325.226 26.7914 328.145 26.3665 331.802 26.3665C332.985 26.3665 334.352 26.4219 335.903 26.5327C337.455 26.6066 339.173 26.6436 341.057 26.6436H348.151V27.9182C347.08 27.9552 346.304 28.2323 345.823 28.7495C345.343 29.2298 345.103 30.3752 345.103 32.1856V57.9557C345.103 59.7661 345.38 60.9114 345.934 61.3917C346.488 61.872 347.504 62.1491 348.982 62.223V63.4977H333.188V62.223C334.259 62.1491 335.035 61.872 335.515 61.3917C335.996 60.9114 336.236 59.7661 336.236 57.9557V32.1856C336.236 30.7446 335.977 29.821 335.46 29.4146C334.98 28.9712 334.13 28.7495 332.911 28.7495C331.322 28.7495 329.881 29.3222 328.588 30.4675C327.332 31.5759 326.704 33.257 326.704 35.5107C326.704 36.693 326.944 37.8384 327.424 38.9468C327.904 40.0182 328.754 40.9234 329.973 41.6623C331.23 42.4013 332.948 42.8446 335.127 42.9924V44.9321C334.684 44.9321 334.296 45.0245 333.964 45.2092C333.631 45.357 333.299 45.7449 332.966 46.373L326.704 58.4545C325.854 60.0801 324.672 61.4656 323.157 62.611C321.642 63.7563 319.554 64.329 316.894 64.329ZM366.495 41.3298H371.871C375.898 41.3298 379.076 41.7732 381.403 42.6599C383.731 43.5466 385.375 44.7658 386.336 46.3176C387.333 47.8693 387.832 49.6612 387.832 51.6933C387.832 53.7253 387.278 55.6466 386.169 57.4569C385.098 59.2304 383.417 60.6898 381.126 61.8351C378.872 62.9435 375.991 63.4977 372.481 63.4977H354.58V62.223C355.652 62.1491 356.427 61.872 356.908 61.3917C357.388 60.9114 357.628 59.7661 357.628 57.9557V32.1856C357.628 30.3752 357.351 29.2298 356.797 28.7495C356.28 28.2323 355.264 27.9552 353.749 27.9182V26.6436H384.23V35.7878H382.955C382.844 34.5317 382.604 33.4048 382.235 32.4072C381.865 31.3727 381.237 30.5599 380.35 29.9688C379.464 29.3407 378.189 29.0266 376.526 29.0266H368.934C368.158 29.0266 367.548 29.2298 367.105 29.6363C366.699 30.0427 366.495 30.8924 366.495 32.1856V41.3298ZM369.765 61.1146C371.723 61.1146 373.33 60.6528 374.587 59.7291C375.88 58.7685 376.84 57.5863 377.468 56.1823C378.097 54.7783 378.411 53.3928 378.411 52.0258C378.411 49.9938 378.023 48.3681 377.247 47.1489C376.508 45.9296 375.492 45.0614 374.199 44.5442C372.943 43.99 371.52 43.7129 369.931 43.7129H366.495V57.9557C366.495 59.2488 366.699 60.0986 367.105 60.505C367.511 60.9114 368.398 61.1146 369.765 61.1146ZM393.709 63.4977V62.223C394.781 62.1491 395.557 61.872 396.037 61.3917C396.517 60.9114 396.758 59.7661 396.758 57.9557V32.1856C396.758 30.3752 396.48 29.2298 395.926 28.7495C395.409 28.2323 394.393 27.9552 392.878 27.9182V26.6436H396.758C399.455 26.6436 401.985 26.6066 404.35 26.5327C406.715 26.4219 408.488 26.3665 409.67 26.3665C413.513 26.3665 416.542 26.7914 418.759 27.6411C421.013 28.4909 422.62 29.6178 423.581 31.0217C424.578 32.3888 425.077 33.9036 425.077 35.5662C425.077 37.4874 424.449 39.3162 423.193 41.0527C421.974 42.7892 420.015 44.1377 417.318 45.0983C414.658 46.022 411.13 46.3176 406.733 45.9851V44.0454C408.728 44.1193 410.372 43.7683 411.665 42.9924C412.959 42.1796 413.901 41.1081 414.492 39.7781C415.12 38.448 415.434 37.0255 415.434 35.5107C415.434 33.4787 414.861 31.853 413.716 30.6338C412.571 29.3776 410.982 28.7495 408.95 28.7495C407.731 28.7495 406.862 28.9712 406.345 29.4146C405.865 29.821 405.625 30.7446 405.625 32.1856V57.9557C405.625 59.138 405.736 60.0432 405.957 60.6713C406.216 61.2624 406.659 61.6688 407.287 61.8905C407.952 62.0752 408.876 62.1861 410.058 62.223V63.4977H393.709ZM430.927 64.329C430.003 64.329 429.024 64.2551 427.99 64.1073C426.955 63.9595 426.068 63.7563 425.329 63.4977V62.223C426.068 62.223 426.9 61.9275 427.823 61.3363C428.747 60.7452 429.689 59.5629 430.65 57.7895L438.575 43.4358C436.099 42.8077 434.215 41.7916 432.922 40.3877C431.666 38.9837 431.038 37.2842 431.038 35.2891C431.038 33.7373 431.5 32.2779 432.423 30.9109C433.384 29.5439 434.936 28.454 437.078 27.6411C439.258 26.7914 442.177 26.3665 445.835 26.3665C447.017 26.3665 448.384 26.4219 449.936 26.5327C451.488 26.6066 453.206 26.6436 455.09 26.6436H462.184V27.9182C461.112 27.9552 460.336 28.2323 459.856 28.7495C459.376 29.2298 459.135 30.3752 459.135 32.1856V57.9557C459.135 59.7661 459.413 60.9114 459.967 61.3917C460.521 61.872 461.537 62.1491 463.015 62.223V63.4977H447.22V62.223C448.292 62.1491 449.068 61.872 449.548 61.3917C450.028 60.9114 450.268 59.7661 450.268 57.9557V32.1856C450.268 30.7446 450.01 29.821 449.492 29.4146C449.012 28.9712 448.162 28.7495 446.943 28.7495C445.354 28.7495 443.914 29.3222 442.62 30.4675C441.364 31.5759 440.736 33.257 440.736 35.5107C440.736 36.693 440.976 37.8384 441.457 38.9468C441.937 40.0182 442.787 40.9234 444.006 41.6623C445.262 42.4013 446.98 42.8446 449.16 42.9924V44.9321C448.717 44.9321 448.329 45.0245 447.996 45.2092C447.664 45.357 447.331 45.7449 446.999 46.373L440.736 58.4545C439.886 60.0801 438.704 61.4656 437.189 62.611C435.674 63.7563 433.587 64.329 430.927 64.329ZM507.048 53.245H508.323L507.768 63.4977H481.056V62.223C481.352 62.0752 481.795 61.8166 482.386 61.4472C483.014 61.0777 483.661 60.6528 484.326 60.1725C486.173 58.8424 487.91 57.3276 489.535 55.6281C491.161 53.9286 492.583 52.1182 493.803 50.197C495.022 48.2757 495.982 46.3545 496.684 44.4333C497.386 42.5121 497.737 40.6832 497.737 38.9468C497.737 37.2842 497.331 35.8802 496.518 34.7349C495.742 33.5895 494.32 33.0169 492.251 33.0169C490.514 33.0169 488.907 33.4972 487.429 34.4578C485.952 35.4184 484.492 36.9147 483.051 38.9468L481.998 38.06C483.513 34.2176 485.416 31.3543 487.706 29.47C489.997 27.5857 492.861 26.6436 496.297 26.6436C498.292 26.6436 500.084 26.9761 501.672 27.6411C503.261 28.2692 504.517 29.2668 505.441 30.6338C506.401 31.9639 506.882 33.7004 506.882 35.8433C506.882 39.6487 505.662 43.2141 503.224 46.5393C500.822 49.8644 497.46 52.9864 493.138 55.9052V56.016H501.229C503.335 56.016 504.794 55.7574 505.607 55.2402C506.42 54.7229 506.9 54.0579 507.048 53.245ZM530.636 26.6436C532.557 26.6436 534.441 27.0131 536.288 27.752C538.136 28.4909 539.798 29.6363 541.276 31.188C542.754 32.7398 543.918 34.6979 544.768 37.0625C545.654 39.3901 546.098 42.1611 546.098 45.3754C546.098 48.5528 545.673 51.3238 544.823 53.6884C543.973 56.053 542.809 58.0296 541.332 59.6183C539.854 61.207 538.191 62.3893 536.344 63.1652C534.496 63.941 532.575 64.329 530.58 64.329C528.659 64.329 526.775 63.9595 524.927 63.2206C523.08 62.4817 521.417 61.3363 519.94 59.7846C518.462 58.2328 517.279 56.2931 516.393 53.9655C515.543 51.6009 515.118 48.8115 515.118 45.5971C515.118 42.4197 515.543 39.6487 516.393 37.2842C517.242 34.9196 518.406 32.943 519.884 31.3543C521.362 29.7656 523.025 28.5833 524.872 27.8074C526.719 27.0315 528.64 26.6436 530.636 26.6436ZM530.802 61.9459C531.873 61.9459 532.852 61.4656 533.739 60.505C534.626 59.5444 535.328 57.9188 535.845 55.6281C536.399 53.3374 536.676 50.197 536.676 46.2067C536.676 42.7338 536.436 39.7226 535.956 37.1733C535.512 34.5871 534.829 32.592 533.905 31.188C532.982 29.7471 531.818 29.0266 530.414 29.0266C529.379 29.0266 528.4 29.5069 527.477 30.4675C526.59 31.4282 525.869 33.0538 525.315 35.3445C524.798 37.6352 524.539 40.7756 524.539 44.7658C524.539 48.2388 524.761 51.2684 525.204 53.8547C525.685 56.404 526.387 58.3991 527.31 59.84C528.234 61.244 529.398 61.9459 530.802 61.9459ZM576.701 53.245H577.976L577.422 63.4977H550.71V62.223C551.005 62.0752 551.449 61.8166 552.04 61.4472C552.668 61.0777 553.314 60.6528 553.979 60.1725C555.827 58.8424 557.563 57.3276 559.189 55.6281C560.814 53.9286 562.237 52.1182 563.456 50.197C564.675 48.2757 565.636 46.3545 566.338 44.4333C567.04 42.5121 567.391 40.6832 567.391 38.9468C567.391 37.2842 566.985 35.8802 566.172 34.7349C565.396 33.5895 563.973 33.0169 561.904 33.0169C560.168 33.0169 558.561 33.4972 557.083 34.4578C555.605 35.4184 554.146 36.9147 552.705 38.9468L551.652 38.06C553.167 34.2176 555.069 31.3543 557.36 29.47C559.651 27.5857 562.514 26.6436 565.95 26.6436C567.945 26.6436 569.737 26.9761 571.326 27.6411C572.914 28.2692 574.171 29.2668 575.094 30.6338C576.055 31.9639 576.535 33.7004 576.535 35.8433C576.535 39.6487 575.316 43.2141 572.877 46.5393C570.476 49.8644 567.114 52.9864 562.791 55.9052V56.016H570.882C572.988 56.016 574.448 55.7574 575.261 55.2402C576.073 54.7229 576.554 54.0579 576.701 53.245ZM607.494 49.3657H611.373V56.2931H609.045C608.011 56.2931 607.494 56.9397 607.494 58.2328C607.494 59.1195 607.494 59.9878 607.494 60.8375C607.53 61.6504 607.567 62.5371 607.604 63.4977H598.848C598.922 62.2785 598.977 61.0962 599.014 59.9508C599.051 58.7685 599.088 57.5493 599.125 56.2931H581.613V55.0185C582.573 54.0948 583.441 53.1342 584.217 52.1366L602.34 29.47C602.746 28.9527 603.115 28.454 603.448 27.9737C603.817 27.4564 604.113 27.0131 604.335 26.6436H607.549L607.494 49.3657ZM599.014 37.7829L589.759 49.3657H599.181V37.7829H599.014ZM656.84 26.6436V36.8962H655.566C655.381 35.2706 655.049 33.8851 654.568 32.7398C654.125 31.5575 653.423 30.6523 652.462 30.0242C651.539 29.3592 650.246 29.0266 648.583 29.0266H645.978C645.202 29.0266 644.593 29.2298 644.149 29.6363C643.743 30.0427 643.54 30.8924 643.54 32.1856V57.9557C643.54 59.7661 643.817 60.9114 644.371 61.3917C644.925 61.872 645.941 62.1491 647.419 62.223V63.4977H631.625V62.223C632.696 62.1491 633.472 61.872 633.952 61.3917C634.432 60.9114 634.673 59.7661 634.673 57.9557V32.1856C634.673 30.3752 634.395 29.2298 633.841 28.7495C633.324 28.2323 632.308 27.9552 630.793 27.9182V26.6436H656.84ZM679.043 25.8123C681.666 25.8123 684.105 26.2557 686.358 27.1424C688.612 28.0291 690.607 29.3222 692.344 31.0217C694.08 32.6843 695.429 34.6979 696.389 37.0625C697.35 39.4271 697.83 42.0687 697.83 44.9875C697.83 47.9063 697.35 50.548 696.389 52.9125C695.429 55.2771 694.08 57.3092 692.344 59.0087C690.644 60.7082 688.649 62.0198 686.358 62.9435C684.068 63.8672 681.611 64.329 678.988 64.329C676.401 64.329 673.963 63.8856 671.672 62.9989C669.418 62.1122 667.423 60.8375 665.687 59.175C663.95 57.4754 662.602 55.4434 661.641 53.0788C660.681 50.7142 660.2 48.0725 660.2 45.1538C660.2 42.235 660.681 39.5933 661.641 37.2287C662.602 34.8642 663.932 32.8321 665.631 31.1326C667.368 29.433 669.381 28.1214 671.672 27.1978C673.963 26.2741 676.42 25.8123 679.043 25.8123ZM680.151 61.9459C682.073 61.9459 683.587 61.3178 684.696 60.0617C685.804 58.7685 686.599 56.9951 687.079 54.7414C687.596 52.4876 687.855 49.8644 687.855 46.8718C687.855 40.8495 686.931 36.2312 685.084 33.0169C683.273 29.8025 680.872 28.1953 677.879 28.1953C675.995 28.1953 674.48 28.8234 673.335 30.0796C672.226 31.3358 671.414 33.1092 670.896 35.3999C670.416 37.6536 670.176 40.2768 670.176 43.2695C670.176 49.2918 671.081 53.9101 672.891 57.1244C674.739 60.3388 677.159 61.9459 680.151 61.9459ZM721.863 31.0217L731.063 57.9557C731.395 58.9163 731.875 59.803 732.503 60.6159C733.169 61.3917 734.185 61.9275 735.552 62.223L733.002 74.8587H731.728C731.654 72.568 731.321 70.5729 730.73 68.8734C730.139 67.1739 729.4 65.8438 728.513 64.8832C727.627 63.9595 726.666 63.4977 725.631 63.4977H710.779C709.412 63.4977 708.063 63.9595 706.733 64.8832C705.44 65.8438 704.332 67.1739 703.408 68.8734C702.521 70.5729 701.949 72.568 701.69 74.8587H700.415V62.223C701.081 61.9275 701.727 61.4287 702.355 60.7267C702.983 59.9878 703.556 59.1565 704.073 58.2328C704.627 57.3092 705.052 56.4409 705.348 55.6281L714.769 31.0217C715.139 30.0611 715.49 29.119 715.822 28.1953C716.155 27.2717 716.45 26.3295 716.709 25.3689H719.923C720.182 26.3295 720.477 27.2717 720.81 28.1953C721.179 29.119 721.53 30.0611 721.863 31.0217ZM719.535 61.1146C721.013 61.1146 721.826 60.8745 721.974 60.3942C722.122 59.9139 721.992 59.1011 721.586 57.9557L715.102 38.0046H714.991L706.345 61.1146H719.535ZM769.467 57.9557C769.984 59.2119 770.409 60.1356 770.741 60.7267C771.111 61.3178 771.499 61.7058 771.905 61.8905C772.312 62.0383 772.81 62.1491 773.401 62.223V63.4977H757.939V62.223C759.417 62.1491 760.23 61.7058 760.378 60.893C760.563 60.0801 760.433 59.1011 759.99 57.9557L757.219 50.7512C756.997 50.9359 756.702 51.0652 756.332 51.1391C756 51.176 755.63 51.1945 755.224 51.1945H748.961C748.186 51.1945 747.594 51.2869 747.188 51.4716C746.782 51.6563 746.431 52.1182 746.135 52.8571L744.14 57.9557C743.66 59.175 743.697 60.1725 744.251 60.9484C744.805 61.7243 745.895 62.1491 747.52 62.223V63.4977H737.434V62.223C738.247 62.1491 738.93 61.7427 739.485 61.0038C740.076 60.2279 740.611 59.2119 741.092 57.9557L751.732 31.0217C752.139 30.0611 752.49 29.119 752.785 28.1953C753.118 27.2717 753.413 26.3295 753.672 25.3689H756.886C757.145 26.3295 757.441 27.2717 757.773 28.1953C758.106 29.119 758.457 30.0611 758.826 31.0217L769.467 57.9557ZM754.947 48.8115C755.464 48.8115 755.796 48.7376 755.944 48.5898C756.129 48.4051 756.111 48.0356 755.889 47.4814L752.065 38.0046H751.954L747.631 49.0331C747.816 48.9223 748.038 48.8669 748.296 48.8669C748.555 48.8299 748.851 48.8115 749.183 48.8115H754.947Z" fill="black"/>
<path d="M829.588 38.6796C824.064 36.4735 817.582 37.6501 813.162 42.0623C807.196 48.0186 807.196 57.6518 813.162 63.6082C817.582 68.0204 824.064 69.1969 829.588 66.9909V59.9314C828.483 60.4462 827.304 60.7403 826.052 60.7403C821.633 60.7403 818.097 57.2106 818.097 52.7985C818.097 48.3863 821.633 44.8566 826.052 44.8566C827.304 44.8566 828.557 45.1508 829.588 45.6655V38.6796Z" fill="black"/>
<path d="M827.087 31.6052C829.263 29.4237 829.263 25.813 827.087 23.5563C824.911 21.3749 821.31 21.3749 819.059 23.5563C816.808 25.7378 816.883 29.3485 819.059 31.6052C821.31 33.7866 824.911 33.7866 827.087 31.6052Z" fill="black"/>
<path d="M890.345 53.245H891.62L891.066 63.4977H864.353V62.223C864.649 62.0752 865.092 61.8166 865.683 61.4472C866.311 61.0777 866.958 60.6528 867.623 60.1725C869.47 58.8424 871.207 57.3276 872.832 55.6281C874.458 53.9286 875.881 52.1182 877.1 50.197C878.319 48.2757 879.28 46.3545 879.982 44.4333C880.684 42.5121 881.035 40.6832 881.035 38.9468C881.035 37.2842 880.628 35.8802 879.815 34.7349C879.039 33.5895 877.617 33.0169 875.548 33.0169C873.812 33.0169 872.204 33.4972 870.727 34.4578C869.249 35.4184 867.789 36.9147 866.348 38.9468L865.295 38.06C866.81 34.2176 868.713 31.3543 871.004 29.47C873.294 27.5857 876.158 26.6436 879.594 26.6436C881.589 26.6436 883.381 26.9761 884.969 27.6411C886.558 28.2692 887.814 29.2668 888.738 30.6338C889.699 31.9639 890.179 33.7004 890.179 35.8433C890.179 39.6487 888.96 43.2141 886.521 46.5393C884.12 49.8644 880.757 52.9864 876.435 55.9052V56.016H884.526C886.632 56.016 888.091 55.7574 888.904 55.2402C889.717 54.7229 890.197 54.0579 890.345 53.245ZM913.933 26.6436C915.854 26.6436 917.738 27.0131 919.585 27.752C921.433 28.4909 923.095 29.6363 924.573 31.188C926.051 32.7398 927.215 34.6979 928.065 37.0625C928.951 39.3901 929.395 42.1611 929.395 45.3754C929.395 48.5528 928.97 51.3238 928.12 53.6884C927.27 56.053 926.107 58.0296 924.629 59.6183C923.151 61.207 921.488 62.3893 919.641 63.1652C917.794 63.941 915.872 64.329 913.877 64.329C911.956 64.329 910.072 63.9595 908.224 63.2206C906.377 62.4817 904.715 61.3363 903.237 59.7846C901.759 58.2328 900.577 56.2931 899.69 53.9655C898.84 51.6009 898.415 48.8115 898.415 45.5971C898.415 42.4197 898.84 39.6487 899.69 37.2842C900.54 34.9196 901.703 32.943 903.181 31.3543C904.659 29.7656 906.322 28.5833 908.169 27.8074C910.016 27.0315 911.938 26.6436 913.933 26.6436ZM914.099 61.9459C915.17 61.9459 916.149 61.4656 917.036 60.505C917.923 59.5444 918.625 57.9188 919.142 55.6281C919.696 53.3374 919.973 50.197 919.973 46.2067C919.973 42.7338 919.733 39.7226 919.253 37.1733C918.81 34.5871 918.126 32.592 917.202 31.188C916.279 29.7471 915.115 29.0266 913.711 29.0266C912.677 29.0266 911.697 29.5069 910.774 30.4675C909.887 31.4282 909.167 33.0538 908.612 35.3445C908.095 37.6352 907.837 40.7756 907.837 44.7658C907.837 48.2388 908.058 51.2684 908.502 53.8547C908.982 56.404 909.684 58.3991 910.608 59.84C911.531 61.244 912.695 61.9459 914.099 61.9459ZM967.011 46.7609L949.831 48.2573L949.443 43.7683L966.623 42.2719L967.011 46.7609ZM1009.9 53.245H1011.17L1010.62 63.4977H983.906V62.223C984.202 62.0752 984.645 61.8166 985.236 61.4472C985.864 61.0777 986.511 60.6528 987.176 60.1725C989.023 58.8424 990.76 57.3276 992.385 55.6281C994.011 53.9286 995.433 52.1182 996.653 50.197C997.872 48.2757 998.832 46.3545 999.534 44.4333C1000.24 42.5121 1000.59 40.6832 1000.59 38.9468C1000.59 37.2842 1000.18 35.8802 999.368 34.7349C998.592 33.5895 997.17 33.0169 995.101 33.0169C993.364 33.0169 991.757 33.4972 990.279 34.4578C988.802 35.4184 987.342 36.9147 985.901 38.9468L984.848 38.06C986.363 34.2176 988.266 31.3543 990.556 29.47C992.847 27.5857 995.711 26.6436 999.147 26.6436C1001.14 26.6436 1002.93 26.9761 1004.52 27.6411C1006.11 28.2692 1007.37 29.2668 1008.29 30.6338C1009.25 31.9639 1009.73 33.7004 1009.73 35.8433C1009.73 39.6487 1008.51 43.2141 1006.07 46.5393C1003.67 49.8644 1000.31 52.9864 995.988 55.9052V56.016H1004.08C1006.18 56.016 1007.64 55.7574 1008.46 55.2402C1009.27 54.7229 1009.75 54.0579 1009.9 53.245ZM1032.54 57.4015C1032.54 58.7685 1032.65 59.803 1032.88 60.505C1033.13 61.1701 1033.65 61.6134 1034.43 61.8351C1035.24 62.0568 1036.46 62.1861 1038.09 62.223V63.4977H1017.58V62.223C1019.24 62.1861 1020.46 62.0568 1021.24 61.8351C1022.05 61.6134 1022.57 61.1701 1022.79 60.505C1023.01 59.803 1023.12 58.7685 1023.12 57.4015V33.294L1018.02 36.4529L1016.86 34.6794L1029.72 26.6436H1032.93C1032.78 27.3456 1032.67 28.0476 1032.6 28.7495C1032.56 29.4515 1032.54 30.1535 1032.54 30.8555V57.4015ZM1057.89 63.4977V62.223C1058.97 62.1491 1059.74 61.872 1060.22 61.3917C1060.7 60.9114 1060.94 59.7661 1060.94 57.9557V32.1856C1060.94 30.3752 1060.66 29.2298 1060.11 28.7495C1059.59 28.2323 1058.58 27.9552 1057.06 27.9182V26.6436H1072.86V27.9182C1071.79 27.9552 1071.01 28.2323 1070.53 28.7495C1070.05 29.2298 1069.81 30.3752 1069.81 32.1856V41.9948C1070.1 41.7732 1070.46 41.6254 1070.86 41.5515C1071.31 41.4776 1071.82 41.4406 1072.41 41.4406H1082.89C1083.89 41.4406 1084.59 41.2744 1084.99 40.9419C1085.4 40.6094 1085.6 39.9443 1085.6 38.9468V32.1856C1085.6 30.3752 1085.33 29.2298 1084.77 28.7495C1084.25 28.2323 1083.24 27.9552 1081.72 27.9182V26.6436H1097.52V27.9182C1096.45 27.9552 1095.67 28.2323 1095.19 28.7495C1094.71 29.2298 1094.47 30.3752 1094.47 32.1856V57.9557C1094.47 59.7661 1094.75 60.9114 1095.3 61.3917C1095.86 61.872 1096.87 62.1491 1098.35 62.223V63.4977H1082.56V62.223C1083.63 62.1491 1084.4 61.872 1084.88 61.3917C1085.36 60.9114 1085.6 59.7661 1085.6 57.9557V43.2141C1085.31 43.4727 1084.94 43.639 1084.5 43.7129C1084.05 43.7867 1083.55 43.8237 1083 43.8237H1072.52C1071.53 43.8237 1070.82 43.99 1070.42 44.3225C1070.01 44.655 1069.81 45.3016 1069.81 46.2622V57.9557C1069.81 59.7661 1070.09 60.9114 1070.64 61.3917C1071.19 61.872 1072.21 62.1491 1073.69 62.223V63.4977H1057.89ZM1122.79 25.8123C1125.42 25.8123 1127.85 26.2557 1130.11 27.1424C1132.36 28.0291 1134.36 29.3222 1136.09 31.0217C1137.83 32.6843 1139.18 34.6979 1140.14 37.0625C1141.1 39.4271 1141.58 42.0687 1141.58 44.9875C1141.58 47.9063 1141.1 50.548 1140.14 52.9125C1139.18 55.2771 1137.83 57.3092 1136.09 59.0087C1134.39 60.7082 1132.4 62.0198 1130.11 62.9435C1127.82 63.8672 1125.36 64.329 1122.74 64.329C1120.15 64.329 1117.71 63.8856 1115.42 62.9989C1113.17 62.1122 1111.17 60.8375 1109.44 59.175C1107.7 57.4754 1106.35 55.4434 1105.39 53.0788C1104.43 50.7142 1103.95 48.0725 1103.95 45.1538C1103.95 42.235 1104.43 39.5933 1105.39 37.2287C1106.35 34.8642 1107.68 32.8321 1109.38 31.1326C1111.12 29.433 1113.13 28.1214 1115.42 27.1978C1117.71 26.2741 1120.17 25.8123 1122.79 25.8123ZM1123.9 61.9459C1125.82 61.9459 1127.34 61.3178 1128.45 60.0617C1129.55 58.7685 1130.35 56.9951 1130.83 54.7414C1131.35 52.4876 1131.6 49.8644 1131.6 46.8718C1131.6 40.8495 1130.68 36.2312 1128.83 33.0169C1127.02 29.8025 1124.62 28.1953 1121.63 28.1953C1119.74 28.1953 1118.23 28.8234 1117.08 30.0796C1115.98 31.3358 1115.16 33.1092 1114.65 35.3999C1114.17 37.6536 1113.93 40.2768 1113.93 43.2695C1113.93 49.2918 1114.83 53.9101 1116.64 57.1244C1118.49 60.3388 1120.91 61.9459 1123.9 61.9459ZM1147.88 64.329C1146.96 64.329 1145.98 64.2551 1144.94 64.1073C1143.91 63.9595 1143.02 63.7563 1142.28 63.4977V62.223C1143.02 62.223 1143.85 61.9275 1144.78 61.3363C1145.7 60.7452 1146.64 59.5629 1147.6 57.7895L1155.53 43.4358C1153.05 42.8077 1151.17 41.7916 1149.87 40.3877C1148.62 38.9837 1147.99 37.2842 1147.99 35.2891C1147.99 33.7373 1148.45 32.2779 1149.38 30.9109C1150.34 29.5439 1151.89 28.454 1154.03 27.6411C1156.21 26.7914 1159.13 26.3665 1162.79 26.3665C1163.97 26.3665 1165.34 26.4219 1166.89 26.5327C1168.44 26.6066 1170.16 26.6436 1172.04 26.6436H1179.14V27.9182C1178.06 27.9552 1177.29 28.2323 1176.81 28.7495C1176.33 29.2298 1176.09 30.3752 1176.09 32.1856V57.9557C1176.09 59.7661 1176.36 60.9114 1176.92 61.3917C1177.47 61.872 1178.49 62.1491 1179.97 62.223V63.4977H1164.17V62.223C1165.24 62.1491 1166.02 61.872 1166.5 61.3917C1166.98 60.9114 1167.22 59.7661 1167.22 57.9557V32.1856C1167.22 30.7446 1166.96 29.821 1166.44 29.4146C1165.96 28.9712 1165.11 28.7495 1163.9 28.7495C1162.31 28.7495 1160.87 29.3222 1159.57 30.4675C1158.32 31.5759 1157.69 33.257 1157.69 35.5107C1157.69 36.693 1157.93 37.8384 1158.41 38.9468C1158.89 40.0182 1159.74 40.9234 1160.96 41.6623C1162.21 42.4013 1163.93 42.8446 1166.11 42.9924V44.9321C1165.67 44.9321 1165.28 45.0245 1164.95 45.2092C1164.62 45.357 1164.28 45.7449 1163.95 46.373L1157.69 58.4545C1156.84 60.0801 1155.66 61.4656 1154.14 62.611C1152.63 63.7563 1150.54 64.329 1147.88 64.329ZM1197.48 41.3298H1202.86C1206.88 41.3298 1210.06 41.7732 1212.39 42.6599C1214.72 43.5466 1216.36 44.7658 1217.32 46.3176C1218.32 47.8693 1218.82 49.6612 1218.82 51.6933C1218.82 53.7253 1218.26 55.6466 1217.15 57.4569C1216.08 59.2304 1214.4 60.6898 1212.11 61.8351C1209.86 62.9435 1206.98 63.4977 1203.47 63.4977H1185.56V62.223C1186.64 62.1491 1187.41 61.872 1187.89 61.3917C1188.37 60.9114 1188.61 59.7661 1188.61 57.9557V32.1856C1188.61 30.3752 1188.34 29.2298 1187.78 28.7495C1187.26 28.2323 1186.25 27.9552 1184.73 27.9182V26.6436H1215.21V35.7878H1213.94C1213.83 34.5317 1213.59 33.4048 1213.22 32.4072C1212.85 31.3727 1212.22 30.5599 1211.33 29.9688C1210.45 29.3407 1209.17 29.0266 1207.51 29.0266H1199.92C1199.14 29.0266 1198.53 29.2298 1198.09 29.6363C1197.68 30.0427 1197.48 30.8924 1197.48 32.1856V41.3298ZM1200.75 61.1146C1202.71 61.1146 1204.31 60.6528 1205.57 59.7291C1206.86 58.7685 1207.82 57.5863 1208.45 56.1823C1209.08 54.7783 1209.4 53.3928 1209.4 52.0258C1209.4 49.9938 1209.01 48.3681 1208.23 47.1489C1207.49 45.9296 1206.48 45.0614 1205.18 44.5442C1203.93 43.99 1202.5 43.7129 1200.92 43.7129H1197.48V57.9557C1197.48 59.2488 1197.68 60.0986 1198.09 60.505C1198.5 60.9114 1199.38 61.1146 1200.75 61.1146ZM1224.69 63.4977V62.223C1225.77 62.1491 1226.54 61.872 1227.02 61.3917C1227.5 60.9114 1227.74 59.7661 1227.74 57.9557V32.1856C1227.74 30.3752 1227.46 29.2298 1226.91 28.7495C1226.39 28.2323 1225.38 27.9552 1223.86 27.9182V26.6436H1227.74C1230.44 26.6436 1232.97 26.6066 1235.33 26.5327C1237.7 26.4219 1239.47 26.3665 1240.65 26.3665C1244.5 26.3665 1247.53 26.7914 1249.74 27.6411C1252 28.4909 1253.6 29.6178 1254.57 31.0217C1255.56 32.3888 1256.06 33.9036 1256.06 35.5662C1256.06 37.4874 1255.43 39.3162 1254.18 41.0527C1252.96 42.7892 1251 44.1377 1248.3 45.0983C1245.64 46.022 1242.11 46.3176 1237.72 45.9851V44.0454C1239.71 44.1193 1241.36 43.7683 1242.65 42.9924C1243.94 42.1796 1244.89 41.1081 1245.48 39.7781C1246.1 38.448 1246.42 37.0255 1246.42 35.5107C1246.42 33.4787 1245.85 31.853 1244.7 30.6338C1243.56 29.3776 1241.97 28.7495 1239.93 28.7495C1238.72 28.7495 1237.85 28.9712 1237.33 29.4146C1236.85 29.821 1236.61 30.7446 1236.61 32.1856V57.9557C1236.61 59.138 1236.72 60.0432 1236.94 60.6713C1237.2 61.2624 1237.64 61.6688 1238.27 61.8905C1238.94 62.0752 1239.86 62.1861 1241.04 62.223V63.4977H1224.69ZM1261.91 64.329C1260.99 64.329 1260.01 64.2551 1258.97 64.1073C1257.94 63.9595 1257.05 63.7563 1256.31 63.4977V62.223C1257.05 62.223 1257.88 61.9275 1258.81 61.3363C1259.73 60.7452 1260.67 59.5629 1261.63 57.7895L1269.56 43.4358C1267.08 42.8077 1265.2 41.7916 1263.91 40.3877C1262.65 38.9837 1262.02 37.2842 1262.02 35.2891C1262.02 33.7373 1262.48 32.2779 1263.41 30.9109C1264.37 29.5439 1265.92 28.454 1268.06 27.6411C1270.24 26.7914 1273.16 26.3665 1276.82 26.3665C1278 26.3665 1279.37 26.4219 1280.92 26.5327C1282.47 26.6066 1284.19 26.6436 1286.07 26.6436H1293.17V27.9182C1292.1 27.9552 1291.32 28.2323 1290.84 28.7495C1290.36 29.2298 1290.12 30.3752 1290.12 32.1856V57.9557C1290.12 59.7661 1290.4 60.9114 1290.95 61.3917C1291.51 61.872 1292.52 62.1491 1294 62.223V63.4977H1278.2V62.223C1279.28 62.1491 1280.05 61.872 1280.53 61.3917C1281.01 60.9114 1281.25 59.7661 1281.25 57.9557V32.1856C1281.25 30.7446 1280.99 29.821 1280.48 29.4146C1280 28.9712 1279.15 28.7495 1277.93 28.7495C1276.34 28.7495 1274.9 29.3222 1273.6 30.4675C1272.35 31.5759 1271.72 33.257 1271.72 35.5107C1271.72 36.693 1271.96 37.8384 1272.44 38.9468C1272.92 40.0182 1273.77 40.9234 1274.99 41.6623C1276.25 42.4013 1277.96 42.8446 1280.14 42.9924V44.9321C1279.7 44.9321 1279.31 45.0245 1278.98 45.2092C1278.65 45.357 1278.32 45.7449 1277.98 46.373L1271.72 58.4545C1270.87 60.0801 1269.69 61.4656 1268.17 62.611C1266.66 63.7563 1264.57 64.329 1261.91 64.329ZM1338.03 53.245H1339.31L1338.75 63.4977H1312.04V62.223C1312.34 62.0752 1312.78 61.8166 1313.37 61.4472C1314 61.0777 1314.65 60.6528 1315.31 60.1725C1317.16 58.8424 1318.89 57.3276 1320.52 55.6281C1322.15 53.9286 1323.57 52.1182 1324.79 50.197C1326.01 48.2757 1326.97 46.3545 1327.67 44.4333C1328.37 42.5121 1328.72 40.6832 1328.72 38.9468C1328.72 37.2842 1328.32 35.8802 1327.5 34.7349C1326.73 33.5895 1325.3 33.0169 1323.24 33.0169C1321.5 33.0169 1319.89 33.4972 1318.41 34.4578C1316.94 35.4184 1315.48 36.9147 1314.04 38.9468L1312.98 38.06C1314.5 34.2176 1316.4 31.3543 1318.69 29.47C1320.98 27.5857 1323.84 26.6436 1327.28 26.6436C1329.28 26.6436 1331.07 26.9761 1332.66 27.6411C1334.25 28.2692 1335.5 29.2668 1336.43 30.6338C1337.39 31.9639 1337.87 33.7004 1337.87 35.8433C1337.87 39.6487 1336.65 43.2141 1334.21 46.5393C1331.81 49.8644 1328.44 52.9864 1324.12 55.9052V56.016H1332.21C1334.32 56.016 1335.78 55.7574 1336.59 55.2402C1337.4 54.7229 1337.88 54.0579 1338.03 53.245ZM1361.62 26.6436C1363.54 26.6436 1365.43 27.0131 1367.27 27.752C1369.12 28.4909 1370.78 29.6363 1372.26 31.188C1373.74 32.7398 1374.9 34.6979 1375.75 37.0625C1376.64 39.3901 1377.08 42.1611 1377.08 45.3754C1377.08 48.5528 1376.66 51.3238 1375.81 53.6884C1374.96 56.053 1373.79 58.0296 1372.32 59.6183C1370.84 61.207 1369.18 62.3893 1367.33 63.1652C1365.48 63.941 1363.56 64.329 1361.56 64.329C1359.64 64.329 1357.76 63.9595 1355.91 63.2206C1354.06 62.4817 1352.4 61.3363 1350.92 59.7846C1349.45 58.2328 1348.26 56.2931 1347.38 53.9655C1346.53 51.6009 1346.1 48.8115 1346.1 45.5971C1346.1 42.4197 1346.53 39.6487 1347.38 37.2842C1348.23 34.9196 1349.39 32.943 1350.87 31.3543C1352.35 29.7656 1354.01 28.5833 1355.86 27.8074C1357.7 27.0315 1359.62 26.6436 1361.62 26.6436ZM1361.79 61.9459C1362.86 61.9459 1363.84 61.4656 1364.72 60.505C1365.61 59.5444 1366.31 57.9188 1366.83 55.6281C1367.38 53.3374 1367.66 50.197 1367.66 46.2067C1367.66 42.7338 1367.42 39.7226 1366.94 37.1733C1366.5 34.5871 1365.81 32.592 1364.89 31.188C1363.97 29.7471 1362.8 29.0266 1361.4 29.0266C1360.36 29.0266 1359.38 29.5069 1358.46 30.4675C1357.57 31.4282 1356.85 33.0538 1356.3 35.3445C1355.78 37.6352 1355.52 40.7756 1355.52 44.7658C1355.52 48.2388 1355.75 51.2684 1356.19 53.8547C1356.67 56.404 1357.37 58.3991 1358.29 59.84C1359.22 61.244 1360.38 61.9459 1361.79 61.9459ZM1407.69 53.245H1408.96L1408.41 63.4977H1381.69V62.223C1381.99 62.0752 1382.43 61.8166 1383.02 61.4472C1383.65 61.0777 1384.3 60.6528 1384.96 60.1725C1386.81 58.8424 1388.55 57.3276 1390.17 55.6281C1391.8 53.9286 1393.22 52.1182 1394.44 50.197C1395.66 48.2757 1396.62 46.3545 1397.32 44.4333C1398.02 42.5121 1398.38 40.6832 1398.38 38.9468C1398.38 37.2842 1397.97 35.8802 1397.16 34.7349C1396.38 33.5895 1394.96 33.0169 1392.89 33.0169C1391.15 33.0169 1389.55 33.4972 1388.07 34.4578C1386.59 35.4184 1385.13 36.9147 1383.69 38.9468L1382.64 38.06C1384.15 34.2176 1386.05 31.3543 1388.34 29.47C1390.64 27.5857 1393.5 26.6436 1396.93 26.6436C1398.93 26.6436 1400.72 26.9761 1402.31 27.6411C1403.9 28.2692 1405.15 29.2668 1406.08 30.6338C1407.04 31.9639 1407.52 33.7004 1407.52 35.8433C1407.52 39.6487 1406.3 43.2141 1403.86 46.5393C1401.46 49.8644 1398.1 52.9864 1393.78 55.9052V56.016H1401.87C1403.97 56.016 1405.43 55.7574 1406.24 55.2402C1407.06 54.7229 1407.54 54.0579 1407.69 53.245ZM1438.48 49.3657H1442.36V56.2931H1440.03C1439 56.2931 1438.48 56.9397 1438.48 58.2328C1438.48 59.1195 1438.48 59.9878 1438.48 60.8375C1438.51 61.6504 1438.55 62.5371 1438.59 63.4977H1429.83C1429.91 62.2785 1429.96 61.0962 1430 59.9508C1430.04 58.7685 1430.07 57.5493 1430.11 56.2931H1412.6V55.0185C1413.56 54.0948 1414.43 53.1342 1415.2 52.1366L1433.32 29.47C1433.73 28.9527 1434.1 28.454 1434.43 27.9737C1434.8 27.4564 1435.1 27.0131 1435.32 26.6436H1438.53L1438.48 49.3657ZM1430 37.7829L1420.74 49.3657H1430.16V37.7829H1430ZM1487.82 26.6436V36.8962H1486.55C1486.37 35.2706 1486.03 33.8851 1485.55 32.7398C1485.11 31.5575 1484.41 30.6523 1483.45 30.0242C1482.52 29.3592 1481.23 29.0266 1479.57 29.0266H1476.96C1476.19 29.0266 1475.58 29.2298 1475.13 29.6363C1474.73 30.0427 1474.52 30.8924 1474.52 32.1856V57.9557C1474.52 59.7661 1474.8 60.9114 1475.36 61.3917C1475.91 61.872 1476.93 62.1491 1478.4 62.223V63.4977H1462.61V62.223C1463.68 62.1491 1464.46 61.872 1464.94 61.3917C1465.42 60.9114 1465.66 59.7661 1465.66 57.9557V32.1856C1465.66 30.3752 1465.38 29.2298 1464.83 28.7495C1464.31 28.2323 1463.29 27.9552 1461.78 27.9182V26.6436H1487.82ZM1510.03 25.8123C1512.65 25.8123 1515.09 26.2557 1517.34 27.1424C1519.6 28.0291 1521.59 29.3222 1523.33 31.0217C1525.06 32.6843 1526.41 34.6979 1527.37 37.0625C1528.33 39.4271 1528.81 42.0687 1528.81 44.9875C1528.81 47.9063 1528.33 50.548 1527.37 52.9125C1526.41 55.2771 1525.06 57.3092 1523.33 59.0087C1521.63 60.7082 1519.63 62.0198 1517.34 62.9435C1515.05 63.8672 1512.6 64.329 1509.97 64.329C1507.39 64.329 1504.95 63.8856 1502.66 62.9989C1500.4 62.1122 1498.41 60.8375 1496.67 59.175C1494.93 57.4754 1493.59 55.4434 1492.63 53.0788C1491.66 50.7142 1491.18 48.0725 1491.18 45.1538C1491.18 42.235 1491.66 39.5933 1492.63 37.2287C1493.59 34.8642 1494.92 32.8321 1496.62 31.1326C1498.35 29.433 1500.37 28.1214 1502.66 27.1978C1504.95 26.2741 1507.4 25.8123 1510.03 25.8123ZM1511.14 61.9459C1513.06 61.9459 1514.57 61.3178 1515.68 60.0617C1516.79 58.7685 1517.58 56.9951 1518.06 54.7414C1518.58 52.4876 1518.84 49.8644 1518.84 46.8718C1518.84 40.8495 1517.92 36.2312 1516.07 33.0169C1514.26 29.8025 1511.86 28.1953 1508.86 28.1953C1506.98 28.1953 1505.46 28.8234 1504.32 30.0796C1503.21 31.3358 1502.4 33.1092 1501.88 35.3999C1501.4 37.6536 1501.16 40.2768 1501.16 43.2695C1501.16 49.2918 1502.07 53.9101 1503.88 57.1244C1505.72 60.3388 1508.14 61.9459 1511.14 61.9459ZM1552.85 31.0217L1562.05 57.9557C1562.38 58.9163 1562.86 59.803 1563.49 60.6159C1564.15 61.3917 1565.17 61.9275 1566.54 62.223L1563.99 74.8587H1562.71C1562.64 72.568 1562.31 70.5729 1561.71 68.8734C1561.12 67.1739 1560.38 65.8438 1559.5 64.8832C1558.61 63.9595 1557.65 63.4977 1556.62 63.4977H1541.76C1540.4 63.4977 1539.05 63.9595 1537.72 64.8832C1536.42 65.8438 1535.32 67.1739 1534.39 68.8734C1533.51 70.5729 1532.93 72.568 1532.67 74.8587H1531.4V62.223C1532.06 61.9275 1532.71 61.4287 1533.34 60.7267C1533.97 59.9878 1534.54 59.1565 1535.06 58.2328C1535.61 57.3092 1536.04 56.4409 1536.33 55.6281L1545.75 31.0217C1546.12 30.0611 1546.47 29.119 1546.81 28.1953C1547.14 27.2717 1547.43 26.3295 1547.69 25.3689H1550.91C1551.17 26.3295 1551.46 27.2717 1551.79 28.1953C1552.16 29.119 1552.51 30.0611 1552.85 31.0217ZM1550.52 61.1146C1552 61.1146 1552.81 60.8745 1552.96 60.3942C1553.11 59.9139 1552.98 59.1011 1552.57 57.9557L1546.09 38.0046H1545.98L1537.33 61.1146H1550.52ZM1600.45 57.9557C1600.97 59.2119 1601.39 60.1356 1601.73 60.7267C1602.1 61.3178 1602.48 61.7058 1602.89 61.8905C1603.3 62.0383 1603.79 62.1491 1604.39 62.223V63.4977H1588.92V62.223C1590.4 62.1491 1591.21 61.7058 1591.36 60.893C1591.55 60.0801 1591.42 59.1011 1590.97 57.9557L1588.2 50.7512C1587.98 50.9359 1587.69 51.0652 1587.32 51.1391C1586.98 51.176 1586.61 51.1945 1586.21 51.1945H1579.95C1579.17 51.1945 1578.58 51.2869 1578.17 51.4716C1577.77 51.6563 1577.41 52.1182 1577.12 52.8571L1575.12 57.9557C1574.64 59.175 1574.68 60.1725 1575.24 60.9484C1575.79 61.7243 1576.88 62.1491 1578.5 62.223V63.4977H1568.42V62.223C1569.23 62.1491 1569.91 61.7427 1570.47 61.0038C1571.06 60.2279 1571.6 59.2119 1572.08 57.9557L1582.72 31.0217C1583.12 30.0611 1583.47 29.119 1583.77 28.1953C1584.1 27.2717 1584.4 26.3295 1584.66 25.3689H1587.87C1588.13 26.3295 1588.42 27.2717 1588.76 28.1953C1589.09 29.119 1589.44 30.0611 1589.81 31.0217L1600.45 57.9557ZM1585.93 48.8115C1586.45 48.8115 1586.78 48.7376 1586.93 48.5898C1587.11 48.4051 1587.09 48.0356 1586.87 47.4814L1583.05 38.0046H1582.94L1578.62 49.0331C1578.8 48.9223 1579.02 48.8669 1579.28 48.8669C1579.54 48.8299 1579.83 48.8115 1580.17 48.8115H1585.93Z" fill="black"/>
<path d="M1660.58 38.6796C1655.06 36.4735 1648.57 37.6501 1644.15 42.0623C1638.19 48.0186 1638.19 57.6518 1644.15 63.6082C1648.57 68.0204 1655.06 69.1969 1660.58 66.9909V59.9314C1659.48 60.4462 1658.3 60.7403 1657.04 60.7403C1652.63 60.7403 1649.09 57.2106 1649.09 52.7985C1649.09 48.3863 1652.63 44.8566 1657.04 44.8566C1658.3 44.8566 1659.55 45.1508 1660.58 45.6655V38.6796Z" fill="black"/>
<path d="M1658.08 31.6052C1660.26 29.4237 1660.26 25.813 1658.08 23.5563C1655.9 21.3749 1652.3 21.3749 1650.05 23.5563C1647.8 25.7378 1647.87 29.3485 1650.05 31.6052C1652.3 33.7866 1655.9 33.7866 1658.08 31.6052Z" fill="black"/>
<path d="M1721.33 53.245H1722.6L1722.05 63.4977H1695.34V62.223C1695.63 62.0752 1696.08 61.8166 1696.67 61.4472C1697.3 61.0777 1697.94 60.6528 1698.61 60.1725C1700.45 58.8424 1702.19 57.3276 1703.82 55.6281C1705.44 53.9286 1706.86 52.1182 1708.08 50.197C1709.3 48.2757 1710.26 46.3545 1710.97 44.4333C1711.67 42.5121 1712.02 40.6832 1712.02 38.9468C1712.02 37.2842 1711.61 35.8802 1710.8 34.7349C1710.02 33.5895 1708.6 33.0169 1706.53 33.0169C1704.8 33.0169 1703.19 33.4972 1701.71 34.4578C1700.23 35.4184 1698.77 36.9147 1697.33 38.9468L1696.28 38.06C1697.79 34.2176 1699.7 31.3543 1701.99 29.47C1704.28 27.5857 1707.14 26.6436 1710.58 26.6436C1712.57 26.6436 1714.37 26.9761 1715.95 27.6411C1717.54 28.2692 1718.8 29.2668 1719.72 30.6338C1720.68 31.9639 1721.16 33.7004 1721.16 35.8433C1721.16 39.6487 1719.94 43.2141 1717.51 46.5393C1715.1 49.8644 1711.74 52.9864 1707.42 55.9052V56.016H1715.51C1717.62 56.016 1719.08 55.7574 1719.89 55.2402C1720.7 54.7229 1721.18 54.0579 1721.33 53.245ZM1744.92 26.6436C1746.84 26.6436 1748.72 27.0131 1750.57 27.752C1752.42 28.4909 1754.08 29.6363 1755.56 31.188C1757.04 32.7398 1758.2 34.6979 1759.05 37.0625C1759.94 39.3901 1760.38 42.1611 1760.38 45.3754C1760.38 48.5528 1759.95 51.3238 1759.1 53.6884C1758.25 56.053 1757.09 58.0296 1755.61 59.6183C1754.14 61.207 1752.47 62.3893 1750.63 63.1652C1748.78 63.941 1746.86 64.329 1744.86 64.329C1742.94 64.329 1741.06 63.9595 1739.21 63.2206C1737.36 62.4817 1735.7 61.3363 1734.22 59.7846C1732.74 58.2328 1731.56 56.2931 1730.67 53.9655C1729.82 51.6009 1729.4 48.8115 1729.4 45.5971C1729.4 42.4197 1729.82 39.6487 1730.67 37.2842C1731.52 34.9196 1732.69 32.943 1734.17 31.3543C1735.64 29.7656 1737.31 28.5833 1739.15 27.8074C1741 27.0315 1742.92 26.6436 1744.92 26.6436ZM1745.08 61.9459C1746.15 61.9459 1747.13 61.4656 1748.02 60.505C1748.91 59.5444 1749.61 57.9188 1750.13 55.6281C1750.68 53.3374 1750.96 50.197 1750.96 46.2067C1750.96 42.7338 1750.72 39.7226 1750.24 37.1733C1749.79 34.5871 1749.11 32.592 1748.19 31.188C1747.26 29.7471 1746.1 29.0266 1744.7 29.0266C1743.66 29.0266 1742.68 29.5069 1741.76 30.4675C1740.87 31.4282 1740.15 33.0538 1739.6 35.3445C1739.08 37.6352 1738.82 40.7756 1738.82 44.7658C1738.82 48.2388 1739.04 51.2684 1739.49 53.8547C1739.97 56.404 1740.67 58.3991 1741.59 59.84C1742.52 61.244 1743.68 61.9459 1745.08 61.9459ZM1798 46.7609L1780.82 48.2573L1780.43 43.7683L1797.61 42.2719L1798 46.7609ZM1840.88 53.245H1842.16L1841.6 63.4977H1814.89V62.223C1815.19 62.0752 1815.63 61.8166 1816.22 61.4472C1816.85 61.0777 1817.5 60.6528 1818.16 60.1725C1820.01 58.8424 1821.74 57.3276 1823.37 55.6281C1825 53.9286 1826.42 52.1182 1827.64 50.197C1828.86 48.2757 1829.82 46.3545 1830.52 44.4333C1831.22 42.5121 1831.57 40.6832 1831.57 38.9468C1831.57 37.2842 1831.17 35.8802 1830.35 34.7349C1829.58 33.5895 1828.15 33.0169 1826.09 33.0169C1824.35 33.0169 1822.74 33.4972 1821.26 34.4578C1819.79 35.4184 1818.33 36.9147 1816.89 38.9468L1815.83 38.06C1817.35 34.2176 1819.25 31.3543 1821.54 29.47C1823.83 27.5857 1826.69 26.6436 1830.13 26.6436C1832.13 26.6436 1833.92 26.9761 1835.51 27.6411C1837.1 28.2692 1838.35 29.2668 1839.28 30.6338C1840.24 31.9639 1840.72 33.7004 1840.72 35.8433C1840.72 39.6487 1839.5 43.2141 1837.06 46.5393C1834.66 49.8644 1831.29 52.9864 1826.97 55.9052V56.016H1835.06C1837.17 56.016 1838.63 55.7574 1839.44 55.2402C1840.25 54.7229 1840.73 54.0579 1840.88 53.245ZM1863.53 57.4015C1863.53 58.7685 1863.64 59.803 1863.86 60.505C1864.12 61.1701 1864.64 61.6134 1865.41 61.8351C1866.22 62.0568 1867.44 62.1861 1869.07 62.223V63.4977H1848.56V62.223C1850.23 62.1861 1851.45 62.0568 1852.22 61.8351C1853.03 61.6134 1853.55 61.1701 1853.77 60.505C1854 59.803 1854.11 58.7685 1854.11 57.4015V33.294L1849.01 36.4529L1847.84 34.6794L1860.7 26.6436H1863.92C1863.77 27.3456 1863.66 28.0476 1863.58 28.7495C1863.55 29.4515 1863.53 30.1535 1863.53 30.8555V57.4015ZM1888.88 63.4977V62.223C1889.95 62.1491 1890.73 61.872 1891.21 61.3917C1891.69 60.9114 1891.93 59.7661 1891.93 57.9557V32.1856C1891.93 30.3752 1891.65 29.2298 1891.09 28.7495C1890.58 28.2323 1889.56 27.9552 1888.05 27.9182V26.6436H1903.84V27.9182C1902.77 27.9552 1901.99 28.2323 1901.51 28.7495C1901.03 29.2298 1900.79 30.3752 1900.79 32.1856V41.9948C1901.09 41.7732 1901.44 41.6254 1901.85 41.5515C1902.29 41.4776 1902.81 41.4406 1903.4 41.4406H1913.87C1914.87 41.4406 1915.57 41.2744 1915.98 40.9419C1916.38 40.6094 1916.59 39.9443 1916.59 38.9468V32.1856C1916.59 30.3752 1916.31 29.2298 1915.76 28.7495C1915.24 28.2323 1914.22 27.9552 1912.71 27.9182V26.6436H1928.5V27.9182C1927.43 27.9552 1926.66 28.2323 1926.18 28.7495C1925.7 29.2298 1925.45 30.3752 1925.45 32.1856V57.9557C1925.45 59.7661 1925.73 60.9114 1926.29 61.3917C1926.84 61.872 1927.86 62.1491 1929.33 62.223V63.4977H1913.54V62.223C1914.61 62.1491 1915.39 61.872 1915.87 61.3917C1916.35 60.9114 1916.59 59.7661 1916.59 57.9557V43.2141C1916.29 43.4727 1915.92 43.639 1915.48 43.7129C1915.04 43.7867 1914.54 43.8237 1913.98 43.8237H1903.51C1902.51 43.8237 1901.81 43.99 1901.4 44.3225C1901 44.655 1900.79 45.3016 1900.79 46.2622V57.9557C1900.79 59.7661 1901.07 60.9114 1901.62 61.3917C1902.18 61.872 1903.19 62.1491 1904.67 62.223V63.4977H1888.88ZM1953.78 25.8123C1956.4 25.8123 1958.84 26.2557 1961.09 27.1424C1963.35 28.0291 1965.34 29.3222 1967.08 31.0217C1968.81 32.6843 1970.16 34.6979 1971.12 37.0625C1972.08 39.4271 1972.56 42.0687 1972.56 44.9875C1972.56 47.9063 1972.08 50.548 1971.12 52.9125C1970.16 55.2771 1968.81 57.3092 1967.08 59.0087C1965.38 60.7082 1963.38 62.0198 1961.09 62.9435C1958.8 63.8672 1956.35 64.329 1953.72 64.329C1951.14 64.329 1948.7 63.8856 1946.41 62.9989C1944.15 62.1122 1942.16 60.8375 1940.42 59.175C1938.68 57.4754 1937.34 55.4434 1936.38 53.0788C1935.42 50.7142 1934.93 48.0725 1934.93 45.1538C1934.93 42.235 1935.42 39.5933 1936.38 37.2287C1937.34 34.8642 1938.67 32.8321 1940.37 31.1326C1942.1 29.433 1944.12 28.1214 1946.41 27.1978C1948.7 26.2741 1951.15 25.8123 1953.78 25.8123ZM1954.89 61.9459C1956.81 61.9459 1958.32 61.3178 1959.43 60.0617C1960.54 58.7685 1961.33 56.9951 1961.81 54.7414C1962.33 52.4876 1962.59 49.8644 1962.59 46.8718C1962.59 40.8495 1961.67 36.2312 1959.82 33.0169C1958.01 29.8025 1955.61 28.1953 1952.61 28.1953C1950.73 28.1953 1949.21 28.8234 1948.07 30.0796C1946.96 31.3358 1946.15 33.1092 1945.63 35.3999C1945.15 37.6536 1944.91 40.2768 1944.91 43.2695C1944.91 49.2918 1945.82 53.9101 1947.63 57.1244C1949.47 60.3388 1951.89 61.9459 1954.89 61.9459ZM1978.86 64.329C1977.94 64.329 1976.96 64.2551 1975.93 64.1073C1974.89 63.9595 1974 63.7563 1973.27 63.4977V62.223C1974 62.223 1974.84 61.9275 1975.76 61.3363C1976.68 60.7452 1977.63 59.5629 1978.59 57.7895L1986.51 43.4358C1984.04 42.8077 1982.15 41.7916 1980.86 40.3877C1979.6 38.9837 1978.97 37.2842 1978.97 35.2891C1978.97 33.7373 1979.44 32.2779 1980.36 30.9109C1981.32 29.5439 1982.87 28.454 1985.01 27.6411C1987.19 26.7914 1990.11 26.3665 1993.77 26.3665C1994.95 26.3665 1996.32 26.4219 1997.87 26.5327C1999.42 26.6066 2001.14 26.6436 2003.03 26.6436H2010.12V27.9182C2009.05 27.9552 2008.27 28.2323 2007.79 28.7495C2007.31 29.2298 2007.07 30.3752 2007.07 32.1856V57.9557C2007.07 59.7661 2007.35 60.9114 2007.9 61.3917C2008.46 61.872 2009.47 62.1491 2010.95 62.223V63.4977H1995.16V62.223C1996.23 62.1491 1997 61.872 1997.48 61.3917C1997.96 60.9114 1998.2 59.7661 1998.2 57.9557V32.1856C1998.2 30.7446 1997.95 29.821 1997.43 29.4146C1996.95 28.9712 1996.1 28.7495 1994.88 28.7495C1993.29 28.7495 1991.85 29.3222 1990.56 30.4675C1989.3 31.5759 1988.67 33.257 1988.67 35.5107C1988.67 36.693 1988.91 37.8384 1989.39 38.9468C1989.87 40.0182 1990.72 40.9234 1991.94 41.6623C1993.2 42.4013 1994.92 42.8446 1997.1 42.9924V44.9321C1996.65 44.9321 1996.26 45.0245 1995.93 45.2092C1995.6 45.357 1995.27 45.7449 1994.93 46.373L1988.67 58.4545C1987.82 60.0801 1986.64 61.4656 1985.13 62.611C1983.61 63.7563 1981.52 64.329 1978.86 64.329ZM2028.46 41.3298H2033.84C2037.87 41.3298 2041.04 41.7732 2043.37 42.6599C2045.7 43.5466 2047.34 44.7658 2048.3 46.3176C2049.3 47.8693 2049.8 49.6612 2049.8 51.6933C2049.8 53.7253 2049.25 55.6466 2048.14 57.4569C2047.07 59.2304 2045.39 60.6898 2043.09 61.8351C2040.84 62.9435 2037.96 63.4977 2034.45 63.4977H2016.55V62.223C2017.62 62.1491 2018.4 61.872 2018.88 61.3917C2019.36 60.9114 2019.6 59.7661 2019.6 57.9557V32.1856C2019.6 30.3752 2019.32 29.2298 2018.77 28.7495C2018.25 28.2323 2017.23 27.9552 2015.72 27.9182V26.6436H2046.2V35.7878H2044.92C2044.81 34.5317 2044.57 33.4048 2044.2 32.4072C2043.83 31.3727 2043.21 30.5599 2042.32 29.9688C2041.43 29.3407 2040.16 29.0266 2038.5 29.0266H2030.9C2030.13 29.0266 2029.52 29.2298 2029.07 29.6363C2028.67 30.0427 2028.46 30.8924 2028.46 32.1856V41.3298ZM2031.73 61.1146C2033.69 61.1146 2035.3 60.6528 2036.56 59.7291C2037.85 58.7685 2038.81 57.5863 2039.44 56.1823C2040.07 54.7783 2040.38 53.3928 2040.38 52.0258C2040.38 49.9938 2039.99 48.3681 2039.22 47.1489C2038.48 45.9296 2037.46 45.0614 2036.17 44.5442C2034.91 43.99 2033.49 43.7129 2031.9 43.7129H2028.46V57.9557C2028.46 59.2488 2028.67 60.0986 2029.07 60.505C2029.48 60.9114 2030.37 61.1146 2031.73 61.1146ZM2055.68 63.4977V62.223C2056.75 62.1491 2057.53 61.872 2058.01 61.3917C2058.49 60.9114 2058.73 59.7661 2058.73 57.9557V32.1856C2058.73 30.3752 2058.45 29.2298 2057.9 28.7495C2057.38 28.2323 2056.36 27.9552 2054.85 27.9182V26.6436H2058.73C2061.42 26.6436 2063.95 26.6066 2066.32 26.5327C2068.68 26.4219 2070.46 26.3665 2071.64 26.3665C2075.48 26.3665 2078.51 26.7914 2080.73 27.6411C2082.98 28.4909 2084.59 29.6178 2085.55 31.0217C2086.55 32.3888 2087.05 33.9036 2087.05 35.5662C2087.05 37.4874 2086.42 39.3162 2085.16 41.0527C2083.94 42.7892 2081.98 44.1377 2079.29 45.0983C2076.63 46.022 2073.1 46.3176 2068.7 45.9851V44.0454C2070.7 44.1193 2072.34 43.7683 2073.63 42.9924C2074.93 42.1796 2075.87 41.1081 2076.46 39.7781C2077.09 38.448 2077.4 37.0255 2077.4 35.5107C2077.4 33.4787 2076.83 31.853 2075.68 30.6338C2074.54 29.3776 2072.95 28.7495 2070.92 28.7495C2069.7 28.7495 2068.83 28.9712 2068.31 29.4146C2067.83 29.821 2067.59 30.7446 2067.59 32.1856V57.9557C2067.59 59.138 2067.7 60.0432 2067.93 60.6713C2068.18 61.2624 2068.63 61.6688 2069.26 61.8905C2069.92 62.0752 2070.84 62.1861 2072.03 62.223V63.4977H2055.68ZM2092.9 64.329C2091.97 64.329 2090.99 64.2551 2089.96 64.1073C2088.92 63.9595 2088.04 63.7563 2087.3 63.4977V62.223C2088.04 62.223 2088.87 61.9275 2089.79 61.3363C2090.72 60.7452 2091.66 59.5629 2092.62 57.7895L2100.54 43.4358C2098.07 42.8077 2096.18 41.7916 2094.89 40.3877C2093.63 38.9837 2093.01 37.2842 2093.01 35.2891C2093.01 33.7373 2093.47 32.2779 2094.39 30.9109C2095.35 29.5439 2096.9 28.454 2099.05 27.6411C2101.23 26.7914 2104.15 26.3665 2107.8 26.3665C2108.99 26.3665 2110.35 26.4219 2111.9 26.5327C2113.46 26.6066 2115.17 26.6436 2117.06 26.6436H2124.15V27.9182C2123.08 27.9552 2122.3 28.2323 2121.82 28.7495C2121.34 29.2298 2121.1 30.3752 2121.1 32.1856V57.9557C2121.1 59.7661 2121.38 60.9114 2121.94 61.3917C2122.49 61.872 2123.51 62.1491 2124.98 62.223V63.4977H2109.19V62.223C2110.26 62.1491 2111.04 61.872 2111.52 61.3917C2112 60.9114 2112.24 59.7661 2112.24 57.9557V32.1856C2112.24 30.7446 2111.98 29.821 2111.46 29.4146C2110.98 28.9712 2110.13 28.7495 2108.91 28.7495C2107.32 28.7495 2105.88 29.3222 2104.59 30.4675C2103.33 31.5759 2102.7 33.257 2102.7 35.5107C2102.7 36.693 2102.95 37.8384 2103.43 38.9468C2103.91 40.0182 2104.76 40.9234 2105.97 41.6623C2107.23 42.4013 2108.95 42.8446 2111.13 42.9924V44.9321C2110.69 44.9321 2110.3 45.0245 2109.96 45.2092C2109.63 45.357 2109.3 45.7449 2108.97 46.373L2102.7 58.4545C2101.86 60.0801 2100.67 61.4656 2099.16 62.611C2097.64 63.7563 2095.56 64.329 2092.9 64.329ZM2169.02 53.245H2170.29L2169.74 63.4977H2143.02V62.223C2143.32 62.0752 2143.76 61.8166 2144.35 61.4472C2144.98 61.0777 2145.63 60.6528 2146.29 60.1725C2148.14 58.8424 2149.88 57.3276 2151.5 55.6281C2153.13 53.9286 2154.55 52.1182 2155.77 50.197C2156.99 48.2757 2157.95 46.3545 2158.65 44.4333C2159.36 42.5121 2159.71 40.6832 2159.71 38.9468C2159.71 37.2842 2159.3 35.8802 2158.49 34.7349C2157.71 33.5895 2156.29 33.0169 2154.22 33.0169C2152.48 33.0169 2150.88 33.4972 2149.4 34.4578C2147.92 35.4184 2146.46 36.9147 2145.02 38.9468L2143.97 38.06C2145.48 34.2176 2147.38 31.3543 2149.68 29.47C2151.97 27.5857 2154.83 26.6436 2158.27 26.6436C2160.26 26.6436 2162.05 26.9761 2163.64 27.6411C2165.23 28.2692 2166.49 29.2668 2167.41 30.6338C2168.37 31.9639 2168.85 33.7004 2168.85 35.8433C2168.85 39.6487 2167.63 43.2141 2165.19 46.5393C2162.79 49.8644 2159.43 52.9864 2155.11 55.9052V56.016H2163.2C2165.3 56.016 2166.76 55.7574 2167.58 55.2402C2168.39 54.7229 2168.87 54.0579 2169.02 53.245ZM2192.6 26.6436C2194.53 26.6436 2196.41 27.0131 2198.26 27.752C2200.1 28.4909 2201.77 29.6363 2203.24 31.188C2204.72 32.7398 2205.89 34.6979 2206.74 37.0625C2207.62 39.3901 2208.07 42.1611 2208.07 45.3754C2208.07 48.5528 2207.64 51.3238 2206.79 53.6884C2205.94 56.053 2204.78 58.0296 2203.3 59.6183C2201.82 61.207 2200.16 62.3893 2198.31 63.1652C2196.47 63.941 2194.54 64.329 2192.55 64.329C2190.63 64.329 2188.74 63.9595 2186.9 63.2206C2185.05 62.4817 2183.39 61.3363 2181.91 59.7846C2180.43 58.2328 2179.25 56.2931 2178.36 53.9655C2177.51 51.6009 2177.09 48.8115 2177.09 45.5971C2177.09 42.4197 2177.51 39.6487 2178.36 37.2842C2179.21 34.9196 2180.38 32.943 2181.85 31.3543C2183.33 29.7656 2184.99 28.5833 2186.84 27.8074C2188.69 27.0315 2190.61 26.6436 2192.6 26.6436ZM2192.77 61.9459C2193.84 61.9459 2194.82 61.4656 2195.71 60.505C2196.59 59.5444 2197.3 57.9188 2197.81 55.6281C2198.37 53.3374 2198.65 50.197 2198.65 46.2067C2198.65 42.7338 2198.4 39.7226 2197.92 37.1733C2197.48 34.5871 2196.8 32.592 2195.87 31.188C2194.95 29.7471 2193.79 29.0266 2192.38 29.0266C2191.35 29.0266 2190.37 29.5069 2189.45 30.4675C2188.56 31.4282 2187.84 33.0538 2187.28 35.3445C2186.77 37.6352 2186.51 40.7756 2186.51 44.7658C2186.51 48.2388 2186.73 51.2684 2187.17 53.8547C2187.65 56.404 2188.36 58.3991 2189.28 59.84C2190.2 61.244 2191.37 61.9459 2192.77 61.9459ZM2238.67 53.245H2239.94L2239.39 63.4977H2212.68V62.223C2212.97 62.0752 2213.42 61.8166 2214.01 61.4472C2214.64 61.0777 2215.28 60.6528 2215.95 60.1725C2217.8 58.8424 2219.53 57.3276 2221.16 55.6281C2222.78 53.9286 2224.21 52.1182 2225.42 50.197C2226.64 48.2757 2227.6 46.3545 2228.31 44.4333C2229.01 42.5121 2229.36 40.6832 2229.36 38.9468C2229.36 37.2842 2228.95 35.8802 2228.14 34.7349C2227.36 33.5895 2225.94 33.0169 2223.87 33.0169C2222.14 33.0169 2220.53 33.4972 2219.05 34.4578C2217.57 35.4184 2216.11 36.9147 2214.67 38.9468L2213.62 38.06C2215.14 34.2176 2217.04 31.3543 2219.33 29.47C2221.62 27.5857 2224.48 26.6436 2227.92 26.6436C2229.91 26.6436 2231.71 26.9761 2233.29 27.6411C2234.88 28.2692 2236.14 29.2668 2237.06 30.6338C2238.02 31.9639 2238.5 33.7004 2238.5 35.8433C2238.5 39.6487 2237.28 43.2141 2234.85 46.5393C2232.44 49.8644 2229.08 52.9864 2224.76 55.9052V56.016H2232.85C2234.96 56.016 2236.42 55.7574 2237.23 55.2402C2238.04 54.7229 2238.52 54.0579 2238.67 53.245ZM2269.46 49.3657H2273.34V56.2931H2271.01C2269.98 56.2931 2269.46 56.9397 2269.46 58.2328C2269.46 59.1195 2269.46 59.9878 2269.46 60.8375C2269.5 61.6504 2269.54 62.5371 2269.57 63.4977H2260.82C2260.89 62.2785 2260.95 61.0962 2260.98 59.9508C2261.02 58.7685 2261.06 57.5493 2261.09 56.2931H2243.58V55.0185C2244.54 54.0948 2245.41 53.1342 2246.19 52.1366L2264.31 29.47C2264.71 28.9527 2265.08 28.454 2265.42 27.9737C2265.79 27.4564 2266.08 27.0131 2266.3 26.6436H2269.52L2269.46 49.3657ZM2260.98 37.7829L2251.73 49.3657H2261.15V37.7829H2260.98ZM2318.81 26.6436V36.8962H2317.53C2317.35 35.2706 2317.02 33.8851 2316.54 32.7398C2316.09 31.5575 2315.39 30.6523 2314.43 30.0242C2313.51 29.3592 2312.21 29.0266 2310.55 29.0266H2307.95C2307.17 29.0266 2306.56 29.2298 2306.12 29.6363C2305.71 30.0427 2305.51 30.8924 2305.51 32.1856V57.9557C2305.51 59.7661 2305.79 60.9114 2306.34 61.3917C2306.89 61.872 2307.91 62.1491 2309.39 62.223V63.4977H2293.59V62.223C2294.66 62.1491 2295.44 61.872 2295.92 61.3917C2296.4 60.9114 2296.64 59.7661 2296.64 57.9557V32.1856C2296.64 30.3752 2296.36 29.2298 2295.81 28.7495C2295.29 28.2323 2294.28 27.9552 2292.76 27.9182V26.6436H2318.81ZM2341.01 25.8123C2343.63 25.8123 2346.07 26.2557 2348.33 27.1424C2350.58 28.0291 2352.58 29.3222 2354.31 31.0217C2356.05 32.6843 2357.4 34.6979 2358.36 37.0625C2359.32 39.4271 2359.8 42.0687 2359.8 44.9875C2359.8 47.9063 2359.32 50.548 2358.36 52.9125C2357.4 55.2771 2356.05 57.3092 2354.31 59.0087C2352.61 60.7082 2350.62 62.0198 2348.33 62.9435C2346.04 63.8672 2343.58 64.329 2340.96 64.329C2338.37 64.329 2335.93 63.8856 2333.64 62.9989C2331.39 62.1122 2329.39 60.8375 2327.66 59.175C2325.92 57.4754 2324.57 55.4434 2323.61 53.0788C2322.65 50.7142 2322.17 48.0725 2322.17 45.1538C2322.17 42.235 2322.65 39.5933 2323.61 37.2287C2324.57 34.8642 2325.9 32.8321 2327.6 31.1326C2329.34 29.433 2331.35 28.1214 2333.64 27.1978C2335.93 26.2741 2338.39 25.8123 2341.01 25.8123ZM2342.12 61.9459C2344.04 61.9459 2345.56 61.3178 2346.66 60.0617C2347.77 58.7685 2348.57 56.9951 2349.05 54.7414C2349.56 52.4876 2349.82 49.8644 2349.82 46.8718C2349.82 40.8495 2348.9 36.2312 2347.05 33.0169C2345.24 29.8025 2342.84 28.1953 2339.85 28.1953C2337.96 28.1953 2336.45 28.8234 2335.3 30.0796C2334.2 31.3358 2333.38 33.1092 2332.87 35.3999C2332.38 37.6536 2332.14 40.2768 2332.14 43.2695C2332.14 49.2918 2333.05 53.9101 2334.86 57.1244C2336.71 60.3388 2339.13 61.9459 2342.12 61.9459ZM2383.83 31.0217L2393.03 57.9557C2393.36 58.9163 2393.84 59.803 2394.47 60.6159C2395.14 61.3917 2396.15 61.9275 2397.52 62.223L2394.97 74.8587H2393.7C2393.62 72.568 2393.29 70.5729 2392.7 68.8734C2392.11 67.1739 2391.37 65.8438 2390.48 64.8832C2389.6 63.9595 2388.63 63.4977 2387.6 63.4977H2372.75C2371.38 63.4977 2370.03 63.9595 2368.7 64.8832C2367.41 65.8438 2366.3 67.1739 2365.38 68.8734C2364.49 70.5729 2363.92 72.568 2363.66 74.8587H2362.38V62.223C2363.05 61.9275 2363.7 61.4287 2364.32 60.7267C2364.95 59.9878 2365.52 59.1565 2366.04 58.2328C2366.6 57.3092 2367.02 56.4409 2367.32 55.6281L2376.74 31.0217C2377.11 30.0611 2377.46 29.119 2377.79 28.1953C2378.12 27.2717 2378.42 26.3295 2378.68 25.3689H2381.89C2382.15 26.3295 2382.45 27.2717 2382.78 28.1953C2383.15 29.119 2383.5 30.0611 2383.83 31.0217ZM2381.5 61.1146C2382.98 61.1146 2383.79 60.8745 2383.94 60.3942C2384.09 59.9139 2383.96 59.1011 2383.55 57.9557L2377.07 38.0046H2376.96L2368.31 61.1146H2381.5ZM2431.44 57.9557C2431.95 59.2119 2432.38 60.1356 2432.71 60.7267C2433.08 61.3178 2433.47 61.7058 2433.87 61.8905C2434.28 62.0383 2434.78 62.1491 2435.37 62.223V63.4977H2419.91V62.223C2421.39 62.1491 2422.2 61.7058 2422.35 60.893C2422.53 60.0801 2422.4 59.1011 2421.96 57.9557L2419.19 50.7512C2418.97 50.9359 2418.67 51.0652 2418.3 51.1391C2417.97 51.176 2417.6 51.1945 2417.19 51.1945H2410.93C2410.15 51.1945 2409.56 51.2869 2409.16 51.4716C2408.75 51.6563 2408.4 52.1182 2408.1 52.8571L2406.11 57.9557C2405.63 59.175 2405.67 60.1725 2406.22 60.9484C2406.77 61.7243 2407.86 62.1491 2409.49 62.223V63.4977H2399.4V62.223C2400.22 62.1491 2400.9 61.7427 2401.45 61.0038C2402.04 60.2279 2402.58 59.2119 2403.06 57.9557L2413.7 31.0217C2414.11 30.0611 2414.46 29.119 2414.75 28.1953C2415.09 27.2717 2415.38 26.3295 2415.64 25.3689H2418.86C2419.11 26.3295 2419.41 27.2717 2419.74 28.1953C2420.07 29.119 2420.43 30.0611 2420.79 31.0217L2431.44 57.9557ZM2416.92 48.8115C2417.43 48.8115 2417.77 48.7376 2417.91 48.5898C2418.1 48.4051 2418.08 48.0356 2417.86 47.4814L2414.03 38.0046H2413.92L2409.6 49.0331C2409.78 48.9223 2410.01 48.8669 2410.27 48.8669C2410.52 48.8299 2410.82 48.8115 2411.15 48.8115H2416.92Z" fill="black"/>
<defs>
<linearGradient id="paint0_linear_614_2629" x1="0" y1="45" x2="2467.31" y2="45" gradientUnits="userSpaceOnUse">
<stop stop-color="white"/>
<stop offset="0.325" stop-color="#D4D4D4"/>
<stop offset="0.685" stop-color="white"/>
<stop offset="0.98" stop-color="#D4D4D4"/>
</linearGradient>
</defs>
</svg>
