<svg width="1162" height="38" viewBox="0 0 1162 38" fill="none" xmlns="http://www.w3.org/2000/svg">
<rect width="1161.16" height="37" transform="translate(0.78125 0.0372925)" fill="#272729"/>
<path d="M18.3951 25.5373V25.0679C18.7897 25.0407 19.0754 24.9387 19.2522 24.7618C19.4291 24.5849 19.5175 24.1631 19.5175 23.4965V14.0066C19.5175 13.34 19.4155 12.9182 19.2114 12.7413C19.0209 12.5509 18.6468 12.4488 18.089 12.4352V11.9658H23.9053V12.4352C23.5108 12.4488 23.225 12.5509 23.0482 12.7413C22.8713 12.9182 22.7829 13.34 22.7829 14.0066V23.4965C22.7829 24.1631 22.8849 24.5849 23.089 24.7618C23.2931 24.9387 23.6672 25.0407 24.2114 25.0679V25.5373H18.3951ZM38.3438 25.7006C38.1397 25.4829 37.9288 25.272 37.7112 25.0679C37.4935 24.8502 37.1465 24.5305 36.6703 24.1087L28.6295 16.7618H28.5887V23.4965C28.5887 23.9591 28.7043 24.3332 28.9356 24.6189C29.1805 24.891 29.5955 25.0407 30.1805 25.0679V25.5373H26.405V25.0679C26.7996 25.0407 27.0853 24.891 27.2621 24.6189C27.439 24.3332 27.5275 23.9591 27.5275 23.4965V14.0066C27.5275 13.34 27.4254 12.9182 27.2213 12.7413C27.0309 12.5509 26.6567 12.4488 26.0989 12.4352V11.9658H28.5479C28.7519 12.2243 28.9696 12.4556 29.2009 12.6597C29.4322 12.8638 29.6975 13.1087 29.9968 13.3944L38.1193 20.7414H38.1601V14.0066C38.1601 13.5441 38.0445 13.1699 37.8132 12.8842C37.5819 12.5985 37.1669 12.4488 36.5683 12.4352V11.9658H40.3438V12.4352C39.9493 12.4488 39.6635 12.5985 39.4867 12.8842C39.3098 13.1699 39.2214 13.5441 39.2214 14.0066V23.4965C39.2214 23.8774 39.2214 24.2448 39.2214 24.5985C39.235 24.9387 39.2486 25.306 39.2622 25.7006H38.3438ZM41.9578 11.9658H53.5905V15.3332H53.1211C53.0395 14.5985 52.8218 13.9998 52.4681 13.5373C52.1143 13.0747 51.5089 12.8434 50.6517 12.8434H49.4068V23.4965C49.4068 24.1631 49.5089 24.5849 49.7129 24.7618C49.917 24.9387 50.2912 25.0407 50.8354 25.0679V25.5373H45.0191V25.0679C45.4136 25.0407 45.6993 24.9387 45.8762 24.7618C46.0531 24.5849 46.1415 24.1631 46.1415 23.4965V12.8434H44.8762C44.0463 12.8434 43.4476 13.0747 43.0803 13.5373C42.7265 13.9998 42.5088 14.5985 42.4272 15.3332H41.9578V11.9658ZM55.4424 25.5373V25.0679C55.837 25.0407 56.1227 24.9387 56.2995 24.7618C56.4764 24.5849 56.5648 24.1631 56.5648 23.4965V14.0066C56.5648 13.34 56.4628 12.9182 56.2587 12.7413C56.0682 12.5509 55.6941 12.4488 55.1363 12.4352V11.9658H65.1567V14.823H64.6873C64.6601 14.2379 64.456 13.7617 64.0751 13.3944C63.7077 13.0271 63.1363 12.8434 62.3608 12.8434H60.7281C60.4424 12.8434 60.2179 12.9182 60.0547 13.0679C59.905 13.2175 59.8302 13.5305 59.8302 14.0066V18.0271C59.939 17.9454 60.0683 17.891 60.2179 17.8638C60.3812 17.8366 60.5717 17.823 60.7893 17.823H62.7689C63.1771 17.823 63.5172 17.7073 63.7894 17.476C64.0615 17.2448 64.2043 16.925 64.2179 16.5169H64.6873V19.9863H64.2179C64.2043 19.4829 64.0615 19.1427 63.7894 18.9658C63.5172 18.789 63.1771 18.7005 62.7689 18.7005H60.8302C60.4628 18.7005 60.2043 18.7618 60.0547 18.8842C59.905 19.0067 59.8302 19.2448 59.8302 19.5985V23.4965C59.8302 23.9727 59.9322 24.2856 60.1363 24.4352C60.354 24.5849 60.7689 24.6597 61.3812 24.6597H63.32C64.1363 24.6597 64.7826 24.4148 65.2587 23.925C65.7349 23.4352 66.0002 22.8502 66.0547 22.1699H66.5241L66.3608 25.5373H55.4424ZM80.2156 25.8434C79.6033 25.8434 79.0795 25.7414 78.6442 25.5373C78.2088 25.3468 77.8414 25.0883 77.5421 24.7618C77.2428 24.4352 76.9639 24.0747 76.7054 23.6801L73.8482 19.2312C73.7122 18.9999 73.5897 18.857 73.4809 18.8026C73.372 18.7482 73.2428 18.7141 73.0931 18.7005V17.9863C73.9094 17.9318 74.5421 17.7686 74.9911 17.4965C75.4401 17.2243 75.753 16.891 75.9299 16.4964C76.1067 16.0883 76.1952 15.6665 76.1952 15.2311C76.1952 14.4012 75.9639 13.7822 75.5013 13.374C75.0387 12.9522 74.5081 12.7413 73.9094 12.7413C73.4605 12.7413 73.1407 12.823 72.9503 12.9862C72.7734 13.1359 72.685 13.476 72.685 14.0066V23.4965C72.685 24.1631 72.787 24.5849 72.9911 24.7618C73.1952 24.9387 73.5693 25.0407 74.1135 25.0679V25.5373H68.2972V25.0679C68.6917 25.0407 68.9775 24.9387 69.1543 24.7618C69.3312 24.5849 69.4196 24.1631 69.4196 23.4965V14.0066C69.4196 13.34 69.3176 12.9182 69.1135 12.7413C68.923 12.5509 68.5489 12.4488 67.9911 12.4352V11.9658H69.4196C70.44 11.9658 71.3652 11.9522 72.1952 11.925C73.0251 11.8842 73.7326 11.8638 74.3176 11.8638C75.6646 11.8638 76.7326 11.993 77.5217 12.2515C78.3244 12.4964 78.8959 12.8434 79.236 13.2924C79.5897 13.7413 79.7666 14.2515 79.7666 14.823C79.7666 15.3672 79.6305 15.8638 79.3584 16.3128C79.0999 16.7618 78.753 17.1427 78.3176 17.4556C77.8959 17.755 77.4333 17.9658 76.9299 18.0883V18.1291L80.3176 23.4352C80.7122 24.0611 81.0727 24.4897 81.3993 24.721C81.7258 24.9523 82.0183 25.0679 82.2768 25.0679V25.5373C82.0047 25.6325 81.6782 25.7074 81.2972 25.7618C80.9299 25.8162 80.5693 25.8434 80.2156 25.8434ZM89.8537 25.8434C88.4251 25.8434 87.1598 25.5577 86.0578 24.9863C84.9557 24.4148 84.0918 23.6121 83.4659 22.5781C82.8401 21.5305 82.5271 20.3196 82.5271 18.9454C82.5271 17.8162 82.7312 16.8094 83.1394 15.925C83.5475 15.0271 84.1054 14.2583 84.8129 13.6189C85.5339 12.9794 86.3571 12.4964 87.2823 12.1699C88.221 11.8298 89.221 11.6597 90.2823 11.6597C91.085 11.6597 91.8537 11.7345 92.5884 11.8842C93.3231 12.0339 93.9081 12.2107 94.3435 12.4148V15.6393H93.8741C93.602 14.8094 93.2755 14.1767 92.8945 13.7413C92.5136 13.2924 92.085 12.9794 91.6088 12.8026C91.1462 12.6257 90.6564 12.5373 90.1394 12.5373C87.5135 12.5373 86.2006 14.442 86.2006 18.2516C86.2006 19.5033 86.3299 20.6393 86.5884 21.6597C86.8605 22.6801 87.2755 23.4897 87.8333 24.0883C88.4047 24.6733 89.1326 24.9659 90.017 24.9659C90.738 24.9659 91.3911 24.789 91.9761 24.4352C92.5612 24.0679 93.0578 23.5849 93.4659 22.9863C93.8877 22.3876 94.187 21.7414 94.3639 21.0475H94.8333L94.67 24.1495C94.221 24.6393 93.5884 25.0475 92.7721 25.374C91.9557 25.687 90.9829 25.8434 89.8537 25.8434ZM103.477 11.6597C104.443 11.6597 105.341 11.823 106.171 12.1495C107 12.476 107.735 12.9522 108.375 13.5781C109.014 14.1903 109.511 14.9318 109.864 15.8026C110.218 16.6733 110.395 17.6461 110.395 18.7209C110.395 19.7958 110.218 20.7686 109.864 21.6393C109.511 22.5101 109.014 23.2584 108.375 23.8842C107.749 24.5101 107.014 24.9931 106.171 25.3332C105.327 25.6733 104.422 25.8434 103.456 25.8434C102.504 25.8434 101.606 25.6802 100.762 25.3536C99.9324 25.0271 99.1977 24.5577 98.5583 23.9455C97.9188 23.3196 97.4222 22.5713 97.0685 21.7005C96.7147 20.8298 96.5379 19.857 96.5379 18.7822C96.5379 17.7073 96.7147 16.7345 97.0685 15.8638C97.4222 14.993 97.912 14.2447 98.5379 13.6189C99.1773 12.993 99.9188 12.51 100.762 12.1699C101.606 11.8298 102.511 11.6597 103.477 11.6597ZM103.885 24.9659C104.592 24.9659 105.15 24.7346 105.558 24.272C105.966 23.7958 106.259 23.1427 106.436 22.3128C106.626 21.4829 106.722 20.5169 106.722 19.4148C106.722 17.1971 106.381 15.4964 105.701 14.3128C105.034 13.1291 104.15 12.5373 103.048 12.5373C102.354 12.5373 101.796 12.7685 101.375 13.2311C100.966 13.6937 100.667 14.3468 100.477 15.1903C100.3 16.0203 100.211 16.9862 100.211 18.0883C100.211 20.306 100.545 22.0067 101.211 23.1903C101.892 24.374 102.783 24.9659 103.885 24.9659ZM119.842 25.7006C119.734 25.3876 119.598 25.0679 119.434 24.7414C119.285 24.4012 119.081 23.9591 118.822 23.4148L115.149 15.7413H115.108L114.74 23.4965C114.727 23.9591 114.836 24.3332 115.067 24.6189C115.298 24.891 115.72 25.0407 116.332 25.0679V25.5373H112.557V25.0679C112.951 25.0407 113.23 24.891 113.393 24.6189C113.57 24.3332 113.666 23.9591 113.679 23.4965L114.108 14.0066C114.135 13.5305 114.101 13.1903 114.006 12.9862C113.924 12.7822 113.774 12.6529 113.557 12.5985C113.339 12.5305 113.047 12.476 112.679 12.4352V11.9658H117.047C117.155 12.3196 117.278 12.6529 117.414 12.9658C117.564 13.2788 117.727 13.6257 117.904 14.0066L121.414 21.3536H121.455L124.72 14.0066C125.033 13.3128 125.271 12.6325 125.434 11.9658H129.761V12.4352C129.502 12.4488 129.285 12.4896 129.108 12.5577C128.931 12.6257 128.802 12.7685 128.72 12.9862C128.652 13.1903 128.625 13.5305 128.638 14.0066L129.067 23.4965C129.094 23.9318 129.149 24.2584 129.23 24.4761C129.325 24.6938 129.475 24.8434 129.679 24.925C129.883 24.9931 130.155 25.0407 130.496 25.0679V25.5373H124.679V25.0679C125.115 25.0407 125.414 24.9387 125.577 24.7618C125.754 24.5849 125.829 24.1631 125.802 23.4965L125.455 15.1495H125.414L121.72 23.4148C121.462 23.9863 121.271 24.4352 121.149 24.7618C121.04 25.0747 120.944 25.3876 120.863 25.7006H119.842ZM139.434 25.7006C139.325 25.3876 139.189 25.0679 139.025 24.7414C138.876 24.4012 138.672 23.9591 138.413 23.4148L134.74 15.7413H134.699L134.331 23.4965C134.318 23.9591 134.427 24.3332 134.658 24.6189C134.889 24.891 135.311 25.0407 135.923 25.0679V25.5373H132.148V25.0679C132.542 25.0407 132.821 24.891 132.985 24.6189C133.161 24.3332 133.257 23.9591 133.27 23.4965L133.699 14.0066C133.726 13.5305 133.692 13.1903 133.597 12.9862C133.515 12.7822 133.366 12.6529 133.148 12.5985C132.93 12.5305 132.638 12.476 132.27 12.4352V11.9658H136.638C136.746 12.3196 136.869 12.6529 137.005 12.9658C137.155 13.2788 137.318 13.6257 137.495 14.0066L141.005 21.3536H141.046L144.311 14.0066C144.624 13.3128 144.862 12.6325 145.025 11.9658H149.352V12.4352C149.093 12.4488 148.876 12.4896 148.699 12.5577C148.522 12.6257 148.393 12.7685 148.311 12.9862C148.243 13.1903 148.216 13.5305 148.229 14.0066L148.658 23.4965C148.685 23.9318 148.74 24.2584 148.821 24.4761C148.917 24.6938 149.066 24.8434 149.27 24.925C149.474 24.9931 149.747 25.0407 150.087 25.0679V25.5373H144.27V25.0679C144.706 25.0407 145.005 24.9387 145.168 24.7618C145.345 24.5849 145.42 24.1631 145.393 23.4965L145.046 15.1495H145.005L141.311 23.4148C141.053 23.9863 140.862 24.4352 140.74 24.7618C140.631 25.0747 140.536 25.3876 140.454 25.7006H139.434ZM166.097 21.7618H166.566L166.362 25.5373H156.525V25.0679C156.634 25.0135 156.797 24.9182 157.015 24.7822C157.246 24.6461 157.484 24.4897 157.729 24.3128C158.41 23.823 159.049 23.2652 159.648 22.6393C160.246 22.0135 160.77 21.3468 161.219 20.6393C161.668 19.9318 162.022 19.2243 162.28 18.5169C162.539 17.8094 162.668 17.1359 162.668 16.4964C162.668 15.8842 162.518 15.3672 162.219 14.9454C161.933 14.5237 161.41 14.3128 160.648 14.3128C160.008 14.3128 159.416 14.4896 158.872 14.8434C158.328 15.1971 157.791 15.7481 157.26 16.4964L156.872 16.1699C157.43 14.7549 158.131 13.7005 158.974 13.0066C159.818 12.3128 160.872 11.9658 162.138 11.9658C162.872 11.9658 163.532 12.0883 164.117 12.3332C164.702 12.5645 165.165 12.9318 165.505 13.4352C165.859 13.925 166.036 14.5645 166.036 15.3536C166.036 16.755 165.587 18.0679 164.689 19.2924C163.804 20.5169 162.566 21.6665 160.974 22.7414V22.7822H163.954C164.729 22.7822 165.267 22.6869 165.566 22.4965C165.865 22.306 166.042 22.0611 166.097 21.7618ZM174.783 11.9658C175.49 11.9658 176.184 12.1019 176.864 12.374C177.545 12.6461 178.157 13.0679 178.701 13.6393C179.245 14.2107 179.674 14.9318 179.987 15.8026C180.313 16.6597 180.477 17.6801 180.477 18.8638C180.477 20.0339 180.32 21.0543 180.007 21.925C179.694 22.7958 179.266 23.5237 178.722 24.1087C178.177 24.6938 177.565 25.1291 176.885 25.4148C176.205 25.7006 175.497 25.8434 174.762 25.8434C174.055 25.8434 173.361 25.7074 172.681 25.4353C172.001 25.1631 171.388 24.7414 170.844 24.1699C170.3 23.5985 169.864 22.8842 169.538 22.0271C169.225 21.1563 169.069 20.1291 169.069 18.9454C169.069 17.7754 169.225 16.755 169.538 15.8842C169.851 15.0135 170.279 14.2856 170.824 13.7005C171.368 13.1155 171.98 12.6801 172.66 12.3944C173.341 12.1087 174.048 11.9658 174.783 11.9658ZM174.844 24.9659C175.239 24.9659 175.599 24.789 175.926 24.4352C176.252 24.0815 176.511 23.4829 176.701 22.6393C176.905 21.7958 177.007 20.6393 177.007 19.1699C177.007 17.891 176.919 16.7822 176.742 15.8434C176.579 14.891 176.327 14.1563 175.987 13.6393C175.647 13.1087 175.218 12.8434 174.701 12.8434C174.32 12.8434 173.96 13.0202 173.62 13.374C173.293 13.7277 173.028 14.3264 172.824 15.1699C172.633 16.0135 172.538 17.1699 172.538 18.6393C172.538 19.9182 172.62 21.0339 172.783 21.9863C172.96 22.925 173.218 23.6597 173.558 24.1903C173.898 24.7074 174.327 24.9659 174.844 24.9659ZM191.747 21.7618H192.216L192.012 25.5373H182.175V25.0679C182.284 25.0135 182.447 24.9182 182.665 24.7822C182.896 24.6461 183.134 24.4897 183.379 24.3128C184.059 23.823 184.699 23.2652 185.298 22.6393C185.896 22.0135 186.42 21.3468 186.869 20.6393C187.318 19.9318 187.672 19.2243 187.93 18.5169C188.189 17.8094 188.318 17.1359 188.318 16.4964C188.318 15.8842 188.168 15.3672 187.869 14.9454C187.583 14.5237 187.059 14.3128 186.298 14.3128C185.658 14.3128 185.066 14.4896 184.522 14.8434C183.978 15.1971 183.44 15.7481 182.91 16.4964L182.522 16.1699C183.08 14.7549 183.781 13.7005 184.624 13.0066C185.468 12.3128 186.522 11.9658 187.787 11.9658C188.522 11.9658 189.182 12.0883 189.767 12.3332C190.352 12.5645 190.815 12.9318 191.155 13.4352C191.508 13.925 191.685 14.5645 191.685 15.3536C191.685 16.755 191.236 18.0679 190.338 19.2924C189.454 20.5169 188.216 21.6665 186.624 22.7414V22.7822H189.604C190.379 22.7822 190.917 22.6869 191.216 22.4965C191.515 22.306 191.692 22.0611 191.747 21.7618ZM203.086 20.3332H204.514V22.8842H203.657C203.276 22.8842 203.086 23.1223 203.086 23.5985C203.086 23.925 203.086 24.2448 203.086 24.5577C203.099 24.857 203.113 25.1835 203.126 25.5373H199.902C199.929 25.0883 199.95 24.6529 199.963 24.2312C199.977 23.7958 199.99 23.3468 200.004 22.8842H193.555V22.4148C193.909 22.0747 194.229 21.721 194.514 21.3536L201.188 13.0066C201.337 12.8162 201.473 12.6325 201.596 12.4556C201.732 12.2651 201.841 12.1019 201.922 11.9658H203.106L203.086 20.3332ZM199.963 16.0679L196.555 20.3332H200.024V16.0679H199.963Z" fill="white"/>
<path d="M234.431 15.2801C231.583 14.1428 228.242 14.7493 225.963 17.024C222.887 20.0948 222.887 25.0612 225.963 28.132C228.242 30.4067 231.583 31.0132 234.431 29.8759V26.2364C233.862 26.5018 233.254 26.6535 232.609 26.6535C230.33 26.6535 228.507 24.8337 228.507 22.559C228.507 20.2844 230.33 18.4646 232.609 18.4646C233.254 18.4646 233.9 18.6163 234.431 18.8817V15.2801Z" fill="white"/>
<path d="M233.144 11.6328C234.265 10.5082 234.265 8.64668 233.144 7.48326C232.022 6.35861 230.165 6.35861 229.004 7.48326C227.844 8.6079 227.883 10.4694 229.004 11.6328C230.165 12.7575 232.022 12.7575 233.144 11.6328Z" fill="white"/>
<path d="M253.27 25.5373V25.0679C253.665 25.0407 253.95 24.9387 254.127 24.7618C254.304 24.5849 254.393 24.1631 254.393 23.4965V14.0066C254.393 13.34 254.291 12.9182 254.086 12.7413C253.896 12.5509 253.522 12.4488 252.964 12.4352V11.9658H258.78V12.4352C258.386 12.4488 258.1 12.5509 257.923 12.7413C257.746 12.9182 257.658 13.34 257.658 14.0066V23.4965C257.658 24.1631 257.76 24.5849 257.964 24.7618C258.168 24.9387 258.542 25.0407 259.086 25.0679V25.5373H253.27ZM273.219 25.7006C273.015 25.4829 272.804 25.272 272.586 25.0679C272.368 24.8502 272.022 24.5305 271.545 24.1087L263.504 16.7618H263.464V23.4965C263.464 23.9591 263.579 24.3332 263.811 24.6189C264.056 24.891 264.47 25.0407 265.056 25.0679V25.5373H261.28V25.0679C261.675 25.0407 261.96 24.891 262.137 24.6189C262.314 24.3332 262.402 23.9591 262.402 23.4965V14.0066C262.402 13.34 262.3 12.9182 262.096 12.7413C261.906 12.5509 261.532 12.4488 260.974 12.4352V11.9658H263.423C263.627 12.2243 263.845 12.4556 264.076 12.6597C264.307 12.8638 264.573 13.1087 264.872 13.3944L272.994 20.7414H273.035V14.0066C273.035 13.5441 272.919 13.1699 272.688 12.8842C272.457 12.5985 272.042 12.4488 271.443 12.4352V11.9658H275.219V12.4352C274.824 12.4488 274.539 12.5985 274.362 12.8842C274.185 13.1699 274.096 13.5441 274.096 14.0066V23.4965C274.096 23.8774 274.096 24.2448 274.096 24.5985C274.11 24.9387 274.124 25.306 274.137 25.7006H273.219ZM276.833 11.9658H288.466V15.3332H287.996C287.914 14.5985 287.697 13.9998 287.343 13.5373C286.989 13.0747 286.384 12.8434 285.527 12.8434H284.282V23.4965C284.282 24.1631 284.384 24.5849 284.588 24.7618C284.792 24.9387 285.166 25.0407 285.71 25.0679V25.5373H279.894V25.0679C280.289 25.0407 280.574 24.9387 280.751 24.7618C280.928 24.5849 281.017 24.1631 281.017 23.4965V12.8434H279.751C278.921 12.8434 278.323 13.0747 277.955 13.5373C277.602 13.9998 277.384 14.5985 277.302 15.3332H276.833V11.9658ZM290.317 25.5373V25.0679C290.712 25.0407 290.998 24.9387 291.175 24.7618C291.351 24.5849 291.44 24.1631 291.44 23.4965V14.0066C291.44 13.34 291.338 12.9182 291.134 12.7413C290.943 12.5509 290.569 12.4488 290.011 12.4352V11.9658H300.032V14.823H299.562C299.535 14.2379 299.331 13.7617 298.95 13.3944C298.583 13.0271 298.011 12.8434 297.236 12.8434H295.603C295.317 12.8434 295.093 12.9182 294.93 13.0679C294.78 13.2175 294.705 13.5305 294.705 14.0066V18.0271C294.814 17.9454 294.943 17.891 295.093 17.8638C295.256 17.8366 295.447 17.823 295.664 17.823H297.644C298.052 17.823 298.392 17.7073 298.664 17.476C298.936 17.2448 299.079 16.925 299.093 16.5169H299.562V19.9863H299.093C299.079 19.4829 298.936 19.1427 298.664 18.9658C298.392 18.789 298.052 18.7005 297.644 18.7005H295.705C295.338 18.7005 295.079 18.7618 294.93 18.8842C294.78 19.0067 294.705 19.2448 294.705 19.5985V23.4965C294.705 23.9727 294.807 24.2856 295.011 24.4352C295.229 24.5849 295.644 24.6597 296.256 24.6597H298.195C299.011 24.6597 299.658 24.4148 300.134 23.925C300.61 23.4352 300.875 22.8502 300.93 22.1699H301.399L301.236 25.5373H290.317ZM315.091 25.8434C314.478 25.8434 313.955 25.7414 313.519 25.5373C313.084 25.3468 312.716 25.0883 312.417 24.7618C312.118 24.4352 311.839 24.0747 311.58 23.6801L308.723 19.2312C308.587 18.9999 308.465 18.857 308.356 18.8026C308.247 18.7482 308.118 18.7141 307.968 18.7005V17.9863C308.784 17.9318 309.417 17.7686 309.866 17.4965C310.315 17.2243 310.628 16.891 310.805 16.4964C310.982 16.0883 311.07 15.6665 311.07 15.2311C311.07 14.4012 310.839 13.7822 310.376 13.374C309.914 12.9522 309.383 12.7413 308.784 12.7413C308.335 12.7413 308.016 12.823 307.825 12.9862C307.648 13.1359 307.56 13.476 307.56 14.0066V23.4965C307.56 24.1631 307.662 24.5849 307.866 24.7618C308.07 24.9387 308.444 25.0407 308.989 25.0679V25.5373H303.172V25.0679C303.567 25.0407 303.852 24.9387 304.029 24.7618C304.206 24.5849 304.295 24.1631 304.295 23.4965V14.0066C304.295 13.34 304.193 12.9182 303.989 12.7413C303.798 12.5509 303.424 12.4488 302.866 12.4352V11.9658H304.295C305.315 11.9658 306.24 11.9522 307.07 11.925C307.9 11.8842 308.608 11.8638 309.193 11.8638C310.54 11.8638 311.608 11.993 312.397 12.2515C313.199 12.4964 313.771 12.8434 314.111 13.2924C314.465 13.7413 314.642 14.2515 314.642 14.823C314.642 15.3672 314.506 15.8638 314.233 16.3128C313.975 16.7618 313.628 17.1427 313.193 17.4556C312.771 17.755 312.308 17.9658 311.805 18.0883V18.1291L315.193 23.4352C315.587 24.0611 315.948 24.4897 316.274 24.721C316.601 24.9523 316.893 25.0679 317.152 25.0679V25.5373C316.88 25.6325 316.553 25.7074 316.172 25.7618C315.805 25.8162 315.444 25.8434 315.091 25.8434ZM324.729 25.8434C323.3 25.8434 322.035 25.5577 320.933 24.9863C319.831 24.4148 318.967 23.6121 318.341 22.5781C317.715 21.5305 317.402 20.3196 317.402 18.9454C317.402 17.8162 317.606 16.8094 318.014 15.925C318.423 15.0271 318.98 14.2583 319.688 13.6189C320.409 12.9794 321.232 12.4964 322.157 12.1699C323.096 11.8298 324.096 11.6597 325.157 11.6597C325.96 11.6597 326.729 11.7345 327.463 11.8842C328.198 12.0339 328.783 12.2107 329.218 12.4148V15.6393H328.749C328.477 14.8094 328.15 14.1767 327.77 13.7413C327.389 13.2924 326.96 12.9794 326.484 12.8026C326.021 12.6257 325.531 12.5373 325.014 12.5373C322.389 12.5373 321.076 14.442 321.076 18.2516C321.076 19.5033 321.205 20.6393 321.463 21.6597C321.735 22.6801 322.15 23.4897 322.708 24.0883C323.28 24.6733 324.008 24.9659 324.892 24.9659C325.613 24.9659 326.266 24.789 326.851 24.4352C327.436 24.0679 327.933 23.5849 328.341 22.9863C328.763 22.3876 329.062 21.7414 329.239 21.0475H329.708L329.545 24.1495C329.096 24.6393 328.463 25.0475 327.647 25.374C326.831 25.687 325.858 25.8434 324.729 25.8434ZM338.352 11.6597C339.318 11.6597 340.216 11.823 341.046 12.1495C341.875 12.476 342.61 12.9522 343.25 13.5781C343.889 14.1903 344.386 14.9318 344.739 15.8026C345.093 16.6733 345.27 17.6461 345.27 18.7209C345.27 19.7958 345.093 20.7686 344.739 21.6393C344.386 22.5101 343.889 23.2584 343.25 23.8842C342.624 24.5101 341.889 24.9931 341.046 25.3332C340.202 25.6733 339.297 25.8434 338.331 25.8434C337.379 25.8434 336.481 25.6802 335.637 25.3536C334.807 25.0271 334.073 24.5577 333.433 23.9455C332.794 23.3196 332.297 22.5713 331.943 21.7005C331.59 20.8298 331.413 19.857 331.413 18.7822C331.413 17.7073 331.59 16.7345 331.943 15.8638C332.297 14.993 332.787 14.2447 333.413 13.6189C334.052 12.993 334.794 12.51 335.637 12.1699C336.481 11.8298 337.386 11.6597 338.352 11.6597ZM338.76 24.9659C339.467 24.9659 340.025 24.7346 340.433 24.272C340.841 23.7958 341.134 23.1427 341.311 22.3128C341.501 21.4829 341.597 20.5169 341.597 19.4148C341.597 17.1971 341.256 15.4964 340.576 14.3128C339.909 13.1291 339.025 12.5373 337.923 12.5373C337.229 12.5373 336.671 12.7685 336.25 13.2311C335.841 13.6937 335.542 14.3468 335.352 15.1903C335.175 16.0203 335.086 16.9862 335.086 18.0883C335.086 20.306 335.42 22.0067 336.086 23.1903C336.767 24.374 337.658 24.9659 338.76 24.9659ZM354.717 25.7006C354.609 25.3876 354.473 25.0679 354.309 24.7414C354.16 24.4012 353.956 23.9591 353.697 23.4148L350.024 15.7413H349.983L349.615 23.4965C349.602 23.9591 349.711 24.3332 349.942 24.6189C350.173 24.891 350.595 25.0407 351.207 25.0679V25.5373H347.432V25.0679C347.826 25.0407 348.105 24.891 348.268 24.6189C348.445 24.3332 348.541 23.9591 348.554 23.4965L348.983 14.0066C349.01 13.5305 348.976 13.1903 348.881 12.9862C348.799 12.7822 348.649 12.6529 348.432 12.5985C348.214 12.5305 347.922 12.476 347.554 12.4352V11.9658H351.922C352.03 12.3196 352.153 12.6529 352.289 12.9658C352.439 13.2788 352.602 13.6257 352.779 14.0066L356.289 21.3536H356.33L359.595 14.0066C359.908 13.3128 360.146 12.6325 360.309 11.9658H364.636V12.4352C364.377 12.4488 364.16 12.4896 363.983 12.5577C363.806 12.6257 363.677 12.7685 363.595 12.9862C363.527 13.1903 363.5 13.5305 363.513 14.0066L363.942 23.4965C363.969 23.9318 364.024 24.2584 364.105 24.4761C364.2 24.6938 364.35 24.8434 364.554 24.925C364.758 24.9931 365.03 25.0407 365.371 25.0679V25.5373H359.554V25.0679C359.99 25.0407 360.289 24.9387 360.452 24.7618C360.629 24.5849 360.704 24.1631 360.677 23.4965L360.33 15.1495H360.289L356.595 23.4148C356.337 23.9863 356.146 24.4352 356.024 24.7618C355.915 25.0747 355.819 25.3876 355.738 25.7006H354.717ZM374.309 25.7006C374.2 25.3876 374.064 25.0679 373.9 24.7414C373.751 24.4012 373.547 23.9591 373.288 23.4148L369.615 15.7413H369.574L369.206 23.4965C369.193 23.9591 369.302 24.3332 369.533 24.6189C369.764 24.891 370.186 25.0407 370.798 25.0679V25.5373H367.023V25.0679C367.417 25.0407 367.696 24.891 367.86 24.6189C368.036 24.3332 368.132 23.9591 368.145 23.4965L368.574 14.0066C368.601 13.5305 368.567 13.1903 368.472 12.9862C368.39 12.7822 368.241 12.6529 368.023 12.5985C367.805 12.5305 367.513 12.476 367.145 12.4352V11.9658H371.513C371.621 12.3196 371.744 12.6529 371.88 12.9658C372.03 13.2788 372.193 13.6257 372.37 14.0066L375.88 21.3536H375.921L379.186 14.0066C379.499 13.3128 379.737 12.6325 379.9 11.9658H384.227V12.4352C383.968 12.4488 383.751 12.4896 383.574 12.5577C383.397 12.6257 383.268 12.7685 383.186 12.9862C383.118 13.1903 383.091 13.5305 383.104 14.0066L383.533 23.4965C383.56 23.9318 383.615 24.2584 383.696 24.4761C383.792 24.6938 383.941 24.8434 384.145 24.925C384.349 24.9931 384.622 25.0407 384.962 25.0679V25.5373H379.145V25.0679C379.581 25.0407 379.88 24.9387 380.043 24.7618C380.22 24.5849 380.295 24.1631 380.268 23.4965L379.921 15.1495H379.88L376.186 23.4148C375.928 23.9863 375.737 24.4352 375.615 24.7618C375.506 25.0747 375.411 25.3876 375.329 25.7006H374.309ZM400.972 21.7618H401.441L401.237 25.5373H391.4V25.0679C391.509 25.0135 391.672 24.9182 391.89 24.7822C392.121 24.6461 392.359 24.4897 392.604 24.3128C393.285 23.823 393.924 23.2652 394.523 22.6393C395.121 22.0135 395.645 21.3468 396.094 20.6393C396.543 19.9318 396.897 19.2243 397.155 18.5169C397.414 17.8094 397.543 17.1359 397.543 16.4964C397.543 15.8842 397.393 15.3672 397.094 14.9454C396.808 14.5237 396.285 14.3128 395.523 14.3128C394.883 14.3128 394.291 14.4896 393.747 14.8434C393.203 15.1971 392.666 15.7481 392.135 16.4964L391.747 16.1699C392.305 14.7549 393.006 13.7005 393.849 13.0066C394.693 12.3128 395.747 11.9658 397.013 11.9658C397.747 11.9658 398.407 12.0883 398.992 12.3332C399.577 12.5645 400.04 12.9318 400.38 13.4352C400.734 13.925 400.911 14.5645 400.911 15.3536C400.911 16.755 400.462 18.0679 399.564 19.2924C398.679 20.5169 397.441 21.6665 395.849 22.7414V22.7822H398.829C399.604 22.7822 400.142 22.6869 400.441 22.4965C400.74 22.306 400.917 22.0611 400.972 21.7618ZM409.658 11.9658C410.365 11.9658 411.059 12.1019 411.739 12.374C412.42 12.6461 413.032 13.0679 413.576 13.6393C414.12 14.2107 414.549 14.9318 414.862 15.8026C415.188 16.6597 415.352 17.6801 415.352 18.8638C415.352 20.0339 415.195 21.0543 414.882 21.925C414.569 22.7958 414.141 23.5237 413.597 24.1087C413.052 24.6938 412.44 25.1291 411.76 25.4148C411.08 25.7006 410.372 25.8434 409.637 25.8434C408.93 25.8434 408.236 25.7074 407.556 25.4353C406.876 25.1631 406.263 24.7414 405.719 24.1699C405.175 23.5985 404.739 22.8842 404.413 22.0271C404.1 21.1563 403.944 20.1291 403.944 18.9454C403.944 17.7754 404.1 16.755 404.413 15.8842C404.726 15.0135 405.154 14.2856 405.699 13.7005C406.243 13.1155 406.855 12.6801 407.535 12.3944C408.216 12.1087 408.923 11.9658 409.658 11.9658ZM409.719 24.9659C410.114 24.9659 410.474 24.789 410.801 24.4352C411.127 24.0815 411.386 23.4829 411.576 22.6393C411.78 21.7958 411.882 20.6393 411.882 19.1699C411.882 17.891 411.794 16.7822 411.617 15.8434C411.454 14.891 411.202 14.1563 410.862 13.6393C410.522 13.1087 410.093 12.8434 409.576 12.8434C409.195 12.8434 408.835 13.0202 408.495 13.374C408.168 13.7277 407.903 14.3264 407.699 15.1699C407.508 16.0135 407.413 17.1699 407.413 18.6393C407.413 19.9182 407.495 21.0339 407.658 21.9863C407.835 22.925 408.093 23.6597 408.433 24.1903C408.773 24.7074 409.202 24.9659 409.719 24.9659ZM426.622 21.7618H427.091L426.887 25.5373H417.05V25.0679C417.159 25.0135 417.322 24.9182 417.54 24.7822C417.771 24.6461 418.009 24.4897 418.254 24.3128C418.934 23.823 419.574 23.2652 420.173 22.6393C420.771 22.0135 421.295 21.3468 421.744 20.6393C422.193 19.9318 422.547 19.2243 422.805 18.5169C423.064 17.8094 423.193 17.1359 423.193 16.4964C423.193 15.8842 423.043 15.3672 422.744 14.9454C422.458 14.5237 421.934 14.3128 421.173 14.3128C420.533 14.3128 419.941 14.4896 419.397 14.8434C418.853 15.1971 418.315 15.7481 417.785 16.4964L417.397 16.1699C417.955 14.7549 418.656 13.7005 419.499 13.0066C420.343 12.3128 421.397 11.9658 422.662 11.9658C423.397 11.9658 424.057 12.0883 424.642 12.3332C425.227 12.5645 425.69 12.9318 426.03 13.4352C426.383 13.925 426.56 14.5645 426.56 15.3536C426.56 16.755 426.111 18.0679 425.213 19.2924C424.329 20.5169 423.091 21.6665 421.499 22.7414V22.7822H424.479C425.254 22.7822 425.792 22.6869 426.091 22.4965C426.39 22.306 426.567 22.0611 426.622 21.7618ZM437.961 20.3332H439.389V22.8842H438.532C438.151 22.8842 437.961 23.1223 437.961 23.5985C437.961 23.925 437.961 24.2448 437.961 24.5577C437.974 24.857 437.988 25.1835 438.001 25.5373H434.777C434.804 25.0883 434.825 24.6529 434.838 24.2312C434.852 23.7958 434.865 23.3468 434.879 22.8842H428.43V22.4148C428.784 22.0747 429.104 21.721 429.389 21.3536L436.063 13.0066C436.212 12.8162 436.348 12.6325 436.471 12.4556C436.607 12.2651 436.716 12.1019 436.797 11.9658H437.981L437.961 20.3332ZM434.838 16.0679L431.43 20.3332H434.899V16.0679H434.838Z" fill="white"/>
<path d="M469.314 15.2802C466.466 14.1428 463.124 14.7494 460.846 17.0241C457.77 20.0949 457.77 25.0612 460.846 28.1321C463.124 30.4067 466.466 31.0133 469.314 29.876V26.2365C468.745 26.5019 468.137 26.6535 467.491 26.6535C465.213 26.6535 463.39 24.8338 463.39 22.5591C463.39 20.2844 465.213 18.4647 467.491 18.4647C468.137 18.4647 468.783 18.6163 469.314 18.8817V15.2802Z" fill="white"/>
<path d="M468.026 11.6328C469.148 10.5082 469.148 8.64668 468.026 7.48326C466.905 6.35861 465.048 6.35861 463.887 7.48326C462.727 8.6079 462.765 10.4694 463.887 11.6328C465.048 12.7575 466.905 12.7575 468.026 11.6328Z" fill="white"/>
<path d="M488.145 25.5373V25.0679C488.54 25.0407 488.825 24.9387 489.002 24.7618C489.179 24.5849 489.268 24.1631 489.268 23.4965V14.0066C489.268 13.34 489.166 12.9182 488.961 12.7413C488.771 12.5509 488.397 12.4488 487.839 12.4352V11.9658H493.655V12.4352C493.261 12.4488 492.975 12.5509 492.798 12.7413C492.621 12.9182 492.533 13.34 492.533 14.0066V23.4965C492.533 24.1631 492.635 24.5849 492.839 24.7618C493.043 24.9387 493.417 25.0407 493.961 25.0679V25.5373H488.145ZM508.094 25.7006C507.89 25.4829 507.679 25.272 507.461 25.0679C507.243 24.8502 506.897 24.5305 506.42 24.1087L498.379 16.7618H498.339V23.4965C498.339 23.9591 498.454 24.3332 498.686 24.6189C498.931 24.891 499.345 25.0407 499.931 25.0679V25.5373H496.155V25.0679C496.55 25.0407 496.835 24.891 497.012 24.6189C497.189 24.3332 497.277 23.9591 497.277 23.4965V14.0066C497.277 13.34 497.175 12.9182 496.971 12.7413C496.781 12.5509 496.407 12.4488 495.849 12.4352V11.9658H498.298C498.502 12.2243 498.72 12.4556 498.951 12.6597C499.182 12.8638 499.448 13.1087 499.747 13.3944L507.869 20.7414H507.91V14.0066C507.91 13.5441 507.794 13.1699 507.563 12.8842C507.332 12.5985 506.917 12.4488 506.318 12.4352V11.9658H510.094V12.4352C509.699 12.4488 509.414 12.5985 509.237 12.8842C509.06 13.1699 508.971 13.5441 508.971 14.0066V23.4965C508.971 23.8774 508.971 24.2448 508.971 24.5985C508.985 24.9387 508.999 25.306 509.012 25.7006H508.094ZM511.708 11.9658H523.341V15.3332H522.871C522.789 14.5985 522.572 13.9998 522.218 13.5373C521.864 13.0747 521.259 12.8434 520.402 12.8434H519.157V23.4965C519.157 24.1631 519.259 24.5849 519.463 24.7618C519.667 24.9387 520.041 25.0407 520.585 25.0679V25.5373H514.769V25.0679C515.164 25.0407 515.449 24.9387 515.626 24.7618C515.803 24.5849 515.892 24.1631 515.892 23.4965V12.8434H514.626C513.796 12.8434 513.198 13.0747 512.83 13.5373C512.477 13.9998 512.259 14.5985 512.177 15.3332H511.708V11.9658ZM525.192 25.5373V25.0679C525.587 25.0407 525.873 24.9387 526.05 24.7618C526.226 24.5849 526.315 24.1631 526.315 23.4965V14.0066C526.315 13.34 526.213 12.9182 526.009 12.7413C525.818 12.5509 525.444 12.4488 524.886 12.4352V11.9658H534.907V14.823H534.437C534.41 14.2379 534.206 13.7617 533.825 13.3944C533.458 13.0271 532.886 12.8434 532.111 12.8434H530.478C530.192 12.8434 529.968 12.9182 529.805 13.0679C529.655 13.2175 529.58 13.5305 529.58 14.0066V18.0271C529.689 17.9454 529.818 17.891 529.968 17.8638C530.131 17.8366 530.322 17.823 530.539 17.823H532.519C532.927 17.823 533.267 17.7073 533.539 17.476C533.811 17.2448 533.954 16.925 533.968 16.5169H534.437V19.9863H533.968C533.954 19.4829 533.811 19.1427 533.539 18.9658C533.267 18.789 532.927 18.7005 532.519 18.7005H530.58C530.213 18.7005 529.954 18.7618 529.805 18.8842C529.655 19.0067 529.58 19.2448 529.58 19.5985V23.4965C529.58 23.9727 529.682 24.2856 529.886 24.4352C530.104 24.5849 530.519 24.6597 531.131 24.6597H533.07C533.886 24.6597 534.533 24.4148 535.009 23.925C535.485 23.4352 535.75 22.8502 535.805 22.1699H536.274L536.111 25.5373H525.192ZM549.966 25.8434C549.353 25.8434 548.83 25.7414 548.394 25.5373C547.959 25.3468 547.591 25.0883 547.292 24.7618C546.993 24.4352 546.714 24.0747 546.455 23.6801L543.598 19.2312C543.462 18.9999 543.34 18.857 543.231 18.8026C543.122 18.7482 542.993 18.7141 542.843 18.7005V17.9863C543.659 17.9318 544.292 17.7686 544.741 17.4965C545.19 17.2243 545.503 16.891 545.68 16.4964C545.857 16.0883 545.945 15.6665 545.945 15.2311C545.945 14.4012 545.714 13.7822 545.251 13.374C544.789 12.9522 544.258 12.7413 543.659 12.7413C543.21 12.7413 542.891 12.823 542.7 12.9862C542.523 13.1359 542.435 13.476 542.435 14.0066V23.4965C542.435 24.1631 542.537 24.5849 542.741 24.7618C542.945 24.9387 543.319 25.0407 543.864 25.0679V25.5373H538.047V25.0679C538.442 25.0407 538.727 24.9387 538.904 24.7618C539.081 24.5849 539.17 24.1631 539.17 23.4965V14.0066C539.17 13.34 539.068 12.9182 538.864 12.7413C538.673 12.5509 538.299 12.4488 537.741 12.4352V11.9658H539.17C540.19 11.9658 541.115 11.9522 541.945 11.925C542.775 11.8842 543.483 11.8638 544.068 11.8638C545.415 11.8638 546.483 11.993 547.272 12.2515C548.074 12.4964 548.646 12.8434 548.986 13.2924C549.34 13.7413 549.517 14.2515 549.517 14.823C549.517 15.3672 549.381 15.8638 549.108 16.3128C548.85 16.7618 548.503 17.1427 548.068 17.4556C547.646 17.755 547.183 17.9658 546.68 18.0883V18.1291L550.068 23.4352C550.462 24.0611 550.823 24.4897 551.149 24.721C551.476 24.9523 551.768 25.0679 552.027 25.0679V25.5373C551.755 25.6325 551.428 25.7074 551.047 25.7618C550.68 25.8162 550.319 25.8434 549.966 25.8434ZM559.604 25.8434C558.175 25.8434 556.91 25.5577 555.808 24.9863C554.706 24.4148 553.842 23.6121 553.216 22.5781C552.59 21.5305 552.277 20.3196 552.277 18.9454C552.277 17.8162 552.481 16.8094 552.889 15.925C553.298 15.0271 553.855 14.2583 554.563 13.6189C555.284 12.9794 556.107 12.4964 557.032 12.1699C557.971 11.8298 558.971 11.6597 560.032 11.6597C560.835 11.6597 561.604 11.7345 562.338 11.8842C563.073 12.0339 563.658 12.2107 564.093 12.4148V15.6393H563.624C563.352 14.8094 563.025 14.1767 562.645 13.7413C562.264 13.2924 561.835 12.9794 561.359 12.8026C560.896 12.6257 560.406 12.5373 559.889 12.5373C557.264 12.5373 555.951 14.442 555.951 18.2516C555.951 19.5033 556.08 20.6393 556.338 21.6597C556.61 22.6801 557.025 23.4897 557.583 24.0883C558.155 24.6733 558.883 24.9659 559.767 24.9659C560.488 24.9659 561.141 24.789 561.726 24.4352C562.311 24.0679 562.808 23.5849 563.216 22.9863C563.638 22.3876 563.937 21.7414 564.114 21.0475H564.583L564.42 24.1495C563.971 24.6393 563.338 25.0475 562.522 25.374C561.706 25.687 560.733 25.8434 559.604 25.8434ZM573.227 11.6597C574.193 11.6597 575.091 11.823 575.921 12.1495C576.75 12.476 577.485 12.9522 578.125 13.5781C578.764 14.1903 579.261 14.9318 579.614 15.8026C579.968 16.6733 580.145 17.6461 580.145 18.7209C580.145 19.7958 579.968 20.7686 579.614 21.6393C579.261 22.5101 578.764 23.2584 578.125 23.8842C577.499 24.5101 576.764 24.9931 575.921 25.3332C575.077 25.6733 574.172 25.8434 573.206 25.8434C572.254 25.8434 571.356 25.6802 570.512 25.3536C569.682 25.0271 568.948 24.5577 568.308 23.9455C567.669 23.3196 567.172 22.5713 566.818 21.7005C566.465 20.8298 566.288 19.857 566.288 18.7822C566.288 17.7073 566.465 16.7345 566.818 15.8638C567.172 14.993 567.662 14.2447 568.288 13.6189C568.927 12.993 569.669 12.51 570.512 12.1699C571.356 11.8298 572.261 11.6597 573.227 11.6597ZM573.635 24.9659C574.342 24.9659 574.9 24.7346 575.308 24.272C575.716 23.7958 576.009 23.1427 576.186 22.3128C576.376 21.4829 576.472 20.5169 576.472 19.4148C576.472 17.1971 576.131 15.4964 575.451 14.3128C574.784 13.1291 573.9 12.5373 572.798 12.5373C572.104 12.5373 571.546 12.7685 571.125 13.2311C570.716 13.6937 570.417 14.3468 570.227 15.1903C570.05 16.0203 569.961 16.9862 569.961 18.0883C569.961 20.306 570.295 22.0067 570.961 23.1903C571.642 24.374 572.533 24.9659 573.635 24.9659ZM589.592 25.7006C589.484 25.3876 589.348 25.0679 589.184 24.7414C589.035 24.4012 588.831 23.9591 588.572 23.4148L584.899 15.7413H584.858L584.49 23.4965C584.477 23.9591 584.586 24.3332 584.817 24.6189C585.048 24.891 585.47 25.0407 586.082 25.0679V25.5373H582.307V25.0679C582.701 25.0407 582.98 24.891 583.143 24.6189C583.32 24.3332 583.416 23.9591 583.429 23.4965L583.858 14.0066C583.885 13.5305 583.851 13.1903 583.756 12.9862C583.674 12.7822 583.524 12.6529 583.307 12.5985C583.089 12.5305 582.797 12.476 582.429 12.4352V11.9658H586.797C586.905 12.3196 587.028 12.6529 587.164 12.9658C587.314 13.2788 587.477 13.6257 587.654 14.0066L591.164 21.3536H591.205L594.47 14.0066C594.783 13.3128 595.021 12.6325 595.184 11.9658H599.511V12.4352C599.252 12.4488 599.035 12.4896 598.858 12.5577C598.681 12.6257 598.552 12.7685 598.47 12.9862C598.402 13.1903 598.375 13.5305 598.388 14.0066L598.817 23.4965C598.844 23.9318 598.899 24.2584 598.98 24.4761C599.075 24.6938 599.225 24.8434 599.429 24.925C599.633 24.9931 599.905 25.0407 600.246 25.0679V25.5373H594.429V25.0679C594.865 25.0407 595.164 24.9387 595.327 24.7618C595.504 24.5849 595.579 24.1631 595.552 23.4965L595.205 15.1495H595.164L591.47 23.4148C591.212 23.9863 591.021 24.4352 590.899 24.7618C590.79 25.0747 590.694 25.3876 590.613 25.7006H589.592ZM609.184 25.7006C609.075 25.3876 608.939 25.0679 608.775 24.7414C608.626 24.4012 608.422 23.9591 608.163 23.4148L604.49 15.7413H604.449L604.081 23.4965C604.068 23.9591 604.177 24.3332 604.408 24.6189C604.639 24.891 605.061 25.0407 605.673 25.0679V25.5373H601.898V25.0679C602.292 25.0407 602.571 24.891 602.735 24.6189C602.911 24.3332 603.007 23.9591 603.02 23.4965L603.449 14.0066C603.476 13.5305 603.442 13.1903 603.347 12.9862C603.265 12.7822 603.116 12.6529 602.898 12.5985C602.68 12.5305 602.388 12.476 602.02 12.4352V11.9658H606.388C606.496 12.3196 606.619 12.6529 606.755 12.9658C606.905 13.2788 607.068 13.6257 607.245 14.0066L610.755 21.3536H610.796L614.061 14.0066C614.374 13.3128 614.612 12.6325 614.775 11.9658H619.102V12.4352C618.843 12.4488 618.626 12.4896 618.449 12.5577C618.272 12.6257 618.143 12.7685 618.061 12.9862C617.993 13.1903 617.966 13.5305 617.979 14.0066L618.408 23.4965C618.435 23.9318 618.49 24.2584 618.571 24.4761C618.667 24.6938 618.816 24.8434 619.02 24.925C619.224 24.9931 619.497 25.0407 619.837 25.0679V25.5373H614.02V25.0679C614.456 25.0407 614.755 24.9387 614.918 24.7618C615.095 24.5849 615.17 24.1631 615.143 23.4965L614.796 15.1495H614.755L611.061 23.4148C610.803 23.9863 610.612 24.4352 610.49 24.7618C610.381 25.0747 610.286 25.3876 610.204 25.7006H609.184ZM635.847 21.7618H636.316L636.112 25.5373H626.275V25.0679C626.384 25.0135 626.547 24.9182 626.765 24.7822C626.996 24.6461 627.234 24.4897 627.479 24.3128C628.16 23.823 628.799 23.2652 629.398 22.6393C629.996 22.0135 630.52 21.3468 630.969 20.6393C631.418 19.9318 631.772 19.2243 632.03 18.5169C632.289 17.8094 632.418 17.1359 632.418 16.4964C632.418 15.8842 632.268 15.3672 631.969 14.9454C631.683 14.5237 631.16 14.3128 630.398 14.3128C629.758 14.3128 629.166 14.4896 628.622 14.8434C628.078 15.1971 627.541 15.7481 627.01 16.4964L626.622 16.1699C627.18 14.7549 627.881 13.7005 628.724 13.0066C629.568 12.3128 630.622 11.9658 631.888 11.9658C632.622 11.9658 633.282 12.0883 633.867 12.3332C634.452 12.5645 634.915 12.9318 635.255 13.4352C635.609 13.925 635.786 14.5645 635.786 15.3536C635.786 16.755 635.337 18.0679 634.439 19.2924C633.554 20.5169 632.316 21.6665 630.724 22.7414V22.7822H633.704C634.479 22.7822 635.017 22.6869 635.316 22.4965C635.615 22.306 635.792 22.0611 635.847 21.7618ZM644.533 11.9658C645.24 11.9658 645.934 12.1019 646.614 12.374C647.295 12.6461 647.907 13.0679 648.451 13.6393C648.995 14.2107 649.424 14.9318 649.737 15.8026C650.063 16.6597 650.227 17.6801 650.227 18.8638C650.227 20.0339 650.07 21.0543 649.757 21.925C649.444 22.7958 649.016 23.5237 648.472 24.1087C647.927 24.6938 647.315 25.1291 646.635 25.4148C645.955 25.7006 645.247 25.8434 644.512 25.8434C643.805 25.8434 643.111 25.7074 642.431 25.4353C641.751 25.1631 641.138 24.7414 640.594 24.1699C640.05 23.5985 639.614 22.8842 639.288 22.0271C638.975 21.1563 638.819 20.1291 638.819 18.9454C638.819 17.7754 638.975 16.755 639.288 15.8842C639.601 15.0135 640.029 14.2856 640.574 13.7005C641.118 13.1155 641.73 12.6801 642.41 12.3944C643.091 12.1087 643.798 11.9658 644.533 11.9658ZM644.594 24.9659C644.989 24.9659 645.349 24.789 645.676 24.4352C646.002 24.0815 646.261 23.4829 646.451 22.6393C646.655 21.7958 646.757 20.6393 646.757 19.1699C646.757 17.891 646.669 16.7822 646.492 15.8434C646.329 14.891 646.077 14.1563 645.737 13.6393C645.397 13.1087 644.968 12.8434 644.451 12.8434C644.07 12.8434 643.71 13.0202 643.37 13.374C643.043 13.7277 642.778 14.3264 642.574 15.1699C642.383 16.0135 642.288 17.1699 642.288 18.6393C642.288 19.9182 642.37 21.0339 642.533 21.9863C642.71 22.925 642.968 23.6597 643.308 24.1903C643.648 24.7074 644.077 24.9659 644.594 24.9659ZM661.497 21.7618H661.966L661.762 25.5373H651.925V25.0679C652.034 25.0135 652.197 24.9182 652.415 24.7822C652.646 24.6461 652.884 24.4897 653.129 24.3128C653.809 23.823 654.449 23.2652 655.048 22.6393C655.646 22.0135 656.17 21.3468 656.619 20.6393C657.068 19.9318 657.422 19.2243 657.68 18.5169C657.939 17.8094 658.068 17.1359 658.068 16.4964C658.068 15.8842 657.918 15.3672 657.619 14.9454C657.333 14.5237 656.809 14.3128 656.048 14.3128C655.408 14.3128 654.816 14.4896 654.272 14.8434C653.728 15.1971 653.19 15.7481 652.66 16.4964L652.272 16.1699C652.83 14.7549 653.531 13.7005 654.374 13.0066C655.218 12.3128 656.272 11.9658 657.537 11.9658C658.272 11.9658 658.932 12.0883 659.517 12.3332C660.102 12.5645 660.565 12.9318 660.905 13.4352C661.258 13.925 661.435 14.5645 661.435 15.3536C661.435 16.755 660.986 18.0679 660.088 19.2924C659.204 20.5169 657.966 21.6665 656.374 22.7414V22.7822H659.354C660.129 22.7822 660.667 22.6869 660.966 22.4965C661.265 22.306 661.442 22.0611 661.497 21.7618ZM672.836 20.3332H674.264V22.8842H673.407C673.026 22.8842 672.836 23.1223 672.836 23.5985C672.836 23.925 672.836 24.2448 672.836 24.5577C672.849 24.857 672.863 25.1835 672.876 25.5373H669.652C669.679 25.0883 669.7 24.6529 669.713 24.2312C669.727 23.7958 669.74 23.3468 669.754 22.8842H663.305V22.4148C663.659 22.0747 663.979 21.721 664.264 21.3536L670.938 13.0066C671.087 12.8162 671.223 12.6325 671.346 12.4556C671.482 12.2651 671.591 12.1019 671.672 11.9658H672.856L672.836 20.3332ZM669.713 16.0679L666.305 20.3332H669.774V16.0679H669.713Z" fill="white"/>
<path d="M704.189 15.2801C701.341 14.1428 697.999 14.7493 695.721 17.024C692.645 20.0948 692.645 25.0612 695.721 28.132C697.999 30.4067 701.341 31.0132 704.189 29.8759V26.2364C703.62 26.5018 703.012 26.6535 702.366 26.6535C700.088 26.6535 698.265 24.8337 698.265 22.559C698.265 20.2844 700.088 18.4646 702.366 18.4646C703.012 18.4646 703.658 18.6163 704.189 18.8817V15.2801Z" fill="white"/>
<path d="M702.901 11.6328C704.023 10.5082 704.023 8.64668 702.901 7.48326C701.78 6.35861 699.923 6.35861 698.762 7.48326C697.602 8.6079 697.64 10.4694 698.762 11.6328C699.923 12.7575 701.78 12.7575 702.901 11.6328Z" fill="white"/>
<path d="M723.028 25.5373V25.0679C723.422 25.0407 723.708 24.9387 723.885 24.7618C724.062 24.5849 724.15 24.1631 724.15 23.4965V14.0066C724.15 13.34 724.048 12.9182 723.844 12.7413C723.654 12.5509 723.28 12.4488 722.722 12.4352V11.9658H728.538V12.4352C728.144 12.4488 727.858 12.5509 727.681 12.7413C727.504 12.9182 727.416 13.34 727.416 14.0066V23.4965C727.416 24.1631 727.518 24.5849 727.722 24.7618C727.926 24.9387 728.3 25.0407 728.844 25.0679V25.5373H723.028ZM742.977 25.7006C742.773 25.4829 742.562 25.272 742.344 25.0679C742.126 24.8502 741.779 24.5305 741.303 24.1087L733.262 16.7618H733.221V23.4965C733.221 23.9591 733.337 24.3332 733.568 24.6189C733.813 24.891 734.228 25.0407 734.813 25.0679V25.5373H731.038V25.0679C731.432 25.0407 731.718 24.891 731.895 24.6189C732.072 24.3332 732.16 23.9591 732.16 23.4965V14.0066C732.16 13.34 732.058 12.9182 731.854 12.7413C731.664 12.5509 731.29 12.4488 730.732 12.4352V11.9658H733.181C733.385 12.2243 733.602 12.4556 733.834 12.6597C734.065 12.8638 734.33 13.1087 734.63 13.3944L742.752 20.7414H742.793V14.0066C742.793 13.5441 742.677 13.1699 742.446 12.8842C742.215 12.5985 741.8 12.4488 741.201 12.4352V11.9658H744.977V12.4352C744.582 12.4488 744.296 12.5985 744.119 12.8842C743.943 13.1699 743.854 13.5441 743.854 14.0066V23.4965C743.854 23.8774 743.854 24.2448 743.854 24.5985C743.868 24.9387 743.881 25.306 743.895 25.7006H742.977ZM746.591 11.9658H758.223V15.3332H757.754C757.672 14.5985 757.455 13.9998 757.101 13.5373C756.747 13.0747 756.142 12.8434 755.285 12.8434H754.04V23.4965C754.04 24.1631 754.142 24.5849 754.346 24.7618C754.55 24.9387 754.924 25.0407 755.468 25.0679V25.5373H749.652V25.0679C750.046 25.0407 750.332 24.9387 750.509 24.7618C750.686 24.5849 750.774 24.1631 750.774 23.4965V12.8434H749.509C748.679 12.8434 748.08 13.0747 747.713 13.5373C747.359 13.9998 747.142 14.5985 747.06 15.3332H746.591V11.9658ZM760.075 25.5373V25.0679C760.47 25.0407 760.755 24.9387 760.932 24.7618C761.109 24.5849 761.198 24.1631 761.198 23.4965V14.0066C761.198 13.34 761.096 12.9182 760.892 12.7413C760.701 12.5509 760.327 12.4488 759.769 12.4352V11.9658H769.79V14.823H769.32C769.293 14.2379 769.089 13.7617 768.708 13.3944C768.341 13.0271 767.769 12.8434 766.994 12.8434H765.361C765.075 12.8434 764.851 12.9182 764.687 13.0679C764.538 13.2175 764.463 13.5305 764.463 14.0066V18.0271C764.572 17.9454 764.701 17.891 764.851 17.8638C765.014 17.8366 765.204 17.823 765.422 17.823H767.402C767.81 17.823 768.15 17.7073 768.422 17.476C768.694 17.2448 768.837 16.925 768.851 16.5169H769.32V19.9863H768.851C768.837 19.4829 768.694 19.1427 768.422 18.9658C768.15 18.789 767.81 18.7005 767.402 18.7005H765.463C765.096 18.7005 764.837 18.7618 764.687 18.8842C764.538 19.0067 764.463 19.2448 764.463 19.5985V23.4965C764.463 23.9727 764.565 24.2856 764.769 24.4352C764.987 24.5849 765.402 24.6597 766.014 24.6597H767.953C768.769 24.6597 769.415 24.4148 769.892 23.925C770.368 23.4352 770.633 22.8502 770.687 22.1699H771.157L770.994 25.5373H760.075ZM784.848 25.8434C784.236 25.8434 783.712 25.7414 783.277 25.5373C782.842 25.3468 782.474 25.0883 782.175 24.7618C781.876 24.4352 781.597 24.0747 781.338 23.6801L778.481 19.2312C778.345 18.9999 778.223 18.857 778.114 18.8026C778.005 18.7482 777.876 18.7141 777.726 18.7005V17.9863C778.542 17.9318 779.175 17.7686 779.624 17.4965C780.073 17.2243 780.386 16.891 780.563 16.4964C780.74 16.0883 780.828 15.6665 780.828 15.2311C780.828 14.4012 780.597 13.7822 780.134 13.374C779.672 12.9522 779.141 12.7413 778.542 12.7413C778.093 12.7413 777.774 12.823 777.583 12.9862C777.406 13.1359 777.318 13.476 777.318 14.0066V23.4965C777.318 24.1631 777.42 24.5849 777.624 24.7618C777.828 24.9387 778.202 25.0407 778.746 25.0679V25.5373H772.93V25.0679C773.325 25.0407 773.61 24.9387 773.787 24.7618C773.964 24.5849 774.052 24.1631 774.052 23.4965V14.0066C774.052 13.34 773.95 12.9182 773.746 12.7413C773.556 12.5509 773.182 12.4488 772.624 12.4352V11.9658H774.052C775.073 11.9658 775.998 11.9522 776.828 11.925C777.658 11.8842 778.365 11.8638 778.95 11.8638C780.297 11.8638 781.365 11.993 782.155 12.2515C782.957 12.4964 783.529 12.8434 783.869 13.2924C784.223 13.7413 784.399 14.2515 784.399 14.823C784.399 15.3672 784.263 15.8638 783.991 16.3128C783.733 16.7618 783.386 17.1427 782.95 17.4556C782.529 17.755 782.066 17.9658 781.563 18.0883V18.1291L784.95 23.4352C785.345 24.0611 785.706 24.4897 786.032 24.721C786.359 24.9523 786.651 25.0679 786.91 25.0679V25.5373C786.638 25.6325 786.311 25.7074 785.93 25.7618C785.563 25.8162 785.202 25.8434 784.848 25.8434ZM794.487 25.8434C793.058 25.8434 791.793 25.5577 790.691 24.9863C789.589 24.4148 788.725 23.6121 788.099 22.5781C787.473 21.5305 787.16 20.3196 787.16 18.9454C787.16 17.8162 787.364 16.8094 787.772 15.925C788.18 15.0271 788.738 14.2583 789.446 13.6189C790.167 12.9794 790.99 12.4964 791.915 12.1699C792.854 11.8298 793.854 11.6597 794.915 11.6597C795.718 11.6597 796.487 11.7345 797.221 11.8842C797.956 12.0339 798.541 12.2107 798.976 12.4148V15.6393H798.507C798.235 14.8094 797.908 14.1767 797.527 13.7413C797.146 13.2924 796.718 12.9794 796.242 12.8026C795.779 12.6257 795.289 12.5373 794.772 12.5373C792.146 12.5373 790.833 14.442 790.833 18.2516C790.833 19.5033 790.963 20.6393 791.221 21.6597C791.493 22.6801 791.908 23.4897 792.466 24.0883C793.038 24.6733 793.765 24.9659 794.65 24.9659C795.371 24.9659 796.024 24.789 796.609 24.4352C797.194 24.0679 797.691 23.5849 798.099 22.9863C798.521 22.3876 798.82 21.7414 798.997 21.0475H799.466L799.303 24.1495C798.854 24.6393 798.221 25.0475 797.405 25.374C796.589 25.687 795.616 25.8434 794.487 25.8434ZM808.109 11.6597C809.075 11.6597 809.973 11.823 810.803 12.1495C811.633 12.476 812.368 12.9522 813.007 13.5781C813.647 14.1903 814.143 14.9318 814.497 15.8026C814.851 16.6733 815.028 17.6461 815.028 18.7209C815.028 19.7958 814.851 20.7686 814.497 21.6393C814.143 22.5101 813.647 23.2584 813.007 23.8842C812.382 24.5101 811.647 24.9931 810.803 25.3332C809.96 25.6733 809.055 25.8434 808.089 25.8434C807.137 25.8434 806.239 25.6802 805.395 25.3536C804.565 25.0271 803.831 24.5577 803.191 23.9455C802.552 23.3196 802.055 22.5713 801.701 21.7005C801.348 20.8298 801.171 19.857 801.171 18.7822C801.171 17.7073 801.348 16.7345 801.701 15.8638C802.055 14.993 802.545 14.2447 803.171 13.6189C803.81 12.993 804.552 12.51 805.395 12.1699C806.239 11.8298 807.143 11.6597 808.109 11.6597ZM808.518 24.9659C809.225 24.9659 809.783 24.7346 810.191 24.272C810.599 23.7958 810.892 23.1427 811.069 22.3128C811.259 21.4829 811.354 20.5169 811.354 19.4148C811.354 17.1971 811.014 15.4964 810.334 14.3128C809.667 13.1291 808.783 12.5373 807.681 12.5373C806.987 12.5373 806.429 12.7685 806.007 13.2311C805.599 13.6937 805.3 14.3468 805.109 15.1903C804.933 16.0203 804.844 16.9862 804.844 18.0883C804.844 20.306 805.177 22.0067 805.844 23.1903C806.524 24.374 807.416 24.9659 808.518 24.9659ZM824.475 25.7006C824.366 25.3876 824.23 25.0679 824.067 24.7414C823.917 24.4012 823.713 23.9591 823.455 23.4148L819.781 15.7413H819.741L819.373 23.4965C819.36 23.9591 819.468 24.3332 819.7 24.6189C819.931 24.891 820.353 25.0407 820.965 25.0679V25.5373H817.19V25.0679C817.584 25.0407 817.863 24.891 818.026 24.6189C818.203 24.3332 818.298 23.9591 818.312 23.4965L818.741 14.0066C818.768 13.5305 818.734 13.1903 818.639 12.9862C818.557 12.7822 818.407 12.6529 818.19 12.5985C817.972 12.5305 817.679 12.476 817.312 12.4352V11.9658H821.679C821.788 12.3196 821.911 12.6529 822.047 12.9658C822.196 13.2788 822.36 13.6257 822.536 14.0066L826.047 21.3536H826.088L829.353 14.0066C829.666 13.3128 829.904 12.6325 830.067 11.9658H834.394V12.4352C834.135 12.4488 833.917 12.4896 833.741 12.5577C833.564 12.6257 833.434 12.7685 833.353 12.9862C833.285 13.1903 833.258 13.5305 833.271 14.0066L833.7 23.4965C833.727 23.9318 833.781 24.2584 833.863 24.4761C833.958 24.6938 834.108 24.8434 834.312 24.925C834.516 24.9931 834.788 25.0407 835.128 25.0679V25.5373H829.312V25.0679C829.747 25.0407 830.047 24.9387 830.21 24.7618C830.387 24.5849 830.462 24.1631 830.434 23.4965L830.088 15.1495H830.047L826.353 23.4148C826.094 23.9863 825.904 24.4352 825.781 24.7618C825.673 25.0747 825.577 25.3876 825.496 25.7006H824.475ZM844.066 25.7006C843.958 25.3876 843.821 25.0679 843.658 24.7414C843.509 24.4012 843.304 23.9591 843.046 23.4148L839.372 15.7413H839.332L838.964 23.4965C838.951 23.9591 839.06 24.3332 839.291 24.6189C839.522 24.891 839.944 25.0407 840.556 25.0679V25.5373H836.781V25.0679C837.175 25.0407 837.454 24.891 837.617 24.6189C837.794 24.3332 837.889 23.9591 837.903 23.4965L838.332 14.0066C838.359 13.5305 838.325 13.1903 838.23 12.9862C838.148 12.7822 837.998 12.6529 837.781 12.5985C837.563 12.5305 837.27 12.476 836.903 12.4352V11.9658H841.27C841.379 12.3196 841.502 12.6529 841.638 12.9658C841.787 13.2788 841.951 13.6257 842.128 14.0066L845.638 21.3536H845.679L848.944 14.0066C849.257 13.3128 849.495 12.6325 849.658 11.9658H853.985V12.4352C853.726 12.4488 853.509 12.4896 853.332 12.5577C853.155 12.6257 853.026 12.7685 852.944 12.9862C852.876 13.1903 852.849 13.5305 852.862 14.0066L853.291 23.4965C853.318 23.9318 853.373 24.2584 853.454 24.4761C853.549 24.6938 853.699 24.8434 853.903 24.925C854.107 24.9931 854.379 25.0407 854.719 25.0679V25.5373H848.903V25.0679C849.338 25.0407 849.638 24.9387 849.801 24.7618C849.978 24.5849 850.053 24.1631 850.026 23.4965L849.679 15.1495H849.638L845.944 23.4148C845.685 23.9863 845.495 24.4352 845.372 24.7618C845.264 25.0747 845.168 25.3876 845.087 25.7006H844.066ZM870.73 21.7618H871.199L870.995 25.5373H861.158V25.0679C861.267 25.0135 861.43 24.9182 861.648 24.7822C861.879 24.6461 862.117 24.4897 862.362 24.3128C863.042 23.823 863.682 23.2652 864.281 22.6393C864.879 22.0135 865.403 21.3468 865.852 20.6393C866.301 19.9318 866.655 19.2243 866.913 18.5169C867.172 17.8094 867.301 17.1359 867.301 16.4964C867.301 15.8842 867.151 15.3672 866.852 14.9454C866.566 14.5237 866.042 14.3128 865.281 14.3128C864.641 14.3128 864.049 14.4896 863.505 14.8434C862.961 15.1971 862.423 15.7481 861.893 16.4964L861.505 16.1699C862.063 14.7549 862.764 13.7005 863.607 13.0066C864.451 12.3128 865.505 11.9658 866.77 11.9658C867.505 11.9658 868.165 12.0883 868.75 12.3332C869.335 12.5645 869.798 12.9318 870.138 13.4352C870.491 13.925 870.668 14.5645 870.668 15.3536C870.668 16.755 870.219 18.0679 869.321 19.2924C868.437 20.5169 867.199 21.6665 865.607 22.7414V22.7822H868.587C869.362 22.7822 869.9 22.6869 870.199 22.4965C870.498 22.306 870.675 22.0611 870.73 21.7618ZM879.416 11.9658C880.123 11.9658 880.817 12.1019 881.497 12.374C882.178 12.6461 882.79 13.0679 883.334 13.6393C883.878 14.2107 884.307 14.9318 884.62 15.8026C884.946 16.6597 885.11 17.6801 885.11 18.8638C885.11 20.0339 884.953 21.0543 884.64 21.925C884.327 22.7958 883.899 23.5237 883.354 24.1087C882.81 24.6938 882.198 25.1291 881.518 25.4148C880.837 25.7006 880.13 25.8434 879.395 25.8434C878.688 25.8434 877.994 25.7074 877.314 25.4353C876.633 25.1631 876.021 24.7414 875.477 24.1699C874.933 23.5985 874.497 22.8842 874.171 22.0271C873.858 21.1563 873.701 20.1291 873.701 18.9454C873.701 17.7754 873.858 16.755 874.171 15.8842C874.484 15.0135 874.912 14.2856 875.456 13.7005C876.001 13.1155 876.613 12.6801 877.293 12.3944C877.973 12.1087 878.681 11.9658 879.416 11.9658ZM879.477 24.9659C879.871 24.9659 880.232 24.789 880.559 24.4352C880.885 24.0815 881.144 23.4829 881.334 22.6393C881.538 21.7958 881.64 20.6393 881.64 19.1699C881.64 17.891 881.552 16.7822 881.375 15.8434C881.212 14.891 880.96 14.1563 880.62 13.6393C880.28 13.1087 879.851 12.8434 879.334 12.8434C878.953 12.8434 878.593 13.0202 878.252 13.374C877.926 13.7277 877.661 14.3264 877.456 15.1699C877.266 16.0135 877.171 17.1699 877.171 18.6393C877.171 19.9182 877.252 21.0339 877.416 21.9863C877.593 22.925 877.851 23.6597 878.191 24.1903C878.531 24.7074 878.96 24.9659 879.477 24.9659ZM896.379 21.7618H896.849L896.645 25.5373H886.808V25.0679C886.917 25.0135 887.08 24.9182 887.298 24.7822C887.529 24.6461 887.767 24.4897 888.012 24.3128C888.692 23.823 889.332 23.2652 889.93 22.6393C890.529 22.0135 891.053 21.3468 891.502 20.6393C891.951 19.9318 892.304 19.2243 892.563 18.5169C892.822 17.8094 892.951 17.1359 892.951 16.4964C892.951 15.8842 892.801 15.3672 892.502 14.9454C892.216 14.5237 891.692 14.3128 890.93 14.3128C890.291 14.3128 889.699 14.4896 889.155 14.8434C888.611 15.1971 888.073 15.7481 887.543 16.4964L887.155 16.1699C887.713 14.7549 888.413 13.7005 889.257 13.0066C890.1 12.3128 891.155 11.9658 892.42 11.9658C893.155 11.9658 893.815 12.0883 894.4 12.3332C894.985 12.5645 895.447 12.9318 895.787 13.4352C896.141 13.925 896.318 14.5645 896.318 15.3536C896.318 16.755 895.869 18.0679 894.971 19.2924C894.087 20.5169 892.849 21.6665 891.257 22.7414V22.7822H894.236C895.012 22.7822 895.549 22.6869 895.849 22.4965C896.148 22.306 896.325 22.0611 896.379 21.7618ZM907.718 20.3332H909.147V22.8842H908.29C907.909 22.8842 907.718 23.1223 907.718 23.5985C907.718 23.925 907.718 24.2448 907.718 24.5577C907.732 24.857 907.746 25.1835 907.759 25.5373H904.535C904.562 25.0883 904.582 24.6529 904.596 24.2312C904.61 23.7958 904.623 23.3468 904.637 22.8842H898.188V22.4148C898.542 22.0747 898.861 21.721 899.147 21.3536L905.821 13.0066C905.97 12.8162 906.106 12.6325 906.229 12.4556C906.365 12.2651 906.474 12.1019 906.555 11.9658H907.739L907.718 20.3332ZM904.596 16.0679L901.188 20.3332H904.657V16.0679H904.596Z" fill="white"/>
<path d="M939.064 15.2801C936.216 14.1428 932.874 14.7493 930.596 17.024C927.52 20.0948 927.52 25.0612 930.596 28.132C932.874 30.4067 936.216 31.0132 939.064 29.8759V26.2364C938.495 26.5018 937.887 26.6535 937.241 26.6535C934.963 26.6535 933.14 24.8337 933.14 22.559C933.14 20.2844 934.963 18.4646 937.241 18.4646C937.887 18.4646 938.533 18.6163 939.064 18.8817V15.2801Z" fill="white"/>
<path d="M937.776 11.6328C938.898 10.5082 938.898 8.64668 937.776 7.48326C936.655 6.35861 934.798 6.35861 933.637 7.48326C932.477 8.6079 932.515 10.4694 933.637 11.6328C934.798 12.7575 936.655 12.7575 937.776 11.6328Z" fill="white"/>
<path d="M957.903 25.5373V25.0679C958.297 25.0407 958.583 24.9387 958.76 24.7618C958.937 24.5849 959.025 24.1631 959.025 23.4965V14.0066C959.025 13.34 958.923 12.9182 958.719 12.7413C958.529 12.5509 958.155 12.4488 957.597 12.4352V11.9658H963.413V12.4352C963.019 12.4488 962.733 12.5509 962.556 12.7413C962.379 12.9182 962.291 13.34 962.291 14.0066V23.4965C962.291 24.1631 962.393 24.5849 962.597 24.7618C962.801 24.9387 963.175 25.0407 963.719 25.0679V25.5373H957.903ZM977.852 25.7006C977.648 25.4829 977.437 25.272 977.219 25.0679C977.001 24.8502 976.654 24.5305 976.178 24.1087L968.137 16.7618H968.096V23.4965C968.096 23.9591 968.212 24.3332 968.443 24.6189C968.688 24.891 969.103 25.0407 969.688 25.0679V25.5373H965.913V25.0679C966.307 25.0407 966.593 24.891 966.77 24.6189C966.947 24.3332 967.035 23.9591 967.035 23.4965V14.0066C967.035 13.34 966.933 12.9182 966.729 12.7413C966.539 12.5509 966.165 12.4488 965.607 12.4352V11.9658H968.056C968.26 12.2243 968.477 12.4556 968.709 12.6597C968.94 12.8638 969.205 13.1087 969.505 13.3944L977.627 20.7414H977.668V14.0066C977.668 13.5441 977.552 13.1699 977.321 12.8842C977.09 12.5985 976.675 12.4488 976.076 12.4352V11.9658H979.852V12.4352C979.457 12.4488 979.171 12.5985 978.994 12.8842C978.818 13.1699 978.729 13.5441 978.729 14.0066V23.4965C978.729 23.8774 978.729 24.2448 978.729 24.5985C978.743 24.9387 978.756 25.306 978.77 25.7006H977.852ZM981.466 11.9658H993.098V15.3332H992.629C992.547 14.5985 992.33 13.9998 991.976 13.5373C991.622 13.0747 991.017 12.8434 990.16 12.8434H988.915V23.4965C988.915 24.1631 989.017 24.5849 989.221 24.7618C989.425 24.9387 989.799 25.0407 990.343 25.0679V25.5373H984.527V25.0679C984.921 25.0407 985.207 24.9387 985.384 24.7618C985.561 24.5849 985.649 24.1631 985.649 23.4965V12.8434H984.384C983.554 12.8434 982.955 13.0747 982.588 13.5373C982.234 13.9998 982.017 14.5985 981.935 15.3332H981.466V11.9658ZM994.95 25.5373V25.0679C995.345 25.0407 995.63 24.9387 995.807 24.7618C995.984 24.5849 996.073 24.1631 996.073 23.4965V14.0066C996.073 13.34 995.971 12.9182 995.767 12.7413C995.576 12.5509 995.202 12.4488 994.644 12.4352V11.9658H1004.66V14.823H1004.2C1004.17 14.2379 1003.96 13.7617 1003.58 13.3944C1003.22 13.0271 1002.64 12.8434 1001.87 12.8434H1000.24C999.95 12.8434 999.726 12.9182 999.562 13.0679C999.413 13.2175 999.338 13.5305 999.338 14.0066V18.0271C999.447 17.9454 999.576 17.891 999.726 17.8638C999.889 17.8366 1000.08 17.823 1000.3 17.823H1002.28C1002.68 17.823 1003.03 17.7073 1003.3 17.476C1003.57 17.2448 1003.71 16.925 1003.73 16.5169H1004.2V19.9863H1003.73C1003.71 19.4829 1003.57 19.1427 1003.3 18.9658C1003.03 18.789 1002.68 18.7005 1002.28 18.7005H1000.34C999.971 18.7005 999.712 18.7618 999.562 18.8842C999.413 19.0067 999.338 19.2448 999.338 19.5985V23.4965C999.338 23.9727 999.44 24.2856 999.644 24.4352C999.862 24.5849 1000.28 24.6597 1000.89 24.6597H1002.83C1003.64 24.6597 1004.29 24.4148 1004.77 23.925C1005.24 23.4352 1005.51 22.8502 1005.56 22.1699H1006.03L1005.87 25.5373H994.95ZM1019.72 25.8434C1019.11 25.8434 1018.59 25.7414 1018.15 25.5373C1017.72 25.3468 1017.35 25.0883 1017.05 24.7618C1016.75 24.4352 1016.47 24.0747 1016.21 23.6801L1013.36 19.2312C1013.22 18.9999 1013.1 18.857 1012.99 18.8026C1012.88 18.7482 1012.75 18.7141 1012.6 18.7005V17.9863C1013.42 17.9318 1014.05 17.7686 1014.5 17.4965C1014.95 17.2243 1015.26 16.891 1015.44 16.4964C1015.61 16.0883 1015.7 15.6665 1015.7 15.2311C1015.7 14.4012 1015.47 13.7822 1015.01 13.374C1014.55 12.9522 1014.02 12.7413 1013.42 12.7413C1012.97 12.7413 1012.65 12.823 1012.46 12.9862C1012.28 13.1359 1012.19 13.476 1012.19 14.0066V23.4965C1012.19 24.1631 1012.29 24.5849 1012.5 24.7618C1012.7 24.9387 1013.08 25.0407 1013.62 25.0679V25.5373H1007.8V25.0679C1008.2 25.0407 1008.49 24.9387 1008.66 24.7618C1008.84 24.5849 1008.93 24.1631 1008.93 23.4965V14.0066C1008.93 13.34 1008.83 12.9182 1008.62 12.7413C1008.43 12.5509 1008.06 12.4488 1007.5 12.4352V11.9658H1008.93C1009.95 11.9658 1010.87 11.9522 1011.7 11.925C1012.53 11.8842 1013.24 11.8638 1013.83 11.8638C1015.17 11.8638 1016.24 11.993 1017.03 12.2515C1017.83 12.4964 1018.4 12.8434 1018.74 13.2924C1019.1 13.7413 1019.27 14.2515 1019.27 14.823C1019.27 15.3672 1019.14 15.8638 1018.87 16.3128C1018.61 16.7618 1018.26 17.1427 1017.83 17.4556C1017.4 17.755 1016.94 17.9658 1016.44 18.0883V18.1291L1019.83 23.4352C1020.22 24.0611 1020.58 24.4897 1020.91 24.721C1021.23 24.9523 1021.53 25.0679 1021.78 25.0679V25.5373C1021.51 25.6325 1021.19 25.7074 1020.81 25.7618C1020.44 25.8162 1020.08 25.8434 1019.72 25.8434ZM1029.36 25.8434C1027.93 25.8434 1026.67 25.5577 1025.57 24.9863C1024.46 24.4148 1023.6 23.6121 1022.97 22.5781C1022.35 21.5305 1022.03 20.3196 1022.03 18.9454C1022.03 17.8162 1022.24 16.8094 1022.65 15.925C1023.06 15.0271 1023.61 14.2583 1024.32 13.6189C1025.04 12.9794 1025.86 12.4964 1026.79 12.1699C1027.73 11.8298 1028.73 11.6597 1029.79 11.6597C1030.59 11.6597 1031.36 11.7345 1032.1 11.8842C1032.83 12.0339 1033.42 12.2107 1033.85 12.4148V15.6393H1033.38C1033.11 14.8094 1032.78 14.1767 1032.4 13.7413C1032.02 13.2924 1031.59 12.9794 1031.12 12.8026C1030.65 12.6257 1030.16 12.5373 1029.65 12.5373C1027.02 12.5373 1025.71 14.442 1025.71 18.2516C1025.71 19.5033 1025.84 20.6393 1026.1 21.6597C1026.37 22.6801 1026.78 23.4897 1027.34 24.0883C1027.91 24.6733 1028.64 24.9659 1029.52 24.9659C1030.25 24.9659 1030.9 24.789 1031.48 24.4352C1032.07 24.0679 1032.57 23.5849 1032.97 22.9863C1033.4 22.3876 1033.69 21.7414 1033.87 21.0475H1034.34L1034.18 24.1495C1033.73 24.6393 1033.1 25.0475 1032.28 25.374C1031.46 25.687 1030.49 25.8434 1029.36 25.8434ZM1042.98 11.6597C1043.95 11.6597 1044.85 11.823 1045.68 12.1495C1046.51 12.476 1047.24 12.9522 1047.88 13.5781C1048.52 14.1903 1049.02 14.9318 1049.37 15.8026C1049.73 16.6733 1049.9 17.6461 1049.9 18.7209C1049.9 19.7958 1049.73 20.7686 1049.37 21.6393C1049.02 22.5101 1048.52 23.2584 1047.88 23.8842C1047.26 24.5101 1046.52 24.9931 1045.68 25.3332C1044.83 25.6733 1043.93 25.8434 1042.96 25.8434C1042.01 25.8434 1041.11 25.6802 1040.27 25.3536C1039.44 25.0271 1038.71 24.5577 1038.07 23.9455C1037.43 23.3196 1036.93 22.5713 1036.58 21.7005C1036.22 20.8298 1036.05 19.857 1036.05 18.7822C1036.05 17.7073 1036.22 16.7345 1036.58 15.8638C1036.93 14.993 1037.42 14.2447 1038.05 13.6189C1038.69 12.993 1039.43 12.51 1040.27 12.1699C1041.11 11.8298 1042.02 11.6597 1042.98 11.6597ZM1043.39 24.9659C1044.1 24.9659 1044.66 24.7346 1045.07 24.272C1045.47 23.7958 1045.77 23.1427 1045.94 22.3128C1046.13 21.4829 1046.23 20.5169 1046.23 19.4148C1046.23 17.1971 1045.89 15.4964 1045.21 14.3128C1044.54 13.1291 1043.66 12.5373 1042.56 12.5373C1041.86 12.5373 1041.3 12.7685 1040.88 13.2311C1040.47 13.6937 1040.17 14.3468 1039.98 15.1903C1039.81 16.0203 1039.72 16.9862 1039.72 18.0883C1039.72 20.306 1040.05 22.0067 1040.72 23.1903C1041.4 24.374 1042.29 24.9659 1043.39 24.9659ZM1059.35 25.7006C1059.24 25.3876 1059.11 25.0679 1058.94 24.7414C1058.79 24.4012 1058.59 23.9591 1058.33 23.4148L1054.66 15.7413H1054.62L1054.25 23.4965C1054.23 23.9591 1054.34 24.3332 1054.57 24.6189C1054.81 24.891 1055.23 25.0407 1055.84 25.0679V25.5373H1052.06V25.0679C1052.46 25.0407 1052.74 24.891 1052.9 24.6189C1053.08 24.3332 1053.17 23.9591 1053.19 23.4965L1053.62 14.0066C1053.64 13.5305 1053.61 13.1903 1053.51 12.9862C1053.43 12.7822 1053.28 12.6529 1053.06 12.5985C1052.85 12.5305 1052.55 12.476 1052.19 12.4352V11.9658H1056.55C1056.66 12.3196 1056.79 12.6529 1056.92 12.9658C1057.07 13.2788 1057.23 13.6257 1057.41 14.0066L1060.92 21.3536H1060.96L1064.23 14.0066C1064.54 13.3128 1064.78 12.6325 1064.94 11.9658H1069.27V12.4352C1069.01 12.4488 1068.79 12.4896 1068.62 12.5577C1068.44 12.6257 1068.31 12.7685 1068.23 12.9862C1068.16 13.1903 1068.13 13.5305 1068.15 14.0066L1068.57 23.4965C1068.6 23.9318 1068.66 24.2584 1068.74 24.4761C1068.83 24.6938 1068.98 24.8434 1069.19 24.925C1069.39 24.9931 1069.66 25.0407 1070 25.0679V25.5373H1064.19V25.0679C1064.62 25.0407 1064.92 24.9387 1065.08 24.7618C1065.26 24.5849 1065.34 24.1631 1065.31 23.4965L1064.96 15.1495H1064.92L1061.23 23.4148C1060.97 23.9863 1060.78 24.4352 1060.66 24.7618C1060.55 25.0747 1060.45 25.3876 1060.37 25.7006H1059.35ZM1078.94 25.7006C1078.83 25.3876 1078.7 25.0679 1078.53 24.7414C1078.38 24.4012 1078.18 23.9591 1077.92 23.4148L1074.25 15.7413H1074.21L1073.84 23.4965C1073.83 23.9591 1073.93 24.3332 1074.17 24.6189C1074.4 24.891 1074.82 25.0407 1075.43 25.0679V25.5373H1071.66V25.0679C1072.05 25.0407 1072.33 24.891 1072.49 24.6189C1072.67 24.3332 1072.76 23.9591 1072.78 23.4965L1073.21 14.0066C1073.23 13.5305 1073.2 13.1903 1073.1 12.9862C1073.02 12.7822 1072.87 12.6529 1072.66 12.5985C1072.44 12.5305 1072.15 12.476 1071.78 12.4352V11.9658H1076.15C1076.25 12.3196 1076.38 12.6529 1076.51 12.9658C1076.66 13.2788 1076.83 13.6257 1077 14.0066L1080.51 21.3536H1080.55L1083.82 14.0066C1084.13 13.3128 1084.37 12.6325 1084.53 11.9658H1088.86V12.4352C1088.6 12.4488 1088.38 12.4896 1088.21 12.5577C1088.03 12.6257 1087.9 12.7685 1087.82 12.9862C1087.75 13.1903 1087.72 13.5305 1087.74 14.0066L1088.17 23.4965C1088.19 23.9318 1088.25 24.2584 1088.33 24.4761C1088.42 24.6938 1088.57 24.8434 1088.78 24.925C1088.98 24.9931 1089.25 25.0407 1089.59 25.0679V25.5373H1083.78V25.0679C1084.21 25.0407 1084.51 24.9387 1084.68 24.7618C1084.85 24.5849 1084.93 24.1631 1084.9 23.4965L1084.55 15.1495H1084.51L1080.82 23.4148C1080.56 23.9863 1080.37 24.4352 1080.25 24.7618C1080.14 25.0747 1080.04 25.3876 1079.96 25.7006H1078.94ZM1105.6 21.7618H1106.07L1105.87 25.5373H1096.03V25.0679C1096.14 25.0135 1096.31 24.9182 1096.52 24.7822C1096.75 24.6461 1096.99 24.4897 1097.24 24.3128C1097.92 23.823 1098.56 23.2652 1099.16 22.6393C1099.75 22.0135 1100.28 21.3468 1100.73 20.6393C1101.18 19.9318 1101.53 19.2243 1101.79 18.5169C1102.05 17.8094 1102.18 17.1359 1102.18 16.4964C1102.18 15.8842 1102.03 15.3672 1101.73 14.9454C1101.44 14.5237 1100.92 14.3128 1100.16 14.3128C1099.52 14.3128 1098.92 14.4896 1098.38 14.8434C1097.84 15.1971 1097.3 15.7481 1096.77 16.4964L1096.38 16.1699C1096.94 14.7549 1097.64 13.7005 1098.48 13.0066C1099.33 12.3128 1100.38 11.9658 1101.65 11.9658C1102.38 11.9658 1103.04 12.0883 1103.62 12.3332C1104.21 12.5645 1104.67 12.9318 1105.01 13.4352C1105.37 13.925 1105.54 14.5645 1105.54 15.3536C1105.54 16.755 1105.09 18.0679 1104.2 19.2924C1103.31 20.5169 1102.07 21.6665 1100.48 22.7414V22.7822H1103.46C1104.24 22.7822 1104.77 22.6869 1105.07 22.4965C1105.37 22.306 1105.55 22.0611 1105.6 21.7618ZM1114.29 11.9658C1115 11.9658 1115.69 12.1019 1116.37 12.374C1117.05 12.6461 1117.66 13.0679 1118.21 13.6393C1118.75 14.2107 1119.18 14.9318 1119.49 15.8026C1119.82 16.6597 1119.98 17.6801 1119.98 18.8638C1119.98 20.0339 1119.83 21.0543 1119.52 21.925C1119.2 22.7958 1118.77 23.5237 1118.23 24.1087C1117.69 24.6938 1117.07 25.1291 1116.39 25.4148C1115.71 25.7006 1115 25.8434 1114.27 25.8434C1113.56 25.8434 1112.87 25.7074 1112.19 25.4353C1111.51 25.1631 1110.9 24.7414 1110.35 24.1699C1109.81 23.5985 1109.37 22.8842 1109.05 22.0271C1108.73 21.1563 1108.58 20.1291 1108.58 18.9454C1108.58 17.7754 1108.73 16.755 1109.05 15.8842C1109.36 15.0135 1109.79 14.2856 1110.33 13.7005C1110.88 13.1155 1111.49 12.6801 1112.17 12.3944C1112.85 12.1087 1113.56 11.9658 1114.29 11.9658ZM1114.35 24.9659C1114.75 24.9659 1115.11 24.789 1115.43 24.4352C1115.76 24.0815 1116.02 23.4829 1116.21 22.6393C1116.41 21.7958 1116.52 20.6393 1116.52 19.1699C1116.52 17.891 1116.43 16.7822 1116.25 15.8434C1116.09 14.891 1115.83 14.1563 1115.49 13.6393C1115.15 13.1087 1114.73 12.8434 1114.21 12.8434C1113.83 12.8434 1113.47 13.0202 1113.13 13.374C1112.8 13.7277 1112.54 14.3264 1112.33 15.1699C1112.14 16.0135 1112.05 17.1699 1112.05 18.6393C1112.05 19.9182 1112.13 21.0339 1112.29 21.9863C1112.47 22.925 1112.73 23.6597 1113.07 24.1903C1113.41 24.7074 1113.83 24.9659 1114.35 24.9659ZM1131.25 21.7618H1131.72L1131.52 25.5373H1121.68V25.0679C1121.79 25.0135 1121.95 24.9182 1122.17 24.7822C1122.4 24.6461 1122.64 24.4897 1122.89 24.3128C1123.57 23.823 1124.21 23.2652 1124.81 22.6393C1125.4 22.0135 1125.93 21.3468 1126.38 20.6393C1126.83 19.9318 1127.18 19.2243 1127.44 18.5169C1127.7 17.8094 1127.83 17.1359 1127.83 16.4964C1127.83 15.8842 1127.68 15.3672 1127.38 14.9454C1127.09 14.5237 1126.57 14.3128 1125.81 14.3128C1125.17 14.3128 1124.57 14.4896 1124.03 14.8434C1123.49 15.1971 1122.95 15.7481 1122.42 16.4964L1122.03 16.1699C1122.59 14.7549 1123.29 13.7005 1124.13 13.0066C1124.98 12.3128 1126.03 11.9658 1127.3 11.9658C1128.03 11.9658 1128.69 12.0883 1129.27 12.3332C1129.86 12.5645 1130.32 12.9318 1130.66 13.4352C1131.02 13.925 1131.19 14.5645 1131.19 15.3536C1131.19 16.755 1130.74 18.0679 1129.85 19.2924C1128.96 20.5169 1127.72 21.6665 1126.13 22.7414V22.7822H1129.11C1129.89 22.7822 1130.42 22.6869 1130.72 22.4965C1131.02 22.306 1131.2 22.0611 1131.25 21.7618ZM1142.59 20.3332H1144.02V22.8842H1143.16C1142.78 22.8842 1142.59 23.1223 1142.59 23.5985C1142.59 23.925 1142.59 24.2448 1142.59 24.5577C1142.61 24.857 1142.62 25.1835 1142.63 25.5373H1139.41C1139.44 25.0883 1139.46 24.6529 1139.47 24.2312C1139.48 23.7958 1139.5 23.3468 1139.51 22.8842H1133.06V22.4148C1133.42 22.0747 1133.74 21.721 1134.02 21.3536L1140.7 13.0066C1140.85 12.8162 1140.98 12.6325 1141.1 12.4556C1141.24 12.2651 1141.35 12.1019 1141.43 11.9658H1142.61L1142.59 20.3332ZM1139.47 16.0679L1136.06 20.3332H1139.53V16.0679H1139.47Z" fill="white"/>
</svg>
