<svg width="938" height="34" viewBox="0 0 938 34" fill="none" xmlns="http://www.w3.org/2000/svg">
<rect width="937.698" height="34" transform="translate(0.234375 0.00469971)" fill="url(#paint0_linear_614_2569)"/>
<path d="M22.4163 19.6087H22.9006L22.6901 23.5047H12.5394V23.0203C12.6517 22.9642 12.8202 22.8659 13.0448 22.7255C13.2835 22.5851 13.5292 22.4237 13.7819 22.2411C14.4839 21.7357 15.1438 21.1601 15.7615 20.5143C16.3792 19.8684 16.9198 19.1805 17.3831 18.4504C17.8464 17.7204 18.2114 16.9903 18.4782 16.2603C18.7449 15.5302 18.8783 14.8352 18.8783 14.1754C18.8783 13.5436 18.7239 13.0101 18.415 12.5748C18.1202 12.1396 17.5796 11.922 16.7934 11.922C16.1335 11.922 15.5228 12.1045 14.9612 12.4695C14.3996 12.8346 13.8451 13.4032 13.2975 14.1754L12.8974 13.8384C13.473 12.3783 14.1961 11.2902 15.0665 10.5742C15.937 9.85818 17.0251 9.50017 18.3307 9.50017C19.0889 9.50017 19.7698 9.62652 20.3735 9.87924C20.9772 10.1179 21.4546 10.497 21.8056 11.0164C22.1706 11.5219 22.3531 12.1817 22.3531 12.996C22.3531 14.4421 21.8898 15.7969 20.9632 17.0605C20.0506 18.3241 18.773 19.5104 17.1304 20.6196V20.6617H20.205C21.0053 20.6617 21.5599 20.5634 21.8687 20.3668C22.1776 20.1703 22.3601 19.9176 22.4163 19.6087ZM31.3795 9.50017C32.1096 9.50017 32.8256 9.64056 33.5276 9.92135C34.2296 10.2021 34.8614 10.6374 35.423 11.227C35.9845 11.8167 36.4268 12.5608 36.7497 13.4593C37.0867 14.3438 37.2551 15.3968 37.2551 16.6183C37.2551 17.8257 37.0937 18.8786 36.7708 19.7772C36.4479 20.6757 36.0056 21.4268 35.444 22.0305C34.8824 22.6342 34.2507 23.0835 33.5487 23.3783C32.8467 23.6732 32.1166 23.8206 31.3585 23.8206C30.6284 23.8206 29.9124 23.6802 29.2104 23.3994C28.5084 23.1186 27.8767 22.6834 27.3151 22.0937C26.7535 21.5041 26.3042 20.767 25.9673 19.8825C25.6444 18.9839 25.4829 17.9239 25.4829 16.7025C25.4829 15.4951 25.6444 14.4421 25.9673 13.5436C26.2902 12.645 26.7324 11.8939 27.294 11.2902C27.8556 10.6865 28.4874 10.2372 29.1894 9.94241C29.8913 9.64758 30.6214 9.50017 31.3795 9.50017ZM31.4427 22.915C31.8499 22.915 32.2219 22.7325 32.5589 22.3675C32.8958 22.0025 33.1626 21.3847 33.3591 20.5143C33.5697 19.6438 33.675 18.4504 33.675 16.9342C33.675 15.6144 33.5838 14.4702 33.4013 13.5015C33.2328 12.5187 32.973 11.7605 32.6221 11.227C32.2711 10.6795 31.8288 10.4057 31.2953 10.4057C30.9022 10.4057 30.5301 10.5882 30.1792 10.9533C29.8422 11.3183 29.5684 11.936 29.3578 12.8065C29.1613 13.677 29.063 14.8703 29.063 16.3866C29.063 17.7063 29.1472 18.8576 29.3157 19.8404C29.4982 20.8091 29.765 21.5672 30.116 22.1148C30.467 22.6483 30.9092 22.915 31.4427 22.915ZM51.5492 17.1447L45.0208 17.7134L44.8734 16.0075L51.4018 15.4389L51.5492 17.1447ZM67.8463 19.6087H68.3307L68.1201 23.5047H57.9694V23.0203C58.0817 22.9642 58.2502 22.8659 58.4748 22.7255C58.7135 22.5851 58.9592 22.4237 59.2119 22.2411C59.9139 21.7357 60.5738 21.1601 61.1915 20.5143C61.8092 19.8684 62.3498 19.1805 62.8131 18.4504C63.2764 17.7204 63.6414 16.9903 63.9082 16.2603C64.1749 15.5302 64.3083 14.8352 64.3083 14.1754C64.3083 13.5436 64.1539 13.0101 63.845 12.5748C63.5502 12.1396 63.0096 11.922 62.2234 11.922C61.5636 11.922 60.9528 12.1045 60.3912 12.4695C59.8297 12.8346 59.2751 13.4032 58.7275 14.1754L58.3274 13.8384C58.903 12.3783 59.6261 11.2902 60.4965 10.5742C61.367 9.85818 62.4551 9.50017 63.7608 9.50017C64.5189 9.50017 65.1998 9.62652 65.8035 9.87924C66.4072 10.1179 66.8846 10.497 67.2356 11.0164C67.6006 11.5219 67.7831 12.1817 67.7831 12.996C67.7831 14.4421 67.3198 15.7969 66.3932 17.0605C65.4806 18.3241 64.203 19.5104 62.5604 20.6196V20.6617H65.635C66.4353 20.6617 66.9899 20.5634 67.2987 20.3668C67.6076 20.1703 67.7901 19.9176 67.8463 19.6087ZM76.4515 21.1882C76.4515 21.7076 76.4937 22.1007 76.5779 22.3675C76.6762 22.6202 76.8727 22.7887 77.1676 22.8729C77.4764 22.9572 77.9398 23.0063 78.5575 23.0203V23.5047H70.7655V23.0203C71.3973 23.0063 71.8606 22.9572 72.1554 22.8729C72.4643 22.7887 72.6608 22.6202 72.7451 22.3675C72.8293 22.1007 72.8714 21.7076 72.8714 21.1882V12.0273L70.934 13.2277L70.4917 12.5538L75.3775 9.50017H76.599C76.5428 9.76692 76.5007 10.0337 76.4726 10.3004C76.4586 10.5672 76.4515 10.8339 76.4515 11.1007V21.1882ZM86.0846 23.5047V23.0203C86.4918 22.9923 86.7866 22.887 86.9691 22.7044C87.1516 22.5219 87.2429 22.0867 87.2429 21.3988V11.6061C87.2429 10.9182 87.1376 10.4829 86.927 10.3004C86.7304 10.1039 86.3443 9.99857 85.7687 9.98453V9.50017H91.7707V9.98453C91.3635 9.99857 91.0687 10.1039 90.8862 10.3004C90.7036 10.4829 90.6124 10.9182 90.6124 11.6061V15.3336C90.7247 15.2494 90.8581 15.1932 91.0125 15.1652C91.181 15.1371 91.3775 15.123 91.6022 15.123H95.5824C95.9615 15.123 96.2282 15.0599 96.3827 14.9335C96.5371 14.8071 96.6143 14.5544 96.6143 14.1754V11.6061C96.6143 10.9182 96.509 10.4829 96.2984 10.3004C96.1019 10.1039 95.7158 9.99857 95.1402 9.98453V9.50017H101.142V9.98453C100.735 9.99857 100.44 10.1039 100.258 10.3004C100.075 10.4829 99.9838 10.9182 99.9838 11.6061V21.3988C99.9838 22.0867 100.089 22.5219 100.3 22.7044C100.51 22.887 100.896 22.9923 101.458 23.0203V23.5047H95.4561V23.0203C95.8632 22.9923 96.158 22.887 96.3406 22.7044C96.5231 22.5219 96.6143 22.0867 96.6143 21.3988V15.7969C96.502 15.8952 96.3616 15.9584 96.1931 15.9865C96.0247 16.0146 95.8351 16.0286 95.6245 16.0286H91.6443C91.2652 16.0286 90.9985 16.0918 90.844 16.2181C90.6896 16.3445 90.6124 16.5902 90.6124 16.9552V21.3988C90.6124 22.0867 90.7177 22.5219 90.9283 22.7044C91.1389 22.887 91.525 22.9923 92.0865 23.0203V23.5047H86.0846ZM110.746 9.18427C111.743 9.18427 112.67 9.35275 113.526 9.6897C114.383 10.0267 115.141 10.518 115.801 11.1639C116.461 11.7956 116.973 12.5608 117.338 13.4593C117.703 14.3579 117.886 15.3617 117.886 16.4708C117.886 17.58 117.703 18.5838 117.338 19.4823C116.973 20.3809 116.461 21.1531 115.801 21.7989C115.155 22.4447 114.397 22.9431 113.526 23.2941C112.656 23.6451 111.722 23.8206 110.725 23.8206C109.743 23.8206 108.816 23.6521 107.945 23.3152C107.089 22.9782 106.331 22.4938 105.671 21.8621C105.011 21.2162 104.499 20.4441 104.134 19.5455C103.769 18.647 103.586 17.6432 103.586 16.534C103.586 15.4249 103.769 14.4211 104.134 13.5225C104.499 12.624 105.004 11.8518 105.65 11.206C106.31 10.5602 107.075 10.0618 107.945 9.71076C108.816 9.35977 109.75 9.18427 110.746 9.18427ZM111.168 22.915C111.898 22.915 112.473 22.6764 112.894 22.199C113.316 21.7076 113.617 21.0337 113.8 20.1773C113.997 19.3209 114.095 18.3241 114.095 17.1869C114.095 14.8984 113.744 13.1435 113.042 11.922C112.354 10.7006 111.441 10.0898 110.304 10.0898C109.588 10.0898 109.012 10.3285 108.577 10.8059C108.156 11.2832 107.847 11.9571 107.651 12.8276C107.468 13.684 107.377 14.6808 107.377 15.818C107.377 18.1065 107.721 19.8614 108.409 21.0829C109.111 22.3043 110.03 22.915 111.168 22.915ZM120.279 23.8206C119.928 23.8206 119.556 23.7925 119.163 23.7364C118.77 23.6802 118.433 23.603 118.152 23.5047V23.0203C118.433 23.0203 118.749 22.908 119.1 22.6834C119.451 22.4587 119.809 22.0095 120.174 21.3356L123.185 15.8812C122.244 15.6425 121.528 15.2564 121.037 14.7229C120.56 14.1894 120.321 13.5436 120.321 12.7854C120.321 12.1958 120.497 11.6412 120.848 11.1217C121.213 10.6023 121.802 10.1881 122.616 9.87924C123.445 9.55632 124.554 9.39487 125.944 9.39487C126.393 9.39487 126.913 9.41593 127.502 9.45805C128.092 9.48613 128.745 9.50017 129.461 9.50017H132.156V9.98453C131.749 9.99857 131.454 10.1039 131.272 10.3004C131.089 10.4829 130.998 10.9182 130.998 11.6061V21.3988C130.998 22.0867 131.103 22.5219 131.314 22.7044C131.525 22.887 131.911 22.9923 132.472 23.0203V23.5047H126.47V23.0203C126.878 22.9923 127.172 22.887 127.355 22.7044C127.537 22.5219 127.629 22.0867 127.629 21.3988V11.6061C127.629 11.0586 127.53 10.7076 127.334 10.5531C127.151 10.3847 126.828 10.3004 126.365 10.3004C125.761 10.3004 125.214 10.518 124.722 10.9533C124.245 11.3745 124.006 12.0133 124.006 12.8697C124.006 13.3189 124.098 13.7542 124.28 14.1754C124.463 14.5825 124.786 14.9265 125.249 15.2073C125.726 15.4881 126.379 15.6565 127.207 15.7127V16.4498C127.039 16.4498 126.892 16.4849 126.765 16.5551C126.639 16.6112 126.512 16.7587 126.386 16.9973L124.006 21.5883C123.684 22.206 123.234 22.7325 122.659 23.1678C122.083 23.603 121.29 23.8206 120.279 23.8206ZM139.127 15.0809H141.17C142.7 15.0809 143.908 15.2494 144.792 15.5863C145.677 15.9233 146.302 16.3866 146.667 16.9763C147.046 17.5659 147.235 18.2469 147.235 19.019C147.235 19.7912 147.025 20.5213 146.603 21.2092C146.196 21.8831 145.557 22.4377 144.687 22.8729C143.831 23.2941 142.735 23.5047 141.402 23.5047L134.599 23.5047V23.0203C135.007 22.9923 135.301 22.887 135.484 22.7044C135.667 22.5219 135.758 22.0867 135.758 21.3988V11.6061C135.758 10.9182 135.652 10.4829 135.442 10.3004C135.245 10.1039 134.859 9.99857 134.284 9.98453V9.50017H145.866V12.975H145.382C145.34 12.4976 145.249 12.0694 145.108 11.6903C144.968 11.2972 144.729 10.9884 144.392 10.7637C144.055 10.5251 143.571 10.4057 142.939 10.4057H140.054C139.759 10.4057 139.527 10.4829 139.359 10.6374C139.204 10.7918 139.127 11.1147 139.127 11.6061V15.0809ZM140.37 22.5991C141.114 22.5991 141.725 22.4237 142.202 22.0727C142.693 21.7076 143.058 21.2584 143.297 20.7249C143.536 20.1913 143.655 19.6649 143.655 19.1454C143.655 18.3732 143.508 17.7555 143.213 17.2922C142.932 16.8289 142.546 16.4989 142.055 16.3024C141.577 16.0918 141.037 15.9865 140.433 15.9865H139.127V21.3988C139.127 21.8901 139.204 22.2131 139.359 22.3675C139.513 22.5219 139.85 22.5991 140.37 22.5991ZM149.469 23.5047V23.0203C149.876 22.9923 150.171 22.887 150.353 22.7044C150.536 22.5219 150.627 22.0867 150.627 21.3988V11.6061C150.627 10.9182 150.522 10.4829 150.311 10.3004C150.114 10.1039 149.728 9.99857 149.153 9.98453V9.50017H150.627C151.652 9.50017 152.613 9.48613 153.512 9.45805C154.411 9.41593 155.084 9.39487 155.534 9.39487C156.994 9.39487 158.145 9.55632 158.987 9.87924C159.844 10.2021 160.455 10.6304 160.82 11.1639C161.199 11.6833 161.388 12.259 161.388 12.8907C161.388 13.6208 161.15 14.3158 160.672 14.9756C160.209 15.6355 159.465 16.1479 158.44 16.513C157.429 16.864 156.088 16.9763 154.418 16.8499V16.1128C155.176 16.1409 155.8 16.0075 156.292 15.7127C156.783 15.4038 157.141 14.9967 157.366 14.4913C157.605 13.9858 157.724 13.4453 157.724 12.8697C157.724 12.0975 157.506 11.4798 157.071 11.0164C156.636 10.5391 156.032 10.3004 155.26 10.3004C154.797 10.3004 154.467 10.3847 154.27 10.5531C154.088 10.7076 153.996 11.0586 153.996 11.6061V21.3988C153.996 21.848 154.039 22.192 154.123 22.4307C154.221 22.6553 154.39 22.8097 154.628 22.894C154.881 22.9642 155.232 23.0063 155.681 23.0203V23.5047H149.469ZM163.611 23.8206C163.26 23.8206 162.888 23.7925 162.495 23.7364C162.102 23.6802 161.765 23.603 161.484 23.5047V23.0203C161.765 23.0203 162.081 22.908 162.432 22.6834C162.783 22.4587 163.141 22.0095 163.506 21.3356L166.517 15.8812C165.577 15.6425 164.861 15.2564 164.369 14.7229C163.892 14.1894 163.653 13.5436 163.653 12.7854C163.653 12.1958 163.829 11.6412 164.18 11.1217C164.545 10.6023 165.134 10.1881 165.949 9.87924C166.777 9.55632 167.886 9.39487 169.276 9.39487C169.725 9.39487 170.245 9.41593 170.835 9.45805C171.424 9.48613 172.077 9.50017 172.793 9.50017H175.489V9.98453C175.082 9.99857 174.787 10.1039 174.604 10.3004C174.422 10.4829 174.33 10.9182 174.33 11.6061V21.3988C174.33 22.0867 174.436 22.5219 174.646 22.7044C174.857 22.887 175.243 22.9923 175.805 23.0203V23.5047H169.803V23.0203C170.21 22.9923 170.505 22.887 170.687 22.7044C170.87 22.5219 170.961 22.0867 170.961 21.3988V11.6061C170.961 11.0586 170.863 10.7076 170.666 10.5531C170.484 10.3847 170.161 10.3004 169.697 10.3004C169.094 10.3004 168.546 10.518 168.055 10.9533C167.577 11.3745 167.339 12.0133 167.339 12.8697C167.339 13.3189 167.43 13.7542 167.612 14.1754C167.795 14.5825 168.118 14.9265 168.581 15.2073C169.059 15.4881 169.711 15.6565 170.54 15.7127V16.4498C170.371 16.4498 170.224 16.4849 170.098 16.5551C169.971 16.6112 169.845 16.7587 169.718 16.9973L167.339 21.5883C167.016 22.206 166.567 22.7325 165.991 23.1678C165.415 23.603 164.622 23.8206 163.611 23.8206ZM192.537 19.6087H193.022L192.811 23.5047H182.66V23.0203C182.773 22.9642 182.941 22.8659 183.166 22.7255C183.404 22.5851 183.65 22.4237 183.903 22.2411C184.605 21.7357 185.265 21.1601 185.882 20.5143C186.5 19.8684 187.041 19.1805 187.504 18.4504C187.967 17.7204 188.332 16.9903 188.599 16.2603C188.866 15.5302 188.999 14.8352 188.999 14.1754C188.999 13.5436 188.845 13.0101 188.536 12.5748C188.241 12.1396 187.701 11.922 186.914 11.922C186.254 11.922 185.644 12.1045 185.082 12.4695C184.521 12.8346 183.966 13.4032 183.418 14.1754L183.018 13.8384C183.594 12.3783 184.317 11.2902 185.187 10.5742C186.058 9.85818 187.146 9.50017 188.452 9.50017C189.21 9.50017 189.891 9.62652 190.494 9.87924C191.098 10.1179 191.575 10.497 191.926 11.0164C192.291 11.5219 192.474 12.1817 192.474 12.996C192.474 14.4421 192.011 15.7969 191.084 17.0605C190.171 18.3241 188.894 19.5104 187.251 20.6196V20.6617H190.326C191.126 20.6617 191.681 20.5634 191.99 20.3668C192.298 20.1703 192.481 19.9176 192.537 19.6087ZM201.5 9.50017C202.23 9.50017 202.947 9.64056 203.649 9.92135C204.35 10.2021 204.982 10.6374 205.544 11.227C206.105 11.8167 206.548 12.5608 206.871 13.4593C207.208 14.3438 207.376 15.3968 207.376 16.6183C207.376 17.8257 207.215 18.8786 206.892 19.7772C206.569 20.6757 206.126 21.4268 205.565 22.0305C205.003 22.6342 204.372 23.0835 203.67 23.3783C202.968 23.6732 202.238 23.8206 201.479 23.8206C200.749 23.8206 200.033 23.6802 199.331 23.3994C198.629 23.1186 197.998 22.6834 197.436 22.0937C196.874 21.5041 196.425 20.767 196.088 19.8825C195.765 18.9839 195.604 17.9239 195.604 16.7025C195.604 15.4951 195.765 14.4421 196.088 13.5436C196.411 12.645 196.853 11.8939 197.415 11.2902C197.976 10.6865 198.608 10.2372 199.31 9.94241C200.012 9.64758 200.742 9.50017 201.5 9.50017ZM201.564 22.915C201.971 22.915 202.343 22.7325 202.68 22.3675C203.017 22.0025 203.283 21.3847 203.48 20.5143C203.691 19.6438 203.796 18.4504 203.796 16.9342C203.796 15.6144 203.705 14.4702 203.522 13.5015C203.354 12.5187 203.094 11.7605 202.743 11.227C202.392 10.6795 201.95 10.4057 201.416 10.4057C201.023 10.4057 200.651 10.5882 200.3 10.9533C199.963 11.3183 199.689 11.936 199.479 12.8065C199.282 13.677 199.184 14.8703 199.184 16.3866C199.184 17.7063 199.268 18.8576 199.437 19.8404C199.619 20.8091 199.886 21.5672 200.237 22.1148C200.588 22.6483 201.03 22.915 201.564 22.915ZM219.005 19.6087H219.49L219.279 23.5047H209.129V23.0203C209.241 22.9642 209.409 22.8659 209.634 22.7255C209.873 22.5851 210.118 22.4237 210.371 22.2411C211.073 21.7357 211.733 21.1601 212.351 20.5143C212.968 19.8684 213.509 19.1805 213.972 18.4504C214.436 17.7204 214.801 16.9903 215.067 16.2603C215.334 15.5302 215.467 14.8352 215.467 14.1754C215.467 13.5436 215.313 13.0101 215.004 12.5748C214.709 12.1396 214.169 11.922 213.383 11.922C212.723 11.922 212.112 12.1045 211.55 12.4695C210.989 12.8346 210.434 13.4032 209.887 14.1754L209.487 13.8384C210.062 12.3783 210.785 11.2902 211.656 10.5742C212.526 9.85818 213.614 9.50017 214.92 9.50017C215.678 9.50017 216.359 9.62652 216.963 9.87924C217.566 10.1179 218.044 10.497 218.395 11.0164C218.76 11.5219 218.942 12.1817 218.942 12.996C218.942 14.4421 218.479 15.7969 217.552 17.0605C216.64 18.3241 215.362 19.5104 213.72 20.6196V20.6617H216.794C217.594 20.6617 218.149 20.5634 218.458 20.3668C218.767 20.1703 218.949 19.9176 219.005 19.6087ZM230.706 18.1345H232.181V20.767H231.296C230.903 20.767 230.706 21.0127 230.706 21.5041C230.706 21.841 230.706 22.1709 230.706 22.4938C230.72 22.8027 230.735 23.1397 230.749 23.5047H227.421C227.449 23.0414 227.47 22.5921 227.484 22.1569C227.498 21.7076 227.512 21.2443 227.526 20.767H220.872V20.2826C221.237 19.9316 221.567 19.5666 221.861 19.1875L228.748 10.5742C228.902 10.3776 229.043 10.1881 229.169 10.0056C229.31 9.80904 229.422 9.64056 229.506 9.50017H230.728L230.706 18.1345ZM227.484 13.7331L223.967 18.1345H227.548V13.7331H227.484ZM249.458 9.50017V13.3962H248.974C248.904 12.7784 248.777 12.2519 248.595 11.8167C248.426 11.3674 248.16 11.0235 247.795 10.7848C247.444 10.5321 246.952 10.4057 246.32 10.4057H245.331C245.036 10.4057 244.804 10.4829 244.636 10.6374C244.481 10.7918 244.404 11.1147 244.404 11.6061V21.3988C244.404 22.0867 244.509 22.5219 244.72 22.7044C244.93 22.887 245.317 22.9923 245.878 23.0203V23.5047H239.876V23.0203C240.283 22.9923 240.578 22.887 240.761 22.7044C240.943 22.5219 241.034 22.0867 241.034 21.3988V11.6061C241.034 10.9182 240.929 10.4829 240.719 10.3004C240.522 10.1039 240.136 9.99857 239.56 9.98453V9.50017H249.458ZM257.895 9.18427C258.892 9.18427 259.819 9.35275 260.675 9.6897C261.531 10.0267 262.29 10.518 262.949 11.1639C263.609 11.7956 264.122 12.5608 264.487 13.4593C264.852 14.3579 265.034 15.3617 265.034 16.4708C265.034 17.58 264.852 18.5838 264.487 19.4823C264.122 20.3809 263.609 21.1531 262.949 21.7989C262.304 22.4447 261.545 22.9431 260.675 23.2941C259.805 23.6451 258.871 23.8206 257.874 23.8206C256.891 23.8206 255.965 23.6521 255.094 23.3152C254.238 22.9782 253.48 22.4938 252.82 21.8621C252.16 21.2162 251.648 20.4441 251.283 19.5455C250.917 18.647 250.735 17.6432 250.735 16.534C250.735 15.4249 250.917 14.4211 251.283 13.5225C251.648 12.624 252.153 11.8518 252.799 11.206C253.459 10.5602 254.224 10.0618 255.094 9.71076C255.965 9.35977 256.898 9.18427 257.895 9.18427ZM258.316 22.915C259.046 22.915 259.622 22.6764 260.043 22.199C260.464 21.7076 260.766 21.0337 260.949 20.1773C261.145 19.3209 261.244 18.3241 261.244 17.1869C261.244 14.8984 260.893 13.1435 260.191 11.922C259.503 10.7006 258.59 10.0898 257.453 10.0898C256.737 10.0898 256.161 10.3285 255.726 10.8059C255.305 11.2832 254.996 11.9571 254.799 12.8276C254.617 13.684 254.526 14.6808 254.526 15.818C254.526 18.1065 254.87 19.8614 255.558 21.0829C256.26 22.3043 257.179 22.915 258.316 22.915ZM274.167 11.1639L277.663 21.3988C277.789 21.7638 277.971 22.1007 278.21 22.4096C278.463 22.7044 278.849 22.908 279.368 23.0203L278.4 27.8219H277.915C277.887 26.9514 277.761 26.1933 277.536 25.5475C277.312 24.9016 277.031 24.3962 276.694 24.0312C276.357 23.6802 275.992 23.5047 275.599 23.5047H269.955C269.435 23.5047 268.923 23.6802 268.417 24.0312C267.926 24.3962 267.505 24.9016 267.154 25.5475C266.817 26.1933 266.599 26.9514 266.501 27.8219H266.017V23.0203C266.269 22.908 266.515 22.7185 266.754 22.4517C266.992 22.1709 267.21 21.855 267.407 21.5041C267.617 21.1531 267.779 20.8231 267.891 20.5143L271.471 11.1639C271.612 10.7988 271.745 10.4408 271.871 10.0898C271.998 9.73884 272.11 9.38083 272.208 9.0158H273.43C273.528 9.38083 273.64 9.73884 273.767 10.0898C273.907 10.4408 274.04 10.7988 274.167 11.1639ZM273.282 22.5991C273.844 22.5991 274.153 22.5079 274.209 22.3254C274.265 22.1429 274.216 21.834 274.061 21.3988L271.597 13.8174H271.555L268.27 22.5991H273.282ZM292.256 21.3988C292.453 21.8761 292.614 22.2271 292.741 22.4517C292.881 22.6764 293.028 22.8238 293.183 22.894C293.337 22.9501 293.527 22.9923 293.751 23.0203V23.5047H287.876V23.0203C288.437 22.9923 288.746 22.8238 288.802 22.5149C288.873 22.206 288.823 21.834 288.655 21.3988L287.602 18.661C287.518 18.7312 287.405 18.7804 287.265 18.8084C287.139 18.8225 286.998 18.8295 286.844 18.8295H284.464C284.169 18.8295 283.945 18.8646 283.79 18.9348C283.636 19.005 283.502 19.1805 283.39 19.4613L282.632 21.3988C282.449 21.8621 282.464 22.2411 282.674 22.536C282.885 22.8308 283.299 22.9923 283.917 23.0203V23.5047H280.084V23.0203C280.393 22.9923 280.652 22.8378 280.863 22.557C281.088 22.2622 281.291 21.8761 281.474 21.3988L285.517 11.1639C285.672 10.7988 285.805 10.4408 285.917 10.0898C286.044 9.73884 286.156 9.38083 286.254 9.0158H287.476C287.574 9.38083 287.686 9.73884 287.813 10.0898C287.939 10.4408 288.072 10.7988 288.213 11.1639L292.256 21.3988ZM286.739 17.9239C286.935 17.9239 287.061 17.8959 287.118 17.8397C287.188 17.7695 287.181 17.6291 287.097 17.4185L285.643 13.8174H285.601L283.959 18.0082C284.029 17.9661 284.113 17.945 284.211 17.945C284.31 17.931 284.422 17.9239 284.548 17.9239H286.739Z" fill="black"/>
<path d="M315.145 14.6038C313.046 13.7655 310.583 14.2126 308.904 15.8892C306.636 18.1526 306.636 21.8132 308.904 24.0766C310.583 25.7532 313.046 26.2003 315.145 25.362V22.6795C314.725 22.8751 314.278 22.9868 313.802 22.9868C312.122 22.9868 310.779 21.6455 310.779 19.9689C310.779 18.2923 312.122 16.951 313.802 16.951C314.278 16.951 314.753 17.0628 315.145 17.2584V14.6038Z" fill="black"/>
<path d="M314.205 11.9155C315.032 11.0866 315.032 9.71453 314.205 8.857C313.378 8.02805 312.01 8.02805 311.154 8.857C310.299 9.68595 310.327 11.058 311.154 11.9155C312.01 12.7445 313.378 12.7445 314.205 11.9155Z" fill="black"/>
<path d="M338.237 19.6087H338.721L338.51 23.5047H328.36V23.0203C328.472 22.9642 328.641 22.8659 328.865 22.7255C329.104 22.5851 329.35 22.4237 329.602 22.2411C330.304 21.7357 330.964 21.1601 331.582 20.5143C332.2 19.8684 332.74 19.1805 333.203 18.4504C333.667 17.7204 334.032 16.9903 334.298 16.2603C334.565 15.5302 334.699 14.8352 334.699 14.1754C334.699 13.5436 334.544 13.0101 334.235 12.5748C333.94 12.1396 333.4 11.922 332.614 11.922C331.954 11.922 331.343 12.1045 330.782 12.4695C330.22 12.8346 329.665 13.4032 329.118 14.1754L328.718 13.8384C329.293 12.3783 330.016 11.2902 330.887 10.5742C331.757 9.85818 332.845 9.50017 334.151 9.50017C334.909 9.50017 335.59 9.62652 336.194 9.87924C336.798 10.1179 337.275 10.497 337.626 11.0164C337.991 11.5219 338.173 12.1817 338.173 12.996C338.173 14.4421 337.71 15.7969 336.783 17.0605C335.871 18.3241 334.593 19.5104 332.951 20.6196V20.6617H336.025C336.826 20.6617 337.38 20.5634 337.689 20.3668C337.998 20.1703 338.18 19.9176 338.237 19.6087ZM347.2 9.50017C347.93 9.50017 348.646 9.64056 349.348 9.92135C350.05 10.2021 350.682 10.6374 351.243 11.227C351.805 11.8167 352.247 12.5608 352.57 13.4593C352.907 14.3438 353.075 15.3968 353.075 16.6183C353.075 17.8257 352.914 18.8786 352.591 19.7772C352.268 20.6757 351.826 21.4268 351.264 22.0305C350.703 22.6342 350.071 23.0835 349.369 23.3783C348.667 23.6732 347.937 23.8206 347.179 23.8206C346.449 23.8206 345.733 23.6802 345.031 23.3994C344.329 23.1186 343.697 22.6834 343.135 22.0937C342.574 21.5041 342.125 20.767 341.788 19.8825C341.465 18.9839 341.303 17.9239 341.303 16.7025C341.303 15.4951 341.465 14.4421 341.788 13.5436C342.11 12.645 342.553 11.8939 343.114 11.2902C343.676 10.6865 344.308 10.2372 345.01 9.94241C345.712 9.64758 346.442 9.50017 347.2 9.50017ZM347.263 22.915C347.67 22.915 348.042 22.7325 348.379 22.3675C348.716 22.0025 348.983 21.3847 349.179 20.5143C349.39 19.6438 349.495 18.4504 349.495 16.9342C349.495 15.6144 349.404 14.4702 349.222 13.5015C349.053 12.5187 348.793 11.7605 348.442 11.227C348.091 10.6795 347.649 10.4057 347.116 10.4057C346.723 10.4057 346.35 10.5882 345.999 10.9533C345.663 11.3183 345.389 11.936 345.178 12.8065C344.982 13.677 344.883 14.8703 344.883 16.3866C344.883 17.7063 344.968 18.8576 345.136 19.8404C345.319 20.8091 345.585 21.5672 345.936 22.1148C346.287 22.6483 346.73 22.915 347.263 22.915ZM367.37 17.1447L360.841 17.7134L360.694 16.0075L367.222 15.4389L367.37 17.1447ZM383.667 19.6087H384.151L383.94 23.5047H373.79V23.0203C373.902 22.9642 374.071 22.8659 374.295 22.7255C374.534 22.5851 374.78 22.4237 375.032 22.2411C375.734 21.7357 376.394 21.1601 377.012 20.5143C377.63 19.8684 378.17 19.1805 378.633 18.4504C379.097 17.7204 379.462 16.9903 379.728 16.2603C379.995 15.5302 380.129 14.8352 380.129 14.1754C380.129 13.5436 379.974 13.0101 379.665 12.5748C379.37 12.1396 378.83 11.922 378.044 11.922C377.384 11.922 376.773 12.1045 376.212 12.4695C375.65 12.8346 375.095 13.4032 374.548 14.1754L374.148 13.8384C374.723 12.3783 375.446 11.2902 376.317 10.5742C377.187 9.85818 378.275 9.50017 379.581 9.50017C380.339 9.50017 381.02 9.62652 381.624 9.87924C382.228 10.1179 382.705 10.497 383.056 11.0164C383.421 11.5219 383.603 12.1817 383.603 12.996C383.603 14.4421 383.14 15.7969 382.214 17.0605C381.301 18.3241 380.023 19.5104 378.381 20.6196V20.6617H381.455C382.256 20.6617 382.81 20.5634 383.119 20.3668C383.428 20.1703 383.61 19.9176 383.667 19.6087ZM392.272 21.1882C392.272 21.7076 392.314 22.1007 392.398 22.3675C392.496 22.6202 392.693 22.7887 392.988 22.8729C393.297 22.9572 393.76 23.0063 394.378 23.0203V23.5047H386.586V23.0203C387.218 23.0063 387.681 22.9572 387.976 22.8729C388.285 22.7887 388.481 22.6202 388.565 22.3675C388.65 22.1007 388.692 21.7076 388.692 21.1882V12.0273L386.754 13.2277L386.312 12.5538L391.198 9.50017H392.419C392.363 9.76692 392.321 10.0337 392.293 10.3004C392.279 10.5672 392.272 10.8339 392.272 11.1007V21.1882ZM401.905 23.5047V23.0203C402.312 22.9923 402.607 22.887 402.789 22.7044C402.972 22.5219 403.063 22.0867 403.063 21.3988V11.6061C403.063 10.9182 402.958 10.4829 402.747 10.3004C402.551 10.1039 402.165 9.99857 401.589 9.98453V9.50017H407.591V9.98453C407.184 9.99857 406.889 10.1039 406.706 10.3004C406.524 10.4829 406.433 10.9182 406.433 11.6061V15.3336C406.545 15.2494 406.678 15.1932 406.833 15.1652C407.001 15.1371 407.198 15.123 407.422 15.123H411.403C411.782 15.123 412.049 15.0599 412.203 14.9335C412.357 14.8071 412.435 14.5544 412.435 14.1754V11.6061C412.435 10.9182 412.329 10.4829 412.119 10.3004C411.922 10.1039 411.536 9.99857 410.96 9.98453V9.50017H416.962V9.98453C416.555 9.99857 416.26 10.1039 416.078 10.3004C415.895 10.4829 415.804 10.9182 415.804 11.6061V21.3988C415.804 22.0867 415.909 22.5219 416.12 22.7044C416.331 22.887 416.717 22.9923 417.278 23.0203V23.5047H411.276V23.0203C411.684 22.9923 411.978 22.887 412.161 22.7044C412.343 22.5219 412.435 22.0867 412.435 21.3988V15.7969C412.322 15.8952 412.182 15.9584 412.013 15.9865C411.845 16.0146 411.655 16.0286 411.445 16.0286H407.465C407.086 16.0286 406.819 16.0918 406.664 16.2181C406.51 16.3445 406.433 16.5902 406.433 16.9552V21.3988C406.433 22.0867 406.538 22.5219 406.749 22.7044C406.959 22.887 407.345 22.9923 407.907 23.0203V23.5047H401.905ZM426.567 9.18427C427.564 9.18427 428.49 9.35275 429.347 9.6897C430.203 10.0267 430.961 10.518 431.621 11.1639C432.281 11.7956 432.793 12.5608 433.158 13.4593C433.523 14.3579 433.706 15.3617 433.706 16.4708C433.706 17.58 433.523 18.5838 433.158 19.4823C432.793 20.3809 432.281 21.1531 431.621 21.7989C430.975 22.4447 430.217 22.9431 429.347 23.2941C428.476 23.6451 427.542 23.8206 426.546 23.8206C425.563 23.8206 424.636 23.6521 423.766 23.3152C422.909 22.9782 422.151 22.4938 421.491 21.8621C420.831 21.2162 420.319 20.4441 419.954 19.5455C419.589 18.647 419.406 17.6432 419.406 16.534C419.406 15.4249 419.589 14.4211 419.954 13.5225C420.319 12.624 420.824 11.8518 421.47 11.206C422.13 10.5602 422.895 10.0618 423.766 9.71076C424.636 9.35977 425.57 9.18427 426.567 9.18427ZM426.988 22.915C427.718 22.915 428.294 22.6764 428.715 22.199C429.136 21.7076 429.438 21.0337 429.62 20.1773C429.817 19.3209 429.915 18.3241 429.915 17.1869C429.915 14.8984 429.564 13.1435 428.862 11.922C428.174 10.7006 427.262 10.0898 426.124 10.0898C425.408 10.0898 424.833 10.3285 424.398 10.8059C423.976 11.2832 423.668 11.9571 423.471 12.8276C423.288 13.684 423.197 14.6808 423.197 15.818C423.197 18.1065 423.541 19.8614 424.229 21.0829C424.931 22.3043 425.851 22.915 426.988 22.915ZM436.099 23.8206C435.748 23.8206 435.376 23.7925 434.983 23.7364C434.59 23.6802 434.253 23.603 433.972 23.5047V23.0203C434.253 23.0203 434.569 22.908 434.92 22.6834C435.271 22.4587 435.629 22.0095 435.994 21.3356L439.005 15.8812C438.065 15.6425 437.349 15.2564 436.857 14.7229C436.38 14.1894 436.141 13.5436 436.141 12.7854C436.141 12.1958 436.317 11.6412 436.668 11.1217C437.033 10.6023 437.623 10.1881 438.437 9.87924C439.265 9.55632 440.374 9.39487 441.764 9.39487C442.213 9.39487 442.733 9.41593 443.323 9.45805C443.912 9.48613 444.565 9.50017 445.281 9.50017H447.977V9.98453C447.57 9.99857 447.275 10.1039 447.092 10.3004C446.91 10.4829 446.818 10.9182 446.818 11.6061V21.3988C446.818 22.0867 446.924 22.5219 447.134 22.7044C447.345 22.887 447.731 22.9923 448.293 23.0203V23.5047H442.291V23.0203C442.698 22.9923 442.993 22.887 443.175 22.7044C443.358 22.5219 443.449 22.0867 443.449 21.3988V11.6061C443.449 11.0586 443.351 10.7076 443.154 10.5531C442.972 10.3847 442.649 10.3004 442.185 10.3004C441.582 10.3004 441.034 10.518 440.543 10.9533C440.065 11.3745 439.827 12.0133 439.827 12.8697C439.827 13.3189 439.918 13.7542 440.101 14.1754C440.283 14.5825 440.606 14.9265 441.069 15.2073C441.547 15.4881 442.199 15.6565 443.028 15.7127V16.4498C442.859 16.4498 442.712 16.4849 442.586 16.5551C442.459 16.6112 442.333 16.7587 442.206 16.9973L439.827 21.5883C439.504 22.206 439.055 22.7325 438.479 23.1678C437.903 23.603 437.11 23.8206 436.099 23.8206ZM454.948 15.0809H456.99C458.521 15.0809 459.728 15.2494 460.613 15.5863C461.497 15.9233 462.122 16.3866 462.487 16.9763C462.866 17.5659 463.055 18.2469 463.055 19.019C463.055 19.7912 462.845 20.5213 462.424 21.2092C462.017 21.8831 461.378 22.4377 460.507 22.8729C459.651 23.2941 458.556 23.5047 457.222 23.5047L450.42 23.5047V23.0203C450.827 22.9923 451.122 22.887 451.304 22.7044C451.487 22.5219 451.578 22.0867 451.578 21.3988V11.6061C451.578 10.9182 451.473 10.4829 451.262 10.3004C451.066 10.1039 450.68 9.99857 450.104 9.98453V9.50017H461.687V12.975H461.202C461.16 12.4976 461.069 12.0694 460.928 11.6903C460.788 11.2972 460.549 10.9884 460.212 10.7637C459.875 10.5251 459.391 10.4057 458.759 10.4057H455.874C455.579 10.4057 455.348 10.4829 455.179 10.6374C455.025 10.7918 454.948 11.1147 454.948 11.6061V15.0809ZM456.19 22.5991C456.934 22.5991 457.545 22.4237 458.022 22.0727C458.514 21.7076 458.879 21.2584 459.117 20.7249C459.356 20.1913 459.475 19.6649 459.475 19.1454C459.475 18.3732 459.328 17.7555 459.033 17.2922C458.752 16.8289 458.366 16.4989 457.875 16.3024C457.398 16.0918 456.857 15.9865 456.253 15.9865H454.948V21.3988C454.948 21.8901 455.025 22.2131 455.179 22.3675C455.334 22.5219 455.671 22.5991 456.19 22.5991ZM465.289 23.5047V23.0203C465.696 22.9923 465.991 22.887 466.173 22.7044C466.356 22.5219 466.447 22.0867 466.447 21.3988V11.6061C466.447 10.9182 466.342 10.4829 466.131 10.3004C465.935 10.1039 465.549 9.99857 464.973 9.98453V9.50017H466.447C467.472 9.50017 468.434 9.48613 469.332 9.45805C470.231 9.41593 470.905 9.39487 471.354 9.39487C472.814 9.39487 473.965 9.55632 474.808 9.87924C475.664 10.2021 476.275 10.6304 476.64 11.1639C477.019 11.6833 477.209 12.259 477.209 12.8907C477.209 13.6208 476.97 14.3158 476.493 14.9756C476.029 15.6355 475.285 16.1479 474.26 16.513C473.249 16.864 471.909 16.9763 470.238 16.8499V16.1128C470.996 16.1409 471.621 16.0075 472.112 15.7127C472.604 15.4038 472.962 14.9967 473.186 14.4913C473.425 13.9858 473.544 13.4453 473.544 12.8697C473.544 12.0975 473.327 11.4798 472.891 11.0164C472.456 10.5391 471.852 10.3004 471.08 10.3004C470.617 10.3004 470.287 10.3847 470.09 10.5531C469.908 10.7076 469.817 11.0586 469.817 11.6061V21.3988C469.817 21.848 469.859 22.192 469.943 22.4307C470.041 22.6553 470.21 22.8097 470.448 22.894C470.701 22.9642 471.052 23.0063 471.501 23.0203V23.5047H465.289ZM479.432 23.8206C479.081 23.8206 478.708 23.7925 478.315 23.7364C477.922 23.6802 477.585 23.603 477.305 23.5047V23.0203C477.585 23.0203 477.901 22.908 478.252 22.6834C478.603 22.4587 478.961 22.0095 479.326 21.3356L482.338 15.8812C481.397 15.6425 480.681 15.2564 480.19 14.7229C479.712 14.1894 479.474 13.5436 479.474 12.7854C479.474 12.1958 479.649 11.6412 480 11.1217C480.365 10.6023 480.955 10.1881 481.769 9.87924C482.597 9.55632 483.707 9.39487 485.097 9.39487C485.546 9.39487 486.065 9.41593 486.655 9.45805C487.245 9.48613 487.897 9.50017 488.613 9.50017H491.309V9.98453C490.902 9.99857 490.607 10.1039 490.425 10.3004C490.242 10.4829 490.151 10.9182 490.151 11.6061V21.3988C490.151 22.0867 490.256 22.5219 490.467 22.7044C490.677 22.887 491.063 22.9923 491.625 23.0203V23.5047H485.623V23.0203C486.03 22.9923 486.325 22.887 486.507 22.7044C486.69 22.5219 486.781 22.0867 486.781 21.3988V11.6061C486.781 11.0586 486.683 10.7076 486.486 10.5531C486.304 10.3847 485.981 10.3004 485.518 10.3004C484.914 10.3004 484.366 10.518 483.875 10.9533C483.398 11.3745 483.159 12.0133 483.159 12.8697C483.159 13.3189 483.25 13.7542 483.433 14.1754C483.615 14.5825 483.938 14.9265 484.402 15.2073C484.879 15.4881 485.532 15.6565 486.36 15.7127V16.4498C486.192 16.4498 486.044 16.4849 485.918 16.5551C485.791 16.6112 485.665 16.7587 485.539 16.9973L483.159 21.5883C482.836 22.206 482.387 22.7325 481.811 23.1678C481.236 23.603 480.442 23.8206 479.432 23.8206ZM508.357 19.6087H508.842L508.631 23.5047H498.481V23.0203C498.593 22.9642 498.761 22.8659 498.986 22.7255C499.225 22.5851 499.47 22.4237 499.723 22.2411C500.425 21.7357 501.085 21.1601 501.703 20.5143C502.32 19.8684 502.861 19.1805 503.324 18.4504C503.788 17.7204 504.153 16.9903 504.419 16.2603C504.686 15.5302 504.819 14.8352 504.819 14.1754C504.819 13.5436 504.665 13.0101 504.356 12.5748C504.061 12.1396 503.521 11.922 502.735 11.922C502.075 11.922 501.464 12.1045 500.902 12.4695C500.341 12.8346 499.786 13.4032 499.239 14.1754L498.839 13.8384C499.414 12.3783 500.137 11.2902 501.008 10.5742C501.878 9.85818 502.966 9.50017 504.272 9.50017C505.03 9.50017 505.711 9.62652 506.315 9.87924C506.918 10.1179 507.396 10.497 507.747 11.0164C508.112 11.5219 508.294 12.1817 508.294 12.996C508.294 14.4421 507.831 15.7969 506.904 17.0605C505.992 18.3241 504.714 19.5104 503.072 20.6196V20.6617H506.146C506.946 20.6617 507.501 20.5634 507.81 20.3668C508.119 20.1703 508.301 19.9176 508.357 19.6087ZM517.321 9.50017C518.051 9.50017 518.767 9.64056 519.469 9.92135C520.171 10.2021 520.803 10.6374 521.364 11.227C521.926 11.8167 522.368 12.5608 522.691 13.4593C523.028 14.3438 523.196 15.3968 523.196 16.6183C523.196 17.8257 523.035 18.8786 522.712 19.7772C522.389 20.6757 521.947 21.4268 521.385 22.0305C520.824 22.6342 520.192 23.0835 519.49 23.3783C518.788 23.6732 518.058 23.8206 517.3 23.8206C516.57 23.8206 515.854 23.6802 515.152 23.3994C514.45 23.1186 513.818 22.6834 513.256 22.0937C512.695 21.5041 512.245 20.767 511.908 19.8825C511.586 18.9839 511.424 17.9239 511.424 16.7025C511.424 15.4951 511.586 14.4421 511.908 13.5436C512.231 12.645 512.674 11.8939 513.235 11.2902C513.797 10.6865 514.429 10.2372 515.131 9.94241C515.833 9.64758 516.563 9.50017 517.321 9.50017ZM517.384 22.915C517.791 22.915 518.163 22.7325 518.5 22.3675C518.837 22.0025 519.104 21.3847 519.3 20.5143C519.511 19.6438 519.616 18.4504 519.616 16.9342C519.616 15.6144 519.525 14.4702 519.342 13.5015C519.174 12.5187 518.914 11.7605 518.563 11.227C518.212 10.6795 517.77 10.4057 517.237 10.4057C516.843 10.4057 516.471 10.5882 516.12 10.9533C515.783 11.3183 515.51 11.936 515.299 12.8065C515.102 13.677 515.004 14.8703 515.004 16.3866C515.004 17.7063 515.088 18.8576 515.257 19.8404C515.439 20.8091 515.706 21.5672 516.057 22.1148C516.408 22.6483 516.85 22.915 517.384 22.915ZM534.826 19.6087H535.31L535.1 23.5047H524.949V23.0203C525.061 22.9642 525.23 22.8659 525.454 22.7255C525.693 22.5851 525.939 22.4237 526.191 22.2411C526.893 21.7357 527.553 21.1601 528.171 20.5143C528.789 19.8684 529.329 19.1805 529.793 18.4504C530.256 17.7204 530.621 16.9903 530.888 16.2603C531.154 15.5302 531.288 14.8352 531.288 14.1754C531.288 13.5436 531.133 13.0101 530.824 12.5748C530.53 12.1396 529.989 11.922 529.203 11.922C528.543 11.922 527.932 12.1045 527.371 12.4695C526.809 12.8346 526.255 13.4032 525.707 14.1754L525.307 13.8384C525.883 12.3783 526.606 11.2902 527.476 10.5742C528.346 9.85818 529.435 9.50017 530.74 9.50017C531.498 9.50017 532.179 9.62652 532.783 9.87924C533.387 10.1179 533.864 10.497 534.215 11.0164C534.58 11.5219 534.763 12.1817 534.763 12.996C534.763 14.4421 534.299 15.7969 533.373 17.0605C532.46 18.3241 531.182 19.5104 529.54 20.6196V20.6617H532.615C533.415 20.6617 533.969 20.5634 534.278 20.3668C534.587 20.1703 534.77 19.9176 534.826 19.6087ZM546.527 18.1345H548.001V20.767H547.116C546.723 20.767 546.527 21.0127 546.527 21.5041C546.527 21.841 546.527 22.1709 546.527 22.4938C546.541 22.8027 546.555 23.1397 546.569 23.5047H543.241C543.27 23.0414 543.291 22.5921 543.305 22.1569C543.319 21.7076 543.333 21.2443 543.347 20.767H536.692V20.2826C537.057 19.9316 537.387 19.5666 537.682 19.1875L544.568 10.5742C544.723 10.3776 544.863 10.1881 544.989 10.0056C545.13 9.80904 545.242 9.64056 545.326 9.50017H546.548L546.527 18.1345ZM543.305 13.7331L539.788 18.1345H543.368V13.7331H543.305ZM565.279 9.50017V13.3962H564.794C564.724 12.7784 564.598 12.2519 564.415 11.8167C564.247 11.3674 563.98 11.0235 563.615 10.7848C563.264 10.5321 562.772 10.4057 562.141 10.4057H561.151C560.856 10.4057 560.624 10.4829 560.456 10.6374C560.301 10.7918 560.224 11.1147 560.224 11.6061V21.3988C560.224 22.0867 560.33 22.5219 560.54 22.7044C560.751 22.887 561.137 22.9923 561.698 23.0203V23.5047H555.696V23.0203C556.104 22.9923 556.398 22.887 556.581 22.7044C556.764 22.5219 556.855 22.0867 556.855 21.3988V11.6061C556.855 10.9182 556.749 10.4829 556.539 10.3004C556.342 10.1039 555.956 9.99857 555.381 9.98453V9.50017H565.279ZM573.715 9.18427C574.712 9.18427 575.639 9.35275 576.495 9.6897C577.352 10.0267 578.11 10.518 578.77 11.1639C579.43 11.7956 579.942 12.5608 580.307 13.4593C580.672 14.3579 580.855 15.3617 580.855 16.4708C580.855 17.58 580.672 18.5838 580.307 19.4823C579.942 20.3809 579.43 21.1531 578.77 21.7989C578.124 22.4447 577.366 22.9431 576.495 23.2941C575.625 23.6451 574.691 23.8206 573.694 23.8206C572.712 23.8206 571.785 23.6521 570.915 23.3152C570.058 22.9782 569.3 22.4938 568.64 21.8621C567.98 21.2162 567.468 20.4441 567.103 19.5455C566.738 18.647 566.555 17.6432 566.555 16.534C566.555 15.4249 566.738 14.4211 567.103 13.5225C567.468 12.624 567.973 11.8518 568.619 11.206C569.279 10.5602 570.044 10.0618 570.915 9.71076C571.785 9.35977 572.719 9.18427 573.715 9.18427ZM574.137 22.915C574.867 22.915 575.442 22.6764 575.864 22.199C576.285 21.7076 576.587 21.0337 576.769 20.1773C576.966 19.3209 577.064 18.3241 577.064 17.1869C577.064 14.8984 576.713 13.1435 576.011 11.922C575.323 10.7006 574.41 10.0898 573.273 10.0898C572.557 10.0898 571.982 10.3285 571.546 10.8059C571.125 11.2832 570.816 11.9571 570.62 12.8276C570.437 13.684 570.346 14.6808 570.346 15.818C570.346 18.1065 570.69 19.8614 571.378 21.0829C572.08 22.3043 572.999 22.915 574.137 22.915ZM589.987 11.1639L593.483 21.3988C593.609 21.7638 593.792 22.1007 594.03 22.4096C594.283 22.7044 594.669 22.908 595.189 23.0203L594.22 27.8219H593.736C593.708 26.9514 593.581 26.1933 593.357 25.5475C593.132 24.9016 592.851 24.3962 592.514 24.0312C592.177 23.6802 591.812 23.5047 591.419 23.5047H585.775C585.256 23.5047 584.743 23.6802 584.238 24.0312C583.746 24.3962 583.325 24.9016 582.974 25.5475C582.637 26.1933 582.42 26.9514 582.321 27.8219H581.837V23.0203C582.09 22.908 582.335 22.7185 582.574 22.4517C582.813 22.1709 583.03 21.855 583.227 21.5041C583.438 21.1531 583.599 20.8231 583.711 20.5143L587.291 11.1639C587.432 10.7988 587.565 10.4408 587.692 10.0898C587.818 9.73884 587.93 9.38083 588.029 9.0158H589.25C589.348 9.38083 589.461 9.73884 589.587 10.0898C589.727 10.4408 589.861 10.7988 589.987 11.1639ZM589.103 22.5991C589.664 22.5991 589.973 22.5079 590.029 22.3254C590.085 22.1429 590.036 21.834 589.882 21.3988L587.418 13.8174H587.376L584.09 22.5991H589.103ZM608.076 21.3988C608.273 21.8761 608.434 22.2271 608.561 22.4517C608.701 22.6764 608.849 22.8238 609.003 22.894C609.158 22.9501 609.347 22.9923 609.572 23.0203V23.5047H603.696V23.0203C604.258 22.9923 604.567 22.8238 604.623 22.5149C604.693 22.206 604.644 21.834 604.475 21.3988L603.422 18.661C603.338 18.7312 603.226 18.7804 603.085 18.8084C602.959 18.8225 602.819 18.8295 602.664 18.8295H600.284C599.99 18.8295 599.765 18.8646 599.611 18.9348C599.456 19.005 599.323 19.1805 599.21 19.4613L598.452 21.3988C598.27 21.8621 598.284 22.2411 598.494 22.536C598.705 22.8308 599.119 22.9923 599.737 23.0203V23.5047H595.904V23.0203C596.213 22.9923 596.473 22.8378 596.683 22.557C596.908 22.2622 597.112 21.8761 597.294 21.3988L601.337 11.1639C601.492 10.7988 601.625 10.4408 601.738 10.0898C601.864 9.73884 601.976 9.38083 602.075 9.0158H603.296C603.394 9.38083 603.507 9.73884 603.633 10.0898C603.759 10.4408 603.893 10.7988 604.033 11.1639L608.076 21.3988ZM602.559 17.9239C602.755 17.9239 602.882 17.8959 602.938 17.8397C603.008 17.7695 603.001 17.6291 602.917 17.4185L601.464 13.8174H601.422L599.779 18.0082C599.849 17.9661 599.933 17.945 600.032 17.945C600.13 17.931 600.242 17.9239 600.369 17.9239H602.559Z" fill="black"/>
<path d="M630.966 14.6038C628.866 13.7655 626.403 14.2126 624.724 15.8892C622.457 18.1526 622.457 21.8132 624.724 24.0766C626.403 25.7532 628.866 26.2003 630.966 25.362V22.6795C630.546 22.8751 630.098 22.9868 629.622 22.9868C627.943 22.9868 626.599 21.6455 626.599 19.9689C626.599 18.2923 627.943 16.951 629.622 16.951C630.098 16.951 630.574 17.0628 630.966 17.2584V14.6038Z" fill="black"/>
<path d="M630.026 11.9155C630.852 11.0866 630.852 9.71453 630.026 8.857C629.199 8.02805 627.83 8.02805 626.975 8.857C626.119 9.68595 626.148 11.058 626.975 11.9155C627.83 12.7445 629.199 12.7445 630.026 11.9155Z" fill="black"/>
<path d="M654.049 19.6087H654.533L654.323 23.5047H644.172V23.0203C644.285 22.9642 644.453 22.8659 644.678 22.7255C644.916 22.5851 645.162 22.4237 645.415 22.2411C646.117 21.7357 646.777 21.1601 647.394 20.5143C648.012 19.8684 648.553 19.1805 649.016 18.4504C649.479 17.7204 649.844 16.9903 650.111 16.2603C650.378 15.5302 650.511 14.8352 650.511 14.1754C650.511 13.5436 650.357 13.0101 650.048 12.5748C649.753 12.1396 649.212 11.922 648.426 11.922C647.766 11.922 647.156 12.1045 646.594 12.4695C646.032 12.8346 645.478 13.4032 644.93 14.1754L644.53 13.8384C645.106 12.3783 645.829 11.2902 646.699 10.5742C647.57 9.85818 648.658 9.50017 649.964 9.50017C650.722 9.50017 651.403 9.62652 652.006 9.87924C652.61 10.1179 653.087 10.497 653.438 11.0164C653.803 11.5219 653.986 12.1817 653.986 12.996C653.986 14.4421 653.523 15.7969 652.596 17.0605C651.683 18.3241 650.406 19.5104 648.763 20.6196V20.6617H651.838C652.638 20.6617 653.193 20.5634 653.502 20.3668C653.81 20.1703 653.993 19.9176 654.049 19.6087ZM663.012 9.50017C663.742 9.50017 664.458 9.64056 665.16 9.92135C665.862 10.2021 666.494 10.6374 667.056 11.227C667.617 11.8167 668.06 12.5608 668.383 13.4593C668.719 14.3438 668.888 15.3968 668.888 16.6183C668.888 17.8257 668.726 18.8786 668.404 19.7772C668.081 20.6757 667.638 21.4268 667.077 22.0305C666.515 22.6342 665.883 23.0835 665.181 23.3783C664.48 23.6732 663.749 23.8206 662.991 23.8206C662.261 23.8206 661.545 23.6802 660.843 23.3994C660.141 23.1186 659.509 22.6834 658.948 22.0937C658.386 21.5041 657.937 20.767 657.6 19.8825C657.277 18.9839 657.116 17.9239 657.116 16.7025C657.116 15.4951 657.277 14.4421 657.6 13.5436C657.923 12.645 658.365 11.8939 658.927 11.2902C659.488 10.6865 660.12 10.2372 660.822 9.94241C661.524 9.64758 662.254 9.50017 663.012 9.50017ZM663.076 22.915C663.483 22.915 663.855 22.7325 664.192 22.3675C664.529 22.0025 664.795 21.3847 664.992 20.5143C665.203 19.6438 665.308 18.4504 665.308 16.9342C665.308 15.6144 665.217 14.4702 665.034 13.5015C664.866 12.5187 664.606 11.7605 664.255 11.227C663.904 10.6795 663.462 10.4057 662.928 10.4057C662.535 10.4057 662.163 10.5882 661.812 10.9533C661.475 11.3183 661.201 11.936 660.991 12.8065C660.794 13.677 660.696 14.8703 660.696 16.3866C660.696 17.7063 660.78 18.8576 660.949 19.8404C661.131 20.8091 661.398 21.5672 661.749 22.1148C662.1 22.6483 662.542 22.915 663.076 22.915ZM683.182 17.1447L676.654 17.7134L676.506 16.0075L683.035 15.4389L683.182 17.1447ZM699.479 19.6087H699.963L699.753 23.5047H689.602V23.0203C689.715 22.9642 689.883 22.8659 690.108 22.7255C690.346 22.5851 690.592 22.4237 690.845 22.2411C691.547 21.7357 692.207 21.1601 692.824 20.5143C693.442 19.8684 693.983 19.1805 694.446 18.4504C694.909 17.7204 695.274 16.9903 695.541 16.2603C695.808 15.5302 695.941 14.8352 695.941 14.1754C695.941 13.5436 695.787 13.0101 695.478 12.5748C695.183 12.1396 694.642 11.922 693.856 11.922C693.196 11.922 692.586 12.1045 692.024 12.4695C691.462 12.8346 690.908 13.4032 690.36 14.1754L689.96 13.8384C690.536 12.3783 691.259 11.2902 692.129 10.5742C693 9.85818 694.088 9.50017 695.394 9.50017C696.152 9.50017 696.833 9.62652 697.436 9.87924C698.04 10.1179 698.517 10.497 698.868 11.0164C699.233 11.5219 699.416 12.1817 699.416 12.996C699.416 14.4421 698.953 15.7969 698.026 17.0605C697.113 18.3241 695.836 19.5104 694.193 20.6196V20.6617H697.268C698.068 20.6617 698.623 20.5634 698.932 20.3668C699.24 20.1703 699.423 19.9176 699.479 19.6087ZM708.084 21.1882C708.084 21.7076 708.126 22.1007 708.211 22.3675C708.309 22.6202 708.506 22.7887 708.8 22.8729C709.109 22.9572 709.573 23.0063 710.19 23.0203V23.5047H702.398V23.0203C703.03 23.0063 703.493 22.9572 703.788 22.8729C704.097 22.7887 704.294 22.6202 704.378 22.3675C704.462 22.1007 704.504 21.7076 704.504 21.1882V12.0273L702.567 13.2277L702.125 12.5538L707.01 9.50017H708.232C708.176 9.76692 708.133 10.0337 708.105 10.3004C708.091 10.5672 708.084 10.8339 708.084 11.1007V21.1882ZM717.717 23.5047V23.0203C718.125 22.9923 718.419 22.887 718.602 22.7044C718.784 22.5219 718.876 22.0867 718.876 21.3988V11.6061C718.876 10.9182 718.77 10.4829 718.56 10.3004C718.363 10.1039 717.977 9.99857 717.402 9.98453V9.50017H723.403V9.98453C722.996 9.99857 722.701 10.1039 722.519 10.3004C722.336 10.4829 722.245 10.9182 722.245 11.6061V15.3336C722.358 15.2494 722.491 15.1932 722.645 15.1652C722.814 15.1371 723.01 15.123 723.235 15.123H727.215C727.594 15.123 727.861 15.0599 728.015 14.9335C728.17 14.8071 728.247 14.5544 728.247 14.1754V11.6061C728.247 10.9182 728.142 10.4829 727.931 10.3004C727.735 10.1039 727.349 9.99857 726.773 9.98453V9.50017H732.775V9.98453C732.368 9.99857 732.073 10.1039 731.89 10.3004C731.708 10.4829 731.617 10.9182 731.617 11.6061V21.3988C731.617 22.0867 731.722 22.5219 731.933 22.7044C732.143 22.887 732.529 22.9923 733.091 23.0203V23.5047H727.089V23.0203C727.496 22.9923 727.791 22.887 727.973 22.7044C728.156 22.5219 728.247 22.0867 728.247 21.3988V15.7969C728.135 15.8952 727.994 15.9584 727.826 15.9865C727.657 16.0146 727.468 16.0286 727.257 16.0286H723.277C722.898 16.0286 722.631 16.0918 722.477 16.2181C722.322 16.3445 722.245 16.5902 722.245 16.9552V21.3988C722.245 22.0867 722.35 22.5219 722.561 22.7044C722.772 22.887 723.158 22.9923 723.719 23.0203V23.5047H717.717ZM742.379 9.18427C743.376 9.18427 744.303 9.35275 745.159 9.6897C746.015 10.0267 746.774 10.518 747.433 11.1639C748.093 11.7956 748.606 12.5608 748.971 13.4593C749.336 14.3579 749.518 15.3617 749.518 16.4708C749.518 17.58 749.336 18.5838 748.971 19.4823C748.606 20.3809 748.093 21.1531 747.433 21.7989C746.788 22.4447 746.029 22.9431 745.159 23.2941C744.289 23.6451 743.355 23.8206 742.358 23.8206C741.375 23.8206 740.449 23.6521 739.578 23.3152C738.722 22.9782 737.964 22.4938 737.304 21.8621C736.644 21.2162 736.132 20.4441 735.767 19.5455C735.401 18.647 735.219 17.6432 735.219 16.534C735.219 15.4249 735.401 14.4211 735.767 13.5225C736.132 12.624 736.637 11.8518 737.283 11.206C737.943 10.5602 738.708 10.0618 739.578 9.71076C740.449 9.35977 741.382 9.18427 742.379 9.18427ZM742.8 22.915C743.53 22.915 744.106 22.6764 744.527 22.199C744.948 21.7076 745.25 21.0337 745.433 20.1773C745.629 19.3209 745.728 18.3241 745.728 17.1869C745.728 14.8984 745.377 13.1435 744.675 11.922C743.987 10.7006 743.074 10.0898 741.937 10.0898C741.221 10.0898 740.645 10.3285 740.21 10.8059C739.789 11.2832 739.48 11.9571 739.283 12.8276C739.101 13.684 739.01 14.6808 739.01 15.818C739.01 18.1065 739.354 19.8614 740.042 21.0829C740.744 22.3043 741.663 22.915 742.8 22.915ZM751.912 23.8206C751.561 23.8206 751.189 23.7925 750.796 23.7364C750.402 23.6802 750.065 23.603 749.785 23.5047V23.0203C750.065 23.0203 750.381 22.908 750.732 22.6834C751.083 22.4587 751.441 22.0095 751.806 21.3356L754.818 15.8812C753.877 15.6425 753.161 15.2564 752.67 14.7229C752.193 14.1894 751.954 13.5436 751.954 12.7854C751.954 12.1958 752.129 11.6412 752.48 11.1217C752.845 10.6023 753.435 10.1881 754.249 9.87924C755.078 9.55632 756.187 9.39487 757.577 9.39487C758.026 9.39487 758.545 9.41593 759.135 9.45805C759.725 9.48613 760.378 9.50017 761.094 9.50017H763.789V9.98453C763.382 9.99857 763.087 10.1039 762.905 10.3004C762.722 10.4829 762.631 10.9182 762.631 11.6061V21.3988C762.631 22.0867 762.736 22.5219 762.947 22.7044C763.157 22.887 763.544 22.9923 764.105 23.0203V23.5047H758.103V23.0203C758.51 22.9923 758.805 22.887 758.988 22.7044C759.17 22.5219 759.261 22.0867 759.261 21.3988V11.6061C759.261 11.0586 759.163 10.7076 758.967 10.5531C758.784 10.3847 758.461 10.3004 757.998 10.3004C757.394 10.3004 756.847 10.518 756.355 10.9533C755.878 11.3745 755.639 12.0133 755.639 12.8697C755.639 13.3189 755.73 13.7542 755.913 14.1754C756.096 14.5825 756.418 14.9265 756.882 15.2073C757.359 15.4881 758.012 15.6565 758.84 15.7127V16.4498C758.672 16.4498 758.524 16.4849 758.398 16.5551C758.272 16.6112 758.145 16.7587 758.019 16.9973L755.639 21.5883C755.316 22.206 754.867 22.7325 754.291 23.1678C753.716 23.603 752.923 23.8206 751.912 23.8206ZM770.76 15.0809H772.803C774.333 15.0809 775.541 15.2494 776.425 15.5863C777.31 15.9233 777.934 16.3866 778.299 16.9763C778.678 17.5659 778.868 18.2469 778.868 19.019C778.868 19.7912 778.657 20.5213 778.236 21.2092C777.829 21.8831 777.19 22.4377 776.32 22.8729C775.463 23.2941 774.368 23.5047 773.035 23.5047L766.232 23.5047V23.0203C766.639 22.9923 766.934 22.887 767.117 22.7044C767.299 22.5219 767.391 22.0867 767.391 21.3988V11.6061C767.391 10.9182 767.285 10.4829 767.075 10.3004C766.878 10.1039 766.492 9.99857 765.916 9.98453V9.50017H777.499V12.975H777.015C776.973 12.4976 776.881 12.0694 776.741 11.6903C776.601 11.2972 776.362 10.9884 776.025 10.7637C775.688 10.5251 775.204 10.4057 774.572 10.4057H771.687C771.392 10.4057 771.16 10.4829 770.992 10.6374C770.837 10.7918 770.76 11.1147 770.76 11.6061V15.0809ZM772.003 22.5991C772.747 22.5991 773.357 22.4237 773.835 22.0727C774.326 21.7076 774.691 21.2584 774.93 20.7249C775.169 20.1913 775.288 19.6649 775.288 19.1454C775.288 18.3732 775.14 17.7555 774.846 17.2922C774.565 16.8289 774.179 16.4989 773.687 16.3024C773.21 16.0918 772.669 15.9865 772.066 15.9865H770.76V21.3988C770.76 21.8901 770.837 22.2131 770.992 22.3675C771.146 22.5219 771.483 22.5991 772.003 22.5991ZM781.101 23.5047V23.0203C781.509 22.9923 781.803 22.887 781.986 22.7044C782.168 22.5219 782.26 22.0867 782.26 21.3988V11.6061C782.26 10.9182 782.154 10.4829 781.944 10.3004C781.747 10.1039 781.361 9.99857 780.786 9.98453V9.50017H782.26C783.285 9.50017 784.246 9.48613 785.145 9.45805C786.043 9.41593 786.717 9.39487 787.167 9.39487C788.627 9.39487 789.778 9.55632 790.62 9.87924C791.477 10.2021 792.087 10.6304 792.452 11.1639C792.832 11.6833 793.021 12.259 793.021 12.8907C793.021 13.6208 792.782 14.3158 792.305 14.9756C791.842 15.6355 791.098 16.1479 790.073 16.513C789.062 16.864 787.721 16.9763 786.05 16.8499V16.1128C786.809 16.1409 787.433 16.0075 787.925 15.7127C788.416 15.4038 788.774 14.9967 788.999 14.4913C789.237 13.9858 789.357 13.4453 789.357 12.8697C789.357 12.0975 789.139 11.4798 788.704 11.0164C788.269 10.5391 787.665 10.3004 786.893 10.3004C786.429 10.3004 786.1 10.3847 785.903 10.5531C785.72 10.7076 785.629 11.0586 785.629 11.6061V21.3988C785.629 21.848 785.671 22.192 785.756 22.4307C785.854 22.6553 786.022 22.8097 786.261 22.894C786.514 22.9642 786.865 23.0063 787.314 23.0203V23.5047H781.101ZM795.244 23.8206C794.893 23.8206 794.521 23.7925 794.128 23.7364C793.735 23.6802 793.398 23.603 793.117 23.5047V23.0203C793.398 23.0203 793.714 22.908 794.065 22.6834C794.416 22.4587 794.774 22.0095 795.139 21.3356L798.15 15.8812C797.21 15.6425 796.494 15.2564 796.002 14.7229C795.525 14.1894 795.286 13.5436 795.286 12.7854C795.286 12.1958 795.462 11.6412 795.813 11.1217C796.178 10.6023 796.767 10.1881 797.582 9.87924C798.41 9.55632 799.519 9.39487 800.909 9.39487C801.358 9.39487 801.878 9.41593 802.467 9.45805C803.057 9.48613 803.71 9.50017 804.426 9.50017H807.122V9.98453C806.714 9.99857 806.42 10.1039 806.237 10.3004C806.055 10.4829 805.963 10.9182 805.963 11.6061V21.3988C805.963 22.0867 806.069 22.5219 806.279 22.7044C806.49 22.887 806.876 22.9923 807.437 23.0203V23.5047H801.435V23.0203C801.843 22.9923 802.137 22.887 802.32 22.7044C802.502 22.5219 802.594 22.0867 802.594 21.3988V11.6061C802.594 11.0586 802.495 10.7076 802.299 10.5531C802.116 10.3847 801.793 10.3004 801.33 10.3004C800.726 10.3004 800.179 10.518 799.688 10.9533C799.21 11.3745 798.972 12.0133 798.972 12.8697C798.972 13.3189 799.063 13.7542 799.245 14.1754C799.428 14.5825 799.751 14.9265 800.214 15.2073C800.691 15.4881 801.344 15.6565 802.173 15.7127V16.4498C802.004 16.4498 801.857 16.4849 801.73 16.5551C801.604 16.6112 801.478 16.7587 801.351 16.9973L798.972 21.5883C798.649 22.206 798.199 22.7325 797.624 23.1678C797.048 23.603 796.255 23.8206 795.244 23.8206ZM824.17 19.6087H824.654L824.444 23.5047H814.293V23.0203C814.405 22.9642 814.574 22.8659 814.799 22.7255C815.037 22.5851 815.283 22.4237 815.536 22.2411C816.238 21.7357 816.897 21.1601 817.515 20.5143C818.133 19.8684 818.673 19.1805 819.137 18.4504C819.6 17.7204 819.965 16.9903 820.232 16.2603C820.499 15.5302 820.632 14.8352 820.632 14.1754C820.632 13.5436 820.478 13.0101 820.169 12.5748C819.874 12.1396 819.333 11.922 818.547 11.922C817.887 11.922 817.277 12.1045 816.715 12.4695C816.153 12.8346 815.599 13.4032 815.051 14.1754L814.651 13.8384C815.227 12.3783 815.95 11.2902 816.82 10.5742C817.691 9.85818 818.779 9.50017 820.084 9.50017C820.843 9.50017 821.524 9.62652 822.127 9.87924C822.731 10.1179 823.208 10.497 823.559 11.0164C823.924 11.5219 824.107 12.1817 824.107 12.996C824.107 14.4421 823.643 15.7969 822.717 17.0605C821.804 18.3241 820.527 19.5104 818.884 20.6196V20.6617H821.959C822.759 20.6617 823.314 20.5634 823.622 20.3668C823.931 20.1703 824.114 19.9176 824.17 19.6087ZM833.133 9.50017C833.863 9.50017 834.579 9.64056 835.281 9.92135C835.983 10.2021 836.615 10.6374 837.177 11.227C837.738 11.8167 838.18 12.5608 838.503 13.4593C838.84 14.3438 839.009 15.3968 839.009 16.6183C839.009 17.8257 838.847 18.8786 838.524 19.7772C838.202 20.6757 837.759 21.4268 837.198 22.0305C836.636 22.6342 836.004 23.0835 835.302 23.3783C834.6 23.6732 833.87 23.8206 833.112 23.8206C832.382 23.8206 831.666 23.6802 830.964 23.3994C830.262 23.1186 829.63 22.6834 829.069 22.0937C828.507 21.5041 828.058 20.767 827.721 19.8825C827.398 18.9839 827.237 17.9239 827.237 16.7025C827.237 15.4951 827.398 14.4421 827.721 13.5436C828.044 12.645 828.486 11.8939 829.048 11.2902C829.609 10.6865 830.241 10.2372 830.943 9.94241C831.645 9.64758 832.375 9.50017 833.133 9.50017ZM833.196 22.915C833.604 22.915 833.976 22.7325 834.313 22.3675C834.65 22.0025 834.916 21.3847 835.113 20.5143C835.323 19.6438 835.429 18.4504 835.429 16.9342C835.429 15.6144 835.337 14.4702 835.155 13.5015C834.986 12.5187 834.727 11.7605 834.376 11.227C834.025 10.6795 833.583 10.4057 833.049 10.4057C832.656 10.4057 832.284 10.5882 831.933 10.9533C831.596 11.3183 831.322 11.936 831.112 12.8065C830.915 13.677 830.817 14.8703 830.817 16.3866C830.817 17.7063 830.901 18.8576 831.069 19.8404C831.252 20.8091 831.519 21.5672 831.87 22.1148C832.221 22.6483 832.663 22.915 833.196 22.915ZM850.638 19.6087H851.123L850.912 23.5047H840.761V23.0203C840.874 22.9642 841.042 22.8659 841.267 22.7255C841.505 22.5851 841.751 22.4237 842.004 22.2411C842.706 21.7357 843.366 21.1601 843.983 20.5143C844.601 19.8684 845.142 19.1805 845.605 18.4504C846.068 17.7204 846.433 16.9903 846.7 16.2603C846.967 15.5302 847.1 14.8352 847.1 14.1754C847.1 13.5436 846.946 13.0101 846.637 12.5748C846.342 12.1396 845.802 11.922 845.015 11.922C844.356 11.922 843.745 12.1045 843.183 12.4695C842.622 12.8346 842.067 13.4032 841.52 14.1754L841.119 13.8384C841.695 12.3783 842.418 11.2902 843.289 10.5742C844.159 9.85818 845.247 9.50017 846.553 9.50017C847.311 9.50017 847.992 9.62652 848.595 9.87924C849.199 10.1179 849.677 10.497 850.028 11.0164C850.393 11.5219 850.575 12.1817 850.575 12.996C850.575 14.4421 850.112 15.7969 849.185 17.0605C848.273 18.3241 846.995 19.5104 845.352 20.6196V20.6617H848.427C849.227 20.6617 849.782 20.5634 850.091 20.3668C850.4 20.1703 850.582 19.9176 850.638 19.6087ZM862.339 18.1345H863.813V20.767H862.929C862.536 20.767 862.339 21.0127 862.339 21.5041C862.339 21.841 862.339 22.1709 862.339 22.4938C862.353 22.8027 862.367 23.1397 862.381 23.5047H859.054C859.082 23.0414 859.103 22.5921 859.117 22.1569C859.131 21.7076 859.145 21.2443 859.159 20.767H852.504V20.2826C852.87 19.9316 853.199 19.5666 853.494 19.1875L860.381 10.5742C860.535 10.3776 860.676 10.1881 860.802 10.0056C860.942 9.80904 861.055 9.64056 861.139 9.50017H862.36L862.339 18.1345ZM859.117 13.7331L855.6 18.1345H859.18V13.7331H859.117ZM881.091 9.50017V13.3962H880.607C880.536 12.7784 880.41 12.2519 880.228 11.8167C880.059 11.3674 879.792 11.0235 879.427 10.7848C879.076 10.5321 878.585 10.4057 877.953 10.4057H876.963C876.669 10.4057 876.437 10.4829 876.268 10.6374C876.114 10.7918 876.037 11.1147 876.037 11.6061V21.3988C876.037 22.0867 876.142 22.5219 876.353 22.7044C876.563 22.887 876.949 22.9923 877.511 23.0203V23.5047H871.509V23.0203C871.916 22.9923 872.211 22.887 872.393 22.7044C872.576 22.5219 872.667 22.0867 872.667 21.3988V11.6061C872.667 10.9182 872.562 10.4829 872.351 10.3004C872.155 10.1039 871.769 9.99857 871.193 9.98453V9.50017H881.091ZM889.528 9.18427C890.525 9.18427 891.451 9.35275 892.308 9.6897C893.164 10.0267 893.922 10.518 894.582 11.1639C895.242 11.7956 895.755 12.5608 896.12 13.4593C896.485 14.3579 896.667 15.3617 896.667 16.4708C896.667 17.58 896.485 18.5838 896.12 19.4823C895.755 20.3809 895.242 21.1531 894.582 21.7989C893.936 22.4447 893.178 22.9431 892.308 23.2941C891.437 23.6451 890.504 23.8206 889.507 23.8206C888.524 23.8206 887.598 23.6521 886.727 23.3152C885.871 22.9782 885.113 22.4938 884.453 21.8621C883.793 21.2162 883.28 20.4441 882.915 19.5455C882.55 18.647 882.368 17.6432 882.368 16.534C882.368 15.4249 882.55 14.4211 882.915 13.5225C883.28 12.624 883.786 11.8518 884.432 11.206C885.091 10.5602 885.857 10.0618 886.727 9.71076C887.598 9.35977 888.531 9.18427 889.528 9.18427ZM889.949 22.915C890.679 22.915 891.255 22.6764 891.676 22.199C892.097 21.7076 892.399 21.0337 892.582 20.1773C892.778 19.3209 892.876 18.3241 892.876 17.1869C892.876 14.8984 892.525 13.1435 891.823 11.922C891.136 10.7006 890.223 10.0898 889.086 10.0898C888.37 10.0898 887.794 10.3285 887.359 10.8059C886.938 11.2832 886.629 11.9571 886.432 12.8276C886.25 13.684 886.158 14.6808 886.158 15.818C886.158 18.1065 886.502 19.8614 887.19 21.0829C887.892 22.3043 888.812 22.915 889.949 22.915ZM905.8 11.1639L909.295 21.3988C909.422 21.7638 909.604 22.1007 909.843 22.4096C910.096 22.7044 910.482 22.908 911.001 23.0203L910.032 27.8219H909.548C909.52 26.9514 909.394 26.1933 909.169 25.5475C908.944 24.9016 908.664 24.3962 908.327 24.0312C907.99 23.6802 907.625 23.5047 907.232 23.5047H901.588C901.068 23.5047 900.556 23.6802 900.05 24.0312C899.559 24.3962 899.138 24.9016 898.787 25.5475C898.45 26.1933 898.232 26.9514 898.134 27.8219H897.65V23.0203C897.902 22.908 898.148 22.7185 898.387 22.4517C898.625 22.1709 898.843 21.855 899.039 21.5041C899.25 21.1531 899.412 20.8231 899.524 20.5143L903.104 11.1639C903.244 10.7988 903.378 10.4408 903.504 10.0898C903.63 9.73884 903.743 9.38083 903.841 9.0158H905.062C905.161 9.38083 905.273 9.73884 905.399 10.0898C905.54 10.4408 905.673 10.7988 905.8 11.1639ZM904.915 22.5991C905.477 22.5991 905.786 22.5079 905.842 22.3254C905.898 22.1429 905.849 21.834 905.694 21.3988L903.23 13.8174H903.188L899.903 22.5991H904.915ZM923.889 21.3988C924.086 21.8761 924.247 22.2271 924.373 22.4517C924.514 22.6764 924.661 22.8238 924.816 22.894C924.97 22.9501 925.16 22.9923 925.384 23.0203V23.5047H919.509V23.0203C920.07 22.9923 920.379 22.8238 920.435 22.5149C920.505 22.206 920.456 21.834 920.288 21.3988L919.235 18.661C919.151 18.7312 919.038 18.7804 918.898 18.8084C918.772 18.8225 918.631 18.8295 918.477 18.8295H916.097C915.802 18.8295 915.577 18.8646 915.423 18.9348C915.269 19.005 915.135 19.1805 915.023 19.4613L914.265 21.3988C914.082 21.8621 914.096 22.2411 914.307 22.536C914.518 22.8308 914.932 22.9923 915.549 23.0203V23.5047H911.717V23.0203C912.025 22.9923 912.285 22.8378 912.496 22.557C912.72 22.2622 912.924 21.8761 913.107 21.3988L917.15 11.1639C917.304 10.7988 917.438 10.4408 917.55 10.0898C917.676 9.73884 917.789 9.38083 917.887 9.0158H919.108C919.207 9.38083 919.319 9.73884 919.445 10.0898C919.572 10.4408 919.705 10.7988 919.846 11.1639L923.889 21.3988ZM918.371 17.9239C918.568 17.9239 918.694 17.8959 918.75 17.8397C918.821 17.7695 918.814 17.6291 918.729 17.4185L917.276 13.8174H917.234L915.592 18.0082C915.662 17.9661 915.746 17.945 915.844 17.945C915.943 17.931 916.055 17.9239 916.181 17.9239H918.371Z" fill="black"/>
<defs>
<linearGradient id="paint0_linear_614_2569" x1="0" y1="17" x2="937.698" y2="17" gradientUnits="userSpaceOnUse">
<stop stop-color="#FA0056"/>
<stop offset="0.375" stop-color="#F33174"/>
<stop offset="0.67" stop-color="#FA0056"/>
<stop offset="0.975" stop-color="#F33174"/>
</linearGradient>
</defs>
</svg>
