<svg width="1894" height="60" viewBox="0 0 1894 60" fill="none" xmlns="http://www.w3.org/2000/svg">
<rect width="1893.59" height="60" transform="translate(0.257812)" fill="url(#paint0_linear_599_2531)"/>
<path d="M29.0641 41V40.2322C29.7095 40.1877 30.1768 40.0208 30.4662 39.7314C30.7555 39.4421 30.9001 38.7522 30.9001 37.6617V22.1386C30.9001 21.048 30.7332 20.3581 30.3994 20.0688C30.0878 19.7572 29.4758 19.5903 28.5633 19.5681V18.8002H38.0775V19.5681C37.4321 19.5903 36.9647 19.7572 36.6754 20.0688C36.3861 20.3581 36.2414 21.048 36.2414 22.1386V37.6617C36.2414 38.7522 36.4084 39.4421 36.7422 39.7314C37.076 40.0208 37.688 40.1877 38.5783 40.2322V41H29.0641ZM61.6955 41.2671C61.3617 40.911 61.0167 40.566 60.6606 40.2322C60.3046 39.8761 59.737 39.3531 58.9581 38.6632L45.8052 26.6453H45.7384V37.6617C45.7384 38.4184 45.9276 39.0304 46.3059 39.4978C46.7065 39.9429 47.3853 40.1877 48.3423 40.2322V41H42.1664V40.2322C42.8118 40.1877 43.2792 39.9429 43.5685 39.4978C43.8578 39.0304 44.0025 38.4184 44.0025 37.6617V22.1386C44.0025 21.048 43.8356 20.3581 43.5017 20.0688C43.1902 19.7572 42.5781 19.5903 41.6657 19.5681V18.8002H45.6716C46.0055 19.2231 46.3616 19.6014 46.7399 19.9353C47.1182 20.2691 47.5522 20.6697 48.0418 21.1371L61.3283 33.155H61.3951V22.1386C61.3951 21.3819 61.2059 20.7698 60.8276 20.3025C60.4492 19.8351 59.7704 19.5903 58.7912 19.5681V18.8002H64.9671V19.5681C64.3217 19.5903 63.8543 19.8351 63.565 20.3025C63.2757 20.7698 63.131 21.3819 63.131 22.1386V37.6617C63.131 38.2848 63.131 38.8857 63.131 39.4644C63.1533 40.0208 63.1755 40.6217 63.1978 41.2671H61.6955ZM67.6072 18.8002L86.6356 18.8002V24.3085H85.8677C85.7342 23.1067 85.3781 22.1274 84.7995 21.3707C84.2208 20.6141 83.2305 20.2357 81.8284 20.2357H79.792V37.6617C79.792 38.7522 79.9589 39.4421 80.2928 39.7314C80.6266 40.0208 81.2386 40.1877 82.1288 40.2322V41H72.6147V40.2322C73.2601 40.1877 73.7274 40.0208 74.0167 39.7314C74.3061 39.4421 74.4507 38.7522 74.4507 37.6617V20.2357H72.381C71.0234 20.2357 70.0442 20.6141 69.4433 21.3707C68.8646 22.1274 68.5085 23.1067 68.375 24.3085H67.6072V18.8002ZM89.6648 41V40.2322C90.3102 40.1877 90.7776 40.0208 91.0669 39.7314C91.3562 39.4421 91.5009 38.7522 91.5009 37.6617V22.1386C91.5009 21.048 91.334 20.3581 91.0001 20.0688C90.6886 19.7572 90.0765 19.5903 89.1641 19.5681V18.8002H105.555V23.4739H104.787C104.743 22.5169 104.409 21.738 103.786 21.1371C103.185 20.5362 102.25 20.2357 100.982 20.2357H98.311C97.8437 20.2357 97.4765 20.3581 97.2094 20.6029C96.9646 20.8477 96.8422 21.3596 96.8422 22.1386V28.715C97.0202 28.5815 97.2316 28.4925 97.4765 28.448C97.7435 28.4034 98.0551 28.3812 98.4112 28.3812H101.649C102.317 28.3812 102.873 28.192 103.318 27.8137C103.764 27.4353 103.997 26.9123 104.02 26.2447H104.787V31.9198H104.02C103.997 31.0963 103.764 30.54 103.318 30.2506C102.873 29.9613 102.317 29.8167 101.649 29.8167H98.478C97.8771 29.8167 97.4542 29.9168 97.2094 30.1171C96.9646 30.3174 96.8422 30.7069 96.8422 31.2855V37.6617C96.8422 38.4406 97.0091 38.9525 97.3429 39.1973C97.699 39.4421 98.3778 39.5645 99.3793 39.5645H102.551C103.886 39.5645 104.943 39.1639 105.722 38.3627C106.501 37.5615 106.935 36.6046 107.024 35.4918H107.792L107.525 41H89.6648ZM130.188 41.5007C129.186 41.5007 128.33 41.3338 127.617 41C126.905 40.6884 126.304 40.2656 125.815 39.7314C125.325 39.1973 124.869 38.6075 124.446 37.9621L119.772 30.6846C119.55 30.3063 119.35 30.0726 119.172 29.9836C118.994 29.8946 118.782 29.8389 118.537 29.8167V28.6483C119.873 28.5592 120.907 28.2922 121.642 27.8471C122.376 27.402 122.888 26.8567 123.178 26.2113C123.467 25.5436 123.612 24.8537 123.612 24.1415C123.612 22.784 123.233 21.7713 122.476 21.1037C121.72 20.4138 120.852 20.0688 119.873 20.0688C119.138 20.0688 118.615 20.2023 118.304 20.4694C118.014 20.7142 117.87 21.2706 117.87 22.1386V37.6617C117.87 38.7522 118.037 39.4421 118.37 39.7314C118.704 40.0208 119.316 40.1877 120.206 40.2322V41H110.692V40.2322C111.338 40.1877 111.805 40.0208 112.094 39.7314C112.384 39.4421 112.528 38.7522 112.528 37.6617V22.1386C112.528 21.048 112.361 20.3581 112.028 20.0688C111.716 19.7572 111.104 19.5903 110.192 19.5681V18.8002H112.528C114.197 18.8002 115.711 18.778 117.068 18.7335C118.426 18.6667 119.583 18.6333 120.54 18.6333C122.744 18.6333 124.491 18.8448 125.781 19.2676C127.094 19.6682 128.029 20.2357 128.586 20.9701C129.164 21.7046 129.454 22.5391 129.454 23.4739C129.454 24.3641 129.231 25.1764 128.786 25.9108C128.363 26.6453 127.796 27.2684 127.083 27.7803C126.393 28.2699 125.637 28.6149 124.813 28.8152V28.8819L130.355 37.5615C131 38.5853 131.59 39.2863 132.124 39.6647C132.658 40.043 133.137 40.2322 133.56 40.2322V41C133.115 41.1558 132.58 41.2782 131.957 41.3672C131.356 41.4562 130.767 41.5007 130.188 41.5007ZM145.954 41.5007C143.617 41.5007 141.547 41.0334 139.744 40.0987C137.942 39.1639 136.529 37.8509 135.505 36.1595C134.481 34.4458 133.969 32.4651 133.969 30.2173C133.969 28.3701 134.303 26.7232 134.971 25.2766C135.638 23.8077 136.551 22.5503 137.708 21.5043C138.888 20.4583 140.234 19.6682 141.747 19.1341C143.283 18.5777 144.919 18.2995 146.655 18.2995C147.968 18.2995 149.225 18.4219 150.427 18.6667C151.629 18.9115 152.586 19.2008 153.298 19.5347V24.8092H152.53C152.085 23.4516 151.551 22.4167 150.928 21.7046C150.305 20.9701 149.604 20.4583 148.825 20.169C148.068 19.8796 147.267 19.735 146.421 19.735C142.126 19.735 139.978 22.8507 139.978 29.0822C139.978 31.1297 140.19 32.9881 140.612 34.6572C141.057 36.3264 141.736 37.6506 142.649 38.6298C143.583 39.5868 144.774 40.0653 146.221 40.0653C147.4 40.0653 148.469 39.776 149.426 39.1973C150.382 38.5964 151.195 37.8064 151.862 36.8271C152.552 35.8479 153.042 34.7907 153.331 33.6557H154.099L153.832 38.7299C153.098 39.5311 152.063 40.1988 150.727 40.7329C149.392 41.2448 147.801 41.5007 145.954 41.5007ZM168.238 18.2995C169.818 18.2995 171.287 18.5666 172.644 19.1007C174.002 19.6348 175.204 20.4138 176.25 21.4375C177.296 22.439 178.108 23.6519 178.687 25.0763C179.265 26.5006 179.555 28.0919 179.555 29.85C179.555 31.6082 179.265 33.1995 178.687 34.6238C178.108 36.0482 177.296 37.2722 176.25 38.296C175.226 39.3197 174.024 40.1098 172.644 40.6662C171.264 41.2226 169.784 41.5007 168.204 41.5007C166.646 41.5007 165.178 41.2337 163.798 40.6996C162.44 40.1654 161.238 39.3976 160.192 38.3961C159.146 37.3724 158.334 36.1483 157.755 34.724C157.177 33.2996 156.887 31.7084 156.887 29.9502C156.887 28.192 157.177 26.6008 157.755 25.1764C158.334 23.7521 159.135 22.528 160.159 21.5043C161.205 20.4805 162.418 19.6905 163.798 19.1341C165.178 18.5777 166.658 18.2995 168.238 18.2995ZM168.905 40.0653C170.063 40.0653 170.975 39.6869 171.643 38.9302C172.31 38.1513 172.789 37.0831 173.078 35.7255C173.39 34.3679 173.546 32.7878 173.546 30.9851C173.546 27.3574 172.989 24.5755 171.876 22.6393C170.786 20.7031 169.339 19.735 167.537 19.735C166.402 19.735 165.489 20.1133 164.799 20.87C164.132 21.6267 163.642 22.6949 163.33 24.0748C163.041 25.4324 162.896 27.0125 162.896 28.8152C162.896 32.4428 163.442 35.2247 164.532 37.1609C165.645 39.0972 167.103 40.0653 168.905 40.0653ZM195.008 41.2671C194.83 40.7552 194.608 40.2322 194.341 39.6981C194.096 39.1417 193.762 38.4184 193.339 37.5282L187.33 24.9761H187.263L186.663 37.6617C186.64 38.4184 186.818 39.0304 187.197 39.4978C187.575 39.9429 188.265 40.1877 189.266 40.2322V41L183.091 41V40.2322C183.736 40.1877 184.192 39.9429 184.459 39.4978C184.749 39.0304 184.904 38.4184 184.927 37.6617L185.628 22.1386C185.672 21.3596 185.617 20.8032 185.461 20.4694C185.327 20.1356 185.082 19.9241 184.726 19.8351C184.37 19.7238 183.892 19.6348 183.291 19.5681V18.8002H190.435C190.613 19.3789 190.813 19.9241 191.036 20.436C191.281 20.9479 191.548 21.5154 191.837 22.1386L197.579 34.1565H197.646L202.987 22.1386C203.499 21.0035 203.888 19.8908 204.155 18.8002H211.232V19.5681C210.81 19.5903 210.454 19.6571 210.164 19.7684C209.875 19.8796 209.663 20.1133 209.53 20.4694C209.419 20.8032 209.374 21.3596 209.396 22.1386L210.097 37.6617C210.142 38.3739 210.231 38.908 210.365 39.2641C210.52 39.6202 210.765 39.865 211.099 39.9985C211.433 40.1098 211.878 40.1877 212.434 40.2322V41H202.92V40.2322C203.632 40.1877 204.122 40.0208 204.389 39.7314C204.678 39.4421 204.801 38.7522 204.756 37.6617L204.189 24.008H204.122L198.08 37.5282C197.657 38.4629 197.345 39.1973 197.145 39.7314C196.967 40.2433 196.811 40.7552 196.677 41.2671H195.008ZM227.055 41.2671C226.877 40.7552 226.654 40.2322 226.387 39.6981C226.142 39.1417 225.808 38.4184 225.386 37.5282L219.377 24.9761H219.31L218.709 37.6617C218.687 38.4184 218.865 39.0304 219.243 39.4978C219.621 39.9429 220.311 40.1877 221.313 40.2322V41H215.137V40.2322C215.782 40.1877 216.239 39.9429 216.506 39.4978C216.795 39.0304 216.951 38.4184 216.973 37.6617L217.674 22.1386C217.719 21.3596 217.663 20.8032 217.507 20.4694C217.374 20.1356 217.129 19.9241 216.773 19.8351C216.417 19.7238 215.938 19.6348 215.337 19.5681V18.8002H222.481C222.659 19.3789 222.86 19.9241 223.082 20.436C223.327 20.9479 223.594 21.5154 223.883 22.1386L229.625 34.1565H229.692L235.033 22.1386C235.545 21.0035 235.935 19.8908 236.202 18.8002H243.279V19.5681C242.856 19.5903 242.5 19.6571 242.211 19.7684C241.921 19.8796 241.71 20.1133 241.576 20.4694C241.465 20.8032 241.421 21.3596 241.443 22.1386L242.144 37.6617C242.188 38.3739 242.277 38.908 242.411 39.2641C242.567 39.6202 242.812 39.865 243.145 39.9985C243.479 40.1098 243.924 40.1877 244.481 40.2322V41H234.967V40.2322C235.679 40.1877 236.168 40.0208 236.435 39.7314C236.725 39.4421 236.847 38.7522 236.803 37.6617L236.235 24.008H236.168L230.126 37.5282C229.703 38.4629 229.392 39.1973 229.191 39.7314C229.013 40.2433 228.857 40.7552 228.724 41.2671H227.055ZM270.669 34.8241H271.437L271.103 41H255.013V40.2322C255.191 40.1432 255.458 39.9874 255.814 39.7648C256.192 39.5423 256.582 39.2863 256.982 38.997C258.095 38.1958 259.141 37.2833 260.12 36.2596C261.1 35.2359 261.957 34.1453 262.691 32.9881C263.425 31.8308 264.004 30.6735 264.427 29.5162C264.85 28.3589 265.061 27.2573 265.061 26.2113C265.061 25.2098 264.816 24.3641 264.327 23.6742C263.859 22.9843 263.003 22.6393 261.756 22.6393C260.71 22.6393 259.742 22.9286 258.852 23.5073C257.962 24.0859 257.083 24.9872 256.215 26.2113L255.58 25.6772C256.493 23.3626 257.639 21.6378 259.019 20.5028C260.399 19.3678 262.123 18.8002 264.193 18.8002C265.395 18.8002 266.474 19.0005 267.431 19.4011C268.388 19.7795 269.145 20.3804 269.701 21.2038C270.28 22.005 270.569 23.051 270.569 24.3418C270.569 26.6341 269.835 28.7818 268.366 30.7848C266.919 32.7878 264.894 34.6683 262.29 36.4265V36.4933H267.164C268.433 36.4933 269.312 36.3375 269.802 36.0259C270.291 35.7143 270.58 35.3137 270.669 34.8241ZM284.878 18.8002C286.035 18.8002 287.17 19.0228 288.283 19.4679C289.396 19.913 290.397 20.6029 291.287 21.5377C292.178 22.4724 292.879 23.6519 293.391 25.0763C293.925 26.4784 294.192 28.1475 294.192 30.0837C294.192 31.9977 293.936 33.6668 293.424 35.0912C292.912 36.5155 292.211 37.7062 291.321 38.6632C290.431 39.6202 289.429 40.3323 288.316 40.7997C287.204 41.2671 286.046 41.5007 284.845 41.5007C283.687 41.5007 282.552 41.2782 281.439 40.8331C280.327 40.388 279.325 39.6981 278.435 38.7633C277.545 37.8286 276.833 36.6602 276.298 35.2581C275.787 33.8338 275.531 32.1535 275.531 30.2173C275.531 28.3033 275.787 26.6341 276.298 25.2098C276.81 23.7855 277.511 22.5948 278.402 21.6378C279.292 20.6808 280.293 19.9687 281.406 19.5013C282.519 19.0339 283.676 18.8002 284.878 18.8002ZM284.978 40.0653C285.623 40.0653 286.213 39.776 286.747 39.1973C287.281 38.6187 287.704 37.6394 288.016 36.2596C288.35 34.8798 288.517 32.9881 288.517 30.5845C288.517 28.4925 288.372 26.6787 288.083 25.143C287.816 23.5852 287.404 22.3834 286.848 21.5377C286.291 20.6697 285.59 20.2357 284.744 20.2357C284.121 20.2357 283.531 20.525 282.975 21.1037C282.441 21.6823 282.007 22.6616 281.673 24.0414C281.362 25.4212 281.206 27.3129 281.206 29.7165C281.206 31.8085 281.339 33.6335 281.606 35.1913C281.896 36.727 282.319 37.9288 282.875 38.7967C283.431 39.6424 284.132 40.0653 284.978 40.0653ZM312.627 34.8241H313.394L313.061 41H296.97V40.2322C297.148 40.1432 297.415 39.9874 297.771 39.7648C298.149 39.5423 298.539 39.2863 298.94 38.997C300.052 38.1958 301.098 37.2833 302.078 36.2596C303.057 35.2359 303.914 34.1453 304.648 32.9881C305.382 31.8308 305.961 30.6735 306.384 29.5162C306.807 28.3589 307.018 27.2573 307.018 26.2113C307.018 25.2098 306.773 24.3641 306.284 23.6742C305.816 22.9843 304.96 22.6393 303.713 22.6393C302.667 22.6393 301.699 22.9286 300.809 23.5073C299.919 24.0859 299.04 24.9872 298.172 26.2113L297.537 25.6772C298.45 23.3626 299.596 21.6378 300.976 20.5028C302.356 19.3678 304.08 18.8002 306.15 18.8002C307.352 18.8002 308.431 19.0005 309.388 19.4011C310.345 19.7795 311.102 20.3804 311.658 21.2038C312.237 22.005 312.526 23.051 312.526 24.3418C312.526 26.6341 311.792 28.7818 310.323 30.7848C308.877 32.7878 306.851 34.6683 304.247 36.4265V36.4933H309.121C310.39 36.4933 311.269 36.3375 311.759 36.0259C312.248 35.7143 312.538 35.3137 312.627 34.8241ZM331.175 32.4873H333.512V36.6602H332.11C331.486 36.6602 331.175 37.0497 331.175 37.8286C331.175 38.3627 331.175 38.8857 331.175 39.3976C331.197 39.8872 331.219 40.4214 331.242 41H325.967C326.012 40.2656 326.045 39.5534 326.067 38.8635C326.089 38.1513 326.112 37.4169 326.134 36.6602H315.585V35.8924C316.164 35.336 316.687 34.7574 317.154 34.1565L328.07 20.5028C328.315 20.1912 328.538 19.8908 328.738 19.6014C328.96 19.2899 329.138 19.0228 329.272 18.8002L331.208 18.8002L331.175 32.4873ZM326.067 25.5102L320.492 32.4873H326.167V25.5102H326.067Z" fill="black"/>
<path d="M381.297 24.6719C376.639 22.8115 371.172 23.8037 367.445 27.5246C362.414 32.5477 362.414 40.6715 367.445 45.6946C371.172 49.4154 376.639 50.4077 381.297 48.5473V42.5939C380.366 43.028 379.372 43.2761 378.316 43.2761C374.589 43.2761 371.607 40.2994 371.607 36.5786C371.607 32.8577 374.589 29.8811 378.316 29.8811C379.372 29.8811 380.428 30.1291 381.297 30.5632V24.6719Z" fill="black"/>
<path d="M379.187 18.7059C381.022 16.8662 381.022 13.8213 379.187 11.9182C377.351 10.0785 374.314 10.0785 372.416 11.9182C370.517 13.7578 370.581 16.8028 372.416 18.7059C374.314 20.5455 377.351 20.5455 379.187 18.7059Z" fill="black"/>
<path d="M412.111 41V40.2322C412.756 40.1877 413.224 40.0208 413.513 39.7314C413.802 39.4421 413.947 38.7522 413.947 37.6617V22.1386C413.947 21.048 413.78 20.3581 413.446 20.0688C413.135 19.7572 412.523 19.5903 411.61 19.5681V18.8002H421.124V19.5681C420.479 19.5903 420.012 19.7572 419.722 20.0688C419.433 20.3581 419.288 21.048 419.288 22.1386V37.6617C419.288 38.7522 419.455 39.4421 419.789 39.7314C420.123 40.0208 420.735 40.1877 421.625 40.2322V41H412.111ZM444.742 41.2671C444.409 40.911 444.064 40.566 443.708 40.2322C443.351 39.8761 442.784 39.3531 442.005 38.6632L428.852 26.6453H428.785V37.6617C428.785 38.4184 428.974 39.0304 429.353 39.4978C429.753 39.9429 430.432 40.1877 431.389 40.2322V41H425.213V40.2322C425.859 40.1877 426.326 39.9429 426.615 39.4978C426.905 39.0304 427.049 38.4184 427.049 37.6617V22.1386C427.049 21.048 426.882 20.3581 426.549 20.0688C426.237 19.7572 425.625 19.5903 424.713 19.5681V18.8002H428.719C429.052 19.2231 429.408 19.6014 429.787 19.9353C430.165 20.2691 430.599 20.6697 431.089 21.1371L444.375 33.155H444.442V22.1386C444.442 21.3819 444.253 20.7698 443.874 20.3025C443.496 19.8351 442.817 19.5903 441.838 19.5681V18.8002H448.014V19.5681C447.369 19.5903 446.901 19.8351 446.612 20.3025C446.323 20.7698 446.178 21.3819 446.178 22.1386V37.6617C446.178 38.2848 446.178 38.8857 446.178 39.4644C446.2 40.0208 446.222 40.6217 446.245 41.2671H444.742ZM450.654 18.8002L469.682 18.8002V24.3085H468.915C468.781 23.1067 468.425 22.1274 467.846 21.3707C467.268 20.6141 466.277 20.2357 464.875 20.2357H462.839V37.6617C462.839 38.7522 463.006 39.4421 463.34 39.7314C463.673 40.0208 464.286 40.1877 465.176 40.2322V41H455.662V40.2322C456.307 40.1877 456.774 40.0208 457.064 39.7314C457.353 39.4421 457.498 38.7522 457.498 37.6617V20.2357H455.428C454.07 20.2357 453.091 20.6141 452.49 21.3707C451.912 22.1274 451.555 23.1067 451.422 24.3085H450.654V18.8002ZM472.712 41V40.2322C473.357 40.1877 473.824 40.0208 474.114 39.7314C474.403 39.4421 474.548 38.7522 474.548 37.6617V22.1386C474.548 21.048 474.381 20.3581 474.047 20.0688C473.735 19.7572 473.123 19.5903 472.211 19.5681V18.8002H488.602V23.4739H487.834C487.79 22.5169 487.456 21.738 486.833 21.1371C486.232 20.5362 485.297 20.2357 484.029 20.2357H481.358C480.891 20.2357 480.523 20.3581 480.256 20.6029C480.011 20.8477 479.889 21.3596 479.889 22.1386V28.715C480.067 28.5815 480.279 28.4925 480.523 28.448C480.79 28.4034 481.102 28.3812 481.458 28.3812H484.696C485.364 28.3812 485.92 28.192 486.365 27.8137C486.81 27.4353 487.044 26.9123 487.066 26.2447H487.834V31.9198H487.066C487.044 31.0963 486.81 30.54 486.365 30.2506C485.92 29.9613 485.364 29.8167 484.696 29.8167H481.525C480.924 29.8167 480.501 29.9168 480.256 30.1171C480.011 30.3174 479.889 30.7069 479.889 31.2855V37.6617C479.889 38.4406 480.056 38.9525 480.39 39.1973C480.746 39.4421 481.425 39.5645 482.426 39.5645H485.598C486.933 39.5645 487.99 39.1639 488.769 38.3627C489.548 37.5615 489.982 36.6046 490.071 35.4918H490.839L490.572 41H472.712ZM513.235 41.5007C512.233 41.5007 511.377 41.3338 510.664 41C509.952 40.6884 509.351 40.2656 508.862 39.7314C508.372 39.1973 507.916 38.6075 507.493 37.9621L502.819 30.6846C502.597 30.3063 502.396 30.0726 502.218 29.9836C502.04 29.8946 501.829 29.8389 501.584 29.8167V28.6483C502.919 28.5592 503.954 28.2922 504.689 27.8471C505.423 27.402 505.935 26.8567 506.224 26.2113C506.514 25.5436 506.658 24.8537 506.658 24.1415C506.658 22.784 506.28 21.7713 505.523 21.1037C504.767 20.4138 503.899 20.0688 502.919 20.0688C502.185 20.0688 501.662 20.2023 501.35 20.4694C501.061 20.7142 500.916 21.2706 500.916 22.1386V37.6617C500.916 38.7522 501.083 39.4421 501.417 39.7314C501.751 40.0208 502.363 40.1877 503.253 40.2322V41H493.739V40.2322C494.385 40.1877 494.852 40.0208 495.141 39.7314C495.431 39.4421 495.575 38.7522 495.575 37.6617V22.1386C495.575 21.048 495.408 20.3581 495.074 20.0688C494.763 19.7572 494.151 19.5903 493.238 19.5681V18.8002H495.575C497.244 18.8002 498.758 18.778 500.115 18.7335C501.473 18.6667 502.63 18.6333 503.587 18.6333C505.79 18.6333 507.537 18.8448 508.828 19.2676C510.141 19.6682 511.076 20.2357 511.632 20.9701C512.211 21.7046 512.5 22.5391 512.5 23.4739C512.5 24.3641 512.278 25.1764 511.833 25.9108C511.41 26.6453 510.842 27.2684 510.13 27.7803C509.44 28.2699 508.684 28.6149 507.86 28.8152V28.8819L513.402 37.5615C514.047 38.5853 514.637 39.2863 515.171 39.6647C515.705 40.043 516.184 40.2322 516.607 40.2322V41C516.161 41.1558 515.627 41.2782 515.004 41.3672C514.403 41.4562 513.813 41.5007 513.235 41.5007ZM529.001 41.5007C526.664 41.5007 524.594 41.0334 522.791 40.0987C520.989 39.1639 519.575 37.8509 518.552 36.1595C517.528 34.4458 517.016 32.4651 517.016 30.2173C517.016 28.3701 517.35 26.7232 518.018 25.2766C518.685 23.8077 519.598 22.5503 520.755 21.5043C521.934 20.4583 523.281 19.6682 524.794 19.1341C526.33 18.5777 527.966 18.2995 529.702 18.2995C531.015 18.2995 532.272 18.4219 533.474 18.6667C534.676 18.9115 535.633 19.2008 536.345 19.5347V24.8092H535.577C535.132 23.4516 534.598 22.4167 533.975 21.7046C533.351 20.9701 532.65 20.4583 531.871 20.169C531.115 19.8796 530.314 19.735 529.468 19.735C525.173 19.735 523.025 22.8507 523.025 29.0822C523.025 31.1297 523.236 32.9881 523.659 34.6572C524.104 36.3264 524.783 37.6506 525.696 38.6298C526.63 39.5868 527.821 40.0653 529.268 40.0653C530.447 40.0653 531.515 39.776 532.472 39.1973C533.429 38.5964 534.242 37.8064 534.909 36.8271C535.599 35.8479 536.089 34.7907 536.378 33.6557H537.146L536.879 38.7299C536.145 39.5311 535.11 40.1988 533.774 40.7329C532.439 41.2448 530.848 41.5007 529.001 41.5007ZM551.285 18.2995C552.865 18.2995 554.334 18.5666 555.691 19.1007C557.049 19.6348 558.25 20.4138 559.296 21.4375C560.342 22.439 561.155 23.6519 561.733 25.0763C562.312 26.5006 562.601 28.0919 562.601 29.85C562.601 31.6082 562.312 33.1995 561.733 34.6238C561.155 36.0482 560.342 37.2722 559.296 38.296C558.273 39.3197 557.071 40.1098 555.691 40.6662C554.311 41.2226 552.831 41.5007 551.251 41.5007C549.693 41.5007 548.224 41.2337 546.845 40.6996C545.487 40.1654 544.285 39.3976 543.239 38.3961C542.193 37.3724 541.381 36.1483 540.802 34.724C540.224 33.2996 539.934 31.7084 539.934 29.9502C539.934 28.192 540.224 26.6008 540.802 25.1764C541.381 23.7521 542.182 22.528 543.206 21.5043C544.252 20.4805 545.465 19.6905 546.845 19.1341C548.224 18.5777 549.704 18.2995 551.285 18.2995ZM551.952 40.0653C553.109 40.0653 554.022 39.6869 554.69 38.9302C555.357 38.1513 555.836 37.0831 556.125 35.7255C556.437 34.3679 556.592 32.7878 556.592 30.9851C556.592 27.3574 556.036 24.5755 554.923 22.6393C553.833 20.7031 552.386 19.735 550.583 19.735C549.448 19.735 548.536 20.1133 547.846 20.87C547.178 21.6267 546.689 22.6949 546.377 24.0748C546.088 25.4324 545.943 27.0125 545.943 28.8152C545.943 32.4428 546.488 35.2247 547.579 37.1609C548.692 39.0972 550.15 40.0653 551.952 40.0653ZM578.055 41.2671C577.877 40.7552 577.655 40.2322 577.387 39.6981C577.143 39.1417 576.809 38.4184 576.386 37.5282L570.377 24.9761H570.31L569.709 37.6617C569.687 38.4184 569.865 39.0304 570.244 39.4978C570.622 39.9429 571.312 40.1877 572.313 40.2322V41L566.137 41V40.2322C566.783 40.1877 567.239 39.9429 567.506 39.4978C567.795 39.0304 567.951 38.4184 567.973 37.6617L568.675 22.1386C568.719 21.3596 568.663 20.8032 568.508 20.4694C568.374 20.1356 568.129 19.9241 567.773 19.8351C567.417 19.7238 566.939 19.6348 566.338 19.5681V18.8002H573.482C573.66 19.3789 573.86 19.9241 574.083 20.436C574.327 20.9479 574.594 21.5154 574.884 22.1386L580.626 34.1565H580.692L586.034 22.1386C586.546 21.0035 586.935 19.8908 587.202 18.8002H594.279V19.5681C593.856 19.5903 593.5 19.6571 593.211 19.7684C592.922 19.8796 592.71 20.1133 592.577 20.4694C592.466 20.8032 592.421 21.3596 592.443 22.1386L593.144 37.6617C593.189 38.3739 593.278 38.908 593.411 39.2641C593.567 39.6202 593.812 39.865 594.146 39.9985C594.48 40.1098 594.925 40.1877 595.481 40.2322V41H585.967V40.2322C586.679 40.1877 587.169 40.0208 587.436 39.7314C587.725 39.4421 587.848 38.7522 587.803 37.6617L587.236 24.008H587.169L581.126 37.5282C580.704 38.4629 580.392 39.1973 580.192 39.7314C580.014 40.2433 579.858 40.7552 579.724 41.2671H578.055ZM610.102 41.2671C609.924 40.7552 609.701 40.2322 609.434 39.6981C609.189 39.1417 608.855 38.4184 608.432 37.5282L602.424 24.9761H602.357L601.756 37.6617C601.734 38.4184 601.912 39.0304 602.29 39.4978C602.668 39.9429 603.358 40.1877 604.36 40.2322V41H598.184V40.2322C598.829 40.1877 599.286 39.9429 599.553 39.4978C599.842 39.0304 599.998 38.4184 600.02 37.6617L600.721 22.1386C600.765 21.3596 600.71 20.8032 600.554 20.4694C600.421 20.1356 600.176 19.9241 599.82 19.8351C599.464 19.7238 598.985 19.6348 598.384 19.5681V18.8002H605.528C605.706 19.3789 605.906 19.9241 606.129 20.436C606.374 20.9479 606.641 21.5154 606.93 22.1386L612.672 34.1565H612.739L618.08 22.1386C618.592 21.0035 618.982 19.8908 619.249 18.8002H626.326V19.5681C625.903 19.5903 625.547 19.6571 625.258 19.7684C624.968 19.8796 624.757 20.1133 624.623 20.4694C624.512 20.8032 624.467 21.3596 624.49 22.1386L625.191 37.6617C625.235 38.3739 625.324 38.908 625.458 39.2641C625.614 39.6202 625.858 39.865 626.192 39.9985C626.526 40.1098 626.971 40.1877 627.528 40.2322V41H618.013V40.2322C618.726 40.1877 619.215 40.0208 619.482 39.7314C619.772 39.4421 619.894 38.7522 619.849 37.6617L619.282 24.008H619.215L613.173 37.5282C612.75 38.4629 612.438 39.1973 612.238 39.7314C612.06 40.2433 611.904 40.7552 611.771 41.2671H610.102ZM653.716 34.8241H654.484L654.15 41H638.06V40.2322C638.238 40.1432 638.505 39.9874 638.861 39.7648C639.239 39.5423 639.629 39.2863 640.029 38.997C641.142 38.1958 642.188 37.2833 643.167 36.2596C644.147 35.2359 645.003 34.1453 645.738 32.9881C646.472 31.8308 647.051 30.6735 647.474 29.5162C647.897 28.3589 648.108 27.2573 648.108 26.2113C648.108 25.2098 647.863 24.3641 647.374 23.6742C646.906 22.9843 646.049 22.6393 644.803 22.6393C643.757 22.6393 642.789 22.9286 641.899 23.5073C641.009 24.0859 640.129 24.9872 639.261 26.2113L638.627 25.6772C639.54 23.3626 640.686 21.6378 642.066 20.5028C643.446 19.3678 645.17 18.8002 647.24 18.8002C648.442 18.8002 649.521 19.0005 650.478 19.4011C651.435 19.7795 652.192 20.3804 652.748 21.2038C653.327 22.005 653.616 23.051 653.616 24.3418C653.616 26.6341 652.882 28.7818 651.413 30.7848C649.966 32.7878 647.941 34.6683 645.337 36.4265V36.4933H650.211C651.48 36.4933 652.359 36.3375 652.848 36.0259C653.338 35.7143 653.627 35.3137 653.716 34.8241ZM667.925 18.8002C669.082 18.8002 670.217 19.0228 671.33 19.4679C672.443 19.913 673.444 20.6029 674.334 21.5377C675.225 22.4724 675.926 23.6519 676.437 25.0763C676.972 26.4784 677.239 28.1475 677.239 30.0837C677.239 31.9977 676.983 33.6668 676.471 35.0912C675.959 36.5155 675.258 37.7062 674.368 38.6632C673.478 39.6202 672.476 40.3323 671.363 40.7997C670.25 41.2671 669.093 41.5007 667.891 41.5007C666.734 41.5007 665.599 41.2782 664.486 40.8331C663.374 40.388 662.372 39.6981 661.482 38.7633C660.592 37.8286 659.879 36.6602 659.345 35.2581C658.833 33.8338 658.578 32.1535 658.578 30.2173C658.578 28.3033 658.833 26.6341 659.345 25.2098C659.857 23.7855 660.558 22.5948 661.448 21.6378C662.339 20.6808 663.34 19.9687 664.453 19.5013C665.566 19.0339 666.723 18.8002 667.925 18.8002ZM668.025 40.0653C668.67 40.0653 669.26 39.776 669.794 39.1973C670.328 38.6187 670.751 37.6394 671.063 36.2596C671.397 34.8798 671.564 32.9881 671.564 30.5845C671.564 28.4925 671.419 26.6787 671.13 25.143C670.863 23.5852 670.451 22.3834 669.894 21.5377C669.338 20.6697 668.637 20.2357 667.791 20.2357C667.168 20.2357 666.578 20.525 666.022 21.1037C665.488 21.6823 665.054 22.6616 664.72 24.0414C664.408 25.4212 664.253 27.3129 664.253 29.7165C664.253 31.8085 664.386 33.6335 664.653 35.1913C664.943 36.727 665.365 37.9288 665.922 38.7967C666.478 39.6424 667.179 40.0653 668.025 40.0653ZM695.673 34.8241H696.441L696.107 41H680.017V40.2322C680.195 40.1432 680.462 39.9874 680.818 39.7648C681.196 39.5423 681.586 39.2863 681.986 38.997C683.099 38.1958 684.145 37.2833 685.124 36.2596C686.104 35.2359 686.96 34.1453 687.695 32.9881C688.429 31.8308 689.008 30.6735 689.431 29.5162C689.854 28.3589 690.065 27.2573 690.065 26.2113C690.065 25.2098 689.82 24.3641 689.331 23.6742C688.863 22.9843 688.006 22.6393 686.76 22.6393C685.714 22.6393 684.746 22.9286 683.856 23.5073C682.966 24.0859 682.087 24.9872 681.219 26.2113L680.584 25.6772C681.497 23.3626 682.643 21.6378 684.023 20.5028C685.403 19.3678 687.127 18.8002 689.197 18.8002C690.399 18.8002 691.478 19.0005 692.435 19.4011C693.392 19.7795 694.149 20.3804 694.705 21.2038C695.284 22.005 695.573 23.051 695.573 24.3418C695.573 26.6341 694.839 28.7818 693.37 30.7848C691.923 32.7878 689.898 34.6683 687.294 36.4265V36.4933H692.168C693.437 36.4933 694.316 36.3375 694.805 36.0259C695.295 35.7143 695.584 35.3137 695.673 34.8241ZM714.222 32.4873H716.558V36.6602H715.156C714.533 36.6602 714.222 37.0497 714.222 37.8286C714.222 38.3627 714.222 38.8857 714.222 39.3976C714.244 39.8872 714.266 40.4214 714.288 41H709.014C709.058 40.2656 709.092 39.5534 709.114 38.8635C709.136 38.1513 709.159 37.4169 709.181 36.6602H698.632V35.8924C699.21 35.336 699.733 34.7574 700.201 34.1565L711.117 20.5028C711.362 20.1912 711.584 19.8908 711.785 19.6014C712.007 19.2899 712.185 19.0228 712.319 18.8002L714.255 18.8002L714.222 32.4873ZM709.114 25.5102L703.539 32.4873H709.214V25.5102H709.114Z" fill="black"/>
<path d="M764.344 24.6719C759.686 22.8115 754.219 23.8037 750.492 27.5246C745.461 32.5477 745.461 40.6715 750.492 45.6946C754.219 49.4154 759.686 50.4077 764.344 48.5473V42.5939C763.413 43.028 762.419 43.2761 761.363 43.2761C757.636 43.2761 754.654 40.2994 754.654 36.5786C754.654 32.8577 757.636 29.8811 761.363 29.8811C762.419 29.8811 763.475 30.1291 764.344 30.5632V24.6719Z" fill="black"/>
<path d="M762.233 18.7059C764.068 16.8662 764.068 13.8213 762.233 11.9182C760.398 10.0785 757.361 10.0785 755.463 11.9182C753.564 13.7578 753.628 16.8028 755.463 18.7059C757.361 20.5455 760.398 20.5455 762.233 18.7059Z" fill="black"/>
<path d="M795.158 41V40.2322C795.803 40.1877 796.271 40.0208 796.56 39.7314C796.849 39.4421 796.994 38.7522 796.994 37.6617V22.1386C796.994 21.048 796.827 20.3581 796.493 20.0688C796.182 19.7572 795.57 19.5903 794.657 19.5681V18.8002H804.171V19.5681C803.526 19.5903 803.058 19.7572 802.769 20.0688C802.48 20.3581 802.335 21.048 802.335 22.1386V37.6617C802.335 38.7522 802.502 39.4421 802.836 39.7314C803.17 40.0208 803.782 40.1877 804.672 40.2322V41H795.158ZM827.789 41.2671C827.455 40.911 827.11 40.566 826.754 40.2322C826.398 39.8761 825.831 39.3531 825.052 38.6632L811.899 26.6453H811.832V37.6617C811.832 38.4184 812.021 39.0304 812.4 39.4978C812.8 39.9429 813.479 40.1877 814.436 40.2322V41H808.26V40.2322C808.906 40.1877 809.373 39.9429 809.662 39.4978C809.952 39.0304 810.096 38.4184 810.096 37.6617V22.1386C810.096 21.048 809.929 20.3581 809.595 20.0688C809.284 19.7572 808.672 19.5903 807.759 19.5681V18.8002H811.765C812.099 19.2231 812.455 19.6014 812.834 19.9353C813.212 20.2691 813.646 20.6697 814.136 21.1371L827.422 33.155H827.489V22.1386C827.489 21.3819 827.3 20.7698 826.921 20.3025C826.543 19.8351 825.864 19.5903 824.885 19.5681V18.8002H831.061V19.5681C830.415 19.5903 829.948 19.8351 829.659 20.3025C829.369 20.7698 829.225 21.3819 829.225 22.1386V37.6617C829.225 38.2848 829.225 38.8857 829.225 39.4644C829.247 40.0208 829.269 40.6217 829.292 41.2671H827.789ZM833.701 18.8002L852.729 18.8002V24.3085H851.961C851.828 23.1067 851.472 22.1274 850.893 21.3707C850.315 20.6141 849.324 20.2357 847.922 20.2357H845.886V37.6617C845.886 38.7522 846.053 39.4421 846.387 39.7314C846.72 40.0208 847.332 40.1877 848.223 40.2322V41H838.708V40.2322C839.354 40.1877 839.821 40.0208 840.11 39.7314C840.4 39.4421 840.544 38.7522 840.544 37.6617V20.2357H838.475C837.117 20.2357 836.138 20.6141 835.537 21.3707C834.958 22.1274 834.602 23.1067 834.469 24.3085H833.701V18.8002ZM855.759 41V40.2322C856.404 40.1877 856.871 40.0208 857.161 39.7314C857.45 39.4421 857.595 38.7522 857.595 37.6617V22.1386C857.595 21.048 857.428 20.3581 857.094 20.0688C856.782 19.7572 856.17 19.5903 855.258 19.5681V18.8002H871.649V23.4739H870.881C870.837 22.5169 870.503 21.738 869.88 21.1371C869.279 20.5362 868.344 20.2357 867.075 20.2357H864.405C863.937 20.2357 863.57 20.3581 863.303 20.6029C863.058 20.8477 862.936 21.3596 862.936 22.1386V28.715C863.114 28.5815 863.325 28.4925 863.57 28.448C863.837 28.4034 864.149 28.3812 864.505 28.3812H867.743C868.411 28.3812 868.967 28.192 869.412 27.8137C869.857 27.4353 870.091 26.9123 870.113 26.2447H870.881V31.9198H870.113C870.091 31.0963 869.857 30.54 869.412 30.2506C868.967 29.9613 868.411 29.8167 867.743 29.8167H864.572C863.971 29.8167 863.548 29.9168 863.303 30.1171C863.058 30.3174 862.936 30.7069 862.936 31.2855V37.6617C862.936 38.4406 863.103 38.9525 863.437 39.1973C863.793 39.4421 864.472 39.5645 865.473 39.5645H868.644C869.98 39.5645 871.037 39.1639 871.816 38.3627C872.595 37.5615 873.029 36.6046 873.118 35.4918H873.886L873.619 41H855.759ZM896.282 41.5007C895.28 41.5007 894.423 41.3338 893.711 41C892.999 40.6884 892.398 40.2656 891.909 39.7314C891.419 39.1973 890.963 38.6075 890.54 37.9621L885.866 30.6846C885.644 30.3063 885.443 30.0726 885.265 29.9836C885.087 29.8946 884.876 29.8389 884.631 29.8167V28.6483C885.966 28.5592 887.001 28.2922 887.736 27.8471C888.47 27.402 888.982 26.8567 889.271 26.2113C889.561 25.5436 889.705 24.8537 889.705 24.1415C889.705 22.784 889.327 21.7713 888.57 21.1037C887.814 20.4138 886.946 20.0688 885.966 20.0688C885.232 20.0688 884.709 20.2023 884.397 20.4694C884.108 20.7142 883.963 21.2706 883.963 22.1386V37.6617C883.963 38.7522 884.13 39.4421 884.464 39.7314C884.798 40.0208 885.41 40.1877 886.3 40.2322V41H876.786V40.2322C877.431 40.1877 877.899 40.0208 878.188 39.7314C878.477 39.4421 878.622 38.7522 878.622 37.6617V22.1386C878.622 21.048 878.455 20.3581 878.121 20.0688C877.81 19.7572 877.198 19.5903 876.285 19.5681V18.8002H878.622C880.291 18.8002 881.805 18.778 883.162 18.7335C884.52 18.6667 885.677 18.6333 886.634 18.6333C888.837 18.6333 890.584 18.8448 891.875 19.2676C893.188 19.6682 894.123 20.2357 894.679 20.9701C895.258 21.7046 895.547 22.5391 895.547 23.4739C895.547 24.3641 895.325 25.1764 894.88 25.9108C894.457 26.6453 893.889 27.2684 893.177 27.7803C892.487 28.2699 891.73 28.6149 890.907 28.8152V28.8819L896.449 37.5615C897.094 38.5853 897.684 39.2863 898.218 39.6647C898.752 40.043 899.231 40.2322 899.653 40.2322V41C899.208 41.1558 898.674 41.2782 898.051 41.3672C897.45 41.4562 896.86 41.5007 896.282 41.5007ZM912.047 41.5007C909.711 41.5007 907.641 41.0334 905.838 40.0987C904.035 39.1639 902.622 37.8509 901.599 36.1595C900.575 34.4458 900.063 32.4651 900.063 30.2173C900.063 28.3701 900.397 26.7232 901.064 25.2766C901.732 23.8077 902.645 22.5503 903.802 21.5043C904.981 20.4583 906.328 19.6682 907.841 19.1341C909.377 18.5777 911.013 18.2995 912.748 18.2995C914.062 18.2995 915.319 18.4219 916.521 18.6667C917.723 18.9115 918.68 19.2008 919.392 19.5347V24.8092H918.624C918.179 23.4516 917.645 22.4167 917.021 21.7046C916.398 20.9701 915.697 20.4583 914.918 20.169C914.162 19.8796 913.36 19.735 912.515 19.735C908.219 19.735 906.072 22.8507 906.072 29.0822C906.072 31.1297 906.283 32.9881 906.706 34.6572C907.151 36.3264 907.83 37.6506 908.742 38.6298C909.677 39.5868 910.868 40.0653 912.314 40.0653C913.494 40.0653 914.562 39.776 915.519 39.1973C916.476 38.5964 917.289 37.8064 917.956 36.8271C918.646 35.8479 919.136 34.7907 919.425 33.6557H920.193L919.926 38.7299C919.191 39.5311 918.157 40.1988 916.821 40.7329C915.486 41.2448 913.895 41.5007 912.047 41.5007ZM934.331 18.2995C935.912 18.2995 937.38 18.5666 938.738 19.1007C940.096 19.6348 941.297 20.4138 942.343 21.4375C943.389 22.439 944.202 23.6519 944.78 25.0763C945.359 26.5006 945.648 28.0919 945.648 29.85C945.648 31.6082 945.359 33.1995 944.78 34.6238C944.202 36.0482 943.389 37.2722 942.343 38.296C941.32 39.3197 940.118 40.1098 938.738 40.6662C937.358 41.2226 935.878 41.5007 934.298 41.5007C932.74 41.5007 931.271 41.2337 929.891 40.6996C928.534 40.1654 927.332 39.3976 926.286 38.3961C925.24 37.3724 924.428 36.1483 923.849 34.724C923.27 33.2996 922.981 31.7084 922.981 29.9502C922.981 28.192 923.27 26.6008 923.849 25.1764C924.428 23.7521 925.229 22.528 926.253 21.5043C927.299 20.4805 928.512 19.6905 929.891 19.1341C931.271 18.5777 932.751 18.2995 934.331 18.2995ZM934.999 40.0653C936.156 40.0653 937.069 39.6869 937.736 38.9302C938.404 38.1513 938.883 37.0831 939.172 35.7255C939.484 34.3679 939.639 32.7878 939.639 30.9851C939.639 27.3574 939.083 24.5755 937.97 22.6393C936.88 20.7031 935.433 19.735 933.63 19.735C932.495 19.735 931.583 20.1133 930.893 20.87C930.225 21.6267 929.736 22.6949 929.424 24.0748C929.135 25.4324 928.99 27.0125 928.99 28.8152C928.99 32.4428 929.535 35.2247 930.626 37.1609C931.739 39.0972 933.196 40.0653 934.999 40.0653ZM961.102 41.2671C960.924 40.7552 960.701 40.2322 960.434 39.6981C960.19 39.1417 959.856 38.4184 959.433 37.5282L953.424 24.9761H953.357L952.756 37.6617C952.734 38.4184 952.912 39.0304 953.29 39.4978C953.669 39.9429 954.359 40.1877 955.36 40.2322V41L949.184 41V40.2322C949.83 40.1877 950.286 39.9429 950.553 39.4978C950.842 39.0304 950.998 38.4184 951.02 37.6617L951.721 22.1386C951.766 21.3596 951.71 20.8032 951.554 20.4694C951.421 20.1356 951.176 19.9241 950.82 19.8351C950.464 19.7238 949.985 19.6348 949.385 19.5681V18.8002H956.529C956.707 19.3789 956.907 19.9241 957.129 20.436C957.374 20.9479 957.641 21.5154 957.931 22.1386L963.673 34.1565H963.739L969.081 22.1386C969.592 21.0035 969.982 19.8908 970.249 18.8002H977.326V19.5681C976.903 19.5903 976.547 19.6571 976.258 19.7684C975.969 19.8796 975.757 20.1133 975.624 20.4694C975.512 20.8032 975.468 21.3596 975.49 22.1386L976.191 37.6617C976.236 38.3739 976.325 38.908 976.458 39.2641C976.614 39.6202 976.859 39.865 977.193 39.9985C977.527 40.1098 977.972 40.1877 978.528 40.2322V41H969.014V40.2322C969.726 40.1877 970.216 40.0208 970.483 39.7314C970.772 39.4421 970.894 38.7522 970.85 37.6617L970.282 24.008H970.216L964.173 37.5282C963.75 38.4629 963.439 39.1973 963.239 39.7314C963.061 40.2433 962.905 40.7552 962.771 41.2671H961.102ZM993.149 41.2671C992.97 40.7552 992.748 40.2322 992.481 39.6981C992.236 39.1417 991.902 38.4184 991.479 37.5282L985.47 24.9761H985.404L984.803 37.6617C984.78 38.4184 984.959 39.0304 985.337 39.4978C985.715 39.9429 986.405 40.1877 987.407 40.2322V41H981.231V40.2322C981.876 40.1877 982.332 39.9429 982.599 39.4978C982.889 39.0304 983.045 38.4184 983.067 37.6617L983.768 22.1386C983.812 21.3596 983.757 20.8032 983.601 20.4694C983.467 20.1356 983.223 19.9241 982.867 19.8351C982.51 19.7238 982.032 19.6348 981.431 19.5681V18.8002H988.575C988.753 19.3789 988.953 19.9241 989.176 20.436C989.421 20.9479 989.688 21.5154 989.977 22.1386L995.719 34.1565H995.786L1001.13 22.1386C1001.64 21.0035 1002.03 19.8908 1002.3 18.8002H1009.37V19.5681C1008.95 19.5903 1008.59 19.6571 1008.3 19.7684C1008.02 19.8796 1007.8 20.1133 1007.67 20.4694C1007.56 20.8032 1007.51 21.3596 1007.54 22.1386L1008.24 37.6617C1008.28 38.3739 1008.37 38.908 1008.5 39.2641C1008.66 39.6202 1008.91 39.865 1009.24 39.9985C1009.57 40.1098 1010.02 40.1877 1010.57 40.2322V41H1001.06V40.2322C1001.77 40.1877 1002.26 40.0208 1002.53 39.7314C1002.82 39.4421 1002.94 38.7522 1002.9 37.6617L1002.33 24.008H1002.26L996.22 37.5282C995.797 38.4629 995.485 39.1973 995.285 39.7314C995.107 40.2433 994.951 40.7552 994.818 41.2671H993.149ZM1036.76 34.8241H1037.53L1037.2 41H1021.11V40.2322C1021.28 40.1432 1021.55 39.9874 1021.91 39.7648C1022.29 39.5423 1022.68 39.2863 1023.08 38.997C1024.19 38.1958 1025.23 37.2833 1026.21 36.2596C1027.19 35.2359 1028.05 34.1453 1028.78 32.9881C1029.52 31.8308 1030.1 30.6735 1030.52 29.5162C1030.94 28.3589 1031.15 27.2573 1031.15 26.2113C1031.15 25.2098 1030.91 24.3641 1030.42 23.6742C1029.95 22.9843 1029.1 22.6393 1027.85 22.6393C1026.8 22.6393 1025.84 22.9286 1024.95 23.5073C1024.06 24.0859 1023.18 24.9872 1022.31 26.2113L1021.67 25.6772C1022.59 23.3626 1023.73 21.6378 1025.11 20.5028C1026.49 19.3678 1028.22 18.8002 1030.29 18.8002C1031.49 18.8002 1032.57 19.0005 1033.53 19.4011C1034.48 19.7795 1035.24 20.3804 1035.8 21.2038C1036.37 22.005 1036.66 23.051 1036.66 24.3418C1036.66 26.6341 1035.93 28.7818 1034.46 30.7848C1033.01 32.7878 1030.99 34.6683 1028.38 36.4265V36.4933H1033.26C1034.53 36.4933 1035.41 36.3375 1035.9 36.0259C1036.38 35.7143 1036.67 35.3137 1036.76 34.8241ZM1050.97 18.8002C1052.13 18.8002 1053.26 19.0228 1054.38 19.4679C1055.49 19.913 1056.49 20.6029 1057.38 21.5377C1058.27 22.4724 1058.97 23.6519 1059.48 25.0763C1060.02 26.4784 1060.29 28.1475 1060.29 30.0837C1060.29 31.9977 1060.03 33.6668 1059.52 35.0912C1059.01 36.5155 1058.3 37.7062 1057.41 38.6632C1056.52 39.6202 1055.52 40.3323 1054.41 40.7997C1053.3 41.2671 1052.14 41.5007 1050.94 41.5007C1049.78 41.5007 1048.65 41.2782 1047.53 40.8331C1046.42 40.388 1045.42 39.6981 1044.53 38.7633C1043.64 37.8286 1042.93 36.6602 1042.39 35.2581C1041.88 33.8338 1041.62 32.1535 1041.62 30.2173C1041.62 28.3033 1041.88 26.6341 1042.39 25.2098C1042.9 23.7855 1043.61 22.5948 1044.5 21.6378C1045.39 20.6808 1046.39 19.9687 1047.5 19.5013C1048.61 19.0339 1049.77 18.8002 1050.97 18.8002ZM1051.07 40.0653C1051.72 40.0653 1052.31 39.776 1052.84 39.1973C1053.38 38.6187 1053.8 37.6394 1054.11 36.2596C1054.44 34.8798 1054.61 32.9881 1054.61 30.5845C1054.61 28.4925 1054.47 26.6787 1054.18 25.143C1053.91 23.5852 1053.5 22.3834 1052.94 21.5377C1052.38 20.6697 1051.68 20.2357 1050.84 20.2357C1050.21 20.2357 1049.63 20.525 1049.07 21.1037C1048.53 21.6823 1048.1 22.6616 1047.77 24.0414C1047.46 25.4212 1047.3 27.3129 1047.3 29.7165C1047.3 31.8085 1047.43 33.6335 1047.7 35.1913C1047.99 36.727 1048.41 37.9288 1048.97 38.7967C1049.53 39.6424 1050.23 40.0653 1051.07 40.0653ZM1078.72 34.8241H1079.49L1079.15 41H1063.06V40.2322C1063.24 40.1432 1063.51 39.9874 1063.86 39.7648C1064.24 39.5423 1064.63 39.2863 1065.03 38.997C1066.15 38.1958 1067.19 37.2833 1068.17 36.2596C1069.15 35.2359 1070.01 34.1453 1070.74 32.9881C1071.48 31.8308 1072.05 30.6735 1072.48 29.5162C1072.9 28.3589 1073.11 27.2573 1073.11 26.2113C1073.11 25.2098 1072.87 24.3641 1072.38 23.6742C1071.91 22.9843 1071.05 22.6393 1069.81 22.6393C1068.76 22.6393 1067.79 22.9286 1066.9 23.5073C1066.01 24.0859 1065.13 24.9872 1064.27 26.2113L1063.63 25.6772C1064.54 23.3626 1065.69 21.6378 1067.07 20.5028C1068.45 19.3678 1070.17 18.8002 1072.24 18.8002C1073.45 18.8002 1074.53 19.0005 1075.48 19.4011C1076.44 19.7795 1077.2 20.3804 1077.75 21.2038C1078.33 22.005 1078.62 23.051 1078.62 24.3418C1078.62 26.6341 1077.89 28.7818 1076.42 30.7848C1074.97 32.7878 1072.95 34.6683 1070.34 36.4265V36.4933H1075.22C1076.48 36.4933 1077.36 36.3375 1077.85 36.0259C1078.34 35.7143 1078.63 35.3137 1078.72 34.8241ZM1097.27 32.4873H1099.61V36.6602H1098.2C1097.58 36.6602 1097.27 37.0497 1097.27 37.8286C1097.27 38.3627 1097.27 38.8857 1097.27 39.3976C1097.29 39.8872 1097.31 40.4214 1097.34 41H1092.06C1092.11 40.2656 1092.14 39.5534 1092.16 38.8635C1092.18 38.1513 1092.21 37.4169 1092.23 36.6602H1081.68V35.8924C1082.26 35.336 1082.78 34.7574 1083.25 34.1565L1094.16 20.5028C1094.41 20.1912 1094.63 19.8908 1094.83 19.6014C1095.05 19.2899 1095.23 19.0228 1095.37 18.8002L1097.3 18.8002L1097.27 32.4873ZM1092.16 25.5102L1086.59 32.4873H1092.26V25.5102H1092.16Z" fill="black"/>
<path d="M1147.39 24.6719C1142.73 22.8115 1137.27 23.8037 1133.54 27.5246C1128.51 32.5477 1128.51 40.6715 1133.54 45.6946C1137.27 49.4154 1142.73 50.4077 1147.39 48.5473V42.5939C1146.46 43.028 1145.47 43.2761 1144.41 43.2761C1140.68 43.2761 1137.7 40.2994 1137.7 36.5786C1137.7 32.8577 1140.68 29.8811 1144.41 29.8811C1145.47 29.8811 1146.52 30.1291 1147.39 30.5632V24.6719Z" fill="black"/>
<path d="M1145.28 18.7059C1147.12 16.8662 1147.12 13.8213 1145.28 11.9182C1143.45 10.0785 1140.41 10.0785 1138.51 11.9182C1136.61 13.7578 1136.67 16.8028 1138.51 18.7059C1140.41 20.5455 1143.45 20.5455 1145.28 18.7059Z" fill="black"/>
<path d="M1178.2 41V40.2322C1178.85 40.1877 1179.32 40.0208 1179.61 39.7314C1179.9 39.4421 1180.04 38.7522 1180.04 37.6617V22.1386C1180.04 21.048 1179.87 20.3581 1179.54 20.0688C1179.23 19.7572 1178.62 19.5903 1177.7 19.5681V18.8002H1187.22V19.5681C1186.57 19.5903 1186.11 19.7572 1185.82 20.0688C1185.53 20.3581 1185.38 21.048 1185.38 22.1386V37.6617C1185.38 38.7522 1185.55 39.4421 1185.88 39.7314C1186.22 40.0208 1186.83 40.1877 1187.72 40.2322V41H1178.2ZM1210.84 41.2671C1210.5 40.911 1210.16 40.566 1209.8 40.2322C1209.45 39.8761 1208.88 39.3531 1208.1 38.6632L1194.95 26.6453H1194.88V37.6617C1194.88 38.4184 1195.07 39.0304 1195.45 39.4978C1195.85 39.9429 1196.53 40.1877 1197.48 40.2322V41H1191.31V40.2322C1191.95 40.1877 1192.42 39.9429 1192.71 39.4978C1193 39.0304 1193.14 38.4184 1193.14 37.6617V22.1386C1193.14 21.048 1192.98 20.3581 1192.64 20.0688C1192.33 19.7572 1191.72 19.5903 1190.81 19.5681V18.8002H1194.81C1195.15 19.2231 1195.5 19.6014 1195.88 19.9353C1196.26 20.2691 1196.69 20.6697 1197.18 21.1371L1210.47 33.155H1210.54V22.1386C1210.54 21.3819 1210.35 20.7698 1209.97 20.3025C1209.59 19.8351 1208.91 19.5903 1207.93 19.5681V18.8002H1214.11V19.5681C1213.46 19.5903 1212.99 19.8351 1212.71 20.3025C1212.42 20.7698 1212.27 21.3819 1212.27 22.1386V37.6617C1212.27 38.2848 1212.27 38.8857 1212.27 39.4644C1212.29 40.0208 1212.32 40.6217 1212.34 41.2671H1210.84ZM1216.75 18.8002L1235.78 18.8002V24.3085H1235.01C1234.87 23.1067 1234.52 22.1274 1233.94 21.3707C1233.36 20.6141 1232.37 20.2357 1230.97 20.2357H1228.93V37.6617C1228.93 38.7522 1229.1 39.4421 1229.43 39.7314C1229.77 40.0208 1230.38 40.1877 1231.27 40.2322V41H1221.76V40.2322C1222.4 40.1877 1222.87 40.0208 1223.16 39.7314C1223.45 39.4421 1223.59 38.7522 1223.59 37.6617V20.2357H1221.52C1220.16 20.2357 1219.18 20.6141 1218.58 21.3707C1218.01 22.1274 1217.65 23.1067 1217.52 24.3085H1216.75V18.8002ZM1238.81 41V40.2322C1239.45 40.1877 1239.92 40.0208 1240.21 39.7314C1240.5 39.4421 1240.64 38.7522 1240.64 37.6617V22.1386C1240.64 21.048 1240.47 20.3581 1240.14 20.0688C1239.83 19.7572 1239.22 19.5903 1238.3 19.5681V18.8002H1254.7V23.4739H1253.93C1253.88 22.5169 1253.55 21.738 1252.93 21.1371C1252.33 20.5362 1251.39 20.2357 1250.12 20.2357H1247.45C1246.98 20.2357 1246.62 20.3581 1246.35 20.6029C1246.11 20.8477 1245.98 21.3596 1245.98 22.1386V28.715C1246.16 28.5815 1246.37 28.4925 1246.62 28.448C1246.88 28.4034 1247.2 28.3812 1247.55 28.3812H1250.79C1251.46 28.3812 1252.01 28.192 1252.46 27.8137C1252.9 27.4353 1253.14 26.9123 1253.16 26.2447H1253.93V31.9198H1253.16C1253.14 31.0963 1252.9 30.54 1252.46 30.2506C1252.01 29.9613 1251.46 29.8167 1250.79 29.8167H1247.62C1247.02 29.8167 1246.59 29.9168 1246.35 30.1171C1246.11 30.3174 1245.98 30.7069 1245.98 31.2855V37.6617C1245.98 38.4406 1246.15 38.9525 1246.48 39.1973C1246.84 39.4421 1247.52 39.5645 1248.52 39.5645H1251.69C1253.03 39.5645 1254.08 39.1639 1254.86 38.3627C1255.64 37.5615 1256.08 36.6046 1256.16 35.4918H1256.93L1256.67 41H1238.81ZM1279.33 41.5007C1278.33 41.5007 1277.47 41.3338 1276.76 41C1276.05 40.6884 1275.45 40.2656 1274.96 39.7314C1274.47 39.1973 1274.01 38.6075 1273.59 37.9621L1268.91 30.6846C1268.69 30.3063 1268.49 30.0726 1268.31 29.9836C1268.13 29.8946 1267.92 29.8389 1267.68 29.8167V28.6483C1269.01 28.5592 1270.05 28.2922 1270.78 27.8471C1271.52 27.402 1272.03 26.8567 1272.32 26.2113C1272.61 25.5436 1272.75 24.8537 1272.75 24.1415C1272.75 22.784 1272.37 21.7713 1271.62 21.1037C1270.86 20.4138 1269.99 20.0688 1269.01 20.0688C1268.28 20.0688 1267.76 20.2023 1267.44 20.4694C1267.15 20.7142 1267.01 21.2706 1267.01 22.1386V37.6617C1267.01 38.7522 1267.18 39.4421 1267.51 39.7314C1267.84 40.0208 1268.46 40.1877 1269.35 40.2322V41H1259.83V40.2322C1260.48 40.1877 1260.95 40.0208 1261.23 39.7314C1261.52 39.4421 1261.67 38.7522 1261.67 37.6617V22.1386C1261.67 21.048 1261.5 20.3581 1261.17 20.0688C1260.86 19.7572 1260.24 19.5903 1259.33 19.5681V18.8002H1261.67C1263.34 18.8002 1264.85 18.778 1266.21 18.7335C1267.57 18.6667 1268.72 18.6333 1269.68 18.6333C1271.88 18.6333 1273.63 18.8448 1274.92 19.2676C1276.24 19.6682 1277.17 20.2357 1277.73 20.9701C1278.3 21.7046 1278.59 22.5391 1278.59 23.4739C1278.59 24.3641 1278.37 25.1764 1277.93 25.9108C1277.5 26.6453 1276.94 27.2684 1276.22 27.7803C1275.53 28.2699 1274.78 28.6149 1273.95 28.8152V28.8819L1279.5 37.5615C1280.14 38.5853 1280.73 39.2863 1281.26 39.6647C1281.8 40.043 1282.28 40.2322 1282.7 40.2322V41C1282.26 41.1558 1281.72 41.2782 1281.1 41.3672C1280.5 41.4562 1279.91 41.5007 1279.33 41.5007ZM1295.09 41.5007C1292.76 41.5007 1290.69 41.0334 1288.89 40.0987C1287.08 39.1639 1285.67 37.8509 1284.65 36.1595C1283.62 34.4458 1283.11 32.4651 1283.11 30.2173C1283.11 28.3701 1283.44 26.7232 1284.11 25.2766C1284.78 23.8077 1285.69 22.5503 1286.85 21.5043C1288.03 20.4583 1289.37 19.6682 1290.89 19.1341C1292.42 18.5777 1294.06 18.2995 1295.8 18.2995C1297.11 18.2995 1298.37 18.4219 1299.57 18.6667C1300.77 18.9115 1301.73 19.2008 1302.44 19.5347V24.8092H1301.67C1301.23 23.4516 1300.69 22.4167 1300.07 21.7046C1299.45 20.9701 1298.74 20.4583 1297.97 20.169C1297.21 19.8796 1296.41 19.735 1295.56 19.735C1291.27 19.735 1289.12 22.8507 1289.12 29.0822C1289.12 31.1297 1289.33 32.9881 1289.75 34.6572C1290.2 36.3264 1290.88 37.6506 1291.79 38.6298C1292.72 39.5868 1293.91 40.0653 1295.36 40.0653C1296.54 40.0653 1297.61 39.776 1298.57 39.1973C1299.52 38.5964 1300.34 37.8064 1301 36.8271C1301.69 35.8479 1302.18 34.7907 1302.47 33.6557H1303.24L1302.97 38.7299C1302.24 39.5311 1301.2 40.1988 1299.87 40.7329C1298.53 41.2448 1296.94 41.5007 1295.09 41.5007ZM1317.38 18.2995C1318.96 18.2995 1320.43 18.5666 1321.78 19.1007C1323.14 19.6348 1324.34 20.4138 1325.39 21.4375C1326.44 22.439 1327.25 23.6519 1327.83 25.0763C1328.41 26.5006 1328.7 28.0919 1328.7 29.85C1328.7 31.6082 1328.41 33.1995 1327.83 34.6238C1327.25 36.0482 1326.44 37.2722 1325.39 38.296C1324.37 39.3197 1323.16 40.1098 1321.78 40.6662C1320.41 41.2226 1318.93 41.5007 1317.34 41.5007C1315.79 41.5007 1314.32 41.2337 1312.94 40.6996C1311.58 40.1654 1310.38 39.3976 1309.33 38.3961C1308.29 37.3724 1307.47 36.1483 1306.9 34.724C1306.32 33.2996 1306.03 31.7084 1306.03 29.9502C1306.03 28.192 1306.32 26.6008 1306.9 25.1764C1307.47 23.7521 1308.28 22.528 1309.3 21.5043C1310.35 20.4805 1311.56 19.6905 1312.94 19.1341C1314.32 18.5777 1315.8 18.2995 1317.38 18.2995ZM1318.05 40.0653C1319.2 40.0653 1320.12 39.6869 1320.78 38.9302C1321.45 38.1513 1321.93 37.0831 1322.22 35.7255C1322.53 34.3679 1322.69 32.7878 1322.69 30.9851C1322.69 27.3574 1322.13 24.5755 1321.02 22.6393C1319.93 20.7031 1318.48 19.735 1316.68 19.735C1315.54 19.735 1314.63 20.1133 1313.94 20.87C1313.27 21.6267 1312.78 22.6949 1312.47 24.0748C1312.18 25.4324 1312.04 27.0125 1312.04 28.8152C1312.04 32.4428 1312.58 35.2247 1313.67 37.1609C1314.79 39.0972 1316.24 40.0653 1318.05 40.0653ZM1344.15 41.2671C1343.97 40.7552 1343.75 40.2322 1343.48 39.6981C1343.24 39.1417 1342.9 38.4184 1342.48 37.5282L1336.47 24.9761H1336.4L1335.8 37.6617C1335.78 38.4184 1335.96 39.0304 1336.34 39.4978C1336.72 39.9429 1337.41 40.1877 1338.41 40.2322V41L1332.23 41V40.2322C1332.88 40.1877 1333.33 39.9429 1333.6 39.4978C1333.89 39.0304 1334.04 38.4184 1334.07 37.6617L1334.77 22.1386C1334.81 21.3596 1334.76 20.8032 1334.6 20.4694C1334.47 20.1356 1334.22 19.9241 1333.87 19.8351C1333.51 19.7238 1333.03 19.6348 1332.43 19.5681V18.8002H1339.58C1339.75 19.3789 1339.95 19.9241 1340.18 20.436C1340.42 20.9479 1340.69 21.5154 1340.98 22.1386L1346.72 34.1565H1346.79L1352.13 22.1386C1352.64 21.0035 1353.03 19.8908 1353.3 18.8002H1360.37V19.5681C1359.95 19.5903 1359.59 19.6571 1359.3 19.7684C1359.02 19.8796 1358.8 20.1133 1358.67 20.4694C1358.56 20.8032 1358.51 21.3596 1358.54 22.1386L1359.24 37.6617C1359.28 38.3739 1359.37 38.908 1359.51 39.2641C1359.66 39.6202 1359.91 39.865 1360.24 39.9985C1360.57 40.1098 1361.02 40.1877 1361.57 40.2322V41H1352.06V40.2322C1352.77 40.1877 1353.26 40.0208 1353.53 39.7314C1353.82 39.4421 1353.94 38.7522 1353.9 37.6617L1353.33 24.008H1353.26L1347.22 37.5282C1346.8 38.4629 1346.49 39.1973 1346.29 39.7314C1346.11 40.2433 1345.95 40.7552 1345.82 41.2671H1344.15ZM1376.2 41.2671C1376.02 40.7552 1375.79 40.2322 1375.53 39.6981C1375.28 39.1417 1374.95 38.4184 1374.53 37.5282L1368.52 24.9761H1368.45L1367.85 37.6617C1367.83 38.4184 1368.01 39.0304 1368.38 39.4978C1368.76 39.9429 1369.45 40.1877 1370.45 40.2322V41H1364.28V40.2322C1364.92 40.1877 1365.38 39.9429 1365.65 39.4978C1365.94 39.0304 1366.09 38.4184 1366.11 37.6617L1366.81 22.1386C1366.86 21.3596 1366.8 20.8032 1366.65 20.4694C1366.51 20.1356 1366.27 19.9241 1365.91 19.8351C1365.56 19.7238 1365.08 19.6348 1364.48 19.5681V18.8002H1371.62C1371.8 19.3789 1372 19.9241 1372.22 20.436C1372.47 20.9479 1372.73 21.5154 1373.02 22.1386L1378.77 34.1565H1378.83L1384.17 22.1386C1384.69 21.0035 1385.08 19.8908 1385.34 18.8002H1392.42V19.5681C1392 19.5903 1391.64 19.6571 1391.35 19.7684C1391.06 19.8796 1390.85 20.1133 1390.72 20.4694C1390.61 20.8032 1390.56 21.3596 1390.58 22.1386L1391.28 37.6617C1391.33 38.3739 1391.42 38.908 1391.55 39.2641C1391.71 39.6202 1391.95 39.865 1392.29 39.9985C1392.62 40.1098 1393.06 40.1877 1393.62 40.2322V41H1384.11V40.2322C1384.82 40.1877 1385.31 40.0208 1385.58 39.7314C1385.87 39.4421 1385.99 38.7522 1385.94 37.6617L1385.38 24.008H1385.31L1379.27 37.5282C1378.84 38.4629 1378.53 39.1973 1378.33 39.7314C1378.15 40.2433 1378 40.7552 1377.86 41.2671H1376.2ZM1419.81 34.8241H1420.58L1420.24 41H1404.15V40.2322C1404.33 40.1432 1404.6 39.9874 1404.95 39.7648C1405.33 39.5423 1405.72 39.2863 1406.12 38.997C1407.24 38.1958 1408.28 37.2833 1409.26 36.2596C1410.24 35.2359 1411.1 34.1453 1411.83 32.9881C1412.57 31.8308 1413.14 30.6735 1413.57 29.5162C1413.99 28.3589 1414.2 27.2573 1414.2 26.2113C1414.2 25.2098 1413.96 24.3641 1413.47 23.6742C1413 22.9843 1412.14 22.6393 1410.9 22.6393C1409.85 22.6393 1408.88 22.9286 1407.99 23.5073C1407.1 24.0859 1406.22 24.9872 1405.36 26.2113L1404.72 25.6772C1405.63 23.3626 1406.78 21.6378 1408.16 20.5028C1409.54 19.3678 1411.26 18.8002 1413.33 18.8002C1414.54 18.8002 1415.61 19.0005 1416.57 19.4011C1417.53 19.7795 1418.29 20.3804 1418.84 21.2038C1419.42 22.005 1419.71 23.051 1419.71 24.3418C1419.71 26.6341 1418.98 28.7818 1417.51 30.7848C1416.06 32.7878 1414.03 34.6683 1411.43 36.4265V36.4933H1416.3C1417.57 36.4933 1418.45 36.3375 1418.94 36.0259C1419.43 35.7143 1419.72 35.3137 1419.81 34.8241ZM1434.02 18.8002C1435.18 18.8002 1436.31 19.0228 1437.42 19.4679C1438.54 19.913 1439.54 20.6029 1440.43 21.5377C1441.32 22.4724 1442.02 23.6519 1442.53 25.0763C1443.07 26.4784 1443.33 28.1475 1443.33 30.0837C1443.33 31.9977 1443.08 33.6668 1442.56 35.0912C1442.05 36.5155 1441.35 37.7062 1440.46 38.6632C1439.57 39.6202 1438.57 40.3323 1437.46 40.7997C1436.34 41.2671 1435.19 41.5007 1433.99 41.5007C1432.83 41.5007 1431.69 41.2782 1430.58 40.8331C1429.47 40.388 1428.47 39.6981 1427.58 38.7633C1426.69 37.8286 1425.97 36.6602 1425.44 35.2581C1424.93 33.8338 1424.67 32.1535 1424.67 30.2173C1424.67 28.3033 1424.93 26.6341 1425.44 25.2098C1425.95 23.7855 1426.65 22.5948 1427.54 21.6378C1428.43 20.6808 1429.43 19.9687 1430.55 19.5013C1431.66 19.0339 1432.82 18.8002 1434.02 18.8002ZM1434.12 40.0653C1434.76 40.0653 1435.35 39.776 1435.89 39.1973C1436.42 38.6187 1436.84 37.6394 1437.16 36.2596C1437.49 34.8798 1437.66 32.9881 1437.66 30.5845C1437.66 28.4925 1437.51 26.6787 1437.22 25.143C1436.96 23.5852 1436.54 22.3834 1435.99 21.5377C1435.43 20.6697 1434.73 20.2357 1433.89 20.2357C1433.26 20.2357 1432.67 20.525 1432.12 21.1037C1431.58 21.6823 1431.15 22.6616 1430.81 24.0414C1430.5 25.4212 1430.35 27.3129 1430.35 29.7165C1430.35 31.8085 1430.48 33.6335 1430.75 35.1913C1431.04 36.727 1431.46 37.9288 1432.02 38.7967C1432.57 39.6424 1433.27 40.0653 1434.12 40.0653ZM1461.77 34.8241H1462.54L1462.2 41H1446.11V40.2322C1446.29 40.1432 1446.56 39.9874 1446.91 39.7648C1447.29 39.5423 1447.68 39.2863 1448.08 38.997C1449.19 38.1958 1450.24 37.2833 1451.22 36.2596C1452.2 35.2359 1453.05 34.1453 1453.79 32.9881C1454.52 31.8308 1455.1 30.6735 1455.52 29.5162C1455.95 28.3589 1456.16 27.2573 1456.16 26.2113C1456.16 25.2098 1455.91 24.3641 1455.42 23.6742C1454.96 22.9843 1454.1 22.6393 1452.85 22.6393C1451.81 22.6393 1450.84 22.9286 1449.95 23.5073C1449.06 24.0859 1448.18 24.9872 1447.31 26.2113L1446.68 25.6772C1447.59 23.3626 1448.74 21.6378 1450.12 20.5028C1451.5 19.3678 1453.22 18.8002 1455.29 18.8002C1456.49 18.8002 1457.57 19.0005 1458.53 19.4011C1459.49 19.7795 1460.24 20.3804 1460.8 21.2038C1461.38 22.005 1461.67 23.051 1461.67 24.3418C1461.67 26.6341 1460.93 28.7818 1459.46 30.7848C1458.02 32.7878 1455.99 34.6683 1453.39 36.4265V36.4933H1458.26C1459.53 36.4933 1460.41 36.3375 1460.9 36.0259C1461.39 35.7143 1461.68 35.3137 1461.77 34.8241ZM1480.32 32.4873H1482.65V36.6602H1481.25C1480.63 36.6602 1480.32 37.0497 1480.32 37.8286C1480.32 38.3627 1480.32 38.8857 1480.32 39.3976C1480.34 39.8872 1480.36 40.4214 1480.38 41H1475.11C1475.15 40.2656 1475.19 39.5534 1475.21 38.8635C1475.23 38.1513 1475.25 37.4169 1475.27 36.6602H1464.73V35.8924C1465.3 35.336 1465.83 34.7574 1466.29 34.1565L1477.21 20.5028C1477.46 20.1912 1477.68 19.8908 1477.88 19.6014C1478.1 19.2899 1478.28 19.0228 1478.41 18.8002L1480.35 18.8002L1480.32 32.4873ZM1475.21 25.5102L1469.63 32.4873H1475.31V25.5102H1475.21Z" fill="black"/>
<path d="M1530.43 24.6719C1525.77 22.8115 1520.31 23.8037 1516.58 27.5246C1511.55 32.5477 1511.55 40.6715 1516.58 45.6946C1520.31 49.4154 1525.77 50.4077 1530.43 48.5473V42.5939C1529.5 43.028 1528.5 43.2761 1527.45 43.2761C1523.72 43.2761 1520.74 40.2994 1520.74 36.5786C1520.74 32.8577 1523.72 29.8811 1527.45 29.8811C1528.5 29.8811 1529.56 30.1291 1530.43 30.5632V24.6719Z" fill="black"/>
<path d="M1528.32 18.7059C1530.15 16.8662 1530.15 13.8213 1528.32 11.9182C1526.48 10.0785 1523.45 10.0785 1521.55 11.9182C1519.65 13.7578 1519.71 16.8028 1521.55 18.7059C1523.45 20.5455 1526.48 20.5455 1528.32 18.7059Z" fill="black"/>
<path d="M1561.24 41V40.2322C1561.89 40.1877 1562.36 40.0208 1562.65 39.7314C1562.94 39.4421 1563.08 38.7522 1563.08 37.6617V22.1386C1563.08 21.048 1562.91 20.3581 1562.58 20.0688C1562.27 19.7572 1561.66 19.5903 1560.74 19.5681V18.8002H1570.26V19.5681C1569.61 19.5903 1569.14 19.7572 1568.86 20.0688C1568.57 20.3581 1568.42 21.048 1568.42 22.1386V37.6617C1568.42 38.7522 1568.59 39.4421 1568.92 39.7314C1569.26 40.0208 1569.87 40.1877 1570.76 40.2322V41H1561.24ZM1593.88 41.2671C1593.54 40.911 1593.2 40.566 1592.84 40.2322C1592.48 39.8761 1591.92 39.3531 1591.14 38.6632L1577.98 26.6453H1577.92V37.6617C1577.92 38.4184 1578.11 39.0304 1578.49 39.4978C1578.89 39.9429 1579.56 40.1877 1580.52 40.2322V41H1574.35V40.2322C1574.99 40.1877 1575.46 39.9429 1575.75 39.4978C1576.04 39.0304 1576.18 38.4184 1576.18 37.6617V22.1386C1576.18 21.048 1576.02 20.3581 1575.68 20.0688C1575.37 19.7572 1574.76 19.5903 1573.85 19.5681V18.8002H1577.85C1578.19 19.2231 1578.54 19.6014 1578.92 19.9353C1579.3 20.2691 1579.73 20.6697 1580.22 21.1371L1593.51 33.155H1593.57V22.1386C1593.57 21.3819 1593.39 20.7698 1593.01 20.3025C1592.63 19.8351 1591.95 19.5903 1590.97 19.5681V18.8002H1597.15V19.5681C1596.5 19.5903 1596.03 19.8351 1595.74 20.3025C1595.46 20.7698 1595.31 21.3819 1595.31 22.1386V37.6617C1595.31 38.2848 1595.31 38.8857 1595.31 39.4644C1595.33 40.0208 1595.36 40.6217 1595.38 41.2671H1593.88ZM1599.79 18.8002L1618.82 18.8002V24.3085H1618.05C1617.91 23.1067 1617.56 22.1274 1616.98 21.3707C1616.4 20.6141 1615.41 20.2357 1614.01 20.2357H1611.97V37.6617C1611.97 38.7522 1612.14 39.4421 1612.47 39.7314C1612.81 40.0208 1613.42 40.1877 1614.31 40.2322V41H1604.79V40.2322C1605.44 40.1877 1605.91 40.0208 1606.2 39.7314C1606.49 39.4421 1606.63 38.7522 1606.63 37.6617V20.2357H1604.56C1603.2 20.2357 1602.22 20.6141 1601.62 21.3707C1601.04 22.1274 1600.69 23.1067 1600.55 24.3085H1599.79V18.8002ZM1621.84 41V40.2322C1622.49 40.1877 1622.96 40.0208 1623.25 39.7314C1623.54 39.4421 1623.68 38.7522 1623.68 37.6617V22.1386C1623.68 21.048 1623.51 20.3581 1623.18 20.0688C1622.87 19.7572 1622.26 19.5903 1621.34 19.5681V18.8002H1637.73V23.4739H1636.97C1636.92 22.5169 1636.59 21.738 1635.97 21.1371C1635.36 20.5362 1634.43 20.2357 1633.16 20.2357H1630.49C1630.02 20.2357 1629.66 20.3581 1629.39 20.6029C1629.14 20.8477 1629.02 21.3596 1629.02 22.1386V28.715C1629.2 28.5815 1629.41 28.4925 1629.66 28.448C1629.92 28.4034 1630.23 28.3812 1630.59 28.3812H1633.83C1634.5 28.3812 1635.05 28.192 1635.5 27.8137C1635.94 27.4353 1636.18 26.9123 1636.2 26.2447H1636.97V31.9198H1636.2C1636.18 31.0963 1635.94 30.54 1635.5 30.2506C1635.05 29.9613 1634.5 29.8167 1633.83 29.8167H1630.66C1630.06 29.8167 1629.63 29.9168 1629.39 30.1171C1629.14 30.3174 1629.02 30.7069 1629.02 31.2855V37.6617C1629.02 38.4406 1629.19 38.9525 1629.52 39.1973C1629.88 39.4421 1630.56 39.5645 1631.56 39.5645H1634.73C1636.07 39.5645 1637.12 39.1639 1637.9 38.3627C1638.68 37.5615 1639.11 36.6046 1639.2 35.4918H1639.97L1639.7 41H1621.84ZM1662.37 41.5007C1661.37 41.5007 1660.51 41.3338 1659.8 41C1659.08 40.6884 1658.48 40.2656 1657.99 39.7314C1657.5 39.1973 1657.05 38.6075 1656.63 37.9621L1651.95 30.6846C1651.73 30.3063 1651.53 30.0726 1651.35 29.9836C1651.17 29.8946 1650.96 29.8389 1650.72 29.8167V28.6483C1652.05 28.5592 1653.09 28.2922 1653.82 27.8471C1654.56 27.402 1655.07 26.8567 1655.36 26.2113C1655.65 25.5436 1655.79 24.8537 1655.79 24.1415C1655.79 22.784 1655.41 21.7713 1654.66 21.1037C1653.9 20.4138 1653.03 20.0688 1652.05 20.0688C1651.32 20.0688 1650.79 20.2023 1650.48 20.4694C1650.19 20.7142 1650.05 21.2706 1650.05 22.1386V37.6617C1650.05 38.7522 1650.22 39.4421 1650.55 39.7314C1650.88 40.0208 1651.5 40.1877 1652.39 40.2322V41H1642.87V40.2322C1643.52 40.1877 1643.98 40.0208 1644.27 39.7314C1644.56 39.4421 1644.71 38.7522 1644.71 37.6617V22.1386C1644.71 21.048 1644.54 20.3581 1644.21 20.0688C1643.9 19.7572 1643.28 19.5903 1642.37 19.5681V18.8002H1644.71C1646.38 18.8002 1647.89 18.778 1649.25 18.7335C1650.61 18.6667 1651.76 18.6333 1652.72 18.6333C1654.92 18.6333 1656.67 18.8448 1657.96 19.2676C1659.27 19.6682 1660.21 20.2357 1660.77 20.9701C1661.34 21.7046 1661.63 22.5391 1661.63 23.4739C1661.63 24.3641 1661.41 25.1764 1660.97 25.9108C1660.54 26.6453 1659.98 27.2684 1659.26 27.7803C1658.57 28.2699 1657.82 28.6149 1656.99 28.8152V28.8819L1662.53 37.5615C1663.18 38.5853 1663.77 39.2863 1664.3 39.6647C1664.84 40.043 1665.32 40.2322 1665.74 40.2322V41C1665.29 41.1558 1664.76 41.2782 1664.14 41.3672C1663.54 41.4562 1662.95 41.5007 1662.37 41.5007ZM1678.13 41.5007C1675.8 41.5007 1673.73 41.0334 1671.92 40.0987C1670.12 39.1639 1668.71 37.8509 1667.68 36.1595C1666.66 34.4458 1666.15 32.4651 1666.15 30.2173C1666.15 28.3701 1666.48 26.7232 1667.15 25.2766C1667.82 23.8077 1668.73 22.5503 1669.89 21.5043C1671.07 20.4583 1672.41 19.6682 1673.93 19.1341C1675.46 18.5777 1677.1 18.2995 1678.83 18.2995C1680.15 18.2995 1681.4 18.4219 1682.61 18.6667C1683.81 18.9115 1684.77 19.2008 1685.48 19.5347V24.8092H1684.71C1684.26 23.4516 1683.73 22.4167 1683.11 21.7046C1682.48 20.9701 1681.78 20.4583 1681 20.169C1680.25 19.8796 1679.45 19.735 1678.6 19.735C1674.31 19.735 1672.16 22.8507 1672.16 29.0822C1672.16 31.1297 1672.37 32.9881 1672.79 34.6572C1673.24 36.3264 1673.92 37.6506 1674.83 38.6298C1675.76 39.5868 1676.95 40.0653 1678.4 40.0653C1679.58 40.0653 1680.65 39.776 1681.61 39.1973C1682.56 38.5964 1683.37 37.8064 1684.04 36.8271C1684.73 35.8479 1685.22 34.7907 1685.51 33.6557H1686.28L1686.01 38.7299C1685.28 39.5311 1684.24 40.1988 1682.91 40.7329C1681.57 41.2448 1679.98 41.5007 1678.13 41.5007ZM1700.42 18.2995C1702 18.2995 1703.47 18.5666 1704.82 19.1007C1706.18 19.6348 1707.38 20.4138 1708.43 21.4375C1709.48 22.439 1710.29 23.6519 1710.87 25.0763C1711.44 26.5006 1711.73 28.0919 1711.73 29.85C1711.73 31.6082 1711.44 33.1995 1710.87 34.6238C1710.29 36.0482 1709.48 37.2722 1708.43 38.296C1707.41 39.3197 1706.2 40.1098 1704.82 40.6662C1703.44 41.2226 1701.96 41.5007 1700.38 41.5007C1698.83 41.5007 1697.36 41.2337 1695.98 40.6996C1694.62 40.1654 1693.42 39.3976 1692.37 38.3961C1691.33 37.3724 1690.51 36.1483 1689.94 34.724C1689.36 33.2996 1689.07 31.7084 1689.07 29.9502C1689.07 28.192 1689.36 26.6008 1689.94 25.1764C1690.51 23.7521 1691.31 22.528 1692.34 21.5043C1693.38 20.4805 1694.6 19.6905 1695.98 19.1341C1697.36 18.5777 1698.84 18.2995 1700.42 18.2995ZM1701.09 40.0653C1702.24 40.0653 1703.15 39.6869 1703.82 38.9302C1704.49 38.1513 1704.97 37.0831 1705.26 35.7255C1705.57 34.3679 1705.73 32.7878 1705.73 30.9851C1705.73 27.3574 1705.17 24.5755 1704.06 22.6393C1702.97 20.7031 1701.52 19.735 1699.72 19.735C1698.58 19.735 1697.67 20.1133 1696.98 20.87C1696.31 21.6267 1695.82 22.6949 1695.51 24.0748C1695.22 25.4324 1695.08 27.0125 1695.08 28.8152C1695.08 32.4428 1695.62 35.2247 1696.71 37.1609C1697.82 39.0972 1699.28 40.0653 1701.09 40.0653ZM1727.19 41.2671C1727.01 40.7552 1726.79 40.2322 1726.52 39.6981C1726.28 39.1417 1725.94 38.4184 1725.52 37.5282L1719.51 24.9761H1719.44L1718.84 37.6617C1718.82 38.4184 1719 39.0304 1719.38 39.4978C1719.75 39.9429 1720.44 40.1877 1721.45 40.2322V41L1715.27 41V40.2322C1715.92 40.1877 1716.37 39.9429 1716.64 39.4978C1716.93 39.0304 1717.08 38.4184 1717.11 37.6617L1717.81 22.1386C1717.85 21.3596 1717.8 20.8032 1717.64 20.4694C1717.51 20.1356 1717.26 19.9241 1716.91 19.8351C1716.55 19.7238 1716.07 19.6348 1715.47 19.5681V18.8002H1722.61C1722.79 19.3789 1722.99 19.9241 1723.22 20.436C1723.46 20.9479 1723.73 21.5154 1724.02 22.1386L1729.76 34.1565H1729.83L1735.17 22.1386C1735.68 21.0035 1736.07 19.8908 1736.33 18.8002H1743.41V19.5681C1742.99 19.5903 1742.63 19.6571 1742.34 19.7684C1742.05 19.8796 1741.84 20.1133 1741.71 20.4694C1741.6 20.8032 1741.55 21.3596 1741.58 22.1386L1742.28 37.6617C1742.32 38.3739 1742.41 38.908 1742.54 39.2641C1742.7 39.6202 1742.94 39.865 1743.28 39.9985C1743.61 40.1098 1744.06 40.1877 1744.61 40.2322V41H1735.1V40.2322C1735.81 40.1877 1736.3 40.0208 1736.57 39.7314C1736.86 39.4421 1736.98 38.7522 1736.94 37.6617L1736.37 24.008H1736.3L1730.26 37.5282C1729.84 38.4629 1729.52 39.1973 1729.32 39.7314C1729.15 40.2433 1728.99 40.7552 1728.86 41.2671H1727.19ZM1759.23 41.2671C1759.06 40.7552 1758.83 40.2322 1758.57 39.6981C1758.32 39.1417 1757.99 38.4184 1757.57 37.5282L1751.56 24.9761H1751.49L1750.89 37.6617C1750.87 38.4184 1751.04 39.0304 1751.42 39.4978C1751.8 39.9429 1752.49 40.1877 1753.49 40.2322V41H1747.32V40.2322C1747.96 40.1877 1748.42 39.9429 1748.69 39.4978C1748.97 39.0304 1749.13 38.4184 1749.15 37.6617L1749.85 22.1386C1749.9 21.3596 1749.84 20.8032 1749.69 20.4694C1749.55 20.1356 1749.31 19.9241 1748.95 19.8351C1748.6 19.7238 1748.12 19.6348 1747.52 19.5681V18.8002H1754.66C1754.84 19.3789 1755.04 19.9241 1755.26 20.436C1755.51 20.9479 1755.77 21.5154 1756.06 22.1386L1761.8 34.1565H1761.87L1767.21 22.1386C1767.72 21.0035 1768.11 19.8908 1768.38 18.8002H1775.46V19.5681C1775.04 19.5903 1774.68 19.6571 1774.39 19.7684C1774.1 19.8796 1773.89 20.1133 1773.76 20.4694C1773.64 20.8032 1773.6 21.3596 1773.62 22.1386L1774.32 37.6617C1774.37 38.3739 1774.46 38.908 1774.59 39.2641C1774.75 39.6202 1774.99 39.865 1775.33 39.9985C1775.66 40.1098 1776.1 40.1877 1776.66 40.2322V41H1767.15V40.2322C1767.86 40.1877 1768.35 40.0208 1768.62 39.7314C1768.9 39.4421 1769.03 38.7522 1768.98 37.6617L1768.41 24.008H1768.35L1762.31 37.5282C1761.88 38.4629 1761.57 39.1973 1761.37 39.7314C1761.19 40.2433 1761.04 40.7552 1760.9 41.2671H1759.23ZM1802.85 34.8241H1803.62L1803.28 41H1787.19V40.2322C1787.37 40.1432 1787.64 39.9874 1787.99 39.7648C1788.37 39.5423 1788.76 39.2863 1789.16 38.997C1790.27 38.1958 1791.32 37.2833 1792.3 36.2596C1793.28 35.2359 1794.14 34.1453 1794.87 32.9881C1795.61 31.8308 1796.18 30.6735 1796.61 29.5162C1797.03 28.3589 1797.24 27.2573 1797.24 26.2113C1797.24 25.2098 1797 24.3641 1796.51 23.6742C1796.04 22.9843 1795.18 22.6393 1793.94 22.6393C1792.89 22.6393 1791.92 22.9286 1791.03 23.5073C1790.14 24.0859 1789.26 24.9872 1788.39 26.2113L1787.76 25.6772C1788.67 23.3626 1789.82 21.6378 1791.2 20.5028C1792.58 19.3678 1794.3 18.8002 1796.37 18.8002C1797.57 18.8002 1798.65 19.0005 1799.61 19.4011C1800.57 19.7795 1801.32 20.3804 1801.88 21.2038C1802.46 22.005 1802.75 23.051 1802.75 24.3418C1802.75 26.6341 1802.01 28.7818 1800.55 30.7848C1799.1 32.7878 1797.07 34.6683 1794.47 36.4265V36.4933H1799.34C1800.61 36.4933 1801.49 36.3375 1801.98 36.0259C1802.47 35.7143 1802.76 35.3137 1802.85 34.8241ZM1817.06 18.8002C1818.21 18.8002 1819.35 19.0228 1820.46 19.4679C1821.58 19.913 1822.58 20.6029 1823.47 21.5377C1824.36 22.4724 1825.06 23.6519 1825.57 25.0763C1826.1 26.4784 1826.37 28.1475 1826.37 30.0837C1826.37 31.9977 1826.12 33.6668 1825.6 35.0912C1825.09 36.5155 1824.39 37.7062 1823.5 38.6632C1822.61 39.6202 1821.61 40.3323 1820.5 40.7997C1819.38 41.2671 1818.23 41.5007 1817.02 41.5007C1815.87 41.5007 1814.73 41.2782 1813.62 40.8331C1812.51 40.388 1811.5 39.6981 1810.61 38.7633C1809.72 37.8286 1809.01 36.6602 1808.48 35.2581C1807.97 33.8338 1807.71 32.1535 1807.71 30.2173C1807.71 28.3033 1807.97 26.6341 1808.48 25.2098C1808.99 23.7855 1809.69 22.5948 1810.58 21.6378C1811.47 20.6808 1812.47 19.9687 1813.59 19.5013C1814.7 19.0339 1815.86 18.8002 1817.06 18.8002ZM1817.16 40.0653C1817.8 40.0653 1818.39 39.776 1818.93 39.1973C1819.46 38.6187 1819.88 37.6394 1820.2 36.2596C1820.53 34.8798 1820.7 32.9881 1820.7 30.5845C1820.7 28.4925 1820.55 26.6787 1820.26 25.143C1820 23.5852 1819.58 22.3834 1819.03 21.5377C1818.47 20.6697 1817.77 20.2357 1816.92 20.2357C1816.3 20.2357 1815.71 20.525 1815.15 21.1037C1814.62 21.6823 1814.19 22.6616 1813.85 24.0414C1813.54 25.4212 1813.39 27.3129 1813.39 29.7165C1813.39 31.8085 1813.52 33.6335 1813.79 35.1913C1814.08 36.727 1814.5 37.9288 1815.05 38.7967C1815.61 39.6424 1816.31 40.0653 1817.16 40.0653ZM1844.81 34.8241H1845.57L1845.24 41H1829.15V40.2322C1829.33 40.1432 1829.59 39.9874 1829.95 39.7648C1830.33 39.5423 1830.72 39.2863 1831.12 38.997C1832.23 38.1958 1833.28 37.2833 1834.26 36.2596C1835.24 35.2359 1836.09 34.1453 1836.83 32.9881C1837.56 31.8308 1838.14 30.6735 1838.56 29.5162C1838.99 28.3589 1839.2 27.2573 1839.2 26.2113C1839.2 25.2098 1838.95 24.3641 1838.46 23.6742C1838 22.9843 1837.14 22.6393 1835.89 22.6393C1834.85 22.6393 1833.88 22.9286 1832.99 23.5073C1832.1 24.0859 1831.22 24.9872 1830.35 26.2113L1829.72 25.6772C1830.63 23.3626 1831.78 21.6378 1833.16 20.5028C1834.54 19.3678 1836.26 18.8002 1838.33 18.8002C1839.53 18.8002 1840.61 19.0005 1841.57 19.4011C1842.53 19.7795 1843.28 20.3804 1843.84 21.2038C1844.42 22.005 1844.71 23.051 1844.71 24.3418C1844.71 26.6341 1843.97 28.7818 1842.5 30.7848C1841.06 32.7878 1839.03 34.6683 1836.43 36.4265V36.4933H1841.3C1842.57 36.4933 1843.45 36.3375 1843.94 36.0259C1844.43 35.7143 1844.72 35.3137 1844.81 34.8241ZM1863.35 32.4873H1865.69V36.6602H1864.29C1863.67 36.6602 1863.35 37.0497 1863.35 37.8286C1863.35 38.3627 1863.35 38.8857 1863.35 39.3976C1863.38 39.8872 1863.4 40.4214 1863.42 41H1858.15C1858.19 40.2656 1858.22 39.5534 1858.25 38.8635C1858.27 38.1513 1858.29 37.4169 1858.31 36.6602H1847.76V35.8924C1848.34 35.336 1848.87 34.7574 1849.33 34.1565L1860.25 20.5028C1860.49 20.1912 1860.72 19.8908 1860.92 19.6014C1861.14 19.2899 1861.32 19.0228 1861.45 18.8002L1863.39 18.8002L1863.35 32.4873ZM1858.25 25.5102L1852.67 32.4873H1858.35V25.5102H1858.25Z" fill="black"/>
<defs>
<linearGradient id="paint0_linear_599_2531" x1="0" y1="30" x2="1893.59" y2="30" gradientUnits="userSpaceOnUse">
<stop stop-color="white"/>
<stop offset="0.325" stop-color="#D4D4D4"/>
<stop offset="0.685" stop-color="white"/>
<stop offset="0.98" stop-color="#D4D4D4"/>
</linearGradient>
</defs>
</svg>
