<svg width="2839" height="90" viewBox="0 0 2839 90" fill="none" xmlns="http://www.w3.org/2000/svg">
<rect width="2839" height="90" fill="url(#paint0_linear_562_1115)"/>
<path d="M42.852 62V60.85C43.8187 60.7833 44.5187 60.5333 44.952 60.1C45.3853 59.6667 45.602 58.6333 45.602 57V33.75C45.602 32.1167 45.352 31.0833 44.852 30.65C44.3853 30.1833 43.4687 29.9333 42.102 29.9V28.75H56.352V29.9C55.3853 29.9333 54.6853 30.1833 54.252 30.65C53.8187 31.0833 53.602 32.1167 53.602 33.75V57C53.602 58.6333 53.852 59.6667 54.352 60.1C54.852 60.5333 55.7687 60.7833 57.102 60.85V62H42.852ZM91.7262 62.4C91.2262 61.8667 90.7095 61.35 90.1762 60.85C89.6429 60.3167 88.7929 59.5333 87.6262 58.5L67.9262 40.5H67.8262V57C67.8262 58.1333 68.1095 59.05 68.6762 59.75C69.2762 60.4167 70.2929 60.7833 71.7262 60.85V62H62.4762V60.85C63.4429 60.7833 64.1429 60.4167 64.5762 59.75C65.0095 59.05 65.2262 58.1333 65.2262 57V33.75C65.2262 32.1167 64.9762 31.0833 64.4762 30.65C64.0095 30.1833 63.0929 29.9333 61.7262 29.9V28.75H67.7262C68.2262 29.3833 68.7595 29.95 69.3262 30.45C69.8929 30.95 70.5429 31.55 71.2762 32.25L91.1762 50.25H91.2762V33.75C91.2762 32.6167 90.9929 31.7 90.4262 31C89.8595 30.3 88.8429 29.9333 87.3762 29.9V28.75L96.6262 28.75V29.9C95.6596 29.9333 94.9596 30.3 94.5262 31C94.0929 31.7 93.8762 32.6167 93.8762 33.75V57C93.8762 57.9333 93.8762 58.8333 93.8762 59.7C93.9095 60.5333 93.9429 61.4333 93.9762 62.4H91.7262ZM100.581 28.75L129.081 28.75V37H127.931C127.731 35.2 127.197 33.7333 126.331 32.6C125.464 31.4667 123.981 30.9 121.881 30.9L118.831 30.9V57C118.831 58.6333 119.081 59.6667 119.581 60.1C120.081 60.5333 120.997 60.7833 122.331 60.85V62H108.081V60.85C109.047 60.7833 109.747 60.5333 110.181 60.1C110.614 59.6667 110.831 58.6333 110.831 57V30.9H107.731C105.697 30.9 104.231 31.4667 103.331 32.6C102.464 33.7333 101.931 35.2 101.731 37H100.581V28.75ZM133.618 62V60.85C134.584 60.7833 135.284 60.5333 135.718 60.1C136.151 59.6667 136.368 58.6333 136.368 57V33.75C136.368 32.1167 136.118 31.0833 135.618 30.65C135.151 30.1833 134.234 29.9333 132.868 29.9V28.75H157.418V35.75H156.268C156.201 34.3167 155.701 33.15 154.768 32.25C153.868 31.35 152.468 30.9 150.568 30.9H146.568C145.868 30.9 145.318 31.0833 144.918 31.45C144.551 31.8167 144.368 32.5833 144.368 33.75V43.6C144.634 43.4 144.951 43.2667 145.318 43.2C145.718 43.1333 146.184 43.1 146.718 43.1H151.568C152.568 43.1 153.401 42.8167 154.068 42.25C154.734 41.6833 155.084 40.9 155.118 39.9H156.268V48.4H155.118C155.084 47.1667 154.734 46.3333 154.068 45.9C153.401 45.4667 152.568 45.25 151.568 45.25H146.818C145.918 45.25 145.284 45.4 144.918 45.7C144.551 46 144.368 46.5833 144.368 47.45V57C144.368 58.1667 144.618 58.9333 145.118 59.3C145.651 59.6667 146.668 59.85 148.168 59.85H152.918C154.918 59.85 156.501 59.25 157.668 58.05C158.834 56.85 159.484 55.4167 159.618 53.75H160.768L160.368 62H133.618ZM194.312 62.75C192.812 62.75 191.528 62.5 190.462 62C189.395 61.5333 188.495 60.9 187.762 60.1C187.028 59.3 186.345 58.4167 185.712 57.45L178.712 46.55C178.378 45.9833 178.078 45.6333 177.812 45.5C177.545 45.3667 177.228 45.2833 176.862 45.25V43.5C178.862 43.3667 180.412 42.9667 181.512 42.3C182.612 41.6333 183.378 40.8167 183.812 39.85C184.245 38.85 184.462 37.8167 184.462 36.75C184.462 34.7167 183.895 33.2 182.762 32.2C181.628 31.1667 180.328 30.65 178.862 30.65C177.762 30.65 176.978 30.85 176.512 31.25C176.078 31.6167 175.862 32.45 175.862 33.75V57C175.862 58.6333 176.112 59.6667 176.612 60.1C177.112 60.5333 178.028 60.7833 179.362 60.85V62H165.112V60.85C166.078 60.7833 166.778 60.5333 167.212 60.1C167.645 59.6667 167.862 58.6333 167.862 57V33.75C167.862 32.1167 167.612 31.0833 167.112 30.65C166.645 30.1833 165.728 29.9333 164.362 29.9V28.75H167.862C170.362 28.75 172.628 28.7167 174.662 28.65C176.695 28.55 178.428 28.5 179.862 28.5C183.162 28.5 185.778 28.8167 187.712 29.45C189.678 30.05 191.078 30.9 191.912 32C192.778 33.1 193.212 34.35 193.212 35.75C193.212 37.0833 192.878 38.3 192.212 39.4C191.578 40.5 190.728 41.4333 189.662 42.2C188.628 42.9333 187.495 43.45 186.262 43.75V43.85L194.562 56.85C195.528 58.3833 196.412 59.4333 197.212 60C198.012 60.5667 198.728 60.85 199.362 60.85V62C198.695 62.2333 197.895 62.4167 196.962 62.55C196.062 62.6833 195.178 62.75 194.312 62.75ZM217.925 62.75C214.425 62.75 211.325 62.05 208.625 60.65C205.925 59.25 203.808 57.2833 202.275 54.75C200.742 52.1833 199.975 49.2167 199.975 45.85C199.975 43.0833 200.475 40.6167 201.475 38.45C202.475 36.25 203.842 34.3667 205.575 32.8C207.342 31.2333 209.358 30.05 211.625 29.25C213.925 28.4167 216.375 28 218.975 28C220.942 28 222.825 28.1833 224.625 28.55C226.425 28.9167 227.858 29.35 228.925 29.85V37.75H227.775C227.108 35.7167 226.308 34.1667 225.375 33.1C224.442 32 223.392 31.2333 222.225 30.8C221.092 30.3667 219.892 30.15 218.625 30.15C212.192 30.15 208.975 34.8167 208.975 44.15C208.975 47.2167 209.292 50 209.925 52.5C210.592 55 211.608 56.9833 212.975 58.45C214.375 59.8833 216.158 60.6 218.325 60.6C220.092 60.6 221.692 60.1667 223.125 59.3C224.558 58.4 225.775 57.2167 226.775 55.75C227.808 54.2833 228.542 52.7 228.975 51H230.125L229.725 58.6C228.625 59.8 227.075 60.8 225.075 61.6C223.075 62.3667 220.692 62.75 217.925 62.75ZM251.301 28C253.668 28 255.868 28.4 257.901 29.2C259.935 30 261.735 31.1667 263.301 32.7C264.868 34.2 266.085 36.0167 266.951 38.15C267.818 40.2833 268.251 42.6667 268.251 45.3C268.251 47.9333 267.818 50.3167 266.951 52.45C266.085 54.5833 264.868 56.4167 263.301 57.95C261.768 59.4833 259.968 60.6667 257.901 61.5C255.835 62.3333 253.618 62.75 251.251 62.75C248.918 62.75 246.718 62.35 244.651 61.55C242.618 60.75 240.818 59.6 239.251 58.1C237.685 56.5667 236.468 54.7333 235.601 52.6C234.735 50.4667 234.301 48.0833 234.301 45.45C234.301 42.8167 234.735 40.4333 235.601 38.3C236.468 36.1667 237.668 34.3333 239.201 32.8C240.768 31.2667 242.585 30.0833 244.651 29.25C246.718 28.4167 248.935 28 251.301 28ZM252.301 60.6C254.035 60.6 255.401 60.0333 256.401 58.9C257.401 57.7333 258.118 56.1333 258.551 54.1C259.018 52.0667 259.251 49.7 259.251 47C259.251 41.5667 258.418 37.4 256.751 34.5C255.118 31.6 252.951 30.15 250.251 30.15C248.551 30.15 247.185 30.7167 246.151 31.85C245.151 32.9833 244.418 34.5833 243.951 36.65C243.518 38.6833 243.301 41.05 243.301 43.75C243.301 49.1833 244.118 53.35 245.751 56.25C247.418 59.15 249.601 60.6 252.301 60.6ZM291.397 62.4C291.131 61.6333 290.797 60.85 290.397 60.05C290.031 59.2167 289.531 58.1333 288.897 56.8L279.897 38H279.797L278.897 57C278.864 58.1333 279.131 59.05 279.697 59.75C280.264 60.4167 281.297 60.7833 282.797 60.85V62H273.547V60.85C274.514 60.7833 275.197 60.4167 275.597 59.75C276.031 59.05 276.264 58.1333 276.297 57L277.347 33.75C277.414 32.5833 277.331 31.75 277.097 31.25C276.897 30.75 276.531 30.4333 275.997 30.3C275.464 30.1333 274.747 30 273.847 29.9V28.75H284.547C284.814 29.6167 285.114 30.4333 285.447 31.2C285.814 31.9667 286.214 32.8167 286.647 33.75L295.247 51.75H295.347L303.347 33.75C304.114 32.05 304.697 30.3833 305.097 28.75H315.697V29.9C315.064 29.9333 314.531 30.0333 314.097 30.2C313.664 30.3667 313.347 30.7167 313.147 31.25C312.981 31.75 312.914 32.5833 312.947 33.75L313.997 57C314.064 58.0667 314.197 58.8667 314.397 59.4C314.631 59.9333 314.997 60.3 315.497 60.5C315.997 60.6667 316.664 60.7833 317.497 60.85V62H303.247V60.85C304.314 60.7833 305.047 60.5333 305.447 60.1C305.881 59.6667 306.064 58.6333 305.997 57L305.147 36.55H305.047L295.997 56.8C295.364 58.2 294.897 59.3 294.597 60.1C294.331 60.8667 294.097 61.6333 293.897 62.4H291.397ZM339.395 62.4C339.129 61.6333 338.795 60.85 338.395 60.05C338.029 59.2167 337.529 58.1333 336.895 56.8L327.895 38H327.795L326.895 57C326.862 58.1333 327.129 59.05 327.695 59.75C328.262 60.4167 329.295 60.7833 330.795 60.85V62H321.545V60.85C322.512 60.7833 323.195 60.4167 323.595 59.75C324.029 59.05 324.262 58.1333 324.295 57L325.345 33.75C325.412 32.5833 325.329 31.75 325.095 31.25C324.895 30.75 324.529 30.4333 323.995 30.3C323.462 30.1333 322.745 30 321.845 29.9V28.75H332.545C332.812 29.6167 333.112 30.4333 333.445 31.2C333.812 31.9667 334.212 32.8167 334.645 33.75L343.245 51.75H343.345L351.345 33.75C352.112 32.05 352.695 30.3833 353.095 28.75H363.695V29.9C363.062 29.9333 362.529 30.0333 362.095 30.2C361.662 30.3667 361.345 30.7167 361.145 31.25C360.979 31.75 360.912 32.5833 360.945 33.75L361.995 57C362.062 58.0667 362.195 58.8667 362.395 59.4C362.629 59.9333 362.995 60.3 363.495 60.5C363.995 60.6667 364.662 60.7833 365.495 60.85V62L351.245 62V60.85C352.312 60.7833 353.045 60.5333 353.445 60.1C353.879 59.6667 354.062 58.6333 353.995 57L353.145 36.55H353.045L343.995 56.8C343.362 58.2 342.895 59.3 342.595 60.1C342.329 60.8667 342.095 61.6333 341.895 62.4H339.395ZM404.72 52.75H405.87L405.37 62H381.27V60.85C381.537 60.7167 381.937 60.4833 382.47 60.15C383.037 59.8167 383.62 59.4333 384.22 59C385.887 57.8 387.453 56.4333 388.92 54.9C390.387 53.3667 391.67 51.7333 392.77 50C393.87 48.2667 394.737 46.5333 395.37 44.8C396.003 43.0667 396.32 41.4167 396.32 39.85C396.32 38.35 395.953 37.0833 395.22 36.05C394.52 35.0167 393.237 34.5 391.37 34.5C389.803 34.5 388.353 34.9333 387.02 35.8C385.687 36.6667 384.37 38.0167 383.07 39.85L382.12 39.05C383.487 35.5833 385.203 33 387.27 31.3C389.337 29.6 391.92 28.75 395.02 28.75C396.82 28.75 398.437 29.05 399.87 29.65C401.303 30.2167 402.437 31.1167 403.27 32.35C404.137 33.55 404.57 35.1167 404.57 37.05C404.57 40.4833 403.47 43.7 401.27 46.7C399.103 49.7 396.07 52.5167 392.17 55.15V55.25H399.47C401.37 55.25 402.687 55.0167 403.42 54.55C404.153 54.0833 404.587 53.4833 404.72 52.75ZM426.001 28.75C427.734 28.75 429.434 29.0833 431.101 29.75C432.767 30.4167 434.267 31.45 435.601 32.85C436.934 34.25 437.984 36.0167 438.751 38.15C439.551 40.25 439.951 42.75 439.951 45.65C439.951 48.5167 439.567 51.0167 438.801 53.15C438.034 55.2833 436.984 57.0667 435.651 58.5C434.317 59.9333 432.817 61 431.151 61.7C429.484 62.4 427.751 62.75 425.951 62.75C424.217 62.75 422.517 62.4167 420.851 61.75C419.184 61.0833 417.684 60.05 416.351 58.65C415.017 57.25 413.951 55.5 413.151 53.4C412.384 51.2667 412.001 48.75 412.001 45.85C412.001 42.9833 412.384 40.4833 413.151 38.35C413.917 36.2167 414.967 34.4333 416.301 33C417.634 31.5667 419.134 30.5 420.801 29.8C422.467 29.1 424.201 28.75 426.001 28.75ZM426.151 60.6C427.117 60.6 428.001 60.1667 428.801 59.3C429.601 58.4333 430.234 56.9667 430.701 54.9C431.201 52.8333 431.451 50 431.451 46.4C431.451 43.2667 431.234 40.55 430.801 38.25C430.401 35.9167 429.784 34.1167 428.951 32.85C428.117 31.55 427.067 30.9 425.801 30.9C424.867 30.9 423.984 31.3333 423.151 32.2C422.351 33.0667 421.701 34.5333 421.201 36.6C420.734 38.6667 420.501 41.5 420.501 45.1C420.501 48.2333 420.701 50.9667 421.101 53.3C421.534 55.6 422.167 57.4 423.001 58.7C423.834 59.9667 424.884 60.6 426.151 60.6ZM467.562 52.75H468.712L468.212 62H444.112V60.85C444.378 60.7167 444.778 60.4833 445.312 60.15C445.878 59.8167 446.462 59.4333 447.062 59C448.728 57.8 450.295 56.4333 451.762 54.9C453.228 53.3667 454.512 51.7333 455.612 50C456.712 48.2667 457.578 46.5333 458.212 44.8C458.845 43.0667 459.162 41.4167 459.162 39.85C459.162 38.35 458.795 37.0833 458.062 36.05C457.362 35.0167 456.078 34.5 454.212 34.5C452.645 34.5 451.195 34.9333 449.862 35.8C448.528 36.6667 447.212 38.0167 445.912 39.85L444.962 39.05C446.328 35.5833 448.045 33 450.112 31.3C452.178 29.6 454.762 28.75 457.862 28.75C459.662 28.75 461.278 29.05 462.712 29.65C464.145 30.2167 465.278 31.1167 466.112 32.35C466.978 33.55 467.412 35.1167 467.412 37.05C467.412 40.4833 466.312 43.7 464.112 46.7C461.945 49.7 458.912 52.5167 455.012 55.15V55.25H462.312C464.212 55.25 465.528 55.0167 466.262 54.55C466.995 54.0833 467.428 53.4833 467.562 52.75ZM495.343 49.25H498.843V55.5H496.743C495.809 55.5 495.343 56.0833 495.343 57.25C495.343 58.05 495.343 58.8333 495.343 59.6C495.376 60.3333 495.409 61.1333 495.443 62L487.543 62C487.609 60.9 487.659 59.8333 487.693 58.8C487.726 57.7333 487.759 56.6333 487.793 55.5L471.993 55.5V54.35C472.859 53.5167 473.643 52.65 474.343 51.75L490.693 31.3C491.059 30.8333 491.393 30.3833 491.693 29.95C492.026 29.4833 492.293 29.0833 492.493 28.75H495.393L495.343 49.25ZM487.693 38.8L479.343 49.25L487.843 49.25V38.8H487.693Z" fill="black"/>
<path d="M571.101 37.0198C564.123 34.2334 555.936 35.7195 550.354 41.2924C542.818 48.8159 542.818 60.9834 550.354 68.5069C555.936 74.0798 564.123 75.5659 571.101 72.7795V63.8628C569.705 64.513 568.217 64.8845 566.635 64.8845C561.053 64.8845 556.587 60.4262 556.587 54.8532C556.587 49.2803 561.053 44.8219 566.635 44.8219C568.217 44.8219 569.799 45.1935 571.101 45.8437V37.0198Z" fill="black"/>
<path d="M567.94 28.084C570.688 25.3286 570.688 20.768 567.94 17.9176C565.191 15.1622 560.642 15.1622 557.799 17.9176C554.955 20.673 555.05 25.2336 557.799 28.084C560.642 30.8394 565.191 30.8394 567.94 28.084Z" fill="black"/>
<path d="M617.251 62V60.85C618.218 60.7833 618.918 60.5333 619.351 60.1C619.784 59.6667 620.001 58.6333 620.001 57V33.75C620.001 32.1167 619.751 31.0833 619.251 30.65C618.784 30.1833 617.868 29.9333 616.501 29.9V28.75H630.751V29.9C629.784 29.9333 629.084 30.1833 628.651 30.65C628.218 31.0833 628.001 32.1167 628.001 33.75V57C628.001 58.6333 628.251 59.6667 628.751 60.1C629.251 60.5333 630.168 60.7833 631.501 60.85V62H617.251ZM666.125 62.4C665.625 61.8667 665.109 61.35 664.575 60.85C664.042 60.3167 663.192 59.5333 662.025 58.5L642.325 40.5H642.225V57C642.225 58.1333 642.509 59.05 643.075 59.75C643.675 60.4167 644.692 60.7833 646.125 60.85V62H636.875V60.85C637.842 60.7833 638.542 60.4167 638.975 59.75C639.409 59.05 639.625 58.1333 639.625 57V33.75C639.625 32.1167 639.375 31.0833 638.875 30.65C638.409 30.1833 637.492 29.9333 636.125 29.9V28.75H642.125C642.625 29.3833 643.159 29.95 643.725 30.45C644.292 30.95 644.942 31.55 645.675 32.25L665.575 50.25H665.675V33.75C665.675 32.6167 665.392 31.7 664.825 31C664.259 30.3 663.242 29.9333 661.775 29.9V28.75L671.025 28.75V29.9C670.059 29.9333 669.359 30.3 668.925 31C668.492 31.7 668.275 32.6167 668.275 33.75V57C668.275 57.9333 668.275 58.8333 668.275 59.7C668.309 60.5333 668.342 61.4333 668.375 62.4H666.125ZM674.98 28.75L703.48 28.75V37H702.33C702.13 35.2 701.596 33.7333 700.73 32.6C699.863 31.4667 698.38 30.9 696.28 30.9L693.23 30.9V57C693.23 58.6333 693.48 59.6667 693.98 60.1C694.48 60.5333 695.396 60.7833 696.73 60.85V62H682.48V60.85C683.446 60.7833 684.146 60.5333 684.58 60.1C685.013 59.6667 685.23 58.6333 685.23 57V30.9H682.13C680.096 30.9 678.63 31.4667 677.73 32.6C676.863 33.7333 676.33 35.2 676.13 37H674.98V28.75ZM708.017 62V60.85C708.983 60.7833 709.683 60.5333 710.117 60.1C710.55 59.6667 710.767 58.6333 710.767 57V33.75C710.767 32.1167 710.517 31.0833 710.017 30.65C709.55 30.1833 708.633 29.9333 707.267 29.9V28.75H731.817V35.75H730.667C730.6 34.3167 730.1 33.15 729.167 32.25C728.267 31.35 726.867 30.9 724.967 30.9H720.967C720.267 30.9 719.717 31.0833 719.317 31.45C718.95 31.8167 718.767 32.5833 718.767 33.75V43.6C719.033 43.4 719.35 43.2667 719.717 43.2C720.117 43.1333 720.583 43.1 721.117 43.1H725.967C726.967 43.1 727.8 42.8167 728.467 42.25C729.133 41.6833 729.483 40.9 729.517 39.9H730.667V48.4H729.517C729.483 47.1667 729.133 46.3333 728.467 45.9C727.8 45.4667 726.967 45.25 725.967 45.25H721.217C720.317 45.25 719.683 45.4 719.317 45.7C718.95 46 718.767 46.5833 718.767 47.45V57C718.767 58.1667 719.017 58.9333 719.517 59.3C720.05 59.6667 721.067 59.85 722.567 59.85H727.317C729.317 59.85 730.9 59.25 732.067 58.05C733.233 56.85 733.883 55.4167 734.017 53.75H735.167L734.767 62H708.017ZM768.711 62.75C767.211 62.75 765.927 62.5 764.861 62C763.794 61.5333 762.894 60.9 762.161 60.1C761.427 59.3 760.744 58.4167 760.111 57.45L753.111 46.55C752.777 45.9833 752.477 45.6333 752.211 45.5C751.944 45.3667 751.627 45.2833 751.261 45.25V43.5C753.261 43.3667 754.811 42.9667 755.911 42.3C757.011 41.6333 757.777 40.8167 758.211 39.85C758.644 38.85 758.861 37.8167 758.861 36.75C758.861 34.7167 758.294 33.2 757.161 32.2C756.027 31.1667 754.727 30.65 753.261 30.65C752.161 30.65 751.377 30.85 750.911 31.25C750.477 31.6167 750.261 32.45 750.261 33.75V57C750.261 58.6333 750.511 59.6667 751.011 60.1C751.511 60.5333 752.427 60.7833 753.761 60.85V62H739.511V60.85C740.477 60.7833 741.177 60.5333 741.611 60.1C742.044 59.6667 742.261 58.6333 742.261 57V33.75C742.261 32.1167 742.011 31.0833 741.511 30.65C741.044 30.1833 740.127 29.9333 738.761 29.9V28.75H742.261C744.761 28.75 747.027 28.7167 749.061 28.65C751.094 28.55 752.827 28.5 754.261 28.5C757.561 28.5 760.177 28.8167 762.111 29.45C764.077 30.05 765.477 30.9 766.311 32C767.177 33.1 767.611 34.35 767.611 35.75C767.611 37.0833 767.277 38.3 766.611 39.4C765.977 40.5 765.127 41.4333 764.061 42.2C763.027 42.9333 761.894 43.45 760.661 43.75V43.85L768.961 56.85C769.927 58.3833 770.811 59.4333 771.611 60C772.411 60.5667 773.127 60.85 773.761 60.85V62C773.094 62.2333 772.294 62.4167 771.361 62.55C770.461 62.6833 769.577 62.75 768.711 62.75ZM792.324 62.75C788.824 62.75 785.724 62.05 783.024 60.65C780.324 59.25 778.207 57.2833 776.674 54.75C775.141 52.1833 774.374 49.2167 774.374 45.85C774.374 43.0833 774.874 40.6167 775.874 38.45C776.874 36.25 778.241 34.3667 779.974 32.8C781.741 31.2333 783.757 30.05 786.024 29.25C788.324 28.4167 790.774 28 793.374 28C795.341 28 797.224 28.1833 799.024 28.55C800.824 28.9167 802.257 29.35 803.324 29.85V37.75H802.174C801.507 35.7167 800.707 34.1667 799.774 33.1C798.841 32 797.791 31.2333 796.624 30.8C795.491 30.3667 794.291 30.15 793.024 30.15C786.591 30.15 783.374 34.8167 783.374 44.15C783.374 47.2167 783.691 50 784.324 52.5C784.991 55 786.007 56.9833 787.374 58.45C788.774 59.8833 790.557 60.6 792.724 60.6C794.491 60.6 796.091 60.1667 797.524 59.3C798.957 58.4 800.174 57.2167 801.174 55.75C802.207 54.2833 802.941 52.7 803.374 51H804.524L804.124 58.6C803.024 59.8 801.474 60.8 799.474 61.6C797.474 62.3667 795.091 62.75 792.324 62.75ZM825.7 28C828.067 28 830.267 28.4 832.3 29.2C834.334 30 836.134 31.1667 837.7 32.7C839.267 34.2 840.484 36.0167 841.35 38.15C842.217 40.2833 842.65 42.6667 842.65 45.3C842.65 47.9333 842.217 50.3167 841.35 52.45C840.484 54.5833 839.267 56.4167 837.7 57.95C836.167 59.4833 834.367 60.6667 832.3 61.5C830.234 62.3333 828.017 62.75 825.65 62.75C823.317 62.75 821.117 62.35 819.05 61.55C817.017 60.75 815.217 59.6 813.65 58.1C812.084 56.5667 810.867 54.7333 810 52.6C809.134 50.4667 808.7 48.0833 808.7 45.45C808.7 42.8167 809.134 40.4333 810 38.3C810.867 36.1667 812.067 34.3333 813.6 32.8C815.167 31.2667 816.984 30.0833 819.05 29.25C821.117 28.4167 823.334 28 825.7 28ZM826.7 60.6C828.434 60.6 829.8 60.0333 830.8 58.9C831.8 57.7333 832.517 56.1333 832.95 54.1C833.417 52.0667 833.65 49.7 833.65 47C833.65 41.5667 832.817 37.4 831.15 34.5C829.517 31.6 827.35 30.15 824.65 30.15C822.95 30.15 821.584 30.7167 820.55 31.85C819.55 32.9833 818.817 34.5833 818.35 36.65C817.917 38.6833 817.7 41.05 817.7 43.75C817.7 49.1833 818.517 53.35 820.15 56.25C821.817 59.15 824 60.6 826.7 60.6ZM865.796 62.4C865.53 61.6333 865.196 60.85 864.796 60.05C864.43 59.2167 863.93 58.1333 863.296 56.8L854.296 38H854.196L853.296 57C853.263 58.1333 853.53 59.05 854.096 59.75C854.663 60.4167 855.696 60.7833 857.196 60.85V62H847.946V60.85C848.913 60.7833 849.596 60.4167 849.996 59.75C850.43 59.05 850.663 58.1333 850.696 57L851.746 33.75C851.813 32.5833 851.73 31.75 851.496 31.25C851.296 30.75 850.93 30.4333 850.396 30.3C849.863 30.1333 849.146 30 848.246 29.9V28.75H858.946C859.213 29.6167 859.513 30.4333 859.846 31.2C860.213 31.9667 860.613 32.8167 861.046 33.75L869.646 51.75H869.746L877.746 33.75C878.513 32.05 879.096 30.3833 879.496 28.75H890.096V29.9C889.463 29.9333 888.93 30.0333 888.496 30.2C888.063 30.3667 887.746 30.7167 887.546 31.25C887.38 31.75 887.313 32.5833 887.346 33.75L888.396 57C888.463 58.0667 888.596 58.8667 888.796 59.4C889.03 59.9333 889.396 60.3 889.896 60.5C890.396 60.6667 891.063 60.7833 891.896 60.85V62H877.646V60.85C878.713 60.7833 879.446 60.5333 879.846 60.1C880.28 59.6667 880.463 58.6333 880.396 57L879.546 36.55H879.446L870.396 56.8C869.763 58.2 869.296 59.3 868.996 60.1C868.73 60.8667 868.496 61.6333 868.296 62.4H865.796ZM913.794 62.4C913.528 61.6333 913.194 60.85 912.794 60.05C912.428 59.2167 911.928 58.1333 911.294 56.8L902.294 38H902.194L901.294 57C901.261 58.1333 901.528 59.05 902.094 59.75C902.661 60.4167 903.694 60.7833 905.194 60.85V62H895.944V60.85C896.911 60.7833 897.594 60.4167 897.994 59.75C898.428 59.05 898.661 58.1333 898.694 57L899.744 33.75C899.811 32.5833 899.728 31.75 899.494 31.25C899.294 30.75 898.928 30.4333 898.394 30.3C897.861 30.1333 897.144 30 896.244 29.9V28.75H906.944C907.211 29.6167 907.511 30.4333 907.844 31.2C908.211 31.9667 908.611 32.8167 909.044 33.75L917.644 51.75H917.744L925.744 33.75C926.511 32.05 927.094 30.3833 927.494 28.75H938.094V29.9C937.461 29.9333 936.928 30.0333 936.494 30.2C936.061 30.3667 935.744 30.7167 935.544 31.25C935.378 31.75 935.311 32.5833 935.344 33.75L936.394 57C936.461 58.0667 936.594 58.8667 936.794 59.4C937.028 59.9333 937.394 60.3 937.894 60.5C938.394 60.6667 939.061 60.7833 939.894 60.85V62L925.644 62V60.85C926.711 60.7833 927.444 60.5333 927.844 60.1C928.278 59.6667 928.461 58.6333 928.394 57L927.544 36.55H927.444L918.394 56.8C917.761 58.2 917.294 59.3 916.994 60.1C916.728 60.8667 916.494 61.6333 916.294 62.4H913.794ZM979.119 52.75H980.269L979.769 62H955.669V60.85C955.936 60.7167 956.336 60.4833 956.869 60.15C957.436 59.8167 958.019 59.4333 958.619 59C960.286 57.8 961.852 56.4333 963.319 54.9C964.786 53.3667 966.069 51.7333 967.169 50C968.269 48.2667 969.136 46.5333 969.769 44.8C970.402 43.0667 970.719 41.4167 970.719 39.85C970.719 38.35 970.352 37.0833 969.619 36.05C968.919 35.0167 967.636 34.5 965.769 34.5C964.202 34.5 962.752 34.9333 961.419 35.8C960.086 36.6667 958.769 38.0167 957.469 39.85L956.519 39.05C957.886 35.5833 959.602 33 961.669 31.3C963.736 29.6 966.319 28.75 969.419 28.75C971.219 28.75 972.836 29.05 974.269 29.65C975.702 30.2167 976.836 31.1167 977.669 32.35C978.536 33.55 978.969 35.1167 978.969 37.05C978.969 40.4833 977.869 43.7 975.669 46.7C973.502 49.7 970.469 52.5167 966.569 55.15V55.25H973.869C975.769 55.25 977.086 55.0167 977.819 54.55C978.552 54.0833 978.986 53.4833 979.119 52.75ZM1000.4 28.75C1002.13 28.75 1003.83 29.0833 1005.5 29.75C1007.17 30.4167 1008.67 31.45 1010 32.85C1011.33 34.25 1012.38 36.0167 1013.15 38.15C1013.95 40.25 1014.35 42.75 1014.35 45.65C1014.35 48.5167 1013.97 51.0167 1013.2 53.15C1012.43 55.2833 1011.38 57.0667 1010.05 58.5C1008.72 59.9333 1007.22 61 1005.55 61.7C1003.88 62.4 1002.15 62.75 1000.35 62.75C998.617 62.75 996.917 62.4167 995.25 61.75C993.583 61.0833 992.083 60.05 990.75 58.65C989.417 57.25 988.35 55.5 987.55 53.4C986.783 51.2667 986.4 48.75 986.4 45.85C986.4 42.9833 986.783 40.4833 987.55 38.35C988.317 36.2167 989.367 34.4333 990.7 33C992.033 31.5667 993.533 30.5 995.2 29.8C996.867 29.1 998.6 28.75 1000.4 28.75ZM1000.55 60.6C1001.52 60.6 1002.4 60.1667 1003.2 59.3C1004 58.4333 1004.63 56.9667 1005.1 54.9C1005.6 52.8333 1005.85 50 1005.85 46.4C1005.85 43.2667 1005.63 40.55 1005.2 38.25C1004.8 35.9167 1004.18 34.1167 1003.35 32.85C1002.52 31.55 1001.47 30.9 1000.2 30.9C999.267 30.9 998.383 31.3333 997.55 32.2C996.75 33.0667 996.1 34.5333 995.6 36.6C995.133 38.6667 994.9 41.5 994.9 45.1C994.9 48.2333 995.1 50.9667 995.5 53.3C995.933 55.6 996.567 57.4 997.4 58.7C998.233 59.9667 999.283 60.6 1000.55 60.6ZM1041.96 52.75H1043.11L1042.61 62H1018.51V60.85C1018.78 60.7167 1019.18 60.4833 1019.71 60.15C1020.28 59.8167 1020.86 59.4333 1021.46 59C1023.13 57.8 1024.69 56.4333 1026.16 54.9C1027.63 53.3667 1028.91 51.7333 1030.01 50C1031.11 48.2667 1031.98 46.5333 1032.61 44.8C1033.24 43.0667 1033.56 41.4167 1033.56 39.85C1033.56 38.35 1033.19 37.0833 1032.46 36.05C1031.76 35.0167 1030.48 34.5 1028.61 34.5C1027.04 34.5 1025.59 34.9333 1024.26 35.8C1022.93 36.6667 1021.61 38.0167 1020.31 39.85L1019.36 39.05C1020.73 35.5833 1022.44 33 1024.51 31.3C1026.58 29.6 1029.16 28.75 1032.26 28.75C1034.06 28.75 1035.68 29.05 1037.11 29.65C1038.54 30.2167 1039.68 31.1167 1040.51 32.35C1041.38 33.55 1041.81 35.1167 1041.81 37.05C1041.81 40.4833 1040.71 43.7 1038.51 46.7C1036.34 49.7 1033.31 52.5167 1029.41 55.15V55.25H1036.71C1038.61 55.25 1039.93 55.0167 1040.66 54.55C1041.39 54.0833 1041.83 53.4833 1041.96 52.75ZM1069.74 49.25H1073.24V55.5H1071.14C1070.21 55.5 1069.74 56.0833 1069.74 57.25C1069.74 58.05 1069.74 58.8333 1069.74 59.6C1069.77 60.3333 1069.81 61.1333 1069.84 62L1061.94 62C1062.01 60.9 1062.06 59.8333 1062.09 58.8C1062.12 57.7333 1062.16 56.6333 1062.19 55.5L1046.39 55.5V54.35C1047.26 53.5167 1048.04 52.65 1048.74 51.75L1065.09 31.3C1065.46 30.8333 1065.79 30.3833 1066.09 29.95C1066.42 29.4833 1066.69 29.0833 1066.89 28.75H1069.79L1069.74 49.25ZM1062.09 38.8L1053.74 49.25L1062.24 49.25V38.8H1062.09Z" fill="black"/>
<path d="M1145.5 37.0198C1138.52 34.2334 1130.34 35.7195 1124.75 41.2924C1117.22 48.8159 1117.22 60.9834 1124.75 68.5069C1130.34 74.0798 1138.52 75.5659 1145.5 72.7795V63.8628C1144.1 64.513 1142.62 64.8845 1141.03 64.8845C1135.45 64.8845 1130.99 60.4262 1130.99 54.8532C1130.99 49.2803 1135.45 44.8219 1141.03 44.8219C1142.62 44.8219 1144.2 45.1935 1145.5 45.8437V37.0198Z" fill="black"/>
<path d="M1142.34 28.084C1145.09 25.3286 1145.09 20.768 1142.34 17.9176C1139.59 15.1622 1135.04 15.1622 1132.2 17.9176C1129.35 20.673 1129.45 25.2336 1132.2 28.084C1135.04 30.8394 1139.59 30.8394 1142.34 28.084Z" fill="black"/>
<path d="M1191.65 62V60.85C1192.62 60.7833 1193.32 60.5333 1193.75 60.1C1194.18 59.6667 1194.4 58.6333 1194.4 57V33.75C1194.4 32.1167 1194.15 31.0833 1193.65 30.65C1193.18 30.1833 1192.27 29.9333 1190.9 29.9V28.75H1205.15V29.9C1204.18 29.9333 1203.48 30.1833 1203.05 30.65C1202.62 31.0833 1202.4 32.1167 1202.4 33.75V57C1202.4 58.6333 1202.65 59.6667 1203.15 60.1C1203.65 60.5333 1204.57 60.7833 1205.9 60.85V62H1191.65ZM1240.52 62.4C1240.02 61.8667 1239.51 61.35 1238.97 60.85C1238.44 60.3167 1237.59 59.5333 1236.42 58.5L1216.72 40.5H1216.62V57C1216.62 58.1333 1216.91 59.05 1217.47 59.75C1218.07 60.4167 1219.09 60.7833 1220.52 60.85V62H1211.27V60.85C1212.24 60.7833 1212.94 60.4167 1213.37 59.75C1213.81 59.05 1214.02 58.1333 1214.02 57V33.75C1214.02 32.1167 1213.77 31.0833 1213.27 30.65C1212.81 30.1833 1211.89 29.9333 1210.52 29.9V28.75H1216.52C1217.02 29.3833 1217.56 29.95 1218.12 30.45C1218.69 30.95 1219.34 31.55 1220.07 32.25L1239.97 50.25H1240.07V33.75C1240.07 32.6167 1239.79 31.7 1239.22 31C1238.66 30.3 1237.64 29.9333 1236.17 29.9V28.75L1245.42 28.75V29.9C1244.46 29.9333 1243.76 30.3 1243.32 31C1242.89 31.7 1242.67 32.6167 1242.67 33.75V57C1242.67 57.9333 1242.67 58.8333 1242.67 59.7C1242.71 60.5333 1242.74 61.4333 1242.77 62.4H1240.52ZM1249.38 28.75L1277.88 28.75V37H1276.73C1276.53 35.2 1276 33.7333 1275.13 32.6C1274.26 31.4667 1272.78 30.9 1270.68 30.9L1267.63 30.9V57C1267.63 58.6333 1267.88 59.6667 1268.38 60.1C1268.88 60.5333 1269.8 60.7833 1271.13 60.85V62H1256.88V60.85C1257.85 60.7833 1258.55 60.5333 1258.98 60.1C1259.41 59.6667 1259.63 58.6333 1259.63 57V30.9H1256.53C1254.5 30.9 1253.03 31.4667 1252.13 32.6C1251.26 33.7333 1250.73 35.2 1250.53 37H1249.38V28.75ZM1282.42 62V60.85C1283.38 60.7833 1284.08 60.5333 1284.52 60.1C1284.95 59.6667 1285.17 58.6333 1285.17 57V33.75C1285.17 32.1167 1284.92 31.0833 1284.42 30.65C1283.95 30.1833 1283.03 29.9333 1281.67 29.9V28.75H1306.22V35.75H1305.07C1305 34.3167 1304.5 33.15 1303.57 32.25C1302.67 31.35 1301.27 30.9 1299.37 30.9H1295.37C1294.67 30.9 1294.12 31.0833 1293.72 31.45C1293.35 31.8167 1293.17 32.5833 1293.17 33.75V43.6C1293.43 43.4 1293.75 43.2667 1294.12 43.2C1294.52 43.1333 1294.98 43.1 1295.52 43.1H1300.37C1301.37 43.1 1302.2 42.8167 1302.87 42.25C1303.53 41.6833 1303.88 40.9 1303.92 39.9H1305.07V48.4H1303.92C1303.88 47.1667 1303.53 46.3333 1302.87 45.9C1302.2 45.4667 1301.37 45.25 1300.37 45.25H1295.62C1294.72 45.25 1294.08 45.4 1293.72 45.7C1293.35 46 1293.17 46.5833 1293.17 47.45V57C1293.17 58.1667 1293.42 58.9333 1293.92 59.3C1294.45 59.6667 1295.47 59.85 1296.97 59.85H1301.72C1303.72 59.85 1305.3 59.25 1306.47 58.05C1307.63 56.85 1308.28 55.4167 1308.42 53.75H1309.57L1309.17 62H1282.42ZM1343.11 62.75C1341.61 62.75 1340.33 62.5 1339.26 62C1338.19 61.5333 1337.29 60.9 1336.56 60.1C1335.83 59.3 1335.14 58.4167 1334.51 57.45L1327.51 46.55C1327.18 45.9833 1326.88 45.6333 1326.61 45.5C1326.34 45.3667 1326.03 45.2833 1325.66 45.25V43.5C1327.66 43.3667 1329.21 42.9667 1330.31 42.3C1331.41 41.6333 1332.18 40.8167 1332.61 39.85C1333.04 38.85 1333.26 37.8167 1333.26 36.75C1333.26 34.7167 1332.69 33.2 1331.56 32.2C1330.43 31.1667 1329.13 30.65 1327.66 30.65C1326.56 30.65 1325.78 30.85 1325.31 31.25C1324.88 31.6167 1324.66 32.45 1324.66 33.75V57C1324.66 58.6333 1324.91 59.6667 1325.41 60.1C1325.91 60.5333 1326.83 60.7833 1328.16 60.85V62H1313.91V60.85C1314.88 60.7833 1315.58 60.5333 1316.01 60.1C1316.44 59.6667 1316.66 58.6333 1316.66 57V33.75C1316.66 32.1167 1316.41 31.0833 1315.91 30.65C1315.44 30.1833 1314.53 29.9333 1313.16 29.9V28.75H1316.66C1319.16 28.75 1321.43 28.7167 1323.46 28.65C1325.49 28.55 1327.23 28.5 1328.66 28.5C1331.96 28.5 1334.58 28.8167 1336.51 29.45C1338.48 30.05 1339.88 30.9 1340.71 32C1341.58 33.1 1342.01 34.35 1342.01 35.75C1342.01 37.0833 1341.68 38.3 1341.01 39.4C1340.38 40.5 1339.53 41.4333 1338.46 42.2C1337.43 42.9333 1336.29 43.45 1335.06 43.75V43.85L1343.36 56.85C1344.33 58.3833 1345.21 59.4333 1346.01 60C1346.81 60.5667 1347.53 60.85 1348.16 60.85V62C1347.49 62.2333 1346.69 62.4167 1345.76 62.55C1344.86 62.6833 1343.98 62.75 1343.11 62.75ZM1366.72 62.75C1363.22 62.75 1360.12 62.05 1357.42 60.65C1354.72 59.25 1352.61 57.2833 1351.07 54.75C1349.54 52.1833 1348.77 49.2167 1348.77 45.85C1348.77 43.0833 1349.27 40.6167 1350.27 38.45C1351.27 36.25 1352.64 34.3667 1354.37 32.8C1356.14 31.2333 1358.16 30.05 1360.42 29.25C1362.72 28.4167 1365.17 28 1367.77 28C1369.74 28 1371.62 28.1833 1373.42 28.55C1375.22 28.9167 1376.66 29.35 1377.72 29.85V37.75H1376.57C1375.91 35.7167 1375.11 34.1667 1374.17 33.1C1373.24 32 1372.19 31.2333 1371.02 30.8C1369.89 30.3667 1368.69 30.15 1367.42 30.15C1360.99 30.15 1357.77 34.8167 1357.77 44.15C1357.77 47.2167 1358.09 50 1358.72 52.5C1359.39 55 1360.41 56.9833 1361.77 58.45C1363.17 59.8833 1364.96 60.6 1367.12 60.6C1368.89 60.6 1370.49 60.1667 1371.92 59.3C1373.36 58.4 1374.57 57.2167 1375.57 55.75C1376.61 54.2833 1377.34 52.7 1377.77 51H1378.92L1378.52 58.6C1377.42 59.8 1375.87 60.8 1373.87 61.6C1371.87 62.3667 1369.49 62.75 1366.72 62.75ZM1400.1 28C1402.47 28 1404.67 28.4 1406.7 29.2C1408.73 30 1410.53 31.1667 1412.1 32.7C1413.67 34.2 1414.88 36.0167 1415.75 38.15C1416.62 40.2833 1417.05 42.6667 1417.05 45.3C1417.05 47.9333 1416.62 50.3167 1415.75 52.45C1414.88 54.5833 1413.67 56.4167 1412.1 57.95C1410.57 59.4833 1408.77 60.6667 1406.7 61.5C1404.63 62.3333 1402.42 62.75 1400.05 62.75C1397.72 62.75 1395.52 62.35 1393.45 61.55C1391.42 60.75 1389.62 59.6 1388.05 58.1C1386.48 56.5667 1385.27 54.7333 1384.4 52.6C1383.53 50.4667 1383.1 48.0833 1383.1 45.45C1383.1 42.8167 1383.53 40.4333 1384.4 38.3C1385.27 36.1667 1386.47 34.3333 1388 32.8C1389.57 31.2667 1391.38 30.0833 1393.45 29.25C1395.52 28.4167 1397.73 28 1400.1 28ZM1401.1 60.6C1402.83 60.6 1404.2 60.0333 1405.2 58.9C1406.2 57.7333 1406.92 56.1333 1407.35 54.1C1407.82 52.0667 1408.05 49.7 1408.05 47C1408.05 41.5667 1407.22 37.4 1405.55 34.5C1403.92 31.6 1401.75 30.15 1399.05 30.15C1397.35 30.15 1395.98 30.7167 1394.95 31.85C1393.95 32.9833 1393.22 34.5833 1392.75 36.65C1392.32 38.6833 1392.1 41.05 1392.1 43.75C1392.1 49.1833 1392.92 53.35 1394.55 56.25C1396.22 59.15 1398.4 60.6 1401.1 60.6ZM1440.2 62.4C1439.93 61.6333 1439.6 60.85 1439.2 60.05C1438.83 59.2167 1438.33 58.1333 1437.7 56.8L1428.7 38H1428.6L1427.7 57C1427.66 58.1333 1427.93 59.05 1428.5 59.75C1429.06 60.4167 1430.1 60.7833 1431.6 60.85V62H1422.35V60.85C1423.31 60.7833 1424 60.4167 1424.4 59.75C1424.83 59.05 1425.06 58.1333 1425.1 57L1426.15 33.75C1426.21 32.5833 1426.13 31.75 1425.9 31.25C1425.7 30.75 1425.33 30.4333 1424.8 30.3C1424.26 30.1333 1423.55 30 1422.65 29.9V28.75H1433.35C1433.61 29.6167 1433.91 30.4333 1434.25 31.2C1434.61 31.9667 1435.01 32.8167 1435.45 33.75L1444.05 51.75H1444.15L1452.15 33.75C1452.91 32.05 1453.5 30.3833 1453.9 28.75H1464.5V29.9C1463.86 29.9333 1463.33 30.0333 1462.9 30.2C1462.46 30.3667 1462.15 30.7167 1461.95 31.25C1461.78 31.75 1461.71 32.5833 1461.75 33.75L1462.8 57C1462.86 58.0667 1463 58.8667 1463.2 59.4C1463.43 59.9333 1463.8 60.3 1464.3 60.5C1464.8 60.6667 1465.46 60.7833 1466.3 60.85V62H1452.05V60.85C1453.11 60.7833 1453.85 60.5333 1454.25 60.1C1454.68 59.6667 1454.86 58.6333 1454.8 57L1453.95 36.55H1453.85L1444.8 56.8C1444.16 58.2 1443.7 59.3 1443.4 60.1C1443.13 60.8667 1442.9 61.6333 1442.7 62.4H1440.2ZM1488.19 62.4C1487.93 61.6333 1487.59 60.85 1487.19 60.05C1486.83 59.2167 1486.33 58.1333 1485.69 56.8L1476.69 38H1476.59L1475.69 57C1475.66 58.1333 1475.93 59.05 1476.49 59.75C1477.06 60.4167 1478.09 60.7833 1479.59 60.85V62H1470.34V60.85C1471.31 60.7833 1471.99 60.4167 1472.39 59.75C1472.83 59.05 1473.06 58.1333 1473.09 57L1474.14 33.75C1474.21 32.5833 1474.13 31.75 1473.89 31.25C1473.69 30.75 1473.33 30.4333 1472.79 30.3C1472.26 30.1333 1471.54 30 1470.64 29.9V28.75H1481.34C1481.61 29.6167 1481.91 30.4333 1482.24 31.2C1482.61 31.9667 1483.01 32.8167 1483.44 33.75L1492.04 51.75H1492.14L1500.14 33.75C1500.91 32.05 1501.49 30.3833 1501.89 28.75H1512.49V29.9C1511.86 29.9333 1511.33 30.0333 1510.89 30.2C1510.46 30.3667 1510.14 30.7167 1509.94 31.25C1509.78 31.75 1509.71 32.5833 1509.74 33.75L1510.79 57C1510.86 58.0667 1510.99 58.8667 1511.19 59.4C1511.43 59.9333 1511.79 60.3 1512.29 60.5C1512.79 60.6667 1513.46 60.7833 1514.29 60.85V62L1500.04 62V60.85C1501.11 60.7833 1501.84 60.5333 1502.24 60.1C1502.68 59.6667 1502.86 58.6333 1502.79 57L1501.94 36.55H1501.84L1492.79 56.8C1492.16 58.2 1491.69 59.3 1491.39 60.1C1491.13 60.8667 1490.89 61.6333 1490.69 62.4H1488.19ZM1553.52 52.75H1554.67L1554.17 62H1530.07V60.85C1530.33 60.7167 1530.73 60.4833 1531.27 60.15C1531.83 59.8167 1532.42 59.4333 1533.02 59C1534.68 57.8 1536.25 56.4333 1537.72 54.9C1539.18 53.3667 1540.47 51.7333 1541.57 50C1542.67 48.2667 1543.53 46.5333 1544.17 44.8C1544.8 43.0667 1545.12 41.4167 1545.12 39.85C1545.12 38.35 1544.75 37.0833 1544.02 36.05C1543.32 35.0167 1542.03 34.5 1540.17 34.5C1538.6 34.5 1537.15 34.9333 1535.82 35.8C1534.48 36.6667 1533.17 38.0167 1531.87 39.85L1530.92 39.05C1532.28 35.5833 1534 33 1536.07 31.3C1538.13 29.6 1540.72 28.75 1543.82 28.75C1545.62 28.75 1547.23 29.05 1548.67 29.65C1550.1 30.2167 1551.23 31.1167 1552.07 32.35C1552.93 33.55 1553.37 35.1167 1553.37 37.05C1553.37 40.4833 1552.27 43.7 1550.07 46.7C1547.9 49.7 1544.87 52.5167 1540.97 55.15V55.25H1548.27C1550.17 55.25 1551.48 55.0167 1552.22 54.55C1552.95 54.0833 1553.38 53.4833 1553.52 52.75ZM1574.8 28.75C1576.53 28.75 1578.23 29.0833 1579.9 29.75C1581.57 30.4167 1583.07 31.45 1584.4 32.85C1585.73 34.25 1586.78 36.0167 1587.55 38.15C1588.35 40.25 1588.75 42.75 1588.75 45.65C1588.75 48.5167 1588.37 51.0167 1587.6 53.15C1586.83 55.2833 1585.78 57.0667 1584.45 58.5C1583.12 59.9333 1581.62 61 1579.95 61.7C1578.28 62.4 1576.55 62.75 1574.75 62.75C1573.02 62.75 1571.32 62.4167 1569.65 61.75C1567.98 61.0833 1566.48 60.05 1565.15 58.65C1563.82 57.25 1562.75 55.5 1561.95 53.4C1561.18 51.2667 1560.8 48.75 1560.8 45.85C1560.8 42.9833 1561.18 40.4833 1561.95 38.35C1562.72 36.2167 1563.77 34.4333 1565.1 33C1566.43 31.5667 1567.93 30.5 1569.6 29.8C1571.27 29.1 1573 28.75 1574.8 28.75ZM1574.95 60.6C1575.92 60.6 1576.8 60.1667 1577.6 59.3C1578.4 58.4333 1579.03 56.9667 1579.5 54.9C1580 52.8333 1580.25 50 1580.25 46.4C1580.25 43.2667 1580.03 40.55 1579.6 38.25C1579.2 35.9167 1578.58 34.1167 1577.75 32.85C1576.92 31.55 1575.87 30.9 1574.6 30.9C1573.67 30.9 1572.78 31.3333 1571.95 32.2C1571.15 33.0667 1570.5 34.5333 1570 36.6C1569.53 38.6667 1569.3 41.5 1569.3 45.1C1569.3 48.2333 1569.5 50.9667 1569.9 53.3C1570.33 55.6 1570.97 57.4 1571.8 58.7C1572.63 59.9667 1573.68 60.6 1574.95 60.6ZM1616.36 52.75H1617.51L1617.01 62H1592.91V60.85C1593.18 60.7167 1593.58 60.4833 1594.11 60.15C1594.68 59.8167 1595.26 59.4333 1595.86 59C1597.53 57.8 1599.09 56.4333 1600.56 54.9C1602.03 53.3667 1603.31 51.7333 1604.41 50C1605.51 48.2667 1606.38 46.5333 1607.01 44.8C1607.64 43.0667 1607.96 41.4167 1607.96 39.85C1607.96 38.35 1607.59 37.0833 1606.86 36.05C1606.16 35.0167 1604.88 34.5 1603.01 34.5C1601.44 34.5 1599.99 34.9333 1598.66 35.8C1597.33 36.6667 1596.01 38.0167 1594.71 39.85L1593.76 39.05C1595.13 35.5833 1596.84 33 1598.91 31.3C1600.98 29.6 1603.56 28.75 1606.66 28.75C1608.46 28.75 1610.08 29.05 1611.51 29.65C1612.94 30.2167 1614.08 31.1167 1614.91 32.35C1615.78 33.55 1616.21 35.1167 1616.21 37.05C1616.21 40.4833 1615.11 43.7 1612.91 46.7C1610.74 49.7 1607.71 52.5167 1603.81 55.15V55.25H1611.11C1613.01 55.25 1614.33 55.0167 1615.06 54.55C1615.79 54.0833 1616.23 53.4833 1616.36 52.75ZM1644.14 49.25H1647.64V55.5H1645.54C1644.61 55.5 1644.14 56.0833 1644.14 57.25C1644.14 58.05 1644.14 58.8333 1644.14 59.6C1644.17 60.3333 1644.21 61.1333 1644.24 62L1636.34 62C1636.41 60.9 1636.46 59.8333 1636.49 58.8C1636.52 57.7333 1636.56 56.6333 1636.59 55.5L1620.79 55.5V54.35C1621.66 53.5167 1622.44 52.65 1623.14 51.75L1639.49 31.3C1639.86 30.8333 1640.19 30.3833 1640.49 29.95C1640.82 29.4833 1641.09 29.0833 1641.29 28.75H1644.19L1644.14 49.25ZM1636.49 38.8L1628.14 49.25L1636.64 49.25V38.8H1636.49Z" fill="black"/>
<path d="M1719.9 37.0198C1712.92 34.2334 1704.73 35.7195 1699.15 41.2924C1691.62 48.8159 1691.62 60.9834 1699.15 68.5069C1704.73 74.0798 1712.92 75.5659 1719.9 72.7795V63.8628C1718.5 64.513 1717.02 64.8845 1715.43 64.8845C1709.85 64.8845 1705.39 60.4262 1705.39 54.8532C1705.39 49.2803 1709.85 44.8219 1715.43 44.8219C1717.02 44.8219 1718.6 45.1935 1719.9 45.8437V37.0198Z" fill="black"/>
<path d="M1716.74 28.084C1719.49 25.3286 1719.49 20.768 1716.74 17.9176C1713.99 15.1622 1709.44 15.1622 1706.6 17.9176C1703.75 20.673 1703.85 25.2336 1706.6 28.084C1709.44 30.8394 1713.99 30.8394 1716.74 28.084Z" fill="black"/>
<path d="M1766.05 62V60.85C1767.02 60.7833 1767.72 60.5333 1768.15 60.1C1768.58 59.6667 1768.8 58.6333 1768.8 57V33.75C1768.8 32.1167 1768.55 31.0833 1768.05 30.65C1767.58 30.1833 1766.67 29.9333 1765.3 29.9V28.75H1779.55V29.9C1778.58 29.9333 1777.88 30.1833 1777.45 30.65C1777.02 31.0833 1776.8 32.1167 1776.8 33.75V57C1776.8 58.6333 1777.05 59.6667 1777.55 60.1C1778.05 60.5333 1778.97 60.7833 1780.3 60.85V62H1766.05ZM1814.92 62.4C1814.42 61.8667 1813.91 61.35 1813.37 60.85C1812.84 60.3167 1811.99 59.5333 1810.82 58.5L1791.12 40.5H1791.02V57C1791.02 58.1333 1791.31 59.05 1791.87 59.75C1792.47 60.4167 1793.49 60.7833 1794.92 60.85V62H1785.67V60.85C1786.64 60.7833 1787.34 60.4167 1787.77 59.75C1788.21 59.05 1788.42 58.1333 1788.42 57V33.75C1788.42 32.1167 1788.17 31.0833 1787.67 30.65C1787.21 30.1833 1786.29 29.9333 1784.92 29.9V28.75H1790.92C1791.42 29.3833 1791.96 29.95 1792.52 30.45C1793.09 30.95 1793.74 31.55 1794.47 32.25L1814.37 50.25H1814.47V33.75C1814.47 32.6167 1814.19 31.7 1813.62 31C1813.06 30.3 1812.04 29.9333 1810.57 29.9V28.75L1819.82 28.75V29.9C1818.86 29.9333 1818.16 30.3 1817.72 31C1817.29 31.7 1817.07 32.6167 1817.07 33.75V57C1817.07 57.9333 1817.07 58.8333 1817.07 59.7C1817.11 60.5333 1817.14 61.4333 1817.17 62.4H1814.92ZM1823.78 28.75L1852.28 28.75V37H1851.13C1850.93 35.2 1850.39 33.7333 1849.53 32.6C1848.66 31.4667 1847.18 30.9 1845.08 30.9L1842.03 30.9V57C1842.03 58.6333 1842.28 59.6667 1842.78 60.1C1843.28 60.5333 1844.19 60.7833 1845.53 60.85V62H1831.28V60.85C1832.24 60.7833 1832.94 60.5333 1833.38 60.1C1833.81 59.6667 1834.03 58.6333 1834.03 57V30.9H1830.93C1828.89 30.9 1827.43 31.4667 1826.53 32.6C1825.66 33.7333 1825.13 35.2 1824.93 37H1823.78V28.75ZM1856.81 62V60.85C1857.78 60.7833 1858.48 60.5333 1858.91 60.1C1859.35 59.6667 1859.56 58.6333 1859.56 57V33.75C1859.56 32.1167 1859.31 31.0833 1858.81 30.65C1858.35 30.1833 1857.43 29.9333 1856.06 29.9V28.75H1880.61V35.75H1879.46C1879.4 34.3167 1878.9 33.15 1877.96 32.25C1877.06 31.35 1875.66 30.9 1873.76 30.9H1869.76C1869.06 30.9 1868.51 31.0833 1868.11 31.45C1867.75 31.8167 1867.56 32.5833 1867.56 33.75V43.6C1867.83 43.4 1868.15 43.2667 1868.51 43.2C1868.91 43.1333 1869.38 43.1 1869.91 43.1H1874.76C1875.76 43.1 1876.6 42.8167 1877.26 42.25C1877.93 41.6833 1878.28 40.9 1878.31 39.9H1879.46V48.4H1878.31C1878.28 47.1667 1877.93 46.3333 1877.26 45.9C1876.6 45.4667 1875.76 45.25 1874.76 45.25H1870.01C1869.11 45.25 1868.48 45.4 1868.11 45.7C1867.75 46 1867.56 46.5833 1867.56 47.45V57C1867.56 58.1667 1867.81 58.9333 1868.31 59.3C1868.85 59.6667 1869.86 59.85 1871.36 59.85H1876.11C1878.11 59.85 1879.7 59.25 1880.86 58.05C1882.03 56.85 1882.68 55.4167 1882.81 53.75H1883.96L1883.56 62H1856.81ZM1917.51 62.75C1916.01 62.75 1914.73 62.5 1913.66 62C1912.59 61.5333 1911.69 60.9 1910.96 60.1C1910.23 59.3 1909.54 58.4167 1908.91 57.45L1901.91 46.55C1901.58 45.9833 1901.28 45.6333 1901.01 45.5C1900.74 45.3667 1900.43 45.2833 1900.06 45.25V43.5C1902.06 43.3667 1903.61 42.9667 1904.71 42.3C1905.81 41.6333 1906.58 40.8167 1907.01 39.85C1907.44 38.85 1907.66 37.8167 1907.66 36.75C1907.66 34.7167 1907.09 33.2 1905.96 32.2C1904.83 31.1667 1903.53 30.65 1902.06 30.65C1900.96 30.65 1900.18 30.85 1899.71 31.25C1899.28 31.6167 1899.06 32.45 1899.06 33.75V57C1899.06 58.6333 1899.31 59.6667 1899.81 60.1C1900.31 60.5333 1901.23 60.7833 1902.56 60.85V62H1888.31V60.85C1889.28 60.7833 1889.98 60.5333 1890.41 60.1C1890.84 59.6667 1891.06 58.6333 1891.06 57V33.75C1891.06 32.1167 1890.81 31.0833 1890.31 30.65C1889.84 30.1833 1888.93 29.9333 1887.56 29.9V28.75H1891.06C1893.56 28.75 1895.83 28.7167 1897.86 28.65C1899.89 28.55 1901.63 28.5 1903.06 28.5C1906.36 28.5 1908.98 28.8167 1910.91 29.45C1912.88 30.05 1914.28 30.9 1915.11 32C1915.98 33.1 1916.41 34.35 1916.41 35.75C1916.41 37.0833 1916.08 38.3 1915.41 39.4C1914.78 40.5 1913.93 41.4333 1912.86 42.2C1911.83 42.9333 1910.69 43.45 1909.46 43.75V43.85L1917.76 56.85C1918.73 58.3833 1919.61 59.4333 1920.41 60C1921.21 60.5667 1921.93 60.85 1922.56 60.85V62C1921.89 62.2333 1921.09 62.4167 1920.16 62.55C1919.26 62.6833 1918.38 62.75 1917.51 62.75ZM1941.12 62.75C1937.62 62.75 1934.52 62.05 1931.82 60.65C1929.12 59.25 1927.01 57.2833 1925.47 54.75C1923.94 52.1833 1923.17 49.2167 1923.17 45.85C1923.17 43.0833 1923.67 40.6167 1924.67 38.45C1925.67 36.25 1927.04 34.3667 1928.77 32.8C1930.54 31.2333 1932.56 30.05 1934.82 29.25C1937.12 28.4167 1939.57 28 1942.17 28C1944.14 28 1946.02 28.1833 1947.82 28.55C1949.62 28.9167 1951.06 29.35 1952.12 29.85V37.75H1950.97C1950.31 35.7167 1949.51 34.1667 1948.57 33.1C1947.64 32 1946.59 31.2333 1945.42 30.8C1944.29 30.3667 1943.09 30.15 1941.82 30.15C1935.39 30.15 1932.17 34.8167 1932.17 44.15C1932.17 47.2167 1932.49 50 1933.12 52.5C1933.79 55 1934.81 56.9833 1936.17 58.45C1937.57 59.8833 1939.36 60.6 1941.52 60.6C1943.29 60.6 1944.89 60.1667 1946.32 59.3C1947.76 58.4 1948.97 57.2167 1949.97 55.75C1951.01 54.2833 1951.74 52.7 1952.17 51H1953.32L1952.92 58.6C1951.82 59.8 1950.27 60.8 1948.27 61.6C1946.27 62.3667 1943.89 62.75 1941.12 62.75ZM1974.5 28C1976.87 28 1979.07 28.4 1981.1 29.2C1983.13 30 1984.93 31.1667 1986.5 32.7C1988.07 34.2 1989.28 36.0167 1990.15 38.15C1991.02 40.2833 1991.45 42.6667 1991.45 45.3C1991.45 47.9333 1991.02 50.3167 1990.15 52.45C1989.28 54.5833 1988.07 56.4167 1986.5 57.95C1984.97 59.4833 1983.17 60.6667 1981.1 61.5C1979.03 62.3333 1976.82 62.75 1974.45 62.75C1972.12 62.75 1969.92 62.35 1967.85 61.55C1965.82 60.75 1964.02 59.6 1962.45 58.1C1960.88 56.5667 1959.67 54.7333 1958.8 52.6C1957.93 50.4667 1957.5 48.0833 1957.5 45.45C1957.5 42.8167 1957.93 40.4333 1958.8 38.3C1959.67 36.1667 1960.87 34.3333 1962.4 32.8C1963.97 31.2667 1965.78 30.0833 1967.85 29.25C1969.92 28.4167 1972.13 28 1974.5 28ZM1975.5 60.6C1977.23 60.6 1978.6 60.0333 1979.6 58.9C1980.6 57.7333 1981.32 56.1333 1981.75 54.1C1982.22 52.0667 1982.45 49.7 1982.45 47C1982.45 41.5667 1981.62 37.4 1979.95 34.5C1978.32 31.6 1976.15 30.15 1973.45 30.15C1971.75 30.15 1970.38 30.7167 1969.35 31.85C1968.35 32.9833 1967.62 34.5833 1967.15 36.65C1966.72 38.6833 1966.5 41.05 1966.5 43.75C1966.5 49.1833 1967.32 53.35 1968.95 56.25C1970.62 59.15 1972.8 60.6 1975.5 60.6ZM2014.59 62.4C2014.33 61.6333 2013.99 60.85 2013.59 60.05C2013.23 59.2167 2012.73 58.1333 2012.09 56.8L2003.09 38H2002.99L2002.09 57C2002.06 58.1333 2002.33 59.05 2002.89 59.75C2003.46 60.4167 2004.49 60.7833 2005.99 60.85V62H1996.74V60.85C1997.71 60.7833 1998.39 60.4167 1998.79 59.75C1999.23 59.05 1999.46 58.1333 1999.49 57L2000.54 33.75C2000.61 32.5833 2000.53 31.75 2000.29 31.25C2000.09 30.75 1999.73 30.4333 1999.19 30.3C1998.66 30.1333 1997.94 30 1997.04 29.9V28.75H2007.74C2008.01 29.6167 2008.31 30.4333 2008.64 31.2C2009.01 31.9667 2009.41 32.8167 2009.84 33.75L2018.44 51.75H2018.54L2026.54 33.75C2027.31 32.05 2027.89 30.3833 2028.29 28.75H2038.89V29.9C2038.26 29.9333 2037.73 30.0333 2037.29 30.2C2036.86 30.3667 2036.54 30.7167 2036.34 31.25C2036.18 31.75 2036.11 32.5833 2036.14 33.75L2037.19 57C2037.26 58.0667 2037.39 58.8667 2037.59 59.4C2037.83 59.9333 2038.19 60.3 2038.69 60.5C2039.19 60.6667 2039.86 60.7833 2040.69 60.85V62H2026.44V60.85C2027.51 60.7833 2028.24 60.5333 2028.64 60.1C2029.08 59.6667 2029.26 58.6333 2029.19 57L2028.34 36.55H2028.24L2019.19 56.8C2018.56 58.2 2018.09 59.3 2017.79 60.1C2017.53 60.8667 2017.29 61.6333 2017.09 62.4H2014.59ZM2062.59 62.4C2062.33 61.6333 2061.99 60.85 2061.59 60.05C2061.23 59.2167 2060.73 58.1333 2060.09 56.8L2051.09 38H2050.99L2050.09 57C2050.06 58.1333 2050.33 59.05 2050.89 59.75C2051.46 60.4167 2052.49 60.7833 2053.99 60.85V62H2044.74V60.85C2045.71 60.7833 2046.39 60.4167 2046.79 59.75C2047.23 59.05 2047.46 58.1333 2047.49 57L2048.54 33.75C2048.61 32.5833 2048.53 31.75 2048.29 31.25C2048.09 30.75 2047.73 30.4333 2047.19 30.3C2046.66 30.1333 2045.94 30 2045.04 29.9V28.75H2055.74C2056.01 29.6167 2056.31 30.4333 2056.64 31.2C2057.01 31.9667 2057.41 32.8167 2057.84 33.75L2066.44 51.75H2066.54L2074.54 33.75C2075.31 32.05 2075.89 30.3833 2076.29 28.75H2086.89V29.9C2086.26 29.9333 2085.73 30.0333 2085.29 30.2C2084.86 30.3667 2084.54 30.7167 2084.34 31.25C2084.18 31.75 2084.11 32.5833 2084.14 33.75L2085.19 57C2085.26 58.0667 2085.39 58.8667 2085.59 59.4C2085.83 59.9333 2086.19 60.3 2086.69 60.5C2087.19 60.6667 2087.86 60.7833 2088.69 60.85V62L2074.44 62V60.85C2075.51 60.7833 2076.24 60.5333 2076.64 60.1C2077.08 59.6667 2077.26 58.6333 2077.19 57L2076.34 36.55H2076.24L2067.19 56.8C2066.56 58.2 2066.09 59.3 2065.79 60.1C2065.53 60.8667 2065.29 61.6333 2065.09 62.4H2062.59ZM2127.92 52.75H2129.07L2128.57 62H2104.47V60.85C2104.73 60.7167 2105.13 60.4833 2105.67 60.15C2106.23 59.8167 2106.82 59.4333 2107.42 59C2109.08 57.8 2110.65 56.4333 2112.12 54.9C2113.58 53.3667 2114.87 51.7333 2115.97 50C2117.07 48.2667 2117.93 46.5333 2118.57 44.8C2119.2 43.0667 2119.52 41.4167 2119.52 39.85C2119.52 38.35 2119.15 37.0833 2118.42 36.05C2117.72 35.0167 2116.43 34.5 2114.57 34.5C2113 34.5 2111.55 34.9333 2110.22 35.8C2108.88 36.6667 2107.57 38.0167 2106.27 39.85L2105.32 39.05C2106.68 35.5833 2108.4 33 2110.47 31.3C2112.53 29.6 2115.12 28.75 2118.22 28.75C2120.02 28.75 2121.63 29.05 2123.07 29.65C2124.5 30.2167 2125.63 31.1167 2126.47 32.35C2127.33 33.55 2127.77 35.1167 2127.77 37.05C2127.77 40.4833 2126.67 43.7 2124.47 46.7C2122.3 49.7 2119.27 52.5167 2115.37 55.15V55.25H2122.67C2124.57 55.25 2125.88 55.0167 2126.62 54.55C2127.35 54.0833 2127.78 53.4833 2127.92 52.75ZM2149.2 28.75C2150.93 28.75 2152.63 29.0833 2154.3 29.75C2155.96 30.4167 2157.46 31.45 2158.8 32.85C2160.13 34.25 2161.18 36.0167 2161.95 38.15C2162.75 40.25 2163.15 42.75 2163.15 45.65C2163.15 48.5167 2162.76 51.0167 2162 53.15C2161.23 55.2833 2160.18 57.0667 2158.85 58.5C2157.51 59.9333 2156.01 61 2154.35 61.7C2152.68 62.4 2150.95 62.75 2149.15 62.75C2147.41 62.75 2145.71 62.4167 2144.05 61.75C2142.38 61.0833 2140.88 60.05 2139.55 58.65C2138.21 57.25 2137.15 55.5 2136.35 53.4C2135.58 51.2667 2135.2 48.75 2135.2 45.85C2135.2 42.9833 2135.58 40.4833 2136.35 38.35C2137.11 36.2167 2138.16 34.4333 2139.5 33C2140.83 31.5667 2142.33 30.5 2144 29.8C2145.66 29.1 2147.4 28.75 2149.2 28.75ZM2149.35 60.6C2150.31 60.6 2151.2 60.1667 2152 59.3C2152.8 58.4333 2153.43 56.9667 2153.9 54.9C2154.4 52.8333 2154.65 50 2154.65 46.4C2154.65 43.2667 2154.43 40.55 2154 38.25C2153.6 35.9167 2152.98 34.1167 2152.15 32.85C2151.31 31.55 2150.26 30.9 2149 30.9C2148.06 30.9 2147.18 31.3333 2146.35 32.2C2145.55 33.0667 2144.9 34.5333 2144.4 36.6C2143.93 38.6667 2143.7 41.5 2143.7 45.1C2143.7 48.2333 2143.9 50.9667 2144.3 53.3C2144.73 55.6 2145.36 57.4 2146.2 58.7C2147.03 59.9667 2148.08 60.6 2149.35 60.6ZM2190.76 52.75H2191.91L2191.41 62H2167.31V60.85C2167.58 60.7167 2167.98 60.4833 2168.51 60.15C2169.08 59.8167 2169.66 59.4333 2170.26 59C2171.93 57.8 2173.49 56.4333 2174.96 54.9C2176.43 53.3667 2177.71 51.7333 2178.81 50C2179.91 48.2667 2180.78 46.5333 2181.41 44.8C2182.04 43.0667 2182.36 41.4167 2182.36 39.85C2182.36 38.35 2181.99 37.0833 2181.26 36.05C2180.56 35.0167 2179.28 34.5 2177.41 34.5C2175.84 34.5 2174.39 34.9333 2173.06 35.8C2171.73 36.6667 2170.41 38.0167 2169.11 39.85L2168.16 39.05C2169.53 35.5833 2171.24 33 2173.31 31.3C2175.38 29.6 2177.96 28.75 2181.06 28.75C2182.86 28.75 2184.48 29.05 2185.91 29.65C2187.34 30.2167 2188.48 31.1167 2189.31 32.35C2190.18 33.55 2190.61 35.1167 2190.61 37.05C2190.61 40.4833 2189.51 43.7 2187.31 46.7C2185.14 49.7 2182.11 52.5167 2178.21 55.15V55.25H2185.51C2187.41 55.25 2188.73 55.0167 2189.46 54.55C2190.19 54.0833 2190.63 53.4833 2190.76 52.75ZM2218.54 49.25H2222.04V55.5H2219.94C2219.01 55.5 2218.54 56.0833 2218.54 57.25C2218.54 58.05 2218.54 58.8333 2218.54 59.6C2218.57 60.3333 2218.61 61.1333 2218.64 62L2210.74 62C2210.81 60.9 2210.86 59.8333 2210.89 58.8C2210.92 57.7333 2210.96 56.6333 2210.99 55.5L2195.19 55.5V54.35C2196.06 53.5167 2196.84 52.65 2197.54 51.75L2213.89 31.3C2214.26 30.8333 2214.59 30.3833 2214.89 29.95C2215.22 29.4833 2215.49 29.0833 2215.69 28.75H2218.59L2218.54 49.25ZM2210.89 38.8L2202.54 49.25L2211.04 49.25V38.8H2210.89Z" fill="black"/>
<path d="M2294.3 37.0198C2287.32 34.2334 2279.13 35.7195 2273.55 41.2924C2266.02 48.8159 2266.02 60.9834 2273.55 68.5069C2279.13 74.0798 2287.32 75.5659 2294.3 72.7795V63.8628C2292.9 64.513 2291.41 64.8845 2289.83 64.8845C2284.25 64.8845 2279.78 60.4262 2279.78 54.8532C2279.78 49.2803 2284.25 44.8219 2289.83 44.8219C2291.41 44.8219 2293 45.1935 2294.3 45.8437V37.0198Z" fill="black"/>
<path d="M2291.14 28.084C2293.89 25.3286 2293.89 20.768 2291.14 17.9176C2288.39 15.1622 2283.84 15.1622 2281 17.9176C2278.15 20.673 2278.25 25.2336 2281 28.084C2283.84 30.8394 2288.39 30.8394 2291.14 28.084Z" fill="black"/>
<path d="M2340.45 62V60.85C2341.41 60.7833 2342.11 60.5333 2342.55 60.1C2342.98 59.6667 2343.2 58.6333 2343.2 57V33.75C2343.2 32.1167 2342.95 31.0833 2342.45 30.65C2341.98 30.1833 2341.06 29.9333 2339.7 29.9V28.75H2353.95V29.9C2352.98 29.9333 2352.28 30.1833 2351.85 30.65C2351.41 31.0833 2351.2 32.1167 2351.2 33.75V57C2351.2 58.6333 2351.45 59.6667 2351.95 60.1C2352.45 60.5333 2353.36 60.7833 2354.7 60.85V62H2340.45ZM2389.32 62.4C2388.82 61.8667 2388.31 61.35 2387.77 60.85C2387.24 60.3167 2386.39 59.5333 2385.22 58.5L2365.52 40.5H2365.42V57C2365.42 58.1333 2365.71 59.05 2366.27 59.75C2366.87 60.4167 2367.89 60.7833 2369.32 60.85V62H2360.07V60.85C2361.04 60.7833 2361.74 60.4167 2362.17 59.75C2362.61 59.05 2362.82 58.1333 2362.82 57V33.75C2362.82 32.1167 2362.57 31.0833 2362.07 30.65C2361.61 30.1833 2360.69 29.9333 2359.32 29.9V28.75H2365.32C2365.82 29.3833 2366.36 29.95 2366.92 30.45C2367.49 30.95 2368.14 31.55 2368.87 32.25L2388.77 50.25H2388.87V33.75C2388.87 32.6167 2388.59 31.7 2388.02 31C2387.46 30.3 2386.44 29.9333 2384.97 29.9V28.75L2394.22 28.75V29.9C2393.26 29.9333 2392.56 30.3 2392.12 31C2391.69 31.7 2391.47 32.6167 2391.47 33.75V57C2391.47 57.9333 2391.47 58.8333 2391.47 59.7C2391.51 60.5333 2391.54 61.4333 2391.57 62.4H2389.32ZM2398.18 28.75L2426.68 28.75V37H2425.53C2425.33 35.2 2424.79 33.7333 2423.93 32.6C2423.06 31.4667 2421.58 30.9 2419.48 30.9L2416.43 30.9V57C2416.43 58.6333 2416.68 59.6667 2417.18 60.1C2417.68 60.5333 2418.59 60.7833 2419.93 60.85V62H2405.68V60.85C2406.64 60.7833 2407.34 60.5333 2407.78 60.1C2408.21 59.6667 2408.43 58.6333 2408.43 57V30.9H2405.33C2403.29 30.9 2401.83 31.4667 2400.93 32.6C2400.06 33.7333 2399.53 35.2 2399.33 37H2398.18V28.75ZM2431.21 62V60.85C2432.18 60.7833 2432.88 60.5333 2433.31 60.1C2433.75 59.6667 2433.96 58.6333 2433.96 57V33.75C2433.96 32.1167 2433.71 31.0833 2433.21 30.65C2432.75 30.1833 2431.83 29.9333 2430.46 29.9V28.75H2455.01V35.75H2453.86C2453.8 34.3167 2453.3 33.15 2452.36 32.25C2451.46 31.35 2450.06 30.9 2448.16 30.9H2444.16C2443.46 30.9 2442.91 31.0833 2442.51 31.45C2442.15 31.8167 2441.96 32.5833 2441.96 33.75V43.6C2442.23 43.4 2442.55 43.2667 2442.91 43.2C2443.31 43.1333 2443.78 43.1 2444.31 43.1H2449.16C2450.16 43.1 2451 42.8167 2451.66 42.25C2452.33 41.6833 2452.68 40.9 2452.71 39.9H2453.86V48.4H2452.71C2452.68 47.1667 2452.33 46.3333 2451.66 45.9C2451 45.4667 2450.16 45.25 2449.16 45.25H2444.41C2443.51 45.25 2442.88 45.4 2442.51 45.7C2442.15 46 2441.96 46.5833 2441.96 47.45V57C2441.96 58.1667 2442.21 58.9333 2442.71 59.3C2443.25 59.6667 2444.26 59.85 2445.76 59.85H2450.51C2452.51 59.85 2454.1 59.25 2455.26 58.05C2456.43 56.85 2457.08 55.4167 2457.21 53.75H2458.36L2457.96 62H2431.21ZM2491.91 62.75C2490.41 62.75 2489.12 62.5 2488.06 62C2486.99 61.5333 2486.09 60.9 2485.36 60.1C2484.62 59.3 2483.94 58.4167 2483.31 57.45L2476.31 46.55C2475.97 45.9833 2475.67 45.6333 2475.41 45.5C2475.14 45.3667 2474.82 45.2833 2474.46 45.25V43.5C2476.46 43.3667 2478.01 42.9667 2479.11 42.3C2480.21 41.6333 2480.97 40.8167 2481.41 39.85C2481.84 38.85 2482.06 37.8167 2482.06 36.75C2482.06 34.7167 2481.49 33.2 2480.36 32.2C2479.22 31.1667 2477.92 30.65 2476.46 30.65C2475.36 30.65 2474.57 30.85 2474.11 31.25C2473.67 31.6167 2473.46 32.45 2473.46 33.75V57C2473.46 58.6333 2473.71 59.6667 2474.21 60.1C2474.71 60.5333 2475.62 60.7833 2476.96 60.85V62H2462.71V60.85C2463.67 60.7833 2464.37 60.5333 2464.81 60.1C2465.24 59.6667 2465.46 58.6333 2465.46 57V33.75C2465.46 32.1167 2465.21 31.0833 2464.71 30.65C2464.24 30.1833 2463.32 29.9333 2461.96 29.9V28.75H2465.46C2467.96 28.75 2470.22 28.7167 2472.26 28.65C2474.29 28.55 2476.02 28.5 2477.46 28.5C2480.76 28.5 2483.37 28.8167 2485.31 29.45C2487.27 30.05 2488.67 30.9 2489.51 32C2490.37 33.1 2490.81 34.35 2490.81 35.75C2490.81 37.0833 2490.47 38.3 2489.81 39.4C2489.17 40.5 2488.32 41.4333 2487.26 42.2C2486.22 42.9333 2485.09 43.45 2483.86 43.75V43.85L2492.16 56.85C2493.12 58.3833 2494.01 59.4333 2494.81 60C2495.61 60.5667 2496.32 60.85 2496.96 60.85V62C2496.29 62.2333 2495.49 62.4167 2494.56 62.55C2493.66 62.6833 2492.77 62.75 2491.91 62.75ZM2515.52 62.75C2512.02 62.75 2508.92 62.05 2506.22 60.65C2503.52 59.25 2501.4 57.2833 2499.87 54.75C2498.34 52.1833 2497.57 49.2167 2497.57 45.85C2497.57 43.0833 2498.07 40.6167 2499.07 38.45C2500.07 36.25 2501.44 34.3667 2503.17 32.8C2504.94 31.2333 2506.95 30.05 2509.22 29.25C2511.52 28.4167 2513.97 28 2516.57 28C2518.54 28 2520.42 28.1833 2522.22 28.55C2524.02 28.9167 2525.45 29.35 2526.52 29.85V37.75H2525.37C2524.7 35.7167 2523.9 34.1667 2522.97 33.1C2522.04 32 2520.99 31.2333 2519.82 30.8C2518.69 30.3667 2517.49 30.15 2516.22 30.15C2509.79 30.15 2506.57 34.8167 2506.57 44.15C2506.57 47.2167 2506.89 50 2507.52 52.5C2508.19 55 2509.2 56.9833 2510.57 58.45C2511.97 59.8833 2513.75 60.6 2515.92 60.6C2517.69 60.6 2519.29 60.1667 2520.72 59.3C2522.15 58.4 2523.37 57.2167 2524.37 55.75C2525.4 54.2833 2526.14 52.7 2526.57 51H2527.72L2527.32 58.6C2526.22 59.8 2524.67 60.8 2522.67 61.6C2520.67 62.3667 2518.29 62.75 2515.52 62.75ZM2548.9 28C2551.26 28 2553.46 28.4 2555.5 29.2C2557.53 30 2559.33 31.1667 2560.9 32.7C2562.46 34.2 2563.68 36.0167 2564.55 38.15C2565.41 40.2833 2565.85 42.6667 2565.85 45.3C2565.85 47.9333 2565.41 50.3167 2564.55 52.45C2563.68 54.5833 2562.46 56.4167 2560.9 57.95C2559.36 59.4833 2557.56 60.6667 2555.5 61.5C2553.43 62.3333 2551.21 62.75 2548.85 62.75C2546.51 62.75 2544.31 62.35 2542.25 61.55C2540.21 60.75 2538.41 59.6 2536.85 58.1C2535.28 56.5667 2534.06 54.7333 2533.2 52.6C2532.33 50.4667 2531.9 48.0833 2531.9 45.45C2531.9 42.8167 2532.33 40.4333 2533.2 38.3C2534.06 36.1667 2535.26 34.3333 2536.8 32.8C2538.36 31.2667 2540.18 30.0833 2542.25 29.25C2544.31 28.4167 2546.53 28 2548.9 28ZM2549.9 60.6C2551.63 60.6 2553 60.0333 2554 58.9C2555 57.7333 2555.71 56.1333 2556.15 54.1C2556.61 52.0667 2556.85 49.7 2556.85 47C2556.85 41.5667 2556.01 37.4 2554.35 34.5C2552.71 31.6 2550.55 30.15 2547.85 30.15C2546.15 30.15 2544.78 30.7167 2543.75 31.85C2542.75 32.9833 2542.01 34.5833 2541.55 36.65C2541.11 38.6833 2540.9 41.05 2540.9 43.75C2540.9 49.1833 2541.71 53.35 2543.35 56.25C2545.01 59.15 2547.2 60.6 2549.9 60.6ZM2588.99 62.4C2588.73 61.6333 2588.39 60.85 2587.99 60.05C2587.63 59.2167 2587.13 58.1333 2586.49 56.8L2577.49 38H2577.39L2576.49 57C2576.46 58.1333 2576.73 59.05 2577.29 59.75C2577.86 60.4167 2578.89 60.7833 2580.39 60.85V62H2571.14V60.85C2572.11 60.7833 2572.79 60.4167 2573.19 59.75C2573.63 59.05 2573.86 58.1333 2573.89 57L2574.94 33.75C2575.01 32.5833 2574.93 31.75 2574.69 31.25C2574.49 30.75 2574.13 30.4333 2573.59 30.3C2573.06 30.1333 2572.34 30 2571.44 29.9V28.75H2582.14C2582.41 29.6167 2582.71 30.4333 2583.04 31.2C2583.41 31.9667 2583.81 32.8167 2584.24 33.75L2592.84 51.75H2592.94L2600.94 33.75C2601.71 32.05 2602.29 30.3833 2602.69 28.75H2613.29V29.9C2612.66 29.9333 2612.13 30.0333 2611.69 30.2C2611.26 30.3667 2610.94 30.7167 2610.74 31.25C2610.58 31.75 2610.51 32.5833 2610.54 33.75L2611.59 57C2611.66 58.0667 2611.79 58.8667 2611.99 59.4C2612.23 59.9333 2612.59 60.3 2613.09 60.5C2613.59 60.6667 2614.26 60.7833 2615.09 60.85V62H2600.84V60.85C2601.91 60.7833 2602.64 60.5333 2603.04 60.1C2603.48 59.6667 2603.66 58.6333 2603.59 57L2602.74 36.55H2602.64L2593.59 56.8C2592.96 58.2 2592.49 59.3 2592.19 60.1C2591.93 60.8667 2591.69 61.6333 2591.49 62.4H2588.99ZM2636.99 62.4C2636.72 61.6333 2636.39 60.85 2635.99 60.05C2635.62 59.2167 2635.12 58.1333 2634.49 56.8L2625.49 38H2625.39L2624.49 57C2624.46 58.1333 2624.72 59.05 2625.29 59.75C2625.86 60.4167 2626.89 60.7833 2628.39 60.85V62H2619.14V60.85C2620.11 60.7833 2620.79 60.4167 2621.19 59.75C2621.62 59.05 2621.86 58.1333 2621.89 57L2622.94 33.75C2623.01 32.5833 2622.92 31.75 2622.69 31.25C2622.49 30.75 2622.12 30.4333 2621.59 30.3C2621.06 30.1333 2620.34 30 2619.44 29.9V28.75H2630.14C2630.41 29.6167 2630.71 30.4333 2631.04 31.2C2631.41 31.9667 2631.81 32.8167 2632.24 33.75L2640.84 51.75H2640.94L2648.94 33.75C2649.71 32.05 2650.29 30.3833 2650.69 28.75H2661.29V29.9C2660.66 29.9333 2660.12 30.0333 2659.69 30.2C2659.26 30.3667 2658.94 30.7167 2658.74 31.25C2658.57 31.75 2658.51 32.5833 2658.54 33.75L2659.59 57C2659.66 58.0667 2659.79 58.8667 2659.99 59.4C2660.22 59.9333 2660.59 60.3 2661.09 60.5C2661.59 60.6667 2662.26 60.7833 2663.09 60.85V62L2648.84 62V60.85C2649.91 60.7833 2650.64 60.5333 2651.04 60.1C2651.47 59.6667 2651.66 58.6333 2651.59 57L2650.74 36.55H2650.64L2641.59 56.8C2640.96 58.2 2640.49 59.3 2640.19 60.1C2639.92 60.8667 2639.69 61.6333 2639.49 62.4H2636.99ZM2702.32 52.75H2703.47L2702.97 62H2678.87V60.85C2679.13 60.7167 2679.53 60.4833 2680.07 60.15C2680.63 59.8167 2681.22 59.4333 2681.82 59C2683.48 57.8 2685.05 56.4333 2686.52 54.9C2687.98 53.3667 2689.27 51.7333 2690.37 50C2691.47 48.2667 2692.33 46.5333 2692.97 44.8C2693.6 43.0667 2693.92 41.4167 2693.92 39.85C2693.92 38.35 2693.55 37.0833 2692.82 36.05C2692.12 35.0167 2690.83 34.5 2688.97 34.5C2687.4 34.5 2685.95 34.9333 2684.62 35.8C2683.28 36.6667 2681.97 38.0167 2680.67 39.85L2679.72 39.05C2681.08 35.5833 2682.8 33 2684.87 31.3C2686.93 29.6 2689.52 28.75 2692.62 28.75C2694.42 28.75 2696.03 29.05 2697.47 29.65C2698.9 30.2167 2700.03 31.1167 2700.87 32.35C2701.73 33.55 2702.17 35.1167 2702.17 37.05C2702.17 40.4833 2701.07 43.7 2698.87 46.7C2696.7 49.7 2693.67 52.5167 2689.77 55.15V55.25H2697.07C2698.97 55.25 2700.28 55.0167 2701.02 54.55C2701.75 54.0833 2702.18 53.4833 2702.32 52.75ZM2723.6 28.75C2725.33 28.75 2727.03 29.0833 2728.7 29.75C2730.36 30.4167 2731.86 31.45 2733.2 32.85C2734.53 34.25 2735.58 36.0167 2736.35 38.15C2737.15 40.25 2737.55 42.75 2737.55 45.65C2737.55 48.5167 2737.16 51.0167 2736.4 53.15C2735.63 55.2833 2734.58 57.0667 2733.25 58.5C2731.91 59.9333 2730.41 61 2728.75 61.7C2727.08 62.4 2725.35 62.75 2723.55 62.75C2721.81 62.75 2720.11 62.4167 2718.45 61.75C2716.78 61.0833 2715.28 60.05 2713.95 58.65C2712.61 57.25 2711.55 55.5 2710.75 53.4C2709.98 51.2667 2709.6 48.75 2709.6 45.85C2709.6 42.9833 2709.98 40.4833 2710.75 38.35C2711.51 36.2167 2712.56 34.4333 2713.9 33C2715.23 31.5667 2716.73 30.5 2718.4 29.8C2720.06 29.1 2721.8 28.75 2723.6 28.75ZM2723.75 60.6C2724.71 60.6 2725.6 60.1667 2726.4 59.3C2727.2 58.4333 2727.83 56.9667 2728.3 54.9C2728.8 52.8333 2729.05 50 2729.05 46.4C2729.05 43.2667 2728.83 40.55 2728.4 38.25C2728 35.9167 2727.38 34.1167 2726.55 32.85C2725.71 31.55 2724.66 30.9 2723.4 30.9C2722.46 30.9 2721.58 31.3333 2720.75 32.2C2719.95 33.0667 2719.3 34.5333 2718.8 36.6C2718.33 38.6667 2718.1 41.5 2718.1 45.1C2718.1 48.2333 2718.3 50.9667 2718.7 53.3C2719.13 55.6 2719.76 57.4 2720.6 58.7C2721.43 59.9667 2722.48 60.6 2723.75 60.6ZM2765.16 52.75H2766.31L2765.81 62H2741.71V60.85C2741.97 60.7167 2742.37 60.4833 2742.91 60.15C2743.47 59.8167 2744.06 59.4333 2744.66 59C2746.32 57.8 2747.89 56.4333 2749.36 54.9C2750.82 53.3667 2752.11 51.7333 2753.21 50C2754.31 48.2667 2755.17 46.5333 2755.81 44.8C2756.44 43.0667 2756.76 41.4167 2756.76 39.85C2756.76 38.35 2756.39 37.0833 2755.66 36.05C2754.96 35.0167 2753.67 34.5 2751.81 34.5C2750.24 34.5 2748.79 34.9333 2747.46 35.8C2746.12 36.6667 2744.81 38.0167 2743.51 39.85L2742.56 39.05C2743.92 35.5833 2745.64 33 2747.71 31.3C2749.77 29.6 2752.36 28.75 2755.46 28.75C2757.26 28.75 2758.87 29.05 2760.31 29.65C2761.74 30.2167 2762.87 31.1167 2763.71 32.35C2764.57 33.55 2765.01 35.1167 2765.01 37.05C2765.01 40.4833 2763.91 43.7 2761.71 46.7C2759.54 49.7 2756.51 52.5167 2752.61 55.15V55.25H2759.91C2761.81 55.25 2763.12 55.0167 2763.86 54.55C2764.59 54.0833 2765.02 53.4833 2765.16 52.75ZM2792.94 49.25H2796.44V55.5H2794.34C2793.41 55.5 2792.94 56.0833 2792.94 57.25C2792.94 58.05 2792.94 58.8333 2792.94 59.6C2792.97 60.3333 2793.01 61.1333 2793.04 62L2785.14 62C2785.21 60.9 2785.26 59.8333 2785.29 58.8C2785.32 57.7333 2785.36 56.6333 2785.39 55.5L2769.59 55.5V54.35C2770.46 53.5167 2771.24 52.65 2771.94 51.75L2788.29 31.3C2788.66 30.8333 2788.99 30.3833 2789.29 29.95C2789.62 29.4833 2789.89 29.0833 2790.09 28.75H2792.99L2792.94 49.25ZM2785.29 38.8L2776.94 49.25L2785.44 49.25V38.8H2785.29Z" fill="black"/>
<defs>
<linearGradient id="paint0_linear_562_1115" x1="0" y1="45" x2="2839" y2="45" gradientUnits="userSpaceOnUse">
<stop stop-color="white"/>
<stop offset="0.325" stop-color="#D4D4D4"/>
<stop offset="0.685" stop-color="white"/>
<stop offset="0.98" stop-color="#D4D4D4"/>
</linearGradient>
</defs>
</svg>
