<svg width="2841" height="91" viewBox="0 0 2841 91" fill="none" xmlns="http://www.w3.org/2000/svg">
<rect width="2839.6" height="90" transform="translate(0.78125 0.0742798)" fill="url(#paint0_linear_562_1061)"/>
<path d="M43.9313 62.0743V60.9243C44.8979 60.8576 45.5979 60.6076 46.0313 60.1743C46.4646 59.7409 46.6813 58.7076 46.6813 57.0743V33.8243C46.6813 32.1909 46.4313 31.1576 45.9313 30.7243C45.4646 30.2576 44.5479 30.0076 43.1813 29.9743V28.8243H57.4313V29.9743C56.4646 30.0076 55.7646 30.2576 55.3313 30.7243C54.8979 31.1576 54.6813 32.1909 54.6813 33.8243V57.0743C54.6813 58.7076 54.9313 59.7409 55.4313 60.1743C55.9313 60.6076 56.8479 60.8576 58.1813 60.9243V62.0743H43.9313ZM92.8055 62.4743C92.3055 61.9409 91.7888 61.4243 91.2555 60.9243C90.7221 60.3909 89.8721 59.6076 88.7055 58.5743L69.0055 40.5743H68.9055V57.0743C68.9055 58.2076 69.1888 59.1243 69.7555 59.8243C70.3555 60.4909 71.3721 60.8576 72.8055 60.9243V62.0743H63.5555V60.9243C64.5221 60.8576 65.2221 60.4909 65.6555 59.8243C66.0888 59.1243 66.3055 58.2076 66.3055 57.0743V33.8243C66.3055 32.1909 66.0555 31.1576 65.5555 30.7243C65.0888 30.2576 64.1721 30.0076 62.8055 29.9743V28.8243H68.8055C69.3055 29.4576 69.8388 30.0243 70.4055 30.5243C70.9721 31.0243 71.6221 31.6243 72.3555 32.3243L92.2555 50.3243H92.3555V33.8243C92.3555 32.6909 92.0721 31.7743 91.5055 31.0743C90.9388 30.3743 89.9221 30.0076 88.4555 29.9743V28.8243H97.7055V29.9743C96.7388 30.0076 96.0388 30.3743 95.6055 31.0743C95.1721 31.7743 94.9555 32.6909 94.9555 33.8243V57.0743C94.9555 58.0076 94.9555 58.9076 94.9555 59.7743C94.9888 60.6076 95.0221 61.5076 95.0555 62.4743H92.8055ZM101.66 28.8243H130.16V37.0743H129.01C128.81 35.2743 128.276 33.8076 127.41 32.6743C126.543 31.5409 125.06 30.9743 122.96 30.9743H119.91V57.0743C119.91 58.7076 120.16 59.7409 120.66 60.1743C121.16 60.6076 122.076 60.8576 123.41 60.9243V62.0743H109.16V60.9243C110.126 60.8576 110.826 60.6076 111.26 60.1743C111.693 59.7409 111.91 58.7076 111.91 57.0743V30.9743H108.81C106.776 30.9743 105.31 31.5409 104.41 32.6743C103.543 33.8076 103.01 35.2743 102.81 37.0743H101.66V28.8243ZM134.697 62.0743V60.9243C135.664 60.8576 136.364 60.6076 136.797 60.1743C137.23 59.7409 137.447 58.7076 137.447 57.0743V33.8243C137.447 32.1909 137.197 31.1576 136.697 30.7243C136.23 30.2576 135.314 30.0076 133.947 29.9743V28.8243H158.497V35.8243H157.347C157.28 34.3909 156.78 33.2243 155.847 32.3243C154.947 31.4243 153.547 30.9743 151.647 30.9743H147.647C146.947 30.9743 146.397 31.1576 145.997 31.5243C145.63 31.8909 145.447 32.6576 145.447 33.8243V43.6743C145.714 43.4743 146.03 43.3409 146.397 43.2743C146.797 43.2076 147.264 43.1743 147.797 43.1743H152.647C153.647 43.1743 154.48 42.8909 155.147 42.3243C155.814 41.7576 156.164 40.9743 156.197 39.9743H157.347V48.4743H156.197C156.164 47.2409 155.814 46.4076 155.147 45.9743C154.48 45.5409 153.647 45.3243 152.647 45.3243H147.897C146.997 45.3243 146.364 45.4743 145.997 45.7743C145.63 46.0743 145.447 46.6576 145.447 47.5243V57.0743C145.447 58.2409 145.697 59.0076 146.197 59.3743C146.73 59.7409 147.747 59.9243 149.247 59.9243H153.997C155.997 59.9243 157.58 59.3243 158.747 58.1243C159.914 56.9243 160.564 55.4909 160.697 53.8243H161.847L161.447 62.0743H134.697ZM195.391 62.8243C193.891 62.8243 192.608 62.5743 191.541 62.0743C190.474 61.6076 189.574 60.9743 188.841 60.1743C188.108 59.3743 187.424 58.4909 186.791 57.5243L179.791 46.6243C179.458 46.0576 179.158 45.7076 178.891 45.5743C178.624 45.4409 178.308 45.3576 177.941 45.3243V43.5743C179.941 43.4409 181.491 43.0409 182.591 42.3743C183.691 41.7076 184.458 40.8909 184.891 39.9243C185.324 38.9243 185.541 37.8909 185.541 36.8243C185.541 34.7909 184.974 33.2743 183.841 32.2743C182.708 31.2409 181.408 30.7243 179.941 30.7243C178.841 30.7243 178.058 30.9243 177.591 31.3243C177.158 31.6909 176.941 32.5243 176.941 33.8243V57.0743C176.941 58.7076 177.191 59.7409 177.691 60.1743C178.191 60.6076 179.108 60.8576 180.441 60.9243V62.0743H166.191V60.9243C167.158 60.8576 167.858 60.6076 168.291 60.1743C168.724 59.7409 168.941 58.7076 168.941 57.0743V33.8243C168.941 32.1909 168.691 31.1576 168.191 30.7243C167.724 30.2576 166.808 30.0076 165.441 29.9743V28.8243H168.941C171.441 28.8243 173.708 28.7909 175.741 28.7243C177.774 28.6243 179.508 28.5743 180.941 28.5743C184.241 28.5743 186.858 28.8909 188.791 29.5243C190.758 30.1243 192.158 30.9743 192.991 32.0743C193.858 33.1743 194.291 34.4243 194.291 35.8243C194.291 37.1576 193.958 38.3743 193.291 39.4743C192.658 40.5743 191.808 41.5076 190.741 42.2743C189.708 43.0076 188.574 43.5243 187.341 43.8243V43.9243L195.641 56.9243C196.608 58.4576 197.491 59.5076 198.291 60.0743C199.091 60.6409 199.808 60.9243 200.441 60.9243V62.0743C199.774 62.3076 198.974 62.4909 198.041 62.6243C197.141 62.7576 196.258 62.8243 195.391 62.8243ZM219.004 62.8243C215.504 62.8243 212.404 62.1243 209.704 60.7243C207.004 59.3243 204.888 57.3576 203.354 54.8243C201.821 52.2576 201.054 49.2909 201.054 45.9243C201.054 43.1576 201.554 40.6909 202.554 38.5243C203.554 36.3243 204.921 34.4409 206.654 32.8743C208.421 31.3076 210.438 30.1243 212.704 29.3243C215.004 28.4909 217.454 28.0743 220.054 28.0743C222.021 28.0743 223.904 28.2576 225.704 28.6243C227.504 28.9909 228.938 29.4243 230.004 29.9243V37.8243H228.854C228.188 35.7909 227.388 34.2409 226.454 33.1743C225.521 32.0743 224.471 31.3076 223.304 30.8743C222.171 30.4409 220.971 30.2243 219.704 30.2243C213.271 30.2243 210.054 34.8909 210.054 44.2243C210.054 47.2909 210.371 50.0743 211.004 52.5743C211.671 55.0743 212.688 57.0576 214.054 58.5243C215.454 59.9576 217.238 60.6743 219.404 60.6743C221.171 60.6743 222.771 60.2409 224.204 59.3743C225.638 58.4743 226.854 57.2909 227.854 55.8243C228.888 54.3576 229.621 52.7743 230.054 51.0743H231.204L230.804 58.6743C229.704 59.8743 228.154 60.8743 226.154 61.6743C224.154 62.4409 221.771 62.8243 219.004 62.8243ZM252.38 28.0743C254.747 28.0743 256.947 28.4743 258.98 29.2743C261.014 30.0743 262.814 31.2409 264.38 32.7743C265.947 34.2743 267.164 36.0909 268.03 38.2243C268.897 40.3576 269.33 42.7409 269.33 45.3743C269.33 48.0076 268.897 50.3909 268.03 52.5243C267.164 54.6576 265.947 56.4909 264.38 58.0243C262.847 59.5576 261.047 60.7409 258.98 61.5743C256.914 62.4076 254.697 62.8243 252.33 62.8243C249.997 62.8243 247.797 62.4243 245.73 61.6243C243.697 60.8243 241.897 59.6743 240.33 58.1743C238.764 56.6409 237.547 54.8076 236.68 52.6743C235.814 50.5409 235.38 48.1576 235.38 45.5243C235.38 42.8909 235.814 40.5076 236.68 38.3743C237.547 36.2409 238.747 34.4076 240.28 32.8743C241.847 31.3409 243.664 30.1576 245.73 29.3243C247.797 28.4909 250.014 28.0743 252.38 28.0743ZM253.38 60.6743C255.114 60.6743 256.48 60.1076 257.48 58.9743C258.48 57.8076 259.197 56.2076 259.63 54.1743C260.097 52.1409 260.33 49.7743 260.33 47.0743C260.33 41.6409 259.497 37.4743 257.83 34.5743C256.197 31.6743 254.03 30.2243 251.33 30.2243C249.63 30.2243 248.264 30.7909 247.23 31.9243C246.23 33.0576 245.497 34.6576 245.03 36.7243C244.597 38.7576 244.38 41.1243 244.38 43.8243C244.38 49.2576 245.197 53.4243 246.83 56.3243C248.497 59.2243 250.68 60.6743 253.38 60.6743ZM292.477 62.4743C292.21 61.7076 291.877 60.9243 291.477 60.1243C291.11 59.2909 290.61 58.2076 289.977 56.8743L280.977 38.0743H280.877L279.977 57.0743C279.943 58.2076 280.21 59.1243 280.777 59.8243C281.343 60.4909 282.377 60.8576 283.877 60.9243V62.0743H274.627V60.9243C275.593 60.8576 276.277 60.4909 276.677 59.8243C277.11 59.1243 277.343 58.2076 277.377 57.0743L278.427 33.8243C278.493 32.6576 278.41 31.8243 278.177 31.3243C277.977 30.8243 277.61 30.5076 277.077 30.3743C276.543 30.2076 275.827 30.0743 274.927 29.9743V28.8243H285.627C285.893 29.6909 286.193 30.5076 286.527 31.2743C286.893 32.0409 287.293 32.8909 287.727 33.8243L296.327 51.8243H296.427L304.427 33.8243C305.193 32.1243 305.777 30.4576 306.177 28.8243H316.777V29.9743C316.143 30.0076 315.61 30.1076 315.177 30.2743C314.743 30.4409 314.427 30.7909 314.227 31.3243C314.06 31.8243 313.993 32.6576 314.027 33.8243L315.077 57.0743C315.143 58.1409 315.277 58.9409 315.477 59.4743C315.71 60.0076 316.077 60.3743 316.577 60.5743C317.077 60.7409 317.743 60.8576 318.577 60.9243V62.0743H304.327V60.9243C305.393 60.8576 306.127 60.6076 306.527 60.1743C306.96 59.7409 307.143 58.7076 307.077 57.0743L306.227 36.6243H306.127L297.077 56.8743C296.443 58.2743 295.977 59.3743 295.677 60.1743C295.41 60.9409 295.177 61.7076 294.977 62.4743H292.477ZM340.475 62.4743C340.208 61.7076 339.875 60.9243 339.475 60.1243C339.108 59.2909 338.608 58.2076 337.975 56.8743L328.975 38.0743H328.875L327.975 57.0743C327.941 58.2076 328.208 59.1243 328.775 59.8243C329.341 60.4909 330.375 60.8576 331.875 60.9243V62.0743H322.625V60.9243C323.591 60.8576 324.275 60.4909 324.675 59.8243C325.108 59.1243 325.341 58.2076 325.375 57.0743L326.425 33.8243C326.491 32.6576 326.408 31.8243 326.175 31.3243C325.975 30.8243 325.608 30.5076 325.075 30.3743C324.541 30.2076 323.825 30.0743 322.925 29.9743V28.8243H333.625C333.891 29.6909 334.191 30.5076 334.525 31.2743C334.891 32.0409 335.291 32.8909 335.725 33.8243L344.325 51.8243H344.425L352.425 33.8243C353.191 32.1243 353.775 30.4576 354.175 28.8243H364.775V29.9743C364.141 30.0076 363.608 30.1076 363.175 30.2743C362.741 30.4409 362.425 30.7909 362.225 31.3243C362.058 31.8243 361.991 32.6576 362.025 33.8243L363.075 57.0743C363.141 58.1409 363.275 58.9409 363.475 59.4743C363.708 60.0076 364.075 60.3743 364.575 60.5743C365.075 60.7409 365.741 60.8576 366.575 60.9243V62.0743H352.325V60.9243C353.391 60.8576 354.125 60.6076 354.525 60.1743C354.958 59.7409 355.141 58.7076 355.075 57.0743L354.225 36.6243H354.125L345.075 56.8743C344.441 58.2743 343.975 59.3743 343.675 60.1743C343.408 60.9409 343.175 61.7076 342.975 62.4743H340.475ZM405.799 52.8243H406.949L406.449 62.0743H382.349V60.9243C382.616 60.7909 383.016 60.5576 383.549 60.2243C384.116 59.8909 384.699 59.5076 385.299 59.0743C386.966 57.8743 388.533 56.5076 389.999 54.9743C391.466 53.4409 392.749 51.8076 393.849 50.0743C394.949 48.3409 395.816 46.6076 396.449 44.8743C397.083 43.1409 397.399 41.4909 397.399 39.9243C397.399 38.4243 397.033 37.1576 396.299 36.1243C395.599 35.0909 394.316 34.5743 392.449 34.5743C390.883 34.5743 389.433 35.0076 388.099 35.8743C386.766 36.7409 385.449 38.0909 384.149 39.9243L383.199 39.1243C384.566 35.6576 386.283 33.0743 388.349 31.3743C390.416 29.6743 392.999 28.8243 396.099 28.8243C397.899 28.8243 399.516 29.1243 400.949 29.7243C402.383 30.2909 403.516 31.1909 404.349 32.4243C405.216 33.6243 405.649 35.1909 405.649 37.1243C405.649 40.5576 404.549 43.7743 402.349 46.7743C400.183 49.7743 397.149 52.5909 393.249 55.2243V55.3243H400.549C402.449 55.3243 403.766 55.0909 404.499 54.6243C405.233 54.1576 405.666 53.5576 405.799 52.8243ZM427.08 28.8243C428.813 28.8243 430.513 29.1576 432.18 29.8243C433.847 30.4909 435.347 31.5243 436.68 32.9243C438.013 34.3243 439.063 36.0909 439.83 38.2243C440.63 40.3243 441.03 42.8243 441.03 45.7243C441.03 48.5909 440.647 51.0909 439.88 53.2243C439.113 55.3576 438.063 57.1409 436.73 58.5743C435.397 60.0076 433.897 61.0743 432.23 61.7743C430.563 62.4743 428.83 62.8243 427.03 62.8243C425.297 62.8243 423.597 62.4909 421.93 61.8243C420.263 61.1576 418.763 60.1243 417.43 58.7243C416.097 57.3243 415.03 55.5743 414.23 53.4743C413.463 51.3409 413.08 48.8243 413.08 45.9243C413.08 43.0576 413.463 40.5576 414.23 38.4243C414.997 36.2909 416.047 34.5076 417.38 33.0743C418.713 31.6409 420.213 30.5743 421.88 29.8743C423.547 29.1743 425.28 28.8243 427.08 28.8243ZM427.23 60.6743C428.197 60.6743 429.08 60.2409 429.88 59.3743C430.68 58.5076 431.313 57.0409 431.78 54.9743C432.28 52.9076 432.53 50.0743 432.53 46.4743C432.53 43.3409 432.313 40.6243 431.88 38.3243C431.48 35.9909 430.863 34.1909 430.03 32.9243C429.197 31.6243 428.147 30.9743 426.88 30.9743C425.947 30.9743 425.063 31.4076 424.23 32.2743C423.43 33.1409 422.78 34.6076 422.28 36.6743C421.813 38.7409 421.58 41.5743 421.58 45.1743C421.58 48.3076 421.78 51.0409 422.18 53.3743C422.613 55.6743 423.247 57.4743 424.08 58.7743C424.913 60.0409 425.963 60.6743 427.23 60.6743ZM468.641 52.8243H469.791L469.291 62.0743H445.191V60.9243C445.458 60.7909 445.858 60.5576 446.391 60.2243C446.958 59.8909 447.541 59.5076 448.141 59.0743C449.808 57.8743 451.374 56.5076 452.841 54.9743C454.308 53.4409 455.591 51.8076 456.691 50.0743C457.791 48.3409 458.658 46.6076 459.291 44.8743C459.924 43.1409 460.241 41.4909 460.241 39.9243C460.241 38.4243 459.874 37.1576 459.141 36.1243C458.441 35.0909 457.158 34.5743 455.291 34.5743C453.724 34.5743 452.274 35.0076 450.941 35.8743C449.608 36.7409 448.291 38.0909 446.991 39.9243L446.041 39.1243C447.408 35.6576 449.124 33.0743 451.191 31.3743C453.258 29.6743 455.841 28.8243 458.941 28.8243C460.741 28.8243 462.358 29.1243 463.791 29.7243C465.224 30.2909 466.358 31.1909 467.191 32.4243C468.058 33.6243 468.491 35.1909 468.491 37.1243C468.491 40.5576 467.391 43.7743 465.191 46.7743C463.024 49.7743 459.991 52.5909 456.091 55.2243V55.3243H463.391C465.291 55.3243 466.608 55.0909 467.341 54.6243C468.074 54.1576 468.508 53.5576 468.641 52.8243ZM496.422 49.3243H499.922V55.5743H497.822C496.889 55.5743 496.422 56.1576 496.422 57.3243C496.422 58.1243 496.422 58.9076 496.422 59.6743C496.455 60.4076 496.489 61.2076 496.522 62.0743H488.622C488.689 60.9743 488.739 59.9076 488.772 58.8743C488.805 57.8076 488.839 56.7076 488.872 55.5743H473.072V54.4243C473.939 53.5909 474.722 52.7243 475.422 51.8243L491.772 31.3743C492.139 30.9076 492.472 30.4576 492.772 30.0243C493.105 29.5576 493.372 29.1576 493.572 28.8243H496.472L496.422 49.3243ZM488.772 38.8743L480.422 49.3243H488.922V38.8743H488.772Z" fill="black"/>
<path d="M572.18 37.0941C565.203 34.3076 557.015 35.7937 551.433 41.3666C543.897 48.8901 543.897 61.0577 551.433 68.5811C557.015 74.154 565.203 75.6402 572.18 72.8537V63.937C570.785 64.5872 569.296 64.9587 567.715 64.9587C562.132 64.9587 557.667 60.5004 557.667 54.9274C557.667 49.3545 562.132 44.8962 567.715 44.8962C569.296 44.8962 570.878 45.2677 572.18 45.9179V37.0941Z" fill="black"/>
<path d="M569.019 28.1583C571.768 25.403 571.768 20.8423 569.019 17.9919C566.271 15.2366 561.722 15.2366 558.878 17.9919C556.035 20.7473 556.13 25.308 558.878 28.1583C561.722 30.9137 566.271 30.9137 569.019 28.1583Z" fill="black"/>
<path d="M618.33 62.0743V60.9243C619.296 60.8576 619.996 60.6076 620.43 60.1743C620.863 59.7409 621.08 58.7076 621.08 57.0743V33.8243C621.08 32.1909 620.83 31.1576 620.33 30.7243C619.863 30.2576 618.946 30.0076 617.58 29.9743V28.8243H631.83V29.9743C630.863 30.0076 630.163 30.2576 629.73 30.7243C629.296 31.1576 629.08 32.1909 629.08 33.8243V57.0743C629.08 58.7076 629.33 59.7409 629.83 60.1743C630.33 60.6076 631.246 60.8576 632.58 60.9243V62.0743H618.33ZM667.204 62.4743C666.704 61.9409 666.187 61.4243 665.654 60.9243C665.121 60.3909 664.271 59.6076 663.104 58.5743L643.404 40.5743H643.304V57.0743C643.304 58.2076 643.587 59.1243 644.154 59.8243C644.754 60.4909 645.771 60.8576 647.204 60.9243V62.0743H637.954V60.9243C638.921 60.8576 639.621 60.4909 640.054 59.8243C640.487 59.1243 640.704 58.2076 640.704 57.0743V33.8243C640.704 32.1909 640.454 31.1576 639.954 30.7243C639.487 30.2576 638.571 30.0076 637.204 29.9743V28.8243H643.204C643.704 29.4576 644.237 30.0243 644.804 30.5243C645.371 31.0243 646.021 31.6243 646.754 32.3243L666.654 50.3243H666.754V33.8243C666.754 32.6909 666.471 31.7743 665.904 31.0743C665.337 30.3743 664.321 30.0076 662.854 29.9743V28.8243H672.104V29.9743C671.137 30.0076 670.437 30.3743 670.004 31.0743C669.571 31.7743 669.354 32.6909 669.354 33.8243V57.0743C669.354 58.0076 669.354 58.9076 669.354 59.7743C669.387 60.6076 669.421 61.5076 669.454 62.4743H667.204ZM676.058 28.8243H704.558V37.0743H703.408C703.208 35.2743 702.675 33.8076 701.808 32.6743C700.942 31.5409 699.458 30.9743 697.358 30.9743H694.308V57.0743C694.308 58.7076 694.558 59.7409 695.058 60.1743C695.558 60.6076 696.475 60.8576 697.808 60.9243V62.0743H683.558V60.9243C684.525 60.8576 685.225 60.6076 685.658 60.1743C686.092 59.7409 686.308 58.7076 686.308 57.0743V30.9743H683.208C681.175 30.9743 679.708 31.5409 678.808 32.6743C677.942 33.8076 677.408 35.2743 677.208 37.0743H676.058V28.8243ZM709.095 62.0743V60.9243C710.062 60.8576 710.762 60.6076 711.195 60.1743C711.629 59.7409 711.845 58.7076 711.845 57.0743V33.8243C711.845 32.1909 711.595 31.1576 711.095 30.7243C710.629 30.2576 709.712 30.0076 708.345 29.9743V28.8243H732.895V35.8243H731.745C731.679 34.3909 731.179 33.2243 730.245 32.3243C729.345 31.4243 727.945 30.9743 726.045 30.9743H722.045C721.345 30.9743 720.795 31.1576 720.395 31.5243C720.029 31.8909 719.845 32.6576 719.845 33.8243V43.6743C720.112 43.4743 720.429 43.3409 720.795 43.2743C721.195 43.2076 721.662 43.1743 722.195 43.1743H727.045C728.045 43.1743 728.879 42.8909 729.545 42.3243C730.212 41.7576 730.562 40.9743 730.595 39.9743H731.745V48.4743H730.595C730.562 47.2409 730.212 46.4076 729.545 45.9743C728.879 45.5409 728.045 45.3243 727.045 45.3243H722.295C721.395 45.3243 720.762 45.4743 720.395 45.7743C720.029 46.0743 719.845 46.6576 719.845 47.5243V57.0743C719.845 58.2409 720.095 59.0076 720.595 59.3743C721.129 59.7409 722.145 59.9243 723.645 59.9243H728.395C730.395 59.9243 731.979 59.3243 733.145 58.1243C734.312 56.9243 734.962 55.4909 735.095 53.8243H736.245L735.845 62.0743H709.095ZM769.789 62.8243C768.289 62.8243 767.006 62.5743 765.939 62.0743C764.873 61.6076 763.973 60.9743 763.239 60.1743C762.506 59.3743 761.823 58.4909 761.189 57.5243L754.189 46.6243C753.856 46.0576 753.556 45.7076 753.289 45.5743C753.023 45.4409 752.706 45.3576 752.339 45.3243V43.5743C754.339 43.4409 755.889 43.0409 756.989 42.3743C758.089 41.7076 758.856 40.8909 759.289 39.9243C759.723 38.9243 759.939 37.8909 759.939 36.8243C759.939 34.7909 759.373 33.2743 758.239 32.2743C757.106 31.2409 755.806 30.7243 754.339 30.7243C753.239 30.7243 752.456 30.9243 751.989 31.3243C751.556 31.6909 751.339 32.5243 751.339 33.8243V57.0743C751.339 58.7076 751.589 59.7409 752.089 60.1743C752.589 60.6076 753.506 60.8576 754.839 60.9243V62.0743H740.589V60.9243C741.556 60.8576 742.256 60.6076 742.689 60.1743C743.123 59.7409 743.339 58.7076 743.339 57.0743V33.8243C743.339 32.1909 743.089 31.1576 742.589 30.7243C742.123 30.2576 741.206 30.0076 739.839 29.9743V28.8243H743.339C745.839 28.8243 748.106 28.7909 750.139 28.7243C752.173 28.6243 753.906 28.5743 755.339 28.5743C758.639 28.5743 761.256 28.8909 763.189 29.5243C765.156 30.1243 766.556 30.9743 767.389 32.0743C768.256 33.1743 768.689 34.4243 768.689 35.8243C768.689 37.1576 768.356 38.3743 767.689 39.4743C767.056 40.5743 766.206 41.5076 765.139 42.2743C764.106 43.0076 762.973 43.5243 761.739 43.8243V43.9243L770.039 56.9243C771.006 58.4576 771.889 59.5076 772.689 60.0743C773.489 60.6409 774.206 60.9243 774.839 60.9243V62.0743C774.173 62.3076 773.373 62.4909 772.439 62.6243C771.539 62.7576 770.656 62.8243 769.789 62.8243ZM793.403 62.8243C789.903 62.8243 786.803 62.1243 784.103 60.7243C781.403 59.3243 779.286 57.3576 777.753 54.8243C776.219 52.2576 775.453 49.2909 775.453 45.9243C775.453 43.1576 775.953 40.6909 776.953 38.5243C777.953 36.3243 779.319 34.4409 781.053 32.8743C782.819 31.3076 784.836 30.1243 787.103 29.3243C789.403 28.4909 791.853 28.0743 794.453 28.0743C796.419 28.0743 798.303 28.2576 800.103 28.6243C801.903 28.9909 803.336 29.4243 804.403 29.9243V37.8243H803.253C802.586 35.7909 801.786 34.2409 800.853 33.1743C799.919 32.0743 798.869 31.3076 797.703 30.8743C796.569 30.4409 795.369 30.2243 794.103 30.2243C787.669 30.2243 784.453 34.8909 784.453 44.2243C784.453 47.2909 784.769 50.0743 785.403 52.5743C786.069 55.0743 787.086 57.0576 788.453 58.5243C789.853 59.9576 791.636 60.6743 793.803 60.6743C795.569 60.6743 797.169 60.2409 798.603 59.3743C800.036 58.4743 801.253 57.2909 802.253 55.8243C803.286 54.3576 804.019 52.7743 804.453 51.0743H805.603L805.203 58.6743C804.103 59.8743 802.553 60.8743 800.553 61.6743C798.553 62.4409 796.169 62.8243 793.403 62.8243ZM826.779 28.0743C829.146 28.0743 831.346 28.4743 833.379 29.2743C835.412 30.0743 837.212 31.2409 838.779 32.7743C840.346 34.2743 841.562 36.0909 842.429 38.2243C843.296 40.3576 843.729 42.7409 843.729 45.3743C843.729 48.0076 843.296 50.3909 842.429 52.5243C841.562 54.6576 840.346 56.4909 838.779 58.0243C837.246 59.5576 835.446 60.7409 833.379 61.5743C831.312 62.4076 829.096 62.8243 826.729 62.8243C824.396 62.8243 822.196 62.4243 820.129 61.6243C818.096 60.8243 816.296 59.6743 814.729 58.1743C813.162 56.6409 811.946 54.8076 811.079 52.6743C810.212 50.5409 809.779 48.1576 809.779 45.5243C809.779 42.8909 810.212 40.5076 811.079 38.3743C811.946 36.2409 813.146 34.4076 814.679 32.8743C816.246 31.3409 818.062 30.1576 820.129 29.3243C822.196 28.4909 824.412 28.0743 826.779 28.0743ZM827.779 60.6743C829.512 60.6743 830.879 60.1076 831.879 58.9743C832.879 57.8076 833.596 56.2076 834.029 54.1743C834.496 52.1409 834.729 49.7743 834.729 47.0743C834.729 41.6409 833.896 37.4743 832.229 34.5743C830.596 31.6743 828.429 30.2243 825.729 30.2243C824.029 30.2243 822.662 30.7909 821.629 31.9243C820.629 33.0576 819.896 34.6576 819.429 36.7243C818.996 38.7576 818.779 41.1243 818.779 43.8243C818.779 49.2576 819.596 53.4243 821.229 56.3243C822.896 59.2243 825.079 60.6743 827.779 60.6743ZM866.875 62.4743C866.608 61.7076 866.275 60.9243 865.875 60.1243C865.508 59.2909 865.008 58.2076 864.375 56.8743L855.375 38.0743H855.275L854.375 57.0743C854.342 58.2076 854.608 59.1243 855.175 59.8243C855.742 60.4909 856.775 60.8576 858.275 60.9243V62.0743H849.025V60.9243C849.992 60.8576 850.675 60.4909 851.075 59.8243C851.508 59.1243 851.742 58.2076 851.775 57.0743L852.825 33.8243C852.892 32.6576 852.808 31.8243 852.575 31.3243C852.375 30.8243 852.008 30.5076 851.475 30.3743C850.942 30.2076 850.225 30.0743 849.325 29.9743V28.8243H860.025C860.292 29.6909 860.592 30.5076 860.925 31.2743C861.292 32.0409 861.692 32.8909 862.125 33.8243L870.725 51.8243H870.825L878.825 33.8243C879.592 32.1243 880.175 30.4576 880.575 28.8243H891.175V29.9743C890.542 30.0076 890.008 30.1076 889.575 30.2743C889.142 30.4409 888.825 30.7909 888.625 31.3243C888.458 31.8243 888.392 32.6576 888.425 33.8243L889.475 57.0743C889.542 58.1409 889.675 58.9409 889.875 59.4743C890.108 60.0076 890.475 60.3743 890.975 60.5743C891.475 60.7409 892.142 60.8576 892.975 60.9243V62.0743H878.725V60.9243C879.792 60.8576 880.525 60.6076 880.925 60.1743C881.358 59.7409 881.542 58.7076 881.475 57.0743L880.625 36.6243H880.525L871.475 56.8743C870.842 58.2743 870.375 59.3743 870.075 60.1743C869.808 60.9409 869.575 61.7076 869.375 62.4743H866.875ZM914.873 62.4743C914.606 61.7076 914.273 60.9243 913.873 60.1243C913.506 59.2909 913.006 58.2076 912.373 56.8743L903.373 38.0743H903.273L902.373 57.0743C902.34 58.2076 902.606 59.1243 903.173 59.8243C903.74 60.4909 904.773 60.8576 906.273 60.9243V62.0743H897.023V60.9243C897.99 60.8576 898.673 60.4909 899.073 59.8243C899.506 59.1243 899.74 58.2076 899.773 57.0743L900.823 33.8243C900.89 32.6576 900.806 31.8243 900.573 31.3243C900.373 30.8243 900.006 30.5076 899.473 30.3743C898.94 30.2076 898.223 30.0743 897.323 29.9743V28.8243H908.023C908.29 29.6909 908.59 30.5076 908.923 31.2743C909.29 32.0409 909.69 32.8909 910.123 33.8243L918.723 51.8243H918.823L926.823 33.8243C927.59 32.1243 928.173 30.4576 928.573 28.8243H939.173V29.9743C938.54 30.0076 938.006 30.1076 937.573 30.2743C937.14 30.4409 936.823 30.7909 936.623 31.3243C936.456 31.8243 936.39 32.6576 936.423 33.8243L937.473 57.0743C937.54 58.1409 937.673 58.9409 937.873 59.4743C938.106 60.0076 938.473 60.3743 938.973 60.5743C939.473 60.7409 940.14 60.8576 940.973 60.9243V62.0743H926.723V60.9243C927.79 60.8576 928.523 60.6076 928.923 60.1743C929.356 59.7409 929.54 58.7076 929.473 57.0743L928.623 36.6243H928.523L919.473 56.8743C918.84 58.2743 918.373 59.3743 918.073 60.1743C917.806 60.9409 917.573 61.7076 917.373 62.4743H914.873ZM980.198 52.8243H981.348L980.848 62.0743H956.748V60.9243C957.014 60.7909 957.414 60.5576 957.948 60.2243C958.514 59.8909 959.098 59.5076 959.698 59.0743C961.364 57.8743 962.931 56.5076 964.398 54.9743C965.864 53.4409 967.148 51.8076 968.248 50.0743C969.348 48.3409 970.214 46.6076 970.848 44.8743C971.481 43.1409 971.798 41.4909 971.798 39.9243C971.798 38.4243 971.431 37.1576 970.698 36.1243C969.998 35.0909 968.714 34.5743 966.848 34.5743C965.281 34.5743 963.831 35.0076 962.498 35.8743C961.164 36.7409 959.848 38.0909 958.548 39.9243L957.598 39.1243C958.964 35.6576 960.681 33.0743 962.748 31.3743C964.814 29.6743 967.398 28.8243 970.498 28.8243C972.298 28.8243 973.914 29.1243 975.348 29.7243C976.781 30.2909 977.914 31.1909 978.748 32.4243C979.614 33.6243 980.048 35.1909 980.048 37.1243C980.048 40.5576 978.948 43.7743 976.748 46.7743C974.581 49.7743 971.548 52.5909 967.648 55.2243V55.3243H974.948C976.848 55.3243 978.164 55.0909 978.898 54.6243C979.631 54.1576 980.064 53.5576 980.198 52.8243ZM1001.48 28.8243C1003.21 28.8243 1004.91 29.1576 1006.58 29.8243C1008.25 30.4909 1009.75 31.5243 1011.08 32.9243C1012.41 34.3243 1013.46 36.0909 1014.23 38.2243C1015.03 40.3243 1015.43 42.8243 1015.43 45.7243C1015.43 48.5909 1015.05 51.0909 1014.28 53.2243C1013.51 55.3576 1012.46 57.1409 1011.13 58.5743C1009.8 60.0076 1008.3 61.0743 1006.63 61.7743C1004.96 62.4743 1003.23 62.8243 1001.43 62.8243C999.695 62.8243 997.995 62.4909 996.329 61.8243C994.662 61.1576 993.162 60.1243 991.829 58.7243C990.495 57.3243 989.429 55.5743 988.629 53.4743C987.862 51.3409 987.479 48.8243 987.479 45.9243C987.479 43.0576 987.862 40.5576 988.629 38.4243C989.395 36.2909 990.445 34.5076 991.779 33.0743C993.112 31.6409 994.612 30.5743 996.279 29.8743C997.945 29.1743 999.679 28.8243 1001.48 28.8243ZM1001.63 60.6743C1002.6 60.6743 1003.48 60.2409 1004.28 59.3743C1005.08 58.5076 1005.71 57.0409 1006.18 54.9743C1006.68 52.9076 1006.93 50.0743 1006.93 46.4743C1006.93 43.3409 1006.71 40.6243 1006.28 38.3243C1005.88 35.9909 1005.26 34.1909 1004.43 32.9243C1003.6 31.6243 1002.55 30.9743 1001.28 30.9743C1000.35 30.9743 999.462 31.4076 998.629 32.2743C997.829 33.1409 997.179 34.6076 996.679 36.6743C996.212 38.7409 995.979 41.5743 995.979 45.1743C995.979 48.3076 996.179 51.0409 996.579 53.3743C997.012 55.6743 997.645 57.4743 998.479 58.7743C999.312 60.0409 1000.36 60.6743 1001.63 60.6743ZM1043.04 52.8243H1044.19L1043.69 62.0743H1019.59V60.9243C1019.86 60.7909 1020.26 60.5576 1020.79 60.2243C1021.36 59.8909 1021.94 59.5076 1022.54 59.0743C1024.21 57.8743 1025.77 56.5076 1027.24 54.9743C1028.71 53.4409 1029.99 51.8076 1031.09 50.0743C1032.19 48.3409 1033.06 46.6076 1033.69 44.8743C1034.32 43.1409 1034.64 41.4909 1034.64 39.9243C1034.64 38.4243 1034.27 37.1576 1033.54 36.1243C1032.84 35.0909 1031.56 34.5743 1029.69 34.5743C1028.12 34.5743 1026.67 35.0076 1025.34 35.8743C1024.01 36.7409 1022.69 38.0909 1021.39 39.9243L1020.44 39.1243C1021.81 35.6576 1023.52 33.0743 1025.59 31.3743C1027.66 29.6743 1030.24 28.8243 1033.34 28.8243C1035.14 28.8243 1036.76 29.1243 1038.19 29.7243C1039.62 30.2909 1040.76 31.1909 1041.59 32.4243C1042.46 33.6243 1042.89 35.1909 1042.89 37.1243C1042.89 40.5576 1041.79 43.7743 1039.59 46.7743C1037.42 49.7743 1034.39 52.5909 1030.49 55.2243V55.3243H1037.79C1039.69 55.3243 1041.01 55.0909 1041.74 54.6243C1042.47 54.1576 1042.91 53.5576 1043.04 52.8243ZM1070.82 49.3243H1074.32V55.5743H1072.22C1071.29 55.5743 1070.82 56.1576 1070.82 57.3243C1070.82 58.1243 1070.82 58.9076 1070.82 59.6743C1070.85 60.4076 1070.89 61.2076 1070.92 62.0743H1063.02C1063.09 60.9743 1063.14 59.9076 1063.17 58.8743C1063.2 57.8076 1063.24 56.7076 1063.27 55.5743H1047.47V54.4243C1048.34 53.5909 1049.12 52.7243 1049.82 51.8243L1066.17 31.3743C1066.54 30.9076 1066.87 30.4576 1067.17 30.0243C1067.5 29.5576 1067.77 29.1576 1067.97 28.8243H1070.87L1070.82 49.3243ZM1063.17 38.8743L1054.82 49.3243H1063.32V38.8743H1063.17Z" fill="black"/>
<path d="M1146.58 37.0941C1139.6 34.3076 1131.41 35.7937 1125.83 41.3666C1118.3 48.8901 1118.3 61.0577 1125.83 68.5811C1131.41 74.154 1139.6 75.6402 1146.58 72.8537V63.937C1145.18 64.5872 1143.69 64.9587 1142.11 64.9587C1136.53 64.9587 1132.07 60.5004 1132.07 54.9274C1132.07 49.3545 1136.53 44.8962 1142.11 44.8962C1143.69 44.8962 1145.28 45.2677 1146.58 45.9179V37.0941Z" fill="black"/>
<path d="M1143.42 28.1583C1146.17 25.403 1146.17 20.8423 1143.42 17.9919C1140.67 15.2366 1136.12 15.2366 1133.28 17.9919C1130.43 20.7473 1130.53 25.308 1133.28 28.1583C1136.12 30.9137 1140.67 30.9137 1143.42 28.1583Z" fill="black"/>
<path d="M1192.73 62.0743V60.9243C1193.69 60.8576 1194.39 60.6076 1194.83 60.1743C1195.26 59.7409 1195.48 58.7076 1195.48 57.0743V33.8243C1195.48 32.1909 1195.23 31.1576 1194.73 30.7243C1194.26 30.2576 1193.34 30.0076 1191.98 29.9743V28.8243H1206.23V29.9743C1205.26 30.0076 1204.56 30.2576 1204.13 30.7243C1203.69 31.1576 1203.48 32.1909 1203.48 33.8243V57.0743C1203.48 58.7076 1203.73 59.7409 1204.23 60.1743C1204.73 60.6076 1205.64 60.8576 1206.98 60.9243V62.0743H1192.73ZM1241.6 62.4743C1241.1 61.9409 1240.59 61.4243 1240.05 60.9243C1239.52 60.3909 1238.67 59.6076 1237.5 58.5743L1217.8 40.5743H1217.7V57.0743C1217.7 58.2076 1217.99 59.1243 1218.55 59.8243C1219.15 60.4909 1220.17 60.8576 1221.6 60.9243V62.0743H1212.35V60.9243C1213.32 60.8576 1214.02 60.4909 1214.45 59.8243C1214.89 59.1243 1215.1 58.2076 1215.1 57.0743V33.8243C1215.1 32.1909 1214.85 31.1576 1214.35 30.7243C1213.89 30.2576 1212.97 30.0076 1211.6 29.9743V28.8243H1217.6C1218.1 29.4576 1218.64 30.0243 1219.2 30.5243C1219.77 31.0243 1220.42 31.6243 1221.15 32.3243L1241.05 50.3243H1241.15V33.8243C1241.15 32.6909 1240.87 31.7743 1240.3 31.0743C1239.74 30.3743 1238.72 30.0076 1237.25 29.9743V28.8243H1246.5V29.9743C1245.54 30.0076 1244.84 30.3743 1244.4 31.0743C1243.97 31.7743 1243.75 32.6909 1243.75 33.8243V57.0743C1243.75 58.0076 1243.75 58.9076 1243.75 59.7743C1243.79 60.6076 1243.82 61.5076 1243.85 62.4743H1241.6ZM1250.46 28.8243H1278.96V37.0743H1277.81C1277.61 35.2743 1277.07 33.8076 1276.21 32.6743C1275.34 31.5409 1273.86 30.9743 1271.76 30.9743H1268.71V57.0743C1268.71 58.7076 1268.96 59.7409 1269.46 60.1743C1269.96 60.6076 1270.87 60.8576 1272.21 60.9243V62.0743H1257.96V60.9243C1258.92 60.8576 1259.62 60.6076 1260.06 60.1743C1260.49 59.7409 1260.71 58.7076 1260.71 57.0743V30.9743H1257.61C1255.57 30.9743 1254.11 31.5409 1253.21 32.6743C1252.34 33.8076 1251.81 35.2743 1251.61 37.0743H1250.46V28.8243ZM1283.49 62.0743V60.9243C1284.46 60.8576 1285.16 60.6076 1285.59 60.1743C1286.03 59.7409 1286.24 58.7076 1286.24 57.0743V33.8243C1286.24 32.1909 1285.99 31.1576 1285.49 30.7243C1285.03 30.2576 1284.11 30.0076 1282.74 29.9743V28.8243H1307.29V35.8243H1306.14C1306.08 34.3909 1305.58 33.2243 1304.64 32.3243C1303.74 31.4243 1302.34 30.9743 1300.44 30.9743H1296.44C1295.74 30.9743 1295.19 31.1576 1294.79 31.5243C1294.43 31.8909 1294.24 32.6576 1294.24 33.8243V43.6743C1294.51 43.4743 1294.83 43.3409 1295.19 43.2743C1295.59 43.2076 1296.06 43.1743 1296.59 43.1743H1301.44C1302.44 43.1743 1303.28 42.8909 1303.94 42.3243C1304.61 41.7576 1304.96 40.9743 1304.99 39.9743H1306.14V48.4743H1304.99C1304.96 47.2409 1304.61 46.4076 1303.94 45.9743C1303.28 45.5409 1302.44 45.3243 1301.44 45.3243H1296.69C1295.79 45.3243 1295.16 45.4743 1294.79 45.7743C1294.43 46.0743 1294.24 46.6576 1294.24 47.5243V57.0743C1294.24 58.2409 1294.49 59.0076 1294.99 59.3743C1295.53 59.7409 1296.54 59.9243 1298.04 59.9243H1302.79C1304.79 59.9243 1306.38 59.3243 1307.54 58.1243C1308.71 56.9243 1309.36 55.4909 1309.49 53.8243H1310.64L1310.24 62.0743H1283.49ZM1344.19 62.8243C1342.69 62.8243 1341.4 62.5743 1340.34 62.0743C1339.27 61.6076 1338.37 60.9743 1337.64 60.1743C1336.9 59.3743 1336.22 58.4909 1335.59 57.5243L1328.59 46.6243C1328.25 46.0576 1327.95 45.7076 1327.69 45.5743C1327.42 45.4409 1327.1 45.3576 1326.74 45.3243V43.5743C1328.74 43.4409 1330.29 43.0409 1331.39 42.3743C1332.49 41.7076 1333.25 40.8909 1333.69 39.9243C1334.12 38.9243 1334.34 37.8909 1334.34 36.8243C1334.34 34.7909 1333.77 33.2743 1332.64 32.2743C1331.5 31.2409 1330.2 30.7243 1328.74 30.7243C1327.64 30.7243 1326.85 30.9243 1326.39 31.3243C1325.95 31.6909 1325.74 32.5243 1325.74 33.8243V57.0743C1325.74 58.7076 1325.99 59.7409 1326.49 60.1743C1326.99 60.6076 1327.9 60.8576 1329.24 60.9243V62.0743H1314.99V60.9243C1315.95 60.8576 1316.65 60.6076 1317.09 60.1743C1317.52 59.7409 1317.74 58.7076 1317.74 57.0743V33.8243C1317.74 32.1909 1317.49 31.1576 1316.99 30.7243C1316.52 30.2576 1315.6 30.0076 1314.24 29.9743V28.8243H1317.74C1320.24 28.8243 1322.5 28.7909 1324.54 28.7243C1326.57 28.6243 1328.3 28.5743 1329.74 28.5743C1333.04 28.5743 1335.65 28.8909 1337.59 29.5243C1339.55 30.1243 1340.95 30.9743 1341.79 32.0743C1342.65 33.1743 1343.09 34.4243 1343.09 35.8243C1343.09 37.1576 1342.75 38.3743 1342.09 39.4743C1341.45 40.5743 1340.6 41.5076 1339.54 42.2743C1338.5 43.0076 1337.37 43.5243 1336.14 43.8243V43.9243L1344.44 56.9243C1345.4 58.4576 1346.29 59.5076 1347.09 60.0743C1347.89 60.6409 1348.6 60.9243 1349.24 60.9243V62.0743C1348.57 62.3076 1347.77 62.4909 1346.84 62.6243C1345.94 62.7576 1345.05 62.8243 1344.19 62.8243ZM1367.8 62.8243C1364.3 62.8243 1361.2 62.1243 1358.5 60.7243C1355.8 59.3243 1353.68 57.3576 1352.15 54.8243C1350.62 52.2576 1349.85 49.2909 1349.85 45.9243C1349.85 43.1576 1350.35 40.6909 1351.35 38.5243C1352.35 36.3243 1353.72 34.4409 1355.45 32.8743C1357.22 31.3076 1359.23 30.1243 1361.5 29.3243C1363.8 28.4909 1366.25 28.0743 1368.85 28.0743C1370.82 28.0743 1372.7 28.2576 1374.5 28.6243C1376.3 28.9909 1377.73 29.4243 1378.8 29.9243V37.8243H1377.65C1376.98 35.7909 1376.18 34.2409 1375.25 33.1743C1374.32 32.0743 1373.27 31.3076 1372.1 30.8743C1370.97 30.4409 1369.77 30.2243 1368.5 30.2243C1362.07 30.2243 1358.85 34.8909 1358.85 44.2243C1358.85 47.2909 1359.17 50.0743 1359.8 52.5743C1360.47 55.0743 1361.48 57.0576 1362.85 58.5243C1364.25 59.9576 1366.03 60.6743 1368.2 60.6743C1369.97 60.6743 1371.57 60.2409 1373 59.3743C1374.43 58.4743 1375.65 57.2909 1376.65 55.8243C1377.68 54.3576 1378.42 52.7743 1378.85 51.0743H1380L1379.6 58.6743C1378.5 59.8743 1376.95 60.8743 1374.95 61.6743C1372.95 62.4409 1370.57 62.8243 1367.8 62.8243ZM1401.18 28.0743C1403.54 28.0743 1405.74 28.4743 1407.78 29.2743C1409.81 30.0743 1411.61 31.2409 1413.18 32.7743C1414.74 34.2743 1415.96 36.0909 1416.83 38.2243C1417.69 40.3576 1418.13 42.7409 1418.13 45.3743C1418.13 48.0076 1417.69 50.3909 1416.83 52.5243C1415.96 54.6576 1414.74 56.4909 1413.18 58.0243C1411.64 59.5576 1409.84 60.7409 1407.78 61.5743C1405.71 62.4076 1403.49 62.8243 1401.13 62.8243C1398.79 62.8243 1396.59 62.4243 1394.53 61.6243C1392.49 60.8243 1390.69 59.6743 1389.13 58.1743C1387.56 56.6409 1386.34 54.8076 1385.48 52.6743C1384.61 50.5409 1384.18 48.1576 1384.18 45.5243C1384.18 42.8909 1384.61 40.5076 1385.48 38.3743C1386.34 36.2409 1387.54 34.4076 1389.08 32.8743C1390.64 31.3409 1392.46 30.1576 1394.53 29.3243C1396.59 28.4909 1398.81 28.0743 1401.18 28.0743ZM1402.18 60.6743C1403.91 60.6743 1405.28 60.1076 1406.28 58.9743C1407.28 57.8076 1407.99 56.2076 1408.43 54.1743C1408.89 52.1409 1409.13 49.7743 1409.13 47.0743C1409.13 41.6409 1408.29 37.4743 1406.63 34.5743C1404.99 31.6743 1402.83 30.2243 1400.13 30.2243C1398.43 30.2243 1397.06 30.7909 1396.03 31.9243C1395.03 33.0576 1394.29 34.6576 1393.83 36.7243C1393.39 38.7576 1393.18 41.1243 1393.18 43.8243C1393.18 49.2576 1393.99 53.4243 1395.63 56.3243C1397.29 59.2243 1399.48 60.6743 1402.18 60.6743ZM1441.27 62.4743C1441.01 61.7076 1440.67 60.9243 1440.27 60.1243C1439.91 59.2909 1439.41 58.2076 1438.77 56.8743L1429.77 38.0743H1429.67L1428.77 57.0743C1428.74 58.2076 1429.01 59.1243 1429.57 59.8243C1430.14 60.4909 1431.17 60.8576 1432.67 60.9243V62.0743H1423.42V60.9243C1424.39 60.8576 1425.07 60.4909 1425.47 59.8243C1425.91 59.1243 1426.14 58.2076 1426.17 57.0743L1427.22 33.8243C1427.29 32.6576 1427.21 31.8243 1426.97 31.3243C1426.77 30.8243 1426.41 30.5076 1425.87 30.3743C1425.34 30.2076 1424.62 30.0743 1423.72 29.9743V28.8243H1434.42C1434.69 29.6909 1434.99 30.5076 1435.32 31.2743C1435.69 32.0409 1436.09 32.8909 1436.52 33.8243L1445.12 51.8243H1445.22L1453.22 33.8243C1453.99 32.1243 1454.57 30.4576 1454.97 28.8243H1465.57V29.9743C1464.94 30.0076 1464.41 30.1076 1463.97 30.2743C1463.54 30.4409 1463.22 30.7909 1463.02 31.3243C1462.86 31.8243 1462.79 32.6576 1462.82 33.8243L1463.87 57.0743C1463.94 58.1409 1464.07 58.9409 1464.27 59.4743C1464.51 60.0076 1464.87 60.3743 1465.37 60.5743C1465.87 60.7409 1466.54 60.8576 1467.37 60.9243V62.0743H1453.12V60.9243C1454.19 60.8576 1454.92 60.6076 1455.32 60.1743C1455.76 59.7409 1455.94 58.7076 1455.87 57.0743L1455.02 36.6243H1454.92L1445.87 56.8743C1445.24 58.2743 1444.77 59.3743 1444.47 60.1743C1444.21 60.9409 1443.97 61.7076 1443.77 62.4743H1441.27ZM1489.27 62.4743C1489 61.7076 1488.67 60.9243 1488.27 60.1243C1487.9 59.2909 1487.4 58.2076 1486.77 56.8743L1477.77 38.0743H1477.67L1476.77 57.0743C1476.74 58.2076 1477 59.1243 1477.57 59.8243C1478.14 60.4909 1479.17 60.8576 1480.67 60.9243V62.0743H1471.42V60.9243C1472.39 60.8576 1473.07 60.4909 1473.47 59.8243C1473.9 59.1243 1474.14 58.2076 1474.17 57.0743L1475.22 33.8243C1475.29 32.6576 1475.2 31.8243 1474.97 31.3243C1474.77 30.8243 1474.4 30.5076 1473.87 30.3743C1473.34 30.2076 1472.62 30.0743 1471.72 29.9743V28.8243H1482.42C1482.69 29.6909 1482.99 30.5076 1483.32 31.2743C1483.69 32.0409 1484.09 32.8909 1484.52 33.8243L1493.12 51.8243H1493.22L1501.22 33.8243C1501.99 32.1243 1502.57 30.4576 1502.97 28.8243H1513.57V29.9743C1512.94 30.0076 1512.4 30.1076 1511.97 30.2743C1511.54 30.4409 1511.22 30.7909 1511.02 31.3243C1510.85 31.8243 1510.79 32.6576 1510.82 33.8243L1511.87 57.0743C1511.94 58.1409 1512.07 58.9409 1512.27 59.4743C1512.5 60.0076 1512.87 60.3743 1513.37 60.5743C1513.87 60.7409 1514.54 60.8576 1515.37 60.9243V62.0743H1501.12V60.9243C1502.19 60.8576 1502.92 60.6076 1503.32 60.1743C1503.75 59.7409 1503.94 58.7076 1503.87 57.0743L1503.02 36.6243H1502.92L1493.87 56.8743C1493.24 58.2743 1492.77 59.3743 1492.47 60.1743C1492.2 60.9409 1491.97 61.7076 1491.77 62.4743H1489.27ZM1554.6 52.8243H1555.75L1555.25 62.0743H1531.15V60.9243C1531.41 60.7909 1531.81 60.5576 1532.35 60.2243C1532.91 59.8909 1533.5 59.5076 1534.1 59.0743C1535.76 57.8743 1537.33 56.5076 1538.8 54.9743C1540.26 53.4409 1541.55 51.8076 1542.65 50.0743C1543.75 48.3409 1544.61 46.6076 1545.25 44.8743C1545.88 43.1409 1546.2 41.4909 1546.2 39.9243C1546.2 38.4243 1545.83 37.1576 1545.1 36.1243C1544.4 35.0909 1543.11 34.5743 1541.25 34.5743C1539.68 34.5743 1538.23 35.0076 1536.9 35.8743C1535.56 36.7409 1534.25 38.0909 1532.95 39.9243L1532 39.1243C1533.36 35.6576 1535.08 33.0743 1537.15 31.3743C1539.21 29.6743 1541.8 28.8243 1544.9 28.8243C1546.7 28.8243 1548.31 29.1243 1549.75 29.7243C1551.18 30.2909 1552.31 31.1909 1553.15 32.4243C1554.01 33.6243 1554.45 35.1909 1554.45 37.1243C1554.45 40.5576 1553.35 43.7743 1551.15 46.7743C1548.98 49.7743 1545.95 52.5909 1542.05 55.2243V55.3243H1549.35C1551.25 55.3243 1552.56 55.0909 1553.3 54.6243C1554.03 54.1576 1554.46 53.5576 1554.6 52.8243ZM1575.88 28.8243C1577.61 28.8243 1579.31 29.1576 1580.98 29.8243C1582.64 30.4909 1584.14 31.5243 1585.48 32.9243C1586.81 34.3243 1587.86 36.0909 1588.63 38.2243C1589.43 40.3243 1589.83 42.8243 1589.83 45.7243C1589.83 48.5909 1589.44 51.0909 1588.68 53.2243C1587.91 55.3576 1586.86 57.1409 1585.53 58.5743C1584.19 60.0076 1582.69 61.0743 1581.03 61.7743C1579.36 62.4743 1577.63 62.8243 1575.83 62.8243C1574.09 62.8243 1572.39 62.4909 1570.73 61.8243C1569.06 61.1576 1567.56 60.1243 1566.23 58.7243C1564.89 57.3243 1563.83 55.5743 1563.03 53.4743C1562.26 51.3409 1561.88 48.8243 1561.88 45.9243C1561.88 43.0576 1562.26 40.5576 1563.03 38.4243C1563.79 36.2909 1564.84 34.5076 1566.18 33.0743C1567.51 31.6409 1569.01 30.5743 1570.68 29.8743C1572.34 29.1743 1574.08 28.8243 1575.88 28.8243ZM1576.03 60.6743C1576.99 60.6743 1577.88 60.2409 1578.68 59.3743C1579.48 58.5076 1580.11 57.0409 1580.58 54.9743C1581.08 52.9076 1581.33 50.0743 1581.33 46.4743C1581.33 43.3409 1581.11 40.6243 1580.68 38.3243C1580.28 35.9909 1579.66 34.1909 1578.83 32.9243C1577.99 31.6243 1576.94 30.9743 1575.68 30.9743C1574.74 30.9743 1573.86 31.4076 1573.03 32.2743C1572.23 33.1409 1571.58 34.6076 1571.08 36.6743C1570.61 38.7409 1570.38 41.5743 1570.38 45.1743C1570.38 48.3076 1570.58 51.0409 1570.98 53.3743C1571.41 55.6743 1572.04 57.4743 1572.88 58.7743C1573.71 60.0409 1574.76 60.6743 1576.03 60.6743ZM1617.44 52.8243H1618.59L1618.09 62.0743H1593.99V60.9243C1594.25 60.7909 1594.65 60.5576 1595.19 60.2243C1595.75 59.8909 1596.34 59.5076 1596.94 59.0743C1598.6 57.8743 1600.17 56.5076 1601.64 54.9743C1603.1 53.4409 1604.39 51.8076 1605.49 50.0743C1606.59 48.3409 1607.45 46.6076 1608.09 44.8743C1608.72 43.1409 1609.04 41.4909 1609.04 39.9243C1609.04 38.4243 1608.67 37.1576 1607.94 36.1243C1607.24 35.0909 1605.95 34.5743 1604.09 34.5743C1602.52 34.5743 1601.07 35.0076 1599.74 35.8743C1598.4 36.7409 1597.09 38.0909 1595.79 39.9243L1594.84 39.1243C1596.2 35.6576 1597.92 33.0743 1599.99 31.3743C1602.05 29.6743 1604.64 28.8243 1607.74 28.8243C1609.54 28.8243 1611.15 29.1243 1612.59 29.7243C1614.02 30.2909 1615.15 31.1909 1615.99 32.4243C1616.85 33.6243 1617.29 35.1909 1617.29 37.1243C1617.29 40.5576 1616.19 43.7743 1613.99 46.7743C1611.82 49.7743 1608.79 52.5909 1604.89 55.2243V55.3243H1612.19C1614.09 55.3243 1615.4 55.0909 1616.14 54.6243C1616.87 54.1576 1617.3 53.5576 1617.44 52.8243ZM1645.22 49.3243H1648.72V55.5743H1646.62C1645.69 55.5743 1645.22 56.1576 1645.22 57.3243C1645.22 58.1243 1645.22 58.9076 1645.22 59.6743C1645.25 60.4076 1645.29 61.2076 1645.32 62.0743H1637.42C1637.49 60.9743 1637.54 59.9076 1637.57 58.8743C1637.6 57.8076 1637.64 56.7076 1637.67 55.5743H1621.87V54.4243C1622.74 53.5909 1623.52 52.7243 1624.22 51.8243L1640.57 31.3743C1640.94 30.9076 1641.27 30.4576 1641.57 30.0243C1641.9 29.5576 1642.17 29.1576 1642.37 28.8243H1645.27L1645.22 49.3243ZM1637.57 38.8743L1629.22 49.3243H1637.72V38.8743H1637.57Z" fill="black"/>
<path d="M1720.98 37.0941C1714 34.3076 1705.81 35.7937 1700.23 41.3666C1692.69 48.8901 1692.69 61.0577 1700.23 68.5811C1705.81 74.154 1714 75.6402 1720.98 72.8537V63.937C1719.58 64.5872 1718.09 64.9587 1716.51 64.9587C1710.93 64.9587 1706.46 60.5004 1706.46 54.9274C1706.46 49.3545 1710.93 44.8962 1716.51 44.8962C1718.09 44.8962 1719.67 45.2677 1720.98 45.9179V37.0941Z" fill="black"/>
<path d="M1717.82 28.1583C1720.56 25.403 1720.56 20.8423 1717.82 17.9919C1715.07 15.2366 1710.52 15.2366 1707.68 17.9919C1704.83 20.7473 1704.93 25.308 1707.68 28.1583C1710.52 30.9137 1715.07 30.9137 1717.82 28.1583Z" fill="black"/>
<path d="M1767.13 62.0743V60.9243C1768.09 60.8576 1768.79 60.6076 1769.23 60.1743C1769.66 59.7409 1769.88 58.7076 1769.88 57.0743V33.8243C1769.88 32.1909 1769.63 31.1576 1769.13 30.7243C1768.66 30.2576 1767.74 30.0076 1766.38 29.9743V28.8243H1780.63V29.9743C1779.66 30.0076 1778.96 30.2576 1778.53 30.7243C1778.09 31.1576 1777.88 32.1909 1777.88 33.8243V57.0743C1777.88 58.7076 1778.13 59.7409 1778.63 60.1743C1779.13 60.6076 1780.04 60.8576 1781.38 60.9243V62.0743H1767.13ZM1816 62.4743C1815.5 61.9409 1814.98 61.4243 1814.45 60.9243C1813.92 60.3909 1813.07 59.6076 1811.9 58.5743L1792.2 40.5743H1792.1V57.0743C1792.1 58.2076 1792.38 59.1243 1792.95 59.8243C1793.55 60.4909 1794.57 60.8576 1796 60.9243V62.0743H1786.75V60.9243C1787.72 60.8576 1788.42 60.4909 1788.85 59.8243C1789.28 59.1243 1789.5 58.2076 1789.5 57.0743V33.8243C1789.5 32.1909 1789.25 31.1576 1788.75 30.7243C1788.28 30.2576 1787.37 30.0076 1786 29.9743V28.8243H1792C1792.5 29.4576 1793.03 30.0243 1793.6 30.5243C1794.17 31.0243 1794.82 31.6243 1795.55 32.3243L1815.45 50.3243H1815.55V33.8243C1815.55 32.6909 1815.27 31.7743 1814.7 31.0743C1814.13 30.3743 1813.12 30.0076 1811.65 29.9743V28.8243H1820.9V29.9743C1819.93 30.0076 1819.23 30.3743 1818.8 31.0743C1818.37 31.7743 1818.15 32.6909 1818.15 33.8243V57.0743C1818.15 58.0076 1818.15 58.9076 1818.15 59.7743C1818.18 60.6076 1818.22 61.5076 1818.25 62.4743H1816ZM1824.86 28.8243H1853.36V37.0743H1852.21C1852.01 35.2743 1851.47 33.8076 1850.61 32.6743C1849.74 31.5409 1848.26 30.9743 1846.16 30.9743H1843.11V57.0743C1843.11 58.7076 1843.36 59.7409 1843.86 60.1743C1844.36 60.6076 1845.27 60.8576 1846.61 60.9243V62.0743H1832.36V60.9243C1833.32 60.8576 1834.02 60.6076 1834.46 60.1743C1834.89 59.7409 1835.11 58.7076 1835.11 57.0743V30.9743H1832.01C1829.97 30.9743 1828.51 31.5409 1827.61 32.6743C1826.74 33.8076 1826.21 35.2743 1826.01 37.0743H1824.86V28.8243ZM1857.89 62.0743V60.9243C1858.86 60.8576 1859.56 60.6076 1859.99 60.1743C1860.43 59.7409 1860.64 58.7076 1860.64 57.0743V33.8243C1860.64 32.1909 1860.39 31.1576 1859.89 30.7243C1859.43 30.2576 1858.51 30.0076 1857.14 29.9743V28.8243H1881.69V35.8243H1880.54C1880.48 34.3909 1879.98 33.2243 1879.04 32.3243C1878.14 31.4243 1876.74 30.9743 1874.84 30.9743H1870.84C1870.14 30.9743 1869.59 31.1576 1869.19 31.5243C1868.83 31.8909 1868.64 32.6576 1868.64 33.8243V43.6743C1868.91 43.4743 1869.23 43.3409 1869.59 43.2743C1869.99 43.2076 1870.46 43.1743 1870.99 43.1743H1875.84C1876.84 43.1743 1877.68 42.8909 1878.34 42.3243C1879.01 41.7576 1879.36 40.9743 1879.39 39.9743H1880.54V48.4743H1879.39C1879.36 47.2409 1879.01 46.4076 1878.34 45.9743C1877.68 45.5409 1876.84 45.3243 1875.84 45.3243H1871.09C1870.19 45.3243 1869.56 45.4743 1869.19 45.7743C1868.83 46.0743 1868.64 46.6576 1868.64 47.5243V57.0743C1868.64 58.2409 1868.89 59.0076 1869.39 59.3743C1869.93 59.7409 1870.94 59.9243 1872.44 59.9243H1877.19C1879.19 59.9243 1880.78 59.3243 1881.94 58.1243C1883.11 56.9243 1883.76 55.4909 1883.89 53.8243H1885.04L1884.64 62.0743H1857.89ZM1918.59 62.8243C1917.09 62.8243 1915.8 62.5743 1914.74 62.0743C1913.67 61.6076 1912.77 60.9743 1912.04 60.1743C1911.3 59.3743 1910.62 58.4909 1909.99 57.5243L1902.99 46.6243C1902.65 46.0576 1902.35 45.7076 1902.09 45.5743C1901.82 45.4409 1901.5 45.3576 1901.14 45.3243V43.5743C1903.14 43.4409 1904.69 43.0409 1905.79 42.3743C1906.89 41.7076 1907.65 40.8909 1908.09 39.9243C1908.52 38.9243 1908.74 37.8909 1908.74 36.8243C1908.74 34.7909 1908.17 33.2743 1907.04 32.2743C1905.9 31.2409 1904.6 30.7243 1903.14 30.7243C1902.04 30.7243 1901.25 30.9243 1900.79 31.3243C1900.35 31.6909 1900.14 32.5243 1900.14 33.8243V57.0743C1900.14 58.7076 1900.39 59.7409 1900.89 60.1743C1901.39 60.6076 1902.3 60.8576 1903.64 60.9243V62.0743H1889.39V60.9243C1890.35 60.8576 1891.05 60.6076 1891.49 60.1743C1891.92 59.7409 1892.14 58.7076 1892.14 57.0743V33.8243C1892.14 32.1909 1891.89 31.1576 1891.39 30.7243C1890.92 30.2576 1890 30.0076 1888.64 29.9743V28.8243H1892.14C1894.64 28.8243 1896.9 28.7909 1898.94 28.7243C1900.97 28.6243 1902.7 28.5743 1904.14 28.5743C1907.44 28.5743 1910.05 28.8909 1911.99 29.5243C1913.95 30.1243 1915.35 30.9743 1916.19 32.0743C1917.05 33.1743 1917.49 34.4243 1917.49 35.8243C1917.49 37.1576 1917.15 38.3743 1916.49 39.4743C1915.85 40.5743 1915 41.5076 1913.94 42.2743C1912.9 43.0076 1911.77 43.5243 1910.54 43.8243V43.9243L1918.84 56.9243C1919.8 58.4576 1920.69 59.5076 1921.49 60.0743C1922.29 60.6409 1923 60.9243 1923.64 60.9243V62.0743C1922.97 62.3076 1922.17 62.4909 1921.24 62.6243C1920.34 62.7576 1919.45 62.8243 1918.59 62.8243ZM1942.2 62.8243C1938.7 62.8243 1935.6 62.1243 1932.9 60.7243C1930.2 59.3243 1928.08 57.3576 1926.55 54.8243C1925.02 52.2576 1924.25 49.2909 1924.25 45.9243C1924.25 43.1576 1924.75 40.6909 1925.75 38.5243C1926.75 36.3243 1928.12 34.4409 1929.85 32.8743C1931.62 31.3076 1933.63 30.1243 1935.9 29.3243C1938.2 28.4909 1940.65 28.0743 1943.25 28.0743C1945.22 28.0743 1947.1 28.2576 1948.9 28.6243C1950.7 28.9909 1952.13 29.4243 1953.2 29.9243V37.8243H1952.05C1951.38 35.7909 1950.58 34.2409 1949.65 33.1743C1948.72 32.0743 1947.67 31.3076 1946.5 30.8743C1945.37 30.4409 1944.17 30.2243 1942.9 30.2243C1936.47 30.2243 1933.25 34.8909 1933.25 44.2243C1933.25 47.2909 1933.57 50.0743 1934.2 52.5743C1934.87 55.0743 1935.88 57.0576 1937.25 58.5243C1938.65 59.9576 1940.43 60.6743 1942.6 60.6743C1944.37 60.6743 1945.97 60.2409 1947.4 59.3743C1948.83 58.4743 1950.05 57.2909 1951.05 55.8243C1952.08 54.3576 1952.82 52.7743 1953.25 51.0743H1954.4L1954 58.6743C1952.9 59.8743 1951.35 60.8743 1949.35 61.6743C1947.35 62.4409 1944.97 62.8243 1942.2 62.8243ZM1975.58 28.0743C1977.94 28.0743 1980.14 28.4743 1982.18 29.2743C1984.21 30.0743 1986.01 31.2409 1987.58 32.7743C1989.14 34.2743 1990.36 36.0909 1991.23 38.2243C1992.09 40.3576 1992.53 42.7409 1992.53 45.3743C1992.53 48.0076 1992.09 50.3909 1991.23 52.5243C1990.36 54.6576 1989.14 56.4909 1987.58 58.0243C1986.04 59.5576 1984.24 60.7409 1982.18 61.5743C1980.11 62.4076 1977.89 62.8243 1975.53 62.8243C1973.19 62.8243 1970.99 62.4243 1968.93 61.6243C1966.89 60.8243 1965.09 59.6743 1963.53 58.1743C1961.96 56.6409 1960.74 54.8076 1959.88 52.6743C1959.01 50.5409 1958.58 48.1576 1958.58 45.5243C1958.58 42.8909 1959.01 40.5076 1959.88 38.3743C1960.74 36.2409 1961.94 34.4076 1963.48 32.8743C1965.04 31.3409 1966.86 30.1576 1968.93 29.3243C1970.99 28.4909 1973.21 28.0743 1975.58 28.0743ZM1976.58 60.6743C1978.31 60.6743 1979.68 60.1076 1980.68 58.9743C1981.68 57.8076 1982.39 56.2076 1982.83 54.1743C1983.29 52.1409 1983.53 49.7743 1983.53 47.0743C1983.53 41.6409 1982.69 37.4743 1981.03 34.5743C1979.39 31.6743 1977.23 30.2243 1974.53 30.2243C1972.83 30.2243 1971.46 30.7909 1970.43 31.9243C1969.43 33.0576 1968.69 34.6576 1968.23 36.7243C1967.79 38.7576 1967.58 41.1243 1967.58 43.8243C1967.58 49.2576 1968.39 53.4243 1970.03 56.3243C1971.69 59.2243 1973.88 60.6743 1976.58 60.6743ZM2015.67 62.4743C2015.41 61.7076 2015.07 60.9243 2014.67 60.1243C2014.31 59.2909 2013.81 58.2076 2013.17 56.8743L2004.17 38.0743H2004.07L2003.17 57.0743C2003.14 58.2076 2003.41 59.1243 2003.97 59.8243C2004.54 60.4909 2005.57 60.8576 2007.07 60.9243V62.0743H1997.82V60.9243C1998.79 60.8576 1999.47 60.4909 1999.87 59.8243C2000.31 59.1243 2000.54 58.2076 2000.57 57.0743L2001.62 33.8243C2001.69 32.6576 2001.61 31.8243 2001.37 31.3243C2001.17 30.8243 2000.81 30.5076 2000.27 30.3743C1999.74 30.2076 1999.02 30.0743 1998.12 29.9743V28.8243H2008.82C2009.09 29.6909 2009.39 30.5076 2009.72 31.2743C2010.09 32.0409 2010.49 32.8909 2010.92 33.8243L2019.52 51.8243H2019.62L2027.62 33.8243C2028.39 32.1243 2028.97 30.4576 2029.37 28.8243H2039.97V29.9743C2039.34 30.0076 2038.81 30.1076 2038.37 30.2743C2037.94 30.4409 2037.62 30.7909 2037.42 31.3243C2037.26 31.8243 2037.19 32.6576 2037.22 33.8243L2038.27 57.0743C2038.34 58.1409 2038.47 58.9409 2038.67 59.4743C2038.91 60.0076 2039.27 60.3743 2039.77 60.5743C2040.27 60.7409 2040.94 60.8576 2041.77 60.9243V62.0743H2027.52V60.9243C2028.59 60.8576 2029.32 60.6076 2029.72 60.1743C2030.16 59.7409 2030.34 58.7076 2030.27 57.0743L2029.42 36.6243H2029.32L2020.27 56.8743C2019.64 58.2743 2019.17 59.3743 2018.87 60.1743C2018.61 60.9409 2018.37 61.7076 2018.17 62.4743H2015.67ZM2063.67 62.4743C2063.4 61.7076 2063.07 60.9243 2062.67 60.1243C2062.3 59.2909 2061.8 58.2076 2061.17 56.8743L2052.17 38.0743H2052.07L2051.17 57.0743C2051.14 58.2076 2051.4 59.1243 2051.97 59.8243C2052.54 60.4909 2053.57 60.8576 2055.07 60.9243V62.0743H2045.82V60.9243C2046.79 60.8576 2047.47 60.4909 2047.87 59.8243C2048.3 59.1243 2048.54 58.2076 2048.57 57.0743L2049.62 33.8243C2049.69 32.6576 2049.6 31.8243 2049.37 31.3243C2049.17 30.8243 2048.8 30.5076 2048.27 30.3743C2047.74 30.2076 2047.02 30.0743 2046.12 29.9743V28.8243H2056.82C2057.09 29.6909 2057.39 30.5076 2057.72 31.2743C2058.09 32.0409 2058.49 32.8909 2058.92 33.8243L2067.52 51.8243H2067.62L2075.62 33.8243C2076.39 32.1243 2076.97 30.4576 2077.37 28.8243H2087.97V29.9743C2087.34 30.0076 2086.8 30.1076 2086.37 30.2743C2085.94 30.4409 2085.62 30.7909 2085.42 31.3243C2085.25 31.8243 2085.19 32.6576 2085.22 33.8243L2086.27 57.0743C2086.34 58.1409 2086.47 58.9409 2086.67 59.4743C2086.9 60.0076 2087.27 60.3743 2087.77 60.5743C2088.27 60.7409 2088.94 60.8576 2089.77 60.9243V62.0743H2075.52V60.9243C2076.59 60.8576 2077.32 60.6076 2077.72 60.1743C2078.15 59.7409 2078.34 58.7076 2078.27 57.0743L2077.42 36.6243H2077.32L2068.27 56.8743C2067.64 58.2743 2067.17 59.3743 2066.87 60.1743C2066.6 60.9409 2066.37 61.7076 2066.17 62.4743H2063.67ZM2128.99 52.8243H2130.14L2129.64 62.0743H2105.54V60.9243C2105.81 60.7909 2106.21 60.5576 2106.74 60.2243C2107.31 59.8909 2107.89 59.5076 2108.49 59.0743C2110.16 57.8743 2111.73 56.5076 2113.19 54.9743C2114.66 53.4409 2115.94 51.8076 2117.04 50.0743C2118.14 48.3409 2119.01 46.6076 2119.64 44.8743C2120.28 43.1409 2120.59 41.4909 2120.59 39.9243C2120.59 38.4243 2120.23 37.1576 2119.49 36.1243C2118.79 35.0909 2117.51 34.5743 2115.64 34.5743C2114.08 34.5743 2112.63 35.0076 2111.29 35.8743C2109.96 36.7409 2108.64 38.0909 2107.34 39.9243L2106.39 39.1243C2107.76 35.6576 2109.48 33.0743 2111.54 31.3743C2113.61 29.6743 2116.19 28.8243 2119.29 28.8243C2121.09 28.8243 2122.71 29.1243 2124.14 29.7243C2125.58 30.2909 2126.71 31.1909 2127.54 32.4243C2128.41 33.6243 2128.84 35.1909 2128.84 37.1243C2128.84 40.5576 2127.74 43.7743 2125.54 46.7743C2123.38 49.7743 2120.34 52.5909 2116.44 55.2243V55.3243H2123.74C2125.64 55.3243 2126.96 55.0909 2127.69 54.6243C2128.43 54.1576 2128.86 53.5576 2128.99 52.8243ZM2150.28 28.8243C2152.01 28.8243 2153.71 29.1576 2155.38 29.8243C2157.04 30.4909 2158.54 31.5243 2159.88 32.9243C2161.21 34.3243 2162.26 36.0909 2163.03 38.2243C2163.83 40.3243 2164.23 42.8243 2164.23 45.7243C2164.23 48.5909 2163.84 51.0909 2163.08 53.2243C2162.31 55.3576 2161.26 57.1409 2159.93 58.5743C2158.59 60.0076 2157.09 61.0743 2155.43 61.7743C2153.76 62.4743 2152.03 62.8243 2150.23 62.8243C2148.49 62.8243 2146.79 62.4909 2145.13 61.8243C2143.46 61.1576 2141.96 60.1243 2140.63 58.7243C2139.29 57.3243 2138.23 55.5743 2137.43 53.4743C2136.66 51.3409 2136.28 48.8243 2136.28 45.9243C2136.28 43.0576 2136.66 40.5576 2137.43 38.4243C2138.19 36.2909 2139.24 34.5076 2140.58 33.0743C2141.91 31.6409 2143.41 30.5743 2145.08 29.8743C2146.74 29.1743 2148.48 28.8243 2150.28 28.8243ZM2150.43 60.6743C2151.39 60.6743 2152.28 60.2409 2153.08 59.3743C2153.88 58.5076 2154.51 57.0409 2154.98 54.9743C2155.48 52.9076 2155.73 50.0743 2155.73 46.4743C2155.73 43.3409 2155.51 40.6243 2155.08 38.3243C2154.68 35.9909 2154.06 34.1909 2153.23 32.9243C2152.39 31.6243 2151.34 30.9743 2150.08 30.9743C2149.14 30.9743 2148.26 31.4076 2147.43 32.2743C2146.63 33.1409 2145.98 34.6076 2145.48 36.6743C2145.01 38.7409 2144.78 41.5743 2144.78 45.1743C2144.78 48.3076 2144.98 51.0409 2145.38 53.3743C2145.81 55.6743 2146.44 57.4743 2147.28 58.7743C2148.11 60.0409 2149.16 60.6743 2150.43 60.6743ZM2191.84 52.8243H2192.99L2192.49 62.0743H2168.39V60.9243C2168.65 60.7909 2169.05 60.5576 2169.59 60.2243C2170.15 59.8909 2170.74 59.5076 2171.34 59.0743C2173 57.8743 2174.57 56.5076 2176.04 54.9743C2177.5 53.4409 2178.79 51.8076 2179.89 50.0743C2180.99 48.3409 2181.85 46.6076 2182.49 44.8743C2183.12 43.1409 2183.44 41.4909 2183.44 39.9243C2183.44 38.4243 2183.07 37.1576 2182.34 36.1243C2181.64 35.0909 2180.35 34.5743 2178.49 34.5743C2176.92 34.5743 2175.47 35.0076 2174.14 35.8743C2172.8 36.7409 2171.49 38.0909 2170.19 39.9243L2169.24 39.1243C2170.6 35.6576 2172.32 33.0743 2174.39 31.3743C2176.45 29.6743 2179.04 28.8243 2182.14 28.8243C2183.94 28.8243 2185.55 29.1243 2186.99 29.7243C2188.42 30.2909 2189.55 31.1909 2190.39 32.4243C2191.25 33.6243 2191.69 35.1909 2191.69 37.1243C2191.69 40.5576 2190.59 43.7743 2188.39 46.7743C2186.22 49.7743 2183.19 52.5909 2179.29 55.2243V55.3243H2186.59C2188.49 55.3243 2189.8 55.0909 2190.54 54.6243C2191.27 54.1576 2191.7 53.5576 2191.84 52.8243ZM2219.62 49.3243H2223.12V55.5743H2221.02C2220.08 55.5743 2219.62 56.1576 2219.62 57.3243C2219.62 58.1243 2219.62 58.9076 2219.62 59.6743C2219.65 60.4076 2219.68 61.2076 2219.72 62.0743H2211.82C2211.88 60.9743 2211.93 59.9076 2211.97 58.8743C2212 57.8076 2212.03 56.7076 2212.07 55.5743H2196.27V54.4243C2197.13 53.5909 2197.92 52.7243 2198.62 51.8243L2214.97 31.3743C2215.33 30.9076 2215.67 30.4576 2215.97 30.0243C2216.3 29.5576 2216.57 29.1576 2216.77 28.8243H2219.67L2219.62 49.3243ZM2211.97 38.8743L2203.62 49.3243H2212.12V38.8743H2211.97Z" fill="black"/>
<path d="M2295.38 37.0941C2288.4 34.3076 2280.21 35.7937 2274.63 41.3666C2267.09 48.8901 2267.09 61.0577 2274.63 68.5811C2280.21 74.154 2288.4 75.6402 2295.38 72.8537V63.937C2293.98 64.5872 2292.49 64.9587 2290.91 64.9587C2285.33 64.9587 2280.86 60.5004 2280.86 54.9274C2280.86 49.3545 2285.33 44.8962 2290.91 44.8962C2292.49 44.8962 2294.07 45.2677 2295.38 45.9179V37.0941Z" fill="black"/>
<path d="M2292.21 28.1583C2294.96 25.403 2294.96 20.8423 2292.21 17.9919C2289.47 15.2366 2284.92 15.2366 2282.07 17.9919C2279.23 20.7473 2279.33 25.308 2282.07 28.1583C2284.92 30.9137 2289.47 30.9137 2292.21 28.1583Z" fill="black"/>
<path d="M2341.53 62.0743V60.9243C2342.49 60.8576 2343.19 60.6076 2343.63 60.1743C2344.06 59.7409 2344.28 58.7076 2344.28 57.0743V33.8243C2344.28 32.1909 2344.03 31.1576 2343.53 30.7243C2343.06 30.2576 2342.14 30.0076 2340.78 29.9743V28.8243H2355.03V29.9743C2354.06 30.0076 2353.36 30.2576 2352.93 30.7243C2352.49 31.1576 2352.28 32.1909 2352.28 33.8243V57.0743C2352.28 58.7076 2352.53 59.7409 2353.03 60.1743C2353.53 60.6076 2354.44 60.8576 2355.78 60.9243V62.0743H2341.53ZM2390.4 62.4743C2389.9 61.9409 2389.38 61.4243 2388.85 60.9243C2388.32 60.3909 2387.47 59.6076 2386.3 58.5743L2366.6 40.5743H2366.5V57.0743C2366.5 58.2076 2366.78 59.1243 2367.35 59.8243C2367.95 60.4909 2368.97 60.8576 2370.4 60.9243V62.0743H2361.15V60.9243C2362.12 60.8576 2362.82 60.4909 2363.25 59.8243C2363.68 59.1243 2363.9 58.2076 2363.9 57.0743V33.8243C2363.9 32.1909 2363.65 31.1576 2363.15 30.7243C2362.68 30.2576 2361.77 30.0076 2360.4 29.9743V28.8243H2366.4C2366.9 29.4576 2367.43 30.0243 2368 30.5243C2368.57 31.0243 2369.22 31.6243 2369.95 32.3243L2389.85 50.3243H2389.95V33.8243C2389.95 32.6909 2389.67 31.7743 2389.1 31.0743C2388.53 30.3743 2387.52 30.0076 2386.05 29.9743V28.8243H2395.3V29.9743C2394.33 30.0076 2393.63 30.3743 2393.2 31.0743C2392.77 31.7743 2392.55 32.6909 2392.55 33.8243V57.0743C2392.55 58.0076 2392.55 58.9076 2392.55 59.7743C2392.58 60.6076 2392.62 61.5076 2392.65 62.4743H2390.4ZM2399.25 28.8243H2427.75V37.0743H2426.6C2426.4 35.2743 2425.87 33.8076 2425 32.6743C2424.14 31.5409 2422.65 30.9743 2420.55 30.9743H2417.5V57.0743C2417.5 58.7076 2417.75 59.7409 2418.25 60.1743C2418.75 60.6076 2419.67 60.8576 2421 60.9243V62.0743H2406.75V60.9243C2407.72 60.8576 2408.42 60.6076 2408.85 60.1743C2409.29 59.7409 2409.5 58.7076 2409.5 57.0743V30.9743H2406.4C2404.37 30.9743 2402.9 31.5409 2402 32.6743C2401.14 33.8076 2400.6 35.2743 2400.4 37.0743H2399.25V28.8243ZM2432.29 62.0743V60.9243C2433.26 60.8576 2433.96 60.6076 2434.39 60.1743C2434.82 59.7409 2435.04 58.7076 2435.04 57.0743V33.8243C2435.04 32.1909 2434.79 31.1576 2434.29 30.7243C2433.82 30.2576 2432.91 30.0076 2431.54 29.9743V28.8243H2456.09V35.8243H2454.94C2454.87 34.3909 2454.37 33.2243 2453.44 32.3243C2452.54 31.4243 2451.14 30.9743 2449.24 30.9743H2445.24C2444.54 30.9743 2443.99 31.1576 2443.59 31.5243C2443.22 31.8909 2443.04 32.6576 2443.04 33.8243V43.6743C2443.31 43.4743 2443.62 43.3409 2443.99 43.2743C2444.39 43.2076 2444.86 43.1743 2445.39 43.1743H2450.24C2451.24 43.1743 2452.07 42.8909 2452.74 42.3243C2453.41 41.7576 2453.76 40.9743 2453.79 39.9743H2454.94V48.4743H2453.79C2453.76 47.2409 2453.41 46.4076 2452.74 45.9743C2452.07 45.5409 2451.24 45.3243 2450.24 45.3243H2445.49C2444.59 45.3243 2443.96 45.4743 2443.59 45.7743C2443.22 46.0743 2443.04 46.6576 2443.04 47.5243V57.0743C2443.04 58.2409 2443.29 59.0076 2443.79 59.3743C2444.32 59.7409 2445.34 59.9243 2446.84 59.9243H2451.59C2453.59 59.9243 2455.17 59.3243 2456.34 58.1243C2457.51 56.9243 2458.16 55.4909 2458.29 53.8243H2459.44L2459.04 62.0743H2432.29ZM2492.98 62.8243C2491.48 62.8243 2490.2 62.5743 2489.13 62.0743C2488.07 61.6076 2487.17 60.9743 2486.43 60.1743C2485.7 59.3743 2485.02 58.4909 2484.38 57.5243L2477.38 46.6243C2477.05 46.0576 2476.75 45.7076 2476.48 45.5743C2476.22 45.4409 2475.9 45.3576 2475.53 45.3243V43.5743C2477.53 43.4409 2479.08 43.0409 2480.18 42.3743C2481.28 41.7076 2482.05 40.8909 2482.48 39.9243C2482.92 38.9243 2483.13 37.8909 2483.13 36.8243C2483.13 34.7909 2482.57 33.2743 2481.43 32.2743C2480.3 31.2409 2479 30.7243 2477.53 30.7243C2476.43 30.7243 2475.65 30.9243 2475.18 31.3243C2474.75 31.6909 2474.53 32.5243 2474.53 33.8243V57.0743C2474.53 58.7076 2474.78 59.7409 2475.28 60.1743C2475.78 60.6076 2476.7 60.8576 2478.03 60.9243V62.0743H2463.78V60.9243C2464.75 60.8576 2465.45 60.6076 2465.88 60.1743C2466.32 59.7409 2466.53 58.7076 2466.53 57.0743V33.8243C2466.53 32.1909 2466.28 31.1576 2465.78 30.7243C2465.32 30.2576 2464.4 30.0076 2463.03 29.9743V28.8243H2466.53C2469.03 28.8243 2471.3 28.7909 2473.33 28.7243C2475.37 28.6243 2477.1 28.5743 2478.53 28.5743C2481.83 28.5743 2484.45 28.8909 2486.38 29.5243C2488.35 30.1243 2489.75 30.9743 2490.58 32.0743C2491.45 33.1743 2491.88 34.4243 2491.88 35.8243C2491.88 37.1576 2491.55 38.3743 2490.88 39.4743C2490.25 40.5743 2489.4 41.5076 2488.33 42.2743C2487.3 43.0076 2486.17 43.5243 2484.93 43.8243V43.9243L2493.23 56.9243C2494.2 58.4576 2495.08 59.5076 2495.88 60.0743C2496.68 60.6409 2497.4 60.9243 2498.03 60.9243V62.0743C2497.37 62.3076 2496.57 62.4909 2495.63 62.6243C2494.73 62.7576 2493.85 62.8243 2492.98 62.8243ZM2516.6 62.8243C2513.1 62.8243 2510 62.1243 2507.3 60.7243C2504.6 59.3243 2502.48 57.3576 2500.95 54.8243C2499.41 52.2576 2498.65 49.2909 2498.65 45.9243C2498.65 43.1576 2499.15 40.6909 2500.15 38.5243C2501.15 36.3243 2502.51 34.4409 2504.25 32.8743C2506.01 31.3076 2508.03 30.1243 2510.3 29.3243C2512.6 28.4909 2515.05 28.0743 2517.65 28.0743C2519.61 28.0743 2521.5 28.2576 2523.3 28.6243C2525.1 28.9909 2526.53 29.4243 2527.6 29.9243V37.8243H2526.45C2525.78 35.7909 2524.98 34.2409 2524.05 33.1743C2523.11 32.0743 2522.06 31.3076 2520.9 30.8743C2519.76 30.4409 2518.56 30.2243 2517.3 30.2243C2510.86 30.2243 2507.65 34.8909 2507.65 44.2243C2507.65 47.2909 2507.96 50.0743 2508.6 52.5743C2509.26 55.0743 2510.28 57.0576 2511.65 58.5243C2513.05 59.9576 2514.83 60.6743 2517 60.6743C2518.76 60.6743 2520.36 60.2409 2521.8 59.3743C2523.23 58.4743 2524.45 57.2909 2525.45 55.8243C2526.48 54.3576 2527.21 52.7743 2527.65 51.0743H2528.8L2528.4 58.6743C2527.3 59.8743 2525.75 60.8743 2523.75 61.6743C2521.75 62.4409 2519.36 62.8243 2516.6 62.8243ZM2549.97 28.0743C2552.34 28.0743 2554.54 28.4743 2556.57 29.2743C2558.61 30.0743 2560.41 31.2409 2561.97 32.7743C2563.54 34.2743 2564.76 36.0909 2565.62 38.2243C2566.49 40.3576 2566.92 42.7409 2566.92 45.3743C2566.92 48.0076 2566.49 50.3909 2565.62 52.5243C2564.76 54.6576 2563.54 56.4909 2561.97 58.0243C2560.44 59.5576 2558.64 60.7409 2556.57 61.5743C2554.51 62.4076 2552.29 62.8243 2549.92 62.8243C2547.59 62.8243 2545.39 62.4243 2543.32 61.6243C2541.29 60.8243 2539.49 59.6743 2537.92 58.1743C2536.36 56.6409 2535.14 54.8076 2534.27 52.6743C2533.41 50.5409 2532.97 48.1576 2532.97 45.5243C2532.97 42.8909 2533.41 40.5076 2534.27 38.3743C2535.14 36.2409 2536.34 34.4076 2537.87 32.8743C2539.44 31.3409 2541.26 30.1576 2543.32 29.3243C2545.39 28.4909 2547.61 28.0743 2549.97 28.0743ZM2550.97 60.6743C2552.71 60.6743 2554.07 60.1076 2555.07 58.9743C2556.07 57.8076 2556.79 56.2076 2557.22 54.1743C2557.69 52.1409 2557.92 49.7743 2557.92 47.0743C2557.92 41.6409 2557.09 37.4743 2555.42 34.5743C2553.79 31.6743 2551.62 30.2243 2548.92 30.2243C2547.22 30.2243 2545.86 30.7909 2544.82 31.9243C2543.82 33.0576 2543.09 34.6576 2542.62 36.7243C2542.19 38.7576 2541.97 41.1243 2541.97 43.8243C2541.97 49.2576 2542.79 53.4243 2544.42 56.3243C2546.09 59.2243 2548.27 60.6743 2550.97 60.6743ZM2590.07 62.4743C2589.8 61.7076 2589.47 60.9243 2589.07 60.1243C2588.7 59.2909 2588.2 58.2076 2587.57 56.8743L2578.57 38.0743H2578.47L2577.57 57.0743C2577.54 58.2076 2577.8 59.1243 2578.37 59.8243C2578.94 60.4909 2579.97 60.8576 2581.47 60.9243V62.0743H2572.22V60.9243C2573.19 60.8576 2573.87 60.4909 2574.27 59.8243C2574.7 59.1243 2574.94 58.2076 2574.97 57.0743L2576.02 33.8243C2576.09 32.6576 2576 31.8243 2575.77 31.3243C2575.57 30.8243 2575.2 30.5076 2574.67 30.3743C2574.14 30.2076 2573.42 30.0743 2572.52 29.9743V28.8243H2583.22C2583.49 29.6909 2583.79 30.5076 2584.12 31.2743C2584.49 32.0409 2584.89 32.8909 2585.32 33.8243L2593.92 51.8243H2594.02L2602.02 33.8243C2602.79 32.1243 2603.37 30.4576 2603.77 28.8243H2614.37V29.9743C2613.74 30.0076 2613.2 30.1076 2612.77 30.2743C2612.34 30.4409 2612.02 30.7909 2611.82 31.3243C2611.65 31.8243 2611.59 32.6576 2611.62 33.8243L2612.67 57.0743C2612.74 58.1409 2612.87 58.9409 2613.07 59.4743C2613.3 60.0076 2613.67 60.3743 2614.17 60.5743C2614.67 60.7409 2615.34 60.8576 2616.17 60.9243V62.0743H2601.92V60.9243C2602.99 60.8576 2603.72 60.6076 2604.12 60.1743C2604.55 59.7409 2604.74 58.7076 2604.67 57.0743L2603.82 36.6243H2603.72L2594.67 56.8743C2594.04 58.2743 2593.57 59.3743 2593.27 60.1743C2593 60.9409 2592.77 61.7076 2592.57 62.4743H2590.07ZM2638.07 62.4743C2637.8 61.7076 2637.47 60.9243 2637.07 60.1243C2636.7 59.2909 2636.2 58.2076 2635.57 56.8743L2626.57 38.0743H2626.47L2625.57 57.0743C2625.54 58.2076 2625.8 59.1243 2626.37 59.8243C2626.94 60.4909 2627.97 60.8576 2629.47 60.9243V62.0743H2620.22V60.9243C2621.19 60.8576 2621.87 60.4909 2622.27 59.8243C2622.7 59.1243 2622.94 58.2076 2622.97 57.0743L2624.02 33.8243C2624.09 32.6576 2624 31.8243 2623.77 31.3243C2623.57 30.8243 2623.2 30.5076 2622.67 30.3743C2622.14 30.2076 2621.42 30.0743 2620.52 29.9743V28.8243H2631.22C2631.49 29.6909 2631.79 30.5076 2632.12 31.2743C2632.49 32.0409 2632.89 32.8909 2633.32 33.8243L2641.92 51.8243H2642.02L2650.02 33.8243C2650.79 32.1243 2651.37 30.4576 2651.77 28.8243H2662.37V29.9743C2661.74 30.0076 2661.2 30.1076 2660.77 30.2743C2660.34 30.4409 2660.02 30.7909 2659.82 31.3243C2659.65 31.8243 2659.59 32.6576 2659.62 33.8243L2660.67 57.0743C2660.74 58.1409 2660.87 58.9409 2661.07 59.4743C2661.3 60.0076 2661.67 60.3743 2662.17 60.5743C2662.67 60.7409 2663.34 60.8576 2664.17 60.9243V62.0743H2649.92V60.9243C2650.99 60.8576 2651.72 60.6076 2652.12 60.1743C2652.55 59.7409 2652.74 58.7076 2652.67 57.0743L2651.82 36.6243H2651.72L2642.67 56.8743C2642.04 58.2743 2641.57 59.3743 2641.27 60.1743C2641 60.9409 2640.77 61.7076 2640.57 62.4743H2638.07ZM2703.39 52.8243H2704.54L2704.04 62.0743H2679.94V60.9243C2680.21 60.7909 2680.61 60.5576 2681.14 60.2243C2681.71 59.8909 2682.29 59.5076 2682.89 59.0743C2684.56 57.8743 2686.13 56.5076 2687.59 54.9743C2689.06 53.4409 2690.34 51.8076 2691.44 50.0743C2692.54 48.3409 2693.41 46.6076 2694.04 44.8743C2694.68 43.1409 2694.99 41.4909 2694.99 39.9243C2694.99 38.4243 2694.63 37.1576 2693.89 36.1243C2693.19 35.0909 2691.91 34.5743 2690.04 34.5743C2688.48 34.5743 2687.03 35.0076 2685.69 35.8743C2684.36 36.7409 2683.04 38.0909 2681.74 39.9243L2680.79 39.1243C2682.16 35.6576 2683.88 33.0743 2685.94 31.3743C2688.01 29.6743 2690.59 28.8243 2693.69 28.8243C2695.49 28.8243 2697.11 29.1243 2698.54 29.7243C2699.98 30.2909 2701.11 31.1909 2701.94 32.4243C2702.81 33.6243 2703.24 35.1909 2703.24 37.1243C2703.24 40.5576 2702.14 43.7743 2699.94 46.7743C2697.78 49.7743 2694.74 52.5909 2690.84 55.2243V55.3243H2698.14C2700.04 55.3243 2701.36 55.0909 2702.09 54.6243C2702.83 54.1576 2703.26 53.5576 2703.39 52.8243ZM2724.67 28.8243C2726.41 28.8243 2728.11 29.1576 2729.77 29.8243C2731.44 30.4909 2732.94 31.5243 2734.27 32.9243C2735.61 34.3243 2736.66 36.0909 2737.42 38.2243C2738.22 40.3243 2738.62 42.8243 2738.62 45.7243C2738.62 48.5909 2738.24 51.0909 2737.47 53.2243C2736.71 55.3576 2735.66 57.1409 2734.32 58.5743C2732.99 60.0076 2731.49 61.0743 2729.82 61.7743C2728.16 62.4743 2726.42 62.8243 2724.62 62.8243C2722.89 62.8243 2721.19 62.4909 2719.52 61.8243C2717.86 61.1576 2716.36 60.1243 2715.02 58.7243C2713.69 57.3243 2712.62 55.5743 2711.82 53.4743C2711.06 51.3409 2710.67 48.8243 2710.67 45.9243C2710.67 43.0576 2711.06 40.5576 2711.82 38.4243C2712.59 36.2909 2713.64 34.5076 2714.97 33.0743C2716.31 31.6409 2717.81 30.5743 2719.47 29.8743C2721.14 29.1743 2722.87 28.8243 2724.67 28.8243ZM2724.82 60.6743C2725.79 60.6743 2726.67 60.2409 2727.47 59.3743C2728.27 58.5076 2728.91 57.0409 2729.37 54.9743C2729.87 52.9076 2730.12 50.0743 2730.12 46.4743C2730.12 43.3409 2729.91 40.6243 2729.47 38.3243C2729.07 35.9909 2728.46 34.1909 2727.62 32.9243C2726.79 31.6243 2725.74 30.9743 2724.47 30.9743C2723.54 30.9743 2722.66 31.4076 2721.82 32.2743C2721.02 33.1409 2720.37 34.6076 2719.87 36.6743C2719.41 38.7409 2719.17 41.5743 2719.17 45.1743C2719.17 48.3076 2719.37 51.0409 2719.77 53.3743C2720.21 55.6743 2720.84 57.4743 2721.67 58.7743C2722.51 60.0409 2723.56 60.6743 2724.82 60.6743ZM2766.23 52.8243H2767.38L2766.88 62.0743H2742.78V60.9243C2743.05 60.7909 2743.45 60.5576 2743.98 60.2243C2744.55 59.8909 2745.13 59.5076 2745.73 59.0743C2747.4 57.8743 2748.97 56.5076 2750.43 54.9743C2751.9 53.4409 2753.18 51.8076 2754.28 50.0743C2755.38 48.3409 2756.25 46.6076 2756.88 44.8743C2757.52 43.1409 2757.83 41.4909 2757.83 39.9243C2757.83 38.4243 2757.47 37.1576 2756.73 36.1243C2756.03 35.0909 2754.75 34.5743 2752.88 34.5743C2751.32 34.5743 2749.87 35.0076 2748.53 35.8743C2747.2 36.7409 2745.88 38.0909 2744.58 39.9243L2743.63 39.1243C2745 35.6576 2746.72 33.0743 2748.78 31.3743C2750.85 29.6743 2753.43 28.8243 2756.53 28.8243C2758.33 28.8243 2759.95 29.1243 2761.38 29.7243C2762.82 30.2909 2763.95 31.1909 2764.78 32.4243C2765.65 33.6243 2766.08 35.1909 2766.08 37.1243C2766.08 40.5576 2764.98 43.7743 2762.78 46.7743C2760.62 49.7743 2757.58 52.5909 2753.68 55.2243V55.3243H2760.98C2762.88 55.3243 2764.2 55.0909 2764.93 54.6243C2765.67 54.1576 2766.1 53.5576 2766.23 52.8243ZM2794.02 49.3243H2797.52V55.5743H2795.42C2794.48 55.5743 2794.02 56.1576 2794.02 57.3243C2794.02 58.1243 2794.02 58.9076 2794.02 59.6743C2794.05 60.4076 2794.08 61.2076 2794.12 62.0743H2786.22C2786.28 60.9743 2786.33 59.9076 2786.37 58.8743C2786.4 57.8076 2786.43 56.7076 2786.47 55.5743H2770.67V54.4243C2771.53 53.5909 2772.32 52.7243 2773.02 51.8243L2789.37 31.3743C2789.73 30.9076 2790.07 30.4576 2790.37 30.0243C2790.7 29.5576 2790.97 29.1576 2791.17 28.8243H2794.07L2794.02 49.3243ZM2786.37 38.8743L2778.02 49.3243H2786.52V38.8743H2786.37Z" fill="black"/>
<defs>
<linearGradient id="paint0_linear_562_1061" x1="0" y1="45" x2="2839.6" y2="45" gradientUnits="userSpaceOnUse">
<stop stop-color="#FA0056"/>
<stop offset="0.375" stop-color="#F33174"/>
<stop offset="0.67" stop-color="#FA0056"/>
<stop offset="0.975" stop-color="#F33174"/>
</linearGradient>
</defs>
</svg>
