<svg width="939" height="34" viewBox="0 0 939 34" fill="none" xmlns="http://www.w3.org/2000/svg">
<rect width="937.698" height="34" transform="translate(0.976562 0.00469971)" fill="#272729"/>
<path d="M23.1585 19.6087H23.6428L23.4322 23.5047H13.2816V23.0203C13.3939 22.9642 13.5624 22.8659 13.787 22.7255C14.0257 22.5851 14.2714 22.4237 14.5241 22.2411C15.2261 21.7357 15.8859 21.1601 16.5037 20.5143C17.1214 19.8684 17.662 19.1805 18.1253 18.4504C18.5886 17.7204 18.9536 16.9903 19.2204 16.2603C19.4871 15.5302 19.6205 14.8352 19.6205 14.1754C19.6205 13.5436 19.466 13.0101 19.1572 12.5748C18.8623 12.1396 18.3218 11.922 17.5356 11.922C16.8757 11.922 16.265 12.1045 15.7034 12.4695C15.1418 12.8346 14.5873 13.4032 14.0397 14.1754L13.6396 13.8384C14.2152 12.3783 14.9383 11.2902 15.8087 10.5742C16.6792 9.85818 17.7672 9.50017 19.0729 9.50017C19.8311 9.50017 20.512 9.62652 21.1157 9.87924C21.7194 10.1179 22.1968 10.497 22.5477 11.0164C22.9128 11.5219 23.0953 12.1817 23.0953 12.996C23.0953 14.4421 22.632 15.7969 21.7054 17.0605C20.7928 18.3241 19.5152 19.5104 17.8725 20.6196V20.6617H20.9472C21.7475 20.6617 22.3021 20.5634 22.6109 20.3668C22.9198 20.1703 23.1023 19.9176 23.1585 19.6087ZM32.1217 9.50017C32.8518 9.50017 33.5678 9.64056 34.2698 9.92135C34.9718 10.2021 35.6036 10.6374 36.1652 11.227C36.7267 11.8167 37.169 12.5608 37.4919 13.4593C37.8288 14.3438 37.9973 15.3968 37.9973 16.6183C37.9973 17.8257 37.8359 18.8786 37.513 19.7772C37.19 20.6757 36.7478 21.4268 36.1862 22.0305C35.6246 22.6342 34.9928 23.0835 34.2909 23.3783C33.5889 23.6732 32.8588 23.8206 32.1007 23.8206C31.3706 23.8206 30.6546 23.6802 29.9526 23.3994C29.2506 23.1186 28.6188 22.6834 28.0573 22.0937C27.4957 21.5041 27.0464 20.767 26.7095 19.8825C26.3865 18.9839 26.2251 17.9239 26.2251 16.7025C26.2251 15.4951 26.3865 14.4421 26.7095 13.5436C27.0324 12.645 27.4746 11.8939 28.0362 11.2902C28.5978 10.6865 29.2296 10.2372 29.9316 9.94241C30.6335 9.64758 31.3636 9.50017 32.1217 9.50017ZM32.1849 22.915C32.5921 22.915 32.9641 22.7325 33.3011 22.3675C33.638 22.0025 33.9048 21.3847 34.1013 20.5143C34.3119 19.6438 34.4172 18.4504 34.4172 16.9342C34.4172 15.6144 34.326 14.4702 34.1434 13.5015C33.975 12.5187 33.7152 11.7605 33.3642 11.227C33.0133 10.6795 32.571 10.4057 32.0375 10.4057C31.6444 10.4057 31.2723 10.5882 30.9213 10.9533C30.5844 11.3183 30.3106 11.936 30.1 12.8065C29.9035 13.677 29.8052 14.8703 29.8052 16.3866C29.8052 17.7063 29.8894 18.8576 30.0579 19.8404C30.2404 20.8091 30.5072 21.5672 30.8582 22.1148C31.2092 22.6483 31.6514 22.915 32.1849 22.915ZM52.2914 17.1447L45.763 17.7134L45.6156 16.0075L52.144 15.4389L52.2914 17.1447ZM68.5885 19.6087H69.0728L68.8623 23.5047H58.7116V23.0203C58.8239 22.9642 58.9924 22.8659 59.217 22.7255C59.4557 22.5851 59.7014 22.4237 59.9541 22.2411C60.6561 21.7357 61.3159 21.1601 61.9337 20.5143C62.5514 19.8684 63.092 19.1805 63.5553 18.4504C64.0186 17.7204 64.3836 16.9903 64.6504 16.2603C64.9171 15.5302 65.0505 14.8352 65.0505 14.1754C65.0505 13.5436 64.8961 13.0101 64.5872 12.5748C64.2924 12.1396 63.7518 11.922 62.9656 11.922C62.3057 11.922 61.695 12.1045 61.1334 12.4695C60.5718 12.8346 60.0173 13.4032 59.4697 14.1754L59.0696 13.8384C59.6452 12.3783 60.3683 11.2902 61.2387 10.5742C62.1092 9.85818 63.1973 9.50017 64.5029 9.50017C65.2611 9.50017 65.942 9.62652 66.5457 9.87924C67.1494 10.1179 67.6268 10.497 67.9778 11.0164C68.3428 11.5219 68.5253 12.1817 68.5253 12.996C68.5253 14.4421 68.062 15.7969 67.1354 17.0605C66.2228 18.3241 64.9452 19.5104 63.3026 20.6196V20.6617H66.3772C67.1775 20.6617 67.7321 20.5634 68.0409 20.3668C68.3498 20.1703 68.5323 19.9176 68.5885 19.6087ZM77.1937 21.1882C77.1937 21.7076 77.2359 22.1007 77.3201 22.3675C77.4184 22.6202 77.6149 22.7887 77.9098 22.8729C78.2186 22.9572 78.6819 23.0063 79.2997 23.0203V23.5047H71.5077V23.0203C72.1395 23.0063 72.6028 22.9572 72.8976 22.8729C73.2065 22.7887 73.403 22.6202 73.4873 22.3675C73.5715 22.1007 73.6136 21.7076 73.6136 21.1882V12.0273L71.6762 13.2277L71.2339 12.5538L76.1197 9.50017H77.3412C77.285 9.76692 77.2429 10.0337 77.2148 10.3004C77.2008 10.5672 77.1937 10.8339 77.1937 11.1007V21.1882ZM86.8268 23.5047V23.0203C87.2339 22.9923 87.5288 22.887 87.7113 22.7044C87.8938 22.5219 87.9851 22.0867 87.9851 21.3988V11.6061C87.9851 10.9182 87.8798 10.4829 87.6692 10.3004C87.4726 10.1039 87.0865 9.99857 86.5109 9.98453V9.50017H92.5128V9.98453C92.1057 9.99857 91.8109 10.1039 91.6283 10.3004C91.4458 10.4829 91.3546 10.9182 91.3546 11.6061V15.3336C91.4669 15.2494 91.6003 15.1932 91.7547 15.1652C91.9232 15.1371 92.1197 15.123 92.3444 15.123H96.3246C96.7037 15.123 96.9704 15.0599 97.1249 14.9335C97.2793 14.8071 97.3565 14.5544 97.3565 14.1754V11.6061C97.3565 10.9182 97.2512 10.4829 97.0406 10.3004C96.8441 10.1039 96.458 9.99857 95.8824 9.98453V9.50017H101.884V9.98453C101.477 9.99857 101.182 10.1039 101 10.3004C100.817 10.4829 100.726 10.9182 100.726 11.6061V21.3988C100.726 22.0867 100.831 22.5219 101.042 22.7044C101.253 22.887 101.639 22.9923 102.2 23.0203V23.5047H96.1982V23.0203C96.6054 22.9923 96.9002 22.887 97.0827 22.7044C97.2653 22.5219 97.3565 22.0867 97.3565 21.3988V15.7969C97.2442 15.8952 97.1038 15.9584 96.9353 15.9865C96.7669 16.0146 96.5773 16.0286 96.3667 16.0286H92.3865C92.0074 16.0286 91.7407 16.0918 91.5862 16.2181C91.4318 16.3445 91.3546 16.5902 91.3546 16.9552V21.3988C91.3546 22.0867 91.4599 22.5219 91.6705 22.7044C91.8811 22.887 92.2671 22.9923 92.8287 23.0203V23.5047H86.8268ZM111.489 9.18427C112.485 9.18427 113.412 9.35275 114.268 9.6897C115.125 10.0267 115.883 10.518 116.543 11.1639C117.203 11.7956 117.715 12.5608 118.08 13.4593C118.445 14.3579 118.628 15.3617 118.628 16.4708C118.628 17.58 118.445 18.5838 118.08 19.4823C117.715 20.3809 117.203 21.1531 116.543 21.7989C115.897 22.4447 115.139 22.9431 114.268 23.2941C113.398 23.6451 112.464 23.8206 111.468 23.8206C110.485 23.8206 109.558 23.6521 108.688 23.3152C107.831 22.9782 107.073 22.4938 106.413 21.8621C105.753 21.2162 105.241 20.4441 104.876 19.5455C104.511 18.647 104.328 17.6432 104.328 16.534C104.328 15.4249 104.511 14.4211 104.876 13.5225C105.241 12.624 105.746 11.8518 106.392 11.206C107.052 10.5602 107.817 10.0618 108.688 9.71076C109.558 9.35977 110.492 9.18427 111.489 9.18427ZM111.91 22.915C112.64 22.915 113.215 22.6764 113.637 22.199C114.058 21.7076 114.36 21.0337 114.542 20.1773C114.739 19.3209 114.837 18.3241 114.837 17.1869C114.837 14.8984 114.486 13.1435 113.784 11.922C113.096 10.7006 112.184 10.0898 111.046 10.0898C110.33 10.0898 109.755 10.3285 109.319 10.8059C108.898 11.2832 108.589 11.9571 108.393 12.8276C108.21 13.684 108.119 14.6808 108.119 15.818C108.119 18.1065 108.463 19.8614 109.151 21.0829C109.853 22.3043 110.773 22.915 111.91 22.915ZM121.021 23.8206C120.67 23.8206 120.298 23.7925 119.905 23.7364C119.512 23.6802 119.175 23.603 118.894 23.5047V23.0203C119.175 23.0203 119.491 22.908 119.842 22.6834C120.193 22.4587 120.551 22.0095 120.916 21.3356L123.927 15.8812C122.987 15.6425 122.271 15.2564 121.779 14.7229C121.302 14.1894 121.063 13.5436 121.063 12.7854C121.063 12.1958 121.239 11.6412 121.59 11.1217C121.955 10.6023 122.544 10.1881 123.359 9.87924C124.187 9.55632 125.296 9.39487 126.686 9.39487C127.135 9.39487 127.655 9.41593 128.244 9.45805C128.834 9.48613 129.487 9.50017 130.203 9.50017H132.899V9.98453C132.491 9.99857 132.197 10.1039 132.014 10.3004C131.832 10.4829 131.74 10.9182 131.74 11.6061V21.3988C131.74 22.0867 131.846 22.5219 132.056 22.7044C132.267 22.887 132.653 22.9923 133.215 23.0203V23.5047H127.213V23.0203C127.62 22.9923 127.915 22.887 128.097 22.7044C128.28 22.5219 128.371 22.0867 128.371 21.3988V11.6061C128.371 11.0586 128.273 10.7076 128.076 10.5531C127.893 10.3847 127.571 10.3004 127.107 10.3004C126.504 10.3004 125.956 10.518 125.465 10.9533C124.987 11.3745 124.749 12.0133 124.749 12.8697C124.749 13.3189 124.84 13.7542 125.022 14.1754C125.205 14.5825 125.528 14.9265 125.991 15.2073C126.468 15.4881 127.121 15.6565 127.95 15.7127V16.4498C127.781 16.4498 127.634 16.4849 127.507 16.5551C127.381 16.6112 127.255 16.7587 127.128 16.9973L124.749 21.5883C124.426 22.206 123.976 22.7325 123.401 23.1678C122.825 23.603 122.032 23.8206 121.021 23.8206ZM139.869 15.0809H141.912C143.443 15.0809 144.65 15.2494 145.534 15.5863C146.419 15.9233 147.044 16.3866 147.409 16.9763C147.788 17.5659 147.977 18.2469 147.977 19.019C147.977 19.7912 147.767 20.5213 147.346 21.2092C146.938 21.8831 146.3 22.4377 145.429 22.8729C144.573 23.2941 143.478 23.5047 142.144 23.5047L135.342 23.5047V23.0203C135.749 22.9923 136.044 22.887 136.226 22.7044C136.409 22.5219 136.5 22.0867 136.5 21.3988V11.6061C136.5 10.9182 136.395 10.4829 136.184 10.3004C135.988 10.1039 135.601 9.99857 135.026 9.98453V9.50017H146.608V12.975H146.124C146.082 12.4976 145.991 12.0694 145.85 11.6903C145.71 11.2972 145.471 10.9884 145.134 10.7637C144.797 10.5251 144.313 10.4057 143.681 10.4057H140.796C140.501 10.4057 140.27 10.4829 140.101 10.6374C139.947 10.7918 139.869 11.1147 139.869 11.6061V15.0809ZM141.112 22.5991C141.856 22.5991 142.467 22.4237 142.944 22.0727C143.436 21.7076 143.801 21.2584 144.039 20.7249C144.278 20.1913 144.397 19.6649 144.397 19.1454C144.397 18.3732 144.25 17.7555 143.955 17.2922C143.674 16.8289 143.288 16.4989 142.797 16.3024C142.319 16.0918 141.779 15.9865 141.175 15.9865H139.869V21.3988C139.869 21.8901 139.947 22.2131 140.101 22.3675C140.256 22.5219 140.593 22.5991 141.112 22.5991ZM150.211 23.5047V23.0203C150.618 22.9923 150.913 22.887 151.095 22.7044C151.278 22.5219 151.369 22.0867 151.369 21.3988V11.6061C151.369 10.9182 151.264 10.4829 151.053 10.3004C150.857 10.1039 150.471 9.99857 149.895 9.98453V9.50017H151.369C152.394 9.50017 153.356 9.48613 154.254 9.45805C155.153 9.41593 155.827 9.39487 156.276 9.39487C157.736 9.39487 158.887 9.55632 159.73 9.87924C160.586 10.2021 161.197 10.6304 161.562 11.1639C161.941 11.6833 162.13 12.259 162.13 12.8907C162.13 13.6208 161.892 14.3158 161.414 14.9756C160.951 15.6355 160.207 16.1479 159.182 16.513C158.171 16.864 156.83 16.9763 155.16 16.8499V16.1128C155.918 16.1409 156.543 16.0075 157.034 15.7127C157.525 15.4038 157.883 14.9967 158.108 14.4913C158.347 13.9858 158.466 13.4453 158.466 12.8697C158.466 12.0975 158.248 11.4798 157.813 11.0164C157.378 10.5391 156.774 10.3004 156.002 10.3004C155.539 10.3004 155.209 10.3847 155.012 10.5531C154.83 10.7076 154.739 11.0586 154.739 11.6061V21.3988C154.739 21.848 154.781 22.192 154.865 22.4307C154.963 22.6553 155.132 22.8097 155.37 22.894C155.623 22.9642 155.974 23.0063 156.423 23.0203V23.5047H150.211ZM164.353 23.8206C164.002 23.8206 163.63 23.7925 163.237 23.7364C162.844 23.6802 162.507 23.603 162.226 23.5047V23.0203C162.507 23.0203 162.823 22.908 163.174 22.6834C163.525 22.4587 163.883 22.0095 164.248 21.3356L167.26 15.8812C166.319 15.6425 165.603 15.2564 165.112 14.7229C164.634 14.1894 164.396 13.5436 164.396 12.7854C164.396 12.1958 164.571 11.6412 164.922 11.1217C165.287 10.6023 165.877 10.1881 166.691 9.87924C167.519 9.55632 168.628 9.39487 170.018 9.39487C170.468 9.39487 170.987 9.41593 171.577 9.45805C172.166 9.48613 172.819 9.50017 173.535 9.50017H176.231V9.98453C175.824 9.99857 175.529 10.1039 175.346 10.3004C175.164 10.4829 175.073 10.9182 175.073 11.6061V21.3988C175.073 22.0867 175.178 22.5219 175.389 22.7044C175.599 22.887 175.985 22.9923 176.547 23.0203V23.5047H170.545V23.0203C170.952 22.9923 171.247 22.887 171.429 22.7044C171.612 22.5219 171.703 22.0867 171.703 21.3988V11.6061C171.703 11.0586 171.605 10.7076 171.408 10.5531C171.226 10.3847 170.903 10.3004 170.44 10.3004C169.836 10.3004 169.288 10.518 168.797 10.9533C168.32 11.3745 168.081 12.0133 168.081 12.8697C168.081 13.3189 168.172 13.7542 168.355 14.1754C168.537 14.5825 168.86 14.9265 169.323 15.2073C169.801 15.4881 170.454 15.6565 171.282 15.7127V16.4498C171.113 16.4498 170.966 16.4849 170.84 16.5551C170.713 16.6112 170.587 16.7587 170.461 16.9973L168.081 21.5883C167.758 22.206 167.309 22.7325 166.733 23.1678C166.157 23.603 165.364 23.8206 164.353 23.8206ZM193.279 19.6087H193.764L193.553 23.5047H183.402V23.0203C183.515 22.9642 183.683 22.8659 183.908 22.7255C184.147 22.5851 184.392 22.4237 184.645 22.2411C185.347 21.7357 186.007 21.1601 186.625 20.5143C187.242 19.8684 187.783 19.1805 188.246 18.4504C188.709 17.7204 189.074 16.9903 189.341 16.2603C189.608 15.5302 189.741 14.8352 189.741 14.1754C189.741 13.5436 189.587 13.0101 189.278 12.5748C188.983 12.1396 188.443 11.922 187.656 11.922C186.997 11.922 186.386 12.1045 185.824 12.4695C185.263 12.8346 184.708 13.4032 184.161 14.1754L183.76 13.8384C184.336 12.3783 185.059 11.2902 185.93 10.5742C186.8 9.85818 187.888 9.50017 189.194 9.50017C189.952 9.50017 190.633 9.62652 191.237 9.87924C191.84 10.1179 192.318 10.497 192.669 11.0164C193.034 11.5219 193.216 12.1817 193.216 12.996C193.216 14.4421 192.753 15.7969 191.826 17.0605C190.914 18.3241 189.636 19.5104 187.993 20.6196V20.6617H191.068C191.868 20.6617 192.423 20.5634 192.732 20.3668C193.041 20.1703 193.223 19.9176 193.279 19.6087ZM202.243 9.50017C202.973 9.50017 203.689 9.64056 204.391 9.92135C205.093 10.2021 205.724 10.6374 206.286 11.227C206.848 11.8167 207.29 12.5608 207.613 13.4593C207.95 14.3438 208.118 15.3968 208.118 16.6183C208.118 17.8257 207.957 18.8786 207.634 19.7772C207.311 20.6757 206.869 21.4268 206.307 22.0305C205.746 22.6342 205.114 23.0835 204.412 23.3783C203.71 23.6732 202.98 23.8206 202.222 23.8206C201.492 23.8206 200.775 23.6802 200.074 23.3994C199.372 23.1186 198.74 22.6834 198.178 22.0937C197.617 21.5041 197.167 20.767 196.83 19.8825C196.507 18.9839 196.346 17.9239 196.346 16.7025C196.346 15.4951 196.507 14.4421 196.83 13.5436C197.153 12.645 197.596 11.8939 198.157 11.2902C198.719 10.6865 199.35 10.2372 200.052 9.94241C200.754 9.64758 201.484 9.50017 202.243 9.50017ZM202.306 22.915C202.713 22.915 203.085 22.7325 203.422 22.3675C203.759 22.0025 204.026 21.3847 204.222 20.5143C204.433 19.6438 204.538 18.4504 204.538 16.9342C204.538 15.6144 204.447 14.4702 204.264 13.5015C204.096 12.5187 203.836 11.7605 203.485 11.227C203.134 10.6795 202.692 10.4057 202.158 10.4057C201.765 10.4057 201.393 10.5882 201.042 10.9533C200.705 11.3183 200.432 11.936 200.221 12.8065C200.024 13.677 199.926 14.8703 199.926 16.3866C199.926 17.7063 200.01 18.8576 200.179 19.8404C200.361 20.8091 200.628 21.5672 200.979 22.1148C201.33 22.6483 201.772 22.915 202.306 22.915ZM219.748 19.6087H220.232L220.021 23.5047H209.871V23.0203C209.983 22.9642 210.152 22.8659 210.376 22.7255C210.615 22.5851 210.861 22.4237 211.113 22.2411C211.815 21.7357 212.475 21.1601 213.093 20.5143C213.711 19.8684 214.251 19.1805 214.714 18.4504C215.178 17.7204 215.543 16.9903 215.81 16.2603C216.076 15.5302 216.21 14.8352 216.21 14.1754C216.21 13.5436 216.055 13.0101 215.746 12.5748C215.452 12.1396 214.911 11.922 214.125 11.922C213.465 11.922 212.854 12.1045 212.293 12.4695C211.731 12.8346 211.176 13.4032 210.629 14.1754L210.229 13.8384C210.804 12.3783 211.527 11.2902 212.398 10.5742C213.268 9.85818 214.356 9.50017 215.662 9.50017C216.42 9.50017 217.101 9.62652 217.705 9.87924C218.309 10.1179 218.786 10.497 219.137 11.0164C219.502 11.5219 219.684 12.1817 219.684 12.996C219.684 14.4421 219.221 15.7969 218.295 17.0605C217.382 18.3241 216.104 19.5104 214.462 20.6196V20.6617H217.536C218.337 20.6617 218.891 20.5634 219.2 20.3668C219.509 20.1703 219.691 19.9176 219.748 19.6087ZM231.449 18.1345H232.923V20.767H232.038C231.645 20.767 231.449 21.0127 231.449 21.5041C231.449 21.841 231.449 22.1709 231.449 22.4938C231.463 22.8027 231.477 23.1397 231.491 23.5047H228.163C228.191 23.0414 228.212 22.5921 228.227 22.1569C228.241 21.7076 228.255 21.2443 228.269 20.767H221.614V20.2826C221.979 19.9316 222.309 19.5666 222.604 19.1875L229.49 10.5742C229.645 10.3776 229.785 10.1881 229.911 10.0056C230.052 9.80904 230.164 9.64056 230.248 9.50017H231.47L231.449 18.1345ZM228.227 13.7331L224.71 18.1345H228.29V13.7331H228.227ZM250.2 9.50017V13.3962H249.716C249.646 12.7784 249.52 12.2519 249.337 11.8167C249.169 11.3674 248.902 11.0235 248.537 10.7848C248.186 10.5321 247.694 10.4057 247.063 10.4057H246.073C245.778 10.4057 245.546 10.4829 245.378 10.6374C245.223 10.7918 245.146 11.1147 245.146 11.6061V21.3988C245.146 22.0867 245.251 22.5219 245.462 22.7044C245.673 22.887 246.059 22.9923 246.62 23.0203V23.5047H240.618V23.0203C241.026 22.9923 241.32 22.887 241.503 22.7044C241.685 22.5219 241.777 22.0867 241.777 21.3988V11.6061C241.777 10.9182 241.671 10.4829 241.461 10.3004C241.264 10.1039 240.878 9.99857 240.302 9.98453V9.50017H250.2ZM258.637 9.18427C259.634 9.18427 260.561 9.35275 261.417 9.6897C262.274 10.0267 263.032 10.518 263.692 11.1639C264.351 11.7956 264.864 12.5608 265.229 13.4593C265.594 14.3579 265.777 15.3617 265.777 16.4708C265.777 17.58 265.594 18.5838 265.229 19.4823C264.864 20.3809 264.351 21.1531 263.692 21.7989C263.046 22.4447 262.288 22.9431 261.417 23.2941C260.547 23.6451 259.613 23.8206 258.616 23.8206C257.634 23.8206 256.707 23.6521 255.836 23.3152C254.98 22.9782 254.222 22.4938 253.562 21.8621C252.902 21.2162 252.39 20.4441 252.025 19.5455C251.66 18.647 251.477 17.6432 251.477 16.534C251.477 15.4249 251.66 14.4211 252.025 13.5225C252.39 12.624 252.895 11.8518 253.541 11.206C254.201 10.5602 254.966 10.0618 255.836 9.71076C256.707 9.35977 257.641 9.18427 258.637 9.18427ZM259.059 22.915C259.789 22.915 260.364 22.6764 260.785 22.199C261.207 21.7076 261.508 21.0337 261.691 20.1773C261.888 19.3209 261.986 18.3241 261.986 17.1869C261.986 14.8984 261.635 13.1435 260.933 11.922C260.245 10.7006 259.332 10.0898 258.195 10.0898C257.479 10.0898 256.903 10.3285 256.468 10.8059C256.047 11.2832 255.738 11.9571 255.542 12.8276C255.359 13.684 255.268 14.6808 255.268 15.818C255.268 18.1065 255.612 19.8614 256.3 21.0829C257.002 22.3043 257.921 22.915 259.059 22.915ZM274.909 11.1639L278.405 21.3988C278.531 21.7638 278.714 22.1007 278.952 22.4096C279.205 22.7044 279.591 22.908 280.111 23.0203L279.142 27.8219H278.658C278.629 26.9514 278.503 26.1933 278.278 25.5475C278.054 24.9016 277.773 24.3962 277.436 24.0312C277.099 23.6802 276.734 23.5047 276.341 23.5047H270.697C270.178 23.5047 269.665 23.6802 269.16 24.0312C268.668 24.3962 268.247 24.9016 267.896 25.5475C267.559 26.1933 267.342 26.9514 267.243 27.8219H266.759V23.0203C267.012 22.908 267.257 22.7185 267.496 22.4517C267.735 22.1709 267.952 21.855 268.149 21.5041C268.359 21.1531 268.521 20.8231 268.633 20.5143L272.213 11.1639C272.354 10.7988 272.487 10.4408 272.613 10.0898C272.74 9.73884 272.852 9.38083 272.95 9.0158H274.172C274.27 9.38083 274.382 9.73884 274.509 10.0898C274.649 10.4408 274.783 10.7988 274.909 11.1639ZM274.024 22.5991C274.586 22.5991 274.895 22.5079 274.951 22.3254C275.007 22.1429 274.958 21.834 274.804 21.3988L272.34 13.8174H272.298L269.012 22.5991H274.024ZM292.998 21.3988C293.195 21.8761 293.356 22.2271 293.483 22.4517C293.623 22.6764 293.771 22.8238 293.925 22.894C294.079 22.9501 294.269 22.9923 294.494 23.0203V23.5047H288.618V23.0203C289.18 22.9923 289.488 22.8238 289.545 22.5149C289.615 22.206 289.566 21.834 289.397 21.3988L288.344 18.661C288.26 18.7312 288.148 18.7804 288.007 18.8084C287.881 18.8225 287.74 18.8295 287.586 18.8295H285.206C284.912 18.8295 284.687 18.8646 284.532 18.9348C284.378 19.005 284.245 19.1805 284.132 19.4613L283.374 21.3988C283.192 21.8621 283.206 22.2411 283.416 22.536C283.627 22.8308 284.041 22.9923 284.659 23.0203V23.5047H280.826V23.0203C281.135 22.9923 281.395 22.8378 281.605 22.557C281.83 22.2622 282.033 21.8761 282.216 21.3988L286.259 11.1639C286.414 10.7988 286.547 10.4408 286.659 10.0898C286.786 9.73884 286.898 9.38083 286.996 9.0158H288.218C288.316 9.38083 288.428 9.73884 288.555 10.0898C288.681 10.4408 288.815 10.7988 288.955 11.1639L292.998 21.3988ZM287.481 17.9239C287.677 17.9239 287.804 17.8959 287.86 17.8397C287.93 17.7695 287.923 17.6291 287.839 17.4185L286.386 13.8174H286.344L284.701 18.0082C284.771 17.9661 284.855 17.945 284.954 17.945C285.052 17.931 285.164 17.9239 285.291 17.9239H287.481Z" fill="white"/>
<path d="M315.887 14.6038C313.788 13.7655 311.325 14.2126 309.646 15.8892C307.379 18.1526 307.379 21.8132 309.646 24.0766C311.325 25.7532 313.788 26.2003 315.887 25.362V22.6795C315.468 22.8751 315.02 22.9868 314.544 22.9868C312.865 22.9868 311.521 21.6455 311.521 19.9689C311.521 18.2923 312.865 16.951 314.544 16.951C315.02 16.951 315.496 17.0628 315.887 17.2584V14.6038Z" fill="white"/>
<path d="M314.947 11.9155C315.774 11.0866 315.774 9.71453 314.947 8.857C314.121 8.02805 312.752 8.02805 311.897 8.857C311.041 9.68595 311.07 11.058 311.897 11.9155C312.752 12.7445 314.121 12.7445 314.947 11.9155Z" fill="white"/>
<path d="M338.979 19.6087H339.463L339.253 23.5047H329.102V23.0203C329.214 22.9642 329.383 22.8659 329.607 22.7255C329.846 22.5851 330.092 22.4237 330.344 22.2411C331.046 21.7357 331.706 21.1601 332.324 20.5143C332.942 19.8684 333.482 19.1805 333.946 18.4504C334.409 17.7204 334.774 16.9903 335.041 16.2603C335.307 15.5302 335.441 14.8352 335.441 14.1754C335.441 13.5436 335.286 13.0101 334.977 12.5748C334.683 12.1396 334.142 11.922 333.356 11.922C332.696 11.922 332.085 12.1045 331.524 12.4695C330.962 12.8346 330.408 13.4032 329.86 14.1754L329.46 13.8384C330.036 12.3783 330.759 11.2902 331.629 10.5742C332.499 9.85818 333.588 9.50017 334.893 9.50017C335.651 9.50017 336.332 9.62652 336.936 9.87924C337.54 10.1179 338.017 10.497 338.368 11.0164C338.733 11.5219 338.916 12.1817 338.916 12.996C338.916 14.4421 338.452 15.7969 337.526 17.0605C336.613 18.3241 335.335 19.5104 333.693 20.6196V20.6617H336.768C337.568 20.6617 338.122 20.5634 338.431 20.3668C338.74 20.1703 338.923 19.9176 338.979 19.6087ZM347.942 9.50017C348.672 9.50017 349.388 9.64056 350.09 9.92135C350.792 10.2021 351.424 10.6374 351.985 11.227C352.547 11.8167 352.989 12.5608 353.312 13.4593C353.649 14.3438 353.818 15.3968 353.818 16.6183C353.818 17.8257 353.656 18.8786 353.333 19.7772C353.01 20.6757 352.568 21.4268 352.007 22.0305C351.445 22.6342 350.813 23.0835 350.111 23.3783C349.409 23.6732 348.679 23.8206 347.921 23.8206C347.191 23.8206 346.475 23.6802 345.773 23.3994C345.071 23.1186 344.439 22.6834 343.878 22.0937C343.316 21.5041 342.867 20.767 342.53 19.8825C342.207 18.9839 342.045 17.9239 342.045 16.7025C342.045 15.4951 342.207 14.4421 342.53 13.5436C342.853 12.645 343.295 11.8939 343.857 11.2902C344.418 10.6865 345.05 10.2372 345.752 9.94241C346.454 9.64758 347.184 9.50017 347.942 9.50017ZM348.005 22.915C348.412 22.915 348.784 22.7325 349.121 22.3675C349.458 22.0025 349.725 21.3847 349.922 20.5143C350.132 19.6438 350.238 18.4504 350.238 16.9342C350.238 15.6144 350.146 14.4702 349.964 13.5015C349.795 12.5187 349.536 11.7605 349.185 11.227C348.834 10.6795 348.391 10.4057 347.858 10.4057C347.465 10.4057 347.093 10.5882 346.742 10.9533C346.405 11.3183 346.131 11.936 345.92 12.8065C345.724 13.677 345.626 14.8703 345.626 16.3866C345.626 17.7063 345.71 18.8576 345.878 19.8404C346.061 20.8091 346.327 21.5672 346.678 22.1148C347.029 22.6483 347.472 22.915 348.005 22.915ZM368.112 17.1447L361.583 17.7134L361.436 16.0075L367.964 15.4389L368.112 17.1447ZM384.409 19.6087H384.893L384.683 23.5047H374.532V23.0203C374.644 22.9642 374.813 22.8659 375.037 22.7255C375.276 22.5851 375.522 22.4237 375.774 22.2411C376.476 21.7357 377.136 21.1601 377.754 20.5143C378.372 19.8684 378.912 19.1805 379.376 18.4504C379.839 17.7204 380.204 16.9903 380.471 16.2603C380.737 15.5302 380.871 14.8352 380.871 14.1754C380.871 13.5436 380.716 13.0101 380.407 12.5748C380.113 12.1396 379.572 11.922 378.786 11.922C378.126 11.922 377.515 12.1045 376.954 12.4695C376.392 12.8346 375.838 13.4032 375.29 14.1754L374.89 13.8384C375.466 12.3783 376.189 11.2902 377.059 10.5742C377.929 9.85818 379.018 9.50017 380.323 9.50017C381.081 9.50017 381.762 9.62652 382.366 9.87924C382.97 10.1179 383.447 10.497 383.798 11.0164C384.163 11.5219 384.346 12.1817 384.346 12.996C384.346 14.4421 383.882 15.7969 382.956 17.0605C382.043 18.3241 380.766 19.5104 379.123 20.6196V20.6617H382.198C382.998 20.6617 383.552 20.5634 383.861 20.3668C384.17 20.1703 384.353 19.9176 384.409 19.6087ZM393.014 21.1882C393.014 21.7076 393.056 22.1007 393.14 22.3675C393.239 22.6202 393.435 22.7887 393.73 22.8729C394.039 22.9572 394.502 23.0063 395.12 23.0203V23.5047H387.328V23.0203C387.96 23.0063 388.423 22.9572 388.718 22.8729C389.027 22.7887 389.223 22.6202 389.308 22.3675C389.392 22.1007 389.434 21.7076 389.434 21.1882V12.0273L387.496 13.2277L387.054 12.5538L391.94 9.50017H393.161C393.105 9.76692 393.063 10.0337 393.035 10.3004C393.021 10.5672 393.014 10.8339 393.014 11.1007V21.1882ZM402.647 23.5047V23.0203C403.054 22.9923 403.349 22.887 403.532 22.7044C403.714 22.5219 403.805 22.0867 403.805 21.3988V11.6061C403.805 10.9182 403.7 10.4829 403.489 10.3004C403.293 10.1039 402.907 9.99857 402.331 9.98453V9.50017H408.333V9.98453C407.926 9.99857 407.631 10.1039 407.449 10.3004C407.266 10.4829 407.175 10.9182 407.175 11.6061V15.3336C407.287 15.2494 407.421 15.1932 407.575 15.1652C407.743 15.1371 407.94 15.123 408.165 15.123H412.145C412.524 15.123 412.791 15.0599 412.945 14.9335C413.1 14.8071 413.177 14.5544 413.177 14.1754V11.6061C413.177 10.9182 413.072 10.4829 412.861 10.3004C412.664 10.1039 412.278 9.99857 411.703 9.98453V9.50017H417.705V9.98453C417.297 9.99857 417.003 10.1039 416.82 10.3004C416.638 10.4829 416.546 10.9182 416.546 11.6061V21.3988C416.546 22.0867 416.652 22.5219 416.862 22.7044C417.073 22.887 417.459 22.9923 418.021 23.0203V23.5047H412.019V23.0203C412.426 22.9923 412.721 22.887 412.903 22.7044C413.086 22.5219 413.177 22.0867 413.177 21.3988V15.7969C413.065 15.8952 412.924 15.9584 412.756 15.9865C412.587 16.0146 412.398 16.0286 412.187 16.0286H408.207C407.828 16.0286 407.561 16.0918 407.407 16.2181C407.252 16.3445 407.175 16.5902 407.175 16.9552V21.3988C407.175 22.0867 407.28 22.5219 407.491 22.7044C407.701 22.887 408.087 22.9923 408.649 23.0203V23.5047H402.647ZM427.309 9.18427C428.306 9.18427 429.232 9.35275 430.089 9.6897C430.945 10.0267 431.703 10.518 432.363 11.1639C433.023 11.7956 433.535 12.5608 433.9 13.4593C434.266 14.3579 434.448 15.3617 434.448 16.4708C434.448 17.58 434.266 18.5838 433.9 19.4823C433.535 20.3809 433.023 21.1531 432.363 21.7989C431.717 22.4447 430.959 22.9431 430.089 23.2941C429.218 23.6451 428.285 23.8206 427.288 23.8206C426.305 23.8206 425.378 23.6521 424.508 23.3152C423.652 22.9782 422.893 22.4938 422.234 21.8621C421.574 21.2162 421.061 20.4441 420.696 19.5455C420.331 18.647 420.149 17.6432 420.149 16.534C420.149 15.4249 420.331 14.4211 420.696 13.5225C421.061 12.624 421.567 11.8518 422.212 11.206C422.872 10.5602 423.638 10.0618 424.508 9.71076C425.378 9.35977 426.312 9.18427 427.309 9.18427ZM427.73 22.915C428.46 22.915 429.036 22.6764 429.457 22.199C429.878 21.7076 430.18 21.0337 430.362 20.1773C430.559 19.3209 430.657 18.3241 430.657 17.1869C430.657 14.8984 430.306 13.1435 429.604 11.922C428.916 10.7006 428.004 10.0898 426.867 10.0898C426.151 10.0898 425.575 10.3285 425.14 10.8059C424.719 11.2832 424.41 11.9571 424.213 12.8276C424.031 13.684 423.939 14.6808 423.939 15.818C423.939 18.1065 424.283 19.8614 424.971 21.0829C425.673 22.3043 426.593 22.915 427.73 22.915ZM436.841 23.8206C436.49 23.8206 436.118 23.7925 435.725 23.7364C435.332 23.6802 434.995 23.603 434.714 23.5047V23.0203C434.995 23.0203 435.311 22.908 435.662 22.6834C436.013 22.4587 436.371 22.0095 436.736 21.3356L439.748 15.8812C438.807 15.6425 438.091 15.2564 437.6 14.7229C437.122 14.1894 436.884 13.5436 436.884 12.7854C436.884 12.1958 437.059 11.6412 437.41 11.1217C437.775 10.6023 438.365 10.1881 439.179 9.87924C440.007 9.55632 441.116 9.39487 442.506 9.39487C442.956 9.39487 443.475 9.41593 444.065 9.45805C444.654 9.48613 445.307 9.50017 446.023 9.50017H448.719V9.98453C448.312 9.99857 448.017 10.1039 447.834 10.3004C447.652 10.4829 447.561 10.9182 447.561 11.6061V21.3988C447.561 22.0867 447.666 22.5219 447.877 22.7044C448.087 22.887 448.473 22.9923 449.035 23.0203V23.5047H443.033V23.0203C443.44 22.9923 443.735 22.887 443.917 22.7044C444.1 22.5219 444.191 22.0867 444.191 21.3988V11.6061C444.191 11.0586 444.093 10.7076 443.896 10.5531C443.714 10.3847 443.391 10.3004 442.928 10.3004C442.324 10.3004 441.776 10.518 441.285 10.9533C440.808 11.3745 440.569 12.0133 440.569 12.8697C440.569 13.3189 440.66 13.7542 440.843 14.1754C441.025 14.5825 441.348 14.9265 441.811 15.2073C442.289 15.4881 442.942 15.6565 443.77 15.7127V16.4498C443.601 16.4498 443.454 16.4849 443.328 16.5551C443.201 16.6112 443.075 16.7587 442.949 16.9973L440.569 21.5883C440.246 22.206 439.797 22.7325 439.221 23.1678C438.645 23.603 437.852 23.8206 436.841 23.8206ZM455.69 15.0809H457.733C459.263 15.0809 460.47 15.2494 461.355 15.5863C462.239 15.9233 462.864 16.3866 463.229 16.9763C463.608 17.5659 463.798 18.2469 463.798 19.019C463.798 19.7912 463.587 20.5213 463.166 21.2092C462.759 21.8831 462.12 22.4377 461.249 22.8729C460.393 23.2941 459.298 23.5047 457.964 23.5047L451.162 23.5047V23.0203C451.569 22.9923 451.864 22.887 452.046 22.7044C452.229 22.5219 452.32 22.0867 452.32 21.3988V11.6061C452.32 10.9182 452.215 10.4829 452.004 10.3004C451.808 10.1039 451.422 9.99857 450.846 9.98453V9.50017H462.429V12.975H461.944C461.902 12.4976 461.811 12.0694 461.671 11.6903C461.53 11.2972 461.292 10.9884 460.955 10.7637C460.618 10.5251 460.133 10.4057 459.502 10.4057H456.616C456.322 10.4057 456.09 10.4829 455.921 10.6374C455.767 10.7918 455.69 11.1147 455.69 11.6061V15.0809ZM456.932 22.5991C457.676 22.5991 458.287 22.4237 458.764 22.0727C459.256 21.7076 459.621 21.2584 459.86 20.7249C460.098 20.1913 460.218 19.6649 460.218 19.1454C460.218 18.3732 460.07 17.7555 459.775 17.2922C459.495 16.8289 459.108 16.4989 458.617 16.3024C458.14 16.0918 457.599 15.9865 456.995 15.9865H455.69V21.3988C455.69 21.8901 455.767 22.2131 455.921 22.3675C456.076 22.5219 456.413 22.5991 456.932 22.5991ZM466.031 23.5047V23.0203C466.438 22.9923 466.733 22.887 466.916 22.7044C467.098 22.5219 467.189 22.0867 467.189 21.3988V11.6061C467.189 10.9182 467.084 10.4829 466.873 10.3004C466.677 10.1039 466.291 9.99857 465.715 9.98453V9.50017H467.189C468.214 9.50017 469.176 9.48613 470.075 9.45805C470.973 9.41593 471.647 9.39487 472.096 9.39487C473.556 9.39487 474.708 9.55632 475.55 9.87924C476.406 10.2021 477.017 10.6304 477.382 11.1639C477.761 11.6833 477.951 12.259 477.951 12.8907C477.951 13.6208 477.712 14.3158 477.235 14.9756C476.771 15.6355 476.027 16.1479 475.002 16.513C473.992 16.864 472.651 16.9763 470.98 16.8499V16.1128C471.738 16.1409 472.363 16.0075 472.854 15.7127C473.346 15.4038 473.704 14.9967 473.928 14.4913C474.167 13.9858 474.286 13.4453 474.286 12.8697C474.286 12.0975 474.069 11.4798 473.634 11.0164C473.198 10.5391 472.595 10.3004 471.822 10.3004C471.359 10.3004 471.029 10.3847 470.833 10.5531C470.65 10.7076 470.559 11.0586 470.559 11.6061V21.3988C470.559 21.848 470.601 22.192 470.685 22.4307C470.784 22.6553 470.952 22.8097 471.191 22.894C471.443 22.9642 471.794 23.0063 472.244 23.0203V23.5047H466.031ZM480.174 23.8206C479.823 23.8206 479.451 23.7925 479.058 23.7364C478.664 23.6802 478.327 23.603 478.047 23.5047V23.0203C478.327 23.0203 478.643 22.908 478.994 22.6834C479.345 22.4587 479.703 22.0095 480.068 21.3356L483.08 15.8812C482.139 15.6425 481.423 15.2564 480.932 14.7229C480.454 14.1894 480.216 13.5436 480.216 12.7854C480.216 12.1958 480.391 11.6412 480.742 11.1217C481.107 10.6023 481.697 10.1881 482.511 9.87924C483.34 9.55632 484.449 9.39487 485.839 9.39487C486.288 9.39487 486.807 9.41593 487.397 9.45805C487.987 9.48613 488.64 9.50017 489.356 9.50017H492.051V9.98453C491.644 9.99857 491.349 10.1039 491.167 10.3004C490.984 10.4829 490.893 10.9182 490.893 11.6061V21.3988C490.893 22.0867 490.998 22.5219 491.209 22.7044C491.419 22.887 491.806 22.9923 492.367 23.0203V23.5047H486.365V23.0203C486.772 22.9923 487.067 22.887 487.25 22.7044C487.432 22.5219 487.523 22.0867 487.523 21.3988V11.6061C487.523 11.0586 487.425 10.7076 487.229 10.5531C487.046 10.3847 486.723 10.3004 486.26 10.3004C485.656 10.3004 485.109 10.518 484.617 10.9533C484.14 11.3745 483.901 12.0133 483.901 12.8697C483.901 13.3189 483.992 13.7542 484.175 14.1754C484.358 14.5825 484.68 14.9265 485.144 15.2073C485.621 15.4881 486.274 15.6565 487.102 15.7127V16.4498C486.934 16.4498 486.786 16.4849 486.66 16.5551C486.534 16.6112 486.407 16.7587 486.281 16.9973L483.901 21.5883C483.578 22.206 483.129 22.7325 482.553 23.1678C481.978 23.603 481.185 23.8206 480.174 23.8206ZM509.1 19.6087H509.584L509.373 23.5047H499.223V23.0203C499.335 22.9642 499.504 22.8659 499.728 22.7255C499.967 22.5851 500.213 22.4237 500.465 22.2411C501.167 21.7357 501.827 21.1601 502.445 20.5143C503.063 19.8684 503.603 19.1805 504.066 18.4504C504.53 17.7204 504.895 16.9903 505.162 16.2603C505.428 15.5302 505.562 14.8352 505.562 14.1754C505.562 13.5436 505.407 13.0101 505.098 12.5748C504.804 12.1396 504.263 11.922 503.477 11.922C502.817 11.922 502.206 12.1045 501.645 12.4695C501.083 12.8346 500.528 13.4032 499.981 14.1754L499.581 13.8384C500.156 12.3783 500.879 11.2902 501.75 10.5742C502.62 9.85818 503.708 9.50017 505.014 9.50017C505.772 9.50017 506.453 9.62652 507.057 9.87924C507.661 10.1179 508.138 10.497 508.489 11.0164C508.854 11.5219 509.036 12.1817 509.036 12.996C509.036 14.4421 508.573 15.7969 507.647 17.0605C506.734 18.3241 505.456 19.5104 503.814 20.6196V20.6617H506.888C507.689 20.6617 508.243 20.5634 508.552 20.3668C508.861 20.1703 509.044 19.9176 509.1 19.6087ZM518.063 9.50017C518.793 9.50017 519.509 9.64056 520.211 9.92135C520.913 10.2021 521.545 10.6374 522.106 11.227C522.668 11.8167 523.11 12.5608 523.433 13.4593C523.77 14.3438 523.939 15.3968 523.939 16.6183C523.939 17.8257 523.777 18.8786 523.454 19.7772C523.131 20.6757 522.689 21.4268 522.127 22.0305C521.566 22.6342 520.934 23.0835 520.232 23.3783C519.53 23.6732 518.8 23.8206 518.042 23.8206C517.312 23.8206 516.596 23.6802 515.894 23.3994C515.192 23.1186 514.56 22.6834 513.998 22.0937C513.437 21.5041 512.988 20.767 512.651 19.8825C512.328 18.9839 512.166 17.9239 512.166 16.7025C512.166 15.4951 512.328 14.4421 512.651 13.5436C512.974 12.645 513.416 11.8939 513.977 11.2902C514.539 10.6865 515.171 10.2372 515.873 9.94241C516.575 9.64758 517.305 9.50017 518.063 9.50017ZM518.126 22.915C518.533 22.915 518.905 22.7325 519.242 22.3675C519.579 22.0025 519.846 21.3847 520.043 20.5143C520.253 19.6438 520.358 18.4504 520.358 16.9342C520.358 15.6144 520.267 14.4702 520.085 13.5015C519.916 12.5187 519.656 11.7605 519.305 11.227C518.954 10.6795 518.512 10.4057 517.979 10.4057C517.586 10.4057 517.214 10.5882 516.863 10.9533C516.526 11.3183 516.252 11.936 516.041 12.8065C515.845 13.677 515.746 14.8703 515.746 16.3866C515.746 17.7063 515.831 18.8576 515.999 19.8404C516.182 20.8091 516.448 21.5672 516.799 22.1148C517.15 22.6483 517.593 22.915 518.126 22.915ZM535.568 19.6087H536.052L535.842 23.5047H525.691V23.0203C525.803 22.9642 525.972 22.8659 526.196 22.7255C526.435 22.5851 526.681 22.4237 526.934 22.2411C527.636 21.7357 528.295 21.1601 528.913 20.5143C529.531 19.8684 530.071 19.1805 530.535 18.4504C530.998 17.7204 531.363 16.9903 531.63 16.2603C531.897 15.5302 532.03 14.8352 532.03 14.1754C532.03 13.5436 531.876 13.0101 531.567 12.5748C531.272 12.1396 530.731 11.922 529.945 11.922C529.285 11.922 528.674 12.1045 528.113 12.4695C527.551 12.8346 526.997 13.4032 526.449 14.1754L526.049 13.8384C526.625 12.3783 527.348 11.2902 528.218 10.5742C529.089 9.85818 530.177 9.50017 531.482 9.50017C532.241 9.50017 532.921 9.62652 533.525 9.87924C534.129 10.1179 534.606 10.497 534.957 11.0164C535.322 11.5219 535.505 12.1817 535.505 12.996C535.505 14.4421 535.041 15.7969 534.115 17.0605C533.202 18.3241 531.925 19.5104 530.282 20.6196V20.6617H533.357C534.157 20.6617 534.712 20.5634 535.02 20.3668C535.329 20.1703 535.512 19.9176 535.568 19.6087ZM547.269 18.1345H548.743V20.767H547.859C547.466 20.767 547.269 21.0127 547.269 21.5041C547.269 21.841 547.269 22.1709 547.269 22.4938C547.283 22.8027 547.297 23.1397 547.311 23.5047H543.984C544.012 23.0414 544.033 22.5921 544.047 22.1569C544.061 21.7076 544.075 21.2443 544.089 20.767H537.434V20.2826C537.799 19.9316 538.129 19.5666 538.424 19.1875L545.31 10.5742C545.465 10.3776 545.605 10.1881 545.732 10.0056C545.872 9.80904 545.984 9.64056 546.069 9.50017H547.29L547.269 18.1345ZM544.047 13.7331L540.53 18.1345H544.11V13.7331H544.047ZM566.021 9.50017V13.3962H565.536C565.466 12.7784 565.34 12.2519 565.157 11.8167C564.989 11.3674 564.722 11.0235 564.357 10.7848C564.006 10.5321 563.515 10.4057 562.883 10.4057H561.893C561.598 10.4057 561.367 10.4829 561.198 10.6374C561.044 10.7918 560.966 11.1147 560.966 11.6061V21.3988C560.966 22.0867 561.072 22.5219 561.282 22.7044C561.493 22.887 561.879 22.9923 562.441 23.0203V23.5047H556.439V23.0203C556.846 22.9923 557.141 22.887 557.323 22.7044C557.506 22.5219 557.597 22.0867 557.597 21.3988V11.6061C557.597 10.9182 557.492 10.4829 557.281 10.3004C557.085 10.1039 556.698 9.99857 556.123 9.98453V9.50017H566.021ZM574.458 9.18427C575.454 9.18427 576.381 9.35275 577.238 9.6897C578.094 10.0267 578.852 10.518 579.512 11.1639C580.172 11.7956 580.684 12.5608 581.049 13.4593C581.414 14.3579 581.597 15.3617 581.597 16.4708C581.597 17.58 581.414 18.5838 581.049 19.4823C580.684 20.3809 580.172 21.1531 579.512 21.7989C578.866 22.4447 578.108 22.9431 577.238 23.2941C576.367 23.6451 575.433 23.8206 574.437 23.8206C573.454 23.8206 572.527 23.6521 571.657 23.3152C570.8 22.9782 570.042 22.4938 569.382 21.8621C568.722 21.2162 568.21 20.4441 567.845 19.5455C567.48 18.647 567.297 17.6432 567.297 16.534C567.297 15.4249 567.48 14.4211 567.845 13.5225C568.21 12.624 568.715 11.8518 569.361 11.206C570.021 10.5602 570.786 10.0618 571.657 9.71076C572.527 9.35977 573.461 9.18427 574.458 9.18427ZM574.879 22.915C575.609 22.915 576.185 22.6764 576.606 22.199C577.027 21.7076 577.329 21.0337 577.511 20.1773C577.708 19.3209 577.806 18.3241 577.806 17.1869C577.806 14.8984 577.455 13.1435 576.753 11.922C576.065 10.7006 575.153 10.0898 574.015 10.0898C573.299 10.0898 572.724 10.3285 572.289 10.8059C571.867 11.2832 571.558 11.9571 571.362 12.8276C571.179 13.684 571.088 14.6808 571.088 15.818C571.088 18.1065 571.432 19.8614 572.12 21.0829C572.822 22.3043 573.742 22.915 574.879 22.915ZM590.729 11.1639L594.225 21.3988C594.351 21.7638 594.534 22.1007 594.773 22.4096C595.025 22.7044 595.411 22.908 595.931 23.0203L594.962 27.8219H594.478C594.45 26.9514 594.323 26.1933 594.099 25.5475C593.874 24.9016 593.593 24.3962 593.256 24.0312C592.919 23.6802 592.554 23.5047 592.161 23.5047H586.517C585.998 23.5047 585.485 23.6802 584.98 24.0312C584.489 24.3962 584.067 24.9016 583.716 25.5475C583.379 26.1933 583.162 26.9514 583.064 27.8219H582.579V23.0203C582.832 22.908 583.078 22.7185 583.316 22.4517C583.555 22.1709 583.773 21.855 583.969 21.5041C584.18 21.1531 584.341 20.8231 584.454 20.5143L588.034 11.1639C588.174 10.7988 588.307 10.4408 588.434 10.0898C588.56 9.73884 588.672 9.38083 588.771 9.0158H589.992C590.09 9.38083 590.203 9.73884 590.329 10.0898C590.469 10.4408 590.603 10.7988 590.729 11.1639ZM589.845 22.5991C590.406 22.5991 590.715 22.5079 590.771 22.3254C590.828 22.1429 590.778 21.834 590.624 21.3988L588.16 13.8174H588.118L584.833 22.5991H589.845ZM608.819 21.3988C609.015 21.8761 609.177 22.2271 609.303 22.4517C609.443 22.6764 609.591 22.8238 609.745 22.894C609.9 22.9501 610.089 22.9923 610.314 23.0203V23.5047H604.438V23.0203C605 22.9923 605.309 22.8238 605.365 22.5149C605.435 22.206 605.386 21.834 605.217 21.3988L604.165 18.661C604.08 18.7312 603.968 18.7804 603.828 18.8084C603.701 18.8225 603.561 18.8295 603.406 18.8295H601.027C600.732 18.8295 600.507 18.8646 600.353 18.9348C600.198 19.005 600.065 19.1805 599.953 19.4613L599.194 21.3988C599.012 21.8621 599.026 22.2411 599.237 22.536C599.447 22.8308 599.861 22.9923 600.479 23.0203V23.5047H596.646V23.0203C596.955 22.9923 597.215 22.8378 597.425 22.557C597.65 22.2622 597.854 21.8761 598.036 21.3988L602.08 11.1639C602.234 10.7988 602.367 10.4408 602.48 10.0898C602.606 9.73884 602.718 9.38083 602.817 9.0158H604.038C604.136 9.38083 604.249 9.73884 604.375 10.0898C604.501 10.4408 604.635 10.7988 604.775 11.1639L608.819 21.3988ZM603.301 17.9239C603.498 17.9239 603.624 17.8959 603.68 17.8397C603.75 17.7695 603.743 17.6291 603.659 17.4185L602.206 13.8174H602.164L600.521 18.0082C600.591 17.9661 600.676 17.945 600.774 17.945C600.872 17.931 600.985 17.9239 601.111 17.9239H603.301Z" fill="white"/>
<path d="M631.708 14.6038C629.609 13.7655 627.145 14.2126 625.466 15.8892C623.199 18.1526 623.199 21.8132 625.466 24.0766C627.145 25.7532 629.609 26.2003 631.708 25.362V22.6795C631.288 22.8751 630.84 22.9868 630.364 22.9868C628.685 22.9868 627.341 21.6455 627.341 19.9689C627.341 18.2923 628.685 16.951 630.364 16.951C630.84 16.951 631.316 17.0628 631.708 17.2584V14.6038Z" fill="white"/>
<path d="M630.768 11.9155C631.595 11.0866 631.595 9.71453 630.768 8.857C629.941 8.02805 628.572 8.02805 627.717 8.857C626.861 9.68595 626.89 11.058 627.717 11.9155C628.572 12.7445 629.941 12.7445 630.768 11.9155Z" fill="white"/>
<path d="M654.791 19.6087H655.276L655.065 23.5047H644.914V23.0203C645.027 22.9642 645.195 22.8659 645.42 22.7255C645.658 22.5851 645.904 22.4237 646.157 22.2411C646.859 21.7357 647.519 21.1601 648.136 20.5143C648.754 19.8684 649.295 19.1805 649.758 18.4504C650.221 17.7204 650.586 16.9903 650.853 16.2603C651.12 15.5302 651.253 14.8352 651.253 14.1754C651.253 13.5436 651.099 13.0101 650.79 12.5748C650.495 12.1396 649.955 11.922 649.168 11.922C648.509 11.922 647.898 12.1045 647.336 12.4695C646.775 12.8346 646.22 13.4032 645.673 14.1754L645.272 13.8384C645.848 12.3783 646.571 11.2902 647.442 10.5742C648.312 9.85818 649.4 9.50017 650.706 9.50017C651.464 9.50017 652.145 9.62652 652.749 9.87924C653.352 10.1179 653.83 10.497 654.181 11.0164C654.546 11.5219 654.728 12.1817 654.728 12.996C654.728 14.4421 654.265 15.7969 653.338 17.0605C652.426 18.3241 651.148 19.5104 649.505 20.6196V20.6617H652.58C653.38 20.6617 653.935 20.5634 654.244 20.3668C654.553 20.1703 654.735 19.9176 654.791 19.6087ZM663.755 9.50017C664.485 9.50017 665.201 9.64056 665.903 9.92135C666.605 10.2021 667.236 10.6374 667.798 11.227C668.36 11.8167 668.802 12.5608 669.125 13.4593C669.462 14.3438 669.63 15.3968 669.63 16.6183C669.63 17.8257 669.469 18.8786 669.146 19.7772C668.823 20.6757 668.381 21.4268 667.819 22.0305C667.257 22.6342 666.626 23.0835 665.924 23.3783C665.222 23.6732 664.492 23.8206 663.733 23.8206C663.003 23.8206 662.287 23.6802 661.585 23.3994C660.883 23.1186 660.252 22.6834 659.69 22.0937C659.128 21.5041 658.679 20.767 658.342 19.8825C658.019 18.9839 657.858 17.9239 657.858 16.7025C657.858 15.4951 658.019 14.4421 658.342 13.5436C658.665 12.645 659.107 11.8939 659.669 11.2902C660.231 10.6865 660.862 10.2372 661.564 9.94241C662.266 9.64758 662.996 9.50017 663.755 9.50017ZM663.818 22.915C664.225 22.915 664.597 22.7325 664.934 22.3675C665.271 22.0025 665.538 21.3847 665.734 20.5143C665.945 19.6438 666.05 18.4504 666.05 16.9342C666.05 15.6144 665.959 14.4702 665.776 13.5015C665.608 12.5187 665.348 11.7605 664.997 11.227C664.646 10.6795 664.204 10.4057 663.67 10.4057C663.277 10.4057 662.905 10.5882 662.554 10.9533C662.217 11.3183 661.943 11.936 661.733 12.8065C661.536 13.677 661.438 14.8703 661.438 16.3866C661.438 17.7063 661.522 18.8576 661.691 19.8404C661.873 20.8091 662.14 21.5672 662.491 22.1148C662.842 22.6483 663.284 22.915 663.818 22.915ZM683.924 17.1447L677.396 17.7134L677.248 16.0075L683.777 15.4389L683.924 17.1447ZM700.221 19.6087H700.706L700.495 23.5047H690.344V23.0203C690.457 22.9642 690.625 22.8659 690.85 22.7255C691.089 22.5851 691.334 22.4237 691.587 22.2411C692.289 21.7357 692.949 21.1601 693.567 20.5143C694.184 19.8684 694.725 19.1805 695.188 18.4504C695.651 17.7204 696.016 16.9903 696.283 16.2603C696.55 15.5302 696.683 14.8352 696.683 14.1754C696.683 13.5436 696.529 13.0101 696.22 12.5748C695.925 12.1396 695.385 11.922 694.598 11.922C693.939 11.922 693.328 12.1045 692.766 12.4695C692.205 12.8346 691.65 13.4032 691.103 14.1754L690.702 13.8384C691.278 12.3783 692.001 11.2902 692.872 10.5742C693.742 9.85818 694.83 9.50017 696.136 9.50017C696.894 9.50017 697.575 9.62652 698.179 9.87924C698.782 10.1179 699.26 10.497 699.611 11.0164C699.976 11.5219 700.158 12.1817 700.158 12.996C700.158 14.4421 699.695 15.7969 698.768 17.0605C697.856 18.3241 696.578 19.5104 694.935 20.6196V20.6617H698.01C698.81 20.6617 699.365 20.5634 699.674 20.3668C699.983 20.1703 700.165 19.9176 700.221 19.6087ZM708.827 21.1882C708.827 21.7076 708.869 22.1007 708.953 22.3675C709.051 22.6202 709.248 22.7887 709.543 22.8729C709.851 22.9572 710.315 23.0063 710.932 23.0203V23.5047H703.14V23.0203C703.772 23.0063 704.236 22.9572 704.53 22.8729C704.839 22.7887 705.036 22.6202 705.12 22.3675C705.204 22.1007 705.246 21.7076 705.246 21.1882V12.0273L703.309 13.2277L702.867 12.5538L707.753 9.50017H708.974C708.918 9.76692 708.876 10.0337 708.848 10.3004C708.834 10.5672 708.827 10.8339 708.827 11.1007V21.1882ZM718.46 23.5047V23.0203C718.867 22.9923 719.162 22.887 719.344 22.7044C719.527 22.5219 719.618 22.0867 719.618 21.3988V11.6061C719.618 10.9182 719.513 10.4829 719.302 10.3004C719.105 10.1039 718.719 9.99857 718.144 9.98453V9.50017H724.146V9.98453C723.739 9.99857 723.444 10.1039 723.261 10.3004C723.079 10.4829 722.987 10.9182 722.987 11.6061V15.3336C723.1 15.2494 723.233 15.1932 723.388 15.1652C723.556 15.1371 723.753 15.123 723.977 15.123H727.957C728.336 15.123 728.603 15.0599 728.758 14.9335C728.912 14.8071 728.989 14.5544 728.989 14.1754V11.6061C728.989 10.9182 728.884 10.4829 728.673 10.3004C728.477 10.1039 728.091 9.99857 727.515 9.98453V9.50017H733.517V9.98453C733.11 9.99857 732.815 10.1039 732.633 10.3004C732.45 10.4829 732.359 10.9182 732.359 11.6061V21.3988C732.359 22.0867 732.464 22.5219 732.675 22.7044C732.885 22.887 733.271 22.9923 733.833 23.0203V23.5047H727.831V23.0203C728.238 22.9923 728.533 22.887 728.716 22.7044C728.898 22.5219 728.989 22.0867 728.989 21.3988V15.7969C728.877 15.8952 728.737 15.9584 728.568 15.9865C728.4 16.0146 728.21 16.0286 728 16.0286H724.019C723.64 16.0286 723.373 16.0918 723.219 16.2181C723.065 16.3445 722.987 16.5902 722.987 16.9552V21.3988C722.987 22.0867 723.093 22.5219 723.303 22.7044C723.514 22.887 723.9 22.9923 724.462 23.0203V23.5047H718.46ZM743.121 9.18427C744.118 9.18427 745.045 9.35275 745.901 9.6897C746.758 10.0267 747.516 10.518 748.176 11.1639C748.836 11.7956 749.348 12.5608 749.713 13.4593C750.078 14.3579 750.261 15.3617 750.261 16.4708C750.261 17.58 750.078 18.5838 749.713 19.4823C749.348 20.3809 748.836 21.1531 748.176 21.7989C747.53 22.4447 746.772 22.9431 745.901 23.2941C745.031 23.6451 744.097 23.8206 743.1 23.8206C742.118 23.8206 741.191 23.6521 740.32 23.3152C739.464 22.9782 738.706 22.4938 738.046 21.8621C737.386 21.2162 736.874 20.4441 736.509 19.5455C736.144 18.647 735.961 17.6432 735.961 16.534C735.961 15.4249 736.144 14.4211 736.509 13.5225C736.874 12.624 737.379 11.8518 738.025 11.206C738.685 10.5602 739.45 10.0618 740.32 9.71076C741.191 9.35977 742.125 9.18427 743.121 9.18427ZM743.543 22.915C744.273 22.915 744.848 22.6764 745.269 22.199C745.691 21.7076 745.992 21.0337 746.175 20.1773C746.372 19.3209 746.47 18.3241 746.47 17.1869C746.47 14.8984 746.119 13.1435 745.417 11.922C744.729 10.7006 743.816 10.0898 742.679 10.0898C741.963 10.0898 741.387 10.3285 740.952 10.8059C740.531 11.2832 740.222 11.9571 740.026 12.8276C739.843 13.684 739.752 14.6808 739.752 15.818C739.752 18.1065 740.096 19.8614 740.784 21.0829C741.486 22.3043 742.405 22.915 743.543 22.915ZM752.654 23.8206C752.303 23.8206 751.931 23.7925 751.538 23.7364C751.145 23.6802 750.808 23.603 750.527 23.5047V23.0203C750.808 23.0203 751.124 22.908 751.475 22.6834C751.826 22.4587 752.184 22.0095 752.549 21.3356L755.56 15.8812C754.619 15.6425 753.903 15.2564 753.412 14.7229C752.935 14.1894 752.696 13.5436 752.696 12.7854C752.696 12.1958 752.872 11.6412 753.223 11.1217C753.588 10.6023 754.177 10.1881 754.991 9.87924C755.82 9.55632 756.929 9.39487 758.319 9.39487C758.768 9.39487 759.288 9.41593 759.877 9.45805C760.467 9.48613 761.12 9.50017 761.836 9.50017H764.531V9.98453C764.124 9.99857 763.829 10.1039 763.647 10.3004C763.464 10.4829 763.373 10.9182 763.373 11.6061V21.3988C763.373 22.0867 763.478 22.5219 763.689 22.7044C763.9 22.887 764.286 22.9923 764.847 23.0203V23.5047H758.845V23.0203C759.253 22.9923 759.547 22.887 759.73 22.7044C759.912 22.5219 760.004 22.0867 760.004 21.3988V11.6061C760.004 11.0586 759.905 10.7076 759.709 10.5531C759.526 10.3847 759.203 10.3004 758.74 10.3004C758.136 10.3004 757.589 10.518 757.097 10.9533C756.62 11.3745 756.381 12.0133 756.381 12.8697C756.381 13.3189 756.473 13.7542 756.655 14.1754C756.838 14.5825 757.161 14.9265 757.624 15.2073C758.101 15.4881 758.754 15.6565 759.582 15.7127V16.4498C759.414 16.4498 759.267 16.4849 759.14 16.5551C759.014 16.6112 758.887 16.7587 758.761 16.9973L756.381 21.5883C756.059 22.206 755.609 22.7325 755.034 23.1678C754.458 23.603 753.665 23.8206 752.654 23.8206ZM771.502 15.0809H773.545C775.075 15.0809 776.283 15.2494 777.167 15.5863C778.052 15.9233 778.677 16.3866 779.042 16.9763C779.421 17.5659 779.61 18.2469 779.61 19.019C779.61 19.7912 779.4 20.5213 778.978 21.2092C778.571 21.8831 777.932 22.4377 777.062 22.8729C776.206 23.2941 775.11 23.5047 773.777 23.5047L766.974 23.5047V23.0203C767.382 22.9923 767.676 22.887 767.859 22.7044C768.042 22.5219 768.133 22.0867 768.133 21.3988V11.6061C768.133 10.9182 768.027 10.4829 767.817 10.3004C767.62 10.1039 767.234 9.99857 766.659 9.98453V9.50017H778.241V12.975H777.757C777.715 12.4976 777.624 12.0694 777.483 11.6903C777.343 11.2972 777.104 10.9884 776.767 10.7637C776.43 10.5251 775.946 10.4057 775.314 10.4057H772.429C772.134 10.4057 771.902 10.4829 771.734 10.6374C771.579 10.7918 771.502 11.1147 771.502 11.6061V15.0809ZM772.745 22.5991C773.489 22.5991 774.1 22.4237 774.577 22.0727C775.068 21.7076 775.433 21.2584 775.672 20.7249C775.911 20.1913 776.03 19.6649 776.03 19.1454C776.03 18.3732 775.883 17.7555 775.588 17.2922C775.307 16.8289 774.921 16.4989 774.43 16.3024C773.952 16.0918 773.412 15.9865 772.808 15.9865H771.502V21.3988C771.502 21.8901 771.579 22.2131 771.734 22.3675C771.888 22.5219 772.225 22.5991 772.745 22.5991ZM781.844 23.5047V23.0203C782.251 22.9923 782.546 22.887 782.728 22.7044C782.911 22.5219 783.002 22.0867 783.002 21.3988V11.6061C783.002 10.9182 782.897 10.4829 782.686 10.3004C782.489 10.1039 782.103 9.99857 781.528 9.98453V9.50017H783.002C784.027 9.50017 784.988 9.48613 785.887 9.45805C786.786 9.41593 787.459 9.39487 787.909 9.39487C789.369 9.39487 790.52 9.55632 791.362 9.87924C792.219 10.2021 792.83 10.6304 793.195 11.1639C793.574 11.6833 793.763 12.259 793.763 12.8907C793.763 13.6208 793.525 14.3158 793.047 14.9756C792.584 15.6355 791.84 16.1479 790.815 16.513C789.804 16.864 788.463 16.9763 786.793 16.8499V16.1128C787.551 16.1409 788.175 16.0075 788.667 15.7127C789.158 15.4038 789.516 14.9967 789.741 14.4913C789.98 13.9858 790.099 13.4453 790.099 12.8697C790.099 12.0975 789.881 11.4798 789.446 11.0164C789.011 10.5391 788.407 10.3004 787.635 10.3004C787.172 10.3004 786.842 10.3847 786.645 10.5531C786.463 10.7076 786.371 11.0586 786.371 11.6061V21.3988C786.371 21.848 786.414 22.192 786.498 22.4307C786.596 22.6553 786.765 22.8097 787.003 22.894C787.256 22.9642 787.607 23.0063 788.056 23.0203V23.5047H781.844ZM795.986 23.8206C795.635 23.8206 795.263 23.7925 794.87 23.7364C794.477 23.6802 794.14 23.603 793.859 23.5047V23.0203C794.14 23.0203 794.456 22.908 794.807 22.6834C795.158 22.4587 795.516 22.0095 795.881 21.3356L798.892 15.8812C797.952 15.6425 797.236 15.2564 796.744 14.7229C796.267 14.1894 796.028 13.5436 796.028 12.7854C796.028 12.1958 796.204 11.6412 796.555 11.1217C796.92 10.6023 797.509 10.1881 798.324 9.87924C799.152 9.55632 800.261 9.39487 801.651 9.39487C802.1 9.39487 802.62 9.41593 803.21 9.45805C803.799 9.48613 804.452 9.50017 805.168 9.50017H807.864V9.98453C807.457 9.99857 807.162 10.1039 806.979 10.3004C806.797 10.4829 806.705 10.9182 806.705 11.6061V21.3988C806.705 22.0867 806.811 22.5219 807.021 22.7044C807.232 22.887 807.618 22.9923 808.18 23.0203V23.5047H802.178V23.0203C802.585 22.9923 802.88 22.887 803.062 22.7044C803.245 22.5219 803.336 22.0867 803.336 21.3988V11.6061C803.336 11.0586 803.238 10.7076 803.041 10.5531C802.859 10.3847 802.536 10.3004 802.072 10.3004C801.469 10.3004 800.921 10.518 800.43 10.9533C799.952 11.3745 799.714 12.0133 799.714 12.8697C799.714 13.3189 799.805 13.7542 799.987 14.1754C800.17 14.5825 800.493 14.9265 800.956 15.2073C801.434 15.4881 802.086 15.6565 802.915 15.7127V16.4498C802.746 16.4498 802.599 16.4849 802.473 16.5551C802.346 16.6112 802.22 16.7587 802.093 16.9973L799.714 21.5883C799.391 22.206 798.942 22.7325 798.366 23.1678C797.79 23.603 796.997 23.8206 795.986 23.8206ZM824.912 19.6087H825.397L825.186 23.5047H815.035V23.0203C815.148 22.9642 815.316 22.8659 815.541 22.7255C815.779 22.5851 816.025 22.4237 816.278 22.2411C816.98 21.7357 817.64 21.1601 818.257 20.5143C818.875 19.8684 819.416 19.1805 819.879 18.4504C820.342 17.7204 820.707 16.9903 820.974 16.2603C821.241 15.5302 821.374 14.8352 821.374 14.1754C821.374 13.5436 821.22 13.0101 820.911 12.5748C820.616 12.1396 820.076 11.922 819.289 11.922C818.629 11.922 818.019 12.1045 817.457 12.4695C816.896 12.8346 816.341 13.4032 815.793 14.1754L815.393 13.8384C815.969 12.3783 816.692 11.2902 817.562 10.5742C818.433 9.85818 819.521 9.50017 820.827 9.50017C821.585 9.50017 822.266 9.62652 822.869 9.87924C823.473 10.1179 823.95 10.497 824.301 11.0164C824.666 11.5219 824.849 12.1817 824.849 12.996C824.849 14.4421 824.386 15.7969 823.459 17.0605C822.546 18.3241 821.269 19.5104 819.626 20.6196V20.6617H822.701C823.501 20.6617 824.056 20.5634 824.365 20.3668C824.673 20.1703 824.856 19.9176 824.912 19.6087ZM833.875 9.50017C834.605 9.50017 835.322 9.64056 836.024 9.92135C836.725 10.2021 837.357 10.6374 837.919 11.227C838.48 11.8167 838.923 12.5608 839.246 13.4593C839.583 14.3438 839.751 15.3968 839.751 16.6183C839.751 17.8257 839.59 18.8786 839.267 19.7772C838.944 20.6757 838.501 21.4268 837.94 22.0305C837.378 22.6342 836.747 23.0835 836.045 23.3783C835.343 23.6732 834.613 23.8206 833.854 23.8206C833.124 23.8206 832.408 23.6802 831.706 23.3994C831.004 23.1186 830.373 22.6834 829.811 22.0937C829.249 21.5041 828.8 20.767 828.463 19.8825C828.14 18.9839 827.979 17.9239 827.979 16.7025C827.979 15.4951 828.14 14.4421 828.463 13.5436C828.786 12.645 829.228 11.8939 829.79 11.2902C830.351 10.6865 830.983 10.2372 831.685 9.94241C832.387 9.64758 833.117 9.50017 833.875 9.50017ZM833.939 22.915C834.346 22.915 834.718 22.7325 835.055 22.3675C835.392 22.0025 835.658 21.3847 835.855 20.5143C836.066 19.6438 836.171 18.4504 836.171 16.9342C836.171 15.6144 836.08 14.4702 835.897 13.5015C835.729 12.5187 835.469 11.7605 835.118 11.227C834.767 10.6795 834.325 10.4057 833.791 10.4057C833.398 10.4057 833.026 10.5882 832.675 10.9533C832.338 11.3183 832.064 11.936 831.854 12.8065C831.657 13.677 831.559 14.8703 831.559 16.3866C831.559 17.7063 831.643 18.8576 831.812 19.8404C831.994 20.8091 832.261 21.5672 832.612 22.1148C832.963 22.6483 833.405 22.915 833.939 22.915ZM851.38 19.6087H851.865L851.654 23.5047H841.504V23.0203C841.616 22.9642 841.784 22.8659 842.009 22.7255C842.248 22.5851 842.493 22.4237 842.746 22.2411C843.448 21.7357 844.108 21.1601 844.726 20.5143C845.343 19.8684 845.884 19.1805 846.347 18.4504C846.811 17.7204 847.176 16.9903 847.442 16.2603C847.709 15.5302 847.842 14.8352 847.842 14.1754C847.842 13.5436 847.688 13.0101 847.379 12.5748C847.084 12.1396 846.544 11.922 845.758 11.922C845.098 11.922 844.487 12.1045 843.925 12.4695C843.364 12.8346 842.809 13.4032 842.262 14.1754L841.862 13.8384C842.437 12.3783 843.16 11.2902 844.031 10.5742C844.901 9.85818 845.989 9.50017 847.295 9.50017C848.053 9.50017 848.734 9.62652 849.338 9.87924C849.941 10.1179 850.419 10.497 850.77 11.0164C851.135 11.5219 851.317 12.1817 851.317 12.996C851.317 14.4421 850.854 15.7969 849.927 17.0605C849.015 18.3241 847.737 19.5104 846.095 20.6196V20.6617H849.169C849.969 20.6617 850.524 20.5634 850.833 20.3668C851.142 20.1703 851.324 19.9176 851.38 19.6087ZM863.081 18.1345H864.556V20.767H863.671C863.278 20.767 863.081 21.0127 863.081 21.5041C863.081 21.841 863.081 22.1709 863.081 22.4938C863.095 22.8027 863.11 23.1397 863.124 23.5047H859.796C859.824 23.0414 859.845 22.5921 859.859 22.1569C859.873 21.7076 859.887 21.2443 859.901 20.767H853.247V20.2826C853.612 19.9316 853.942 19.5666 854.236 19.1875L861.123 10.5742C861.277 10.3776 861.418 10.1881 861.544 10.0056C861.685 9.80904 861.797 9.64056 861.881 9.50017H863.103L863.081 18.1345ZM859.859 13.7331L856.342 18.1345H859.923V13.7331H859.859ZM881.833 9.50017V13.3962H881.349C881.279 12.7784 881.152 12.2519 880.97 11.8167C880.801 11.3674 880.535 11.0235 880.17 10.7848C879.819 10.5321 879.327 10.4057 878.695 10.4057H877.706C877.411 10.4057 877.179 10.4829 877.011 10.6374C876.856 10.7918 876.779 11.1147 876.779 11.6061V21.3988C876.779 22.0867 876.884 22.5219 877.095 22.7044C877.305 22.887 877.692 22.9923 878.253 23.0203V23.5047H872.251V23.0203C872.658 22.9923 872.953 22.887 873.136 22.7044C873.318 22.5219 873.409 22.0867 873.409 21.3988V11.6061C873.409 10.9182 873.304 10.4829 873.094 10.3004C872.897 10.1039 872.511 9.99857 871.935 9.98453V9.50017H881.833ZM890.27 9.18427C891.267 9.18427 892.194 9.35275 893.05 9.6897C893.906 10.0267 894.665 10.518 895.324 11.1639C895.984 11.7956 896.497 12.5608 896.862 13.4593C897.227 14.3579 897.409 15.3617 897.409 16.4708C897.409 17.58 897.227 18.5838 896.862 19.4823C896.497 20.3809 895.984 21.1531 895.324 21.7989C894.679 22.4447 893.92 22.9431 893.05 23.2941C892.18 23.6451 891.246 23.8206 890.249 23.8206C889.266 23.8206 888.34 23.6521 887.469 23.3152C886.613 22.9782 885.855 22.4938 885.195 21.8621C884.535 21.2162 884.023 20.4441 883.658 19.5455C883.292 18.647 883.11 17.6432 883.11 16.534C883.11 15.4249 883.292 14.4211 883.658 13.5225C884.023 12.624 884.528 11.8518 885.174 11.206C885.834 10.5602 886.599 10.0618 887.469 9.71076C888.34 9.35977 889.273 9.18427 890.27 9.18427ZM890.691 22.915C891.421 22.915 891.997 22.6764 892.418 22.199C892.839 21.7076 893.141 21.0337 893.324 20.1773C893.52 19.3209 893.619 18.3241 893.619 17.1869C893.619 14.8984 893.268 13.1435 892.566 11.922C891.878 10.7006 890.965 10.0898 889.828 10.0898C889.112 10.0898 888.536 10.3285 888.101 10.8059C887.68 11.2832 887.371 11.9571 887.174 12.8276C886.992 13.684 886.901 14.6808 886.901 15.818C886.901 18.1065 887.245 19.8614 887.933 21.0829C888.635 22.3043 889.554 22.915 890.691 22.915ZM906.542 11.1639L910.038 21.3988C910.164 21.7638 910.346 22.1007 910.585 22.4096C910.838 22.7044 911.224 22.908 911.743 23.0203L910.775 27.8219H910.29C910.262 26.9514 910.136 26.1933 909.911 25.5475C909.687 24.9016 909.406 24.3962 909.069 24.0312C908.732 23.6802 908.367 23.5047 907.974 23.5047H902.33C901.81 23.5047 901.298 23.6802 900.792 24.0312C900.301 24.3962 899.88 24.9016 899.529 25.5475C899.192 26.1933 898.974 26.9514 898.876 27.8219H898.392V23.0203C898.644 22.908 898.89 22.7185 899.129 22.4517C899.367 22.1709 899.585 21.855 899.782 21.5041C899.992 21.1531 900.154 20.8231 900.266 20.5143L903.846 11.1639C903.987 10.7988 904.12 10.4408 904.246 10.0898C904.373 9.73884 904.485 9.38083 904.583 9.0158H905.805C905.903 9.38083 906.015 9.73884 906.142 10.0898C906.282 10.4408 906.415 10.7988 906.542 11.1639ZM905.657 22.5991C906.219 22.5991 906.528 22.5079 906.584 22.3254C906.64 22.1429 906.591 21.834 906.436 21.3988L903.972 13.8174H903.93L900.645 22.5991H905.657ZM924.631 21.3988C924.828 21.8761 924.989 22.2271 925.116 22.4517C925.256 22.6764 925.403 22.8238 925.558 22.894C925.712 22.9501 925.902 22.9923 926.126 23.0203V23.5047H920.251V23.0203C920.812 22.9923 921.121 22.8238 921.177 22.5149C921.248 22.206 921.198 21.834 921.03 21.3988L919.977 18.661C919.893 18.7312 919.78 18.7804 919.64 18.8084C919.514 18.8225 919.373 18.8295 919.219 18.8295H916.839C916.544 18.8295 916.32 18.8646 916.165 18.9348C916.011 19.005 915.877 19.1805 915.765 19.4613L915.007 21.3988C914.824 21.8621 914.839 22.2411 915.049 22.536C915.26 22.8308 915.674 22.9923 916.292 23.0203V23.5047H912.459V23.0203C912.768 22.9923 913.027 22.8378 913.238 22.557C913.463 22.2622 913.666 21.8761 913.849 21.3988L917.892 11.1639C918.047 10.7988 918.18 10.4408 918.292 10.0898C918.419 9.73884 918.531 9.38083 918.629 9.0158H919.851C919.949 9.38083 920.061 9.73884 920.188 10.0898C920.314 10.4408 920.447 10.7988 920.588 11.1639L924.631 21.3988ZM919.114 17.9239C919.31 17.9239 919.436 17.8959 919.493 17.8397C919.563 17.7695 919.556 17.6291 919.472 17.4185L918.018 13.8174H917.976L916.334 18.0082C916.404 17.9661 916.488 17.945 916.586 17.945C916.685 17.931 916.797 17.9239 916.923 17.9239H919.114Z" fill="white"/>
</svg>
