<svg width="937" height="34" viewBox="0 0 937 34" fill="none" xmlns="http://www.w3.org/2000/svg">
<rect width="937" height="34" fill="#272729"/>
<path d="M21.8354 19.604H22.3198L22.1092 23.5H11.9585V23.0156C12.0709 22.9595 12.2393 22.8612 12.464 22.7208C12.7026 22.5804 12.9483 22.419 13.2011 22.2364C13.903 21.731 14.5629 21.1554 15.1806 20.5096C15.7984 19.8637 16.3389 19.1758 16.8022 18.4457C17.2655 17.7157 17.6306 16.9856 17.8973 16.2556C18.1641 15.5255 18.2974 14.8305 18.2974 14.1707C18.2974 13.5389 18.143 13.0054 17.8341 12.5701C17.5393 12.1349 16.9988 11.9173 16.2126 11.9173C15.5527 11.9173 14.942 12.0998 14.3804 12.4648C13.8188 12.8299 13.2642 13.3985 12.7167 14.1707L12.3166 13.8337C12.8922 12.3736 13.6152 11.2855 14.4857 10.5695C15.3561 9.85348 16.4442 9.49547 17.7499 9.49547C18.508 9.49547 19.189 9.62182 19.7927 9.87454C20.3964 10.1132 20.8737 10.4923 21.2247 11.0117C21.5897 11.5172 21.7723 12.177 21.7723 12.9913C21.7723 14.4374 21.3089 15.7922 20.3823 17.0558C19.4698 18.3194 18.1921 19.5057 16.5495 20.6149V20.657H19.6242C20.4244 20.657 20.979 20.5587 21.2879 20.3621C21.5968 20.1656 21.7793 19.9129 21.8354 19.604ZM30.7987 9.49547C31.5288 9.49547 32.2448 9.63586 32.9468 9.91665C33.6487 10.1974 34.2805 10.6327 34.8421 11.2223C35.4037 11.812 35.8459 12.5561 36.1689 13.4546C36.5058 14.3391 36.6743 15.3921 36.6743 16.6136C36.6743 17.821 36.5128 18.8739 36.1899 19.7725C35.867 20.671 35.4248 21.4221 34.8632 22.0258C34.3016 22.6295 33.6698 23.0788 32.9678 23.3736C32.2658 23.6685 31.5358 23.8159 30.7776 23.8159C30.0476 23.8159 29.3316 23.6755 28.6296 23.3947C27.9276 23.1139 27.2958 22.6787 26.7342 22.089C26.1726 21.4994 25.7234 20.7623 25.3864 19.8778C25.0635 18.9792 24.9021 17.9192 24.9021 16.6978C24.9021 15.4904 25.0635 14.4374 25.3864 13.5389C25.7093 12.6403 26.1516 11.8892 26.7132 11.2855C27.2747 10.6818 27.9065 10.2325 28.6085 9.93771C29.3105 9.64288 30.0406 9.49547 30.7987 9.49547ZM30.8619 22.9103C31.269 22.9103 31.6411 22.7278 31.978 22.3628C32.315 21.9978 32.5817 21.38 32.7783 20.5096C32.9889 19.6391 33.0942 18.4457 33.0942 16.9295C33.0942 15.6097 33.0029 14.4655 32.8204 13.4968C32.6519 12.514 32.3922 11.7558 32.0412 11.2223C31.6902 10.6748 31.248 10.401 30.7145 10.401C30.3213 10.401 29.9493 10.5835 29.5983 10.9486C29.2614 11.3136 28.9876 11.9313 28.777 12.8018C28.5804 13.6723 28.4822 14.8656 28.4822 16.3819C28.4822 17.7016 28.5664 18.8529 28.7349 19.8357C28.9174 20.8044 29.1841 21.5625 29.5351 22.1101C29.8861 22.6436 30.3284 22.9103 30.8619 22.9103ZM50.9684 17.14L44.44 17.7087L44.2925 16.0028L50.821 15.4342L50.9684 17.14ZM67.2654 19.604H67.7498L67.5392 23.5H57.3886V23.0156C57.5009 22.9595 57.6694 22.8612 57.894 22.7208C58.1327 22.5804 58.3784 22.419 58.6311 22.2364C59.333 21.731 59.9929 21.1554 60.6107 20.5096C61.2284 19.8637 61.7689 19.1758 62.2322 18.4457C62.6955 17.7157 63.0606 16.9856 63.3273 16.2556C63.5941 15.5255 63.7275 14.8305 63.7275 14.1707C63.7275 13.5389 63.573 13.0054 63.2641 12.5701C62.9693 12.1349 62.4288 11.9173 61.6426 11.9173C60.9827 11.9173 60.372 12.0998 59.8104 12.4648C59.2488 12.8299 58.6942 13.3985 58.1467 14.1707L57.7466 13.8337C58.3222 12.3736 59.0452 11.2855 59.9157 10.5695C60.7861 9.85348 61.8742 9.49547 63.1799 9.49547C63.938 9.49547 64.619 9.62182 65.2227 9.87454C65.8264 10.1132 66.3037 10.4923 66.6547 11.0117C67.0197 11.5172 67.2023 12.177 67.2023 12.9913C67.2023 14.4374 66.739 15.7922 65.8123 17.0558C64.8998 18.3194 63.6222 19.5057 61.9795 20.6149V20.657H65.0542C65.8545 20.657 66.409 20.5587 66.7179 20.3621C67.0268 20.1656 67.2093 19.9129 67.2654 19.604ZM75.8707 21.1835C75.8707 21.7029 75.9128 22.096 75.9971 22.3628C76.0953 22.6155 76.2919 22.784 76.5867 22.8682C76.8956 22.9525 77.3589 23.0016 77.9766 23.0156V23.5H70.1846V23.0156C70.8164 23.0016 71.2797 22.9525 71.5746 22.8682C71.8834 22.784 72.08 22.6155 72.1642 22.3628C72.2485 22.096 72.2906 21.7029 72.2906 21.1835V12.0226L70.3531 13.223L69.9109 12.5491L74.7967 9.49547H76.0181C75.962 9.76222 75.9198 10.029 75.8918 10.2957C75.8777 10.5625 75.8707 10.8292 75.8707 11.096V21.1835ZM85.5038 23.5V23.0156C85.9109 22.9876 86.2057 22.8823 86.3882 22.6997C86.5708 22.5172 86.662 22.082 86.662 21.3941V11.6014C86.662 10.9135 86.5567 10.4782 86.3461 10.2957C86.1496 10.0992 85.7635 9.99387 85.1879 9.97983V9.49547H91.1898V9.97983C90.7827 9.99387 90.4878 10.0992 90.3053 10.2957C90.1228 10.4782 90.0315 10.9135 90.0315 11.6014V15.3289C90.1439 15.2447 90.2772 15.1885 90.4317 15.1605C90.6001 15.1324 90.7967 15.1183 91.0213 15.1183H95.0016C95.3806 15.1183 95.6474 15.0552 95.8018 14.9288C95.9563 14.8024 96.0335 14.5497 96.0335 14.1707V11.6014C96.0335 10.9135 95.9282 10.4782 95.7176 10.2957C95.521 10.0992 95.1349 9.99387 94.5593 9.97983V9.49547H100.561V9.97983C100.154 9.99387 99.8593 10.0992 99.6768 10.2957C99.4942 10.4782 99.403 10.9135 99.403 11.6014V21.3941C99.403 22.082 99.5083 22.5172 99.7189 22.6997C99.9295 22.8823 100.316 22.9876 100.877 23.0156V23.5H94.8752V23.0156C95.2824 22.9876 95.5772 22.8823 95.7597 22.6997C95.9422 22.5172 96.0335 22.082 96.0335 21.3941V15.7922C95.9212 15.8905 95.7808 15.9537 95.6123 15.9818C95.4438 16.0099 95.2543 16.0239 95.0437 16.0239H91.0634C90.6844 16.0239 90.4176 16.0871 90.2632 16.2134C90.1088 16.3398 90.0315 16.5855 90.0315 16.9505V21.3941C90.0315 22.082 90.1368 22.5172 90.3474 22.6997C90.558 22.8823 90.9441 22.9876 91.5057 23.0156V23.5H85.5038ZM110.166 9.17957C111.162 9.17957 112.089 9.34805 112.945 9.685C113.802 10.022 114.56 10.5133 115.22 11.1592C115.88 11.7909 116.392 12.5561 116.757 13.4546C117.122 14.3532 117.305 15.357 117.305 16.4661C117.305 17.5753 117.122 18.5791 116.757 19.4776C116.392 20.3762 115.88 21.1484 115.22 21.7942C114.574 22.44 113.816 22.9384 112.945 23.2894C112.075 23.6404 111.141 23.8159 110.144 23.8159C109.162 23.8159 108.235 23.6474 107.365 23.3105C106.508 22.9735 105.75 22.4891 105.09 21.8574C104.43 21.2115 103.918 20.4394 103.553 19.5408C103.188 18.6423 103.005 17.6385 103.005 16.5293C103.005 15.4202 103.188 14.4164 103.553 13.5178C103.918 12.6193 104.423 11.8471 105.069 11.2013C105.729 10.5555 106.494 10.0571 107.365 9.70606C108.235 9.35507 109.169 9.17957 110.166 9.17957ZM110.587 22.9103C111.317 22.9103 111.892 22.6717 112.314 22.1943C112.735 21.7029 113.037 21.029 113.219 20.1726C113.416 19.3162 113.514 18.3194 113.514 17.1822C113.514 14.8937 113.163 13.1388 112.461 11.9173C111.773 10.6959 110.86 10.0851 109.723 10.0851C109.007 10.0851 108.432 10.3238 107.996 10.8012C107.575 11.2785 107.266 11.9524 107.07 12.8229C106.887 13.6793 106.796 14.6761 106.796 15.8133C106.796 18.1018 107.14 19.8567 107.828 21.0782C108.53 22.2996 109.45 22.9103 110.587 22.9103ZM119.698 23.8159C119.347 23.8159 118.975 23.7878 118.582 23.7317C118.189 23.6755 117.852 23.5983 117.571 23.5V23.0156C117.852 23.0156 118.168 22.9033 118.519 22.6787C118.87 22.454 119.228 22.0048 119.593 21.3309L122.604 15.8765C121.664 15.6378 120.948 15.2517 120.456 14.7182C119.979 14.1847 119.74 13.5389 119.74 12.7807C119.74 12.1911 119.916 11.6365 120.267 11.117C120.632 10.5976 121.221 10.1834 122.036 9.87454C122.864 9.55162 123.973 9.39017 125.363 9.39017C125.812 9.39017 126.332 9.41123 126.921 9.45335C127.511 9.48143 128.164 9.49547 128.88 9.49547H131.576V9.97983C131.168 9.99387 130.874 10.0992 130.691 10.2957C130.509 10.4782 130.417 10.9135 130.417 11.6014V21.3941C130.417 22.082 130.523 22.5172 130.733 22.6997C130.944 22.8823 131.33 22.9876 131.891 23.0156V23.5H125.89V23.0156C126.297 22.9876 126.592 22.8823 126.774 22.6997C126.957 22.5172 127.048 22.082 127.048 21.3941V11.6014C127.048 11.0539 126.95 10.7029 126.753 10.5484C126.57 10.38 126.248 10.2957 125.784 10.2957C125.181 10.2957 124.633 10.5133 124.142 10.9486C123.664 11.3698 123.426 12.0086 123.426 12.865C123.426 13.3142 123.517 13.7495 123.699 14.1707C123.882 14.5778 124.205 14.9218 124.668 15.2026C125.145 15.4834 125.798 15.6518 126.627 15.708V16.4451C126.458 16.4451 126.311 16.4802 126.184 16.5504C126.058 16.6065 125.932 16.754 125.805 16.9926L123.426 21.5836C123.103 22.2013 122.653 22.7278 122.078 23.1631C121.502 23.5983 120.709 23.8159 119.698 23.8159ZM138.546 15.0762H140.589C142.12 15.0762 143.327 15.2447 144.211 15.5816C145.096 15.9186 145.721 16.3819 146.086 16.9716C146.465 17.5612 146.654 18.2422 146.654 19.0143C146.654 19.7865 146.444 20.5166 146.023 21.2045C145.615 21.8784 144.977 22.433 144.106 22.8682C143.25 23.2894 142.155 23.5 140.821 23.5L134.019 23.5V23.0156C134.426 22.9876 134.721 22.8823 134.903 22.6997C135.086 22.5172 135.177 22.082 135.177 21.3941V11.6014C135.177 10.9135 135.072 10.4782 134.861 10.2957C134.664 10.0992 134.278 9.99387 133.703 9.97983V9.49547H145.285V12.9703H144.801C144.759 12.4929 144.668 12.0647 144.527 11.6856C144.387 11.2925 144.148 10.9837 143.811 10.759C143.474 10.5204 142.99 10.401 142.358 10.401H139.473C139.178 10.401 138.947 10.4782 138.778 10.6327C138.624 10.7871 138.546 11.11 138.546 11.6014V15.0762ZM139.789 22.5944C140.533 22.5944 141.144 22.419 141.621 22.068C142.112 21.7029 142.478 21.2537 142.716 20.7202C142.955 20.1866 143.074 19.6602 143.074 19.1407C143.074 18.3685 142.927 17.7508 142.632 17.2875C142.351 16.8242 141.965 16.4942 141.474 16.2977C140.996 16.0871 140.456 15.9818 139.852 15.9818H138.546V21.3941C138.546 21.8854 138.624 22.2084 138.778 22.3628C138.933 22.5172 139.269 22.5944 139.789 22.5944ZM148.888 23.5V23.0156C149.295 22.9876 149.59 22.8823 149.772 22.6997C149.955 22.5172 150.046 22.082 150.046 21.3941V11.6014C150.046 10.9135 149.941 10.4782 149.73 10.2957C149.534 10.0992 149.147 9.99387 148.572 9.97983V9.49547H150.046C151.071 9.49547 152.033 9.48143 152.931 9.45335C153.83 9.41123 154.504 9.39017 154.953 9.39017C156.413 9.39017 157.564 9.55162 158.407 9.87454C159.263 10.1974 159.874 10.6257 160.239 11.1592C160.618 11.6786 160.807 12.2543 160.807 12.886C160.807 13.6161 160.569 14.3111 160.091 14.9709C159.628 15.6308 158.884 16.1432 157.859 16.5083C156.848 16.8593 155.507 16.9716 153.837 16.8452V16.1081C154.595 16.1362 155.22 16.0028 155.711 15.708C156.202 15.3991 156.56 14.992 156.785 14.4866C157.024 13.9811 157.143 13.4406 157.143 12.865C157.143 12.0928 156.925 11.4751 156.49 11.0117C156.055 10.5344 155.451 10.2957 154.679 10.2957C154.216 10.2957 153.886 10.38 153.689 10.5484C153.507 10.7029 153.416 11.0539 153.416 11.6014V21.3941C153.416 21.8433 153.458 22.1873 153.542 22.426C153.64 22.6506 153.809 22.805 154.047 22.8893C154.3 22.9595 154.651 23.0016 155.1 23.0156V23.5H148.888ZM163.03 23.8159C162.679 23.8159 162.307 23.7878 161.914 23.7317C161.521 23.6755 161.184 23.5983 160.903 23.5V23.0156C161.184 23.0156 161.5 22.9033 161.851 22.6787C162.202 22.454 162.56 22.0048 162.925 21.3309L165.937 15.8765C164.996 15.6378 164.28 15.2517 163.788 14.7182C163.311 14.1847 163.072 13.5389 163.072 12.7807C163.072 12.1911 163.248 11.6365 163.599 11.117C163.964 10.5976 164.554 10.1834 165.368 9.87454C166.196 9.55162 167.305 9.39017 168.695 9.39017C169.145 9.39017 169.664 9.41123 170.254 9.45335C170.843 9.48143 171.496 9.49547 172.212 9.49547H174.908V9.97983C174.501 9.99387 174.206 10.0992 174.023 10.2957C173.841 10.4782 173.75 10.9135 173.75 11.6014V21.3941C173.75 22.082 173.855 22.5172 174.065 22.6997C174.276 22.8823 174.662 22.9876 175.224 23.0156V23.5H169.222V23.0156C169.629 22.9876 169.924 22.8823 170.106 22.6997C170.289 22.5172 170.38 22.082 170.38 21.3941V11.6014C170.38 11.0539 170.282 10.7029 170.085 10.5484C169.903 10.38 169.58 10.2957 169.117 10.2957C168.513 10.2957 167.965 10.5133 167.474 10.9486C166.997 11.3698 166.758 12.0086 166.758 12.865C166.758 13.3142 166.849 13.7495 167.032 14.1707C167.214 14.5778 167.537 14.9218 168 15.2026C168.478 15.4834 169.131 15.6518 169.959 15.708V16.4451C169.79 16.4451 169.643 16.4802 169.517 16.5504C169.39 16.6065 169.264 16.754 169.138 16.9926L166.758 21.5836C166.435 22.2013 165.986 22.7278 165.41 23.1631C164.834 23.5983 164.041 23.8159 163.03 23.8159ZM191.956 19.604H192.441L192.23 23.5H182.079V23.0156C182.192 22.9595 182.36 22.8612 182.585 22.7208C182.824 22.5804 183.069 22.419 183.322 22.2364C184.024 21.731 184.684 21.1554 185.302 20.5096C185.919 19.8637 186.46 19.1758 186.923 18.4457C187.386 17.7157 187.751 16.9856 188.018 16.2556C188.285 15.5255 188.418 14.8305 188.418 14.1707C188.418 13.5389 188.264 13.0054 187.955 12.5701C187.66 12.1349 187.12 11.9173 186.333 11.9173C185.674 11.9173 185.063 12.0998 184.501 12.4648C183.94 12.8299 183.385 13.3985 182.838 14.1707L182.437 13.8337C183.013 12.3736 183.736 11.2855 184.607 10.5695C185.477 9.85348 186.565 9.49547 187.871 9.49547C188.629 9.49547 189.31 9.62182 189.914 9.87454C190.517 10.1132 190.995 10.4923 191.346 11.0117C191.711 11.5172 191.893 12.177 191.893 12.9913C191.893 14.4374 191.43 15.7922 190.503 17.0558C189.591 18.3194 188.313 19.5057 186.67 20.6149V20.657H189.745C190.545 20.657 191.1 20.5587 191.409 20.3621C191.718 20.1656 191.9 19.9129 191.956 19.604ZM200.92 9.49547C201.65 9.49547 202.366 9.63586 203.068 9.91665C203.77 10.1974 204.401 10.6327 204.963 11.2223C205.525 11.812 205.967 12.5561 206.29 13.4546C206.627 14.3391 206.795 15.3921 206.795 16.6136C206.795 17.821 206.634 18.8739 206.311 19.7725C205.988 20.671 205.546 21.4221 204.984 22.0258C204.422 22.6295 203.791 23.0788 203.089 23.3736C202.387 23.6685 201.657 23.8159 200.899 23.8159C200.168 23.8159 199.452 23.6755 198.75 23.3947C198.048 23.1139 197.417 22.6787 196.855 22.089C196.294 21.4994 195.844 20.7623 195.507 19.8778C195.184 18.9792 195.023 17.9192 195.023 16.6978C195.023 15.4904 195.184 14.4374 195.507 13.5389C195.83 12.6403 196.272 11.8892 196.834 11.2855C197.396 10.6818 198.027 10.2325 198.729 9.93771C199.431 9.64288 200.161 9.49547 200.92 9.49547ZM200.983 22.9103C201.39 22.9103 201.762 22.7278 202.099 22.3628C202.436 21.9978 202.703 21.38 202.899 20.5096C203.11 19.6391 203.215 18.4457 203.215 16.9295C203.215 15.6097 203.124 14.4655 202.941 13.4968C202.773 12.514 202.513 11.7558 202.162 11.2223C201.811 10.6748 201.369 10.401 200.835 10.401C200.442 10.401 200.07 10.5835 199.719 10.9486C199.382 11.3136 199.108 11.9313 198.898 12.8018C198.701 13.6723 198.603 14.8656 198.603 16.3819C198.603 17.7016 198.687 18.8529 198.856 19.8357C199.038 20.8044 199.305 21.5625 199.656 22.1101C200.007 22.6436 200.449 22.9103 200.983 22.9103ZM218.425 19.604H218.909L218.698 23.5H208.548V23.0156C208.66 22.9595 208.829 22.8612 209.053 22.7208C209.292 22.5804 209.538 22.419 209.79 22.2364C210.492 21.731 211.152 21.1554 211.77 20.5096C212.388 19.8637 212.928 19.1758 213.391 18.4457C213.855 17.7157 214.22 16.9856 214.486 16.2556C214.753 15.5255 214.887 14.8305 214.887 14.1707C214.887 13.5389 214.732 13.0054 214.423 12.5701C214.128 12.1349 213.588 11.9173 212.802 11.9173C212.142 11.9173 211.531 12.0998 210.97 12.4648C210.408 12.8299 209.853 13.3985 209.306 14.1707L208.906 13.8337C209.481 12.3736 210.204 11.2855 211.075 10.5695C211.945 9.85348 213.033 9.49547 214.339 9.49547C215.097 9.49547 215.778 9.62182 216.382 9.87454C216.986 10.1132 217.463 10.4923 217.814 11.0117C218.179 11.5172 218.361 12.177 218.361 12.9913C218.361 14.4374 217.898 15.7922 216.971 17.0558C216.059 18.3194 214.781 19.5057 213.139 20.6149V20.657H216.213C217.014 20.657 217.568 20.5587 217.877 20.3621C218.186 20.1656 218.368 19.9129 218.425 19.604ZM230.126 18.1298H231.6V20.7623H230.715C230.322 20.7623 230.126 21.008 230.126 21.4994C230.126 21.8363 230.126 22.1662 230.126 22.4891C230.14 22.798 230.154 23.135 230.168 23.5H226.84C226.868 23.0367 226.889 22.5874 226.904 22.1522C226.918 21.7029 226.932 21.2396 226.946 20.7623H220.291V20.2779C220.656 19.9269 220.986 19.5619 221.281 19.1828L228.167 10.5695C228.322 10.3729 228.462 10.1834 228.588 10.0009C228.729 9.80434 228.841 9.63586 228.925 9.49547H230.147L230.126 18.1298ZM226.904 13.7284L223.387 18.1298H226.967V13.7284H226.904ZM248.877 9.49547V13.3915H248.393C248.323 12.7737 248.196 12.2472 248.014 11.812C247.845 11.3627 247.579 11.0188 247.214 10.7801C246.863 10.5274 246.371 10.401 245.74 10.401H244.75C244.455 10.401 244.223 10.4782 244.055 10.6327C243.9 10.7871 243.823 11.11 243.823 11.6014V21.3941C243.823 22.082 243.928 22.5172 244.139 22.6997C244.35 22.8823 244.736 22.9876 245.297 23.0156V23.5H239.295V23.0156C239.702 22.9876 239.997 22.8823 240.18 22.6997C240.362 22.5172 240.454 22.082 240.454 21.3941V11.6014C240.454 10.9135 240.348 10.4782 240.138 10.2957C239.941 10.0992 239.555 9.99387 238.979 9.97983V9.49547H248.877ZM257.314 9.17957C258.311 9.17957 259.238 9.34805 260.094 9.685C260.951 10.022 261.709 10.5133 262.369 11.1592C263.028 11.7909 263.541 12.5561 263.906 13.4546C264.271 14.3532 264.453 15.357 264.453 16.4661C264.453 17.5753 264.271 18.5791 263.906 19.4776C263.541 20.3762 263.028 21.1484 262.369 21.7942C261.723 22.44 260.965 22.9384 260.094 23.2894C259.224 23.6404 258.29 23.8159 257.293 23.8159C256.31 23.8159 255.384 23.6474 254.513 23.3105C253.657 22.9735 252.899 22.4891 252.239 21.8574C251.579 21.2115 251.067 20.4394 250.702 19.5408C250.337 18.6423 250.154 17.6385 250.154 16.5293C250.154 15.4202 250.337 14.4164 250.702 13.5178C251.067 12.6193 251.572 11.8471 252.218 11.2013C252.878 10.5555 253.643 10.0571 254.513 9.70606C255.384 9.35507 256.318 9.17957 257.314 9.17957ZM257.736 22.9103C258.466 22.9103 259.041 22.6717 259.462 22.1943C259.884 21.7029 260.185 21.029 260.368 20.1726C260.565 19.3162 260.663 18.3194 260.663 17.1822C260.663 14.8937 260.312 13.1388 259.61 11.9173C258.922 10.6959 258.009 10.0851 256.872 10.0851C256.156 10.0851 255.58 10.3238 255.145 10.8012C254.724 11.2785 254.415 11.9524 254.219 12.8229C254.036 13.6793 253.945 14.6761 253.945 15.8133C253.945 18.1018 254.289 19.8567 254.977 21.0782C255.679 22.2996 256.598 22.9103 257.736 22.9103ZM273.586 11.1592L277.082 21.3941C277.208 21.7591 277.391 22.096 277.629 22.4049C277.882 22.6997 278.268 22.9033 278.788 23.0156L277.819 27.8172H277.334C277.306 26.9467 277.18 26.1886 276.955 25.5428C276.731 24.8969 276.45 24.3915 276.113 24.0265C275.776 23.6755 275.411 23.5 275.018 23.5H269.374C268.855 23.5 268.342 23.6755 267.837 24.0265C267.345 24.3915 266.924 24.8969 266.573 25.5428C266.236 26.1886 266.019 26.9467 265.92 27.8172H265.436V23.0156C265.689 22.9033 265.934 22.7138 266.173 22.447C266.412 22.1662 266.629 21.8503 266.826 21.4994C267.036 21.1484 267.198 20.8184 267.31 20.5096L270.89 11.1592C271.031 10.7941 271.164 10.4361 271.29 10.0851C271.417 9.73414 271.529 9.37613 271.627 9.0111H272.849C272.947 9.37613 273.059 9.73414 273.186 10.0851C273.326 10.4361 273.46 10.7941 273.586 11.1592ZM272.701 22.5944C273.263 22.5944 273.572 22.5032 273.628 22.3207C273.684 22.1382 273.635 21.8293 273.481 21.3941L271.017 13.8127H270.975L267.689 22.5944H272.701ZM291.675 21.3941C291.872 21.8714 292.033 22.2224 292.16 22.447C292.3 22.6717 292.447 22.8191 292.602 22.8893C292.756 22.9454 292.946 22.9876 293.171 23.0156V23.5H287.295V23.0156C287.857 22.9876 288.165 22.8191 288.222 22.5102C288.292 22.2013 288.243 21.8293 288.074 21.3941L287.021 18.6563C286.937 18.7265 286.825 18.7757 286.684 18.8037C286.558 18.8178 286.417 18.8248 286.263 18.8248H283.883C283.588 18.8248 283.364 18.8599 283.209 18.9301C283.055 19.0003 282.922 19.1758 282.809 19.4566L282.051 21.3941C281.869 21.8574 281.883 22.2364 282.093 22.5313C282.304 22.8261 282.718 22.9876 283.336 23.0156V23.5H279.503V23.0156C279.812 22.9876 280.072 22.8331 280.282 22.5523C280.507 22.2575 280.71 21.8714 280.893 21.3941L284.936 11.1592C285.091 10.7941 285.224 10.4361 285.336 10.0851C285.463 9.73414 285.575 9.37613 285.673 9.0111H286.895C286.993 9.37613 287.105 9.73414 287.232 10.0851C287.358 10.4361 287.491 10.7941 287.632 11.1592L291.675 21.3941ZM286.158 17.9192C286.354 17.9192 286.481 17.8912 286.537 17.835C286.607 17.7648 286.6 17.6244 286.516 17.4138L285.063 13.8127H285.021L283.378 18.0035C283.448 17.9614 283.532 17.9403 283.631 17.9403C283.729 17.9263 283.841 17.9192 283.968 17.9192H286.158Z" fill="white"/>
<path d="M314.563 14.5991C312.464 13.7608 310.001 14.2079 308.322 15.8845C306.055 18.148 306.055 21.8086 308.322 24.072C310.001 25.7486 312.464 26.1957 314.563 25.3574V22.6748C314.144 22.8704 313.696 22.9822 313.22 22.9822C311.541 22.9822 310.197 21.6409 310.197 19.9643C310.197 18.2877 311.541 16.9464 313.22 16.9464C313.696 16.9464 314.172 17.0582 314.563 17.2538V14.5991Z" fill="white"/>
<path d="M313.62 11.9108C314.447 11.0819 314.447 9.70983 313.62 8.8523C312.794 8.02335 311.425 8.02335 310.569 8.8523C309.714 9.68125 309.743 11.0533 310.569 11.9108C311.425 12.7398 312.794 12.7398 313.62 11.9108Z" fill="white"/>
<path d="M337.651 19.604H338.135L337.924 23.5H327.774V23.0156C327.886 22.9595 328.055 22.8612 328.279 22.7208C328.518 22.5804 328.764 22.419 329.016 22.2364C329.718 21.731 330.378 21.1554 330.996 20.5096C331.614 19.8637 332.154 19.1758 332.617 18.4457C333.081 17.7157 333.446 16.9856 333.713 16.2556C333.979 15.5255 334.113 14.8305 334.113 14.1707C334.113 13.5389 333.958 13.0054 333.649 12.5701C333.354 12.1349 332.814 11.9173 332.028 11.9173C331.368 11.9173 330.757 12.0998 330.196 12.4648C329.634 12.8299 329.079 13.3985 328.532 14.1707L328.132 13.8337C328.707 12.3736 329.43 11.2855 330.301 10.5695C331.171 9.85348 332.259 9.49547 333.565 9.49547C334.323 9.49547 335.004 9.62182 335.608 9.87454C336.212 10.1132 336.689 10.4923 337.04 11.0117C337.405 11.5172 337.587 12.177 337.587 12.9913C337.587 14.4374 337.124 15.7922 336.198 17.0558C335.285 18.3194 334.007 19.5057 332.365 20.6149V20.657H335.439C336.24 20.657 336.794 20.5587 337.103 20.3621C337.412 20.1656 337.594 19.9129 337.651 19.604ZM346.614 9.49547C347.344 9.49547 348.06 9.63586 348.762 9.91665C349.464 10.1974 350.096 10.6327 350.657 11.2223C351.219 11.812 351.661 12.5561 351.984 13.4546C352.321 14.3391 352.489 15.3921 352.489 16.6136C352.489 17.821 352.328 18.8739 352.005 19.7725C351.682 20.671 351.24 21.4221 350.678 22.0258C350.117 22.6295 349.485 23.0788 348.783 23.3736C348.081 23.6685 347.351 23.8159 346.593 23.8159C345.863 23.8159 345.147 23.6755 344.445 23.3947C343.743 23.1139 343.111 22.6787 342.549 22.089C341.988 21.4994 341.539 20.7623 341.202 19.8778C340.879 18.9792 340.717 17.9192 340.717 16.6978C340.717 15.4904 340.879 14.4374 341.202 13.5389C341.525 12.6403 341.967 11.8892 342.528 11.2855C343.09 10.6818 343.722 10.2325 344.424 9.93771C345.126 9.64288 345.856 9.49547 346.614 9.49547ZM346.677 22.9103C347.084 22.9103 347.456 22.7278 347.793 22.3628C348.13 21.9978 348.397 21.38 348.593 20.5096C348.804 19.6391 348.909 18.4457 348.909 16.9295C348.909 15.6097 348.818 14.4655 348.636 13.4968C348.467 12.514 348.207 11.7558 347.856 11.2223C347.505 10.6748 347.063 10.401 346.53 10.401C346.137 10.401 345.764 10.5835 345.414 10.9486C345.077 11.3136 344.803 11.9313 344.592 12.8018C344.396 13.6723 344.297 14.8656 344.297 16.3819C344.297 17.7016 344.382 18.8529 344.55 19.8357C344.733 20.8044 344.999 21.5625 345.35 22.1101C345.701 22.6436 346.144 22.9103 346.677 22.9103ZM366.784 17.14L360.255 17.7087L360.108 16.0028L366.636 15.4342L366.784 17.14ZM383.081 19.604H383.565L383.354 23.5H373.204V23.0156C373.316 22.9595 373.485 22.8612 373.709 22.7208C373.948 22.5804 374.194 22.419 374.446 22.2364C375.148 21.731 375.808 21.1554 376.426 20.5096C377.044 19.8637 377.584 19.1758 378.047 18.4457C378.511 17.7157 378.876 16.9856 379.143 16.2556C379.409 15.5255 379.543 14.8305 379.543 14.1707C379.543 13.5389 379.388 13.0054 379.079 12.5701C378.785 12.1349 378.244 11.9173 377.458 11.9173C376.798 11.9173 376.187 12.0998 375.626 12.4648C375.064 12.8299 374.509 13.3985 373.962 14.1707L373.562 13.8337C374.137 12.3736 374.86 11.2855 375.731 10.5695C376.601 9.85348 377.689 9.49547 378.995 9.49547C379.753 9.49547 380.434 9.62182 381.038 9.87454C381.642 10.1132 382.119 10.4923 382.47 11.0117C382.835 11.5172 383.017 12.177 383.017 12.9913C383.017 14.4374 382.554 15.7922 381.628 17.0558C380.715 18.3194 379.437 19.5057 377.795 20.6149V20.657H380.869C381.67 20.657 382.224 20.5587 382.533 20.3621C382.842 20.1656 383.024 19.9129 383.081 19.604ZM391.686 21.1835C391.686 21.7029 391.728 22.096 391.812 22.3628C391.911 22.6155 392.107 22.784 392.402 22.8682C392.711 22.9525 393.174 23.0016 393.792 23.0156V23.5H386V23.0156C386.632 23.0016 387.095 22.9525 387.39 22.8682C387.699 22.784 387.895 22.6155 387.979 22.3628C388.064 22.096 388.106 21.7029 388.106 21.1835V12.0226L386.168 13.223L385.726 12.5491L390.612 9.49547H391.833C391.777 9.76222 391.735 10.029 391.707 10.2957C391.693 10.5625 391.686 10.8292 391.686 11.096V21.1835ZM401.319 23.5V23.0156C401.726 22.9876 402.021 22.8823 402.203 22.6997C402.386 22.5172 402.477 22.082 402.477 21.3941V11.6014C402.477 10.9135 402.372 10.4782 402.161 10.2957C401.965 10.0992 401.579 9.99387 401.003 9.97983V9.49547H407.005V9.97983C406.598 9.99387 406.303 10.0992 406.121 10.2957C405.938 10.4782 405.847 10.9135 405.847 11.6014V15.3289C405.959 15.2447 406.092 15.1885 406.247 15.1605C406.415 15.1324 406.612 15.1183 406.837 15.1183H410.817C411.196 15.1183 411.463 15.0552 411.617 14.9288C411.771 14.8024 411.849 14.5497 411.849 14.1707V11.6014C411.849 10.9135 411.743 10.4782 411.533 10.2957C411.336 10.0992 410.95 9.99387 410.375 9.97983V9.49547H416.376V9.97983C415.969 9.99387 415.674 10.0992 415.492 10.2957C415.309 10.4782 415.218 10.9135 415.218 11.6014V21.3941C415.218 22.082 415.323 22.5172 415.534 22.6997C415.745 22.8823 416.131 22.9876 416.692 23.0156V23.5H410.69V23.0156C411.098 22.9876 411.392 22.8823 411.575 22.6997C411.757 22.5172 411.849 22.082 411.849 21.3941V15.7922C411.736 15.8905 411.596 15.9537 411.427 15.9818C411.259 16.0099 411.069 16.0239 410.859 16.0239H406.879C406.5 16.0239 406.233 16.0871 406.078 16.2134C405.924 16.3398 405.847 16.5855 405.847 16.9505V21.3941C405.847 22.082 405.952 22.5172 406.163 22.6997C406.373 22.8823 406.759 22.9876 407.321 23.0156V23.5H401.319ZM425.981 9.17957C426.978 9.17957 427.904 9.34805 428.761 9.685C429.617 10.022 430.375 10.5133 431.035 11.1592C431.695 11.7909 432.207 12.5561 432.572 13.4546C432.937 14.3532 433.12 15.357 433.12 16.4661C433.12 17.5753 432.937 18.5791 432.572 19.4776C432.207 20.3762 431.695 21.1484 431.035 21.7942C430.389 22.44 429.631 22.9384 428.761 23.2894C427.89 23.6404 426.956 23.8159 425.96 23.8159C424.977 23.8159 424.05 23.6474 423.18 23.3105C422.323 22.9735 421.565 22.4891 420.905 21.8574C420.246 21.2115 419.733 20.4394 419.368 19.5408C419.003 18.6423 418.821 17.6385 418.821 16.5293C418.821 15.4202 419.003 14.4164 419.368 13.5178C419.733 12.6193 420.239 11.8471 420.884 11.2013C421.544 10.5555 422.309 10.0571 423.18 9.70606C424.05 9.35507 424.984 9.17957 425.981 9.17957ZM426.402 22.9103C427.132 22.9103 427.708 22.6717 428.129 22.1943C428.55 21.7029 428.852 21.029 429.034 20.1726C429.231 19.3162 429.329 18.3194 429.329 17.1822C429.329 14.8937 428.978 13.1388 428.276 11.9173C427.588 10.6959 426.676 10.0851 425.538 10.0851C424.822 10.0851 424.247 10.3238 423.812 10.8012C423.39 11.2785 423.082 11.9524 422.885 12.8229C422.702 13.6793 422.611 14.6761 422.611 15.8133C422.611 18.1018 422.955 19.8567 423.643 21.0782C424.345 22.2996 425.265 22.9103 426.402 22.9103ZM435.513 23.8159C435.162 23.8159 434.79 23.7878 434.397 23.7317C434.004 23.6755 433.667 23.5983 433.386 23.5V23.0156C433.667 23.0156 433.983 22.9033 434.334 22.6787C434.685 22.454 435.043 22.0048 435.408 21.3309L438.419 15.8765C437.479 15.6378 436.763 15.2517 436.271 14.7182C435.794 14.1847 435.555 13.5389 435.555 12.7807C435.555 12.1911 435.731 11.6365 436.082 11.117C436.447 10.5976 437.037 10.1834 437.851 9.87454C438.679 9.55162 439.788 9.39017 441.178 9.39017C441.628 9.39017 442.147 9.41123 442.737 9.45335C443.326 9.48143 443.979 9.49547 444.695 9.49547H447.391V9.97983C446.984 9.99387 446.689 10.0992 446.506 10.2957C446.324 10.4782 446.233 10.9135 446.233 11.6014V21.3941C446.233 22.082 446.338 22.5172 446.548 22.6997C446.759 22.8823 447.145 22.9876 447.707 23.0156V23.5H441.705V23.0156C442.112 22.9876 442.407 22.8823 442.589 22.6997C442.772 22.5172 442.863 22.082 442.863 21.3941V11.6014C442.863 11.0539 442.765 10.7029 442.568 10.5484C442.386 10.38 442.063 10.2957 441.599 10.2957C440.996 10.2957 440.448 10.5133 439.957 10.9486C439.479 11.3698 439.241 12.0086 439.241 12.865C439.241 13.3142 439.332 13.7495 439.515 14.1707C439.697 14.5778 440.02 14.9218 440.483 15.2026C440.961 15.4834 441.613 15.6518 442.442 15.708V16.4451C442.273 16.4451 442.126 16.4802 442 16.5504C441.873 16.6065 441.747 16.754 441.62 16.9926L439.241 21.5836C438.918 22.2013 438.469 22.7278 437.893 23.1631C437.317 23.5983 436.524 23.8159 435.513 23.8159ZM454.362 15.0762H456.404C457.935 15.0762 459.142 15.2447 460.027 15.5816C460.911 15.9186 461.536 16.3819 461.901 16.9716C462.28 17.5612 462.47 18.2422 462.47 19.0143C462.47 19.7865 462.259 20.5166 461.838 21.2045C461.431 21.8784 460.792 22.433 459.921 22.8682C459.065 23.2894 457.97 23.5 456.636 23.5L449.834 23.5V23.0156C450.241 22.9876 450.536 22.8823 450.718 22.6997C450.901 22.5172 450.992 22.082 450.992 21.3941V11.6014C450.992 10.9135 450.887 10.4782 450.676 10.2957C450.48 10.0992 450.094 9.99387 449.518 9.97983V9.49547H461.101V12.9703H460.616C460.574 12.4929 460.483 12.0647 460.343 11.6856C460.202 11.2925 459.963 10.9837 459.626 10.759C459.29 10.5204 458.805 10.401 458.173 10.401H455.288C454.993 10.401 454.762 10.4782 454.593 10.6327C454.439 10.7871 454.362 11.11 454.362 11.6014V15.0762ZM455.604 22.5944C456.348 22.5944 456.959 22.419 457.436 22.068C457.928 21.7029 458.293 21.2537 458.531 20.7202C458.77 20.1866 458.889 19.6602 458.889 19.1407C458.889 18.3685 458.742 17.7508 458.447 17.2875C458.166 16.8242 457.78 16.4942 457.289 16.2977C456.812 16.0871 456.271 15.9818 455.667 15.9818H454.362V21.3941C454.362 21.8854 454.439 22.2084 454.593 22.3628C454.748 22.5172 455.085 22.5944 455.604 22.5944ZM464.703 23.5V23.0156C465.11 22.9876 465.405 22.8823 465.587 22.6997C465.77 22.5172 465.861 22.082 465.861 21.3941V11.6014C465.861 10.9135 465.756 10.4782 465.545 10.2957C465.349 10.0992 464.963 9.99387 464.387 9.97983V9.49547H465.861C466.886 9.49547 467.848 9.48143 468.746 9.45335C469.645 9.41123 470.319 9.39017 470.768 9.39017C472.228 9.39017 473.379 9.55162 474.222 9.87454C475.078 10.1974 475.689 10.6257 476.054 11.1592C476.433 11.6786 476.623 12.2543 476.623 12.886C476.623 13.6161 476.384 14.3111 475.907 14.9709C475.443 15.6308 474.699 16.1432 473.674 16.5083C472.663 16.8593 471.323 16.9716 469.652 16.8452V16.1081C470.41 16.1362 471.035 16.0028 471.526 15.708C472.018 15.3991 472.376 14.992 472.6 14.4866C472.839 13.9811 472.958 13.4406 472.958 12.865C472.958 12.0928 472.741 11.4751 472.305 11.0117C471.87 10.5344 471.266 10.2957 470.494 10.2957C470.031 10.2957 469.701 10.38 469.505 10.5484C469.322 10.7029 469.231 11.0539 469.231 11.6014V21.3941C469.231 21.8433 469.273 22.1873 469.357 22.426C469.455 22.6506 469.624 22.805 469.863 22.8893C470.115 22.9595 470.466 23.0016 470.915 23.0156V23.5H464.703ZM478.846 23.8159C478.495 23.8159 478.122 23.7878 477.729 23.7317C477.336 23.6755 476.999 23.5983 476.719 23.5V23.0156C476.999 23.0156 477.315 22.9033 477.666 22.6787C478.017 22.454 478.375 22.0048 478.74 21.3309L481.752 15.8765C480.811 15.6378 480.095 15.2517 479.604 14.7182C479.126 14.1847 478.888 13.5389 478.888 12.7807C478.888 12.1911 479.063 11.6365 479.414 11.117C479.779 10.5976 480.369 10.1834 481.183 9.87454C482.011 9.55162 483.121 9.39017 484.511 9.39017C484.96 9.39017 485.479 9.41123 486.069 9.45335C486.659 9.48143 487.311 9.49547 488.027 9.49547H490.723V9.97983C490.316 9.99387 490.021 10.0992 489.839 10.2957C489.656 10.4782 489.565 10.9135 489.565 11.6014V21.3941C489.565 22.082 489.67 22.5172 489.881 22.6997C490.091 22.8823 490.477 22.9876 491.039 23.0156V23.5H485.037V23.0156C485.444 22.9876 485.739 22.8823 485.922 22.6997C486.104 22.5172 486.195 22.082 486.195 21.3941V11.6014C486.195 11.0539 486.097 10.7029 485.9 10.5484C485.718 10.38 485.395 10.2957 484.932 10.2957C484.328 10.2957 483.78 10.5133 483.289 10.9486C482.812 11.3698 482.573 12.0086 482.573 12.865C482.573 13.3142 482.664 13.7495 482.847 14.1707C483.029 14.5778 483.352 14.9218 483.816 15.2026C484.293 15.4834 484.946 15.6518 485.774 15.708V16.4451C485.606 16.4451 485.458 16.4802 485.332 16.5504C485.205 16.6065 485.079 16.754 484.953 16.9926L482.573 21.5836C482.25 22.2013 481.801 22.7278 481.225 23.1631C480.65 23.5983 479.856 23.8159 478.846 23.8159ZM507.772 19.604H508.256L508.045 23.5H497.895V23.0156C498.007 22.9595 498.175 22.8612 498.4 22.7208C498.639 22.5804 498.884 22.419 499.137 22.2364C499.839 21.731 500.499 21.1554 501.117 20.5096C501.734 19.8637 502.275 19.1758 502.738 18.4457C503.202 17.7157 503.567 16.9856 503.833 16.2556C504.1 15.5255 504.234 14.8305 504.234 14.1707C504.234 13.5389 504.079 13.0054 503.77 12.5701C503.475 12.1349 502.935 11.9173 502.149 11.9173C501.489 11.9173 500.878 12.0998 500.316 12.4648C499.755 12.8299 499.2 13.3985 498.653 14.1707L498.253 13.8337C498.828 12.3736 499.551 11.2855 500.422 10.5695C501.292 9.85348 502.38 9.49547 503.686 9.49547C504.444 9.49547 505.125 9.62182 505.729 9.87454C506.332 10.1132 506.81 10.4923 507.161 11.0117C507.526 11.5172 507.708 12.177 507.708 12.9913C507.708 14.4374 507.245 15.7922 506.318 17.0558C505.406 18.3194 504.128 19.5057 502.486 20.6149V20.657H505.56C506.361 20.657 506.915 20.5587 507.224 20.3621C507.533 20.1656 507.715 19.9129 507.772 19.604ZM516.735 9.49547C517.465 9.49547 518.181 9.63586 518.883 9.91665C519.585 10.1974 520.217 10.6327 520.778 11.2223C521.34 11.812 521.782 12.5561 522.105 13.4546C522.442 14.3391 522.61 15.3921 522.61 16.6136C522.61 17.821 522.449 18.8739 522.126 19.7725C521.803 20.671 521.361 21.4221 520.799 22.0258C520.238 22.6295 519.606 23.0788 518.904 23.3736C518.202 23.6685 517.472 23.8159 516.714 23.8159C515.984 23.8159 515.268 23.6755 514.566 23.3947C513.864 23.1139 513.232 22.6787 512.67 22.089C512.109 21.4994 511.659 20.7623 511.323 19.8778C511 18.9792 510.838 17.9192 510.838 16.6978C510.838 15.4904 511 14.4374 511.323 13.5389C511.645 12.6403 512.088 11.8892 512.649 11.2855C513.211 10.6818 513.843 10.2325 514.545 9.93771C515.247 9.64288 515.977 9.49547 516.735 9.49547ZM516.798 22.9103C517.205 22.9103 517.577 22.7278 517.914 22.3628C518.251 21.9978 518.518 21.38 518.714 20.5096C518.925 19.6391 519.03 18.4457 519.03 16.9295C519.03 15.6097 518.939 14.4655 518.756 13.4968C518.588 12.514 518.328 11.7558 517.977 11.2223C517.626 10.6748 517.184 10.401 516.651 10.401C516.257 10.401 515.885 10.5835 515.534 10.9486C515.197 11.3136 514.924 11.9313 514.713 12.8018C514.517 13.6723 514.418 14.8656 514.418 16.3819C514.418 17.7016 514.502 18.8529 514.671 19.8357C514.853 20.8044 515.12 21.5625 515.471 22.1101C515.822 22.6436 516.264 22.9103 516.798 22.9103ZM534.24 19.604H534.724L534.514 23.5H524.363V23.0156C524.475 22.9595 524.644 22.8612 524.868 22.7208C525.107 22.5804 525.353 22.419 525.605 22.2364C526.307 21.731 526.967 21.1554 527.585 20.5096C528.203 19.8637 528.743 19.1758 529.207 18.4457C529.67 17.7157 530.035 16.9856 530.302 16.2556C530.568 15.5255 530.702 14.8305 530.702 14.1707C530.702 13.5389 530.547 13.0054 530.238 12.5701C529.944 12.1349 529.403 11.9173 528.617 11.9173C527.957 11.9173 527.346 12.0998 526.785 12.4648C526.223 12.8299 525.669 13.3985 525.121 14.1707L524.721 13.8337C525.297 12.3736 526.02 11.2855 526.89 10.5695C527.76 9.85348 528.849 9.49547 530.154 9.49547C530.912 9.49547 531.593 9.62182 532.197 9.87454C532.801 10.1132 533.278 10.4923 533.629 11.0117C533.994 11.5172 534.177 12.177 534.177 12.9913C534.177 14.4374 533.713 15.7922 532.787 17.0558C531.874 18.3194 530.597 19.5057 528.954 20.6149V20.657H532.029C532.829 20.657 533.383 20.5587 533.692 20.3621C534.001 20.1656 534.184 19.9129 534.24 19.604ZM545.941 18.1298H547.415V20.7623H546.53C546.137 20.7623 545.941 21.008 545.941 21.4994C545.941 21.8363 545.941 22.1662 545.941 22.4891C545.955 22.798 545.969 23.135 545.983 23.5H542.656C542.684 23.0367 542.705 22.5874 542.719 22.1522C542.733 21.7029 542.747 21.2396 542.761 20.7623H536.106V20.2779C536.471 19.9269 536.801 19.5619 537.096 19.1828L543.982 10.5695C544.137 10.3729 544.277 10.1834 544.403 10.0009C544.544 9.80434 544.656 9.63586 544.74 9.49547H545.962L545.941 18.1298ZM542.719 13.7284L539.202 18.1298H542.782V13.7284H542.719ZM564.693 9.49547V13.3915H564.208C564.138 12.7737 564.012 12.2472 563.829 11.812C563.661 11.3627 563.394 11.0188 563.029 10.7801C562.678 10.5274 562.187 10.401 561.555 10.401H560.565C560.27 10.401 560.038 10.4782 559.87 10.6327C559.716 10.7871 559.638 11.11 559.638 11.6014V21.3941C559.638 22.082 559.744 22.5172 559.954 22.6997C560.165 22.8823 560.551 22.9876 561.112 23.0156V23.5H555.111V23.0156C555.518 22.9876 555.813 22.8823 555.995 22.6997C556.178 22.5172 556.269 22.082 556.269 21.3941V11.6014C556.269 10.9135 556.164 10.4782 555.953 10.2957C555.756 10.0992 555.37 9.99387 554.795 9.97983V9.49547H564.693ZM573.13 9.17957C574.126 9.17957 575.053 9.34805 575.909 9.685C576.766 10.022 577.524 10.5133 578.184 11.1592C578.844 11.7909 579.356 12.5561 579.721 13.4546C580.086 14.3532 580.269 15.357 580.269 16.4661C580.269 17.5753 580.086 18.5791 579.721 19.4776C579.356 20.3762 578.844 21.1484 578.184 21.7942C577.538 22.44 576.78 22.9384 575.909 23.2894C575.039 23.6404 574.105 23.8159 573.108 23.8159C572.126 23.8159 571.199 23.6474 570.329 23.3105C569.472 22.9735 568.714 22.4891 568.054 21.8574C567.394 21.2115 566.882 20.4394 566.517 19.5408C566.152 18.6423 565.969 17.6385 565.969 16.5293C565.969 15.4202 566.152 14.4164 566.517 13.5178C566.882 12.6193 567.387 11.8471 568.033 11.2013C568.693 10.5555 569.458 10.0571 570.329 9.70606C571.199 9.35507 572.133 9.17957 573.13 9.17957ZM573.551 22.9103C574.281 22.9103 574.856 22.6717 575.278 22.1943C575.699 21.7029 576.001 21.029 576.183 20.1726C576.38 19.3162 576.478 18.3194 576.478 17.1822C576.478 14.8937 576.127 13.1388 575.425 11.9173C574.737 10.6959 573.824 10.0851 572.687 10.0851C571.971 10.0851 571.396 10.3238 570.96 10.8012C570.539 11.2785 570.23 11.9524 570.034 12.8229C569.851 13.6793 569.76 14.6761 569.76 15.8133C569.76 18.1018 570.104 19.8567 570.792 21.0782C571.494 22.2996 572.414 22.9103 573.551 22.9103ZM589.401 11.1592L592.897 21.3941C593.023 21.7591 593.206 22.096 593.444 22.4049C593.697 22.6997 594.083 22.9033 594.603 23.0156L593.634 27.8172H593.15C593.122 26.9467 592.995 26.1886 592.771 25.5428C592.546 24.8969 592.265 24.3915 591.928 24.0265C591.591 23.6755 591.226 23.5 590.833 23.5H585.189C584.67 23.5 584.157 23.6755 583.652 24.0265C583.16 24.3915 582.739 24.8969 582.388 25.5428C582.051 26.1886 581.834 26.9467 581.735 27.8172H581.251V23.0156C581.504 22.9033 581.749 22.7138 581.988 22.447C582.227 22.1662 582.444 21.8503 582.641 21.4994C582.852 21.1484 583.013 20.8184 583.125 20.5096L586.705 11.1592C586.846 10.7941 586.979 10.4361 587.106 10.0851C587.232 9.73414 587.344 9.37613 587.443 9.0111H588.664C588.762 9.37613 588.875 9.73414 589.001 10.0851C589.141 10.4361 589.275 10.7941 589.401 11.1592ZM588.517 22.5944C589.078 22.5944 589.387 22.5032 589.443 22.3207C589.499 22.1382 589.45 21.8293 589.296 21.3941L586.832 13.8127H586.79L583.504 22.5944H588.517ZM607.49 21.3941C607.687 21.8714 607.849 22.2224 607.975 22.447C608.115 22.6717 608.263 22.8191 608.417 22.8893C608.572 22.9454 608.761 22.9876 608.986 23.0156V23.5H603.11V23.0156C603.672 22.9876 603.981 22.8191 604.037 22.5102C604.107 22.2013 604.058 21.8293 603.889 21.3941L602.836 18.6563C602.752 18.7265 602.64 18.7757 602.499 18.8037C602.373 18.8178 602.233 18.8248 602.078 18.8248H599.698C599.404 18.8248 599.179 18.8599 599.025 18.9301C598.87 19.0003 598.737 19.1758 598.624 19.4566L597.866 21.3941C597.684 21.8574 597.698 22.2364 597.908 22.5313C598.119 22.8261 598.533 22.9876 599.151 23.0156V23.5H595.318V23.0156C595.627 22.9876 595.887 22.8331 596.097 22.5523C596.322 22.2575 596.526 21.8714 596.708 21.3941L600.751 11.1592C600.906 10.7941 601.039 10.4361 601.152 10.0851C601.278 9.73414 601.39 9.37613 601.489 9.0111H602.71C602.808 9.37613 602.921 9.73414 603.047 10.0851C603.173 10.4361 603.307 10.7941 603.447 11.1592L607.49 21.3941ZM601.973 17.9192C602.169 17.9192 602.296 17.8912 602.352 17.835C602.422 17.7648 602.415 17.6244 602.331 17.4138L600.878 13.8127H600.836L599.193 18.0035C599.263 17.9614 599.348 17.9403 599.446 17.9403C599.544 17.9263 599.656 17.9192 599.783 17.9192H601.973Z" fill="white"/>
<path d="M630.379 14.5991C628.279 13.7608 625.816 14.2079 624.137 15.8845C621.87 18.148 621.87 21.8086 624.137 24.072C625.816 25.7486 628.279 26.1957 630.379 25.3574V22.6748C629.959 22.8704 629.511 22.9822 629.035 22.9822C627.356 22.9822 626.012 21.6409 626.012 19.9643C626.012 18.2877 627.356 16.9464 629.035 16.9464C629.511 16.9464 629.987 17.0582 630.379 17.2538V14.5991Z" fill="white"/>
<path d="M629.436 11.9108C630.262 11.0819 630.262 9.70983 629.436 8.8523C628.609 8.02335 627.24 8.02335 626.385 8.8523C625.529 9.68125 625.558 11.0533 626.385 11.9108C627.24 12.7398 628.609 12.7398 629.436 11.9108Z" fill="white"/>
<path d="M653.466 19.604H653.95L653.74 23.5H643.589V23.0156C643.701 22.9595 643.87 22.8612 644.094 22.7208C644.333 22.5804 644.579 22.419 644.831 22.2364C645.533 21.731 646.193 21.1554 646.811 20.5096C647.429 19.8637 647.969 19.1758 648.433 18.4457C648.896 17.7157 649.261 16.9856 649.528 16.2556C649.794 15.5255 649.928 14.8305 649.928 14.1707C649.928 13.5389 649.773 13.0054 649.465 12.5701C649.17 12.1349 648.629 11.9173 647.843 11.9173C647.183 11.9173 646.572 12.0998 646.011 12.4648C645.449 12.8299 644.895 13.3985 644.347 14.1707L643.947 13.8337C644.523 12.3736 645.246 11.2855 646.116 10.5695C646.987 9.85348 648.075 9.49547 649.38 9.49547C650.138 9.49547 650.819 9.62182 651.423 9.87454C652.027 10.1132 652.504 10.4923 652.855 11.0117C653.22 11.5172 653.403 12.177 653.403 12.9913C653.403 14.4374 652.939 15.7922 652.013 17.0558C651.1 18.3194 649.823 19.5057 648.18 20.6149V20.657H651.255C652.055 20.657 652.609 20.5587 652.918 20.3621C653.227 20.1656 653.41 19.9129 653.466 19.604ZM662.429 9.49547C663.159 9.49547 663.875 9.63586 664.577 9.91665C665.279 10.1974 665.911 10.6327 666.473 11.2223C667.034 11.812 667.476 12.5561 667.799 13.4546C668.136 14.3391 668.305 15.3921 668.305 16.6136C668.305 17.821 668.143 18.8739 667.82 19.7725C667.497 20.671 667.055 21.4221 666.494 22.0258C665.932 22.6295 665.3 23.0788 664.598 23.3736C663.896 23.6685 663.166 23.8159 662.408 23.8159C661.678 23.8159 660.962 23.6755 660.26 23.3947C659.558 23.1139 658.926 22.6787 658.365 22.089C657.803 21.4994 657.354 20.7623 657.017 19.8778C656.694 18.9792 656.532 17.9192 656.532 16.6978C656.532 15.4904 656.694 14.4374 657.017 13.5389C657.34 12.6403 657.782 11.8892 658.344 11.2855C658.905 10.6818 659.537 10.2325 660.239 9.93771C660.941 9.64288 661.671 9.49547 662.429 9.49547ZM662.492 22.9103C662.899 22.9103 663.271 22.7278 663.608 22.3628C663.945 21.9978 664.212 21.38 664.409 20.5096C664.619 19.6391 664.725 18.4457 664.725 16.9295C664.725 15.6097 664.633 14.4655 664.451 13.4968C664.282 12.514 664.023 11.7558 663.672 11.2223C663.321 10.6748 662.878 10.401 662.345 10.401C661.952 10.401 661.58 10.5835 661.229 10.9486C660.892 11.3136 660.618 11.9313 660.407 12.8018C660.211 13.6723 660.113 14.8656 660.113 16.3819C660.113 17.7016 660.197 18.8529 660.365 19.8357C660.548 20.8044 660.815 21.5625 661.166 22.1101C661.517 22.6436 661.959 22.9103 662.492 22.9103ZM682.599 17.14L676.07 17.7087L675.923 16.0028L682.451 15.4342L682.599 17.14ZM698.896 19.604H699.38L699.17 23.5H689.019V23.0156C689.131 22.9595 689.3 22.8612 689.524 22.7208C689.763 22.5804 690.009 22.419 690.261 22.2364C690.963 21.731 691.623 21.1554 692.241 20.5096C692.859 19.8637 693.399 19.1758 693.863 18.4457C694.326 17.7157 694.691 16.9856 694.958 16.2556C695.224 15.5255 695.358 14.8305 695.358 14.1707C695.358 13.5389 695.203 13.0054 694.895 12.5701C694.6 12.1349 694.059 11.9173 693.273 11.9173C692.613 11.9173 692.002 12.0998 691.441 12.4648C690.879 12.8299 690.325 13.3985 689.777 14.1707L689.377 13.8337C689.953 12.3736 690.676 11.2855 691.546 10.5695C692.417 9.85348 693.505 9.49547 694.81 9.49547C695.568 9.49547 696.249 9.62182 696.853 9.87454C697.457 10.1132 697.934 10.4923 698.285 11.0117C698.65 11.5172 698.833 12.177 698.833 12.9913C698.833 14.4374 698.369 15.7922 697.443 17.0558C696.53 18.3194 695.253 19.5057 693.61 20.6149V20.657H696.685C697.485 20.657 698.039 20.5587 698.348 20.3621C698.657 20.1656 698.84 19.9129 698.896 19.604ZM707.501 21.1835C707.501 21.7029 707.543 22.096 707.627 22.3628C707.726 22.6155 707.922 22.784 708.217 22.8682C708.526 22.9525 708.989 23.0016 709.607 23.0156V23.5H701.815V23.0156C702.447 23.0016 702.91 22.9525 703.205 22.8682C703.514 22.784 703.71 22.6155 703.795 22.3628C703.879 22.096 703.921 21.7029 703.921 21.1835V12.0226L701.984 13.223L701.541 12.5491L706.427 9.49547H707.649C707.592 9.76222 707.55 10.029 707.522 10.2957C707.508 10.5625 707.501 10.8292 707.501 11.096V21.1835ZM717.134 23.5V23.0156C717.541 22.9876 717.836 22.8823 718.019 22.6997C718.201 22.5172 718.292 22.082 718.292 21.3941V11.6014C718.292 10.9135 718.187 10.4782 717.977 10.2957C717.78 10.0992 717.394 9.99387 716.818 9.97983V9.49547H722.82V9.97983C722.413 9.99387 722.118 10.0992 721.936 10.2957C721.753 10.4782 721.662 10.9135 721.662 11.6014V15.3289C721.774 15.2447 721.908 15.1885 722.062 15.1605C722.231 15.1324 722.427 15.1183 722.652 15.1183H726.632C727.011 15.1183 727.278 15.0552 727.432 14.9288C727.587 14.8024 727.664 14.5497 727.664 14.1707V11.6014C727.664 10.9135 727.559 10.4782 727.348 10.2957C727.151 10.0992 726.765 9.99387 726.19 9.97983V9.49547H732.192V9.97983C731.785 9.99387 731.49 10.0992 731.307 10.2957C731.125 10.4782 731.033 10.9135 731.033 11.6014V21.3941C731.033 22.082 731.139 22.5172 731.349 22.6997C731.56 22.8823 731.946 22.9876 732.508 23.0156V23.5H726.506V23.0156C726.913 22.9876 727.208 22.8823 727.39 22.6997C727.573 22.5172 727.664 22.082 727.664 21.3941V15.7922C727.552 15.8905 727.411 15.9537 727.243 15.9818C727.074 16.0099 726.885 16.0239 726.674 16.0239H722.694C722.315 16.0239 722.048 16.0871 721.894 16.2134C721.739 16.3398 721.662 16.5855 721.662 16.9505V21.3941C721.662 22.082 721.767 22.5172 721.978 22.6997C722.188 22.8823 722.575 22.9876 723.136 23.0156V23.5H717.134ZM741.796 9.17957C742.793 9.17957 743.719 9.34805 744.576 9.685C745.432 10.022 746.19 10.5133 746.85 11.1592C747.51 11.7909 748.023 12.5561 748.388 13.4546C748.753 14.3532 748.935 15.357 748.935 16.4661C748.935 17.5753 748.753 18.5791 748.388 19.4776C748.023 20.3762 747.51 21.1484 746.85 21.7942C746.204 22.44 745.446 22.9384 744.576 23.2894C743.705 23.6404 742.772 23.8159 741.775 23.8159C740.792 23.8159 739.865 23.6474 738.995 23.3105C738.139 22.9735 737.38 22.4891 736.721 21.8574C736.061 21.2115 735.548 20.4394 735.183 19.5408C734.818 18.6423 734.636 17.6385 734.636 16.5293C734.636 15.4202 734.818 14.4164 735.183 13.5178C735.548 12.6193 736.054 11.8471 736.7 11.2013C737.359 10.5555 738.125 10.0571 738.995 9.70606C739.865 9.35507 740.799 9.17957 741.796 9.17957ZM742.217 22.9103C742.947 22.9103 743.523 22.6717 743.944 22.1943C744.365 21.7029 744.667 21.029 744.85 20.1726C745.046 19.3162 745.144 18.3194 745.144 17.1822C745.144 14.8937 744.793 13.1388 744.091 11.9173C743.403 10.6959 742.491 10.0851 741.354 10.0851C740.638 10.0851 740.062 10.3238 739.627 10.8012C739.206 11.2785 738.897 11.9524 738.7 12.8229C738.518 13.6793 738.426 14.6761 738.426 15.8133C738.426 18.1018 738.77 19.8567 739.458 21.0782C740.16 22.2996 741.08 22.9103 742.217 22.9103ZM751.328 23.8159C750.977 23.8159 750.605 23.7878 750.212 23.7317C749.819 23.6755 749.482 23.5983 749.201 23.5V23.0156C749.482 23.0156 749.798 22.9033 750.149 22.6787C750.5 22.454 750.858 22.0048 751.223 21.3309L754.235 15.8765C753.294 15.6378 752.578 15.2517 752.087 14.7182C751.609 14.1847 751.371 13.5389 751.371 12.7807C751.371 12.1911 751.546 11.6365 751.897 11.117C752.262 10.5976 752.852 10.1834 753.666 9.87454C754.494 9.55162 755.604 9.39017 756.993 9.39017C757.443 9.39017 757.962 9.41123 758.552 9.45335C759.142 9.48143 759.794 9.49547 760.51 9.49547H763.206V9.97983C762.799 9.99387 762.504 10.0992 762.321 10.2957C762.139 10.4782 762.048 10.9135 762.048 11.6014V21.3941C762.048 22.082 762.153 22.5172 762.364 22.6997C762.574 22.8823 762.96 22.9876 763.522 23.0156V23.5H757.52V23.0156C757.927 22.9876 758.222 22.8823 758.404 22.6997C758.587 22.5172 758.678 22.082 758.678 21.3941V11.6014C758.678 11.0539 758.58 10.7029 758.383 10.5484C758.201 10.38 757.878 10.2957 757.415 10.2957C756.811 10.2957 756.263 10.5133 755.772 10.9486C755.295 11.3698 755.056 12.0086 755.056 12.865C755.056 13.3142 755.147 13.7495 755.33 14.1707C755.512 14.5778 755.835 14.9218 756.298 15.2026C756.776 15.4834 757.429 15.6518 758.257 15.708V16.4451C758.089 16.4451 757.941 16.4802 757.815 16.5504C757.688 16.6065 757.562 16.754 757.436 16.9926L755.056 21.5836C754.733 22.2013 754.284 22.7278 753.708 23.1631C753.133 23.5983 752.339 23.8159 751.328 23.8159ZM770.177 15.0762H772.22C773.75 15.0762 774.957 15.2447 775.842 15.5816C776.726 15.9186 777.351 16.3819 777.716 16.9716C778.095 17.5612 778.285 18.2422 778.285 19.0143C778.285 19.7865 778.074 20.5166 777.653 21.2045C777.246 21.8784 776.607 22.433 775.737 22.8682C774.88 23.2894 773.785 23.5 772.451 23.5L765.649 23.5V23.0156C766.056 22.9876 766.351 22.8823 766.534 22.6997C766.716 22.5172 766.807 22.082 766.807 21.3941V11.6014C766.807 10.9135 766.702 10.4782 766.491 10.2957C766.295 10.0992 765.909 9.99387 765.333 9.97983V9.49547H776.916V12.9703H776.431C776.389 12.4929 776.298 12.0647 776.158 11.6856C776.017 11.2925 775.779 10.9837 775.442 10.759C775.105 10.5204 774.62 10.401 773.989 10.401H771.103C770.809 10.401 770.577 10.4782 770.408 10.6327C770.254 10.7871 770.177 11.11 770.177 11.6014V15.0762ZM771.419 22.5944C772.163 22.5944 772.774 22.419 773.252 22.068C773.743 21.7029 774.108 21.2537 774.347 20.7202C774.585 20.1866 774.705 19.6602 774.705 19.1407C774.705 18.3685 774.557 17.7508 774.262 17.2875C773.982 16.8242 773.595 16.4942 773.104 16.2977C772.627 16.0871 772.086 15.9818 771.483 15.9818H770.177V21.3941C770.177 21.8854 770.254 22.2084 770.408 22.3628C770.563 22.5172 770.9 22.5944 771.419 22.5944ZM780.518 23.5V23.0156C780.925 22.9876 781.22 22.8823 781.403 22.6997C781.585 22.5172 781.676 22.082 781.676 21.3941V11.6014C781.676 10.9135 781.571 10.4782 781.361 10.2957C781.164 10.0992 780.778 9.99387 780.202 9.97983V9.49547H781.676C782.701 9.49547 783.663 9.48143 784.562 9.45335C785.46 9.41123 786.134 9.39017 786.583 9.39017C788.043 9.39017 789.195 9.55162 790.037 9.87454C790.893 10.1974 791.504 10.6257 791.869 11.1592C792.248 11.6786 792.438 12.2543 792.438 12.886C792.438 13.6161 792.199 14.3111 791.722 14.9709C791.258 15.6308 790.514 16.1432 789.489 16.5083C788.479 16.8593 787.138 16.9716 785.467 16.8452V16.1081C786.225 16.1362 786.85 16.0028 787.341 15.708C787.833 15.3991 788.191 14.992 788.415 14.4866C788.654 13.9811 788.773 13.4406 788.773 12.865C788.773 12.0928 788.556 11.4751 788.121 11.0117C787.685 10.5344 787.082 10.2957 786.31 10.2957C785.846 10.2957 785.516 10.38 785.32 10.5484C785.137 10.7029 785.046 11.0539 785.046 11.6014V21.3941C785.046 21.8433 785.088 22.1873 785.172 22.426C785.271 22.6506 785.439 22.805 785.678 22.8893C785.93 22.9595 786.281 23.0016 786.731 23.0156V23.5H780.518ZM794.661 23.8159C794.31 23.8159 793.938 23.7878 793.545 23.7317C793.151 23.6755 792.815 23.5983 792.534 23.5V23.0156C792.815 23.0156 793.13 22.9033 793.481 22.6787C793.832 22.454 794.19 22.0048 794.555 21.3309L797.567 15.8765C796.626 15.6378 795.91 15.2517 795.419 14.7182C794.942 14.1847 794.703 13.5389 794.703 12.7807C794.703 12.1911 794.878 11.6365 795.229 11.117C795.594 10.5976 796.184 10.1834 796.998 9.87454C797.827 9.55162 798.936 9.39017 800.326 9.39017C800.775 9.39017 801.294 9.41123 801.884 9.45335C802.474 9.48143 803.127 9.49547 803.843 9.49547H806.538V9.97983C806.131 9.99387 805.836 10.0992 805.654 10.2957C805.471 10.4782 805.38 10.9135 805.38 11.6014V21.3941C805.38 22.082 805.485 22.5172 805.696 22.6997C805.907 22.8823 806.293 22.9876 806.854 23.0156V23.5H800.852V23.0156C801.259 22.9876 801.554 22.8823 801.737 22.6997C801.919 22.5172 802.011 22.082 802.011 21.3941V11.6014C802.011 11.0539 801.912 10.7029 801.716 10.5484C801.533 10.38 801.21 10.2957 800.747 10.2957C800.143 10.2957 799.596 10.5133 799.104 10.9486C798.627 11.3698 798.388 12.0086 798.388 12.865C798.388 13.3142 798.48 13.7495 798.662 14.1707C798.845 14.5778 799.167 14.9218 799.631 15.2026C800.108 15.4834 800.761 15.6518 801.589 15.708V16.4451C801.421 16.4451 801.273 16.4802 801.147 16.5504C801.021 16.6065 800.894 16.754 800.768 16.9926L798.388 21.5836C798.065 22.2013 797.616 22.7278 797.04 23.1631C796.465 23.5983 795.672 23.8159 794.661 23.8159ZM823.587 19.604H824.071L823.861 23.5H813.71V23.0156C813.822 22.9595 813.991 22.8612 814.215 22.7208C814.454 22.5804 814.7 22.419 814.952 22.2364C815.654 21.731 816.314 21.1554 816.932 20.5096C817.55 19.8637 818.09 19.1758 818.554 18.4457C819.017 17.7157 819.382 16.9856 819.649 16.2556C819.915 15.5255 820.049 14.8305 820.049 14.1707C820.049 13.5389 819.894 13.0054 819.585 12.5701C819.291 12.1349 818.75 11.9173 817.964 11.9173C817.304 11.9173 816.693 12.0998 816.132 12.4648C815.57 12.8299 815.016 13.3985 814.468 14.1707L814.068 13.8337C814.643 12.3736 815.367 11.2855 816.237 10.5695C817.107 9.85348 818.196 9.49547 819.501 9.49547C820.259 9.49547 820.94 9.62182 821.544 9.87454C822.148 10.1132 822.625 10.4923 822.976 11.0117C823.341 11.5172 823.524 12.177 823.524 12.9913C823.524 14.4374 823.06 15.7922 822.134 17.0558C821.221 18.3194 819.943 19.5057 818.301 20.6149V20.657H821.375C822.176 20.657 822.73 20.5587 823.039 20.3621C823.348 20.1656 823.531 19.9129 823.587 19.604ZM832.55 9.49547C833.28 9.49547 833.996 9.63586 834.698 9.91665C835.4 10.1974 836.032 10.6327 836.593 11.2223C837.155 11.812 837.597 12.5561 837.92 13.4546C838.257 14.3391 838.426 15.3921 838.426 16.6136C838.426 17.821 838.264 18.8739 837.941 19.7725C837.618 20.671 837.176 21.4221 836.614 22.0258C836.053 22.6295 835.421 23.0788 834.719 23.3736C834.017 23.6685 833.287 23.8159 832.529 23.8159C831.799 23.8159 831.083 23.6755 830.381 23.3947C829.679 23.1139 829.047 22.6787 828.486 22.089C827.924 21.4994 827.475 20.7623 827.138 19.8778C826.815 18.9792 826.653 17.9192 826.653 16.6978C826.653 15.4904 826.815 14.4374 827.138 13.5389C827.461 12.6403 827.903 11.8892 828.464 11.2855C829.026 10.6818 829.658 10.2325 830.36 9.93771C831.062 9.64288 831.792 9.49547 832.55 9.49547ZM832.613 22.9103C833.02 22.9103 833.392 22.7278 833.729 22.3628C834.066 21.9978 834.333 21.38 834.53 20.5096C834.74 19.6391 834.845 18.4457 834.845 16.9295C834.845 15.6097 834.754 14.4655 834.572 13.4968C834.403 12.514 834.143 11.7558 833.793 11.2223C833.442 10.6748 832.999 10.401 832.466 10.401C832.073 10.401 831.701 10.5835 831.35 10.9486C831.013 11.3136 830.739 11.9313 830.528 12.8018C830.332 13.6723 830.233 14.8656 830.233 16.3819C830.233 17.7016 830.318 18.8529 830.486 19.8357C830.669 20.8044 830.935 21.5625 831.286 22.1101C831.637 22.6436 832.08 22.9103 832.613 22.9103ZM850.055 19.604H850.539L850.329 23.5H840.178V23.0156C840.29 22.9595 840.459 22.8612 840.684 22.7208C840.922 22.5804 841.168 22.419 841.421 22.2364C842.123 21.731 842.782 21.1554 843.4 20.5096C844.018 19.8637 844.558 19.1758 845.022 18.4457C845.485 17.7157 845.85 16.9856 846.117 16.2556C846.384 15.5255 846.517 14.8305 846.517 14.1707C846.517 13.5389 846.363 13.0054 846.054 12.5701C845.759 12.1349 845.218 11.9173 844.432 11.9173C843.772 11.9173 843.162 12.0998 842.6 12.4648C842.038 12.8299 841.484 13.3985 840.936 14.1707L840.536 13.8337C841.112 12.3736 841.835 11.2855 842.705 10.5695C843.576 9.85348 844.664 9.49547 845.969 9.49547C846.728 9.49547 847.409 9.62182 848.012 9.87454C848.616 10.1132 849.093 10.4923 849.444 11.0117C849.809 11.5172 849.992 12.177 849.992 12.9913C849.992 14.4374 849.529 15.7922 848.602 17.0558C847.689 18.3194 846.412 19.5057 844.769 20.6149V20.657H847.844C848.644 20.657 849.199 20.5587 849.507 20.3621C849.816 20.1656 849.999 19.9129 850.055 19.604ZM861.756 18.1298H863.23V20.7623H862.346C861.953 20.7623 861.756 21.008 861.756 21.4994C861.756 21.8363 861.756 22.1662 861.756 22.4891C861.77 22.798 861.784 23.135 861.798 23.5H858.471C858.499 23.0367 858.52 22.5874 858.534 22.1522C858.548 21.7029 858.562 21.2396 858.576 20.7623H851.921V20.2779C852.286 19.9269 852.616 19.5619 852.911 19.1828L859.797 10.5695C859.952 10.3729 860.092 10.1834 860.219 10.0009C860.359 9.80434 860.471 9.63586 860.556 9.49547H861.777L861.756 18.1298ZM858.534 13.7284L855.017 18.1298H858.597V13.7284H858.534ZM880.508 9.49547V13.3915H880.023C879.953 12.7737 879.827 12.2472 879.644 11.812C879.476 11.3627 879.209 11.0188 878.844 10.7801C878.493 10.5274 878.002 10.401 877.37 10.401H876.38C876.085 10.401 875.854 10.4782 875.685 10.6327C875.531 10.7871 875.454 11.11 875.454 11.6014V21.3941C875.454 22.082 875.559 22.5172 875.769 22.6997C875.98 22.8823 876.366 22.9876 876.928 23.0156V23.5H870.926V23.0156C871.333 22.9876 871.628 22.8823 871.81 22.6997C871.993 22.5172 872.084 22.082 872.084 21.3941V11.6014C872.084 10.9135 871.979 10.4782 871.768 10.2957C871.572 10.0992 871.185 9.99387 870.61 9.97983V9.49547H880.508ZM888.945 9.17957C889.942 9.17957 890.868 9.34805 891.725 9.685C892.581 10.022 893.339 10.5133 893.999 11.1592C894.659 11.7909 895.171 12.5561 895.536 13.4546C895.901 14.3532 896.084 15.357 896.084 16.4661C896.084 17.5753 895.901 18.5791 895.536 19.4776C895.171 20.3762 894.659 21.1484 893.999 21.7942C893.353 22.44 892.595 22.9384 891.725 23.2894C890.854 23.6404 889.92 23.8159 888.924 23.8159C887.941 23.8159 887.014 23.6474 886.144 23.3105C885.287 22.9735 884.529 22.4891 883.869 21.8574C883.21 21.2115 882.697 20.4394 882.332 19.5408C881.967 18.6423 881.785 17.6385 881.785 16.5293C881.785 15.4202 881.967 14.4164 882.332 13.5178C882.697 12.6193 883.203 11.8471 883.848 11.2013C884.508 10.5555 885.273 10.0571 886.144 9.70606C887.014 9.35507 887.948 9.17957 888.945 9.17957ZM889.366 22.9103C890.096 22.9103 890.672 22.6717 891.093 22.1943C891.514 21.7029 891.816 21.029 891.998 20.1726C892.195 19.3162 892.293 18.3194 892.293 17.1822C892.293 14.8937 891.942 13.1388 891.24 11.9173C890.552 10.6959 889.64 10.0851 888.502 10.0851C887.786 10.0851 887.211 10.3238 886.776 10.8012C886.354 11.2785 886.046 11.9524 885.849 12.8229C885.666 13.6793 885.575 14.6761 885.575 15.8133C885.575 18.1018 885.919 19.8567 886.607 21.0782C887.309 22.2996 888.229 22.9103 889.366 22.9103ZM905.216 11.1592L908.712 21.3941C908.839 21.7591 909.021 22.096 909.26 22.4049C909.512 22.6997 909.899 22.9033 910.418 23.0156L909.449 27.8172H908.965C908.937 26.9467 908.81 26.1886 908.586 25.5428C908.361 24.8969 908.08 24.3915 907.743 24.0265C907.406 23.6755 907.041 23.5 906.648 23.5H901.004C900.485 23.5 899.972 23.6755 899.467 24.0265C898.976 24.3915 898.554 24.8969 898.203 25.5428C897.867 26.1886 897.649 26.9467 897.551 27.8172H897.066V23.0156C897.319 22.9033 897.565 22.7138 897.803 22.447C898.042 22.1662 898.26 21.8503 898.456 21.4994C898.667 21.1484 898.828 20.8184 898.941 20.5096L902.521 11.1592C902.661 10.7941 902.794 10.4361 902.921 10.0851C903.047 9.73414 903.159 9.37613 903.258 9.0111H904.479C904.577 9.37613 904.69 9.73414 904.816 10.0851C904.957 10.4361 905.09 10.7941 905.216 11.1592ZM904.332 22.5944C904.893 22.5944 905.202 22.5032 905.258 22.3207C905.315 22.1382 905.265 21.8293 905.111 21.3941L902.647 13.8127H902.605L899.32 22.5944H904.332ZM923.306 21.3941C923.502 21.8714 923.664 22.2224 923.79 22.447C923.93 22.6717 924.078 22.8191 924.232 22.8893C924.387 22.9454 924.576 22.9876 924.801 23.0156V23.5H918.925V23.0156C919.487 22.9876 919.796 22.8191 919.852 22.5102C919.922 22.2013 919.873 21.8293 919.705 21.3941L918.652 18.6563C918.567 18.7265 918.455 18.7757 918.315 18.8037C918.188 18.8178 918.048 18.8248 917.893 18.8248H915.514C915.219 18.8248 914.994 18.8599 914.84 18.9301C914.685 19.0003 914.552 19.1758 914.44 19.4566L913.682 21.3941C913.499 21.8574 913.513 22.2364 913.724 22.5313C913.934 22.8261 914.348 22.9876 914.966 23.0156V23.5H911.133V23.0156C911.442 22.9876 911.702 22.8331 911.913 22.5523C912.137 22.2575 912.341 21.8714 912.523 21.3941L916.567 11.1592C916.721 10.7941 916.854 10.4361 916.967 10.0851C917.093 9.73414 917.205 9.37613 917.304 9.0111H918.525C918.623 9.37613 918.736 9.73414 918.862 10.0851C918.989 10.4361 919.122 10.7941 919.262 11.1592L923.306 21.3941ZM917.788 17.9192C917.985 17.9192 918.111 17.8912 918.167 17.835C918.237 17.7648 918.23 17.6244 918.146 17.4138L916.693 13.8127H916.651L915.008 18.0035C915.078 17.9614 915.163 17.9403 915.261 17.9403C915.359 17.9263 915.472 17.9192 915.598 17.9192H917.788Z" fill="white"/>
</svg>
