<svg width="1645" height="60" viewBox="0 0 1645 60" fill="none" xmlns="http://www.w3.org/2000/svg">
<rect width="1645" height="60.0047" fill="url(#paint0_linear_614_2559)"/>
<path d="M38.4799 35.1667H39.3297L38.9602 42.0023H21.1506V41.1525C21.3477 41.054 21.6433 40.8815 22.0374 40.6352C22.4562 40.3889 22.8873 40.1056 23.3307 39.7854C24.5623 38.8986 25.72 37.8886 26.8039 36.7555C27.8877 35.6224 28.8361 34.4154 29.649 33.1345C30.4619 31.8536 31.1023 30.5727 31.5704 29.2917C32.0384 28.0108 32.2724 26.7915 32.2724 25.6338C32.2724 24.5253 32.0014 23.5892 31.4595 22.8256C30.9422 22.062 29.9939 21.6802 28.6144 21.6802C27.4567 21.6802 26.3851 22.0004 25.3998 22.6409C24.4145 23.2813 23.4415 24.2789 22.4808 25.6338L21.7788 25.0426C22.7887 22.4807 24.0573 20.5717 25.5846 19.3154C27.1118 18.0591 29.0209 17.431 31.3117 17.431C32.6419 17.431 33.8366 17.6527 34.8958 18.0961C35.955 18.5148 36.7925 19.1799 37.4084 20.0914C38.0488 20.9781 38.369 22.1359 38.369 23.5646C38.369 26.1018 37.5562 28.4789 35.9304 30.6958C34.3292 32.9128 32.0876 34.9943 29.2056 36.9403V37.0142H34.6002C36.0043 37.0142 36.9773 36.8417 37.5192 36.4969C38.0611 36.152 38.3814 35.7086 38.4799 35.1667ZM54.2062 17.431C55.4871 17.431 56.7434 17.6773 57.975 18.17C59.2066 18.6626 60.3151 19.4263 61.3004 20.4608C62.2858 21.4954 63.0617 22.801 63.6283 24.3775C64.2194 25.9294 64.515 27.7768 64.515 29.9199C64.515 32.0383 64.2318 33.8858 63.6652 35.4623C63.0986 37.0388 62.3227 38.3567 61.3374 39.4159C60.3521 40.4751 59.2436 41.2633 58.012 41.7806C56.7803 42.2979 55.4994 42.5566 54.1692 42.5566C52.8883 42.5566 51.632 42.3102 50.4004 41.8176C49.1687 41.3249 48.0603 40.5613 47.0749 39.5267C46.0896 38.4921 45.3014 37.1989 44.7102 35.647C44.1436 34.0705 43.8603 32.2107 43.8603 30.0677C43.8603 27.9493 44.1436 26.1018 44.7102 24.5253C45.2767 22.9488 46.0527 21.6309 47.038 20.5717C48.0233 19.5125 49.1318 18.7242 50.3634 18.2069C51.5951 17.6896 52.876 17.431 54.2062 17.431ZM54.317 40.9677C55.0314 40.9677 55.6841 40.6475 56.2753 40.0071C56.8665 39.3666 57.3345 38.2828 57.6794 36.7555C58.0489 35.2283 58.2336 33.1345 58.2336 30.4741C58.2336 28.1586 58.0735 26.151 57.7533 24.4514C57.4577 22.7271 57.002 21.3969 56.3862 20.4608C55.7704 19.5002 54.9944 19.0198 54.0584 19.0198C53.3687 19.0198 52.7159 19.3401 52.1001 19.9805C51.5089 20.621 51.0285 21.7048 50.659 23.232C50.3142 24.7593 50.1417 26.8531 50.1417 29.5134C50.1417 31.8289 50.2895 33.8488 50.5851 35.5731C50.9054 37.2728 51.3734 38.603 51.9892 39.5637C52.605 40.4997 53.381 40.9677 54.317 40.9677ZM89.5944 30.8436L78.1401 31.8413L77.8815 28.8484L89.3358 27.8507L89.5944 30.8436ZM118.188 35.1667H119.038L118.668 42.0023H100.859V41.1525C101.056 41.054 101.351 40.8815 101.746 40.6352C102.164 40.3889 102.595 40.1056 103.039 39.7854C104.27 38.8986 105.428 37.8886 106.512 36.7555C107.596 35.6224 108.544 34.4154 109.357 33.1345C110.17 31.8536 110.81 30.5727 111.278 29.2917C111.747 28.0108 111.981 26.7915 111.981 25.6338C111.981 24.5253 111.71 23.5892 111.168 22.8256C110.65 22.062 109.702 21.6802 108.323 21.6802C107.165 21.6802 106.093 22.0004 105.108 22.6409C104.123 23.2813 103.15 24.2789 102.189 25.6338L101.487 25.0426C102.497 22.4807 103.765 20.5717 105.293 19.3154C106.82 18.0591 108.729 17.431 111.02 17.431C112.35 17.431 113.545 17.6527 114.604 18.0961C115.663 18.5148 116.501 19.1799 117.116 20.0914C117.757 20.9781 118.077 22.1359 118.077 23.5646C118.077 26.1018 117.264 28.4789 115.639 30.6958C114.037 32.9128 111.796 34.9943 108.914 36.9403V37.0142H114.308C115.712 37.0142 116.685 36.8417 117.227 36.4969C117.769 36.152 118.089 35.7086 118.188 35.1667ZM133.286 37.9379C133.286 38.8493 133.36 39.539 133.508 40.0071C133.68 40.4505 134.025 40.746 134.542 40.8938C135.084 41.0416 135.897 41.1279 136.981 41.1525V42.0023H123.31V41.1525C124.418 41.1279 125.231 41.0416 125.748 40.8938C126.29 40.746 126.635 40.4505 126.783 40.0071C126.931 39.539 127.005 38.8493 127.005 37.9379V21.8649L123.605 23.971L122.829 22.7887L131.402 17.431H133.545C133.446 17.899 133.372 18.3671 133.323 18.8351C133.298 19.3031 133.286 19.7711 133.286 20.2392V37.9379ZM150.188 42.0023V41.1525C150.902 41.1032 151.419 40.9185 151.739 40.5982C152.06 40.278 152.22 39.5144 152.22 38.3074V21.1259C152.22 19.9189 152.035 19.1553 151.666 18.8351C151.321 18.4902 150.643 18.3055 149.633 18.2808V17.431H160.164V18.2808C159.45 18.3055 158.932 18.4902 158.612 18.8351C158.292 19.1553 158.132 19.9189 158.132 21.1259V27.666C158.329 27.5182 158.563 27.4196 158.834 27.3704C159.129 27.3211 159.474 27.2965 159.868 27.2965H166.852C167.517 27.2965 167.985 27.1856 168.256 26.9639C168.527 26.7422 168.662 26.2988 168.662 25.6338V21.1259C168.662 19.9189 168.478 19.1553 168.108 18.8351C167.763 18.4902 167.086 18.3055 166.076 18.2808V17.431H176.606V18.2808C175.892 18.3055 175.375 18.4902 175.055 18.8351C174.734 19.1553 174.574 19.9189 174.574 21.1259V38.3074C174.574 39.5144 174.759 40.278 175.128 40.5982C175.498 40.9185 176.175 41.1032 177.161 41.1525V42.0023H166.63V41.1525C167.344 41.1032 167.862 40.9185 168.182 40.5982C168.502 40.278 168.662 39.5144 168.662 38.3074V28.4789C168.465 28.6513 168.219 28.7621 167.923 28.8114C167.628 28.8607 167.295 28.8853 166.926 28.8853H159.942C159.277 28.8853 158.809 28.9961 158.538 29.2178C158.267 29.4395 158.132 29.8706 158.132 30.5111V38.3074C158.132 39.5144 158.316 40.278 158.686 40.5982C159.055 40.9185 159.733 41.1032 160.718 41.1525V42.0023H150.188ZM193.457 16.8768C195.206 16.8768 196.832 17.1724 198.335 17.7635C199.837 18.3547 201.167 19.2169 202.325 20.35C203.483 21.4585 204.382 22.801 205.022 24.3775C205.663 25.954 205.983 27.7152 205.983 29.6612C205.983 31.6072 205.663 33.3685 205.022 34.945C204.382 36.5215 203.483 37.8763 202.325 39.0094C201.192 40.1425 199.862 41.017 198.335 41.6328C196.807 42.2487 195.169 42.5566 193.42 42.5566C191.696 42.5566 190.07 42.261 188.543 41.6698C187.04 41.0786 185.71 40.2288 184.553 39.1203C183.395 37.9872 182.496 36.6323 181.855 35.0558C181.215 33.4793 180.895 31.7181 180.895 29.7721C180.895 27.8261 181.215 26.0648 181.855 24.4883C182.496 22.9118 183.382 21.557 184.516 20.4239C185.673 19.2908 187.016 18.4163 188.543 17.8005C190.07 17.1847 191.708 16.8768 193.457 16.8768ZM194.196 40.9677C195.477 40.9677 196.487 40.549 197.226 39.7115C197.965 38.8493 198.495 37.6669 198.815 36.1643C199.16 34.6617 199.332 32.9128 199.332 30.9175C199.332 26.9024 198.716 23.8232 197.485 21.6802C196.278 19.5371 194.677 18.4656 192.681 18.4656C191.425 18.4656 190.415 18.8843 189.652 19.7219C188.913 20.5594 188.371 21.7418 188.026 23.269C187.706 24.7716 187.545 26.5205 187.545 28.5158C187.545 32.531 188.149 35.6101 189.356 37.7531C190.588 39.8962 192.201 40.9677 194.196 40.9677ZM210.182 42.5566C209.567 42.5566 208.914 42.5073 208.224 42.4088C207.534 42.3102 206.943 42.1748 206.451 42.0023V41.1525C206.943 41.1525 207.497 40.9554 208.113 40.5613C208.729 40.1672 209.357 39.3789 209.998 38.1965L215.281 28.6267C213.631 28.2079 212.375 27.5305 211.513 26.5944C210.675 25.6584 210.256 24.5253 210.256 23.1951C210.256 22.1605 210.564 21.1875 211.18 20.2761C211.82 19.3647 212.855 18.638 214.284 18.0961C215.737 17.5295 217.683 17.2463 220.122 17.2463C220.91 17.2463 221.821 17.2832 222.856 17.3571C223.891 17.4064 225.036 17.431 226.292 17.431H231.022V18.2808C230.307 18.3055 229.79 18.4902 229.47 18.8351C229.15 19.1553 228.99 19.9189 228.99 21.1259V38.3074C228.99 39.5144 229.174 40.278 229.544 40.5982C229.913 40.9185 230.591 41.1032 231.576 41.1525V42.0023H221.046V41.1525C221.76 41.1032 222.277 40.9185 222.597 40.5982C222.918 40.278 223.078 39.5144 223.078 38.3074V21.1259C223.078 20.1653 222.905 19.5494 222.56 19.2785C222.24 18.9829 221.674 18.8351 220.861 18.8351C219.802 18.8351 218.841 19.2169 217.979 19.9805C217.141 20.7195 216.722 21.8403 216.722 23.3429C216.722 24.1312 216.883 24.8948 217.203 25.6338C217.523 26.3481 218.09 26.9516 218.902 27.4443C219.74 27.9369 220.885 28.2325 222.339 28.3311V29.6243C222.043 29.6243 221.784 29.6859 221.563 29.809C221.341 29.9076 221.119 30.1662 220.898 30.585L216.722 38.6399C216.156 39.7238 215.368 40.6475 214.358 41.4111C213.348 42.1748 211.956 42.5566 210.182 42.5566ZM243.252 27.2226H246.836C249.521 27.2226 251.64 27.5182 253.192 28.1094C254.744 28.7006 255.84 29.5134 256.48 30.548C257.145 31.5826 257.478 32.7773 257.478 34.1321C257.478 35.4869 257.108 36.7678 256.369 37.9748C255.655 39.1572 254.534 40.1302 253.007 40.8938C251.504 41.6328 249.583 42.0023 247.243 42.0023H235.308V41.1525C236.023 41.1032 236.54 40.9185 236.86 40.5982C237.18 40.278 237.34 39.5144 237.34 38.3074V21.1259C237.34 19.9189 237.156 19.1553 236.786 18.8351C236.441 18.4902 235.764 18.3055 234.754 18.2808V17.431H255.076V23.5276H254.226C254.152 22.6901 253.992 21.9388 253.746 21.2737C253.5 20.584 253.081 20.0421 252.49 19.648C251.899 19.2292 251.049 19.0198 249.94 19.0198H244.878C244.361 19.0198 243.954 19.1553 243.659 19.4263C243.388 19.6972 243.252 20.2638 243.252 21.1259V27.2226ZM245.432 40.4135C246.738 40.4135 247.809 40.1056 248.647 39.4898C249.509 38.8493 250.15 38.0611 250.568 37.125C250.987 36.189 251.196 35.2652 251.196 34.3538C251.196 32.999 250.938 31.9151 250.421 31.1023C249.928 30.2894 249.25 29.7105 248.388 29.3656C247.551 28.9961 246.602 28.8114 245.543 28.8114H243.252V38.3074C243.252 39.1695 243.388 39.7361 243.659 40.0071C243.93 40.278 244.521 40.4135 245.432 40.4135ZM261.397 42.0023V41.1525C262.111 41.1032 262.628 40.9185 262.948 40.5982C263.269 40.278 263.429 39.5144 263.429 38.3074V21.1259C263.429 19.9189 263.244 19.1553 262.874 18.8351C262.53 18.4902 261.852 18.3055 260.842 18.2808V17.431H263.429C265.227 17.431 266.914 17.4064 268.491 17.3571C270.067 17.2832 271.25 17.2463 272.038 17.2463C274.6 17.2463 276.62 17.5295 278.098 18.0961C279.6 18.6626 280.672 19.4139 281.312 20.35C281.977 21.2614 282.31 22.2714 282.31 23.3798C282.31 24.6608 281.891 25.8801 281.054 27.0378C280.241 28.1956 278.935 29.0947 277.137 29.7351C275.363 30.351 273.011 30.548 270.08 30.3263V29.0331C271.41 29.0824 272.506 28.8484 273.368 28.3311C274.23 27.7891 274.858 27.0748 275.253 26.188C275.671 25.3012 275.881 24.3528 275.881 23.3429C275.881 21.9881 275.499 20.9042 274.735 20.0914C273.972 19.2538 272.912 18.8351 271.558 18.8351C270.745 18.8351 270.166 18.9829 269.821 19.2785C269.501 19.5494 269.341 20.1653 269.341 21.1259V38.3074C269.341 39.0956 269.415 39.6991 269.562 40.1179C269.735 40.512 270.03 40.783 270.449 40.9308C270.893 41.054 271.508 41.1279 272.297 41.1525V42.0023H261.397ZM286.21 42.5566C285.594 42.5566 284.941 42.5073 284.252 42.4088C283.562 42.3102 282.971 42.1748 282.478 42.0023V41.1525C282.971 41.1525 283.525 40.9554 284.141 40.5613C284.757 40.1672 285.385 39.3789 286.025 38.1965L291.309 28.6267C289.659 28.2079 288.402 27.5305 287.54 26.5944C286.703 25.6584 286.284 24.5253 286.284 23.1951C286.284 22.1605 286.592 21.1875 287.208 20.2761C287.848 19.3647 288.883 18.638 290.311 18.0961C291.765 17.5295 293.711 17.2463 296.149 17.2463C296.938 17.2463 297.849 17.2832 298.884 17.3571C299.918 17.4064 301.064 17.431 302.32 17.431H307.049V18.2808C306.335 18.3055 305.818 18.4902 305.498 18.8351C305.177 19.1553 305.017 19.9189 305.017 21.1259V38.3074C305.017 39.5144 305.202 40.278 305.571 40.5982C305.941 40.9185 306.618 41.1032 307.604 41.1525V42.0023H297.073V41.1525C297.787 41.1032 298.305 40.9185 298.625 40.5982C298.945 40.278 299.105 39.5144 299.105 38.3074V21.1259C299.105 20.1653 298.933 19.5494 298.588 19.2785C298.268 18.9829 297.701 18.8351 296.888 18.8351C295.829 18.8351 294.869 19.2169 294.006 19.9805C293.169 20.7195 292.75 21.8403 292.75 23.3429C292.75 24.1312 292.91 24.8948 293.23 25.6338C293.551 26.3481 294.117 26.9516 294.93 27.4443C295.768 27.9369 296.913 28.2325 298.366 28.3311V29.6243C298.071 29.6243 297.812 29.6859 297.59 29.809C297.369 29.9076 297.147 30.1662 296.925 30.585L292.75 38.6399C292.184 39.7238 291.395 40.6475 290.385 41.4111C289.375 42.1748 287.984 42.5566 286.21 42.5566ZM336.961 35.1667H337.811L337.442 42.0023H319.632V41.1525C319.829 41.054 320.125 40.8815 320.519 40.6352C320.938 40.3889 321.369 40.1056 321.812 39.7854C323.044 38.8986 324.202 37.8886 325.285 36.7555C326.369 35.6224 327.318 34.4154 328.131 33.1345C328.943 31.8536 329.584 30.5727 330.052 29.2917C330.52 28.0108 330.754 26.7915 330.754 25.6338C330.754 24.5253 330.483 23.5892 329.941 22.8256C329.424 22.062 328.475 21.6802 327.096 21.6802C325.938 21.6802 324.867 22.0004 323.881 22.6409C322.896 23.2813 321.923 24.2789 320.962 25.6338L320.26 25.0426C321.27 22.4807 322.539 20.5717 324.066 19.3154C325.593 18.0591 327.502 17.431 329.793 17.431C331.123 17.431 332.318 17.6527 333.377 18.0961C334.437 18.5148 335.274 19.1799 335.89 20.0914C336.53 20.9781 336.851 22.1359 336.851 23.5646C336.851 26.1018 336.038 28.4789 334.412 30.6958C332.811 32.9128 330.569 34.9943 327.687 36.9403V37.0142H333.082C334.486 37.0142 335.459 36.8417 336.001 36.4969C336.543 36.152 336.863 35.7086 336.961 35.1667ZM352.688 17.431C353.969 17.431 355.225 17.6773 356.457 18.17C357.688 18.6626 358.797 19.4263 359.782 20.4608C360.767 21.4954 361.543 22.801 362.11 24.3775C362.701 25.9294 362.997 27.7768 362.997 29.9199C362.997 32.0383 362.713 33.8858 362.147 35.4623C361.58 37.0388 360.804 38.3567 359.819 39.4159C358.834 40.4751 357.725 41.2633 356.493 41.7806C355.262 42.2979 353.981 42.5566 352.651 42.5566C351.37 42.5566 350.114 42.3102 348.882 41.8176C347.65 41.3249 346.542 40.5613 345.556 39.5267C344.571 38.4921 343.783 37.1989 343.192 35.647C342.625 34.0705 342.342 32.2107 342.342 30.0677C342.342 27.9493 342.625 26.1018 343.192 24.5253C343.758 22.9488 344.534 21.6309 345.52 20.5717C346.505 19.5125 347.613 18.7242 348.845 18.2069C350.077 17.6896 351.358 17.431 352.688 17.431ZM352.799 40.9677C353.513 40.9677 354.166 40.6475 354.757 40.0071C355.348 39.3666 355.816 38.2828 356.161 36.7555C356.53 35.2283 356.715 33.1345 356.715 30.4741C356.715 28.1586 356.555 26.151 356.235 24.4514C355.939 22.7271 355.484 21.3969 354.868 20.4608C354.252 19.5002 353.476 19.0198 352.54 19.0198C351.85 19.0198 351.197 19.3401 350.582 19.9805C349.99 20.621 349.51 21.7048 349.141 23.232C348.796 24.7593 348.623 26.8531 348.623 29.5134C348.623 31.8289 348.771 33.8488 349.067 35.5731C349.387 37.2728 349.855 38.603 350.471 39.5637C351.087 40.4997 351.862 40.9677 352.799 40.9677ZM383.401 35.1667H384.251L383.881 42.0023H366.071V41.1525C366.269 41.054 366.564 40.8815 366.958 40.6352C367.377 40.3889 367.808 40.1056 368.251 39.7854C369.483 38.8986 370.641 37.8886 371.725 36.7555C372.809 35.6224 373.757 34.4154 374.57 33.1345C375.383 31.8536 376.023 30.5727 376.491 29.2917C376.959 28.0108 377.193 26.7915 377.193 25.6338C377.193 24.5253 376.922 23.5892 376.38 22.8256C375.863 22.062 374.915 21.6802 373.535 21.6802C372.377 21.6802 371.306 22.0004 370.321 22.6409C369.335 23.2813 368.362 24.2789 367.402 25.6338L366.7 25.0426C367.71 22.4807 368.978 20.5717 370.505 19.3154C372.033 18.0591 373.942 17.431 376.233 17.431C377.563 17.431 378.757 17.6527 379.817 18.0961C380.876 18.5148 381.713 19.1799 382.329 20.0914C382.97 20.9781 383.29 22.1359 383.29 23.5646C383.29 26.1018 382.477 28.4789 380.851 30.6958C379.25 32.9128 377.008 34.9943 374.126 36.9403V37.0142H379.521C380.925 37.0142 381.898 36.8417 382.44 36.4969C382.982 36.152 383.302 35.7086 383.401 35.1667ZM403.93 32.5802L406.517 32.5802V37.1989H404.965C404.275 37.1989 403.93 37.63 403.93 38.4921C403.93 39.0833 403.93 39.6622 403.93 40.2288C403.955 40.7707 403.98 41.3619 404.004 42.0023H398.166C398.216 41.1894 398.253 40.4012 398.277 39.6376C398.302 38.8493 398.326 38.0364 398.351 37.1989H386.675V36.3491C387.315 35.7332 387.894 35.0928 388.412 34.4277L400.494 19.3154C400.765 18.9706 401.011 18.638 401.233 18.3178C401.479 17.9729 401.676 17.6773 401.824 17.431H403.967L403.93 32.5802ZM398.277 24.8578L392.107 32.5802H398.388V24.8578H398.277ZM436.831 17.431V24.2666H435.981C435.858 23.1828 435.636 22.259 435.316 21.4954C435.02 20.7072 434.552 20.1037 433.912 19.6849C433.296 19.2415 432.434 19.0198 431.325 19.0198H429.589C429.072 19.0198 428.665 19.1553 428.369 19.4263C428.099 19.6972 427.963 20.2638 427.963 21.1259V38.3074C427.963 39.5144 428.148 40.278 428.517 40.5982C428.887 40.9185 429.564 41.1032 430.55 41.1525V42.0023H420.019V41.1525C420.733 41.1032 421.251 40.9185 421.571 40.5982C421.891 40.278 422.051 39.5144 422.051 38.3074V21.1259C422.051 19.9189 421.866 19.1553 421.497 18.8351C421.152 18.4902 420.475 18.3055 419.465 18.2808V17.431H436.831ZM451.634 16.8768C453.383 16.8768 455.008 17.1724 456.511 17.7635C458.014 18.3547 459.344 19.2169 460.502 20.35C461.659 21.4585 462.558 22.801 463.199 24.3775C463.839 25.954 464.16 27.7152 464.16 29.6612C464.16 31.6072 463.839 33.3685 463.199 34.945C462.558 36.5215 461.659 37.8763 460.502 39.0094C459.368 40.1425 458.038 41.017 456.511 41.6328C454.984 42.2487 453.346 42.5566 451.597 42.5566C449.872 42.5566 448.247 42.261 446.719 41.6698C445.217 41.0786 443.887 40.2288 442.729 39.1203C441.571 37.9872 440.672 36.6323 440.032 35.0558C439.391 33.4793 439.071 31.7181 439.071 29.7721C439.071 27.8261 439.391 26.0648 440.032 24.4883C440.672 22.9118 441.559 21.557 442.692 20.4239C443.85 19.2908 445.192 18.4163 446.719 17.8005C448.247 17.1847 449.885 16.8768 451.634 16.8768ZM452.373 40.9677C453.654 40.9677 454.664 40.549 455.403 39.7115C456.142 38.8493 456.671 37.6669 456.991 36.1643C457.336 34.6617 457.509 32.9128 457.509 30.9175C457.509 26.9024 456.893 23.8232 455.661 21.6802C454.454 19.5371 452.853 18.4656 450.858 18.4656C449.602 18.4656 448.592 18.8843 447.828 19.7219C447.089 20.5594 446.547 21.7418 446.202 23.269C445.882 24.7716 445.722 26.5205 445.722 28.5158C445.722 32.531 446.325 35.6101 447.532 37.7531C448.764 39.8962 450.377 40.9677 452.373 40.9677ZM480.183 20.35L486.316 38.3074C486.538 38.9478 486.858 39.539 487.277 40.081C487.72 40.5982 488.398 40.9554 489.309 41.1525L487.609 49.5769H486.76C486.71 48.0497 486.489 46.7195 486.094 45.5864C485.7 44.4533 485.208 43.5665 484.617 42.9261C484.025 42.3102 483.385 42.0023 482.695 42.0023H472.793C471.881 42.0023 470.982 42.3102 470.095 42.9261C469.233 43.5665 468.494 44.4533 467.878 45.5864C467.287 46.7195 466.905 48.0497 466.733 49.5769H465.883V41.1525C466.327 40.9554 466.758 40.6229 467.176 40.1549C467.595 39.6622 467.977 39.108 468.322 38.4921C468.691 37.8763 468.975 37.2974 469.172 36.7555L475.453 20.35C475.699 19.7095 475.933 19.0814 476.155 18.4656C476.377 17.8498 476.574 17.2216 476.746 16.5812H478.889C479.062 17.2216 479.259 17.8498 479.481 18.4656C479.727 19.0814 479.961 19.7095 480.183 20.35ZM478.631 40.4135C479.616 40.4135 480.158 40.2534 480.256 39.9332C480.355 39.6129 480.269 39.071 479.998 38.3074L475.675 25.0056H475.601L469.837 40.4135H478.631ZM511.921 38.3074C512.266 39.1449 512.549 39.7607 512.771 40.1549C513.017 40.549 513.276 40.8076 513.547 40.9308C513.818 41.0293 514.15 41.1032 514.544 41.1525V42.0023H504.235V41.1525C505.221 41.1032 505.763 40.8076 505.861 40.2657C505.984 39.7238 505.898 39.071 505.603 38.3074L503.755 33.504C503.607 33.6271 503.41 33.7134 503.164 33.7626C502.942 33.7872 502.696 33.7996 502.425 33.7996H498.25C497.732 33.7996 497.338 33.8611 497.067 33.9843C496.796 34.1075 496.562 34.4154 496.365 34.908L495.035 38.3074C494.715 39.1203 494.74 39.7854 495.109 40.3027C495.478 40.8199 496.205 41.1032 497.289 41.1525V42.0023H490.564V41.1525C491.106 41.1032 491.562 40.8323 491.931 40.3396C492.325 39.8223 492.683 39.1449 493.003 38.3074L500.097 20.35C500.368 19.7095 500.602 19.0814 500.799 18.4656C501.021 17.8498 501.218 17.2216 501.39 16.5812H503.533C503.706 17.2216 503.903 17.8498 504.125 18.4656C504.346 19.0814 504.58 19.7095 504.827 20.35L511.921 38.3074ZM502.24 32.2107C502.585 32.2107 502.807 32.1615 502.905 32.0629C503.028 31.9398 503.016 31.6935 502.868 31.324L500.319 25.0056H500.245L497.363 32.3585C497.486 32.2846 497.634 32.2477 497.806 32.2477C497.979 32.2231 498.176 32.2107 498.397 32.2107H502.24Z" fill="black"/>
<path d="M552.302 25.79C548.619 24.3192 544.298 25.1036 541.351 28.0453C537.373 32.0165 537.373 38.4391 541.351 42.4104C544.298 45.352 548.619 46.1365 552.302 44.6657V39.959C551.566 40.3022 550.78 40.4983 549.945 40.4983C546.999 40.4983 544.641 38.145 544.641 35.2033C544.641 32.2617 546.999 29.9083 549.945 29.9083C550.78 29.9083 551.615 30.1044 552.302 30.4476V25.79Z" fill="black"/>
<path d="M550.636 21.0733C552.087 19.6189 552.087 17.2116 550.636 15.707C549.186 14.2526 546.784 14.2526 545.284 15.707C543.783 17.1614 543.833 19.5687 545.284 21.0733C546.784 22.5277 549.186 22.5277 550.636 21.0733Z" fill="black"/>
<path d="M592.81 35.1667H593.659L593.29 42.0023H575.48V41.1525C575.677 41.054 575.973 40.8815 576.367 40.6352C576.786 40.3889 577.217 40.1056 577.66 39.7854C578.892 38.8986 580.05 37.8886 581.134 36.7555C582.217 35.6224 583.166 34.4154 583.979 33.1345C584.792 31.8536 585.432 30.5727 585.9 29.2917C586.368 28.0108 586.602 26.7915 586.602 25.6338C586.602 24.5253 586.331 23.5892 585.789 22.8256C585.272 22.062 584.323 21.6802 582.944 21.6802C581.786 21.6802 580.715 22.0004 579.729 22.6409C578.744 23.2813 577.771 24.2789 576.81 25.6338L576.108 25.0426C577.118 22.4807 578.387 20.5717 579.914 19.3154C581.441 18.0591 583.35 17.431 585.641 17.431C586.972 17.431 588.166 17.6527 589.225 18.0961C590.285 18.5148 591.122 19.1799 591.738 20.0914C592.378 20.9781 592.699 22.1359 592.699 23.5646C592.699 26.1018 591.886 28.4789 590.26 30.6958C588.659 32.9128 586.417 34.9943 583.535 36.9403V37.0142H588.93C590.334 37.0142 591.307 36.8417 591.849 36.4969C592.391 36.152 592.711 35.7086 592.81 35.1667ZM608.536 17.431C609.817 17.431 611.073 17.6773 612.305 18.17C613.536 18.6626 614.645 19.4263 615.63 20.4608C616.615 21.4954 617.391 22.801 617.958 24.3775C618.549 25.9294 618.845 27.7768 618.845 29.9199C618.845 32.0383 618.561 33.8858 617.995 35.4623C617.428 37.0388 616.652 38.3567 615.667 39.4159C614.682 40.4751 613.573 41.2633 612.342 41.7806C611.11 42.2979 609.829 42.5566 608.499 42.5566C607.218 42.5566 605.962 42.3102 604.73 41.8176C603.498 41.3249 602.39 40.5613 601.405 39.5267C600.419 38.4921 599.631 37.1989 599.04 35.647C598.473 34.0705 598.19 32.2107 598.19 30.0677C598.19 27.9493 598.473 26.1018 599.04 24.5253C599.606 22.9488 600.382 21.6309 601.368 20.5717C602.353 19.5125 603.461 18.7242 604.693 18.2069C605.925 17.6896 607.206 17.431 608.536 17.431ZM608.647 40.9677C609.361 40.9677 610.014 40.6475 610.605 40.0071C611.196 39.3666 611.664 38.2828 612.009 36.7555C612.379 35.2283 612.563 33.1345 612.563 30.4741C612.563 28.1586 612.403 26.151 612.083 24.4514C611.787 22.7271 611.332 21.3969 610.716 20.4608C610.1 19.5002 609.324 19.0198 608.388 19.0198C607.698 19.0198 607.046 19.3401 606.43 19.9805C605.839 20.621 605.358 21.7048 604.989 23.232C604.644 24.7593 604.471 26.8531 604.471 29.5134C604.471 31.8289 604.619 33.8488 604.915 35.5731C605.235 37.2728 605.703 38.603 606.319 39.5637C606.935 40.4997 607.711 40.9677 608.647 40.9677ZM643.924 30.8436L632.47 31.8413L632.211 28.8484L643.665 27.8507L643.924 30.8436ZM672.518 35.1667H673.367L672.998 42.0023H655.188V41.1525C655.385 41.054 655.681 40.8815 656.075 40.6352C656.494 40.3889 656.925 40.1056 657.368 39.7854C658.6 38.8986 659.758 37.8886 660.842 36.7555C661.926 35.6224 662.874 34.4154 663.687 33.1345C664.5 31.8536 665.14 30.5727 665.608 29.2917C666.076 28.0108 666.31 26.7915 666.31 25.6338C666.31 24.5253 666.039 23.5892 665.497 22.8256C664.98 22.062 664.032 21.6802 662.652 21.6802C661.494 21.6802 660.423 22.0004 659.438 22.6409C658.452 23.2813 657.479 24.2789 656.519 25.6338L655.817 25.0426C656.827 22.4807 658.095 20.5717 659.622 19.3154C661.15 18.0591 663.059 17.431 665.349 17.431C666.68 17.431 667.874 17.6527 668.934 18.0961C669.993 18.5148 670.83 19.1799 671.446 20.0914C672.087 20.9781 672.407 22.1359 672.407 23.5646C672.407 26.1018 671.594 28.4789 669.968 30.6958C668.367 32.9128 666.125 34.9943 663.243 36.9403V37.0142H668.638C670.042 37.0142 671.015 36.8417 671.557 36.4969C672.099 36.152 672.419 35.7086 672.518 35.1667ZM687.616 37.9379C687.616 38.8493 687.69 39.539 687.838 40.0071C688.01 40.4505 688.355 40.746 688.872 40.8938C689.414 41.0416 690.227 41.1279 691.311 41.1525V42.0023H677.639V41.1525C678.748 41.1279 679.561 41.0416 680.078 40.8938C680.62 40.746 680.965 40.4505 681.113 40.0071C681.261 39.539 681.334 38.8493 681.334 37.9379V21.8649L677.935 23.971L677.159 22.7887L685.731 17.431H687.874C687.776 17.899 687.702 18.3671 687.653 18.8351C687.628 19.3031 687.616 19.7711 687.616 20.2392V37.9379ZM704.517 42.0023V41.1525C705.232 41.1032 705.749 40.9185 706.069 40.5982C706.389 40.278 706.549 39.5144 706.549 38.3074V21.1259C706.549 19.9189 706.365 19.1553 705.995 18.8351C705.65 18.4902 704.973 18.3055 703.963 18.2808V17.431H714.494V18.2808C713.779 18.3055 713.262 18.4902 712.942 18.8351C712.621 19.1553 712.461 19.9189 712.461 21.1259V27.666C712.658 27.5182 712.892 27.4196 713.163 27.3704C713.459 27.3211 713.804 27.2965 714.198 27.2965H721.181C721.846 27.2965 722.315 27.1856 722.585 26.9639C722.856 26.7422 722.992 26.2988 722.992 25.6338V21.1259C722.992 19.9189 722.807 19.1553 722.438 18.8351C722.093 18.4902 721.415 18.3055 720.405 18.2808V17.431H730.936V18.2808C730.222 18.3055 729.704 18.4902 729.384 18.8351C729.064 19.1553 728.904 19.9189 728.904 21.1259V38.3074C728.904 39.5144 729.089 40.278 729.458 40.5982C729.828 40.9185 730.505 41.1032 731.49 41.1525V42.0023H720.96V41.1525C721.674 41.1032 722.191 40.9185 722.512 40.5982C722.832 40.278 722.992 39.5144 722.992 38.3074V28.4789C722.795 28.6513 722.549 28.7621 722.253 28.8114C721.957 28.8607 721.625 28.8853 721.255 28.8853H714.272C713.607 28.8853 713.139 28.9961 712.868 29.2178C712.597 29.4395 712.461 29.8706 712.461 30.5111V38.3074C712.461 39.5144 712.646 40.278 713.016 40.5982C713.385 40.9185 714.062 41.1032 715.048 41.1525V42.0023H704.517ZM747.787 16.8768C749.536 16.8768 751.162 17.1724 752.664 17.7635C754.167 18.3547 755.497 19.2169 756.655 20.35C757.813 21.4585 758.712 22.801 759.352 24.3775C759.993 25.954 760.313 27.7152 760.313 29.6612C760.313 31.6072 759.993 33.3685 759.352 34.945C758.712 36.5215 757.813 37.8763 756.655 39.0094C755.522 40.1425 754.192 41.017 752.664 41.6328C751.137 42.2487 749.499 42.5566 747.75 42.5566C746.026 42.5566 744.4 42.261 742.873 41.6698C741.37 41.0786 740.04 40.2288 738.882 39.1203C737.724 37.9872 736.825 36.6323 736.185 35.0558C735.544 33.4793 735.224 31.7181 735.224 29.7721C735.224 27.8261 735.544 26.0648 736.185 24.4883C736.825 22.9118 737.712 21.557 738.845 20.4239C740.003 19.2908 741.345 18.4163 742.873 17.8005C744.4 17.1847 746.038 16.8768 747.787 16.8768ZM748.526 40.9677C749.807 40.9677 750.817 40.549 751.556 39.7115C752.295 38.8493 752.824 37.6669 753.145 36.1643C753.489 34.6617 753.662 32.9128 753.662 30.9175C753.662 26.9024 753.046 23.8232 751.814 21.6802C750.607 19.5371 749.006 18.4656 747.011 18.4656C745.755 18.4656 744.745 18.8843 743.981 19.7219C743.242 20.5594 742.7 21.7418 742.355 23.269C742.035 24.7716 741.875 26.5205 741.875 28.5158C741.875 32.531 742.479 35.6101 743.686 37.7531C744.917 39.8962 746.531 40.9677 748.526 40.9677ZM764.512 42.5566C763.896 42.5566 763.243 42.5073 762.554 42.4088C761.864 42.3102 761.273 42.1748 760.78 42.0023V41.1525C761.273 41.1525 761.827 40.9554 762.443 40.5613C763.059 40.1672 763.687 39.3789 764.327 38.1965L769.611 28.6267C767.961 28.2079 766.704 27.5305 765.842 26.5944C765.005 25.6584 764.586 24.5253 764.586 23.1951C764.586 22.1605 764.894 21.1875 765.51 20.2761C766.15 19.3647 767.185 18.638 768.613 18.0961C770.067 17.5295 772.013 17.2463 774.451 17.2463C775.24 17.2463 776.151 17.2832 777.186 17.3571C778.22 17.4064 779.366 17.431 780.622 17.431H785.351V18.2808C784.637 18.3055 784.12 18.4902 783.8 18.8351C783.479 19.1553 783.319 19.9189 783.319 21.1259V38.3074C783.319 39.5144 783.504 40.278 783.873 40.5982C784.243 40.9185 784.92 41.1032 785.906 41.1525V42.0023H775.375V41.1525C776.089 41.1032 776.607 40.9185 776.927 40.5982C777.247 40.278 777.407 39.5144 777.407 38.3074V21.1259C777.407 20.1653 777.235 19.5494 776.89 19.2785C776.57 18.9829 776.003 18.8351 775.19 18.8351C774.131 18.8351 773.17 19.2169 772.308 19.9805C771.471 20.7195 771.052 21.8403 771.052 23.3429C771.052 24.1312 771.212 24.8948 771.532 25.6338C771.853 26.3481 772.419 26.9516 773.232 27.4443C774.07 27.9369 775.215 28.2325 776.668 28.3311V29.6243C776.373 29.6243 776.114 29.6859 775.892 29.809C775.671 29.9076 775.449 30.1662 775.227 30.585L771.052 38.6399C770.486 39.7238 769.697 40.6475 768.687 41.4111C767.677 42.1748 766.286 42.5566 764.512 42.5566ZM797.582 27.2226H801.166C803.851 27.2226 805.97 27.5182 807.521 28.1094C809.073 28.7006 810.169 29.5134 810.81 30.548C811.475 31.5826 811.808 32.7773 811.808 34.1321C811.808 35.4869 811.438 36.7678 810.699 37.9748C809.985 39.1572 808.864 40.1302 807.337 40.8938C805.834 41.6328 803.913 42.0023 801.573 42.0023H789.638V41.1525C790.352 41.1032 790.87 40.9185 791.19 40.5982C791.51 40.278 791.67 39.5144 791.67 38.3074V21.1259C791.67 19.9189 791.485 19.1553 791.116 18.8351C790.771 18.4902 790.094 18.3055 789.084 18.2808V17.431H809.406V23.5276H808.556C808.482 22.6901 808.322 21.9388 808.076 21.2737C807.829 20.584 807.411 20.0421 806.819 19.648C806.228 19.2292 805.378 19.0198 804.27 19.0198H799.208C798.69 19.0198 798.284 19.1553 797.988 19.4263C797.717 19.6972 797.582 20.2638 797.582 21.1259V27.2226ZM799.762 40.4135C801.068 40.4135 802.139 40.1056 802.977 39.4898C803.839 38.8493 804.479 38.0611 804.898 37.125C805.317 36.189 805.526 35.2652 805.526 34.3538C805.526 32.999 805.267 31.9151 804.75 31.1023C804.258 30.2894 803.58 29.7105 802.718 29.3656C801.88 28.9961 800.932 28.8114 799.873 28.8114H797.582V38.3074C797.582 39.1695 797.717 39.7361 797.988 40.0071C798.259 40.278 798.851 40.4135 799.762 40.4135ZM815.726 42.0023V41.1525C816.441 41.1032 816.958 40.9185 817.278 40.5982C817.598 40.278 817.758 39.5144 817.758 38.3074V21.1259C817.758 19.9189 817.574 19.1553 817.204 18.8351C816.859 18.4902 816.182 18.3055 815.172 18.2808V17.431H817.758C819.557 17.431 821.244 17.4064 822.82 17.3571C824.397 17.2832 825.579 17.2463 826.368 17.2463C828.929 17.2463 830.949 17.5295 832.427 18.0961C833.93 18.6626 835.001 19.4139 835.642 20.35C836.307 21.2614 836.639 22.2714 836.639 23.3798C836.639 24.6608 836.221 25.8801 835.383 27.0378C834.57 28.1956 833.265 29.0947 831.467 29.7351C829.693 30.351 827.341 30.548 824.409 30.3263V29.0331C825.739 29.0824 826.836 28.8484 827.698 28.3311C828.56 27.7891 829.188 27.0748 829.582 26.188C830.001 25.3012 830.21 24.3528 830.21 23.3429C830.21 21.9881 829.828 20.9042 829.065 20.0914C828.301 19.2538 827.242 18.8351 825.887 18.8351C825.074 18.8351 824.495 18.9829 824.151 19.2785C823.83 19.5494 823.67 20.1653 823.67 21.1259V38.3074C823.67 39.0956 823.744 39.6991 823.892 40.1179C824.064 40.512 824.36 40.783 824.779 40.9308C825.222 41.054 825.838 41.1279 826.626 41.1525V42.0023H815.726ZM840.54 42.5566C839.924 42.5566 839.271 42.5073 838.581 42.4088C837.892 42.3102 837.3 42.1748 836.808 42.0023V41.1525C837.3 41.1525 837.855 40.9554 838.471 40.5613C839.086 40.1672 839.714 39.3789 840.355 38.1965L845.639 28.6267C843.988 28.2079 842.732 27.5305 841.87 26.5944C841.032 25.6584 840.614 24.5253 840.614 23.1951C840.614 22.1605 840.921 21.1875 841.537 20.2761C842.178 19.3647 843.212 18.638 844.641 18.0961C846.094 17.5295 848.04 17.2463 850.479 17.2463C851.267 17.2463 852.179 17.2832 853.213 17.3571C854.248 17.4064 855.393 17.431 856.65 17.431H861.379V18.2808C860.665 18.3055 860.147 18.4902 859.827 18.8351C859.507 19.1553 859.347 19.9189 859.347 21.1259V38.3074C859.347 39.5144 859.532 40.278 859.901 40.5982C860.271 40.9185 860.948 41.1032 861.933 41.1525V42.0023H851.403V41.1525C852.117 41.1032 852.634 40.9185 852.955 40.5982C853.275 40.278 853.435 39.5144 853.435 38.3074V21.1259C853.435 20.1653 853.263 19.5494 852.918 19.2785C852.597 18.9829 852.031 18.8351 851.218 18.8351C850.159 18.8351 849.198 19.2169 848.336 19.9805C847.498 20.7195 847.08 21.8403 847.08 23.3429C847.08 24.1312 847.24 24.8948 847.56 25.6338C847.88 26.3481 848.447 26.9516 849.26 27.4443C850.097 27.9369 851.243 28.2325 852.696 28.3311V29.6243C852.4 29.6243 852.142 29.6859 851.92 29.809C851.698 29.9076 851.477 30.1662 851.255 30.585L847.08 38.6399C846.513 39.7238 845.725 40.6475 844.715 41.4111C843.705 42.1748 842.313 42.5566 840.54 42.5566ZM891.291 35.1667H892.141L891.771 42.0023H873.962V41.1525C874.159 41.054 874.454 40.8815 874.849 40.6352C875.267 40.3889 875.698 40.1056 876.142 39.7854C877.373 38.8986 878.531 37.8886 879.615 36.7555C880.699 35.6224 881.647 34.4154 882.46 33.1345C883.273 31.8536 883.913 30.5727 884.382 29.2917C884.85 28.0108 885.084 26.7915 885.084 25.6338C885.084 24.5253 884.813 23.5892 884.271 22.8256C883.753 22.062 882.805 21.6802 881.426 21.6802C880.268 21.6802 879.196 22.0004 878.211 22.6409C877.226 23.2813 876.253 24.2789 875.292 25.6338L874.59 25.0426C875.6 22.4807 876.868 20.5717 878.396 19.3154C879.923 18.0591 881.832 17.431 884.123 17.431C885.453 17.431 886.648 17.6527 887.707 18.0961C888.766 18.5148 889.604 19.1799 890.22 20.0914C890.86 20.9781 891.18 22.1359 891.18 23.5646C891.18 26.1018 890.367 28.4789 888.742 30.6958C887.14 32.9128 884.899 34.9943 882.017 36.9403V37.0142H887.411C888.815 37.0142 889.788 36.8417 890.33 36.4969C890.872 36.152 891.193 35.7086 891.291 35.1667ZM907.017 17.431C908.298 17.431 909.555 17.6773 910.786 18.17C912.018 18.6626 913.126 19.4263 914.112 20.4608C915.097 21.4954 915.873 22.801 916.439 24.3775C917.031 25.9294 917.326 27.7768 917.326 29.9199C917.326 32.0383 917.043 33.8858 916.476 35.4623C915.91 37.0388 915.134 38.3567 914.149 39.4159C913.163 40.4751 912.055 41.2633 910.823 41.7806C909.591 42.2979 908.311 42.5566 906.98 42.5566C905.699 42.5566 904.443 42.3102 903.212 41.8176C901.98 41.3249 900.871 40.5613 899.886 39.5267C898.901 38.4921 898.113 37.1989 897.521 35.647C896.955 34.0705 896.672 32.2107 896.672 30.0677C896.672 27.9493 896.955 26.1018 897.521 24.5253C898.088 22.9488 898.864 21.6309 899.849 20.5717C900.834 19.5125 901.943 18.7242 903.175 18.2069C904.406 17.6896 905.687 17.431 907.017 17.431ZM907.128 40.9677C907.843 40.9677 908.495 40.6475 909.086 40.0071C909.678 39.3666 910.146 38.2828 910.491 36.7555C910.86 35.2283 911.045 33.1345 911.045 30.4741C911.045 28.1586 910.885 26.151 910.564 24.4514C910.269 22.7271 909.813 21.3969 909.197 20.4608C908.582 19.5002 907.806 19.0198 906.87 19.0198C906.18 19.0198 905.527 19.3401 904.911 19.9805C904.32 20.621 903.84 21.7048 903.47 23.232C903.125 24.7593 902.953 26.8531 902.953 29.5134C902.953 31.8289 903.101 33.8488 903.396 35.5731C903.717 37.2728 904.185 38.603 904.8 39.5637C905.416 40.4997 906.192 40.9677 907.128 40.9677ZM937.73 35.1667H938.58L938.211 42.0023H920.401V41.1525C920.598 41.054 920.894 40.8815 921.288 40.6352C921.707 40.3889 922.138 40.1056 922.581 39.7854C923.813 38.8986 924.971 37.8886 926.054 36.7555C927.138 35.6224 928.087 34.4154 928.899 33.1345C929.712 31.8536 930.353 30.5727 930.821 29.2917C931.289 28.0108 931.523 26.7915 931.523 25.6338C931.523 24.5253 931.252 23.5892 930.71 22.8256C930.193 22.062 929.244 21.6802 927.865 21.6802C926.707 21.6802 925.636 22.0004 924.65 22.6409C923.665 23.2813 922.692 24.2789 921.731 25.6338L921.029 25.0426C922.039 22.4807 923.308 20.5717 924.835 19.3154C926.362 18.0591 928.271 17.431 930.562 17.431C931.892 17.431 933.087 17.6527 934.146 18.0961C935.205 18.5148 936.043 19.1799 936.659 20.0914C937.299 20.9781 937.619 22.1359 937.619 23.5646C937.619 26.1018 936.807 28.4789 935.181 30.6958C933.58 32.9128 931.338 34.9943 928.456 36.9403V37.0142H933.851C935.255 37.0142 936.228 36.8417 936.77 36.4969C937.312 36.152 937.632 35.7086 937.73 35.1667ZM958.26 32.5802L960.846 32.5802V37.1989H959.295C958.605 37.1989 958.26 37.63 958.26 38.4921C958.26 39.0833 958.26 39.6622 958.26 40.2288C958.285 40.7707 958.309 41.3619 958.334 42.0023H952.496C952.545 41.1894 952.582 40.4012 952.607 39.6376C952.631 38.8493 952.656 38.0364 952.681 37.1989H941.005V36.3491C941.645 35.7332 942.224 35.0928 942.741 34.4277L954.824 19.3154C955.095 18.9706 955.341 18.638 955.563 18.3178C955.809 17.9729 956.006 17.6773 956.154 17.431H958.297L958.26 32.5802ZM952.607 24.8578L946.436 32.5802H952.718V24.8578H952.607ZM991.161 17.431V24.2666H990.311C990.188 23.1828 989.966 22.259 989.646 21.4954C989.35 20.7072 988.882 20.1037 988.242 19.6849C987.626 19.2415 986.764 19.0198 985.655 19.0198H983.918C983.401 19.0198 982.995 19.1553 982.699 19.4263C982.428 19.6972 982.293 20.2638 982.293 21.1259V38.3074C982.293 39.5144 982.477 40.278 982.847 40.5982C983.216 40.9185 983.894 41.1032 984.879 41.1525V42.0023H974.349V41.1525C975.063 41.1032 975.58 40.9185 975.9 40.5982C976.221 40.278 976.381 39.5144 976.381 38.3074V21.1259C976.381 19.9189 976.196 19.1553 975.827 18.8351C975.482 18.4902 974.804 18.3055 973.794 18.2808V17.431H991.161ZM1005.96 16.8768C1007.71 16.8768 1009.34 17.1724 1010.84 17.7635C1012.34 18.3547 1013.67 19.2169 1014.83 20.35C1015.99 21.4585 1016.89 22.801 1017.53 24.3775C1018.17 25.954 1018.49 27.7152 1018.49 29.6612C1018.49 31.6072 1018.17 33.3685 1017.53 34.945C1016.89 36.5215 1015.99 37.8763 1014.83 39.0094C1013.7 40.1425 1012.37 41.017 1010.84 41.6328C1009.31 42.2487 1007.68 42.5566 1005.93 42.5566C1004.2 42.5566 1002.58 42.261 1001.05 41.6698C999.546 41.0786 998.216 40.2288 997.059 39.1203C995.901 37.9872 995.002 36.6323 994.361 35.0558C993.721 33.4793 993.401 31.7181 993.401 29.7721C993.401 27.8261 993.721 26.0648 994.361 24.4883C995.002 22.9118 995.889 21.557 997.022 20.4239C998.179 19.2908 999.522 18.4163 1001.05 17.8005C1002.58 17.1847 1004.21 16.8768 1005.96 16.8768ZM1006.7 40.9677C1007.98 40.9677 1008.99 40.549 1009.73 39.7115C1010.47 38.8493 1011 37.6669 1011.32 36.1643C1011.67 34.6617 1011.84 32.9128 1011.84 30.9175C1011.84 26.9024 1011.22 23.8232 1009.99 21.6802C1008.78 19.5371 1007.18 18.4656 1005.19 18.4656C1003.93 18.4656 1002.92 18.8843 1002.16 19.7219C1001.42 20.5594 1000.88 21.7418 1000.53 23.269C1000.21 24.7716 1000.05 26.5205 1000.05 28.5158C1000.05 32.531 1000.65 35.6101 1001.86 37.7531C1003.09 39.8962 1004.71 40.9677 1006.7 40.9677ZM1034.51 20.35L1040.65 38.3074C1040.87 38.9478 1041.19 39.539 1041.61 40.081C1042.05 40.5982 1042.73 40.9554 1043.64 41.1525L1041.94 49.5769H1041.09C1041.04 48.0497 1040.82 46.7195 1040.42 45.5864C1040.03 44.4533 1039.54 43.5665 1038.95 42.9261C1038.35 42.3102 1037.71 42.0023 1037.02 42.0023H1027.12C1026.21 42.0023 1025.31 42.3102 1024.43 42.9261C1023.56 43.5665 1022.82 44.4533 1022.21 45.5864C1021.62 46.7195 1021.24 48.0497 1021.06 49.5769H1020.21V41.1525C1020.66 40.9554 1021.09 40.6229 1021.51 40.1549C1021.92 39.6622 1022.31 39.108 1022.65 38.4921C1023.02 37.8763 1023.3 37.2974 1023.5 36.7555L1029.78 20.35C1030.03 19.7095 1030.26 19.0814 1030.48 18.4656C1030.71 17.8498 1030.9 17.2216 1031.08 16.5812H1033.22C1033.39 17.2216 1033.59 17.8498 1033.81 18.4656C1034.06 19.0814 1034.29 19.7095 1034.51 20.35ZM1032.96 40.4135C1033.95 40.4135 1034.49 40.2534 1034.59 39.9332C1034.68 39.6129 1034.6 39.071 1034.33 38.3074L1030 25.0056H1029.93L1024.17 40.4135H1032.96ZM1066.25 38.3074C1066.6 39.1449 1066.88 39.7607 1067.1 40.1549C1067.35 40.549 1067.61 40.8076 1067.88 40.9308C1068.15 41.0293 1068.48 41.1032 1068.87 41.1525V42.0023H1058.57V41.1525C1059.55 41.1032 1060.09 40.8076 1060.19 40.2657C1060.31 39.7238 1060.23 39.071 1059.93 38.3074L1058.08 33.504C1057.94 33.6271 1057.74 33.7134 1057.49 33.7626C1057.27 33.7872 1057.03 33.7996 1056.75 33.7996H1052.58C1052.06 33.7996 1051.67 33.8611 1051.4 33.9843C1051.13 34.1075 1050.89 34.4154 1050.69 34.908L1049.36 38.3074C1049.04 39.1203 1049.07 39.7854 1049.44 40.3027C1049.81 40.8199 1050.53 41.1032 1051.62 41.1525V42.0023H1044.89V41.1525C1045.44 41.1032 1045.89 40.8323 1046.26 40.3396C1046.66 39.8223 1047.01 39.1449 1047.33 38.3074L1054.43 20.35C1054.7 19.7095 1054.93 19.0814 1055.13 18.4656C1055.35 17.8498 1055.55 17.2216 1055.72 16.5812H1057.86C1058.04 17.2216 1058.23 17.8498 1058.45 18.4656C1058.68 19.0814 1058.91 19.7095 1059.16 20.35L1066.25 38.3074ZM1056.57 32.2107C1056.91 32.2107 1057.14 32.1615 1057.23 32.0629C1057.36 31.9398 1057.35 31.6935 1057.2 31.324L1054.65 25.0056H1054.57L1051.69 32.3585C1051.82 32.2846 1051.96 32.2477 1052.14 32.2477C1052.31 32.2231 1052.51 32.2107 1052.73 32.2107H1056.57Z" fill="black"/>
<path d="M1106.63 25.79C1102.95 24.3192 1098.63 25.1036 1095.68 28.0453C1091.7 32.0165 1091.7 38.4391 1095.68 42.4104C1098.63 45.352 1102.95 46.1365 1106.63 44.6657V39.959C1105.9 40.3022 1105.11 40.4983 1104.27 40.4983C1101.33 40.4983 1098.97 38.145 1098.97 35.2033C1098.97 32.2617 1101.33 29.9083 1104.27 29.9083C1105.11 29.9083 1105.94 30.1044 1106.63 30.4476V25.79Z" fill="black"/>
<path d="M1104.97 21.0733C1106.42 19.6189 1106.42 17.2116 1104.97 15.707C1103.52 14.2526 1101.11 14.2526 1099.61 15.707C1098.11 17.1614 1098.16 19.5687 1099.61 21.0733C1101.11 22.5277 1103.52 22.5277 1104.97 21.0733Z" fill="black"/>
<path d="M1147.14 35.1667H1147.99L1147.62 42.0023H1129.81V41.1525C1130.01 41.054 1130.3 40.8815 1130.7 40.6352C1131.12 40.3889 1131.55 40.1056 1131.99 39.7854C1133.22 38.8986 1134.38 37.8886 1135.46 36.7555C1136.55 35.6224 1137.5 34.4154 1138.31 33.1345C1139.12 31.8536 1139.76 30.5727 1140.23 29.2917C1140.7 28.0108 1140.93 26.7915 1140.93 25.6338C1140.93 24.5253 1140.66 23.5892 1140.12 22.8256C1139.6 22.062 1138.65 21.6802 1137.27 21.6802C1136.12 21.6802 1135.04 22.0004 1134.06 22.6409C1133.07 23.2813 1132.1 24.2789 1131.14 25.6338L1130.44 25.0426C1131.45 22.4807 1132.72 20.5717 1134.24 19.3154C1135.77 18.0591 1137.68 17.431 1139.97 17.431C1141.3 17.431 1142.5 17.6527 1143.55 18.0961C1144.61 18.5148 1145.45 19.1799 1146.07 20.0914C1146.71 20.9781 1147.03 22.1359 1147.03 23.5646C1147.03 26.1018 1146.22 28.4789 1144.59 30.6958C1142.99 32.9128 1140.75 34.9943 1137.86 36.9403V37.0142H1143.26C1144.66 37.0142 1145.64 36.8417 1146.18 36.4969C1146.72 36.152 1147.04 35.7086 1147.14 35.1667ZM1162.87 17.431C1164.15 17.431 1165.4 17.6773 1166.63 18.17C1167.87 18.6626 1168.97 19.4263 1169.96 20.4608C1170.94 21.4954 1171.72 22.801 1172.29 24.3775C1172.88 25.9294 1173.17 27.7768 1173.17 29.9199C1173.17 32.0383 1172.89 33.8858 1172.32 35.4623C1171.76 37.0388 1170.98 38.3567 1170 39.4159C1169.01 40.4751 1167.9 41.2633 1166.67 41.7806C1165.44 42.2979 1164.16 42.5566 1162.83 42.5566C1161.55 42.5566 1160.29 42.3102 1159.06 41.8176C1157.83 41.3249 1156.72 40.5613 1155.73 39.5267C1154.75 38.4921 1153.96 37.1989 1153.37 35.647C1152.8 34.0705 1152.52 32.2107 1152.52 30.0677C1152.52 27.9493 1152.8 26.1018 1153.37 24.5253C1153.94 22.9488 1154.71 21.6309 1155.7 20.5717C1156.68 19.5125 1157.79 18.7242 1159.02 18.2069C1160.25 17.6896 1161.54 17.431 1162.87 17.431ZM1162.98 40.9677C1163.69 40.9677 1164.34 40.6475 1164.93 40.0071C1165.53 39.3666 1165.99 38.2828 1166.34 36.7555C1166.71 35.2283 1166.89 33.1345 1166.89 30.4741C1166.89 28.1586 1166.73 26.151 1166.41 24.4514C1166.12 22.7271 1165.66 21.3969 1165.05 20.4608C1164.43 19.5002 1163.65 19.0198 1162.72 19.0198C1162.03 19.0198 1161.38 19.3401 1160.76 19.9805C1160.17 20.621 1159.69 21.7048 1159.32 23.232C1158.97 24.7593 1158.8 26.8531 1158.8 29.5134C1158.8 31.8289 1158.95 33.8488 1159.24 35.5731C1159.56 37.2728 1160.03 38.603 1160.65 39.5637C1161.26 40.4997 1162.04 40.9677 1162.98 40.9677ZM1198.25 30.8436L1186.8 31.8413L1186.54 28.8484L1197.99 27.8507L1198.25 30.8436ZM1226.85 35.1667H1227.7L1227.33 42.0023H1209.52V41.1525C1209.72 41.054 1210.01 40.8815 1210.4 40.6352C1210.82 40.3889 1211.25 40.1056 1211.7 39.7854C1212.93 38.8986 1214.09 37.8886 1215.17 36.7555C1216.26 35.6224 1217.2 34.4154 1218.02 33.1345C1218.83 31.8536 1219.47 30.5727 1219.94 29.2917C1220.41 28.0108 1220.64 26.7915 1220.64 25.6338C1220.64 24.5253 1220.37 23.5892 1219.83 22.8256C1219.31 22.062 1218.36 21.6802 1216.98 21.6802C1215.82 21.6802 1214.75 22.0004 1213.77 22.6409C1212.78 23.2813 1211.81 24.2789 1210.85 25.6338L1210.15 25.0426C1211.16 22.4807 1212.42 20.5717 1213.95 19.3154C1215.48 18.0591 1217.39 17.431 1219.68 17.431C1221.01 17.431 1222.2 17.6527 1223.26 18.0961C1224.32 18.5148 1225.16 19.1799 1225.78 20.0914C1226.42 20.9781 1226.74 22.1359 1226.74 23.5646C1226.74 26.1018 1225.92 28.4789 1224.3 30.6958C1222.7 32.9128 1220.45 34.9943 1217.57 36.9403V37.0142H1222.97C1224.37 37.0142 1225.34 36.8417 1225.89 36.4969C1226.43 36.152 1226.75 35.7086 1226.85 35.1667ZM1241.95 37.9379C1241.95 38.8493 1242.02 39.539 1242.17 40.0071C1242.34 40.4505 1242.68 40.746 1243.2 40.8938C1243.74 41.0416 1244.56 41.1279 1245.64 41.1525V42.0023H1231.97V41.1525C1233.08 41.1279 1233.89 41.0416 1234.41 40.8938C1234.95 40.746 1235.29 40.4505 1235.44 40.0071C1235.59 39.539 1235.66 38.8493 1235.66 37.9379V21.8649L1232.26 23.971L1231.49 22.7887L1240.06 17.431H1242.2C1242.11 17.899 1242.03 18.3671 1241.98 18.8351C1241.96 19.3031 1241.95 19.7711 1241.95 20.2392V37.9379ZM1258.85 42.0023V41.1525C1259.56 41.1032 1260.08 40.9185 1260.4 40.5982C1260.72 40.278 1260.88 39.5144 1260.88 38.3074V21.1259C1260.88 19.9189 1260.69 19.1553 1260.32 18.8351C1259.98 18.4902 1259.3 18.3055 1258.29 18.2808V17.431H1268.82V18.2808C1268.11 18.3055 1267.59 18.4902 1267.27 18.8351C1266.95 19.1553 1266.79 19.9189 1266.79 21.1259V27.666C1266.99 27.5182 1267.22 27.4196 1267.49 27.3704C1267.79 27.3211 1268.13 27.2965 1268.53 27.2965H1275.51C1276.18 27.2965 1276.64 27.1856 1276.92 26.9639C1277.19 26.7422 1277.32 26.2988 1277.32 25.6338V21.1259C1277.32 19.9189 1277.14 19.1553 1276.77 18.8351C1276.42 18.4902 1275.74 18.3055 1274.73 18.2808V17.431H1285.27V18.2808C1284.55 18.3055 1284.03 18.4902 1283.71 18.8351C1283.39 19.1553 1283.23 19.9189 1283.23 21.1259V38.3074C1283.23 39.5144 1283.42 40.278 1283.79 40.5982C1284.16 40.9185 1284.83 41.1032 1285.82 41.1525V42.0023H1275.29V41.1525C1276 41.1032 1276.52 40.9185 1276.84 40.5982C1277.16 40.278 1277.32 39.5144 1277.32 38.3074V28.4789C1277.12 28.6513 1276.88 28.7621 1276.58 28.8114C1276.29 28.8607 1275.95 28.8853 1275.58 28.8853H1268.6C1267.94 28.8853 1267.47 28.9961 1267.2 29.2178C1266.93 29.4395 1266.79 29.8706 1266.79 30.5111V38.3074C1266.79 39.5144 1266.98 40.278 1267.35 40.5982C1267.71 40.9185 1268.39 41.1032 1269.38 41.1525V42.0023H1258.85ZM1302.12 16.8768C1303.87 16.8768 1305.49 17.1724 1306.99 17.7635C1308.5 18.3547 1309.83 19.2169 1310.98 20.35C1312.14 21.4585 1313.04 22.801 1313.68 24.3775C1314.32 25.954 1314.64 27.7152 1314.64 29.6612C1314.64 31.6072 1314.32 33.3685 1313.68 34.945C1313.04 36.5215 1312.14 37.8763 1310.98 39.0094C1309.85 40.1425 1308.52 41.017 1306.99 41.6328C1305.47 42.2487 1303.83 42.5566 1302.08 42.5566C1300.36 42.5566 1298.73 42.261 1297.2 41.6698C1295.7 41.0786 1294.37 40.2288 1293.21 39.1203C1292.05 37.9872 1291.15 36.6323 1290.51 35.0558C1289.87 33.4793 1289.55 31.7181 1289.55 29.7721C1289.55 27.8261 1289.87 26.0648 1290.51 24.4883C1291.15 22.9118 1292.04 21.557 1293.17 20.4239C1294.33 19.2908 1295.67 18.4163 1297.2 17.8005C1298.73 17.1847 1300.37 16.8768 1302.12 16.8768ZM1302.86 40.9677C1304.14 40.9677 1305.15 40.549 1305.89 39.7115C1306.62 38.8493 1307.15 37.6669 1307.47 36.1643C1307.82 34.6617 1307.99 32.9128 1307.99 30.9175C1307.99 26.9024 1307.38 23.8232 1306.14 21.6802C1304.94 19.5371 1303.34 18.4656 1301.34 18.4656C1300.08 18.4656 1299.07 18.8843 1298.31 19.7219C1297.57 20.5594 1297.03 21.7418 1296.68 23.269C1296.36 24.7716 1296.2 26.5205 1296.2 28.5158C1296.2 32.531 1296.81 35.6101 1298.02 37.7531C1299.25 39.8962 1300.86 40.9677 1302.86 40.9677ZM1318.84 42.5566C1318.23 42.5566 1317.57 42.5073 1316.88 42.4088C1316.19 42.3102 1315.6 42.1748 1315.11 42.0023V41.1525C1315.6 41.1525 1316.16 40.9554 1316.77 40.5613C1317.39 40.1672 1318.02 39.3789 1318.66 38.1965L1323.94 28.6267C1322.29 28.2079 1321.03 27.5305 1320.17 26.5944C1319.33 25.6584 1318.92 24.5253 1318.92 23.1951C1318.92 22.1605 1319.22 21.1875 1319.84 20.2761C1320.48 19.3647 1321.51 18.638 1322.94 18.0961C1324.4 17.5295 1326.34 17.2463 1328.78 17.2463C1329.57 17.2463 1330.48 17.2832 1331.52 17.3571C1332.55 17.4064 1333.7 17.431 1334.95 17.431H1339.68V18.2808C1338.97 18.3055 1338.45 18.4902 1338.13 18.8351C1337.81 19.1553 1337.65 19.9189 1337.65 21.1259V38.3074C1337.65 39.5144 1337.83 40.278 1338.2 40.5982C1338.57 40.9185 1339.25 41.1032 1340.24 41.1525V42.0023H1329.7V41.1525C1330.42 41.1032 1330.94 40.9185 1331.26 40.5982C1331.58 40.278 1331.74 39.5144 1331.74 38.3074V21.1259C1331.74 20.1653 1331.56 19.5494 1331.22 19.2785C1330.9 18.9829 1330.33 18.8351 1329.52 18.8351C1328.46 18.8351 1327.5 19.2169 1326.64 19.9805C1325.8 20.7195 1325.38 21.8403 1325.38 23.3429C1325.38 24.1312 1325.54 24.8948 1325.86 25.6338C1326.18 26.3481 1326.75 26.9516 1327.56 27.4443C1328.4 27.9369 1329.54 28.2325 1331 28.3311V29.6243C1330.7 29.6243 1330.44 29.6859 1330.22 29.809C1330 29.9076 1329.78 30.1662 1329.56 30.585L1325.38 38.6399C1324.82 39.7238 1324.03 40.6475 1323.02 41.4111C1322.01 42.1748 1320.62 42.5566 1318.84 42.5566ZM1351.91 27.2226H1355.5C1358.18 27.2226 1360.3 27.5182 1361.85 28.1094C1363.4 28.7006 1364.5 29.5134 1365.14 30.548C1365.8 31.5826 1366.14 32.7773 1366.14 34.1321C1366.14 35.4869 1365.77 36.7678 1365.03 37.9748C1364.31 39.1572 1363.19 40.1302 1361.67 40.8938C1360.16 41.6328 1358.24 42.0023 1355.9 42.0023H1343.97V41.1525C1344.68 41.1032 1345.2 40.9185 1345.52 40.5982C1345.84 40.278 1346 39.5144 1346 38.3074V21.1259C1346 19.9189 1345.81 19.1553 1345.45 18.8351C1345.1 18.4902 1344.42 18.3055 1343.41 18.2808V17.431H1363.74V23.5276H1362.89C1362.81 22.6901 1362.65 21.9388 1362.41 21.2737C1362.16 20.584 1361.74 20.0421 1361.15 19.648C1360.56 19.2292 1359.71 19.0198 1358.6 19.0198H1353.54C1353.02 19.0198 1352.61 19.1553 1352.32 19.4263C1352.05 19.6972 1351.91 20.2638 1351.91 21.1259V27.2226ZM1354.09 40.4135C1355.4 40.4135 1356.47 40.1056 1357.31 39.4898C1358.17 38.8493 1358.81 38.0611 1359.23 37.125C1359.65 36.189 1359.86 35.2652 1359.86 34.3538C1359.86 32.999 1359.6 31.9151 1359.08 31.1023C1358.59 30.2894 1357.91 29.7105 1357.05 29.3656C1356.21 28.9961 1355.26 28.8114 1354.2 28.8114H1351.91V38.3074C1351.91 39.1695 1352.05 39.7361 1352.32 40.0071C1352.59 40.278 1353.18 40.4135 1354.09 40.4135ZM1370.06 42.0023V41.1525C1370.77 41.1032 1371.29 40.9185 1371.61 40.5982C1371.93 40.278 1372.09 39.5144 1372.09 38.3074V21.1259C1372.09 19.9189 1371.9 19.1553 1371.53 18.8351C1371.19 18.4902 1370.51 18.3055 1369.5 18.2808V17.431H1372.09C1373.89 17.431 1375.57 17.4064 1377.15 17.3571C1378.73 17.2832 1379.91 17.2463 1380.7 17.2463C1383.26 17.2463 1385.28 17.5295 1386.76 18.0961C1388.26 18.6626 1389.33 19.4139 1389.97 20.35C1390.64 21.2614 1390.97 22.2714 1390.97 23.3798C1390.97 24.6608 1390.55 25.8801 1389.71 27.0378C1388.9 28.1956 1387.59 29.0947 1385.8 29.7351C1384.02 30.351 1381.67 30.548 1378.74 30.3263V29.0331C1380.07 29.0824 1381.17 28.8484 1382.03 28.3311C1382.89 27.7891 1383.52 27.0748 1383.91 26.188C1384.33 25.3012 1384.54 24.3528 1384.54 23.3429C1384.54 21.9881 1384.16 20.9042 1383.39 20.0914C1382.63 19.2538 1381.57 18.8351 1380.22 18.8351C1379.4 18.8351 1378.83 18.9829 1378.48 19.2785C1378.16 19.5494 1378 20.1653 1378 21.1259V38.3074C1378 39.0956 1378.07 39.6991 1378.22 40.1179C1378.39 40.512 1378.69 40.783 1379.11 40.9308C1379.55 41.054 1380.17 41.1279 1380.96 41.1525V42.0023H1370.06ZM1394.87 42.5566C1394.25 42.5566 1393.6 42.5073 1392.91 42.4088C1392.22 42.3102 1391.63 42.1748 1391.14 42.0023V41.1525C1391.63 41.1525 1392.18 40.9554 1392.8 40.5613C1393.42 40.1672 1394.04 39.3789 1394.68 38.1965L1399.97 28.6267C1398.32 28.2079 1397.06 27.5305 1396.2 26.5944C1395.36 25.6584 1394.94 24.5253 1394.94 23.1951C1394.94 22.1605 1395.25 21.1875 1395.87 20.2761C1396.51 19.3647 1397.54 18.638 1398.97 18.0961C1400.42 17.5295 1402.37 17.2463 1404.81 17.2463C1405.6 17.2463 1406.51 17.2832 1407.54 17.3571C1408.58 17.4064 1409.72 17.431 1410.98 17.431H1415.71V18.2808C1414.99 18.3055 1414.48 18.4902 1414.16 18.8351C1413.84 19.1553 1413.68 19.9189 1413.68 21.1259V38.3074C1413.68 39.5144 1413.86 40.278 1414.23 40.5982C1414.6 40.9185 1415.28 41.1032 1416.26 41.1525V42.0023H1405.73V41.1525C1406.45 41.1032 1406.96 40.9185 1407.28 40.5982C1407.6 40.278 1407.76 39.5144 1407.76 38.3074V21.1259C1407.76 20.1653 1407.59 19.5494 1407.25 19.2785C1406.93 18.9829 1406.36 18.8351 1405.55 18.8351C1404.49 18.8351 1403.53 19.2169 1402.67 19.9805C1401.83 20.7195 1401.41 21.8403 1401.41 23.3429C1401.41 24.1312 1401.57 24.8948 1401.89 25.6338C1402.21 26.3481 1402.78 26.9516 1403.59 27.4443C1404.43 27.9369 1405.57 28.2325 1407.03 28.3311V29.6243C1406.73 29.6243 1406.47 29.6859 1406.25 29.809C1406.03 29.9076 1405.81 30.1662 1405.58 30.585L1401.41 38.6399C1400.84 39.7238 1400.05 40.6475 1399.04 41.4111C1398.03 42.1748 1396.64 42.5566 1394.87 42.5566ZM1445.62 35.1667H1446.47L1446.1 42.0023H1428.29V41.1525C1428.49 41.054 1428.78 40.8815 1429.18 40.6352C1429.6 40.3889 1430.03 40.1056 1430.47 39.7854C1431.7 38.8986 1432.86 37.8886 1433.94 36.7555C1435.03 35.6224 1435.98 34.4154 1436.79 33.1345C1437.6 31.8536 1438.24 30.5727 1438.71 29.2917C1439.18 28.0108 1439.41 26.7915 1439.41 25.6338C1439.41 24.5253 1439.14 23.5892 1438.6 22.8256C1438.08 22.062 1437.13 21.6802 1435.76 21.6802C1434.6 21.6802 1433.53 22.0004 1432.54 22.6409C1431.56 23.2813 1430.58 24.2789 1429.62 25.6338L1428.92 25.0426C1429.93 22.4807 1431.2 20.5717 1432.73 19.3154C1434.25 18.0591 1436.16 17.431 1438.45 17.431C1439.78 17.431 1440.98 17.6527 1442.04 18.0961C1443.1 18.5148 1443.93 19.1799 1444.55 20.0914C1445.19 20.9781 1445.51 22.1359 1445.51 23.5646C1445.51 26.1018 1444.7 28.4789 1443.07 30.6958C1441.47 32.9128 1439.23 34.9943 1436.35 36.9403V37.0142H1441.74C1443.14 37.0142 1444.12 36.8417 1444.66 36.4969C1445.2 36.152 1445.52 35.7086 1445.62 35.1667ZM1461.35 17.431C1462.63 17.431 1463.88 17.6773 1465.12 18.17C1466.35 18.6626 1467.46 19.4263 1468.44 20.4608C1469.43 21.4954 1470.2 22.801 1470.77 24.3775C1471.36 25.9294 1471.66 27.7768 1471.66 29.9199C1471.66 32.0383 1471.37 33.8858 1470.81 35.4623C1470.24 37.0388 1469.46 38.3567 1468.48 39.4159C1467.49 40.4751 1466.38 41.2633 1465.15 41.7806C1463.92 42.2979 1462.64 42.5566 1461.31 42.5566C1460.03 42.5566 1458.77 42.3102 1457.54 41.8176C1456.31 41.3249 1455.2 40.5613 1454.22 39.5267C1453.23 38.4921 1452.44 37.1989 1451.85 35.647C1451.28 34.0705 1451 32.2107 1451 30.0677C1451 27.9493 1451.28 26.1018 1451.85 24.5253C1452.42 22.9488 1453.19 21.6309 1454.18 20.5717C1455.16 19.5125 1456.27 18.7242 1457.5 18.2069C1458.74 17.6896 1460.02 17.431 1461.35 17.431ZM1461.46 40.9677C1462.17 40.9677 1462.82 40.6475 1463.42 40.0071C1464.01 39.3666 1464.48 38.2828 1464.82 36.7555C1465.19 35.2283 1465.37 33.1345 1465.37 30.4741C1465.37 28.1586 1465.21 26.151 1464.89 24.4514C1464.6 22.7271 1464.14 21.3969 1463.53 20.4608C1462.91 19.5002 1462.14 19.0198 1461.2 19.0198C1460.51 19.0198 1459.86 19.3401 1459.24 19.9805C1458.65 20.621 1458.17 21.7048 1457.8 23.232C1457.45 24.7593 1457.28 26.8531 1457.28 29.5134C1457.28 31.8289 1457.43 33.8488 1457.73 35.5731C1458.05 37.2728 1458.51 38.603 1459.13 39.5637C1459.75 40.4997 1460.52 40.9677 1461.46 40.9677ZM1492.06 35.1667H1492.91L1492.54 42.0023H1474.73V41.1525C1474.93 41.054 1475.22 40.8815 1475.62 40.6352C1476.04 40.3889 1476.47 40.1056 1476.91 39.7854C1478.14 38.8986 1479.3 37.8886 1480.38 36.7555C1481.47 35.6224 1482.42 34.4154 1483.23 33.1345C1484.04 31.8536 1484.68 30.5727 1485.15 29.2917C1485.62 28.0108 1485.85 26.7915 1485.85 25.6338C1485.85 24.5253 1485.58 23.5892 1485.04 22.8256C1484.52 22.062 1483.57 21.6802 1482.19 21.6802C1481.04 21.6802 1479.97 22.0004 1478.98 22.6409C1477.99 23.2813 1477.02 24.2789 1476.06 25.6338L1475.36 25.0426C1476.37 22.4807 1477.64 20.5717 1479.16 19.3154C1480.69 18.0591 1482.6 17.431 1484.89 17.431C1486.22 17.431 1487.42 17.6527 1488.48 18.0961C1489.54 18.5148 1490.37 19.1799 1490.99 20.0914C1491.63 20.9781 1491.95 22.1359 1491.95 23.5646C1491.95 26.1018 1491.14 28.4789 1489.51 30.6958C1487.91 32.9128 1485.67 34.9943 1482.79 36.9403V37.0142H1488.18C1489.58 37.0142 1490.56 36.8417 1491.1 36.4969C1491.64 36.152 1491.96 35.7086 1492.06 35.1667ZM1512.59 32.5802L1515.18 32.5802V37.1989H1513.62C1512.93 37.1989 1512.59 37.63 1512.59 38.4921C1512.59 39.0833 1512.59 39.6622 1512.59 40.2288C1512.61 40.7707 1512.64 41.3619 1512.66 42.0023H1506.83C1506.87 41.1894 1506.91 40.4012 1506.94 39.6376C1506.96 38.8493 1506.99 38.0364 1507.01 37.1989H1495.33V36.3491C1495.97 35.7332 1496.55 35.0928 1497.07 34.4277L1509.15 19.3154C1509.42 18.9706 1509.67 18.638 1509.89 18.3178C1510.14 17.9729 1510.34 17.6773 1510.48 17.431H1512.63L1512.59 32.5802ZM1506.94 24.8578L1500.77 32.5802H1507.05V24.8578H1506.94ZM1545.49 17.431V24.2666H1544.64C1544.52 23.1828 1544.3 22.259 1543.98 21.4954C1543.68 20.7072 1543.21 20.1037 1542.57 19.6849C1541.96 19.2415 1541.09 19.0198 1539.98 19.0198H1538.25C1537.73 19.0198 1537.32 19.1553 1537.03 19.4263C1536.76 19.6972 1536.62 20.2638 1536.62 21.1259V38.3074C1536.62 39.5144 1536.81 40.278 1537.18 40.5982C1537.55 40.9185 1538.22 41.1032 1539.21 41.1525V42.0023H1528.68V41.1525C1529.39 41.1032 1529.91 40.9185 1530.23 40.5982C1530.55 40.278 1530.71 39.5144 1530.71 38.3074V21.1259C1530.71 19.9189 1530.53 19.1553 1530.16 18.8351C1529.81 18.4902 1529.13 18.3055 1528.12 18.2808V17.431H1545.49ZM1560.29 16.8768C1562.04 16.8768 1563.67 17.1724 1565.17 17.7635C1566.67 18.3547 1568 19.2169 1569.16 20.35C1570.32 21.4585 1571.22 22.801 1571.86 24.3775C1572.5 25.954 1572.82 27.7152 1572.82 29.6612C1572.82 31.6072 1572.5 33.3685 1571.86 34.945C1571.22 36.5215 1570.32 37.8763 1569.16 39.0094C1568.03 40.1425 1566.7 41.017 1565.17 41.6328C1563.64 42.2487 1562 42.5566 1560.26 42.5566C1558.53 42.5566 1556.91 42.261 1555.38 41.6698C1553.88 41.0786 1552.55 40.2288 1551.39 39.1203C1550.23 37.9872 1549.33 36.6323 1548.69 35.0558C1548.05 33.4793 1547.73 31.7181 1547.73 29.7721C1547.73 27.8261 1548.05 26.0648 1548.69 24.4883C1549.33 22.9118 1550.22 21.557 1551.35 20.4239C1552.51 19.2908 1553.85 18.4163 1555.38 17.8005C1556.91 17.1847 1558.54 16.8768 1560.29 16.8768ZM1561.03 40.9677C1562.31 40.9677 1563.32 40.549 1564.06 39.7115C1564.8 38.8493 1565.33 37.6669 1565.65 36.1643C1566 34.6617 1566.17 32.9128 1566.17 30.9175C1566.17 26.9024 1565.55 23.8232 1564.32 21.6802C1563.11 19.5371 1561.51 18.4656 1559.52 18.4656C1558.26 18.4656 1557.25 18.8843 1556.49 19.7219C1555.75 20.5594 1555.21 21.7418 1554.86 23.269C1554.54 24.7716 1554.38 26.5205 1554.38 28.5158C1554.38 32.531 1554.98 35.6101 1556.19 37.7531C1557.42 39.8962 1559.04 40.9677 1561.03 40.9677ZM1588.84 20.35L1594.98 38.3074C1595.2 38.9478 1595.52 39.539 1595.94 40.081C1596.38 40.5982 1597.06 40.9554 1597.97 41.1525L1596.27 49.5769H1595.42C1595.37 48.0497 1595.15 46.7195 1594.75 45.5864C1594.36 44.4533 1593.87 43.5665 1593.28 42.9261C1592.68 42.3102 1592.04 42.0023 1591.35 42.0023H1581.45C1580.54 42.0023 1579.64 42.3102 1578.75 42.9261C1577.89 43.5665 1577.15 44.4533 1576.54 45.5864C1575.95 46.7195 1575.56 48.0497 1575.39 49.5769H1574.54V41.1525C1574.99 40.9554 1575.42 40.6229 1575.84 40.1549C1576.25 39.6622 1576.64 39.108 1576.98 38.4921C1577.35 37.8763 1577.63 37.2974 1577.83 36.7555L1584.11 20.35C1584.36 19.7095 1584.59 19.0814 1584.81 18.4656C1585.04 17.8498 1585.23 17.2216 1585.41 16.5812H1587.55C1587.72 17.2216 1587.92 17.8498 1588.14 18.4656C1588.39 19.0814 1588.62 19.7095 1588.84 20.35ZM1587.29 40.4135C1588.28 40.4135 1588.82 40.2534 1588.92 39.9332C1589.01 39.6129 1588.93 39.071 1588.66 38.3074L1584.33 25.0056H1584.26L1578.5 40.4135H1587.29ZM1620.58 38.3074C1620.92 39.1449 1621.21 39.7607 1621.43 40.1549C1621.68 40.549 1621.93 40.8076 1622.21 40.9308C1622.48 41.0293 1622.81 41.1032 1623.2 41.1525V42.0023H1612.89V41.1525C1613.88 41.1032 1614.42 40.8076 1614.52 40.2657C1614.64 39.7238 1614.56 39.071 1614.26 38.3074L1612.41 33.504C1612.27 33.6271 1612.07 33.7134 1611.82 33.7626C1611.6 33.7872 1611.36 33.7996 1611.08 33.7996H1606.91C1606.39 33.7996 1606 33.8611 1605.73 33.9843C1605.46 34.1075 1605.22 34.4154 1605.02 34.908L1603.69 38.3074C1603.37 39.1203 1603.4 39.7854 1603.77 40.3027C1604.14 40.8199 1604.86 41.1032 1605.95 41.1525V42.0023H1599.22V41.1525C1599.77 41.1032 1600.22 40.8323 1600.59 40.3396C1600.98 39.8223 1601.34 39.1449 1601.66 38.3074L1608.76 20.35C1609.03 19.7095 1609.26 19.0814 1609.46 18.4656C1609.68 17.8498 1609.88 17.2216 1610.05 16.5812H1612.19C1612.37 17.2216 1612.56 17.8498 1612.78 18.4656C1613.01 19.0814 1613.24 19.7095 1613.49 20.35L1620.58 38.3074ZM1610.9 32.2107C1611.24 32.2107 1611.47 32.1615 1611.56 32.0629C1611.69 31.9398 1611.68 31.6935 1611.53 31.324L1608.98 25.0056H1608.9L1606.02 32.3585C1606.15 32.2846 1606.29 32.2477 1606.47 32.2477C1606.64 32.2231 1606.83 32.2107 1607.06 32.2107H1610.9Z" fill="black"/>
<defs>
<linearGradient id="paint0_linear_614_2559" x1="0" y1="30.0023" x2="1645" y2="30.0023" gradientUnits="userSpaceOnUse">
<stop stop-color="#FA0056"/>
<stop offset="0.375" stop-color="#F33174"/>
<stop offset="0.67" stop-color="#FA0056"/>
<stop offset="0.975" stop-color="#F33174"/>
</linearGradient>
</defs>
</svg>
