<svg width="1893" height="60" viewBox="0 0 1893 60" fill="none" xmlns="http://www.w3.org/2000/svg">
<rect width="1893" height="60" fill="url(#paint0_linear_599_2531)"/>
<path d="M28.5141 41V40.2322C29.1595 40.1877 29.6269 40.0208 29.9162 39.7314C30.2055 39.4421 30.3502 38.7522 30.3502 37.6617V22.1386C30.3502 21.048 30.1833 20.3581 29.8494 20.0688C29.5378 19.7572 28.9258 19.5903 28.0133 19.5681V18.8002H37.5275V19.5681C36.8821 19.5903 36.4148 19.7572 36.1254 20.0688C35.8361 20.3581 35.6915 21.048 35.6915 22.1386V37.6617C35.6915 38.7522 35.8584 39.4421 36.1922 39.7314C36.526 40.0208 37.1381 40.1877 38.0283 40.2322V41H28.5141ZM61.1455 41.2671C60.8117 40.911 60.4668 40.566 60.1107 40.2322C59.7546 39.8761 59.1871 39.3531 58.4081 38.6632L45.2552 26.6453H45.1884V37.6617C45.1884 38.4184 45.3776 39.0304 45.7559 39.4978C46.1565 39.9429 46.8353 40.1877 47.7923 40.2322V41H41.6164V40.2322C42.2618 40.1877 42.7292 39.9429 43.0185 39.4978C43.3078 39.0304 43.4525 38.4184 43.4525 37.6617V22.1386C43.4525 21.048 43.2856 20.3581 42.9518 20.0688C42.6402 19.7572 42.0282 19.5903 41.1157 19.5681V18.8002H45.1217C45.4555 19.2231 45.8116 19.6014 46.1899 19.9353C46.5683 20.2691 47.0022 20.6697 47.4919 21.1371L60.7783 33.155H60.8451V22.1386C60.8451 21.3819 60.6559 20.7698 60.2776 20.3025C59.8992 19.8351 59.2205 19.5903 58.2412 19.5681V18.8002H64.4171V19.5681C63.7717 19.5903 63.3043 19.8351 63.015 20.3025C62.7257 20.7698 62.581 21.3819 62.581 22.1386V37.6617C62.581 38.2848 62.581 38.8857 62.581 39.4644C62.6033 40.0208 62.6255 40.6217 62.6478 41.2671H61.1455ZM67.0572 18.8002L86.0856 18.8002V24.3085H85.3178C85.1842 23.1067 84.8282 22.1274 84.2495 21.3707C83.6709 20.6141 82.6805 20.2357 81.2784 20.2357H79.242V37.6617C79.242 38.7522 79.409 39.4421 79.7428 39.7314C80.0766 40.0208 80.6886 40.1877 81.5789 40.2322V41H72.0647V40.2322C72.7101 40.1877 73.1775 40.0208 73.4668 39.7314C73.7561 39.4421 73.9008 38.7522 73.9008 37.6617V20.2357H71.831C70.4734 20.2357 69.4942 20.6141 68.8933 21.3707C68.3146 22.1274 67.9586 23.1067 67.825 24.3085H67.0572V18.8002ZM89.1148 41V40.2322C89.7602 40.1877 90.2276 40.0208 90.5169 39.7314C90.8062 39.4421 90.9509 38.7522 90.9509 37.6617V22.1386C90.9509 21.048 90.784 20.3581 90.4502 20.0688C90.1386 19.7572 89.5266 19.5903 88.6141 19.5681V18.8002H105.005V23.4739H104.237C104.193 22.5169 103.859 21.738 103.236 21.1371C102.635 20.5362 101.7 20.2357 100.432 20.2357H97.7611C97.2937 20.2357 96.9265 20.3581 96.6594 20.6029C96.4146 20.8477 96.2922 21.3596 96.2922 22.1386V28.715C96.4702 28.5815 96.6817 28.4925 96.9265 28.448C97.1935 28.4034 97.5051 28.3812 97.8612 28.3812H101.099C101.767 28.3812 102.323 28.192 102.769 27.8137C103.214 27.4353 103.447 26.9123 103.47 26.2447H104.237V31.9198H103.47C103.447 31.0963 103.214 30.54 102.769 30.2506C102.323 29.9613 101.767 29.8167 101.099 29.8167H97.928C97.3271 29.8167 96.9042 29.9168 96.6594 30.1171C96.4146 30.3174 96.2922 30.7069 96.2922 31.2855V37.6617C96.2922 38.4406 96.4591 38.9525 96.793 39.1973C97.149 39.4421 97.8278 39.5645 98.8293 39.5645H102.001C103.336 39.5645 104.393 39.1639 105.172 38.3627C105.951 37.5615 106.385 36.6046 106.474 35.4918H107.242L106.975 41H89.1148ZM129.638 41.5007C128.637 41.5007 127.78 41.3338 127.067 41C126.355 40.6884 125.754 40.2656 125.265 39.7314C124.775 39.1973 124.319 38.6075 123.896 37.9621L119.222 30.6846C119 30.3063 118.8 30.0726 118.622 29.9836C118.444 29.8946 118.232 29.8389 117.987 29.8167V28.6483C119.323 28.5592 120.357 28.2922 121.092 27.8471C121.826 27.402 122.338 26.8567 122.628 26.2113C122.917 25.5436 123.062 24.8537 123.062 24.1415C123.062 22.784 122.683 21.7713 121.927 21.1037C121.17 20.4138 120.302 20.0688 119.323 20.0688C118.588 20.0688 118.065 20.2023 117.754 20.4694C117.464 20.7142 117.32 21.2706 117.32 22.1386V37.6617C117.32 38.7522 117.487 39.4421 117.82 39.7314C118.154 40.0208 118.766 40.1877 119.656 40.2322V41H110.142V40.2322C110.788 40.1877 111.255 40.0208 111.544 39.7314C111.834 39.4421 111.978 38.7522 111.978 37.6617V22.1386C111.978 21.048 111.811 20.3581 111.478 20.0688C111.166 19.7572 110.554 19.5903 109.642 19.5681V18.8002H111.978C113.647 18.8002 115.161 18.778 116.518 18.7335C117.876 18.6667 119.033 18.6333 119.99 18.6333C122.194 18.6333 123.941 18.8448 125.231 19.2676C126.544 19.6682 127.479 20.2357 128.036 20.9701C128.614 21.7046 128.904 22.5391 128.904 23.4739C128.904 24.3641 128.681 25.1764 128.236 25.9108C127.813 26.6453 127.246 27.2684 126.533 27.7803C125.843 28.2699 125.087 28.6149 124.263 28.8152V28.8819L129.805 37.5615C130.45 38.5853 131.04 39.2863 131.574 39.6647C132.108 40.043 132.587 40.2322 133.01 40.2322V41C132.565 41.1558 132.03 41.2782 131.407 41.3672C130.806 41.4562 130.217 41.5007 129.638 41.5007ZM145.404 41.5007C143.067 41.5007 140.997 41.0334 139.194 40.0987C137.392 39.1639 135.979 37.8509 134.955 36.1595C133.931 34.4458 133.419 32.4651 133.419 30.2173C133.419 28.3701 133.753 26.7232 134.421 25.2766C135.088 23.8077 136.001 22.5503 137.158 21.5043C138.338 20.4583 139.684 19.6682 141.197 19.1341C142.733 18.5777 144.369 18.2995 146.105 18.2995C147.418 18.2995 148.675 18.4219 149.877 18.6667C151.079 18.9115 152.036 19.2008 152.748 19.5347V24.8092H151.98C151.535 23.4516 151.001 22.4167 150.378 21.7046C149.755 20.9701 149.054 20.4583 148.275 20.169C147.518 19.8796 146.717 19.735 145.871 19.735C141.576 19.735 139.428 22.8507 139.428 29.0822C139.428 31.1297 139.64 32.9881 140.062 34.6572C140.507 36.3264 141.186 37.6506 142.099 38.6298C143.033 39.5868 144.224 40.0653 145.671 40.0653C146.85 40.0653 147.919 39.776 148.876 39.1973C149.833 38.5964 150.645 37.8064 151.312 36.8271C152.002 35.8479 152.492 34.7907 152.781 33.6557H153.549L153.282 38.7299C152.548 39.5311 151.513 40.1988 150.177 40.7329C148.842 41.2448 147.251 41.5007 145.404 41.5007ZM167.688 18.2995C169.268 18.2995 170.737 18.5666 172.094 19.1007C173.452 19.6348 174.654 20.4138 175.7 21.4375C176.746 22.439 177.558 23.6519 178.137 25.0763C178.715 26.5006 179.005 28.0919 179.005 29.85C179.005 31.6082 178.715 33.1995 178.137 34.6238C177.558 36.0482 176.746 37.2722 175.7 38.296C174.676 39.3197 173.474 40.1098 172.094 40.6662C170.714 41.2226 169.234 41.5007 167.654 41.5007C166.096 41.5007 164.628 41.2337 163.248 40.6996C161.89 40.1654 160.688 39.3976 159.642 38.3961C158.596 37.3724 157.784 36.1483 157.205 34.724C156.627 33.2996 156.337 31.7084 156.337 29.9502C156.337 28.192 156.627 26.6008 157.205 25.1764C157.784 23.7521 158.585 22.528 159.609 21.5043C160.655 20.4805 161.868 19.6905 163.248 19.1341C164.628 18.5777 166.108 18.2995 167.688 18.2995ZM168.355 40.0653C169.513 40.0653 170.425 39.6869 171.093 38.9302C171.76 38.1513 172.239 37.0831 172.528 35.7255C172.84 34.3679 172.996 32.7878 172.996 30.9851C172.996 27.3574 172.439 24.5755 171.326 22.6393C170.236 20.7031 168.789 19.735 166.987 19.735C165.852 19.735 164.939 20.1133 164.249 20.87C163.582 21.6267 163.092 22.6949 162.78 24.0748C162.491 25.4324 162.346 27.0125 162.346 28.8152C162.346 32.4428 162.892 35.2247 163.982 37.1609C165.095 39.0972 166.553 40.0653 168.355 40.0653ZM194.458 41.2671C194.28 40.7552 194.058 40.2322 193.791 39.6981C193.546 39.1417 193.212 38.4184 192.789 37.5282L186.78 24.9761H186.713L186.113 37.6617C186.09 38.4184 186.268 39.0304 186.647 39.4978C187.025 39.9429 187.715 40.1877 188.716 40.2322V41L182.541 41V40.2322C183.186 40.1877 183.642 39.9429 183.909 39.4978C184.199 39.0304 184.354 38.4184 184.377 37.6617L185.078 22.1386C185.122 21.3596 185.067 20.8032 184.911 20.4694C184.777 20.1356 184.532 19.9241 184.176 19.8351C183.82 19.7238 183.342 19.6348 182.741 19.5681V18.8002H189.885C190.063 19.3789 190.263 19.9241 190.486 20.436C190.731 20.9479 190.998 21.5154 191.287 22.1386L197.029 34.1565H197.096L202.437 22.1386C202.949 21.0035 203.338 19.8908 203.605 18.8002H210.682V19.5681C210.26 19.5903 209.904 19.6571 209.614 19.7684C209.325 19.8796 209.113 20.1133 208.98 20.4694C208.869 20.8032 208.824 21.3596 208.846 22.1386L209.547 37.6617C209.592 38.3739 209.681 38.908 209.815 39.2641C209.97 39.6202 210.215 39.865 210.549 39.9985C210.883 40.1098 211.328 40.1877 211.884 40.2322V41H202.37V40.2322C203.082 40.1877 203.572 40.0208 203.839 39.7314C204.128 39.4421 204.251 38.7522 204.206 37.6617L203.639 24.008H203.572L197.53 37.5282C197.107 38.4629 196.795 39.1973 196.595 39.7314C196.417 40.2433 196.261 40.7552 196.127 41.2671H194.458ZM226.505 41.2671C226.327 40.7552 226.104 40.2322 225.837 39.6981C225.592 39.1417 225.258 38.4184 224.836 37.5282L218.827 24.9761H218.76L218.159 37.6617C218.137 38.4184 218.315 39.0304 218.693 39.4978C219.071 39.9429 219.761 40.1877 220.763 40.2322V41H214.587V40.2322C215.232 40.1877 215.689 39.9429 215.956 39.4978C216.245 39.0304 216.401 38.4184 216.423 37.6617L217.124 22.1386C217.169 21.3596 217.113 20.8032 216.957 20.4694C216.824 20.1356 216.579 19.9241 216.223 19.8351C215.867 19.7238 215.388 19.6348 214.787 19.5681V18.8002H221.931C222.109 19.3789 222.31 19.9241 222.532 20.436C222.777 20.9479 223.044 21.5154 223.333 22.1386L229.075 34.1565H229.142L234.483 22.1386C234.995 21.0035 235.385 19.8908 235.652 18.8002H242.729V19.5681C242.306 19.5903 241.95 19.6571 241.661 19.7684C241.371 19.8796 241.16 20.1133 241.026 20.4694C240.915 20.8032 240.871 21.3596 240.893 22.1386L241.594 37.6617C241.638 38.3739 241.727 38.908 241.861 39.2641C242.017 39.6202 242.262 39.865 242.595 39.9985C242.929 40.1098 243.374 40.1877 243.931 40.2322V41H234.417V40.2322C235.129 40.1877 235.618 40.0208 235.885 39.7314C236.175 39.4421 236.297 38.7522 236.253 37.6617L235.685 24.008H235.618L229.576 37.5282C229.153 38.4629 228.842 39.1973 228.641 39.7314C228.463 40.2433 228.307 40.7552 228.174 41.2671H226.505ZM270.12 34.8241H270.887L270.553 41H254.463V40.2322C254.641 40.1432 254.908 39.9874 255.264 39.7648C255.642 39.5423 256.032 39.2863 256.432 38.997C257.545 38.1958 258.591 37.2833 259.57 36.2596C260.55 35.2359 261.407 34.1453 262.141 32.9881C262.875 31.8308 263.454 30.6735 263.877 29.5162C264.3 28.3589 264.511 27.2573 264.511 26.2113C264.511 25.2098 264.266 24.3641 263.777 23.6742C263.309 22.9843 262.453 22.6393 261.206 22.6393C260.16 22.6393 259.192 22.9286 258.302 23.5073C257.412 24.0859 256.533 24.9872 255.665 26.2113L255.03 25.6772C255.943 23.3626 257.089 21.6378 258.469 20.5028C259.849 19.3678 261.573 18.8002 263.643 18.8002C264.845 18.8002 265.924 19.0005 266.881 19.4011C267.838 19.7795 268.595 20.3804 269.151 21.2038C269.73 22.005 270.019 23.051 270.019 24.3418C270.019 26.6341 269.285 28.7818 267.816 30.7848C266.369 32.7878 264.344 34.6683 261.74 36.4265V36.4933H266.614C267.883 36.4933 268.762 36.3375 269.252 36.0259C269.741 35.7143 270.03 35.3137 270.12 34.8241ZM284.328 18.8002C285.485 18.8002 286.62 19.0228 287.733 19.4679C288.846 19.913 289.847 20.6029 290.737 21.5377C291.628 22.4724 292.329 23.6519 292.841 25.0763C293.375 26.4784 293.642 28.1475 293.642 30.0837C293.642 31.9977 293.386 33.6668 292.874 35.0912C292.362 36.5155 291.661 37.7062 290.771 38.6632C289.881 39.6202 288.879 40.3323 287.766 40.7997C286.654 41.2671 285.496 41.5007 284.295 41.5007C283.137 41.5007 282.002 41.2782 280.889 40.8331C279.777 40.388 278.775 39.6981 277.885 38.7633C276.995 37.8286 276.283 36.6602 275.748 35.2581C275.237 33.8338 274.981 32.1535 274.981 30.2173C274.981 28.3033 275.237 26.6341 275.748 25.2098C276.26 23.7855 276.961 22.5948 277.852 21.6378C278.742 20.6808 279.743 19.9687 280.856 19.5013C281.969 19.0339 283.126 18.8002 284.328 18.8002ZM284.428 40.0653C285.073 40.0653 285.663 39.776 286.197 39.1973C286.732 38.6187 287.154 37.6394 287.466 36.2596C287.8 34.8798 287.967 32.9881 287.967 30.5845C287.967 28.4925 287.822 26.6787 287.533 25.143C287.266 23.5852 286.854 22.3834 286.298 21.5377C285.741 20.6697 285.04 20.2357 284.194 20.2357C283.571 20.2357 282.981 20.525 282.425 21.1037C281.891 21.6823 281.457 22.6616 281.123 24.0414C280.812 25.4212 280.656 27.3129 280.656 29.7165C280.656 31.8085 280.789 33.6335 281.056 35.1913C281.346 36.727 281.769 37.9288 282.325 38.7967C282.881 39.6424 283.582 40.0653 284.428 40.0653ZM312.077 34.8241H312.844L312.511 41H296.42V40.2322C296.598 40.1432 296.865 39.9874 297.221 39.7648C297.599 39.5423 297.989 39.2863 298.39 38.997C299.502 38.1958 300.548 37.2833 301.528 36.2596C302.507 35.2359 303.364 34.1453 304.098 32.9881C304.832 31.8308 305.411 30.6735 305.834 29.5162C306.257 28.3589 306.468 27.2573 306.468 26.2113C306.468 25.2098 306.223 24.3641 305.734 23.6742C305.266 22.9843 304.41 22.6393 303.163 22.6393C302.117 22.6393 301.149 22.9286 300.259 23.5073C299.369 24.0859 298.49 24.9872 297.622 26.2113L296.987 25.6772C297.9 23.3626 299.046 21.6378 300.426 20.5028C301.806 19.3678 303.531 18.8002 305.6 18.8002C306.802 18.8002 307.881 19.0005 308.838 19.4011C309.795 19.7795 310.552 20.3804 311.108 21.2038C311.687 22.005 311.976 23.051 311.976 24.3418C311.976 26.6341 311.242 28.7818 309.773 30.7848C308.327 32.7878 306.301 34.6683 303.697 36.4265V36.4933H308.571C309.84 36.4933 310.719 36.3375 311.209 36.0259C311.698 35.7143 311.988 35.3137 312.077 34.8241ZM330.625 32.4873H332.962V36.6602H331.56C330.936 36.6602 330.625 37.0497 330.625 37.8286C330.625 38.3627 330.625 38.8857 330.625 39.3976C330.647 39.8872 330.669 40.4214 330.692 41H325.417C325.462 40.2656 325.495 39.5534 325.517 38.8635C325.539 38.1513 325.562 37.4169 325.584 36.6602H315.035V35.8924C315.614 35.336 316.137 34.7574 316.604 34.1565L327.52 20.5028C327.765 20.1912 327.988 19.8908 328.188 19.6014C328.41 19.2899 328.588 19.0228 328.722 18.8002L330.658 18.8002L330.625 32.4873ZM325.517 25.5102L319.942 32.4873H325.617V25.5102H325.517Z" fill="black"/>
<path d="M380.746 24.6719C376.087 22.8115 370.621 23.8037 366.894 27.5245C361.863 32.5477 361.863 40.6715 366.894 45.6946C370.621 49.4154 376.087 50.4077 380.746 48.5472V42.5939C379.814 43.028 378.82 43.2761 377.764 43.2761C374.037 43.2761 371.056 40.2994 371.056 36.5786C371.056 32.8577 374.037 29.8811 377.764 29.8811C378.82 29.8811 379.876 30.1291 380.746 30.5632V24.6719Z" fill="black"/>
<path d="M378.636 18.7058C380.471 16.8661 380.471 13.8212 378.636 11.9181C376.801 10.0784 373.763 10.0784 371.865 11.9181C369.966 13.7577 370.03 16.8027 371.865 18.7058C373.763 20.5454 376.801 20.5454 378.636 18.7058Z" fill="black"/>
<path d="M411.559 41V40.2322C412.204 40.1877 412.671 40.0208 412.961 39.7314C413.25 39.4421 413.395 38.7522 413.395 37.6617V22.1386C413.395 21.048 413.228 20.3581 412.894 20.0688C412.582 19.7572 411.97 19.5903 411.058 19.5681V18.8002H420.572V19.5681C419.927 19.5903 419.459 19.7572 419.17 20.0688C418.881 20.3581 418.736 21.048 418.736 22.1386V37.6617C418.736 38.7522 418.903 39.4421 419.237 39.7314C419.571 40.0208 420.183 40.1877 421.073 40.2322V41H411.559ZM444.19 41.2671C443.856 40.911 443.511 40.566 443.155 40.2322C442.799 39.8761 442.232 39.3531 441.453 38.6632L428.3 26.6453H428.233V37.6617C428.233 38.4184 428.422 39.0304 428.8 39.4978C429.201 39.9429 429.88 40.1877 430.837 40.2322V41H424.661V40.2322C425.306 40.1877 425.774 39.9429 426.063 39.4978C426.352 39.0304 426.497 38.4184 426.497 37.6617V22.1386C426.497 21.048 426.33 20.3581 425.996 20.0688C425.685 19.7572 425.073 19.5903 424.16 19.5681V18.8002H428.166C428.5 19.2231 428.856 19.6014 429.234 19.9353C429.613 20.2691 430.047 20.6697 430.536 21.1371L443.823 33.155H443.89V22.1386C443.89 21.3819 443.7 20.7698 443.322 20.3025C442.944 19.8351 442.265 19.5903 441.286 19.5681V18.8002H447.462V19.5681C446.816 19.5903 446.349 19.8351 446.06 20.3025C445.77 20.7698 445.626 21.3819 445.626 22.1386V37.6617C445.626 38.2848 445.626 38.8857 445.626 39.4644C445.648 40.0208 445.67 40.6217 445.692 41.2671H444.19ZM450.102 18.8002L469.13 18.8002V24.3085H468.362C468.229 23.1067 467.873 22.1274 467.294 21.3707C466.715 20.6141 465.725 20.2357 464.323 20.2357H462.287V37.6617C462.287 38.7522 462.453 39.4421 462.787 39.7314C463.121 40.0208 463.733 40.1877 464.623 40.2322V41H455.109V40.2322C455.755 40.1877 456.222 40.0208 456.511 39.7314C456.801 39.4421 456.945 38.7522 456.945 37.6617V20.2357H454.876C453.518 20.2357 452.539 20.6141 451.938 21.3707C451.359 22.1274 451.003 23.1067 450.87 24.3085H450.102V18.8002ZM472.159 41V40.2322C472.805 40.1877 473.272 40.0208 473.561 39.7314C473.851 39.4421 473.995 38.7522 473.995 37.6617V22.1386C473.995 21.048 473.829 20.3581 473.495 20.0688C473.183 19.7572 472.571 19.5903 471.659 19.5681V18.8002H488.05V23.4739H487.282C487.237 22.5169 486.904 21.738 486.28 21.1371C485.68 20.5362 484.745 20.2357 483.476 20.2357H480.806C480.338 20.2357 479.971 20.3581 479.704 20.6029C479.459 20.8477 479.337 21.3596 479.337 22.1386V28.715C479.515 28.5815 479.726 28.4925 479.971 28.448C480.238 28.4034 480.55 28.3812 480.906 28.3812H484.144C484.812 28.3812 485.368 28.192 485.813 27.8137C486.258 27.4353 486.492 26.9123 486.514 26.2447H487.282V31.9198H486.514C486.492 31.0963 486.258 30.54 485.813 30.2506C485.368 29.9613 484.812 29.8167 484.144 29.8167H480.972C480.372 29.8167 479.949 29.9168 479.704 30.1171C479.459 30.3174 479.337 30.7069 479.337 31.2855V37.6617C479.337 38.4406 479.504 38.9525 479.837 39.1973C480.194 39.4421 480.872 39.5645 481.874 39.5645H485.045C486.381 39.5645 487.438 39.1639 488.217 38.3627C488.996 37.5615 489.43 36.6046 489.519 35.4918H490.286L490.019 41H472.159ZM512.683 41.5007C511.681 41.5007 510.824 41.3338 510.112 41C509.4 40.6884 508.799 40.2656 508.309 39.7314C507.82 39.1973 507.363 38.6075 506.941 37.9621L502.267 30.6846C502.044 30.3063 501.844 30.0726 501.666 29.9836C501.488 29.8946 501.277 29.8389 501.032 29.8167V28.6483C502.367 28.5592 503.402 28.2922 504.136 27.8471C504.871 27.402 505.383 26.8567 505.672 26.2113C505.961 25.5436 506.106 24.8537 506.106 24.1415C506.106 22.784 505.728 21.7713 504.971 21.1037C504.214 20.4138 503.346 20.0688 502.367 20.0688C501.633 20.0688 501.11 20.2023 500.798 20.4694C500.509 20.7142 500.364 21.2706 500.364 22.1386V37.6617C500.364 38.7522 500.531 39.4421 500.865 39.7314C501.199 40.0208 501.811 40.1877 502.701 40.2322V41H493.187V40.2322C493.832 40.1877 494.3 40.0208 494.589 39.7314C494.878 39.4421 495.023 38.7522 495.023 37.6617V22.1386C495.023 21.048 494.856 20.3581 494.522 20.0688C494.211 19.7572 493.599 19.5903 492.686 19.5681V18.8002H495.023C496.692 18.8002 498.205 18.778 499.563 18.7335C500.921 18.6667 502.078 18.6333 503.035 18.6333C505.238 18.6333 506.985 18.8448 508.276 19.2676C509.589 19.6682 510.524 20.2357 511.08 20.9701C511.659 21.7046 511.948 22.5391 511.948 23.4739C511.948 24.3641 511.726 25.1764 511.28 25.9108C510.858 26.6453 510.29 27.2684 509.578 27.7803C508.888 28.2699 508.131 28.6149 507.308 28.8152V28.8819L512.849 37.5615C513.495 38.5853 514.085 39.2863 514.619 39.6647C515.153 40.043 515.631 40.2322 516.054 40.2322V41C515.609 41.1558 515.075 41.2782 514.452 41.3672C513.851 41.4562 513.261 41.5007 512.683 41.5007ZM528.448 41.5007C526.111 41.5007 524.042 41.0334 522.239 40.0987C520.436 39.1639 519.023 37.8509 517.999 36.1595C516.976 34.4458 516.464 32.4651 516.464 30.2173C516.464 28.3701 516.798 26.7232 517.465 25.2766C518.133 23.8077 519.045 22.5503 520.203 21.5043C521.382 20.4583 522.729 19.6682 524.242 19.1341C525.778 18.5777 527.413 18.2995 529.149 18.2995C530.462 18.2995 531.72 18.4219 532.922 18.6667C534.123 18.9115 535.08 19.2008 535.792 19.5347V24.8092H535.025C534.58 23.4516 534.045 22.4167 533.422 21.7046C532.799 20.9701 532.098 20.4583 531.319 20.169C530.562 19.8796 529.761 19.735 528.916 19.735C524.62 19.735 522.473 22.8507 522.473 29.0822C522.473 31.1297 522.684 32.9881 523.107 34.6572C523.552 36.3264 524.231 37.6506 525.143 38.6298C526.078 39.5868 527.269 40.0653 528.715 40.0653C529.895 40.0653 530.963 39.776 531.92 39.1973C532.877 38.5964 533.689 37.8064 534.357 36.8271C535.047 35.8479 535.537 34.7907 535.826 33.6557H536.594L536.327 38.7299C535.592 39.5311 534.557 40.1988 533.222 40.7329C531.887 41.2448 530.295 41.5007 528.448 41.5007ZM550.732 18.2995C552.312 18.2995 553.781 18.5666 555.139 19.1007C556.496 19.6348 557.698 20.4138 558.744 21.4375C559.79 22.439 560.602 23.6519 561.181 25.0763C561.76 26.5006 562.049 28.0919 562.049 29.85C562.049 31.6082 561.76 33.1995 561.181 34.6238C560.602 36.0482 559.79 37.2722 558.744 38.296C557.72 39.3197 556.519 40.1098 555.139 40.6662C553.759 41.2226 552.279 41.5007 550.699 41.5007C549.141 41.5007 547.672 41.2337 546.292 40.6996C544.935 40.1654 543.733 39.3976 542.687 38.3961C541.641 37.3724 540.829 36.1483 540.25 34.724C539.671 33.2996 539.382 31.7084 539.382 29.9502C539.382 28.192 539.671 26.6008 540.25 25.1764C540.829 23.7521 541.63 22.528 542.653 21.5043C543.699 20.4805 544.912 19.6905 546.292 19.1341C547.672 18.5777 549.152 18.2995 550.732 18.2995ZM551.4 40.0653C552.557 40.0653 553.47 39.6869 554.137 38.9302C554.805 38.1513 555.283 37.0831 555.573 35.7255C555.884 34.3679 556.04 32.7878 556.04 30.9851C556.04 27.3574 555.484 24.5755 554.371 22.6393C553.28 20.7031 551.834 19.735 550.031 19.735C548.896 19.735 547.984 20.1133 547.294 20.87C546.626 21.6267 546.136 22.6949 545.825 24.0748C545.536 25.4324 545.391 27.0125 545.391 28.8152C545.391 32.4428 545.936 35.2247 547.027 37.1609C548.139 39.0972 549.597 40.0653 551.4 40.0653ZM577.503 41.2671C577.325 40.7552 577.102 40.2322 576.835 39.6981C576.59 39.1417 576.257 38.4184 575.834 37.5282L569.825 24.9761H569.758L569.157 37.6617C569.135 38.4184 569.313 39.0304 569.691 39.4978C570.07 39.9429 570.759 40.1877 571.761 40.2322V41L565.585 41V40.2322C566.23 40.1877 566.687 39.9429 566.954 39.4978C567.243 39.0304 567.399 38.4184 567.421 37.6617L568.122 22.1386C568.167 21.3596 568.111 20.8032 567.955 20.4694C567.822 20.1356 567.577 19.9241 567.221 19.8351C566.865 19.7238 566.386 19.6348 565.785 19.5681V18.8002H572.929C573.107 19.3789 573.308 19.9241 573.53 20.436C573.775 20.9479 574.042 21.5154 574.331 22.1386L580.073 34.1565H580.14L585.481 22.1386C585.993 21.0035 586.383 19.8908 586.65 18.8002H593.727V19.5681C593.304 19.5903 592.948 19.6571 592.659 19.7684C592.369 19.8796 592.158 20.1133 592.024 20.4694C591.913 20.8032 591.869 21.3596 591.891 22.1386L592.592 37.6617C592.636 38.3739 592.726 38.908 592.859 39.2641C593.015 39.6202 593.26 39.865 593.593 39.9985C593.927 40.1098 594.372 40.1877 594.929 40.2322V41H585.415V40.2322C586.127 40.1877 586.616 40.0208 586.883 39.7314C587.173 39.4421 587.295 38.7522 587.251 37.6617L586.683 24.008H586.616L580.574 37.5282C580.151 38.4629 579.84 39.1973 579.639 39.7314C579.461 40.2433 579.306 40.7552 579.172 41.2671H577.503ZM609.549 41.2671C609.371 40.7552 609.149 40.2322 608.882 39.6981C608.637 39.1417 608.303 38.4184 607.88 37.5282L601.871 24.9761H601.804L601.204 37.6617C601.181 38.4184 601.359 39.0304 601.738 39.4978C602.116 39.9429 602.806 40.1877 603.807 40.2322V41H597.632V40.2322C598.277 40.1877 598.733 39.9429 599 39.4978C599.29 39.0304 599.445 38.4184 599.468 37.6617L600.169 22.1386C600.213 21.3596 600.158 20.8032 600.002 20.4694C599.868 20.1356 599.623 19.9241 599.267 19.8351C598.911 19.7238 598.433 19.6348 597.832 19.5681V18.8002H604.976C605.154 19.3789 605.354 19.9241 605.577 20.436C605.822 20.9479 606.089 21.5154 606.378 22.1386L612.12 34.1565H612.187L617.528 22.1386C618.04 21.0035 618.429 19.8908 618.696 18.8002H625.773V19.5681C625.351 19.5903 624.995 19.6571 624.705 19.7684C624.416 19.8796 624.204 20.1133 624.071 20.4694C623.96 20.8032 623.915 21.3596 623.937 22.1386L624.638 37.6617C624.683 38.3739 624.772 38.908 624.906 39.2641C625.061 39.6202 625.306 39.865 625.64 39.9985C625.974 40.1098 626.419 40.1877 626.975 40.2322V41H617.461V40.2322C618.173 40.1877 618.663 40.0208 618.93 39.7314C619.219 39.4421 619.342 38.7522 619.297 37.6617L618.73 24.008H618.663L612.621 37.5282C612.198 38.4629 611.886 39.1973 611.686 39.7314C611.508 40.2433 611.352 40.7552 611.218 41.2671H609.549ZM653.164 34.8241H653.932L653.598 41H637.507V40.2322C637.685 40.1432 637.952 39.9874 638.309 39.7648C638.687 39.5423 639.076 39.2863 639.477 38.997C640.59 38.1958 641.636 37.2833 642.615 36.2596C643.594 35.2359 644.451 34.1453 645.185 32.9881C645.92 31.8308 646.499 30.6735 646.921 29.5162C647.344 28.3589 647.556 27.2573 647.556 26.2113C647.556 25.2098 647.311 24.3641 646.821 23.6742C646.354 22.9843 645.497 22.6393 644.251 22.6393C643.205 22.6393 642.237 22.9286 641.346 23.5073C640.456 24.0859 639.577 24.9872 638.709 26.2113L638.075 25.6772C638.987 23.3626 640.133 21.6378 641.513 20.5028C642.893 19.3678 644.618 18.8002 646.688 18.8002C647.89 18.8002 648.969 19.0005 649.926 19.4011C650.883 19.7795 651.64 20.3804 652.196 21.2038C652.775 22.005 653.064 23.051 653.064 24.3418C653.064 26.6341 652.329 28.7818 650.861 30.7848C649.414 32.7878 647.389 34.6683 644.785 36.4265V36.4933H649.659C650.927 36.4933 651.806 36.3375 652.296 36.0259C652.786 35.7143 653.075 35.3137 653.164 34.8241ZM667.372 18.8002C668.53 18.8002 669.665 19.0228 670.778 19.4679C671.89 19.913 672.892 20.6029 673.782 21.5377C674.672 22.4724 675.373 23.6519 675.885 25.0763C676.419 26.4784 676.686 28.1475 676.686 30.0837C676.686 31.9977 676.43 33.6668 675.919 35.0912C675.407 36.5155 674.706 37.7062 673.815 38.6632C672.925 39.6202 671.924 40.3323 670.811 40.7997C669.698 41.2671 668.541 41.5007 667.339 41.5007C666.182 41.5007 665.047 41.2782 663.934 40.8331C662.821 40.388 661.82 39.6981 660.93 38.7633C660.039 37.8286 659.327 36.6602 658.793 35.2581C658.281 33.8338 658.025 32.1535 658.025 30.2173C658.025 28.3033 658.281 26.6341 658.793 25.2098C659.305 23.7855 660.006 22.5948 660.896 21.6378C661.786 20.6808 662.788 19.9687 663.901 19.5013C665.013 19.0339 666.171 18.8002 667.372 18.8002ZM667.473 40.0653C668.118 40.0653 668.708 39.776 669.242 39.1973C669.776 38.6187 670.199 37.6394 670.51 36.2596C670.844 34.8798 671.011 32.9881 671.011 30.5845C671.011 28.4925 670.867 26.6787 670.577 25.143C670.31 23.5852 669.898 22.3834 669.342 21.5377C668.786 20.6697 668.085 20.2357 667.239 20.2357C666.616 20.2357 666.026 20.525 665.47 21.1037C664.935 21.6823 664.502 22.6616 664.168 24.0414C663.856 25.4212 663.7 27.3129 663.7 29.7165C663.7 31.8085 663.834 33.6335 664.101 35.1913C664.39 36.727 664.813 37.9288 665.369 38.7967C665.926 39.6424 666.627 40.0653 667.473 40.0653ZM695.121 34.8241H695.889L695.555 41H679.464V40.2322C679.642 40.1432 679.91 39.9874 680.266 39.7648C680.644 39.5423 681.033 39.2863 681.434 38.997C682.547 38.1958 683.593 37.2833 684.572 36.2596C685.551 35.2359 686.408 34.1453 687.143 32.9881C687.877 31.8308 688.456 30.6735 688.878 29.5162C689.301 28.3589 689.513 27.2573 689.513 26.2113C689.513 25.2098 689.268 24.3641 688.778 23.6742C688.311 22.9843 687.454 22.6393 686.208 22.6393C685.162 22.6393 684.194 22.9286 683.303 23.5073C682.413 24.0859 681.534 24.9872 680.666 26.2113L680.032 25.6772C680.944 23.3626 682.091 21.6378 683.47 20.5028C684.85 19.3678 686.575 18.8002 688.645 18.8002C689.847 18.8002 690.926 19.0005 691.883 19.4011C692.84 19.7795 693.597 20.3804 694.153 21.2038C694.732 22.005 695.021 23.051 695.021 24.3418C695.021 26.6341 694.287 28.7818 692.818 30.7848C691.371 32.7878 689.346 34.6683 686.742 36.4265V36.4933H691.616C692.884 36.4933 693.764 36.3375 694.253 36.0259C694.743 35.7143 695.032 35.3137 695.121 34.8241ZM713.669 32.4873H716.006V36.6602H714.604C713.981 36.6602 713.669 37.0497 713.669 37.8286C713.669 38.3627 713.669 38.8857 713.669 39.3976C713.692 39.8872 713.714 40.4214 713.736 41H708.462C708.506 40.2656 708.539 39.5534 708.562 38.8635C708.584 38.1513 708.606 37.4169 708.628 36.6602H698.079V35.8924C698.658 35.336 699.181 34.7574 699.648 34.1565L710.565 20.5028C710.81 20.1912 711.032 19.8908 711.232 19.6014C711.455 19.2899 711.633 19.0228 711.766 18.8002L713.703 18.8002L713.669 32.4873ZM708.562 25.5102L702.987 32.4873H708.662V25.5102H708.562Z" fill="black"/>
<path d="M763.791 24.6719C759.132 22.8115 753.666 23.8037 749.939 27.5245C744.907 32.5477 744.907 40.6715 749.939 45.6946C753.666 49.4154 759.132 50.4077 763.791 48.5472V42.5939C762.859 43.028 761.865 43.2761 760.809 43.2761C757.082 43.2761 754.1 40.2994 754.1 36.5786C754.1 32.8577 757.082 29.8811 760.809 29.8811C761.865 29.8811 762.921 30.1291 763.791 30.5632V24.6719Z" fill="black"/>
<path d="M761.68 18.7058C763.515 16.8661 763.515 13.8212 761.68 11.9181C759.845 10.0784 756.808 10.0784 754.909 11.9181C753.011 13.7577 753.074 16.8027 754.909 18.7058C756.808 20.5454 759.845 20.5454 761.68 18.7058Z" fill="black"/>
<path d="M794.603 41V40.2322C795.249 40.1877 795.716 40.0208 796.005 39.7314C796.295 39.4421 796.439 38.7522 796.439 37.6617V22.1386C796.439 21.048 796.272 20.3581 795.938 20.0688C795.627 19.7572 795.015 19.5903 794.102 19.5681V18.8002H803.617V19.5681C802.971 19.5903 802.504 19.7572 802.214 20.0688C801.925 20.3581 801.781 21.048 801.781 22.1386V37.6617C801.781 38.7522 801.947 39.4421 802.281 39.7314C802.615 40.0208 803.227 40.1877 804.117 40.2322V41H794.603ZM827.235 41.2671C826.901 40.911 826.556 40.566 826.2 40.2322C825.844 39.8761 825.276 39.3531 824.497 38.6632L811.344 26.6453H811.277V37.6617C811.277 38.4184 811.467 39.0304 811.845 39.4978C812.246 39.9429 812.924 40.1877 813.881 40.2322V41H807.705V40.2322C808.351 40.1877 808.818 39.9429 809.108 39.4978C809.397 39.0304 809.542 38.4184 809.542 37.6617V22.1386C809.542 21.048 809.375 20.3581 809.041 20.0688C808.729 19.7572 808.117 19.5903 807.205 19.5681V18.8002H811.211C811.545 19.2231 811.901 19.6014 812.279 19.9353C812.657 20.2691 813.091 20.6697 813.581 21.1371L826.867 33.155H826.934V22.1386C826.934 21.3819 826.745 20.7698 826.367 20.3025C825.988 19.8351 825.309 19.5903 824.33 19.5681V18.8002H830.506V19.5681C829.861 19.5903 829.393 19.8351 829.104 20.3025C828.815 20.7698 828.67 21.3819 828.67 22.1386V37.6617C828.67 38.2848 828.67 38.8857 828.67 39.4644C828.692 40.0208 828.715 40.6217 828.737 41.2671H827.235ZM833.146 18.8002L852.175 18.8002V24.3085H851.407C851.273 23.1067 850.917 22.1274 850.339 21.3707C849.76 20.6141 848.77 20.2357 847.367 20.2357H845.331V37.6617C845.331 38.7522 845.498 39.4421 845.832 39.7314C846.166 40.0208 846.778 40.1877 847.668 40.2322V41H838.154V40.2322C838.799 40.1877 839.266 40.0208 839.556 39.7314C839.845 39.4421 839.99 38.7522 839.99 37.6617V20.2357H837.92C836.562 20.2357 835.583 20.6141 834.982 21.3707C834.404 22.1274 834.048 23.1067 833.914 24.3085H833.146V18.8002ZM855.204 41V40.2322C855.849 40.1877 856.317 40.0208 856.606 39.7314C856.895 39.4421 857.04 38.7522 857.04 37.6617V22.1386C857.04 21.048 856.873 20.3581 856.539 20.0688C856.228 19.7572 855.616 19.5903 854.703 19.5681V18.8002H871.094V23.4739H870.326C870.282 22.5169 869.948 21.738 869.325 21.1371C868.724 20.5362 867.789 20.2357 866.521 20.2357H863.85C863.383 20.2357 863.016 20.3581 862.748 20.6029C862.504 20.8477 862.381 21.3596 862.381 22.1386V28.715C862.559 28.5815 862.771 28.4925 863.016 28.448C863.283 28.4034 863.594 28.3812 863.95 28.3812H867.188C867.856 28.3812 868.412 28.192 868.858 27.8137C869.303 27.4353 869.536 26.9123 869.559 26.2447H870.326V31.9198H869.559C869.536 31.0963 869.303 30.54 868.858 30.2506C868.412 29.9613 867.856 29.8167 867.188 29.8167H864.017C863.416 29.8167 862.993 29.9168 862.748 30.1171C862.504 30.3174 862.381 30.7069 862.381 31.2855V37.6617C862.381 38.4406 862.548 38.9525 862.882 39.1973C863.238 39.4421 863.917 39.5645 864.918 39.5645H868.09C869.425 39.5645 870.482 39.1639 871.261 38.3627C872.04 37.5615 872.474 36.6046 872.563 35.4918H873.331L873.064 41H855.204ZM895.727 41.5007C894.726 41.5007 893.869 41.3338 893.157 41C892.444 40.6884 891.843 40.2656 891.354 39.7314C890.864 39.1973 890.408 38.6075 889.985 37.9621L885.312 30.6846C885.089 30.3063 884.889 30.0726 884.711 29.9836C884.533 29.8946 884.321 29.8389 884.076 29.8167V28.6483C885.412 28.5592 886.447 28.2922 887.181 27.8471C887.915 27.402 888.427 26.8567 888.717 26.2113C889.006 25.5436 889.151 24.8537 889.151 24.1415C889.151 22.784 888.772 21.7713 888.016 21.1037C887.259 20.4138 886.391 20.0688 885.412 20.0688C884.677 20.0688 884.154 20.2023 883.843 20.4694C883.553 20.7142 883.409 21.2706 883.409 22.1386V37.6617C883.409 38.7522 883.576 39.4421 883.909 39.7314C884.243 40.0208 884.855 40.1877 885.745 40.2322V41H876.231V40.2322C876.877 40.1877 877.344 40.0208 877.633 39.7314C877.923 39.4421 878.067 38.7522 878.067 37.6617V22.1386C878.067 21.048 877.9 20.3581 877.567 20.0688C877.255 19.7572 876.643 19.5903 875.731 19.5681V18.8002H878.067C879.737 18.8002 881.25 18.778 882.607 18.7335C883.965 18.6667 885.122 18.6333 886.079 18.6333C888.283 18.6333 890.03 18.8448 891.32 19.2676C892.634 19.6682 893.568 20.2357 894.125 20.9701C894.703 21.7046 894.993 22.5391 894.993 23.4739C894.993 24.3641 894.77 25.1764 894.325 25.9108C893.902 26.6453 893.335 27.2684 892.622 27.7803C891.932 28.2699 891.176 28.6149 890.352 28.8152V28.8819L895.894 37.5615C896.539 38.5853 897.129 39.2863 897.663 39.6647C898.197 40.043 898.676 40.2322 899.099 40.2322V41C898.654 41.1558 898.119 41.2782 897.496 41.3672C896.895 41.4562 896.306 41.5007 895.727 41.5007ZM911.493 41.5007C909.156 41.5007 907.086 41.0334 905.283 40.0987C903.481 39.1639 902.068 37.8509 901.044 36.1595C900.02 34.4458 899.508 32.4651 899.508 30.2173C899.508 28.3701 899.842 26.7232 900.51 25.2766C901.177 23.8077 902.09 22.5503 903.247 21.5043C904.427 20.4583 905.773 19.6682 907.286 19.1341C908.822 18.5777 910.458 18.2995 912.194 18.2995C913.507 18.2995 914.764 18.4219 915.966 18.6667C917.168 18.9115 918.125 19.2008 918.837 19.5347V24.8092H918.069C917.624 23.4516 917.09 22.4167 916.467 21.7046C915.844 20.9701 915.143 20.4583 914.364 20.169C913.607 19.8796 912.806 19.735 911.96 19.735C907.665 19.735 905.517 22.8507 905.517 29.0822C905.517 31.1297 905.729 32.9881 906.151 34.6572C906.597 36.3264 907.275 37.6506 908.188 38.6298C909.123 39.5868 910.313 40.0653 911.76 40.0653C912.939 40.0653 914.008 39.776 914.965 39.1973C915.922 38.5964 916.734 37.8064 917.402 36.8271C918.091 35.8479 918.581 34.7907 918.87 33.6557H919.638L919.371 38.7299C918.637 39.5311 917.602 40.1988 916.267 40.7329C914.931 41.2448 913.34 41.5007 911.493 41.5007ZM933.777 18.2995C935.357 18.2995 936.826 18.5666 938.183 19.1007C939.541 19.6348 940.743 20.4138 941.789 21.4375C942.835 22.439 943.647 23.6519 944.226 25.0763C944.804 26.5006 945.094 28.0919 945.094 29.85C945.094 31.6082 944.804 33.1995 944.226 34.6238C943.647 36.0482 942.835 37.2722 941.789 38.296C940.765 39.3197 939.563 40.1098 938.183 40.6662C936.803 41.2226 935.323 41.5007 933.743 41.5007C932.185 41.5007 930.717 41.2337 929.337 40.6996C927.979 40.1654 926.777 39.3976 925.731 38.3961C924.685 37.3724 923.873 36.1483 923.294 34.724C922.716 33.2996 922.426 31.7084 922.426 29.9502C922.426 28.192 922.716 26.6008 923.294 25.1764C923.873 23.7521 924.674 22.528 925.698 21.5043C926.744 20.4805 927.957 19.6905 929.337 19.1341C930.717 18.5777 932.197 18.2995 933.777 18.2995ZM934.444 40.0653C935.602 40.0653 936.514 39.6869 937.182 38.9302C937.849 38.1513 938.328 37.0831 938.617 35.7255C938.929 34.3679 939.085 32.7878 939.085 30.9851C939.085 27.3574 938.528 24.5755 937.415 22.6393C936.325 20.7031 934.878 19.735 933.076 19.735C931.941 19.735 931.028 20.1133 930.338 20.87C929.671 21.6267 929.181 22.6949 928.869 24.0748C928.58 25.4324 928.435 27.0125 928.435 28.8152C928.435 32.4428 928.981 35.2247 930.071 37.1609C931.184 39.0972 932.642 40.0653 934.444 40.0653ZM960.547 41.2671C960.369 40.7552 960.147 40.2322 959.88 39.6981C959.635 39.1417 959.301 38.4184 958.878 37.5282L952.869 24.9761H952.802L952.202 37.6617C952.179 38.4184 952.357 39.0304 952.736 39.4978C953.114 39.9429 953.804 40.1877 954.805 40.2322V41L948.63 41V40.2322C949.275 40.1877 949.731 39.9429 949.998 39.4978C950.288 39.0304 950.443 38.4184 950.466 37.6617L951.167 22.1386C951.211 21.3596 951.156 20.8032 951 20.4694C950.866 20.1356 950.621 19.9241 950.265 19.8351C949.909 19.7238 949.431 19.6348 948.83 19.5681V18.8002H955.974C956.152 19.3789 956.352 19.9241 956.575 20.436C956.82 20.9479 957.087 21.5154 957.376 22.1386L963.118 34.1565H963.185L968.526 22.1386C969.038 21.0035 969.427 19.8908 969.694 18.8002H976.772V19.5681C976.349 19.5903 975.993 19.6571 975.703 19.7684C975.414 19.8796 975.203 20.1133 975.069 20.4694C974.958 20.8032 974.913 21.3596 974.935 22.1386L975.637 37.6617C975.681 38.3739 975.77 38.908 975.904 39.2641C976.059 39.6202 976.304 39.865 976.638 39.9985C976.972 40.1098 977.417 40.1877 977.973 40.2322V41H968.459V40.2322C969.171 40.1877 969.661 40.0208 969.928 39.7314C970.217 39.4421 970.34 38.7522 970.295 37.6617L969.728 24.008H969.661L963.619 37.5282C963.196 38.4629 962.884 39.1973 962.684 39.7314C962.506 40.2433 962.35 40.7552 962.216 41.2671H960.547ZM992.594 41.2671C992.416 40.7552 992.193 40.2322 991.926 39.6981C991.681 39.1417 991.348 38.4184 990.925 37.5282L984.916 24.9761H984.849L984.248 37.6617C984.226 38.4184 984.404 39.0304 984.782 39.4978C985.161 39.9429 985.85 40.1877 986.852 40.2322V41H980.676V40.2322C981.321 40.1877 981.778 39.9429 982.045 39.4978C982.334 39.0304 982.49 38.4184 982.512 37.6617L983.213 22.1386C983.258 21.3596 983.202 20.8032 983.046 20.4694C982.913 20.1356 982.668 19.9241 982.312 19.8351C981.956 19.7238 981.477 19.6348 980.876 19.5681V18.8002H988.02C988.198 19.3789 988.399 19.9241 988.621 20.436C988.866 20.9479 989.133 21.5154 989.422 22.1386L995.164 34.1565H995.231L1000.57 22.1386C1001.08 21.0035 1001.47 19.8908 1001.74 18.8002H1008.82V19.5681C1008.4 19.5903 1008.04 19.6571 1007.75 19.7684C1007.46 19.8796 1007.25 20.1133 1007.12 20.4694C1007 20.8032 1006.96 21.3596 1006.98 22.1386L1007.68 37.6617C1007.73 38.3739 1007.82 38.908 1007.95 39.2641C1008.11 39.6202 1008.35 39.865 1008.68 39.9985C1009.02 40.1098 1009.46 40.1877 1010.02 40.2322V41H1000.51V40.2322C1001.22 40.1877 1001.71 40.0208 1001.97 39.7314C1002.26 39.4421 1002.39 38.7522 1002.34 37.6617L1001.77 24.008H1001.71L995.665 37.5282C995.242 38.4629 994.931 39.1973 994.73 39.7314C994.552 40.2433 994.397 40.7552 994.263 41.2671H992.594ZM1036.21 34.8241H1036.98L1036.64 41H1020.55V40.2322C1020.73 40.1432 1021 39.9874 1021.35 39.7648C1021.73 39.5423 1022.12 39.2863 1022.52 38.997C1023.63 38.1958 1024.68 37.2833 1025.66 36.2596C1026.64 35.2359 1027.5 34.1453 1028.23 32.9881C1028.96 31.8308 1029.54 30.6735 1029.97 29.5162C1030.39 28.3589 1030.6 27.2573 1030.6 26.2113C1030.6 25.2098 1030.36 24.3641 1029.87 23.6742C1029.4 22.9843 1028.54 22.6393 1027.3 22.6393C1026.25 22.6393 1025.28 22.9286 1024.39 23.5073C1023.5 24.0859 1022.62 24.9872 1021.75 26.2113L1021.12 25.6772C1022.03 23.3626 1023.18 21.6378 1024.56 20.5028C1025.94 19.3678 1027.66 18.8002 1029.73 18.8002C1030.93 18.8002 1032.01 19.0005 1032.97 19.4011C1033.93 19.7795 1034.68 20.3804 1035.24 21.2038C1035.82 22.005 1036.11 23.051 1036.11 24.3418C1036.11 26.6341 1035.37 28.7818 1033.91 30.7848C1032.46 32.7878 1030.43 34.6683 1027.83 36.4265V36.4933H1032.7C1033.97 36.4933 1034.85 36.3375 1035.34 36.0259C1035.83 35.7143 1036.12 35.3137 1036.21 34.8241ZM1050.42 18.8002C1051.57 18.8002 1052.71 19.0228 1053.82 19.4679C1054.93 19.913 1055.94 20.6029 1056.83 21.5377C1057.72 22.4724 1058.42 23.6519 1058.93 25.0763C1059.46 26.4784 1059.73 28.1475 1059.73 30.0837C1059.73 31.9977 1059.47 33.6668 1058.96 35.0912C1058.45 36.5155 1057.75 37.7062 1056.86 38.6632C1055.97 39.6202 1054.97 40.3323 1053.86 40.7997C1052.74 41.2671 1051.59 41.5007 1050.38 41.5007C1049.23 41.5007 1048.09 41.2782 1046.98 40.8331C1045.87 40.388 1044.86 39.6981 1043.97 38.7633C1043.08 37.8286 1042.37 36.6602 1041.84 35.2581C1041.33 33.8338 1041.07 32.1535 1041.07 30.2173C1041.07 28.3033 1041.33 26.6341 1041.84 25.2098C1042.35 23.7855 1043.05 22.5948 1043.94 21.6378C1044.83 20.6808 1045.83 19.9687 1046.95 19.5013C1048.06 19.0339 1049.22 18.8002 1050.42 18.8002ZM1050.52 40.0653C1051.16 40.0653 1051.75 39.776 1052.29 39.1973C1052.82 38.6187 1053.24 37.6394 1053.55 36.2596C1053.89 34.8798 1054.06 32.9881 1054.06 30.5845C1054.06 28.4925 1053.91 26.6787 1053.62 25.143C1053.35 23.5852 1052.94 22.3834 1052.39 21.5377C1051.83 20.6697 1051.13 20.2357 1050.28 20.2357C1049.66 20.2357 1049.07 20.525 1048.51 21.1037C1047.98 21.6823 1047.55 22.6616 1047.21 24.0414C1046.9 25.4212 1046.74 27.3129 1046.74 29.7165C1046.74 31.8085 1046.88 33.6335 1047.15 35.1913C1047.43 36.727 1047.86 37.9288 1048.41 38.7967C1048.97 39.6424 1049.67 40.0653 1050.52 40.0653ZM1078.17 34.8241H1078.93L1078.6 41H1062.51V40.2322C1062.69 40.1432 1062.95 39.9874 1063.31 39.7648C1063.69 39.5423 1064.08 39.2863 1064.48 38.997C1065.59 38.1958 1066.64 37.2833 1067.62 36.2596C1068.6 35.2359 1069.45 34.1453 1070.19 32.9881C1070.92 31.8308 1071.5 30.6735 1071.92 29.5162C1072.35 28.3589 1072.56 27.2573 1072.56 26.2113C1072.56 25.2098 1072.31 24.3641 1071.82 23.6742C1071.36 22.9843 1070.5 22.6393 1069.25 22.6393C1068.21 22.6393 1067.24 22.9286 1066.35 23.5073C1065.46 24.0859 1064.58 24.9872 1063.71 26.2113L1063.08 25.6772C1063.99 23.3626 1065.14 21.6378 1066.51 20.5028C1067.89 19.3678 1069.62 18.8002 1071.69 18.8002C1072.89 18.8002 1073.97 19.0005 1074.93 19.4011C1075.88 19.7795 1076.64 20.3804 1077.2 21.2038C1077.78 22.005 1078.07 23.051 1078.07 24.3418C1078.07 26.6341 1077.33 28.7818 1075.86 30.7848C1074.42 32.7878 1072.39 34.6683 1069.79 36.4265V36.4933H1074.66C1075.93 36.4933 1076.81 36.3375 1077.3 36.0259C1077.79 35.7143 1078.08 35.3137 1078.17 34.8241ZM1096.71 32.4873H1099.05V36.6602H1097.65C1097.03 36.6602 1096.71 37.0497 1096.71 37.8286C1096.71 38.3627 1096.71 38.8857 1096.71 39.3976C1096.74 39.8872 1096.76 40.4214 1096.78 41H1091.51C1091.55 40.2656 1091.58 39.5534 1091.61 38.8635C1091.63 38.1513 1091.65 37.4169 1091.67 36.6602H1081.12V35.8924C1081.7 35.336 1082.23 34.7574 1082.69 34.1565L1093.61 20.5028C1093.85 20.1912 1094.08 19.8908 1094.28 19.6014C1094.5 19.2899 1094.68 19.0228 1094.81 18.8002L1096.75 18.8002L1096.71 32.4873ZM1091.61 25.5102L1086.03 32.4873H1091.71V25.5102H1091.61Z" fill="black"/>
<path d="M1146.84 24.6719C1142.18 22.8115 1136.71 23.8037 1132.98 27.5245C1127.95 32.5477 1127.95 40.6715 1132.98 45.6946C1136.71 49.4154 1142.18 50.4077 1146.84 48.5472V42.5939C1145.9 43.028 1144.91 43.2761 1143.85 43.2761C1140.13 43.2761 1137.14 40.2994 1137.14 36.5786C1137.14 32.8577 1140.13 29.8811 1143.85 29.8811C1144.91 29.8811 1145.97 30.1291 1146.84 30.5632V24.6719Z" fill="black"/>
<path d="M1144.72 18.7058C1146.56 16.8661 1146.56 13.8212 1144.72 11.9181C1142.89 10.0784 1139.85 10.0784 1137.95 11.9181C1136.06 13.7577 1136.12 16.8027 1137.95 18.7058C1139.85 20.5454 1142.89 20.5454 1144.72 18.7058Z" fill="black"/>
<path d="M1177.65 41V40.2322C1178.29 40.1877 1178.76 40.0208 1179.05 39.7314C1179.34 39.4421 1179.48 38.7522 1179.48 37.6617V22.1386C1179.48 21.048 1179.32 20.3581 1178.98 20.0688C1178.67 19.7572 1178.06 19.5903 1177.15 19.5681V18.8002H1186.66V19.5681C1186.02 19.5903 1185.55 19.7572 1185.26 20.0688C1184.97 20.3581 1184.83 21.048 1184.83 22.1386V37.6617C1184.83 38.7522 1184.99 39.4421 1185.33 39.7314C1185.66 40.0208 1186.27 40.1877 1187.16 40.2322V41H1177.65ZM1210.28 41.2671C1209.95 40.911 1209.6 40.566 1209.24 40.2322C1208.89 39.8761 1208.32 39.3531 1207.54 38.6632L1194.39 26.6453H1194.32V37.6617C1194.32 38.4184 1194.51 39.0304 1194.89 39.4978C1195.29 39.9429 1195.97 40.1877 1196.93 40.2322V41H1190.75V40.2322C1191.4 40.1877 1191.86 39.9429 1192.15 39.4978C1192.44 39.0304 1192.59 38.4184 1192.59 37.6617V22.1386C1192.59 21.048 1192.42 20.3581 1192.09 20.0688C1191.77 19.7572 1191.16 19.5903 1190.25 19.5681V18.8002H1194.26C1194.59 19.2231 1194.95 19.6014 1195.32 19.9353C1195.7 20.2691 1196.14 20.6697 1196.63 21.1371L1209.91 33.155H1209.98V22.1386C1209.98 21.3819 1209.79 20.7698 1209.41 20.3025C1209.03 19.8351 1208.35 19.5903 1207.37 19.5681V18.8002H1213.55V19.5681C1212.91 19.5903 1212.44 19.8351 1212.15 20.3025C1211.86 20.7698 1211.71 21.3819 1211.71 22.1386V37.6617C1211.71 38.2848 1211.71 38.8857 1211.71 39.4644C1211.74 40.0208 1211.76 40.6217 1211.78 41.2671H1210.28ZM1216.19 18.8002L1235.22 18.8002V24.3085H1234.45C1234.32 23.1067 1233.96 22.1274 1233.38 21.3707C1232.8 20.6141 1231.81 20.2357 1230.41 20.2357H1228.38V37.6617C1228.38 38.7522 1228.54 39.4421 1228.88 39.7314C1229.21 40.0208 1229.82 40.1877 1230.71 40.2322V41H1221.2V40.2322C1221.84 40.1877 1222.31 40.0208 1222.6 39.7314C1222.89 39.4421 1223.03 38.7522 1223.03 37.6617V20.2357H1220.96C1219.61 20.2357 1218.63 20.6141 1218.03 21.3707C1217.45 22.1274 1217.09 23.1067 1216.96 24.3085H1216.19V18.8002ZM1238.25 41V40.2322C1238.89 40.1877 1239.36 40.0208 1239.65 39.7314C1239.94 39.4421 1240.08 38.7522 1240.08 37.6617V22.1386C1240.08 21.048 1239.92 20.3581 1239.58 20.0688C1239.27 19.7572 1238.66 19.5903 1237.75 19.5681V18.8002H1254.14V23.4739H1253.37C1253.33 22.5169 1252.99 21.738 1252.37 21.1371C1251.77 20.5362 1250.83 20.2357 1249.57 20.2357H1246.89C1246.43 20.2357 1246.06 20.3581 1245.79 20.6029C1245.55 20.8477 1245.43 21.3596 1245.43 22.1386V28.715C1245.6 28.5815 1245.82 28.4925 1246.06 28.448C1246.33 28.4034 1246.64 28.3812 1246.99 28.3812H1250.23C1250.9 28.3812 1251.46 28.192 1251.9 27.8137C1252.35 27.4353 1252.58 26.9123 1252.6 26.2447H1253.37V31.9198H1252.6C1252.58 31.0963 1252.35 30.54 1251.9 30.2506C1251.46 29.9613 1250.9 29.8167 1250.23 29.8167H1247.06C1246.46 29.8167 1246.04 29.9168 1245.79 30.1171C1245.55 30.3174 1245.43 30.7069 1245.43 31.2855V37.6617C1245.43 38.4406 1245.59 38.9525 1245.93 39.1973C1246.28 39.4421 1246.96 39.5645 1247.96 39.5645H1251.13C1252.47 39.5645 1253.53 39.1639 1254.31 38.3627C1255.08 37.5615 1255.52 36.6046 1255.61 35.4918H1256.38L1256.11 41H1238.25ZM1278.77 41.5007C1277.77 41.5007 1276.91 41.3338 1276.2 41C1275.49 40.6884 1274.89 40.2656 1274.4 39.7314C1273.91 39.1973 1273.45 38.6075 1273.03 37.9621L1268.36 30.6846C1268.13 30.3063 1267.93 30.0726 1267.76 29.9836C1267.58 29.8946 1267.37 29.8389 1267.12 29.8167V28.6483C1268.46 28.5592 1269.49 28.2922 1270.23 27.8471C1270.96 27.402 1271.47 26.8567 1271.76 26.2113C1272.05 25.5436 1272.2 24.8537 1272.2 24.1415C1272.2 22.784 1271.82 21.7713 1271.06 21.1037C1270.3 20.4138 1269.44 20.0688 1268.46 20.0688C1267.72 20.0688 1267.2 20.2023 1266.89 20.4694C1266.6 20.7142 1266.45 21.2706 1266.45 22.1386V37.6617C1266.45 38.7522 1266.62 39.4421 1266.95 39.7314C1267.29 40.0208 1267.9 40.1877 1268.79 40.2322V41H1259.28V40.2322C1259.92 40.1877 1260.39 40.0208 1260.68 39.7314C1260.97 39.4421 1261.11 38.7522 1261.11 37.6617V22.1386C1261.11 21.048 1260.95 20.3581 1260.61 20.0688C1260.3 19.7572 1259.69 19.5903 1258.78 19.5681V18.8002H1261.11C1262.78 18.8002 1264.29 18.778 1265.65 18.7335C1267.01 18.6667 1268.17 18.6333 1269.12 18.6333C1271.33 18.6333 1273.07 18.8448 1274.37 19.2676C1275.68 19.6682 1276.61 20.2357 1277.17 20.9701C1277.75 21.7046 1278.04 22.5391 1278.04 23.4739C1278.04 24.3641 1277.81 25.1764 1277.37 25.9108C1276.95 26.6453 1276.38 27.2684 1275.67 27.7803C1274.98 28.2699 1274.22 28.6149 1273.4 28.8152V28.8819L1278.94 37.5615C1279.58 38.5853 1280.17 39.2863 1280.71 39.6647C1281.24 40.043 1281.72 40.2322 1282.14 40.2322V41C1281.7 41.1558 1281.16 41.2782 1280.54 41.3672C1279.94 41.4562 1279.35 41.5007 1278.77 41.5007ZM1294.54 41.5007C1292.2 41.5007 1290.13 41.0334 1288.33 40.0987C1286.53 39.1639 1285.11 37.8509 1284.09 36.1595C1283.06 34.4458 1282.55 32.4651 1282.55 30.2173C1282.55 28.3701 1282.89 26.7232 1283.55 25.2766C1284.22 23.8077 1285.13 22.5503 1286.29 21.5043C1287.47 20.4583 1288.82 19.6682 1290.33 19.1341C1291.87 18.5777 1293.5 18.2995 1295.24 18.2995C1296.55 18.2995 1297.81 18.4219 1299.01 18.6667C1300.21 18.9115 1301.17 19.2008 1301.88 19.5347V24.8092H1301.11C1300.67 23.4516 1300.13 22.4167 1299.51 21.7046C1298.89 20.9701 1298.19 20.4583 1297.41 20.169C1296.65 19.8796 1295.85 19.735 1295 19.735C1290.71 19.735 1288.56 22.8507 1288.56 29.0822C1288.56 31.1297 1288.77 32.9881 1289.2 34.6572C1289.64 36.3264 1290.32 37.6506 1291.23 38.6298C1292.17 39.5868 1293.36 40.0653 1294.8 40.0653C1295.98 40.0653 1297.05 39.776 1298.01 39.1973C1298.97 38.5964 1299.78 37.8064 1300.45 36.8271C1301.14 35.8479 1301.63 34.7907 1301.91 33.6557H1302.68L1302.42 38.7299C1301.68 39.5311 1300.65 40.1988 1299.31 40.7329C1297.98 41.2448 1296.38 41.5007 1294.54 41.5007ZM1316.82 18.2995C1318.4 18.2995 1319.87 18.5666 1321.23 19.1007C1322.59 19.6348 1323.79 20.4138 1324.83 21.4375C1325.88 22.439 1326.69 23.6519 1327.27 25.0763C1327.85 26.5006 1328.14 28.0919 1328.14 29.85C1328.14 31.6082 1327.85 33.1995 1327.27 34.6238C1326.69 36.0482 1325.88 37.2722 1324.83 38.296C1323.81 39.3197 1322.61 40.1098 1321.23 40.6662C1319.85 41.2226 1318.37 41.5007 1316.79 41.5007C1315.23 41.5007 1313.76 41.2337 1312.38 40.6996C1311.02 40.1654 1309.82 39.3976 1308.78 38.3961C1307.73 37.3724 1306.92 36.1483 1306.34 34.724C1305.76 33.2996 1305.47 31.7084 1305.47 29.9502C1305.47 28.192 1305.76 26.6008 1306.34 25.1764C1306.92 23.7521 1307.72 22.528 1308.74 21.5043C1309.79 20.4805 1311 19.6905 1312.38 19.1341C1313.76 18.5777 1315.24 18.2995 1316.82 18.2995ZM1317.49 40.0653C1318.65 40.0653 1319.56 39.6869 1320.23 38.9302C1320.89 38.1513 1321.37 37.0831 1321.66 35.7255C1321.97 34.3679 1322.13 32.7878 1322.13 30.9851C1322.13 27.3574 1321.57 24.5755 1320.46 22.6393C1319.37 20.7031 1317.92 19.735 1316.12 19.735C1314.99 19.735 1314.07 20.1133 1313.38 20.87C1312.72 21.6267 1312.23 22.6949 1311.91 24.0748C1311.62 25.4324 1311.48 27.0125 1311.48 28.8152C1311.48 32.4428 1312.03 35.2247 1313.12 37.1609C1314.23 39.0972 1315.69 40.0653 1317.49 40.0653ZM1343.59 41.2671C1343.41 40.7552 1343.19 40.2322 1342.92 39.6981C1342.68 39.1417 1342.35 38.4184 1341.92 37.5282L1335.91 24.9761H1335.85L1335.25 37.6617C1335.22 38.4184 1335.4 39.0304 1335.78 39.4978C1336.16 39.9429 1336.85 40.1877 1337.85 40.2322V41L1331.67 41V40.2322C1332.32 40.1877 1332.78 39.9429 1333.04 39.4978C1333.33 39.0304 1333.49 38.4184 1333.51 37.6617L1334.21 22.1386C1334.26 21.3596 1334.2 20.8032 1334.04 20.4694C1333.91 20.1356 1333.67 19.9241 1333.31 19.8351C1332.95 19.7238 1332.48 19.6348 1331.87 19.5681V18.8002H1339.02C1339.2 19.3789 1339.4 19.9241 1339.62 20.436C1339.86 20.9479 1340.13 21.5154 1340.42 22.1386L1346.16 34.1565H1346.23L1351.57 22.1386C1352.08 21.0035 1352.47 19.8908 1352.74 18.8002H1359.82V19.5681C1359.39 19.5903 1359.04 19.6571 1358.75 19.7684C1358.46 19.8796 1358.25 20.1133 1358.11 20.4694C1358 20.8032 1357.96 21.3596 1357.98 22.1386L1358.68 37.6617C1358.73 38.3739 1358.81 38.908 1358.95 39.2641C1359.1 39.6202 1359.35 39.865 1359.68 39.9985C1360.02 40.1098 1360.46 40.1877 1361.02 40.2322V41H1351.5V40.2322C1352.22 40.1877 1352.71 40.0208 1352.97 39.7314C1353.26 39.4421 1353.38 38.7522 1353.34 37.6617L1352.77 24.008H1352.71L1346.66 37.5282C1346.24 38.4629 1345.93 39.1973 1345.73 39.7314C1345.55 40.2433 1345.39 40.7552 1345.26 41.2671H1343.59ZM1375.64 41.2671C1375.46 40.7552 1375.24 40.2322 1374.97 39.6981C1374.73 39.1417 1374.39 38.4184 1373.97 37.5282L1367.96 24.9761H1367.89L1367.29 37.6617C1367.27 38.4184 1367.45 39.0304 1367.83 39.4978C1368.21 39.9429 1368.89 40.1877 1369.9 40.2322V41H1363.72V40.2322C1364.37 40.1877 1364.82 39.9429 1365.09 39.4978C1365.38 39.0304 1365.53 38.4184 1365.56 37.6617L1366.26 22.1386C1366.3 21.3596 1366.25 20.8032 1366.09 20.4694C1365.96 20.1356 1365.71 19.9241 1365.36 19.8351C1365 19.7238 1364.52 19.6348 1363.92 19.5681V18.8002H1371.06C1371.24 19.3789 1371.44 19.9241 1371.67 20.436C1371.91 20.9479 1372.18 21.5154 1372.47 22.1386L1378.21 34.1565H1378.28L1383.62 22.1386C1384.13 21.0035 1384.52 19.8908 1384.79 18.8002H1391.86V19.5681C1391.44 19.5903 1391.08 19.6571 1390.79 19.7684C1390.5 19.8796 1390.29 20.1133 1390.16 20.4694C1390.05 20.8032 1390 21.3596 1390.03 22.1386L1390.73 37.6617C1390.77 38.3739 1390.86 38.908 1390.99 39.2641C1391.15 39.6202 1391.4 39.865 1391.73 39.9985C1392.06 40.1098 1392.51 40.1877 1393.06 40.2322V41H1383.55V40.2322C1384.26 40.1877 1384.75 40.0208 1385.02 39.7314C1385.31 39.4421 1385.43 38.7522 1385.39 37.6617L1384.82 24.008H1384.75L1378.71 37.5282C1378.29 38.4629 1377.98 39.1973 1377.77 39.7314C1377.6 40.2433 1377.44 40.7552 1377.31 41.2671H1375.64ZM1419.25 34.8241H1420.02L1419.69 41H1403.6V40.2322C1403.77 40.1432 1404.04 39.9874 1404.4 39.7648C1404.78 39.5423 1405.17 39.2863 1405.57 38.997C1406.68 38.1958 1407.72 37.2833 1408.7 36.2596C1409.68 35.2359 1410.54 34.1453 1411.27 32.9881C1412.01 31.8308 1412.59 30.6735 1413.01 29.5162C1413.43 28.3589 1413.64 27.2573 1413.64 26.2113C1413.64 25.2098 1413.4 24.3641 1412.91 23.6742C1412.44 22.9843 1411.59 22.6393 1410.34 22.6393C1409.29 22.6393 1408.33 22.9286 1407.44 23.5073C1406.55 24.0859 1405.67 24.9872 1404.8 26.2113L1404.16 25.6772C1405.08 23.3626 1406.22 21.6378 1407.6 20.5028C1408.98 19.3678 1410.71 18.8002 1412.78 18.8002C1413.98 18.8002 1415.06 19.0005 1416.01 19.4011C1416.97 19.7795 1417.73 20.3804 1418.29 21.2038C1418.86 22.005 1419.15 23.051 1419.15 24.3418C1419.15 26.6341 1418.42 28.7818 1416.95 30.7848C1415.5 32.7878 1413.48 34.6683 1410.87 36.4265V36.4933H1415.75C1417.02 36.4933 1417.9 36.3375 1418.39 36.0259C1418.87 35.7143 1419.16 35.3137 1419.25 34.8241ZM1433.46 18.8002C1434.62 18.8002 1435.75 19.0228 1436.87 19.4679C1437.98 19.913 1438.98 20.6029 1439.87 21.5377C1440.76 22.4724 1441.46 23.6519 1441.97 25.0763C1442.51 26.4784 1442.78 28.1475 1442.78 30.0837C1442.78 31.9977 1442.52 33.6668 1442.01 35.0912C1441.5 36.5155 1440.79 37.7062 1439.9 38.6632C1439.01 39.6202 1438.01 40.3323 1436.9 40.7997C1435.79 41.2671 1434.63 41.5007 1433.43 41.5007C1432.27 41.5007 1431.14 41.2782 1430.02 40.8331C1428.91 40.388 1427.91 39.6981 1427.02 38.7633C1426.13 37.8286 1425.42 36.6602 1424.88 35.2581C1424.37 33.8338 1424.11 32.1535 1424.11 30.2173C1424.11 28.3033 1424.37 26.6341 1424.88 25.2098C1425.39 23.7855 1426.09 22.5948 1426.99 21.6378C1427.88 20.6808 1428.88 19.9687 1429.99 19.5013C1431.1 19.0339 1432.26 18.8002 1433.46 18.8002ZM1433.56 40.0653C1434.21 40.0653 1434.8 39.776 1435.33 39.1973C1435.87 38.6187 1436.29 37.6394 1436.6 36.2596C1436.93 34.8798 1437.1 32.9881 1437.1 30.5845C1437.1 28.4925 1436.96 26.6787 1436.67 25.143C1436.4 23.5852 1435.99 22.3834 1435.43 21.5377C1434.87 20.6697 1434.17 20.2357 1433.33 20.2357C1432.7 20.2357 1432.12 20.525 1431.56 21.1037C1431.02 21.6823 1430.59 22.6616 1430.26 24.0414C1429.95 25.4212 1429.79 27.3129 1429.79 29.7165C1429.79 31.8085 1429.92 33.6335 1430.19 35.1913C1430.48 36.727 1430.9 37.9288 1431.46 38.7967C1432.01 39.6424 1432.72 40.0653 1433.56 40.0653ZM1461.21 34.8241H1461.98L1461.64 41H1445.55V40.2322C1445.73 40.1432 1446 39.9874 1446.35 39.7648C1446.73 39.5423 1447.12 39.2863 1447.52 38.997C1448.64 38.1958 1449.68 37.2833 1450.66 36.2596C1451.64 35.2359 1452.5 34.1453 1453.23 32.9881C1453.97 31.8308 1454.54 30.6735 1454.97 29.5162C1455.39 28.3589 1455.6 27.2573 1455.6 26.2113C1455.6 25.2098 1455.36 24.3641 1454.87 23.6742C1454.4 22.9843 1453.54 22.6393 1452.3 22.6393C1451.25 22.6393 1450.28 22.9286 1449.39 23.5073C1448.5 24.0859 1447.62 24.9872 1446.76 26.2113L1446.12 25.6772C1447.03 23.3626 1448.18 21.6378 1449.56 20.5028C1450.94 19.3678 1452.66 18.8002 1454.73 18.8002C1455.94 18.8002 1457.02 19.0005 1457.97 19.4011C1458.93 19.7795 1459.69 20.3804 1460.24 21.2038C1460.82 22.005 1461.11 23.051 1461.11 24.3418C1461.11 26.6341 1460.38 28.7818 1458.91 30.7848C1457.46 32.7878 1455.43 34.6683 1452.83 36.4265V36.4933H1457.7C1458.97 36.4933 1459.85 36.3375 1460.34 36.0259C1460.83 35.7143 1461.12 35.3137 1461.21 34.8241ZM1479.76 32.4873H1482.1V36.6602H1480.69C1480.07 36.6602 1479.76 37.0497 1479.76 37.8286C1479.76 38.3627 1479.76 38.8857 1479.76 39.3976C1479.78 39.8872 1479.8 40.4214 1479.83 41H1474.55C1474.6 40.2656 1474.63 39.5534 1474.65 38.8635C1474.67 38.1513 1474.7 37.4169 1474.72 36.6602H1464.17V35.8924C1464.75 35.336 1465.27 34.7574 1465.74 34.1565L1476.65 20.5028C1476.9 20.1912 1477.12 19.8908 1477.32 19.6014C1477.54 19.2899 1477.72 19.0228 1477.86 18.8002L1479.79 18.8002L1479.76 32.4873ZM1474.65 25.5102L1469.08 32.4873H1474.75V25.5102H1474.65Z" fill="black"/>
<path d="M1529.88 24.6719C1525.22 22.8115 1519.75 23.8037 1516.03 27.5245C1511 32.5477 1511 40.6715 1516.03 45.6946C1519.75 49.4154 1525.22 50.4077 1529.88 48.5472V42.5939C1528.95 43.028 1527.95 43.2761 1526.9 43.2761C1523.17 43.2761 1520.19 40.2994 1520.19 36.5786C1520.19 32.8577 1523.17 29.8811 1526.9 29.8811C1527.95 29.8811 1529.01 30.1291 1529.88 30.5632V24.6719Z" fill="black"/>
<path d="M1527.77 18.7058C1529.6 16.8661 1529.6 13.8212 1527.77 11.9181C1525.93 10.0784 1522.9 10.0784 1521 11.9181C1519.1 13.7577 1519.16 16.8027 1521 18.7058C1522.9 20.5454 1525.93 20.5454 1527.77 18.7058Z" fill="black"/>
<path d="M1560.69 41V40.2322C1561.34 40.1877 1561.81 40.0208 1562.09 39.7314C1562.38 39.4421 1562.53 38.7522 1562.53 37.6617V22.1386C1562.53 21.048 1562.36 20.3581 1562.03 20.0688C1561.72 19.7572 1561.1 19.5903 1560.19 19.5681V18.8002H1569.71V19.5681C1569.06 19.5903 1568.59 19.7572 1568.3 20.0688C1568.01 20.3581 1567.87 21.048 1567.87 22.1386V37.6617C1567.87 38.7522 1568.04 39.4421 1568.37 39.7314C1568.7 40.0208 1569.32 40.1877 1570.21 40.2322V41H1560.69ZM1593.32 41.2671C1592.99 40.911 1592.64 40.566 1592.29 40.2322C1591.93 39.8761 1591.37 39.3531 1590.59 38.6632L1577.43 26.6453H1577.37V37.6617C1577.37 38.4184 1577.56 39.0304 1577.93 39.4978C1578.33 39.9429 1579.01 40.1877 1579.97 40.2322V41H1573.79V40.2322C1574.44 40.1877 1574.91 39.9429 1575.2 39.4978C1575.49 39.0304 1575.63 38.4184 1575.63 37.6617V22.1386C1575.63 21.048 1575.46 20.3581 1575.13 20.0688C1574.82 19.7572 1574.21 19.5903 1573.29 19.5681V18.8002H1577.3C1577.63 19.2231 1577.99 19.6014 1578.37 19.9353C1578.75 20.2691 1579.18 20.6697 1579.67 21.1371L1592.96 33.155H1593.02V22.1386C1593.02 21.3819 1592.83 20.7698 1592.46 20.3025C1592.08 19.8351 1591.4 19.5903 1590.42 19.5681V18.8002H1596.6V19.5681C1595.95 19.5903 1595.48 19.8351 1595.19 20.3025C1594.9 20.7698 1594.76 21.3819 1594.76 22.1386V37.6617C1594.76 38.2848 1594.76 38.8857 1594.76 39.4644C1594.78 40.0208 1594.8 40.6217 1594.83 41.2671H1593.32ZM1599.24 18.8002L1618.26 18.8002V24.3085H1617.5C1617.36 23.1067 1617.01 22.1274 1616.43 21.3707C1615.85 20.6141 1614.86 20.2357 1613.46 20.2357H1611.42V37.6617C1611.42 38.7522 1611.59 39.4421 1611.92 39.7314C1612.25 40.0208 1612.87 40.1877 1613.76 40.2322V41H1604.24V40.2322C1604.89 40.1877 1605.36 40.0208 1605.64 39.7314C1605.93 39.4421 1606.08 38.7522 1606.08 37.6617V20.2357H1604.01C1602.65 20.2357 1601.67 20.6141 1601.07 21.3707C1600.49 22.1274 1600.14 23.1067 1600 24.3085H1599.24V18.8002ZM1621.29 41V40.2322C1621.94 40.1877 1622.41 40.0208 1622.7 39.7314C1622.98 39.4421 1623.13 38.7522 1623.13 37.6617V22.1386C1623.13 21.048 1622.96 20.3581 1622.63 20.0688C1622.32 19.7572 1621.7 19.5903 1620.79 19.5681V18.8002H1637.18V23.4739H1636.42C1636.37 22.5169 1636.04 21.738 1635.41 21.1371C1634.81 20.5362 1633.88 20.2357 1632.61 20.2357H1629.94C1629.47 20.2357 1629.1 20.3581 1628.84 20.6029C1628.59 20.8477 1628.47 21.3596 1628.47 22.1386V28.715C1628.65 28.5815 1628.86 28.4925 1629.1 28.448C1629.37 28.4034 1629.68 28.3812 1630.04 28.3812H1633.28C1633.95 28.3812 1634.5 28.192 1634.95 27.8137C1635.39 27.4353 1635.63 26.9123 1635.65 26.2447H1636.42V31.9198H1635.65C1635.63 31.0963 1635.39 30.54 1634.95 30.2506C1634.5 29.9613 1633.95 29.8167 1633.28 29.8167H1630.11C1629.51 29.8167 1629.08 29.9168 1628.84 30.1171C1628.59 30.3174 1628.47 30.7069 1628.47 31.2855V37.6617C1628.47 38.4406 1628.64 38.9525 1628.97 39.1973C1629.33 39.4421 1630.01 39.5645 1631.01 39.5645H1634.18C1635.51 39.5645 1636.57 39.1639 1637.35 38.3627C1638.13 37.5615 1638.56 36.6046 1638.65 35.4918H1639.42L1639.15 41H1621.29ZM1661.82 41.5007C1660.81 41.5007 1659.96 41.3338 1659.25 41C1658.53 40.6884 1657.93 40.2656 1657.44 39.7314C1656.95 39.1973 1656.5 38.6075 1656.07 37.9621L1651.4 30.6846C1651.18 30.3063 1650.98 30.0726 1650.8 29.9836C1650.62 29.8946 1650.41 29.8389 1650.17 29.8167V28.6483C1651.5 28.5592 1652.54 28.2922 1653.27 27.8471C1654 27.402 1654.52 26.8567 1654.81 26.2113C1655.1 25.5436 1655.24 24.8537 1655.24 24.1415C1655.24 22.784 1654.86 21.7713 1654.1 21.1037C1653.35 20.4138 1652.48 20.0688 1651.5 20.0688C1650.77 20.0688 1650.24 20.2023 1649.93 20.4694C1649.64 20.7142 1649.5 21.2706 1649.5 22.1386V37.6617C1649.5 38.7522 1649.66 39.4421 1650 39.7314C1650.33 40.0208 1650.94 40.1877 1651.83 40.2322V41H1642.32V40.2322C1642.97 40.1877 1643.43 40.0208 1643.72 39.7314C1644.01 39.4421 1644.16 38.7522 1644.16 37.6617V22.1386C1644.16 21.048 1643.99 20.3581 1643.66 20.0688C1643.34 19.7572 1642.73 19.5903 1641.82 19.5681V18.8002H1644.16C1645.83 18.8002 1647.34 18.778 1648.7 18.7335C1650.05 18.6667 1651.21 18.6333 1652.17 18.6333C1654.37 18.6333 1656.12 18.8448 1657.41 19.2676C1658.72 19.6682 1659.66 20.2357 1660.21 20.9701C1660.79 21.7046 1661.08 22.5391 1661.08 23.4739C1661.08 24.3641 1660.86 25.1764 1660.41 25.9108C1659.99 26.6453 1659.42 27.2684 1658.71 27.7803C1658.02 28.2699 1657.26 28.6149 1656.44 28.8152V28.8819L1661.98 37.5615C1662.63 38.5853 1663.22 39.2863 1663.75 39.6647C1664.29 40.043 1664.76 40.2322 1665.19 40.2322V41C1664.74 41.1558 1664.21 41.2782 1663.59 41.3672C1662.98 41.4562 1662.39 41.5007 1661.82 41.5007ZM1677.58 41.5007C1675.25 41.5007 1673.18 41.0334 1671.37 40.0987C1669.57 39.1639 1668.16 37.8509 1667.13 36.1595C1666.11 34.4458 1665.6 32.4651 1665.6 30.2173C1665.6 28.3701 1665.93 26.7232 1666.6 25.2766C1667.27 23.8077 1668.18 22.5503 1669.34 21.5043C1670.52 20.4583 1671.86 19.6682 1673.38 19.1341C1674.91 18.5777 1676.55 18.2995 1678.28 18.2995C1679.6 18.2995 1680.85 18.4219 1682.06 18.6667C1683.26 18.9115 1684.21 19.2008 1684.93 19.5347V24.8092H1684.16C1683.71 23.4516 1683.18 22.4167 1682.56 21.7046C1681.93 20.9701 1681.23 20.4583 1680.45 20.169C1679.7 19.8796 1678.89 19.735 1678.05 19.735C1673.75 19.735 1671.61 22.8507 1671.61 29.0822C1671.61 31.1297 1671.82 32.9881 1672.24 34.6572C1672.69 36.3264 1673.36 37.6506 1674.28 38.6298C1675.21 39.5868 1676.4 40.0653 1677.85 40.0653C1679.03 40.0653 1680.1 39.776 1681.05 39.1973C1682.01 38.5964 1682.82 37.8064 1683.49 36.8271C1684.18 35.8479 1684.67 34.7907 1684.96 33.6557H1685.73L1685.46 38.7299C1684.73 39.5311 1683.69 40.1988 1682.36 40.7329C1681.02 41.2448 1679.43 41.5007 1677.58 41.5007ZM1699.87 18.2995C1701.45 18.2995 1702.91 18.5666 1704.27 19.1007C1705.63 19.6348 1706.83 20.4138 1707.88 21.4375C1708.92 22.439 1709.74 23.6519 1710.31 25.0763C1710.89 26.5006 1711.18 28.0919 1711.18 29.85C1711.18 31.6082 1710.89 33.1995 1710.31 34.6238C1709.74 36.0482 1708.92 37.2722 1707.88 38.296C1706.85 39.3197 1705.65 40.1098 1704.27 40.6662C1702.89 41.2226 1701.41 41.5007 1699.83 41.5007C1698.27 41.5007 1696.81 41.2337 1695.43 40.6996C1694.07 40.1654 1692.87 39.3976 1691.82 38.3961C1690.77 37.3724 1689.96 36.1483 1689.38 34.724C1688.8 33.2996 1688.52 31.7084 1688.52 29.9502C1688.52 28.192 1688.8 26.6008 1689.38 25.1764C1689.96 23.7521 1690.76 22.528 1691.79 21.5043C1692.83 20.4805 1694.05 19.6905 1695.43 19.1341C1696.81 18.5777 1698.29 18.2995 1699.87 18.2995ZM1700.53 40.0653C1701.69 40.0653 1702.6 39.6869 1703.27 38.9302C1703.94 38.1513 1704.42 37.0831 1704.71 35.7255C1705.02 34.3679 1705.17 32.7878 1705.17 30.9851C1705.17 27.3574 1704.62 24.5755 1703.5 22.6393C1702.41 20.7031 1700.97 19.735 1699.16 19.735C1698.03 19.735 1697.12 20.1133 1696.43 20.87C1695.76 21.6267 1695.27 22.6949 1694.96 24.0748C1694.67 25.4324 1694.52 27.0125 1694.52 28.8152C1694.52 32.4428 1695.07 35.2247 1696.16 37.1609C1697.27 39.0972 1698.73 40.0653 1700.53 40.0653ZM1726.64 41.2671C1726.46 40.7552 1726.24 40.2322 1725.97 39.6981C1725.72 39.1417 1725.39 38.4184 1724.97 37.5282L1718.96 24.9761H1718.89L1718.29 37.6617C1718.27 38.4184 1718.45 39.0304 1718.82 39.4978C1719.2 39.9429 1719.89 40.1877 1720.89 40.2322V41L1714.72 41V40.2322C1715.36 40.1877 1715.82 39.9429 1716.09 39.4978C1716.38 39.0304 1716.53 38.4184 1716.55 37.6617L1717.26 22.1386C1717.3 21.3596 1717.24 20.8032 1717.09 20.4694C1716.96 20.1356 1716.71 19.9241 1716.35 19.8351C1716 19.7238 1715.52 19.6348 1714.92 19.5681V18.8002H1722.06C1722.24 19.3789 1722.44 19.9241 1722.66 20.436C1722.91 20.9479 1723.18 21.5154 1723.47 22.1386L1729.21 34.1565H1729.27L1734.62 22.1386C1735.13 21.0035 1735.52 19.8908 1735.78 18.8002H1742.86V19.5681C1742.44 19.5903 1742.08 19.6571 1741.79 19.7684C1741.5 19.8796 1741.29 20.1133 1741.16 20.4694C1741.05 20.8032 1741 21.3596 1741.02 22.1386L1741.73 37.6617C1741.77 38.3739 1741.86 38.908 1741.99 39.2641C1742.15 39.6202 1742.39 39.865 1742.73 39.9985C1743.06 40.1098 1743.51 40.1877 1744.06 40.2322V41H1734.55V40.2322C1735.26 40.1877 1735.75 40.0208 1736.02 39.7314C1736.31 39.4421 1736.43 38.7522 1736.38 37.6617L1735.82 24.008H1735.75L1729.71 37.5282C1729.28 38.4629 1728.97 39.1973 1728.77 39.7314C1728.59 40.2433 1728.44 40.7552 1728.31 41.2671H1726.64ZM1758.68 41.2671C1758.5 40.7552 1758.28 40.2322 1758.02 39.6981C1757.77 39.1417 1757.44 38.4184 1757.01 37.5282L1751 24.9761H1750.94L1750.34 37.6617C1750.31 38.4184 1750.49 39.0304 1750.87 39.4978C1751.25 39.9429 1751.94 40.1877 1752.94 40.2322V41H1746.77V40.2322C1747.41 40.1877 1747.87 39.9429 1748.13 39.4978C1748.42 39.0304 1748.58 38.4184 1748.6 37.6617L1749.3 22.1386C1749.35 21.3596 1749.29 20.8032 1749.14 20.4694C1749 20.1356 1748.76 19.9241 1748.4 19.8351C1748.04 19.7238 1747.57 19.6348 1746.97 19.5681V18.8002H1754.11C1754.29 19.3789 1754.49 19.9241 1754.71 20.436C1754.96 20.9479 1755.22 21.5154 1755.51 22.1386L1761.25 34.1565H1761.32L1766.66 22.1386C1767.17 21.0035 1767.56 19.8908 1767.83 18.8002H1774.91V19.5681C1774.48 19.5903 1774.13 19.6571 1773.84 19.7684C1773.55 19.8796 1773.34 20.1133 1773.2 20.4694C1773.09 20.8032 1773.05 21.3596 1773.07 22.1386L1773.77 37.6617C1773.82 38.3739 1773.91 38.908 1774.04 39.2641C1774.19 39.6202 1774.44 39.865 1774.77 39.9985C1775.11 40.1098 1775.55 40.1877 1776.11 40.2322V41H1766.59V40.2322C1767.31 40.1877 1767.8 40.0208 1768.06 39.7314C1768.35 39.4421 1768.48 38.7522 1768.43 37.6617L1767.86 24.008H1767.8L1761.75 37.5282C1761.33 38.4629 1761.02 39.1973 1760.82 39.7314C1760.64 40.2433 1760.49 40.7552 1760.35 41.2671H1758.68ZM1802.3 34.8241H1803.07L1802.73 41H1786.64V40.2322C1786.82 40.1432 1787.09 39.9874 1787.44 39.7648C1787.82 39.5423 1788.21 39.2863 1788.61 38.997C1789.72 38.1958 1790.77 37.2833 1791.75 36.2596C1792.73 35.2359 1793.58 34.1453 1794.32 32.9881C1795.05 31.8308 1795.63 30.6735 1796.06 29.5162C1796.48 28.3589 1796.69 27.2573 1796.69 26.2113C1796.69 25.2098 1796.44 24.3641 1795.95 23.6742C1795.49 22.9843 1794.63 22.6393 1793.38 22.6393C1792.34 22.6393 1791.37 22.9286 1790.48 23.5073C1789.59 24.0859 1788.71 24.9872 1787.84 26.2113L1787.21 25.6772C1788.12 23.3626 1789.27 21.6378 1790.65 20.5028C1792.03 19.3678 1793.75 18.8002 1795.82 18.8002C1797.02 18.8002 1798.1 19.0005 1799.06 19.4011C1800.02 19.7795 1800.77 20.3804 1801.33 21.2038C1801.91 22.005 1802.2 23.051 1802.2 24.3418C1802.2 26.6341 1801.46 28.7818 1799.99 30.7848C1798.55 32.7878 1796.52 34.6683 1793.92 36.4265V36.4933H1798.79C1800.06 36.4933 1800.94 36.3375 1801.43 36.0259C1801.92 35.7143 1802.21 35.3137 1802.3 34.8241ZM1816.51 18.8002C1817.66 18.8002 1818.8 19.0228 1819.91 19.4679C1821.02 19.913 1822.03 20.6029 1822.92 21.5377C1823.81 22.4724 1824.51 23.6519 1825.02 25.0763C1825.55 26.4784 1825.82 28.1475 1825.82 30.0837C1825.82 31.9977 1825.56 33.6668 1825.05 35.0912C1824.54 36.5155 1823.84 37.7062 1822.95 38.6632C1822.06 39.6202 1821.06 40.3323 1819.94 40.7997C1818.83 41.2671 1817.67 41.5007 1816.47 41.5007C1815.32 41.5007 1814.18 41.2782 1813.07 40.8331C1811.95 40.388 1810.95 39.6981 1810.06 38.7633C1809.17 37.8286 1808.46 36.6602 1807.93 35.2581C1807.41 33.8338 1807.16 32.1535 1807.16 30.2173C1807.16 28.3033 1807.41 26.6341 1807.93 25.2098C1808.44 23.7855 1809.14 22.5948 1810.03 21.6378C1810.92 20.6808 1811.92 19.9687 1813.03 19.5013C1814.15 19.0339 1815.3 18.8002 1816.51 18.8002ZM1816.61 40.0653C1817.25 40.0653 1817.84 39.776 1818.38 39.1973C1818.91 38.6187 1819.33 37.6394 1819.64 36.2596C1819.98 34.8798 1820.14 32.9881 1820.14 30.5845C1820.14 28.4925 1820 26.6787 1819.71 25.143C1819.44 23.5852 1819.03 22.3834 1818.48 21.5377C1817.92 20.6697 1817.22 20.2357 1816.37 20.2357C1815.75 20.2357 1815.16 20.525 1814.6 21.1037C1814.07 21.6823 1813.64 22.6616 1813.3 24.0414C1812.99 25.4212 1812.83 27.3129 1812.83 29.7165C1812.83 31.8085 1812.97 33.6335 1813.23 35.1913C1813.52 36.727 1813.95 37.9288 1814.5 38.7967C1815.06 39.6424 1815.76 40.0653 1816.61 40.0653ZM1844.25 34.8241H1845.02L1844.69 41H1828.6V40.2322C1828.78 40.1432 1829.04 39.9874 1829.4 39.7648C1829.78 39.5423 1830.17 39.2863 1830.57 38.997C1831.68 38.1958 1832.73 37.2833 1833.71 36.2596C1834.68 35.2359 1835.54 34.1453 1836.28 32.9881C1837.01 31.8308 1837.59 30.6735 1838.01 29.5162C1838.43 28.3589 1838.65 27.2573 1838.65 26.2113C1838.65 25.2098 1838.4 24.3641 1837.91 23.6742C1837.44 22.9843 1836.59 22.6393 1835.34 22.6393C1834.3 22.6393 1833.33 22.9286 1832.44 23.5073C1831.55 24.0859 1830.67 24.9872 1829.8 26.2113L1829.17 25.6772C1830.08 23.3626 1831.22 21.6378 1832.6 20.5028C1833.98 19.3678 1835.71 18.8002 1837.78 18.8002C1838.98 18.8002 1840.06 19.0005 1841.02 19.4011C1841.97 19.7795 1842.73 20.3804 1843.29 21.2038C1843.87 22.005 1844.15 23.051 1844.15 24.3418C1844.15 26.6341 1843.42 28.7818 1841.95 30.7848C1840.5 32.7878 1838.48 34.6683 1835.88 36.4265V36.4933H1840.75C1842.02 36.4933 1842.9 36.3375 1843.39 36.0259C1843.88 35.7143 1844.17 35.3137 1844.25 34.8241ZM1862.8 32.4873H1865.14V36.6602H1863.74C1863.11 36.6602 1862.8 37.0497 1862.8 37.8286C1862.8 38.3627 1862.8 38.8857 1862.8 39.3976C1862.83 39.8872 1862.85 40.4214 1862.87 41H1857.6C1857.64 40.2656 1857.67 39.5534 1857.7 38.8635C1857.72 38.1513 1857.74 37.4169 1857.76 36.6602H1847.21V35.8924C1847.79 35.336 1848.31 34.7574 1848.78 34.1565L1859.7 20.5028C1859.94 20.1912 1860.17 19.8908 1860.37 19.6014C1860.59 19.2899 1860.77 19.0228 1860.9 18.8002L1862.84 18.8002L1862.8 32.4873ZM1857.7 25.5102L1852.12 32.4873H1857.8V25.5102H1857.7Z" fill="black"/>
<defs>
<linearGradient id="paint0_linear_599_2531" x1="0" y1="30" x2="1893" y2="30" gradientUnits="userSpaceOnUse">
<stop stop-color="white"/>
<stop offset="0.325" stop-color="#D4D4D4"/>
<stop offset="0.685" stop-color="white"/>
<stop offset="0.98" stop-color="#D4D4D4"/>
</linearGradient>
</defs>
</svg>
