<svg width="22" height="22" viewBox="0 0 22 22" fill="none" xmlns="http://www.w3.org/2000/svg">
<g clip-path="url(#clip0_562_1954)">
<path fill-rule="evenodd" clip-rule="evenodd" d="M18.7133 21.8897C20.4641 21.8897 21.8834 20.4949 21.8834 18.7743V3.71509C21.8834 1.99449 20.4641 0.599609 18.7133 0.599609H3.2794C1.52868 0.599609 0.109375 1.99444 0.109375 3.71509V18.7743C0.109375 20.4949 1.52863 21.8897 3.2794 21.8897H18.7133ZM10.984 3.7041C8.80367 3.7041 7.03618 5.44124 7.03618 7.58404C7.03618 9.72689 8.80367 11.4641 10.984 11.4641C13.1644 11.4641 14.9319 9.72689 14.9319 7.58404C14.9319 5.44124 13.1644 3.7041 10.984 3.7041ZM10.984 9.18803C10.0828 9.18803 9.35209 8.46987 9.35209 7.58409C9.35209 6.69831 10.0828 5.98021 10.984 5.98021C11.8853 5.98021 12.616 6.69831 12.616 7.58409C12.616 8.46987 11.8853 9.18803 10.984 9.18803ZM12.3781 14.5513C13.9586 14.2348 14.9057 13.4993 14.9558 13.4598C15.4183 13.0953 15.4926 12.4313 15.1217 11.9767C14.7508 11.5222 14.0753 11.4492 13.6127 11.8136C13.6029 11.8214 12.5928 12.583 10.9307 12.5841C9.26866 12.583 8.23715 11.8214 8.22737 11.8136C7.76478 11.4492 7.08925 11.5222 6.71841 11.9767C6.34751 12.4313 6.4218 13.0953 6.88428 13.4598C6.93507 13.4998 7.92128 14.2546 9.54606 14.5635L7.28162 16.8894C6.8701 17.3088 6.88247 17.9766 7.30925 18.3811C7.51755 18.5785 7.78602 18.6766 8.05427 18.6766C8.33551 18.6766 8.61647 18.5686 8.82709 18.3539L10.9307 16.1515L13.2469 18.3681C13.6665 18.7799 14.3461 18.7792 14.7649 18.367C15.1838 17.9547 15.1833 17.2867 14.7637 16.875L12.3781 14.5513Z" fill="white"/>
</g>
<defs>
<clipPath id="clip0_562_1954">
<rect width="22" height="21.5111" fill="white" transform="translate(0 0.488281)"/>
</clipPath>
</defs>
</svg>
