<svg width="22" height="22" viewBox="0 0 22 22" fill="none" xmlns="http://www.w3.org/2000/svg">
<g clip-path="url(#clip0_562_1951)">
<path d="M0 22L1.55492 16.3536C0.5936 14.6963 0.0893027 12.8194 0.0945558 10.9007C0.0945558 4.88831 5.01146 0 11.0473 0C13.9785 0 16.7311 1.13451 18.7956 3.19439C20.8653 5.25428 22.0052 7.99382 22 10.9059C22 16.9183 17.0831 21.8066 11.042 21.8066H11.0368C9.20343 21.8066 7.40162 21.3465 5.79942 20.4786L0 22ZM6.07784 18.5076L6.40878 18.7063C7.80611 19.5323 9.4083 19.9663 11.042 19.9715H11.0473C16.064 19.9715 20.1509 15.9092 20.1509 10.9111C20.1509 8.49049 19.2053 6.21625 17.4876 4.50143C15.7698 2.7866 13.4795 1.84553 11.0473 1.84553C6.03056 1.8403 1.94365 5.90257 1.94365 10.9007C1.94365 12.6103 2.42168 14.278 3.33572 15.721L3.5511 16.0661L2.6318 19.4068L6.07784 18.5076Z" fill="url(#paint0_linear_562_1951)"/>
<path fill-rule="evenodd" clip-rule="evenodd" d="M8.31054 6.341C8.10567 5.88615 7.89029 5.87569 7.69593 5.87046C7.53834 5.86523 7.35448 5.86523 7.17062 5.86523C6.98676 5.86523 6.69259 5.9332 6.44044 6.20506C6.18829 6.47693 5.48438 7.13567 5.48438 8.4793C5.48438 9.8177 6.4667 11.1143 6.60328 11.2973C6.73987 11.4803 8.49965 14.3191 11.2785 15.4118C13.5899 16.3215 14.0627 16.1385 14.5617 16.0915C15.0608 16.0444 16.1797 15.4327 16.4108 14.7949C16.6367 14.1571 16.6367 13.6133 16.5684 13.4983C16.5001 13.3833 16.3163 13.3153 16.0431 13.1794C15.7699 13.0435 14.4251 12.3847 14.173 12.2906C13.9209 12.2017 13.737 12.1547 13.5584 12.4265C13.3745 12.6984 12.8492 13.3101 12.6916 13.4931C12.534 13.6761 12.3712 13.697 12.098 13.561C11.8249 13.4251 10.9423 13.1376 9.89698 12.207C9.08275 11.4855 8.53117 10.5915 8.37358 10.3196C8.21599 10.0477 8.35782 9.90136 8.4944 9.76542C8.61522 9.64518 8.76756 9.44651 8.90414 9.28966C9.04072 9.13282 9.088 9.0178 9.1773 8.83482C9.26661 8.65183 9.22458 8.49499 9.15629 8.35905C9.088 8.22835 8.55218 6.87949 8.31054 6.341Z" fill="white"/>
</g>
<defs>
<linearGradient id="paint0_linear_562_1951" x1="11.0021" y1="21.9979" x2="11.0021" y2="0" gradientUnits="userSpaceOnUse">
<stop stop-color="#F9F9F9"/>
<stop offset="1" stop-color="white"/>
</linearGradient>
<clipPath id="clip0_562_1951">
<rect width="22" height="22" fill="white"/>
</clipPath>
</defs>
</svg>
